<svg version="1.1" xmlns="http://www.w3.org/2000/svg" xmlns:xlink="http://www.w3.org/1999/xlink" width="372.21483" height="68.64257" viewBox="0,0,372.21483,68.64257"><g transform="translate(-53.89259,-145.67872)"><g data-paper-data="{&quot;isPaintingLayer&quot;:true}" fill-rule="nonzero" stroke-linecap="butt" stroke-linejoin="miter" stroke-dasharray="" style="mix-blend-mode: normal"><path d="M425.00977,146.42872c0.19313,0 0.34765,0.15452 0.34765,0.34765v66.44531c0,0.19313 -0.15452,0.34961 -0.34765,0.34961h-370.01757c-0.19313,0 -0.34961,-0.15648 -0.34961,-0.34961v-66.44531c0,-0.19313 0.15648,-0.34765 0.34961,-0.34765z" fill="#1e1e1e" stroke="#1eff00" stroke-width="1.5" stroke-miterlimit="4" stroke-dashoffset="17.35"/><path d="M69.10242,187.56529c1.27593,0 2.33409,4.30816 3.36631,5.0581c1.03226,0.74997 5.45655,0.42504 5.85083,1.63854c0.39428,1.21349 -3.37603,3.55109 -3.77031,4.76462c-0.39428,1.2135 1.28194,5.32074 0.24983,6.07075c-1.03226,0.74997 -4.42057,-2.11344 -5.69651,-2.11344c-1.27593,0 -4.66424,2.86341 -5.69651,2.11344c-1.03226,-0.75001 0.64396,-4.85726 0.24983,-6.07075c-0.39428,-1.21353 -4.16459,-3.55113 -3.77031,-4.76462c0.39428,-1.2135 4.81856,-0.88857 5.85083,-1.63854c1.03223,-0.74994 2.09038,-5.0581 3.36631,-5.0581z" fill="#1eff00" stroke="none" stroke-width="0.88188" stroke-miterlimit="4" stroke-dashoffset="17.35"/><path d="M92.03946,188.18329c1.18658,0 2.17066,4.0066 3.13066,4.70403c0.96,0.69748 5.07454,0.39531 5.44123,1.52387c0.36662,1.12853 -3.13969,3.30252 -3.50634,4.43108c-0.36661,1.12856 1.19214,4.94831 0.23206,5.64582c-0.96,0.69748 -4.11111,-1.96551 -5.29773,-1.96551c-1.18666,0 -4.33772,2.66298 -5.29777,1.96551c-0.96,-0.69751 0.59891,-4.51725 0.23207,-5.64582c-0.36662,-1.12856 -3.87304,-3.30255 -3.50635,-4.43108c0.36662,-1.12856 4.48123,-0.82639 5.44124,-1.52387c0.96,-0.69743 1.94408,-4.70403 3.1307,-4.70403z" fill="#1eff00" stroke="none" stroke-width="0.82015" stroke-miterlimit="4" stroke-dashoffset="17.35"/><path d="M207.30469,151.60058c0.12933,0 0.25447,0.03094 0.37305,0.0957c0.12936,0.05392 0.24284,0.12955 0.33984,0.22656c0.09701,0.09701 0.17266,0.21059 0.22656,0.33985c0.0647,0.11867 0.0957,0.24183 0.0957,0.37109c0,0.19402 -0.07565,0.36665 -0.22656,0.51758c-0.74375,0.72219 -1.34025,1.55246 -1.79297,2.49023c-0.45272,0.927 -0.67968,2.00071 -0.67968,3.21875c0,1.21802 0.22696,2.29465 0.67968,3.23242c0.45272,0.93777 1.04922,1.7632 1.79297,2.47461c0.15086,0.15093 0.22657,0.32357 0.22656,0.51758c0.00001,0.2586 -0.10668,0.49525 -0.32226,0.71093c-0.2048,0.21569 -0.44342,0.32227 -0.71289,0.32227c-0.22637,0 -0.43005,-0.097 -0.61328,-0.29102c-0.47428,-0.50661 -0.89523,-1.01292 -1.26172,-1.51953c-0.36649,-0.51739 -0.67396,-1.05665 -0.92188,-1.61718c-0.24792,-0.56051 -0.44191,-1.15216 -0.58203,-1.77734c-0.12936,-0.62518 -0.19336,-1.31096 -0.19336,-2.05469c0,-0.73298 0.064,-1.41192 0.19336,-2.03711c0.12936,-0.63597 0.3185,-1.23246 0.56641,-1.79296c0.2587,-0.56053 0.57101,-1.09496 0.9375,-1.60157c0.36649,-0.51739 0.78744,-1.02855 1.26172,-1.53516c0.18323,-0.19401 0.38691,-0.29101 0.61328,-0.29101zM254.99019,151.60059c0.21558,0 0.42121,0.097 0.61523,0.29102c0.47428,0.50661 0.89328,1.01777 1.25977,1.53516c0.36649,0.50661 0.67396,1.04103 0.92187,1.60156c0.25869,0.56051 0.45267,1.15895 0.58203,1.79493c0.12931,0.62518 0.19531,1.30413 0.19531,2.0371c0,0.74373 -0.07081,1.42755 -0.21093,2.05273c-0.12936,0.62518 -0.3185,1.2188 -0.56641,1.7793c-0.24792,0.56053 -0.56023,1.0998 -0.9375,1.61719c-0.36649,0.50661 -0.78064,1.01292 -1.24414,1.51953c-0.18324,0.19401 -0.38887,0.29101 -0.61523,0.29101c-0.12937,0 -0.25934,-0.0329 -0.38868,-0.09766c-0.11857,-0.05392 -0.22526,-0.12955 -0.32226,-0.22656c-0.09701,-0.097 -0.17266,-0.20555 -0.22656,-0.32422c-0.0539,-0.11868 -0.0801,-0.24184 -0.0801,-0.37109c0,-0.2048 0.0737,-0.38227 0.22461,-0.5332h0.002c0.73297,-0.71141 1.32462,-1.53488 1.77734,-2.47265c0.45272,-0.93778 0.67969,-2.01636 0.67969,-3.23437c0,-1.21804 -0.22697,-2.2966 -0.67969,-3.23437c-0.44194,-0.93778 -1.03359,-1.76125 -1.77734,-2.47266c-0.15086,-0.15088 -0.22656,-0.33031 -0.22656,-0.53516c0,-0.12926 0.0262,-0.25242 0.0801,-0.37109c0.05389,-0.11868 0.12956,-0.22721 0.22656,-0.32421c0.09701,-0.09701 0.20369,-0.17069 0.32226,-0.22461c0.12936,-0.06476 0.25934,-0.09766 0.38868,-0.09766zM68.52539,152.48925c0.23713,0 0.43597,0.08042 0.59766,0.24219c0.17247,0.16171 0.25781,0.36055 0.25781,0.59765c0,0.23726 -0.08533,0.44289 -0.25781,0.61524c-0.1617,0.16176 -0.36053,0.24218 -0.59766,0.24218h-3.02344v10.10547c0,0.25869 -0.097,0.48567 -0.29102,0.67969c-0.18324,0.18318 -0.40537,0.27344 -0.66406,0.27344c-0.26949,0 -0.49645,-0.09026 -0.67969,-0.27344c-0.18323,-0.19402 -0.27344,-0.42099 -0.27344,-0.67969v-10.10547h-3.02344c-0.23713,0 -0.44276,-0.08042 -0.61523,-0.24218c-0.16169,-0.1725 -0.24219,-0.37813 -0.24219,-0.61524c0,-0.23705 0.08049,-0.43589 0.24219,-0.59765c0.17247,-0.16177 0.37811,-0.24219 0.61523,-0.24219zM144.07031,152.48925c0.50662,0 0.97994,0.097 1.42188,0.29102c0.44194,0.18326 0.82991,0.44125 1.16406,0.77539c0.33416,0.33416 0.59411,0.72211 0.77735,1.16406c0.19401,0.44193 0.29101,0.91722 0.29101,1.42383c0,0.50663 -0.097,0.97995 -0.29101,1.42188c-0.18325,0.44195 -0.4432,0.82993 -0.77735,1.16406c-0.33415,0.33416 -0.72212,0.59896 -1.16406,0.79297c-0.44194,0.18318 -0.91526,0.27539 -1.42188,0.27539h-4.00976v4.49414c0,0.25869 -0.09214,0.48567 -0.27539,0.67969c-0.18325,0.18318 -0.41021,0.27344 -0.67969,0.27344c-0.2587,0 -0.48372,-0.09026 -0.67773,-0.27344c-0.1833,-0.19402 -0.2754,-0.42099 -0.2754,-0.67969v-10.54102c0,-0.34492 0.12319,-0.64268 0.3711,-0.89062c0.24792,-0.24793 0.55054,-0.37109 0.90625,-0.37109zM166.54102,152.48926c0.23713,0 0.43596,0.08042 0.59765,0.24219c0.17247,0.16171 0.25977,0.36056 0.25977,0.59766c0,0.23726 -0.08729,0.44289 -0.25977,0.61523c-0.16169,0.16176 -0.36053,0.24218 -0.59765,0.24218h-0.29102c-0.06468,0 -0.15197,0.02136 -0.25976,0.06445c-0.09704,0.04309 -0.14454,0.15667 -0.14454,0.33985v1.5039h0.8086c0.20481,0 0.37746,0.07563 0.51758,0.22656c0.15086,0.14007 0.22656,0.31273 0.22656,0.51758c0,0.21564 -0.07566,0.39311 -0.22656,0.53321c-0.14013,0.14009 -0.31278,0.20898 -0.51758,0.20898h-0.8086v6.80859c0,0.237 -0.08729,0.44068 -0.25976,0.61328c-0.1617,0.16176 -0.36053,0.24219 -0.59766,0.24219c-0.23714,0 -0.43597,-0.08042 -0.59765,-0.24219c-0.16169,-0.1725 -0.24219,-0.37617 -0.24219,-0.61328v-6.80859h-0.59961c-0.20481,0 -0.3823,-0.06889 -0.5332,-0.20898c-0.14009,-0.14004 -0.20899,-0.31752 -0.20899,-0.53321c0,-0.20482 0.06887,-0.37748 0.20899,-0.51758c0.15091,-0.15093 0.3284,-0.22656 0.5332,-0.22656h0.59961v-1.5039c0,-0.24788 0.0427,-0.49621 0.1289,-0.74414c0.09701,-0.24788 0.23183,-0.47484 0.4043,-0.67969c0.18325,-0.20467 0.40342,-0.3657 0.66211,-0.48437c0.2587,-0.12926 0.56132,-0.19336 0.90625,-0.19336zM215.94531,152.48925c0.50662,0 0.98189,0.097 1.42383,0.29102c0.45272,0.19404 0.84069,0.45884 1.16406,0.79297c0.33416,0.32338 0.59896,0.71136 0.79297,1.16407c0.19402,0.44195 0.29102,0.91042 0.29102,1.40625c0,0.29105 -0.05432,0.58686 -0.16211,0.88867c-0.09701,0.30181 -0.24833,0.58794 -0.45313,0.85742c-0.2048,0.25869 -0.46279,0.48568 -0.77539,0.67969c-0.30181,0.19414 -0.6636,0.32895 -1.08398,0.40429c0.26948,0.06475 0.50614,0.16655 0.71094,0.30664c0.2048,0.14025 0.37746,0.29641 0.51758,0.46875c0.1509,0.17247 0.26434,0.35482 0.33984,0.54883c0.08611,0.18316 0.14041,0.35582 0.16211,0.51758l0.35547,3.39648c0.02157,0.2586 -0.05409,0.49525 -0.22657,0.71093c-0.17246,0.21569 -0.40912,0.32422 -0.71093,0.32422c-0.26949,0 -0.49646,-0.08238 -0.67969,-0.24414c-0.18313,-0.16169 -0.28494,-0.37022 -0.30664,-0.62891l-0.24219,-2.76562c-0.03235,-0.33424 -0.11964,-0.61553 -0.25976,-0.8418c-0.12935,-0.23717 -0.302,-0.42436 -0.51758,-0.56445c-0.2048,-0.14009 -0.43662,-0.24383 -0.69532,-0.30859c-0.25869,-0.06475 -0.52833,-0.0957 -0.80859,-0.0957h-3.60547v4.49414c0,0.25869 -0.0902,0.48567 -0.27344,0.67969c-0.18324,0.18318 -0.41021,0.27344 -0.67968,0.27344c-0.25871,0 -0.48567,-0.09026 -0.67969,-0.27344c-0.18324,-0.19402 -0.27344,-0.42099 -0.27344,-0.67969v-10.54102c0,-0.34492 0.12318,-0.64268 0.3711,-0.89062c0.24792,-0.24793 0.55054,-0.37109 0.90625,-0.37109zM244.78125,152.76464c0.19402,0.18323 0.29102,0.40826 0.29102,0.67773c0,0.25869 -0.097,0.48568 -0.29102,0.67969c-0.18324,0.18318 -0.40537,0.27539 -0.66406,0.27539c-0.26948,0 -0.5013,-0.09221 -0.69531,-0.27539c-0.18324,-0.19402 -0.27344,-0.421 -0.27344,-0.67969c0,-0.26953 0.09018,-0.49455 0.27344,-0.67773c0.19402,-0.18318 0.42583,-0.27539 0.69531,-0.27539c0.25871,0 0.48083,0.09221 0.66406,0.27539zM140.06055,158.09863h3.79883c0.26946,0 0.52261,-0.04752 0.75976,-0.14453c0.23713,-0.10789 0.44276,-0.24757 0.61524,-0.41992c0.18324,-0.18328 0.32292,-0.39376 0.41992,-0.63086c0.10781,-0.23716 0.16211,-0.49028 0.16211,-0.75977c0,-0.2695 -0.05432,-0.52267 -0.16211,-0.75977c-0.09702,-0.237 -0.23669,-0.44263 -0.41992,-0.61523c-0.17248,-0.18326 -0.37811,-0.32291 -0.61524,-0.41993c-0.23714,-0.10784 -0.49029,-0.16211 -0.75976,-0.16211h-3.79883zM211.17577,158.09863h4.56055c0.26946,0 0.52261,-0.04752 0.75977,-0.14453c0.23713,-0.10789 0.44276,-0.24757 0.61523,-0.41992c0.18325,-0.18328 0.32292,-0.39376 0.41992,-0.63086c0.10781,-0.23716 0.16211,-0.49028 0.16211,-0.75977c0,-0.2695 -0.05432,-0.52267 -0.16211,-0.75977c-0.09702,-0.237 -0.23669,-0.44263 -0.41992,-0.61523c-0.17248,-0.18326 -0.37811,-0.32291 -0.61523,-0.41993c-0.23715,-0.10784 -0.4903,-0.16211 -0.75977,-0.16211h-4.56055zM74.30273,156.09472c0.54973,0.21559 1.02501,0.5279 1.42383,0.9375c0.39882,0.4096 0.71113,0.91105 0.9375,1.50391c0.22637,0.59283 0.33985,1.27178 0.33985,2.03711c0,0.76531 -0.11347,1.44425 -0.33985,2.03711c-0.22636,0.59283 -0.53868,1.09431 -0.9375,1.50391c-0.39882,0.39896 -0.8741,0.70644 -1.42383,0.92188c-0.53895,0.21569 -1.12575,0.32227 -1.76171,0.32227c-0.63596,0 -1.22957,-0.10658 -1.7793,-0.32227c-0.53895,-0.21556 -1.00743,-0.52303 -1.40625,-0.92187c-0.39882,-0.4096 -0.71113,-0.91107 -0.9375,-1.50391c-0.22637,-0.59285 -0.33984,-1.2718 -0.33984,-2.03711c0,-0.76533 0.11347,-1.44428 0.33984,-2.03711c0.22636,-0.59285 0.53868,-1.0943 0.9375,-1.50391c0.39882,-0.4095 0.8673,-0.72181 1.40625,-0.9375c0.54973,-0.21568 1.14334,-0.32422 1.7793,-0.32422c0.63596,0 1.22276,0.10854 1.76171,0.32422zM97.0293,156.09472c0.54973,0.21559 1.025,0.5279 1.42383,0.9375c0.39881,0.4096 0.71113,0.91105 0.9375,1.50391c0.22636,0.59283 0.33984,1.27178 0.33984,2.03711c0,0.76531 -0.11348,1.44425 -0.33984,2.03711c-0.22636,0.59283 -0.53868,1.09431 -0.9375,1.50391c-0.39883,0.39896 -0.8741,0.70644 -1.42383,0.92188c-0.53895,0.21569 -1.12576,0.32227 -1.76172,0.32227c-0.63596,0 -1.22957,-0.10658 -1.7793,-0.32227c-0.53895,-0.21556 -1.00743,-0.52303 -1.40625,-0.92187c-0.39882,-0.4096 -0.71113,-0.91107 -0.9375,-1.50391c-0.22637,-0.59285 -0.33984,-1.2718 -0.33984,-2.03711c0,-0.76533 0.11347,-1.44428 0.33984,-2.03711c0.22636,-0.59285 0.53868,-1.0943 0.9375,-1.50391c0.39882,-0.4095 0.8673,-0.72181 1.40625,-0.9375c0.54973,-0.21568 1.14333,-0.32422 1.7793,-0.32422c0.63596,0 1.22277,0.10854 1.76172,0.32422zM117.00781,156.09472c0.54974,0.21559 1.02306,0.5279 1.42188,0.9375c0.39881,0.4096 0.71113,0.91105 0.9375,1.50391c0.22637,0.59283 0.33984,1.27178 0.33984,2.03711c0,0.76531 -0.11347,1.44425 -0.33984,2.03711c-0.22636,0.59283 -0.53868,1.09431 -0.9375,1.50391c-0.39882,0.39896 -0.87214,0.70644 -1.42188,0.92188c-0.53895,0.21569 -1.1277,0.32227 -1.76367,0.32227c-0.63596,0 -1.22761,-0.10658 -1.77734,-0.32227c-0.53895,-0.21556 -1.00938,-0.52303 -1.4082,-0.92187c-0.39882,-0.4096 -0.71114,-0.91107 -0.9375,-1.50391c-0.22637,-0.59285 -0.33985,-1.2718 -0.33985,-2.03711c0,-0.76533 0.11348,-1.44428 0.33985,-2.03711c0.22635,-0.59285 0.53867,-1.0943 0.9375,-1.50391c0.39882,-0.4095 0.86925,-0.72181 1.4082,-0.9375c0.54973,-0.21568 1.14138,-0.32422 1.77734,-0.32422c0.63597,0 1.22472,0.10854 1.76367,0.32422zM152.36325,155.7705c0.61441,0 1.18667,0.09221 1.71485,0.27539c0.53895,0.18323 1.00257,0.45289 1.39062,0.80859c0.39881,0.34495 0.71113,0.77074 0.9375,1.27735c0.22637,0.50661 0.33985,1.08371 0.33985,1.73047c0,0.39877 -0.097,0.69944 -0.29102,0.90429c-0.19402,0.20485 -0.42099,0.3086 -0.67969,0.3086h-5.91797c0,0.02142 0.0068,0.11362 0.0176,0.27539c0.02153,0.1508 0.05743,0.33314 0.11133,0.54882c0.06468,0.21556 0.15197,0.44737 0.25977,0.69531c0.11857,0.23708 0.27473,0.45726 0.46874,0.66211c0.19403,0.20485 0.43069,0.37748 0.71094,0.51757c0.29104,0.12927 0.64118,0.19531 1.05078,0.19531c0.33414,0 0.62027,-0.02811 0.85743,-0.08203c0.23715,-0.05392 0.44762,-0.13435 0.63085,-0.24219c0.18325,-0.10771 0.35105,-0.24253 0.50196,-0.4043c0.15091,-0.17255 0.30027,-0.37139 0.45117,-0.59766c0.08622,-0.12926 0.18322,-0.22147 0.29102,-0.27539c0.10779,-0.05392 0.22126,-0.08008 0.33984,-0.08008c0.19402,0 0.37151,0.06889 0.5332,0.20898c0.16174,0.14002 0.24414,0.31751 0.24414,0.5332c0,0.12936 -0.07081,0.32334 -0.21093,0.58204c-0.14013,0.25869 -0.3671,0.51864 -0.67969,0.77734c-0.30181,0.25869 -0.69463,0.48372 -1.17969,0.67773c-0.48506,0.19402 -1.07866,0.29102 -1.7793,0.29102c-0.71141,0 -1.34574,-0.12802 -1.90625,-0.38672c-0.56051,-0.25869 -1.03578,-0.60401 -1.42382,-1.03516c-0.37727,-0.44195 -0.66825,-0.95504 -0.87305,-1.53711c-0.19402,-0.58207 -0.29102,-1.19023 -0.29102,-1.82617c0,-0.65753 0.10184,-1.2773 0.30664,-1.85937c0.2048,-0.59283 0.49578,-1.10398 0.87305,-1.53515c0.38804,-0.43115 0.85167,-0.7716 1.39063,-1.01953c0.53895,-0.25869 1.14224,-0.38868 1.81054,-0.38868zM194.43942,155.7705c0.61441,0 1.18668,0.09221 1.71485,0.27539c0.53895,0.18323 1.00258,0.45289 1.39062,0.80859c0.39882,0.34495 0.71113,0.77074 0.9375,1.27735c0.22637,0.50661 0.33985,1.08371 0.33985,1.73047c0,0.39877 -0.097,0.69944 -0.29102,0.90429c-0.19402,0.20485 -0.42099,0.3086 -0.67969,0.3086h-5.91796c0,0.02142 0.0068,0.11362 0.0176,0.27539c0.02153,0.1508 0.05743,0.33314 0.11133,0.54882c0.06468,0.21556 0.15197,0.44737 0.25977,0.69531c0.11857,0.23708 0.27473,0.45726 0.46875,0.66211c0.19402,0.20485 0.43068,0.37748 0.71093,0.51757c0.29104,0.12927 0.64118,0.19531 1.05079,0.19531c0.33416,0 0.62029,-0.02811 0.85742,-0.08203c0.23715,-0.05392 0.44763,-0.13435 0.63086,-0.24219c0.18324,-0.10771 0.35105,-0.24253 0.50195,-0.4043c0.15091,-0.17255 0.30027,-0.37139 0.45117,-0.59766c0.08623,-0.12926 0.18323,-0.22147 0.29102,-0.27539c0.10779,-0.05392 0.22126,-0.08008 0.33984,-0.08008c0.19402,0 0.37152,0.06889 0.5332,0.20898c0.16164,0.14002 0.24414,0.31751 0.24414,0.5332c0.00001,0.12936 -0.07081,0.32334 -0.21093,0.58204c-0.14013,0.25869 -0.3671,0.51864 -0.67969,0.77734c-0.30181,0.25869 -0.69463,0.48372 -1.17969,0.67773c-0.48505,0.19402 -1.07866,0.29102 -1.77929,0.29102c-0.71142,0 -1.34574,-0.12802 -1.90625,-0.38672c-0.56051,-0.25869 -1.03579,-0.60401 -1.42383,-1.03516c-0.37727,-0.44195 -0.66825,-0.95504 -0.87305,-1.53711c-0.19401,-0.58207 -0.29102,-1.19023 -0.29101,-1.82617c0,-0.65753 0.10184,-1.2773 0.30664,-1.85937c0.2048,-0.59283 0.49578,-1.10398 0.87304,-1.53515c0.38805,-0.43115 0.85168,-0.7716 1.39063,-1.01953c0.53895,-0.25869 1.14224,-0.38868 1.81054,-0.38868zM224.75589,155.7705c0.61441,0 1.18667,0.09221 1.71484,0.27539c0.53896,0.18323 1.00259,0.45289 1.39063,0.80859c0.39882,0.34495 0.71113,0.77074 0.9375,1.27735c0.22637,0.50661 0.33984,1.08371 0.33984,1.73047c0,0.39877 -0.097,0.69944 -0.29101,0.90429c-0.19403,0.20485 -0.42099,0.3086 -0.67969,0.3086h-5.91797c0,0.02142 0.0048,0.11362 0.0156,0.27539c0.02158,0.1508 0.05938,0.33314 0.11328,0.54882c0.06468,0.21556 0.15197,0.44737 0.25976,0.69531c0.11858,0.23708 0.27474,0.45726 0.46875,0.66211c0.19403,0.20485 0.43069,0.37748 0.71094,0.51757c0.29103,0.12927 0.64118,0.19531 1.05078,0.19531c0.33414,0 0.62027,-0.02811 0.85742,-0.08203c0.23715,-0.05392 0.44763,-0.13435 0.63086,-0.24219c0.18325,-0.10771 0.3491,-0.24253 0.5,-0.4043c0.15091,-0.17255 0.30222,-0.37139 0.45313,-0.59766c0.08622,-0.12926 0.18322,-0.22147 0.29101,-0.27539c0.1078,-0.05392 0.22127,-0.08008 0.33985,-0.08008c0.19402,0 0.37151,0.06889 0.5332,0.20898c0.16169,0.14002 0.24219,0.31751 0.24219,0.5332c0,0.12936 -0.06887,0.32334 -0.20899,0.58204c-0.14012,0.25869 -0.36709,0.51864 -0.67968,0.77734c-0.30182,0.25869 -0.69464,0.48372 -1.17969,0.67773c-0.48506,0.19402 -1.07866,0.29102 -1.7793,0.29102c-0.71141,0 -1.34769,-0.12802 -1.9082,-0.38672c-0.56051,-0.25869 -1.03383,-0.60401 -1.42188,-1.03516c-0.37726,-0.44195 -0.66824,-0.95504 -0.87304,-1.53711c-0.19402,-0.58207 -0.29102,-1.19023 -0.29102,-1.82617c0,-0.65753 0.10184,-1.2773 0.30664,-1.85937c0.2048,-0.59283 0.49578,-1.10398 0.87305,-1.53515c0.38804,-0.43115 0.85167,-0.7716 1.39062,-1.01953c0.53895,-0.25869 1.14225,-0.38868 1.81055,-0.38868zM79.39843,156.14355c0.16168,0.16174 0.24219,0.36055 0.24219,0.59766v0.35547c0.06468,-0.07559 0.15682,-0.18218 0.2754,-0.32227c0.12935,-0.14022 0.29715,-0.27504 0.50195,-0.4043c0.2048,-0.12926 0.44631,-0.24284 0.72657,-0.33984c0.29103,-0.097 0.63148,-0.14648 1.01953,-0.14648c0.53895,0 1.00258,0.14648 1.39063,0.4375c0.38804,0.28026 0.68871,0.6304 0.90429,1.05079c0.29104,-0.52828 0.65767,-0.90655 1.09961,-1.13282c0.45272,-0.2371 0.98232,-0.35547 1.58594,-0.35547c0.38804,0 0.74303,0.05906 1.0664,0.17773c0.33416,0.10789 0.62029,0.27568 0.85742,0.50195c0.24793,0.22637 0.44191,0.50766 0.58204,0.8418c0.14013,0.33416 0.20898,0.72213 0.20898,1.16407v5.82031c0,0.237 -0.0805,0.44068 -0.24219,0.61328c-0.16168,0.16176 -0.3605,0.24414 -0.59765,0.24414c-0.23713,0 -0.44276,-0.08238 -0.61523,-0.24414c-0.16169,-0.1725 -0.24219,-0.37617 -0.24219,-0.61328v-5.74023c0,-0.37727 -0.12318,-0.70124 -0.37109,-0.9707c-0.24792,-0.26948 -0.57673,-0.4043 -0.98633,-0.4043c-0.35571,0 -0.66318,0.07084 -0.92187,0.21094c-0.25869,0.12944 -0.47401,0.30694 -0.64648,0.53321c-0.16169,0.22637 -0.28683,0.48437 -0.37304,0.77539c-0.07544,0.29105 -0.11329,0.59366 -0.11329,0.90625v4.68945c0,0.237 -0.0805,0.44068 -0.24219,0.61328c-0.1617,0.16176 -0.36053,0.24414 -0.59765,0.24414c-0.23713,0 -0.44276,-0.08238 -0.61523,-0.24414c-0.16169,-0.1725 -0.24219,-0.37617 -0.24219,-0.61328v-5.74023c0,-0.37727 -0.11834,-0.70124 -0.35546,-0.9707c-0.23714,-0.26948 -0.57079,-0.4043 -1.00196,-0.4043c-0.35571,0 -0.66318,0.07084 -0.92187,0.21094c-0.25869,0.12944 -0.47401,0.30694 -0.64648,0.53321c-0.16169,0.22637 -0.28683,0.48437 -0.37304,0.77539c-0.07546,0.29105 -0.11329,0.59366 -0.11329,0.90625v4.68945c0,0.237 -0.0805,0.44068 -0.24219,0.61328c-0.1617,0.16176 -0.36052,0.24414 -0.59765,0.24414c-0.23713,0 -0.44276,-0.08238 -0.61523,-0.24414c-0.16169,-0.1725 -0.24219,-0.37617 -0.24219,-0.61328v-7.64843c0,-0.23708 0.0805,-0.43589 0.24219,-0.59766c0.17248,-0.17235 0.37811,-0.25977 0.61523,-0.25977c0.23713,0 0.43597,0.08742 0.59765,0.25977zM101.53712,155.88378c0.23714,0 0.43792,0.08742 0.59961,0.25977c0.16169,0.16174 0.24219,0.36055 0.24219,0.59766v0.30664c0.04311,-0.04334 0.12361,-0.12855 0.24219,-0.25781c0.11856,-0.12944 0.26502,-0.25941 0.4375,-0.38867c0.18323,-0.14009 0.38207,-0.25846 0.59765,-0.35547c0.22637,-0.10784 0.46303,-0.16211 0.71094,-0.16211c0.23713,0 0.43597,0.08742 0.59765,0.25977c0.17247,0.16174 0.25977,0.36055 0.25977,0.59766c0,0.22621 -0.08729,0.42505 -0.25977,0.59765c-0.16169,0.16176 -0.36052,0.24414 -0.59765,0.24414c-0.4096,0 -0.74326,0.097 -1.00195,0.29102c-0.2587,0.18326 -0.46433,0.40341 -0.61524,0.66211c-0.14012,0.25869 -0.23711,0.52836 -0.29101,0.80859c-0.0539,0.28032 -0.0801,0.51213 -0.0801,0.69531v4.34961c0,0.237 -0.0805,0.44068 -0.24219,0.61328c-0.1617,0.16176 -0.36248,0.24414 -0.59961,0.24414c-0.23713,0 -0.44081,-0.08238 -0.61328,-0.24414c-0.16169,-0.1725 -0.24219,-0.37617 -0.24219,-0.61328v-7.64843c0,-0.23708 0.0805,-0.43589 0.24219,-0.59766c0.17247,-0.17235 0.37615,-0.25977 0.61328,-0.25977zM106.93752,155.88378c0.23714,0 0.43597,0.08742 0.59766,0.25977c0.16174,0.16174 0.24414,0.36055 0.24414,0.59766v0.30664c0.04311,-0.04334 0.12361,-0.12855 0.24219,-0.25781c0.11856,-0.12944 0.26307,-0.25941 0.43554,-0.38867c0.18324,-0.14009 0.38403,-0.25846 0.59961,-0.35547c0.22637,-0.10784 0.46303,-0.16211 0.71094,-0.16211c0.23714,0 0.43597,0.08742 0.59766,0.25977c0.17246,0.16174 0.25976,0.36055 0.25976,0.59766c0,0.22621 -0.08729,0.42505 -0.25976,0.59765c-0.16168,0.16176 -0.36051,0.24414 -0.59766,0.24414c-0.4096,0 -0.74326,0.097 -1.00195,0.29102c-0.2587,0.18326 -0.46433,0.40341 -0.61524,0.66211c-0.14012,0.25869 -0.23711,0.52836 -0.29101,0.80859c-0.0539,0.28032 -0.0801,0.51213 -0.0801,0.69531v4.34961c0,0.237 -0.08245,0.44068 -0.24414,0.61328c-0.1617,0.16176 -0.36053,0.24414 -0.59766,0.24414c-0.23713,0 -0.44081,-0.08238 -0.61328,-0.24414c-0.16164,-0.1725 -0.24414,-0.37617 -0.24414,-0.61328v-7.64843c0,-0.23708 0.08245,-0.43589 0.24414,-0.59766c0.17248,-0.17235 0.37615,-0.25977 0.61328,-0.25977zM121.0917,155.88379c0.18324,0 0.34909,0.05427 0.5,0.16211c0.16169,0.09706 0.27032,0.23674 0.32422,0.41992l1.97265,6.58203l1.61719,-6.06445c0.07544,-0.25877 0.19862,-0.47893 0.37109,-0.66211c0.18325,-0.19402 0.41991,-0.29102 0.71094,-0.29102c0.29103,0 0.52284,0.09221 0.69531,0.27539c0.18324,0.18326 0.31318,0.40826 0.38868,0.67773l1.61718,6.06445l1.98828,-6.58203c0.0539,-0.18323 0.15574,-0.32291 0.30665,-0.41992c0.15089,-0.10784 0.31869,-0.16211 0.50195,-0.16211c0.07546,0 0.16081,0.01658 0.25781,0.04883c0.09701,0.02142 0.18919,0.06415 0.27539,0.12891c0.09701,0.06475 0.17266,0.15192 0.22656,0.25977c0.0647,0.10771 0.0977,0.24253 0.0977,0.4043c0,0.10784 -0.0165,0.20005 -0.0488,0.27539l-2.37695,7.30664c-0.08623,0.28012 -0.23754,0.50709 -0.45313,0.67969c-0.2048,0.17234 -0.4531,0.25781 -0.74414,0.25781c-0.29103,0 -0.53934,-0.08547 -0.74414,-0.25781c-0.19403,-0.17247 -0.33372,-0.39945 -0.41992,-0.67969l-1.56836,-5.70703l-1.56836,5.70703c-0.08623,0.28012 -0.23074,0.50709 -0.43554,0.67969c-0.19403,0.17234 -0.43264,0.25781 -0.71289,0.25781c-0.30182,0 -0.55497,-0.08547 -0.75977,-0.25781c-0.20481,-0.17247 -0.34935,-0.39945 -0.43555,-0.67969l-2.37695,-7.30664c-0.0323,-0.07534 -0.0488,-0.16755 -0.0488,-0.27539c0,-0.06475 0.0115,-0.1404 0.0332,-0.22657c0.02159,-0.097 0.05939,-0.18922 0.11329,-0.27539c0.06468,-0.09701 0.15002,-0.17743 0.25781,-0.24219c0.1078,-0.06476 0.25427,-0.09766 0.4375,-0.09766zM158.57028,155.88378c0.23714,0 0.43597,0.08742 0.59766,0.25977c0.16169,0.16174 0.24219,0.36055 0.24219,0.59766v0.30664c0.04311,-0.04334 0.12361,-0.12855 0.24218,-0.25781c0.11857,-0.12944 0.26503,-0.25941 0.4375,-0.38867c0.18324,-0.14009 0.38208,-0.25846 0.59766,-0.35547c0.22637,-0.10784 0.46303,-0.16211 0.71094,-0.16211c0.23714,0 0.43792,0.08742 0.59961,0.25977c0.17251,0.16174 0.25781,0.36055 0.25781,0.59766c0,0.22621 -0.08534,0.42505 -0.25781,0.59765c-0.1617,0.16176 -0.36248,0.24414 -0.59961,0.24414c-0.4096,0 -0.74326,0.097 -1.00195,0.29102c-0.25871,0.18326 -0.46238,0.40341 -0.61329,0.66211c-0.14012,0.25869 -0.23711,0.52836 -0.29101,0.80859c-0.0539,0.28032 -0.082,0.51213 -0.082,0.69531v4.34961c0,0.237 -0.0805,0.44068 -0.24219,0.61328c-0.1617,0.16176 -0.36053,0.24414 -0.59766,0.24414c-0.23713,0 -0.44276,-0.08238 -0.61523,-0.24414c-0.16169,-0.1725 -0.24219,-0.37617 -0.24219,-0.61328v-7.64843c0,-0.23708 0.0805,-0.43589 0.24219,-0.59766c0.17245,-0.17235 0.37808,-0.25977 0.61523,-0.25977zM175.08203,155.88373c0.23714,0 0.43597,0.08742 0.59766,0.25977c0.17251,0.16174 0.25781,0.36056 0.25781,0.59766v7.64843c0,0.237 -0.08534,0.44068 -0.25781,0.61328c-0.16167,0.16176 -0.3605,0.24414 -0.59766,0.24414c-0.23713,0 -0.43792,-0.08238 -0.59961,-0.24414c-0.16168,-0.1725 -0.24218,-0.37617 -0.24218,-0.61328v-0.29102c-0.10779,0.09701 -0.24261,0.21537 -0.4043,0.35547c-0.1509,0.12926 -0.34004,0.25242 -0.56641,0.37109c-0.22636,0.11867 -0.4892,0.22242 -0.79101,0.30859c-0.29104,0.07534 -0.63149,0.11133 -1.01953,0.11133v0.002c-0.39883,0 -0.7868,-0.05427 -1.16407,-0.16211c-0.36648,-0.11868 -0.69529,-0.29132 -0.98632,-0.51758c-0.29103,-0.22635 -0.52285,-0.50763 -0.69532,-0.84179c-0.17251,-0.33414 -0.25781,-0.72211 -0.25781,-1.16407v-5.82031c0,-0.23708 0.0805,-0.43589 0.24219,-0.59766c0.17247,-0.17235 0.3781,-0.25782 0.61523,-0.25782c0.23714,0 0.43597,0.08547 0.59766,0.25782c0.16169,0.16174 0.24219,0.36055 0.24219,0.59766v5.62695c0,0.24796 0.05431,0.4633 0.1621,0.64648c0.11857,0.18333 0.26308,0.33949 0.43555,0.46875c0.18324,0.11843 0.38403,0.21064 0.59961,0.2754c0.22636,0.06476 0.44653,0.09766 0.66211,0.09766c0.35571,0 0.67967,-0.05906 0.9707,-0.17773c0.29105,-0.12926 0.53255,-0.3019 0.72657,-0.51758c0.2048,-0.21556 0.36095,-0.46871 0.46875,-0.75977c0.10781,-0.30181 0.16211,-0.62578 0.16211,-0.9707v-4.68945c0,-0.23708 0.08049,-0.43589 0.24218,-0.59766c0.1617,-0.17235 0.36248,-0.25977 0.59961,-0.25977zM178.65233,156.14355c0.16169,0.16174 0.24219,0.36055 0.24219,0.59766v0.35547c0.06468,-0.07559 0.15682,-0.18218 0.27539,-0.32227c0.12935,-0.14022 0.29716,-0.27504 0.50196,-0.4043c0.2048,-0.12926 0.4463,-0.24284 0.72656,-0.33984c0.29103,-0.097 0.63149,-0.14648 1.01953,-0.14648c0.53895,0 1.00258,0.14648 1.39063,0.4375c0.38804,0.28026 0.68871,0.6304 0.90429,1.05079c0.29104,-0.52828 0.65767,-0.90655 1.09961,-1.13282c0.45272,-0.2371 0.98036,-0.35547 1.58399,-0.35547c0.38804,0 0.74498,0.05906 1.06835,0.17773c0.33417,0.10789 0.61835,0.27568 0.85547,0.50195c0.24793,0.22637 0.44192,0.50766 0.58203,0.8418c0.14014,0.33416 0.21094,0.72213 0.21094,1.16407v5.82031c0,0.237 -0.0805,0.44068 -0.24218,0.61328c-0.1617,0.16176 -0.36053,0.24414 -0.59766,0.24414c-0.23713,0 -0.44276,-0.08238 -0.61524,-0.24414c-0.16168,-0.1725 -0.24218,-0.37617 -0.24218,-0.61328v-5.74023c0,-0.37727 -0.12514,-0.70124 -0.37305,-0.9707c-0.24792,-0.26948 -0.57673,-0.4043 -0.98633,-0.4043c-0.35571,0 -0.66122,0.07084 -0.91992,0.21094c-0.25869,0.12944 -0.47597,0.30694 -0.64844,0.53321c-0.16169,0.22637 -0.28489,0.48437 -0.37109,0.77539c-0.07548,0.29105 -0.11328,0.59366 -0.11328,0.90625v4.68945c0,0.237 -0.0805,0.44068 -0.24219,0.61328c-0.1617,0.16176 -0.36053,0.24414 -0.59766,0.24414c-0.23713,0 -0.44276,-0.08238 -0.61523,-0.24414c-0.16169,-0.1725 -0.24219,-0.37617 -0.24219,-0.61328v-5.74023c0,-0.37727 -0.11834,-0.70124 -0.35547,-0.9707c-0.23714,-0.26948 -0.57079,-0.4043 -1.00195,-0.4043c-0.35571,0 -0.66318,0.07084 -0.92188,0.21094c-0.25868,0.12944 -0.47401,0.30694 -0.64648,0.53321c-0.16169,0.22637 -0.28685,0.48437 -0.37305,0.77539c-0.07548,0.29105 -0.11328,0.59366 -0.11328,0.90625v4.68945c0,0.237 -0.0805,0.44068 -0.24219,0.61328c-0.16169,0.16176 -0.36052,0.24414 -0.59765,0.24414c-0.23713,0 -0.44276,-0.08238 -0.61524,-0.24414c-0.16168,-0.1725 -0.24218,-0.37617 -0.24218,-0.61328v-7.64843c0,-0.23708 0.0805,-0.43589 0.24218,-0.59766c0.17246,-0.17235 0.37809,-0.25977 0.61524,-0.25977c0.23713,0 0.43597,0.08742 0.59765,0.25977zM231.54688,156.14355c0.16164,0.16174 0.24414,0.36055 0.24414,0.59766v0.35547c0.06468,-0.07559 0.15486,-0.18218 0.27343,-0.32227c0.12935,-0.14022 0.29716,-0.27504 0.50196,-0.4043c0.2048,-0.12926 0.4463,-0.24284 0.72656,-0.33984c0.29103,-0.097 0.63149,-0.14648 1.01953,-0.14648c0.53895,0 1.00258,0.14648 1.39063,0.4375c0.38804,0.28026 0.68871,0.6304 0.90429,1.05079c0.29104,-0.52828 0.65767,-0.90655 1.09961,-1.13282c0.45272,-0.2371 0.98231,-0.35547 1.58594,-0.35547c0.38804,0 0.74303,0.05906 1.06641,0.17773c0.33416,0.10789 0.62029,0.27568 0.85742,0.50195c0.24793,0.22637 0.44191,0.50766 0.58203,0.8418c0.14008,0.33416 0.20898,0.72213 0.20898,1.16407v5.82031c0,0.237 -0.0805,0.44068 -0.24218,0.61328c-0.16168,0.16176 -0.36051,0.24414 -0.59766,0.24414c-0.23713,0 -0.44276,-0.08238 -0.61523,-0.24414c-0.16169,-0.1725 -0.24219,-0.37617 -0.24219,-0.61328v-5.74023c0,-0.37727 -0.12318,-0.70124 -0.3711,-0.9707c-0.24791,-0.26948 -0.57672,-0.4043 -0.98632,-0.4043c-0.35571,0 -0.66318,0.07084 -0.92188,0.21094c-0.25869,0.12944 -0.47401,0.30694 -0.64648,0.53321c-0.16169,0.22637 -0.28685,0.48437 -0.37305,0.77539c-0.07548,0.29105 -0.11328,0.59366 -0.11328,0.90625v4.68945c0,0.237 -0.0805,0.44068 -0.24219,0.61328c-0.16169,0.16176 -0.36053,0.24414 -0.59765,0.24414c-0.23714,0 -0.44277,-0.08238 -0.61524,-0.24414c-0.16169,-0.1725 -0.24219,-0.37617 -0.24219,-0.61328v-5.74023c0,-0.37727 -0.11834,-0.70124 -0.35547,-0.9707c-0.23714,-0.26948 -0.57079,-0.4043 -1.00195,-0.4043c-0.35571,0 -0.66318,0.07084 -0.92187,0.21094c-0.25869,0.12944 -0.47402,0.30694 -0.64649,0.53321c-0.16169,0.22637 -0.28685,0.48437 -0.37305,0.77539c-0.07542,0.29105 -0.11132,0.59366 -0.11132,0.90625v4.68945c0,0.237 -0.08246,0.44068 -0.24414,0.61328c-0.1617,0.16176 -0.36053,0.24414 -0.59766,0.24414c-0.23713,0 -0.44276,-0.08238 -0.61523,-0.24414c-0.16169,-0.1725 -0.24219,-0.37617 -0.24219,-0.61328v-7.64843c0,-0.23708 0.0805,-0.43589 0.24219,-0.59766c0.17245,-0.17235 0.37808,-0.25977 0.61523,-0.25977c0.23714,0 0.43597,0.08742 0.59766,0.25977zM244.71679,156.14355c0.16169,0.16174 0.24219,0.36055 0.24219,0.59766v7.64843c0,0.237 -0.0805,0.44068 -0.24219,0.61328c-0.1617,0.16176 -0.36248,0.24414 -0.59961,0.24414c-0.23713,0 -0.44081,-0.08238 -0.61328,-0.24414c-0.16169,-0.1725 -0.24219,-0.37617 -0.24219,-0.61328v-7.64843c0,-0.23708 0.0805,-0.43589 0.24219,-0.59766c0.17245,-0.17235 0.37613,-0.25977 0.61328,-0.25977c0.23713,0 0.43792,0.08742 0.59961,0.25977zM246.9082,155.88574c0.3018,0 0.54526,0.13484 0.72852,0.4043l2.05273,2.95898l2.03708,-2.95894c0.18325,-0.26945 0.42671,-0.4043 0.72852,-0.4043c0.2587,0 0.45754,0.09221 0.59766,0.27539c0.14013,0.17242 0.21093,0.36156 0.21093,0.56641c0,0.19399 -0.06111,0.36469 -0.17968,0.51563l-2.48829,3.1543l2.66797,3.44335c0.11854,0.15085 0.17774,0.32835 0.17774,0.5332c0,0.24779 -0.0873,0.45826 -0.25977,0.63086c-0.17246,0.16177 -0.38778,0.24219 -0.64648,0.24219c-0.12934,0 -0.25252,-0.02136 -0.3711,-0.06445c-0.10779,-0.04308 -0.19989,-0.12351 -0.27539,-0.24218l-2.19922,-3.41211l-2.21484,3.41211c-0.07544,0.11867 -0.17244,0.19909 -0.29101,0.24218c-0.1078,0.04308 -0.22127,0.06445 -0.33985,0.06445c-0.09701,0 -0.19885,-0.01052 -0.30664,-0.0332c-0.10779,-0.03225 -0.21159,-0.08173 -0.30859,-0.14648c-0.08623,-0.07534 -0.15991,-0.16559 -0.22461,-0.27343c-0.0539,-0.1185 -0.082,-0.26011 -0.082,-0.42187c0,-0.20478 0.05915,-0.38228 0.17773,-0.53321l2.66797,-3.44335l-2.49024,-3.15234c-0.11853,-0.1509 -0.17773,-0.32161 -0.17773,-0.51562c0,-0.20467 0.07082,-0.39381 0.21094,-0.56641c0.14013,-0.18318 0.33896,-0.2754 0.59765,-0.2754zM71.42578,157.37207c-0.33416,0.12933 -0.62514,0.33497 -0.87305,0.61523c-0.23715,0.26948 -0.42629,0.61964 -0.5664,1.05078c-0.14011,0.43117 -0.21094,0.9423 -0.21094,1.53515c0,0.59283 0.07082,1.10399 0.21094,1.53516c0.14014,0.42039 0.32927,0.7725 0.5664,1.05273c0.24792,0.26953 0.5389,0.47319 0.87305,0.61328c0.34493,0.12926 0.71641,0.19336 1.11523,0.19336c0.39882,0 0.76545,-0.0641 1.0996,-0.19336c0.34492,-0.14014 0.6359,-0.3438 0.87305,-0.61328c0.24793,-0.28024 0.44191,-0.63235 0.58203,-1.05273c0.14012,-0.43117 0.21094,-0.94232 0.21094,-1.53516c0,-0.59285 -0.07082,-1.10398 -0.21094,-1.53515c-0.14013,-0.43115 -0.33412,-0.7813 -0.58203,-1.05078c-0.23714,-0.28034 -0.52813,-0.48598 -0.87305,-0.61523c-0.33415,-0.14009 -0.70078,-0.21094 -1.0996,-0.21094c-0.39882,0 -0.77031,0.07085 -1.11523,0.21094zM94.15234,157.37207c-0.33416,0.12933 -0.62514,0.33497 -0.87304,0.61523c-0.23715,0.26948 -0.42629,0.61964 -0.56641,1.05078c-0.14012,0.43117 -0.21094,0.9423 -0.21094,1.53515c0,0.59283 0.07081,1.10399 0.21094,1.53516c0.14012,0.42039 0.32925,0.7725 0.56641,1.05273c0.24791,0.26953 0.53889,0.47319 0.87304,0.61328c0.34493,0.12926 0.71641,0.19336 1.11524,0.19336c0.39882,0 0.76546,-0.0641 1.09961,-0.19336c0.34494,-0.14014 0.63592,-0.3438 0.87305,-0.61328c0.24792,-0.28024 0.44191,-0.63235 0.58203,-1.05273c0.14013,-0.43117 0.21093,-0.94232 0.21093,-1.53516c0,-0.59285 -0.07081,-1.10398 -0.21093,-1.53515c-0.14014,-0.43115 -0.33412,-0.7813 -0.58203,-1.05078c-0.23714,-0.28034 -0.52812,-0.48598 -0.87305,-0.61523c-0.33415,-0.14009 -0.70078,-0.21094 -1.09961,-0.21094c-0.39882,0 -0.77031,0.07085 -1.11524,0.21094zM114.12891,157.37207c-0.33416,0.12933 -0.62514,0.33497 -0.87305,0.61523c-0.23714,0.26948 -0.42629,0.61964 -0.56641,1.05078c-0.14008,0.43117 -0.20898,0.9423 -0.20898,1.53515c0,0.59283 0.06886,1.10399 0.20898,1.53516c0.14014,0.42039 0.32928,0.7725 0.56641,1.05273c0.24792,0.26953 0.5389,0.47319 0.87305,0.61328c0.34492,0.12926 0.71641,0.19336 1.11523,0.19336c0.39883,0 0.76546,-0.0641 1.09961,-0.19336c0.34494,-0.14014 0.63592,-0.3438 0.87305,-0.61328c0.24793,-0.28024 0.44191,-0.63235 0.58203,-1.05273c0.14014,-0.43117 0.21094,-0.94232 0.21094,-1.53516c0,-0.59285 -0.07082,-1.10398 -0.21094,-1.53515c-0.14014,-0.43115 -0.33412,-0.7813 -0.58203,-1.05078c-0.23714,-0.28034 -0.52812,-0.48598 -0.87305,-0.61523c-0.33415,-0.14009 -0.70078,-0.21094 -1.09961,-0.21094c-0.39882,0 -0.77031,0.07085 -1.11523,0.21094zM152.39651,157.16113c-0.39883,0 -0.73733,0.05906 -1.01758,0.17773c-0.28026,0.11863 -0.51888,0.26995 -0.71289,0.45313c-0.18324,0.17237 -0.32776,0.36635 -0.43555,0.58203c-0.10779,0.21564 -0.18829,0.41448 -0.24219,0.59766c-0.0539,0.18328 -0.0869,0.34623 -0.0977,0.48632c-0.0106,0.12825 -0.0156,0.20389 -0.0156,0.22657h5.23828c0,-0.33416 -0.05431,-0.65327 -0.16211,-0.95508c-0.10778,-0.30191 -0.27558,-0.56475 -0.50195,-0.79102c-0.21558,-0.23715 -0.49492,-0.42631 -0.83984,-0.5664c-0.34493,-0.14009 -0.7494,-0.21094 -1.21289,-0.21094zM194.47258,157.16113c-0.39883,0 -0.73928,0.05906 -1.01953,0.17773c-0.28027,0.11863 -0.51693,0.26995 -0.71094,0.45313c-0.18324,0.17237 -0.32776,0.36635 -0.43555,0.58203c-0.10779,0.21564 -0.18829,0.41448 -0.24219,0.59766c-0.0538,0.18328 -0.0868,0.34623 -0.0976,0.48632c-0.0106,0.12825 -0.0156,0.20389 -0.0156,0.22657h5.23828c0,-0.33416 -0.05431,-0.65327 -0.16211,-0.95508c-0.10777,-0.30191 -0.27558,-0.56475 -0.50195,-0.79102c-0.21558,-0.23715 -0.49491,-0.42631 -0.83984,-0.5664c-0.34493,-0.14009 -0.74939,-0.21094 -1.21289,-0.21094zM224.78908,157.16113c-0.39882,0 -0.73927,0.05906 -1.01953,0.17773c-0.28026,0.11863 -0.51692,0.26995 -0.71093,0.45313c-0.18325,0.17237 -0.32776,0.36635 -0.43555,0.58203c-0.10779,0.21564 -0.19024,0.41448 -0.24414,0.59766c-0.0538,0.18328 -0.0849,0.34623 -0.0957,0.48632c-0.0106,0.12825 -0.0176,0.20389 -0.0176,0.22657h5.24023c0,-0.33416 -0.05432,-0.65327 -0.16211,-0.95508c-0.10778,-0.30191 -0.27558,-0.56475 -0.50195,-0.79102c-0.21558,-0.23715 -0.49492,-0.42631 -0.83985,-0.5664c-0.34492,-0.14009 -0.74939,-0.21094 -1.21289,-0.21094zM103.14448,166.93261c0.23713,0 0.46895,0.08042 0.69531,0.24219c0.22637,0.16169 0.33985,0.37216 0.33985,0.63086c0,0.07559 -0.0048,0.12986 -0.0156,0.16211l-0.40429,1.84375c-0.04311,0.17235 -0.11394,0.31687 -0.21094,0.43555c-0.097,0.11867 -0.23183,0.17773 -0.4043,0.17773c-0.17246,0 -0.30729,-0.05906 -0.40429,-0.17773c-0.09701,-0.11868 -0.16589,-0.2632 -0.20899,-0.43555l-0.4043,-1.84375c-0.0106,-0.03251 -0.0156,-0.08677 -0.0156,-0.16211c0,-0.25862 0.11152,-0.4691 0.33789,-0.63086c0.22637,-0.16177 0.45818,-0.24219 0.69531,-0.24219zM137.75194,167.48144c0.7222,0.36649 1.32549,0.85823 1.81055,1.47266c0.48506,0.6144 0.8517,1.31956 1.09961,2.11719c0.24791,0.78687 0.37305,1.60744 0.37305,2.45898c0,0.86231 -0.12514,1.69062 -0.37305,2.48828c-0.24792,0.78687 -0.61455,1.48911 -1.09961,2.10352c-0.48506,0.6144 -1.08835,1.10421 -1.81055,1.4707c-0.72219,0.36649 -1.5573,0.54883 -2.50585,0.54883c-0.95934,0 -1.79929,-0.18234 -2.52149,-0.54883c-0.72219,-0.36649 -1.32549,-0.85631 -1.81055,-1.4707c-0.48506,-0.6144 -0.85169,-1.31664 -1.09961,-2.10352c-0.23715,-0.79766 -0.35546,-1.62597 -0.35546,-2.48828c0,-0.85155 0.11831,-1.67211 0.35546,-2.45898c0.24792,-0.79763 0.61456,-1.50279 1.09961,-2.11719c0.48506,-0.61442 1.08836,-1.10617 1.81055,-1.47266c0.7222,-0.36649 1.56215,-0.54883 2.52149,-0.54883c0.94855,0 1.78366,0.18234 2.50585,0.54883zM161.41016,166.93262c0.80843,0 1.51356,0.13482 2.11718,0.4043c0.60363,0.25869 1.11189,0.56617 1.52149,0.92188c0.4096,0.35573 0.71512,0.72236 0.91992,1.09961c0.2048,0.37738 0.30859,0.67804 0.30859,0.9043c0.00001,0.17245 -0.0427,0.33539 -0.1289,0.48632c-0.07544,0.15085 -0.17923,0.27888 -0.3086,0.38672c-0.12934,0.10759 -0.27385,0.19501 -0.43554,0.25977c-0.15091,0.06475 -0.30222,0.0957 -0.45313,0.0957c-0.1617,0 -0.30816,-0.03769 -0.4375,-0.11328c-0.12933,-0.07534 -0.23114,-0.18696 -0.30664,-0.33789c-0.08625,-0.17258 -0.19293,-0.37334 -0.32226,-0.59961c-0.11857,-0.23713 -0.28637,-0.45247 -0.50196,-0.64648c-0.2048,-0.20485 -0.46959,-0.37749 -0.79297,-0.51758c-0.31259,-0.14009 -0.7054,-0.20898 -1.17968,-0.20898c-0.53895,0 -1.01907,0.13482 -1.43946,0.4043c-0.4096,0.25869 -0.75974,0.59719 -1.05078,1.01758c-0.28025,0.42039 -0.49558,0.90052 -0.64648,1.43945c-0.14014,0.52817 -0.21094,1.06065 -0.21094,1.59961c0,0.54972 0.07082,1.09385 0.21094,1.63281c0.15091,0.52818 0.36623,1.00344 0.64648,1.42383c0.29104,0.42039 0.64118,0.76567 1.05078,1.03515c0.42039,0.2587 0.90051,0.38672 1.43946,0.38672c0.47428,0 0.86709,-0.06889 1.17968,-0.20898c0.32338,-0.14007 0.58817,-0.31273 0.79297,-0.51758c0.21558,-0.2049 0.38338,-0.42021 0.50196,-0.64648c0.12936,-0.22642 0.23606,-0.43205 0.32226,-0.61523c0.07544,-0.15093 0.17728,-0.26255 0.30664,-0.33789c0.12935,-0.07534 0.27097,-0.11328 0.42188,-0.11328c0.15091,0 0.30027,0.03094 0.45117,0.0957c0.16167,0.0645 0.30814,0.15193 0.4375,0.25977c0.12936,0.10776 0.23124,0.23578 0.30664,0.38671c0.08626,0.15103 0.13086,0.31399 0.13086,0.48633c0,0.23716 -0.10379,0.54463 -0.30859,0.92188c-0.2048,0.37728 -0.51227,0.74391 -0.92188,1.09961c-0.39882,0.35571 -0.90028,0.66123 -1.50391,0.91992c-0.60362,0.25869 -1.30875,0.38868 -2.11718,0.38868c-0.97012,0 -1.82172,-0.18237 -2.55469,-0.54883c-0.72219,-0.36649 -1.32549,-0.85144 -1.81055,-1.45508c-0.47428,-0.6144 -0.83607,-1.31664 -1.08398,-2.10352c-0.23713,-0.79766 -0.35547,-1.62597 -0.35547,-2.48828c0,-0.85155 0.11834,-1.67698 0.35547,-2.47461c0.24792,-0.79765 0.60971,-1.49794 1.08398,-2.10156c0.48506,-0.61442 1.08836,-1.10617 1.81055,-1.47266c0.73297,-0.36649 1.58457,-0.54883 2.55469,-0.54883zM65.92187,167.15917c0.77609,0 1.46474,0.18916 2.06836,0.56641c0.61441,0.36649 1.12751,0.85144 1.53711,1.45508c0.42038,0.59283 0.73754,1.27178 0.95313,2.03711c0.21559,0.76531 0.32422,1.53641 0.32422,2.3125c0,0.78688 -0.10863,1.56282 -0.32422,2.32813c-0.21558,0.75455 -0.53274,1.43349 -0.95312,2.03711c-0.4096,0.60361 -0.9159,1.09343 -1.51953,1.47071c-0.60363,0.36649 -1.29907,0.54883 -2.08594,0.54883h-4.39844c-0.15091,0 -0.30222,-0.02136 -0.45312,-0.06445c-0.15092,-0.05392 -0.29059,-0.12956 -0.41992,-0.22657c-0.11855,-0.10771 -0.21555,-0.24253 -0.29102,-0.40429c-0.07544,-0.16177 -0.11328,-0.35577 -0.11328,-0.58204v-10.2168c0,-0.097 0.0165,-0.21732 0.04883,-0.35742c0.03235,-0.151 0.09635,-0.29066 0.19336,-0.41992c0.09701,-0.14009 0.22698,-0.25367 0.38867,-0.33984c0.17246,-0.09701 0.38779,-0.14454 0.64648,-0.14454zM73.62891,167.49902c0.23715,0.22637 0.35742,0.50085 0.35742,0.82422c0,0.32345 -0.12027,0.59795 -0.35742,0.82422c-0.22636,0.22627 -0.50085,0.33984 -0.82422,0.33984c-0.31258,0 -0.58706,-0.11357 -0.82422,-0.33984c-0.22637,-0.22637 -0.33984,-0.50087 -0.33984,-0.82422c0,-0.32347 0.11347,-0.59795 0.33984,-0.82422c0.23714,-0.22627 0.51163,-0.33984 0.82422,-0.33984c0.32336,0 0.59785,0.11358 0.82422,0.33984zM120.52344,167.45019c0.28025,0.18323 0.52176,0.44607 0.72656,0.79102l4.78711,8.01953v-7.9375c0,-0.32347 0.11348,-0.59795 0.33984,-0.82422c0.23714,-0.22627 0.51163,-0.33984 0.82422,-0.33984c0.32336,0 0.59785,0.11358 0.82422,0.33984c0.23713,0.22637 0.35547,0.50085 0.35547,0.82422v10.20118c0,0.19389 -0.03778,0.37818 -0.11328,0.55078c-0.07544,0.16176 -0.17728,0.30629 -0.30664,0.43554c-0.11856,0.12951 -0.26503,0.23326 -0.4375,0.3086c-0.16169,0.06475 -0.33919,0.0957 -0.5332,0.0957c-0.37727,0 -0.70608,-0.097 -0.98633,-0.29102c-0.26948,-0.19402 -0.50614,-0.45686 -0.71094,-0.79102l-4.78516,-8.01953v7.9375c0,0.31264 -0.12027,0.58907 -0.35742,0.82617c-0.22636,0.22627 -0.50085,0.33789 -0.82422,0.33789c-0.31258,0 -0.58706,-0.11162 -0.82422,-0.33789c-0.22636,-0.23715 -0.33984,-0.51358 -0.33984,-0.82617v-10.21875c0,-0.37727 0.13482,-0.69927 0.4043,-0.96875c0.26947,-0.26945 0.59828,-0.4043 0.98633,-0.4043c0.37726,0 0.70122,0.097 0.9707,0.29102zM142.46877,167.15917c0.24793,0 0.46809,0.05931 0.66211,0.17773c0.20482,0.1186 0.34452,0.29611 0.41992,0.5332l2.58789,8.42383l2.60352,-8.42383c0.07546,-0.23703 0.21028,-0.41453 0.4043,-0.5332c0.2048,-0.11843 0.42982,-0.17773 0.67773,-0.17773c0.19402,0 0.37151,0.03795 0.5332,0.11329c0.16169,0.07559 0.29651,0.17259 0.4043,0.29101c0.11855,0.10777 0.21069,0.23774 0.27539,0.38867c0.0647,0.14017 0.0977,0.27982 0.0977,0.41992c0,0.12926 -0.0214,0.24284 -0.0645,0.33984l-3.70312,10.29883c-0.09701,0.28017 -0.25317,0.50035 -0.46875,0.66211c-0.2048,0.16177 -0.45795,0.24218 -0.75977,0.24218c-0.29103,0 -0.54418,-0.08042 -0.75976,-0.24218c-0.21559,-0.16169 -0.37175,-0.38187 -0.46875,-0.66211l-3.6875,-10.29883c-0.0431,-0.09701 -0.0645,-0.21059 -0.0645,-0.33984c0,-0.12939 0.0262,-0.2642 0.0801,-0.4043c0.0539,-0.1508 0.13635,-0.28562 0.24414,-0.4043c0.10779,-0.11843 0.24261,-0.21542 0.4043,-0.29101c0.16168,-0.07534 0.35566,-0.11329 0.58203,-0.11329zM154.17969,167.51464c0.24791,0.23713 0.37305,0.5281 0.37305,0.87305v10.29883c0,0.34497 -0.12514,0.63594 -0.37305,0.87305c-0.23714,0.2371 -0.52812,0.35547 -0.87305,0.35547c-0.34494,0 -0.63592,-0.11837 -0.87304,-0.35547c-0.23713,-0.23716 -0.35547,-0.52813 -0.35547,-0.87305v-10.29883c0,-0.34497 0.11834,-0.63594 0.35547,-0.87305c0.23714,-0.2371 0.52811,-0.35547 0.87304,-0.35547c0.34492,0 0.6359,0.11837 0.87305,0.35547zM175.58987,167.15922c0.29104,0 0.53935,0.10179 0.74415,0.30664c0.2048,0.2048 0.30664,0.45311 0.30664,0.74414c0,0.30175 -0.10184,0.55492 -0.30664,0.75977c-0.2048,0.20485 -0.45311,0.30664 -0.74415,0.30664h-5.6582v2.76563h4.75391c0.30181,0 0.55496,0.10658 0.75976,0.32227c0.2048,0.2048 0.30664,0.45312 0.30664,0.74414c0,0.29095 -0.10184,0.54408 -0.30664,0.75977c-0.2048,0.20485 -0.45795,0.30859 -0.75976,0.30859l-4.75391,-0.002v3.62304h5.6582c0.29104,0 0.53935,0.10179 0.74415,0.30664c0.2048,0.2048 0.30664,0.45309 0.30664,0.74414c0,0.30176 -0.10184,0.55492 -0.30664,0.75977c-0.2048,0.20485 -0.45311,0.30665 -0.74415,0.30665h-6.85546c-0.15091,0 -0.30027,-0.02136 -0.45118,-0.06445c-0.15089,-0.05392 -0.29251,-0.12956 -0.42187,-0.22657c-0.11855,-0.10771 -0.21552,-0.24253 -0.29102,-0.40429c-0.07548,-0.16177 -0.11328,-0.35577 -0.11328,-0.58204v-10.21875c0,-0.09701 0.0165,-0.21537 0.0488,-0.35547c0.03233,-0.151 0.09831,-0.29066 0.19531,-0.41992c0.09701,-0.14009 0.22503,-0.25367 0.38672,-0.33984c0.17247,-0.09701 0.38779,-0.14454 0.64649,-0.14454zM183.21289,167.15917c0.34494,0 0.63592,0.11836 0.87305,0.35546c0.24791,0.23713 0.37109,0.5281 0.37109,0.87305v9.41015h5.22266c0.30181,0 0.55496,0.10179 0.75976,0.30664c0.2048,0.2048 0.3086,0.45309 0.3086,0.74414c0,0.30176 -0.1038,0.55492 -0.3086,0.75977c-0.2048,0.20485 -0.45795,0.30665 -0.75976,0.30665h-6.41797c-0.15091,0 -0.30222,-0.02136 -0.45312,-0.06445c-0.1509,-0.05392 -0.29057,-0.12956 -0.41993,-0.22657c-0.11857,-0.10771 -0.21561,-0.24058 -0.29101,-0.40234c-0.07548,-0.16177 -0.11328,-0.35576 -0.11328,-0.58203v-10.25196c0,-0.34497 0.11831,-0.63594 0.35546,-0.87305c0.23714,-0.2371 0.52812,-0.35547 0.87305,-0.35547zM209.96679,167.30371c0.21558,0.0861 0.39988,0.21607 0.55078,0.38867c0.16169,0.16177 0.28489,0.35576 0.37109,0.58203c0.09699,0.22637 0.14649,0.46982 0.14649,0.72852v5.85156h0.87304c0.29104,0 0.53935,0.10375 0.74414,0.3086c0.21559,0.2048 0.32227,0.45796 0.32227,0.75977c0,0.291 -0.10668,0.53929 -0.32227,0.74414c-0.2048,0.20485 -0.4531,0.30664 -0.74414,0.30664h-0.87304v1.71289c0,0.34497 -0.12514,0.63594 -0.37305,0.87305c-0.23714,0.2371 -0.52812,0.35547 -0.87305,0.35547c-0.34494,0 -0.63592,-0.11837 -0.87304,-0.35547c-0.23716,-0.23716 -0.35547,-0.52813 -0.35547,-0.87305v-1.71289h-4.00977c-0.31259,0 -0.59193,-0.04948 -0.83984,-0.14648c-0.24793,-0.10792 -0.46325,-0.24757 -0.64649,-0.41992c-0.17246,-0.17255 -0.30729,-0.37139 -0.40429,-0.59766c-0.09699,-0.23716 -0.14649,-0.48545 -0.14649,-0.74414c0,-0.54972 0.21048,-1.06767 0.63086,-1.55273l4.52735,-5.33594c0.23714,-0.28024 0.47865,-0.51693 0.72656,-0.71094c0.25869,-0.20485 0.55647,-0.30664 0.89062,-0.30664c0.23714,0 0.46215,0.04752 0.67774,0.14454zM133.6621,169.4541c-0.43116,0.2587 -0.78615,0.59915 -1.06641,1.01953c-0.28024,0.42039 -0.48587,0.90049 -0.61523,1.43946c-0.12936,0.52817 -0.19336,1.06746 -0.19336,1.61718c0,0.54972 0.064,1.09385 0.19336,1.63282c0.12935,0.52817 0.33498,1.00633 0.61523,1.4375c0.28026,0.42039 0.63525,0.76083 1.06641,1.01953c0.44194,0.2587 0.96958,0.38867 1.58399,0.38867c0.6144,0 1.13719,-0.12997 1.56835,-0.38867c0.43117,-0.25869 0.78811,-0.59914 1.06836,-1.01953c0.28025,-0.43117 0.48392,-0.90933 0.61329,-1.4375c0.12935,-0.53896 0.19335,-1.0831 0.19335,-1.63282c0,-0.54972 -0.06402,-1.08901 -0.19335,-1.61718c-0.12935,-0.53896 -0.33303,-1.01907 -0.61329,-1.43946c-0.28025,-0.42039 -0.63719,-0.76083 -1.06836,-1.01953c-0.43116,-0.2587 -0.95395,-0.38672 -1.56835,-0.38672c-0.61441,0 -1.14205,0.12802 -1.58399,0.38672zM62.7207,177.78223h2.27929c0.63596,0 1.16361,-0.11837 1.58398,-0.35547c0.43116,-0.24791 0.77646,-0.57187 1.03516,-0.9707c0.25869,-0.39882 0.44103,-0.85081 0.54882,-1.35742c0.10779,-0.51739 0.16211,-1.04018 0.16211,-1.56836c0,-0.52818 -0.05432,-1.04612 -0.16211,-1.55273c-0.10779,-0.50661 -0.29013,-0.96054 -0.54882,-1.35937c-0.2587,-0.39879 -0.604,-0.72082 -1.03516,-0.96875c-0.42038,-0.24794 -0.94802,-0.37305 -1.58398,-0.37305h-2.27929zM204.66406,174.85449h3.89649v-4.65625zM89.27344,170.91113c0.57129,0.22637 1.06594,0.54836 1.48633,0.96875c0.42037,0.42039 0.74917,0.92668 0.98633,1.51953c0.24791,0.58204 0.37305,1.22997 0.37305,1.94141c0,0.71141 -0.12514,1.36222 -0.37305,1.95508c-0.23714,0.58208 -0.56595,1.08354 -0.98633,1.50391c-0.42038,0.42043 -0.91503,0.74923 -1.48633,0.98633c-0.57129,0.22627 -1.18623,0.33985 -1.84375,0.33985c-0.64675,0 -1.25683,-0.11358 -1.82812,-0.33985c-0.57129,-0.23715 -1.06595,-0.56594 -1.48633,-0.98633c-0.42039,-0.42036 -0.75404,-0.92183 -1.00195,-1.50391c-0.23712,-0.59285 -0.35743,-1.24367 -0.35743,-1.95508c0,-0.71144 0.1203,-1.35936 0.35743,-1.94141c0.24792,-0.59285 0.58157,-1.09915 1.00195,-1.51953c0.42038,-0.42048 0.91504,-0.74248 1.48633,-0.96875c0.57129,-0.2371 1.18138,-0.35742 1.82813,-0.35742c0.65752,0 1.27246,0.12032 1.84375,0.35742zM95.07421,170.90918c0.22637,0.22637 0.33985,0.496 0.33985,0.80859c0.09701,-0.10784 0.22698,-0.231 0.38867,-0.37109c0.16168,-0.14009 0.35566,-0.26325 0.58203,-0.37109c0.22636,-0.11843 0.48435,-0.21543 0.7754,-0.29102c0.29103,-0.08617 0.61984,-0.13085 0.98633,-0.13085c0.4096,0 0.79757,0.07084 1.16406,0.21093c0.36649,0.14012 0.6856,0.3341 0.95508,0.58203c0.28025,0.24791 0.49558,0.55054 0.64648,0.90625c0.16169,0.34494 0.24219,0.73292 0.24219,1.16406v5.33399c0,0.31264 -0.11348,0.58907 -0.33985,0.82617c-0.22636,0.22627 -0.50084,0.33789 -0.82421,0.33789c-0.32339,0 -0.60272,-0.11162 -0.83985,-0.33789c-0.22637,-0.23715 -0.33984,-0.51358 -0.33984,-0.82617v-4.5586c0,-0.23708 -0.04949,-0.45726 -0.14649,-0.66211c-0.08622,-0.20478 -0.20456,-0.38423 -0.35546,-0.53516c-0.15091,-0.15093 -0.32841,-0.2693 -0.53321,-0.35547c-0.20481,-0.09701 -0.42498,-0.14453 -0.66211,-0.14453c-0.22636,0 -0.44848,0.04752 -0.66406,0.14453c-0.2048,0.08618 -0.3823,0.20454 -0.5332,0.35547c-0.1509,0.15086 -0.27408,0.33031 -0.37109,0.53516c-0.08622,0.20483 -0.13086,0.42501 -0.13086,0.66211v4.5586c0,0.31264 -0.11347,0.58907 -0.33985,0.82617c-0.22636,0.22627 -0.50085,0.33789 -0.82422,0.33789c-0.32338,0 -0.60271,-0.11162 -0.83984,-0.33789c-0.22637,-0.23715 -0.33985,-0.51358 -0.33985,-0.82617v-7.03321c0,-0.31269 0.11347,-0.58233 0.33985,-0.80859c0.23713,-0.23711 0.51647,-0.35546 0.83984,-0.35546c0.32336,0 0.59785,0.11836 0.82422,0.35546zM108.69145,170.55372c0.54973,0 1.04923,0.08042 1.50195,0.24218c0.45272,0.15101 0.83585,0.34014 1.14844,0.56641c0.32336,0.22635 0.57167,0.47466 0.74414,0.74414c0.18329,0.25879 0.27539,0.50225 0.27539,0.72852c0,0.14002 -0.033,0.26803 -0.0977,0.38671c-0.06468,0.11868 -0.15002,0.22243 -0.25781,0.30859c-0.09703,0.07534 -0.21051,0.13944 -0.33984,0.19336c-0.11855,0.04308 -0.2369,0.06445 -0.35547,0.06445c-0.12934,0 -0.25447,-0.02811 -0.37305,-0.08203c-0.11858,-0.06475 -0.20391,-0.17133 -0.25781,-0.32227c-0.08622,-0.20485 -0.20457,-0.37748 -0.35547,-0.51758c-0.14011,-0.1401 -0.30307,-0.25368 -0.48633,-0.33985c-0.17246,-0.09701 -0.35965,-0.16589 -0.56445,-0.20898c-0.19403,-0.04309 -0.38802,-0.06641 -0.58203,-0.06641c-0.42038,0 -0.77248,0.07563 -1.05274,0.22656c-0.28025,0.14014 -0.41992,0.36709 -0.41992,0.67969c0,0.25872 0.13482,0.45756 0.4043,0.59765c0.28025,0.1401 0.62555,0.2652 1.03515,0.37305c0.40961,0.097 0.8519,0.20359 1.32618,0.32227c0.47427,0.10779 0.91656,0.25911 1.32617,0.45313c0.4096,0.18326 0.7481,0.43155 1.01758,0.74414c0.28025,0.30181 0.41992,0.70628 0.41992,1.21289c0,0.53896 -0.10184,1.01228 -0.30664,1.42188c-0.19403,0.39882 -0.46367,0.73926 -0.8086,1.01953c-0.33414,0.2695 -0.73181,0.47319 -1.19531,0.61328c-0.45272,0.1401 -0.93768,0.21094 -1.45508,0.21094c-0.65752,0 -1.23948,-0.09222 -1.74609,-0.2754c-0.50661,-0.19402 -0.93241,-0.43067 -1.27734,-0.71094c-0.34495,-0.28024 -0.60974,-0.58772 -0.79297,-0.92187c-0.17247,-0.34492 -0.25977,-0.66207 -0.25977,-0.95312c0,-0.24788 0.11348,-0.44868 0.33985,-0.59961c0.23714,-0.15093 0.49029,-0.22656 0.75976,-0.22656c0.18325,0 0.35105,0.03794 0.50195,0.11328c0.15091,0.07534 0.25952,0.19371 0.32422,0.35547c0.18325,0.45271 0.44609,0.81934 0.79102,1.0996c0.34493,0.28024 0.79886,0.42188 1.35937,0.42188c0.18326,0 0.3656,-0.02332 0.54883,-0.06641c0.18325,-0.05392 0.34426,-0.12282 0.48438,-0.20898c0.1509,-0.09701 0.27122,-0.21058 0.35742,-0.33984c0.09703,-0.1402 0.14453,-0.3012 0.14453,-0.48437c0,-0.29095 -0.13482,-0.51793 -0.4043,-0.67969c-0.26947,-0.16164 -0.60312,-0.29645 -1.00195,-0.4043c-0.39882,-0.11843 -0.83627,-0.232 -1.31055,-0.33984c-0.47428,-0.11857 -0.90977,-0.27473 -1.30859,-0.46875c-0.39883,-0.19404 -0.73443,-0.44718 -1.00391,-0.75977c-0.26947,-0.31259 -0.40234,-0.73354 -0.40234,-1.26172c0,-0.42039 0.08534,-0.80836 0.25781,-1.16406c0.17247,-0.35568 0.41397,-0.65636 0.72656,-0.9043c0.32338,-0.24797 0.7065,-0.44194 1.14844,-0.58203c0.44194,-0.14009 0.93371,-0.21093 1.47266,-0.21093zM192.31049,170.55371c0.21557,0 0.40956,0.05427 0.58203,0.16211c0.18323,0.0969 0.30639,0.25306 0.37109,0.46875l1.7793,5.96679l1.79297,-5.96679c0.06468,-0.21559 0.18495,-0.37174 0.35742,-0.46875c0.18324,-0.10784 0.38207,-0.16211 0.59766,-0.16211c0.12936,0 0.25933,0.02811 0.38867,0.08203c0.14012,0.04309 0.2633,0.10719 0.37109,0.19336c0.11855,0.08618 0.21552,0.19975 0.29102,0.33984c0.07548,0.12946 0.11328,0.28078 0.11328,0.45313c0,0.09701 -0.0165,0.19401 -0.0488,0.29102l-2.42578,6.95117c-0.11858,0.32338 -0.30092,0.58333 -0.54883,0.77735c-0.24791,0.18318 -0.54374,0.27343 -0.88867,0.27343c-0.34493,0 -0.64271,-0.09025 -0.89063,-0.27343c-0.24791,-0.19404 -0.43025,-0.454 -0.54882,-0.77735l-2.41016,-6.95117c-0.0323,-0.09701 -0.0488,-0.19401 -0.0488,-0.29102c0,-0.34497 0.12514,-0.60978 0.37305,-0.79297c0.24792,-0.18318 0.51271,-0.27539 0.79297,-0.27539zM76.23242,170.55566c0.1509,0 0.28572,0.03094 0.40429,0.0957c0.12936,0.05392 0.23605,0.14613 0.32227,0.27539l1.66602,2.60352l1.6504,-2.60352c0.08623,-0.12926 0.18806,-0.22147 0.30664,-0.27539c0.12935,-0.06475 0.26901,-0.0957 0.41992,-0.0957c0.26948,0 0.5013,0.09026 0.69531,0.27344c0.2048,0.18323 0.30664,0.41021 0.30664,0.67969c0,0.1725 -0.04753,0.32866 -0.14454,0.46875l-2.21484,3.08789l2.61913,3.3145c0.05379,0.06475 0.09161,0.1356 0.11328,0.21094c0.02165,0.07559 0.03125,0.15602 0.03125,0.24218c0,0.09701 -0.02134,0.21059 -0.06445,0.33985c-0.04311,0.11843 -0.11197,0.23679 -0.20898,0.35547c-0.08623,0.10759 -0.20457,0.1998 -0.35547,0.27539c-0.15091,0.07534 -0.33519,0.11328 -0.55078,0.11328c-0.1509,0 -0.28573,-0.02811 -0.4043,-0.08203c-0.11857,-0.05392 -0.22042,-0.14613 -0.30664,-0.27539l-1.89258,-2.94141l-1.9082,2.94141c-0.08623,0.12926 -0.18807,0.22147 -0.30664,0.27539c-0.11857,0.05392 -0.2534,0.08203 -0.4043,0.08203c-0.12935,0 -0.26418,-0.02332 -0.40429,-0.06641c-0.12934,-0.05392 -0.25252,-0.12282 -0.3711,-0.20898c-0.11855,-0.08643 -0.21555,-0.19496 -0.29101,-0.32422c-0.07546,-0.14019 -0.11328,-0.3012 -0.11328,-0.48437c0,-0.08617 0.00958,-0.16659 0.03125,-0.24218c0.02157,-0.07534 0.05938,-0.14618 0.11328,-0.21094l2.6211,-3.31445l-2.2168,-3.08789c-0.09701,-0.14025 -0.14453,-0.29641 -0.14453,-0.46875c0,-0.26953 0.097,-0.49651 0.29102,-0.67969c0.2048,-0.18317 0.44146,-0.27343 0.71094,-0.27343zM73.62891,171.12016c0.23715,0.22635 0.35742,0.50085 0.35742,0.82422v6.80664c0,0.32347 -0.12027,0.5999 -0.35742,0.82617c-0.22636,0.22627 -0.50085,0.3379 -0.82422,0.3379c-0.32337,0 -0.59785,-0.11163 -0.82422,-0.3379c-0.22637,-0.23715 -0.33984,-0.51358 -0.33984,-0.82617v-6.80664c0,-0.32345 0.11347,-0.59795 0.33984,-0.82422c0.23714,-0.2371 0.51163,-0.35547 0.82422,-0.35547c0.32336,0 0.59785,0.11837 0.82422,0.35547zM86.36328,172.51078c-0.31258,0.16169 -0.58222,0.38867 -0.8086,0.67969c-0.21558,0.28026 -0.38338,0.60905 -0.50196,0.98632c-0.11857,0.36649 -0.17773,0.75446 -0.17773,1.16407c0,0.4096 0.05916,0.80241 0.17773,1.17968c0.11856,0.37725 0.28637,0.70607 0.50196,0.98633c0.22636,0.28036 0.49601,0.50734 0.8086,0.67968c0.31259,0.16177 0.66758,0.24219 1.0664,0.24219c0.39882,0 0.75381,-0.08042 1.0664,-0.24219c0.32337,-0.17245 0.59301,-0.39942 0.8086,-0.67968c0.21558,-0.28026 0.38338,-0.60909 0.50195,-0.98633c0.11857,-0.37727 0.17773,-0.77008 0.17773,-1.17968c0,-0.4096 -0.05916,-0.79758 -0.17773,-1.16407c-0.11856,-0.37727 -0.28637,-0.70606 -0.50195,-0.98632c-0.21558,-0.29095 -0.48522,-0.51792 -0.8086,-0.67969c-0.31259,-0.1726 -0.66758,-0.25977 -1.0664,-0.25977c-0.39882,0 -0.75381,0.08717 -1.0664,0.25977zM201.60352,177.81352c0.24791,0.23715 0.37109,0.52812 0.37109,0.87304c0,0.34497 -0.12318,0.63595 -0.37109,0.87305c-0.23714,0.2371 -0.52812,0.35547 -0.87305,0.35547c-0.34492,0 -0.63589,-0.11837 -0.87305,-0.35547c-0.23712,-0.23716 -0.35742,-0.52813 -0.35742,-0.87305c0,-0.34497 0.1203,-0.63594 0.35742,-0.87304c0.23714,-0.24794 0.52812,-0.3711 0.87305,-0.3711c0.34494,0 0.63592,0.12315 0.87305,0.3711z" fill="#1eff00" stroke="none" stroke-width="1.01053" stroke-miterlimit="10" stroke-dashoffset="0"/></g></g></svg>