<svg version="1.1" xmlns="http://www.w3.org/2000/svg" xmlns:xlink="http://www.w3.org/1999/xlink" width="372.21484" height="68.64257" viewBox="0,0,372.21484,68.64257"><g transform="translate(-53.89258,-145.67871)"><g data-paper-data="{&quot;isPaintingLayer&quot;:true}" fill-rule="nonzero" stroke-linecap="butt" stroke-linejoin="miter" stroke-dasharray="" style="mix-blend-mode: normal"><path d="M425.00977,146.42871c0.19313,0 0.34765,0.15452 0.34765,0.34766v66.4453c0,0.19313 -0.15452,0.34961 -0.34765,0.34961h-370.01758c-0.19314,0 -0.34961,-0.15648 -0.34961,-0.34961v-66.4453c0,-0.19314 0.15648,-0.34766 0.34961,-0.34766z" fill="#1e1e1e" stroke="#1eff00" stroke-width="1.5" stroke-miterlimit="4" stroke-dashoffset="17.35"/><path d="M69.10227,187.56573c1.27593,0 2.33409,4.30817 3.36631,5.0581c1.03226,0.74997 5.45654,0.42505 5.85082,1.63854c0.39428,1.21349 -3.37602,3.55109 -3.77031,4.76462c-0.39428,1.21349 1.28194,5.32074 0.24983,6.07075c-1.03226,0.74997 -4.42058,-2.11343 -5.69651,-2.11343c-1.27593,0 -4.66424,2.8634 -5.69651,2.11343c-1.03226,-0.75001 0.64396,-4.85726 0.24983,-6.07075c-0.39428,-1.21353 -4.16459,-3.55112 -3.7703,-4.76462c0.39428,-1.21349 4.81855,-0.88857 5.85082,-1.63854c1.03222,-0.74993 2.09038,-5.0581 3.36631,-5.0581z" fill="#1eff00" stroke="none" stroke-width="0.88188" stroke-miterlimit="4" stroke-dashoffset="17.35"/><path d="M92.03932,187.56573c1.27593,0 2.33405,4.30817 3.36631,5.0581c1.03227,0.74997 5.4565,0.42505 5.85078,1.63854c0.39428,1.21349 -3.37598,3.55109 -3.77026,4.76462c-0.39432,1.21349 1.2819,5.32074 0.24945,6.07075c-1.03223,0.74997 -4.42054,-2.11343 -5.69647,-2.11343c-1.27597,0 -4.66424,2.8634 -5.69651,2.11343c-1.03226,-0.75001 0.64396,-4.85726 0.24945,-6.07075c-0.39428,-1.21353 -4.16455,-3.55112 -3.77026,-4.76462c0.39428,-1.21349 4.81851,-0.88857 5.85078,-1.63854c1.03226,-0.74993 2.09038,-5.0581 3.36635,-5.0581z" fill="#1eff00" stroke="none" stroke-width="0.88188" stroke-miterlimit="4" stroke-dashoffset="17.35"/><path d="M114.97621,187.56573c1.27593,0 2.33409,4.30817 3.36635,5.0581c1.03223,0.74997 5.45651,0.42505 5.85079,1.63854c0.39428,1.21349 -3.37603,3.55109 -3.77031,4.76462c-0.39428,1.21349 1.28194,5.32074 0.24982,6.07075c-1.03227,0.74997 -4.42058,-2.11343 -5.69651,-2.11343c-1.27593,0 -4.66424,2.8634 -5.69651,2.11343c-1.03223,-0.75001 0.64396,-4.85726 0.24983,-6.07075c-0.39428,-1.21353 -4.16458,-3.55112 -3.77031,-4.76462c0.39432,-1.21349 4.81856,-0.88857 5.85082,-1.63854c1.03226,-0.74993 2.09038,-5.0581 3.36631,-5.0581z" fill="#1eff00" stroke="none" stroke-width="0.88188" stroke-miterlimit="4" stroke-dashoffset="17.35"/><path d="M137.91337,195.68805c0.10205,0 0.18671,0.3447 0.26948,0.40467c0.08277,0.0601 0.43649,0.03401 0.46805,0.13115c0.03024,0.09714 -0.27024,0.28422 -0.3016,0.38117c-0.03024,0.09714 0.10242,0.42565 0.01889,0.48567c-0.08277,0.0601 -0.35376,-0.16894 -0.45569,-0.16894c-0.10204,0 -0.37304,0.22904 -0.45574,0.16894c-0.08277,-0.06009 0.0514,-0.38857 0.01889,-0.48567c-0.03024,-0.09714 -0.33297,-0.28422 -0.3016,-0.38117c0.03024,-0.09714 0.38551,-0.07106 0.46805,-0.13115c0.08277,-0.06009 0.16744,-0.40467 0.26948,-0.40467z" fill="#1eff00" stroke="none" stroke-width="0.07055" stroke-miterlimit="4" stroke-dashoffset="17.35"/><path d="M207.30666,151.6006c0.12934,0 0.25252,0.0309 0.3711,0.0957c0.12936,0.05392 0.24284,0.12956 0.33984,0.22656c0.09701,0.09701 0.17266,0.21058 0.22656,0.33984c0.0647,0.11868 0.0957,0.24379 0.0957,0.37305c0,0.19402 -0.07371,0.3647 -0.22461,0.51563c-0.74376,0.72219 -1.34221,1.55245 -1.79493,2.49023c-0.45272,0.92699 -0.67968,2.00071 -0.67968,3.21875c0,1.21804 0.22696,2.29465 0.67968,3.23242c0.45272,0.93778 1.05117,1.7632 1.79493,2.47461c0.15091,0.15091 0.22461,0.32356 0.22461,0.51758c0,0.25885 -0.10669,0.4955 -0.32227,0.71094c-0.2048,0.21568 -0.44146,0.32422 -0.71094,0.32422c-0.22635,0 -0.43198,-0.097 -0.61523,-0.29102c-0.47428,-0.50661 -0.89523,-1.01485 -1.26172,-1.52148c-0.3665,-0.5174 -0.67396,-1.05473 -0.92188,-1.61524c-0.24792,-0.5605 -0.44191,-1.15411 -0.58203,-1.77929c-0.12936,-0.62519 -0.19336,-1.30898 -0.19336,-2.05274c0,-0.73298 0.064,-1.41192 0.19336,-2.03711c0.12936,-0.63597 0.3185,-1.23442 0.56641,-1.79492c0.2587,-0.56053 0.57101,-1.09496 0.9375,-1.60156c0.36649,-0.5174 0.78744,-1.02855 1.26172,-1.53516c0.18323,-0.19401 0.38886,-0.29101 0.61523,-0.29101zM254.99025,151.60063c0.21559,0 0.42121,0.09699 0.61523,0.29101c0.47428,0.50661 0.89523,1.01776 1.26172,1.53516c0.3665,0.5066 0.67201,1.04103 0.91992,1.60156c0.25869,0.5605 0.45267,1.15895 0.58203,1.79492c0.12932,0.62519 0.19532,1.30413 0.19532,2.03711c0,0.74376 -0.07082,1.42755 -0.21094,2.05274c-0.12936,0.62518 -0.3185,1.21879 -0.56641,1.77929c-0.24792,0.56051 -0.56023,1.09784 -0.9375,1.61524c-0.36649,0.50663 -0.78064,1.01487 -1.24414,1.52148c-0.18324,0.19402 -0.38887,0.29102 -0.61523,0.29102c-0.12936,0 -0.25739,-0.0329 -0.38672,-0.0977c-0.11858,-0.05392 -0.22722,-0.12956 -0.32422,-0.22656c-0.09701,-0.09701 -0.17266,-0.20384 -0.22656,-0.32227c-0.0539,-0.11868 -0.0801,-0.24379 -0.0801,-0.37304c0,-0.20478 0.07566,-0.38228 0.22656,-0.53321c0.73298,-0.71141 1.32462,-1.53488 1.77734,-2.47265c0.45272,-0.93778 0.67969,-2.01634 0.67969,-3.23438c0,-1.21804 -0.22697,-2.2966 -0.67969,-3.23437c-0.44194,-0.93778 -1.03358,-1.76125 -1.77734,-2.47266c-0.15086,-0.15088 -0.22656,-0.33031 -0.22656,-0.53516c0,-0.12926 0.0262,-0.25241 0.0801,-0.37109c0.05389,-0.11868 0.12956,-0.22722 0.22656,-0.32422c0.09701,-0.09701 0.20564,-0.17266 0.32422,-0.22656c0.12933,-0.0648 0.25736,-0.0957 0.38672,-0.0957zM68.5254,152.48928c0.23713,0 0.43597,0.08042 0.59765,0.24218c0.17247,0.16172 0.25781,0.36056 0.25781,0.59766c0,0.23725 -0.08534,0.44289 -0.25781,0.61523c-0.1617,0.16179 -0.36052,0.24219 -0.59765,0.24219h-3.02539v10.10547c0,0.2587 -0.09701,0.48567 -0.29102,0.67969c-0.18324,0.18319 -0.40341,0.27539 -0.6621,0.27539c-0.26946,0 -0.49644,-0.09221 -0.67969,-0.27539c-0.18322,-0.19402 -0.27344,-0.42099 -0.27344,-0.67969v-10.10547h-3.02344c-0.23713,0 -0.44277,-0.08042 -0.61524,-0.24219c-0.16169,-0.17249 -0.24218,-0.37813 -0.24218,-0.61523c0,-0.23705 0.08049,-0.43589 0.24218,-0.59766c0.17245,-0.16178 0.37808,-0.24218 0.61524,-0.24218zM144.07031,152.48928c0.50662,0 0.97994,0.097 1.42188,0.29101c0.44194,0.18326 0.82991,0.44126 1.16406,0.77539c0.33417,0.33416 0.59411,0.72407 0.77735,1.16602c0.19401,0.44193 0.29101,0.91527 0.29101,1.42187c0,0.50664 -0.097,0.9819 -0.29101,1.42383c-0.18325,0.44195 -0.4432,0.82993 -0.77735,1.16406c-0.33415,0.33417 -0.72212,0.597 -1.16406,0.79102c-0.44194,0.18319 -0.91526,0.27539 -1.42188,0.27539h-4.00976v4.49414c0,0.2587 -0.09216,0.48567 -0.27539,0.67969c-0.18325,0.18319 -0.41021,0.27539 -0.67969,0.27539c-0.25871,0 -0.48372,-0.09221 -0.67773,-0.27539c-0.18329,-0.19402 -0.27539,-0.42099 -0.27539,-0.67969v-10.54101c0,-0.34492 0.12318,-0.64074 0.37109,-0.88868c0.24792,-0.24793 0.55054,-0.37304 0.90625,-0.37304zM166.54103,152.48923c0.23714,0 0.43597,0.08042 0.59765,0.24218c0.17247,0.16172 0.25977,0.36056 0.25977,0.59766c0,0.23725 -0.08729,0.44289 -0.25977,0.61523c-0.16167,0.16179 -0.3605,0.24219 -0.59765,0.24219h-0.29102c-0.06468,0 -0.15197,0.0214 -0.25976,0.0645c-0.09704,0.04308 -0.14454,0.15666 -0.14454,0.33984v1.50391h0.8086c0.20481,0 0.37746,0.07563 0.51758,0.22656c0.15086,0.14009 0.22656,0.31273 0.22656,0.51758c0,0.21561 -0.07566,0.3931 -0.22656,0.5332c-0.14013,0.14004 -0.31278,0.21094 -0.51758,0.21094h-0.8086v6.80664c0,0.23728 -0.08729,0.44093 -0.25976,0.61328c-0.1617,0.16174 -0.36053,0.24414 -0.59766,0.24414c-0.23713,0 -0.43596,-0.08238 -0.59765,-0.24414c-0.16169,-0.17252 -0.24219,-0.37618 -0.24219,-0.61328v-6.80664h-0.59961c-0.20481,0 -0.3823,-0.07085 -0.5332,-0.21094c-0.14009,-0.14002 -0.20899,-0.31752 -0.20899,-0.5332c0,-0.20485 0.06887,-0.37749 0.20899,-0.51758c0.15091,-0.15096 0.3284,-0.22656 0.5332,-0.22656h0.59961v-1.50391c0,-0.24789 0.04271,-0.4962 0.12891,-0.74414c0.097,-0.24789 0.23182,-0.47289 0.40429,-0.67774c0.18325,-0.20492 0.40341,-0.3679 0.66211,-0.48632c0.2587,-0.12926 0.56132,-0.19336 0.90625,-0.19336zM215.94728,152.48932c0.50661,0 0.97993,0.097 1.42187,0.29101c0.45272,0.19404 0.84069,0.45884 1.16406,0.79297c0.33416,0.32338 0.59896,0.71135 0.79297,1.16406c0.19402,0.44196 0.29102,0.91043 0.29102,1.40625c0,0.29105 -0.05432,0.58687 -0.16211,0.88868c-0.09701,0.3018 -0.24833,0.58794 -0.45312,0.85742c-0.20481,0.25872 -0.4628,0.48567 -0.7754,0.67968c-0.30181,0.19412 -0.6636,0.329 -1.08398,0.4043c0.26948,0.06476 0.50614,0.16655 0.71094,0.30664c0.20481,0.14025 0.37746,0.29641 0.51758,0.46875c0.1509,0.17247 0.26434,0.35677 0.33984,0.55078c0.08611,0.18318 0.14041,0.35386 0.16211,0.51563l0.35547,3.39648c0.02157,0.2586 -0.05409,0.49526 -0.22656,0.71094c-0.17247,0.21569 -0.40913,0.32422 -0.71094,0.32422c-0.26949,0 -0.49646,-0.08042 -0.67969,-0.24219c-0.18313,-0.16169 -0.28494,-0.37216 -0.30664,-0.63086l-0.24219,-2.76562c-0.03235,-0.33426 -0.11964,-0.61358 -0.25976,-0.83985c-0.12935,-0.23715 -0.302,-0.42631 -0.51758,-0.5664c-0.2048,-0.1401 -0.43662,-0.24184 -0.69531,-0.30664c-0.2587,-0.0648 -0.52639,-0.0977 -0.80665,-0.0977h-3.60742v4.49414c0,0.2587 -0.0902,0.48567 -0.27343,0.67969c-0.18325,0.18319 -0.41021,0.27539 -0.67969,0.27539c-0.25871,0 -0.48567,-0.09221 -0.67969,-0.27539c-0.18324,-0.19402 -0.27344,-0.42099 -0.27344,-0.67969v-10.54101c0,-0.34492 0.12319,-0.64269 0.3711,-0.89063c0.24791,-0.24794 0.55054,-0.37109 0.90625,-0.37109zM244.78126,152.76467c0.19402,0.18325 0.29102,0.40825 0.29102,0.67773c0,0.2587 -0.097,0.48567 -0.29102,0.67969c-0.18324,0.18319 -0.40341,0.27539 -0.66211,0.27539c-0.26948,0 -0.50129,-0.09221 -0.69531,-0.27539c-0.18329,-0.19402 -0.27539,-0.42099 -0.27539,-0.67969c0,-0.26955 0.09213,-0.49455 0.27539,-0.67773c0.19402,-0.18319 0.42584,-0.27539 0.69531,-0.27539c0.25869,0 0.47886,0.09221 0.66211,0.27539zM140.06055,158.1006h3.79883c0.26946,0 0.52261,-0.04949 0.75976,-0.14649c0.23714,-0.10789 0.44276,-0.24757 0.61524,-0.41992c0.18324,-0.18328 0.32292,-0.39376 0.41992,-0.63086c0.10781,-0.23715 0.16211,-0.49029 0.16211,-0.75977c0,-0.2695 -0.05432,-0.52266 -0.16211,-0.75976c-0.09702,-0.23726 -0.23669,-0.44289 -0.41992,-0.61524c-0.17246,-0.18325 -0.37808,-0.32292 -0.61524,-0.41992c-0.23714,-0.10781 -0.49029,-0.16211 -0.75976,-0.16211h-3.79883zM211.17579,158.1006h4.56055c0.26946,0 0.52261,-0.04949 0.75977,-0.14649c0.23713,-0.10789 0.44276,-0.24757 0.61523,-0.41992c0.18325,-0.18328 0.32292,-0.39376 0.41992,-0.63086c0.10781,-0.23715 0.16211,-0.49029 0.16211,-0.75977c0,-0.2695 -0.05432,-0.52266 -0.16211,-0.75976c-0.09702,-0.23726 -0.23669,-0.44289 -0.41992,-0.61524c-0.17245,-0.18325 -0.37808,-0.32292 -0.61523,-0.41992c-0.23714,-0.10781 -0.49029,-0.16211 -0.75977,-0.16211h-4.56055zM74.30274,156.09473c0.54973,0.21558 1.02501,0.5279 1.42383,0.9375c0.39882,0.4096 0.71113,0.91105 0.9375,1.5039c0.22637,0.59286 0.33985,1.27181 0.33985,2.03711c0,0.76531 -0.11347,1.44425 -0.33985,2.03711c-0.22636,0.59286 -0.53868,1.09431 -0.9375,1.50391c-0.39882,0.39871 -0.8741,0.70619 -1.42383,0.92187c-0.53895,0.21569 -1.12575,0.32422 -1.76171,0.32422c-0.63597,0 -1.22957,-0.10853 -1.7793,-0.32422c-0.53895,-0.21558 -1.00743,-0.52306 -1.40625,-0.92187c-0.39882,-0.4096 -0.71113,-0.91105 -0.9375,-1.50391c-0.22637,-0.59286 -0.33984,-1.2718 -0.33984,-2.03711c0,-0.7653 0.11347,-1.44425 0.33984,-2.03711c0.22636,-0.59285 0.53868,-1.0943 0.9375,-1.5039c0.39882,-0.4095 0.8673,-0.72182 1.40625,-0.9375c0.54973,-0.21569 1.14333,-0.32422 1.7793,-0.32422c0.63596,0 1.22276,0.10853 1.76171,0.32422zM97.0293,156.09473c0.54973,0.21558 1.025,0.5279 1.42383,0.9375c0.39882,0.4096 0.71113,0.91105 0.9375,1.5039c0.22637,0.59286 0.33984,1.27181 0.33984,2.03711c0,0.76531 -0.11347,1.44425 -0.33984,2.03711c-0.22636,0.59286 -0.53868,1.09431 -0.9375,1.50391c-0.39883,0.39871 -0.8741,0.70619 -1.42383,0.92187c-0.53895,0.21569 -1.12575,0.32422 -1.76172,0.32422c-0.63596,0 -1.22956,-0.10853 -1.77929,-0.32422c-0.53895,-0.21558 -1.00743,-0.52306 -1.40625,-0.92187c-0.39882,-0.4096 -0.71113,-0.91105 -0.9375,-1.50391c-0.22637,-0.59286 -0.33985,-1.2718 -0.33985,-2.03711c0,-0.7653 0.11347,-1.44425 0.33985,-2.03711c0.22636,-0.59285 0.53868,-1.0943 0.9375,-1.5039c0.39882,-0.4095 0.8673,-0.72182 1.40625,-0.9375c0.54973,-0.21569 1.14333,-0.32422 1.77929,-0.32422c0.63597,0 1.22277,0.10853 1.76172,0.32422zM117.00781,156.09473c0.54974,0.21558 1.02305,0.5279 1.42188,0.9375c0.39882,0.4096 0.71113,0.91105 0.9375,1.5039c0.22637,0.59286 0.33984,1.27181 0.33984,2.03711c0,0.76531 -0.11347,1.44425 -0.33984,2.03711c-0.22636,0.59286 -0.53868,1.09431 -0.9375,1.50391c-0.39883,0.39871 -0.87214,0.70619 -1.42188,0.92187c-0.53895,0.21569 -1.1277,0.32422 -1.76367,0.32422c-0.63596,0 -1.22761,-0.10853 -1.77734,-0.32422c-0.53895,-0.21558 -1.00938,-0.52306 -1.4082,-0.92187c-0.39882,-0.4096 -0.71114,-0.91105 -0.9375,-1.50391c-0.22637,-0.59286 -0.33985,-1.2718 -0.33985,-2.03711c0,-0.7653 0.11348,-1.44425 0.33985,-2.03711c0.22635,-0.59285 0.53867,-1.0943 0.9375,-1.5039c0.39882,-0.4095 0.86925,-0.72182 1.4082,-0.9375c0.54973,-0.21569 1.14138,-0.32422 1.77734,-0.32422c0.63597,0 1.22472,0.10853 1.76367,0.32422zM152.36326,155.77252c0.61441,0 1.18667,0.09026 1.71485,0.27344c0.53895,0.18323 1.00258,0.45289 1.39062,0.80859c0.39882,0.34495 0.71113,0.77074 0.9375,1.27734c0.22637,0.50661 0.33985,1.08372 0.33985,1.73047c0,0.39877 -0.097,0.7014 -0.29102,0.90625c-0.19402,0.20485 -0.42099,0.30664 -0.67969,0.30664h-5.91797c0,0.02142 0.0068,0.11363 0.0176,0.2754c0.02158,0.1508 0.05938,0.33314 0.11328,0.54882c0.06468,0.21556 0.15002,0.44738 0.25782,0.69532c0.11857,0.2371 0.27473,0.45921 0.46875,0.66406c0.19402,0.20482 0.43068,0.37748 0.71093,0.51758c0.29104,0.12926 0.64118,0.19336 1.05078,0.19336c0.33414,0 0.62027,-0.0281 0.85743,-0.082c0.23715,-0.05392 0.44762,-0.13434 0.63086,-0.24218c0.18324,-0.10772 0.35104,-0.24254 0.50195,-0.4043c0.15091,-0.17255 0.30027,-0.37139 0.45117,-0.59766c0.08622,-0.12926 0.18322,-0.22149 0.29102,-0.27539c0.10779,-0.0539 0.22126,-0.0801 0.33984,-0.0801c0.19402,0 0.37151,0.06888 0.5332,0.20898c0.16164,0.14004 0.24414,0.31947 0.24414,0.53516c0,0.12933 -0.07081,0.32333 -0.21093,0.58203c-0.14013,0.25869 -0.3671,0.51669 -0.67969,0.77539c-0.30181,0.25872 -0.69463,0.48567 -1.17969,0.67968c-0.48506,0.19402 -1.07866,0.29102 -1.7793,0.29102c-0.71141,0 -1.34573,-0.12998 -1.90625,-0.38867c-0.56051,-0.2587 -1.03578,-0.60399 -1.42382,-1.03516c-0.37727,-0.44193 -0.66825,-0.95308 -0.87305,-1.53515c-0.19402,-0.58208 -0.29102,-1.19216 -0.29102,-1.82813c0,-0.65751 0.10184,-1.2773 0.30664,-1.85937c0.2048,-0.59286 0.49578,-1.10399 0.87305,-1.53516c0.38805,-0.43114 0.85167,-0.77159 1.39063,-1.01953c0.53895,-0.2587 1.14224,-0.38672 1.81054,-0.38672zM194.43944,155.77252c0.6144,0 1.18666,0.09026 1.71484,0.27344c0.53895,0.18323 1.00258,0.45289 1.39062,0.80859c0.39882,0.34495 0.71114,0.77074 0.9375,1.27734c0.22637,0.50661 0.33985,1.08372 0.33985,1.73047c0,0.39877 -0.097,0.7014 -0.29102,0.90625c-0.19402,0.20485 -0.42099,0.30664 -0.67969,0.30664h-5.91796c0,0.02142 0.0068,0.11363 0.0176,0.2754c0.02159,0.1508 0.05939,0.33314 0.11329,0.54882c0.06468,0.21556 0.15002,0.44738 0.25781,0.69532c0.11857,0.2371 0.27473,0.45921 0.46875,0.66406c0.19402,0.20482 0.43068,0.37748 0.71094,0.51758c0.29103,0.12926 0.64117,0.19336 1.05078,0.19336c0.33416,0 0.62029,-0.0281 0.85742,-0.082c0.23715,-0.05392 0.44763,-0.13434 0.63086,-0.24218c0.18324,-0.10772 0.35105,-0.24254 0.50195,-0.4043c0.15091,-0.17255 0.30027,-0.37139 0.45117,-0.59766c0.08623,-0.12926 0.18323,-0.22149 0.29102,-0.27539c0.10779,-0.0539 0.22127,-0.0801 0.33984,-0.0801c0.19402,0 0.37152,0.06888 0.5332,0.20898c0.16165,0.14004 0.24415,0.31947 0.24415,0.53516c0,0.12933 -0.07082,0.32333 -0.21094,0.58203c-0.14013,0.25869 -0.36709,0.51669 -0.67969,0.77539c-0.30181,0.25872 -0.69463,0.48567 -1.17969,0.67968c-0.48506,0.19402 -1.07866,0.29102 -1.77929,0.29102c-0.71142,0 -1.34574,-0.12998 -1.90625,-0.38867c-0.56051,-0.2587 -1.03579,-0.60399 -1.42383,-1.03516c-0.37727,-0.44193 -0.66825,-0.95308 -0.87305,-1.53515c-0.19401,-0.58208 -0.29101,-1.19216 -0.29101,-1.82813c0,-0.65751 0.10184,-1.2773 0.30664,-1.85937c0.2048,-0.59286 0.49578,-1.10399 0.87304,-1.53516c0.38805,-0.43114 0.85168,-0.77159 1.39063,-1.01953c0.53895,-0.2587 1.14224,-0.38672 1.81055,-0.38672zM224.75589,155.77252c0.61441,0 1.18667,0.09026 1.71484,0.27344c0.53896,0.18323 1.00259,0.45289 1.39063,0.80859c0.39882,0.34495 0.71113,0.77074 0.9375,1.27734c0.22637,0.50661 0.33984,1.08372 0.33984,1.73047c0,0.39877 -0.097,0.7014 -0.29101,0.90625c-0.19403,0.20485 -0.42099,0.30664 -0.67969,0.30664h-5.91797c0,0.02142 0.0048,0.11363 0.0156,0.2754c0.02158,0.1508 0.05938,0.33314 0.11328,0.54882c0.06468,0.21556 0.15197,0.44738 0.25976,0.69532c0.11858,0.2371 0.27474,0.45921 0.46875,0.66406c0.19403,0.20482 0.43069,0.37748 0.71094,0.51758c0.29104,0.12926 0.64118,0.19336 1.05078,0.19336c0.33416,0 0.6203,-0.0281 0.85742,-0.082c0.23716,-0.05392 0.44763,-0.13434 0.63086,-0.24218c0.18325,-0.10772 0.35105,-0.24254 0.50196,-0.4043c0.15091,-0.17255 0.30026,-0.37139 0.45117,-0.59766c0.08622,-0.12926 0.18322,-0.22149 0.29101,-0.27539c0.1078,-0.0539 0.22127,-0.0801 0.33985,-0.0801c0.19402,0 0.37151,0.06888 0.5332,0.20898c0.16174,0.14004 0.24414,0.31947 0.24414,0.53516c0,0.12933 -0.07082,0.32333 -0.21094,0.58203c-0.14012,0.25869 -0.36709,0.51669 -0.67968,0.77539c-0.30182,0.25872 -0.69463,0.48567 -1.17969,0.67968c-0.48506,0.19402 -1.07866,0.29102 -1.7793,0.29102c-0.71142,0 -1.34769,-0.12998 -1.9082,-0.38867c-0.56051,-0.2587 -1.03383,-0.60399 -1.42188,-1.03516c-0.37727,-0.44193 -0.66824,-0.95308 -0.87304,-1.53515c-0.19402,-0.58208 -0.29102,-1.19216 -0.29102,-1.82813c0,-0.65751 0.10184,-1.2773 0.30664,-1.85937c0.20481,-0.59286 0.49578,-1.10399 0.87305,-1.53516c0.38805,-0.43114 0.85167,-0.77159 1.39062,-1.01953c0.53896,-0.2587 1.14225,-0.38672 1.81055,-0.38672zM87.14454,155.88391c0.38804,0 0.74303,0.06101 1.0664,0.17969c0.33416,0.10789 0.62029,0.27373 0.85742,0.5c0.24793,0.22636 0.44191,0.50766 0.58204,0.84179c0.14011,0.33416 0.20898,0.72211 0.20898,1.16406v5.82032c0,0.23728 -0.0805,0.44289 -0.24219,0.61523c-0.1617,0.16179 -0.36052,0.24219 -0.59765,0.24219c-0.23713,0 -0.44277,-0.08042 -0.61524,-0.24219c-0.16169,-0.17252 -0.24219,-0.37813 -0.24219,-0.61523v-5.74024c0,-0.37724 -0.12318,-0.70122 -0.37109,-0.9707c-0.24792,-0.26948 -0.57673,-0.4043 -0.98633,-0.4043c-0.35571,0 -0.66317,0.07085 -0.92187,0.21094c-0.25869,0.12946 -0.47402,0.30694 -0.64649,0.5332c-0.16169,0.22635 -0.28682,0.4863 -0.37304,0.77735c-0.07546,0.29102 -0.11328,0.5917 -0.11328,0.90429v4.68946c0,0.23728 -0.0805,0.44289 -0.24219,0.61523c-0.1617,0.16179 -0.36052,0.24219 -0.59765,0.24219c-0.23713,0 -0.44277,-0.08042 -0.61524,-0.24219c-0.16169,-0.17252 -0.24219,-0.37813 -0.24219,-0.61523v-5.74024c0,-0.37724 -0.11831,-0.70122 -0.35546,-0.9707c-0.23714,-0.26948 -0.57079,-0.4043 -1.00196,-0.4043c-0.35571,0 -0.66317,0.07085 -0.92187,0.21094c-0.25869,0.12946 -0.47402,0.30694 -0.64649,0.5332c-0.16169,0.22635 -0.28682,0.4863 -0.37304,0.77735c-0.07544,0.29102 -0.11328,0.5917 -0.11328,0.90429v4.68946c0,0.23728 -0.0805,0.44093 -0.24219,0.61328c-0.1617,0.16174 -0.36052,0.24414 -0.59765,0.24414c-0.23713,0 -0.44277,-0.08238 -0.61524,-0.24414c-0.16169,-0.17252 -0.24219,-0.37618 -0.24219,-0.61328v-7.64844c0,-0.23708 0.0805,-0.43589 0.24219,-0.59766c0.17248,-0.17231 0.37811,-0.25781 0.61524,-0.25781c0.23713,0 0.43597,0.08547 0.59765,0.25781c0.16169,0.16174 0.24219,0.36056 0.24219,0.59766v0.35547c0.06466,-0.07559 0.15681,-0.18217 0.27539,-0.32227c0.12935,-0.14019 0.29715,-0.27503 0.50195,-0.40429c0.2048,-0.12926 0.44631,-0.24285 0.72657,-0.33985c0.29103,-0.09703 0.63148,-0.14453 1.01953,-0.14453c0.53895,0 1.00258,0.14452 1.39063,0.43555c0.38804,0.28026 0.68871,0.6304 0.90429,1.05078c0.29103,-0.52828 0.65767,-0.90459 1.09961,-1.13086c0.45272,-0.2371 0.98231,-0.35547 1.58594,-0.35547v-0.002zM186.3965,155.88391c0.38804,0 0.74498,0.06101 1.06836,0.17969c0.33413,0.10789 0.62026,0.27373 0.85742,0.5c0.24792,0.22636 0.44191,0.50766 0.58203,0.84179c0.14008,0.33416 0.20898,0.72211 0.20898,1.16406v5.82032c0,0.23728 -0.0805,0.44289 -0.24218,0.61523c-0.16168,0.16179 -0.36051,0.24219 -0.59766,0.24219c-0.23713,0 -0.44276,-0.08042 -0.61524,-0.24219c-0.16168,-0.17252 -0.24218,-0.37813 -0.24218,-0.61523v-5.74024c0,-0.37724 -0.12318,-0.70122 -0.3711,-0.9707c-0.24792,-0.26948 -0.57672,-0.4043 -0.98632,-0.4043c-0.35571,0 -0.66318,0.07085 -0.92188,0.21094c-0.25869,0.12946 -0.47401,0.30694 -0.64648,0.5332c-0.16169,0.22635 -0.28685,0.4863 -0.37305,0.77735c-0.07548,0.29102 -0.11328,0.5917 -0.11328,0.90429v4.68946c0,0.23728 -0.0805,0.44289 -0.24219,0.61523c-0.1617,0.16179 -0.36053,0.24219 -0.59766,0.24219c-0.23713,0 -0.44276,-0.08042 -0.61523,-0.24219c-0.16169,-0.17252 -0.24219,-0.37813 -0.24219,-0.61523v-5.74024c0,-0.37724 -0.11834,-0.70122 -0.35547,-0.9707c-0.23714,-0.26948 -0.57079,-0.4043 -1.00195,-0.4043c-0.35571,0 -0.66318,0.07085 -0.92187,0.21094c-0.2587,0.12946 -0.47402,0.30694 -0.64649,0.5332c-0.16169,0.22635 -0.28685,0.4863 -0.37305,0.77735c-0.07548,0.29102 -0.11328,0.5917 -0.11328,0.90429v4.68946c0,0.23728 -0.0805,0.44093 -0.24218,0.61328c-0.16168,0.16174 -0.36051,0.24414 -0.59766,0.24414c-0.23713,0 -0.44276,-0.08238 -0.61523,-0.24414c-0.16169,-0.17252 -0.24219,-0.37618 -0.24219,-0.61328v-7.64844c0,-0.23708 0.0805,-0.43589 0.24219,-0.59766c0.17247,-0.17231 0.3781,-0.25781 0.61523,-0.25781c0.23714,0 0.43597,0.08547 0.59766,0.25781c0.16168,0.16174 0.24218,0.36056 0.24218,0.59766v0.35547c0.06466,-0.07559 0.15682,-0.18217 0.27539,-0.32227c0.12935,-0.14019 0.29716,-0.27503 0.50196,-0.40429c0.2048,-0.12926 0.4463,-0.24285 0.72656,-0.33985c0.29103,-0.09703 0.63148,-0.14453 1.01953,-0.14453c0.53895,0 1.00258,0.14452 1.39063,0.43555c0.38804,0.28026 0.68871,0.6304 0.90429,1.05078c0.29104,-0.52828 0.65767,-0.90459 1.09961,-1.13086c0.45272,-0.2371 0.98036,-0.35547 1.58399,-0.35547v-0.002zM239.29298,155.88391c0.38805,0 0.74304,0.06101 1.06641,0.17969c0.33413,0.10789 0.62027,0.27373 0.85742,0.5c0.24792,0.22636 0.44191,0.50766 0.58203,0.84179c0.14014,0.33416 0.21094,0.72211 0.21094,1.16406v5.82032c0,0.23728 -0.08245,0.44289 -0.24414,0.61523c-0.1617,0.16179 -0.36053,0.24219 -0.59766,0.24219c-0.23713,0 -0.44081,-0.08042 -0.61328,-0.24219c-0.16174,-0.17252 -0.24414,-0.37813 -0.24414,-0.61523v-5.74024c0,-0.37724 -0.12318,-0.70122 -0.37109,-0.9707c-0.24792,-0.26948 -0.57673,-0.4043 -0.98633,-0.4043c-0.35571,0 -0.66318,0.07085 -0.92188,0.21094c-0.25869,0.12946 -0.47401,0.30694 -0.64648,0.5332c-0.16169,0.22635 -0.2849,0.4863 -0.3711,0.77735c-0.07548,0.29102 -0.11328,0.5917 -0.11328,0.90429v4.68946c0,0.23728 -0.08245,0.44289 -0.24414,0.61523c-0.1617,0.16179 -0.36053,0.24219 -0.59765,0.24219c-0.23714,0 -0.44081,-0.08042 -0.61329,-0.24219c-0.16164,-0.17252 -0.24414,-0.37813 -0.24414,-0.61523v-5.74024c0,-0.37724 -0.11831,-0.70122 -0.35547,-0.9707c-0.23713,-0.26948 -0.57078,-0.4043 -1.00195,-0.4043c-0.35571,0 -0.66317,0.07085 -0.92187,0.21094c-0.25869,0.12946 -0.47402,0.30694 -0.64649,0.5332c-0.16169,0.22635 -0.28489,0.4863 -0.37109,0.77735c-0.07548,0.29102 -0.11328,0.5917 -0.11328,0.90429v4.68946c0,0.23728 -0.0805,0.44093 -0.24219,0.61328c-0.1617,0.16174 -0.36248,0.24414 -0.59961,0.24414c-0.23713,0 -0.44081,-0.08238 -0.61328,-0.24414c-0.16174,-0.17252 -0.24414,-0.37618 -0.24414,-0.61328v-7.64844c0,-0.23708 0.08245,-0.43589 0.24414,-0.59766c0.17245,-0.17231 0.37613,-0.25781 0.61328,-0.25781c0.23714,0 0.43792,0.08547 0.59961,0.25781c0.16169,0.16174 0.24219,0.36056 0.24219,0.59766v0.35547c0.06465,-0.07559 0.15486,-0.18217 0.27344,-0.32227c0.12935,-0.14019 0.29715,-0.27503 0.50195,-0.40429c0.2048,-0.12926 0.44826,-0.24285 0.72851,-0.33985c0.29104,-0.09703 0.62954,-0.14453 1.01758,-0.14453c0.53895,0 1.00258,0.14452 1.39063,0.43555c0.38804,0.28026 0.69066,0.6304 0.90625,1.05078c0.29103,-0.52828 0.65766,-0.90459 1.09961,-1.13086c0.45272,-0.2371 0.98035,-0.35547 1.58398,-0.35547v-0.002zM101.53713,155.88584c0.23714,0 0.43792,0.08547 0.59961,0.25781c0.16169,0.16174 0.24219,0.36056 0.24219,0.59766v0.30859c0.04311,-0.04308 0.12361,-0.1305 0.24219,-0.25976c0.11856,-0.12944 0.26307,-0.25941 0.43554,-0.38867c0.18324,-0.1401 0.38403,-0.25847 0.59961,-0.35547c0.22637,-0.10786 0.46303,-0.16016 0.71094,-0.16016c0.23713,0 0.43597,0.08547 0.59766,0.25781c0.17246,0.16174 0.25976,0.36056 0.25976,0.59766c0,0.22647 -0.08729,0.42726 -0.25976,0.59961c-0.1617,0.16179 -0.36053,0.24219 -0.59766,0.24219c-0.40961,0 -0.74326,0.097 -1.00195,0.29101c-0.2587,0.18326 -0.46433,0.40342 -0.61524,0.66211c-0.14012,0.2587 -0.23711,0.52833 -0.29101,0.8086c-0.0539,0.28031 -0.0801,0.51213 -0.0801,0.69531v4.34961c0,0.23728 -0.0805,0.44093 -0.24219,0.61328c-0.16167,0.16174 -0.36246,0.24414 -0.59961,0.24414c-0.23713,0 -0.44081,-0.08238 -0.61328,-0.24414c-0.16169,-0.17252 -0.24219,-0.37618 -0.24219,-0.61328v-7.64844c0,-0.23708 0.0805,-0.43589 0.24219,-0.59766c0.17248,-0.17231 0.37615,-0.25781 0.61328,-0.25781zM106.93752,155.88584c0.23714,0 0.43597,0.08547 0.59766,0.25781c0.16174,0.16174 0.24414,0.36056 0.24414,0.59766v0.30859c0.04311,-0.04308 0.12361,-0.1305 0.24219,-0.25976c0.11856,-0.12944 0.26307,-0.25941 0.43554,-0.38867c0.18324,-0.1401 0.38403,-0.25847 0.59961,-0.35547c0.22637,-0.10786 0.46303,-0.16016 0.71094,-0.16016c0.23714,0 0.43597,0.08547 0.59766,0.25781c0.17246,0.16174 0.25976,0.36056 0.25976,0.59766c0,0.22647 -0.08729,0.42726 -0.25976,0.59961c-0.16168,0.16179 -0.36051,0.24219 -0.59766,0.24219c-0.40961,0 -0.74326,0.097 -1.00195,0.29101c-0.2587,0.18326 -0.46433,0.40342 -0.61524,0.66211c-0.14012,0.2587 -0.23711,0.52833 -0.29101,0.8086c-0.0539,0.28031 -0.0801,0.51213 -0.0801,0.69531v4.34961c0,0.23728 -0.08245,0.44093 -0.24414,0.61328c-0.1617,0.16174 -0.36053,0.24414 -0.59766,0.24414c-0.23713,0 -0.44081,-0.08238 -0.61328,-0.24414c-0.16174,-0.17252 -0.24414,-0.37618 -0.24414,-0.61328v-7.64844c0,-0.23708 0.08245,-0.43589 0.24414,-0.59766c0.17248,-0.17231 0.37615,-0.25781 0.61328,-0.25781zM121.0917,155.88593c0.18325,0 0.34909,0.05427 0.5,0.16211c0.16169,0.09706 0.27032,0.23674 0.32422,0.41992l1.97265,6.58008l1.61719,-6.0625c0.07544,-0.25877 0.19862,-0.48088 0.3711,-0.66406c0.18324,-0.19402 0.4199,-0.29102 0.71093,-0.29102c0.29103,0 0.52284,0.09221 0.69531,0.27539c0.18324,0.18326 0.31318,0.41021 0.38868,0.67969l1.61718,6.0625l1.98829,-6.58008c0.05389,-0.18323 0.15573,-0.32292 0.30664,-0.41992c0.15089,-0.10781 0.31869,-0.16211 0.50195,-0.16211c0.07546,0 0.16081,0.0165 0.25781,0.0488c0.09701,0.02142 0.18919,0.06411 0.27539,0.12891c0.09701,0.0645 0.17266,0.14997 0.22656,0.25781c0.0647,0.10771 0.0977,0.24253 0.0977,0.4043c0,0.10784 -0.0165,0.20009 -0.0488,0.27539l-2.37695,7.30859c-0.08623,0.28039 -0.23754,0.50734 -0.45312,0.67969c-0.20481,0.17231 -0.45311,0.25781 -0.74415,0.25781c-0.29103,0 -0.53934,-0.08547 -0.74414,-0.25781c-0.19403,-0.17248 -0.33372,-0.39943 -0.41992,-0.67969l-1.56836,-5.70703l-1.56836,5.70703c-0.08623,0.28039 -0.23074,0.50734 -0.43554,0.67969c-0.19403,0.17231 -0.43264,0.25781 -0.71289,0.25781c-0.30182,0 -0.55497,-0.08547 -0.75977,-0.25781c-0.20481,-0.17248 -0.34935,-0.39943 -0.43555,-0.67969l-2.37695,-7.30859c-0.0323,-0.07534 -0.0488,-0.16755 -0.0488,-0.27539c0,-0.06476 0.0115,-0.14037 0.0332,-0.22657c0.02159,-0.09701 0.05939,-0.18723 0.11329,-0.27343c0.06468,-0.09701 0.15002,-0.17739 0.25781,-0.24219c0.1078,-0.0648 0.25427,-0.0977 0.4375,-0.0977zM158.57029,155.88584c0.23714,0 0.43597,0.08547 0.59766,0.25781c0.16169,0.16174 0.24219,0.36056 0.24219,0.59766v0.30859c0.04311,-0.04308 0.12361,-0.1305 0.24219,-0.25976c0.11856,-0.12944 0.26502,-0.25941 0.4375,-0.38867c0.18324,-0.1401 0.38207,-0.25847 0.59765,-0.35547c0.22637,-0.10786 0.46498,-0.16016 0.71289,-0.16016c0.23714,0 0.43597,0.08547 0.59766,0.25781c0.17251,0.16174 0.25781,0.36056 0.25781,0.59766c0,0.22647 -0.08534,0.42726 -0.25781,0.59961c-0.1617,0.16179 -0.36053,0.24219 -0.59766,0.24219c-0.4096,0 -0.74521,0.097 -1.0039,0.29101c-0.2587,0.18326 -0.46238,0.40342 -0.61329,0.66211c-0.14011,0.2587 -0.23711,0.52833 -0.29101,0.8086c-0.0539,0.28031 -0.082,0.51213 -0.082,0.69531v4.34961c0,0.23728 -0.0805,0.44093 -0.24219,0.61328c-0.1617,0.16174 -0.36053,0.24414 -0.59766,0.24414c-0.23713,0 -0.44276,-0.08238 -0.61523,-0.24414c-0.16169,-0.17252 -0.24219,-0.37618 -0.24219,-0.61328v-7.64844c0,-0.23708 0.0805,-0.43589 0.24219,-0.59766c0.17248,-0.17231 0.37811,-0.25781 0.61523,-0.25781zM169.2129,155.88589c0.23714,0 0.43597,0.08547 0.59766,0.25781c0.16169,0.16174 0.24219,0.36056 0.24219,0.59766v5.62695c0,0.24799 0.05431,0.46331 0.16211,0.64649c0.11856,0.18333 0.26307,0.33949 0.43554,0.46875c0.18324,0.11842 0.38403,0.21059 0.59961,0.27539c0.22636,0.0647 0.44653,0.0976 0.66211,0.0976c0.35571,0 0.67967,-0.05905 0.9707,-0.17773c0.29105,-0.12923 0.53255,-0.30189 0.72657,-0.51758c0.2048,-0.21558 0.36095,-0.46874 0.46875,-0.75976c0.10781,-0.30184 0.16211,-0.62579 0.16211,-0.97071v-4.68945c0,-0.23708 0.0805,-0.43589 0.24218,-0.59766c0.1617,-0.17231 0.36249,-0.25781 0.59961,-0.25781c0.23714,0 0.43597,0.08547 0.59766,0.25781c0.17251,0.16174 0.25781,0.36056 0.25781,0.59766v7.64844c0,0.23728 -0.08534,0.44289 -0.25781,0.61523c-0.1617,0.16179 -0.36053,0.24219 -0.59766,0.24219c-0.23713,0 -0.43792,-0.08042 -0.59961,-0.24219c-0.16168,-0.17252 -0.24218,-0.37813 -0.24218,-0.61523v-0.29102c-0.10779,0.09701 -0.24261,0.21538 -0.4043,0.35547c-0.1509,0.12926 -0.34004,0.25242 -0.56641,0.37109c-0.22636,0.11868 -0.4892,0.2224 -0.79101,0.3086c-0.29104,0.07538 -0.63149,0.11328 -1.01953,0.11328c-0.39883,0 -0.7868,-0.05427 -1.16407,-0.16211c-0.36648,-0.11865 -0.69529,-0.29131 -0.98632,-0.51758c-0.29103,-0.22637 -0.52284,-0.50571 -0.69532,-0.83984c-0.17251,-0.33416 -0.25781,-0.72214 -0.25781,-1.16406v-5.82227c0,-0.23708 0.0805,-0.43589 0.24219,-0.59766c0.17248,-0.17231 0.3781,-0.25781 0.61523,-0.25781zM244.71681,156.14367c0.16169,0.16174 0.24219,0.36056 0.24219,0.59766v7.64844c0,0.23728 -0.0805,0.44093 -0.24219,0.61328c-0.1617,0.16174 -0.36053,0.24414 -0.59766,0.24414c-0.23713,0 -0.44276,-0.08238 -0.61523,-0.24414c-0.16169,-0.17252 -0.24219,-0.37618 -0.24219,-0.61328v-7.64844c0,-0.23708 0.0805,-0.43589 0.24219,-0.59766c0.17245,-0.17231 0.37808,-0.25781 0.61523,-0.25781c0.23714,0 0.43597,0.08547 0.59766,0.25781zM246.90818,155.88584c0.30181,0 0.54526,0.13482 0.72852,0.4043l2.05274,2.95898l2.0371,-2.95898c0.18325,-0.26948 0.42671,-0.4043 0.72852,-0.4043c0.25871,0 0.45754,0.09221 0.59766,0.27539c0.14013,0.17242 0.21093,0.36156 0.21093,0.56641c0,0.19399 -0.05915,0.36665 -0.17773,0.51758l-2.49024,3.15234l2.66797,3.44336c0.11854,0.15088 0.17774,0.32835 0.17774,0.5332c0,0.24804 -0.0873,0.45852 -0.25977,0.63086c-0.17246,0.16179 -0.38778,0.24219 -0.64648,0.24219c-0.12934,0 -0.25252,-0.0214 -0.3711,-0.0645c-0.10779,-0.04309 -0.19999,-0.12351 -0.27539,-0.24219l-2.19921,-3.41211l-2.21485,3.41211c-0.07544,0.11868 -0.17244,0.19909 -0.29101,0.24219c-0.1078,0.0431 -0.22127,0.0645 -0.33985,0.0645c-0.09701,0 -0.19885,-0.0105 -0.30664,-0.0332c-0.10779,-0.03226 -0.20964,-0.07974 -0.30664,-0.14454c-0.08622,-0.07533 -0.16186,-0.16754 -0.22656,-0.27539c-0.0539,-0.11847 -0.082,-0.25815 -0.082,-0.41992c0,-0.2048 0.05915,-0.38422 0.17773,-0.53515l2.66797,-3.44336l-2.49023,-3.15039c-0.11854,-0.15091 -0.17774,-0.32357 -0.17774,-0.51758c0,-0.20493 0.07082,-0.39406 0.21094,-0.56641c0.14013,-0.18319 0.33896,-0.27539 0.59765,-0.27539zM152.39641,157.16124c-0.39883,0 -0.73733,0.06101 -1.01758,0.17969c-0.28026,0.11863 -0.51888,0.26799 -0.71289,0.45117c-0.18325,0.17237 -0.32776,0.36635 -0.43555,0.58203c-0.10779,0.21564 -0.18829,0.41643 -0.24219,0.59961c-0.0538,0.18328 -0.0868,0.34428 -0.0976,0.48438c-0.0106,0.12826 -0.0156,0.20386 -0.0156,0.22656h5.23828c0,-0.33414 -0.05431,-0.65325 -0.16211,-0.95508c-0.10778,-0.30188 -0.27558,-0.56475 -0.50195,-0.79101c-0.21558,-0.23718 -0.49491,-0.42632 -0.83984,-0.56641c-0.34493,-0.14014 -0.74939,-0.21094 -1.21289,-0.21094zM194.47268,157.16124c-0.39883,0 -0.73732,0.06101 -1.01758,0.17969c-0.28026,0.11863 -0.51887,0.26799 -0.71289,0.45117c-0.18324,0.17237 -0.32776,0.36635 -0.43555,0.58203c-0.10779,0.21564 -0.18828,0.41643 -0.24218,0.59961c-0.0539,0.18328 -0.0869,0.34428 -0.0977,0.48438c-0.0106,0.12826 -0.0156,0.20386 -0.0156,0.22656h5.23829c-0.00001,-0.33414 -0.05432,-0.65325 -0.16211,-0.95508c-0.10779,-0.30188 -0.27559,-0.56475 -0.50196,-0.79101c-0.21558,-0.23718 -0.49491,-0.42632 -0.83984,-0.56641c-0.34493,-0.14014 -0.74939,-0.21094 -1.21289,-0.21094zM224.78909,157.16124c-0.39882,0 -0.73927,0.06101 -1.01953,0.17969c-0.28026,0.11863 -0.51692,0.26799 -0.71093,0.45117c-0.18325,0.17237 -0.32776,0.36635 -0.43555,0.58203c-0.10779,0.21564 -0.19024,0.41643 -0.24414,0.59961c-0.0538,0.18328 -0.0849,0.34428 -0.0957,0.48438c-0.0106,0.12826 -0.0176,0.20386 -0.0176,0.22656h5.24023c0,-0.33414 -0.05432,-0.65325 -0.16211,-0.95508c-0.10778,-0.30188 -0.27558,-0.56475 -0.50195,-0.79101c-0.21558,-0.23718 -0.49492,-0.42632 -0.83984,-0.56641c-0.34493,-0.14014 -0.7494,-0.21094 -1.2129,-0.21094zM71.42579,157.37222c-0.33416,0.12933 -0.62514,0.33497 -0.87305,0.61523c-0.23714,0.26948 -0.42629,0.61962 -0.56641,1.05079c-0.14012,0.43114 -0.21093,0.94229 -0.21093,1.53515c0,0.59286 0.07081,1.10597 0.21093,1.53711c0.14014,0.42038 0.32928,0.77052 0.56641,1.05078c0.24792,0.26951 0.5389,0.47319 0.87305,0.61328c0.34493,0.12922 0.71641,0.19532 1.11523,0.19532c0.39882,0 0.76545,-0.06606 1.09961,-0.19532c0.34494,-0.14012 0.63591,-0.3438 0.87304,-0.61328c0.24793,-0.28026 0.44191,-0.6304 0.58203,-1.05078c0.14012,-0.43114 0.21094,-0.94425 0.21094,-1.53711c0,-0.59286 -0.07082,-1.10401 -0.21094,-1.53515c-0.14013,-0.43117 -0.33412,-0.78131 -0.58203,-1.05079c-0.23714,-0.28034 -0.52812,-0.48597 -0.87304,-0.61523c-0.33416,-0.14008 -0.70078,-0.20898 -1.09961,-0.20898c-0.39882,0 -0.77031,0.06888 -1.11523,0.20898zM94.15235,157.37222c-0.33416,0.12933 -0.62514,0.33497 -0.87304,0.61523c-0.23715,0.26948 -0.42629,0.61962 -0.56641,1.05079c-0.14012,0.43114 -0.21094,0.94229 -0.21094,1.53515c0,0.59286 0.07082,1.10597 0.21094,1.53711c0.14014,0.42038 0.32928,0.77052 0.56641,1.05078c0.24791,0.26951 0.5389,0.47319 0.87304,0.61328c0.34493,0.12922 0.71641,0.19532 1.11523,0.19532c0.39882,0 0.76546,-0.06606 1.09961,-0.19532c0.34494,-0.14012 0.63592,-0.3438 0.87305,-0.61328c0.24792,-0.28026 0.44191,-0.6304 0.58203,-1.05078c0.14013,-0.43114 0.21093,-0.94425 0.21093,-1.53711c0.00001,-0.59286 -0.07081,-1.10401 -0.21093,-1.53515c-0.14014,-0.43117 -0.33412,-0.78131 -0.58203,-1.05079c-0.23714,-0.28034 -0.52812,-0.48597 -0.87305,-0.61523c-0.33415,-0.14008 -0.70079,-0.20898 -1.09961,-0.20898c-0.39882,0 -0.7703,0.06888 -1.11523,0.20898zM114.12892,157.37222c-0.33416,0.12933 -0.62514,0.33497 -0.87305,0.61523c-0.23715,0.26948 -0.42629,0.61962 -0.5664,1.05079c-0.14009,0.43114 -0.20899,0.94229 -0.20899,1.53515c0,0.59286 0.06887,1.10597 0.20899,1.53711c0.14013,0.42038 0.32927,0.77052 0.5664,1.05078c0.24792,0.26951 0.5389,0.47319 0.87305,0.61328c0.34493,0.12922 0.71641,0.19532 1.11523,0.19532c0.39883,0 0.76546,-0.06606 1.09961,-0.19532c0.34494,-0.14012 0.63592,-0.3438 0.87305,-0.61328c0.24793,-0.28026 0.44191,-0.6304 0.58203,-1.05078c0.14014,-0.43114 0.21094,-0.94425 0.21094,-1.53711c0,-0.59286 -0.07082,-1.10401 -0.21094,-1.53515c-0.14013,-0.43117 -0.33412,-0.78131 -0.58203,-1.05079c-0.23714,-0.28034 -0.52812,-0.48597 -0.87305,-0.61523c-0.33415,-0.14008 -0.70078,-0.20898 -1.09961,-0.20898c-0.39882,0 -0.7703,0.06888 -1.11523,0.20898zM64.90235,166.93276c0.22638,0 0.43201,0.0427 0.61523,0.1289c0.18325,0.08618 0.34426,0.20454 0.48438,0.35547c0.15091,0.14007 0.28088,0.31273 0.38867,0.51758c0.10779,0.19394 0.19993,0.39955 0.27539,0.61523l3.3457,9.66797c0.05389,0.16174 0.08203,0.31303 0.08203,0.45313c0,0.12931 -0.02813,0.26899 -0.08203,0.41992c-0.04311,0.1508 -0.11197,0.28562 -0.20898,0.4043c-0.09701,0.11867 -0.22214,0.22239 -0.37304,0.30859c-0.15091,0.07558 -0.33324,0.11328 -0.54883,0.11328c-0.25869,0 -0.50214,-0.07563 -0.72852,-0.22656c-0.21559,-0.15091 -0.3669,-0.35651 -0.45312,-0.61524l-0.92187,-3.08789h-3.75l-0.92187,3.08789c-0.08622,0.2587 -0.24238,0.46431 -0.46875,0.61524c-0.21558,0.15096 -0.45224,0.22656 -0.71094,0.22656c-0.37726,0 -0.67988,-0.12511 -0.90625,-0.37305c-0.21558,-0.25869 -0.32226,-0.54969 -0.32226,-0.87304c0,-0.14007 0.02618,-0.29136 0.08008,-0.45313l3.36329,-9.66797c0.07547,-0.21561 0.1676,-0.42121 0.27539,-0.61523c0.10779,-0.20483 0.23097,-0.37748 0.37109,-0.51758c0.14011,-0.15093 0.30112,-0.26927 0.48438,-0.35547c0.18326,-0.0862 0.39373,-0.1289 0.63086,-0.1289zM95.67383,166.93276c0.22637,0 0.43005,0.0427 0.61328,0.1289c0.18325,0.08618 0.34621,0.20454 0.48633,0.35547c0.15091,0.14007 0.27893,0.31273 0.38672,0.51758c0.10779,0.19394 0.19989,0.39955 0.27539,0.61523l3.34765,9.66797c0.0539,0.16174 0.0801,0.31303 0.0801,0.45313c0,0.12931 -0.0262,0.26899 -0.0801,0.41992c-0.04311,0.1508 -0.11393,0.28562 -0.21093,0.4043c-0.09701,0.11867 -0.22019,0.22239 -0.3711,0.30859c-0.1509,0.07558 -0.33519,0.11328 -0.55078,0.11328c-0.25869,0 -0.50019,-0.07563 -0.72656,-0.22656c-0.21559,-0.15091 -0.36693,-0.35651 -0.45313,-0.61524l-0.92187,-3.08789h-3.75l-0.92187,3.08789c-0.08623,0.2587 -0.24238,0.46431 -0.46875,0.61524c-0.21558,0.15096 -0.45419,0.22656 -0.71289,0.22656c-0.37725,0 -0.67793,-0.12511 -0.90429,-0.37305c-0.21559,-0.25869 -0.32422,-0.54969 -0.32422,-0.87304c0,-0.14007 0.02813,-0.29136 0.08203,-0.45313l3.36328,-9.66797c0.07547,-0.21561 0.16565,-0.42121 0.27344,-0.61523c0.10779,-0.20483 0.23293,-0.37748 0.37304,-0.51758c0.14012,-0.15093 0.30112,-0.26927 0.48438,-0.35547c0.18326,-0.0862 0.39373,-0.1289 0.63086,-0.1289zM118.9043,166.93272c0.80843,0 1.51551,0.13481 2.11914,0.40429c0.60363,0.2587 1.10993,0.56617 1.51953,0.92188c0.40961,0.35573 0.71708,0.72235 0.92188,1.0996c0.2048,0.37737 0.30664,0.67803 0.30664,0.90429c0,0.17245 -0.04271,0.3354 -0.12891,0.48633c-0.07546,0.15086 -0.17926,0.27888 -0.30859,0.38672c-0.12935,0.10759 -0.27386,0.19497 -0.43555,0.25977c-0.15091,0.0648 -0.30222,0.0957 -0.45313,0.0957c-0.16167,0 -0.30618,-0.03603 -0.43554,-0.11133c-0.12934,-0.07534 -0.2331,-0.18891 -0.3086,-0.33984c-0.08622,-0.17258 -0.1929,-0.37334 -0.32226,-0.59961c-0.11857,-0.23713 -0.28637,-0.45247 -0.50195,-0.64649c-0.20481,-0.20485 -0.4696,-0.37748 -0.79297,-0.51757c-0.3126,-0.14009 -0.70541,-0.20899 -1.17969,-0.20899c-0.53895,0 -1.01907,0.13482 -1.43945,0.4043c-0.40961,0.25869 -0.75975,0.59719 -1.05079,1.01758c-0.28026,0.42038 -0.49558,0.90049 -0.64648,1.43945c-0.14008,0.52815 -0.20898,1.0626 -0.20898,1.60156c0,0.54975 0.06886,1.09388 0.20898,1.63282c0.15091,0.52817 0.36623,1.00149 0.64648,1.42187c0.29104,0.42038 0.64118,0.76568 1.05079,1.03516c0.42038,0.25869 0.9005,0.38867 1.43945,0.38867c0.47428,0 0.86709,-0.07084 1.17969,-0.21094c0.32337,-0.14009 0.58816,-0.31273 0.79297,-0.51758c0.21557,-0.20487 0.38337,-0.42021 0.50195,-0.64648c0.12936,-0.22645 0.23606,-0.4301 0.32226,-0.61328c0.07544,-0.15093 0.17924,-0.26455 0.3086,-0.33985c0.12935,-0.07538 0.26902,-0.11328 0.41992,-0.11328c0.15091,0 0.30222,0.0329 0.45312,0.0977c0.16168,0.0645 0.30619,0.14997 0.43555,0.25781c0.12934,0.10777 0.23114,0.23774 0.30664,0.38867c0.08626,0.15078 0.13086,0.31178 0.13086,0.48438c0,0.23713 -0.10379,0.5446 -0.30859,0.92187c-0.2048,0.37727 -0.51227,0.74391 -0.92188,1.09961c-0.39882,0.35571 -0.89832,0.66318 -1.50195,0.92188c-0.60363,0.25869 -1.31071,0.38672 -2.11914,0.38672c-0.97012,0 -1.82171,-0.18234 -2.55469,-0.54883c-0.7222,-0.36649 -1.32549,-0.85146 -1.81055,-1.45508c-0.47428,-0.61443 -0.83607,-1.31469 -1.08398,-2.10156c-0.23715,-0.79763 -0.35547,-1.6279 -0.35547,-2.49024c0,-0.85155 0.11832,-1.67698 0.35547,-2.47461c0.24792,-0.79765 0.6097,-1.49792 1.08398,-2.10156c0.48506,-0.6144 1.08835,-1.1042 1.81055,-1.47069c0.73298,-0.36649 1.58457,-0.55078 2.55469,-0.55078zM176.41603,166.93281c0.78687,0 1.49684,0.14645 2.13281,0.4375c0.64674,0.29102 1.19282,0.71002 1.63477,1.25976c0.44192,0.54972 0.78042,1.22382 1.01757,2.02149c0.24792,0.78687 0.37305,1.67629 0.37305,2.66796c0,0.90545 -0.10379,1.7687 -0.30859,2.5879c-0.19403,0.8192 -0.49469,1.54083 -0.9043,2.16601c-0.39883,0.62519 -0.91193,1.12664 -1.53711,1.50391c-0.61441,0.36649 -1.33603,0.54883 -2.16602,0.54883c-0.73297,0 -1.3644,-0.10658 -1.89257,-0.32227c-0.52818,-0.22634 -0.96367,-0.48629 -1.3086,-0.77734c-0.34492,-0.30181 -0.59807,-0.60733 -0.75976,-0.91993c-0.16169,-0.31259 -0.24219,-0.56575 -0.24219,-0.75976c0,-0.31252 0.11834,-0.55113 0.35547,-0.71289c0.23714,-0.16179 0.48349,-0.24219 0.74219,-0.24219c0.15089,0 0.29251,0.0262 0.42187,0.0801c0.12934,0.05367 0.23114,0.14109 0.30664,0.25976c0.2587,0.40971 0.54483,0.72686 0.85742,0.95313c0.3126,0.21568 0.74809,0.32422 1.3086,0.32422c0.33415,0 0.64646,-0.07084 0.9375,-0.21094c0.30181,-0.15095 0.55692,-0.34493 0.76172,-0.58203c0.21557,-0.24791 0.38142,-0.52725 0.5,-0.83984c0.12936,-0.32338 0.19336,-0.66383 0.19336,-1.01954c0,-0.0539 -0.04271,-0.0801 -0.12891,-0.0801c-0.08622,0 -0.20457,0.0262 -0.35547,0.0801c-0.14013,0.04309 -0.31278,0.09731 -0.51758,0.16211c-0.19403,0.06476 -0.4142,0.12384 -0.66211,0.17774c-0.24792,0.043 -0.51271,0.0644 -0.79297,0.0644c-0.68986,0 -1.31933,-0.10658 -1.89062,-0.32226c-0.56051,-0.22637 -1.04547,-0.53869 -1.45508,-0.9375c-0.40959,-0.39885 -0.72871,-0.86245 -0.95508,-1.39063c-0.22637,-0.53893 -0.33984,-1.1277 -0.33984,-1.76367c0,-0.67908 0.12513,-1.28721 0.37305,-1.82617c0.25869,-0.54972 0.59719,-1.01336 1.01757,-1.39062c0.43117,-0.388 0.92777,-0.68382 1.48829,-0.88867c0.57128,-0.20485 1.16973,-0.30859 1.79492,-0.30859zM76.72071,167.15928c0.7761,0 1.46668,0.18913 2.07031,0.56641c0.6144,0.36648 1.12555,0.85143 1.53516,1.45506c0.42038,0.59283 0.73949,1.27178 0.95508,2.03711c0.21559,0.76531 0.32227,1.53641 0.32227,2.3125c0,0.78687 -0.10668,1.56282 -0.32227,2.32813c-0.21558,0.75454 -0.53469,1.43347 -0.95508,2.03711c-0.4096,0.60361 -0.91591,1.09343 -1.51953,1.4707c-0.60363,0.36649 -1.29907,0.55078 -2.08594,0.55078h-4.39648c-0.15091,0 -0.30222,-0.0213 -0.45312,-0.0644c-0.15092,-0.05392 -0.29058,-0.12956 -0.41992,-0.22656c-0.11855,-0.1077 -0.21556,-0.24254 -0.29102,-0.4043c-0.07546,-0.16179 -0.11328,-0.35576 -0.11328,-0.58203v-10.21875c0,-0.09701 0.0165,-0.21538 0.04883,-0.35547c0.03236,-0.15101 0.09635,-0.29262 0.19336,-0.42188c0.09701,-0.14009 0.22698,-0.25169 0.38867,-0.33789c0.17246,-0.09698 0.38779,-0.14648 0.64648,-0.14648zM83.0352,167.15934c0.24793,0 0.47005,0.05906 0.66406,0.17773c0.20479,0.1186 0.34446,0.2961 0.41992,0.53321l2.58593,8.42381l2.60352,-8.42381c0.07546,-0.23703 0.21028,-0.41453 0.4043,-0.53321c0.20481,-0.11863 0.43178,-0.17773 0.67968,-0.17773c0.19402,0 0.37152,0.03768 0.53321,0.11328c0.16168,0.07534 0.29651,0.17234 0.40429,0.29102c0.11858,0.10776 0.21071,0.23774 0.27539,0.38867c0.06468,0.14017 0.09766,0.27982 0.09766,0.41992c0,0.12926 -0.0233,0.24284 -0.06641,0.33984l-3.70117,10.29883c-0.09701,0.28019 -0.25317,0.50035 -0.46875,0.66211c-0.20481,0.16174 -0.45795,0.24414 -0.75977,0.24414h-0.002c-0.29103,0 -0.54418,-0.08238 -0.75977,-0.24414c-0.21558,-0.16169 -0.37174,-0.38184 -0.46875,-0.66211l-3.68554,-10.29883c-0.04311,-0.097 -0.06445,-0.21058 -0.06445,-0.33984c0,-0.12939 0.02618,-0.2642 0.08008,-0.4043c0.0539,-0.1508 0.13439,-0.28562 0.24218,-0.40429c0.10779,-0.11868 0.24261,-0.21572 0.4043,-0.29102c0.16168,-0.07558 0.35566,-0.11328 0.58203,-0.11328zM103.19531,167.15919c0.37727,0 0.70123,0.097 0.97071,0.29101c0.28026,0.18324 0.52176,0.44803 0.72656,0.79297l4.78516,8.01962v-7.93944c0,-0.32345 0.11347,-0.59795 0.33984,-0.82422c0.23714,-0.22627 0.51163,-0.33984 0.82422,-0.33984c0.32336,0 0.5998,0.11357 0.82617,0.33984c0.23715,0.22637 0.35547,0.50087 0.35547,0.82422v10.20313c0,0.19414 -0.03778,0.37648 -0.11328,0.54882c-0.07544,0.16179 -0.17728,0.30824 -0.30664,0.4375c-0.11857,0.12952 -0.26503,0.23134 -0.4375,0.30664c-0.1617,0.0648 -0.33919,0.0977 -0.53321,0.0977c-0.37726,0 -0.70607,-0.097 -0.98632,-0.29101c-0.26948,-0.19402 -0.50614,-0.45884 -0.71094,-0.79297l-4.78711,-8.01953v7.93945c0,0.31262 -0.11834,0.58712 -0.35547,0.82422c-0.22636,0.22627 -0.50085,0.33984 -0.82422,0.33984c-0.3126,0 -0.58709,-0.11357 -0.82422,-0.33984c-0.22637,-0.23713 -0.33984,-0.51163 -0.33984,-0.82422v-10.21874c0,-0.37727 0.13482,-0.70122 0.4043,-0.9707c0.26947,-0.26948 0.59828,-0.4043 0.98632,-0.4043zM133.08403,167.15939c0.29103,0 0.53934,0.10179 0.74414,0.30664c0.2048,0.2048 0.30859,0.45309 0.30859,0.74414c0,0.30176 -0.10379,0.55491 -0.30859,0.75976c-0.20481,0.20485 -0.45311,0.30664 -0.74414,0.30664h-5.65821v2.76562h4.75391c0.30181,0 0.55496,0.10853 0.75977,0.32422c0.2048,0.2048 0.30664,0.45116 0.30664,0.74219c0,0.29095 -0.10184,0.54603 -0.30664,0.76172c-0.20481,0.20485 -0.45796,0.30664 -0.75977,0.30664h-4.75391v3.62109h5.65821c0.29103,0 0.53934,0.10179 0.74414,0.30664c0.2048,0.2048 0.30859,0.45312 0.30859,0.74414c0,0.30178 -0.10379,0.55492 -0.30859,0.75977c-0.20481,0.20485 -0.45311,0.30664 -0.74414,0.30664h-6.85547c-0.15091,0 -0.30027,-0.0214 -0.45117,-0.0645c-0.1509,-0.05393 -0.29252,-0.12957 -0.42188,-0.22657c-0.11855,-0.10769 -0.21551,-0.24253 -0.29101,-0.40429c-0.07549,-0.16179 -0.11329,-0.35577 -0.11329,-0.58204v-10.21678c0,-0.09701 0.0165,-0.21733 0.0488,-0.35742c0.03235,-0.15101 0.09831,-0.29067 0.19531,-0.41993c0.09701,-0.14009 0.22503,-0.25364 0.38672,-0.33984c0.17247,-0.09703 0.38779,-0.14453 0.64649,-0.14453zM140.89065,167.15928c0.77609,0 1.46668,0.18913 2.07031,0.56641c0.61441,0.36648 1.12555,0.85143 1.53516,1.45506c0.42038,0.59283 0.73754,1.27178 0.95312,2.03711c0.21558,0.76531 0.32422,1.53641 0.32422,2.3125c0,0.78687 -0.10864,1.56282 -0.32422,2.32813c-0.21558,0.75454 -0.53274,1.43347 -0.95312,2.03711c-0.40961,0.60361 -0.91591,1.09343 -1.51954,1.4707c-0.60362,0.36649 -1.29906,0.55078 -2.08593,0.55078h-4.39844c-0.15091,0 -0.30027,-0.0213 -0.45117,-0.0644c-0.1509,-0.05392 -0.29252,-0.12956 -0.42188,-0.22656c-0.11857,-0.1077 -0.21561,-0.24254 -0.29101,-0.4043c-0.07548,-0.16179 -0.11328,-0.35576 -0.11328,-0.58203v-10.21875c0,-0.09701 0.0165,-0.21538 0.0488,-0.35547c0.03233,-0.15101 0.09636,-0.29262 0.19336,-0.42188c0.09701,-0.14009 0.22699,-0.25169 0.38867,-0.33789c0.17247,-0.09698 0.38779,-0.14648 0.64649,-0.14648zM152.32814,167.15928c0.34491,0 0.63589,0.11837 0.87304,0.35547c0.24792,0.23713 0.37305,0.5281 0.37305,0.87304v9.41016h5.22266c0.30181,0 0.55496,0.10179 0.75976,0.30664c0.2048,0.2048 0.30664,0.45312 0.30664,0.74414c0,0.30178 -0.10184,0.55492 -0.30664,0.75977c-0.2048,0.20485 -0.45795,0.30859 -0.75976,0.30859h-6.41992c-0.15091,0 -0.30223,-0.0213 -0.45313,-0.0644c-0.1509,-0.05392 -0.29056,-0.12956 -0.41992,-0.22656c-0.11855,-0.1077 -0.21552,-0.24254 -0.29102,-0.4043c-0.07548,-0.16179 -0.11328,-0.35576 -0.11328,-0.58203v-10.25196c0,-0.34497 0.11834,-0.63594 0.35547,-0.87304c0.23714,-0.2371 0.52812,-0.35547 0.87305,-0.35547zM175.5918,169.18081c-0.26948,0.12924 -0.50809,0.3019 -0.71289,0.51758c-0.2048,0.21559 -0.3658,0.46874 -0.48438,0.75977c-0.11853,0.28026 -0.17773,0.58092 -0.17773,0.90429c0,0.32338 0.05916,0.63086 0.17773,0.92188c0.12935,0.29092 0.302,0.54408 0.51758,0.75976c0.21558,0.21569 0.46873,0.38832 0.75977,0.51758c0.29103,0.11844 0.5985,0.17774 0.92187,0.17774c0.31259,0 0.60842,-0.05931 0.88867,-0.17774c0.28026,-0.11852 0.52372,-0.27952 0.72852,-0.48437c0.21557,-0.2048 0.38822,-0.44146 0.51758,-0.71094c0.12928,-0.28026 0.19818,-0.57803 0.20898,-0.89062c0.01079,-0.35571 -0.04353,-0.68453 -0.16211,-0.98633c-0.11856,-0.30171 -0.29121,-0.55971 -0.51758,-0.77539c-0.21558,-0.22645 -0.47842,-0.40395 -0.79101,-0.53321c-0.30181,-0.12926 -0.63062,-0.19336 -0.98633,-0.19336c-0.31259,0 -0.60842,0.0641 -0.88867,0.19336zM73.51954,177.78238h2.28125c0.63596,0 1.1636,-0.11837 1.58398,-0.35547c0.43116,-0.24791 0.77645,-0.57189 1.03515,-0.97071c0.25869,-0.39884 0.44104,-0.85081 0.54883,-1.35742c0.10779,-0.51739 0.1621,-1.04018 0.1621,-1.56836c0,-0.52817 -0.05431,-1.04612 -0.1621,-1.55273c-0.10779,-0.50661 -0.29013,-0.95858 -0.54883,-1.35742c-0.2587,-0.39879 -0.60399,-0.72277 -1.03515,-0.97071c-0.42039,-0.24793 -0.94802,-0.37109 -1.58398,-0.37109h-2.28125zM137.68946,177.78238h2.27929c0.63597,0 1.1636,-0.11837 1.58399,-0.35547c0.43116,-0.24791 0.77645,-0.57189 1.03515,-0.97071c0.2587,-0.39884 0.44299,-0.85081 0.55078,-1.35742c0.10776,-0.51739 0.16016,-1.04018 0.16016,-1.56836c0,-0.52817 -0.05236,-1.04612 -0.16016,-1.55273c-0.10779,-0.50661 -0.29208,-0.95858 -0.55078,-1.35742c-0.2587,-0.39879 -0.60399,-0.72277 -1.03515,-0.97071c-0.42039,-0.24793 -0.94802,-0.37109 -1.58399,-0.37109h-2.27929zM63.57618,174.09683h2.63672l-1.31055,-4.46289zM94.34767,174.09683h2.63476l-1.3086,-4.46289zM161.42573,170.55579c0.21558,0 0.40956,0.05232 0.58203,0.16016c0.18324,0.09691 0.3064,0.25306 0.3711,0.46875l1.77929,5.9668l1.79493,-5.9668c0.06465,-0.21558 0.18299,-0.37175 0.35547,-0.46875c0.18324,-0.10786 0.38207,-0.16016 0.59765,-0.16016c0.12934,0 0.25931,0.0262 0.38867,0.0801c0.14012,0.04309 0.26331,0.10716 0.3711,0.19336c0.11855,0.08617 0.21551,0.19975 0.29101,0.33984c0.07548,0.12947 0.11328,0.28078 0.11328,0.45313c0,0.09701 -0.0165,0.19402 -0.0488,0.29102l-2.42383,6.95312c-0.11858,0.32338 -0.30287,0.58137 -0.55078,0.77539c-0.24792,0.18319 -0.54375,0.27539 -0.88868,0.27539c-0.34493,0 -0.64271,-0.09221 -0.89062,-0.27539c-0.24791,-0.19402 -0.43025,-0.45201 -0.54883,-0.77539l-2.4082,-6.95312c-0.0323,-0.09701 -0.0488,-0.19402 -0.0488,-0.29102c0,-0.34497 0.12318,-0.60979 0.37109,-0.79297c0.24792,-0.18314 0.51272,-0.27344 0.79297,-0.27344zM170.71876,177.81558c0.24791,0.23713 0.3711,0.52813 0.3711,0.87305c0,0.34497 -0.12319,0.63594 -0.3711,0.87304c-0.23714,0.2371 -0.52812,0.35547 -0.87305,0.35547c-0.34494,0 -0.63591,-0.11837 -0.87304,-0.35547c-0.23715,-0.23713 -0.35547,-0.5281 -0.35547,-0.87304c0,-0.34495 0.11832,-0.63595 0.35547,-0.87305c0.23714,-0.24794 0.52812,-0.37305 0.87304,-0.37305c0.34494,0 0.63592,0.12511 0.87305,0.37305z" fill="#1eff00" stroke="none" stroke-width="1.01053" stroke-miterlimit="10" stroke-dashoffset="0"/></g></g></svg>