<svg version="1.1" xmlns="http://www.w3.org/2000/svg" xmlns:xlink="http://www.w3.org/1999/xlink" width="372.21489" height="68.64263" viewBox="0,0,372.21489,68.64263"><g transform="translate(-53.89256,-145.67868)"><g data-paper-data="{&quot;isPaintingLayer&quot;:true}" fill-rule="nonzero" stroke-linecap="butt" stroke-linejoin="miter" stroke-dasharray="" style="mix-blend-mode: normal"><path d="M425.00973,146.42869c0.19313,0 0.34772,0.15458 0.34772,0.34772v66.4453c0,0.19313 -0.15458,0.34961 -0.34772,0.34961h-370.01756c-0.19313,0 -0.34961,-0.15647 -0.34961,-0.34961v-66.4453c0,-0.19313 0.15647,-0.34772 0.34961,-0.34772z" fill="#1e1e1e" stroke="#1eff00" stroke-width="1.5" stroke-miterlimit="4" stroke-dashoffset="17.35"/><path d="M69.10242,187.56367c1.27596,0 2.33416,4.30813 3.36635,5.05807c1.03231,0.74997 5.45658,0.42505 5.85086,1.63858c0.39428,1.21349 -3.37606,3.55106 -3.7703,4.76462c-0.39428,1.21349 1.28194,5.32074 0.24983,6.07075c-1.0323,0.74997 -4.42061,-2.11344 -5.69654,-2.11344c-1.27593,0 -4.66428,2.86341 -5.6965,2.11344c-1.03226,-0.75001 0.64395,-4.85726 0.24983,-6.07075c-0.39428,-1.21353 -4.16459,-3.55113 -3.77031,-4.76462c0.39428,-1.21353 4.81856,-0.88857 5.85082,-1.63858c1.03223,-0.74993 2.09038,-5.05807 3.36631,-5.05807z" fill="#1eff00" stroke="none" stroke-width="0.88188" stroke-miterlimit="4" stroke-dashoffset="17.35"/><path d="M92.03951,187.56367c1.27593,0 2.33405,4.30813 3.36631,5.05807c1.03226,0.74997 5.4565,0.42505 5.85078,1.63858c0.39428,1.21349 -3.37599,3.55106 -3.77027,4.76462c-0.39432,1.21349 1.2819,5.32074 0.24945,6.07075c-1.03222,0.74997 -4.42053,-2.11344 -5.69646,-2.11344c-1.27593,0 -4.6642,2.86341 -5.69647,2.11344c-1.03226,-0.75001 0.64396,-4.85726 0.24945,-6.07075c-0.39428,-1.21353 -4.16455,-3.55113 -3.77031,-4.76462c0.39428,-1.21353 4.81856,-0.88857 5.85079,-1.63858c1.0323,-0.74993 2.09042,-5.05807 3.36635,-5.05807z" fill="#1eff00" stroke="none" stroke-width="0.88188" stroke-miterlimit="4" stroke-dashoffset="17.35"/><path d="M114.9764,187.91683c1.2249,0 2.24072,4.13579 3.23166,4.85575c0.99094,0.71996 5.23824,0.40804 5.61675,1.573c0.37851,1.16496 -3.24099,3.40902 -3.61949,4.57406c-0.37851,1.16496 1.23066,5.10792 0.23985,5.82792c-0.99097,0.71996 -4.24371,-2.02889 -5.46861,-2.02889c-1.2249,0 -4.47767,2.74885 -5.46864,2.02889c-0.99094,-0.72 0.6182,-4.66295 0.23985,-5.82792c-0.37851,-1.165 -3.998,-3.4091 -3.61949,-4.57406c0.37855,-1.16496 4.62582,-0.853 5.61679,-1.573c0.99097,-0.71996 2.00677,-4.85575 3.23166,-4.85575z" fill="#1eff00" stroke="none" stroke-width="0.84661" stroke-miterlimit="4" stroke-dashoffset="17.35"/><path d="M124.919,152.77951c0.23714,0.19402 0.41658,0.45397 0.53516,0.77735l4.05664,10.44336c0.0539,0.14022 0.08203,0.27503 0.08203,0.40429c0,0.09701 -0.0165,0.20554 -0.04883,0.32422c-0.03235,0.11843 -0.08667,0.23679 -0.16211,0.35547c-0.07546,0.10759 -0.18214,0.1998 -0.32226,0.27539c-0.12936,0.07534 -0.29231,0.11328 -0.48633,0.11328c-0.22637,0 -0.43684,-0.07084 -0.63086,-0.21093c-0.19403,-0.14023 -0.3337,-0.32257 -0.41992,-0.54883l-1.06641,-3.07227h-4.65625l-1.03515,3.23242c-0.06466,0.19397 -0.183,0.34529 -0.35547,0.45313c-0.17247,0.09701 -0.36161,0.14648 -0.56641,0.14648c-0.29103,0 -0.54418,-0.097 -0.75976,-0.29101c-0.2048,-0.19402 -0.30664,-0.43263 -0.30664,-0.71289c0,-0.10785 0.01454,-0.20964 0.04687,-0.30664l3.84961,-10.60547c0.11856,-0.32338 0.29121,-0.58333 0.51758,-0.77735c0.23714,-0.19401 0.52812,-0.29101 0.87305,-0.29101c0.34492,0 0.6291,0.097 0.85546,0.29101zM69.08697,152.71505c0.23714,0 0.43597,0.08042 0.59766,0.24219c0.17247,0.16171 0.25977,0.36055 0.25977,0.59765c0,0.23726 -0.08729,0.44289 -0.25977,0.61524c-0.16167,0.16176 -0.3605,0.24219 -0.59766,0.24219h-3.02344v10.10546c0,0.2587 -0.097,0.48568 -0.29102,0.67969c-0.18324,0.18318 -0.40341,0.27539 -0.66211,0.27539c-0.26949,0 -0.49646,-0.09221 -0.67969,-0.27539c-0.18326,-0.19401 -0.27539,-0.42099 -0.27539,-0.67969v-10.10546h-3.02344c-0.23713,0 -0.44081,-0.08043 -0.61328,-0.24219c-0.16169,-0.1725 -0.24414,-0.37813 -0.24414,-0.61524c0,-0.23705 0.08245,-0.43589 0.24414,-0.59765c0.17248,-0.16177 0.37615,-0.24219 0.61328,-0.24219zM72.09674,152.99045c0.19401,0.18323 0.29101,0.40825 0.29101,0.67773c0,0.2587 -0.097,0.48568 -0.29101,0.67969c-0.18324,0.18318 -0.40341,0.27539 -0.66211,0.27539c-0.26948,0 -0.5013,-0.09221 -0.69531,-0.27539c-0.18326,-0.19401 -0.27539,-0.42099 -0.27539,-0.67969c0,-0.26953 0.09213,-0.49455 0.27539,-0.67773c0.19402,-0.18318 0.42583,-0.27539 0.69531,-0.27539c0.25868,0 0.47885,0.09221 0.66211,0.27539zM131.94244,152.99045c0.19402,0.18323 0.29102,0.40825 0.29102,0.67773c0,0.2587 -0.097,0.48568 -0.29102,0.67969c-0.18324,0.18318 -0.40341,0.27539 -0.66211,0.27539c-0.26948,0 -0.50129,-0.09221 -0.69531,-0.27539c-0.18323,-0.19401 -0.27539,-0.42099 -0.27539,-0.67969c0,-0.26953 0.09216,-0.49455 0.27539,-0.67773c0.19402,-0.18318 0.42583,-0.27539 0.69531,-0.27539c0.25871,0 0.47888,0.09221 0.66211,0.27539zM102.86432,153.70138c0.17247,0.16174 0.25976,0.36055 0.25976,0.59765v2.02149h0.88867c0.20481,0 0.37746,0.07563 0.51758,0.22656c0.15091,0.1401 0.22656,0.31273 0.22656,0.51758c0,0.21561 -0.07565,0.39311 -0.22656,0.5332c-0.14013,0.1401 -0.31278,0.21094 -0.51758,0.21094h-0.88867v6.80664c0,0.23703 -0.08729,0.44068 -0.25976,0.61328c-0.1617,0.16177 -0.36053,0.24414 -0.59766,0.24414c-0.23714,0 -0.43597,-0.08237 -0.59766,-0.24414c-0.16168,-0.17252 -0.24414,-0.37618 -0.24414,-0.61328v-6.80664h-0.59765c-0.20481,0 -0.3823,-0.07084 -0.53321,-0.21094c-0.14012,-0.14027 -0.21093,-0.31777 -0.21093,-0.5332c0,-0.20485 0.07081,-0.37748 0.21093,-0.51758c0.15091,-0.15093 0.32841,-0.22656 0.53321,-0.22656h0.59765v-2.02149c0,-0.23707 0.08246,-0.43589 0.24414,-0.59765c0.16168,-0.16177 0.36051,-0.24219 0.59766,-0.24219c0.23714,0 0.43597,0.08042 0.59766,0.24219zM122.33307,159.92599h3.52343l-1.85937,-5.31836zM111.30182,156.32053c0.54973,0.21558 1.025,0.5279 1.42383,0.9375c0.39881,0.4096 0.71113,0.91105 0.9375,1.50391c0.22636,0.59285 0.33984,1.2718 0.33984,2.0371c0,0.76531 -0.11348,1.44426 -0.33984,2.03711c-0.22636,0.59286 -0.53868,1.09431 -0.9375,1.50391c-0.39883,0.39871 -0.8741,0.70619 -1.42383,0.92188c-0.53896,0.21568 -1.12576,0.32421 -1.76172,0.32421c-0.63597,0 -1.22957,-0.10853 -1.7793,-0.32421c-0.53895,-0.21559 -1.00743,-0.52306 -1.40625,-0.92188c-0.39882,-0.4096 -0.71113,-0.91105 -0.9375,-1.50391c-0.22637,-0.59285 -0.33984,-1.2718 -0.33984,-2.03711c0,-0.7653 0.11347,-1.44425 0.33984,-2.0371c0.22636,-0.59286 0.53868,-1.09431 0.9375,-1.50391c0.39882,-0.4095 0.8673,-0.72182 1.40625,-0.9375c0.54973,-0.21569 1.14333,-0.32422 1.7793,-0.32422c0.63596,0 1.22276,0.10853 1.76172,0.32422zM92.50494,156.2717c0.53895,0.18323 1.00258,0.45289 1.39063,0.80859c0.39882,0.34495 0.71113,0.77074 0.9375,1.27735c0.22637,0.50661 0.33984,1.08371 0.33984,1.73047c0,0.39879 -0.097,0.7014 -0.29102,0.90625c-0.19402,0.20485 -0.42098,0.30664 -0.67968,0.30664h-5.91602c0,0.02141 0.00479,0.11362 0.01563,0.27539c0.02157,0.1508 0.05938,0.33314 0.11328,0.54883c0.06468,0.21556 0.15002,0.44737 0.25781,0.69531c0.11858,0.2371 0.27473,0.45921 0.46875,0.66406c0.19402,0.20483 0.43263,0.37553 0.71289,0.51563c0.29103,0.12926 0.64118,0.19531 1.05078,0.19531c0.33416,0 0.61834,-0.02811 0.85547,-0.08203c0.23713,-0.05392 0.4476,-0.13435 0.63086,-0.24219c0.18325,-0.10772 0.35105,-0.24253 0.50195,-0.4043c0.15092,-0.17254 0.30222,-0.37139 0.45313,-0.59765c0.08622,-0.12926 0.18322,-0.22147 0.29101,-0.27539c0.1078,-0.05393 0.22127,-0.08008 0.33985,-0.08008c0.19402,0 0.37151,0.06889 0.5332,0.20898c0.16169,0.14005 0.24219,0.31947 0.24219,0.53516c0,0.12933 -0.07082,0.32333 -0.21094,0.58203c-0.14013,0.2587 -0.36514,0.51669 -0.67773,0.77539c-0.30182,0.25872 -0.69659,0.48567 -1.18164,0.67969c-0.48506,0.19401 -1.07671,0.29101 -1.77735,0.29101c-0.71142,0 -1.34769,-0.12997 -1.9082,-0.38867c-0.56051,-0.25869 -1.03578,-0.60399 -1.42383,-1.03515c-0.37727,-0.44193 -0.66825,-0.95309 -0.87305,-1.53516c-0.19401,-0.58207 -0.29101,-1.19216 -0.29101,-1.82813c0,-0.65751 0.10379,-1.2773 0.30859,-1.85937c0.20481,-0.59286 0.49578,-1.10399 0.87305,-1.53516c0.38805,-0.43114 0.85167,-0.77159 1.39062,-1.01953c0.53896,-0.25869 1.14225,-0.38672 1.81055,-0.38672c0.61441,0 1.18472,0.09026 1.71289,0.27344zM79.15924,156.54708c0.38804,0.28027 0.68871,0.6304 0.9043,1.05078c0.29104,-0.52827 0.65767,-0.90459 1.09961,-1.13086c0.45272,-0.2371 0.98231,-0.35547 1.58593,-0.35547v-0.00195c0.38805,0 0.74304,0.06101 1.06641,0.17969c0.33414,0.10789 0.62027,0.27373 0.85742,0.5c0.24793,0.22637 0.44191,0.50766 0.58203,0.8418c0.14012,0.33416 0.20899,0.72211 0.20899,1.16406v5.82031c0,0.23703 -0.0805,0.44264 -0.24219,0.61523c-0.1617,0.16177 -0.36053,0.24219 -0.59766,0.24219c-0.23713,0 -0.44276,-0.08042 -0.61523,-0.24219c-0.16169,-0.17252 -0.24219,-0.37813 -0.24219,-0.61523v-5.74023c0,-0.37728 -0.12318,-0.70123 -0.37109,-0.97071c-0.24792,-0.26948 -0.57673,-0.40429 -0.98633,-0.40429c-0.35571,0 -0.66318,0.07084 -0.92188,0.21093c-0.25869,0.12947 -0.47401,0.30694 -0.64648,0.53321c-0.16169,0.22634 -0.28682,0.48629 -0.37305,0.77734c-0.07546,0.29102 -0.11133,0.59171 -0.11133,0.9043v4.68945c0,0.23703 -0.08245,0.44264 -0.24414,0.61523c-0.1617,0.16177 -0.36053,0.24219 -0.59766,0.24219c-0.23713,0 -0.44276,-0.08042 -0.61523,-0.24219c-0.16169,-0.17252 -0.24219,-0.37813 -0.24219,-0.61523v-5.74023c0,-0.37728 -0.11832,-0.70123 -0.35547,-0.97071c-0.23714,-0.26948 -0.57079,-0.40429 -1.00195,-0.40429c-0.35571,0 -0.66318,0.07084 -0.92187,0.21093c-0.25869,0.12947 -0.47401,0.30694 -0.64648,0.53321c-0.16169,0.22634 -0.28487,0.48629 -0.37109,0.77734c-0.07546,0.29102 -0.11328,0.59171 -0.11328,0.9043v4.68945c0,0.23703 -0.08245,0.44068 -0.24414,0.61328c-0.16167,0.16177 -0.3605,0.24414 -0.59766,0.24414c-0.23713,0 -0.44081,-0.08237 -0.61328,-0.24414c-0.16169,-0.17252 -0.24414,-0.37618 -0.24414,-0.61328v-7.64844c0,-0.23707 0.08245,-0.43589 0.24414,-0.59765c0.17247,-0.17235 0.37615,-0.25782 0.61328,-0.25782c0.23714,0 0.43597,0.08547 0.59766,0.25782c0.16169,0.16174 0.24414,0.36055 0.24414,0.59765v0.35547c0.06465,-0.07559 0.15486,-0.18217 0.27344,-0.32226c0.12935,-0.1402 0.29715,-0.27504 0.50195,-0.4043c0.2048,-0.12926 0.4463,-0.24284 0.72656,-0.33984c0.29103,-0.09701 0.63148,-0.14649 1.01953,-0.14649c0.53895,0 1.00258,0.14648 1.39062,0.4375zM72.03229,156.36935c0.16169,0.16174 0.24414,0.36055 0.24414,0.59765v7.64844c0,0.23703 -0.08245,0.44068 -0.24414,0.61328c-0.1617,0.16177 -0.36053,0.24414 -0.59766,0.24414c-0.23713,0 -0.44276,-0.08237 -0.61523,-0.24414c-0.16169,-0.17252 -0.24219,-0.37618 -0.24219,-0.61328v-7.64844c0,-0.23707 0.0805,-0.43589 0.24219,-0.59765c0.17248,-0.17235 0.37811,-0.25782 0.61523,-0.25782c0.23713,0 0.43597,0.08547 0.59766,0.25782zM131.87799,156.36935c0.16169,0.16174 0.24219,0.36055 0.24219,0.59765v7.64844c0,0.23703 -0.0805,0.44068 -0.24219,0.61328c-0.1617,0.16177 -0.36053,0.24414 -0.59766,0.24414c-0.23713,0 -0.44276,-0.08237 -0.61523,-0.24414c-0.16169,-0.17252 -0.24219,-0.37618 -0.24219,-0.61328v-7.64844c0,-0.23707 0.0805,-0.43589 0.24219,-0.59765c0.17248,-0.17235 0.3781,-0.25782 0.61523,-0.25782c0.23714,0 0.43597,0.08547 0.59766,0.25782zM134.84674,156.36935c0.16169,0.16174 0.24219,0.36055 0.24219,0.59765v0.3086c0.04311,-0.04334 0.12361,-0.13051 0.24218,-0.25977c0.11857,-0.12943 0.26503,-0.25941 0.4375,-0.38867c0.18325,-0.1401 0.38208,-0.25846 0.59766,-0.35547c0.22637,-0.10784 0.46303,-0.16016 0.71094,-0.16016c0.23714,0 0.43792,0.08547 0.59961,0.25782c0.17247,0.16174 0.25781,0.36055 0.25781,0.59765c0,0.22622 -0.08534,0.42506 -0.25781,0.59766c-0.16168,0.16176 -0.36246,0.24414 -0.59961,0.24414c-0.40961,0 -0.74326,0.097 -1.00196,0.29102c-0.2587,0.18325 -0.46433,0.40341 -0.61523,0.66211c-0.14012,0.25869 -0.23712,0.52832 -0.29102,0.80859c-0.05389,0.28031 -0.08007,0.51213 -0.08007,0.69531v4.34961c0,0.23703 -0.0805,0.44264 -0.24219,0.61523c-0.1617,0.16177 -0.36053,0.24219 -0.59766,0.24219c-0.23713,0 -0.44276,-0.08042 -0.61523,-0.24219c-0.16169,-0.17252 -0.24219,-0.37813 -0.24219,-0.61523v-7.64844c0,-0.23707 0.0805,-0.43589 0.24219,-0.59765c0.17245,-0.17235 0.37808,-0.25782 0.61523,-0.25782c0.23714,0 0.43597,0.08547 0.59766,0.25782zM89.80572,157.56466c-0.28026,0.11863 -0.51692,0.26994 -0.71093,0.45312c-0.18325,0.17238 -0.32971,0.36635 -0.4375,0.58204c-0.1078,0.21563 -0.1883,0.41642 -0.24219,0.59961c-0.05385,0.18328 -0.08682,0.34428 -0.09766,0.48437c-0.01083,0.12825 -0.01562,0.20389 -0.01562,0.22656h5.23828c0,-0.33413 -0.05432,-0.65324 -0.16211,-0.95508c-0.10778,-0.30188 -0.27363,-0.56474 -0.5,-0.79101c-0.21558,-0.23718 -0.49687,-0.42631 -0.8418,-0.56641c-0.34493,-0.14009 -0.74939,-0.21093 -1.21289,-0.21093c-0.39882,-0.00001 -0.73732,0.05905 -1.01758,0.17773zM108.42486,157.59786c-0.33415,0.12934 -0.62513,0.33497 -0.87304,0.61524c-0.23715,0.26948 -0.42629,0.61961 -0.56641,1.05078c-0.14012,0.43114 -0.21094,0.9423 -0.21094,1.53515c0,0.59286 0.07082,1.10597 0.21094,1.53711c0.14014,0.42039 0.32928,0.77052 0.56641,1.05079c0.24792,0.2695 0.53889,0.47318 0.87304,0.61328c0.34493,0.12926 0.71641,0.19531 1.11524,0.19531c0.39882,0 0.76546,-0.06605 1.09961,-0.19531c0.34494,-0.14012 0.63592,-0.3438 0.87304,-0.61328c0.24793,-0.28027 0.44192,-0.6304 0.58204,-1.05079c0.14012,-0.43114 0.21093,-0.94425 0.21093,-1.53711c0,-0.59285 -0.07081,-1.10401 -0.21093,-1.53515c-0.14014,-0.43117 -0.33412,-0.7813 -0.58204,-1.05078c-0.23713,-0.28034 -0.52811,-0.48598 -0.87304,-0.61524c-0.33415,-0.14009 -0.70079,-0.20898 -1.09961,-0.20898c-0.39883,0 -0.77031,0.06889 -1.11524,0.20898zM83.34088,167.4006c0.22637,0.16169 0.33789,0.37216 0.33789,0.63086c0,0.07559 -0.00479,0.12985 -0.01562,0.16211l-0.4043,1.84375c-0.04311,0.17234 -0.11393,0.31687 -0.21094,0.43554c-0.097,0.11868 -0.22987,0.17774 -0.40234,0.17774c-0.17247,0 -0.30729,-0.05906 -0.4043,-0.17774c-0.09701,-0.11867 -0.16783,-0.2632 -0.21094,-0.43554l-0.40429,-1.84375c-0.01084,-0.03226 -0.01563,-0.08652 -0.01563,-0.16211c0,-0.25862 0.11348,-0.4691 0.33984,-0.63086c0.22638,-0.16177 0.45819,-0.24219 0.69532,-0.24219c0.23713,0 0.46894,0.08042 0.69531,0.24219zM62.91119,167.74045c0.24791,0.23713 0.37109,0.5281 0.37109,0.87305v3.91406l4.34961,-4.68945c0.2048,-0.21569 0.45795,-0.32422 0.75977,-0.32422c0.3018,0 0.57144,0.10853 0.80859,0.32422c0.23713,0.21556 0.35547,0.4949 0.35547,0.83984c0,0.26958 -0.08534,0.49172 -0.25781,0.66406l-3.12109,3.18555l4.07422,5.70703c0.16169,0.22637 0.24219,0.47466 0.24219,0.74414c0,0.1186 -0.02618,0.24663 -0.08008,0.38672c-0.04311,0.14002 -0.11393,0.27 -0.21094,0.38867c-0.09701,0.10785 -0.22019,0.20005 -0.37109,0.27539c-0.15091,0.07534 -0.3284,0.11328 -0.5332,0.11328c-0.18324,0 -0.35589,-0.03794 -0.51758,-0.11328c-0.16168,-0.07534 -0.2965,-0.18891 -0.4043,-0.33984l-3.75195,-5.59375l-1.3418,1.35742v3.46094c0,0.34497 -0.12318,0.63594 -0.37109,0.87305c-0.23714,0.2371 -0.52812,0.35546 -0.87305,0.35546c-0.34492,0 -0.63589,-0.11836 -0.87305,-0.35546c-0.23713,-0.23713 -0.35547,-0.52811 -0.35547,-0.87305v-10.30078c0,-0.34497 0.11834,-0.63595 0.35547,-0.87305c0.23714,-0.2371 0.52812,-0.35547 0.87305,-0.35547c0.34494,0 0.63592,0.11837 0.87305,0.35547zM73.52057,167.74045c0.24791,0.23713 0.37305,0.5281 0.37305,0.87305v3.91406l4.34961,-4.68945c0.2048,-0.21569 0.45795,-0.32422 0.75977,-0.32422c0.30182,0 0.57147,0.10853 0.80859,0.32422c0.23713,0.21556 0.35547,0.4949 0.35547,0.83984c0,0.26958 -0.08729,0.49172 -0.25976,0.66406l-3.11914,3.18555l4.07421,5.70703c0.16169,0.22637 0.24219,0.47466 0.24219,0.74414c0,0.1186 -0.02618,0.24663 -0.08008,0.38672c-0.04311,0.14002 -0.11393,0.27 -0.21093,0.38867c-0.09701,0.10785 -0.22019,0.20005 -0.3711,0.27539c-0.15091,0.07534 -0.33036,0.11328 -0.53516,0.11328c-0.18324,0 -0.35394,-0.03794 -0.51562,-0.11328c-0.16169,-0.07534 -0.2965,-0.18891 -0.4043,-0.33984l-3.75195,-5.59375l-1.3418,1.35742v3.46094c0,0.34497 -0.12513,0.63594 -0.37305,0.87305c-0.23714,0.2371 -0.52812,0.35546 -0.87305,0.35546c-0.34494,0 -0.63592,-0.11836 -0.87305,-0.35546c-0.23715,-0.23713 -0.35547,-0.52811 -0.35547,-0.87305v-10.30078c0,-0.34497 0.11832,-0.63595 0.35547,-0.87305c0.23714,-0.2371 0.52812,-0.35547 0.87305,-0.35547c0.34492,0 0.63589,0.11837 0.87305,0.35547zM104.58307,167.53147c0.21558,0.08612 0.39792,0.21412 0.54882,0.38671c0.16169,0.16177 0.28488,0.35577 0.3711,0.58204c0.09701,0.22636 0.14648,0.46982 0.14648,0.72851v5.85352h0.87305c0.29104,0 0.53934,0.10179 0.74414,0.30664c0.21558,0.2048 0.32227,0.45793 0.32227,0.75976c0,0.29098 -0.10669,0.53929 -0.32227,0.74414c-0.2048,0.20485 -0.45311,0.30665 -0.74414,0.30665h-0.87305v1.71484c0,0.34497 -0.12513,0.63594 -0.37304,0.87305c-0.23714,0.2371 -0.52812,0.35546 -0.87305,0.35546c-0.34494,0 -0.63592,-0.11836 -0.87305,-0.35546c-0.23713,-0.23713 -0.35547,-0.52811 -0.35547,-0.87305v-1.71484h-4.00976c-0.3126,0 -0.59193,-0.04753 -0.83985,-0.14454c-0.2479,-0.10791 -0.46322,-0.24952 -0.64648,-0.42187c-0.17247,-0.17255 -0.30729,-0.37139 -0.4043,-0.59766c-0.097,-0.23713 -0.14648,-0.48544 -0.14648,-0.74414c0,-0.54974 0.21048,-1.06571 0.63086,-1.55078l4.52734,-5.33594c0.23715,-0.28026 0.48061,-0.51887 0.72852,-0.71289c0.25869,-0.20485 0.55452,-0.30664 0.88867,-0.30664c0.23714,0 0.4641,0.04948 0.67969,0.14649zM110.65924,167.74045c0.24791,0.23713 0.37109,0.5281 0.37109,0.87305v3.91406l4.34961,-4.68945c0.2048,-0.21569 0.45795,-0.32422 0.75977,-0.32422c0.30182,0 0.57146,0.10853 0.80859,0.32422c0.23715,0.21556 0.35547,0.4949 0.35547,0.83984c0,0.26958 -0.08534,0.49172 -0.25781,0.66406l-3.1211,3.18555l4.07422,5.70703c0.16169,0.22637 0.24219,0.47466 0.24219,0.74414c0,0.1186 -0.02618,0.24663 -0.08008,0.38672c-0.04311,0.14002 -0.11393,0.27 -0.21094,0.38867c-0.097,0.10785 -0.22019,0.20005 -0.37109,0.27539c-0.15091,0.07534 -0.3284,0.11328 -0.5332,0.11328c-0.18324,0 -0.35589,-0.03794 -0.51758,-0.11328c-0.16169,-0.07534 -0.29651,-0.18891 -0.4043,-0.33984l-3.75195,-5.59375l-1.3418,1.35742v3.46094c0,0.34497 -0.12318,0.63594 -0.37109,0.87305c-0.23714,0.2371 -0.52812,0.35546 -0.87305,0.35546c-0.34494,0 -0.63592,-0.11836 -0.87304,-0.35546c-0.23713,-0.23713 -0.35547,-0.52811 -0.35547,-0.87305v-10.30078c0,-0.34497 0.11834,-0.63595 0.35547,-0.87305c0.23714,-0.2371 0.52811,-0.35547 0.87304,-0.35547c0.34492,0 0.6359,0.11837 0.87305,0.35547zM125.53229,167.74045c0.24791,0.23713 0.37304,0.5281 0.37304,0.87305v3.7832h5.26953v-3.7832c0,-0.34497 0.11834,-0.63595 0.35547,-0.87305c0.23714,-0.2371 0.52812,-0.35547 0.87305,-0.35547c0.34494,0 0.63592,0.11837 0.87305,0.35547c0.24791,0.23713 0.37304,0.5281 0.37304,0.87305v10.30078c0,0.34497 -0.12513,0.63594 -0.37304,0.87305c-0.23714,0.2371 -0.52812,0.35546 -0.87305,0.35546c-0.34492,0 -0.63589,-0.11836 -0.87305,-0.35546c-0.23713,-0.23713 -0.35547,-0.52811 -0.35547,-0.87305v-4.38281h-5.26953v4.38281c0,0.34497 -0.12513,0.63594 -0.37304,0.87305c-0.23714,0.2371 -0.52812,0.35546 -0.87305,0.35546c-0.34494,0 -0.63592,-0.11836 -0.87305,-0.35546c-0.23715,-0.23713 -0.35547,-0.52811 -0.35547,-0.87305v-10.30078c0,-0.34497 0.11832,-0.63595 0.35547,-0.87305c0.23714,-0.2371 0.52812,-0.35547 0.87305,-0.35547c0.34494,0 0.63592,0.11837 0.87305,0.35547zM99.27838,175.08224h3.89648v-4.65821zM89.69439,171.02364c0.45273,0.15101 0.8339,0.33819 1.14649,0.56446c0.32336,0.22634 0.57167,0.47466 0.74414,0.74414c0.18323,0.25879 0.27539,0.50225 0.27539,0.72851c0,0.14002 -0.03298,0.26804 -0.09766,0.38672c-0.06468,0.11868 -0.15002,0.22242 -0.25781,0.3086c-0.09701,0.07533 -0.21048,0.13943 -0.33984,0.19336c-0.11855,0.04308 -0.23689,0.06445 -0.35547,0.06445c-0.12934,0 -0.25447,-0.02616 -0.37305,-0.08008c-0.11857,-0.06476 -0.20391,-0.17329 -0.25781,-0.32422c-0.08622,-0.20482 -0.20456,-0.37748 -0.35547,-0.51758c-0.14014,-0.14009 -0.3031,-0.25367 -0.48633,-0.33984c-0.17246,-0.09701 -0.35965,-0.1659 -0.56445,-0.20899c-0.19403,-0.04308 -0.38802,-0.06445 -0.58203,-0.06445c-0.42039,0 -0.77053,0.07564 -1.05078,0.22656c-0.28026,0.14012 -0.42188,0.36515 -0.42188,0.67774c0,0.25872 0.13482,0.45951 0.4043,0.59961c0.28025,0.14009 0.62555,0.26325 1.03516,0.37109c0.4096,0.09701 0.85189,0.20554 1.32617,0.32422c0.47428,0.10782 0.91656,0.25716 1.32617,0.45117c0.4096,0.18323 0.7481,0.43155 1.01758,0.74414c0.28025,0.30181 0.42187,0.70626 0.42187,1.21289c0,0.53894 -0.10379,1.01225 -0.30859,1.42188c-0.19402,0.39881 -0.46367,0.73927 -0.8086,1.01953c-0.33415,0.26951 -0.73181,0.47319 -1.19531,0.61328c-0.45272,0.1401 -0.93768,0.21094 -1.45508,0.21094c-0.65752,0 -1.23947,-0.09221 -1.74609,-0.27539c-0.50661,-0.19404 -0.93241,-0.4307 -1.27734,-0.71094c-0.34492,-0.28026 -0.60972,-0.58771 -0.79297,-0.92187c-0.17247,-0.34492 -0.25781,-0.66211 -0.25781,-0.95313c0,-0.24791 0.11152,-0.44868 0.33789,-0.59961c0.23713,-0.15093 0.49224,-0.22656 0.76171,-0.22656c0.18325,0 0.3491,0.03769 0.5,0.11328c0.15091,0.07534 0.25954,0.19566 0.32422,0.35742c0.18325,0.45271 0.44609,0.81935 0.79102,1.09961c0.34493,0.28027 0.79886,0.41992 1.35937,0.41992c0.18326,0 0.3656,-0.02136 0.54883,-0.06445c0.18325,-0.05392 0.34621,-0.12476 0.48633,-0.21094c0.15093,-0.09701 0.26925,-0.21058 0.35547,-0.33984c0.09701,-0.1402 0.14453,-0.3012 0.14453,-0.48438c0,-0.29097 -0.13482,-0.51792 -0.4043,-0.67968c-0.26947,-0.16162 -0.60312,-0.29646 -1.00195,-0.4043c-0.39882,-0.11843 -0.83627,-0.23005 -1.31055,-0.33789c-0.47427,-0.11858 -0.90976,-0.27669 -1.30859,-0.4707c-0.39883,-0.19402 -0.73248,-0.44718 -1.00195,-0.75977c-0.26948,-0.31259 -0.4043,-0.73159 -0.4043,-1.25977c0,-0.42038 0.08534,-0.80833 0.25781,-1.16406c0.17247,-0.35568 0.41592,-0.65831 0.72852,-0.90625c0.32337,-0.24796 0.70454,-0.44193 1.14648,-0.58203c0.44195,-0.14009 0.93371,-0.21094 1.47266,-0.21094c0.54973,0 1.05119,0.08238 1.5039,0.24414zM142.42291,171.10372c0.2587,0.21559 0.38672,0.50656 0.38672,0.87305c0,0.10784 -0.01455,0.20963 -0.04688,0.30664l-2.97656,9.28125c-0.1509,0.45271 -0.33808,0.80771 -0.56445,1.06641c-0.21558,0.25872 -0.4542,0.45951 -0.71289,0.5996c-0.2587,0.14035 -0.53319,0.22557 -0.82422,0.25782c-0.28026,0.04308 -0.5499,0.06445 -0.80859,0.06445h-0.83985c-0.2048,0 -0.38909,-0.03794 -0.55078,-0.11328c-0.1509,-0.07534 -0.28572,-0.17234 -0.4043,-0.29102c-0.10779,-0.11852 -0.19313,-0.25141 -0.25781,-0.40234c-0.05389,-0.14012 -0.08008,-0.28657 -0.08008,-0.4375c0,-0.21556 0.064,-0.3979 0.19336,-0.54883c0.14013,-0.15093 0.35545,-0.22656 0.64649,-0.22656v-0.00195c0.28026,0 0.54505,-0.00555 0.79297,-0.01563c0.2587,-0.01058 0.48371,-0.04852 0.67773,-0.11328c0.19402,-0.06476 0.34533,-0.16655 0.45312,-0.30664c0.11858,-0.12934 0.17774,-0.31847 0.17774,-0.56641c0,-0.15098 -0.02134,-0.31877 -0.06445,-0.50195c-0.04312,-0.18323 -0.11393,-0.39855 -0.21094,-0.64648l-2.69922,-6.85547c-0.06468,-0.16177 -0.09766,-0.3344 -0.09766,-0.51758c0,-0.12936 0.02135,-0.2642 0.06446,-0.4043c0.04311,-0.14027 0.10909,-0.26829 0.19531,-0.38672c0.09701,-0.11867 0.22019,-0.21567 0.37109,-0.29101c0.16168,-0.08618 0.35567,-0.12891 0.58203,-0.12891c0.23714,0 0.45927,0.0641 0.66407,0.19336c0.20479,0.11863 0.34445,0.2961 0.41992,0.5332l1.98828,6.14453l1.55273,-6.1289c0.06468,-0.24799 0.1995,-0.43519 0.4043,-0.56445c0.21559,-0.12926 0.4474,-0.19532 0.69531,-0.19532c0.32338,0 0.61435,0.10854 0.87305,0.32422zM145.75689,171.13693c0.23713,0.22634 0.35547,0.49404 0.35547,0.80664c0.09701,-0.12939 0.21049,-0.26225 0.33985,-0.40235c0.14013,-0.14009 0.31278,-0.2652 0.51758,-0.37305c0.21558,-0.11842 0.46873,-0.21063 0.75976,-0.27539c0.30182,-0.07533 0.66165,-0.11132 1.08203,-0.11132c0.52818,0 1.00829,0.11357 1.43946,0.33984c0.44194,0.22634 0.82021,0.54837 1.13281,0.96875c0.31259,0.40963 0.54925,0.90623 0.71094,1.48828c0.17247,0.57131 0.25781,1.20079 0.25781,1.89063c0,0.68986 -0.08534,1.32129 -0.25781,1.89257c-0.16169,0.57129 -0.39835,1.0679 -0.71094,1.48829c-0.3126,0.4097 -0.69087,0.72685 -1.13281,0.95312c-0.43117,0.22627 -0.91128,0.33984 -1.43946,0.33984c-0.39882,0 -0.74897,-0.05905 -1.05078,-0.17773c-0.30181,-0.1186 -0.55981,-0.24858 -0.77539,-0.38867c-0.20479,-0.15081 -0.37259,-0.28562 -0.50195,-0.4043c-0.12934,-0.11868 -0.22634,-0.17773 -0.29102,-0.17773c-0.05389,0 -0.08008,0.06889 -0.08008,0.20898v3.16992c0,0.32348 -0.11834,0.59795 -0.35547,0.82422c-0.22636,0.2371 -0.50084,0.35547 -0.82421,0.35547c-0.31261,0 -0.58905,-0.11837 -0.82618,-0.35547c-0.22636,-0.22637 -0.33789,-0.50084 -0.33789,-0.82422v-10.42968c0,-0.31267 0.11153,-0.58038 0.33789,-0.80664c0.23714,-0.23711 0.51358,-0.35743 0.82618,-0.35743c0.32336,0 0.59785,0.12032 0.82421,0.35743zM159.26861,171.20139c0.52818,0.26948 0.95882,0.60798 1.29297,1.01758c0.34493,0.4096 0.59808,0.85189 0.75977,1.32617c0.16169,0.47428 0.24219,0.91173 0.24219,1.31054c0,0.37725 -0.06887,0.68957 -0.20899,0.9375c-0.14013,0.24794 -0.34576,0.3711 -0.61523,0.3711h-5.17383c-0.11858,0 -0.21071,0.04468 -0.27539,0.13086c-0.0539,0.07559 -0.08008,0.17738 -0.08008,0.30664c0,0.16159 0.04752,0.35072 0.14453,0.5664c0.09702,0.2048 0.24349,0.40365 0.4375,0.59766c0.19402,0.19412 0.43068,0.35512 0.71094,0.48438c0.29103,0.12926 0.62468,0.19531 1.00195,0.19531c0.22636,0 0.42714,-0.02332 0.59961,-0.06641c0.17247,-0.05392 0.33347,-0.1276 0.48438,-0.22461c0.15091,-0.097 0.29542,-0.22211 0.43554,-0.37304c0.15092,-0.16159 0.31872,-0.35072 0.50196,-0.56641c0.16168,-0.19402 0.34402,-0.29102 0.54882,-0.29102c0.12934,0 0.25932,0.0329 0.38868,0.09766c0.12936,0.0645 0.24283,0.14997 0.33984,0.25781c0.09701,0.10785 0.17751,0.23296 0.24219,0.37305c0.06468,0.12936 0.09765,0.2642 0.09765,0.4043c0,0.14014 -0.07565,0.33896 -0.22656,0.59765c-0.14013,0.24791 -0.3603,0.50107 -0.66211,0.75977c-0.30181,0.24794 -0.68009,0.47005 -1.13281,0.66406c-0.45272,0.18318 -0.992,0.27344 -1.61719,0.27344c-0.71142,0 -1.34769,-0.12802 -1.9082,-0.38672c-0.56051,-0.2587 -1.03383,-0.60399 -1.42188,-1.03516c-0.37727,-0.44192 -0.66824,-0.94824 -0.87304,-1.51953c-0.19402,-0.58207 -0.29102,-1.19699 -0.29102,-1.84375c0,-0.64675 0.08534,-1.25683 0.25781,-1.82812c0.18325,-0.58207 0.45969,-1.08839 0.82618,-1.51953c0.36648,-0.44196 0.82331,-0.79209 1.37304,-1.05079c0.54973,-0.25869 1.19765,-0.38671 1.94141,-0.38671c0.7222,0 1.34198,0.13965 1.85937,0.41992zM164.51275,171.13693c0.22637,0.22634 0.33985,0.496 0.33985,0.80859c0.09701,-0.10784 0.21535,-0.23295 0.35547,-0.37305c0.1509,-0.14009 0.3119,-0.26325 0.48437,-0.37109c0.18325,-0.11843 0.37239,-0.21543 0.56641,-0.29102c0.19403,-0.08617 0.38801,-0.1289 0.58203,-0.1289c0.43117,0 0.72214,0.11162 0.87305,0.33789c0.16168,0.22634 0.24218,0.49113 0.24218,0.79297c0,0.24798 -0.05915,0.43714 -0.17773,0.5664c-0.10779,0.11843 -0.24745,0.20868 -0.41992,0.27344c-0.1617,0.06476 -0.33919,0.11902 -0.53321,0.16211c-0.19401,0.03225 -0.3783,0.08173 -0.55078,0.14648c-0.3126,0.11858 -0.56575,0.27474 -0.75976,0.46875c-0.18325,0.18313 -0.32292,0.38197 -0.41992,0.59766c-0.09704,0.2047 -0.16299,0.41517 -0.19532,0.63086c-0.03232,0.21566 -0.04687,0.41447 -0.04687,0.59765v3.62305c0,0.32345 -0.1203,0.59795 -0.35742,0.82422c-0.22636,0.22627 -0.50085,0.33984 -0.82422,0.33984c-0.31258,0 -0.58707,-0.11357 -0.82422,-0.33984c-0.22637,-0.23713 -0.33985,-0.51163 -0.33985,-0.82422v-7.0332c0,-0.31267 0.11348,-0.58233 0.33985,-0.80859c0.23714,-0.23711 0.51842,-0.35547 0.8418,-0.35547c0.32336,0 0.59785,0.11836 0.82421,0.35547zM146.46783,173.43185c-0.37726,0.49585 -0.5664,1.17479 -0.5664,2.03711c0,0.85155 0.18914,1.52563 0.5664,2.02148c0.37727,0.49582 0.90491,0.74414 1.58399,0.74414c0.68986,0 1.22429,-0.24832 1.60156,-0.74414c0.37727,-0.49585 0.56641,-1.16993 0.56641,-2.02148c0,-0.86232 -0.18914,-1.54126 -0.56641,-2.03711c-0.37727,-0.49583 -0.9117,-0.74414 -1.60156,-0.74414c-0.67908,0 -1.20672,0.24831 -1.58399,0.74414zM156.46979,172.86545c-0.2587,0.10792 -0.47402,0.24953 -0.64649,0.42188c-0.16169,0.16176 -0.28487,0.33244 -0.37109,0.51562c-0.08623,0.18326 -0.12891,0.34623 -0.12891,0.48633c0,0.21568 0.0805,0.32226 0.24219,0.32226h3.68555c0.14012,0 0.21093,-0.10179 0.21093,-0.30664c0,-0.14019 -0.04268,-0.30119 -0.1289,-0.48437c-0.07544,-0.18316 -0.20058,-0.35582 -0.37305,-0.51758c-0.16169,-0.17237 -0.37216,-0.31882 -0.63086,-0.4375c-0.2587,-0.11842 -0.56421,-0.17773 -0.91992,-0.17773c-0.35571,0 -0.66998,0.05931 -0.93945,0.17773z" fill="#1eff00" stroke="none" stroke-width="1.01053" stroke-miterlimit="10" stroke-dashoffset="0"/></g></g></svg>