<svg version="1.1" xmlns="http://www.w3.org/2000/svg" xmlns:xlink="http://www.w3.org/1999/xlink" width="372.21489" height="68.64262" viewBox="0,0,372.21489,68.64262"><g transform="translate(-53.89255,-145.67869)"><g data-paper-data="{&quot;isPaintingLayer&quot;:true}" fill-rule="nonzero" stroke-linecap="butt" stroke-linejoin="miter" stroke-dasharray="" style="mix-blend-mode: normal"><path d="M425.00973,146.42869c0.19313,0 0.34772,0.15458 0.34772,0.34772v66.4453c0,0.19313 -0.15458,0.34961 -0.34772,0.34961h-370.01757c-0.19313,0 -0.34961,-0.15647 -0.34961,-0.34961v-66.4453c0,-0.19313 0.15647,-0.34772 0.34961,-0.34772z" fill="#1e1e1e" stroke="#1eff00" stroke-width="1.5" stroke-miterlimit="4" stroke-dashoffset="17.35"/><path d="M100.04688,152.99023c0.19401,0.18326 0.29101,0.40826 0.29101,0.67774c0,0.25869 -0.097,0.48567 -0.29101,0.67969c-0.18325,0.18318 -0.40342,0.27539 -0.66211,0.27539c-0.26949,0 -0.5013,-0.09221 -0.69531,-0.27539c-0.18323,-0.19402 -0.27539,-0.421 -0.27539,-0.67969c0,-0.26956 0.09216,-0.49455 0.27539,-0.67774c0.19402,-0.18318 0.42583,-0.27539 0.69531,-0.27539c0.25868,0 0.47885,0.09221 0.66211,0.27539zM123.93359,152.71484c0.31259,0 0.58223,0.11358 0.8086,0.33985c0.23713,0.22637 0.35547,0.50084 0.35547,0.82422c0,0.16156 -0.02619,0.30124 -0.08008,0.41992c-0.0539,0.11842 -0.12956,0.23679 -0.22656,0.35547l-7.11524,9.11914h7.17969c0.23714,0 0.43597,0.08742 0.59765,0.25976c0.17248,0.16174 0.25977,0.36056 0.25977,0.59766c0,0.23705 -0.08729,0.43589 -0.25977,0.59766c-0.16167,0.16176 -0.3605,0.24414 -0.59765,0.24414h-8.39258c-0.32338,0 -0.60272,-0.11358 -0.83984,-0.33985c-0.22637,-0.23713 -0.33985,-0.51162 -0.33985,-0.82422c0,-0.17234 0.02134,-0.31882 0.06446,-0.4375c0.05389,-0.11867 0.13439,-0.24183 0.24218,-0.37109l7.03321,-9.08789h-6.19141c-0.23714,0 -0.43597,-0.08042 -0.59766,-0.24219c-0.16168,-0.1725 -0.24414,-0.37618 -0.24414,-0.61328c0,-0.23705 0.08246,-0.43784 0.24414,-0.59961c0.1617,-0.16176 0.36053,-0.24219 0.59766,-0.24219zM150.60547,152.99023c0.19401,0.18326 0.29101,0.40826 0.29101,0.67774c0,0.25869 -0.097,0.48567 -0.29101,0.67969c-0.18325,0.18318 -0.40341,0.27539 -0.66211,0.27539c-0.26948,0 -0.5013,-0.09221 -0.69531,-0.27539c-0.18323,-0.19402 -0.27539,-0.421 -0.27539,-0.67969c0,-0.26956 0.09216,-0.49455 0.27539,-0.67774c0.19402,-0.18318 0.42583,-0.27539 0.69531,-0.27539c0.25871,0 0.47888,0.09221 0.66211,0.27539zM163.42188,152.99023c0.18323,0.18326 0.27539,0.40826 0.27539,0.67774v7.76172c0,0.26953 -0.09216,0.4965 -0.27539,0.67969c-0.18325,0.18318 -0.41022,0.27343 -0.67969,0.27343c-0.25871,0 -0.48372,-0.09025 -0.67774,-0.27343c-0.18323,-0.18326 -0.27539,-0.41024 -0.27539,-0.67969v-7.76172c0,-0.26956 0.09216,-0.49455 0.27539,-0.67774c0.19403,-0.18318 0.41904,-0.27539 0.67774,-0.27539c0.26949,0 0.49645,0.09221 0.67969,0.27539zM61.79493,152.9082c0.17247,0.11848 0.28595,0.28627 0.33984,0.50196l2.37695,9.07031l2.18359,-8.60156c0.08624,-0.33421 0.24725,-0.59221 0.48438,-0.77539c0.24792,-0.19402 0.5389,-0.29102 0.87305,-0.29102c0.34492,0 0.63589,0.097 0.87305,0.29102c0.23715,0.18323 0.39815,0.44123 0.48437,0.77539l2.19922,8.60156l2.37695,-9.07031c0.0539,-0.21549 0.16253,-0.38328 0.32422,-0.50196c0.17246,-0.11867 0.36645,-0.17773 0.58203,-0.17773c0.30181,0 0.53362,0.10374 0.69531,0.30859c0.17247,0.19412 0.25781,0.40264 0.25781,0.62891v0.14648c0,0.03226 -0.00958,0.07499 -0.03125,0.12891l-3.05664,10.73633c-0.07546,0.24796 -0.21028,0.44193 -0.4043,0.58203c-0.19402,0.14009 -0.42584,0.21094 -0.69531,0.21094c-0.25871,0 -0.48567,-0.06606 -0.67969,-0.19532c-0.19402,-0.14012 -0.32204,-0.33409 -0.38672,-0.58203l-2.53906,-9.86133l-2.53906,9.86133c-0.06468,0.24796 -0.1927,0.44194 -0.38672,0.58203c-0.19403,0.12926 -0.41615,0.19532 -0.66406,0.19532c-0.26948,0 -0.50614,-0.07085 -0.71094,-0.21094c-0.19401,-0.14012 -0.32883,-0.3341 -0.4043,-0.58203l-3.05664,-10.73633c-0.02167,-0.10784 -0.03125,-0.19306 -0.03125,-0.25781c0,-0.07534 0.00958,-0.16755 0.03125,-0.27539c0.03233,-0.10785 0.0818,-0.20964 0.14648,-0.30664c0.07544,-0.10759 0.17244,-0.19501 0.29102,-0.25977c0.12935,-0.07559 0.29036,-0.11328 0.48437,-0.11328c0.21557,0 0.40956,0.05906 0.58203,0.17773zM81.77735,156.32031c0.54973,0.21559 1.025,0.5279 1.42383,0.9375c0.39882,0.4096 0.71113,0.91105 0.9375,1.50391c0.22637,0.59283 0.33984,1.27178 0.33984,2.03711c0,0.7653 -0.11348,1.44425 -0.33984,2.03711c-0.22636,0.59283 -0.53867,1.09428 -0.9375,1.5039c-0.39882,0.39872 -0.8741,0.70619 -1.42383,0.92188c-0.53895,0.21568 -1.12575,0.32226 -1.76172,0.32226c-0.63596,0 -1.22956,-0.10658 -1.7793,-0.32226c-0.53895,-0.21559 -1.00742,-0.52306 -1.40625,-0.92188c-0.39882,-0.40962 -0.71113,-0.91107 -0.9375,-1.5039c-0.22637,-0.59286 -0.33984,-1.27181 -0.33984,-2.03711c0,-0.76533 0.11348,-1.44428 0.33984,-2.03711c0.22636,-0.59286 0.53867,-1.09431 0.9375,-1.50391c0.39883,-0.4095 0.8673,-0.72181 1.40625,-0.9375c0.54973,-0.21568 1.14333,-0.32422 1.7793,-0.32422c0.63597,0 1.22277,0.10854 1.76172,0.32422zM107.28516,156.27148c0.53895,0.18326 1.00257,0.45289 1.39062,0.8086c0.39882,0.34492 0.71113,0.77071 0.9375,1.27734c0.22637,0.50661 0.33985,1.08372 0.33984,1.73047c0,0.39877 -0.09699,0.69945 -0.29101,0.9043c-0.19402,0.20485 -0.42099,0.30859 -0.67969,0.30859h-5.91797c0,0.02142 0.00479,0.11363 0.01563,0.27539c0.02157,0.15081 0.05938,0.33314 0.11328,0.54883c0.06468,0.21556 0.15197,0.44738 0.25976,0.69531c0.11858,0.23708 0.27474,0.45726 0.46876,0.66211c0.19402,0.20485 0.43068,0.37749 0.71093,0.51758c0.29104,0.12926 0.64118,0.19531 1.05078,0.19531c0.33417,0 0.6203,-0.02811 0.85743,-0.08203c0.23715,-0.05392 0.44762,-0.13434 0.63086,-0.24219c0.18324,-0.10771 0.34909,-0.24253 0.5,-0.40429c0.1509,-0.17258 0.30222,-0.37139 0.45312,-0.59766c0.08622,-0.12926 0.18322,-0.22147 0.29102,-0.27539c0.10779,-0.05392 0.22126,-0.08008 0.33984,-0.08008c0.19402,0 0.37151,0.06889 0.5332,0.20899c0.16169,0.14002 0.24219,0.31751 0.24219,0.5332c0,0.12936 -0.06886,0.32333 -0.20898,0.58203c-0.14013,0.2587 -0.3671,0.51865 -0.67969,0.77734c-0.30181,0.2587 -0.69463,0.48372 -1.17969,0.67774c-0.48506,0.19401 -1.07866,0.29101 -1.7793,0.29101c-0.71141,0 -1.34769,-0.12802 -1.9082,-0.38671c-0.56051,-0.2587 -1.03383,-0.60399 -1.42187,-1.03516c-0.37727,-0.44195 -0.66825,-0.95504 -0.87305,-1.53711c-0.19402,-0.58207 -0.29102,-1.19023 -0.29102,-1.82617c0,-0.65754 0.10184,-1.2773 0.30664,-1.85938c0.20481,-0.59283 0.49578,-1.10398 0.87305,-1.53515c0.38805,-0.43115 0.85167,-0.7716 1.39063,-1.01953c0.53895,-0.2587 1.14224,-0.38868 1.81054,-0.38868c0.61441,0 1.18667,0.09221 1.71485,0.27539zM132.31836,156.32031c0.54973,0.21559 1.02305,0.5279 1.42187,0.9375c0.39882,0.4096 0.71114,0.91105 0.9375,1.50391c0.22637,0.59283 0.33985,1.27178 0.33985,2.03711c0,0.7653 -0.11348,1.44425 -0.33985,2.03711c-0.22636,0.59283 -0.53867,1.09428 -0.9375,1.5039c-0.39882,0.39872 -0.87214,0.70619 -1.42187,0.92188c-0.53895,0.21568 -1.12771,0.32226 -1.76367,0.32226c-0.63597,0 -1.22761,-0.10658 -1.77735,-0.32226c-0.53895,-0.21559 -1.00937,-0.52306 -1.4082,-0.92188c-0.39882,-0.40962 -0.71113,-0.91107 -0.9375,-1.5039c-0.22637,-0.59286 -0.33984,-1.27181 -0.33984,-2.03711c0,-0.76533 0.11347,-1.44428 0.33984,-2.03711c0.22636,-0.59286 0.53867,-1.09431 0.9375,-1.50391c0.39883,-0.4095 0.86925,-0.72181 1.4082,-0.9375c0.54974,-0.21568 1.14138,-0.32422 1.77735,-0.32422c0.63596,0 1.22472,0.10854 1.76367,0.32422zM157.84375,156.27148c0.53895,0.18326 1.00258,0.45289 1.39063,0.8086c0.39881,0.34492 0.71113,0.77071 0.9375,1.27734c0.22636,0.50661 0.33984,1.08372 0.33984,1.73047c0,0.39877 -0.097,0.69945 -0.29102,0.9043c-0.19402,0.20485 -0.42099,0.30859 -0.67968,0.30859h-5.91797c0,0.02142 0.00479,0.11363 0.01562,0.27539c0.02157,0.15081 0.05939,0.33314 0.11328,0.54883c0.06468,0.21556 0.15198,0.44738 0.25977,0.69531c0.11858,0.23708 0.27473,0.45726 0.46875,0.66211c0.19402,0.20485 0.43068,0.37749 0.71094,0.51758c0.29103,0.12926 0.64117,0.19531 1.05078,0.19531c0.33414,0 0.62027,-0.02811 0.85742,-0.08203c0.23713,-0.05392 0.4476,-0.13434 0.63086,-0.24219c0.18325,-0.10771 0.34909,-0.24253 0.5,-0.40429c0.15091,-0.17258 0.30222,-0.37139 0.45312,-0.59766c0.08623,-0.12926 0.18323,-0.22147 0.29102,-0.27539c0.10779,-0.05392 0.22127,-0.08008 0.33984,-0.08008c0.19402,0 0.37152,0.06889 0.53321,0.20899c0.16168,0.14002 0.24218,0.31751 0.24218,0.5332c0,0.12936 -0.06886,0.32333 -0.20898,0.58203c-0.14013,0.2587 -0.3671,0.51865 -0.67969,0.77734c-0.30181,0.2587 -0.69463,0.48372 -1.17969,0.67774c-0.48506,0.19401 -1.07865,0.29101 -1.77929,0.29101c-0.71142,0 -1.34769,-0.12802 -1.90821,-0.38671c-0.56051,-0.2587 -1.03383,-0.60399 -1.42187,-1.03516c-0.37727,-0.44195 -0.66825,-0.95504 -0.87305,-1.53711c-0.19401,-0.58207 -0.29101,-1.19023 -0.29101,-1.82617c0,-0.65754 0.10184,-1.2773 0.30664,-1.85938c0.2048,-0.59283 0.49578,-1.10398 0.87304,-1.53515c0.38805,-0.43115 0.85168,-0.7716 1.39063,-1.01953c0.53895,-0.2587 1.14224,-0.38868 1.81055,-0.38868c0.6144,0 1.18667,0.09221 1.71484,0.27539zM86.34375,156.27148c0.16169,0.09709 0.27032,0.23675 0.32422,0.41993l1.97266,6.58203l1.61523,-6.06446c0.07544,-0.25874 0.20057,-0.47892 0.37305,-0.6621c0.18324,-0.19402 0.4199,-0.29102 0.71094,-0.29102c0.29103,0 0.52284,0.09221 0.69531,0.27539c0.18326,0.18326 0.31323,0.40828 0.38867,0.67773l1.61719,6.06446l1.98828,-6.58203c0.0539,-0.18326 0.15574,-0.32292 0.30664,-0.41993c0.15092,-0.10784 0.31872,-0.1621 0.50195,-0.1621c0.07546,0 0.1608,0.01657 0.25781,0.04882c0.09703,0.02142 0.18917,0.06415 0.27539,0.12891c0.09701,0.06476 0.17267,0.15192 0.22656,0.25977c0.06468,0.10771 0.09766,0.24253 0.09766,0.40429c0,0.10784 -0.0165,0.20005 -0.04883,0.27539l-2.37695,7.30664c-0.08623,0.28037 -0.23754,0.50734 -0.45312,0.67969c-0.2048,0.1726 -0.4531,0.25977 -0.74414,0.25977c-0.29104,0 -0.53934,-0.08717 -0.74414,-0.25977c-0.19403,-0.17245 -0.3337,-0.39942 -0.41992,-0.67969l-1.56836,-5.70703l-1.56836,5.70703c-0.08623,0.28037 -0.23075,0.50734 -0.43555,0.67969c-0.19402,0.1726 -0.43264,0.25977 -0.71289,0.25977c-0.30182,0 -0.55497,-0.08717 -0.75977,-0.25977c-0.20481,-0.17245 -0.34932,-0.39942 -0.43555,-0.67969l-2.37695,-7.30664c-0.03233,-0.07534 -0.04883,-0.16755 -0.04883,-0.27539c0,-0.06475 0.01153,-0.14039 0.0332,-0.22656c0.02157,-0.09701 0.05938,-0.18922 0.11328,-0.27539c0.06468,-0.09701 0.15002,-0.17743 0.25781,-0.24219c0.1078,-0.06475 0.25427,-0.09765 0.4375,-0.09765c0.18325,0 0.3491,0.05426 0.5,0.1621zM99.98242,156.36914c0.16169,0.16171 0.24219,0.36055 0.24219,0.59766v7.64843c0,0.23726 -0.0805,0.44094 -0.24219,0.61329c-0.1617,0.16176 -0.36053,0.24414 -0.59766,0.24414c-0.23713,0 -0.44276,-0.08238 -0.61523,-0.24414c-0.16169,-0.1725 -0.24219,-0.37618 -0.24219,-0.61329v-7.64843c0,-0.23706 0.0805,-0.4359 0.24219,-0.59766c0.17248,-0.17235 0.37811,-0.25976 0.61523,-0.25976c0.23713,0 0.43597,0.08741 0.59766,0.25976zM136.90234,156.27148c0.16169,0.09709 0.27033,0.23675 0.32422,0.41993l1.97266,6.58203l1.61523,-6.06446c0.07544,-0.25874 0.20058,-0.47892 0.37305,-0.6621c0.18324,-0.19402 0.4199,-0.29102 0.71094,-0.29102c0.29103,0 0.52284,0.09221 0.69531,0.27539c0.18326,0.18326 0.31323,0.40828 0.38867,0.67773l1.61719,6.06446l1.98828,-6.58203c0.0539,-0.18326 0.15574,-0.32292 0.30664,-0.41993c0.1509,-0.10784 0.3187,-0.1621 0.50195,-0.1621c0.07547,0 0.16081,0.01657 0.25782,0.04882c0.097,0.02142 0.18916,0.06415 0.27539,0.12891c0.09701,0.06476 0.17266,0.15192 0.22656,0.25977c0.06468,0.10771 0.0957,0.24253 0.0957,0.40429c0,0.10784 -0.01454,0.20005 -0.04687,0.27539l-2.37696,7.30664c-0.08623,0.28037 -0.23754,0.50734 -0.45312,0.67969c-0.2048,0.1726 -0.4531,0.25977 -0.74414,0.25977c-0.29104,0 -0.53934,-0.08717 -0.74414,-0.25977c-0.19403,-0.17245 -0.3337,-0.39942 -0.41992,-0.67969l-1.56836,-5.70703l-1.56836,5.70703c-0.08624,0.28037 -0.2327,0.50734 -0.4375,0.67969c-0.19403,0.1726 -0.43068,0.25977 -0.71094,0.25977c-0.30182,0 -0.55496,-0.08717 -0.75976,-0.25977c-0.20482,-0.17245 -0.34933,-0.39942 -0.43555,-0.67969l-2.37695,-7.30664c-0.03233,-0.07534 -0.04883,-0.16755 -0.04883,-0.27539c0,-0.06475 0.01153,-0.14039 0.0332,-0.22656c0.02157,-0.09701 0.05743,-0.18922 0.11133,-0.27539c0.06468,-0.09701 0.15197,-0.17743 0.25976,-0.24219c0.10781,-0.06475 0.25232,-0.09765 0.43555,-0.09765c0.18325,0 0.35105,0.05426 0.50195,0.1621zM150.54102,156.36914c0.16168,0.16171 0.24218,0.36055 0.24218,0.59766v7.64843c0,0.23726 -0.0805,0.44094 -0.24218,0.61329c-0.16168,0.16176 -0.36051,0.24414 -0.59766,0.24414c-0.23713,0 -0.44276,-0.08238 -0.61524,-0.24414c-0.16168,-0.1725 -0.24218,-0.37618 -0.24218,-0.61329v-7.64843c0,-0.23706 0.0805,-0.4359 0.24218,-0.59766c0.17248,-0.17235 0.37811,-0.25976 0.61524,-0.25976c0.23714,0 0.43597,0.08741 0.59766,0.25976zM78.90039,157.59766c-0.33416,0.12936 -0.62513,0.33497 -0.87305,0.61523c-0.23715,0.26946 -0.42629,0.61961 -0.56641,1.05078c-0.14012,0.43117 -0.21094,0.9423 -0.21094,1.53516c0,0.59283 0.07082,1.10399 0.21094,1.53515c0.14014,0.42039 0.32928,0.77247 0.56641,1.05274c0.24792,0.2695 0.5389,0.47319 0.87305,0.61328c0.34493,0.12926 0.71641,0.19336 1.11523,0.19336c0.39883,0 0.76546,-0.0641 1.09961,-0.19336c0.34494,-0.14012 0.63592,-0.3438 0.87305,-0.61328c0.24793,-0.28027 0.44191,-0.63235 0.58203,-1.05274c0.14012,-0.43116 0.21094,-0.94232 0.21094,-1.53515c0,-0.59286 -0.07082,-1.10399 -0.21094,-1.53516c-0.14013,-0.43117 -0.33412,-0.78132 -0.58203,-1.05078c-0.23714,-0.28036 -0.52812,-0.48597 -0.87305,-0.61523c-0.33415,-0.1401 -0.70078,-0.21094 -1.09961,-0.21094c-0.39882,0 -0.7703,0.07084 -1.11523,0.21094zM104.58398,157.56445c-0.28026,0.11863 -0.51692,0.26995 -0.71093,0.45313c-0.18324,0.17237 -0.32776,0.36634 -0.43555,0.58203c-0.10779,0.21563 -0.19024,0.41447 -0.24414,0.59766c-0.05385,0.18328 -0.08487,0.34623 -0.0957,0.48632c-0.01084,0.12826 -0.01758,0.20389 -0.01758,0.22657h5.24023c0,-0.33416 -0.05431,-0.65327 -0.16211,-0.95508c-0.10778,-0.30191 -0.27558,-0.56475 -0.50195,-0.79102c-0.21558,-0.23718 -0.49491,-0.42631 -0.83984,-0.5664c-0.34493,-0.1401 -0.7494,-0.21094 -1.21289,-0.21094c-0.39883,0 -0.73928,0.05906 -1.01954,0.17773zM129.43945,157.59766c-0.33415,0.12936 -0.62513,0.33497 -0.87304,0.61523c-0.23715,0.26946 -0.42629,0.61961 -0.56641,1.05078c-0.14012,0.43117 -0.20898,0.9423 -0.20898,1.53516c0,0.59283 0.06886,1.10399 0.20898,1.53515c0.14014,0.42039 0.32928,0.77247 0.56641,1.05274c0.24792,0.2695 0.53889,0.47319 0.87304,0.61328c0.34493,0.12926 0.71641,0.19336 1.11524,0.19336c0.39882,0 0.76546,-0.0641 1.09961,-0.19336c0.34491,-0.14012 0.63589,-0.3438 0.87304,-0.61328c0.24793,-0.28027 0.44192,-0.63235 0.58204,-1.05274c0.14011,-0.43116 0.21093,-0.94232 0.21093,-1.53515c0,-0.59286 -0.07082,-1.10399 -0.21093,-1.53516c-0.14014,-0.43117 -0.33412,-0.78132 -0.58204,-1.05078c-0.23714,-0.28036 -0.52811,-0.48597 -0.87304,-0.61523c-0.33415,-0.1401 -0.70079,-0.21094 -1.09961,-0.21094c-0.39883,0 -0.77031,0.07084 -1.11524,0.21094zM155.14258,157.56445c-0.28026,0.11863 -0.51692,0.26995 -0.71094,0.45313c-0.18324,0.17237 -0.32971,0.36634 -0.4375,0.58203c-0.10779,0.21563 -0.18829,0.41447 -0.24219,0.59766c-0.05384,0.18328 -0.08487,0.34623 -0.0957,0.48632c-0.01083,0.12826 -0.01758,0.20389 -0.01758,0.22657h5.23828c0,-0.33416 -0.05236,-0.65327 -0.16015,-0.95508c-0.10779,-0.30191 -0.27559,-0.56475 -0.50196,-0.79102c-0.21558,-0.23718 -0.49491,-0.42631 -0.83984,-0.5664c-0.34493,-0.1401 -0.74939,-0.21094 -1.21289,-0.21094c-0.39883,0 -0.73927,0.05906 -1.01953,0.17773zM163.56641,163.48242c0.23715,0.22637 0.35742,0.50084 0.35742,0.82422c0,0.31262 -0.12027,0.58907 -0.35742,0.82617c-0.22636,0.22627 -0.50085,0.33789 -0.82422,0.33789c-0.31261,0 -0.58709,-0.11162 -0.82422,-0.33789c-0.22637,-0.23713 -0.33985,-0.51358 -0.33985,-0.82617c0,-0.32348 0.11348,-0.59795 0.33985,-0.82422c0.23714,-0.2371 0.51163,-0.35547 0.82422,-0.35547c0.32336,0 0.59785,0.11837 0.82422,0.35547zM67.03321,167.38477c0.4635,0 0.90579,0.08042 1.32617,0.24218c0.43116,0.15091 0.80944,0.36622 1.13281,0.64649c0.32338,0.26948 0.58137,0.59345 0.77539,0.9707c0.19402,0.37727 0.29102,0.78172 0.29102,1.21289c0,0.45271 -0.064,0.83585 -0.19336,1.14844c-0.11858,0.31254 -0.27473,0.57054 -0.46875,0.77539c-0.19403,0.2049 -0.41615,0.37074 -0.66406,0.5c-0.24793,0.11868 -0.49623,0.22721 -0.74414,0.32422c0.19402,0.06475 0.42583,0.17329 0.69531,0.32422c0.28025,0.14012 0.54989,0.33896 0.80859,0.59765c0.25868,0.2587 0.4808,0.59236 0.66406,1.00196c0.18323,0.39884 0.27344,0.89058 0.27344,1.47265c0,0.52815 -0.10668,1.00633 -0.32227,1.4375c-0.21558,0.43117 -0.50171,0.8046 -0.85742,1.11719c-0.35571,0.31247 -0.76986,0.55396 -1.24414,0.72656c-0.4635,0.17235 -0.95526,0.25977 -1.47266,0.25977l-4.94726,-0.00196c-0.15091,0 -0.30222,-0.02136 -0.45313,-0.06445c-0.1509,-0.05392 -0.29056,-0.12955 -0.41992,-0.22656c-0.11858,-0.10772 -0.21558,-0.24253 -0.29102,-0.4043c-0.07546,-0.16176 -0.11328,-0.35576 -0.11328,-0.58203v-10.21875c0,-0.09701 0.0165,-0.21537 0.04883,-0.35547c0.03235,-0.15098 0.09151,-0.29066 0.17773,-0.41992c0.09701,-0.14009 0.22698,-0.25367 0.38867,-0.33984c0.17246,-0.09701 0.38779,-0.14453 0.64648,-0.14453zM86.72266,167.74023c0.24791,0.23716 0.37109,0.52813 0.37109,0.87305v3.7832h5.27148v-3.7832c0,-0.34497 0.11834,-0.63594 0.35547,-0.87305c0.23714,-0.2371 0.52812,-0.35546 0.87305,-0.35546c0.34494,0 0.63592,0.11836 0.87305,0.35546c0.24791,0.23716 0.37109,0.52813 0.37109,0.87305v10.29883c0,0.34497 -0.12318,0.63594 -0.37109,0.87305c-0.23714,0.2371 -0.52811,0.35742 -0.87305,0.35742c-0.34494,0 -0.63592,-0.12032 -0.87305,-0.35742c-0.23713,-0.23713 -0.35547,-0.52811 -0.35547,-0.87305v-4.38086h-5.27148v4.38086c0,0.34497 -0.12318,0.63594 -0.37109,0.87305c-0.23714,0.2371 -0.52812,0.35742 -0.87305,0.35742c-0.34494,0 -0.63787,-0.12032 -0.875,-0.35742c-0.23713,-0.23713 -0.35547,-0.52811 -0.35547,-0.87305v-10.29883c0,-0.34497 0.11834,-0.63594 0.35547,-0.87305c0.23714,-0.2371 0.53007,-0.35546 0.875,-0.35546c0.34492,0 0.63589,0.11836 0.87305,0.35546zM153.88672,167.72461c0.23713,0.22634 0.35742,0.50084 0.35742,0.82422c0,0.32348 -0.12029,0.59795 -0.35742,0.82422c-0.22636,0.22626 -0.50085,0.33984 -0.82422,0.33984c-0.31258,0 -0.58707,-0.11358 -0.82422,-0.33984c-0.22637,-0.22637 -0.33984,-0.50085 -0.33984,-0.82422c0,-0.32345 0.11347,-0.59795 0.33984,-0.82422c0.23714,-0.22627 0.51163,-0.33984 0.82422,-0.33984c0.32336,0 0.59785,0.11357 0.82422,0.33984zM63.28321,172.47852h3.31445c0.20479,0 0.39877,-0.03795 0.58203,-0.11329c0.18323,-0.07559 0.33939,-0.17933 0.46875,-0.30859c0.14012,-0.14017 0.24875,-0.30119 0.32422,-0.48437c0.07546,-0.18321 0.11133,-0.37719 0.11133,-0.58204c0,-0.20487 -0.03586,-0.39885 -0.11133,-0.58203c-0.07546,-0.18333 -0.1841,-0.33949 -0.32422,-0.46875c-0.12936,-0.14009 -0.28552,-0.24888 -0.46875,-0.32422c-0.18325,-0.07559 -0.37723,-0.11328 -0.58203,-0.11328h-3.31445zM78.99805,171.10352c0.2587,0.21555 0.38867,0.50655 0.38867,0.87304c0,0.10785 -0.0165,0.20964 -0.04883,0.30664l-2.97461,9.28125c-0.1509,0.45274 -0.34004,0.80771 -0.56641,1.06641c-0.21558,0.25872 -0.45224,0.45951 -0.71094,0.59961c-0.2587,0.14035 -0.53319,0.22556 -0.82422,0.25781c-0.28026,0.04309 -0.5499,0.06445 -0.80859,0.06445h-0.8418c-0.2048,0 -0.38714,-0.03769 -0.54883,-0.11328c-0.1509,-0.07534 -0.28572,-0.17234 -0.4043,-0.29101c-0.10779,-0.11855 -0.19313,-0.25337 -0.25781,-0.4043c-0.0539,-0.14009 -0.08203,-0.28462 -0.08203,-0.43555c0,-0.21556 0.06402,-0.39985 0.19336,-0.55078c0.14013,-0.15093 0.3574,-0.22656 0.64844,-0.22656c0.28026,0 0.5431,-0.00555 0.79102,-0.01563c0.2587,-0.01083 0.48567,-0.04852 0.67969,-0.11328c0.19402,-0.06475 0.34533,-0.16654 0.45312,-0.30664c0.11858,-0.12933 0.17773,-0.31847 0.17773,-0.5664c0,-0.15096 -0.02134,-0.31878 -0.06445,-0.50196c-0.04311,-0.18323 -0.11393,-0.39854 -0.21094,-0.64648l-2.69922,-6.85547c-0.06468,-0.16174 -0.09766,-0.3344 -0.09766,-0.51758c0,-0.12938 0.02134,-0.2642 0.06445,-0.40429c0.04314,-0.14002 0.10714,-0.26805 0.19336,-0.38672c0.09701,-0.11868 0.22214,-0.21568 0.37305,-0.29102c0.16168,-0.08617 0.35566,-0.1289 0.58203,-0.1289c0.23714,-0.00001 0.45731,0.06409 0.66211,0.19335c0.20479,0.11861 0.34446,0.29611 0.41992,0.53321l1.99023,6.14453l1.55078,-6.12891c0.06468,-0.24801 0.1995,-0.43519 0.4043,-0.56445c0.21559,-0.12926 0.4474,-0.19531 0.69531,-0.19531c0.32337,0 0.61435,0.10853 0.87305,0.32422zM102.43164,171.13672c0.57129,0.22637 1.06595,0.54836 1.48633,0.96875c0.4204,0.42038 0.7492,0.9267 0.98633,1.51953c0.24791,0.58207 0.37304,1.22997 0.37304,1.94141c0,0.7114 -0.12513,1.36417 -0.37304,1.95703c-0.23714,0.58207 -0.56595,1.08157 -0.98633,1.50195c-0.42038,0.42041 -0.91504,0.74923 -1.48633,0.98633c-0.57129,0.22627 -1.18623,0.33984 -1.84375,0.33984c-0.64674,0 -1.25488,-0.11357 -1.82617,-0.33984c-0.57129,-0.23713 -1.0679,-0.56595 -1.48828,-0.98633c-0.42039,-0.42038 -0.75404,-0.91988 -1.00195,-1.50195c-0.23713,-0.59286 -0.35547,-1.24563 -0.35547,-1.95703c0,-0.71144 0.11834,-1.35934 0.35547,-1.94141c0.24792,-0.59283 0.58157,-1.09915 1.00195,-1.51953c0.42038,-0.42049 0.91699,-0.74248 1.48828,-0.96875c0.57129,-0.2371 1.17943,-0.35742 1.82617,-0.35742c0.65752,0 1.27246,0.12032 1.84375,0.35742zM108.23828,171.13672c0.22637,0.22637 0.33984,0.49405 0.33984,0.80664c0.09701,-0.10784 0.22019,-0.22621 0.3711,-0.35547c0.1509,-0.14002 0.3352,-0.26804 0.55078,-0.38672c0.21558,-0.11868 0.46193,-0.21568 0.74219,-0.29101c0.29103,-0.08618 0.61499,-0.13086 0.9707,-0.13086c0.42038,0 0.77053,0.04468 1.05078,0.13086c0.29104,0.08617 0.53934,0.19779 0.74414,0.33789c0.20481,0.12921 0.37746,0.28052 0.51758,0.45312c0.14012,0.16156 0.2701,0.32936 0.38867,0.50195c0.09701,-0.15082 0.22019,-0.30698 0.3711,-0.46874c0.15091,-0.1725 0.3449,-0.32866 0.58203,-0.46876c0.24792,-0.14009 0.54374,-0.25367 0.88867,-0.33984c0.34493,-0.09701 0.76588,-0.14648 1.26172,-0.14648c0.24792,0 0.5292,0.04468 0.8418,0.13086c0.32337,0.07551 0.61919,0.20353 0.88867,0.38672c0.28024,0.18325 0.51205,0.4267 0.69531,0.72851c0.19402,0.29102 0.29102,0.65086 0.29102,1.08203v5.86914c0,0.31265 -0.11835,0.58907 -0.35547,0.82617c-0.22636,0.22627 -0.5028,0.33789 -0.82618,0.33789c-0.32336,0 -0.59785,-0.11162 -0.82421,-0.33789c-0.22637,-0.23715 -0.33985,-0.51358 -0.33985,-0.82617v-4.63867c0,-0.45271 -0.15616,-0.83584 -0.46875,-1.14844c-0.31259,-0.31259 -0.69376,-0.46875 -1.14648,-0.46875c-0.45272,0 -0.83585,0.15616 -1.14844,0.46875c-0.31259,0.3126 -0.46875,0.69573 -0.46875,1.14844v4.63867c0,0.31265 -0.11834,0.58907 -0.35547,0.82617c-0.22636,0.22627 -0.496,0.33789 -0.80859,0.33789c-0.32338,0 -0.60467,-0.11162 -0.8418,-0.33789c-0.22637,-0.23715 -0.33984,-0.51358 -0.33984,-0.82617v-4.63867c0,-0.45271 -0.15616,-0.83584 -0.46875,-1.14844c-0.3126,-0.31259 -0.69377,-0.46875 -1.14649,-0.46875c-0.45272,0 -0.83584,0.15616 -1.14843,0.46875c-0.3126,0.3126 -0.46876,0.69573 -0.46876,1.14844v4.63867c0,0.31265 -0.11347,0.58907 -0.33984,0.82617c-0.22636,0.22627 -0.50085,0.33789 -0.82422,0.33789c-0.32336,0 -0.60464,-0.11162 -0.84179,-0.33789c-0.22637,-0.23715 -0.33985,-0.51358 -0.33985,-0.82617v-7.0332c0,-0.31269 0.11348,-0.58037 0.33985,-0.80664c0.23714,-0.2371 0.51842,-0.35742 0.84179,-0.35742c0.32337,0 0.59785,0.12032 0.82422,0.35742zM122.98633,171.13672c0.22637,0.22637 0.33789,0.49405 0.33789,0.80664c0.09701,-0.10784 0.22214,-0.22621 0.37305,-0.35547c0.1509,-0.14002 0.33324,-0.26804 0.54882,-0.38672c0.21559,-0.11868 0.46389,-0.21568 0.74414,-0.29101c0.29104,-0.08618 0.615,-0.13086 0.97071,-0.13086c0.42038,0 0.77052,0.04468 1.05078,0.13086c0.29103,0.08617 0.53934,0.19779 0.74414,0.33789c0.20481,0.12921 0.37746,0.28052 0.51758,0.45312c0.14012,0.16156 0.26814,0.32936 0.38672,0.50195c0.097,-0.15082 0.22214,-0.30698 0.37304,-0.46874c0.15092,-0.1725 0.34491,-0.32866 0.58203,-0.46876c0.24792,-0.14009 0.54375,-0.25367 0.88868,-0.33984c0.34493,-0.09701 0.76588,-0.14648 1.26171,-0.14648c0.24792,0 0.52726,0.04468 0.83985,0.13086c0.32337,0.07551 0.62115,0.20353 0.89062,0.38672c0.28025,0.18325 0.51206,0.4267 0.69532,0.72851c0.19401,0.29102 0.29101,0.65086 0.29101,1.08203v5.86914c0,0.31265 -0.12029,0.58907 -0.35742,0.82617c-0.22636,0.22627 -0.50085,0.33789 -0.82422,0.33789c-0.32336,0 -0.59785,-0.11162 -0.82422,-0.33789c-0.22637,-0.23715 -0.33984,-0.51358 -0.33984,-0.82617v-4.63867c0,-0.45271 -0.15616,-0.83584 -0.46875,-1.14844c-0.3126,-0.31259 -0.69572,-0.46875 -1.14844,-0.46875c-0.45272,0 -0.83389,0.15616 -1.14648,0.46875c-0.3126,0.3126 -0.46875,0.69573 -0.46875,1.14844v4.63867c0,0.31265 -0.1203,0.58907 -0.35742,0.82617c-0.22636,0.22627 -0.496,0.33789 -0.8086,0.33789c-0.32336,0 -0.60269,-0.11162 -0.83984,-0.33789c-0.22637,-0.23715 -0.33985,-0.51358 -0.33985,-0.82617v-4.63867c0,-0.45271 -0.15615,-0.83584 -0.46875,-1.14844c-0.31259,-0.31259 -0.69571,-0.46875 -1.14843,-0.46875c-0.45273,0 -0.8339,0.15616 -1.14649,0.46875c-0.31259,0.3126 -0.4707,0.69573 -0.4707,1.14844v4.63867c0,0.31265 -0.11152,0.58907 -0.33789,0.82617c-0.22636,0.22627 -0.5028,0.33789 -0.82617,0.33789c-0.32336,0 -0.60269,-0.11162 -0.83985,-0.33789c-0.22637,-0.23715 -0.33984,-0.51358 -0.33984,-0.82617v-7.0332c0,-0.31269 0.11347,-0.58037 0.33984,-0.80664c0.23714,-0.2371 0.51647,-0.35742 0.83985,-0.35742c0.32336,0 0.5998,0.12032 0.82617,0.35742zM141.30664,170.92578c0.4635,0.09696 0.86116,0.24632 1.19531,0.45117c0.34495,0.2048 0.60974,0.46475 0.79297,0.77735c0.19402,0.3018 0.29102,0.66844 0.29102,1.09961v5.77148c0,0.31249 -0.10668,0.57728 -0.32227,0.79297c-0.21558,0.21568 -0.48037,0.32226 -0.79297,0.32226c-0.29103,0 -0.54418,-0.09025 -0.75976,-0.27343c-0.2048,-0.19402 -0.32314,-0.43747 -0.35547,-0.72852c-0.4096,0.38808 -0.8422,0.65288 -1.29492,0.79297c-0.45272,0.1401 -0.96387,0.20898 -1.53516,0.20898c-0.36649,0 -0.73797,-0.05231 -1.11523,-0.16015c-0.36649,-0.10769 -0.70014,-0.27064 -1.00196,-0.48633c-0.29104,-0.22637 -0.52966,-0.50084 -0.71289,-0.82422c-0.18323,-0.32337 -0.27343,-0.70167 -0.27343,-1.13281c-0.00001,-0.66832 0.14451,-1.19111 0.43554,-1.56836c0.30181,-0.37727 0.67329,-0.66145 1.11524,-0.85547c0.44194,-0.19409 0.91721,-0.3357 1.42382,-0.42187c0.5174,-0.08618 0.99752,-0.17164 1.43946,-0.25782c0.44194,-0.08617 0.80662,-0.20454 1.09765,-0.35547c0.30182,-0.16168 0.45313,-0.41482 0.45313,-0.75976c0,-0.16156 -0.04752,-0.30125 -0.14453,-0.41992c-0.08623,-0.12951 -0.21136,-0.23326 -0.37305,-0.3086c-0.16168,-0.08617 -0.34887,-0.15027 -0.56445,-0.19336c-0.21557,-0.04308 -0.44254,-0.06445 -0.67969,-0.06445c-0.31258,0 -0.55604,0.04273 -0.72852,0.12891c-0.17246,0.08642 -0.31213,0.19496 -0.41992,0.32422c-0.09701,0.12928 -0.1775,0.27378 -0.24218,0.43554c-0.06469,0.15098 -0.14518,0.29262 -0.24219,0.42188c-0.08625,0.12951 -0.20457,0.23609 -0.35547,0.32226c-0.15091,0.08618 -0.36623,0.12891 -0.64649,0.12891c-0.2587,0 -0.48567,-0.0641 -0.67968,-0.19336c-0.18323,-0.14012 -0.27539,-0.38841 -0.27539,-0.74414c0,-0.34492 0.08729,-0.66405 0.25976,-0.95508c0.17247,-0.291 0.41882,-0.53734 0.74219,-0.74219c0.32337,-0.21548 0.71814,-0.38327 1.18164,-0.50195c0.4635,-0.11842 0.98629,-0.17773 1.56836,-0.17773c0.54973,0 1.05603,0.04947 1.51953,0.14648zM146.85938,171.13672c0.22636,0.22637 0.33984,0.49405 0.33984,0.80664c0.09701,-0.10784 0.21535,-0.231 0.35547,-0.37109c0.1509,-0.1401 0.3119,-0.26326 0.48437,-0.3711c0.18325,-0.11868 0.37239,-0.21568 0.56641,-0.29101c0.19403,-0.08618 0.38801,-0.13086 0.58203,-0.13086c0.43117,0 0.72214,0.11357 0.87305,0.33984c0.16169,0.22637 0.24218,0.49116 0.24218,0.79297c0,0.24801 -0.05915,0.43715 -0.17773,0.56641c-0.10778,0.11842 -0.24745,0.20868 -0.41992,0.27343c-0.1617,0.06476 -0.33919,0.11903 -0.5332,0.16211c-0.19402,0.03225 -0.37831,0.08173 -0.55079,0.14649c-0.3126,0.11857 -0.56575,0.27473 -0.75976,0.46875c-0.18325,0.18313 -0.32292,0.38197 -0.41992,0.59765c-0.09704,0.2047 -0.16104,0.41518 -0.19336,0.63086c-0.03233,0.21564 -0.04883,0.41448 -0.04883,0.59766v3.62305c0,0.32347 -0.11834,0.59795 -0.35547,0.82421c-0.22636,0.22627 -0.50085,0.33985 -0.82422,0.33985c-0.3126,0 -0.58904,-0.11358 -0.82617,-0.33985c-0.22637,-0.23715 -0.33789,-0.51162 -0.33789,-0.82421v-7.03516c0,-0.31269 0.11152,-0.58037 0.33789,-0.80664c0.23714,-0.2371 0.51842,-0.35742 0.8418,-0.35742c0.32336,0 0.59785,0.12032 0.82422,0.35742zM157.50195,171.13672c0.22637,0.22637 0.33985,0.49405 0.33985,0.80664v4.56055c0,0.23707 0.04268,0.45726 0.1289,0.66211c0.09701,0.20472 0.22019,0.38901 0.3711,0.55078c0.15091,0.15093 0.33035,0.26929 0.53515,0.35547c0.21557,0.08617 0.43574,0.1289 0.66211,0.1289c0.23715,0 0.45731,-0.04273 0.66211,-0.1289c0.20481,-0.08618 0.38425,-0.20454 0.53516,-0.35547c0.1509,-0.16164 0.26924,-0.34593 0.35547,-0.55078c0.097,-0.20483 0.14453,-0.42501 0.14453,-0.66211v-4.56055c0,-0.31269 0.11347,-0.58037 0.33984,-0.80664c0.23714,-0.2371 0.51843,-0.35742 0.8418,-0.35742c0.32336,0 0.59785,0.12032 0.82422,0.35742c0.22637,0.22637 0.33984,0.49405 0.33984,0.80664v7.03516c0,0.31264 -0.11347,0.58711 -0.33984,0.82421c-0.22636,0.22627 -0.50085,0.33789 -0.82422,0.33789c-0.32337,0 -0.5998,-0.11162 -0.82617,-0.33789c-0.22637,-0.23715 -0.33985,-0.51162 -0.33985,-0.82421c-0.09701,0.1186 -0.22503,0.24662 -0.38672,0.38671c-0.16167,0.12926 -0.35566,0.25437 -0.58203,0.37305c-0.22636,0.10784 -0.4863,0.20484 -0.77734,0.29102c-0.29103,0.07534 -0.61984,0.11132 -0.98633,0.11132c-0.4096,0 -0.79757,-0.06409 -1.16406,-0.19335c-0.36649,-0.14012 -0.6885,-0.3341 -0.96875,-0.58204c-0.26948,-0.25869 -0.4848,-0.55937 -0.64649,-0.90429c-0.16168,-0.35571 -0.24414,-0.75047 -0.24414,-1.18164v-5.33594c0,-0.31269 0.11348,-0.58037 0.33985,-0.80664c0.23714,-0.2371 0.51842,-0.35742 0.84179,-0.35742c0.32337,0 0.59785,0.12032 0.82422,0.35742zM153.88672,171.3457c0.23713,0.22635 0.35742,0.50085 0.35742,0.82422v9.03906c0,0.28024 -0.03298,0.55958 -0.09766,0.83985c-0.06468,0.28016 -0.18299,0.52845 -0.35546,0.74414c-0.17247,0.22639 -0.41593,0.41069 -0.72852,0.55078c-0.30181,0.14009 -0.68978,0.20898 -1.16406,0.20898c-0.82999,0 -1.44977,-0.07563 -1.85938,-0.22656c-0.4096,-0.14012 -0.61328,-0.41946 -0.61328,-0.83984c0,-0.39877 0.11152,-0.68003 0.33789,-0.8418c0.21558,-0.15093 0.52985,-0.22461 0.93945,-0.22461c0.17248,0 0.32864,-0.01052 0.46876,-0.0332c0.1509,-0.01084 0.27892,-0.05836 0.38671,-0.14453c0.1078,-0.0861 0.19025,-0.21608 0.24414,-0.38867c0.06468,-0.16169 0.09571,-0.39835 0.09571,-0.71094v-7.97266c0,-0.32345 0.11347,-0.59795 0.33984,-0.82422c0.23714,-0.2371 0.51163,-0.35547 0.82422,-0.35547c0.32336,0 0.59785,0.11837 0.82422,0.35547zM99.52149,172.73633c-0.31258,0.16169 -0.58222,0.38866 -0.80859,0.67969c-0.21557,0.28026 -0.38338,0.60905 -0.50195,0.98632c-0.11858,0.36649 -0.17773,0.75447 -0.17773,1.16407c0,0.4096 0.05916,0.80241 0.17773,1.17968c0.11857,0.37725 0.28637,0.70607 0.50195,0.98633c0.22636,0.28037 0.496,0.50734 0.80859,0.67969c0.31259,0.16176 0.66758,0.24219 1.06641,0.24219c0.39883,0 0.75381,-0.08043 1.06641,-0.24219c0.32337,-0.17245 0.59301,-0.39942 0.80859,-0.67969c0.21557,-0.28026 0.38338,-0.60908 0.50195,-0.98633c0.11858,-0.37727 0.17774,-0.77008 0.17774,-1.17968c0,-0.4096 -0.05916,-0.79758 -0.17774,-1.16407c-0.11856,-0.37727 -0.28637,-0.70606 -0.50195,-0.98632c-0.21558,-0.29095 -0.48522,-0.51793 -0.80859,-0.67969c-0.3126,-0.1726 -0.66758,-0.25781 -1.06641,-0.25781c-0.39883,0 -0.75381,0.08521 -1.06641,0.25781zM63.28321,178.00781h3.37891c0.24792,0 0.47973,-0.04947 0.69531,-0.14648c0.22636,-0.09693 0.42034,-0.22496 0.58203,-0.38672c0.16169,-0.16156 0.29166,-0.35072 0.38867,-0.56641c0.09701,-0.21556 0.14453,-0.44737 0.14453,-0.69531c0,-0.24784 -0.04752,-0.47963 -0.14453,-0.69531c-0.09701,-0.22627 -0.22698,-0.42027 -0.38867,-0.58203c-0.16167,-0.16169 -0.35566,-0.29167 -0.58203,-0.38867c-0.21559,-0.09701 -0.4474,-0.14454 -0.69531,-0.14454h-3.37891zM140.43359,175.87305c-0.37726,0.11867 -0.89036,0.23704 -1.53711,0.35547c-0.78687,0.14014 -1.17968,0.51161 -1.17968,1.11523c0,0.15095 0.02134,0.29741 0.06445,0.4375c0.0539,0.14002 0.14119,0.26999 0.25977,0.38867c0.11857,0.10759 0.27473,0.19306 0.46875,0.25781c0.2048,0.06476 0.4531,0.09766 0.74414,0.09766c0.24792,0 0.49427,-0.02811 0.74218,-0.08203c0.25871,-0.0645 0.48568,-0.14997 0.67969,-0.25781c0.2048,-0.11848 0.3658,-0.25816 0.48438,-0.41993c0.12936,-0.17237 0.19531,-0.36634 0.19531,-0.58203v-1.56836c-0.22636,0.05367 -0.53383,0.13914 -0.92188,0.25782z" fill="#1eff00" stroke="none" stroke-width="1.01053" stroke-miterlimit="10" stroke-dashoffset="0"/></g></g></svg>