<svg version="1.1" xmlns="http://www.w3.org/2000/svg" xmlns:xlink="http://www.w3.org/1999/xlink" width="427.11156" height="27.77145" viewBox="0,0,427.11156,27.77145"><g transform="translate(-25.93651,-44.42581)"><g data-paper-data="{&quot;isPaintingLayer&quot;:true}" fill-rule="nonzero" stroke-linecap="butt" stroke-linejoin="miter" stroke-dasharray="" style="mix-blend-mode: normal"><g id="g1631"><path d="M26.8796,45.17604h425.22538c0.10684,0 0.19285,0.08601 0.19285,0.19286v25.88527c0,0.10684 -0.086,0.19286 -0.19285,0.19286h-425.22538c-0.10684,0 -0.19286,-0.08601 -0.19286,-0.19286v-25.88527c0,-0.10684 0.08601,-0.19286 0.19286,-0.19286z" id="rect913-8" fill="#272727" stroke="#1eff00" stroke-width="1.50047" stroke-miterlimit="4" stroke-dashoffset="17.35"/><path d="M208.65831,50.19884c0.64,0 1.22643,0.08023 1.75976,0.24023c0.544,0.16 1.00858,0.37396 1.39258,0.64063c0.39467,0.26667 0.69878,0.56582 0.91211,0.89648c0.21333,0.33067 0.32031,0.66152 0.32031,0.99219c0,0.27733 -0.09706,0.50121 -0.28906,0.67188c-0.18133,0.16 -0.38342,0.24023 -0.60742,0.24023c-0.16,0 -0.3086,-0.04358 -0.44727,-0.12891c-0.13867,-0.096 -0.25064,-0.2446 -0.33594,-0.44727c-0.128,-0.32 -0.30033,-0.57753 -0.51367,-0.76953c-0.20266,-0.20267 -0.4315,-0.35622 -0.6875,-0.46289c-0.24533,-0.11733 -0.50587,-0.19261 -0.7832,-0.22461c-0.27733,-0.04266 -0.54478,-0.06445 -0.80078,-0.06445c-0.384,0 -0.7416,0.04358 -1.07227,0.12891c-0.32,0.07467 -0.60232,0.1866 -0.84765,0.33594c-0.23467,0.13867 -0.42188,0.31401 -0.56055,0.52734c-0.12801,0.20267 -0.19141,0.43841 -0.19141,0.70508c0,0.36267 0.10698,0.65986 0.32032,0.89453c0.22399,0.23467 0.51819,0.43375 0.88085,0.59375c0.36267,0.16 0.77181,0.29868 1.23047,0.41602c0.45867,0.11733 0.92821,0.23919 1.40821,0.36719c0.49066,0.128 0.96516,0.28351 1.42382,0.46484c0.45867,0.17067 0.86976,0.39454 1.23243,0.67188c0.36266,0.27733 0.64994,0.6181 0.86328,1.02344c0.224,0.40533 0.33789,0.90161 0.33789,1.48828c0,0.65067 -0.12877,1.21531 -0.38477,1.69531c-0.24533,0.48 -0.5861,0.88117 -1.02344,1.20117c-0.43733,0.32 -0.95044,0.55875 -1.5371,0.71875c-0.58667,0.16 -1.20976,0.24023 -1.8711,0.24023c-0.94933,0 -1.75964,-0.13372 -2.43164,-0.40039c-0.66133,-0.27733 -1.20119,-0.60819 -1.61719,-0.99219c-0.416,-0.39467 -0.72011,-0.8038 -0.91211,-1.23047c-0.192,-0.43733 -0.2871,-0.81672 -0.2871,-1.13672c0,-0.384 0.0951,-0.65641 0.2871,-0.81641c0.20267,-0.16 0.41167,-0.24023 0.625,-0.24023c0.18134,0 0.34676,0.05845 0.4961,0.17578c0.14933,0.10667 0.23948,0.28396 0.27148,0.5293c0.064,0.40533 0.20268,0.76293 0.41602,1.07227c0.224,0.30933 0.4964,0.56987 0.8164,0.7832c0.32,0.20267 0.6776,0.35818 1.07227,0.46484c0.39467,0.10666 0.79884,0.1582 1.21484,0.1582c0.33067,0 0.67144,-0.03666 1.02344,-0.11133c0.36267,-0.08533 0.68856,-0.20719 0.97656,-0.36719c0.29867,-0.17067 0.53937,-0.38958 0.72071,-0.65625c0.19201,-0.26667 0.28711,-0.5876 0.28711,-0.96094c0,-0.40533 -0.11194,-0.74115 -0.33594,-1.00781c-0.21333,-0.26667 -0.50062,-0.49054 -0.86328,-0.67187c-0.352,-0.18133 -0.75813,-0.32993 -1.2168,-0.44727c-0.45867,-0.128 -0.9282,-0.25677 -1.4082,-0.38477c-0.48,-0.128 -0.94954,-0.27164 -1.40821,-0.43164c-0.45866,-0.17067 -0.8678,-0.38462 -1.23046,-0.64062c-0.352,-0.26667 -0.64124,-0.58565 -0.86524,-0.95898c-0.21333,-0.384 -0.32031,-0.85849 -0.32031,-1.42383c0,-0.53333 0.11194,-1.00783 0.33594,-1.42383c0.23466,-0.416 0.5556,-0.76864 0.96093,-1.05664c0.40534,-0.288 0.88479,-0.50692 1.43946,-0.65625c0.55466,-0.14933 1.16288,-0.22461 1.82422,-0.22461zM239.46885,50.66369c0.16004,0.16 0.24024,0.35713 0.24024,0.5918v10.94336c0,0.23467 -0.08024,0.43871 -0.24024,0.60938c-0.16,0.16 -0.35713,0.24023 -0.59179,0.24023c-0.23467,0 -0.43676,-0.08023 -0.60743,-0.24023c-0.16003,-0.17067 -0.24023,-0.37471 -0.24023,-0.60937v-10.94336c0,-0.23467 0.08023,-0.4318 0.24023,-0.5918c0.17067,-0.16 0.37276,-0.24023 0.60743,-0.24023c0.23466,0 0.43179,0.08023 0.59179,0.24023zM242.6251,50.66369c0.16004,0.16 0.24024,0.35713 0.24024,0.5918v10.94336c0,0.23467 -0.08024,0.43871 -0.24024,0.60938c-0.16,0.16 -0.35713,0.24023 -0.59179,0.24023c-0.23467,0 -0.43676,-0.08023 -0.60743,-0.24023c-0.16003,-0.17067 -0.24023,-0.37471 -0.24023,-0.60937v-10.94336c0,-0.23467 0.08023,-0.4318 0.24023,-0.5918c0.17067,-0.16 0.37276,-0.24023 0.60743,-0.24023c0.23466,0 0.43179,0.08023 0.59179,0.24023zM264.58409,51.40002c0.17066,0.16 0.25586,0.35713 0.25586,0.5918v2h0.88086c0.20266,0 0.37305,0.07528 0.51171,0.22461c0.14931,0.13867 0.22461,0.30905 0.22461,0.51172c0,0.21333 -0.07527,0.38868 -0.22461,0.52734c-0.13866,0.13866 -0.30905,0.20898 -0.51171,0.20898h-0.88086v6.73438c0,0.23467 -0.0852,0.43871 -0.25586,0.60938c-0.16,0.16 -0.35713,0.24023 -0.5918,0.24023c-0.23467,0 -0.4318,-0.08023 -0.5918,-0.24023c-0.16003,-0.17067 -0.24023,-0.37471 -0.24023,-0.60937v-6.73437h-0.5918c-0.20266,0 -0.37801,-0.07032 -0.52734,-0.20898c-0.13869,-0.13867 -0.20899,-0.31401 -0.20899,-0.52734c0,-0.20267 0.07032,-0.37305 0.20899,-0.51172c0.14933,-0.14933 0.32468,-0.22461 0.52734,-0.22461h0.5918v-2c0,-0.23467 0.08023,-0.4318 0.24023,-0.5918c0.16,-0.15999 0.35713,-0.24023 0.5918,-0.24023c0.23467,0 0.4318,0.08023 0.5918,0.24023zM220.44346,53.95861c0.46934,0.18133 0.85368,0.40025 1.15235,0.65625c0.30933,0.256 0.53816,0.52345 0.6875,0.80078c0.1493,0.27733 0.2246,0.51113 0.2246,0.70313c0,0.24533 -0.08519,0.43751 -0.25585,0.57617c-0.17067,0.128 -0.36284,0.19336 -0.57618,0.19336c-0.14933,0 -0.28801,-0.03861 -0.41601,-0.11328c-0.128,-0.07467 -0.21819,-0.20148 -0.27149,-0.38281c-0.05333,-0.17067 -0.14543,-0.33609 -0.27343,-0.49609c-0.11734,-0.16 -0.27089,-0.30364 -0.46289,-0.43164c-0.18134,-0.128 -0.40025,-0.23002 -0.65625,-0.30469c-0.24534,-0.07467 -0.51774,-0.11133 -0.81641,-0.11133c-0.33067,0 -0.66152,0.06341 -0.99219,0.19141c-0.32,0.11733 -0.61224,0.30951 -0.8789,0.57617c-0.256,0.26667 -0.465,0.61735 -0.625,1.05469c-0.16004,0.42667 -0.24024,0.94473 -0.24024,1.55273c0,0.608 0.08024,1.12607 0.24024,1.55273c0.16,0.42667 0.369,0.7724 0.625,1.03906c0.26666,0.26667 0.5589,0.4638 0.8789,0.5918c0.33067,0.11733 0.66152,0.17578 0.99219,0.17578c0.29867,0 0.57107,-0.03666 0.81641,-0.11133c0.256,-0.07467 0.47491,-0.17669 0.65625,-0.30469c0.192,-0.128 0.34555,-0.27164 0.46289,-0.43164c0.128,-0.16 0.22013,-0.32543 0.27343,-0.49609c0.05334,-0.18133 0.14349,-0.30814 0.27149,-0.38281c0.128,-0.07466 0.26668,-0.11328 0.41601,-0.11328c0.21334,0 0.40551,0.07032 0.57618,0.20898c0.18138,0.128 0.27148,0.3083 0.27148,0.54297c0,0.11733 -0.05349,0.31446 -0.16016,0.5918c-0.10666,0.26667 -0.29883,0.53907 -0.57617,0.81641c-0.27733,0.27733 -0.66168,0.52299 -1.15234,0.73633c-0.48,0.21333 -1.09814,0.32031 -1.85547,0.32031c-0.62933,0 -1.21577,-0.11194 -1.75977,-0.33594c-0.53333,-0.23467 -0.99791,-0.56056 -1.39257,-0.97656c-0.39467,-0.416 -0.70374,-0.91228 -0.92774,-1.48828c-0.224,-0.58667 -0.33594,-1.23155 -0.33594,-1.93555c0,-0.71467 0.11194,-1.35955 0.33594,-1.93555c0.224,-0.58667 0.53307,-1.08791 0.92774,-1.50391c0.39466,-0.416 0.85924,-0.73694 1.39257,-0.96094c0.544,-0.23467 1.13044,-0.35156 1.75977,-0.35156c0.64,0 1.19473,0.09511 1.66406,0.28711zM234.29307,53.99181c0.544,0.21333 1.01158,0.5224 1.40625,0.92773c0.39467,0.40533 0.70569,0.90161 0.92969,1.48828c0.224,0.58667 0.33594,1.25829 0.33594,2.01563c0,0.75733 -0.11194,1.42896 -0.33594,2.01563c-0.224,0.58667 -0.53502,1.08295 -0.92969,1.48828c-0.39467,0.39467 -0.86225,0.69878 -1.40625,0.91211c-0.53333,0.21333 -1.11481,0.32031 -1.74414,0.32031c-0.62933,0 -1.21772,-0.10698 -1.76172,-0.32031c-0.53333,-0.21333 -0.99596,-0.51744 -1.39062,-0.91211c-0.39467,-0.40533 -0.70374,-0.90161 -0.92774,-1.48828c-0.224,-0.58667 -0.33594,-1.25829 -0.33594,-2.01562c0,-0.75733 0.11194,-1.42896 0.33594,-2.01562c0.224,-0.58667 0.53307,-1.08295 0.92774,-1.48828c0.39466,-0.40533 0.85729,-0.7144 1.39062,-0.92773c0.544,-0.21333 1.13239,-0.32031 1.76172,-0.32031c0.62933,0 1.21081,0.10698 1.74414,0.32031zM257.30864,53.67151c1.088,0 1.95179,0.21892 2.59179,0.65625c0.65067,0.42667 0.97657,1.06163 0.97657,1.9043v5.9668c0,0.23467 -0.08024,0.43871 -0.24024,0.60938c-0.16,0.16 -0.35713,0.24023 -0.5918,0.24023c-0.23466,0 -0.43675,-0.08023 -0.60742,-0.24023c-0.16003,-0.17067 -0.24023,-0.37471 -0.24023,-0.60937v-0.25586c-0.40534,0.43733 -0.86991,0.73153 -1.39258,0.88086c-0.512,0.14933 -1.05681,0.22461 -1.63281,0.22461c-0.36267,0 -0.73018,-0.04853 -1.10352,-0.14453c-0.36266,-0.10667 -0.69352,-0.26714 -0.99219,-0.48047c-0.288,-0.21333 -0.52179,-0.48078 -0.70312,-0.80078c-0.18128,-0.32 -0.27148,-0.70239 -0.27148,-1.15039c-0.00001,-0.512 0.10006,-0.93992 0.30273,-1.28125c0.20267,-0.352 0.47507,-0.63928 0.81641,-0.86328c0.34133,-0.224 0.73063,-0.39439 1.16796,-0.51172c0.448,-0.11733 0.91754,-0.20253 1.40821,-0.25586c0.56533,-0.064 1.00812,-0.13432 1.32812,-0.20898c0.32,-0.08533 0.56071,-0.18044 0.72071,-0.28711c0.16,-0.10667 0.2551,-0.23047 0.2871,-0.36914c0.0427,-0.13867 0.0645,-0.29222 0.0645,-0.46289c0,-0.20267 -0.05845,-0.37996 -0.17578,-0.5293c-0.11734,-0.14933 -0.26789,-0.27119 -0.44922,-0.36719c-0.18134,-0.096 -0.38342,-0.16631 -0.60742,-0.20898c-0.224,-0.05334 -0.44292,-0.07813 -0.65625,-0.07813c-0.384,0 -0.69307,0.0317 -0.92774,0.0957c-0.23466,0.064 -0.42684,0.14919 -0.57617,0.25586c-0.14933,0.10667 -0.27119,0.23348 -0.36719,0.38281c-0.08533,0.14933 -0.16553,0.30484 -0.24023,0.46484c-0.064,0.128 -0.15415,0.22311 -0.27149,0.28711c-0.10666,0.05334 -0.22055,0.08008 -0.33789,0.08008c-0.21333,0 -0.41046,-0.06836 -0.59179,-0.20703c-0.18129,-0.13867 -0.27149,-0.33084 -0.27149,-0.57617c0,-0.096 0.0268,-0.2129 0.0801,-0.35156c0.096,-0.224 0.22477,-0.44292 0.38477,-0.65625c0.16,-0.224 0.372,-0.42113 0.63867,-0.5918c0.27733,-0.17067 0.61314,-0.30439 1.00781,-0.40039c0.40533,-0.10667 0.89666,-0.16016 1.47266,-0.16016zM271.10946,53.67151c0.608,0 1.1746,0.09015 1.69726,0.27148c0.53334,0.18133 0.991,0.44878 1.375,0.80078c0.39467,0.34133 0.70374,0.76234 0.92774,1.26367c0.224,0.50133 0.33593,1.07289 0.33593,1.71289c0,0.39467 -0.0951,0.69187 -0.2871,0.89453c-0.192,0.20267 -0.41588,0.30469 -0.67188,0.30469h-5.85742c0,0.02133 0.0069,0.11148 0.0176,0.27148c0.02132,0.14933 0.05802,0.33159 0.11132,0.54492c0.06401,0.21333 0.1492,0.44217 0.25586,0.6875c0.11734,0.23467 0.27285,0.45358 0.46485,0.65625c0.192,0.20267 0.42579,0.37305 0.70312,0.51172c0.288,0.128 0.63569,0.19141 1.04102,0.19141c0.33067,0 0.61299,-0.02675 0.84765,-0.08008c0.23467,-0.05333 0.44172,-0.13162 0.62305,-0.23828c0.18134,-0.10667 0.34676,-0.24039 0.4961,-0.40039c0.14933,-0.17067 0.29988,-0.3678 0.44921,-0.5918c0.08534,-0.128 0.18045,-0.22011 0.28711,-0.27344c0.10667,-0.05334 0.21861,-0.08008 0.33594,-0.08008c0.192,0 0.36735,0.07032 0.52735,0.20898c0.16003,0.13867 0.24023,0.31401 0.24023,0.52734c0,0.128 -0.06837,0.32017 -0.20703,0.57617c-0.13867,0.256 -0.36254,0.51158 -0.67188,0.76758c-0.29866,0.256 -0.68797,0.47987 -1.16797,0.67188c-0.48,0.192 -1.06643,0.28906 -1.75976,0.28906c-0.704,0 -1.33401,-0.12877 -1.88867,-0.38477c-0.55467,-0.256 -1.02421,-0.59677 -1.40821,-1.02344c-0.37333,-0.43733 -0.66061,-0.94353 -0.86328,-1.51953c-0.19196,-0.576 -0.28906,-1.17926 -0.28906,-1.80859c0,-0.65067 0.10202,-1.26384 0.30469,-1.83984c0.20266,-0.58667 0.48995,-1.09286 0.86328,-1.51953c0.384,-0.42667 0.84362,-0.76248 1.37695,-1.00781c0.53334,-0.256 1.12968,-0.38477 1.79102,-0.38477zM224.32825,53.78283c0.23466,0 0.43179,0.08519 0.59179,0.25586c0.16004,0.16 0.24024,0.35908 0.24024,0.59375v0.30273c0.04267,-0.04267 0.1229,-0.12786 0.24023,-0.25586c0.11734,-0.128 0.26098,-0.25481 0.43164,-0.38281c0.18134,-0.13867 0.37847,-0.25752 0.5918,-0.35352c0.224,-0.10667 0.45779,-0.16016 0.70313,-0.16016c0.23466,0 0.43375,0.08519 0.59375,0.25586c0.17066,0.16 0.25585,0.35908 0.25586,0.59375c0,0.224 -0.0852,0.42113 -0.25586,0.5918c-0.16,0.15999 -0.35909,0.24023 -0.59375,0.24023c-0.40534,0 -0.73424,0.09511 -0.99024,0.28711c-0.256,0.18133 -0.46004,0.40025 -0.60937,0.65625c-0.13867,0.256 -0.23381,0.5215 -0.28711,0.79883c-0.0534,0.27733 -0.0801,0.50812 -0.0801,0.68945v4.30273c0,0.23467 -0.08024,0.43871 -0.24024,0.60938c-0.16,0.16 -0.35713,0.24023 -0.59179,0.24023c-0.23467,0 -0.43676,-0.08023 -0.60742,-0.24023c-0.16004,-0.17067 -0.24024,-0.37471 -0.24024,-0.60937v-7.56641c0,-0.23467 0.08024,-0.43375 0.24024,-0.59375c0.17066,-0.17067 0.37275,-0.25586 0.60742,-0.25586zM249.297,53.78283c0.23466,0 0.43179,0.08519 0.59179,0.25586c0.16004,0.16 0.24024,0.35908 0.24024,0.59375v0.30273c0.04267,-0.04267 0.1229,-0.12786 0.24023,-0.25586c0.11734,-0.128 0.26098,-0.25481 0.43164,-0.38281c0.18134,-0.13867 0.37847,-0.25752 0.5918,-0.35352c0.224,-0.10667 0.45779,-0.16016 0.70313,-0.16016c0.23466,0 0.43375,0.08519 0.59375,0.25586c0.17065,0.16 0.25585,0.35908 0.25585,0.59375c0.00001,0.224 -0.08519,0.42113 -0.25585,0.5918c-0.16,0.15999 -0.35909,0.24023 -0.59375,0.24023c-0.40534,0 -0.73424,0.09511 -0.99024,0.28711c-0.256,0.18133 -0.46004,0.40025 -0.60937,0.65625c-0.13867,0.256 -0.23381,0.5215 -0.28711,0.79883c-0.0534,0.27733 -0.0801,0.50812 -0.0801,0.68945v4.30273c0,0.23467 -0.08024,0.43871 -0.24024,0.60938c-0.16,0.16 -0.35713,0.24023 -0.59179,0.24023c-0.23467,0 -0.43676,-0.08023 -0.60742,-0.24023c-0.16004,-0.17067 -0.24024,-0.37471 -0.24024,-0.60937v-7.56641c0,-0.23467 0.08024,-0.43375 0.24024,-0.59375c0.17066,-0.17067 0.37275,-0.25586 0.60742,-0.25586zM231.44346,55.25549c-0.33066,0.128 -0.61795,0.33009 -0.86328,0.60742c-0.23467,0.26667 -0.42188,0.61435 -0.56055,1.04102c-0.13863,0.42667 -0.20703,0.93286 -0.20703,1.51953c0,0.58667 0.06837,1.09287 0.20703,1.51953c0.13867,0.416 0.32588,0.76368 0.56055,1.04102c0.24533,0.26667 0.53262,0.46876 0.86328,0.60742c0.34134,0.128 0.7108,0.19141 1.10547,0.19141c0.39467,0 0.75722,-0.06341 1.08789,-0.19141c0.34133,-0.13867 0.62862,-0.34076 0.86328,-0.60742c0.24534,-0.27733 0.43751,-0.62502 0.57617,-1.04102c0.13864,-0.42667 0.20704,-0.93286 0.20704,-1.51953c0,-0.58667 -0.06837,-1.09287 -0.20704,-1.51953c-0.13866,-0.42667 -0.33083,-0.77435 -0.57617,-1.04102c-0.23466,-0.27733 -0.52195,-0.47942 -0.86328,-0.60742c-0.33067,-0.13866 -0.69322,-0.20703 -1.08789,-0.20703c-0.39467,0 -0.76413,0.06837 -1.10547,0.20703zM271.14266,55.04846c-0.39467,0 -0.73048,0.05845 -1.00781,0.17578c-0.27734,0.11733 -0.51308,0.26593 -0.70508,0.44727c-0.18133,0.17067 -0.32497,0.36284 -0.43164,0.57617c-0.10667,0.21333 -0.18694,0.41046 -0.24024,0.5918c-0.0533,0.18133 -0.085,0.3418 -0.0957,0.48047c-0.0106,0.128 -0.0156,0.20133 -0.0156,0.22266h5.18359c0,-0.33067 -0.05349,-0.64469 -0.16016,-0.94336c-0.10666,-0.29867 -0.27209,-0.5592 -0.49609,-0.7832c-0.21333,-0.23467 -0.4907,-0.42188 -0.83203,-0.56055c-0.34133,-0.13866 -0.74055,-0.20703 -1.19922,-0.20703zM258.79698,58.56798c-0.20267,0.064 -0.44337,0.11058 -0.72071,0.14258c-0.26666,0.032 -0.54899,0.07061 -0.84765,0.11328c-0.288,0.04267 -0.57032,0.09616 -0.84766,0.16016c-0.27733,0.064 -0.52795,0.15911 -0.75195,0.28711c-0.224,0.11733 -0.40626,0.27284 -0.54492,0.46484c-0.12801,0.192 -0.19141,0.43766 -0.19141,0.73633c0,0.23467 0.04853,0.4318 0.14453,0.5918c0.10667,0.14933 0.24039,0.27119 0.40039,0.36719c0.16,0.08533 0.3403,0.14874 0.54297,0.19141c0.20267,0.032 0.40476,0.04883 0.60742,0.04883c0.30934,0 0.62036,-0.0317 0.92969,-0.0957c0.30933,-0.07467 0.5867,-0.19156 0.83203,-0.35156c0.256,-0.16 0.45809,-0.37396 0.60742,-0.64062c0.16004,-0.26667 0.24024,-0.59752 0.24024,-0.99219v-1.13672z" id="path1337" fill="#1eff00" stroke="none" stroke-width="1" stroke-miterlimit="10" stroke-dashoffset="0"/></g></g></g></svg>