<svg version="1.1" xmlns="http://www.w3.org/2000/svg" xmlns:xlink="http://www.w3.org/1999/xlink" width="372.21495" height="68.64271" viewBox="0,0,372.21495,68.64271"><g transform="translate(-53.89252,-145.67864)"><g data-paper-data="{&quot;isPaintingLayer&quot;:true}" fill-rule="nonzero" stroke-linecap="butt" stroke-linejoin="miter" stroke-dasharray="" style="mix-blend-mode: normal"><path d="M425.00976,146.42864c0.19313,0 0.34772,0.15458 0.34772,0.34772v66.44538c0,0.19313 -0.15458,0.34961 -0.34772,0.34961h-370.01762c-0.19313,0 -0.34961,-0.15647 -0.34961,-0.34961v-66.4453c0,-0.19313 0.15647,-0.34772 0.34961,-0.34772z" fill="#1e1e1e" stroke="#1eff00" stroke-width="1.5" stroke-miterlimit="4" stroke-dashoffset="17.35"/><path d="M69.10184,187.56564c1.27601,0 2.33412,4.30809 3.36643,5.0581c1.03219,0.7499 5.4565,0.42501 5.85078,1.6385c0.3942,1.21349 -3.3761,3.55109 -3.77031,4.76459c-0.39428,1.21353 1.2819,5.32082 0.24983,6.07083c-1.0323,0.7499 -4.42057,-2.11351 -5.6965,-2.11351c-1.27589,0 -4.66416,2.86341 -5.69647,2.11351c-1.0323,-0.75001 0.64399,-4.8573 0.24983,-6.07083c-0.39432,-1.21349 -4.16462,-3.55109 -3.77031,-4.76459c0.39428,-1.21349 4.8186,-0.8886 5.85078,-1.6385c1.0323,-0.75001 2.09042,-5.0581 3.36631,-5.0581z" fill="#1eff00" stroke="none" stroke-width="0.23333" stroke-miterlimit="4" stroke-dashoffset="17.35"/><path d="M92.03896,187.56564c1.27589,0 2.33401,4.30809 3.36631,5.0581c1.0323,0.7499 5.45647,0.42501 5.85078,1.6385c0.39432,1.21349 -3.37599,3.55109 -3.77031,4.76459c-0.39428,1.21353 1.2819,5.32082 0.24945,6.07083c-1.0323,0.7499 -4.42061,-2.11351 -5.6965,-2.11351c-1.27601,0 -4.66428,2.86341 -5.6965,2.11351c-1.0323,-0.75001 0.64399,-4.8573 0.24945,-6.07083c-0.3942,-1.21349 -4.16447,-3.55109 -3.77019,-4.76459c0.3942,-1.21349 4.81852,-0.8886 5.85071,-1.6385c1.0323,-0.75001 2.09038,-5.0581 3.36639,-5.0581z" fill="#1eff00" stroke="none" stroke-width="0.23333" stroke-miterlimit="4" stroke-dashoffset="17.35"/><path d="M114.97593,193.56911c0.4083,0 0.74688,1.37858 1.07722,1.61858c0.33033,0.24 1.74608,0.13606 1.87226,0.5243c0.12616,0.38835 -1.08033,1.13635 -1.2065,1.5247c-0.1262,0.38831 0.41021,1.70264 0.07982,1.94264c-0.33033,0.24 -1.4146,-0.67631 -1.82288,-0.67631c-0.40832,0 -1.49258,0.91627 -1.82288,0.67631c-0.33033,-0.24 0.20606,-1.55433 0.07982,-1.94264c-0.12616,-0.38835 -1.33264,-1.13635 -1.20646,-1.5247c0.12612,-0.38831 1.54191,-0.28422 1.87222,-0.5243c0.33033,-0.24 0.66893,-1.61858 1.07726,-1.61858z" fill="#1eff00" stroke="none" stroke-width="0.07467" stroke-miterlimit="4" stroke-dashoffset="17.35"/><path d="M105.54473,153.16591c0.54974,0.16169 1.01821,0.377 1.40625,0.64648c0.39883,0.26948 0.70629,0.57014 0.92188,0.9043c0.21558,0.33413 0.32422,0.66974 0.32422,1.00391c0,0.28011 -0.097,0.50514 -0.29102,0.67773c-0.18324,0.16176 -0.38886,0.24414 -0.61523,0.24414c-0.1617,0 -0.31301,-0.04469 -0.45313,-0.13086c-0.14014,-0.09698 -0.25362,-0.24632 -0.33984,-0.45117c-0.12935,-0.32338 -0.30004,-0.58333 -0.51563,-0.77734c-0.2048,-0.20475 -0.43661,-0.36091 -0.69531,-0.46875c-0.24792,-0.11868 -0.51271,-0.19431 -0.79297,-0.22656c-0.28026,-0.04309 -0.5499,-0.06445 -0.80859,-0.06445c-0.38805,0 -0.74983,0.04273 -1.08398,0.12891c-0.32338,0.07534 -0.60756,0.18891 -0.85547,0.33984c-0.23715,0.14002 -0.42629,0.31752 -0.56641,0.5332c-0.12936,0.2048 -0.19531,0.44341 -0.19531,0.71289c0,0.36654 0.10863,0.66719 0.32422,0.9043c0.22636,0.23705 0.52218,0.43589 0.88867,0.59766c0.36649,0.16159 0.78259,0.3032 1.24609,0.42187c0.4635,0.11868 0.93682,0.24183 1.42188,0.37109c0.49583,0.12941 0.97595,0.28557 1.43945,0.46875c0.4635,0.17247 0.87765,0.39945 1.24414,0.67969c0.36649,0.28026 0.65942,0.62556 0.875,1.03516c0.2261,0.40912 0.33762,0.91001 0.33789,1.50195v0.00195c-0.00026,0.65666 -0.12828,1.22832 -0.38672,1.71289c-0.24792,0.48506 -0.59321,0.88951 -1.03516,1.21289c-0.44194,0.32328 -0.95988,0.5648 -1.55273,0.72656c-0.59285,0.16176 -1.22232,0.24219 -1.89062,0.24219c-0.95934,0 -1.7799,-0.13482 -2.45898,-0.4043c-0.6683,-0.28024 -1.21243,-0.6139 -1.63281,-1.00195c-0.42039,-0.39882 -0.72786,-0.81297 -0.92187,-1.24414c-0.19402,-0.44193 -0.29102,-0.82506 -0.29102,-1.14844c0,-0.38798 0.097,-0.66245 0.29102,-0.82422c0.2048,-0.16176 0.41527,-0.24219 0.63086,-0.24219c0.18325,0 0.35105,0.05906 0.50195,0.17773c0.15093,0.10777 0.24306,0.28527 0.27539,0.5332c0.06467,0.4096 0.20434,0.77139 0.41992,1.08398c0.22636,0.31249 0.50084,0.57533 0.82422,0.79102c0.32337,0.20475 0.68516,0.36091 1.08398,0.46875c0.39882,0.10784 0.80813,0.16211 1.22852,0.16211c0.33415,0 0.67945,-0.03794 1.03515,-0.11328c0.36649,-0.08617 0.6953,-0.20933 0.98633,-0.37109c0.30183,-0.17247 0.54333,-0.39458 0.72656,-0.66406c0.19402,-0.26948 0.29102,-0.59148 0.29102,-0.96875c0,-0.4096 -0.11348,-0.75005 -0.33984,-1.01953c-0.21559,-0.26953 -0.50656,-0.49651 -0.87305,-0.67969c-0.35571,-0.18338 -0.76502,-0.33275 -1.22852,-0.45117c-0.4635,-0.12944 -0.93682,-0.25941 -1.42187,-0.38867c-0.48506,-0.12929 -0.96033,-0.27574 -1.42383,-0.4375c-0.4635,-0.17245 -0.87765,-0.38776 -1.24414,-0.64648c-0.3557,-0.26945 -0.64668,-0.59148 -0.87305,-0.96875c-0.21558,-0.38806 -0.32422,-0.86816 -0.32422,-1.43945c0,-0.53896 0.11348,-1.01909 0.33984,-1.43945c0.23714,-0.42038 0.5611,-0.77536 0.9707,-1.06641c0.4096,-0.291 0.89457,-0.51313 1.45508,-0.66406c0.56051,-0.15093 1.1735,-0.22656 1.8418,-0.22656c0.64674,0 1.24034,0.08238 1.77929,0.24414zM65.35528,153.14833c0.63596,0 1.27224,0.10879 1.9082,0.32422c0.63596,0.21558 1.20627,0.57735 1.71289,1.08398c0.50661,0.49582 0.91592,1.1515 1.22851,1.9707c0.31259,0.80844 0.46875,1.8065 0.46875,2.99219c0,1.1965 -0.15616,2.20424 -0.46875,3.02344c-0.31259,0.80842 -0.7219,1.46602 -1.22851,1.97266c-0.50662,0.49572 -1.07693,0.85072 -1.71289,1.06641c-0.63597,0.21568 -1.27224,0.32422 -1.9082,0.32422h-3.83203c-0.16169,0 -0.31785,-0.02616 -0.46875,-0.08008c-0.1509,-0.0645 -0.28572,-0.15192 -0.4043,-0.25976c-0.11855,-0.10772 -0.21555,-0.24253 -0.29102,-0.4043c-0.07546,-0.16169 -0.11328,-0.33919 -0.11328,-0.5332v-10.21875c0,-0.34489 0.12318,-0.64073 0.37109,-0.88867c0.24792,-0.24794 0.55054,-0.37305 0.90625,-0.37305zM87.40607,153.39247c0.16169,0.16174 0.24219,0.36055 0.24219,0.59766v6.17578l3.96094,-3.44336c0.15089,-0.11868 0.3187,-0.17773 0.50195,-0.17773c0.17246,0 0.34026,0.0641 0.50195,0.19336c0.16169,0.12939 0.24219,0.31368 0.24219,0.55078c0,0.21556 -0.08729,0.3979 -0.25977,0.54883l-2.47266,2.13477l3.26562,4.62305c0.09701,0.15103 0.14648,0.31398 0.14648,0.48633c0,0.15085 -0.02814,0.27888 -0.08203,0.38672c-0.0539,0.09701 -0.12276,0.17938 -0.20898,0.24414c-0.08622,0.06476 -0.17838,0.11228 -0.27539,0.14453c-0.09703,0.03225 -0.18917,0.04883 -0.27539,0.04883c-0.14012,0 -0.2701,-0.02811 -0.38867,-0.08203c-0.11858,-0.05367 -0.22042,-0.13913 -0.30664,-0.25781l-3.10352,-4.49414l-1.24609,1.06641v2.91016c0,0.23725 -0.0805,0.44289 -0.24219,0.61523c-0.16169,0.16176 -0.36053,0.24219 -0.59766,0.24219c-0.23713,0 -0.44276,-0.08042 -0.61523,-0.24219c-0.16169,-0.1725 -0.24219,-0.37813 -0.24219,-0.61523v-11.05859c0,-0.23708 0.0805,-0.43589 0.24219,-0.59766c0.17248,-0.16176 0.37811,-0.24414 0.61523,-0.24414c0.23713,0 0.43597,0.08238 0.59766,0.24414zM111.40606,153.39247c0.16169,0.16174 0.24219,0.36055 0.24219,0.59766v3.79883c0.34493,-0.39871 0.71836,-0.70424 1.11719,-0.91992c0.39882,-0.21568 0.87698,-0.32422 1.4375,-0.32422c0.49583,0 0.95461,0.07563 1.375,0.22656c0.42038,0.15093 0.78217,0.36624 1.08398,0.64648c0.30181,0.26948 0.53362,0.60314 0.69531,1.00195c0.17248,0.38806 0.25782,0.82548 0.25782,1.31055v5.31836c0,0.23725 -0.08534,0.44289 -0.25782,0.61523c-0.16167,0.16176 -0.36245,0.24219 -0.59961,0.24219c-0.23713,0 -0.43596,-0.08042 -0.59765,-0.24219c-0.16169,-0.1725 -0.24219,-0.37813 -0.24219,-0.61523v-5.31836c0,-0.24781 -0.05432,-0.47963 -0.16211,-0.69531c-0.097,-0.22629 -0.23182,-0.42027 -0.4043,-0.58203c-0.17245,-0.16176 -0.37128,-0.28687 -0.59765,-0.37305c-0.22637,-0.09701 -0.46303,-0.14453 -0.71094,-0.14453c-0.32337,0 -0.63084,0.0641 -0.92187,0.19336c-0.29103,0.11847 -0.55098,0.28627 -0.77735,0.50195c-0.21557,0.2048 -0.38626,0.44632 -0.51562,0.72656c-0.11858,0.28026 -0.17969,0.58287 -0.17969,0.90625v4.78516c0,0.23725 -0.0805,0.44289 -0.24219,0.61523c-0.16167,0.16176 -0.3605,0.24219 -0.59765,0.24219c-0.23714,0 -0.44277,-0.08042 -0.61524,-0.24219c-0.16169,-0.1725 -0.24219,-0.37813 -0.24219,-0.61523v-11.05859c0,-0.23708 0.0805,-0.43589 0.24219,-0.59766c0.17248,-0.16176 0.37811,-0.24414 0.61524,-0.24414c0.23713,0 0.43596,0.08238 0.59765,0.24414zM62.15411,164.20887h2.82812c0.63597,0 1.19174,-0.10853 1.66602,-0.32422c0.47428,-0.22637 0.86709,-0.53868 1.17969,-0.9375c0.31259,-0.4096 0.54441,-0.89939 0.69531,-1.4707c0.1509,-0.58205 0.22656,-1.23481 0.22656,-1.95703c0,-0.71141 -0.07566,-1.35254 -0.22656,-1.92383c-0.15091,-0.58207 -0.38272,-1.07189 -0.69531,-1.4707c-0.31259,-0.4095 -0.70541,-0.72377 -1.17969,-0.93945c-0.47428,-0.22627 -1.03005,-0.33789 -1.66602,-0.33789h-2.82812zM78.19122,157.09364c0.65752,0.43117 0.98633,1.07227 0.98633,1.92383v6.03125c0,0.23725 -0.0805,0.44289 -0.24219,0.61523c-0.16167,0.16176 -0.3605,0.24219 -0.59766,0.24219c-0.23713,0 -0.44276,-0.08042 -0.61523,-0.24219c-0.16169,-0.1725 -0.24219,-0.37813 -0.24219,-0.61523v-0.25781c-0.4096,0.44193 -0.87808,0.73774 -1.40625,0.88867c-0.51739,0.15093 -1.06832,0.22656 -1.65039,0.22656c-0.36649,0 -0.73797,-0.04948 -1.11523,-0.14648c-0.36649,-0.10769 -0.70014,-0.26869 -1.00195,-0.48437c-0.29102,-0.21558 -0.52768,-0.48522 -0.71094,-0.80859c-0.18323,-0.32335 -0.27539,-0.71133 -0.27539,-1.16406c0,-0.51739 0.10184,-0.94805 0.30664,-1.29297c0.2048,-0.3558 0.47929,-0.64678 0.82422,-0.87305c0.34493,-0.22627 0.7397,-0.3989 1.18164,-0.51758c0.45272,-0.11842 0.92604,-0.20389 1.42187,-0.25781c0.57129,-0.06476 1.01842,-0.1356 1.3418,-0.21094c0.32337,-0.08617 0.56683,-0.18317 0.72851,-0.29101c0.16169,-0.10784 0.25869,-0.23295 0.29102,-0.37305c0.04311,-0.14025 0.06445,-0.2964 0.06445,-0.46875c0,-0.20477 -0.05916,-0.38227 -0.17773,-0.5332c-0.11856,-0.15093 -0.26987,-0.27409 -0.45312,-0.37109c-0.18324,-0.09701 -0.38691,-0.16785 -0.61328,-0.21094c-0.22636,-0.05392 -0.44848,-0.08008 -0.66406,-0.08008c-0.38806,0 -0.70037,0.0329 -0.9375,0.09766c-0.23714,0.0645 -0.43113,0.14997 -0.58203,0.25781c-0.1509,0.10779 -0.27409,0.23774 -0.37109,0.38867c-0.08622,0.15083 -0.16868,0.30699 -0.24414,0.46875c-0.06468,0.12926 -0.15486,0.22626 -0.27344,0.29101c-0.10779,0.05392 -0.22127,0.08008 -0.33984,0.08008c-0.21557,0 -0.4144,-0.07084 -0.59766,-0.21094c-0.18323,-0.14009 -0.27539,-0.33409 -0.27539,-0.58203c0,-0.09701 0.02618,-0.21537 0.08008,-0.35547c0.09701,-0.22624 0.22698,-0.44642 0.38867,-0.66211c0.16169,-0.22647 0.37701,-0.42531 0.64648,-0.59766c0.28025,-0.17247 0.6207,-0.30729 1.01953,-0.4043c0.4096,-0.10784 0.90426,-0.16211 1.48633,-0.16211c1.09946,0 1.97239,0.22018 2.61914,0.66211zM124.65801,156.70691c0.53896,0.18326 1.00259,0.45094 1.39063,0.80664c0.39882,0.34492 0.71113,0.77071 0.9375,1.27734c0.22637,0.50661 0.33984,1.08372 0.33984,1.73047c0,0.39876 -0.097,0.7014 -0.29101,0.90625c-0.19403,0.20485 -0.42099,0.30664 -0.67969,0.30664h-5.91797c0,0.02142 0.00674,0.11363 0.01758,0.27539c0.02157,0.1508 0.05938,0.3351 0.11328,0.55078c0.06468,0.21556 0.15002,0.44542 0.25781,0.69336c0.11858,0.23708 0.27474,0.45921 0.46875,0.66406c0.19403,0.20485 0.43069,0.37748 0.71094,0.51758c0.29104,0.12926 0.64313,0.19336 1.05274,0.19336c0.33416,0 0.61834,-0.02616 0.85546,-0.08008c0.23713,-0.05392 0.44761,-0.1363 0.63086,-0.24414c0.18325,-0.10769 0.35105,-0.24253 0.50196,-0.4043c0.15091,-0.17257 0.30222,-0.37139 0.45312,-0.59766c0.08622,-0.12926 0.18322,-0.22147 0.29102,-0.27539c0.10779,-0.05392 0.21931,-0.08008 0.33789,-0.08008c0.19402,0 0.37347,0.07084 0.53515,0.21094c0.16169,0.14002 0.24219,0.31752 0.24219,0.5332c0,0.12936 -0.07082,0.32333 -0.21094,0.58203c-0.14012,0.2587 -0.36709,0.51669 -0.67968,0.77539c-0.30182,0.2587 -0.69463,0.48567 -1.17969,0.67969c-0.48506,0.19402 -1.07671,0.29102 -1.77734,0.29102c-0.71142,0 -1.3477,-0.12998 -1.90821,-0.38867c-0.56051,-0.25872 -1.03578,-0.60401 -1.42383,-1.03516c-0.37727,-0.44195 -0.66824,-0.95308 -0.87304,-1.53516c-0.19402,-0.58207 -0.29102,-1.19023 -0.29102,-1.82617c0,-0.65754 0.10184,-1.2773 0.30664,-1.85937c0.2048,-0.59283 0.49773,-1.10594 0.875,-1.53711c0.38805,-0.43114 0.84972,-0.76964 1.38867,-1.01758c0.53896,-0.2587 1.1442,-0.38867 1.8125,-0.38867c0.61441,0 1.18472,0.09221 1.71289,0.27539zM134.06817,156.70691c0.53895,0.18326 1.00258,0.45094 1.39063,0.80664c0.39881,0.34492 0.71113,0.77071 0.9375,1.27734c0.22636,0.50661 0.33984,1.08372 0.33984,1.73047c0,0.39876 -0.097,0.7014 -0.29102,0.90625c-0.19402,0.20485 -0.41903,0.30664 -0.67773,0.30664h-5.91797c0,0.02142 0.00479,0.11363 0.01563,0.27539c0.02156,0.1508 0.05938,0.3351 0.11328,0.55078c0.06468,0.21556 0.15002,0.44542 0.25781,0.69336c0.11858,0.23708 0.27473,0.45921 0.46875,0.66406c0.19402,0.20485 0.43264,0.37748 0.71289,0.51758c0.29104,0.12926 0.64118,0.19336 1.05078,0.19336c0.33416,0 0.6203,-0.02616 0.85742,-0.08008c0.23716,-0.05392 0.44568,-0.1363 0.62891,-0.24414c0.18325,-0.10769 0.35105,-0.24253 0.50195,-0.4043c0.15091,-0.17257 0.30222,-0.37139 0.45313,-0.59766c0.08622,-0.12926 0.18322,-0.22147 0.29101,-0.27539c0.1078,-0.05392 0.22127,-0.08008 0.33985,-0.08008c0.19402,0 0.37151,0.07084 0.5332,0.21094c0.16169,0.14002 0.24219,0.31752 0.24219,0.5332c0,0.12936 -0.07082,0.32333 -0.21094,0.58203c-0.14013,0.2587 -0.36514,0.51669 -0.67773,0.77539c-0.30182,0.2587 -0.69659,0.48567 -1.18164,0.67969c-0.48506,0.19402 -1.07671,0.29102 -1.77735,0.29102c-0.71142,0 -1.34769,-0.12998 -1.9082,-0.38867c-0.56051,-0.25872 -1.03578,-0.60401 -1.42383,-1.03516c-0.37727,-0.44195 -0.66825,-0.95308 -0.87305,-1.53516c-0.19401,-0.58207 -0.29101,-1.19023 -0.29101,-1.82617c0,-0.65754 0.10379,-1.2773 0.30859,-1.85937c0.2048,-0.59283 0.49578,-1.10594 0.87305,-1.53711c0.38804,-0.43114 0.85167,-0.76964 1.39062,-1.01758c0.53896,-0.2587 1.14225,-0.38867 1.81055,-0.38867c0.61441,0 1.18472,0.09221 1.71289,0.27539zM81.89239,156.80262c0.16169,0.16171 0.24414,0.36055 0.24414,0.59766v0.30859c0.04311,-0.04309 0.12361,-0.13051 0.24219,-0.25977c0.11856,-0.12944 0.26307,-0.25746 0.43555,-0.38672c0.18324,-0.14009 0.38402,-0.26041 0.59961,-0.35742c0.22637,-0.10784 0.46302,-0.16016 0.71094,-0.16016c0.23713,0 0.43597,0.08521 0.59766,0.25781c0.17247,0.16171 0.25976,0.36251 0.25976,0.59961c0,0.22649 -0.08729,0.42531 -0.25976,0.59766c-0.1617,0.16176 -0.36053,0.24219 -0.59766,0.24219c-0.4096,0 -0.74325,0.097 -1.00195,0.29102c-0.2587,0.18323 -0.46433,0.40341 -0.61523,0.66211c-0.14012,0.25872 -0.23712,0.52835 -0.29102,0.80859c-0.0539,0.28031 -0.08008,0.51213 -0.08008,0.69531v4.34961c0,0.23725 -0.08245,0.44289 -0.24414,0.61523c-0.16167,0.16176 -0.3605,0.24219 -0.59766,0.24219c-0.23713,0 -0.44276,-0.08042 -0.61523,-0.24219c-0.16169,-0.1725 -0.24219,-0.37813 -0.24219,-0.61523v-7.64844c0,-0.23705 0.0805,-0.43589 0.24219,-0.59766c0.17248,-0.1726 0.37811,-0.25977 0.61523,-0.25977c0.23714,0 0.43597,0.08717 0.59766,0.25977zM139.25958,156.80262c0.16169,0.16171 0.24218,0.36251 0.24218,0.59961v0.14453c0.2156,-0.18336 0.41443,-0.33949 0.59766,-0.46875c0.19403,-0.12926 0.39481,-0.23105 0.59961,-0.30664c0.20481,-0.08617 0.42982,-0.14548 0.67773,-0.17773c0.24792,-0.03225 0.53405,-0.04883 0.85743,-0.04883c0.52817,0 1.02478,0.11358 1.48828,0.33984c0.47428,0.22637 0.88358,0.55032 1.22851,0.9707c0.35571,0.4096 0.63505,0.90426 0.83985,1.48633c0.2048,0.57129 0.30859,1.20271 0.30859,1.89258c0,0.68984 -0.09216,1.31934 -0.27539,1.89062c-0.18324,0.57131 -0.44804,1.06792 -0.79297,1.48828c-0.33415,0.4097 -0.73861,0.72686 -1.21289,0.95312c-0.47428,0.22627 -1.00191,0.33984 -1.58398,0.33984c-0.38805,0 -0.72655,-0.03769 -1.01758,-0.11328c-0.28025,-0.08617 -0.52856,-0.18796 -0.74414,-0.30664c-0.2048,-0.1186 -0.3891,-0.24858 -0.55078,-0.38867c-0.1509,-0.15098 -0.29056,-0.29066 -0.41993,-0.41992v3.7832c0,0.23708 -0.08049,0.43589 -0.24218,0.59766c-0.1617,0.1726 -0.36053,0.25977 -0.59766,0.25977c-0.23713,0 -0.44276,-0.08717 -0.61523,-0.25977c-0.16169,-0.16174 -0.24219,-0.36055 -0.24219,-0.59766v-11.05859c0,-0.23705 0.0805,-0.43784 0.24219,-0.59961c0.17247,-0.1726 0.3781,-0.25781 0.61523,-0.25781c0.23714,0 0.43597,0.08521 0.59766,0.25781zM121.9588,157.99989c-0.28027,0.11863 -0.51888,0.26994 -0.71289,0.45312c-0.18325,0.17237 -0.32776,0.36635 -0.43555,0.58203c-0.10779,0.21563 -0.18829,0.41447 -0.24219,0.59766c-0.05385,0.18328 -0.08682,0.34428 -0.09766,0.48437c-0.01083,0.12825 -0.01562,0.20388 -0.01562,0.22656h5.23828c0,-0.33416 -0.05432,-0.65132 -0.16211,-0.95312c-0.10778,-0.30191 -0.27363,-0.5667 -0.5,-0.79297c-0.21558,-0.23718 -0.49687,-0.42631 -0.8418,-0.56641c-0.34493,-0.14009 -0.74939,-0.20898 -1.21289,-0.20898c-0.39882,0 -0.73732,0.05906 -1.01757,0.17773zM131.36895,157.99989c-0.28026,0.11863 -0.51692,0.26994 -0.71094,0.45312c-0.18324,0.17237 -0.3297,0.36635 -0.4375,0.58203c-0.10779,0.21563 -0.18829,0.41447 -0.24218,0.59766c-0.05385,0.18328 -0.08682,0.34428 -0.09766,0.48437c-0.01083,0.12825 -0.01562,0.20388 -0.01562,0.22656h5.23828c0,-0.33416 -0.05432,-0.65132 -0.16211,-0.95312c-0.10778,-0.30191 -0.27363,-0.5667 -0.5,-0.79297c-0.21558,-0.23718 -0.49687,-0.42631 -0.8418,-0.56641c-0.34493,-0.14009 -0.74939,-0.20898 -1.21289,-0.20898c-0.39883,0 -0.73732,0.05906 -1.01758,0.17773zM140.86114,158.21083c-0.31259,0.18326 -0.57739,0.42959 -0.79297,0.74219c-0.21557,0.30181 -0.38338,0.65196 -0.50195,1.05078c-0.10779,0.38806 -0.16211,0.7993 -0.16211,1.23047c0,0.42038 0.05432,0.8297 0.16211,1.22851c0.11856,0.39882 0.28637,0.74897 0.50195,1.05078c0.21558,0.30188 0.48038,0.54338 0.79297,0.72656c0.32337,0.18318 0.68805,0.27539 1.09766,0.27539c0.39882,0 0.75576,-0.09221 1.06835,-0.27539c0.32337,-0.18323 0.59301,-0.42473 0.8086,-0.72656c0.22636,-0.30181 0.39221,-0.65196 0.5,-1.05078c0.11858,-0.39881 0.17773,-0.80813 0.17773,-1.22851c0,-0.43117 -0.05915,-0.84241 -0.17773,-1.23047c-0.10778,-0.39882 -0.27363,-0.74897 -0.5,-1.05078c-0.21558,-0.31267 -0.48522,-0.55901 -0.8086,-0.74219c-0.31259,-0.18318 -0.66953,-0.27539 -1.06835,-0.27539c-0.40961,0 -0.77429,0.09221 -1.09766,0.27539zM77.07599,161.37879c-0.2048,0.06476 -0.44631,0.11423 -0.72656,0.14648c-0.26948,0.03225 -0.55561,0.07019 -0.85742,0.11328c-0.29104,0.04309 -0.57717,0.0954 -0.85742,0.16016c-0.28025,0.06476 -0.5334,0.16176 -0.75977,0.29101c-0.22637,0.11858 -0.41066,0.27473 -0.55078,0.46875c-0.12933,0.19402 -0.19336,0.44233 -0.19336,0.74414c0,0.23708 0.04948,0.43785 0.14648,0.59961c0.10779,0.15093 0.24261,0.27409 0.4043,0.37109c0.16169,0.08617 0.34403,0.15027 0.54883,0.19336c0.2048,0.03225 0.41043,0.04883 0.61523,0.04883c0.31259,0 0.62491,-0.0329 0.9375,-0.09766c0.3126,-0.07534 0.59193,-0.1937 0.83984,-0.35547c0.2587,-0.16166 0.46433,-0.377 0.61523,-0.64648c0.16169,-0.26948 0.24219,-0.60314 0.24219,-1.00195v-1.14844zM62.60528,168.10927c0.28026,0.18326 0.52372,0.44805 0.72852,0.79297l4.78516,8.01953v-7.93945c0,-0.32345 0.11347,-0.59795 0.33984,-0.82422c0.23714,-0.22627 0.51163,-0.33984 0.82422,-0.33984c0.32336,0 0.5998,0.11358 0.82617,0.33984c0.23715,0.22634 0.35547,0.50084 0.35547,0.82422v10.20313c0,0.19389 -0.03782,0.37623 -0.11328,0.54883c-0.07544,0.16176 -0.17728,0.30824 -0.30664,0.4375c-0.11856,0.12951 -0.26503,0.2313 -0.4375,0.30664c-0.16169,0.06476 -0.33919,0.09766 -0.5332,0.09766c-0.37727,0 -0.70607,-0.097 -0.98633,-0.29101c-0.26948,-0.19402 -0.50614,-0.45881 -0.71094,-0.79297l-4.78711,-8.01953v7.93945c0,0.31264 -0.11834,0.58712 -0.35547,0.82422c-0.22636,0.22627 -0.50085,0.33984 -0.82422,0.33984c-0.3126,0 -0.58709,-0.11358 -0.82422,-0.33984c-0.22637,-0.23715 -0.33984,-0.51163 -0.33984,-0.82422v-10.21875c0,-0.37725 0.13482,-0.70122 0.4043,-0.9707c0.26947,-0.26948 0.59828,-0.4043 0.98633,-0.4043c0.37727,0 0.69927,0.097 0.96875,0.29102zM75.16388,168.20691c0.34494,0.2587 0.5816,0.61565 0.71094,1.06836l2.29492,8.14844l2.29687,-8.14844c0.12935,-0.45271 0.36116,-0.80966 0.69531,-1.06836c0.34493,-0.2587 0.75908,-0.38672 1.24414,-0.38672c0.25871,0 0.50701,0.04273 0.74414,0.12891c0.23715,0.07534 0.44763,0.18696 0.63086,0.33789c0.18324,0.15085 0.32775,0.33031 0.43555,0.53516c0.10779,0.2048 0.16211,0.43662 0.16211,0.69531v9.89453c0,0.31264 -0.11348,0.58712 -0.33984,0.82422c-0.22636,0.22627 -0.50085,0.33984 -0.82422,0.33984c-0.32336,0 -0.59785,-0.11358 -0.82422,-0.33984c-0.22637,-0.23715 -0.33984,-0.51163 -0.33984,-0.82422v-8.4082l-2.34375,8.4082c-0.09701,0.3556 -0.28615,0.64174 -0.56641,0.85742c-0.26948,0.20485 -0.59343,0.30664 -0.9707,0.30664c-0.37727,0 -0.69927,-0.10179 -0.96875,-0.30664c-0.26948,-0.21558 -0.45377,-0.50172 -0.55078,-0.85742l-2.34375,-8.4082v8.4082c0,0.31264 -0.11832,0.58712 -0.35547,0.82422c-0.22636,0.22627 -0.5028,0.33984 -0.82617,0.33984c-0.31258,0 -0.58707,-0.11358 -0.82422,-0.33984c-0.22637,-0.23715 -0.33984,-0.51163 -0.33984,-0.82422v-9.89453c0,-0.25865 0.05432,-0.49046 0.16211,-0.69531c0.11856,-0.20477 0.26987,-0.38423 0.45312,-0.53516c0.18323,-0.15093 0.39371,-0.26255 0.63086,-0.33789c0.23715,-0.08617 0.47865,-0.12891 0.72656,-0.12891c0.48506,0 0.89632,0.12802 1.23047,0.38672z" fill="#1eff00" stroke="none" stroke-width="1.01053" stroke-miterlimit="10" stroke-dashoffset="0"/></g></g></svg>