<svg version="1.1" xmlns="http://www.w3.org/2000/svg" xmlns:xlink="http://www.w3.org/1999/xlink" width="427.11155" height="27.77146" viewBox="0,0,427.11155,27.77146"><g transform="translate(-25.93651,-185.75576)"><g data-paper-data="{&quot;isPaintingLayer&quot;:true}" fill-rule="nonzero" stroke-linecap="butt" stroke-linejoin="miter" stroke-dasharray="" style="mix-blend-mode: normal"><path d="M26.8796,186.506h425.22537c0.10684,0 0.19285,0.086 0.19285,0.19286v25.88527c0,0.10684 -0.086,0.19286 -0.19285,0.19286h-425.22537c-0.10684,0 -0.19286,-0.086 -0.19286,-0.19286v-25.88527c0,-0.10684 0.086,-0.19286 0.19286,-0.19286z" id="rect913-8-4-6" fill="#272727" stroke="#1eff00" stroke-width="1.50047" stroke-miterlimit="4" stroke-dashoffset="17.35"/><path d="M155.50401,191.63811c0.23475,0 0.43174,0.08018 0.5918,0.24024c0.17072,0.16005 0.25586,0.35704 0.25586,0.5918c0,0.23475 -0.08514,0.43864 -0.25586,0.60937c-0.16006,0.16006 -0.35705,0.24024 -0.5918,0.24024h-2.99414v10.0039c0,0.25609 -0.09504,0.4798 -0.28711,0.67188c-0.18139,0.1814 -0.40016,0.27148 -0.65625,0.27148c-0.26677,0 -0.49244,-0.09008 -0.67383,-0.27148c-0.1814,-0.19208 -0.27148,-0.41579 -0.27148,-0.67188v-10.0039h-2.99219c-0.23475,0 -0.43865,-0.08018 -0.60938,-0.24024c-0.16006,-0.17073 -0.24023,-0.37462 -0.24023,-0.60937c0,-0.23476 0.08017,-0.43175 0.24023,-0.5918c0.17073,-0.16006 0.37463,-0.24024 0.60938,-0.24024zM185.13682,191.87835c0.16005,0.16005 0.24024,0.35704 0.24024,0.5918v10.94921c0,0.23476 -0.08019,0.4367 -0.24024,0.60743c-0.16006,0.16006 -0.35704,0.24023 -0.5918,0.24023c-0.23474,0 -0.43864,-0.08017 -0.60937,-0.24023c-0.16005,-0.17073 -0.23828,-0.37267 -0.23828,-0.60743v-10.94921c0,-0.23476 0.07823,-0.43175 0.23828,-0.5918c0.17073,-0.16006 0.37463,-0.24024 0.60937,-0.24024c0.23476,0 0.43174,0.08018 0.5918,0.24024zM201.83018,191.87835c0.16005,0.16005 0.24023,0.35704 0.24023,0.5918v3.76171c0.34146,-0.39481 0.71067,-0.6987 1.10547,-0.9121c0.39482,-0.21342 0.86897,-0.32032 1.42383,-0.32032c0.49084,0 0.94322,0.07523 1.35938,0.22461c0.41614,0.14939 0.77349,0.36319 1.07226,0.64063c0.29878,0.26676 0.5294,0.59738 0.68946,0.99218c0.17072,0.38414 0.25586,0.81671 0.25586,1.29688v5.26562c0,0.23476 -0.08514,0.4367 -0.25586,0.60743c-0.16006,0.16006 -0.35705,0.24023 -0.5918,0.24023c-0.23475,0 -0.43369,-0.08017 -0.59375,-0.24023c-0.16005,-0.17073 -0.23828,-0.37267 -0.23828,-0.60743v-5.26562c0,-0.24542 -0.05345,-0.47604 -0.16016,-0.68945c-0.09603,-0.22408 -0.22966,-0.41612 -0.40039,-0.57618c-0.17073,-0.16005 -0.36967,-0.28182 -0.59375,-0.36718c-0.22408,-0.09604 -0.4577,-0.14453 -0.70312,-0.14453c-0.32012,0 -0.62401,0.06336 -0.91211,0.1914c-0.28811,0.11738 -0.54545,0.28268 -0.76954,0.4961c-0.2134,0.20274 -0.38367,0.44327 -0.51171,0.7207c-0.11738,0.27743 -0.17578,0.57637 -0.17579,0.89648v4.73828c0.00001,0.23476 -0.08018,0.4367 -0.24023,0.60743c-0.16006,0.16006 -0.35704,0.24023 -0.5918,0.24023c-0.23474,0 -0.43668,-0.08017 -0.60742,-0.24023c-0.16005,-0.17073 -0.24023,-0.37267 -0.24023,-0.60743v-10.94921c0,-0.23476 0.08018,-0.43175 0.24023,-0.5918c0.17074,-0.16006 0.37268,-0.24024 0.60742,-0.24024c0.23476,0 0.43174,0.08018 0.5918,0.24024zM210.72276,191.91155c0.19207,0.1814 0.28906,0.40512 0.28906,0.67188c0,0.25609 -0.09699,0.47981 -0.28906,0.67187c-0.1814,0.1814 -0.40016,0.27149 -0.65625,0.27149c-0.26676,0 -0.49543,-0.09009 -0.6875,-0.27149c-0.1814,-0.19206 -0.27149,-0.41578 -0.27149,-0.67187c0,-0.26676 0.09009,-0.49048 0.27149,-0.67188c0.19207,-0.1814 0.42074,-0.27344 0.6875,-0.27344c0.25609,0 0.47485,0.09204 0.65625,0.27344zM313.79112,191.91155c0.19206,0.1814 0.28906,0.40512 0.28906,0.67188c0,0.25609 -0.097,0.47981 -0.28906,0.67187c-0.1814,0.1814 -0.40016,0.27149 -0.65625,0.27149c-0.26676,0 -0.49543,-0.09009 -0.6875,-0.27149c-0.1814,-0.19206 -0.27149,-0.41578 -0.27149,-0.67187c0,-0.26676 0.09009,-0.49048 0.27149,-0.67188c0.19207,-0.1814 0.42074,-0.27344 0.6875,-0.27344c0.25609,0 0.47485,0.09204 0.65625,0.27344zM214.60557,192.61468c0.17073,0.16006 0.25586,0.35704 0.25586,0.59179v2.00196h0.88086c0.20274,0 0.373,0.07327 0.51172,0.22265c0.14939,0.13872 0.22461,0.31093 0.22461,0.51368c0,0.21341 -0.07522,0.38863 -0.22461,0.52734c-0.13872,0.13872 -0.30898,0.20898 -0.51172,0.20898h-0.88086v6.73828c0,0.23476 -0.08513,0.4367 -0.25586,0.60743c-0.16005,0.16006 -0.35704,0.24023 -0.5918,0.24023c-0.23475,0 -0.43174,-0.08017 -0.59179,-0.24023c-0.16006,-0.17073 -0.24024,-0.37267 -0.24024,-0.60743v-6.73828h-0.59179c-0.20274,0 -0.37991,-0.07026 -0.5293,-0.20898c-0.13872,-0.13871 -0.20703,-0.31393 -0.20703,-0.52734c0,-0.20274 0.06831,-0.37496 0.20703,-0.51368c0.14939,-0.14938 0.32656,-0.22265 0.5293,-0.22265h0.59179v-2.00196c0,-0.23475 0.08018,-0.43173 0.24024,-0.59179c0.16005,-0.16006 0.35704,-0.24024 0.59179,-0.24024c0.23476,0 0.43175,0.08018 0.5918,0.24024zM309.48448,192.61468c0.17072,0.16006 0.25586,0.35704 0.25586,0.59179v2.00196h0.88086c0.20274,0 0.373,0.07327 0.51171,0.22265c0.14939,0.13872 0.22461,0.31093 0.22461,0.51368c0,0.21341 -0.07522,0.38863 -0.22461,0.52734c-0.13871,0.13872 -0.30897,0.20898 -0.51171,0.20898h-0.88086v6.73828c0,0.23476 -0.08514,0.4367 -0.25586,0.60743c-0.16006,0.16006 -0.35705,0.24023 -0.5918,0.24023c-0.23475,0 -0.43369,-0.08017 -0.59375,-0.24023c-0.16006,-0.17073 -0.24023,-0.37267 -0.24023,-0.60743v-6.73828h-0.5918c-0.20274,0 -0.37796,-0.07026 -0.52734,-0.20898c-0.13872,-0.13871 -0.20899,-0.31393 -0.20899,-0.52734c0,-0.20274 0.07027,-0.37496 0.20899,-0.51368c0.14938,-0.14938 0.3246,-0.22265 0.52734,-0.22265h0.5918v-2.00196c0,-0.23475 0.08017,-0.43173 0.24023,-0.59179c0.16006,-0.16006 0.359,-0.24024 0.59375,-0.24024c0.23475,0 0.43174,0.08018 0.5918,0.24024zM161.22471,195.20843c0.5442,0.2134 1.0134,0.52225 1.4082,0.92773c0.39482,0.40548 0.70366,0.9014 0.92774,1.48828c0.22408,0.58688 0.33594,1.25997 0.33594,2.01758c0,0.75761 -0.11186,1.42875 -0.33594,2.01563c-0.22408,0.58687 -0.53292,1.0828 -0.92774,1.48828c-0.3948,0.39481 -0.864,0.70065 -1.4082,0.91406c-0.53352,0.21341 -1.11653,0.31836 -1.74609,0.31836c-0.62956,0 -1.21557,-0.10495 -1.75977,-0.31836c-0.53352,-0.21341 -0.99777,-0.51925 -1.39258,-0.91406c-0.39481,-0.40548 -0.70365,-0.90141 -0.92773,-1.48828c-0.22408,-0.58688 -0.33789,-1.25802 -0.33789,-2.01563c0,-0.75761 0.11381,-1.4307 0.33789,-2.01758c0.22408,-0.58688 0.53292,-1.0828 0.92773,-1.48828c0.39481,-0.40548 0.85906,-0.71433 1.39258,-0.92773c0.5442,-0.21342 1.13021,-0.32032 1.75977,-0.32032c0.62956,0 1.21257,0.1069 1.74609,0.32032zM192.47276,195.1596c0.53353,0.1814 0.99086,0.44865 1.375,0.80078c0.39481,0.34145 0.70561,0.76215 0.92969,1.26367c0.22408,0.50152 0.33593,1.07267 0.33593,1.71289c0,0.39482 -0.09699,0.69375 -0.28906,0.89649c-0.19207,0.20274 -0.41578,0.30468 -0.67187,0.30468h-5.85743c0,0.02134 0.00496,0.11144 0.01563,0.27149c0.02136,0.14939 0.05799,0.33151 0.11133,0.54492c0.06402,0.21341 0.14916,0.44208 0.25586,0.6875c0.11738,0.23475 0.27277,0.45351 0.46484,0.65625c0.19207,0.20274 0.42765,0.37301 0.70508,0.51172c0.28811,0.12805 0.63358,0.19336 1.03906,0.19336c0.33079,0 0.61486,-0.02675 0.84961,-0.08008c0.23475,-0.05335 0.44165,-0.13353 0.62305,-0.24023c0.1814,-0.1067 0.3467,-0.24033 0.49609,-0.40039c0.14939,-0.17073 0.29983,-0.36772 0.44922,-0.5918c0.08537,-0.12807 0.1804,-0.22011 0.28711,-0.27344c0.1067,-0.05333 0.21856,-0.08008 0.33594,-0.08008c0.19206,0 0.36923,0.07027 0.52929,0.20899c0.16006,0.13872 0.24024,0.31393 0.24024,0.52734c0,0.12804 -0.07027,0.32008 -0.20899,0.57617c-0.13872,0.2561 -0.36243,0.51344 -0.67187,0.76953c-0.29878,0.2561 -0.6878,0.47981 -1.16797,0.67188c-0.48017,0.19207 -1.06813,0.28711 -1.76172,0.28711c-0.70425,0 -1.3338,-0.12672 -1.88867,-0.38281c-0.55487,-0.2561 -1.02406,-0.59857 -1.4082,-1.02539c-0.37347,-0.4375 -0.66054,-0.94333 -0.86328,-1.51954c-0.19208,-0.5762 -0.28907,-1.17903 -0.28907,-1.80859c0,-0.6509 0.10195,-1.26558 0.30469,-1.8418c0.20274,-0.58687 0.48981,-1.09271 0.86328,-1.51953c0.38413,-0.42682 0.84343,-0.76239 1.37695,-1.00781c0.53353,-0.25609 1.1314,-0.38477 1.79297,-0.38477c0.60822,0 1.17442,0.09009 1.69727,0.27149zM227.35948,195.1596c0.53352,0.1814 0.99281,0.44865 1.37695,0.80078c0.39481,0.34145 0.70366,0.76215 0.92774,1.26367c0.22408,0.50152 0.33593,1.07267 0.33593,1.71289c0,0.39482 -0.09503,0.69375 -0.28711,0.89649c-0.19206,0.20274 -0.41773,0.30468 -0.67382,0.30468h-5.85743c0,0.02134 0.00496,0.11144 0.01563,0.27149c0.02136,0.14939 0.05995,0.33151 0.11328,0.54492c0.06402,0.21341 0.14915,0.44208 0.25586,0.6875c0.11737,0.23475 0.27082,0.45351 0.46289,0.65625c0.19207,0.20274 0.42764,0.37301 0.70508,0.51172c0.2881,0.12805 0.63554,0.19336 1.04101,0.19336c0.33079,0 0.61291,-0.02675 0.84766,-0.08008c0.23475,-0.05335 0.4436,-0.13353 0.625,-0.24023c0.18139,-0.1067 0.34671,-0.24033 0.49609,-0.40039c0.1494,-0.17073 0.29788,-0.36772 0.44727,-0.5918c0.08536,-0.12807 0.18235,-0.22011 0.28906,-0.27344c0.10671,-0.05333 0.21857,-0.08008 0.33594,-0.08008c0.19207,0 0.36729,0.07027 0.52734,0.20899c0.16006,0.13872 0.24024,0.31393 0.24024,0.52734c0,0.12804 -0.06831,0.32008 -0.20703,0.57617c-0.13872,0.2561 -0.36439,0.51344 -0.67383,0.76953c-0.29878,0.2561 -0.6878,0.47981 -1.16797,0.67188c-0.48017,0.19207 -1.06618,0.28711 -1.75977,0.28711c-0.70425,0 -1.3338,-0.12672 -1.88867,-0.38281c-0.55487,-0.2561 -1.02407,-0.59857 -1.4082,-1.02539c-0.37348,-0.4375 -0.6625,-0.94333 -0.86524,-1.51954c-0.19206,-0.5762 -0.28906,-1.17903 -0.28906,-1.80859c0,-0.6509 0.10195,-1.26558 0.30469,-1.8418c0.20274,-0.58687 0.49177,-1.09271 0.86523,-1.51953c0.38414,-0.42682 0.84148,-0.76239 1.375,-1.00781c0.53353,-0.25609 1.13141,-0.38477 1.79297,-0.38477c0.60822,0 1.17441,0.09009 1.69727,0.27149zM247.10752,195.20843c0.5442,0.2134 1.0134,0.52225 1.40821,0.92773c0.3948,0.40548 0.70365,0.9014 0.92773,1.48828c0.22408,0.58688 0.33594,1.25997 0.33594,2.01758c0,0.75761 -0.11186,1.42875 -0.33594,2.01563c-0.22408,0.58687 -0.53293,1.0828 -0.92773,1.48828c-0.39481,0.39481 -0.86401,0.70065 -1.40821,0.91406c-0.53352,0.21341 -1.11458,0.31836 -1.74414,0.31836c-0.62956,0 -1.21752,-0.10495 -1.76171,-0.31836c-0.53353,-0.21341 -0.99777,-0.51925 -1.39258,-0.91406c-0.39481,-0.40548 -0.70366,-0.90141 -0.92774,-1.48828c-0.22408,-0.58688 -0.33594,-1.25802 -0.33594,-2.01563c0,-0.75761 0.11186,-1.4307 0.33594,-2.01758c0.22408,-0.58688 0.53293,-1.0828 0.92774,-1.48828c0.39481,-0.40548 0.85905,-0.71433 1.39258,-0.92773c0.54419,-0.21342 1.13215,-0.32032 1.76171,-0.32032c0.62956,0 1.21062,0.1069 1.74414,0.32032zM266.07823,195.17522c0.4695,0.1814 0.85357,0.40016 1.15234,0.65625c0.30945,0.2561 0.53811,0.52335 0.6875,0.80079c0.14939,0.27743 0.22461,0.513 0.22461,0.70507c0,0.24542 -0.08513,0.43746 -0.25586,0.57617c-0.17073,0.12805 -0.36276,0.19141 -0.57617,0.19141c-0.14939,0 -0.28797,-0.03663 -0.41602,-0.11133c-0.12806,-0.07469 -0.2201,-0.20336 -0.27343,-0.38476c-0.05335,-0.17073 -0.14344,-0.33604 -0.27149,-0.4961c-0.11738,-0.16006 -0.27278,-0.30359 -0.46484,-0.43164c-0.1814,-0.12804 -0.40016,-0.22999 -0.65625,-0.30468c-0.24542,-0.0747 -0.51763,-0.11133 -0.81641,-0.11133c-0.33078,0 -0.6614,0.06336 -0.99219,0.1914c-0.32011,0.11738 -0.61214,0.30941 -0.8789,0.57618c-0.2561,0.26676 -0.46495,0.61914 -0.625,1.05664c-0.16006,0.42682 -0.24024,0.94451 -0.24024,1.55273c0,0.60822 0.08018,1.12591 0.24024,1.55274c0.16005,0.42681 0.3689,0.7723 0.625,1.03906c0.26676,0.26676 0.55879,0.4657 0.8789,0.59375c0.33079,0.11737 0.66141,0.17578 0.99219,0.17578c0.29878,0 0.57099,-0.03859 0.81641,-0.11328c0.25609,-0.0747 0.47485,-0.17469 0.65625,-0.30274c0.19206,-0.12804 0.34746,-0.27353 0.46484,-0.43359c0.12806,-0.16005 0.21815,-0.32537 0.27149,-0.49609c0.05335,-0.1814 0.14539,-0.30812 0.27343,-0.38282c0.12805,-0.07469 0.26663,-0.11328 0.41602,-0.11328c0.21341,0 0.40544,0.07027 0.57617,0.20899c0.1814,0.12804 0.27149,0.30821 0.27149,0.54296c0,0.11738 -0.05345,0.31632 -0.16016,0.59376c-0.10671,0.26676 -0.29874,0.53897 -0.57617,0.8164c-0.27744,0.27743 -0.66151,0.52292 -1.15235,0.73633c-0.48017,0.21341 -1.09981,0.31836 -1.85742,0.31836c-0.62956,0 -1.21556,-0.11186 -1.75976,-0.33594c-0.53353,-0.23475 -0.99778,-0.56041 -1.39258,-0.97656c-0.39481,-0.41615 -0.70365,-0.91208 -0.92774,-1.48828c-0.22408,-0.58688 -0.33593,-1.2313 -0.33593,-1.93555c0,-0.71493 0.11185,-1.36129 0.33593,-1.9375c0.22409,-0.58688 0.53293,-1.08776 0.92774,-1.50391c0.3948,-0.41615 0.85905,-0.73685 1.39258,-0.96093c0.5442,-0.23476 1.1302,-0.35157 1.75976,-0.35157c0.64023,0 1.19651,0.09504 1.66602,0.28711zM274.97276,195.20843c0.54419,0.2134 1.01339,0.52225 1.4082,0.92773c0.39481,0.40548 0.70561,0.9014 0.92969,1.48828c0.22408,0.58688 0.33594,1.25997 0.33594,2.01758c0,0.75761 -0.11186,1.42875 -0.33594,2.01563c-0.22408,0.58687 -0.53488,1.0828 -0.92969,1.48828c-0.39481,0.39481 -0.86401,0.70065 -1.4082,0.91406c-0.53353,0.21341 -1.11458,0.31836 -1.74414,0.31836c-0.62956,0 -1.21557,-0.10495 -1.75977,-0.31836c-0.53352,-0.21341 -0.99776,-0.51925 -1.39258,-0.91406c-0.3948,-0.40548 -0.7056,-0.90141 -0.92968,-1.48828c-0.22408,-0.58688 -0.33594,-1.25802 -0.33594,-2.01563c0,-0.75761 0.11186,-1.4307 0.33594,-2.01758c0.22408,-0.58688 0.53488,-1.0828 0.92968,-1.48828c0.39482,-0.40548 0.85906,-0.71433 1.39258,-0.92773c0.5442,-0.21342 1.13021,-0.32032 1.75977,-0.32032c0.62956,0 1.21061,0.1069 1.74414,0.32032zM294.6212,195.1596c0.53352,0.1814 0.99281,0.44865 1.37695,0.80078c0.39481,0.34145 0.70365,0.76215 0.92773,1.26367c0.22409,0.50152 0.33594,1.07267 0.33594,1.71289c0,0.39482 -0.09503,0.69375 -0.28711,0.89649c-0.19206,0.20274 -0.41773,0.30468 -0.67383,0.30468h-5.85742c0,0.02134 0.00496,0.11144 0.01563,0.27149c0.02136,0.14939 0.05994,0.33151 0.11328,0.54492c0.06402,0.21341 0.14915,0.44208 0.25586,0.6875c0.11737,0.23475 0.27082,0.45351 0.46289,0.65625c0.19207,0.20274 0.42764,0.37301 0.70508,0.51172c0.2881,0.12805 0.63553,0.19336 1.04101,0.19336c0.33079,0 0.6129,-0.02675 0.84766,-0.08008c0.23475,-0.05335 0.4436,-0.13353 0.625,-0.24023c0.1814,-0.1067 0.34671,-0.24033 0.49609,-0.40039c0.14939,-0.17073 0.29788,-0.36772 0.44727,-0.5918c0.08536,-0.12807 0.18235,-0.22011 0.28906,-0.27344c0.10671,-0.05333 0.21856,-0.08008 0.33594,-0.08008c0.19206,0 0.36728,0.07027 0.52734,0.20899c0.16006,0.13872 0.24024,0.31393 0.24024,0.52734c0,0.12804 -0.06832,0.32008 -0.20704,0.57617c-0.13871,0.2561 -0.36438,0.51344 -0.67382,0.76953c-0.29878,0.2561 -0.6878,0.47981 -1.16797,0.67188c-0.48018,0.19207 -1.06618,0.28711 -1.75977,0.28711c-0.70425,0 -1.3338,-0.12672 -1.88867,-0.38281c-0.55487,-0.2561 -1.02406,-0.59857 -1.4082,-1.02539c-0.37347,-0.4375 -0.6625,-0.94333 -0.86524,-1.51954c-0.19206,-0.5762 -0.28711,-1.17903 -0.28711,-1.80859c0,-0.6509 0.1,-1.26558 0.30274,-1.8418c0.20274,-0.58687 0.49177,-1.09271 0.86523,-1.51953c0.38414,-0.42682 0.84148,-0.76239 1.375,-1.00781c0.53353,-0.25609 1.1314,-0.38477 1.79297,-0.38477c0.60822,0 1.17441,0.09009 1.69727,0.27149zM303.99815,195.17522c0.4695,0.1814 0.85356,0.40016 1.15234,0.65625c0.30944,0.2561 0.53812,0.52335 0.6875,0.80079c0.14939,0.27743 0.22461,0.513 0.22461,0.70507c0,0.24542 -0.08513,0.43746 -0.25586,0.57617c-0.17072,0.12805 -0.36276,0.19141 -0.57617,0.19141c-0.14939,0 -0.28797,-0.03663 -0.41601,-0.11133c-0.12806,-0.07469 -0.22011,-0.20336 -0.27344,-0.38476c-0.05336,-0.17073 -0.14344,-0.33604 -0.27149,-0.4961c-0.11738,-0.16006 -0.27277,-0.30359 -0.46484,-0.43164c-0.1814,-0.12804 -0.40016,-0.22999 -0.65625,-0.30468c-0.24542,-0.0747 -0.51763,-0.11133 -0.81641,-0.11133c-0.33078,0 -0.6614,0.06336 -0.99218,0.1914c-0.32012,0.11738 -0.61214,0.30941 -0.87891,0.57618c-0.25609,0.26676 -0.46494,0.61914 -0.625,1.05664c-0.16006,0.42682 -0.24023,0.94451 -0.24023,1.55273c0,0.60822 0.08017,1.12591 0.24023,1.55274c0.16006,0.42681 0.36891,0.7723 0.625,1.03906c0.26677,0.26676 0.55879,0.4657 0.87891,0.59375c0.33078,0.11737 0.6614,0.17578 0.99218,0.17578c0.29878,0 0.57099,-0.03859 0.81641,-0.11328c0.25609,-0.0747 0.47485,-0.17469 0.65625,-0.30274c0.19207,-0.12804 0.34746,-0.27353 0.46484,-0.43359c0.12807,-0.16005 0.21815,-0.32537 0.27149,-0.49609c0.05334,-0.1814 0.14539,-0.30812 0.27344,-0.38282c0.12804,-0.07469 0.26662,-0.11328 0.41601,-0.11328c0.21341,0 0.40545,0.07027 0.57617,0.20899c0.1814,0.12804 0.27149,0.30821 0.27149,0.54296c0,0.11738 -0.05345,0.31632 -0.16016,0.59376c-0.10671,0.26676 -0.29874,0.53897 -0.57617,0.8164c-0.27743,0.27743 -0.6615,0.52292 -1.15234,0.73633c-0.48018,0.21341 -1.09982,0.31836 -1.85743,0.31836c-0.62956,0 -1.21556,-0.11186 -1.75976,-0.33594c-0.53352,-0.23475 -0.99777,-0.56041 -1.39258,-0.97656c-0.39481,-0.41615 -0.70365,-0.91208 -0.92773,-1.48828c-0.22408,-0.58688 -0.33594,-1.2313 -0.33594,-1.93555c0,-0.71493 0.11186,-1.36129 0.33594,-1.9375c0.22408,-0.58688 0.53292,-1.08776 0.92773,-1.50391c0.39481,-0.41615 0.85906,-0.73685 1.39258,-0.96093c0.5442,-0.23476 1.1302,-0.35157 1.75976,-0.35157c0.64024,0 1.19652,0.09504 1.66602,0.28711zM321.08409,195.20843c0.5442,0.2134 1.01339,0.52225 1.4082,0.92773c0.39481,0.40548 0.70365,0.9014 0.92773,1.48828c0.22408,0.58688 0.33594,1.25997 0.33594,2.01758c0,0.75761 -0.11186,1.42875 -0.33594,2.01563c-0.22408,0.58687 -0.53292,1.0828 -0.92773,1.48828c-0.39481,0.39481 -0.864,0.70065 -1.4082,0.91406c-0.53353,0.21341 -1.11458,0.31836 -1.74414,0.31836c-0.62956,0 -1.21753,-0.10495 -1.76172,-0.31836c-0.53353,-0.21341 -0.99777,-0.51925 -1.39258,-0.91406c-0.39481,-0.40548 -0.70366,-0.90141 -0.92774,-1.48828c-0.22407,-0.58688 -0.33593,-1.25802 -0.33593,-2.01563c0,-0.75761 0.11186,-1.4307 0.33593,-2.01758c0.22409,-0.58688 0.53293,-1.0828 0.92774,-1.48828c0.39481,-0.40548 0.85905,-0.71433 1.39258,-0.92773c0.54419,-0.21342 1.13216,-0.32032 1.76172,-0.32032c0.62956,0 1.21061,0.1069 1.74414,0.32032zM170.10948,195.30413c0.45882,0.20274 0.84289,0.43141 1.15234,0.6875v-0.14258c0,-0.23475 0.08018,-0.43369 0.24024,-0.59375c0.16005,-0.17073 0.35704,-0.25586 0.59179,-0.25586c0.23476,0 0.43174,0.08513 0.5918,0.25586c0.17073,0.16006 0.25781,0.359 0.25781,0.59375v8.21094c0,0.53353 -0.11381,1.01758 -0.33789,1.45508c-0.21341,0.43748 -0.50544,0.81164 -0.8789,1.12109c-0.37347,0.32011 -0.81099,0.5656 -1.3125,0.73633c-0.50153,0.18139 -1.04099,0.27148 -1.61719,0.27148c-0.62956,0 -1.16903,-0.08018 -1.61719,-0.24023c-0.44816,-0.14939 -0.82037,-0.32956 -1.11914,-0.54297c-0.29878,-0.20274 -0.51754,-0.41654 -0.65625,-0.64062c-0.13872,-0.21341 -0.20899,-0.38368 -0.20899,-0.51172c0,-0.21342 0.07027,-0.40049 0.20899,-0.56055c0.13871,-0.16005 0.30402,-0.24023 0.49609,-0.24023c0.19207,0 0.3841,0.10194 0.57618,0.30468c0.13871,0.16006 0.27729,0.29864 0.41601,0.41602c0.13871,0.12805 0.29216,0.23495 0.46289,0.32031c0.1814,0.08538 0.3853,0.14874 0.60938,0.19141c0.23475,0.04266 0.51191,0.06445 0.83203,0.06445c0.34146,0 0.66216,-0.04355 0.96093,-0.12891c0.29878,-0.07469 0.55913,-0.20336 0.78321,-0.38476c0.22408,-0.17073 0.40125,-0.39444 0.52929,-0.67188c0.12805,-0.26676 0.19141,-0.58551 0.19141,-0.95898v-1.05664c-0.10671,0.11737 -0.24034,0.251 -0.40039,0.40039c-0.16006,0.13872 -0.35209,0.27039 -0.57617,0.39844c-0.22408,0.12804 -0.48443,0.24185 -0.7832,0.33789c-0.29878,0.08536 -0.64621,0.12695 -1.04102,0.12695c-0.57621,0 -1.11072,-0.09008 -1.60156,-0.27148c-0.48018,-0.1814 -0.89592,-0.45857 -1.24805,-0.83204c-0.34145,-0.37346 -0.60871,-0.85452 -0.80078,-1.4414c-0.19207,-0.58688 -0.28711,-1.27979 -0.28711,-2.08008c0,-0.81096 0.1069,-1.50582 0.32031,-2.08203c0.21341,-0.58688 0.49553,-1.06599 0.84766,-1.43945c0.3628,-0.38414 0.77855,-0.66626 1.24805,-0.84766c0.48017,-0.1814 0.98795,-0.27344 1.52148,-0.27344c0.6509,0 1.20027,0.10195 1.64844,0.30469zM179.48838,195.30413c0.45884,0.20274 0.8429,0.43141 1.15235,0.6875v-0.14258c0,-0.23475 0.08018,-0.43369 0.24023,-0.59375c0.16006,-0.17073 0.35705,-0.25586 0.5918,-0.25586c0.23475,0 0.43174,0.08513 0.5918,0.25586c0.17072,0.16006 0.25585,0.359 0.25585,0.59375v8.21094c0.00001,0.53353 -0.11185,1.01758 -0.33593,1.45508c-0.21342,0.43748 -0.5074,0.81164 -0.88086,1.12109c-0.37347,0.32011 -0.81099,0.5656 -1.3125,0.73633c-0.50152,0.18139 -1.03903,0.27148 -1.61524,0.27148c-0.62956,0 -1.16902,-0.08018 -1.61718,-0.24023c-0.44816,-0.14939 -0.82232,-0.32956 -1.1211,-0.54297c-0.29877,-0.20274 -0.51753,-0.41654 -0.65625,-0.64062c-0.13871,-0.21341 -0.20703,-0.38368 -0.20703,-0.51172c0,-0.21342 0.06832,-0.40049 0.20703,-0.56055c0.13872,-0.16005 0.30403,-0.24023 0.4961,-0.24023c0.19206,0 0.38409,0.10194 0.57617,0.30468c0.13871,0.16006 0.27925,0.29864 0.41797,0.41602c0.13871,0.12805 0.29215,0.23495 0.46289,0.32031c0.18139,0.08538 0.38529,0.14874 0.60937,0.19141c0.23475,0.04266 0.51191,0.06445 0.83203,0.06445c0.34146,0 0.66021,-0.04355 0.95899,-0.12891c0.29877,-0.07469 0.56107,-0.20336 0.78515,-0.38476c0.22408,-0.17073 0.3993,-0.39444 0.52735,-0.67188c0.12804,-0.26676 0.19336,-0.58551 0.19336,-0.95898v-1.05664c-0.10671,0.11737 -0.24033,0.251 -0.40039,0.40039c-0.16006,0.13872 -0.3521,0.27039 -0.57617,0.39844c-0.22409,0.12804 -0.48639,0.24185 -0.78516,0.33789c-0.29877,0.08536 -0.64425,0.12695 -1.03906,0.12695c-0.57621,0 -1.11073,-0.09008 -1.60157,-0.27148c-0.48017,-0.1814 -0.89592,-0.45857 -1.24804,-0.83204c-0.34146,-0.37346 -0.60872,-0.85452 -0.80078,-1.4414c-0.19208,-0.58688 -0.28711,-1.27979 -0.28711,-2.08008c0,-0.81096 0.1069,-1.50582 0.32031,-2.08203c0.21341,-0.58688 0.49553,-1.06599 0.84765,-1.43945c0.3628,-0.38414 0.77855,-0.66626 1.24805,-0.84766c0.48018,-0.1814 0.98797,-0.27344 1.52149,-0.27344c0.6509,0 1.20027,0.10195 1.64843,0.30469zM210.65831,195.2553c0.16006,0.16006 0.24023,0.359 0.24023,0.59375v7.57031c0,0.23476 -0.08017,0.4367 -0.24023,0.60743c-0.16006,0.16006 -0.35705,0.24023 -0.5918,0.24023c-0.23475,0 -0.4367,-0.08017 -0.60742,-0.24023c-0.16006,-0.17073 -0.24024,-0.37267 -0.24024,-0.60743v-7.57031c0,-0.23475 0.08018,-0.43369 0.24024,-0.59375c0.17072,-0.17073 0.37267,-0.25586 0.60742,-0.25586c0.23475,0 0.43174,0.08513 0.5918,0.25586zM232.38487,195.2553c0.16006,0.16006 0.24023,0.359 0.24023,0.59375v0.30274c0.04268,-0.04268 0.12286,-0.12782 0.24024,-0.25586c0.11737,-0.12805 0.26286,-0.25672 0.43359,-0.38477c0.1814,-0.13872 0.37838,-0.25553 0.5918,-0.35156c0.22408,-0.10671 0.4577,-0.16016 0.70312,-0.16016c0.23476,0 0.4337,0.08513 0.59375,0.25586c0.17074,0.16006 0.25586,0.359 0.25586,0.59375c0,0.22408 -0.08512,0.42107 -0.25586,0.5918c-0.16005,0.16006 -0.35899,0.24023 -0.59375,0.24023c-0.40548,0 -0.73609,0.09505 -0.99218,0.28711c-0.2561,0.1814 -0.45804,0.40016 -0.60743,0.65625c-0.13873,0.2561 -0.23573,0.52335 -0.28906,0.80078c-0.05333,0.27744 -0.08008,0.5061 -0.08008,0.6875v4.30664c0,0.23476 -0.08017,0.4367 -0.24023,0.60743c-0.16006,0.16006 -0.35705,0.24023 -0.5918,0.24023c-0.23475,0 -0.43669,-0.08017 -0.60742,-0.24023c-0.16006,-0.17073 -0.24024,-0.37267 -0.24024,-0.60743v-7.57031c0,-0.23475 0.08018,-0.43369 0.24024,-0.59375c0.17073,-0.17073 0.37267,-0.25586 0.60742,-0.25586c0.23475,0 0.43174,0.08513 0.5918,0.25586zM237.73057,195.2553c0.16006,0.16006 0.24024,0.359 0.24024,0.59375v0.30274c0.04268,-0.04268 0.12285,-0.12782 0.24023,-0.25586c0.11737,-0.12805 0.26287,-0.25672 0.43359,-0.38477c0.1814,-0.13872 0.37839,-0.25553 0.5918,-0.35156c0.22408,-0.10671 0.45771,-0.16016 0.70313,-0.16016c0.23475,0 0.43369,0.08513 0.59375,0.25586c0.17073,0.16006 0.25586,0.359 0.25586,0.59375c0,0.22408 -0.08513,0.42107 -0.25586,0.5918c-0.16006,0.16006 -0.359,0.24023 -0.59375,0.24023c-0.40548,0 -0.7361,0.09505 -0.99219,0.28711c-0.2561,0.1814 -0.45804,0.40016 -0.60742,0.65625c-0.13874,0.2561 -0.23573,0.52335 -0.28907,0.80078c-0.05333,0.27744 -0.08007,0.5061 -0.08007,0.6875v4.30664c0,0.23476 -0.08018,0.4367 -0.24024,0.60743c-0.16005,0.16006 -0.35704,0.24023 -0.5918,0.24023c-0.23475,0 -0.43669,-0.08017 -0.60742,-0.24023c-0.16006,-0.17073 -0.24023,-0.37267 -0.24023,-0.60743v-7.57031c0,-0.23475 0.08017,-0.43369 0.24023,-0.59375c0.17073,-0.17073 0.37267,-0.25586 0.60742,-0.25586c0.23476,0 0.43175,0.08513 0.5918,0.25586zM252.17393,195.2553c0.16005,0.16006 0.24024,0.359 0.24024,0.59375v0.30274c0.04268,-0.04268 0.12286,-0.12782 0.24023,-0.25586c0.11737,-0.12805 0.26091,-0.25672 0.43164,-0.38477c0.18139,-0.13872 0.37838,-0.25553 0.5918,-0.35156c0.22408,-0.10671 0.45965,-0.16016 0.70507,-0.16016c0.23476,0 0.43174,0.08513 0.5918,0.25586c0.17073,0.16006 0.25586,0.359 0.25586,0.59375c0,0.22408 -0.08513,0.42107 -0.25586,0.5918c-0.16006,0.16006 -0.35704,0.24023 -0.5918,0.24023c-0.40547,0 -0.7361,0.09505 -0.99218,0.28711c-0.2561,0.1814 -0.45999,0.40016 -0.60938,0.65625c-0.13874,0.2561 -0.23377,0.52335 -0.28711,0.80078c-0.05333,0.27744 -0.08008,0.5061 -0.08007,0.6875v4.30664c0,0.23476 -0.08019,0.4367 -0.24024,0.60743c-0.16006,0.16006 -0.35704,0.24023 -0.5918,0.24023c-0.23474,0 -0.43864,-0.08017 -0.60937,-0.24023c-0.16005,-0.17073 -0.23828,-0.37267 -0.23828,-0.60743v-7.57031c0,-0.23475 0.07823,-0.43369 0.23828,-0.59375c0.17073,-0.17073 0.37463,-0.25586 0.60937,-0.25586c0.23476,0 0.43174,0.08513 0.5918,0.25586zM280.02745,195.2553c0.16006,0.16006 0.24023,0.359 0.24023,0.59375v0.30274c0.04268,-0.04268 0.12285,-0.12782 0.24023,-0.25586c0.11738,-0.12805 0.26092,-0.25672 0.43165,-0.38477c0.1814,-0.13872 0.38033,-0.25553 0.59375,-0.35156c0.22408,-0.10671 0.4577,-0.16016 0.70312,-0.16016c0.23475,0 0.43174,0.08513 0.5918,0.25586c0.17072,0.16006 0.25586,0.359 0.25586,0.59375c0,0.22408 -0.08514,0.42107 -0.25586,0.5918c-0.16006,0.16006 -0.35705,0.24023 -0.5918,0.24023c-0.40548,0 -0.73609,0.09505 -0.99219,0.28711c-0.25608,0.1814 -0.45803,0.40016 -0.60742,0.65625c-0.13873,0.2561 -0.23573,0.52335 -0.28906,0.80078c-0.05333,0.27744 -0.08008,0.5061 -0.08008,0.6875v4.30664c0,0.23476 -0.08017,0.4367 -0.24023,0.60743c-0.16006,0.16006 -0.35705,0.24023 -0.5918,0.24023c-0.23475,0 -0.4367,-0.08017 -0.60742,-0.24023c-0.16006,-0.17073 -0.24024,-0.37267 -0.24024,-0.60743v-7.57031c0,-0.23475 0.08018,-0.43369 0.24024,-0.59375c0.17072,-0.17073 0.37267,-0.25586 0.60742,-0.25586c0.23475,0 0.43174,0.08513 0.5918,0.25586zM285.37315,195.2553c0.16006,0.16006 0.24023,0.359 0.24023,0.59375v0.30274c0.04268,-0.04268 0.12286,-0.12782 0.24024,-0.25586c0.11737,-0.12805 0.26091,-0.25672 0.43164,-0.38477c0.1814,-0.13872 0.38034,-0.25553 0.59375,-0.35156c0.22408,-0.10671 0.4577,-0.16016 0.70312,-0.16016c0.23476,0 0.43175,0.08513 0.5918,0.25586c0.17073,0.16006 0.25586,0.359 0.25586,0.59375c0,0.22408 -0.08513,0.42107 -0.25586,0.5918c-0.16005,0.16006 -0.35704,0.24023 -0.5918,0.24023c-0.40548,0 -0.73609,0.09505 -0.99218,0.28711c-0.2561,0.1814 -0.45804,0.40016 -0.60743,0.65625c-0.13873,0.2561 -0.23572,0.52335 -0.28906,0.80078c-0.05333,0.27744 -0.08008,0.5061 -0.08008,0.6875v4.30664c0,0.23476 -0.08017,0.4367 -0.24023,0.60743c-0.16005,0.16006 -0.35704,0.24023 -0.5918,0.24023c-0.23475,0 -0.43669,-0.08017 -0.60742,-0.24023c-0.16006,-0.17073 -0.24023,-0.37267 -0.24023,-0.60743v-7.57031c0,-0.23475 0.08017,-0.43369 0.24023,-0.59375c0.17073,-0.17073 0.37267,-0.25586 0.60742,-0.25586c0.23476,0 0.43175,0.08513 0.5918,0.25586zM313.72667,195.2553c0.16005,0.16006 0.24023,0.359 0.24023,0.59375v7.57031c0,0.23476 -0.08018,0.4367 -0.24023,0.60743c-0.16006,0.16006 -0.35705,0.24023 -0.5918,0.24023c-0.23475,0 -0.43669,-0.08017 -0.60742,-0.24023c-0.16006,-0.17073 -0.24024,-0.37267 -0.24024,-0.60743v-7.57031c0,-0.23475 0.08018,-0.43369 0.24024,-0.59375c0.17073,-0.17073 0.37267,-0.25586 0.60742,-0.25586c0.23475,0 0.43174,0.08513 0.5918,0.25586zM326.13877,195.2553c0.16006,0.16006 0.24024,0.359 0.24024,0.59375v0.28711c0.10671,-0.09603 0.23342,-0.20789 0.38281,-0.33594c0.16006,-0.13871 0.35209,-0.26738 0.57617,-0.38476c0.22408,-0.11738 0.48143,-0.21242 0.76953,-0.28711c0.29878,-0.08537 0.6393,-0.12891 1.02344,-0.12891c0.39481,0 0.77392,0.0584 1.13672,0.17578c0.37347,0.1067 0.70409,0.27201 0.99219,0.4961c0.2881,0.22408 0.51872,0.5032 0.68945,0.83398c0.17073,0.33078 0.25586,0.71485 0.25586,1.15235v5.76171c0,0.23476 -0.08513,0.4367 -0.25586,0.60743c-0.16005,0.16006 -0.359,0.24023 -0.59375,0.24023c-0.23475,0 -0.43174,-0.08017 -0.5918,-0.24023c-0.16006,-0.17073 -0.24023,-0.37267 -0.24023,-0.60743v-5.57031c0,-0.23475 -0.05841,-0.4436 -0.17578,-0.625c-0.10671,-0.19207 -0.25024,-0.34552 -0.43164,-0.46289c-0.17073,-0.12807 -0.36772,-0.22506 -0.5918,-0.28906c-0.21341,-0.064 -0.42721,-0.0957 -0.64062,-0.0957c-0.35213,0 -0.67284,0.06336 -0.96094,0.1914c-0.28811,0.11738 -0.53359,0.28268 -0.73633,0.4961c-0.19207,0.2134 -0.34056,0.47075 -0.44726,0.76953c-0.10671,0.2881 -0.16016,0.6019 -0.16016,0.94336v4.64257c0,0.23476 -0.08018,0.4367 -0.24024,0.60743c-0.16006,0.16006 -0.35704,0.24023 -0.59179,0.24023c-0.23475,0 -0.43864,-0.08017 -0.60938,-0.24023c-0.16005,-0.17073 -0.24023,-0.37267 -0.24023,-0.60743v-7.57031c0,-0.23475 0.08018,-0.43369 0.24023,-0.59375c0.17074,-0.17073 0.37463,-0.25586 0.60938,-0.25586c0.23475,0 0.43173,0.08513 0.59179,0.25586zM158.3751,196.4721c-0.33078,0.12805 -0.61981,0.33194 -0.86523,0.60937c-0.23476,0.26677 -0.42183,0.61225 -0.56055,1.03907c-0.13871,0.42682 -0.20703,0.9346 -0.20703,1.52148c0,0.58688 0.06832,1.09271 0.20703,1.51953c0.13872,0.41615 0.32579,0.76358 0.56055,1.04102c0.24542,0.26676 0.53445,0.46871 0.86523,0.60742c0.34146,0.12805 0.7087,0.19336 1.10352,0.19336c0.3948,0 0.75906,-0.06531 1.08984,-0.19336c0.34146,-0.13871 0.62853,-0.34066 0.86328,-0.60742c0.24542,-0.27744 0.43745,-0.62487 0.57617,-1.04102c0.13872,-0.42682 0.20899,-0.93265 0.20899,-1.51953c0,-0.58688 -0.07027,-1.09466 -0.20899,-1.52148c-0.13872,-0.42682 -0.33075,-0.7723 -0.57617,-1.03907c-0.23475,-0.27743 -0.52182,-0.48132 -0.86328,-0.60937c-0.33078,-0.13871 -0.69504,-0.20703 -1.08984,-0.20703c-0.39482,0 -0.76206,0.06832 -1.10352,0.20703zM189.79893,196.44085c-0.27743,0.11738 -0.513,0.26587 -0.70508,0.44726c-0.18139,0.17074 -0.32493,0.36277 -0.43164,0.57618c-0.10672,0.21341 -0.1869,0.41039 -0.24023,0.59179c-0.05334,0.1814 -0.08504,0.34175 -0.09571,0.48047c-0.01066,0.12806 -0.01562,0.20328 -0.01562,0.22461h5.18555c0,-0.33079 -0.05345,-0.64458 -0.16016,-0.94336c-0.1067,-0.29877 -0.27201,-0.56107 -0.49609,-0.78515c-0.21341,-0.23476 -0.49058,-0.42183 -0.83204,-0.56055c-0.34145,-0.13871 -0.74233,-0.20703 -1.20117,-0.20703c-0.3948,0 -0.73038,0.05841 -1.00781,0.17578zM224.68565,196.44085c-0.27743,0.11738 -0.51106,0.26587 -0.70313,0.44726c-0.1814,0.17074 -0.32493,0.36277 -0.43164,0.57618c-0.10672,0.21341 -0.1869,0.41039 -0.24023,0.59179c-0.05333,0.1814 -0.08699,0.34175 -0.09766,0.48047c-0.01066,0.12806 -0.01562,0.20328 -0.01562,0.22461h5.18554c0,-0.33079 -0.05344,-0.64458 -0.16015,-0.94336c-0.10671,-0.29877 -0.27201,-0.56107 -0.49609,-0.78515c-0.21342,-0.23476 -0.49058,-0.42183 -0.83204,-0.56055c-0.34146,-0.13871 -0.74039,-0.20703 -1.19922,-0.20703c-0.39481,0 -0.73233,0.05841 -1.00976,0.17578zM244.25791,196.4721c-0.33078,0.12805 -0.61786,0.33194 -0.86328,0.60937c-0.23475,0.26677 -0.42183,0.61225 -0.56054,1.03907c-0.13872,0.42682 -0.20899,0.9346 -0.20899,1.52148c0,0.58688 0.07027,1.09271 0.20899,1.51953c0.13871,0.41615 0.32579,0.76358 0.56054,1.04102c0.24542,0.26676 0.5325,0.46871 0.86328,0.60742c0.34146,0.12805 0.71067,0.19336 1.10547,0.19336c0.39482,0 0.75711,-0.06531 1.08789,-0.19336c0.34146,-0.13871 0.62853,-0.34066 0.86329,-0.60742c0.24542,-0.27744 0.43745,-0.62487 0.57617,-1.04102c0.13872,-0.42682 0.20898,-0.93265 0.20898,-1.51953c0,-0.58688 -0.07026,-1.09466 -0.20898,-1.52148c-0.13872,-0.42682 -0.33075,-0.7723 -0.57617,-1.03907c-0.23476,-0.27743 -0.52183,-0.48132 -0.86329,-0.60937c-0.33078,-0.13871 -0.69307,-0.20703 -1.08789,-0.20703c-0.3948,0 -0.764,0.06832 -1.10547,0.20703zM272.1251,196.4721c-0.33078,0.12805 -0.61981,0.33194 -0.86523,0.60937c-0.23476,0.26677 -0.42184,0.61225 -0.56055,1.03907c-0.13872,0.42682 -0.20703,0.9346 -0.20703,1.52148c0,0.58688 0.06831,1.09271 0.20703,1.51953c0.13871,0.41615 0.32579,0.76358 0.56055,1.04102c0.24542,0.26676 0.53445,0.46871 0.86523,0.60742c0.34146,0.12805 0.70871,0.19336 1.10352,0.19336c0.3948,0 0.7571,-0.06531 1.08789,-0.19336c0.34146,-0.13871 0.63048,-0.34066 0.86523,-0.60742c0.24542,-0.27744 0.43746,-0.62487 0.57617,-1.04102c0.13873,-0.42682 0.20704,-0.93265 0.20704,-1.51953c0,-0.58688 -0.06831,-1.09466 -0.20704,-1.52148c-0.13871,-0.42682 -0.33075,-0.7723 -0.57617,-1.03907c-0.23475,-0.27743 -0.52377,-0.48132 -0.86523,-0.60937c-0.33079,-0.13871 -0.69309,-0.20703 -1.08789,-0.20703c-0.39481,0 -0.76206,0.06832 -1.10352,0.20703zM291.94737,196.44085c-0.27744,0.11738 -0.51106,0.26587 -0.70313,0.44726c-0.1814,0.17074 -0.32493,0.36277 -0.43164,0.57618c-0.10672,0.21341 -0.1869,0.41039 -0.24023,0.59179c-0.05334,0.1814 -0.08699,0.34175 -0.09766,0.48047c-0.01066,0.12806 -0.01562,0.20328 -0.01562,0.22461h5.18554c0,-0.33079 -0.0515,-0.64458 -0.1582,-0.94336c-0.10671,-0.29877 -0.27397,-0.56107 -0.49805,-0.78515c-0.21341,-0.23476 -0.49057,-0.42183 -0.83203,-0.56055c-0.34146,-0.13871 -0.74038,-0.20703 -1.19922,-0.20703c-0.3948,0 -0.73233,0.05841 -1.00976,0.17578zM318.23448,196.4721c-0.33078,0.12805 -0.61786,0.33194 -0.86328,0.60937c-0.23475,0.26677 -0.42183,0.61225 -0.56055,1.03907c-0.13871,0.42682 -0.20898,0.9346 -0.20898,1.52148c0,0.58688 0.07027,1.09271 0.20898,1.51953c0.13872,0.41615 0.3258,0.76358 0.56055,1.04102c0.24542,0.26676 0.5325,0.46871 0.86328,0.60742c0.34146,0.12805 0.71066,0.19336 1.10547,0.19336c0.39481,0 0.7571,-0.06531 1.08789,-0.19336c0.34145,-0.13871 0.62852,-0.34066 0.86328,-0.60742c0.24542,-0.27744 0.43745,-0.62487 0.57617,-1.04102c0.13871,-0.42682 0.20898,-0.93265 0.20898,-1.51953c0,-0.58688 -0.07027,-1.09466 -0.20898,-1.52148c-0.13872,-0.42682 -0.33075,-0.7723 -0.57617,-1.03907c-0.23476,-0.27743 -0.52183,-0.48132 -0.86328,-0.60937c-0.33079,-0.13871 -0.69308,-0.20703 -1.08789,-0.20703c-0.39481,0 -0.76401,0.06832 -1.10547,0.20703zM166.79698,197.20843c-0.4695,0.55486 -0.70508,1.36654 -0.70508,2.43359c0,1.06705 0.23558,1.87677 0.70508,2.43164c0.4695,0.54419 1.11391,0.81641 1.93554,0.81641c0.82163,0 1.46305,-0.27222 1.92188,-0.81641c0.46951,-0.55487 0.70312,-1.36459 0.70312,-2.43164c0,-1.06705 -0.23361,-1.87873 -0.70312,-2.43359c-0.45883,-0.55487 -1.10025,-0.83203 -1.92188,-0.83203c-0.82163,0 -1.46604,0.27716 -1.93554,0.83203zM176.17393,197.20843c-0.4695,0.55486 -0.70312,1.36654 -0.70312,2.43359c0,1.06705 0.23362,1.87677 0.70312,2.43164c0.46951,0.54419 1.11587,0.81641 1.9375,0.81641c0.82163,0 1.46109,-0.27222 1.91992,-0.81641c0.4695,-0.55487 0.70508,-1.36459 0.70508,-2.43164c0,-1.06705 -0.23558,-1.87873 -0.70508,-2.43359c-0.45883,-0.55487 -1.09829,-0.83203 -1.91992,-0.83203c-0.82163,0 -1.46799,0.27716 -1.9375,0.83203z" id="path959" fill="#1eff00" stroke="none" stroke-width="1.00036" stroke-miterlimit="10" stroke-dashoffset="0"/></g></g></svg>