<svg version="1.1" xmlns="http://www.w3.org/2000/svg" xmlns:xlink="http://www.w3.org/1999/xlink" width="372.21484" height="68.64258"><g transform="translate(-53.89258,-145.67871)"><g data-paper-data="{&quot;isPaintingLayer&quot;:true}" fill-rule="nonzero" stroke-linecap="butt" stroke-linejoin="miter" stroke-dasharray="" style="mix-blend-mode: normal"><path d="M425.00976,146.42871c0.19313,0 0.34766,0.15452 0.34766,0.34766v66.44531c0,0.19313 -0.15453,0.34961 -0.34766,0.34961h-370.01757c-0.19313,0 -0.34961,-0.15648 -0.34961,-0.34961v-66.44531c0,-0.19313 0.15648,-0.34766 0.34961,-0.34766z" data-paper-data="{&quot;origPos&quot;:null}" id="rect815-0-0-8-6-6" fill="#1e1e1e" stroke="#1eff00" stroke-width="1.5" stroke-miterlimit="4" stroke-dashoffset="17.35"/><path d="M69.10258,187.56505c1.27593,0 2.33409,4.30813 3.36631,5.0581c1.03226,0.74997 5.45654,0.42505 5.85082,1.63854c0.39428,1.21349 -3.37603,3.55109 -3.77031,4.76459c-0.39428,1.21349 1.28194,5.32078 0.24983,6.07079c-1.03226,0.74997 -4.42057,-2.11344 -5.6965,-2.11344c-1.27593,0 -4.66424,2.86341 -5.6965,2.11344c-1.03226,-0.75001 0.64396,-4.8573 0.24983,-6.07079c-0.39428,-1.21349 -4.16459,-3.55109 -3.77031,-4.76459c0.39428,-1.21349 4.81856,-0.88857 5.85082,-1.63854c1.03223,-0.74997 2.09038,-5.0581 3.36631,-5.0581z" data-paper-data="{&quot;origPos&quot;:null}" id="path1428-5-07-2-6-0" fill="#1eff00" stroke="none" stroke-width="0.88188" stroke-miterlimit="4" stroke-dashoffset="17.35"/><path d="M92.03963,187.56505c1.27593,0 2.33405,4.30813 3.36631,5.0581c1.03226,0.74997 5.4565,0.42505 5.85078,1.63854c0.39428,1.21349 -3.37599,3.55109 -3.77027,4.76459c-0.39432,1.21349 1.2819,5.32078 0.24945,6.07079c-1.03223,0.74997 -4.42054,-2.11344 -5.69647,-2.11344c-1.27597,0 -4.66424,2.86341 -5.69651,2.11344c-1.03226,-0.75001 0.64396,-4.8573 0.24945,-6.07079c-0.39428,-1.21349 -4.16455,-3.55109 -3.77027,-4.76459c0.39428,-1.21349 4.81852,-0.88857 5.85078,-1.63854c1.03226,-0.74997 2.09038,-5.0581 3.36635,-5.0581z" data-paper-data="{&quot;origPos&quot;:null}" id="path1428-0-2-53-3-8-7" fill="#1eff00" stroke="none" stroke-width="0.88188" stroke-miterlimit="4" stroke-dashoffset="17.35"/><path d="M114.97664,194.18652c0.31899,0 0.58352,1.07705 0.84159,1.26452c0.25807,0.18746 1.36413,0.1062 1.4627,0.40966c0.09857,0.3035 -0.84401,0.88777 -0.94258,1.19112c-0.09857,0.3035 0.32047,1.3302 0.06248,1.51771c-0.25807,0.18746 -1.10514,-0.52834 -1.42413,-0.52834c-0.31899,0 -1.16606,0.71584 -1.42413,0.52834c-0.25807,-0.18746 0.16097,-1.21432 0.06244,-1.51771c-0.09857,-0.3035 -1.04115,-0.88777 -0.94258,-1.19112c0.09857,-0.3035 1.20464,-0.22224 1.46271,-0.40966c0.25807,-0.18746 0.5226,-1.26452 0.84158,-1.26452z" data-paper-data="{&quot;origPos&quot;:null}" id="path1428-0-6-3-11-6-9-6" fill="#1eff00" stroke="none" stroke-width="0.22047" stroke-miterlimit="4" stroke-dashoffset="17.35"/><path d="M67.49024,152.0166c0.62933,0.27734 1.16723,0.61315 1.61523,1.00781c0.45866,0.384 0.8113,0.79508 1.05664,1.23242c0.256,0.43732 0.38281,0.81477 0.38281,1.13477c0,0.2881 -0.10697,0.51887 -0.32031,0.68945c-0.21332,0.16 -0.44216,0.23828 -0.6875,0.23828c-0.18133,0 -0.35172,-0.04154 -0.51172,-0.12695c-0.16,-0.09592 -0.27194,-0.25143 -0.33594,-0.46484c-0.09601,-0.29866 -0.22973,-0.59091 -0.40039,-0.87891c-0.17067,-0.28808 -0.38958,-0.55057 -0.65625,-0.78516c-0.26667,-0.23476 -0.58069,-0.42001 -0.94336,-0.55859c-0.352,-0.14942 -0.76309,-0.22461 -1.23242,-0.22461c-0.53333,0 -1.03457,0.11698 -1.50391,0.35156c-0.46933,0.224 -0.88042,0.5499 -1.23242,0.97656c-0.34134,0.416 -0.61179,0.92219 -0.81445,1.51953c-0.20266,0.59732 -0.30469,1.264 -0.30469,2c0,0.736 0.10203,1.40266 0.30469,2c0.20267,0.59734 0.47312,1.11045 0.81445,1.53711c0.352,0.42676 0.76309,0.75565 1.23242,0.99023c0.46933,0.224 0.97057,0.33594 1.50391,0.33594c0.46933,0 0.88042,-0.06845 1.23242,-0.20703c0.36267,-0.14942 0.67669,-0.34159 0.94336,-0.57617c0.26667,-0.23466 0.48559,-0.49521 0.65625,-0.78321c0.17066,-0.29866 0.30439,-0.5978 0.40039,-0.89648c0.064,-0.21324 0.17594,-0.36185 0.33594,-0.44727c0.15999,-0.096 0.33038,-0.14453 0.51172,-0.14453c0.24532,0 0.47416,0.08023 0.6875,0.24023c0.21334,0.16001 0.32031,0.38388 0.32031,0.67188c0,0.23466 -0.09511,0.5655 -0.28711,0.99219c-0.192,0.42666 -0.49115,0.85264 -0.89648,1.27929c-0.40533,0.416 -0.93332,0.77855 -1.58398,1.0879c-0.64,0.30934 -1.41365,0.46484 -2.32031,0.46484c-0.96,0 -1.80201,-0.18224 -2.52734,-0.54492c-0.71466,-0.36266 -1.31297,-0.84708 -1.79297,-1.45508c-0.46932,-0.608 -0.82692,-1.30142 -1.07227,-2.08008c-0.23466,-0.78934 -0.35156,-1.6115 -0.35156,-2.46484c0,-0.84266 0.1169,-1.65792 0.35156,-2.44727c0.24533,-0.78932 0.60293,-1.48274 1.07227,-2.08008c0.48,-0.608 1.0783,-1.09437 1.79297,-1.45703c0.72533,-0.36268 1.56734,-0.54297 2.52734,-0.54297c0.736,0 1.41454,0.13867 2.0332,0.41602zM73.11524,152.09668c0.192,0.18132 0.28711,0.40519 0.28711,0.67187c0,0.256 -0.09511,0.47987 -0.28711,0.67187c-0.18133,0.18142 -0.40025,0.27148 -0.65625,0.27148c-0.26666,0 -0.4955,-0.09007 -0.6875,-0.27148c-0.18134,-0.192 -0.27148,-0.41587 -0.27148,-0.67187c0,-0.26658 0.09014,-0.49046 0.27148,-0.67187c0.192,-0.18142 0.42083,-0.27344 0.6875,-0.27344c0.25599,0 0.47491,0.09202 0.65625,0.27344zM76.9961,152.7998c0.17066,0.1601 0.25586,0.35721 0.25586,0.5918v2h0.88086c0.20267,0 0.37306,0.07519 0.51172,0.22461c0.14934,0.13876 0.22461,0.30914 0.22461,0.51172c0,0.21342 -0.07527,0.38876 -0.22461,0.52734c-0.13868,0.13858 -0.30906,0.20898 -0.51172,0.20898h-0.88086v6.73632c0,0.23476 -0.0852,0.43684 -0.25586,0.60743c-0.16001,0.16 -0.35714,0.24023 -0.5918,0.24023c-0.23467,0 -0.4318,-0.08023 -0.5918,-0.24023c-0.16,-0.17076 -0.24023,-0.37284 -0.24023,-0.60743v-6.73632h-0.5918c-0.20266,0 -0.378,-0.0704 -0.52734,-0.20898c-0.13866,-0.13858 -0.20898,-0.31393 -0.20898,-0.52734c0,-0.20276 0.07033,-0.37314 0.20898,-0.51172c0.14934,-0.14942 0.32468,-0.22461 0.52734,-0.22461h0.5918v-2c0,-0.23468 0.08023,-0.4318 0.24023,-0.5918c0.16001,-0.16 0.35714,-0.24023 0.5918,-0.24023c0.23467,0 0.4318,0.08023 0.5918,0.24023zM98.85156,155.26465c0.416,0.12807 0.75872,0.29156 1.02539,0.49414c0.10666,0.08542 0.2186,0.19231 0.33594,0.32031c0.11734,0.11724 0.22928,0.25097 0.33594,0.40039c0.10666,0.13876 0.19186,0.27743 0.25586,0.41602c0.07466,0.13883 0.11133,0.26256 0.11133,0.36914c0,0.24527 -0.09511,0.44238 -0.28711,0.5918c-0.192,0.13858 -0.401,0.20703 -0.625,0.20703c-0.13866,0 -0.26547,-0.0317 -0.38281,-0.0957c-0.11734,-0.07458 -0.20944,-0.18652 -0.27344,-0.33594c-0.08534,-0.20258 -0.17548,-0.37793 -0.27148,-0.52734c-0.096,-0.14942 -0.22477,-0.27314 -0.38477,-0.36914c-0.14933,-0.096 -0.33459,-0.16445 -0.55859,-0.20703c-0.21333,-0.05342 -0.48574,-0.08008 -0.81641,-0.08008c-0.65067,0 -1.12516,0.1069 -1.42383,0.32031c-0.288,0.20266 -0.43164,0.45824 -0.43164,0.76758c0,0.23458 0.0852,0.42675 0.25586,0.57617c0.17067,0.13883 0.39454,0.2606 0.67187,0.36719c0.288,0.096 0.61389,0.18128 0.97656,0.25586c0.36267,0.064 0.73018,0.14423 1.10352,0.24023c0.37333,0.08542 0.74085,0.19231 1.10352,0.32031c0.36266,0.11724 0.6836,0.28268 0.96094,0.49609c0.28801,0.20266 0.51684,0.45327 0.6875,0.75195c0.17066,0.29866 0.25586,0.67114 0.25586,1.11914v0.00196c0,0.53334 -0.10697,0.98605 -0.32031,1.35937c-0.21333,0.36276 -0.49566,0.6619 -0.84766,0.89649c-0.352,0.22407 -0.76309,0.38951 -1.23242,0.49609c-0.46933,0.096 -0.96066,0.14258 -1.47266,0.14258c-0.72533,0 -1.33851,-0.1069 -1.83984,-0.32032c-0.49067,-0.224 -0.89484,-0.47957 -1.21484,-0.76757c-0.30934,-0.29869 -0.53322,-0.59091 -0.67187,-0.87891c-0.13866,-0.2879 -0.20898,-0.50683 -0.20898,-0.65625c0,-0.24527 0.0852,-0.44238 0.25586,-0.5918c0.18134,-0.16 0.37351,-0.24023 0.57617,-0.24023c0.128,0 0.2518,0.03674 0.36914,0.11133c0.11734,0.07458 0.20748,0.19156 0.27148,0.35156c0.18133,0.45866 0.46861,0.843 0.86328,1.15234c0.40533,0.30935 0.98185,0.46485 1.72852,0.46485c0.34133,0 0.63552,-0.0387 0.88086,-0.11328c0.24532,-0.08542 0.44245,-0.19232 0.5918,-0.32032c0.16,-0.13868 0.2769,-0.28726 0.35156,-0.44726c0.07466,-0.17058 0.11133,-0.34593 0.11133,-0.52735c0,-0.36258 -0.14364,-0.63498 -0.43164,-0.8164c-0.288,-0.18142 -0.6456,-0.32506 -1.07226,-0.43164c-0.42667,-0.10659 -0.8962,-0.20365 -1.4082,-0.28907c-0.50133,-0.09607 -0.96396,-0.2298 -1.39062,-0.40039c-0.42666,-0.18134 -0.78426,-0.43195 -1.07226,-0.75195c-0.288,-0.33066 -0.43164,-0.78337 -0.43164,-1.35937c0,-0.832 0.30216,-1.48183 0.91016,-1.95117c0.608,-0.46932 1.45692,-0.70508 2.54492,-0.70508c0.608,0 1.11916,0.06536 1.53516,0.19336zM73.05078,155.44043c0.16,0.1601 0.24023,0.35721 0.24023,0.5918v7.56836c0,0.23476 -0.08023,0.43684 -0.24023,0.60743c-0.16001,0.16 -0.35714,0.24023 -0.5918,0.24023c-0.23468,0 -0.43676,-0.08023 -0.60742,-0.24023c-0.16,-0.17076 -0.24023,-0.37284 -0.24023,-0.60743v-7.56836c0,-0.23468 0.08023,-0.4318 0.24023,-0.5918c0.17067,-0.17058 0.37276,-0.25586 0.60742,-0.25586c0.23467,0 0.4318,0.08528 0.5918,0.25586zM81.23828,155.44043c0.16,0.1601 0.24023,0.35721 0.24023,0.5918v0.30273c0.04266,-0.04258 0.12289,-0.12786 0.24023,-0.25586c0.11734,-0.128 0.26098,-0.25481 0.43164,-0.38281c0.18132,-0.13858 0.37845,-0.25556 0.5918,-0.35156c0.22399,-0.10658 0.45974,-0.16016 0.70508,-0.16016c0.23466,0 0.4318,0.08528 0.5918,0.25586c0.17066,0.1601 0.25586,0.35721 0.25586,0.5918c0,0.22407 -0.0852,0.42121 -0.25586,0.5918c-0.16001,0.16 -0.35714,0.24023 -0.5918,0.24023c-0.40533,0 -0.73619,0.09511 -0.99219,0.28711c-0.25599,0.18134 -0.46003,0.40025 -0.60937,0.65625c-0.13866,0.256 -0.23377,0.52346 -0.28711,0.80078c-0.05334,0.27727 -0.08008,0.50608 -0.08008,0.6875v4.30468c0,0.23476 -0.08023,0.43684 -0.24023,0.60743c-0.16001,0.16 -0.35714,0.24023 -0.5918,0.24023c-0.23468,0 -0.43676,-0.08023 -0.60742,-0.24023c-0.16,-0.17076 -0.24023,-0.37284 -0.24023,-0.60743v-7.56836c0,-0.23468 0.08023,-0.4318 0.24023,-0.5918c0.17067,-0.17058 0.37276,-0.25586 0.60742,-0.25586c0.23467,0 0.4318,0.08528 0.5918,0.25586zM86.58203,155.44043c0.16,0.1601 0.24023,0.35721 0.24023,0.5918v5.56836c0,0.24524 0.0535,0.45921 0.16016,0.64063c0.11734,0.18134 0.26098,0.33489 0.43164,0.46289c0.18132,0.11742 0.37845,0.20748 0.5918,0.27148c0.22399,0.064 0.44291,0.09766 0.65625,0.09766c0.352,0 0.67294,-0.06032 0.96094,-0.17773c0.288,-0.12793 0.52675,-0.29831 0.71875,-0.51172c0.20267,-0.21335 0.35818,-0.46396 0.46484,-0.75196c0.10666,-0.29866 0.16016,-0.61764 0.16016,-0.95898v-4.64063c0,-0.23468 0.08023,-0.4318 0.24023,-0.5918c0.16001,-0.17058 0.35714,-0.25586 0.5918,-0.25586c0.23467,0 0.4318,0.08528 0.5918,0.25586c0.17066,0.1601 0.25586,0.35721 0.25586,0.5918v7.56836c0,0.23476 -0.0852,0.43684 -0.25586,0.60743c-0.16001,0.16 -0.35714,0.24023 -0.5918,0.24023c-0.23467,0 -0.4318,-0.08023 -0.5918,-0.24023c-0.16,-0.17076 -0.24023,-0.37284 -0.24023,-0.60743v-0.28906c-0.10667,0.096 -0.24039,0.21493 -0.40039,0.35352c-0.14933,0.128 -0.33655,0.24977 -0.56055,0.36718c-0.224,0.11717 -0.48453,0.21927 -0.7832,0.30469c-0.288,0.07458 -0.62381,0.11133 -1.00781,0.11133c-0.39467,0 -0.77901,-0.05357 -1.15234,-0.16016c-0.36267,-0.11734 -0.68856,-0.28772 -0.97656,-0.51172c-0.28801,-0.224 -0.51684,-0.50137 -0.6875,-0.83203c-0.17066,-0.33068 -0.25586,-0.71502 -0.25586,-1.15234v-5.75977c0,-0.23468 0.08023,-0.4318 0.24023,-0.5918c0.17067,-0.17058 0.37276,-0.25586 0.60742,-0.25586c0.23467,0 0.4318,0.08528 0.5918,0.25586zM65.34571,167.20019c0.18134,0.08517 0.34181,0.20215 0.48047,0.35156c0.14934,0.13874 0.27615,0.30914 0.38281,0.51172c0.10668,0.19193 0.19683,0.39596 0.27148,0.60938l3.3125,9.56836c0.05334,0.1601 0.08008,0.30868 0.08008,0.44726c0,0.1279 -0.02674,0.2666 -0.08008,0.41602c-0.04266,0.14927 -0.11103,0.28297 -0.20703,0.40039c-0.096,0.11717 -0.2198,0.21732 -0.36914,0.30273c-0.14932,0.07459 -0.32963,0.11329 -0.54297,0.11329c-0.256,0 -0.4967,-0.0752 -0.7207,-0.22461c-0.21333,-0.14935 -0.36192,-0.35143 -0.44727,-0.60743l-0.91211,-3.05664h-3.71289l-0.91211,3.05664c-0.08533,0.25593 -0.23889,0.45801 -0.46289,0.60743c-0.21333,0.14941 -0.44908,0.22461 -0.70508,0.22461c-0.37333,0 -0.67053,-0.12373 -0.89453,-0.36915c-0.21334,-0.25599 -0.32031,-0.54328 -0.32031,-0.86328c0,-0.13868 0.02674,-0.28726 0.08008,-0.44726l3.32812,-9.56836c0.07468,-0.21334 0.16483,-0.41738 0.27148,-0.60938c0.10668,-0.20273 0.22853,-0.37313 0.36719,-0.51172c0.13866,-0.14916 0.29913,-0.26614 0.48047,-0.35156c0.18134,-0.08541 0.39034,-0.12695 0.625,-0.12695c0.22399,0 0.42608,0.04154 0.60742,0.12695zM78.54492,167.63183c0.23466,0.224 0.35156,0.49641 0.35156,0.81641v10.32031c0,0.30942 -0.1169,0.57987 -0.35156,0.81446c-0.224,0.224 -0.49641,0.33593 -0.81641,0.33593c-0.32,0 -0.59241,-0.11193 -0.81641,-0.33593c-0.224,-0.23466 -0.33594,-0.50512 -0.33594,-0.81446c-0.09577,0.10661 -0.20137,0.22903 -0.31836,0.36719c-0.11734,0.128 -0.27781,0.24977 -0.48047,0.36719c-0.192,0.11716 -0.44262,0.21927 -0.75195,0.30468c-0.29867,0.07459 -0.67805,0.11133 -1.13672,0.11133c-0.53333,0 -1.01279,-0.11194 -1.43945,-0.33593c-0.42667,-0.224 -0.79418,-0.53805 -1.10352,-0.94336c-0.29868,-0.416 -0.53442,-0.90732 -0.70508,-1.47266c-0.16,-0.56534 -0.24023,-1.18844 -0.24023,-1.87109c0,-0.68266 0.08023,-1.30771 0.24023,-1.87305c0.17067,-0.576 0.40641,-1.06536 0.70508,-1.4707c0.30933,-0.416 0.67685,-0.73694 1.10352,-0.96094c0.42667,-0.224 0.90612,-0.33594 1.43945,-0.33594c0.39467,0 0.74235,0.05836 1.04101,0.17578c0.29866,0.11724 0.55424,0.25098 0.76758,0.40039c0.21333,0.13859 0.38372,0.26735 0.51172,0.38477c0.128,0.11742 0.22311,0.17578 0.28711,0.17578c0.05334,0 0.08008,-0.0704 0.08008,-0.20898v-3.13477c0,-0.32 0.11194,-0.59241 0.33594,-0.81641c0.224,-0.224 0.49641,-0.33593 0.81641,-0.33593c0.32,0 0.59241,0.11193 0.81641,0.33593zM132.20118,167.63183c0.23466,0.224 0.35156,0.49641 0.35156,0.81641v10.32031c0,0.30942 -0.1169,0.57987 -0.35156,0.81446c-0.224,0.224 -0.49641,0.33593 -0.81641,0.33593c-0.32,0 -0.59241,-0.11193 -0.81641,-0.33593c-0.224,-0.23466 -0.33593,-0.50512 -0.33593,-0.81446c-0.09578,0.10661 -0.20138,0.22903 -0.31836,0.36719c-0.11734,0.128 -0.27781,0.24977 -0.48047,0.36719c-0.192,0.11716 -0.44262,0.21927 -0.75195,0.30468c-0.29867,0.07459 -0.67805,0.11133 -1.13672,0.11133c-0.53333,0 -1.01279,-0.11194 -1.43946,-0.33593c-0.42666,-0.224 -0.79418,-0.53805 -1.10351,-0.94336c-0.29868,-0.416 -0.53442,-0.90732 -0.70508,-1.47266c-0.16,-0.56534 -0.24023,-1.18844 -0.24023,-1.87109c0,-0.68266 0.08023,-1.30771 0.24023,-1.87305c0.17067,-0.576 0.40641,-1.06536 0.70508,-1.4707c0.30933,-0.416 0.67685,-0.73694 1.10351,-0.96094c0.42667,-0.224 0.90613,-0.33594 1.43946,-0.33594c0.39467,0 0.74235,0.05836 1.04101,0.17578c0.29866,0.11724 0.55424,0.25098 0.76758,0.40039c0.21333,0.13859 0.38372,0.26735 0.51172,0.38477c0.128,0.11742 0.22311,0.17578 0.28711,0.17578c0.05334,0 0.08008,-0.0704 0.08008,-0.20898v-3.13477c0,-0.32 0.11193,-0.59241 0.33593,-0.81641c0.224,-0.224 0.49641,-0.33593 0.81641,-0.33593c0.32,0 0.59241,0.11193 0.81641,0.33593zM63.42578,174.15918h2.60742l-1.29492,-4.41602zM81.58008,170.81543c0.18134,0.0959 0.30319,0.25142 0.36719,0.46484l1.75976,5.9043l1.77539,-5.9043c0.064,-0.21332 0.18286,-0.36884 0.35351,-0.46484c0.18133,-0.10659 0.37846,-0.16016 0.5918,-0.16016c0.128,0 0.25481,0.02666 0.38281,0.08008c0.13868,0.04258 0.26248,0.10794 0.36914,0.19336c0.11734,0.08542 0.21245,0.19735 0.28711,0.33594c0.07466,0.12807 0.11328,0.27668 0.11328,0.44726c0,0.096 -0.01683,0.19306 -0.04883,0.28906l-2.40039,6.87891c-0.11733,0.32 -0.29763,0.57558 -0.54297,0.76758c-0.24533,0.18142 -0.53953,0.27344 -0.88086,0.27344c-0.34132,0 -0.63356,-0.09202 -0.87891,-0.27344c-0.24533,-0.192 -0.42758,-0.44758 -0.54492,-0.76758l-2.38477,-6.87891c-0.032,-0.096 -0.04687,-0.19306 -0.04687,-0.28906c0,-0.34124 0.12184,-0.60178 0.36719,-0.7832c0.24533,-0.18142 0.50782,-0.27344 0.78516,-0.27344c0.21334,0 0.40551,0.05357 0.57617,0.16016zM93.55664,170.7998c0.45866,0.0961 0.85292,0.24468 1.18359,0.44727c0.34132,0.20266 0.60186,0.45823 0.7832,0.76758c0.192,0.29865 0.28906,0.66123 0.28906,1.08789v5.71289c0,0.30926 -0.10697,0.56978 -0.32031,0.7832c-0.21333,0.21342 -0.47387,0.32031 -0.7832,0.32031c-0.28799,0 -0.53861,-0.09006 -0.75195,-0.27148c-0.20266,-0.192 -0.32151,-0.4327 -0.35351,-0.72071c-0.40533,0.38408 -0.8313,0.64463 -1.2793,0.78321c-0.448,0.13858 -0.9542,0.20898 -1.51953,0.20898c-0.36267,0 -0.73214,-0.05357 -1.10547,-0.16015c-0.36267,-0.10659 -0.69157,-0.26706 -0.99023,-0.48047c-0.28799,-0.224 -0.52374,-0.49446 -0.70508,-0.81446c-0.18134,-0.32 -0.27148,-0.69443 -0.27148,-1.12109c0,-0.66134 0.14364,-1.17939 0.43164,-1.55273c0.29866,-0.37332 0.66618,-0.65566 1.10351,-0.84766c0.43733,-0.19192 0.90687,-0.3306 1.4082,-0.41602c0.512,-0.08516 0.98649,-0.17044 1.42383,-0.25585c0.43733,-0.08517 0.79989,-0.20215 1.08789,-0.35157c0.29867,-0.16 0.44922,-0.41063 0.44922,-0.75195c0,-0.15993 -0.04853,-0.2986 -0.14453,-0.41602c-0.08534,-0.128 -0.20719,-0.22815 -0.36719,-0.30273c-0.15999,-0.08542 -0.3472,-0.15078 -0.56055,-0.19336c-0.21334,-0.04258 -0.43722,-0.0625 -0.67187,-0.0625c-0.30934,0 -0.55004,0.04154 -0.7207,0.12695c-0.17067,0.08542 -0.30936,0.19232 -0.41602,0.32032c-0.096,0.128 -0.17623,0.27164 -0.24023,0.43164c-0.064,0.14931 -0.14423,0.28801 -0.24023,0.41601c-0.08532,0.128 -0.20222,0.2349 -0.35156,0.32031c-0.14933,0.08542 -0.36329,0.12891 -0.64062,0.12891v-0.00195c-0.256,0 -0.47987,-0.06341 -0.67187,-0.19141c-0.18134,-0.13868 -0.27148,-0.38433 -0.27148,-0.73633c0,-0.34131 0.0852,-0.65536 0.25586,-0.94336c0.17067,-0.2881 0.41633,-0.53374 0.73633,-0.73632c0.32,-0.21325 0.7093,-0.37868 1.16797,-0.4961c0.45867,-0.11742 0.97673,-0.17578 1.55273,-0.17578c0.544,0 1.04524,0.04853 1.50391,0.14453zM103.25586,170.86425c0.36267,0.13859 0.67669,0.33076 0.94336,0.57618c0.27732,0.24531 0.49128,0.54253 0.64062,0.89453c0.16,0.34134 0.24023,0.72568 0.24023,1.15234v5.28125c0,0.30942 -0.11194,0.58183 -0.33594,0.81641c-0.224,0.224 -0.49641,0.33594 -0.81641,0.33594c-0.32001,0 -0.59737,-0.11194 -0.83203,-0.33594c-0.224,-0.23466 -0.33594,-0.50707 -0.33594,-0.81641v-4.51172c0,-0.23473 -0.04853,-0.45366 -0.14453,-0.65625c-0.08532,-0.20258 -0.20222,-0.37792 -0.35156,-0.52734c-0.14934,-0.14917 -0.32469,-0.2681 -0.52734,-0.35352c-0.20267,-0.096 -0.42159,-0.14257 -0.65625,-0.14257c-0.22399,0 -0.44291,0.04657 -0.65625,0.14257c-0.20266,0.08517 -0.378,0.2041 -0.52734,0.35352c-0.14934,0.14942 -0.27314,0.32476 -0.36914,0.52734c-0.08534,0.20274 -0.12695,0.42167 -0.12695,0.65625v4.51172c0,0.30942 -0.11194,0.58183 -0.33594,0.81641c-0.224,0.224 -0.49641,0.33594 -0.81641,0.33594c-0.32001,0 -0.59737,-0.11194 -0.83203,-0.33594c-0.224,-0.23466 -0.33594,-0.50707 -0.33594,-0.81641v-6.96094c0,-0.30931 0.11194,-0.57482 0.33594,-0.79882c0.23467,-0.23459 0.51203,-0.35157 0.83203,-0.35157c0.32,0 0.59241,0.11698 0.81641,0.35157c0.224,0.224 0.33594,0.48951 0.33594,0.79882c0.096,-0.10683 0.22281,-0.2286 0.38281,-0.36718c0.16,-0.13884 0.35217,-0.26256 0.57617,-0.36914c0.224,-0.11742 0.47958,-0.21253 0.76758,-0.28711c0.288,-0.08542 0.6139,-0.12891 0.97656,-0.12891c0.40533,0 0.78968,0.0704 1.15234,0.20898zM112.20117,171.00879c0.49067,0.23465 0.89184,0.50511 1.20117,0.81445c0.32001,0.30932 0.54884,0.61343 0.6875,0.91211c0.14934,0.2879 0.22461,0.49196 0.22461,0.60937c0,0.15993 -0.04356,0.31348 -0.12891,0.46289c-0.07466,0.13884 -0.17473,0.26256 -0.30273,0.36914c-0.128,0.10659 -0.27359,0.19186 -0.43359,0.25586c-0.14932,0.064 -0.29792,0.09571 -0.44727,0.09571c-0.14933,0 -0.28801,-0.03675 -0.41602,-0.11133c-0.11732,-0.08534 -0.20252,-0.22402 -0.25586,-0.41602c-0.032,-0.13865 -0.09044,-0.28921 -0.17578,-0.44922c-0.08534,-0.17058 -0.20914,-0.33105 -0.36914,-0.48046c-0.14933,-0.14942 -0.33459,-0.27119 -0.55859,-0.36719c-0.224,-0.10658 -0.48649,-0.16016 -0.78516,-0.16016c-0.66133,0 -1.17745,0.22884 -1.55078,0.6875c-0.37333,0.45866 -0.56055,1.17882 -0.56055,2.16016c0,0.98134 0.18721,1.7015 0.56055,2.16015c0.37333,0.45866 0.88945,0.6875 1.55078,0.6875c0.29867,0 0.56116,-0.04657 0.78516,-0.14257c0.23466,-0.10659 0.42683,-0.23535 0.57617,-0.38477c0.14932,-0.14932 0.26622,-0.30289 0.35156,-0.46289c0.08534,-0.17076 0.14378,-0.32626 0.17578,-0.46484c0.04266,-0.19208 0.12786,-0.32581 0.25586,-0.40039c0.12799,-0.08542 0.26667,-0.12696 0.41602,-0.12696c0.13866,0 0.2823,0.03171 0.43164,0.09571c0.16,0.064 0.30364,0.14927 0.43164,0.25586c0.128,0.10658 0.23497,0.23339 0.32031,0.38281c0.08534,0.13868 0.12891,0.28922 0.12891,0.44922c0,0.11731 -0.07033,0.32436 -0.20898,0.62304c-0.128,0.288 -0.34692,0.58717 -0.65625,0.89649c-0.29867,0.30942 -0.69293,0.58182 -1.18359,0.8164c-0.49067,0.23459 -1.09888,0.35157 -1.82422,0.35157c-0.62933,0 -1.21576,-0.11194 -1.75976,-0.33594c-0.53333,-0.224 -0.99791,-0.54298 -1.39258,-0.95898c-0.39467,-0.41601 -0.70373,-0.91229 -0.92773,-1.48829c-0.224,-0.58668 -0.33594,-1.23846 -0.33594,-1.95312c0,-0.71466 0.11194,-1.35955 0.33594,-1.93555c0.224,-0.58668 0.53307,-1.0879 0.92773,-1.5039c0.39466,-0.416 0.85924,-0.73694 1.39258,-0.96094c0.544,-0.224 1.13043,-0.33594 1.75976,-0.33594c0.68267,0 1.2691,0.11893 1.75977,0.35352zM121.15626,171.07129c0.52266,0.26665 0.94862,0.60247 1.27929,1.00781c0.34133,0.40534 0.59195,0.84318 0.75195,1.3125c0.16001,0.46934 0.24024,0.90222 0.24024,1.29687c0,0.37327 -0.07033,0.68232 -0.20898,0.92774c-0.13867,0.24542 -0.34076,0.36719 -0.60743,0.36719h-5.11914c-0.11734,0 -0.20944,0.04348 -0.27344,0.1289c-0.05334,0.07458 -0.08008,0.17474 -0.08008,0.30274c0,0.15992 0.04853,0.34713 0.14453,0.56054c0.096,0.20266 0.23964,0.3998 0.43164,0.5918c0.192,0.192 0.42774,0.35247 0.70508,0.48047c0.288,0.128 0.61885,0.1914 0.99219,0.1914c0.22401,0 0.42114,-0.01991 0.5918,-0.0625c0.17066,-0.05341 0.32917,-0.1286 0.47852,-0.2246c0.14934,-0.096 0.29493,-0.21973 0.43359,-0.36914c0.14932,-0.15993 0.31475,-0.34518 0.49609,-0.5586c0.16001,-0.192 0.34031,-0.28906 0.54297,-0.28906c0.128,0 0.25677,0.0317 0.38477,0.0957c0.128,0.064 0.23994,0.14928 0.33594,0.25586c0.096,0.10684 0.17623,0.23056 0.24023,0.36914c0.064,0.12808 0.0957,0.26181 0.0957,0.40039c0,0.13869 -0.07526,0.3358 -0.22461,0.5918c-0.13866,0.24532 -0.35758,0.49595 -0.65625,0.75195c-0.29866,0.24534 -0.67114,0.46425 -1.11914,0.65625c-0.448,0.18142 -0.98094,0.27149 -1.59961,0.27149c-0.704,0 -1.334,-0.12877 -1.88867,-0.38477c-0.55466,-0.256 -1.0242,-0.59675 -1.4082,-1.02344c-0.37334,-0.43731 -0.66062,-0.93856 -0.86328,-1.5039c-0.192,-0.576 -0.28906,-1.18422 -0.28906,-1.82422c0,-0.64 0.0852,-1.24325 0.25586,-1.80859c0.18133,-0.57601 0.45374,-1.07725 0.81641,-1.50391c0.36267,-0.43734 0.81537,-0.78306 1.35937,-1.03906c0.544,-0.256 1.18392,-0.38477 1.91992,-0.38477c0.71467,0 1.3298,0.13867 1.8418,0.41602zM73.05664,173.28027c-0.37333,0.49066 -0.56055,1.16228 -0.56055,2.01563c0,0.84265 0.18721,1.50931 0.56055,2c0.384,0.49065 0.91198,0.73632 1.58398,0.73632c0.672,0 1.19503,-0.24567 1.56836,-0.73632c0.384,-0.49069 0.57617,-1.15735 0.57617,-2c0,-0.85335 -0.19217,-1.52497 -0.57617,-2.01563c-0.37333,-0.49066 -0.89636,-0.73633 -1.56836,-0.73633c-0.672,0 -1.19998,0.24567 -1.58398,0.73633zM118.38672,172.71972c-0.25601,0.10676 -0.46801,0.24544 -0.63867,0.41602c-0.16,0.15992 -0.2838,0.3303 -0.36914,0.51172c-0.08534,0.18142 -0.12695,0.34188 -0.12695,0.48047c0,0.21341 0.08023,0.32031 0.24023,0.32031h3.64649c0.13866,0 0.20898,-0.10211 0.20898,-0.30469c0,-0.13858 -0.04356,-0.2971 -0.1289,-0.47851c-0.07469,-0.18135 -0.19653,-0.35368 -0.36719,-0.51368c-0.16,-0.17058 -0.369,-0.31422 -0.625,-0.43164c-0.256,-0.11741 -0.56011,-0.17578 -0.91211,-0.17578c-0.352,0 -0.66107,0.05837 -0.92773,0.17578zM126.7129,173.28027c-0.37334,0.49066 -0.56055,1.16228 -0.56055,2.01563c0,0.84265 0.18721,1.50931 0.56055,2c0.384,0.49065 0.91198,0.73632 1.58398,0.73632c0.672,0 1.19503,-0.24567 1.56836,-0.73632c0.384,-0.49069 0.57617,-1.15735 0.57617,-2c0,-0.85335 -0.19217,-1.52497 -0.57617,-2.01563c-0.37333,-0.49066 -0.89636,-0.73633 -1.56836,-0.73633c-0.672,0 -1.19998,0.24567 -1.58398,0.73633zM92.69141,175.69629c-0.37333,0.11716 -0.87953,0.23414 -1.51953,0.35156c-0.77867,0.13866 -1.16797,0.50617 -1.16797,1.10351c0,0.14942 0.02179,0.29502 0.06445,0.4336c0.05332,0.13858 0.13852,0.26539 0.25586,0.38281c0.11733,0.10658 0.27284,0.19186 0.46484,0.25586c0.20267,0.064 0.44637,0.0957 0.73437,0.0957c0.24532,0 0.49099,-0.02666 0.73633,-0.08008c0.256,-0.06399 0.47987,-0.14927 0.67187,-0.25585c0.20266,-0.11735 0.36313,-0.25602 0.48047,-0.41602c0.128,-0.17058 0.19141,-0.36275 0.19141,-0.57617v-1.55078c-0.224,0.05316 -0.52811,0.13844 -0.91211,0.25586z" data-paper-data="{&quot;origPos&quot;:null}" id="path1829" fill="#1eff00" stroke="none" stroke-width="1" stroke-miterlimit="10" stroke-dashoffset="0"/></g></g></svg>