<svg version="1.1" xmlns="http://www.w3.org/2000/svg" xmlns:xlink="http://www.w3.org/1999/xlink" width="57.28516" height="26.10938"><g transform="translate(-211.35742,-166.94531)"><g data-paper-data="{&quot;isPaintingLayer&quot;:true}" fill="#454545" fill-rule="nonzero" stroke="none" stroke-width="1" stroke-linecap="butt" stroke-linejoin="miter" stroke-miterlimit="10" stroke-dasharray="" stroke-dashoffset="0" style="mix-blend-mode: normal"><path d="M223.53516,166.94531c1.21334,0 2.28243,0.17633 3.20898,0.5293c0.94861,0.35297 1.74305,0.83933 2.38281,1.45703c0.63976,0.59564 1.12612,1.31208 1.45703,2.15039c0.33092,0.81625 0.4961,1.69787 0.4961,2.64649c0,0.8383 -0.12256,1.56784 -0.36524,2.18554c-0.2206,0.6177 -0.51755,1.15782 -0.89257,1.6211c-0.35298,0.44121 -0.76133,0.805 -1.22461,1.09179c-0.44122,0.26473 -0.89415,0.46334 -1.35743,0.59571c0.92656,0.30884 1.69871,0.70606 2.31641,1.1914c0.6177,0.46328 1.1152,0.98111 1.49024,1.55469c0.37502,0.57358 0.63854,1.1917 0.79296,1.85352c0.15443,0.66182 0.23243,1.32254 0.23243,1.98437c0,1.08097 -0.2209,2.06289 -0.66211,2.94531c-0.44122,0.88244 -1.04819,1.64345 -1.82032,2.28321c-0.75006,0.63976 -1.64283,1.13726 -2.67968,1.49023c-1.0148,0.35297 -2.10617,0.5293 -3.27539,0.5293h-9.66407c-0.33091,0 -0.65013,-0.05571 -0.95898,-0.16602c-0.30885,-0.13236 -0.58351,-0.30869 -0.82617,-0.52929c-0.24267,-0.22061 -0.44128,-0.49527 -0.59571,-0.82618c-0.15442,-0.33091 -0.23242,-0.69665 -0.23242,-1.09375v-20.91211c0,-0.70594 0.25432,-1.31292 0.76172,-1.82031c0.50739,-0.5074 1.12356,-0.76172 1.85156,-0.76172zM268.11328,167.44141c0.35297,0.3309 0.5293,0.73927 0.5293,1.22461v22.63476c0,0.48533 -0.17633,0.90484 -0.5293,1.25781c-0.33091,0.33092 -0.73927,0.4961 -1.22461,0.4961c-0.48533,0 -0.89369,-0.16518 -1.22461,-0.4961c-0.3309,-0.35297 -0.49609,-0.77248 -0.49609,-1.25781v-0.29883c-0.44121,0.37504 -0.86072,0.69621 -1.25781,0.96094c-0.37504,0.26473 -0.77226,0.48562 -1.19141,0.66211c-0.41915,0.15441 -0.88127,0.26388 -1.38867,0.33008c-0.5074,0.0662 -1.09208,0.09961 -1.75391,0.09961c-1.08097,0 -2.10745,-0.23203 -3.07812,-0.69531c-0.94862,-0.46328 -1.78763,-1.11482 -2.51563,-1.95313c-0.70594,-0.86037 -1.26834,-1.87375 -1.6875,-3.04297c-0.41915,-1.16922 -0.6289,-2.46116 -0.6289,-3.87305c0,-1.41188 0.18746,-2.70187 0.5625,-3.87109c0.37503,-1.19128 0.90596,-2.20661 1.58984,-3.04492c0.70595,-0.86037 1.543,-1.5211 2.51367,-1.98438c0.97067,-0.46327 2.05286,-0.69531 3.24414,-0.69531c0.9045,0 1.68779,0.11143 2.34961,0.33203c0.66182,0.22061 1.21308,0.48412 1.6543,0.79297c0.44121,0.28679 0.78272,0.57454 1.02539,0.86133c0.26473,0.28679 0.45219,0.49654 0.5625,0.62891v-7.84375c0,-0.48534 0.16519,-0.89371 0.49609,-1.22461c0.33092,-0.33092 0.73928,-0.4961 1.22461,-0.4961c0.48534,0 0.8937,0.16518 1.22461,0.4961zM215.26172,177.79883h7.77734c0.55152,0 1.09164,-0.08719 1.6211,-0.26367c0.52946,-0.17649 0.99157,-0.41967 1.38867,-0.72852c0.39709,-0.33091 0.71827,-0.71699 0.96094,-1.1582c0.24266,-0.46328 0.36328,-0.96997 0.36328,-1.52149c0,-1.08097 -0.34151,-1.96455 -1.02539,-2.64843c-0.68388,-0.70594 -1.67693,-1.0586 -2.97852,-1.0586h-8.10742zM247.69922,175.01953c1.3457,0.88243 2.01758,2.1947 2.01758,3.9375v12.34375c0,0.48533 -0.16519,0.90484 -0.4961,1.25781c-0.33091,0.33092 -0.73927,0.4961 -1.22461,0.4961c-0.48534,0 -0.90484,-0.16518 -1.25781,-0.4961c-0.33091,-0.35297 -0.49609,-0.77248 -0.49609,-1.25781v-0.5293c-0.83831,0.9045 -1.79793,1.51147 -2.87891,1.82032c-1.05891,0.30885 -2.18372,0.46289 -3.375,0.46289c-0.75007,0 -1.51108,-0.10028 -2.2832,-0.29883c-0.75007,-0.22061 -1.43308,-0.55097 -2.05078,-0.99219c-0.59564,-0.44121 -1.082,-0.99247 -1.45703,-1.65429c-0.37504,-0.66183 -0.5625,-1.45626 -0.5625,-2.38282c0,-1.05891 0.20975,-1.94054 0.6289,-2.64648c0.41916,-0.728 0.98156,-1.32383 1.6875,-1.78711c0.70594,-0.46327 1.51152,-0.81593 2.41602,-1.05859c0.92654,-0.24267 1.89731,-0.419 2.91211,-0.5293c1.16922,-0.13237 2.08427,-0.27722 2.74609,-0.43164c0.66183,-0.17649 1.15738,-0.3751 1.48828,-0.59571c0.3309,-0.2206 0.52951,-0.47297 0.59571,-0.75976c0.08824,-0.28679 0.13281,-0.60797 0.13281,-0.96094c0,-0.41915 -0.12062,-0.78294 -0.36328,-1.0918c-0.24268,-0.30884 -0.55271,-0.56121 -0.92774,-0.75976c-0.37503,-0.19855 -0.79258,-0.3434 -1.25586,-0.43164c-0.46327,-0.1103 -0.91621,-0.16406 -1.35742,-0.16406c-0.79419,0 -1.43459,0.06489 -1.91992,0.19726c-0.48534,0.13236 -0.88256,0.30869 -1.19141,0.5293c-0.30885,0.2206 -0.56122,0.48607 -0.75976,0.79492c-0.17649,0.30885 -0.34167,0.62807 -0.4961,0.95898c-0.13236,0.26473 -0.31983,0.46334 -0.5625,0.59571c-0.22061,0.1103 -0.45264,0.16601 -0.69531,0.16601c-0.44121,0 -0.84958,-0.14289 -1.22461,-0.42968c-0.37503,-0.28679 -0.5625,-0.68401 -0.5625,-1.19141c0,-0.19855 0.05571,-0.44173 0.16602,-0.72852c0.19854,-0.46327 0.46205,-0.9162 0.79297,-1.35742c0.3309,-0.46327 0.77269,-0.87163 1.32421,-1.22461c0.57358,-0.35296 1.26774,-0.62762 2.08399,-0.82617c0.83831,-0.22061 1.85364,-0.33203 3.04492,-0.33203c2.25019,0 4.03768,0.45293 5.36133,1.35742zM257.92188,177.30273c-0.63976,0.37504 -1.19298,0.88368 -1.65626,1.52344c-0.44121,0.6177 -0.78272,1.33415 -1.02539,2.15039c-0.2206,0.79419 -0.33007,1.63125 -0.33007,2.51367c0,0.86037 0.10947,1.69938 0.33007,2.51563c0.24267,0.81625 0.58418,1.53269 1.02539,2.15039c0.46328,0.6177 1.01649,1.1152 1.65626,1.49023c0.63976,0.37504 1.37849,0.5625 2.21679,0.5625c0.83831,0 1.57704,-0.18746 2.2168,-0.5625c0.66183,-0.37503 1.21308,-0.87253 1.6543,-1.49023c0.44121,-0.6177 0.77158,-1.33414 0.99218,-2.15039c0.24267,-0.81625 0.36524,-1.65526 0.36524,-2.51563c0,-0.88242 -0.12257,-1.71948 -0.36524,-2.51367c-0.2206,-0.81624 -0.55097,-1.53269 -0.99218,-2.15039c-0.44122,-0.63976 -0.99247,-1.1484 -1.6543,-1.52344c-0.63976,-0.37502 -1.37849,-0.5625 -2.2168,-0.5625c-0.8383,0 -1.57704,0.18748 -2.21679,0.5625zM215.26172,189.58008h8.07422c1.78692,0 3.02315,-0.35266 3.70703,-1.0586c0.70595,-0.728 1.05859,-1.70991 1.05859,-2.94531c0,-1.43394 -0.48636,-2.53647 -1.45703,-3.30859c-0.94861,-0.79419 -2.21631,-1.19141 -3.80469,-1.19141h-7.57812zM245.41602,183.78906c-0.41916,0.13235 -0.91666,0.23068 -1.49024,0.29688c-0.55152,0.06618 -1.1362,0.14417 -1.7539,0.23242c-0.59565,0.08824 -1.18034,0.19771 -1.75391,0.33008c-0.57358,0.13236 -1.09141,0.33097 -1.55469,0.5957c-0.46327,0.24267 -0.83821,0.56384 -1.125,0.96094c-0.26473,0.39709 -0.39648,0.90378 -0.39648,1.52148c0,0.48534 0.09833,0.8937 0.29687,1.22461c0.22061,0.30886 0.49721,0.56317 0.82813,0.76172c0.33091,0.17648 0.70584,0.30824 1.125,0.39649c0.41915,0.06619 0.83866,0.0996 1.25781,0.0996c0.63976,0 1.27821,-0.06685 1.91797,-0.19921c0.63976,-0.15443 1.2133,-0.39761 1.7207,-0.72852c0.52946,-0.33091 0.94897,-0.77075 1.25781,-1.32227c0.33092,-0.55152 0.4961,-1.23648 0.4961,-2.05273v-2.34961z" data-paper-data="{&quot;origPos&quot;:null}" id="path4928"/></g></g></svg>