<svg version="1.1" xmlns="http://www.w3.org/2000/svg" xmlns:xlink="http://www.w3.org/1999/xlink" width="372.2149" height="68.64263" viewBox="0,0,372.2149,68.64263"><g transform="translate(-53.89255,-145.67868)"><g data-paper-data="{&quot;isPaintingLayer&quot;:true}" fill-rule="nonzero" stroke-linecap="butt" stroke-linejoin="miter" stroke-dasharray="" style="mix-blend-mode: normal"><path d="M425.00973,146.42869c0.19313,0 0.34772,0.15458 0.34772,0.34772v66.4453c0,0.19313 -0.15458,0.34961 -0.34772,0.34961h-370.01757c-0.19313,0 -0.34961,-0.15647 -0.34961,-0.34961v-66.4453c0,-0.19313 0.15647,-0.34772 0.34961,-0.34772z" fill="#1e1e1e" stroke="#1eff00" stroke-width="1.5" stroke-miterlimit="4" stroke-dashoffset="17.35"/><path d="M69.10241,187.56367c1.27597,0 2.33416,4.30813 3.36635,5.05807c1.0323,0.74997 5.45658,0.42505 5.85086,1.63858c0.39428,1.21349 -3.37606,3.55106 -3.77031,4.76462c-0.39428,1.21349 1.28194,5.32074 0.24983,6.07075c-1.0323,0.74997 -4.42061,-2.11344 -5.69654,-2.11344c-1.27593,0 -4.66428,2.86341 -5.6965,2.11344c-1.03226,-0.75001 0.64396,-4.85726 0.24983,-6.07075c-0.39428,-1.21353 -4.16459,-3.55113 -3.77031,-4.76462c0.39428,-1.21353 4.81856,-0.88857 5.85082,-1.63858c1.03223,-0.74993 2.09038,-5.05807 3.36631,-5.05807z" fill="#1eff00" stroke="none" stroke-width="0.88188" stroke-miterlimit="4" stroke-dashoffset="17.35"/><path d="M92.03949,187.82854c1.23766,0 2.26403,4.17887 3.26532,4.90632c1.0013,0.72748 5.29281,0.41231 5.67526,1.5894c0.38245,1.1771 -3.27471,3.44455 -3.65716,4.62168c-0.38249,1.1771 1.24345,5.16113 0.24197,5.88865c-1.00126,0.72745 -4.28792,-2.05005 -5.52557,-2.05005c-1.23765,0 -4.52428,2.7775 -5.52557,2.05005c-1.0013,-0.72752 0.62463,-4.71156 0.24197,-5.88865c-0.38245,-1.1771 -4.03961,-3.44459 -3.6572,-4.62168c0.38245,-1.1771 4.674,-0.86188 5.67526,-1.5894c1.00133,-0.72745 2.02771,-4.90632 3.26536,-4.90632z" fill="#1eff00" stroke="none" stroke-width="0.85542" stroke-miterlimit="4" stroke-dashoffset="17.35"/><path d="M124.91936,152.78032c0.23714,0.19401 0.41463,0.45201 0.53321,0.77539l4.05859,10.44531c0.0539,0.14022 0.08203,0.27504 0.08203,0.4043c0,0.09701 -0.0165,0.20554 -0.04883,0.32422c-0.03235,0.11843 -0.08667,0.23679 -0.16211,0.35547c-0.07546,0.10784 -0.1841,0.1981 -0.32422,0.27344c-0.12935,0.07534 -0.29035,0.11328 -0.48437,0.11328c-0.22637,0 -0.43684,-0.06889 -0.63086,-0.20898c-0.19403,-0.14022 -0.3337,-0.32451 -0.41992,-0.55078l-1.06641,-3.07226h-4.6582l-1.0332,3.23437c-0.06466,0.19396 -0.183,0.34528 -0.35547,0.45312c-0.17247,0.09701 -0.36161,0.14453 -0.56641,0.14453c-0.29103,0 -0.54418,-0.097 -0.75976,-0.29102c-0.2048,-0.19401 -0.3086,-0.43067 -0.3086,-0.71094c0,-0.10784 0.0165,-0.20963 0.04883,-0.30664l3.84766,-10.60742c0.11856,-0.32338 0.29121,-0.58137 0.51757,-0.77539c0.23714,-0.19402 0.52812,-0.29102 0.87305,-0.29102c0.34492,0 0.63105,0.097 0.85742,0.29102zM69.08733,152.71586c0.23713,0 0.43597,0.08042 0.59766,0.24219c0.17247,0.16171 0.25977,0.36055 0.25977,0.59766c0,0.23725 -0.08729,0.44289 -0.25977,0.61523c-0.1617,0.16176 -0.36053,0.24219 -0.59766,0.24219h-3.02344v10.10547c0,0.25872 -0.097,0.48567 -0.29101,0.67969c-0.18324,0.18318 -0.40341,0.27344 -0.66211,0.27344c-0.26949,0 -0.49646,-0.09026 -0.67969,-0.27344c-0.18326,-0.19401 -0.27539,-0.42097 -0.27539,-0.67969v-10.10547h-3.02344c-0.23713,0 -0.44276,-0.08042 -0.61523,-0.24219c-0.16169,-0.1725 -0.24219,-0.37813 -0.24219,-0.61523c0,-0.23705 0.0805,-0.43589 0.24219,-0.59766c0.17247,-0.16176 0.37811,-0.24219 0.61523,-0.24219zM72.0971,152.9893c0.19401,0.18326 0.29101,0.41021 0.29101,0.67969c0,0.2587 -0.097,0.48567 -0.29101,0.67969c-0.18324,0.18318 -0.40341,0.27344 -0.66211,0.27344c-0.26948,0 -0.5013,-0.09026 -0.69531,-0.27344c-0.18323,-0.19402 -0.27539,-0.42099 -0.27539,-0.67969c0,-0.26955 0.09216,-0.49651 0.27539,-0.67969c0.19402,-0.18318 0.42583,-0.27344 0.69531,-0.27344c0.25871,0 0.47888,0.09026 0.66211,0.27344zM131.9428,152.9893c0.19402,0.18326 0.29102,0.41021 0.29102,0.67969c0,0.2587 -0.097,0.48567 -0.29102,0.67969c-0.18324,0.18318 -0.40341,0.27344 -0.66211,0.27344c-0.26948,0 -0.5013,-0.09026 -0.69531,-0.27344c-0.18323,-0.19402 -0.27539,-0.42099 -0.27539,-0.67969c0,-0.26955 0.09216,-0.49651 0.27539,-0.67969c0.19402,-0.18318 0.42583,-0.27344 0.69531,-0.27344c0.25871,0 0.47888,0.09026 0.66211,0.27344zM102.86468,153.70218c0.17247,0.16174 0.25781,0.36055 0.25781,0.59766v2.02148h0.89062c0.20481,0 0.37746,0.07563 0.51758,0.22656c0.15091,0.14007 0.22656,0.31273 0.22656,0.51758c0,0.21563 -0.07565,0.39311 -0.22656,0.5332c-0.14013,0.14009 -0.31278,0.20898 -0.51758,0.20898h-0.89062v6.80859c0,0.23725 -0.08534,0.44093 -0.25781,0.61328c-0.16168,0.16176 -0.36051,0.24219 -0.59766,0.24219c-0.23714,0 -0.43792,-0.08042 -0.59961,-0.24219c-0.16169,-0.1725 -0.24219,-0.37618 -0.24219,-0.61328v-6.80859h-0.59765c-0.20481,0 -0.3823,-0.06889 -0.53321,-0.20898c-0.14012,-0.14004 -0.21093,-0.31752 -0.21093,-0.5332c0,-0.20482 0.07081,-0.37748 0.21093,-0.51758c0.15091,-0.15093 0.32841,-0.22656 0.53321,-0.22656h0.59765v-2.02148c0,-0.23708 0.0805,-0.43589 0.24219,-0.59766c0.1617,-0.16176 0.36248,-0.24414 0.59961,-0.24414c0.23714,0 0.43597,0.08238 0.59766,0.24414zM122.33343,159.9268h3.52343l-1.85937,-5.32031zM92.5053,156.2725c0.53895,0.18323 1.00258,0.45289 1.39063,0.80859c0.39881,0.34494 0.71113,0.77074 0.9375,1.27734c0.22636,0.50661 0.33984,1.08372 0.33984,1.73047c0,0.39877 -0.097,0.69945 -0.29102,0.9043c-0.19402,0.20485 -0.42099,0.30664 -0.67968,0.30664l-5.91797,0.00195c0,0.02142 0.00674,0.11167 0.01758,0.27344c0.02156,0.1508 0.05938,0.3351 0.11328,0.55078c0.06468,0.21556 0.15002,0.44737 0.25781,0.69531c0.11858,0.2371 0.27473,0.45726 0.46875,0.66211c0.19402,0.20482 0.43068,0.37748 0.71094,0.51758c0.29103,0.12926 0.64313,0.19336 1.05273,0.19336c0.33416,0 0.61834,-0.02616 0.85547,-0.08008c0.23715,-0.05392 0.44763,-0.13434 0.63086,-0.24219c0.18325,-0.10772 0.35105,-0.24253 0.50195,-0.4043c0.15091,-0.17257 0.30222,-0.37334 0.45313,-0.59961c0.08622,-0.12926 0.18322,-0.21952 0.29101,-0.27344c0.1078,-0.05392 0.21932,-0.08203 0.33789,-0.08203c0.19402,0 0.37347,0.07084 0.53516,0.21094c0.16169,0.14004 0.24219,0.31752 0.24219,0.5332c0,0.12934 -0.07082,0.32333 -0.21094,0.58203c-0.14013,0.2587 -0.3671,0.51865 -0.67969,0.77734c-0.30181,0.25872 -0.69463,0.48372 -1.17969,0.67773c-0.48505,0.19402 -1.0767,0.29102 -1.77734,0.29102c-0.71142,0 -1.34769,-0.12802 -1.9082,-0.38672c-0.56051,-0.2587 -1.03578,-0.60399 -1.42383,-1.03516c-0.37727,-0.44195 -0.66825,-0.95506 -0.87305,-1.53711c-0.19401,-0.58207 -0.29101,-1.1902 -0.29101,-1.82617c0,-0.65754 0.10184,-1.27733 0.30664,-1.85937c0.2048,-0.59286 0.49578,-1.10594 0.87305,-1.53711c0.38804,-0.43114 0.85167,-0.76964 1.39062,-1.01758c0.53895,-0.2587 1.1442,-0.38867 1.8125,-0.38867c0.61441,0 1.18472,0.09221 1.71289,0.27539zM111.30218,156.32133c0.54973,0.21558 1.025,0.5279 1.42382,0.9375c0.39882,0.4096 0.71114,0.91105 0.9375,1.50391c0.22637,0.59283 0.33985,1.27178 0.33985,2.03711c0,0.7653 -0.11348,1.44425 -0.33985,2.03711c-0.22636,0.59286 -0.53867,1.09431 -0.9375,1.50391c-0.39882,0.39871 -0.87409,0.70619 -1.42382,0.92187c-0.53896,0.21569 -1.12576,0.32227 -1.76172,0.32227c-0.63597,0 -1.22957,-0.10658 -1.7793,-0.32227c-0.53895,-0.21558 -1.00742,-0.52306 -1.40625,-0.92187c-0.39882,-0.4096 -0.71113,-0.91105 -0.9375,-1.50391c-0.22637,-0.59286 -0.33984,-1.2718 -0.33984,-2.03711c0,-0.76533 0.11347,-1.44428 0.33984,-2.03711c0.22636,-0.59286 0.53867,-1.09431 0.9375,-1.50391c0.39883,-0.4095 0.8673,-0.72181 1.40625,-0.9375c0.54973,-0.21568 1.14333,-0.32422 1.7793,-0.32422c0.63596,0 1.22276,0.10853 1.76172,0.32422zM72.03264,156.37016c0.16169,0.16174 0.24219,0.36055 0.24219,0.59766v7.64844c0,0.23725 -0.0805,0.44093 -0.24219,0.61328c-0.1617,0.16176 -0.36053,0.24219 -0.59766,0.24219c-0.23713,0 -0.44276,-0.08042 -0.61523,-0.24219c-0.16169,-0.1725 -0.24219,-0.37618 -0.24219,-0.61328v-7.64844c0,-0.23708 0.0805,-0.43589 0.24219,-0.59766c0.17245,-0.17235 0.37808,-0.25976 0.61523,-0.25976c0.23714,0 0.43597,0.08742 0.59766,0.25976zM75.00335,156.37016c0.16169,0.16174 0.24219,0.36055 0.24219,0.59766v0.35547c0.06468,-0.07559 0.15681,-0.18412 0.27539,-0.32422c0.12935,-0.14022 0.29715,-0.27504 0.50195,-0.4043c0.2048,-0.12926 0.4463,-0.24088 0.72656,-0.33789c0.29103,-0.09701 0.63148,-0.14648 1.01953,-0.14648c0.53895,0 1.00258,0.14648 1.39063,0.4375c0.38804,0.28026 0.68871,0.6304 0.9043,1.05078c0.29104,-0.52828 0.65767,-0.90654 1.09961,-1.13281c0.45272,-0.2371 0.98231,-0.35547 1.58594,-0.35547c0.38805,0 0.74303,0.05906 1.06641,0.17773c0.33416,0.10789 0.62029,0.27569 0.85742,0.50195c0.24793,0.22637 0.44191,0.50571 0.58203,0.83984c0.14012,0.33416 0.20899,0.72213 0.20899,1.16406v5.82227c-0.00001,0.23725 -0.0805,0.44093 -0.24219,0.61328c-0.16168,0.16176 -0.36051,0.24219 -0.59766,0.24219c-0.23713,0 -0.44276,-0.08042 -0.61523,-0.24219c-0.16169,-0.1725 -0.24219,-0.37618 -0.24219,-0.61328v-5.74023c0,-0.37725 -0.12318,-0.70122 -0.37109,-0.9707c-0.24792,-0.26948 -0.57673,-0.4043 -0.98633,-0.4043c-0.35571,0 -0.66318,0.07084 -0.92188,0.21094c-0.25869,0.12944 -0.47401,0.30694 -0.64648,0.5332c-0.16169,0.22637 -0.28682,0.48434 -0.37305,0.77539c-0.07546,0.29102 -0.11328,0.59366 -0.11328,0.90625v4.68945c0,0.23725 -0.0805,0.44093 -0.24219,0.61328c-0.1617,0.16176 -0.36053,0.24219 -0.59766,0.24219c-0.23713,0 -0.44276,-0.08042 -0.61523,-0.24219c-0.16169,-0.1725 -0.24219,-0.37618 -0.24219,-0.61328v-5.74023c0,-0.37725 -0.11832,-0.70122 -0.35547,-0.9707c-0.23714,-0.26948 -0.57079,-0.4043 -1.00195,-0.4043c-0.35571,0 -0.66318,0.07084 -0.92187,0.21094c-0.25869,0.12944 -0.47401,0.30694 -0.64648,0.5332c-0.16169,0.22637 -0.28682,0.48434 -0.37305,0.77539c-0.07546,0.29102 -0.11328,0.59366 -0.11328,0.90625v4.68945c0,0.23725 -0.0805,0.44093 -0.24219,0.61328c-0.1617,0.16176 -0.36053,0.24219 -0.59766,0.24219c-0.23713,0 -0.44276,-0.08042 -0.61523,-0.24219c-0.16169,-0.1725 -0.24219,-0.37618 -0.24219,-0.61328v-7.64844c0,-0.23708 0.0805,-0.43589 0.24219,-0.59766c0.17248,-0.17235 0.37811,-0.25976 0.61523,-0.25976c0.23713,0 0.43597,0.08742 0.59766,0.25976zM131.87835,156.37016c0.16169,0.16174 0.24218,0.36055 0.24218,0.59766v7.64844c0.00001,0.23725 -0.08049,0.44093 -0.24218,0.61328c-0.1617,0.16176 -0.36053,0.24219 -0.59766,0.24219c-0.23713,0 -0.44276,-0.08042 -0.61523,-0.24219c-0.16169,-0.1725 -0.24219,-0.37618 -0.24219,-0.61328v-7.64844c0,-0.23708 0.0805,-0.43589 0.24219,-0.59766c0.17245,-0.17235 0.37808,-0.25976 0.61523,-0.25976c0.23714,0 0.43597,0.08742 0.59766,0.25976zM134.8471,156.3682c0.16169,0.16174 0.24219,0.36251 0.24219,0.59961v0.30664c0.04311,-0.04309 0.12361,-0.12855 0.24218,-0.25781c0.11856,-0.12944 0.26503,-0.25941 0.4375,-0.38867c0.18324,-0.14009 0.38207,-0.25846 0.59766,-0.35547c0.22636,-0.10784 0.46302,-0.16211 0.71094,-0.16211c0.23713,0 0.43596,0.08742 0.59765,0.25976c0.17247,0.16174 0.25977,0.36055 0.25977,0.59766c0,0.22647 -0.0873,0.42531 -0.25977,0.59766c-0.16167,0.16176 -0.3605,0.24219 -0.59765,0.24219c-0.40961,0 -0.74326,0.097 -1.00196,0.29102c-0.2587,0.18326 -0.46433,0.40537 -0.61523,0.66406c-0.14012,0.2587 -0.23712,0.52833 -0.29102,0.80859c-0.05389,0.28031 -0.08007,0.51213 -0.08007,0.69531v4.34766c-0.00001,0.23725 -0.0805,0.44289 -0.24219,0.61523c-0.16168,0.16176 -0.36246,0.24219 -0.59961,0.24219c-0.23713,0 -0.44081,-0.08042 -0.61328,-0.24219c-0.16169,-0.1725 -0.24219,-0.37813 -0.24219,-0.61523v-7.64648c0,-0.23708 0.0805,-0.43785 0.24219,-0.59961c0.17245,-0.17235 0.37613,-0.25781 0.61328,-0.25781c0.23714,0 0.43792,0.08547 0.59961,0.25781zM89.80608,157.56547c-0.28026,0.11863 -0.51887,0.26994 -0.71289,0.45312c-0.18324,0.17237 -0.32775,0.36635 -0.43555,0.58203c-0.10779,0.21563 -0.18829,0.41447 -0.24218,0.59766c-0.05385,0.18328 -0.08682,0.34623 -0.09766,0.48633c-0.01083,0.12825 -0.01562,0.20193 -0.01562,0.22461h5.23828c0,-0.33414 -0.05432,-0.65129 -0.16211,-0.95312c-0.10779,-0.30191 -0.27559,-0.5667 -0.50196,-0.79297c-0.21557,-0.23715 -0.49491,-0.42436 -0.83984,-0.56445c-0.34493,-0.14009 -0.74939,-0.21094 -1.21289,-0.21094c-0.39883,0 -0.73732,0.05906 -1.01758,0.17773zM108.42522,157.59866c-0.33416,0.12933 -0.62513,0.33302 -0.87304,0.61328c-0.23715,0.26948 -0.42629,0.61964 -0.56641,1.05078c-0.14012,0.43117 -0.21094,0.94425 -0.21094,1.53711c0,0.59286 0.07082,1.10401 0.21094,1.53516c0.14014,0.42038 0.32928,0.77052 0.56641,1.05078c0.24791,0.26951 0.53889,0.47514 0.87304,0.61523c0.34493,0.12926 0.71641,0.19336 1.11524,0.19336c0.39882,0 0.76546,-0.0641 1.09961,-0.19336c0.34491,-0.14012 0.63589,-0.34575 0.87304,-0.61523c0.24793,-0.28026 0.44191,-0.6304 0.58203,-1.05078c0.14012,-0.43114 0.20899,-0.9423 0.20899,-1.53516c0,-0.59286 -0.06887,-1.10594 -0.20899,-1.53711c-0.14013,-0.43114 -0.33412,-0.7813 -0.58203,-1.05078c-0.23714,-0.28034 -0.52811,-0.48402 -0.87304,-0.61328c-0.33415,-0.14009 -0.70079,-0.21094 -1.09961,-0.21094c-0.39883,0 -0.77031,0.07084 -1.11524,0.21094zM83.33928,167.4014c0.22637,0.16169 0.33984,0.37216 0.33984,0.63086c0,0.07559 -0.00479,0.12986 -0.01562,0.16211l-0.4043,1.8418c-0.04311,0.17237 -0.11393,0.31882 -0.21094,0.4375c-0.097,0.11868 -0.23182,0.17773 -0.4043,0.17773c-0.17247,0 -0.30729,-0.05906 -0.4043,-0.17773c-0.09701,-0.11845 -0.16587,-0.2649 -0.20898,-0.4375l-0.4043,-1.8418c-0.01083,-0.03225 -0.01562,-0.08652 -0.01562,-0.16211c0,-0.25862 0.11152,-0.4691 0.33789,-0.63086c0.22637,-0.16176 0.45818,-0.24219 0.69531,-0.24219c0.23713,0 0.46894,0.08042 0.69531,0.24219zM62.91155,167.74125c0.24791,0.23713 0.37109,0.5281 0.37109,0.87305v3.91211l4.34961,-4.68945c0.2048,-0.21568 0.45795,-0.32226 0.75976,-0.32226c0.30183,0 0.57147,0.10658 0.80859,0.32226c0.23713,0.21558 0.35547,0.49685 0.35547,0.8418c0,0.26958 -0.08534,0.48976 -0.25781,0.66211l-3.12109,3.18555l4.07422,5.70703c0.16169,0.22637 0.24219,0.47468 0.24219,0.74414c0,0.11863 -0.02618,0.24858 -0.08008,0.38867c-0.04311,0.14002 -0.11393,0.26999 -0.21094,0.38867c-0.09701,0.10784 -0.22019,0.1981 -0.37109,0.27344c-0.15091,0.07559 -0.3284,0.11328 -0.5332,0.11328c-0.18324,0 -0.35589,-0.03769 -0.51758,-0.11328c-0.16168,-0.07534 -0.2965,-0.18696 -0.4043,-0.33789l-3.75195,-5.5957l-1.3418,1.35937v3.45898c0,0.34497 -0.12318,0.63594 -0.37109,0.87305c-0.23714,0.2371 -0.52812,0.35547 -0.87305,0.35547c-0.34494,0 -0.63592,-0.11837 -0.87305,-0.35547c-0.23715,-0.23713 -0.35742,-0.5281 -0.35742,-0.87305v-10.29883c0,-0.34497 0.12027,-0.63594 0.35742,-0.87305c0.23714,-0.2371 0.52812,-0.35547 0.87305,-0.35547c0.34492,0 0.63589,0.11837 0.87305,0.35547zM73.52093,167.74125c0.24791,0.23713 0.37305,0.5281 0.37305,0.87305v3.91211l4.34961,-4.68945c0.2048,-0.21568 0.45795,-0.32226 0.75977,-0.32226c0.30182,0 0.57147,0.10658 0.80859,0.32226c0.23715,0.21558 0.35547,0.49685 0.35547,0.8418c0,0.26958 -0.08729,0.48976 -0.25977,0.66211l-3.11914,3.18555l4.07422,5.70703c0.16169,0.22637 0.24219,0.47468 0.24219,0.74414c0,0.11863 -0.02813,0.24858 -0.08203,0.38867c-0.04311,0.14002 -0.11198,0.26999 -0.20898,0.38867c-0.09701,0.10784 -0.22214,0.1981 -0.37305,0.27344c-0.15091,0.07559 -0.3284,0.11328 -0.5332,0.11328c-0.18324,0 -0.35589,-0.03769 -0.51758,-0.11328c-0.16168,-0.07534 -0.2965,-0.18696 -0.4043,-0.33789l-3.75,-5.5957l-1.3418,1.35937v3.45898c0,0.34497 -0.12513,0.63594 -0.37305,0.87305c-0.23714,0.2371 -0.52812,0.35547 -0.87305,0.35547c-0.34494,0 -0.63592,-0.11837 -0.87305,-0.35547c-0.23713,-0.23713 -0.35547,-0.5281 -0.35547,-0.87305v-10.29883c0,-0.34497 0.11834,-0.63594 0.35547,-0.87305c0.23714,-0.2371 0.52812,-0.35547 0.87305,-0.35547c0.34492,0 0.63589,0.11837 0.87305,0.35547zM104.58147,167.53031c0.21559,0.08635 0.39988,0.21632 0.55078,0.38867c0.16169,0.16179 0.28487,0.35576 0.3711,0.58203c0.09701,0.22637 0.14648,0.46787 0.14648,0.72656v5.85352h0.87305c0.29103,0 0.53934,0.10179 0.74414,0.30664c0.21558,0.2048 0.32227,0.45989 0.32227,0.76172c-0.00001,0.29097 -0.10669,0.53734 -0.32227,0.74219c-0.2048,0.20485 -0.45311,0.30859 -0.74414,0.30859h-0.87305v1.71289c0,0.34497 -0.12513,0.63594 -0.37304,0.87305c-0.23714,0.2371 -0.52812,0.35547 -0.87305,0.35547c-0.34494,0 -0.63592,-0.11837 -0.87305,-0.35547c-0.23713,-0.23713 -0.35547,-0.5281 -0.35547,-0.87305v-1.71289h-4.00976c-0.3126,0 -0.59194,-0.04948 -0.83985,-0.14648c-0.2479,-0.10767 -0.46518,-0.24732 -0.64843,-0.41992c-0.17247,-0.17255 -0.30534,-0.37139 -0.40235,-0.59766c-0.09701,-0.23713 -0.14648,-0.48542 -0.14648,-0.74414c0,-0.54972 0.21048,-1.06767 0.63086,-1.55273l4.52734,-5.33594c0.23715,-0.28026 0.47865,-0.51692 0.72656,-0.71094c0.2587,-0.20485 0.55648,-0.30664 0.89063,-0.30664c0.23714,0 0.46215,0.04752 0.67773,0.14453zM110.6596,167.74125c0.24791,0.23713 0.37109,0.5281 0.37109,0.87305v3.91211l4.34961,-4.68945c0.2048,-0.21568 0.45795,-0.32226 0.75977,-0.32226c0.30182,0 0.57146,0.10658 0.80859,0.32226c0.23713,0.21558 0.35547,0.49685 0.35547,0.8418c0,0.26958 -0.08729,0.48976 -0.25977,0.66211l-3.11914,3.18555l4.07422,5.70703c0.16169,0.22637 0.24219,0.47468 0.24219,0.74414c0,0.11863 -0.02618,0.24858 -0.08008,0.38867c-0.04311,0.14002 -0.11393,0.26999 -0.21094,0.38867c-0.097,0.10784 -0.22019,0.1981 -0.37109,0.27344c-0.15091,0.07559 -0.3284,0.11328 -0.5332,0.11328c-0.18325,0 -0.35589,-0.03769 -0.51758,-0.11328c-0.16169,-0.07534 -0.29651,-0.18696 -0.4043,-0.33789l-3.75195,-5.5957l-1.3418,1.35937v3.45898c0,0.34497 -0.12318,0.63594 -0.37109,0.87305c-0.23714,0.2371 -0.52812,0.35547 -0.87305,0.35547c-0.34492,0 -0.63589,-0.11837 -0.87305,-0.35547c-0.23712,-0.23713 -0.35742,-0.5281 -0.35742,-0.87305v-10.29883c0,-0.34497 0.1203,-0.63594 0.35742,-0.87305c0.23714,-0.2371 0.52812,-0.35547 0.87305,-0.35547c0.34492,0 0.63589,0.11837 0.87305,0.35547zM125.79046,167.6768c0.28026,0.18326 0.52371,0.4461 0.72851,0.79102l4.78516,8.01953v-7.9375c0,-0.32345 0.11347,-0.5999 0.33984,-0.82617c0.23714,-0.22627 0.51163,-0.33789 0.82422,-0.33789c0.32336,0 0.5998,0.11162 0.82617,0.33789c0.23716,0.22637 0.35547,0.50282 0.35547,0.82617v10.20117c0,0.19414 -0.03781,0.37843 -0.11328,0.55078c-0.07544,0.16179 -0.17923,0.30629 -0.30859,0.43555c-0.11857,0.12926 -0.26308,0.233 -0.43555,0.30859c-0.16169,0.06476 -0.33919,0.0957 -0.5332,0.0957c-0.37727,0 -0.70608,-0.097 -0.98633,-0.29102c-0.26948,-0.19402 -0.50614,-0.45685 -0.71094,-0.79101l-4.78711,-8.01953v7.9375c0,0.31264 -0.11834,0.58712 -0.35547,0.82422c-0.22636,0.22627 -0.50084,0.33984 -0.82422,0.33984c-0.31258,0 -0.58706,-0.11358 -0.82421,-0.33984c-0.22637,-0.23715 -0.33985,-0.51163 -0.33985,-0.82422v-10.21875c0,-0.37727 0.13482,-0.69927 0.4043,-0.96875c0.26947,-0.26948 0.59828,-0.4043 0.98633,-0.4043c0.37726,0 0.69927,0.097 0.96875,0.29102zM177.30413,167.72563c0.23715,0.22637 0.35547,0.50087 0.35547,0.82422v10.42773c0,0.32348 -0.11832,0.59795 -0.35547,0.82422c-0.22636,0.22627 -0.50085,0.33984 -0.82422,0.33984c-0.32336,0 -0.59785,-0.11358 -0.82422,-0.33984c-0.22637,-0.23715 -0.33984,-0.51163 -0.33984,-0.82422v-10.42773c0,-0.32345 0.11347,-0.59795 0.33984,-0.82422c0.23714,-0.22627 0.51163,-0.33984 0.82422,-0.33984c0.32336,0 0.59785,0.11358 0.82422,0.33984zM99.27874,175.0811h3.89648v-4.65625zM89.6928,171.0225c0.45272,0.151 0.83585,0.34014 1.14844,0.56641c0.32336,0.22634 0.57167,0.47466 0.74414,0.74414c0.18323,0.2588 0.27539,0.50029 0.27539,0.72656c0,0.14002 -0.03298,0.26999 -0.09766,0.38867c-0.06468,0.11868 -0.15002,0.22047 -0.25781,0.30664c-0.09701,0.07534 -0.21048,0.14139 -0.33984,0.19531c-0.11855,0.04309 -0.2369,0.06445 -0.35547,0.06445c-0.12934,0 -0.25447,-0.02811 -0.37305,-0.08203c-0.11858,-0.06476 -0.20392,-0.17134 -0.25781,-0.32226c-0.08622,-0.20485 -0.20457,-0.37748 -0.35547,-0.51758c-0.14011,-0.14009 -0.30307,-0.25367 -0.48633,-0.33984c-0.17247,-0.09701 -0.35965,-0.16785 -0.56445,-0.21094c-0.19403,-0.04309 -0.38802,-0.06445 -0.58203,-0.06445c-0.42039,0 -0.77248,0.07563 -1.05274,0.22656c-0.28025,0.14014 -0.41992,0.36709 -0.41992,0.67969c0,0.25872 0.13482,0.45756 0.4043,0.59766c0.28025,0.14009 0.62555,0.2652 1.03515,0.37305c0.40961,0.09726 0.8519,0.20384 1.32618,0.32227c0.47428,0.10782 0.91657,0.25911 1.32617,0.45312c0.4096,0.18323 0.7481,0.43155 1.01758,0.74414c0.27988,0.3014 0.41954,0.70526 0.41992,1.21094v0.00195c-0.00026,0.53809 -0.1021,1.01279 -0.30664,1.42187c-0.19403,0.39884 -0.46367,0.73734 -0.8086,1.01758c-0.33415,0.26953 -0.73181,0.47514 -1.19531,0.61523c-0.45272,0.14009 -0.93768,0.21094 -1.45508,0.21094c-0.65752,0 -1.23947,-0.09221 -1.74609,-0.27539c-0.50662,-0.19402 -0.93241,-0.4307 -1.27734,-0.71094c-0.34495,-0.28026 -0.60974,-0.58771 -0.79297,-0.92187c-0.17248,-0.34492 -0.25977,-0.66403 -0.25977,-0.95508c0,-0.24789 0.11348,-0.44673 0.33984,-0.59766c0.23714,-0.15093 0.49029,-0.22656 0.75977,-0.22656c0.18325,0 0.35105,0.03794 0.50195,0.11328c0.15091,0.07534 0.25954,0.1937 0.32422,0.35547c0.18325,0.45271 0.44609,0.81934 0.79102,1.09961c0.34493,0.28026 0.79886,0.41992 1.35937,0.41992c0.18323,0 0.36557,-0.02137 0.54883,-0.06445c0.18325,-0.05392 0.34426,-0.12281 0.48438,-0.20898c0.1509,-0.09701 0.26924,-0.21058 0.35546,-0.33984c0.09701,-0.14017 0.14649,-0.30119 0.14649,-0.48437c0,-0.29097 -0.13482,-0.51792 -0.4043,-0.67969c-0.26948,-0.16164 -0.60312,-0.29645 -1.00195,-0.4043c-0.39882,-0.11842 -0.83627,-0.232 -1.31055,-0.33984c-0.47428,-0.11858 -0.90977,-0.27473 -1.30859,-0.46875c-0.39883,-0.19404 -0.73443,-0.44717 -1.00391,-0.75976c-0.26948,-0.31259 -0.40429,-0.73354 -0.40429,-1.26172c0,-0.42038 0.08729,-0.80836 0.25976,-1.16406c0.17247,-0.35568 0.41397,-0.65636 0.72656,-0.9043c0.32338,-0.24796 0.7065,-0.44194 1.14844,-0.58203c0.44194,-0.14009 0.9337,-0.21094 1.47266,-0.21094c0.54973,0 1.04923,0.08042 1.50195,0.24219zM141.24163,171.13578c0.57129,0.22637 1.0679,0.55032 1.48828,0.9707c0.4204,0.42038 0.7492,0.92667 0.98633,1.51953c0.24791,0.58207 0.37109,1.23 0.37109,1.94141c0,0.71141 -0.12318,1.36222 -0.37109,1.95508c-0.23714,0.58207 -0.56595,1.08352 -0.98633,1.50391c-0.42038,0.42041 -0.91699,0.74923 -1.48828,0.98633c-0.57129,0.22627 -1.18428,0.33984 -1.8418,0.33984c-0.64674,0 -1.25683,-0.11358 -1.82812,-0.33984c-0.57129,-0.23713 -1.0679,-0.56594 -1.48828,-0.98633c-0.42039,-0.42038 -0.75405,-0.92183 -1.00196,-1.50391c-0.23715,-0.59286 -0.35547,-1.24367 -0.35547,-1.95508c0,-0.71141 0.11832,-1.35933 0.35547,-1.94141c0.24792,-0.59286 0.58157,-1.09915 1.00196,-1.51953c0.42038,-0.42048 0.91699,-0.74443 1.48828,-0.9707c0.57129,-0.2371 1.18138,-0.35547 1.82812,-0.35547c0.65752,0 1.27051,0.11837 1.8418,0.35547zM147.04827,171.13578c0.22637,0.22637 0.33984,0.496 0.33984,0.80859c0.09701,-0.10784 0.21535,-0.231 0.35547,-0.37109c0.1509,-0.14009 0.31386,-0.2652 0.48633,-0.37305c0.18325,-0.11842 0.37044,-0.21542 0.56445,-0.29101c0.19403,-0.08617 0.38802,-0.12891 0.58203,-0.12891c0.43117,0 0.72215,0.11358 0.87305,0.33984c0.16169,0.22634 0.24414,0.49114 0.24414,0.79297c0,0.24799 -0.05916,0.43519 -0.17773,0.56445c-0.10779,0.11842 -0.24941,0.21063 -0.42188,0.27539c-0.16169,0.06476 -0.33918,0.11902 -0.5332,0.16211c-0.19402,0.03225 -0.37636,0.07978 -0.54883,0.14453c-0.3126,0.11858 -0.56575,0.27669 -0.75976,0.4707c-0.18325,0.18313 -0.32487,0.38197 -0.42188,0.59766c-0.09703,0.2047 -0.16103,0.41517 -0.19336,0.63086c-0.03233,0.21566 -0.04883,0.41447 -0.04883,0.59766v3.62109c0,0.32348 -0.11831,0.5999 -0.35547,0.82617c-0.22636,0.22627 -0.50084,0.33789 -0.82421,0.33789c-0.31258,0 -0.58707,-0.11162 -0.82422,-0.33789c-0.22637,-0.23715 -0.33985,-0.51358 -0.33985,-0.82617v-7.0332c0,-0.31269 0.11348,-0.58233 0.33985,-0.80859c0.23714,-0.2371 0.51647,-0.35547 0.83984,-0.35547c0.32336,0 0.59785,0.11837 0.82422,0.35547zM153.33343,171.13578c0.22636,0.22637 0.33984,0.496 0.33984,0.80859c0.09701,-0.10784 0.22019,-0.22621 0.37109,-0.35547c0.15091,-0.14002 0.3352,-0.26999 0.55078,-0.38867c0.21559,-0.11842 0.46194,-0.21542 0.74219,-0.29101c0.29104,-0.08617 0.615,-0.12891 0.9707,-0.12891c0.42039,0 0.77053,0.04273 1.05079,0.12891c0.29103,0.08617 0.53934,0.19975 0.74414,0.33984c0.20481,0.12946 0.37746,0.28078 0.51757,0.45312c0.14013,0.16156 0.2701,0.32935 0.38868,0.50195c0.097,-0.15083 0.22019,-0.30699 0.37109,-0.46875c0.15092,-0.1725 0.3449,-0.33061 0.58203,-0.4707c0.24792,-0.14009 0.54374,-0.25172 0.88867,-0.33789c0.34493,-0.09701 0.76589,-0.14648 1.26172,-0.14648c0.24792,0 0.52921,0.04273 0.8418,0.12891c0.32337,0.07551 0.61919,0.20549 0.88867,0.38867c0.28024,0.18326 0.51206,0.42671 0.69531,0.72851c0.19402,0.29102 0.29102,0.65086 0.29102,1.08203v5.86914c0,0.31264 -0.11832,0.58712 -0.35547,0.82422c-0.22636,0.22627 -0.5028,0.33984 -0.82617,0.33984c-0.32337,0 -0.59785,-0.11358 -0.82422,-0.33984c-0.22637,-0.23715 -0.33984,-0.51163 -0.33984,-0.82422v-4.64062c0,-0.45274 -0.15616,-0.83389 -0.46875,-1.14648c-0.3126,-0.31259 -0.69377,-0.46875 -1.14649,-0.46875c-0.45272,0 -0.83584,0.15616 -1.14844,0.46875c-0.31259,0.31259 -0.46875,0.69375 -0.46875,1.14648v4.64062c0,0.31264 -0.11834,0.58712 -0.35546,0.82422c-0.22637,0.22627 -0.49601,0.33984 -0.8086,0.33984c-0.32336,0 -0.60464,-0.11358 -0.8418,-0.33984c-0.22636,-0.23715 -0.33984,-0.51163 -0.33984,-0.82422v-4.64062c0,-0.45274 -0.15616,-0.83389 -0.46875,-1.14648c-0.31259,-0.31259 -0.69376,-0.46875 -1.14648,-0.46875c-0.45272,0 -0.83585,0.15616 -1.14844,0.46875c-0.31259,0.31259 -0.46875,0.69375 -0.46875,1.14648v4.64062c0,0.31264 -0.11348,0.58712 -0.33984,0.82422c-0.22637,0.22627 -0.50085,0.33984 -0.82422,0.33984c-0.32336,0 -0.60465,-0.11358 -0.8418,-0.33984c-0.22637,-0.23715 -0.33984,-0.51163 -0.33984,-0.82422v-7.0332c0,-0.31269 0.11347,-0.58233 0.33984,-0.80859c0.23714,-0.2371 0.51843,-0.35547 0.8418,-0.35547c0.32336,0 0.59785,0.11837 0.82422,0.35547zM171.65374,170.9268c0.4635,0.09696 0.86311,0.24632 1.19726,0.45117c0.34495,0.2048 0.60779,0.46475 0.79102,0.77734c0.19402,0.30183 0.29102,0.66847 0.29101,1.09961v5.77148c0,0.31249 -0.10668,0.57728 -0.32226,0.79297c-0.21558,0.21568 -0.48038,0.32227 -0.79297,0.32227c-0.29103,0 -0.54418,-0.09026 -0.75977,-0.27344c-0.2048,-0.19401 -0.32314,-0.43747 -0.35546,-0.72851c-0.40961,0.38808 -0.84025,0.65287 -1.29297,0.79297c-0.45272,0.14009 -0.96582,0.20898 -1.53711,0.20898c-0.36649,0 -0.73797,-0.05427 -1.11524,-0.16211c-0.36648,-0.10769 -0.70014,-0.26869 -1.00195,-0.48437c-0.29102,-0.22637 -0.52768,-0.50084 -0.71094,-0.82422c-0.18323,-0.32335 -0.27539,-0.70164 -0.27539,-1.13281c0,-0.6683 0.14451,-1.19109 0.43555,-1.56836c0.30181,-0.37727 0.67524,-0.66145 1.11719,-0.85547c0.44194,-0.19409 0.91526,-0.3357 1.42187,-0.42187c0.5174,-0.08642 0.99751,-0.17164 1.43945,-0.25781c0.44195,-0.08617 0.80858,-0.20454 1.09961,-0.35547c0.30182,-0.16169 0.45313,-0.41485 0.45313,-0.75977c0,-0.16159 -0.04948,-0.30124 -0.14648,-0.41992c-0.08623,-0.12951 -0.20941,-0.23325 -0.3711,-0.30859c-0.16168,-0.08617 -0.35082,-0.15027 -0.5664,-0.19336c-0.2156,-0.04309 -0.44256,-0.06445 -0.67969,-0.06445c-0.31259,0 -0.55409,0.04273 -0.72657,0.12891c-0.17246,0.08642 -0.31408,0.19496 -0.42187,0.32422c-0.09701,0.12928 -0.17751,0.27378 -0.24219,0.43555c-0.06468,0.15098 -0.14518,0.29066 -0.24218,0.41992c-0.08625,0.12951 -0.20457,0.23804 -0.35547,0.32422c-0.15091,0.08617 -0.36623,0.12891 -0.64649,0.12891c-0.2587,0 -0.48567,-0.0641 -0.67969,-0.19336c-0.18323,-0.14012 -0.27539,-0.38844 -0.27539,-0.74414c0,-0.34494 0.0873,-0.6621 0.25977,-0.95312c0.17246,-0.291 0.42077,-0.53929 0.74414,-0.74414c0.32337,-0.21571 0.71619,-0.38353 1.17969,-0.50195c0.4635,-0.11868 0.98629,-0.17773 1.56836,-0.17773c0.54973,0 1.05603,0.04948 1.51953,0.14648zM138.33147,172.73735c-0.31258,0.16169 -0.58222,0.38866 -0.80859,0.67969c-0.21558,0.28026 -0.38142,0.60906 -0.5,0.98633c-0.11858,0.36649 -0.17774,0.75446 -0.17774,1.16406c0,0.4096 0.05916,0.80241 0.17774,1.17969c0.11857,0.37727 0.28441,0.70609 0.5,0.98633c0.22636,0.28014 0.496,0.50709 0.80859,0.67969c0.31259,0.16176 0.66954,0.24219 1.06836,0.24219c0.39883,0 0.75381,-0.08042 1.06641,-0.24219c0.32337,-0.17247 0.59301,-0.39942 0.80859,-0.67969c0.21558,-0.28024 0.38143,-0.60906 0.5,-0.98633c0.11858,-0.37727 0.17969,-0.77009 0.17969,-1.17969c0,-0.4096 -0.06111,-0.79757 -0.17969,-1.16406c-0.11856,-0.37727 -0.28441,-0.70606 -0.5,-0.98633c-0.21558,-0.29095 -0.48522,-0.51792 -0.80859,-0.67969c-0.3126,-0.17235 -0.66758,-0.25977 -1.06641,-0.25977c-0.39882,0 -0.75577,0.08742 -1.06836,0.25977zM170.78069,175.87406c-0.37727,0.11842 -0.88841,0.23679 -1.53516,0.35547c-0.78686,0.14014 -1.18164,0.51162 -1.18164,1.11523c0,0.15095 0.02135,0.2974 0.06446,0.4375c0.05389,0.14002 0.14119,0.26804 0.25976,0.38672c0.11858,0.10759 0.27474,0.19501 0.46875,0.25977c0.20481,0.06476 0.45311,0.0957 0.74414,0.0957c0.24793,0 0.49623,-0.02616 0.74414,-0.08008c0.25871,-0.0645 0.48372,-0.14997 0.67774,-0.25781c0.20479,-0.1185 0.36775,-0.26011 0.48633,-0.42187c0.12936,-0.17237 0.19336,-0.36635 0.19336,-0.58203v-1.56836c-0.22636,0.05392 -0.53383,0.14109 -0.92188,0.25977z" fill="#1eff00" stroke="none" stroke-width="1.01053" stroke-miterlimit="10" stroke-dashoffset="0"/></g></g></svg>