<svg version="1.1" xmlns="http://www.w3.org/2000/svg" xmlns:xlink="http://www.w3.org/1999/xlink" width="372.21484" height="68.64258"><g transform="translate(-53.89258,-145.67871)"><g data-paper-data="{&quot;isPaintingLayer&quot;:true}" fill-rule="nonzero" stroke-linecap="butt" stroke-linejoin="miter" stroke-dasharray="" style="mix-blend-mode: normal"><path d="M425.00976,146.42871c0.19313,0 0.34766,0.15453 0.34766,0.34766v66.44531c0,0.19314 -0.15453,0.34961 -0.34766,0.34961h-370.01757c-0.19313,0 -0.34961,-0.15647 -0.34961,-0.34961v-66.44531c0,-0.19313 0.15648,-0.34766 0.34961,-0.34766z" data-paper-data="{&quot;origPos&quot;:null}" id="rect815-0-0-8-6-9" fill="#1e1e1e" stroke="#1eff00" stroke-width="1.5" stroke-miterlimit="4" stroke-dashoffset="17.35"/><path d="M69.10179,187.56516c1.27593,0 2.33409,4.30813 3.36631,5.0581c1.03226,0.74997 5.45654,0.42505 5.85082,1.63854c0.39428,1.21349 -3.37603,3.55109 -3.77031,4.76459c-0.39428,1.21349 1.28194,5.32078 0.24983,6.07079c-1.03226,0.74997 -4.42057,-2.11344 -5.6965,-2.11344c-1.27593,0 -4.66424,2.86341 -5.6965,2.11344c-1.03226,-0.75001 0.64396,-4.8573 0.24983,-6.07079c-0.39428,-1.21349 -4.16459,-3.55109 -3.77031,-4.76459c0.39428,-1.21349 4.81856,-0.88857 5.85082,-1.63854c1.03223,-0.74997 2.09038,-5.0581 3.36631,-5.0581z" data-paper-data="{&quot;origPos&quot;:null}" id="path1428-5-07-2-6-4" fill="#1eff00" stroke="none" stroke-width="0.88188" stroke-miterlimit="4" stroke-dashoffset="17.35"/><path d="M92.03884,187.56516c1.27593,0 2.33405,4.30813 3.36631,5.0581c1.03226,0.74997 5.4565,0.42505 5.85078,1.63854c0.39428,1.21349 -3.37599,3.55109 -3.77027,4.76459c-0.39432,1.21349 1.2819,5.32078 0.24945,6.07079c-1.03223,0.74997 -4.42054,-2.11344 -5.69647,-2.11344c-1.27597,0 -4.66424,2.86341 -5.6965,2.11344c-1.03226,-0.75001 0.64396,-4.8573 0.24945,-6.07079c-0.39428,-1.21349 -4.16455,-3.55109 -3.77027,-4.76459c0.39428,-1.21349 4.81852,-0.88857 5.85078,-1.63854c1.03226,-0.74997 2.09038,-5.0581 3.36635,-5.0581z" data-paper-data="{&quot;origPos&quot;:null}" id="path1428-0-2-53-3-8-0" fill="#1eff00" stroke="none" stroke-width="0.88188" stroke-miterlimit="4" stroke-dashoffset="17.35"/><path d="M114.97573,187.56516c1.27593,0 2.33409,4.30813 3.36635,5.0581c1.03223,0.74997 5.4565,0.42505 5.85078,1.63854c0.39428,1.21349 -3.37602,3.55109 -3.77031,4.76459c-0.39428,1.21349 1.28194,5.32078 0.24983,6.07079c-1.03226,0.74997 -4.42057,-2.11344 -5.6965,-2.11344c-1.27593,0 -4.66424,2.86341 -5.6965,2.11344c-1.03223,-0.75001 0.64396,-4.8573 0.24983,-6.07079c-0.39428,-1.21349 -4.16459,-3.55109 -3.77031,-4.76459c0.39432,-1.21349 4.81856,-0.88857 5.85082,-1.63854c1.03226,-0.74997 2.09038,-5.0581 3.36631,-5.0581z" data-paper-data="{&quot;origPos&quot;:null}" id="path1428-0-6-3-11-6-9-0" fill="#1eff00" stroke="none" stroke-width="0.88188" stroke-miterlimit="4" stroke-dashoffset="17.35"/><path d="M137.91287,193.39206c0.43381,0 0.79357,1.46476 1.14454,1.71976c0.35097,0.25512 1.85521,0.14438 1.98927,0.5571c0.13406,0.41257 -1.14783,1.20737 -1.28189,1.61994c-0.13406,0.41261 0.43585,1.80907 0.08493,2.06408c-0.35097,0.25512 -1.503,-0.71856 -1.93682,-0.71856c-0.43381,0 -1.58584,0.97357 -1.93681,0.71856c-0.35097,-0.25512 0.21895,-1.65146 0.08493,-2.06408c-0.13406,-0.41257 -1.41596,-1.20737 -1.2819,-1.61994c0.13406,-0.41261 1.63831,-0.30198 1.98926,-0.5571c0.35097,-0.25512 0.71074,-1.71976 1.14456,-1.71976z" data-paper-data="{&quot;origPos&quot;:null}" id="path1428-0-0-2-3-6-97-5" fill="#1eff00" stroke="none" stroke-width="0.29984" stroke-miterlimit="4" stroke-dashoffset="17.35"/><path d="M67.48828,152.0166c0.62933,0.27735 1.16919,0.61316 1.61719,1.00782c0.45866,0.384 0.80935,0.79508 1.05469,1.23242c0.256,0.43734 0.38477,0.81476 0.38477,1.13476c0,0.28808 -0.10697,0.51887 -0.32031,0.68946c-0.21332,0.16 -0.44216,0.24023 -0.6875,0.24023c-0.18133,0 -0.35172,-0.04349 -0.51172,-0.12891c-0.16,-0.09589 -0.27194,-0.25142 -0.33594,-0.46484c-0.09601,-0.29868 -0.22973,-0.59091 -0.40039,-0.8789c-0.17067,-0.28808 -0.38958,-0.55058 -0.65625,-0.78516c-0.26667,-0.23476 -0.58069,-0.42001 -0.94336,-0.5586c-0.352,-0.14941 -0.76309,-0.2246 -1.23242,-0.2246c-0.53333,0 -1.03457,0.11698 -1.50391,0.35156c-0.46933,0.224 -0.88042,0.5499 -1.23242,0.97656c-0.34134,0.416 -0.61375,0.92219 -0.81641,1.51953c-0.20266,0.59734 -0.30469,1.264 -0.30469,2c0,0.736 0.10203,1.40269 0.30469,2c0.20267,0.59734 0.47507,1.11045 0.81641,1.53711c0.352,0.42676 0.76309,0.75565 1.23242,0.99024c0.46933,0.224 0.97057,0.33789 1.50391,0.33789c0.46933,0 0.88042,-0.07041 1.23242,-0.20899c0.36267,-0.14942 0.67669,-0.34159 0.94336,-0.57617c0.26667,-0.23468 0.48559,-0.4952 0.65625,-0.7832c0.17066,-0.29866 0.30439,-0.59783 0.40039,-0.89649c0.064,-0.21326 0.17594,-0.36185 0.33594,-0.44726c0.15999,-0.096 0.33038,-0.14453 0.51172,-0.14453c0.24532,0 0.47416,0.08023 0.6875,0.24023c0.21334,0.16 0.32031,0.38388 0.32031,0.67188c0,0.23468 -0.09706,0.56552 -0.28906,0.99218c-0.192,0.42666 -0.4892,0.85262 -0.89453,1.2793c-0.40533,0.416 -0.93332,0.77857 -1.58398,1.08789c-0.64,0.30934 -1.41365,0.46484 -2.32031,0.46484c-0.96,0 -1.80396,-0.18226 -2.5293,-0.54492c-0.71467,-0.36268 -1.31101,-0.84708 -1.79101,-1.45508c-0.46932,-0.608 -0.82692,-1.30142 -1.07227,-2.08007c-0.23466,-0.78935 -0.35156,-1.61153 -0.35156,-2.46485c0,-0.84268 0.1169,-1.65795 0.35156,-2.44726c0.24533,-0.78935 0.60293,-1.48274 1.07227,-2.08008c0.48,-0.608 1.07635,-1.09437 1.79101,-1.45703c0.72533,-0.36266 1.5693,-0.54297 2.5293,-0.54297c0.736,0 1.41258,0.1387 2.03125,0.41601zM73.11524,152.09668c0.192,0.18134 0.28711,0.40522 0.28711,0.67188c0,0.256 -0.09511,0.47987 -0.28711,0.67187c-0.18133,0.18142 -0.40025,0.27149 -0.65625,0.27149c-0.26666,0 -0.49745,-0.09007 -0.68945,-0.27149c-0.18134,-0.192 -0.27148,-0.41587 -0.27148,-0.67187c0,-0.26659 0.09014,-0.49046 0.27148,-0.67188c0.192,-0.18142 0.42279,-0.27344 0.68945,-0.27344c0.25599,0 0.47491,0.09202 0.65625,0.27344zM76.9961,152.79981c0.17066,0.16007 0.25586,0.35721 0.25586,0.59179v2h0.87891c0.20267,0 0.37501,0.0752 0.51367,0.22461c0.14934,0.13876 0.22266,0.30914 0.22266,0.51172c0,0.21342 -0.07331,0.38876 -0.22266,0.52735c-0.13867,0.13858 -0.31101,0.20898 -0.51367,0.20898h-0.87891v6.73633c0,0.23473 -0.0852,0.43684 -0.25586,0.60742c-0.16001,0.16 -0.35714,0.24023 -0.5918,0.24023c-0.23467,0 -0.4318,-0.08023 -0.5918,-0.24023c-0.16,-0.17073 -0.24023,-0.37284 -0.24023,-0.60742v-6.73633h-0.5918c-0.20266,0 -0.37995,-0.0704 -0.5293,-0.20898c-0.13866,-0.13859 -0.20703,-0.31393 -0.20703,-0.52735c0,-0.20276 0.06837,-0.37313 0.20703,-0.51172c0.14934,-0.14941 0.32664,-0.22461 0.5293,-0.22461h0.5918v-2c0,-0.23465 0.08023,-0.43179 0.24023,-0.59179c0.16001,-0.16 0.35714,-0.24024 0.5918,-0.24024c0.23467,0 0.4318,0.08024 0.5918,0.24024zM98.85156,155.26465c0.416,0.12808 0.75677,0.29351 1.02344,0.49609c0.10666,0.08542 0.2186,0.19036 0.33594,0.31836c0.11734,0.11724 0.22928,0.25098 0.33594,0.40039c0.10666,0.13876 0.19186,0.27744 0.25586,0.41602c0.07466,0.13883 0.11328,0.26256 0.11328,0.36914c0,0.24524 -0.09706,0.44238 -0.28906,0.5918c-0.192,0.13858 -0.39905,0.20703 -0.62305,0.20703c-0.13866,0 -0.26742,-0.0317 -0.38476,-0.0957c-0.11734,-0.07459 -0.20748,-0.18652 -0.27148,-0.33594c-0.08534,-0.20258 -0.17548,-0.37793 -0.27148,-0.52735c-0.096,-0.14941 -0.22477,-0.27314 -0.38477,-0.36914c-0.14933,-0.096 -0.33655,-0.16444 -0.56055,-0.20703c-0.21333,-0.05341 -0.48379,-0.08008 -0.81445,-0.08008c-0.65067,0 -1.12711,0.1069 -1.42578,0.32032c-0.288,0.20268 -0.43164,0.45826 -0.43164,0.76758c0,0.23458 0.0852,0.42675 0.25586,0.57617c0.17067,0.13883 0.39454,0.2606 0.67187,0.36718c0.288,0.096 0.6139,0.18128 0.97656,0.25586c0.36267,0.064 0.73018,0.14424 1.10352,0.24024c0.37333,0.08542 0.7428,0.19231 1.10547,0.32031c0.36266,0.11724 0.68165,0.28268 0.95898,0.49609c0.28801,0.20269 0.51684,0.4533 0.6875,0.75196c0.17066,0.29866 0.25586,0.67114 0.25586,1.11914l0.00195,0.00195c0,0.53334 -0.10697,0.98603 -0.32031,1.35938c-0.21333,0.36273 -0.49566,0.6619 -0.84766,0.89648c-0.352,0.2241 -0.76309,0.38951 -1.23242,0.49609c-0.46933,0.096 -0.96066,0.14258 -1.47266,0.14258c-0.72533,0 -1.33851,-0.10689 -1.83984,-0.32031c-0.49067,-0.224 -0.8968,-0.47958 -1.2168,-0.76758c-0.30934,-0.29866 -0.53322,-0.5909 -0.67187,-0.8789c-0.13866,-0.28793 -0.20703,-0.50684 -0.20703,-0.65625c0,-0.24525 0.0852,-0.44238 0.25586,-0.5918c0.18134,-0.16 0.37351,-0.24024 0.57617,-0.24024c0.128,0 0.24985,0.03675 0.36719,0.11133c0.11734,0.07459 0.20944,0.19157 0.27344,0.35156c0.18133,0.45869 0.46861,0.84303 0.86328,1.15235c0.40533,0.30934 0.98185,0.46484 1.72852,0.46484c0.34132,0 0.63356,-0.0387 0.87891,-0.11328c0.24532,-0.08542 0.44245,-0.19231 0.5918,-0.32031c0.16,-0.13866 0.2769,-0.28727 0.35156,-0.44727c0.07466,-0.17058 0.11328,-0.34592 0.11328,-0.52734c0,-0.36258 -0.14364,-0.63499 -0.43164,-0.81641c-0.288,-0.18141 -0.6456,-0.32505 -1.07226,-0.43164c-0.42667,-0.10658 -0.8962,-0.20364 -1.4082,-0.28906c-0.50133,-0.0961 -0.96591,-0.22981 -1.39258,-0.40039c-0.42667,-0.18132 -0.78426,-0.43195 -1.07226,-0.75195c-0.288,-0.33069 -0.43164,-0.78338 -0.43164,-1.35938c0,-0.832 0.30411,-1.48185 0.91211,-1.95117c0.608,-0.46934 1.45692,-0.70508 2.54492,-0.70508c0.608,0 1.11916,0.06536 1.53516,0.19336zM73.05078,155.44043c0.16,0.16008 0.24023,0.35722 0.24023,0.5918v7.56836c0,0.23473 -0.08023,0.43684 -0.24023,0.60742c-0.16001,0.16 -0.35714,0.24023 -0.5918,0.24023c-0.23467,0 -0.43872,-0.08023 -0.60937,-0.24023c-0.16,-0.17073 -0.24023,-0.37284 -0.24023,-0.60742v-7.56836c0,-0.23466 0.08023,-0.4318 0.24023,-0.5918c0.17067,-0.17058 0.37472,-0.25586 0.60937,-0.25586c0.23467,0 0.4318,0.08528 0.5918,0.25586zM81.23828,155.44043c0.16,0.16008 0.24023,0.35722 0.24023,0.5918v0.30273c0.04266,-0.04258 0.12289,-0.12786 0.24023,-0.25586c0.11734,-0.128 0.26098,-0.25481 0.43164,-0.38281c0.18133,-0.13858 0.37845,-0.25556 0.5918,-0.35156c0.22399,-0.10658 0.45778,-0.16016 0.70313,-0.16016c0.23467,0 0.4318,0.08528 0.5918,0.25586c0.17066,0.16008 0.25586,0.35722 0.25586,0.5918c0,0.22407 -0.0852,0.42121 -0.25586,0.5918c-0.16001,0.16 -0.35714,0.24023 -0.5918,0.24023c-0.40533,0 -0.73619,0.09511 -0.99219,0.28711c-0.25599,0.18134 -0.45808,0.40025 -0.60742,0.65625c-0.13866,0.256 -0.23377,0.52344 -0.28711,0.80078c-0.05334,0.27724 -0.08008,0.50608 -0.08008,0.6875v4.30469c0,0.23473 -0.08023,0.43684 -0.24023,0.60742c-0.16001,0.16 -0.35714,0.24023 -0.5918,0.24023c-0.23468,0 -0.43872,-0.08023 -0.60937,-0.24023c-0.16,-0.17073 -0.24023,-0.37284 -0.24023,-0.60742v-7.56836c0,-0.23466 0.08023,-0.4318 0.24023,-0.5918c0.17068,-0.17058 0.37472,-0.25586 0.60937,-0.25586c0.23467,0 0.4318,0.08528 0.5918,0.25586zM86.58203,155.44043c0.16,0.16008 0.24023,0.35722 0.24023,0.5918v5.56836c0,0.24524 0.0535,0.45921 0.16016,0.64062c0.11734,0.18134 0.26098,0.33489 0.43164,0.46289c0.18132,0.11742 0.37845,0.20749 0.5918,0.27149c0.22399,0.064 0.44291,0.09765 0.65625,0.09765c0.352,0 0.67098,-0.06031 0.95898,-0.17773c0.288,-0.12792 0.5287,-0.2983 0.7207,-0.51172c0.20268,-0.21332 0.35623,-0.46395 0.46289,-0.75195c0.10666,-0.29869 0.16016,-0.61767 0.16016,-0.95899v-4.64062c0,-0.23466 0.08023,-0.4318 0.24023,-0.5918c0.16001,-0.17058 0.35714,-0.25586 0.5918,-0.25586c0.23467,0 0.4318,0.08528 0.5918,0.25586c0.17066,0.16008 0.25781,0.35722 0.25781,0.5918v7.56836c0,0.23473 -0.08715,0.43684 -0.25781,0.60742c-0.16001,0.16 -0.35714,0.24023 -0.5918,0.24023c-0.23467,0 -0.4318,-0.08023 -0.5918,-0.24023c-0.16,-0.17073 -0.24023,-0.37284 -0.24023,-0.60742v-0.28906c-0.10667,0.096 -0.23844,0.21493 -0.39844,0.35351c-0.14933,0.128 -0.33655,0.24977 -0.56055,0.36719c-0.224,0.11716 -0.48649,0.21927 -0.78516,0.30469c-0.288,0.07458 -0.62381,0.11132 -1.00781,0.11132c-0.39467,0 -0.77706,-0.05357 -1.15039,-0.16015c-0.36267,-0.11734 -0.68856,-0.28772 -0.97656,-0.51172c-0.28801,-0.224 -0.51684,-0.50137 -0.6875,-0.83203c-0.17066,-0.33066 -0.25781,-0.715 -0.25781,-1.15235v-5.75976c0,-0.23466 0.08023,-0.4318 0.24023,-0.5918c0.17068,-0.17058 0.37472,-0.25586 0.60937,-0.25586c0.23467,0 0.4318,0.08528 0.5918,0.25586zM62.20899,167.64746c0.24534,0.23466 0.36719,0.5239 0.36719,0.86524v3.74414h5.2168v-3.74414c0,-0.34142 0.1169,-0.63065 0.35156,-0.86524c0.23467,-0.23458 0.52195,-0.35156 0.86328,-0.35156c0.34134,0 0.63058,0.11698 0.86523,0.35156c0.24534,0.23466 0.36719,0.5239 0.36719,0.86524v10.1914c0,0.34142 -0.12184,0.6287 -0.36719,0.86328c-0.23467,0.23459 -0.5239,0.35157 -0.86523,0.35157c-0.34134,0 -0.62862,-0.11698 -0.86328,-0.35157c-0.23466,-0.23465 -0.35156,-0.52193 -0.35156,-0.86328v-4.33593h-5.2168v4.33593c0,0.34142 -0.12185,0.6287 -0.36719,0.86328c-0.23467,0.23459 -0.5239,0.35157 -0.86523,0.35157c-0.34134,0 -0.62862,-0.11698 -0.86328,-0.35157c-0.23466,-0.23465 -0.35156,-0.52193 -0.35156,-0.86328v-10.1914c0,-0.34142 0.1169,-0.63065 0.35156,-0.86524c0.23467,-0.23458 0.52195,-0.35156 0.86328,-0.35156c0.34134,0 0.63058,0.11698 0.86523,0.35156zM94.3125,167.63184c0.23466,0.224 0.35156,0.4964 0.35156,0.8164v10.32032c0,0.30941 -0.1169,0.58182 -0.35156,0.8164c-0.224,0.224 -0.49641,0.33594 -0.81641,0.33594c-0.32,0 -0.59045,-0.11194 -0.81445,-0.33594c-0.224,-0.23468 -0.33594,-0.50709 -0.33594,-0.8164c-0.096,0.10683 -0.20297,0.2286 -0.32031,0.36718c-0.11734,0.128 -0.27781,0.24977 -0.48047,0.36719c-0.192,0.11717 -0.44262,0.21927 -0.75195,0.30469c-0.29867,0.07458 -0.67805,0.11133 -1.13672,0.11133c-0.53333,0 -1.01278,-0.11194 -1.43945,-0.33594c-0.42667,-0.224 -0.79418,-0.53802 -1.10352,-0.94336c-0.29867,-0.416 -0.53442,-0.90731 -0.70508,-1.47266c-0.16,-0.56531 -0.24023,-1.18841 -0.24023,-1.87109c0,-0.68266 0.08023,-1.3077 0.24023,-1.87305c0.17067,-0.576 0.40641,-1.06538 0.70508,-1.4707c0.30933,-0.416 0.67685,-0.73694 1.10352,-0.96094c0.42667,-0.224 0.90612,-0.33593 1.43945,-0.33593c0.39467,0 0.74235,0.05836 1.04102,0.17578c0.29866,0.11726 0.55424,0.25097 0.76758,0.40039c0.21333,0.13858 0.38372,0.26735 0.51172,0.38476c0.128,0.11742 0.22506,0.17578 0.28906,0.17578c0.05334,0 0.08008,-0.06844 0.08008,-0.20703v-3.13672c0,-0.32 0.11194,-0.5924 0.33594,-0.8164c0.224,-0.224 0.49445,-0.33594 0.81445,-0.33594c0.32,0 0.59241,0.11194 0.81641,0.33594zM77.13086,170.7998c0.45867,0.09607 0.85293,0.24468 1.18359,0.44726c0.34133,0.20266 0.60186,0.45824 0.7832,0.76758c0.192,0.29866 0.28906,0.66121 0.28906,1.08789v5.71289c0,0.30924 -0.10697,0.56979 -0.32031,0.78321c-0.21333,0.21341 -0.47387,0.32031 -0.7832,0.32031c-0.28799,0 -0.53861,-0.09007 -0.75195,-0.27149c-0.20266,-0.192 -0.32152,-0.4327 -0.35352,-0.7207c-0.40533,0.38408 -0.8313,0.64657 -1.2793,0.78516c-0.448,0.13858 -0.9542,0.20703 -1.51953,0.20703c-0.36267,0 -0.73213,-0.05358 -1.10547,-0.16016c-0.36266,-0.10658 -0.69157,-0.26705 -0.99023,-0.48047c-0.28799,-0.224 -0.52374,-0.49445 -0.70508,-0.81445c-0.18134,-0.32 -0.27148,-0.69444 -0.27148,-1.12109c0,-0.66135 0.14364,-1.17747 0.43164,-1.55079c0.29867,-0.37334 0.66618,-0.6576 1.10352,-0.84961c0.43733,-0.19192 0.90687,-0.33059 1.4082,-0.41601c0.512,-0.08517 0.9865,-0.17044 1.42383,-0.25586c0.43733,-0.08517 0.79989,-0.20215 1.08789,-0.35156c0.29867,-0.16 0.44922,-0.41061 0.44922,-0.75196c0,-0.15992 -0.04853,-0.29859 -0.14453,-0.41601c-0.08534,-0.128 -0.20719,-0.22815 -0.36719,-0.30274c-0.15999,-0.08541 -0.3472,-0.15077 -0.56055,-0.19336c-0.21334,-0.04258 -0.43722,-0.0625 -0.67187,-0.0625c-0.30934,0.00001 -0.55004,0.04154 -0.7207,0.12696c-0.17068,0.08542 -0.30936,0.19231 -0.41602,0.32031c-0.096,0.128 -0.17623,0.27164 -0.24023,0.43164c-0.064,0.14934 -0.14423,0.28802 -0.24023,0.41602c-0.08532,0.128 -0.20222,0.23489 -0.35156,0.32031c-0.14933,0.08542 -0.36329,0.12891 -0.64062,0.12891v-0.00196c-0.256,0 -0.47987,-0.0634 -0.67187,-0.1914c-0.18134,-0.13866 -0.27148,-0.38433 -0.27148,-0.73633c0,-0.34134 0.0852,-0.65536 0.25586,-0.94336c0.17067,-0.28808 0.41633,-0.53375 0.73633,-0.73633c0.32,-0.21327 0.7093,-0.37868 1.16797,-0.49609c0.45867,-0.11742 0.97673,-0.17578 1.55273,-0.17578c0.544,0 1.04524,0.04853 1.50391,0.14453zM85.79297,170.9912c0.16,0.224 0.24023,0.4865 0.24023,0.78516c0,0.24534 -0.05844,0.43255 -0.17578,0.56055c-0.10667,0.11741 -0.24536,0.20748 -0.41602,0.27148c-0.16,0.064 -0.33534,0.11757 -0.52734,0.16016c-0.19201,0.032 -0.37426,0.07858 -0.54492,0.14258v0.00195c-0.30933,0.11731 -0.55995,0.27089 -0.75195,0.46289c-0.18133,0.18126 -0.32001,0.37838 -0.41601,0.5918c-0.096,0.20258 -0.15941,0.41158 -0.19141,0.625c-0.032,0.21324 -0.04883,0.41038 -0.04883,0.59179v3.58399c0,0.32 -0.1169,0.5924 -0.35156,0.8164c-0.224,0.224 -0.49641,0.33594 -0.81641,0.33594c-0.30934,0 -0.57979,-0.11194 -0.81445,-0.33594c-0.224,-0.23468 -0.33789,-0.50709 -0.33789,-0.8164v-6.96094c0,-0.30934 0.11389,-0.57483 0.33789,-0.79883c0.23466,-0.23458 0.51203,-0.35156 0.83203,-0.35156c0.32,0 0.59045,0.11698 0.81445,0.35156c0.224,0.224 0.33594,0.48949 0.33594,0.79883c0.096,-0.10684 0.21486,-0.22861 0.35352,-0.36719c0.14934,-0.13883 0.30786,-0.26256 0.47852,-0.36914c0.18133,-0.11742 0.36855,-0.21253 0.56055,-0.28711c0.192,-0.08542 0.38417,-0.1289 0.57617,-0.1289c0.42666,0 0.71394,0.11193 0.86328,0.33593zM88.82422,173.28027c-0.37333,0.49068 -0.55859,1.1623 -0.55859,2.01562c0,0.84268 0.18526,1.50934 0.55859,2c0.384,0.49066 0.91198,0.73633 1.58398,0.73633c0.672,0 1.19503,-0.24567 1.56836,-0.73633c0.384,-0.49066 0.57617,-1.15732 0.57617,-2c0,-0.85332 -0.19217,-1.52494 -0.57617,-2.01562c-0.37333,-0.49066 -0.89636,-0.73633 -1.56836,-0.73633c-0.672,0 -1.19998,0.24567 -1.58398,0.73633zM76.26563,175.69628c-0.37333,0.11717 -0.87953,0.23415 -1.51953,0.35156c-0.77867,0.13866 -1.16797,0.50618 -1.16797,1.10352c0,0.14942 0.02179,0.29501 0.06445,0.43359c0.05332,0.13859 0.13852,0.2654 0.25586,0.38282c0.11733,0.10658 0.27284,0.19186 0.46484,0.25586c0.20267,0.06399 0.44637,0.0957 0.73437,0.0957c0.24533,0 0.49099,-0.02666 0.73633,-0.08008c0.256,-0.064 0.47987,-0.14928 0.67187,-0.25586c0.20266,-0.11732 0.36313,-0.25602 0.48047,-0.41602c0.128,-0.17058 0.19141,-0.36275 0.19141,-0.57617v-1.55078c-0.224,0.05317 -0.52811,0.13844 -0.91211,0.25586z" data-paper-data="{&quot;origPos&quot;:null}" id="path1799" fill="#1eff00" stroke="none" stroke-width="1" stroke-miterlimit="10" stroke-dashoffset="0"/></g></g></svg>