<svg version="1.1" xmlns="http://www.w3.org/2000/svg" xmlns:xlink="http://www.w3.org/1999/xlink" width="372.21484" height="68.64258"><g transform="translate(-53.89258,-145.67871)"><g data-paper-data="{&quot;isPaintingLayer&quot;:true}" fill-rule="nonzero" stroke-linecap="butt" stroke-linejoin="miter" stroke-dasharray="" style="mix-blend-mode: normal"><path d="M425.00976,146.42871c0.19314,0 0.34766,0.15452 0.34766,0.34765v66.44532c0,0.19313 -0.15452,0.34961 -0.34766,0.34961h-370.01757c-0.19313,0 -0.34961,-0.15648 -0.34961,-0.34961v-66.44532c0,-0.19313 0.15648,-0.34765 0.34961,-0.34765z" data-paper-data="{&quot;origPos&quot;:null}" id="rect815-0-37" fill="#1e1e1e" stroke="#1eff00" stroke-width="1.5" stroke-miterlimit="4" stroke-dashoffset="17.35"/><path d="M71.67787,163.43927c-0.07468,0.24542 -0.20803,0.43742 -0.40003,0.576c-0.192,0.13858 -0.42133,0.20787 -0.68799,0.20787c-0.256,0 -0.48,-0.064 -0.672,-0.192c-0.192,-0.13858 -0.32,-0.33058 -0.384,-0.576l-2.51199,-9.75999l-2.51203,9.75999c-0.064,0.24542 -0.192,0.43742 -0.384,0.576c-0.1919,0.128 -0.41056,0.192 -0.65597,0.192c-0.26676,0 -0.50143,-0.06929 -0.70401,-0.20787c-0.19208,-0.13858 -0.3254,-0.33058 -0.39999,-0.576l-3.024,-10.62399c-0.02016,-0.10658 -0.03024,-0.19187 -0.03024,-0.25587c0,-0.07483 0.01008,-0.16554 0.03024,-0.27213c0.032,-0.10658 0.08,-0.20787 0.144,-0.30387c0.07458,-0.10658 0.17058,-0.19187 0.288,-0.25587c0.128,-0.07458 0.288,-0.11187 0.48,-0.11187c0.21342,0 0.40542,0.05871 0.576,0.17613c0.17058,0.11727 0.28258,0.28261 0.336,0.49603l2.352,8.976l2.16,-8.51202c0.08542,-0.33058 0.24542,-0.58658 0.48,-0.768c0.24532,-0.192 0.53332,-0.288 0.864,-0.288c0.34142,0 0.62942,0.096 0.864,0.288c0.23458,0.18134 0.39458,0.43734 0.48,0.768l2.17599,8.51202l2.352,-8.976c0.05342,-0.21327 0.16013,-0.37861 0.32013,-0.49603c0.17058,-0.11742 0.36258,-0.17613 0.576,-0.17613c0.29866,0 0.52799,0.10129 0.68799,0.30387c0.17058,0.192 0.25587,0.4 0.25587,0.624c0,0.05342 0,0.10142 0,0.144c0,0.032 -0.01008,0.07471 -0.03024,0.12813l-3.024,10.62399z" data-paper-data="{&quot;origPos&quot;:null}" id="path1942" fill="#1eff00" stroke="none" stroke-width="0.26458" stroke-miterlimit="10" stroke-dashoffset="0"/><path d="M77.10183,164.01553c-0.53332,-0.21334 -0.99732,-0.51734 -1.392,-0.912c-0.39466,-0.40534 -0.70399,-0.90134 -0.92799,-1.488c-0.224,-0.58666 -0.336,-1.25866 -0.336,-2.016c0,-0.75734 0.112,-1.42934 0.336,-2.016c0.224,-0.58666 0.53333,-1.08266 0.92799,-1.488c0.39468,-0.40524 0.85868,-0.71457 1.392,-0.92799c0.544,-0.21342 1.13067,-0.32013 1.76001,-0.32013c0.62934,0 1.21067,0.10671 1.74399,0.32013c0.544,0.21332 1.01334,0.52265 1.40803,0.92799c0.39466,0.40534 0.70399,0.90134 0.92799,1.488c0.224,0.58666 0.336,1.25866 0.336,2.016c0,0.75734 -0.112,1.42934 -0.336,2.016c-0.224,0.58666 -0.53333,1.08266 -0.92799,1.488c-0.39468,0.39458 -0.86403,0.69858 -1.40803,0.912c-0.53332,0.21342 -1.11465,0.32013 -1.74399,0.32013c-0.62934,0 -1.21601,-0.10671 -1.76001,-0.32013zM81.38997,158.07963c-0.13858,-0.42666 -0.33058,-0.77332 -0.576,-1.03997c-0.23468,-0.27734 -0.52268,-0.48001 -0.864,-0.60801c-0.33068,-0.13858 -0.69335,-0.20787 -1.08801,-0.20787c-0.39466,0 -0.76266,0.06929 -1.104,0.20787c-0.33058,0.128 -0.61858,0.33067 -0.864,0.60801c-0.23476,0.26666 -0.42143,0.61332 -0.56001,1.03997c-0.13858,0.42668 -0.20787,0.93335 -0.20787,1.52001c0,0.58666 0.06929,1.09333 0.20787,1.52001c0.13876,0.416 0.32543,0.76266 0.56001,1.03997c0.24534,0.26676 0.53334,0.46943 0.864,0.60801c0.34134,0.128 0.70934,0.192 1.104,0.192c0.39466,0 0.75733,-0.064 1.08801,-0.192c0.34142,-0.13866 0.62942,-0.34133 0.864,-0.60801c0.24542,-0.27732 0.43742,-0.62397 0.576,-1.03997c0.13858,-0.42668 0.20787,-0.93335 0.20787,-1.52001c0,-0.58666 -0.06929,-1.09333 -0.20787,-1.52001z" data-paper-data="{&quot;origPos&quot;:null}" id="path1944" fill="#1eff00" stroke="none" stroke-width="0.26458" stroke-miterlimit="10" stroke-dashoffset="0"/><path d="M93.95811,163.29576c-0.08524,0.27742 -0.23457,0.50142 -0.44799,0.672c-0.20266,0.17058 -0.44799,0.25587 -0.73599,0.25587c-0.2881,0 -0.53344,-0.08529 -0.73603,-0.25587c-0.1919,-0.17066 -0.33056,-0.39466 -0.41597,-0.672l-1.55203,-5.64801l-1.55199,5.64801c-0.08542,0.27742 -0.22942,0.50142 -0.432,0.672c-0.192,0.17058 -0.42667,0.25587 -0.70401,0.25587c-0.29873,0 -0.54939,-0.08529 -0.75197,-0.25587c-0.20258,-0.17066 -0.34658,-0.39466 -0.432,-0.672l-2.352,-7.23201c-0.032,-0.07483 -0.048,-0.16554 -0.048,-0.27213c0,-0.064 0.01008,-0.13871 0.03024,-0.22413c0.02117,-0.096 0.05846,-0.18671 0.11187,-0.27213c0.064,-0.096 0.14929,-0.176 0.25587,-0.24c0.10658,-0.064 0.25058,-0.096 0.432,-0.096c0.18124,0 0.34657,0.05329 0.49599,0.15987c0.16,0.0959 0.26671,0.23456 0.32013,0.41597l1.95201,6.51201l1.59999,-6c0.07483,-0.25592 0.19754,-0.4746 0.36813,-0.65601c0.18132,-0.192 0.41597,-0.288 0.70397,-0.288c0.2881,0 0.51744,0.09071 0.68803,0.27213c0.18142,0.18134 0.30942,0.40534 0.384,0.672l1.59999,6l1.968,-6.51201c0.05317,-0.18132 0.15446,-0.31997 0.30387,-0.41597c0.14924,-0.10658 0.31457,-0.15987 0.49599,-0.15987c0.07458,0 0.15987,0.016 0.25587,0.048c0.096,0.02142 0.18671,0.06413 0.27213,0.12813c0.096,0.064 0.17071,0.14929 0.22413,0.25587c0.064,0.10668 0.096,0.24003 0.096,0.40003c0,0.10683 -0.016,0.19754 -0.048,0.27213l-2.352,7.23201z" data-paper-data="{&quot;origPos&quot;:null}" id="path1946" fill="#1eff00" stroke="none" stroke-width="0.26458" stroke-miterlimit="10" stroke-dashoffset="0"/><path d="M97.3412,151.87164c0.192,-0.18142 0.42133,-0.27213 0.68799,-0.27213c0.25592,0 0.4746,0.09071 0.65601,0.27213c0.192,0.18134 0.288,0.40534 0.288,0.672c0,0.256 -0.096,0.48 -0.288,0.672c-0.18134,0.18142 -0.40001,0.27213 -0.65601,0.27213c-0.26666,0 -0.49599,-0.09071 -0.68799,-0.27213c-0.18142,-0.192 -0.27213,-0.416 -0.27213,-0.672c0,-0.26658 0.09071,-0.49058 0.27213,-0.672zM98.8611,163.37566c0,0.23473 -0.08,0.43739 -0.24,0.60797c-0.1601,0.16 -0.35744,0.24 -0.59203,0.24c-0.23473,0 -0.43739,-0.08 -0.60797,-0.24c-0.16,-0.17073 -0.24,-0.37339 -0.24,-0.60797v-7.56801c0,-0.23466 0.08,-0.43199 0.24,-0.59199c0.17073,-0.17058 0.37339,-0.25587 0.60797,-0.25587c0.23468,0 0.43203,0.08529 0.59203,0.25587c0.16,0.16008 0.24,0.3574 0.24,0.59199z" data-paper-data="{&quot;origPos&quot;:null}" id="path1948" fill="#1eff00" stroke="none" stroke-width="0.26458" stroke-miterlimit="10" stroke-dashoffset="0"/><path d="M101.67167,160.09601c0,0.02142 0.00504,0.11213 0.01512,0.27213c0.02117,0.14924 0.05846,0.33057 0.11187,0.54399c0.064,0.21327 0.14929,0.44261 0.25587,0.68803c0.11734,0.23473 0.27201,0.45339 0.46401,0.65597c0.192,0.20276 0.42667,0.37343 0.70401,0.51201c0.288,0.128 0.63466,0.192 1.03997,0.192c0.33076,0 0.61343,-0.02671 0.84801,-0.08013c0.23458,-0.05342 0.44258,-0.13342 0.624,-0.24c0.18124,-0.10666 0.34657,-0.23999 0.49599,-0.39999c0.14927,-0.17066 0.29861,-0.36799 0.44803,-0.59199c0.08542,-0.128 0.18142,-0.21871 0.288,-0.27213c0.10658,-0.05342 0.21858,-0.08013 0.336,-0.08013c0.192,0 0.368,0.06929 0.528,0.20787c0.16,0.13858 0.24,0.31458 0.24,0.528c0,0.128 -0.06929,0.32 -0.20787,0.576c-0.13866,0.256 -0.36266,0.512 -0.672,0.768c-0.29866,0.256 -0.68799,0.48 -1.16799,0.672c-0.48,0.192 -1.06667,0.288 -1.76001,0.288c-0.704,0 -1.33333,-0.128 -1.88799,-0.384c-0.55466,-0.256 -1.02399,-0.59734 -1.40799,-1.02403c-0.37342,-0.43732 -0.66142,-0.94397 -0.864,-1.51997c-0.192,-0.576 -0.288,-1.17867 -0.288,-1.80801c0,-0.65066 0.10129,-1.26399 0.30387,-1.83999c0.20266,-0.58668 0.49066,-1.09335 0.864,-1.52001c0.384,-0.42658 0.84267,-0.76258 1.37601,-1.008c0.53332,-0.256 1.13065,-0.384 1.79199,-0.384c0.608,0 1.17333,0.09071 1.69599,0.27213c0.53334,0.18132 0.99201,0.44797 1.37601,0.79997c0.39466,0.34134 0.70399,0.76268 0.92799,1.26403c0.224,0.50132 0.336,1.07197 0.336,1.71197c0,0.39476 -0.096,0.69343 -0.288,0.89601c-0.192,0.20258 -0.416,0.30387 -0.672,0.30387zM104.18158,156.22328c-0.39468,0 -0.73068,0.05871 -1.008,0.17613c-0.27734,0.11727 -0.51201,0.26661 -0.70401,0.44803c-0.18142,0.17058 -0.32542,0.36258 -0.432,0.576c-0.10658,0.21324 -0.18658,0.41057 -0.24,0.59199c-0.05392,0.18142 -0.08592,0.34142 -0.096,0.48c-0.01008,0.12926 -0.01512,0.20397 -0.01512,0.22413h5.184c0,-0.33068 -0.05329,-0.64535 -0.15987,-0.94401c-0.10666,-0.29866 -0.27199,-0.55999 -0.49599,-0.78399c-0.21334,-0.23476 -0.49067,-0.42143 -0.83199,-0.56001c-0.34134,-0.13858 -0.74134,-0.20787 -1.2,-0.20787z" data-paper-data="{&quot;origPos&quot;:null}" id="path1950" fill="#1eff00" stroke="none" stroke-width="0.26458" stroke-miterlimit="10" stroke-dashoffset="0"/><path d="M116.13033,162.54405h7.104c0.23466,0 0.43199,0.08529 0.59199,0.25587c0.17058,0.16008 0.25587,0.3574 0.25587,0.59199c0,0.23466 -0.08529,0.43199 -0.25587,0.59199c-0.16008,0.16 -0.3574,0.24 -0.59199,0.24h-8.304c-0.32008,0 -0.5974,-0.112 -0.83199,-0.336c-0.224,-0.23466 -0.336,-0.50666 -0.336,-0.816c0,-0.17058 0.02129,-0.31458 0.06387,-0.432c0.05342,-0.11742 0.13342,-0.24013 0.24,-0.36813l6.96,-8.99202h-6.12801c-0.23466,0 -0.43199,-0.08 -0.59199,-0.24c-0.16,-0.17073 -0.24,-0.37339 -0.24,-0.60797c0,-0.23468 0.08,-0.43203 0.24,-0.59203c0.16008,-0.16 0.3574,-0.24 0.59199,-0.24h7.42401c0.30934,0 0.57601,0.112 0.80001,0.336c0.23458,0.224 0.35187,0.496 0.35187,0.816c0,0.15992 -0.02671,0.2986 -0.08013,0.41601c-0.05342,0.11717 -0.12813,0.23446 -0.22413,0.35187z" data-paper-data="{&quot;origPos&quot;:null}" id="path1952" fill="#1eff00" stroke="none" stroke-width="0.26458" stroke-miterlimit="10" stroke-dashoffset="0"/><path d="M127.11436,164.01553c-0.53334,-0.21334 -0.99734,-0.51734 -1.392,-0.912c-0.39466,-0.40534 -0.70399,-0.90134 -0.92799,-1.488c-0.224,-0.58666 -0.336,-1.25866 -0.336,-2.016c0,-0.75734 0.112,-1.42934 0.336,-2.016c0.224,-0.58666 0.53333,-1.08266 0.92799,-1.488c0.39466,-0.40524 0.85866,-0.71457 1.392,-0.92799c0.544,-0.21342 1.13067,-0.32013 1.76001,-0.32013c0.62932,0 1.21065,0.10671 1.74399,0.32013c0.544,0.21332 1.01333,0.52265 1.40799,0.92799c0.39468,0.40534 0.70403,0.90134 0.92803,1.488c0.224,0.58666 0.336,1.25866 0.336,2.016c0,0.75734 -0.112,1.42934 -0.336,2.016c-0.224,0.58666 -0.53334,1.08266 -0.92803,1.488c-0.39466,0.39458 -0.86399,0.69858 -1.40799,0.912c-0.53334,0.21342 -1.11467,0.32013 -1.74399,0.32013c-0.62934,0 -1.21601,-0.10671 -1.76001,-0.32013zM131.4025,158.07963c-0.13858,-0.42666 -0.33058,-0.77332 -0.576,-1.03997c-0.23466,-0.27734 -0.52266,-0.48001 -0.864,-0.60801c-0.33066,-0.13858 -0.69332,-0.20787 -1.08797,-0.20787c-0.39468,0 -0.76268,0.06929 -1.104,0.20787c-0.33058,0.128 -0.61858,0.33067 -0.864,0.60801c-0.23476,0.26666 -0.42143,0.61332 -0.56001,1.03997c-0.13858,0.42668 -0.20787,0.93335 -0.20787,1.52001c0,0.58666 0.06929,1.09333 0.20787,1.52001c0.13876,0.416 0.32543,0.76266 0.56001,1.03997c0.24532,0.26676 0.53332,0.46943 0.864,0.60801c0.34132,0.128 0.70932,0.192 1.104,0.192c0.39466,0 0.75732,-0.064 1.08797,-0.192c0.34142,-0.13866 0.62942,-0.34133 0.864,-0.60801c0.24542,-0.27732 0.43742,-0.62397 0.576,-1.03997c0.13858,-0.42668 0.20787,-0.93335 0.20787,-1.52001c0,-0.58666 -0.06929,-1.09333 -0.20787,-1.52001z" data-paper-data="{&quot;origPos&quot;:null}" id="path1954" fill="#1eff00" stroke="none" stroke-width="0.26458" stroke-miterlimit="10" stroke-dashoffset="0"/><path d="M143.98938,163.29576c-0.08527,0.27742 -0.23461,0.50142 -0.44803,0.672c-0.20266,0.17058 -0.44799,0.25587 -0.73599,0.25587c-0.28808,0 -0.5334,-0.08529 -0.73599,-0.25587c-0.19192,-0.17066 -0.3306,-0.39466 -0.41601,-0.672l-1.55199,-5.64801l-1.55203,5.64801c-0.08542,0.27742 -0.22942,0.50142 -0.432,0.672c-0.192,0.17058 -0.42666,0.25587 -0.70397,0.25587c-0.29876,0 -0.54943,-0.08529 -0.75201,-0.25587c-0.20258,-0.17066 -0.34658,-0.39466 -0.432,-0.672l-2.352,-7.23201c-0.032,-0.07483 -0.048,-0.16554 -0.048,-0.27213c0,-0.064 0.01008,-0.13871 0.03024,-0.22413c0.02117,-0.096 0.05846,-0.18671 0.11187,-0.27213c0.064,-0.096 0.14929,-0.176 0.25587,-0.24c0.10658,-0.064 0.25058,-0.096 0.432,-0.096c0.18127,0 0.34661,0.05329 0.49603,0.15987c0.16,0.0959 0.26671,0.23456 0.32013,0.41597l1.95201,6.51201l1.59999,-6c0.07483,-0.25592 0.19754,-0.4746 0.36813,-0.65601c0.18134,-0.192 0.41601,-0.288 0.70401,-0.288c0.28808,0 0.5174,0.09071 0.68799,0.27213c0.18142,0.18134 0.30942,0.40534 0.384,0.672l1.59999,6l1.968,-6.51201c0.05317,-0.18132 0.15446,-0.31997 0.30387,-0.41597c0.14924,-0.10658 0.31457,-0.15987 0.49599,-0.15987c0.07458,0 0.15987,0.016 0.25587,0.048c0.096,0.02142 0.18671,0.06413 0.27213,0.12813c0.096,0.064 0.17071,0.14929 0.22413,0.25587c0.064,0.10668 0.096,0.24003 0.096,0.40003c0,0.10683 -0.016,0.19754 -0.048,0.27213l-2.352,7.23201z" data-paper-data="{&quot;origPos&quot;:null}" id="path1956" fill="#1eff00" stroke="none" stroke-width="0.26458" stroke-miterlimit="10" stroke-dashoffset="0"/><path d="M147.37247,151.87164c0.192,-0.18142 0.42134,-0.27213 0.68803,-0.27213c0.2559,0 0.47456,0.09071 0.65597,0.27213c0.192,0.18134 0.288,0.40534 0.288,0.672c0,0.256 -0.096,0.48 -0.288,0.672c-0.18132,0.18142 -0.39997,0.27213 -0.65597,0.27213c-0.26668,0 -0.49603,-0.09071 -0.68803,-0.27213c-0.18142,-0.192 -0.27213,-0.416 -0.27213,-0.672c0,-0.26658 0.09071,-0.49058 0.27213,-0.672zM148.89233,163.37566c0,0.23473 -0.08,0.43739 -0.24,0.60797c-0.16008,0.16 -0.3574,0.24 -0.59199,0.24c-0.23476,0 -0.43743,-0.08 -0.60801,-0.24c-0.16,-0.17073 -0.24,-0.37339 -0.24,-0.60797v-7.56801c0,-0.23466 0.08,-0.43199 0.24,-0.59199c0.17076,-0.17058 0.37343,-0.25587 0.60801,-0.25587c0.23466,0 0.43199,0.08529 0.59199,0.25587c0.16,0.16008 0.24,0.3574 0.24,0.59199z" data-paper-data="{&quot;origPos&quot;:null}" id="path1958" fill="#1eff00" stroke="none" stroke-width="0.26458" stroke-miterlimit="10" stroke-dashoffset="0"/><path d="M151.70302,160.09601c0,0.02142 0.00504,0.11213 0.01512,0.27213c0.02117,0.14924 0.05846,0.33057 0.11187,0.54399c0.064,0.21327 0.14929,0.44261 0.25587,0.68803c0.11734,0.23473 0.27201,0.45339 0.46401,0.65597c0.192,0.20276 0.42666,0.37343 0.70397,0.51201c0.288,0.128 0.63467,0.192 1.04001,0.192c0.33076,0 0.61343,-0.02671 0.84801,-0.08013c0.23458,-0.05342 0.44258,-0.13342 0.624,-0.24c0.18124,-0.10666 0.34657,-0.23999 0.49599,-0.39999c0.14924,-0.17066 0.29857,-0.36799 0.44799,-0.59199c0.08542,-0.128 0.18142,-0.21871 0.288,-0.27213c0.10658,-0.05342 0.21858,-0.08013 0.336,-0.08013c0.192,0 0.368,0.06929 0.528,0.20787c0.16,0.13858 0.24,0.31458 0.24,0.528c0,0.128 -0.06929,0.32 -0.20787,0.576c-0.13866,0.256 -0.36266,0.512 -0.672,0.768c-0.29866,0.256 -0.68799,0.48 -1.16799,0.672c-0.48,0.192 -1.06667,0.288 -1.76001,0.288c-0.704,0 -1.33333,-0.128 -1.88799,-0.384c-0.55468,-0.256 -1.02403,-0.59734 -1.40803,-1.02403c-0.37342,-0.43732 -0.66142,-0.94397 -0.864,-1.51997c-0.192,-0.576 -0.288,-1.17867 -0.288,-1.80801c0,-0.65066 0.10129,-1.26399 0.30387,-1.83999c0.20266,-0.58668 0.49066,-1.09335 0.864,-1.52001c0.384,-0.42658 0.84266,-0.76258 1.37597,-1.008c0.53334,-0.256 1.13068,-0.384 1.79203,-0.384c0.608,0 1.17333,0.09071 1.69599,0.27213c0.53334,0.18132 0.99201,0.44797 1.37601,0.79997c0.39466,0.34134 0.70399,0.76268 0.92799,1.26403c0.224,0.50132 0.336,1.07197 0.336,1.71197c0,0.39476 -0.096,0.69343 -0.288,0.89601c-0.192,0.20258 -0.416,0.30387 -0.672,0.30387zM154.21281,156.22328c-0.39466,0 -0.73066,0.05871 -1.008,0.17613c-0.27732,0.11727 -0.51197,0.26661 -0.70397,0.44803c-0.18142,0.17058 -0.32542,0.36258 -0.432,0.576c-0.10658,0.21324 -0.18658,0.41057 -0.24,0.59199c-0.05392,0.18142 -0.08592,0.34142 -0.096,0.48c-0.01008,0.12926 -0.01512,0.20397 -0.01512,0.22413h5.184c0,-0.33068 -0.05329,-0.64535 -0.15987,-0.94401c-0.10666,-0.29866 -0.27199,-0.55999 -0.49599,-0.78399c-0.21334,-0.23476 -0.49068,-0.42143 -0.83203,-0.56001c-0.34132,-0.13858 -0.74132,-0.20787 -1.2,-0.20787z" data-paper-data="{&quot;origPos&quot;:null}" id="path1960" fill="#1eff00" stroke="none" stroke-width="0.26458" stroke-miterlimit="10" stroke-dashoffset="0"/><path d="M159.91034,162.25563c0.23466,-0.23458 0.50666,-0.35187 0.816,-0.35187c0.32,0 0.592,0.11729 0.816,0.35187c0.23458,0.224 0.35187,0.496 0.35187,0.816c0,0.30942 -0.11729,0.58142 -0.35187,0.816c-0.224,0.224 -0.496,0.336 -0.816,0.336c-0.30942,0 -0.58142,-0.112 -0.816,-0.336c-0.224,-0.23466 -0.336,-0.50666 -0.336,-0.816c0,-0.32 0.112,-0.592 0.336,-0.816zM161.67035,160.22364c0,0.26658 -0.09071,0.49058 -0.27213,0.672c-0.18134,0.18142 -0.40534,0.27213 -0.672,0.27213c-0.256,0 -0.48,-0.09071 -0.672,-0.27213c-0.18142,-0.18134 -0.27213,-0.40534 -0.27213,-0.672v-7.68c0,-0.26658 0.09071,-0.49058 0.27213,-0.672c0.192,-0.18142 0.416,-0.27213 0.672,-0.27213c0.26658,0 0.49058,0.09071 0.672,0.27213c0.18142,0.18134 0.27213,0.40534 0.27213,0.672z" data-paper-data="{&quot;origPos&quot;:null}" id="path1962" fill="#1eff00" stroke="none" stroke-width="0.26458" stroke-miterlimit="10" stroke-dashoffset="0"/><path d="M62.49385,175.13324v3.16082h4.93875c0.25406,0 0.47041,0.08932 0.64906,0.26797c0.17865,0.17875 0.26797,0.39511 0.26797,0.6491c0,0.26348 -0.08932,0.48455 -0.26797,0.66319c-0.17872,0.17865 -0.39507,0.26797 -0.64906,0.26797h-5.98295c-0.13163,0 -0.26333,-0.01877 -0.39511,-0.05631c-0.13178,-0.04712 -0.25411,-0.11301 -0.36699,-0.19767c-0.10356,-0.09398 -0.18822,-0.21153 -0.25398,-0.35263c-0.06576,-0.1411 -0.09865,-0.31043 -0.09865,-0.50797v-8.91798c0,-0.08466 0.01411,-0.18809 0.04233,-0.3103c0.02822,-0.13178 0.08466,-0.25411 0.16932,-0.36699c0.08466,-0.1222 0.19754,-0.22098 0.33865,-0.29631c0.15053,-0.08466 0.33867,-0.12699 0.56443,-0.12699h5.98295c0.25406,0 0.47041,0.08932 0.64906,0.26797c0.17865,0.17875 0.26797,0.39511 0.26797,0.6491c0,0.26348 -0.08932,0.48455 -0.26797,0.66319c-0.17872,0.17865 -0.39507,0.26797 -0.64906,0.26797h-4.93875v2.41293h4.14852c0.26348,0 0.48455,0.09411 0.66319,0.28233c0.17865,0.17872 0.26797,0.39509 0.26797,0.6491c0,0.25391 -0.08932,0.47497 -0.26797,0.66319c-0.17872,0.17865 -0.39979,0.26797 -0.66319,0.26797z" data-paper-data="{&quot;origPos&quot;:null}" id="path1965" fill="#1eff00" stroke="none" stroke-width="0.23334" stroke-miterlimit="10" stroke-dashoffset="0"/><path d="M74.96432,169.46024c0.09424,-0.16 0.21657,-0.27288 0.36699,-0.33865c0.15053,-0.07534 0.31045,-0.11301 0.47977,-0.11301c0.22579,0 0.40923,0.03767 0.55034,0.11301c0.1411,0.07534 0.25398,0.16945 0.33865,0.28233c0.08466,0.11288 0.1411,0.23043 0.16932,0.35263c0.03754,0.12246 0.05631,0.23068 0.05631,0.32466c0,0.20704 -0.0611,0.39989 -0.18331,0.57853l-2.56815,3.75345l2.80804,4.09209c0.11288,0.16932 0.16932,0.35276 0.16932,0.5503c0,0.19757 -0.03767,0.3669 -0.11301,0.50801c-0.07534,0.13178 -0.16945,0.24 -0.28233,0.32466c-0.11288,0.08466 -0.23521,0.15055 -0.36699,0.19767c-0.1222,0.03754 -0.23975,0.05631 -0.35263,0.05631c-0.16925,0 -0.33387,-0.03767 -0.49387,-0.11301c-0.15068,-0.07509 -0.27301,-0.19263 -0.36699,-0.35263l-2.13075,-3.71112l-2.14481,3.71112c-0.09398,0.15975 -0.22098,0.27729 -0.38098,0.35263c-0.15053,0.07534 -0.31045,0.11301 -0.47977,0.11301c-0.14103,0 -0.27743,-0.02356 -0.40921,-0.07068c-0.13153,-0.05644 -0.24907,-0.13165 -0.35263,-0.22564c-0.10356,-0.09398 -0.18822,-0.20687 -0.25398,-0.33865c-0.06576,-0.1317 -0.09865,-0.28222 -0.09865,-0.45154c0,-0.19754 0.05644,-0.38098 0.16932,-0.5503l2.82214,-4.09209l-2.58225,-3.75345c-0.11288,-0.16925 -0.16932,-0.36209 -0.16932,-0.57853c0,-0.09424 0.01411,-0.20246 0.04233,-0.32466c0.03754,-0.13153 0.09865,-0.24907 0.18331,-0.35263c0.08466,-0.11288 0.19754,-0.20699 0.33865,-0.28233c0.14103,-0.07534 0.31976,-0.11301 0.5362,-0.11301c0.16942,0 0.32935,0.03767 0.47977,0.11301c0.15068,0.06576 0.27301,0.17865 0.36699,0.33865l1.93315,3.3301l1.91906,-3.3301z" data-paper-data="{&quot;origPos&quot;:null}" id="path1967" fill="#1eff00" stroke="none" stroke-width="0.23334" stroke-miterlimit="10" stroke-dashoffset="0"/><path d="M78.5489,170.85734c-0.25393,0 -0.47501,-0.08932 -0.66323,-0.26797c-0.17865,-0.17872 -0.26797,-0.39979 -0.26797,-0.66319c0,-0.25409 0.08932,-0.47045 0.26797,-0.6491c0.18814,-0.17865 0.40922,-0.26797 0.66323,-0.26797h7.05532c0.25409,0 0.47045,0.08932 0.6491,0.26797c0.18822,0.17875 0.28233,0.39511 0.28233,0.6491c0,0.26348 -0.09411,0.48455 -0.28233,0.66319c-0.17875,0.17865 -0.39511,0.26797 -0.6491,0.26797h-2.45526v8.21242c0,0.3011 -0.10343,0.55509 -0.3103,0.76195c-0.20694,0.20687 -0.46093,0.3103 -0.76195,0.3103c-0.30113,0 -0.55512,-0.10343 -0.76199,-0.3103c-0.20687,-0.20694 -0.3103,-0.46093 -0.3103,-0.76195v-8.21242z" data-paper-data="{&quot;origPos&quot;:null}" id="path1969" fill="#1eff00" stroke="none" stroke-width="0.23334" stroke-miterlimit="10" stroke-dashoffset="0"/><path d="M89.53013,170.85757v3.09022h2.76571c0.20687,0 0.40441,-0.03767 0.59263,-0.11301c0.18814,-0.08466 0.35277,-0.19754 0.49387,-0.33865c0.1411,-0.14103 0.24932,-0.30565 0.32466,-0.49387c0.08466,-0.18807 0.12699,-0.39032 0.12699,-0.60677c0,-0.20687 -0.04233,-0.40441 -0.12699,-0.59263c-0.07534,-0.18814 -0.18356,-0.35277 -0.32466,-0.49387c-0.14103,-0.1411 -0.30565,-0.24932 -0.49387,-0.32466c-0.18822,-0.08466 -0.38576,-0.12699 -0.59263,-0.12699zM95.99282,171.91538c0,0.63967 -0.15992,1.19468 -0.47977,1.66503c-0.31043,0.47045 -0.77608,0.80911 -1.39695,1.01597c-0.10356,0.0378 -0.15534,0.07546 -0.15534,0.11301c0,0.05644 0.05644,0.09877 0.16932,0.12699c0.16925,0.02822 0.33387,0.08 0.49387,0.15534c0.16925,0.07534 0.31976,0.17411 0.45154,0.29631c0.13178,0.11281 0.24466,0.24921 0.33865,0.40921c0.09524,0.15045 0.15169,0.31979 0.16932,0.50801l0.32466,2.94913c0.01865,0.16 -0.00491,0.3011 -0.07068,0.42331c-0.05644,0.1222 -0.1411,0.22564 -0.25398,0.3103c-0.10356,0.08466 -0.22589,0.15055 -0.36699,0.19767c-0.13163,0.03754 -0.26333,0.05631 -0.39511,0.05631c-0.27281,0 -0.50798,-0.08 -0.70552,-0.24c-0.19754,-0.15992 -0.31043,-0.37159 -0.33865,-0.635l-0.3103,-2.59635c-0.01865,-0.11288 -0.06564,-0.23043 -0.14098,-0.35263c-0.06602,-0.1222 -0.17424,-0.23509 -0.32466,-0.33865c-0.1506,-0.11288 -0.34345,-0.2022 -0.57853,-0.26797c-0.23519,-0.06576 -0.5221,-0.09865 -0.86075,-0.09865h-2.03195v3.45713c0,0.3011 -0.10822,0.55509 -0.32466,0.76195c-0.20697,0.20687 -0.46096,0.3103 -0.76199,0.3103c-0.3011,0 -0.55509,-0.10343 -0.76195,-0.3103c-0.20687,-0.20694 -0.3103,-0.46093 -0.3103,-0.76195v-8.96031c0,-0.08466 0.01411,-0.18809 0.04233,-0.3103c0.02822,-0.13178 0.08466,-0.25411 0.16932,-0.36699c0.08466,-0.1222 0.19754,-0.22098 0.33865,-0.29631c0.1505,-0.08466 0.33863,-0.12699 0.5644,-0.12699h4.586c0.39509,0 0.77136,0.07521 1.12883,0.22564c0.35747,0.15053 0.66791,0.35748 0.93131,0.62086c0.26348,0.26341 0.47044,0.57385 0.62086,0.93131c0.16,0.34807 0.24,0.72436 0.24,1.12887z" data-paper-data="{&quot;origPos&quot;:null}" id="path1971" fill="#1eff00" stroke="none" stroke-width="0.23334" stroke-miterlimit="10" stroke-dashoffset="0"/><path d="M99.17609,175.13324v3.16082h4.93875c0.25409,0 0.47045,0.08932 0.6491,0.26797c0.17865,0.17875 0.26797,0.39511 0.26797,0.6491c0,0.26348 -0.08932,0.48455 -0.26797,0.66319c-0.17872,0.17865 -0.39509,0.26797 -0.6491,0.26797h-5.98292c-0.13163,0 -0.26333,-0.01877 -0.39511,-0.05631c-0.13178,-0.04712 -0.25411,-0.11301 -0.36699,-0.19767c-0.10356,-0.09398 -0.18822,-0.21153 -0.25398,-0.35263c-0.06576,-0.1411 -0.09865,-0.31043 -0.09865,-0.50797v-8.91798c0,-0.08466 0.01411,-0.18809 0.04233,-0.3103c0.02822,-0.13178 0.08466,-0.25411 0.16932,-0.36699c0.08466,-0.1222 0.19754,-0.22098 0.33865,-0.29631c0.15053,-0.08466 0.33867,-0.12699 0.56443,-0.12699h5.98292c0.25409,0 0.47045,0.08932 0.6491,0.26797c0.17865,0.17875 0.26797,0.39511 0.26797,0.6491c0,0.26348 -0.08932,0.48455 -0.26797,0.66319c-0.17872,0.17865 -0.39509,0.26797 -0.6491,0.26797h-4.93875v2.41293h4.14856c0.26348,0 0.48455,0.09411 0.66319,0.28233c0.17865,0.17872 0.26797,0.39509 0.26797,0.6491c0,0.25391 -0.08932,0.47497 -0.26797,0.66319c-0.17872,0.17865 -0.39979,0.26797 -0.66319,0.26797z" data-paper-data="{&quot;origPos&quot;:null}" id="path1973" fill="#1eff00" stroke="none" stroke-width="0.23334" stroke-miterlimit="10" stroke-dashoffset="0"/><path d="M108.0203,171.78866v7.33754c0,0.27291 -0.10343,0.51279 -0.3103,0.71966c-0.19754,0.19754 -0.43743,0.29631 -0.71966,0.29631c-0.27288,0 -0.51276,-0.09877 -0.71962,-0.29631c-0.19754,-0.20697 -0.29631,-0.44685 -0.29631,-0.71966v-8.63573c0,-0.22586 0.04699,-0.42812 0.14098,-0.60677c0.10338,-0.17865 0.23507,-0.33386 0.39507,-0.46564c0.16003,-0.13178 0.34347,-0.23055 0.55034,-0.29631c0.20687,-0.07534 0.41852,-0.11301 0.63496,-0.11301c0.42333,0 0.78081,0.11288 1.07244,0.33865c0.30103,0.22576 0.50798,0.5362 0.62086,0.93131l2.00372,7.11179l2.00372,-7.11179c0.11288,-0.39511 0.31514,-0.70555 0.60677,-0.93131c0.30103,-0.22576 0.66319,-0.33865 1.0865,-0.33865c0.22586,0 0.44223,0.03767 0.6491,0.11301c0.20689,0.06576 0.39034,0.16454 0.55034,0.29631c0.16,0.13178 0.28699,0.28699 0.38098,0.46564c0.09398,0.17875 0.14098,0.381 0.14098,0.60677v8.63573c0,0.27291 -0.09877,0.51279 -0.29631,0.71966c-0.19754,0.19754 -0.43742,0.29631 -0.71962,0.29631c-0.28223,0 -0.52212,-0.09877 -0.71966,-0.29631c-0.19754,-0.20697 -0.29631,-0.44685 -0.29631,-0.71966v-7.33754l-2.04605,7.33754c-0.08459,0.31035 -0.24921,0.55963 -0.49387,0.74786c-0.23519,0.17865 -0.5174,0.26797 -0.84665,0.26797c-0.32935,0 -0.61157,-0.08932 -0.84665,-0.26797c-0.23519,-0.18814 -0.39511,-0.43743 -0.47977,-0.74786z" data-paper-data="{&quot;origPos&quot;:null}" id="path1975" fill="#1eff00" stroke="none" stroke-width="0.23334" stroke-miterlimit="10" stroke-dashoffset="0"/><path d="M120.25943,175.13324v3.16082h4.93875c0.25409,0 0.47045,0.08932 0.6491,0.26797c0.17865,0.17875 0.26797,0.39511 0.26797,0.6491c0,0.26348 -0.08932,0.48455 -0.26797,0.66319c-0.17875,0.17865 -0.39511,0.26797 -0.6491,0.26797h-5.98295c-0.1316,0 -0.26329,-0.01877 -0.39507,-0.05631c-0.13178,-0.04712 -0.25411,-0.11301 -0.36699,-0.19767c-0.10356,-0.09398 -0.18822,-0.21153 -0.25398,-0.35263c-0.06576,-0.1411 -0.09865,-0.31043 -0.09865,-0.50797v-8.91798c0,-0.08466 0.01411,-0.18809 0.04233,-0.3103c0.02822,-0.13178 0.08466,-0.25411 0.16932,-0.36699c0.08466,-0.1222 0.19754,-0.22098 0.33865,-0.29631c0.15053,-0.08466 0.33867,-0.12699 0.56443,-0.12699h5.98295c0.25409,0 0.47045,0.08932 0.6491,0.26797c0.17865,0.17875 0.26797,0.39511 0.26797,0.6491c0,0.26348 -0.08932,0.48455 -0.26797,0.66319c-0.17875,0.17865 -0.39511,0.26797 -0.6491,0.26797h-4.93875v2.41293h4.14852c0.26351,0 0.48459,0.09411 0.66323,0.28233c0.17865,0.17872 0.26797,0.39509 0.26797,0.6491c0,0.25391 -0.08932,0.47497 -0.26797,0.66319c-0.17875,0.17865 -0.39982,0.26797 -0.66323,0.26797z" data-paper-data="{&quot;origPos&quot;:null}" id="path1977" fill="#1eff00" stroke="none" stroke-width="0.23334" stroke-miterlimit="10" stroke-dashoffset="0"/><path d="M69.10159,187.56437c1.27593,0 2.33405,4.30809 3.36631,5.0581c1.03226,0.74997 5.4565,0.42501 5.85078,1.6385c0.39432,1.21349 -3.37599,3.55113 -3.77027,4.76462c-0.39428,1.21349 1.2819,5.32078 0.24945,6.07075c-1.03223,0.75001 -4.42054,-2.1134 -5.69647,-2.1134c-1.27597,0 -4.66424,2.86341 -5.6965,2.1134c-1.03226,-0.74997 0.64396,-4.85726 0.24983,-6.07075c-0.39432,-1.21349 -4.16459,-3.55113 -3.77031,-4.76462c0.39428,-1.21349 4.81852,-0.88853 5.85078,-1.6385c1.03226,-0.75001 2.09038,-5.0581 3.36635,-5.0581z" data-paper-data="{&quot;origPos&quot;:null}" id="path1428-5-82" fill="#1eff00" stroke="none" stroke-width="0.88188" stroke-miterlimit="4" stroke-dashoffset="17.35"/><path d="M92.03856,187.56437c1.27593,0 2.33405,4.30809 3.36631,5.0581c1.03226,0.74997 5.4565,0.42501 5.85078,1.6385c0.39432,1.21349 -3.37599,3.55113 -3.77027,4.76462c-0.39428,1.21349 1.2819,5.32078 0.24983,6.07075c-1.03226,0.75001 -4.42057,-2.1134 -5.6965,-2.1134c-1.27597,0 -4.66424,2.86341 -5.6965,2.1134c-1.03226,-0.74997 0.64396,-4.85726 0.24983,-6.07075c-0.39432,-1.21349 -4.16459,-3.55113 -3.77031,-4.76462c0.39428,-1.21349 4.81856,-0.88853 5.85078,-1.6385c1.03226,-0.75001 2.09042,-5.0581 3.36635,-5.0581z" data-paper-data="{&quot;origPos&quot;:null}" id="path1428-0-2-74" fill="#1eff00" stroke="none" stroke-width="0.88188" stroke-miterlimit="4" stroke-dashoffset="17.35"/><path d="M114.97546,187.56437c1.27597,0 2.33409,4.30809 3.36635,5.0581c1.03223,0.74997 5.4565,0.42501 5.85078,1.6385c0.39428,1.21349 -3.37599,3.55113 -3.77031,4.76462c-0.39428,1.21349 1.28194,5.32078 0.24983,6.07075c-1.03226,0.75001 -4.42054,-2.1134 -5.6965,-2.1134c-1.27593,0 -4.66424,2.86341 -5.69647,2.1134c-1.03226,-0.74997 0.64392,-4.85726 0.24945,-6.07075c-0.39428,-1.21349 -4.16459,-3.55113 -3.77027,-4.76462c0.39428,-1.21349 4.81852,-0.88853 5.85078,-1.6385c1.03226,-0.75001 2.09038,-5.0581 3.36631,-5.0581z" data-paper-data="{&quot;origPos&quot;:null}" id="path1428-0-6-3-03" fill="#1eff00" stroke="none" stroke-width="0.88188" stroke-miterlimit="4" stroke-dashoffset="17.35"/><path d="M137.91254,187.56437c1.27597,0 2.33409,4.30809 3.36635,5.0581c1.03226,0.74997 5.4565,0.42501 5.85078,1.6385c0.39428,1.21349 -3.37599,3.55113 -3.77031,4.76462c-0.39428,1.21349 1.28194,5.32078 0.24983,6.07075c-1.03226,0.75001 -4.42054,-2.1134 -5.6965,-2.1134c-1.27593,0 -4.66424,2.86341 -5.69647,2.1134c-1.03226,-0.74997 0.64396,-4.85726 0.24983,-6.07075c-0.39428,-1.21349 -4.16455,-3.55113 -3.77027,-4.76462c0.39428,-1.21349 4.81852,-0.88853 5.85078,-1.6385c1.03226,-0.75001 2.09038,-5.0581 3.36631,-5.0581z" data-paper-data="{&quot;origPos&quot;:null}" id="path1428-0-0-2-7" fill="#1eff00" stroke="none" stroke-width="0.88188" stroke-miterlimit="4" stroke-dashoffset="17.35"/><path d="M160.84948,195.77497c0.0892,0 0.16328,0.30161 0.23584,0.35414c0.07219,0.05254 0.38196,0.03024 0.40955,0.11452c0.02646,0.08504 -0.23622,0.24869 -0.26381,0.33335c-0.02646,0.08504 0.08957,0.37266 0.0189,0.42497c-0.07219,0.05254 -0.30954,-0.14816 -0.39874,-0.14816c-0.0892,0 -0.32655,0.20031 -0.39874,0.14816c-0.07219,-0.05254 0.04498,-0.34016 0.0189,-0.42497c-0.02646,-0.08504 -0.2914,-0.24869 -0.26381,-0.33335c0.02646,-0.08504 0.33713,-0.06236 0.40955,-0.11452c0.07219,-0.05254 0.14627,-0.35414 0.23546,-0.35414z" data-paper-data="{&quot;origPos&quot;:null}" id="path1428-0-8-5-3" fill="#1eff00" stroke="none" stroke-width="0.06173" stroke-miterlimit="4" stroke-dashoffset="17.35"/></g></g></svg>