<svg version="1.1" xmlns="http://www.w3.org/2000/svg" xmlns:xlink="http://www.w3.org/1999/xlink" width="372.21483" height="68.64258"><g transform="translate(-53.89258,-145.67871)"><g data-paper-data="{&quot;isPaintingLayer&quot;:true}" fill-rule="nonzero" stroke-linecap="butt" stroke-linejoin="miter" stroke-dasharray="" style="mix-blend-mode: normal"><path d="M425.00977,146.42871c0.19313,0 0.34765,0.15452 0.34765,0.34766v66.44531c0,0.19313 -0.15452,0.34961 -0.34765,0.34961h-370.01758c-0.19313,0 -0.34961,-0.15648 -0.34961,-0.34961v-66.44531c0,-0.19313 0.15647,-0.34766 0.34961,-0.34766z" data-paper-data="{&quot;origPos&quot;:null}" id="rect815-0-01" fill="#1e1e1e" stroke="#1eff00" stroke-width="1.5" stroke-miterlimit="4" stroke-dashoffset="17.35"/><path d="M71.67861,163.43915c-0.07466,0.24542 -0.20799,0.43742 -0.39999,0.576c-0.192,0.13858 -0.42133,0.20787 -0.68799,0.20787c-0.256,0 -0.48,-0.064 -0.672,-0.192c-0.192,-0.13858 -0.32,-0.33058 -0.384,-0.576l-2.51203,-9.75999l-2.51199,9.75999c-0.064,0.24542 -0.192,0.43742 -0.384,0.576c-0.19192,0.128 -0.4106,0.192 -0.65601,0.192c-0.26673,0 -0.50139,-0.06929 -0.70397,-0.20787c-0.1921,-0.13858 -0.32544,-0.33058 -0.40003,-0.576l-3.024,-10.62402c-0.02016,-0.10658 -0.03024,-0.19187 -0.03024,-0.25587c0,-0.07483 0.01008,-0.16554 0.03024,-0.27213c0.032,-0.10658 0.08,-0.20787 0.144,-0.30387c0.07458,-0.10658 0.17058,-0.19187 0.288,-0.25587c0.128,-0.07458 0.288,-0.11187 0.48,-0.11187c0.21342,0 0.40542,0.05871 0.576,0.17613c0.17058,0.11724 0.28258,0.28257 0.336,0.49599l2.352,8.976l2.16,-8.51199c0.08542,-0.33058 0.24542,-0.58658 0.48,-0.768c0.24534,-0.192 0.53334,-0.288 0.864,-0.288c0.34142,0 0.62942,0.096 0.864,0.288c0.23458,0.18134 0.39458,0.43734 0.48,0.768l2.17603,8.51199l2.352,-8.976c0.05342,-0.21324 0.16013,-0.37857 0.32013,-0.49599c0.17058,-0.11742 0.36258,-0.17613 0.576,-0.17613c0.29868,0 0.52803,0.10129 0.68803,0.30387c0.17058,0.192 0.25587,0.4 0.25587,0.624c0,0.05342 0,0.10142 0,0.144c0,0.032 -0.01008,0.07471 -0.03024,0.12813l-3.024,10.62402z" data-paper-data="{&quot;origPos&quot;:null}" id="path1863" fill="#1eff00" stroke="none" stroke-width="0.26458" stroke-miterlimit="10" stroke-dashoffset="0"/><path d="M77.10269,164.01537c-0.53332,-0.21334 -0.99732,-0.51734 -1.392,-0.912c-0.39466,-0.40534 -0.70399,-0.90134 -0.92799,-1.488c-0.224,-0.58668 -0.336,-1.25868 -0.336,-2.016c0,-0.75734 0.112,-1.42934 0.336,-2.016c0.224,-0.58668 0.53333,-1.08268 0.92799,-1.488c0.39468,-0.40527 0.85868,-0.71461 1.392,-0.92803c0.544,-0.21342 1.13067,-0.32013 1.76001,-0.32013c0.62934,0 1.21067,0.10671 1.74399,0.32013c0.544,0.21334 1.01334,0.52268 1.40803,0.92803c0.39466,0.40532 0.70399,0.90132 0.92799,1.488c0.224,0.58666 0.336,1.25866 0.336,2.016c0,0.75732 -0.112,1.42932 -0.336,2.016c-0.224,0.58666 -0.53333,1.08266 -0.92799,1.488c-0.39468,0.39458 -0.86403,0.69858 -1.40803,0.912c-0.53332,0.21342 -1.11465,0.32013 -1.74399,0.32013c-0.62934,0 -1.21601,-0.10671 -1.76001,-0.32013zM81.39083,158.07951c-0.13858,-0.42666 -0.33058,-0.77333 -0.576,-1.04001c-0.23468,-0.27732 -0.52268,-0.47997 -0.864,-0.60797c-0.33068,-0.13858 -0.69335,-0.20787 -1.08801,-0.20787c-0.39466,0 -0.76266,0.06929 -1.104,0.20787c-0.33058,0.128 -0.61858,0.33066 -0.864,0.60797c-0.23476,0.26668 -0.42143,0.61335 -0.56001,1.04001c-0.13858,0.42666 -0.20787,0.93333 -0.20787,1.52001c0,0.58666 0.06929,1.09332 0.20787,1.51997c0.13876,0.416 0.32543,0.76267 0.56001,1.04001c0.24534,0.26676 0.53334,0.46943 0.864,0.60801c0.34134,0.128 0.70934,0.192 1.104,0.192c0.39466,0 0.75733,-0.064 1.08801,-0.192c0.34142,-0.13868 0.62942,-0.34135 0.864,-0.60801c0.24542,-0.27734 0.43742,-0.62401 0.576,-1.04001c0.13858,-0.42666 0.20787,-0.93332 0.20787,-1.51997c0,-0.58668 -0.06929,-1.09335 -0.20787,-1.52001z" data-paper-data="{&quot;origPos&quot;:null}" id="path1865" fill="#1eff00" stroke="none" stroke-width="0.26458" stroke-miterlimit="10" stroke-dashoffset="0"/><path d="M93.95897,163.29567c-0.08524,0.27742 -0.23457,0.50142 -0.44799,0.672c-0.20268,0.17058 -0.44803,0.25587 -0.73603,0.25587c-0.28808,0 -0.5334,-0.08529 -0.73599,-0.25587c-0.19192,-0.17068 -0.3306,-0.39468 -0.41601,-0.672l-1.55199,-5.64801l-1.55199,5.64801c-0.08542,0.27742 -0.22942,0.50142 -0.432,0.672c-0.192,0.17058 -0.42667,0.25587 -0.70401,0.25587c-0.29876,0 -0.54943,-0.08529 -0.75201,-0.25587c-0.20258,-0.17068 -0.34658,-0.39468 -0.432,-0.672l-2.352,-7.23201c-0.032,-0.07483 -0.048,-0.16554 -0.048,-0.27213c0,-0.064 0.01008,-0.13871 0.03024,-0.22413c0.02117,-0.096 0.05846,-0.18671 0.11187,-0.27213c0.064,-0.096 0.14929,-0.176 0.25587,-0.24c0.10658,-0.064 0.25058,-0.096 0.432,-0.096c0.18124,0 0.34657,0.05329 0.49599,0.15987c0.16,0.09592 0.26671,0.2346 0.32013,0.41601l1.95197,6.51201l1.60003,-6c0.07483,-0.25592 0.19754,-0.4746 0.36813,-0.65601c0.18134,-0.192 0.41601,-0.288 0.70401,-0.288c0.28808,0 0.5174,0.09071 0.68799,0.27213c0.18142,0.18132 0.30942,0.40532 0.384,0.672l1.60003,6l1.968,-6.51201c0.05317,-0.18134 0.15446,-0.32001 0.30387,-0.41601c0.14924,-0.10658 0.31457,-0.15987 0.49599,-0.15987c0.07458,0 0.15987,0.016 0.25587,0.048c0.096,0.02142 0.18671,0.06413 0.27213,0.12813c0.096,0.064 0.17071,0.14929 0.22413,0.25587c0.064,0.10666 0.096,0.23999 0.096,0.39999c0,0.10683 -0.016,0.19754 -0.048,0.27213l-2.352,7.23201z" data-paper-data="{&quot;origPos&quot;:null}" id="path1867" fill="#1eff00" stroke="none" stroke-width="0.26458" stroke-miterlimit="10" stroke-dashoffset="0"/><path d="M97.34206,151.87152c0.192,-0.18142 0.42133,-0.27213 0.68799,-0.27213c0.25592,0 0.4746,0.09071 0.65601,0.27213c0.192,0.18132 0.288,0.40532 0.288,0.672c0,0.256 -0.096,0.48 -0.288,0.672c-0.18134,0.18142 -0.40001,0.27213 -0.65601,0.27213c-0.26666,0 -0.49599,-0.09071 -0.68799,-0.27213c-0.18142,-0.192 -0.27213,-0.416 -0.27213,-0.672c0,-0.26658 0.09071,-0.49058 0.27213,-0.672zM98.86196,163.3755c0,0.23476 -0.08,0.43743 -0.24,0.60801c-0.1601,0.16 -0.35744,0.24 -0.59203,0.24c-0.23473,0 -0.43739,-0.08 -0.60797,-0.24c-0.16,-0.17076 -0.24,-0.37343 -0.24,-0.60801v-7.56797c0,-0.23468 0.08,-0.43203 0.24,-0.59203c0.17073,-0.17058 0.37339,-0.25587 0.60797,-0.25587c0.23468,0 0.43203,0.08529 0.59203,0.25587c0.16,0.1601 0.24,0.35744 0.24,0.59203z" data-paper-data="{&quot;origPos&quot;:null}" id="path1869" fill="#1eff00" stroke="none" stroke-width="0.26458" stroke-miterlimit="10" stroke-dashoffset="0"/><path d="M101.67261,160.09585c0,0.02142 0.00504,0.11213 0.01512,0.27213c0.02117,0.14924 0.05846,0.33057 0.11187,0.54399c0.064,0.21324 0.14929,0.44257 0.25587,0.68799c0.11734,0.23476 0.27201,0.45343 0.46401,0.65601c0.192,0.20276 0.42666,0.37343 0.70397,0.51201c0.288,0.128 0.63467,0.192 1.04001,0.192c0.33076,0 0.61343,-0.02671 0.84801,-0.08013c0.23458,-0.05342 0.44258,-0.13342 0.624,-0.24c0.18124,-0.10666 0.34657,-0.23999 0.49599,-0.39999c0.14924,-0.17068 0.29857,-0.36803 0.44799,-0.59203c0.08542,-0.128 0.18142,-0.21871 0.288,-0.27213c0.10658,-0.05342 0.21858,-0.08013 0.336,-0.08013c0.192,0 0.368,0.06929 0.528,0.20787c0.16,0.13858 0.24,0.31458 0.24,0.528c0,0.128 -0.06929,0.32 -0.20787,0.576c-0.13866,0.256 -0.36266,0.512 -0.672,0.768c-0.29866,0.256 -0.68799,0.48 -1.16799,0.672c-0.48,0.192 -1.06667,0.288 -1.76001,0.288c-0.704,0 -1.33333,-0.128 -1.88799,-0.384c-0.55468,-0.256 -1.02403,-0.59733 -1.40803,-1.02399c-0.37342,-0.43734 -0.66142,-0.94401 -0.864,-1.52001c-0.192,-0.576 -0.288,-1.17866 -0.288,-1.80797c0,-0.65068 0.10129,-1.26403 0.30387,-1.84003c0.20266,-0.58666 0.49066,-1.09332 0.864,-1.51997c0.384,-0.42658 0.84266,-0.76258 1.37597,-1.008c0.53334,-0.256 1.13068,-0.384 1.79203,-0.384c0.608,0 1.17333,0.09071 1.69599,0.27213c0.53334,0.18134 0.99201,0.44801 1.37601,0.80001c0.39466,0.34134 0.70399,0.76267 0.92799,1.26399c0.224,0.50134 0.336,1.07201 0.336,1.71201c0,0.39476 -0.096,0.69343 -0.288,0.89601c-0.192,0.20258 -0.416,0.30387 -0.672,0.30387zM104.1824,156.22308c-0.39466,0 -0.73066,0.05871 -1.008,0.17613c-0.27732,0.11724 -0.51197,0.26657 -0.70397,0.44799c-0.18142,0.17058 -0.32542,0.36258 -0.432,0.576c-0.10658,0.21327 -0.18658,0.41061 -0.24,0.59203c-0.05392,0.18142 -0.08592,0.34142 -0.096,0.48c-0.01008,0.12926 -0.01512,0.20397 -0.01512,0.22413h5.184c0,-0.33066 -0.05329,-0.64532 -0.15987,-0.94397c-0.10666,-0.29868 -0.27199,-0.56003 -0.49599,-0.78403c-0.21334,-0.23473 -0.49068,-0.42139 -0.83203,-0.55997c-0.34132,-0.13858 -0.74132,-0.20787 -1.2,-0.20787z" data-paper-data="{&quot;origPos&quot;:null}" id="path1871" fill="#1eff00" stroke="none" stroke-width="0.26458" stroke-miterlimit="10" stroke-dashoffset="0"/><path d="M116.13123,162.54385h7.104c0.23466,0 0.43199,0.08529 0.59199,0.25587c0.17058,0.1601 0.25587,0.35744 0.25587,0.59203c0,0.23466 -0.08529,0.43199 -0.25587,0.59199c-0.16008,0.16 -0.3574,0.24 -0.59199,0.24h-8.304c-0.3201,0 -0.59744,-0.112 -0.83203,-0.336c-0.224,-0.23466 -0.336,-0.50666 -0.336,-0.816c0,-0.17058 0.02129,-0.31458 0.06387,-0.432c0.05342,-0.11742 0.13342,-0.24013 0.24,-0.36813l6.96,-8.99199h-6.12801c-0.23466,0 -0.43199,-0.08 -0.59199,-0.24c-0.16,-0.17076 -0.24,-0.37343 -0.24,-0.60801c0,-0.23466 0.08,-0.43199 0.24,-0.59199c0.16008,-0.16 0.3574,-0.24 0.59199,-0.24h7.42401c0.30932,0 0.57597,0.112 0.79997,0.336c0.23458,0.224 0.35187,0.496 0.35187,0.816c0,0.15992 -0.02671,0.2986 -0.08013,0.41601c-0.05342,0.11717 -0.12813,0.23446 -0.22413,0.35187z" data-paper-data="{&quot;origPos&quot;:null}" id="path1873" fill="#1eff00" stroke="none" stroke-width="0.26458" stroke-miterlimit="10" stroke-dashoffset="0"/><path d="M127.11521,164.01537c-0.53334,-0.21334 -0.99734,-0.51734 -1.392,-0.912c-0.39468,-0.40534 -0.70403,-0.90134 -0.92803,-1.488c-0.224,-0.58668 -0.336,-1.25868 -0.336,-2.016c0,-0.75734 0.112,-1.42934 0.336,-2.016c0.224,-0.58668 0.53334,-1.08268 0.92803,-1.488c0.39466,-0.40527 0.85866,-0.71461 1.392,-0.92803c0.544,-0.21342 1.13066,-0.32013 1.75997,-0.32013c0.62934,0 1.21068,0.10671 1.74403,0.32013c0.544,0.21334 1.01333,0.52268 1.40799,0.92803c0.39466,0.40532 0.70399,0.90132 0.92799,1.488c0.224,0.58666 0.336,1.25866 0.336,2.016c0,0.75732 -0.112,1.42932 -0.336,2.016c-0.224,0.58666 -0.53333,1.08266 -0.92799,1.488c-0.39466,0.39458 -0.86399,0.69858 -1.40799,0.912c-0.53334,0.21342 -1.11468,0.32013 -1.74403,0.32013c-0.62932,0 -1.21597,-0.10671 -1.75997,-0.32013zM131.40331,158.07951c-0.13858,-0.42666 -0.33058,-0.77333 -0.576,-1.04001c-0.23466,-0.27732 -0.52266,-0.47997 -0.864,-0.60797c-0.33066,-0.13858 -0.69333,-0.20787 -1.08801,-0.20787c-0.39466,0 -0.76266,0.06929 -1.104,0.20787c-0.33058,0.128 -0.61858,0.33066 -0.864,0.60797c-0.23473,0.26668 -0.42139,0.61335 -0.55997,1.04001c-0.13858,0.42666 -0.20787,0.93333 -0.20787,1.52001c0,0.58666 0.06929,1.09332 0.20787,1.51997c0.13873,0.416 0.32539,0.76267 0.55997,1.04001c0.24534,0.26676 0.53334,0.46943 0.864,0.60801c0.34134,0.128 0.70934,0.192 1.104,0.192c0.39468,0 0.75735,-0.064 1.08801,-0.192c0.34142,-0.13868 0.62942,-0.34135 0.864,-0.60801c0.24542,-0.27734 0.43742,-0.62401 0.576,-1.04001c0.13858,-0.42666 0.20787,-0.93332 0.20787,-1.51997c0,-0.58668 -0.06929,-1.09335 -0.20787,-1.52001z" data-paper-data="{&quot;origPos&quot;:null}" id="path1875" fill="#1eff00" stroke="none" stroke-width="0.26458" stroke-miterlimit="10" stroke-dashoffset="0"/><path d="M143.99012,163.29567c-0.08524,0.27742 -0.23457,0.50142 -0.44799,0.672c-0.20266,0.17058 -0.44799,0.25587 -0.73599,0.25587c-0.2881,0 -0.53344,-0.08529 -0.73603,-0.25587c-0.1919,-0.17068 -0.33056,-0.39468 -0.41597,-0.672l-1.55199,-5.64801l-1.55203,5.64801c-0.08542,0.27742 -0.22942,0.50142 -0.432,0.672c-0.192,0.17058 -0.42666,0.25587 -0.70397,0.25587c-0.29876,0 -0.54943,-0.08529 -0.75201,-0.25587c-0.20258,-0.17068 -0.34658,-0.39468 -0.432,-0.672l-2.352,-7.23201c-0.032,-0.07483 -0.048,-0.16554 -0.048,-0.27213c0,-0.064 0.01008,-0.13871 0.03024,-0.22413c0.02117,-0.096 0.05846,-0.18671 0.11187,-0.27213c0.064,-0.096 0.14929,-0.176 0.25587,-0.24c0.10658,-0.064 0.25058,-0.096 0.432,-0.096c0.18127,0 0.34661,0.05329 0.49603,0.15987c0.16,0.09592 0.26671,0.2346 0.32013,0.41601l1.95201,6.51201l1.59999,-6c0.07483,-0.25592 0.19754,-0.4746 0.36813,-0.65601c0.18134,-0.192 0.41601,-0.288 0.70401,-0.288c0.28808,0 0.5174,0.09071 0.68799,0.27213c0.18142,0.18132 0.30942,0.40532 0.384,0.672l1.59999,6l1.968,-6.51201c0.05317,-0.18134 0.15446,-0.32001 0.30387,-0.41601c0.14927,-0.10658 0.31461,-0.15987 0.49603,-0.15987c0.07458,0 0.15987,0.016 0.25587,0.048c0.096,0.02142 0.18671,0.06413 0.27213,0.12813c0.096,0.064 0.17071,0.14929 0.22413,0.25587c0.064,0.10666 0.096,0.23999 0.096,0.39999c0,0.10683 -0.016,0.19754 -0.048,0.27213l-2.352,7.23201z" data-paper-data="{&quot;origPos&quot;:null}" id="path1877" fill="#1eff00" stroke="none" stroke-width="0.26458" stroke-miterlimit="10" stroke-dashoffset="0"/><path d="M147.37333,151.87152c0.192,-0.18142 0.42134,-0.27213 0.68803,-0.27213c0.2559,0 0.47456,0.09071 0.65597,0.27213c0.192,0.18132 0.288,0.40532 0.288,0.672c0,0.256 -0.096,0.48 -0.288,0.672c-0.18132,0.18142 -0.39997,0.27213 -0.65597,0.27213c-0.26668,0 -0.49603,-0.09071 -0.68803,-0.27213c-0.18142,-0.192 -0.27213,-0.416 -0.27213,-0.672c0,-0.26658 0.09071,-0.49058 0.27213,-0.672zM148.89319,163.3755c0,0.23476 -0.08,0.43743 -0.24,0.60801c-0.16008,0.16 -0.3574,0.24 -0.59199,0.24c-0.23476,0 -0.43743,-0.08 -0.60801,-0.24c-0.16,-0.17076 -0.24,-0.37343 -0.24,-0.60801v-7.56797c0,-0.23468 0.08,-0.43203 0.24,-0.59203c0.17076,-0.17058 0.37343,-0.25587 0.60801,-0.25587c0.23466,0 0.43199,0.08529 0.59199,0.25587c0.16,0.1601 0.24,0.35744 0.24,0.59203z" data-paper-data="{&quot;origPos&quot;:null}" id="path1879" fill="#1eff00" stroke="none" stroke-width="0.26458" stroke-miterlimit="10" stroke-dashoffset="0"/><path d="M151.70384,160.09585c0,0.02142 0.00504,0.11213 0.01512,0.27213c0.02117,0.14924 0.05846,0.33057 0.11187,0.54399c0.064,0.21324 0.14929,0.44257 0.25587,0.68799c0.11732,0.23476 0.27197,0.45343 0.46397,0.65601c0.192,0.20276 0.42667,0.37343 0.70401,0.51201c0.288,0.128 0.63467,0.192 1.04001,0.192c0.33073,0 0.61339,-0.02671 0.84797,-0.08013c0.23458,-0.05342 0.44258,-0.13342 0.624,-0.24c0.18127,-0.10666 0.34661,-0.23999 0.49603,-0.39999c0.14924,-0.17068 0.29857,-0.36803 0.44799,-0.59203c0.08542,-0.128 0.18142,-0.21871 0.288,-0.27213c0.10658,-0.05342 0.21858,-0.08013 0.336,-0.08013c0.192,0 0.368,0.06929 0.528,0.20787c0.16,0.13858 0.24,0.31458 0.24,0.528c0,0.128 -0.06929,0.32 -0.20787,0.576c-0.13868,0.256 -0.36268,0.512 -0.672,0.768c-0.29868,0.256 -0.68803,0.48 -1.16803,0.672c-0.48,0.192 -1.06666,0.288 -1.75997,0.288c-0.704,0 -1.33334,-0.128 -1.88803,-0.384c-0.55466,-0.256 -1.02399,-0.59733 -1.40799,-1.02399c-0.37342,-0.43734 -0.66142,-0.94401 -0.864,-1.52001c-0.192,-0.576 -0.288,-1.17866 -0.288,-1.80797c0,-0.65068 0.10129,-1.26403 0.30387,-1.84003c0.20268,-0.58666 0.49068,-1.09332 0.864,-1.51997c0.384,-0.42658 0.84267,-0.76258 1.37601,-1.008c0.53334,-0.256 1.13067,-0.384 1.79199,-0.384c0.608,0 1.17334,0.09071 1.69603,0.27213c0.53332,0.18134 0.99197,0.44801 1.37597,0.80001c0.39468,0.34134 0.70403,0.76267 0.92803,1.26399c0.224,0.50134 0.336,1.07201 0.336,1.71201c0,0.39476 -0.096,0.69343 -0.288,0.89601c-0.192,0.20258 -0.416,0.30387 -0.672,0.30387zM154.21371,156.22308c-0.39466,0 -0.73066,0.05871 -1.008,0.17613c-0.27734,0.11724 -0.51201,0.26657 -0.70401,0.44799c-0.18142,0.17058 -0.32542,0.36258 -0.432,0.576c-0.10658,0.21327 -0.18658,0.41061 -0.24,0.59203c-0.05392,0.18142 -0.08592,0.34142 -0.096,0.48c-0.01008,0.12926 -0.01512,0.20397 -0.01512,0.22413h5.184c0,-0.33066 -0.05329,-0.64532 -0.15987,-0.94397c-0.10668,-0.29868 -0.27203,-0.56003 -0.49603,-0.78403c-0.21332,-0.23473 -0.49065,-0.42139 -0.83199,-0.55997c-0.34134,-0.13858 -0.74134,-0.20787 -1.2,-0.20787z" data-paper-data="{&quot;origPos&quot;:null}" id="path1881" fill="#1eff00" stroke="none" stroke-width="0.26458" stroke-miterlimit="10" stroke-dashoffset="0"/><path d="M159.91119,162.25551c0.23466,-0.23458 0.50666,-0.35187 0.816,-0.35187c0.32,0 0.592,0.11729 0.816,0.35187c0.23458,0.224 0.35187,0.496 0.35187,0.816c0,0.30942 -0.11729,0.58142 -0.35187,0.816c-0.224,0.224 -0.496,0.336 -0.816,0.336c-0.30942,0 -0.58142,-0.112 -0.816,-0.336c-0.224,-0.23466 -0.336,-0.50666 -0.336,-0.816c0,-0.32 0.112,-0.592 0.336,-0.816zM161.67121,160.22352c0,0.26658 -0.09071,0.49058 -0.27213,0.672c-0.18134,0.18142 -0.40534,0.27213 -0.672,0.27213c-0.256,0 -0.48,-0.09071 -0.672,-0.27213c-0.18142,-0.18134 -0.27213,-0.40534 -0.27213,-0.672v-7.68c0,-0.26658 0.09071,-0.49058 0.27213,-0.672c0.192,-0.18142 0.416,-0.27213 0.672,-0.27213c0.26658,0 0.49058,0.09071 0.672,0.27213c0.18142,0.18132 0.27213,0.40532 0.27213,0.672z" data-paper-data="{&quot;origPos&quot;:null}" id="path1883" fill="#1eff00" stroke="none" stroke-width="0.26458" stroke-miterlimit="10" stroke-dashoffset="0"/><path d="M62.49466,170.85688v2.59635h2.8927c0.17867,0 0.34801,-0.03288 0.50801,-0.09865c0.15992,-0.06576 0.29633,-0.15509 0.40921,-0.26797c0.12246,-0.1222 0.21657,-0.26331 0.28233,-0.42331c0.06576,-0.16 0.09865,-0.32932 0.09865,-0.50797c0,-0.17867 -0.03288,-0.34801 -0.09865,-0.50801c-0.06602,-0.15992 -0.16013,-0.29633 -0.28233,-0.40921c-0.11281,-0.12246 -0.24921,-0.21657 -0.40921,-0.28233c-0.16003,-0.06576 -0.32936,-0.09865 -0.50801,-0.09865zM62.49451,175.13266v3.14668h2.94917c0.21626,0 0.41851,-0.04233 0.60673,-0.12699c0.19757,-0.08466 0.3669,-0.19754 0.50801,-0.33865c0.1411,-0.14103 0.25398,-0.30565 0.33865,-0.49387c0.08466,-0.18807 0.12699,-0.39032 0.12699,-0.60677c0,-0.21629 -0.04233,-0.41854 -0.12699,-0.60677c-0.08466,-0.19754 -0.19754,-0.36687 -0.33865,-0.50797c-0.14113,-0.1411 -0.31046,-0.25398 -0.50801,-0.33865c-0.18804,-0.08466 -0.39029,-0.12699 -0.60673,-0.12699zM61.45034,180.14167c-0.13163,0 -0.26333,-0.01877 -0.39511,-0.05631c-0.13178,-0.04712 -0.25411,-0.11301 -0.36699,-0.19767c-0.10356,-0.09398 -0.18822,-0.21153 -0.25398,-0.35263c-0.06576,-0.1411 -0.09865,-0.31043 -0.09865,-0.50797v-8.91795c0,-0.08466 0.01411,-0.18809 0.04233,-0.3103c0.02822,-0.13178 0.08,-0.25411 0.15534,-0.36699c0.08466,-0.1222 0.19754,-0.22098 0.33865,-0.29631c0.15053,-0.08466 0.33867,-0.12699 0.56443,-0.12699h4.33198c0.40449,0 0.79017,0.07055 1.15706,0.21165c0.37629,0.13163 0.70554,0.31977 0.98774,0.56443c0.28223,0.23516 0.50801,0.51737 0.67733,0.84661c0.16932,0.32925 0.25398,0.68202 0.25398,1.05831c0,0.39511 -0.05644,0.72907 -0.16932,1.00188c-0.10348,0.27288 -0.23989,0.49865 -0.40921,0.67729c-0.16925,0.17875 -0.36209,0.32456 -0.57853,0.43744c-0.21629,0.10356 -0.43266,0.19767 -0.6491,0.28233c0.1694,0.05644 0.37164,0.15055 0.60673,0.28233c0.24461,0.12231 0.4798,0.29634 0.70556,0.5221c0.22569,0.22576 0.41853,0.51738 0.57853,0.87485c0.16,0.34807 0.24,0.77609 0.24,1.28406c0,0.46095 -0.09411,0.87957 -0.28233,1.25586c-0.18815,0.37629 -0.43743,0.70084 -0.74786,0.97364c-0.31045,0.27291 -0.67263,0.48457 -1.08654,0.635c-0.40451,0.15043 -0.83253,0.22564 -1.28406,0.22564z" data-paper-data="{&quot;origPos&quot;:null}" id="path1886" fill="#1eff00" stroke="none" stroke-width="0.23334" stroke-miterlimit="10" stroke-dashoffset="0"/><path d="M72.66983,175.06214h2.30003l-1.14297,-3.89454zM75.4634,176.71345h-3.27368l-0.80432,2.69514c-0.07526,0.22569 -0.21167,0.40442 -0.40921,0.5362c-0.18814,0.13178 -0.3951,0.19767 -0.62086,0.19767c-0.32925,0 -0.59264,-0.10822 -0.79019,-0.32466c-0.18822,-0.22576 -0.28233,-0.47975 -0.28233,-0.76195c0,-0.12231 0.02356,-0.25401 0.07068,-0.39511l2.93499,-8.43821c0.06602,-0.18814 0.14602,-0.36688 0.24,-0.5362c0.09424,-0.17882 0.20246,-0.32934 0.32466,-0.45154c0.12223,-0.13153 0.26334,-0.23496 0.42334,-0.3103c0.16,-0.07534 0.34343,-0.11301 0.5503,-0.11301c0.19747,0 0.3762,0.03767 0.5362,0.11301c0.16003,0.07509 0.30114,0.17852 0.42334,0.3103c0.13178,0.12238 0.24466,0.27289 0.33865,0.45154c0.09424,0.16925 0.17424,0.34798 0.24,0.5362l2.92089,8.43821c0.04712,0.1412 0.07068,0.27291 0.07068,0.39511c0,0.11288 -0.02356,0.23521 -0.07068,0.36699c-0.03754,0.13153 -0.09865,0.24907 -0.18331,0.35263c-0.08466,0.10331 -0.19288,0.19263 -0.32466,0.26797c-0.13163,0.06576 -0.29155,0.09865 -0.47977,0.09865c-0.22579,0 -0.43746,-0.06589 -0.635,-0.19767c-0.18804,-0.1317 -0.31974,-0.31044 -0.39507,-0.5362z" data-paper-data="{&quot;origPos&quot;:null}" id="path1888" fill="#1eff00" stroke="none" stroke-width="0.23334" stroke-miterlimit="10" stroke-dashoffset="0"/><path d="M87.01681,176.78466c0,0.61145 -0.12699,1.14295 -0.38098,1.59451c-0.24459,0.44213 -0.57385,0.80901 -0.98778,1.10064c-0.41391,0.2822 -0.89367,0.49386 -1.43928,0.63496c-0.53621,0.1411 -1.09594,0.21165 -1.67917,0.21165c-0.72436,0 -1.34052,-0.09411 -1.84849,-0.28233c-0.50799,-0.18814 -0.92661,-0.42803 -1.25586,-0.71966c-0.31992,-0.29163 -0.5551,-0.60677 -0.70552,-0.94541c-0.1411,-0.33865 -0.21165,-0.66319 -0.21165,-0.97364c0,-0.16932 0.02822,-0.32454 0.08466,-0.46564c0.06602,-0.1411 0.14602,-0.25865 0.24,-0.35263c0.10356,-0.10356 0.21644,-0.18356 0.33865,-0.24c0.13178,-0.05644 0.25877,-0.08466 0.38098,-0.08466c0.15985,0 0.30566,0.04699 0.43744,0.14098c0.13153,0.08466 0.22085,0.22576 0.26797,0.42331c0.12231,0.49857 0.34808,0.89837 0.67733,1.1994c0.33865,0.30103 0.87015,0.45154 1.59451,0.45154c0.70554,0 1.26526,-0.12233 1.67917,-0.36699c0.41391,-0.24459 0.62086,-0.59735 0.62086,-1.05831c0,-0.31043 -0.08932,-0.56441 -0.26797,-0.76195c-0.17875,-0.20697 -0.41863,-0.381 -0.71966,-0.5221c-0.29163,-0.1411 -0.62557,-0.25865 -1.00184,-0.35263c-0.37629,-0.10331 -0.76199,-0.20674 -1.1571,-0.3103c-0.38569,-0.11288 -0.76668,-0.23987 -1.14297,-0.38098c-0.37626,-0.14105 -0.71491,-0.3198 -1.01594,-0.53624c-0.29173,-0.22576 -0.52692,-0.49857 -0.70556,-0.81842c-0.17865,-0.32925 -0.26797,-0.73374 -0.26797,-1.21349c0.00932,-0.53621 0.11276,-1.01128 0.3103,-1.42518c0.20697,-0.41391 0.48918,-0.76198 0.84665,-1.04421c0.35747,-0.28231 0.78079,-0.49867 1.26996,-0.6491c0.48917,-0.15043 1.02537,-0.22564 1.6086,-0.22564c0.70554,0 1.3076,0.09877 1.8062,0.29631c0.49857,0.18814 0.90778,0.41862 1.22763,0.69143c0.31985,0.27281 0.55032,0.55972 0.69143,0.86075c0.15043,0.30113 0.22564,0.55512 0.22564,0.76199c0,0.1506 -0.03288,0.287 -0.09865,0.40921c-0.05644,0.11288 -0.13644,0.21165 -0.24,0.29631c-0.09424,0.07509 -0.20246,0.13619 -0.32466,0.18331c-0.12246,0.03754 -0.24479,0.05631 -0.36699,0.05631c-0.15985,0 -0.30566,-0.03767 -0.43744,-0.11301c-0.13178,-0.07534 -0.22589,-0.19767 -0.28233,-0.36699c-0.07534,-0.21629 -0.18822,-0.40443 -0.33865,-0.56443c-0.1506,-0.15982 -0.32934,-0.29151 -0.5362,-0.39507c-0.19764,-0.11288 -0.41401,-0.19288 -0.6491,-0.24c-0.23519,-0.05644 -0.46566,-0.08466 -0.69143,-0.08466c-0.67732,0 -1.17119,0.11754 -1.48161,0.35263c-0.31045,0.23519 -0.46568,0.55032 -0.46568,0.94541c0,0.29173 0.08932,0.52692 0.26797,0.70556c0.18814,0.1694 0.43273,0.3152 0.73376,0.4374c0.30103,0.11288 0.63969,0.21165 1.01597,0.29631c0.38569,0.07509 0.77608,0.16441 1.17116,0.26797c0.40451,0.09398 0.79491,0.21153 1.1712,0.35263c0.38569,0.14103 0.72905,0.33387 1.03007,0.57853c0.30113,0.23519 0.54101,0.53621 0.71966,0.90308c0.18822,0.35747 0.28233,0.80431 0.28233,1.34052z" data-paper-data="{&quot;origPos&quot;:null}" id="path1890" fill="#1eff00" stroke="none" stroke-width="0.23334" stroke-miterlimit="10" stroke-dashoffset="0"/><path d="M90.1924,179.06957c0,0.30113 -0.10822,0.55512 -0.32466,0.76199c-0.20694,0.20687 -0.46093,0.3103 -0.76195,0.3103c-0.30113,0 -0.55512,-0.10343 -0.76199,-0.3103c-0.20687,-0.20697 -0.3103,-0.46096 -0.3103,-0.76199v-8.98851c0,-0.30113 0.10343,-0.55512 0.3103,-0.76199c0.20697,-0.20687 0.46096,-0.3103 0.76199,-0.3103c0.3011,0 0.55509,0.10343 0.76195,0.3103c0.21644,0.20697 0.32466,0.46096 0.32466,0.76199z" data-paper-data="{&quot;origPos&quot;:null}" id="path1892" fill="#1eff00" stroke="none" stroke-width="0.23334" stroke-miterlimit="10" stroke-dashoffset="0"/><path d="M96.17721,168.81118c0.70554,0 1.3217,0.11754 1.84849,0.35263c0.52682,0.22579 0.96896,0.4939 1.32643,0.80432c0.35757,0.31045 0.62568,0.6303 0.80432,0.95955c0.17865,0.32925 0.26797,0.59264 0.26797,0.79019c0,0.15043 -0.03767,0.29153 -0.11301,0.42331c-0.06576,0.13178 -0.15509,0.24466 -0.26797,0.33865c-0.11288,0.09398 -0.23987,0.1692 -0.38098,0.22564c-0.13163,0.05644 -0.26333,0.08466 -0.39511,0.08466c-0.1411,0 -0.26809,-0.03288 -0.38098,-0.09865c-0.11288,-0.06576 -0.2022,-0.16454 -0.26797,-0.29631c-0.07534,-0.15053 -0.16945,-0.32456 -0.28233,-0.5221c-0.10341,-0.20697 -0.24922,-0.39511 -0.43744,-0.56443c-0.17872,-0.17882 -0.4092,-0.32934 -0.69143,-0.45154c-0.27281,-0.1222 -0.61616,-0.18331 -1.03007,-0.18331c-0.47035,0 -0.88896,0.11754 -1.25582,0.35263c-0.35749,0.22576 -0.66323,0.52209 -0.91722,0.88898c-0.24451,0.36687 -0.43266,0.78549 -0.56443,1.25586c-0.1222,0.46093 -0.18331,0.92658 -0.18331,1.39695c0,0.47975 0.0611,0.95481 0.18331,1.42518c0.13163,0.46095 0.31977,0.87486 0.56443,1.24173c0.25398,0.36697 0.55972,0.66799 0.91722,0.90308c0.36687,0.22576 0.78547,0.33865 1.25582,0.33865c0.41391,0 0.75727,-0.0611 1.03007,-0.18331c0.28231,-0.12238 0.51278,-0.27289 0.69143,-0.45154c0.18807,-0.17875 0.33388,-0.36689 0.43744,-0.56443c0.11288,-0.19747 0.20699,-0.3762 0.28233,-0.5362c0.06576,-0.13178 0.15509,-0.23055 0.26797,-0.29631c0.11288,-0.06576 0.23521,-0.09865 0.36699,-0.09865c0.1316,0 0.26329,0.02822 0.39507,0.08466c0.1411,0.05644 0.26809,0.13165 0.38098,0.22564c0.11288,0.09398 0.2022,0.20687 0.26797,0.33865c0.07534,0.13178 0.11301,0.27288 0.11301,0.42331c0,0.20697 -0.08932,0.47507 -0.26797,0.80432c-0.17872,0.32925 -0.44682,0.6491 -0.80428,0.95955c-0.34807,0.31043 -0.78551,0.57852 -1.31233,0.80428c-0.52679,0.22576 -1.14295,0.33865 -1.84849,0.33865c-0.84664,0 -1.5898,-0.15992 -2.22947,-0.47977c-0.63027,-0.31985 -1.15708,-0.74317 -1.58041,-1.26996c-0.41383,-0.53621 -0.72897,-1.14768 -0.94541,-1.83439c-0.20687,-0.69614 -0.3103,-1.42048 -0.3103,-2.17304c0,-0.74318 0.10343,-1.46283 0.3103,-2.15894c0.21637,-0.69614 0.5315,-1.3076 0.94541,-1.83439c0.42333,-0.53621 0.95014,-0.96423 1.58041,-1.28406c0.63967,-0.31985 1.38283,-0.47977 2.22947,-0.47977z" data-paper-data="{&quot;origPos&quot;:null}" id="path1894" fill="#1eff00" stroke="none" stroke-width="0.23334" stroke-miterlimit="10" stroke-dashoffset="0"/><path d="M69.1023,187.56421c1.27597,0 2.33409,4.30813 3.36635,5.0581c1.03226,0.75001 5.4565,0.42505 5.85078,1.63854c0.39428,1.21349 -3.37599,3.55113 -3.77031,4.76462c-0.39428,1.21349 1.28194,5.32078 0.24983,6.07075c-1.03226,0.74997 -4.42054,-2.1134 -5.6965,-2.1134c-1.27593,0 -4.66424,2.86337 -5.69647,2.1134c-1.03226,-0.74997 0.64392,-4.85726 0.24945,-6.07075c-0.39428,-1.21349 -4.16459,-3.55113 -3.77027,-4.76462c0.39428,-1.21349 4.81852,-0.88853 5.85078,-1.63854c1.03226,-0.74997 2.09038,-5.0581 3.36631,-5.0581z" data-paper-data="{&quot;origPos&quot;:null}" id="path1428-5-44" fill="#1eff00" stroke="none" stroke-width="0.88188" stroke-miterlimit="4" stroke-dashoffset="17.35"/><path d="M92.03942,188.18224c1.18662,0 2.17066,4.00656 3.13066,4.70404c0.96,0.69747 5.07454,0.3953 5.44123,1.52383c0.36661,1.12857 -3.13965,3.30255 -3.50634,4.43108c-0.36661,1.12857 1.19218,4.94835 0.23206,5.64582c-0.96,0.69747 -4.11111,-1.96547 -5.29773,-1.96547c-1.18666,0 -4.33776,2.66294 -5.29776,1.96547c-0.96,-0.69747 0.59887,-4.51725 0.23206,-5.64582c-0.36661,-1.12853 -3.87303,-3.30251 -3.50634,-4.43108c0.36661,-1.12853 4.48123,-0.82636 5.44123,-1.52383c0.96,-0.69747 1.94404,-4.70404 3.1307,-4.70404z" data-paper-data="{&quot;origPos&quot;:null}" id="path1428-0-2-21" fill="#1eff00" stroke="none" stroke-width="0.82015" stroke-miterlimit="4" stroke-dashoffset="17.35"/></g></g></svg>