<svg version="1.1" xmlns="http://www.w3.org/2000/svg" xmlns:xlink="http://www.w3.org/1999/xlink" width="372.21484" height="68.64258"><g transform="translate(-53.89258,-145.67871)"><g data-paper-data="{&quot;isPaintingLayer&quot;:true}" fill-rule="nonzero" stroke-linecap="butt" stroke-linejoin="miter" stroke-dasharray="" style="mix-blend-mode: normal"><path d="M425.00977,146.42871c0.19313,0 0.34765,0.15452 0.34765,0.34766v66.44531c0,0.19313 -0.15452,0.34961 -0.34765,0.34961h-370.01758c-0.19313,0 -0.34961,-0.15648 -0.34961,-0.34961v-66.44531c0,-0.19313 0.15648,-0.34766 0.34961,-0.34766z" data-paper-data="{&quot;origPos&quot;:null}" id="rect815-0-0-8-3" fill="#1e1e1e" stroke="#1eff00" stroke-width="1.5" stroke-miterlimit="4" stroke-dashoffset="17.35"/><path d="M69.10262,187.56556c1.27593,0 2.33409,4.30813 3.36632,5.0581c1.03226,0.74997 5.45654,0.42505 5.85082,1.63854c0.39428,1.21349 -3.37603,3.55109 -3.77031,4.76459c-0.39428,1.21349 1.28194,5.32078 0.24983,6.07079c-1.03226,0.74997 -4.42057,-2.11344 -5.6965,-2.11344c-1.27593,0 -4.66424,2.86341 -5.6965,2.11344c-1.03226,-0.75001 0.64396,-4.8573 0.24983,-6.07079c-0.39428,-1.21349 -4.16459,-3.55109 -3.77031,-4.76459c0.39428,-1.21349 4.81856,-0.88857 5.85082,-1.63854c1.03223,-0.74997 2.09038,-5.0581 3.36631,-5.0581z" data-paper-data="{&quot;origPos&quot;:null}" id="path1428-5-07-2-2" fill="#1eff00" stroke="none" stroke-width="0.88188" stroke-miterlimit="4" stroke-dashoffset="17.35"/><path d="M92.03954,192.86272c0.51037,0 0.93362,1.72328 1.34652,2.02326c0.41291,0.30009 2.1826,0.17008 2.34031,0.65541c0.15772,0.4854 -1.35039,1.42046 -1.50811,1.90583c-0.15772,0.4854 0.51276,2.12833 0.09978,2.42835c-0.41289,0.30009 -1.76821,-0.8454 -2.27859,-0.8454c-0.51039,0 -1.8657,1.14539 -2.2786,0.8454c-0.41291,-0.30009 0.25757,-1.94294 0.09978,-2.42835c-0.15772,-0.48537 -1.66582,-1.42042 -1.50811,-1.90583c0.15772,-0.4854 1.92741,-0.35528 2.34031,-0.65541c0.41291,-0.30009 0.83615,-2.02326 1.34654,-2.02326z" data-paper-data="{&quot;origPos&quot;:null}" id="path1428-0-2-53-3-0" fill="#1eff00" stroke="none" stroke-width="0.35275" stroke-miterlimit="4" stroke-dashoffset="17.35"/><path d="M66.73829,151.84082c0.544,0.16 1.00662,0.37201 1.39062,0.63867c0.39466,0.26666 0.69877,0.5658 0.91211,0.89648c0.21334,0.33066 0.32031,0.66153 0.32031,0.99219c0,0.27742 -0.09511,0.50129 -0.28711,0.67187c-0.18133,0.16 -0.38537,0.24023 -0.60937,0.24023c-0.16001,0 -0.30861,-0.04349 -0.44727,-0.12891c-0.13866,-0.0961 -0.2506,-0.24468 -0.33594,-0.44726c-0.12799,-0.32 -0.29838,-0.57558 -0.51172,-0.76758c-0.20267,-0.20273 -0.43345,-0.35826 -0.68945,-0.46484c-0.24533,-0.11742 -0.50587,-0.19066 -0.7832,-0.22266c-0.27733,-0.04258 -0.54478,-0.06445 -0.80078,-0.06445c-0.384,0 -0.73965,0.04153 -1.07031,0.12695c-0.31999,0.07458 -0.60427,0.18652 -0.84961,0.33594c-0.23467,0.13858 -0.41993,0.31588 -0.55859,0.5293c-0.128,0.20268 -0.19336,0.43647 -0.19336,0.70312c0,0.36276 0.10697,0.6619 0.32031,0.89648c0.224,0.23466 0.51819,0.4318 0.88086,0.5918c0.36267,0.15992 0.77376,0.2986 1.23242,0.41602c0.45867,0.11742 0.92625,0.24114 1.40625,0.36914c0.49067,0.12792 0.96712,0.28147 1.42578,0.46289c0.45867,0.17066 0.8678,0.39453 1.23047,0.67187c0.36266,0.27734 0.65189,0.62007 0.86523,1.02539c0.224,0.40534 0.33594,0.89967 0.33594,1.48633c0,0.65068 -0.12877,1.21727 -0.38477,1.69727c-0.24533,0.48 -0.5861,0.87922 -1.02344,1.19922c-0.43733,0.32 -0.95044,0.5607 -1.53711,0.7207c-0.58666,0.16 -1.20976,0.24023 -1.87109,0.24023c-0.94933,0 -1.75964,-0.13371 -2.43164,-0.40039c-0.66133,-0.27732 -1.20119,-0.60819 -1.61719,-0.99219c-0.416,-0.39468 -0.72011,-0.80576 -0.91211,-1.23242c-0.192,-0.43734 -0.28711,-0.81477 -0.28711,-1.13477c0,-0.384 0.09511,-0.65641 0.28711,-0.81641c0.20266,-0.16 0.41166,-0.24023 0.625,-0.24023c0.18132,0 0.34675,0.05836 0.49609,0.17578c0.14934,0.10658 0.23948,0.28193 0.27148,0.52734c0.06399,0.40534 0.20267,0.76295 0.41602,1.07227c0.224,0.30927 0.49641,0.57174 0.81641,0.78516c0.32,0.20273 0.6776,0.35631 1.07227,0.46289c0.39467,0.10658 0.79884,0.16016 1.21484,0.16016c0.33067,0 0.67339,-0.03674 1.02539,-0.11133c0.36267,-0.08542 0.68661,-0.20914 0.97461,-0.36914c0.29866,-0.17068 0.53936,-0.38959 0.7207,-0.65625c0.192,-0.26666 0.28711,-0.58564 0.28711,-0.95898c0,-0.40534 -0.11194,-0.74115 -0.33594,-1.00781c-0.21333,-0.26658 -0.50062,-0.49046 -0.86328,-0.67187c-0.352,-0.18124 -0.75813,-0.3318 -1.2168,-0.44922c-0.45867,-0.128 -0.92625,-0.25481 -1.40625,-0.38281c-0.48,-0.128 -0.94954,-0.27164 -1.4082,-0.43164c-0.45866,-0.17068 -0.86975,-0.38462 -1.23242,-0.64062c-0.352,-0.26666 -0.63928,-0.5876 -0.86328,-0.96094c-0.21334,-0.384 -0.32031,-0.85851 -0.32031,-1.42383c0,-0.53334 0.11194,-1.00783 0.33594,-1.42383c0.23467,-0.416 0.55365,-0.76669 0.95898,-1.05469c0.40533,-0.28792 0.88674,-0.50683 1.44141,-0.65625c0.55467,-0.14942 1.16093,-0.22461 1.82226,-0.22461c0.64,0 1.22839,0.08023 1.76172,0.24023zM82.41798,152.12793c0.768,0.352 1.41979,0.82651 1.95312,1.42383c0.544,0.59734 0.96005,1.29074 1.24805,2.08008c0.29867,0.78932 0.44726,1.62141 0.44726,2.49609c0,0.88532 -0.1486,1.72238 -0.44726,2.51172c-0.288,0.78934 -0.70405,1.48276 -1.24805,2.08008c-0.53333,0.59734 -1.18512,1.07378 -1.95312,1.42578c-0.75733,0.352 -1.60926,0.52734 -2.55859,0.52734c-0.94933,0 -1.80817,-0.17534 -2.57617,-0.52734c-0.75733,-0.352 -1.40912,-0.82844 -1.95312,-1.42578c-0.53333,-0.59732 -0.94938,-1.29074 -1.24805,-2.08008c-0.288,-0.78934 -0.43164,-1.6264 -0.43164,-2.51172c0,-0.87468 0.14364,-1.70678 0.43164,-2.49609c0.29867,-0.78934 0.71471,-1.48274 1.24805,-2.08008c0.544,-0.59732 1.19579,-1.07183 1.95312,-1.42383c0.768,-0.352 1.62684,-0.52734 2.57617,-0.52734c0.94933,0 1.80126,0.17534 2.55859,0.52734zM96.70704,151.84082c0.544,0.16 1.00662,0.37201 1.39062,0.63867c0.39466,0.26666 0.69877,0.5658 0.91211,0.89648c0.21334,0.33066 0.32031,0.66153 0.32031,0.99219c0,0.27742 -0.09511,0.50129 -0.28711,0.67187c-0.18133,0.16 -0.38537,0.24023 -0.60937,0.24023c-0.16001,0 -0.30861,-0.04349 -0.44727,-0.12891c-0.13866,-0.0961 -0.2506,-0.24468 -0.33594,-0.44726c-0.12799,-0.32 -0.29838,-0.57558 -0.51172,-0.76758c-0.20267,-0.20273 -0.43345,-0.35826 -0.68945,-0.46484c-0.24533,-0.11742 -0.50587,-0.19066 -0.7832,-0.22266c-0.27733,-0.04258 -0.54478,-0.06445 -0.80078,-0.06445c-0.384,0 -0.73965,0.04153 -1.07031,0.12695c-0.31999,0.07458 -0.60427,0.18652 -0.84961,0.33594c-0.23467,0.13858 -0.41993,0.31588 -0.55859,0.5293c-0.128,0.20268 -0.19336,0.43647 -0.19336,0.70312c0,0.36276 0.10697,0.6619 0.32031,0.89648c0.224,0.23466 0.51819,0.4318 0.88086,0.5918c0.36267,0.15992 0.77376,0.2986 1.23242,0.41602c0.45867,0.11742 0.92625,0.24114 1.40625,0.36914c0.49067,0.12792 0.96712,0.28147 1.42578,0.46289c0.45867,0.17066 0.8678,0.39453 1.23047,0.67187c0.36266,0.27734 0.65189,0.62007 0.86523,1.02539c0.224,0.40534 0.33594,0.89967 0.33594,1.48633c0,0.65068 -0.12877,1.21727 -0.38477,1.69727c-0.24533,0.48 -0.5861,0.87922 -1.02344,1.19922c-0.43733,0.32 -0.95044,0.5607 -1.53711,0.7207c-0.58667,0.16 -1.20976,0.24023 -1.87109,0.24023c-0.94933,0 -1.75964,-0.13371 -2.43164,-0.40039c-0.66133,-0.27732 -1.20119,-0.60819 -1.61719,-0.99219c-0.416,-0.39468 -0.72011,-0.80576 -0.91211,-1.23242c-0.192,-0.43734 -0.28711,-0.81477 -0.28711,-1.13477c0,-0.384 0.09511,-0.65641 0.28711,-0.81641c0.20266,-0.16 0.41166,-0.24023 0.625,-0.24023c0.18133,0 0.34675,0.05836 0.49609,0.17578c0.14934,0.10658 0.23948,0.28193 0.27148,0.52734c0.06399,0.40534 0.20267,0.76295 0.41602,1.07227c0.224,0.30927 0.49641,0.57174 0.81641,0.78516c0.32,0.20273 0.6776,0.35631 1.07227,0.46289c0.39467,0.10658 0.79884,0.16016 1.21484,0.16016c0.33066,0 0.67339,-0.03674 1.02539,-0.11133c0.36267,-0.08542 0.68661,-0.20914 0.97461,-0.36914c0.29866,-0.17068 0.53936,-0.38959 0.7207,-0.65625c0.192,-0.26666 0.28711,-0.58564 0.28711,-0.95898c0,-0.40534 -0.11194,-0.74115 -0.33594,-1.00781c-0.21333,-0.26658 -0.50061,-0.49046 -0.86328,-0.67187c-0.352,-0.18124 -0.75813,-0.3318 -1.2168,-0.44922c-0.45867,-0.128 -0.92625,-0.25481 -1.40625,-0.38281c-0.48,-0.128 -0.94953,-0.27164 -1.4082,-0.43164c-0.45866,-0.17068 -0.86976,-0.38462 -1.23242,-0.64062c-0.352,-0.26666 -0.63928,-0.5876 -0.86328,-0.96094c-0.21334,-0.384 -0.32031,-0.85851 -0.32031,-1.42383c0,-0.53334 0.11194,-1.00783 0.33594,-1.42383c0.23467,-0.416 0.55365,-0.76669 0.95898,-1.05469c0.40533,-0.28792 0.88674,-0.50683 1.44141,-0.65625c0.55467,-0.14942 1.16093,-0.22461 1.82226,-0.22461c0.64,0 1.22838,0.08023 1.76172,0.24023zM78.16212,153.64942c-0.52266,0.224 -0.98033,0.54298 -1.375,0.95898c-0.384,0.416 -0.68811,0.92219 -0.91211,1.51953c-0.224,0.59734 -0.33594,1.264 -0.33594,2c0,0.736 0.11194,1.40268 0.33594,2c0.224,0.59734 0.52811,1.11045 0.91211,1.53711c0.39467,0.4161 0.85233,0.74003 1.375,0.97461c0.52267,0.224 1.08927,0.33594 1.69727,0.33594c0.608,0 1.17264,-0.11194 1.69531,-0.33594c0.52266,-0.23468 0.97537,-0.55861 1.35937,-0.97461c0.39467,-0.42666 0.70569,-0.93977 0.92969,-1.53711c0.224,-0.59732 0.33594,-1.264 0.33594,-2c0,-0.736 -0.11194,-1.40266 -0.33594,-2c-0.224,-0.59734 -0.53502,-1.10353 -0.92969,-1.51953c-0.384,-0.416 -0.83671,-0.73498 -1.35937,-0.95898c-0.52267,-0.23458 -1.08731,-0.35351 -1.69531,-0.35351c-0.608,0 -1.1746,0.11893 -1.69727,0.35351zM72.6504,162.48145c0.23466,0.224 0.35156,0.49445 0.35156,0.81445c0,0.30942 -0.1169,0.58182 -0.35156,0.81641c-0.224,0.224 -0.49145,0.33594 -0.80078,0.33594c-0.32001,0 -0.59737,-0.11194 -0.83203,-0.33594c-0.224,-0.23466 -0.33594,-0.50706 -0.33594,-0.81641c0,-0.32 0.11194,-0.59045 0.33594,-0.81445c0.23467,-0.23458 0.51203,-0.35351 0.83203,-0.35351c0.30933,0 0.57678,0.11893 0.80078,0.35351zM88.68165,162.48145c0.23466,0.224 0.35156,0.49445 0.35156,0.81445c0,0.30942 -0.1169,0.58182 -0.35156,0.81641c-0.224,0.224 -0.49145,0.33594 -0.80078,0.33594c-0.32001,0 -0.59737,-0.11194 -0.83203,-0.33594c-0.224,-0.23466 -0.33594,-0.50706 -0.33594,-0.81641c0,-0.32 0.11194,-0.59045 0.33594,-0.81445c0.23467,-0.23458 0.51203,-0.35351 0.83203,-0.35351c0.30933,0 0.57678,0.11893 0.80078,0.35351zM68.17774,167.2959c0.28801,0 0.53367,0.1021 0.73633,0.30469c0.20266,0.20268 0.30273,0.44833 0.30273,0.73633c0,0.29873 -0.10008,0.54937 -0.30273,0.75195c-0.20267,0.20258 -0.44833,0.30273 -0.73633,0.30273h-5.59961v2.73633h4.70312c0.29867,0 0.54929,0.10689 0.75195,0.32031c0.20266,0.20268 0.30469,0.44833 0.30469,0.73633c0,0.2879 -0.10203,0.53853 -0.30469,0.75195c-0.20267,0.20258 -0.45329,0.30469 -0.75195,0.30469h-4.70312v3.58398h5.59961c0.28801,0 0.53367,0.10015 0.73633,0.30273c0.20266,0.20266 0.30273,0.44833 0.30273,0.73633c0,0.29876 -0.10008,0.54937 -0.30273,0.75195c-0.20267,0.20258 -0.44833,0.30469 -0.73633,0.30469h-6.78516c-0.14932,0 -0.29792,-0.02187 -0.44727,-0.06445c-0.14933,-0.05342 -0.28801,-0.12861 -0.41601,-0.22461c-0.11734,-0.10666 -0.21245,-0.23844 -0.28711,-0.39844c-0.07466,-0.16 -0.11328,-0.35217 -0.11328,-0.57617v-10.11328c0,-0.096 0.01683,-0.21298 0.04883,-0.35156c0.032,-0.14934 0.09541,-0.28802 0.19141,-0.41602c0.096,-0.13858 0.22476,-0.25052 0.38476,-0.33594c0.17067,-0.096 0.38267,-0.14453 0.63867,-0.14453zM75.69337,170.79981c0.45867,0.09607 0.85293,0.24468 1.18359,0.44727c0.34133,0.20268 0.60381,0.45826 0.78516,0.76758c0.192,0.29868 0.28711,0.66123 0.28711,1.08789v5.71289c0,0.30924 -0.10697,0.56979 -0.32031,0.7832c-0.21333,0.21342 -0.47387,0.32031 -0.7832,0.32031c-0.28799,0 -0.53861,-0.09007 -0.75195,-0.27148c-0.20266,-0.192 -0.31956,-0.4327 -0.35156,-0.7207c-0.40533,0.3841 -0.83325,0.64657 -1.28125,0.78516c-0.448,0.13858 -0.9542,0.20703 -1.51953,0.20703c-0.36267,0 -0.73018,-0.05357 -1.10351,-0.16016c-0.36267,-0.10658 -0.69352,-0.2651 -0.99219,-0.47851c-0.28799,-0.224 -0.52178,-0.49641 -0.70312,-0.81641c-0.18134,-0.32 -0.27344,-0.69441 -0.27344,-1.12109c0,-0.66132 0.14364,-1.17744 0.43164,-1.55078c0.29867,-0.37334 0.66814,-0.65566 1.10547,-0.84766c0.43733,-0.1919 0.90687,-0.3306 1.4082,-0.41601c0.512,-0.08517 0.9865,-0.17044 1.42383,-0.25586c0.43733,-0.08516 0.79989,-0.2041 1.08789,-0.35352c0.29867,-0.16 0.44727,-0.41061 0.44727,-0.75195c0,-0.1599 -0.04853,-0.2986 -0.14453,-0.41601c-0.08534,-0.128 -0.20719,-0.22815 -0.36719,-0.30273c-0.15999,-0.08542 -0.3472,-0.15078 -0.56055,-0.19336c-0.21334,-0.04258 -0.43722,-0.0625 -0.67187,-0.0625c-0.30934,0 -0.54809,0.04154 -0.71875,0.12695c-0.17068,0.08542 -0.30936,0.19231 -0.41602,0.32031c-0.096,0.128 -0.17623,0.27164 -0.24023,0.43164c-0.064,0.14934 -0.14423,0.28802 -0.24023,0.41602c-0.08531,0.128 -0.20222,0.23489 -0.35156,0.32031c-0.14933,0.08542 -0.36329,0.12891 -0.64062,0.12891c-0.256,0 -0.47987,-0.06536 -0.67187,-0.19336c-0.18134,-0.13866 -0.27148,-0.38433 -0.27148,-0.73633c0,-0.34134 0.0852,-0.65536 0.25586,-0.94336c0.17067,-0.28808 0.41437,-0.53375 0.73437,-0.73633c0.32,-0.21324 0.7093,-0.37868 1.16797,-0.49609c0.45867,-0.11742 0.97673,-0.17578 1.55273,-0.17578c0.544,0 1.04524,0.04853 1.50391,0.14453zM84.2129,170.89551c0.448,0.14934 0.82738,0.33655 1.13672,0.56055c0.32001,0.224 0.56372,0.46967 0.73437,0.73633c0.18134,0.256 0.27344,0.4967 0.27344,0.7207c0,0.13858 -0.0317,0.26539 -0.0957,0.38281c-0.064,0.11716 -0.15115,0.21927 -0.25781,0.30469c-0.096,0.07458 -0.20794,0.13799 -0.33594,0.19141c-0.11732,0.04258 -0.23422,0.06445 -0.35156,0.06445c-0.128,0 -0.24985,-0.02666 -0.36719,-0.08008c-0.11732,-0.064 -0.20252,-0.17089 -0.25586,-0.32031c-0.08532,-0.20273 -0.20222,-0.37314 -0.35156,-0.51172c-0.13866,-0.13858 -0.29913,-0.25052 -0.48047,-0.33594c-0.17068,-0.096 -0.35789,-0.1664 -0.56055,-0.20898c-0.192,-0.04258 -0.38417,-0.0625 -0.57617,-0.0625c-0.416,0 -0.76173,0.07324 -1.03906,0.22266c-0.27733,0.13866 -0.41602,0.36253 -0.41602,0.67187c0,0.25608 0.13177,0.45517 0.39844,0.59375c0.27733,0.13883 0.62006,0.2606 1.02539,0.36719c0.40533,0.096 0.84317,0.2029 1.3125,0.32031c0.46933,0.10668 0.90522,0.25527 1.31055,0.44727c0.40533,0.18132 0.74115,0.42699 1.00781,0.73633c0.27733,0.29866 0.41601,0.69983 0.41601,1.20117c0,0.53334 -0.10008,1.00093 -0.30273,1.40625c-0.192,0.39468 -0.45945,0.73245 -0.80078,1.00977c-0.33067,0.26676 -0.72493,0.46884 -1.18359,0.60742c-0.448,0.13858 -0.92745,0.20703 -1.43945,0.20703c-0.65067,0 -1.22718,-0.09007 -1.72852,-0.27148c-0.50133,-0.192 -0.92234,-0.42578 -1.26367,-0.70312c-0.34132,-0.27734 -0.60381,-0.58145 -0.78516,-0.91211c-0.17066,-0.34134 -0.25586,-0.65731 -0.25586,-0.94531c0,-0.24524 0.11194,-0.44238 0.33594,-0.5918c0.23467,-0.14942 0.48529,-0.22461 0.75195,-0.22461c0.18132,0 0.34675,0.0387 0.49609,0.11328c0.14934,0.07458 0.25631,0.19156 0.32031,0.35156c0.18133,0.448 0.44187,0.81055 0.7832,1.08789c0.34133,0.27732 0.79104,0.41601 1.3457,0.41601c0.18133,0 0.36163,-0.02187 0.54297,-0.06445c0.18134,-0.05316 0.34181,-0.12161 0.48047,-0.20703c0.14932,-0.096 0.26622,-0.20794 0.35156,-0.33594c0.096,-0.13858 0.14453,-0.29905 0.14453,-0.48047c0,-0.288 -0.13372,-0.51187 -0.40039,-0.67187c-0.26667,-0.1601 -0.59752,-0.29381 -0.99219,-0.40039c-0.39467,-0.11742 -0.82559,-0.22935 -1.29492,-0.33594c-0.46933,-0.11732 -0.90221,-0.27284 -1.29687,-0.46484c-0.39467,-0.192 -0.72552,-0.44261 -0.99219,-0.75195c-0.26667,-0.30934 -0.40039,-0.72539 -0.40039,-1.24805c0,-0.416 0.0852,-0.79839 0.25586,-1.15039c0.17067,-0.35192 0.41137,-0.65107 0.7207,-0.89648c0.32,-0.24542 0.69938,-0.43759 1.13672,-0.57617c0.43733,-0.13858 0.92175,-0.20703 1.45508,-0.20703c0.544,0 1.04028,0.07828 1.48828,0.23828zM94.69141,170.97754c0.256,0.21332 0.38477,0.5006 0.38477,0.86328c0,0.10658 -0.01683,0.20869 -0.04883,0.30469l-2.94336,9.18359c-0.14933,0.448 -0.33655,0.80064 -0.56055,1.05664c-0.21333,0.2561 -0.44713,0.45321 -0.70313,0.5918c-0.256,0.13858 -0.52841,0.22386 -0.81641,0.25586c-0.27733,0.04258 -0.54478,0.0625 -0.80078,0.0625h-0.83203c-0.20267,0 -0.38297,-0.03675 -0.54297,-0.11133c-0.14933,-0.07458 -0.28305,-0.16969 -0.40039,-0.28711c-0.10666,-0.11724 -0.19186,-0.25097 -0.25586,-0.40039c-0.05334,-0.13858 -0.08008,-0.28222 -0.08008,-0.43164c0,-0.21327 0.06341,-0.3955 0.19141,-0.54492c0.13867,-0.14942 0.35262,-0.22461 0.64062,-0.22461c0.27732,0 0.53786,-0.00555 0.7832,-0.01562c0.256,-0.01058 0.47987,-0.04733 0.67187,-0.11133c0.19201,-0.064 0.34256,-0.1661 0.44922,-0.30469c0.11734,-0.12792 0.17578,-0.31318 0.17578,-0.55859c0,-0.14924 -0.02179,-0.31468 -0.06445,-0.49609c-0.04266,-0.18127 -0.11103,-0.39521 -0.20703,-0.64063l-2.67187,-6.7832c-0.064,-0.15992 -0.0957,-0.33225 -0.0957,-0.51367c0,-0.12808 0.01984,-0.25985 0.0625,-0.39844c0.04266,-0.13858 0.10802,-0.26735 0.19336,-0.38477c0.096,-0.11742 0.21785,-0.21253 0.36719,-0.28711c0.16,-0.08542 0.35217,-0.12891 0.57617,-0.12891c0.23467,0 0.45359,0.06341 0.65625,0.19141c0.20268,0.11742 0.34136,0.29471 0.41602,0.5293l1.9668,6.08008l1.53711,-6.06445c0.06401,-0.24534 0.19773,-0.43255 0.40039,-0.56055c0.21333,-0.128 0.44216,-0.19141 0.6875,-0.19141c0.32,0 0.60728,0.10689 0.86328,0.32031zM74.83009,175.69629c-0.37333,0.11717 -0.87953,0.23414 -1.51953,0.35156c-0.77867,0.13868 -1.16797,0.50815 -1.16797,1.10547c0,0.14942 0.01984,0.29306 0.0625,0.43164c0.05332,0.13858 0.13852,0.26539 0.25586,0.38281c0.11733,0.10658 0.27284,0.19186 0.46484,0.25586c0.20267,0.064 0.44833,0.09766 0.73633,0.09766c0.24533,0 0.49099,-0.02666 0.73633,-0.08008c0.256,-0.064 0.47987,-0.14928 0.67187,-0.25586c0.20266,-0.11734 0.36117,-0.25602 0.47852,-0.41602c0.128,-0.17058 0.19336,-0.36275 0.19336,-0.57617v-1.55273c-0.224,0.05316 -0.52811,0.13844 -0.91211,0.25586z" data-paper-data="{&quot;origPos&quot;:null}" id="path1977" fill="#1eff00" stroke="none" stroke-width="1" stroke-miterlimit="10" stroke-dashoffset="0"/></g></g></svg>