<svg version="1.1" xmlns="http://www.w3.org/2000/svg" xmlns:xlink="http://www.w3.org/1999/xlink" width="129.87424" height="27.77099" viewBox="0,0,129.87424,27.77099"><g transform="translate(-323.17369,-220.60084)"><g data-paper-data="{&quot;isPaintingLayer&quot;:true}" fill-rule="nonzero" stroke-linecap="butt" stroke-linejoin="miter" stroke-dasharray="" style="mix-blend-mode: normal"><path d="M323.97399,221.35084h128.27344c0.0278,0 0.0505,0.086 0.0505,0.19286v25.88527c0,0.10684 -0.0224,0.19286 -0.0505,0.19286h-128.27344c-0.0279,0 -0.0503,-0.086 -0.0503,-0.19286v-25.88527c0,-0.10684 0.0224,-0.19286 0.0503,-0.19286z" fill="#272727" stroke="#1eff00" stroke-width="1.5" stroke-miterlimit="4" stroke-dashoffset="17.35"/><path d="M340.53659,227.95604c0.64024,0 1.2282,0.08017 1.76172,0.24023c0.5442,0.16005 1.00844,0.37386 1.39258,0.64063c0.39481,0.26676 0.6987,0.56569 0.91211,0.89648c0.21341,0.33079 0.32031,0.6614 0.32031,0.99219c0,0.27743 -0.09699,0.50114 -0.28906,0.67187c-0.1814,0.16004 -0.38334,0.24024 -0.60742,0.24024c-0.16006,0 -0.3105,-0.04351 -0.44922,-0.12891c-0.13871,-0.09604 -0.25054,-0.24452 -0.33594,-0.44726c-0.12805,-0.32012 -0.29831,-0.57747 -0.51172,-0.76954c-0.20274,-0.20274 -0.4314,-0.35618 -0.6875,-0.46289c-0.24542,-0.11738 -0.50772,-0.19261 -0.78515,-0.22461c-0.27744,-0.0426 -0.54469,-0.0644 -0.80079,-0.0644c-0.38414,0 -0.74147,0.04351 -1.07226,0.12891c-0.32011,0.07469 -0.60224,0.18655 -0.84766,0.33593c-0.23475,0.13873 -0.42182,0.31394 -0.56054,0.52735c-0.12801,0.20274 -0.19141,0.43831 -0.19141,0.70508c0,0.36279 0.1069,0.66173 0.32031,0.89648c0.22408,0.23475 0.51806,0.43174 0.88086,0.5918c0.3628,0.16005 0.77359,0.29863 1.23242,0.41601c0.45884,0.11738 0.92803,0.2411 1.40821,0.36914c0.49084,0.12805 0.96499,0.2815 1.42383,0.4629c0.45883,0.17072 0.86962,0.39639 1.23242,0.67382c0.3628,0.27744 0.65182,0.61796 0.86523,1.02344c0.22408,0.40548 0.33594,0.9014 0.33594,1.48828c0,0.65091 -0.12868,1.21709 -0.38477,1.69727c-0.24542,0.48017 -0.58594,0.8791 -1.02343,1.19922c-0.43749,0.32012 -0.95023,0.56065 -1.53711,0.7207c-0.58688,0.16003 -1.21148,0.24023 -1.87305,0.24023c-0.94968,0 -1.76135,-0.13363 -2.43359,-0.40039c-0.66158,-0.27743 -1.19909,-0.60804 -1.61524,-0.99218c-0.41615,-0.39482 -0.72003,-0.80561 -0.91211,-1.23243c-0.19206,-0.43749 -0.28906,-0.8166 -0.28906,-1.13672c0,-0.38414 0.097,-0.65634 0.28906,-0.8164c0.20274,-0.16004 0.40964,-0.24024 0.62305,-0.24024c0.1814,0 0.34671,0.06037 0.49609,0.17774c0.1494,0.10671 0.24144,0.28192 0.27344,0.52734c0.06402,0.40548 0.2026,0.76282 0.41602,1.07227c0.22408,0.30944 0.49629,0.57175 0.8164,0.78515c0.32012,0.20274 0.67746,0.35619 1.07227,0.4629c0.39481,0.10675 0.79869,0.16015 1.21484,0.16015c0.33079,0 0.67327,-0.03663 1.02539,-0.11133c0.3628,-0.08536 0.68846,-0.20908 0.97656,-0.36914c0.29878,-0.17073 0.53931,-0.38949 0.72071,-0.65625c0.19211,-0.26676 0.28711,-0.58552 0.28711,-0.95898c0,-0.40548 -0.11186,-0.743 -0.33594,-1.00977c-0.21341,-0.26676 -0.50244,-0.49047 -0.86523,-0.67187c-0.35213,-0.1814 -0.75602,-0.32989 -1.21485,-0.44727c-0.45883,-0.12804 -0.92998,-0.25672 -1.41015,-0.38476c-0.48018,-0.12805 -0.94938,-0.27158 -1.40821,-0.43164c-0.45883,-0.17073 -0.86962,-0.38454 -1.23242,-0.64063c-0.35213,-0.26676 -0.6392,-0.58746 -0.86328,-0.96094c-0.21341,-0.38414 -0.32031,-0.85829 -0.32031,-1.42383c0,-0.53352 0.11185,-1.00767 0.33593,-1.42382c0.23476,-0.41616 0.55546,-0.76854 0.96094,-1.05664c0.40548,-0.28811 0.88459,-0.50687 1.43945,-0.65625c0.55487,-0.14941 1.16265,-0.22461 1.82422,-0.22461zM371.35886,228.42093c0.16003,0.16005 0.24023,0.35704 0.24023,0.5918v10.94726c0,0.23476 -0.08017,0.43865 -0.24023,0.60938c-0.16005,0.16003 -0.35704,0.24023 -0.5918,0.24023c-0.23475,0 -0.43669,-0.08017 -0.60742,-0.24023c-0.16003,-0.17073 -0.24023,-0.37462 -0.24023,-0.60938v-10.94726c0,-0.23476 0.08017,-0.43175 0.24023,-0.5918c0.17073,-0.16003 0.37267,-0.24023 0.60742,-0.24023c0.23476,0 0.43175,0.08017 0.5918,0.24023zM374.51706,228.42093c0.16004,0.16005 0.24024,0.35704 0.24024,0.5918v10.94726c0,0.23476 -0.08018,0.43865 -0.24024,0.60938c-0.16006,0.16003 -0.35704,0.24023 -0.59179,0.24023c-0.23476,0 -0.43865,-0.08017 -0.60938,-0.24023c-0.16003,-0.17073 -0.24023,-0.37462 -0.24023,-0.60938v-10.94726c0,-0.23476 0.08017,-0.43175 0.24023,-0.5918c0.17073,-0.16003 0.37462,-0.24023 0.60938,-0.24023c0.23475,0 0.43173,0.08017 0.59179,0.24023zM387.99362,228.42093c0.17076,0.16005 0.25586,0.35704 0.25586,0.5918v10.94729c0,0.23476 -0.08513,0.43865 -0.25586,0.60938c-0.16006,0.16003 -0.35899,0.24023 -0.59375,0.24023c-0.23475,0 -0.43174,-0.08017 -0.59179,-0.24023c-0.16004,-0.17073 -0.24024,-0.37462 -0.24024,-0.60938v-0.14453c-0.21341,0.1814 -0.41535,0.33681 -0.60742,0.46485c-0.1814,0.12804 -0.37343,0.23491 -0.57617,0.32031c-0.20274,0.07465 -0.42646,0.12815 -0.67188,0.16015c-0.24542,0.032 -0.52949,0.0488 -0.8496,0.0488c-0.52286,0 -1.01878,-0.1138 -1.48829,-0.33789c-0.45883,-0.22408 -0.86467,-0.53788 -1.21679,-0.94336c-0.34146,-0.41614 -0.61367,-0.90711 -0.81641,-1.47265c-0.20273,-0.56554 -0.30273,-1.19014 -0.30273,-1.87305c0,-0.68291 0.09008,-1.30751 0.27148,-1.87305c0.1814,-0.5762 0.43679,-1.06717 0.76758,-1.47265c0.34146,-0.41616 0.7473,-0.73491 1.2168,-0.95899c0.4695,-0.22408 0.99215,-0.33594 1.56836,-0.33594c0.43749,0 0.8166,0.05345 1.13671,0.16016c0.32012,0.1067 0.58738,0.23342 0.80079,0.38281c0.21341,0.13872 0.37872,0.2773 0.49609,0.41602c0.12807,0.13874 0.21818,0.24069 0.27148,0.30469v-3.79297c0,-0.23476 0.08018,-0.43175 0.24024,-0.5918c0.16005,-0.16003 0.35704,-0.24023 0.59179,-0.24023c0.23476,0 0.43369,0.08017 0.59375,0.24023zM391.09909,228.45218c0.19207,0.1814 0.28907,0.40512 0.28907,0.67188c0,0.25609 -0.097,0.4798 -0.28907,0.67187c-0.1814,0.18134 -0.40015,0.27344 -0.65625,0.27344c-0.26676,0 -0.49543,-0.09205 -0.6875,-0.27344c-0.18138,-0.19207 -0.27148,-0.41578 -0.27148,-0.67187c0,-0.26676 0.09008,-0.49048 0.27148,-0.67188c0.19207,-0.18138 0.42074,-0.27148 0.6875,-0.27148c0.2561,0 0.47485,0.09008 0.65625,0.27148zM422.39206,228.45218c0.19206,0.1814 0.28906,0.40512 0.28906,0.67188c0,0.25609 -0.09698,0.4798 -0.28906,0.67187c-0.18139,0.18134 -0.40015,0.27344 -0.65625,0.27344c-0.26676,0 -0.49543,-0.09205 -0.6875,-0.27344c-0.18144,-0.19207 -0.27344,-0.41578 -0.27344,-0.67187c0,-0.26676 0.09204,-0.49048 0.27344,-0.67188c0.19207,-0.18138 0.42074,-0.27148 0.6875,-0.27148c0.2561,0 0.47486,0.09008 0.65625,0.27148zM418.08542,229.15726c0.17076,0.16006 0.25586,0.35704 0.25586,0.5918v2h0.88086c0.20274,0 0.37301,0.07522 0.51172,0.22461c0.14941,0.13871 0.22461,0.30897 0.22461,0.51171c0,0.21342 -0.07522,0.39059 -0.22461,0.5293c-0.13871,0.13873 -0.30898,0.20703 -0.51172,0.20703h-0.88086v6.73828c0,0.23476 -0.08513,0.43865 -0.25586,0.60938c-0.16006,0.16003 -0.359,0.24023 -0.59375,0.24023c-0.23475,0 -0.43174,-0.08017 -0.5918,-0.24023c-0.16003,-0.17073 -0.24023,-0.37462 -0.24023,-0.60938v-6.73828h-0.5918c-0.20274,0 -0.37795,-0.06831 -0.52734,-0.20703c-0.13869,-0.13871 -0.20899,-0.31588 -0.20899,-0.5293c0,-0.20274 0.07028,-0.373 0.20899,-0.51171c0.14939,-0.14941 0.3246,-0.22461 0.52734,-0.22461h0.5918v-2c0,-0.23476 0.08017,-0.43174 0.24023,-0.5918c0.16006,-0.16004 0.35705,-0.24024 0.5918,-0.24024c0.23475,0 0.43369,0.08019 0.59375,0.24024zM352.32566,231.71781c0.4695,0.1814 0.85357,0.40015 1.15234,0.65625c0.30945,0.25609 0.54007,0.52334 0.68945,0.80078c0.14941,0.27743 0.22461,0.51106 0.22461,0.70312c0,0.24543 -0.08708,0.43746 -0.25781,0.57617c-0.17073,0.12806 -0.36276,0.19336 -0.57617,0.19336c-0.14939,0 -0.28797,-0.03858 -0.41602,-0.11328c-0.12806,-0.07469 -0.21818,-0.20336 -0.27148,-0.38476c-0.05336,-0.17073 -0.14344,-0.33604 -0.27149,-0.4961c-0.11737,-0.16005 -0.27277,-0.30359 -0.46484,-0.43164c-0.18139,-0.12804 -0.40016,-0.22999 -0.65625,-0.30469c-0.24543,-0.07472 -0.51763,-0.11132 -0.81641,-0.11132c-0.33078,0 -0.6614,0.06336 -0.99218,0.1914c-0.32012,0.11738 -0.6141,0.30941 -0.88086,0.57617c-0.2561,0.26677 -0.463,0.61915 -0.62305,1.05664c-0.16003,0.42682 -0.24024,0.94452 -0.24023,1.55274c-0.00001,0.60822 0.08017,1.12591 0.24023,1.55273c0.16005,0.42682 0.36695,0.77425 0.62305,1.04102c0.26676,0.26676 0.56074,0.46375 0.88086,0.5918c0.33078,0.11738 0.6614,0.17578 0.99218,0.17578c0.29878,0 0.57098,-0.03663 0.81641,-0.11133c0.25609,-0.07469 0.47486,-0.17664 0.65625,-0.30469c0.19207,-0.12804 0.34747,-0.27158 0.46484,-0.43164c0.12807,-0.16006 0.21819,-0.32537 0.27149,-0.49609c0.05335,-0.1814 0.14344,-0.31007 0.27148,-0.38477c0.12805,-0.07473 0.26663,-0.11133 0.41602,-0.11133c0.21341,0 0.40544,0.06831 0.57617,0.20704c0.18144,0.12804 0.27344,0.31017 0.27344,0.54492c0,0.11738 -0.05345,0.31436 -0.16016,0.59179c-0.10671,0.26676 -0.29874,0.53898 -0.57617,0.81641c-0.27743,0.27743 -0.6615,0.52291 -1.15235,0.73633c-0.48017,0.21341 -1.09981,0.32031 -1.85742,0.32031c-0.62956,0 -1.21556,-0.11185 -1.75976,-0.33594c-0.53353,-0.23474 -0.99777,-0.56041 -1.39258,-0.97656c-0.39481,-0.41615 -0.70561,-0.91207 -0.92969,-1.48828c-0.22408,-0.58688 -0.33594,-1.23325 -0.33594,-1.9375c0,-0.71493 0.11186,-1.35934 0.33594,-1.93555c0.22408,-0.58688 0.53488,-1.0897 0.92969,-1.50586c0.39481,-0.41614 0.85905,-0.73489 1.39258,-0.95898c0.5442,-0.23475 1.1302,-0.35352 1.75976,-0.35352c0.64024,0 1.19457,0.097 1.66407,0.28907zM366.18112,231.74906c0.5442,0.21341 1.0134,0.5242 1.40821,0.92968c0.39481,0.40548 0.70365,0.9014 0.92773,1.48828c0.22408,0.58688 0.33594,1.25802 0.33594,2.01563c0,0.75761 -0.11186,1.4307 -0.33594,2.01758c-0.22408,0.58688 -0.53292,1.0828 -0.92773,1.48828c-0.39481,0.39481 -0.86401,0.69869 -1.40821,0.91211c-0.53352,0.21341 -1.11653,0.32031 -1.74609,0.32031c-0.62956,0 -1.21556,-0.1069 -1.75976,-0.32031c-0.53353,-0.21342 -0.99778,-0.5173 -1.39258,-0.91211c-0.39482,-0.40548 -0.70366,-0.9014 -0.92774,-1.48828c-0.22408,-0.58688 -0.33789,-1.25997 -0.33789,-2.01758c0,-0.75761 0.11381,-1.42875 0.33789,-2.01563c0.22408,-0.58688 0.53292,-1.0828 0.92774,-1.48828c0.3948,-0.40548 0.85905,-0.71627 1.39258,-0.92968c0.5442,-0.21341 1.1302,-0.32032 1.75976,-0.32032c0.62956,0 1.21257,0.10691 1.74609,0.32032zM401.52489,231.42878c0.60822,0 1.17441,0.09204 1.69727,0.27344c0.53353,0.18139 0.99281,0.4467 1.37695,0.79883c0.39481,0.34145 0.70366,0.76411 0.92774,1.26562c0.22408,0.50152 0.33593,1.07267 0.33594,1.71289c0,0.39482 -0.09505,0.69375 -0.28711,0.89649c-0.19208,0.20273 -0.41775,0.30273 -0.67383,0.30273h-5.85742c0,0.02134 0.0049,0.11338 0.0156,0.27344c0.02138,0.14939 0.05998,0.32956 0.11328,0.54297c0.06402,0.21341 0.14915,0.44403 0.25586,0.68945c0.11738,0.23476 0.27083,0.45351 0.46289,0.65625c0.19207,0.20274 0.42764,0.373 0.70508,0.51172c0.2881,0.12801 0.63554,0.19141 1.04102,0.19141c0.33078,0 0.6129,-0.0268 0.84765,-0.0801c0.23476,-0.05335 0.4436,-0.13353 0.625,-0.24023c0.1814,-0.10671 0.3467,-0.24034 0.4961,-0.4004c0.14938,-0.17073 0.29787,-0.36771 0.44726,-0.59179c0.08536,-0.12807 0.18236,-0.21819 0.28906,-0.27149c0.10671,-0.0534 0.21857,-0.0801 0.33594,-0.0801c0.19207,0 0.36729,0.06832 0.52734,0.20704c0.16004,0.13872 0.24024,0.31589 0.24024,0.52929c0,0.12805 -0.07027,0.32008 -0.20898,0.57617c-0.13873,0.2561 -0.36243,0.51149 -0.67188,0.76758c-0.29877,0.2561 -0.6878,0.47981 -1.16797,0.67188c-0.48017,0.19206 -1.06618,0.28906 -1.75976,0.28906c-0.70426,0 -1.33381,-0.12867 -1.88868,-0.38476c-0.55486,-0.2561 -1.02601,-0.59662 -1.41015,-1.02344c-0.37348,-0.4375 -0.66054,-0.94528 -0.86328,-1.52149c-0.19207,-0.57621 -0.28907,-1.17903 -0.28907,-1.80859c0,-0.6509 0.10195,-1.26363 0.30469,-1.83984c0.20274,-0.58688 0.49177,-1.09467 0.86524,-1.52149c0.38414,-0.42682 0.84147,-0.76239 1.375,-1.00781c0.53352,-0.25609 1.13139,-0.38477 1.79296,-0.38477zM412.59909,231.71781c0.4695,0.1814 0.85357,0.40015 1.15235,0.65625c0.30944,0.25609 0.53811,0.52334 0.6875,0.80078c0.14941,0.27743 0.22461,0.51106 0.22461,0.70312c0,0.24543 -0.08514,0.43746 -0.25586,0.57617c-0.17073,0.12806 -0.36276,0.19336 -0.57618,0.19336c-0.14938,0 -0.28796,-0.03858 -0.41601,-0.11328c-0.12807,-0.07469 -0.22014,-0.20336 -0.27344,-0.38476c-0.05335,-0.17073 -0.14344,-0.33604 -0.27148,-0.4961c-0.11738,-0.16005 -0.27278,-0.30359 -0.46485,-0.43164c-0.1814,-0.12804 -0.40015,-0.22999 -0.65625,-0.30469c-0.24542,-0.07472 -0.51762,-0.11132 -0.8164,-0.11132c-0.33079,0 -0.6614,0.06336 -0.99219,0.1914c-0.32011,0.11738 -0.61214,0.30941 -0.87891,0.57617c-0.25608,0.26677 -0.46494,0.61915 -0.625,1.05664c-0.16003,0.42682 -0.24023,0.94452 -0.24023,1.55274c0,0.60822 0.08017,1.12591 0.24023,1.55273c0.16006,0.42682 0.36892,0.77425 0.625,1.04102c0.26677,0.26676 0.5588,0.46375 0.87891,0.5918c0.33079,0.11738 0.6614,0.17578 0.99219,0.17578c0.29878,0 0.57098,-0.03663 0.8164,-0.11133c0.2561,-0.07469 0.47485,-0.17664 0.65625,-0.30469c0.19207,-0.12804 0.34747,-0.27158 0.46485,-0.43164c0.12806,-0.16006 0.21818,-0.32537 0.27148,-0.49609c0.05336,-0.1814 0.14539,-0.31007 0.27344,-0.38477c0.12805,-0.07473 0.26663,-0.11133 0.41601,-0.11133c0.21342,0 0.40545,0.06831 0.57618,0.20704c0.18138,0.12804 0.27148,0.31017 0.27148,0.54492c0,0.11738 -0.05345,0.31436 -0.16016,0.59179c-0.1067,0.26676 -0.29873,0.53898 -0.57617,0.81641c-0.27743,0.27743 -0.6615,0.52291 -1.15234,0.73633c-0.48018,0.21341 -1.09982,0.32031 -1.85742,0.32031c-0.62956,0 -1.21557,-0.11185 -1.75977,-0.33594c-0.53352,-0.23474 -0.99777,-0.56041 -1.39258,-0.97656c-0.3948,-0.41615 -0.70364,-0.91207 -0.92773,-1.48828c-0.22408,-0.58688 -0.33594,-1.23325 -0.33594,-1.9375c0,-0.71493 0.11186,-1.35934 0.33594,-1.93555c0.22409,-0.58688 0.53293,-1.0897 0.92773,-1.50586c0.39481,-0.41614 0.85906,-0.73489 1.39258,-0.95898c0.5442,-0.23475 1.13021,-0.35352 1.75977,-0.35352c0.64023,0 1.19651,0.097 1.66601,0.28907zM429.68503,231.74906c0.5442,0.21341 1.0134,0.5242 1.4082,0.92968c0.39481,0.40548 0.70365,0.9014 0.92774,1.48828c0.22408,0.58688 0.33594,1.25802 0.33594,2.01563c0,0.75761 -0.11186,1.4307 -0.33594,2.01758c-0.22409,0.58688 -0.53293,1.0828 -0.92774,1.48828c-0.3948,0.39481 -0.864,0.69869 -1.4082,0.91211c-0.53353,0.21341 -1.11653,0.32031 -1.74609,0.32031c-0.62956,0 -1.21557,-0.1069 -1.75977,-0.32031c-0.53353,-0.21342 -0.99776,-0.5173 -1.39258,-0.91211c-0.3948,-0.40548 -0.70365,-0.9014 -0.92773,-1.48828c-0.22408,-0.58688 -0.33594,-1.25997 -0.33594,-2.01758c0,-0.75761 0.11186,-1.42875 0.33594,-2.01563c0.22408,-0.58688 0.53293,-1.0828 0.92773,-1.48828c0.39482,-0.40548 0.85905,-0.71627 1.39258,-0.92968c0.5442,-0.21341 1.13021,-0.32032 1.75977,-0.32032c0.62956,0 1.21256,0.10691 1.74609,0.32032zM356.2124,231.54202c0.23476,0 0.43174,0.08514 0.5918,0.25586c0.16004,0.16006 0.24024,0.35705 0.24024,0.5918v0.30469c0.04268,-0.04269 0.12286,-0.12781 0.24023,-0.25586c0.11738,-0.12805 0.26091,-0.25672 0.43164,-0.38477c0.1814,-0.13871 0.38034,-0.25556 0.59375,-0.35156c0.22409,-0.10676 0.45771,-0.16016 0.70313,-0.16016c0.23475,0 0.43174,0.08514 0.59179,0.25586c0.17076,0.16006 0.25586,0.35705 0.25586,0.5918c0,0.22408 -0.08512,0.42107 -0.25586,0.5918c-0.16005,0.16003 -0.35704,0.24023 -0.59179,0.24023c-0.40548,0 -0.7361,0.097 -0.99219,0.28906c-0.2561,0.1814 -0.45804,0.40016 -0.60742,0.65625c-0.13874,0.2561 -0.23577,0.5214 -0.28907,0.79883c-0.0534,0.27744 -0.0801,0.50806 -0.0801,0.68946v4.30468c0,0.23476 -0.08018,0.43865 -0.24024,0.60938c-0.16006,0.16003 -0.35704,0.24023 -0.5918,0.24023c-0.23474,0 -0.43668,-0.08017 -0.60742,-0.24023c-0.16003,-0.17073 -0.24023,-0.37462 -0.24023,-0.60938v-7.57031c0,-0.23475 0.08018,-0.43174 0.24023,-0.5918c0.17074,-0.17076 0.37268,-0.25586 0.60742,-0.25586zM391.03659,231.79788c0.16004,0.16006 0.24024,0.35705 0.24024,0.5918v7.57031c0,0.23476 -0.08018,0.43865 -0.24024,0.60938c-0.16005,0.16003 -0.35899,0.24023 -0.59375,0.24023c-0.23475,0 -0.43669,-0.08017 -0.60742,-0.24023c-0.16003,-0.17073 -0.24023,-0.37462 -0.24023,-0.60938v-7.57031c0,-0.23475 0.08017,-0.43174 0.24023,-0.5918c0.17073,-0.17076 0.37267,-0.25586 0.60742,-0.25586c0.23476,0 0.4337,0.08514 0.59375,0.25586zM393.38232,231.54202c0.23475,0 0.43173,0.08514 0.59179,0.25586c0.16004,0.16006 0.24024,0.35705 0.24024,0.5918v0.30469c0.04268,-0.04269 0.12286,-0.12781 0.24023,-0.25586c0.11738,-0.12805 0.26092,-0.25672 0.43164,-0.38477c0.1814,-0.13871 0.37839,-0.25556 0.5918,-0.35156c0.22408,-0.10676 0.45965,-0.16016 0.70508,-0.16016c0.23475,0 0.43174,0.08514 0.59179,0.25586c0.17076,0.16006 0.25586,0.35705 0.25586,0.5918c0,0.22408 -0.08512,0.42107 -0.25586,0.5918c-0.16005,0.16003 -0.35704,0.24023 -0.59179,0.24023c-0.40548,0 -0.7361,0.097 -0.99219,0.28906c-0.25609,0.1814 -0.45804,0.40016 -0.60742,0.65625c-0.13874,0.2561 -0.23576,0.5214 -0.28906,0.79883c-0.0534,0.27744 -0.0801,0.50806 -0.0801,0.68946v4.30468c0,0.23476 -0.08018,0.43865 -0.24024,0.60938c-0.16006,0.16003 -0.35704,0.24023 -0.59179,0.24023c-0.23475,0 -0.43865,-0.08017 -0.60938,-0.24023c-0.16008,-0.17073 -0.23828,-0.37462 -0.23828,-0.60938v-7.57031c0,-0.23475 0.07823,-0.43174 0.23828,-0.5918c0.17073,-0.17076 0.37463,-0.25586 0.60938,-0.25586zM422.32761,231.79788c0.16003,0.16006 0.24023,0.35705 0.24023,0.5918v7.57031c0,0.23476 -0.08017,0.43865 -0.24023,0.60938c-0.16006,0.16003 -0.35705,0.24023 -0.5918,0.24023c-0.23475,0 -0.43669,-0.08017 -0.60742,-0.24023c-0.16003,-0.17073 -0.24023,-0.37462 -0.24023,-0.60938v-7.57031c0,-0.23475 0.08017,-0.43174 0.24023,-0.5918c0.17073,-0.17076 0.37267,-0.25586 0.60742,-0.25586c0.23475,0 0.43174,0.08514 0.5918,0.25586zM434.14597,231.54206c0.23475,0 0.43369,0.08514 0.59375,0.25586c0.16003,0.16006 0.24023,0.35705 0.24023,0.5918v0.28906c0.10671,-0.09603 0.23343,-0.20984 0.38282,-0.33789c0.16006,-0.13872 0.35209,-0.26544 0.57617,-0.38281c0.22408,-0.11738 0.48142,-0.21436 0.76953,-0.28906c0.29877,-0.08536 0.6393,-0.12696 1.02344,-0.12696c0.3948,0 0.77391,0.05841 1.13671,0.17579c0.37347,0.1067 0.70409,0.27201 0.99219,0.49609c0.2881,0.22408 0.51677,0.50124 0.6875,0.83203c0.17071,0.33079 0.25781,0.71485 0.25781,1.15234v5.76172c0,0.23476 -0.08708,0.43865 -0.25781,0.60938c-0.16006,0.16003 -0.35704,0.24023 -0.5918,0.24023c-0.23474,0 -0.43173,-0.08017 -0.59179,-0.24023c-0.16004,-0.17073 -0.24024,-0.37462 -0.24024,-0.60938v-5.57031c0,-0.23475 -0.0584,-0.44165 -0.17578,-0.62305c-0.1067,-0.19206 -0.25024,-0.34747 -0.43164,-0.46484c-0.17072,-0.12807 -0.36967,-0.22311 -0.59375,-0.28711c-0.21341,-0.064 -0.42526,-0.0977 -0.63867,-0.0977c-0.35213,0 -0.67284,0.06532 -0.96094,0.19336c-0.2881,0.11738 -0.53359,0.28268 -0.73633,0.4961c-0.19206,0.2134 -0.34055,0.4688 -0.44726,0.76758c-0.10676,0.2881 -0.16016,0.60385 -0.16016,0.94531v4.64062c0,0.23476 -0.08017,0.43865 -0.24023,0.60938c-0.16006,0.16003 -0.359,0.24023 -0.59375,0.24023c-0.23476,0 -0.4367,-0.08017 -0.60742,-0.24023c-0.16004,-0.17073 -0.24024,-0.37462 -0.24024,-0.60938v-7.57031c0,-0.23475 0.08018,-0.43174 0.24024,-0.5918c0.17072,-0.17076 0.37266,-0.25586 0.60742,-0.25586zM363.33151,233.01468c-0.33078,0.12805 -0.61981,0.32999 -0.86523,0.60742c-0.23475,0.26677 -0.42183,0.6142 -0.56055,1.04102c-0.13873,0.42682 -0.20703,0.93265 -0.20703,1.51953c0,0.58688 0.06832,1.09466 0.20703,1.52148c0.13872,0.41616 0.3258,0.76163 0.56055,1.03907c0.24542,0.26676 0.53445,0.47065 0.86523,0.60937c0.34147,0.12801 0.70871,0.19141 1.10352,0.19141c0.39481,0 0.75906,-0.06336 1.08984,-0.19141c0.34146,-0.13872 0.62853,-0.34261 0.86329,-0.60937c0.24542,-0.27744 0.43745,-0.62291 0.57617,-1.03907c0.13868,-0.42682 0.20898,-0.9346 0.20898,-1.52148c0,-0.58688 -0.07027,-1.09271 -0.20898,-1.51953c-0.13872,-0.42682 -0.33075,-0.77425 -0.57617,-1.04102c-0.23476,-0.27743 -0.52183,-0.47937 -0.86329,-0.60742c-0.33078,-0.13868 -0.69503,-0.20898 -1.08984,-0.20898c-0.39481,0 -0.76206,0.07027 -1.10352,0.20898zM401.558,232.8057c-0.39481,0 -0.73233,0.0584 -1.00977,0.17578c-0.27743,0.11737 -0.51105,0.26782 -0.70312,0.44922c-0.1814,0.17073 -0.3269,0.36276 -0.4336,0.57617c-0.10672,0.21341 -0.18498,0.4104 -0.23828,0.5918c-0.0533,0.18139 -0.0869,0.34174 -0.0976,0.48046c-0.0106,0.12806 -0.0156,0.20136 -0.0156,0.22266h5.18555c0,-0.33079 -0.05345,-0.64459 -0.16016,-0.94336c-0.10671,-0.29877 -0.27201,-0.56107 -0.49609,-0.78516c-0.21342,-0.23474 -0.49058,-0.41987 -0.83203,-0.55859c-0.34146,-0.13868 -0.74039,-0.20898 -1.19922,-0.20898zM426.83542,233.01468c-0.33079,0.12805 -0.61785,0.32999 -0.86328,0.60742c-0.23475,0.26677 -0.42183,0.6142 -0.56055,1.04102c-0.13868,0.42682 -0.20898,0.93265 -0.20898,1.51953c0,0.58688 0.07027,1.09466 0.20898,1.52148c0.13872,0.41616 0.3258,0.76163 0.56055,1.03907c0.24543,0.26676 0.53249,0.47065 0.86328,0.60937c0.34145,0.12801 0.7087,0.19141 1.10352,0.19141c0.3948,0 0.75905,-0.06336 1.08984,-0.19141c0.34146,-0.13872 0.62853,-0.34261 0.86328,-0.60937c0.24542,-0.27744 0.43746,-0.62291 0.57617,-1.03907c0.13869,-0.42682 0.20899,-0.9346 0.20899,-1.52148c0,-0.58688 -0.07027,-1.09271 -0.20899,-1.51953c-0.13871,-0.42682 -0.33075,-0.77425 -0.57617,-1.04102c-0.23475,-0.27743 -0.52182,-0.47937 -0.86328,-0.60742c-0.33079,-0.13868 -0.69504,-0.20898 -1.08984,-0.20898c-0.39482,0 -0.76207,0.07027 -1.10352,0.20898zM383.06198,233.19046c-0.30944,0.1814 -0.57474,0.42688 -0.79882,0.73633c-0.21342,0.29877 -0.37872,0.64425 -0.4961,1.03906c-0.10675,0.38414 -0.16015,0.78998 -0.16015,1.2168c0,0.41615 0.05345,0.82199 0.16015,1.2168c0.11738,0.39481 0.28268,0.74224 0.4961,1.04101c0.22408,0.29878 0.48938,0.53735 0.79882,0.71875c0.30945,0.18144 0.66874,0.27344 1.07422,0.27344c0.40548,0 0.76282,-0.09204 1.07227,-0.27344c0.32011,-0.1814 0.58541,-0.41997 0.79883,-0.71875c0.2134,-0.29877 0.37376,-0.6462 0.48047,-1.04101c0.11738,-0.39481 0.17578,-0.80065 0.17578,-1.2168c0,-0.42682 -0.05841,-0.83266 -0.17578,-1.2168c-0.10671,-0.39481 -0.26707,-0.74029 -0.48047,-1.03906c-0.21342,-0.30945 -0.47872,-0.55493 -0.79883,-0.73633c-0.30945,-0.18144 -0.66679,-0.27344 -1.07227,-0.27344c-0.40548,0 -0.76477,0.09204 -1.07422,0.27344z" fill="#1eff00" stroke="none" stroke-width="1.00036" stroke-miterlimit="10" stroke-dashoffset="0"/></g></g></svg>