<svg version="1.1" xmlns="http://www.w3.org/2000/svg" xmlns:xlink="http://www.w3.org/1999/xlink" width="372.21489" height="68.64262" viewBox="0,0,372.21489,68.64262"><g transform="translate(-53.89255,-145.67869)"><g data-paper-data="{&quot;isPaintingLayer&quot;:true}" fill-rule="nonzero" stroke-linecap="butt" stroke-linejoin="miter" stroke-dasharray="" style="mix-blend-mode: normal"><path d="M425.00973,146.42869c0.19313,0 0.34772,0.15458 0.34772,0.34772v66.4453c0,0.19313 -0.15458,0.34961 -0.34772,0.34961h-370.01757c-0.19313,0 -0.34961,-0.15647 -0.34961,-0.34961v-66.4453c0,-0.19313 0.15647,-0.34772 0.34961,-0.34772z" fill="#1e1e1e" stroke="#1eff00" stroke-width="1.5" stroke-miterlimit="4" stroke-dashoffset="17.35"/><path d="M124.91992,152.11719c0.23713,0.19404 0.41463,0.45204 0.5332,0.77539l4.0586,10.44531c0.05389,0.14022 0.08008,0.27504 0.08008,0.4043c0,0.09701 -0.0165,0.20554 -0.04883,0.32422c-0.03235,0.11842 -0.08472,0.23679 -0.16016,0.35547c-0.07546,0.10784 -0.1841,0.20005 -0.32422,0.27539c-0.12935,0.07533 -0.29036,0.11132 -0.48437,0.11132c-0.22637,0 -0.43684,-0.06889 -0.63086,-0.20898c-0.19403,-0.14022 -0.3337,-0.32451 -0.41992,-0.55078l-1.06836,-3.07031h-4.65625l-1.03516,3.23242c-0.06468,0.19396 -0.18299,0.34528 -0.35547,0.45312c-0.17246,0.09701 -0.3616,0.14649 -0.5664,0.14649c-0.29103,0 -0.54418,-0.097 -0.75977,-0.29102c-0.2048,-0.19401 -0.30664,-0.43262 -0.30664,-0.71289c0,-0.10784 0.0165,-0.20963 0.04883,-0.30664l3.84766,-10.60742c0.11856,-0.32338 0.2912,-0.58138 0.51757,-0.77539c0.23714,-0.19402 0.52812,-0.29102 0.87305,-0.29102c0.34492,0 0.63105,0.097 0.85742,0.29102zM69.08789,152.05273c0.23714,0 0.43597,0.08043 0.59766,0.24219c0.17247,0.16172 0.25781,0.36056 0.25781,0.59766c0,0.23728 -0.08534,0.44289 -0.25781,0.61523c-0.1617,0.16177 -0.36053,0.24219 -0.59766,0.24219h-3.02344v10.10547c0,0.25869 -0.097,0.48567 -0.29101,0.67969c-0.18324,0.18318 -0.40536,0.27343 -0.66406,0.27343c-0.26949,0 -0.4945,-0.09025 -0.67773,-0.27343c-0.18326,-0.19402 -0.27539,-0.421 -0.27539,-0.67969v-10.10547h-3.02344c-0.23713,0 -0.44276,-0.08042 -0.61523,-0.24219c-0.16169,-0.17252 -0.24219,-0.37813 -0.24219,-0.61523c0,-0.23705 0.0805,-0.43589 0.24219,-0.59766c0.17248,-0.16176 0.37811,-0.24219 0.61523,-0.24219zM72.09766,152.32812c0.19402,0.18324 0.29102,0.40826 0.29102,0.67774c0,0.2587 -0.097,0.48567 -0.29102,0.67969c-0.18324,0.18318 -0.40341,0.27539 -0.66211,0.27539c-0.26948,0 -0.5013,-0.09221 -0.69531,-0.27539c-0.18326,-0.19402 -0.27539,-0.42099 -0.27539,-0.67969c0,-0.26953 0.09213,-0.49455 0.27539,-0.67774c0.19402,-0.18318 0.42583,-0.27539 0.69531,-0.27539c0.25871,0 0.47888,0.09221 0.66211,0.27539zM131.94336,152.32812c0.19402,0.18324 0.29102,0.40826 0.29102,0.67774c0,0.2587 -0.097,0.48567 -0.29102,0.67969c-0.18324,0.18318 -0.40537,0.27539 -0.66406,0.27539c-0.26949,0 -0.5013,-0.09221 -0.69532,-0.27539c-0.18323,-0.19402 -0.27343,-0.42099 -0.27343,-0.67969c0,-0.26953 0.0902,-0.49455 0.27343,-0.67774c0.19403,-0.18318 0.42584,-0.27539 0.69532,-0.27539c0.25871,0 0.48083,0.09221 0.66406,0.27539zM102.86523,153.03906c0.17248,0.16174 0.25782,0.36056 0.25782,0.59766v2.02148h0.89062c0.20481,0 0.37551,0.07564 0.51563,0.22657c0.1509,0.14009 0.22656,0.31272 0.22656,0.51757c0,0.21561 -0.07566,0.39311 -0.22656,0.53321c-0.14013,0.14009 -0.31083,0.21093 -0.51563,0.21093h-0.89062v6.80664c0,0.23703 -0.08534,0.44069 -0.25782,0.61329c-0.16169,0.16176 -0.36248,0.24414 -0.59961,0.24414c-0.23713,0 -0.43596,-0.08238 -0.59765,-0.24414c-0.16169,-0.17253 -0.24219,-0.37618 -0.24219,-0.61329v-6.80664h-0.59766c-0.2048,0 -0.38425,-0.07084 -0.53515,-0.21093c-0.14012,-0.14002 -0.20899,-0.31752 -0.20899,-0.53321c0,-0.20485 0.06887,-0.37748 0.20899,-0.51757c0.15091,-0.15093 0.33036,-0.22657 0.53515,-0.22657h0.59766v-2.02148c0,-0.23708 0.0805,-0.43589 0.24219,-0.59766c0.1617,-0.16176 0.36053,-0.24218 0.59765,-0.24218c0.23714,0 0.43793,0.08042 0.59961,0.24218zM122.33203,159.26367h3.52539l-1.85937,-5.32031zM92.50586,155.60938c0.53895,0.18323 1.00258,0.45288 1.39062,0.80859c0.39882,0.34494 0.71113,0.77073 0.9375,1.27734c0.22637,0.50661 0.33984,1.08372 0.33984,1.73047c0,0.39879 -0.097,0.69945 -0.29102,0.9043c-0.19402,0.20485 -0.42099,0.30859 -0.67969,0.30859h-5.91797c0,0.02142 0.00479,0.11363 0.01562,0.27539c0.02157,0.15081 0.05938,0.33315 0.11328,0.54883c0.06468,0.21556 0.15197,0.44738 0.25977,0.69531c0.11858,0.23711 0.27473,0.45726 0.46875,0.66211c0.19402,0.20483 0.43068,0.37749 0.71094,0.51758c0.29103,0.12926 0.64118,0.19531 1.05078,0.19531c0.33416,0 0.62029,-0.02811 0.85742,-0.08203c0.23715,-0.05392 0.44763,-0.13434 0.63086,-0.24219c0.18325,-0.10771 0.3491,-0.24253 0.5,-0.40429c0.15091,-0.17255 0.30222,-0.37139 0.45312,-0.59766c0.08622,-0.12926 0.18322,-0.22147 0.29102,-0.27539c0.10779,-0.05392 0.22127,-0.08008 0.33984,-0.08008c0.19402,0 0.37151,0.06889 0.5332,0.20899c0.16169,0.14002 0.24219,0.31751 0.24219,0.5332c0,0.12934 -0.06886,0.32334 -0.20898,0.58203c-0.14013,0.2587 -0.3671,0.51865 -0.67969,0.77734c-0.30181,0.25873 -0.69463,0.48372 -1.17969,0.67774c-0.48506,0.19402 -1.07866,0.29102 -1.7793,0.29102c-0.71142,0 -1.34769,-0.12803 -1.9082,-0.38672c-0.56051,-0.2587 -1.03383,-0.60399 -1.42187,-1.03516c-0.37727,-0.44193 -0.66825,-0.95308 -0.87305,-1.53516c-0.19402,-0.58207 -0.29102,-1.19215 -0.29102,-1.82812c0,-0.65751 0.10184,-1.2773 0.30664,-1.85938c0.2048,-0.59285 0.49578,-1.10398 0.87305,-1.53515c0.38805,-0.43115 0.85167,-0.7716 1.39062,-1.01953c0.53895,-0.2587 1.14225,-0.38868 1.81055,-0.38868c0.61441,0 1.18667,0.09221 1.71484,0.2754zM111.30273,155.6582c0.54974,0.21559 1.02305,0.5279 1.42188,0.9375c0.39882,0.4096 0.71113,0.91105 0.9375,1.50391c0.22637,0.59286 0.33984,1.2718 0.33984,2.03711c0,0.7653 -0.11347,1.44425 -0.33984,2.03711c-0.22636,0.59285 -0.53867,1.0943 -0.9375,1.5039c-0.39883,0.39872 -0.87214,0.70619 -1.42188,0.92188c-0.53895,0.21568 -1.12575,0.32227 -1.76171,0.32227c-0.63597,0 -1.22957,-0.10659 -1.7793,-0.32227c-0.53895,-0.21558 -1.00743,-0.52306 -1.40625,-0.92188c-0.39882,-0.4096 -0.71113,-0.91105 -0.9375,-1.5039c-0.22637,-0.59286 -0.33985,-1.27181 -0.33985,-2.03711c0.00001,-0.76531 0.11348,-1.44425 0.33985,-2.03711c0.22636,-0.59286 0.53867,-1.09431 0.9375,-1.50391c0.39882,-0.4095 0.8673,-0.72181 1.40625,-0.9375c0.54973,-0.21568 1.14333,-0.32422 1.7793,-0.32422c0.63596,0 1.22276,0.10854 1.76171,0.32422zM72.03321,155.70703c0.16169,0.16174 0.24219,0.36056 0.24219,0.59766v7.64843c0,0.23703 -0.0805,0.44069 -0.24219,0.61329c-0.1617,0.16176 -0.36053,0.24414 -0.59766,0.24414c-0.23713,0 -0.44276,-0.08238 -0.61523,-0.24414c-0.16169,-0.17253 -0.24219,-0.37618 -0.24219,-0.61329v-7.64843c0,-0.23708 0.0805,-0.43589 0.24219,-0.59766c0.17245,-0.17235 0.37808,-0.25976 0.61523,-0.25976c0.23713,0 0.43597,0.08741 0.59766,0.25976zM75.00391,155.70703c0.16169,0.16174 0.24219,0.36056 0.24219,0.59766v0.35547c0.06465,-0.07559 0.15681,-0.18217 0.27539,-0.32227c0.12935,-0.14019 0.2952,-0.27504 0.5,-0.4043c0.2048,-0.12926 0.44826,-0.24283 0.72852,-0.33984c0.29103,-0.09701 0.62953,-0.14648 1.01758,-0.14648c0.53895,0 1.00258,0.14647 1.39062,0.4375c0.38804,0.28026 0.69067,0.63039 0.90625,1.05078c0.29104,-0.52828 0.65767,-0.90655 1.09961,-1.13282c0.45272,-0.2371 0.98036,-0.35546 1.58398,-0.35546c0.38805,0 0.74499,0.05905 1.06836,0.17773c0.33414,0.10787 0.61832,0.27569 0.85547,0.50195c0.24793,0.22637 0.44191,0.50766 0.58203,0.8418c0.14012,0.33416 0.21094,0.72211 0.21094,1.16406v5.82031c0,0.23703 -0.0805,0.44069 -0.24219,0.61329c-0.16167,0.16176 -0.3605,0.24414 -0.59766,0.24414c-0.23713,0 -0.44276,-0.08238 -0.61523,-0.24414c-0.16169,-0.17253 -0.24219,-0.37618 -0.24219,-0.61329v-5.74023c0,-0.37727 -0.12513,-0.70122 -0.37305,-0.9707c-0.24792,-0.26948 -0.57672,-0.4043 -0.98633,-0.4043c-0.35571,0 -0.66122,0.07084 -0.91992,0.21094c-0.25869,0.12946 -0.47596,0.30693 -0.64844,0.5332c-0.16169,0.22634 -0.28487,0.48434 -0.37109,0.77539c-0.07546,0.29103 -0.11328,0.59366 -0.11328,0.90625v4.68945c0,0.23703 -0.0805,0.44069 -0.24219,0.61329c-0.1617,0.16176 -0.36053,0.24414 -0.59766,0.24414c-0.23713,0 -0.44276,-0.08238 -0.61523,-0.24414c-0.16169,-0.17253 -0.24219,-0.37618 -0.24219,-0.61329v-5.74023c0,-0.37727 -0.11832,-0.70122 -0.35547,-0.9707c-0.23714,-0.26948 -0.57274,-0.4043 -1.00391,-0.4043c-0.35571,0 -0.66122,0.07084 -0.91992,0.21094c-0.25869,0.12946 -0.47596,0.30693 -0.64844,0.5332c-0.16169,0.22634 -0.28487,0.48434 -0.37109,0.77539c-0.07546,0.29103 -0.11328,0.59366 -0.11328,0.90625v4.68945c0,0.23703 -0.0805,0.44069 -0.24219,0.61329c-0.16167,0.16176 -0.3605,0.24414 -0.59766,0.24414c-0.23713,0 -0.44276,-0.08238 -0.61523,-0.24414c-0.16169,-0.17253 -0.24219,-0.37618 -0.24219,-0.61329v-7.64843c0,-0.23708 0.0805,-0.43589 0.24219,-0.59766c0.17247,-0.17235 0.37811,-0.25976 0.61523,-0.25976c0.23714,0 0.43597,0.08741 0.59766,0.25976zM131.87891,155.70703c0.16168,0.16174 0.24218,0.36056 0.24218,0.59766v7.64843c0,0.23703 -0.0805,0.44069 -0.24218,0.61329c-0.1617,0.16176 -0.36249,0.24414 -0.59961,0.24414c-0.23714,0 -0.44081,-0.08238 -0.61328,-0.24414c-0.16169,-0.17253 -0.24414,-0.37618 -0.24414,-0.61329v-7.64843c-0.00001,-0.23708 0.08245,-0.43589 0.24414,-0.59766c0.17245,-0.17235 0.37612,-0.25976 0.61328,-0.25976c0.23713,0 0.43792,0.08741 0.59961,0.25976zM134.8457,155.70703c0.16169,0.16174 0.24414,0.36056 0.24414,0.59766v0.30664c0.04312,-0.04309 0.12361,-0.12855 0.24219,-0.25781c0.11856,-0.12944 0.26308,-0.25942 0.43555,-0.38868c0.18324,-0.14009 0.38402,-0.25846 0.59961,-0.35546c0.22636,-0.10785 0.46302,-0.16211 0.71093,-0.16211c0.23714,0 0.43597,0.08741 0.59766,0.25976c0.17247,0.16174 0.25977,0.36056 0.25977,0.59766c0,0.22647 -0.0873,0.42531 -0.25977,0.59765c-0.1617,0.16177 -0.36053,0.24414 -0.59766,0.24414c-0.4096,0 -0.74325,0.097 -1.00195,0.29102c-0.2587,0.18326 -0.46433,0.40341 -0.61523,0.66211c-0.14012,0.2587 -0.23712,0.52833 -0.29102,0.80859c-0.05389,0.28032 -0.08008,0.51213 -0.08008,0.69532v4.3496c0,0.23703 -0.08245,0.44069 -0.24414,0.61329c-0.16167,0.16176 -0.3605,0.24218 -0.59765,0.24218c-0.23714,0 -0.44277,-0.08042 -0.61524,-0.24218c-0.16169,-0.17253 -0.24219,-0.37618 -0.24219,-0.61329v-7.64843c0.00001,-0.23708 0.0805,-0.43589 0.24219,-0.59766c0.17248,-0.17235 0.37811,-0.25976 0.61524,-0.25976c0.23713,0 0.43596,0.08741 0.59765,0.25976zM89.80469,156.90234c-0.28026,0.11863 -0.51692,0.26995 -0.71094,0.45313c-0.18324,0.17237 -0.32775,0.36634 -0.43555,0.58203c-0.10779,0.21563 -0.19024,0.41448 -0.24414,0.59766c-0.05384,0.18328 -0.08487,0.34623 -0.0957,0.48632c-0.01083,0.12826 -0.01758,0.20389 -0.01758,0.22657h5.24023c0,-0.33414 -0.05432,-0.65327 -0.16211,-0.95508c-0.10778,-0.30191 -0.27558,-0.56475 -0.50195,-0.79102c-0.21558,-0.23717 -0.49491,-0.42631 -0.83984,-0.5664c-0.34493,-0.1401 -0.74939,-0.21094 -1.21289,-0.21094c-0.39883,0 -0.73928,0.05906 -1.01953,0.17773zM108.42383,156.93555c-0.33416,0.12933 -0.62514,0.33497 -0.87305,0.61523c-0.23715,0.26948 -0.42433,0.61961 -0.56445,1.05078c-0.14012,0.43115 -0.21094,0.9423 -0.21094,1.53516c0,0.59286 0.07082,1.10401 0.21094,1.53516c0.14014,0.42038 0.32732,0.77246 0.56445,1.05273c0.24792,0.2695 0.5389,0.47319 0.87305,0.61328c0.34493,0.12926 0.71836,0.19336 1.11719,0.19336c0.39882,0 0.7635,-0.0641 1.09765,-0.19336c0.34494,-0.14012 0.63592,-0.3438 0.87305,-0.61328c0.24793,-0.28027 0.44191,-0.63235 0.58203,-1.05273c0.14012,-0.43115 0.21094,-0.9423 0.21094,-1.53516c0,-0.59286 -0.07082,-1.10401 -0.21094,-1.53516c-0.14013,-0.43117 -0.33412,-0.7813 -0.58203,-1.05078c-0.23714,-0.28034 -0.52812,-0.48597 -0.87305,-0.61523c-0.33415,-0.1401 -0.69883,-0.21094 -1.09765,-0.21094c-0.39883,0 -0.77226,0.07084 -1.11719,0.21094zM91.08789,166.83594c0.57129,0.21558 1.03976,0.48037 1.40625,0.79297c0.36648,0.31259 0.62933,0.6414 0.79101,0.98632c0.17247,0.34497 0.25977,0.63595 0.25977,0.87305c0,0.1725 -0.03782,0.32866 -0.11328,0.46875c-0.06465,0.12926 -0.15681,0.24284 -0.27539,0.33985c-0.10779,0.08617 -0.23097,0.15506 -0.37109,0.20898c-0.14014,0.04309 -0.2798,0.06445 -0.41992,0.06445c-0.18325,0 -0.35105,-0.04273 -0.50195,-0.1289c-0.1509,-0.08625 -0.25954,-0.22591 -0.32422,-0.41993c-0.08622,-0.24796 -0.21425,-0.4633 -0.38672,-0.64648c-0.17245,-0.18316 -0.37808,-0.33445 -0.61523,-0.45312c-0.22636,-0.12926 -0.47466,-0.22147 -0.74414,-0.2754c-0.26948,-0.06475 -0.53232,-0.09765 -0.79102,-0.09765c-0.77609,0 -1.34156,0.13481 -1.69726,0.40429c-0.35571,0.26949 -0.53516,0.63128 -0.53516,1.08399c0,0.33411 0.10379,0.60374 0.30859,0.80859c0.21558,0.19404 0.49491,0.36186 0.83984,0.50196c0.34493,0.12926 0.7329,0.24088 1.16406,0.33789c0.44194,0.08617 0.88907,0.18991 1.3418,0.30859c0.4635,0.10772 0.91063,0.24253 1.3418,0.4043c0.44194,0.16169 0.83671,0.38184 1.18164,0.66211c0.34493,0.26945 0.61942,0.61477 0.82422,1.03515c0.21558,0.40963 0.32227,0.92076 0.32227,1.53516v0.00195c0,0.70063 -0.14451,1.30876 -0.43555,1.82617c-0.28026,0.50661 -0.65853,0.92756 -1.13281,1.26172c-0.47428,0.32328 -1.02325,0.5648 -1.64844,0.72657c-0.61441,0.16176 -1.25553,0.24218 -1.92383,0.24218c-0.82999,0 -1.53707,-0.10658 -2.11914,-0.32226c-0.58207,-0.21559 -1.06023,-0.49009 -1.4375,-0.82422c-0.36648,-0.33416 -0.63612,-0.69595 -0.80859,-1.08399c-0.16169,-0.38805 -0.24219,-0.75953 -0.24219,-1.11523c0,-0.19394 0.03102,-0.37144 0.0957,-0.5332c0.07544,-0.16164 0.1676,-0.29646 0.27539,-0.4043c0.11858,-0.11843 0.24855,-0.21063 0.38867,-0.27539c0.15092,-0.06476 0.29543,-0.09766 0.43555,-0.09766c0.18325,0 0.35105,0.05427 0.50195,0.16211c0.1509,0.09711 0.25274,0.25811 0.30664,0.48438c0.14013,0.57129 0.39812,1.03005 0.77539,1.375c0.38805,0.34492 0.99814,0.51758 1.82812,0.51758c0.80843,0 1.44955,-0.13966 1.92383,-0.41993c0.47428,-0.28024 0.71094,-0.68471 0.71094,-1.21289c0,-0.3558 -0.10184,-0.64678 -0.30664,-0.87304c-0.2048,-0.23706 -0.47929,-0.4359 -0.82422,-0.59766c-0.33415,-0.16164 -0.71728,-0.29645 -1.14844,-0.4043c-0.43116,-0.11842 -0.87345,-0.23874 -1.32617,-0.35742c-0.44194,-0.12926 -0.87743,-0.27378 -1.30859,-0.43555c-0.43116,-0.16166 -0.81913,-0.36729 -1.16406,-0.61523c-0.33415,-0.2587 -0.60379,-0.57101 -0.80859,-0.9375c-0.2048,-0.37727 -0.30859,-0.84088 -0.30859,-1.39063c0.01076,-0.6144 0.13105,-1.15853 0.35742,-1.63281c0.23714,-0.47428 0.55914,-0.87193 0.96875,-1.19531c0.4096,-0.32348 0.89457,-0.57179 1.45508,-0.74414c0.56051,-0.1726 1.17545,-0.25977 1.84375,-0.25977c0.80843,0 1.49902,0.11358 2.07031,0.33985zM67.03321,166.72266c0.4635,0 0.90579,0.08042 1.32617,0.24218c0.43116,0.15091 0.80944,0.36622 1.13281,0.64649c0.32338,0.26948 0.58137,0.59343 0.77539,0.9707c0.19402,0.37725 0.29102,0.78172 0.29102,1.21289c0,0.45274 -0.06402,0.83585 -0.19336,1.14844c-0.11858,0.31254 -0.27473,0.57054 -0.46875,0.77539c-0.19403,0.20488 -0.41615,0.37269 -0.66406,0.50195c-0.24792,0.11868 -0.49623,0.22526 -0.74414,0.32227c0.19402,0.06475 0.42584,0.17329 0.69531,0.32422c0.28026,0.14012 0.5499,0.33896 0.80859,0.59765c0.25871,0.25873 0.48083,0.59236 0.66406,1.00196c0.18326,0.39881 0.27344,0.89058 0.27344,1.47265c0,0.52818 -0.10668,1.00633 -0.32227,1.4375c-0.21558,0.43115 -0.50171,0.8046 -0.85742,1.11719c-0.35571,0.31247 -0.76986,0.55396 -1.24414,0.72656c-0.4635,0.17235 -0.95526,0.25977 -1.47266,0.25977l-4.94726,-0.00195c-0.15091,0 -0.30222,-0.02137 -0.45313,-0.06446c-0.15089,-0.05392 -0.29056,-0.12955 -0.41992,-0.22656c-0.11858,-0.10772 -0.21558,-0.24253 -0.29102,-0.4043c-0.07546,-0.16179 -0.11328,-0.35576 -0.11328,-0.58203v-10.21875c0,-0.09701 0.0165,-0.21537 0.04883,-0.35547c0.03235,-0.151 0.09151,-0.29066 0.17773,-0.41992c0.09701,-0.14009 0.22698,-0.25367 0.38867,-0.33984c0.17246,-0.09701 0.38779,-0.14453 0.64648,-0.14453zM106.21484,167.0625c0.23713,0.22637 0.35547,0.50084 0.35547,0.82422c0,0.32345 -0.11834,0.59795 -0.35547,0.82422c-0.22636,0.22627 -0.5028,0.33984 -0.82617,0.33984c-0.3126,0 -0.58709,-0.11357 -0.82422,-0.33984c-0.22637,-0.22637 -0.33984,-0.50087 -0.33984,-0.82422c0,-0.32348 0.11347,-0.59795 0.33984,-0.82422c0.23714,-0.22627 0.51163,-0.33984 0.82422,-0.33984c0.32337,0 0.59981,0.11357 0.82617,0.33984zM63.28321,171.81641h3.31445c0.20481,0 0.3988,-0.03795 0.58203,-0.11329c0.18326,-0.07559 0.33941,-0.17933 0.46875,-0.30859c0.14012,-0.14019 0.2468,-0.30119 0.32226,-0.48437c0.07546,-0.18321 0.11328,-0.37718 0.11328,-0.58204c0,-0.20485 -0.03782,-0.39885 -0.11328,-0.58203c-0.07546,-0.18333 -0.18215,-0.33949 -0.32226,-0.46875c-0.12934,-0.14009 -0.28549,-0.24862 -0.46875,-0.32422c-0.18325,-0.07533 -0.37723,-0.11328 -0.58203,-0.11328h-3.31445zM78.99805,170.44141c0.2587,0.21558 0.38867,0.50655 0.38867,0.87304c0,0.10785 -0.0165,0.20964 -0.04883,0.30664l-2.97461,9.28125c-0.1509,0.45272 -0.34004,0.80771 -0.56641,1.06641c-0.21558,0.25872 -0.45224,0.45951 -0.71094,0.59961c-0.2587,0.14009 -0.53319,0.22556 -0.82422,0.25781c-0.28025,0.04309 -0.54989,0.06445 -0.80859,0.06445h-0.8418c-0.2048,0 -0.38714,-0.03794 -0.54883,-0.11328c-0.1509,-0.07559 -0.28572,-0.17259 -0.4043,-0.29101c-0.10779,-0.11855 -0.19508,-0.25337 -0.25976,-0.4043c-0.0539,-0.14012 -0.08008,-0.28462 -0.08008,-0.43555c0,-0.21555 0.06402,-0.39985 0.19336,-0.55078c0.14013,-0.15093 0.3574,-0.22656 0.64844,-0.22656c0.28026,0 0.5431,-0.00555 0.79102,-0.01562c0.2587,-0.01059 0.48567,-0.04853 0.67969,-0.11329c0.19402,-0.06475 0.34533,-0.16654 0.45312,-0.30664c0.11858,-0.12933 0.17773,-0.31847 0.17773,-0.5664c0,-0.15098 -0.02134,-0.31877 -0.06445,-0.50196c-0.04311,-0.1832 -0.11393,-0.39854 -0.21094,-0.64648l-2.69922,-6.85547c-0.06468,-0.16176 -0.09766,-0.3344 -0.09766,-0.51758c0,-0.12936 0.02134,-0.2642 0.06445,-0.40429c0.04311,-0.14002 0.10714,-0.26805 0.19336,-0.38672c0.09701,-0.11843 0.22214,-0.21543 0.37305,-0.29102c0.16168,-0.08617 0.35566,-0.1289 0.58203,-0.1289c0.23714,0 0.45731,0.0641 0.66211,0.19335c0.20479,0.11863 0.34446,0.29611 0.41992,0.53321l1.99023,6.14453l1.55078,-6.12891c0.06467,-0.24798 0.1995,-0.43519 0.4043,-0.56445c0.21559,-0.12926 0.4474,-0.19531 0.69531,-0.19531c0.32337,0 0.61435,0.10853 0.87305,0.32422zM101.09961,170.53906c0.52817,0.26948 0.95882,0.60798 1.29297,1.01758c0.34493,0.4096 0.59808,0.85189 0.75976,1.32617c0.16169,0.47428 0.24219,0.91173 0.24219,1.31055c0,0.37725 -0.07082,0.68956 -0.21094,0.9375c-0.14012,0.24794 -0.3438,0.37109 -0.61328,0.37109h-5.17383c-0.11855,0 -0.21071,0.04274 -0.27539,0.12891c-0.0539,0.07559 -0.08008,0.17933 -0.08008,0.30859c0,0.16159 0.04752,0.34877 0.14453,0.56446c0.09702,0.2048 0.24348,0.40559 0.4375,0.59961c0.19402,0.19411 0.43068,0.35511 0.71094,0.48437c0.29104,0.12926 0.62469,0.19336 1.00195,0.19336c0.22635,0 0.42714,-0.02137 0.59961,-0.06445c0.17246,-0.05392 0.33347,-0.12956 0.48437,-0.22657c0.15092,-0.097 0.29543,-0.22016 0.43555,-0.37109c0.15092,-0.16159 0.31872,-0.35072 0.50195,-0.56641c0.16169,-0.19401 0.34403,-0.29101 0.54883,-0.29101c0.12936,0 0.25934,0.0329 0.38867,0.09766c0.12936,0.0645 0.24284,0.14996 0.33985,0.25781c0.097,0.10784 0.1775,0.23295 0.24218,0.37304c0.06468,0.12937 0.09766,0.26421 0.09766,0.4043c0,0.14015 -0.07566,0.33896 -0.22656,0.59766c-0.14013,0.24791 -0.3603,0.50107 -0.66211,0.75976c-0.30182,0.24794 -0.68009,0.4681 -1.13282,0.66211c-0.45271,0.18318 -0.992,0.27539 -1.61718,0.27539c-0.71142,0 -1.34769,-0.12997 -1.9082,-0.38867c-0.56051,-0.25869 -1.03383,-0.60203 -1.42187,-1.0332c-0.37727,-0.44193 -0.66825,-0.94824 -0.87305,-1.51953c-0.19401,-0.58208 -0.29101,-1.197 -0.29101,-1.84375c0,-0.64676 0.08534,-1.25684 0.25781,-1.82813c0.18324,-0.58205 0.45968,-1.08836 0.82617,-1.51953c0.36649,-0.44195 0.82331,-0.79208 1.37305,-1.05078c0.54973,-0.2587 1.19765,-0.38867 1.94141,-0.38867c0.7222,0 1.34198,0.14161 1.85938,0.42187zM109.72266,170.47461c0.22636,0.22634 0.33984,0.49405 0.33984,0.80664c0.09703,-0.10784 0.21535,-0.231 0.35547,-0.37109c0.1509,-0.1401 0.3119,-0.26325 0.48437,-0.3711c0.18326,-0.11842 0.37239,-0.21542 0.56641,-0.29101c0.19403,-0.08618 0.38802,-0.13086 0.58203,-0.13086c0.43117,0 0.72214,0.11357 0.87305,0.33984c0.16169,0.22634 0.24219,0.49114 0.24219,0.79297c0,0.24799 -0.05916,0.43715 -0.17774,0.56641c-0.10778,0.11842 -0.24745,0.20868 -0.41992,0.27343c-0.16169,0.06476 -0.33919,0.11903 -0.5332,0.16211c-0.19402,0.03226 -0.37831,0.08173 -0.55078,0.14649c-0.3126,0.11857 -0.56575,0.27473 -0.75977,0.46875c-0.18325,0.18313 -0.32291,0.38197 -0.41992,0.59765c-0.09704,0.2047 -0.16299,0.41518 -0.19531,0.63086c-0.03233,0.21566 -0.04688,0.41448 -0.04688,0.59766v3.62305c0,0.32345 -0.12029,0.59795 -0.35742,0.82421c-0.22636,0.22627 -0.50085,0.33985 -0.82422,0.33985c-0.31261,0 -0.58709,-0.11358 -0.82422,-0.33985c-0.22637,-0.23712 -0.33984,-0.51162 -0.33984,-0.82421v-7.03516c0,-0.31267 0.11347,-0.58037 0.33984,-0.80664c0.23714,-0.2371 0.51842,-0.35742 0.8418,-0.35742c0.32336,0 0.59785,0.12032 0.82422,0.35742zM121.39062,170.44141c0.2587,0.21558 0.38868,0.50655 0.38868,0.87304c0,0.10785 -0.0165,0.20964 -0.04883,0.30664l-2.97461,9.28125c-0.1509,0.45272 -0.34004,0.80771 -0.56641,1.06641c-0.21558,0.25872 -0.45224,0.45951 -0.71093,0.59961c-0.2587,0.14009 -0.53514,0.22556 -0.82618,0.25781c-0.28025,0.04309 -0.54794,0.06445 -0.80664,0.06445h-0.84179c-0.2048,0 -0.38714,-0.03794 -0.54883,-0.11328c-0.1509,-0.07559 -0.28572,-0.17259 -0.4043,-0.29101c-0.10779,-0.11855 -0.19508,-0.25337 -0.25976,-0.4043c-0.0539,-0.14012 -0.08008,-0.28462 -0.08008,-0.43555c0,-0.21555 0.06402,-0.39985 0.19336,-0.55078c0.14012,-0.15093 0.35545,-0.22656 0.64648,-0.22656c0.28026,0 0.54506,-0.00555 0.79297,-0.01562c0.2587,-0.01059 0.48567,-0.04853 0.67969,-0.11329c0.19402,-0.06475 0.34338,-0.16654 0.45117,-0.30664c0.11858,-0.12933 0.17773,-0.31847 0.17773,-0.5664c0,-0.15098 -0.02134,-0.31877 -0.06445,-0.50196c-0.04311,-0.1832 -0.11198,-0.39854 -0.20898,-0.64648l-2.70118,-6.85547c-0.06468,-0.16176 -0.0957,-0.3344 -0.0957,-0.51758c0,-0.12936 0.02134,-0.2642 0.06445,-0.40429c0.04314,-0.14002 0.10714,-0.26805 0.19336,-0.38672c0.09701,-0.11843 0.22019,-0.21543 0.3711,-0.29102c0.16168,-0.08617 0.35566,-0.1289 0.58203,-0.1289c0.23714,0 0.45926,0.0641 0.66406,0.19335c0.20479,0.11863 0.34446,0.29611 0.41992,0.53321l1.98828,6.14453l1.55274,-6.12891c0.06467,-0.24798 0.1995,-0.43519 0.4043,-0.56445c0.21558,-0.12926 0.4474,-0.19531 0.69531,-0.19531c0.32337,0 0.61435,0.10853 0.87304,0.32422zM124.62695,170.47461c0.22637,0.22634 0.33985,0.49405 0.33985,0.80664v4.56055c0,0.2371 0.04268,0.45726 0.1289,0.66211c0.09701,0.20472 0.22215,0.38901 0.37305,0.55078c0.15091,0.15093 0.3284,0.26929 0.5332,0.35547c0.21557,0.08617 0.43574,0.1289 0.66211,0.1289c0.23715,0 0.45927,-0.04273 0.66406,-0.1289c0.20481,-0.08618 0.3823,-0.20454 0.53321,-0.35547c0.15093,-0.16164 0.26924,-0.34593 0.35547,-0.55078c0.097,-0.20485 0.14648,-0.42501 0.14648,-0.66211v-4.56055c0,-0.31267 0.11152,-0.58037 0.33789,-0.80664c0.23714,-0.2371 0.51843,-0.35742 0.8418,-0.35742c0.32336,0 0.59785,0.12032 0.82422,0.35742c0.22637,0.22634 0.33984,0.49405 0.33984,0.80664v7.0332c0,0.31262 -0.11347,0.58907 -0.33984,0.82617c-0.22636,0.22627 -0.50085,0.3379 -0.82422,0.3379c-0.32337,0 -0.59785,-0.11163 -0.82422,-0.3379c-0.22637,-0.23712 -0.33984,-0.51357 -0.33984,-0.82617c-0.09701,0.1186 -0.22699,0.24858 -0.38868,0.38867c-0.16167,0.12926 -0.35566,0.25437 -0.58203,0.37305c-0.22636,0.10784 -0.48435,0.20484 -0.77539,0.29102c-0.29103,0.07534 -0.61984,0.11133 -0.98633,0.11133c-0.4096,0 -0.79757,-0.0641 -1.16406,-0.19336c-0.36649,-0.1401 -0.69044,-0.3341 -0.9707,-0.58204c-0.26947,-0.25869 -0.4848,-0.55935 -0.64649,-0.90429c-0.16168,-0.35571 -0.24218,-0.75047 -0.24218,-1.18164v-5.33594c0,-0.31267 0.11347,-0.58037 0.33984,-0.80664c0.23714,-0.2371 0.51647,-0.35742 0.83984,-0.35742c0.32337,0 0.59785,0.12032 0.82422,0.35742zM106.21484,170.68359c0.23713,0.22637 0.35547,0.50087 0.35547,0.82422v6.80664c0,0.32346 -0.11834,0.59991 -0.35547,0.82617c-0.22636,0.22627 -0.5028,0.3379 -0.82617,0.3379c-0.32336,0 -0.59785,-0.11163 -0.82422,-0.3379c-0.22637,-0.23712 -0.33984,-0.51357 -0.33984,-0.82617v-6.80664c0,-0.32345 0.11347,-0.59795 0.33984,-0.82422c0.23714,-0.2371 0.51163,-0.35547 0.82422,-0.35547c0.32337,0 0.59981,0.11837 0.82617,0.35547zM98.30078,172.20312c-0.25869,0.1079 -0.47401,0.24953 -0.64648,0.42188c-0.16169,0.16176 -0.28487,0.33244 -0.37109,0.51562c-0.08622,0.18326 -0.12891,0.34624 -0.12891,0.48633c0,0.21569 0.0805,0.32227 0.24219,0.32227h3.68555c0.14012,0 0.21094,-0.10179 0.21094,-0.30664c0,-0.1402 -0.04268,-0.3012 -0.12891,-0.48438c-0.07544,-0.18315 -0.20057,-0.35581 -0.37304,-0.51758c-0.16169,-0.17234 -0.37217,-0.31882 -0.63086,-0.4375c-0.2587,-0.11867 -0.56422,-0.17773 -0.91993,-0.17773c-0.35571,0 -0.66997,0.05906 -0.93945,0.17773zM63.28321,177.3457h3.37891c0.24792,0 0.47973,-0.04947 0.69531,-0.14648c0.22636,-0.09693 0.42034,-0.22496 0.58203,-0.38672c0.16169,-0.16159 0.29166,-0.35072 0.38867,-0.56641c0.09701,-0.21556 0.14453,-0.44737 0.14453,-0.69531c0,-0.24781 -0.04752,-0.47963 -0.14453,-0.69531c-0.09701,-0.22629 -0.22698,-0.42027 -0.38867,-0.58203c-0.16168,-0.16169 -0.35566,-0.29167 -0.58203,-0.38867c-0.21559,-0.09701 -0.4474,-0.14454 -0.69531,-0.14454h-3.37891z" fill="#1eff00" stroke="none" stroke-width="1.01053" stroke-miterlimit="10" stroke-dashoffset="0"/></g></g></svg>