<svg version="1.1" xmlns="http://www.w3.org/2000/svg" xmlns:xlink="http://www.w3.org/1999/xlink" width="372.21489" height="68.64262" viewBox="0,0,372.21489,68.64262"><g transform="translate(-53.89255,-145.67869)"><g data-paper-data="{&quot;isPaintingLayer&quot;:true}" fill-rule="nonzero" stroke-linecap="butt" stroke-linejoin="miter" stroke-dasharray="" style="mix-blend-mode: normal"><path d="M425.00973,146.42869c0.19313,0 0.34772,0.15458 0.34772,0.34772v66.4453c0,0.19313 -0.15458,0.34961 -0.34772,0.34961h-370.01757c-0.19313,0 -0.34961,-0.15647 -0.34961,-0.34961v-66.4453c0,-0.19313 0.15647,-0.34772 0.34961,-0.34772z" fill="#1e1e1e" stroke="#1eff00" stroke-width="1.5" stroke-miterlimit="4" stroke-dashoffset="17.35"/><path d="M208.24023,151.92188c0.12937,0.05392 0.24284,0.12955 0.33985,0.22656c0.09701,0.09701 0.17266,0.21058 0.22656,0.33984c0.06468,0.11868 0.09766,0.24184 0.09766,0.3711c0,0.19399 -0.07566,0.36664 -0.22657,0.51757c-0.74375,0.7222 -1.3422,1.55246 -1.79492,2.49024c-0.45272,0.92701 -0.67969,2.00073 -0.67969,3.21875c0,1.21804 0.22697,2.29464 0.67969,3.23242c0.45272,0.93778 1.05117,1.76318 1.79492,2.47461c0.15091,0.1509 0.22657,0.32356 0.22657,0.51758c0,0.25859 -0.10864,0.49525 -0.32422,0.71093c-0.2048,0.21569 -0.44146,0.32227 -0.71094,0.32227c-0.22637,0 -0.432,-0.097 -0.61523,-0.29102c-0.47428,-0.50663 -0.89523,-1.01292 -1.26172,-1.51953c-0.3665,-0.51739 -0.67201,-1.05668 -0.91992,-1.61718c-0.24793,-0.56053 -0.44192,-1.15216 -0.58204,-1.77735c-0.12933,-0.62518 -0.19531,-1.30897 -0.19531,-2.05273c0,-0.73298 0.06598,-1.41388 0.19531,-2.03906c0.12936,-0.63595 0.31655,-1.23244 0.56446,-1.79297c0.2587,-0.56051 0.57101,-1.09496 0.9375,-1.60157c0.36649,-0.51739 0.78744,-1.02852 1.26172,-1.53515c0.18323,-0.19402 0.38886,-0.29102 0.61523,-0.29102c0.12934,0 0.25252,0.03095 0.37109,0.09571zM256.16797,152.11719c0.47428,0.50663 0.89523,1.01776 1.26172,1.53515c0.36649,0.50661 0.67396,1.04106 0.92187,1.60157c0.25869,0.56053 0.45267,1.15897 0.58203,1.79492c0.12936,0.62518 0.19336,1.30413 0.19336,2.03711c0,0.74376 -0.07081,1.42755 -0.21093,2.05273c-0.12936,0.62519 -0.31655,1.21877 -0.56446,1.7793c-0.24792,0.5605 -0.56218,1.09979 -0.93945,1.61719c-0.36649,0.5066 -0.78064,1.01289 -1.24414,1.51953c-0.18324,0.19401 -0.38887,0.29101 -0.61524,0.29101c-0.12933,0 -0.25735,-0.0329 -0.38671,-0.09765c-0.11858,-0.05392 -0.22722,-0.12956 -0.32422,-0.22657c-0.09701,-0.097 -0.17267,-0.20554 -0.22657,-0.32421c-0.05389,-0.11868 -0.08007,-0.24184 -0.08007,-0.3711c0,-0.20477 0.07565,-0.38227 0.22656,-0.5332c0.73298,-0.71143 1.32462,-1.53488 1.77734,-2.47266c0.45272,-0.93777 0.67969,-2.01633 0.67969,-3.23437c0,-1.21802 -0.22697,-2.2966 -0.67969,-3.23438c-0.44194,-0.93777 -1.03359,-1.76122 -1.77734,-2.47265c-0.15091,-0.15086 -0.22656,-0.33031 -0.22656,-0.53516c0,-0.12926 0.02618,-0.25242 0.08007,-0.37109c0.0539,-0.11868 0.12956,-0.22721 0.22657,-0.32422c0.097,-0.09701 0.20564,-0.17264 0.32422,-0.22656c0.12936,-0.06476 0.25738,-0.09571 0.38671,-0.09571c0.21559,0 0.42122,0.097 0.61524,0.29102zM69.08789,152.71484c0.23714,0 0.43597,0.08043 0.59766,0.24219c0.17247,0.16171 0.25781,0.36056 0.25781,0.59766c0,0.237 -0.08534,0.44263 -0.25781,0.61523c-0.1617,0.16177 -0.36053,0.24219 -0.59766,0.24219h-3.02344v10.10547c0,0.25872 -0.097,0.48567 -0.29101,0.67969c-0.18324,0.18318 -0.40536,0.27343 -0.66406,0.27343c-0.26949,0 -0.4945,-0.09025 -0.67773,-0.27343c-0.18326,-0.19405 -0.27539,-0.421 -0.27539,-0.67969v-10.10547h-3.02344c-0.23713,0 -0.44276,-0.08042 -0.61523,-0.24219c-0.16169,-0.1725 -0.24219,-0.37813 -0.24219,-0.61523c0,-0.23705 0.0805,-0.43589 0.24219,-0.59766c0.17248,-0.16176 0.37811,-0.24219 0.61523,-0.24219zM144.63281,152.71484c0.50662,0 0.98189,0.097 1.42383,0.29102c0.44194,0.18323 0.82991,0.44123 1.16406,0.77539c0.33414,0.33416 0.59214,0.72213 0.77539,1.16406c0.19402,0.44196 0.29102,0.91722 0.29102,1.42383c0,0.50661 -0.097,0.97992 -0.29102,1.42188c-0.18324,0.44195 -0.44124,0.82992 -0.77539,1.16406c-0.33415,0.33416 -0.72212,0.59895 -1.16406,0.79297c-0.44194,0.18318 -0.91721,0.27539 -1.42383,0.27539h-4.00976v4.49414c0,0.25872 -0.09216,0.48567 -0.27539,0.67969c-0.18325,0.18318 -0.40826,0.27539 -0.67774,0.27539c-0.2587,0 -0.48567,-0.09221 -0.67969,-0.27539c-0.18323,-0.19405 -0.27539,-0.421 -0.27539,-0.67969v-10.54102c0,-0.34492 0.12514,-0.64269 0.37305,-0.89062c0.24792,-0.24794 0.54859,-0.3711 0.9043,-0.3711zM167.10352,152.71484c0.23713,0 0.43596,0.08043 0.59765,0.24219c0.17247,0.16171 0.25977,0.36056 0.25977,0.59766c0,0.237 -0.0873,0.44263 -0.25977,0.61523c-0.1617,0.16177 -0.36053,0.24219 -0.59765,0.24219h-0.29102c-0.06468,0 -0.15002,0.02137 -0.25781,0.06445c-0.09701,0.04309 -0.14649,0.15667 -0.14649,0.33985v1.5039h0.8086c0.20481,0 0.37746,0.07564 0.51758,0.22657c0.1509,0.14006 0.22656,0.31272 0.22656,0.51757c0,0.21561 -0.07566,0.39311 -0.22656,0.53321c-0.14013,0.14009 -0.31278,0.20898 -0.51758,0.20898h-0.8086v6.80859c0,0.23726 -0.08534,0.44094 -0.25781,0.61329c-0.16167,0.16176 -0.36246,0.24218 -0.59961,0.24218c-0.23714,0 -0.43597,-0.08042 -0.59766,-0.24218c-0.16168,-0.1725 -0.24218,-0.37618 -0.24218,-0.61329v-6.80859h-0.59766c-0.2048,0 -0.38425,-0.06889 -0.53516,-0.20898c-0.14011,-0.14002 -0.20898,-0.31752 -0.20898,-0.53321c0,-0.20482 0.06887,-0.37748 0.20898,-0.51757c0.15091,-0.15093 0.33036,-0.22657 0.53516,-0.22657h0.59766v-1.5039c0,-0.24792 0.04268,-0.49621 0.1289,-0.74414c0.09701,-0.24787 0.23183,-0.47289 0.4043,-0.67774c0.18324,-0.2047 0.40341,-0.36765 0.66211,-0.48633c0.2587,-0.12926 0.56132,-0.19336 0.90625,-0.19336zM216.50977,152.71484c0.50661,0 0.97993,0.097 1.42187,0.29102c0.45272,0.19402 0.84069,0.45881 1.16406,0.79297c0.33416,0.32337 0.59896,0.71135 0.79297,1.16406c0.19402,0.44195 0.29102,0.91043 0.29102,1.40625c0,0.29105 -0.05432,0.58686 -0.16211,0.88867c-0.09702,0.30181 -0.24833,0.58794 -0.45313,0.85742c-0.2048,0.2587 -0.46279,0.48568 -0.77539,0.67969c-0.30181,0.19389 -0.6636,0.32871 -1.08398,0.4043c0.26948,0.06475 0.50809,0.16654 0.71289,0.30664c0.20481,0.14025 0.37746,0.2964 0.51758,0.46875c0.1509,0.17247 0.26242,0.35481 0.33789,0.54883c0.08612,0.18318 0.14044,0.35581 0.16211,0.51758l0.35547,3.39648c0.02156,0.2586 -0.05409,0.49525 -0.22657,0.71094c-0.17246,0.21568 -0.40912,0.32422 -0.71093,0.32422c-0.26949,0 -0.49646,-0.08238 -0.67969,-0.24414c-0.18313,-0.16169 -0.28497,-0.37021 -0.30664,-0.62891l-0.24219,-2.76563c-0.03235,-0.33423 -0.11769,-0.61357 -0.25781,-0.83984c-0.12935,-0.23718 -0.302,-0.42631 -0.51758,-0.56641c-0.2048,-0.14009 -0.43661,-0.24383 -0.69531,-0.30859c-0.2587,-0.06476 -0.52834,-0.0957 -0.8086,-0.0957h-3.60547v4.49414c0,0.25872 -0.09213,0.48567 -0.27539,0.67969c-0.18324,0.18318 -0.41021,0.27343 -0.67968,0.27343c-0.25871,0 -0.48372,-0.09025 -0.67774,-0.27343c-0.18323,-0.19405 -0.27539,-0.421 -0.27539,-0.67969v-10.54102c0,-0.34492 0.12318,-0.64269 0.37109,-0.89062c0.24792,-0.24794 0.55055,-0.3711 0.90626,-0.3711zM245.34375,152.99023c0.19402,0.18326 0.29102,0.40826 0.29102,0.67774c0,0.25869 -0.097,0.48567 -0.29102,0.67969c-0.18324,0.18318 -0.40341,0.27539 -0.66211,0.27539c-0.26948,0 -0.5013,-0.09221 -0.69531,-0.27539c-0.18326,-0.19402 -0.27539,-0.421 -0.27539,-0.67969c0,-0.26956 0.09213,-0.49455 0.27539,-0.67774c0.19402,-0.18318 0.42583,-0.27539 0.69531,-0.27539c0.25868,0 0.47885,0.09221 0.66211,0.27539zM140.62305,158.32617h3.79883c0.26948,0 0.52263,-0.04947 0.75976,-0.14648c0.23713,-0.10792 0.44276,-0.24758 0.61524,-0.41992c0.18324,-0.18329 0.32291,-0.39376 0.41992,-0.63086c0.10779,-0.23713 0.16211,-0.49029 0.16211,-0.75977c0,-0.2695 -0.05432,-0.52266 -0.16211,-0.75976c-0.09703,-0.23726 -0.23669,-0.44289 -0.41992,-0.61524c-0.17248,-0.18326 -0.37811,-0.32291 -0.61524,-0.41992c-0.23714,-0.10784 -0.49029,-0.16211 -0.75976,-0.16211h-3.79883zM211.74023,158.32617h4.5586c0.26946,0 0.52261,-0.04947 0.75976,-0.14648c0.23713,-0.10792 0.44277,-0.24758 0.61524,-0.41992c0.18325,-0.18329 0.32291,-0.39376 0.41992,-0.63086c0.10779,-0.23713 0.16211,-0.49029 0.16211,-0.75977c0,-0.2695 -0.05432,-0.52266 -0.16211,-0.75976c-0.09703,-0.23726 -0.23669,-0.44289 -0.41992,-0.61524c-0.17248,-0.18326 -0.37811,-0.32291 -0.61524,-0.41992c-0.23714,-0.10784 -0.49029,-0.16211 -0.75976,-0.16211h-4.5586zM74.86524,156.32031c0.54973,0.21559 1.025,0.5279 1.42383,0.9375c0.39882,0.4096 0.71113,0.91105 0.9375,1.50391c0.22637,0.59283 0.33984,1.27178 0.33984,2.03711c0,0.7653 -0.11347,1.44425 -0.33984,2.03711c-0.22636,0.59283 -0.53867,1.09428 -0.9375,1.5039c-0.39882,0.39872 -0.87409,0.70619 -1.42383,0.92188c-0.53895,0.21568 -1.12575,0.32226 -1.76172,0.32226c-0.63596,0 -1.22761,-0.10658 -1.77734,-0.32226c-0.53895,-0.21559 -1.00938,-0.52306 -1.4082,-0.92188c-0.39882,-0.40962 -0.71113,-0.91107 -0.9375,-1.5039c-0.22637,-0.59286 -0.33984,-1.27181 -0.33984,-2.03711c0,-0.76533 0.11347,-1.44428 0.33984,-2.03711c0.22636,-0.59286 0.53867,-1.09431 0.9375,-1.50391c0.39883,-0.4095 0.86925,-0.72181 1.4082,-0.9375c0.54973,-0.21568 1.14138,-0.32422 1.77734,-0.32422c0.63597,0 1.22276,0.10854 1.76172,0.32422zM97.59375,156.32031c0.54973,0.21559 1.02305,0.5279 1.42187,0.9375c0.39882,0.4096 0.71113,0.91105 0.9375,1.50391c0.22636,0.59283 0.33984,1.27178 0.33984,2.03711c0,0.7653 -0.11348,1.44425 -0.33984,2.03711c-0.22636,0.59283 -0.53867,1.09428 -0.9375,1.5039c-0.39883,0.39872 -0.87214,0.70619 -1.42187,0.92188c-0.53895,0.21568 -1.12771,0.32226 -1.76367,0.32226c-0.63597,0 -1.22761,-0.10658 -1.77734,-0.32226c-0.53895,-0.21559 -1.00938,-0.52306 -1.4082,-0.92188c-0.39882,-0.40962 -0.71113,-0.91107 -0.9375,-1.5039c-0.22637,-0.59286 -0.33984,-1.27181 -0.33984,-2.03711c0,-0.76533 0.11347,-1.44428 0.33984,-2.03711c0.22636,-0.59286 0.53867,-1.09431 0.9375,-1.50391c0.39883,-0.4095 0.86925,-0.72181 1.4082,-0.9375c0.54973,-0.21568 1.14138,-0.32422 1.77734,-0.32422c0.63596,0 1.22472,0.10854 1.76367,0.32422zM117.57031,156.32031c0.54973,0.21559 1.02305,0.5279 1.42188,0.9375c0.39882,0.4096 0.71113,0.91105 0.9375,1.50391c0.22637,0.59283 0.33984,1.27178 0.33984,2.03711c0,0.7653 -0.11347,1.44425 -0.33984,2.03711c-0.22636,0.59283 -0.53868,1.09428 -0.9375,1.5039c-0.39883,0.39872 -0.87215,0.70619 -1.42188,0.92188c-0.53895,0.21568 -1.12771,0.32226 -1.76367,0.32226c-0.63596,0 -1.22761,-0.10658 -1.77734,-0.32226c-0.53896,-0.21559 -1.00743,-0.52306 -1.40625,-0.92188c-0.39882,-0.40962 -0.71309,-0.91107 -0.93946,-1.5039c-0.22636,-0.59286 -0.33789,-1.27181 -0.33789,-2.03711c0,-0.76533 0.11153,-1.44428 0.33789,-2.03711c0.22636,-0.59286 0.54063,-1.09431 0.93946,-1.50391c0.39882,-0.4095 0.86729,-0.72181 1.40625,-0.9375c0.54973,-0.21568 1.14138,-0.32422 1.77734,-0.32422c0.63596,0 1.22472,0.10854 1.76367,0.32422zM154.64062,156.27148c0.53896,0.18326 1.00259,0.45289 1.39063,0.8086c0.39882,0.34492 0.71113,0.77071 0.9375,1.27734c0.22637,0.50661 0.33984,1.08372 0.33984,1.73047c0,0.39877 -0.097,0.69945 -0.29101,0.9043c-0.19403,0.20485 -0.42099,0.30859 -0.67969,0.30859h-5.91797c0,0.02142 0.00675,0.11363 0.01758,0.27539c0.02157,0.15081 0.05939,0.33314 0.11328,0.54883c0.06468,0.21556 0.15002,0.44738 0.25781,0.69531c0.11858,0.23708 0.27474,0.45726 0.46875,0.66211c0.19403,0.20485 0.43068,0.37749 0.71094,0.51758c0.29103,0.12926 0.64313,0.19531 1.05274,0.19531c0.33416,0 0.61834,-0.02811 0.85546,-0.08203c0.23713,-0.05392 0.44761,-0.13434 0.63086,-0.24219c0.18325,-0.10771 0.35105,-0.24253 0.50196,-0.40429c0.15091,-0.17258 0.30222,-0.37139 0.45312,-0.59766c0.08623,-0.12926 0.18323,-0.22147 0.29102,-0.27539c0.10779,-0.05392 0.21931,-0.08008 0.33789,-0.08008c0.19402,0 0.37347,0.06889 0.53515,0.20899c0.16169,0.14002 0.24219,0.31751 0.24219,0.5332c0,0.12936 -0.07082,0.32333 -0.21094,0.58203c-0.14012,0.2587 -0.36514,0.51865 -0.67773,0.77734c-0.30182,0.2587 -0.69658,0.48372 -1.18164,0.67774c-0.48506,0.19401 -1.07671,0.29101 -1.77734,0.29101c-0.71142,0 -1.3477,-0.12802 -1.90821,-0.38671c-0.56051,-0.2587 -1.03578,-0.60399 -1.42383,-1.03516c-0.37727,-0.44195 -0.66824,-0.95504 -0.87304,-1.53711c-0.19402,-0.58207 -0.29102,-1.19023 -0.29102,-1.82617c0,-0.65754 0.1038,-1.2773 0.3086,-1.85938c0.2048,-0.59283 0.49578,-1.10398 0.87304,-1.53515c0.38805,-0.43115 0.84972,-0.7716 1.38867,-1.01953c0.53896,-0.2587 1.1442,-0.38868 1.8125,-0.38868c0.61441,0 1.18472,0.09221 1.71289,0.27539zM196.7168,156.27148c0.53895,0.18326 1.00258,0.45289 1.39062,0.8086c0.39882,0.34492 0.71113,0.77071 0.9375,1.27734c0.22637,0.50661 0.33985,1.08372 0.33985,1.73047c0,0.39877 -0.097,0.69945 -0.29102,0.9043c-0.19402,0.20485 -0.42099,0.30859 -0.67969,0.30859h-5.91797c0,0.02142 0.00675,0.11363 0.01758,0.27539c0.02157,0.15081 0.05939,0.33314 0.11328,0.54883c0.06468,0.21556 0.15002,0.44738 0.25782,0.69531c0.11857,0.23708 0.27473,0.45726 0.46875,0.66211c0.19402,0.20485 0.43263,0.37749 0.71289,0.51758c0.29103,0.12926 0.64117,0.19531 1.05078,0.19531c0.33414,0 0.61831,-0.02811 0.85547,-0.08203c0.23715,-0.05392 0.44762,-0.13434 0.63086,-0.24219c0.18324,-0.10771 0.35104,-0.24253 0.50195,-0.40429c0.15091,-0.17258 0.30222,-0.37139 0.45312,-0.59766c0.08623,-0.12926 0.18323,-0.22147 0.29102,-0.27539c0.10779,-0.05392 0.21931,-0.08008 0.33789,-0.08008c0.19402,0 0.37347,0.06889 0.53516,0.20899c0.16168,0.14002 0.24218,0.31751 0.24218,0.5332c0,0.12936 -0.07081,0.32333 -0.21093,0.58203c-0.14013,0.2587 -0.36515,0.51865 -0.67774,0.77734c-0.30181,0.2587 -0.69658,0.48372 -1.18164,0.67774c-0.48506,0.19401 -1.0767,0.29101 -1.77734,0.29101c-0.71142,0 -1.34769,-0.12802 -1.90821,-0.38671c-0.56051,-0.2587 -1.03578,-0.60399 -1.42382,-1.03516c-0.37727,-0.44195 -0.66825,-0.95504 -0.87305,-1.53711c-0.19402,-0.58207 -0.29102,-1.19023 -0.29102,-1.82617c0,-0.65754 0.1038,-1.2773 0.3086,-1.85938c0.2048,-0.59283 0.49578,-1.10398 0.87304,-1.53515c0.38805,-0.43115 0.85168,-0.7716 1.39063,-1.01953c0.53895,-0.2587 1.14225,-0.38868 1.81055,-0.38868c0.6144,0 1.18471,0.09221 1.71289,0.27539zM227.0332,156.27148c0.53896,0.18326 1.00258,0.45289 1.39063,0.8086c0.39882,0.34492 0.71113,0.77071 0.9375,1.27734c0.22637,0.50661 0.33984,1.08372 0.33984,1.73047c0,0.39877 -0.097,0.69945 -0.29101,0.9043c-0.19403,0.20485 -0.421,0.30859 -0.67969,0.30859h-5.91797c0,0.02142 0.00674,0.11363 0.01758,0.27539c0.02154,0.15081 0.05938,0.33314 0.11328,0.54883c0.06468,0.21556 0.15002,0.44738 0.25781,0.69531c0.11858,0.23708 0.27474,0.45726 0.46875,0.66211c0.19403,0.20485 0.43068,0.37749 0.71094,0.51758c0.29103,0.12926 0.64118,0.19531 1.05078,0.19531c0.33416,0 0.62029,-0.02811 0.85742,-0.08203c0.23716,-0.05392 0.44763,-0.13434 0.63086,-0.24219c0.18325,-0.10771 0.35105,-0.24253 0.50196,-0.40429c0.1509,-0.17258 0.30026,-0.37139 0.45117,-0.59766c0.08622,-0.12926 0.18322,-0.22147 0.29101,-0.27539c0.10779,-0.05392 0.22127,-0.08008 0.33985,-0.08008c0.19402,0 0.37346,0.06889 0.53515,0.20899c0.16169,0.14002 0.24219,0.31751 0.24219,0.5332c0,0.12936 -0.07082,0.32333 -0.21094,0.58203c-0.14013,0.2587 -0.36709,0.51865 -0.67969,0.77734c-0.30181,0.2587 -0.69463,0.48372 -1.17968,0.67774c-0.48506,0.19401 -1.07866,0.29101 -1.7793,0.29101c-0.71142,0 -1.34574,-0.12802 -1.90625,-0.38671c-0.56051,-0.2587 -1.03578,-0.60399 -1.42383,-1.03516c-0.37727,-0.44195 -0.66824,-0.95504 -0.87304,-1.53711c-0.19402,-0.58207 -0.29102,-1.19023 -0.29102,-1.82617c0,-0.65754 0.10184,-1.2773 0.30664,-1.85938c0.2048,-0.59283 0.49578,-1.10398 0.87305,-1.53515c0.38804,-0.43115 0.85167,-0.7716 1.39062,-1.01953c0.53896,-0.2587 1.1442,-0.38868 1.8125,-0.38868c0.61441,0 1.18472,0.09221 1.71289,0.27539zM79.96094,156.36914c0.16169,0.16171 0.24414,0.36055 0.24414,0.59766v0.35547c0.06465,-0.07559 0.15486,-0.18218 0.27344,-0.32227c0.12935,-0.14022 0.29715,-0.27504 0.50195,-0.4043c0.2048,-0.12926 0.4463,-0.24283 0.72656,-0.33984c0.29103,-0.09701 0.63148,-0.14648 1.01953,-0.14648c0.53895,0 1.00258,0.14645 1.39063,0.4375c0.38804,0.28023 0.69066,0.63039 0.90625,1.05078c0.29104,-0.52826 0.65572,-0.90655 1.09766,-1.13282c0.45272,-0.2371 0.98231,-0.35546 1.58594,-0.35546c0.38805,0 0.74303,0.05905 1.06641,0.17773c0.33416,0.10789 0.62029,0.27568 0.85742,0.50195c0.24793,0.22635 0.44191,0.50764 0.58203,0.8418c0.14012,0.33416 0.21094,0.72213 0.21094,1.16406v5.82031c0,0.23726 -0.08245,0.44094 -0.24414,0.61329c-0.1617,0.16176 -0.36053,0.24414 -0.59766,0.24414c-0.23713,0 -0.44276,-0.08238 -0.61523,-0.24414c-0.16169,-0.1725 -0.24219,-0.37618 -0.24219,-0.61329v-5.74023c0,-0.37727 -0.12318,-0.70125 -0.37109,-0.9707c-0.24792,-0.26948 -0.57673,-0.4043 -0.98633,-0.4043c-0.35571,0 -0.66318,0.07084 -0.92188,0.21094c-0.25869,0.12943 -0.47401,0.30693 -0.64648,0.5332c-0.16169,0.22637 -0.28487,0.48437 -0.37109,0.77539c-0.07546,0.29105 -0.11328,0.59366 -0.11328,0.90625v4.68945c0,0.23726 -0.08245,0.44094 -0.24414,0.61329c-0.16167,0.16176 -0.3605,0.24414 -0.59766,0.24414c-0.23713,0 -0.44081,-0.08238 -0.61328,-0.24414c-0.16169,-0.1725 -0.24414,-0.37618 -0.24414,-0.61329v-5.74023c0,-0.37727 -0.11834,-0.70125 -0.35547,-0.9707c-0.23714,-0.26948 -0.57079,-0.4043 -1.00195,-0.4043c-0.35571,0 -0.66318,0.07084 -0.92187,0.21094c-0.25869,0.12943 -0.47401,0.30693 -0.64648,0.5332c-0.16169,0.22637 -0.28487,0.48437 -0.37109,0.77539c-0.07546,0.29105 -0.11328,0.59366 -0.11328,0.90625v4.68945c0,0.23726 -0.08245,0.44094 -0.24414,0.61329c-0.1617,0.16176 -0.36053,0.24414 -0.59766,0.24414c-0.23713,0 -0.44081,-0.08238 -0.61328,-0.24414c-0.16169,-0.1725 -0.24414,-0.37618 -0.24414,-0.61329v-7.64843c0,-0.23706 0.08245,-0.4359 0.24414,-0.59766c0.17247,-0.17235 0.37615,-0.25976 0.61328,-0.25976c0.23714,0 0.43597,0.08741 0.59766,0.25976zM105.5293,156.36914c0.17247,0.16171 0.25781,0.36055 0.25781,0.59766c0,0.22624 -0.08534,0.42505 -0.25781,0.59765c-0.1617,0.16177 -0.36248,0.24414 -0.59961,0.24414c-0.40961,0 -0.74326,0.097 -1.00196,0.29102c-0.2587,0.18326 -0.46433,0.40341 -0.61523,0.66211c-0.14012,0.25869 -0.23712,0.52835 -0.29102,0.80859c-0.05389,0.28032 -0.08007,0.51213 -0.08007,0.69531v4.34961c0,0.23726 -0.0805,0.44094 -0.24219,0.61329c-0.1617,0.16176 -0.36053,0.24414 -0.59766,0.24414c-0.23713,0 -0.44276,-0.08238 -0.61523,-0.24414c-0.16169,-0.1725 -0.24219,-0.37618 -0.24219,-0.61329v-7.64843c0,-0.23706 0.0805,-0.4359 0.24219,-0.59766c0.17248,-0.17235 0.3781,-0.25781 0.61523,-0.25781c0.23714,0 0.43597,0.08546 0.59766,0.25781c0.16169,0.16171 0.24219,0.36055 0.24219,0.59766v0.30859c0.04311,-0.04334 0.12361,-0.13051 0.24218,-0.25977c0.11857,-0.12943 0.26503,-0.25941 0.4375,-0.38867c0.18325,-0.14009 0.38208,-0.25846 0.59766,-0.35547c0.22637,-0.10784 0.46303,-0.1621 0.71094,-0.1621c0.23714,0 0.43792,0.08741 0.59961,0.25976zM110.92773,156.36914c0.17248,0.16171 0.25977,0.36055 0.25977,0.59766c0,0.22624 -0.08729,0.42505 -0.25977,0.59765c-0.16169,0.16177 -0.36052,0.24414 -0.59765,0.24414c-0.40961,0 -0.74326,0.097 -1.00196,0.29102c-0.25869,0.18326 -0.46433,0.40341 -0.61523,0.66211c-0.14012,0.25869 -0.23712,0.52835 -0.29101,0.80859c-0.0539,0.28032 -0.08008,0.51213 -0.08008,0.69531v4.34961c0,0.23726 -0.0805,0.44094 -0.24219,0.61329c-0.16167,0.16176 -0.36246,0.24414 -0.59961,0.24414c-0.23713,0 -0.44081,-0.08238 -0.61328,-0.24414c-0.16169,-0.1725 -0.24219,-0.37618 -0.24219,-0.61329v-7.64843c0,-0.23706 0.0805,-0.4359 0.24219,-0.59766c0.17248,-0.17235 0.37615,-0.25781 0.61328,-0.25781c0.23714,0 0.43792,0.08546 0.59961,0.25781c0.16169,0.16171 0.24219,0.36055 0.24219,0.59766v0.30859c0.04311,-0.04334 0.12361,-0.13051 0.24218,-0.25977c0.11857,-0.12943 0.26308,-0.25941 0.43555,-0.38867c0.18324,-0.14009 0.38403,-0.25846 0.59961,-0.35547c0.22637,-0.10784 0.46303,-0.1621 0.71094,-0.1621c0.23713,0 0.43597,0.08741 0.59765,0.25976zM122.1543,156.27148c0.16169,0.09709 0.27032,0.23675 0.32422,0.41993l1.97265,6.58203l1.61719,-6.06446c0.07544,-0.25874 0.19862,-0.47892 0.37109,-0.6621c0.18325,-0.19402 0.41991,-0.29102 0.71094,-0.29102c0.29103,0 0.52284,0.09221 0.69531,0.27539c0.18326,0.18326 0.31324,0.40828 0.38868,0.67773l1.61718,6.06446l1.98828,-6.58203c0.0539,-0.18326 0.15574,-0.32292 0.30664,-0.41993c0.15092,-0.10784 0.31873,-0.1621 0.50196,-0.1621c0.07546,0 0.1608,0.01657 0.25781,0.04882c0.09701,0.02142 0.18917,0.06415 0.27539,0.12891c0.09701,0.06476 0.17267,0.15192 0.22656,0.25977c0.06468,0.10771 0.09766,0.24253 0.09766,0.40429c0,0.10784 -0.0165,0.20005 -0.04883,0.27539l-2.37695,7.30664c-0.08623,0.28037 -0.23754,0.50734 -0.45313,0.67969c-0.2048,0.1726 -0.4531,0.25977 -0.74414,0.25977c-0.29103,0 -0.53934,-0.08717 -0.74414,-0.25977c-0.19403,-0.17245 -0.3337,-0.39942 -0.41992,-0.67969l-1.56836,-5.70703l-1.56836,5.70703c-0.08623,0.28037 -0.23075,0.50734 -0.43555,0.67969c-0.19402,0.1726 -0.43263,0.25977 -0.71289,0.25977c-0.30181,0 -0.55496,-0.08717 -0.75976,-0.25977c-0.20481,-0.17245 -0.34933,-0.39942 -0.43555,-0.67969l-2.37695,-7.30664c-0.03233,-0.07534 -0.04883,-0.16755 -0.04883,-0.27539c0,-0.06475 0.01153,-0.14039 0.0332,-0.22656c0.02157,-0.09701 0.05939,-0.18922 0.11328,-0.27539c0.06468,-0.09701 0.15002,-0.17743 0.25782,-0.24219c0.1078,-0.06475 0.25427,-0.09765 0.4375,-0.09765c0.18324,0 0.34909,0.05426 0.5,0.1621zM162.56055,156.36914c0.17247,0.16171 0.25781,0.36055 0.25781,0.59766c0,0.22624 -0.08534,0.42505 -0.25781,0.59765c-0.1617,0.16177 -0.36053,0.24414 -0.59766,0.24414c-0.4096,0 -0.74521,0.097 -1.00391,0.29102c-0.2587,0.18326 -0.46237,0.40341 -0.61328,0.66211c-0.14012,0.25869 -0.23712,0.52835 -0.29101,0.80859c-0.0539,0.28032 -0.08203,0.51213 -0.08203,0.69531v4.34961c0,0.23726 -0.0805,0.44094 -0.24219,0.61329c-0.16167,0.16176 -0.3605,0.24414 -0.59766,0.24414c-0.23713,0 -0.44276,-0.08238 -0.61523,-0.24414c-0.16169,-0.1725 -0.24219,-0.37618 -0.24219,-0.61329v-7.64843c0,-0.23706 0.0805,-0.4359 0.24219,-0.59766c0.17247,-0.17235 0.3781,-0.25781 0.61523,-0.25781c0.23714,0 0.43597,0.08546 0.59766,0.25781c0.16169,0.16171 0.24219,0.36055 0.24219,0.59766v0.30859c0.04311,-0.04334 0.12556,-0.13051 0.24414,-0.25977c0.11856,-0.12943 0.26307,-0.25941 0.43554,-0.38867c0.18324,-0.14009 0.38208,-0.25846 0.59766,-0.35547c0.22637,-0.10784 0.46498,-0.1621 0.71289,-0.1621c0.23714,0 0.43597,0.08741 0.59766,0.25976zM176.24219,156.36914c0.17247,0.16171 0.25976,0.36055 0.25976,0.59766v7.64843c0,0.23726 -0.08729,0.44094 -0.25976,0.61329c-0.16168,0.16176 -0.36051,0.24414 -0.59766,0.24414c-0.23713,0 -0.43597,-0.08238 -0.59765,-0.24414c-0.16169,-0.1725 -0.24415,-0.37618 -0.24415,-0.61329v-0.29101c-0.10779,0.09701 -0.2426,0.21537 -0.40429,0.35547c-0.1509,0.12926 -0.33809,0.25241 -0.56446,0.37109c-0.22636,0.11868 -0.49115,0.22242 -0.79296,0.3086c-0.29104,0.07533 -0.63149,0.11132 -1.01954,0.11132v0.00196c-0.39882,0 -0.78679,-0.05427 -1.16406,-0.16211c-0.36649,-0.11866 -0.69529,-0.29131 -0.98633,-0.51758c-0.29102,-0.22637 -0.52088,-0.50764 -0.69336,-0.8418c-0.17247,-0.33413 -0.25976,-0.72211 -0.25976,-1.16406v-5.82031c0,-0.23706 0.0805,-0.4359 0.24219,-0.59766c0.17247,-0.17235 0.3781,-0.25781 0.61523,-0.25781c0.23714,0 0.43597,0.08546 0.59766,0.25781c0.16169,0.16171 0.24218,0.36055 0.24218,0.59766v5.62695c0,0.24799 0.05432,0.4633 0.16211,0.64648c0.11857,0.18334 0.26503,0.33949 0.4375,0.46875c0.18325,0.11843 0.38208,0.21064 0.59766,0.2754c0.22636,0.06475 0.44653,0.09765 0.66211,0.09765c0.35571,0 0.67967,-0.05906 0.9707,-0.17773c0.29104,-0.12924 0.5345,-0.3019 0.72852,-0.51758c0.2048,-0.21559 0.36096,-0.46872 0.46875,-0.75977c0.10779,-0.3018 0.16015,-0.62578 0.16015,-0.9707v-4.68945c0,-0.23706 0.08246,-0.4359 0.24415,-0.59766c0.16169,-0.17235 0.36052,-0.25976 0.59765,-0.25976c0.23714,0 0.43597,0.08741 0.59766,0.25976zM179.21484,156.36914c0.16169,0.16171 0.24219,0.36055 0.24219,0.59766v0.35547c0.06466,-0.07559 0.15682,-0.18218 0.27539,-0.32227c0.12935,-0.14022 0.29715,-0.27504 0.50196,-0.4043c0.2048,-0.12926 0.4463,-0.24283 0.72656,-0.33984c0.29103,-0.09701 0.63148,-0.14648 1.01953,-0.14648c0.53895,0 1.00258,0.14645 1.39062,0.4375c0.38805,0.28023 0.68872,0.63039 0.9043,1.05078c0.29103,-0.52826 0.65767,-0.90655 1.09961,-1.13282c0.45272,-0.2371 0.98231,-0.35546 1.58594,-0.35546c0.38804,0 0.74303,0.05905 1.0664,0.17773c0.33414,0.10789 0.62027,0.27568 0.85743,0.50195c0.24792,0.22635 0.44191,0.50764 0.58203,0.8418c0.14012,0.33416 0.20898,0.72213 0.20898,1.16406v5.82031c0,0.23726 -0.0805,0.44094 -0.24219,0.61329c-0.16169,0.16176 -0.36052,0.24414 -0.59765,0.24414c-0.23714,0 -0.44276,-0.08238 -0.61524,-0.24414c-0.16169,-0.1725 -0.24218,-0.37618 -0.24218,-0.61329v-5.74023c0,-0.37727 -0.12319,-0.70125 -0.3711,-0.9707c-0.24791,-0.26948 -0.57672,-0.4043 -0.98633,-0.4043c-0.35571,0 -0.66318,0.07084 -0.92187,0.21094c-0.25869,0.12943 -0.47401,0.30693 -0.64649,0.5332c-0.16168,0.22637 -0.28682,0.48437 -0.37304,0.77539c-0.07544,0.29105 -0.11328,0.59366 -0.11328,0.90625v4.68945c0,0.23726 -0.0805,0.44094 -0.24219,0.61329c-0.16167,0.16176 -0.3605,0.24414 -0.59766,0.24414c-0.23713,0 -0.44276,-0.08238 -0.61523,-0.24414c-0.16169,-0.1725 -0.24219,-0.37618 -0.24219,-0.61329v-5.74023c0,-0.37727 -0.11832,-0.70125 -0.35547,-0.9707c-0.23714,-0.26948 -0.57079,-0.4043 -1.00195,-0.4043c-0.35571,0 -0.66318,0.07084 -0.92188,0.21094c-0.25869,0.12943 -0.47401,0.30693 -0.64648,0.5332c-0.16169,0.22637 -0.28682,0.48437 -0.37305,0.77539c-0.07544,0.29105 -0.11328,0.59366 -0.11328,0.90625v4.68945c0,0.23726 -0.0805,0.44094 -0.24219,0.61329c-0.16167,0.16176 -0.3605,0.24414 -0.59765,0.24414c-0.23714,0 -0.44276,-0.08238 -0.61524,-0.24414c-0.16169,-0.1725 -0.24218,-0.37618 -0.24218,-0.61329v-7.64843c0,-0.23706 0.08049,-0.4359 0.24218,-0.59766c0.17248,-0.17235 0.37811,-0.25976 0.61524,-0.25976c0.23714,0 0.43597,0.08741 0.59765,0.25976zM232.11133,156.36914c0.16169,0.16171 0.24219,0.36055 0.24219,0.59766v0.35547c0.06465,-0.07559 0.15681,-0.18218 0.27539,-0.32227c0.12935,-0.14022 0.2952,-0.27504 0.5,-0.4043c0.2048,-0.12926 0.44825,-0.24283 0.72851,-0.33984c0.29104,-0.09701 0.62953,-0.14648 1.01758,-0.14648c0.53895,0 1.00258,0.14645 1.39062,0.4375c0.38805,0.28023 0.69067,0.63039 0.90626,1.05078c0.29103,-0.52826 0.65766,-0.90655 1.0996,-1.13282c0.45273,-0.2371 0.98036,-0.35546 1.58399,-0.35546c0.38805,0 0.74303,0.05905 1.06641,0.17773c0.33416,0.10789 0.62029,0.27568 0.85742,0.50195c0.24792,0.22635 0.44191,0.50764 0.58203,0.8418c0.14012,0.33416 0.21094,0.72213 0.21094,1.16406v5.82031c0,0.23726 -0.0805,0.44094 -0.24219,0.61329c-0.1617,0.16176 -0.36248,0.24414 -0.59961,0.24414c-0.23713,0 -0.44081,-0.08238 -0.61328,-0.24414c-0.16169,-0.1725 -0.24219,-0.37618 -0.24219,-0.61329v-5.74023c0,-0.37727 -0.12514,-0.70125 -0.37305,-0.9707c-0.24792,-0.26948 -0.57672,-0.4043 -0.98633,-0.4043c-0.3557,0 -0.66317,0.07084 -0.92187,0.21094c-0.25869,0.12943 -0.47401,0.30693 -0.64648,0.5332c-0.16169,0.22637 -0.28487,0.48437 -0.3711,0.77539c-0.07546,0.29105 -0.11328,0.59366 -0.11328,0.90625v4.68945c0,0.23726 -0.0805,0.44094 -0.24219,0.61329c-0.1617,0.16176 -0.36248,0.24414 -0.59961,0.24414c-0.23713,0 -0.44081,-0.08238 -0.61328,-0.24414c-0.16169,-0.1725 -0.24219,-0.37618 -0.24219,-0.61329v-5.74023c0.00001,-0.37727 -0.12026,-0.70125 -0.35742,-0.9707c-0.23714,-0.26948 -0.57079,-0.4043 -1.00195,-0.4043c-0.35571,0 -0.66318,0.07084 -0.92187,0.21094c-0.25869,0.12943 -0.47402,0.30693 -0.64649,0.5332c-0.16169,0.22637 -0.28487,0.48437 -0.37109,0.77539c-0.07547,0.29105 -0.11328,0.59366 -0.11328,0.90625v4.68945c0,0.23726 -0.0805,0.44094 -0.24219,0.61329c-0.16167,0.16176 -0.36246,0.24414 -0.59961,0.24414c-0.23713,0 -0.44081,-0.08238 -0.61328,-0.24414c-0.16169,-0.1725 -0.24219,-0.37618 -0.24219,-0.61329v-7.64843c0,-0.23706 0.0805,-0.4359 0.24219,-0.59766c0.17247,-0.17235 0.37615,-0.25976 0.61328,-0.25976c0.23714,0 0.43792,0.08741 0.59961,0.25976zM245.2793,156.36914c0.16169,0.16171 0.24218,0.36055 0.24218,0.59766v7.64843c0,0.23726 -0.08049,0.44094 -0.24218,0.61329c-0.1617,0.16176 -0.36053,0.24414 -0.59766,0.24414c-0.23713,0 -0.44276,-0.08238 -0.61523,-0.24414c-0.16169,-0.1725 -0.24219,-0.37618 -0.24219,-0.61329v-7.64843c0,-0.23706 0.0805,-0.4359 0.24219,-0.59766c0.17245,-0.17235 0.37808,-0.25976 0.61523,-0.25976c0.23714,0 0.43597,0.08741 0.59766,0.25976zM248.19922,156.51562l2.05273,2.95899l2.03711,-2.95899c0.18325,-0.26948 0.42671,-0.40429 0.72852,-0.40429c0.2587,0 0.45753,0.09221 0.59765,0.27539c0.14012,0.17242 0.21094,0.36155 0.21094,0.5664c0,0.194 -0.05916,0.3647 -0.17773,0.51563l-2.49024,3.1543l2.66797,3.44336c0.11858,0.15085 0.17774,0.32835 0.17774,0.5332c0,0.24804 -0.0873,0.45851 -0.25977,0.63086c-0.17246,0.16176 -0.38779,0.24219 -0.64648,0.24219c-0.12934,0 -0.25252,-0.02137 -0.3711,-0.06446c-0.10779,-0.04308 -0.19992,-0.12351 -0.27539,-0.24218l-2.19922,-3.41211l-2.21484,3.41211c-0.07544,0.11867 -0.17244,0.1991 -0.29102,0.24218c-0.10779,0.04309 -0.22126,0.06446 -0.33984,0.06446c-0.09701,0 -0.19885,-0.01053 -0.30664,-0.03321c-0.10779,-0.03225 -0.20963,-0.08173 -0.30664,-0.14648c-0.08622,-0.07534 -0.16188,-0.1656 -0.22656,-0.27344c-0.0539,-0.1185 -0.08008,-0.26011 -0.08008,-0.42187c0,-0.20478 0.05916,-0.38228 0.17773,-0.53321l2.66602,-3.44336l-2.48828,-3.15234c-0.11858,-0.1509 -0.17774,-0.32161 -0.17774,-0.51563c0,-0.20492 0.06887,-0.39405 0.20899,-0.5664c0.14012,-0.18318 0.33895,-0.27539 0.59765,-0.27539c0.3018,0 0.54526,0.13481 0.72852,0.40429zM71.98828,157.59766c-0.33415,0.12936 -0.62513,0.33497 -0.87305,0.61523c-0.23715,0.26946 -0.42629,0.61961 -0.56641,1.05078c-0.14012,0.43117 -0.20898,0.9423 -0.20898,1.53516c0,0.59283 0.06886,1.10399 0.20898,1.53515c0.14014,0.42039 0.32928,0.77247 0.56641,1.05274c0.24792,0.2695 0.5389,0.47319 0.87305,0.61328c0.34493,0.12926 0.71641,0.19336 1.11523,0.19336c0.39882,0 0.76546,-0.0641 1.09961,-0.19336c0.34494,-0.14012 0.63592,-0.3438 0.87305,-0.61328c0.24793,-0.28027 0.44191,-0.63235 0.58203,-1.05274c0.14012,-0.43116 0.21094,-0.94232 0.21094,-1.53515c0,-0.59286 -0.07082,-1.10399 -0.21094,-1.53516c-0.14013,-0.43117 -0.33412,-0.78132 -0.58203,-1.05078c-0.23714,-0.28036 -0.52812,-0.48597 -0.87305,-0.61523c-0.33415,-0.1401 -0.70078,-0.21094 -1.09961,-0.21094c-0.39882,0 -0.7703,0.07084 -1.11523,0.21094zM94.71485,157.59766c-0.33416,0.12936 -0.62513,0.33497 -0.87305,0.61523c-0.23715,0.26946 -0.42629,0.61961 -0.56641,1.05078c-0.14012,0.43117 -0.20898,0.9423 -0.20898,1.53516c0,0.59283 0.06886,1.10399 0.20898,1.53515c0.14014,0.42039 0.32928,0.77247 0.56641,1.05274c0.24792,0.2695 0.5389,0.47319 0.87305,0.61328c0.34493,0.12926 0.71641,0.19336 1.11523,0.19336c0.39883,0 0.76546,-0.0641 1.09961,-0.19336c0.34494,-0.14012 0.63592,-0.3438 0.87305,-0.61328c0.24792,-0.28027 0.44191,-0.63235 0.58203,-1.05274c0.14012,-0.43116 0.21094,-0.94232 0.21094,-1.53515c0,-0.59286 -0.07082,-1.10399 -0.21094,-1.53516c-0.14013,-0.43117 -0.33412,-0.78132 -0.58203,-1.05078c-0.23714,-0.28036 -0.52812,-0.48597 -0.87305,-0.61523c-0.33415,-0.1401 -0.70078,-0.21094 -1.09961,-0.21094c-0.39883,0 -0.7703,0.07084 -1.11523,0.21094zM114.69141,157.59766c-0.33416,0.12936 -0.62514,0.33497 -0.87305,0.61523c-0.23715,0.26946 -0.42629,0.61961 -0.56641,1.05078c-0.14012,0.43117 -0.20898,0.9423 -0.20898,1.53516c0,0.59283 0.06886,1.10399 0.20898,1.53515c0.14014,0.42039 0.32928,0.77247 0.56641,1.05274c0.24792,0.2695 0.5389,0.47319 0.87305,0.61328c0.34493,0.12926 0.7164,0.19336 1.11523,0.19336c0.39883,0 0.76546,-0.0641 1.09961,-0.19336c0.34494,-0.14012 0.63592,-0.3438 0.87305,-0.61328c0.24792,-0.28027 0.44191,-0.63235 0.58203,-1.05274c0.14012,-0.43116 0.21094,-0.94232 0.21094,-1.53515c0,-0.59286 -0.07082,-1.10399 -0.21094,-1.53516c-0.14014,-0.43117 -0.33412,-0.78132 -0.58203,-1.05078c-0.23714,-0.28036 -0.52812,-0.48597 -0.87305,-0.61523c-0.33415,-0.1401 -0.70078,-0.21094 -1.09961,-0.21094c-0.39883,0 -0.7703,0.07084 -1.11523,0.21094zM151.94141,157.56445c-0.28027,0.11863 -0.51888,0.26995 -0.71289,0.45313c-0.18325,0.17237 -0.32776,0.36634 -0.43555,0.58203c-0.10779,0.21563 -0.18829,0.41447 -0.24219,0.59766c-0.05384,0.18328 -0.08682,0.34623 -0.09766,0.48632c-0.01083,0.12826 -0.01562,0.20389 -0.01562,0.22657h5.23828c0,-0.33416 -0.05432,-0.65327 -0.16211,-0.95508c-0.10778,-0.30191 -0.27363,-0.56475 -0.5,-0.79102c-0.21558,-0.23718 -0.49687,-0.42631 -0.84179,-0.5664c-0.34493,-0.1401 -0.7494,-0.21094 -1.2129,-0.21094c-0.39882,0 -0.73732,0.05906 -1.01757,0.17773zM194.01758,157.56445c-0.28026,0.11863 -0.51692,0.26995 -0.71094,0.45313c-0.18324,0.17237 -0.32971,0.36634 -0.4375,0.58203c-0.10779,0.21563 -0.18829,0.41447 -0.24219,0.59766c-0.05384,0.18328 -0.08682,0.34623 -0.09765,0.48632c-0.01084,0.12826 -0.01563,0.20389 -0.01563,0.22657h5.23828c0,-0.33416 -0.05431,-0.65327 -0.16211,-0.95508c-0.10778,-0.30191 -0.27363,-0.56475 -0.5,-0.79102c-0.21558,-0.23718 -0.49686,-0.42631 -0.84179,-0.5664c-0.34493,-0.1401 -0.74939,-0.21094 -1.21289,-0.21094c-0.39883,0 -0.73733,0.05906 -1.01758,0.17773zM224.33398,157.56445c-0.28026,0.11863 -0.51887,0.26995 -0.71289,0.45313c-0.18324,0.17237 -0.32775,0.36634 -0.43554,0.58203c-0.1078,0.21563 -0.18829,0.41447 -0.24219,0.59766c-0.05385,0.18328 -0.08682,0.34623 -0.09766,0.48632c-0.01083,0.12826 -0.01562,0.20389 -0.01562,0.22657h5.23828c0,-0.33416 -0.05432,-0.65327 -0.16211,-0.95508c-0.10778,-0.30191 -0.27558,-0.56475 -0.50195,-0.79102c-0.21558,-0.23718 -0.49492,-0.42631 -0.83985,-0.5664c-0.34493,-0.1401 -0.74939,-0.21094 -1.21289,-0.21094c-0.39882,0 -0.73732,0.05906 -1.01758,0.17773zM67.03321,167.38477c0.4635,0 0.90579,0.08042 1.32617,0.24218c0.43116,0.15091 0.80944,0.36622 1.13281,0.64649c0.32338,0.26948 0.58137,0.59345 0.77539,0.9707c0.19402,0.37727 0.29102,0.78172 0.29102,1.21289c0,0.45271 -0.064,0.83585 -0.19336,1.14844c-0.11858,0.31254 -0.27473,0.57054 -0.46875,0.77539c-0.19403,0.2049 -0.41615,0.37074 -0.66406,0.5c-0.24793,0.11868 -0.49623,0.22721 -0.74414,0.32422c0.19402,0.06475 0.42583,0.17329 0.69531,0.32422c0.28025,0.14012 0.54989,0.33896 0.80859,0.59765c0.25868,0.2587 0.4808,0.59236 0.66406,1.00196c0.18323,0.39884 0.27344,0.89058 0.27344,1.47265c0,0.52815 -0.10668,1.00633 -0.32227,1.4375c-0.21558,0.43117 -0.50171,0.8046 -0.85742,1.11719c-0.35571,0.31247 -0.76986,0.55396 -1.24414,0.72656c-0.4635,0.17235 -0.95526,0.25977 -1.47266,0.25977l-4.94726,-0.00196c-0.15091,0 -0.30222,-0.02136 -0.45313,-0.06445c-0.1509,-0.05392 -0.29056,-0.12955 -0.41992,-0.22656c-0.11858,-0.10772 -0.21558,-0.24253 -0.29102,-0.4043c-0.07546,-0.16176 -0.11328,-0.35576 -0.11328,-0.58203v-10.21875c0,-0.09701 0.0165,-0.21537 0.04883,-0.35547c0.03235,-0.15098 0.09151,-0.29066 0.17773,-0.41992c0.09701,-0.14009 0.22698,-0.25367 0.38867,-0.33984c0.17246,-0.09701 0.38779,-0.14453 0.64648,-0.14453zM137.64062,167.72461c0.23713,0.22634 0.35547,0.50084 0.35547,0.82422v10.42773c0,0.32348 -0.11834,0.59991 -0.35547,0.82617c-0.22636,0.22627 -0.50084,0.33789 -0.82421,0.33789c-0.32337,0 -0.59785,-0.11162 -0.82422,-0.33789c-0.22637,-0.23715 -0.33985,-0.51358 -0.33985,-0.82617v-10.42773c0,-0.32345 0.11348,-0.59795 0.33985,-0.82422c0.23714,-0.22627 0.51162,-0.33984 0.82422,-0.33984c0.32336,0 0.59785,0.11357 0.82421,0.33984zM141.23633,167.72461c0.23715,0.22634 0.35547,0.50084 0.35547,0.82422c0,0.32348 -0.11832,0.59795 -0.35547,0.82422c-0.22636,0.22626 -0.5028,0.33984 -0.82617,0.33984c-0.31261,0 -0.58709,-0.11358 -0.82422,-0.33984c-0.22637,-0.22637 -0.33985,-0.50085 -0.33985,-0.82422c0,-0.32345 0.11348,-0.59795 0.33985,-0.82422c0.23714,-0.22627 0.51162,-0.33984 0.82422,-0.33984c0.32336,0 0.5998,0.11357 0.82617,0.33984zM87.61133,168.14453c0.23713,0.22637 0.35547,0.50084 0.35547,0.82422v1.81055v0.21093h1.14844c0.20481,0 0.37746,0.07564 0.51758,0.22657c0.1509,0.14009 0.22656,0.31272 0.22656,0.51758c0,0.2156 -0.07566,0.3931 -0.22656,0.5332c-0.14013,0.14009 -0.31278,0.21094 -0.51758,0.21094h-1.14844v6.49804c0,0.31265 -0.11834,0.58907 -0.35547,0.82617c-0.22636,0.22627 -0.496,0.33789 -0.80859,0.33789c-0.32338,0 -0.60467,-0.11162 -0.8418,-0.33789c-0.22637,-0.23715 -0.33789,-0.51358 -0.33789,-0.82617v-6.49804h-0.67969c-0.2048,0 -0.3823,-0.07085 -0.5332,-0.21094c-0.14012,-0.14002 -0.21094,-0.31752 -0.21094,-0.5332c0,-0.20486 0.07082,-0.37749 0.21094,-0.51758c0.15091,-0.15093 0.3284,-0.22657 0.5332,-0.22657h0.67969v-0.21093v-1.81055c0,-0.32348 0.11152,-0.59795 0.33789,-0.82422c0.23714,-0.22627 0.51842,-0.33984 0.8418,-0.33984c0.31258,0 0.58223,0.11357 0.80859,0.33984zM145.84375,168.14453c0.23713,0.22637 0.35547,0.50084 0.35547,0.82422v1.81055v0.21093h1.14844c0.20481,0 0.37745,0.07564 0.51757,0.22657c0.15091,0.14009 0.22461,0.31272 0.22461,0.51758c0,0.2156 -0.0737,0.3931 -0.22461,0.5332c-0.14013,0.14009 -0.31277,0.21094 -0.51757,0.21094h-1.14844v6.49804c0,0.31265 -0.11834,0.58907 -0.35547,0.82617c-0.22636,0.22627 -0.496,0.33789 -0.80859,0.33789c-0.32336,0 -0.60465,-0.11162 -0.8418,-0.33789c-0.22637,-0.23715 -0.33984,-0.51358 -0.33984,-0.82617v-6.49804h-0.67774c-0.2048,0 -0.3823,-0.07085 -0.5332,-0.21094c-0.14012,-0.14002 -0.21094,-0.31752 -0.21094,-0.5332c0,-0.20486 0.07082,-0.37749 0.21094,-0.51758c0.15091,-0.15093 0.3284,-0.22657 0.5332,-0.22657h0.67774v-0.21093v-1.81055c0,-0.32348 0.11347,-0.59795 0.33984,-0.82422c0.23714,-0.22627 0.51842,-0.33984 0.8418,-0.33984c0.31258,0 0.58222,0.11357 0.80859,0.33984zM63.28321,172.47852h3.31445c0.20479,0 0.39877,-0.03795 0.58203,-0.11329c0.18323,-0.07559 0.33939,-0.17933 0.46875,-0.30859c0.14012,-0.14017 0.24875,-0.30119 0.32422,-0.48437c0.07546,-0.18321 0.11133,-0.37719 0.11133,-0.58204c0,-0.20487 -0.03586,-0.39885 -0.11133,-0.58203c-0.07546,-0.18333 -0.1841,-0.33949 -0.32422,-0.46875c-0.12936,-0.14009 -0.28552,-0.24888 -0.46875,-0.32422c-0.18325,-0.07559 -0.37723,-0.11328 -0.58203,-0.11328h-3.31445zM94.39649,170.60156c0.16169,0.16172 0.24219,0.36056 0.24219,0.59766v1.71484h1.71289c0.23714,0 0.43792,0.08043 0.59961,0.24219c0.16169,0.16174 0.24219,0.36251 0.24219,0.59961c0,0.237 -0.0805,0.44068 -0.24219,0.61328c-0.1617,0.16176 -0.36248,0.24219 -0.59961,0.24219h-1.71289v1.69922c0,0.23725 -0.0805,0.44093 -0.24219,0.61328c-0.16167,0.16176 -0.36246,0.24219 -0.59961,0.24219c-0.23713,0 -0.44081,-0.08043 -0.61328,-0.24219c-0.16169,-0.1725 -0.24219,-0.37618 -0.24219,-0.61328v-1.69922h-1.69922c-0.23713,0 -0.44081,-0.08043 -0.61328,-0.24219c-0.16169,-0.1725 -0.24219,-0.37618 -0.24219,-0.61328c0,-0.23708 0.0805,-0.43785 0.24219,-0.59961c0.17245,-0.16176 0.37613,-0.24219 0.61328,-0.24219h1.69922v-1.71484c0,-0.23705 0.0805,-0.43589 0.24219,-0.59766c0.17247,-0.16176 0.37615,-0.24218 0.61328,-0.24218c0.23714,0 0.43792,0.08042 0.59961,0.24218zM78.99805,171.10352c0.2587,0.21555 0.38867,0.50655 0.38867,0.87304c0,0.10785 -0.0165,0.20964 -0.04883,0.30664l-2.97461,9.28125c-0.1509,0.45274 -0.34004,0.80771 -0.56641,1.06641c-0.21558,0.25872 -0.45224,0.45951 -0.71094,0.59961c-0.2587,0.14035 -0.53319,0.22556 -0.82422,0.25781c-0.28026,0.04309 -0.5499,0.06445 -0.80859,0.06445h-0.8418c-0.2048,0 -0.38714,-0.03769 -0.54883,-0.11328c-0.1509,-0.07534 -0.28572,-0.17234 -0.4043,-0.29101c-0.10779,-0.11855 -0.19313,-0.25337 -0.25781,-0.4043c-0.0539,-0.14009 -0.08203,-0.28462 -0.08203,-0.43555c0,-0.21556 0.06402,-0.39985 0.19336,-0.55078c0.14013,-0.15093 0.3574,-0.22656 0.64844,-0.22656c0.28026,0 0.5431,-0.00555 0.79102,-0.01563c0.2587,-0.01083 0.48567,-0.04852 0.67969,-0.11328c0.19402,-0.06475 0.34533,-0.16654 0.45312,-0.30664c0.11858,-0.12933 0.17773,-0.31847 0.17773,-0.5664c0,-0.15096 -0.02134,-0.31878 -0.06445,-0.50196c-0.04311,-0.18323 -0.11393,-0.39854 -0.21094,-0.64648l-2.69922,-6.85547c-0.06468,-0.16174 -0.09766,-0.3344 -0.09766,-0.51758c0,-0.12938 0.02134,-0.2642 0.06445,-0.40429c0.04314,-0.14002 0.10714,-0.26805 0.19336,-0.38672c0.09701,-0.11868 0.22214,-0.21568 0.37305,-0.29102c0.16168,-0.08617 0.35566,-0.1289 0.58203,-0.1289c0.23714,-0.00001 0.45731,0.06409 0.66211,0.19335c0.20479,0.11861 0.34446,0.29611 0.41992,0.53321l1.99023,6.14453l1.55078,-6.12891c0.06468,-0.24801 0.1995,-0.43519 0.4043,-0.56445c0.21559,-0.12926 0.4474,-0.19531 0.69531,-0.19531c0.32337,0 0.61435,0.10853 0.87305,0.32422zM100.125,171.13477c0.23713,0.22636 0.35547,0.496 0.35547,0.80859c0.09701,-0.12939 0.21048,-0.2642 0.33984,-0.4043c0.14013,-0.14009 0.31278,-0.26325 0.51758,-0.37109c0.21558,-0.11843 0.46873,-0.21064 0.75977,-0.27539c0.30181,-0.07534 0.66165,-0.11328 1.08203,-0.11328v0.00195c0.52817,0 1.00829,0.11162 1.43945,0.33789c0.44194,0.22637 0.82022,0.55032 1.13281,0.9707c0.31259,0.4096 0.54925,0.90621 0.71094,1.48828c0.17247,0.57129 0.25781,1.20077 0.25781,1.89063c0,0.68986 -0.08534,1.32129 -0.25781,1.89258c-0.16169,0.57129 -0.39834,1.06594 -0.71094,1.48633c-0.31259,0.4097 -0.69087,0.72881 -1.13281,0.95507c-0.43116,0.22627 -0.91128,0.33985 -1.43945,0.33985c-0.39883,0 -0.74897,-0.06101 -1.05078,-0.17969c-0.30181,-0.1186 -0.55981,-0.24662 -0.77539,-0.38672c-0.20479,-0.1508 -0.3726,-0.28562 -0.50196,-0.40429c-0.12933,-0.11868 -0.22633,-0.17774 -0.29101,-0.17774c-0.0539,0 -0.08008,0.06889 -0.08008,0.20898v3.16993c0,0.32347 -0.11834,0.59795 -0.35547,0.82422c-0.22636,0.2371 -0.50085,0.35546 -0.82422,0.35546c-0.3126,0 -0.58904,-0.11836 -0.82617,-0.35546c-0.22637,-0.22637 -0.33789,-0.50085 -0.33789,-0.82422v-10.42969c0,-0.31269 0.11152,-0.58233 0.33789,-0.80859c0.23714,-0.23711 0.51358,-0.35547 0.82617,-0.35547c0.32336,0 0.59785,0.11836 0.82422,0.35547zM113.26367,170.92578c0.4635,0.09696 0.86312,0.24632 1.19727,0.45117c0.34494,0.2048 0.60778,0.46475 0.79101,0.77735c0.19402,0.3018 0.29102,0.66844 0.29102,1.09961v5.77148c0,0.31249 -0.10668,0.57728 -0.32227,0.79297c-0.21558,0.21568 -0.48037,0.32226 -0.79297,0.32226c-0.29103,0 -0.54418,-0.09025 -0.75976,-0.27343c-0.2048,-0.19402 -0.32314,-0.43747 -0.35547,-0.72852c-0.40961,0.38808 -0.84025,0.65288 -1.29297,0.79297c-0.45272,0.1401 -0.96582,0.20898 -1.53711,0.20898c-0.36649,0 -0.73797,-0.05231 -1.11523,-0.16015c-0.36649,-0.10769 -0.70014,-0.27064 -1.00196,-0.48633c-0.29102,-0.22637 -0.52768,-0.50084 -0.71093,-0.82422c-0.18323,-0.32337 -0.27539,-0.70167 -0.27539,-1.13281c0,-0.66832 0.14451,-1.19111 0.43554,-1.56836c0.30182,-0.37727 0.67525,-0.66145 1.11719,-0.85547c0.44194,-0.19409 0.91526,-0.3357 1.42188,-0.42187c0.51739,-0.08618 0.99751,-0.17164 1.43945,-0.25782c0.44194,-0.08617 0.80857,-0.20454 1.09961,-0.35547c0.30181,-0.16168 0.45312,-0.41482 0.45312,-0.75976c0,-0.16156 -0.04947,-0.30125 -0.14648,-0.41992c-0.08622,-0.12951 -0.20941,-0.23326 -0.3711,-0.3086c-0.16168,-0.08617 -0.35082,-0.15027 -0.5664,-0.19336c-0.2156,-0.04308 -0.44256,-0.06445 -0.67969,-0.06445c-0.31258,0 -0.55409,0.04273 -0.72656,0.12891c-0.17247,0.08642 -0.31408,0.19496 -0.42188,0.32422c-0.097,0.12928 -0.1775,0.27378 -0.24218,0.43554c-0.06468,0.15098 -0.14518,0.29262 -0.24219,0.42188c-0.08622,0.12951 -0.20457,0.23609 -0.35547,0.32226c-0.15091,0.08618 -0.36623,0.12891 -0.64648,0.12891c-0.25871,0 -0.48568,-0.0641 -0.67969,-0.19336c-0.18323,-0.14012 -0.27539,-0.38841 -0.27539,-0.74414c0,-0.34492 0.08729,-0.66405 0.25976,-0.95508c0.17247,-0.291 0.42077,-0.53734 0.74414,-0.74219c0.32338,-0.21548 0.71619,-0.38327 1.17969,-0.50195c0.4635,-0.11842 0.98629,-0.17773 1.56836,-0.17773c0.54973,0 1.05603,0.04947 1.51953,0.14648zM123.49023,170.7793c0.45271,0 0.79801,0.12511 1.03516,0.37304c0.23713,0.24792 0.35547,0.53889 0.35547,0.87305c0,0.33414 -0.12998,0.64645 -0.38867,0.9375l-4.80274,5.27149h4.23633c0.26949,0 0.49646,0.09025 0.67969,0.27343c0.18323,0.18326 0.27539,0.41021 0.27539,0.67969c0,0.2909 -0.09216,0.52271 -0.27539,0.69531c-0.18325,0.17235 -0.41021,0.25781 -0.67969,0.25781h-6.22461c-0.16169,0.00001 -0.31784,-0.03094 -0.46875,-0.0957c-0.14012,-0.0645 -0.2633,-0.15192 -0.37109,-0.25976c-0.10779,-0.11861 -0.19509,-0.24663 -0.25977,-0.38672c-0.06468,-0.14005 -0.0957,-0.29136 -0.0957,-0.45313c0,-0.30183 0.11832,-0.58796 0.35547,-0.85742l4.78515,-5.40039h-3.62109c-0.26949,0 -0.49646,-0.09026 -0.67969,-0.27344c-0.18325,-0.18325 -0.27539,-0.41023 -0.27539,-0.67968c0,-0.25878 0.09214,-0.48089 0.27539,-0.66407c0.18325,-0.19401 0.41021,-0.29101 0.67969,-0.29101zM131.74023,171.13672c0.5713,0.22637 1.0679,0.54836 1.48829,0.96875c0.42037,0.42038 0.74917,0.9267 0.98632,1.51953c0.24792,0.58207 0.3711,1.22997 0.3711,1.94141c0,0.7114 -0.12318,1.36417 -0.3711,1.95703c-0.23714,0.58207 -0.56594,1.08157 -0.98632,1.50195c-0.42039,0.42041 -0.91699,0.74923 -1.48829,0.98633c-0.57129,0.22627 -1.18427,0.33984 -1.84179,0.33984c-0.64675,0 -1.25684,-0.11357 -1.82813,-0.33984c-0.57129,-0.23713 -1.06594,-0.56595 -1.48633,-0.98633c-0.42038,-0.42038 -0.75599,-0.91988 -1.0039,-1.50195c-0.23715,-0.59286 -0.35547,-1.24563 -0.35547,-1.95703c0,-0.71144 0.11832,-1.35934 0.35547,-1.94141c0.24792,-0.59283 0.58352,-1.09915 1.0039,-1.51953c0.42039,-0.42049 0.91504,-0.74248 1.48633,-0.96875c0.57129,-0.2371 1.18138,-0.35742 1.82813,-0.35742c0.65752,0 1.2705,0.12032 1.84179,0.35742zM154.69336,171.20117c0.52817,0.26948 0.95882,0.60798 1.29297,1.01758c0.34493,0.40963 0.59808,0.85192 0.75976,1.32617c0.16169,0.47428 0.24219,0.91171 0.24219,1.31055c0,0.37725 -0.06886,0.68956 -0.20898,0.9375c-0.14013,0.24794 -0.34576,0.37109 -0.61524,0.37109h-5.17383c-0.11855,0 -0.21071,0.04274 -0.27539,0.12891c-0.05389,0.07559 -0.08007,0.17933 -0.08007,0.30859c0,0.16156 0.04947,0.34877 0.14648,0.56446c0.09702,0.20482 0.24153,0.40559 0.43555,0.5996c0.19402,0.19412 0.43068,0.35512 0.71093,0.48438c0.29104,0.12926 0.62664,0.19336 1.00391,0.19336c0.22635,0 0.42518,-0.02137 0.59766,-0.06445c0.17246,-0.05393 0.33347,-0.12956 0.48437,-0.22657c0.15092,-0.097 0.29738,-0.22016 0.4375,-0.37109c0.15092,-0.16159 0.31677,-0.35072 0.5,-0.56641c0.16169,-0.19401 0.34598,-0.29101 0.55078,-0.29101c0.12934,0 0.25931,0.0329 0.38867,0.09765c0.12937,0.06476 0.24089,0.14997 0.3379,0.25782c0.097,0.10784 0.17946,0.23295 0.24414,0.37304c0.06468,0.12939 0.0957,0.26421 0.0957,0.4043c0,0.14012 -0.07566,0.33896 -0.22656,0.59766c-0.14013,0.24793 -0.3603,0.50107 -0.66211,0.75976c-0.30182,0.24791 -0.68009,0.4681 -1.13281,0.66211c-0.45272,0.18318 -0.99005,0.27539 -1.61524,0.27539c-0.71142,0 -1.34769,-0.12997 -1.9082,-0.38867c-0.56051,-0.2587 -1.03578,-0.60203 -1.42383,-1.0332c-0.37727,-0.44196 -0.66825,-0.9502 -0.87305,-1.52149c-0.19401,-0.58207 -0.29101,-1.19507 -0.29101,-1.84179c0,-0.64676 0.08729,-1.25684 0.25976,-1.82813c0.18325,-0.58207 0.45773,-1.08836 0.82422,-1.51953c0.36649,-0.44193 0.82527,-0.79209 1.375,-1.05078c0.54973,-0.2587 1.1957,-0.38867 1.93945,-0.38867c0.7222,0 1.34198,0.14163 1.85938,0.42187zM141.23633,171.3457c0.23715,0.22635 0.35547,0.50085 0.35547,0.82422v6.80664c0,0.32348 -0.11832,0.59991 -0.35547,0.82617c-0.22636,0.22627 -0.5028,0.33789 -0.82617,0.33789c-0.32337,0 -0.59785,-0.11162 -0.82422,-0.33789c-0.22637,-0.23715 -0.33985,-0.51358 -0.33985,-0.82617v-6.80664c0,-0.32345 0.11348,-0.59795 0.33985,-0.82422c0.23714,-0.2371 0.51162,-0.35547 0.82422,-0.35547c0.32336,0 0.5998,0.11837 0.82617,0.35547zM128.83008,172.73633c-0.31259,0.16169 -0.58223,0.38866 -0.8086,0.67969c-0.21557,0.28026 -0.38142,0.60905 -0.5,0.98632c-0.11857,0.36649 -0.17773,0.75447 -0.17773,1.16407c0,0.4096 0.05916,0.80241 0.17773,1.17968c0.11857,0.37725 0.28442,0.70607 0.5,0.98633c0.22637,0.28037 0.49601,0.50734 0.8086,0.67969c0.31259,0.16176 0.66953,0.24219 1.06836,0.24219c0.39882,0 0.75381,-0.08043 1.0664,-0.24219c0.32337,-0.17245 0.59301,-0.39942 0.8086,-0.67969c0.21557,-0.28026 0.38337,-0.60908 0.50195,-0.98633c0.11858,-0.37727 0.17773,-0.77008 0.17773,-1.17968c0,-0.4096 -0.05915,-0.79758 -0.17773,-1.16407c-0.11857,-0.37727 -0.28637,-0.70606 -0.50195,-0.98632c-0.21558,-0.29095 -0.48522,-0.51793 -0.8086,-0.67969c-0.31259,-0.1726 -0.66758,-0.25781 -1.0664,-0.25781c-0.39883,0 -0.75577,0.08521 -1.06836,0.25781zM100.83594,173.43164c-0.37727,0.49582 -0.56641,1.17477 -0.56641,2.03711c0,0.85155 0.18914,1.52566 0.56641,2.02148c0.37726,0.49585 0.9049,0.74415 1.58398,0.74415c0.68986,-0.00001 1.2243,-0.2483 1.60156,-0.74415c0.37727,-0.49582 0.56641,-1.16993 0.56641,-2.02148c0,-0.86234 -0.18914,-1.54129 -0.56641,-2.03711c-0.37726,-0.49585 -0.9117,-0.74414 -1.60156,-0.74414c-0.67908,0 -1.20672,0.24829 -1.58398,0.74414zM151.89648,172.86523c-0.25868,0.10767 -0.47401,0.24928 -0.64648,0.42188c-0.16169,0.16174 -0.28682,0.33244 -0.37305,0.51562c-0.08622,0.18329 -0.1289,0.34624 -0.1289,0.48633c0,0.21569 0.0805,0.32227 0.24218,0.32227h3.6875c0.14012,0 0.20899,-0.10179 0.20899,-0.30664c0,-0.1402 -0.04268,-0.3012 -0.12891,-0.48438c-0.07544,-0.18315 -0.19862,-0.35581 -0.37109,-0.51758c-0.16169,-0.17237 -0.37216,-0.31882 -0.63086,-0.4375c-0.2587,-0.11867 -0.56617,-0.17773 -0.92188,-0.17773c-0.3557,0 -0.66802,0.05906 -0.9375,0.17773zM63.28321,178.00781h3.37891c0.24792,0 0.47973,-0.04947 0.69531,-0.14648c0.22636,-0.09693 0.42034,-0.22496 0.58203,-0.38672c0.16169,-0.16156 0.29166,-0.35072 0.38867,-0.56641c0.09701,-0.21556 0.14453,-0.44737 0.14453,-0.69531c0,-0.24784 -0.04752,-0.47963 -0.14453,-0.69531c-0.09701,-0.22627 -0.22698,-0.42027 -0.38867,-0.58203c-0.16167,-0.16169 -0.35566,-0.29167 -0.58203,-0.38867c-0.21559,-0.09701 -0.4474,-0.14454 -0.69531,-0.14454h-3.37891zM112.39062,175.87305c-0.37726,0.11867 -0.88841,0.23704 -1.53515,0.35547c-0.78687,0.14014 -1.18164,0.51161 -1.18164,1.11523c0,0.15095 0.02134,0.29741 0.06445,0.4375c0.0539,0.14002 0.14119,0.26999 0.25977,0.38867c0.11857,0.10759 0.27473,0.19306 0.46875,0.25781c0.2048,0.06476 0.4531,0.09766 0.74414,0.09766c0.24792,0 0.49623,-0.02811 0.74414,-0.08203c0.2587,-0.0645 0.48372,-0.14997 0.67773,-0.25781c0.2048,-0.11848 0.36775,-0.25816 0.48633,-0.41993c0.12936,-0.17237 0.19336,-0.36634 0.19336,-0.58203v-1.56836c-0.22636,0.05367 -0.53383,0.13914 -0.92188,0.25782z" fill="#1eff00" stroke="none" stroke-width="1.01053" stroke-miterlimit="10" stroke-dashoffset="0"/></g></g></svg>