<svg version="1.1" xmlns="http://www.w3.org/2000/svg" xmlns:xlink="http://www.w3.org/1999/xlink" width="73.93388" height="95.9062" viewBox="0,0,73.93388,95.9062"><g transform="translate(-203.03306,-132.0469)"><g data-paper-data="{&quot;isPaintingLayer&quot;:true}" fill-rule="nonzero" stroke="none" stroke-linecap="butt" stroke-linejoin="miter" stroke-miterlimit="10" stroke-dasharray="" stroke-dashoffset="0" style="mix-blend-mode: normal"><path d="M257.73833,142.81165c0.45349,0.11356 0.87779,0.31036 1.27458,0.59366c0.45346,0.28344 0.82091,0.70774 1.10435,1.27458c0.28344,0.51017 0.42761,1.13549 0.42761,1.87242c0,0.73717 -0.14417,1.35835 -0.42761,1.86824l-34.60427,65.89549c-0.34011,0.68022 -0.85174,1.19185 -1.53196,1.53196c-0.62351,0.39689 -1.30157,0.59784 -2.03847,0.59784c-1.077,0 -2.01297,-0.37156 -2.80654,-1.10853c-0.79357,-0.73689 -1.1915,-1.67282 -1.1915,-2.80654c0,-0.68022 0.17054,-1.33195 0.51065,-1.95543l34.52123,-65.89549c0.34011,-0.68022 0.82126,-1.1877 1.44477,-1.52781c0.68022,-0.39689 1.3888,-0.59784 2.12565,-0.59784c0.34008,0 0.73804,0.08761 1.19154,0.25738zM232.91126,148.93123c2.09734,2.77752 3.14282,6.83188 3.14282,12.16027c0,5.32831 -1.04552,9.38278 -3.14282,12.1603c-2.0973,2.72085 -5.15892,4.08111 -9.1835,4.08111c-3.96791,0 -6.99901,-1.36027 -9.09635,-4.08111c-2.09734,-2.77752 -3.14696,-6.83195 -3.14696,-12.1603c0,-5.32838 1.04966,-9.38274 3.14696,-12.16027c2.09734,-2.77752 5.12844,-4.16416 9.09635,-4.16416c4.02458,0 7.0862,1.38664 9.1835,4.16416zM219.30622,154.29107c-0.96362,1.58713 -1.44481,3.85282 -1.44481,6.80043c0,2.94758 0.48115,5.24381 1.44481,6.88765c0.96366,1.58713 2.43758,2.37893 4.42154,2.37893c1.98395,0 3.45788,-0.79176 4.42154,-2.37893c0.96362,-1.64384 1.44481,-3.94008 1.44481,-6.88765c0,-2.94761 -0.48115,-5.21329 -1.44481,-6.80043c-0.96366,-1.64384 -2.43758,-2.46611 -4.42154,-2.46611c-1.98395,0 -3.45788,0.82224 -4.42154,2.46611zM264.36857,185.74834c2.09734,2.77756 3.14696,6.83195 3.14696,12.16027c0,5.32831 -1.04966,9.37856 -3.14696,12.15612c-2.09734,2.72085 -5.15892,4.08111 -9.1835,4.08111c-3.96791,0 -7.02538,-1.36027 -9.17935,-4.08111c-2.09734,-2.77756 -3.14696,-6.82781 -3.14696,-12.15612c0,-5.32831 1.04966,-9.38271 3.14696,-12.16027c2.15401,-2.77752 5.21145,-4.16416 9.17935,-4.16416c4.02458,0 7.0862,1.38664 9.1835,4.16416zM250.76764,191.104c-0.96362,1.5872 -1.44895,3.85703 -1.44895,6.80461c0,2.94758 0.48529,5.24381 1.44895,6.88765c0.96366,1.58713 2.43344,2.37893 4.41739,2.37893c1.98395,0 3.45788,-0.79176 4.42154,-2.37893c0.96362,-1.64384 1.44895,-3.94008 1.44895,-6.88765c0,-2.94758 -0.48529,-5.2174 -1.44895,-6.80461c-0.96366,-1.64381 -2.43758,-2.46611 -4.42154,-2.46611c-1.98395,0 -3.45374,0.8223 -4.41739,2.46611z" data-paper-data="{&quot;origPos&quot;:null}" fill="#ffffff" stroke-width="1"/><path d="M203.03306,227.9531v-95.9062h73.93388v95.9062z" fill="none" stroke-width="none"/></g></g></svg>