<svg version="1.1" xmlns="http://www.w3.org/2000/svg" xmlns:xlink="http://www.w3.org/1999/xlink" width="372.21489" height="68.64262" viewBox="0,0,372.21489,68.64262"><g transform="translate(-53.89255,-145.67869)"><g data-paper-data="{&quot;isPaintingLayer&quot;:true}" fill-rule="nonzero" stroke-linecap="butt" stroke-linejoin="miter" stroke-dasharray="" style="mix-blend-mode: normal"><path d="M425.00973,146.42869c0.19313,0 0.34772,0.15458 0.34772,0.34772v66.4453c0,0.19313 -0.15458,0.34961 -0.34772,0.34961h-370.01757c-0.19313,0 -0.34961,-0.15647 -0.34961,-0.34961v-66.4453c0,-0.19313 0.15647,-0.34772 0.34961,-0.34772z" fill="#1e1e1e" stroke="#1eff00" stroke-width="1.5" stroke-miterlimit="4" stroke-dashoffset="17.35"/><path d="M65.54688,152.49023c0.34492,0 0.6291,0.097 0.85547,0.29102c0.23713,0.19402 0.41658,0.45201 0.53516,0.77539l4.05859,10.44531c0.0539,0.14022 0.08008,0.27504 0.08008,0.4043c0,0.09701 -0.0165,0.20359 -0.04883,0.32227c-0.03235,0.11842 -0.08667,0.23679 -0.16211,0.35546c-0.07546,0.10759 -0.18215,0.1998 -0.32226,0.2754c-0.12936,0.07533 -0.29231,0.11328 -0.48633,0.11328c-0.22637,0 -0.43489,-0.07085 -0.62891,-0.21094c-0.19403,-0.14022 -0.33565,-0.32256 -0.42187,-0.54883l-1.06641,-3.07227h-4.65625l-1.03516,3.23438c-0.06465,0.19397 -0.183,0.34333 -0.35547,0.45117c-0.17247,0.09701 -0.36161,0.14649 -0.56641,0.14649c-0.29103,0 -0.54418,-0.097 -0.75977,-0.29102c-0.2048,-0.19402 -0.30664,-0.43067 -0.30664,-0.71094c0,-0.10784 0.0165,-0.21158 0.04883,-0.30859l3.84766,-10.60547c0.11856,-0.32338 0.29121,-0.58333 0.51758,-0.77734c0.23714,-0.19402 0.52812,-0.29102 0.87305,-0.29102zM104.79883,152.49023c0.34492,0 0.63105,0.097 0.85742,0.29102c0.23713,0.19402 0.41463,0.45201 0.5332,0.77539l4.0586,10.44531c0.05389,0.14022 0.08007,0.27504 0.08007,0.4043c0,0.09701 -0.01454,0.20359 -0.04687,0.32227c-0.03233,0.11842 -0.08664,0.23679 -0.16211,0.35546c-0.07546,0.10759 -0.1841,0.1998 -0.32422,0.2754c-0.12935,0.07533 -0.29036,0.11328 -0.48437,0.11328c-0.22637,0 -0.43685,-0.07085 -0.63086,-0.21094c-0.19403,-0.14022 -0.3337,-0.32256 -0.41992,-0.54883l-1.06836,-3.07227h-4.65625l-1.03321,3.23438c-0.06465,0.19397 -0.18495,0.34333 -0.35742,0.45117c-0.17246,0.09701 -0.35965,0.14649 -0.56445,0.14649c-0.29104,0 -0.54418,-0.097 -0.75977,-0.29102c-0.2048,-0.19402 -0.30859,-0.43067 -0.30859,-0.71094c0,-0.10784 0.0165,-0.21158 0.04883,-0.30859l3.84765,-10.60547c0.11856,-0.32338 0.29121,-0.58333 0.51758,-0.77734c0.23714,-0.19402 0.52812,-0.29102 0.87305,-0.29102zM73.73438,152.92578c0.20479,0.12934 0.39198,0.31847 0.56445,0.56641l5.78906,8.68164v-8.50391c0,-0.26953 0.09213,-0.4965 0.27539,-0.67969c0.18324,-0.18318 0.40826,-0.27539 0.67773,-0.27539c0.26946,0 0.49643,0.09221 0.67969,0.27539c0.18323,0.18324 0.27539,0.41021 0.27539,0.67969v10.84961c0,0.2587 -0.09216,0.48372 -0.27539,0.67774c-0.18324,0.18318 -0.41021,0.27539 -0.67969,0.27539c-0.30182,0 -0.55497,-0.0641 -0.75977,-0.19336c-0.2048,-0.14012 -0.38714,-0.3341 -0.54883,-0.58203l-5.80469,-8.61915v8.43946c0,0.25869 -0.09213,0.48567 -0.27539,0.67969c-0.18324,0.18318 -0.41021,0.27539 -0.67969,0.27539c-0.2587,0 -0.48372,-0.09221 -0.67773,-0.27539c-0.18323,-0.19402 -0.27539,-0.421 -0.27539,-0.67969v-10.84766c0,-0.26953 0.09216,-0.4965 0.27539,-0.67969c0.19402,-0.18318 0.41904,-0.27539 0.67773,-0.27539c0.30182,0 0.55692,0.07085 0.76172,0.21094zM84.88867,152.99023c0.19402,0.18324 0.29102,0.41021 0.29102,0.67969c0,0.2587 -0.097,0.48372 -0.29102,0.67774c-0.18324,0.18318 -0.40341,0.27539 -0.66211,0.27539c-0.26948,0 -0.5013,-0.09221 -0.69531,-0.27539c-0.18323,-0.19402 -0.27539,-0.41904 -0.27539,-0.67774c0,-0.26953 0.09216,-0.4965 0.27539,-0.67969c0.19402,-0.18318 0.42584,-0.27539 0.69531,-0.27539c0.25871,0 0.47888,0.09221 0.66211,0.27539zM88.53711,153.10352c0.22637,0.24791 0.40871,0.55052 0.54883,0.90625l3.42773,8.85937l3.42773,-8.85937c0.14012,-0.35571 0.31957,-0.65832 0.53516,-0.90625c0.22636,-0.2587 0.52703,-0.38868 0.9043,-0.38868c0.33414,0 0.61543,0.11837 0.8418,0.35547c0.23715,0.22637 0.35547,0.5028 0.35547,0.82617v10.71875c0,0.23703 -0.08729,0.44264 -0.25977,0.61524c-0.1617,0.16176 -0.36053,0.24219 -0.59766,0.24219c-0.23713,0 -0.43597,-0.08043 -0.59766,-0.24219c-0.16169,-0.17252 -0.24219,-0.37813 -0.24219,-0.61524v-8.29492l-3.1543,8.21485c-0.10779,0.28013 -0.26395,0.50513 -0.46875,0.67773c-0.19402,0.17235 -0.44233,0.25977 -0.74414,0.25977c-0.30182,0 -0.55497,-0.08742 -0.75977,-0.25977c-0.19402,-0.17247 -0.34338,-0.39747 -0.45117,-0.67773l-3.1543,-8.21485v8.29492c0,0.23703 -0.0805,0.44264 -0.24219,0.61524c-0.1617,0.16176 -0.36053,0.24219 -0.59766,0.24219c-0.23713,0 -0.44276,-0.08043 -0.61523,-0.24219c-0.16169,-0.17252 -0.24219,-0.37813 -0.24219,-0.61524v-10.71875c0,-0.32347 0.11347,-0.5999 0.33984,-0.82617c0.23714,-0.2371 0.52327,-0.35547 0.85742,-0.35547c0.37726,0 0.67309,0.12998 0.88867,0.38868zM63.81641,159.92578h3.52539l-1.85937,-5.31836zM103.07031,159.92578h3.52344l-1.85937,-5.31836zM84.82422,156.36914c0.16169,0.16174 0.24414,0.36251 0.24414,0.59961v7.64648c0,0.23703 -0.08245,0.44264 -0.24414,0.61524c-0.1617,0.16176 -0.36053,0.24219 -0.59766,0.24219c-0.23713,0 -0.44276,-0.08043 -0.61523,-0.24219c-0.16169,-0.17252 -0.24219,-0.37813 -0.24219,-0.61524v-7.64648c0,-0.23708 0.0805,-0.43785 0.24219,-0.59961c0.17247,-0.17235 0.37811,-0.25781 0.61523,-0.25781c0.23714,0 0.43597,0.08546 0.59766,0.25781zM67.03321,167.38477c0.4635,0 0.90579,0.08042 1.32617,0.24218c0.43116,0.15091 0.80944,0.36818 1.13281,0.64844c0.32338,0.26948 0.58137,0.59148 0.77539,0.96875c0.19402,0.37725 0.29102,0.78172 0.29102,1.21289c0,0.45274 -0.06402,0.83585 -0.19336,1.14844c-0.11858,0.31254 -0.27473,0.57054 -0.46875,0.77539c-0.19403,0.20487 -0.41615,0.37269 -0.66406,0.50195c-0.24792,0.11868 -0.49623,0.22721 -0.74414,0.32422c0.19402,0.06476 0.42584,0.17134 0.69531,0.32227c0.28026,0.14012 0.5499,0.34091 0.80859,0.59961c0.25871,0.25869 0.48083,0.59232 0.66406,1.00195c0.18326,0.39882 0.27344,0.88863 0.27344,1.4707c0,0.52818 -0.10668,1.00829 -0.32227,1.43946c-0.21558,0.43114 -0.50171,0.80264 -0.85742,1.11523c-0.35571,0.31247 -0.76986,0.55592 -1.24414,0.72852c-0.4635,0.17234 -0.95526,0.25781 -1.47266,0.25781h-4.94726c-0.15091,0 -0.30222,-0.02137 -0.45313,-0.06446c-0.15089,-0.05392 -0.29056,-0.12955 -0.41992,-0.22656c-0.11858,-0.10771 -0.21558,-0.24253 -0.29102,-0.40429c-0.07546,-0.16179 -0.11328,-0.35577 -0.11328,-0.58204v-10.21875c0,-0.097 0.0165,-0.21537 0.04883,-0.35546c0.03235,-0.15101 0.09151,-0.29067 0.17773,-0.41993c0.09701,-0.14009 0.22698,-0.25367 0.38867,-0.33984c0.17246,-0.09701 0.38779,-0.14648 0.64648,-0.14648zM94.625,167.72461c0.23715,0.22637 0.35547,0.50084 0.35547,0.82422c0,0.32345 -0.11832,0.5999 -0.35547,0.82617c-0.22636,0.22627 -0.5028,0.33789 -0.82617,0.33789c-0.31258,0 -0.58707,-0.11162 -0.82422,-0.33789c-0.22637,-0.22637 -0.33984,-0.50282 -0.33984,-0.82617c0,-0.32348 0.11347,-0.59795 0.33984,-0.82422c0.23714,-0.22627 0.51163,-0.33984 0.82422,-0.33984c0.32336,0 0.5998,0.11357 0.82617,0.33984zM63.28321,172.47852h3.31445c0.20481,0 0.3988,-0.03795 0.58203,-0.11329c0.18326,-0.07559 0.33941,-0.17738 0.46875,-0.30664c0.14012,-0.14019 0.2468,-0.30314 0.32226,-0.48632c0.07546,-0.18321 0.11328,-0.37719 0.11328,-0.58204c0,-0.20485 -0.03782,-0.39885 -0.11328,-0.58203c-0.07546,-0.18333 -0.18215,-0.33949 -0.32226,-0.46875c-0.12934,-0.14034 -0.28549,-0.24692 -0.46875,-0.32226c-0.18325,-0.07534 -0.37723,-0.11328 -0.58203,-0.11328h-3.31445zM78.99805,171.10352c0.2587,0.21558 0.38867,0.50655 0.38867,0.87304c0,0.10785 -0.0165,0.21159 -0.04883,0.3086l-2.97461,9.27929c-0.1509,0.45271 -0.34004,0.80967 -0.56641,1.06836c-0.21558,0.25872 -0.45224,0.45756 -0.71094,0.59766c-0.2587,0.14035 -0.53319,0.22751 -0.82422,0.25976c-0.28025,0.04309 -0.54989,0.06446 -0.80859,0.06446h-0.8418c-0.2048,0 -0.38714,-0.03795 -0.54883,-0.11328c-0.1509,-0.07534 -0.28572,-0.17234 -0.4043,-0.29102c-0.10779,-0.11853 -0.19508,-0.25337 -0.25976,-0.4043c-0.0539,-0.14012 -0.08008,-0.28657 -0.08008,-0.4375c0,-0.21556 0.06402,-0.3979 0.19336,-0.54882c0.14013,-0.15093 0.3574,-0.22657 0.64844,-0.22657v-0.00195c0.28026,0 0.5431,-0.00555 0.79102,-0.01563c0.2587,-0.01058 0.48567,-0.04852 0.67969,-0.11328c0.19402,-0.06475 0.34533,-0.16654 0.45312,-0.30664c0.11858,-0.12933 0.17773,-0.31847 0.17773,-0.5664c0,-0.15098 -0.02134,-0.31682 -0.06445,-0.5c-0.04311,-0.18323 -0.11393,-0.39855 -0.21094,-0.64649l-2.69922,-6.85547c-0.06468,-0.16176 -0.09766,-0.33439 -0.09766,-0.51757c0,-0.12937 0.02134,-0.26421 0.06445,-0.4043c0.04311,-0.14027 0.10714,-0.27025 0.19336,-0.38867c0.09701,-0.11868 0.22214,-0.21568 0.37305,-0.29102c0.16168,-0.08617 0.35566,-0.1289 0.58203,-0.1289c0.23714,-0.00001 0.45731,0.06409 0.66211,0.19335c0.20479,0.11863 0.34446,0.29611 0.41992,0.53321l1.99023,6.14453l1.55078,-6.12695c0.06467,-0.24799 0.1995,-0.43715 0.4043,-0.56641c0.21559,-0.12926 0.4474,-0.19336 0.69531,-0.19336c0.32337,0 0.61435,0.10658 0.87305,0.32227zM86.00977,170.87891c0.12936,0.05392 0.23799,0.14613 0.32422,0.27539l1.66406,2.60156l1.65039,-2.60156c0.08622,-0.12926 0.18806,-0.22147 0.30664,-0.27539c0.12935,-0.06476 0.26902,-0.09766 0.41992,-0.09766c0.26948,0 0.5013,0.09221 0.69531,0.27539c0.2048,0.18323 0.30664,0.40825 0.30664,0.67774c0,0.17249 -0.04752,0.3306 -0.14453,0.4707l-2.21484,3.08789l2.61914,3.31445c0.05379,0.06451 0.09161,0.1334 0.11328,0.20899c0.02167,0.07559 0.03125,0.15796 0.03125,0.24414c0,0.097 -0.02134,0.20863 -0.06445,0.33789c-0.04311,0.11842 -0.11198,0.23679 -0.20898,0.35547c-0.08622,0.10784 -0.20456,0.20005 -0.35547,0.27539c-0.1509,0.07534 -0.3352,0.11328 -0.55078,0.11328c-0.1509,0 -0.28572,-0.02616 -0.4043,-0.08008c-0.11858,-0.05392 -0.22042,-0.14613 -0.30664,-0.27539l-1.89258,-2.94336l-1.90625,2.94336c-0.08622,0.12926 -0.19002,0.22147 -0.30859,0.27539c-0.11857,0.05392 -0.25339,0.08008 -0.4043,0.08008c-0.12935,0 -0.26418,-0.02137 -0.4043,-0.06446c-0.12933,-0.05392 -0.25252,-0.12476 -0.37109,-0.21093c-0.11855,-0.08643 -0.21555,-0.19301 -0.29102,-0.32227c-0.07546,-0.14017 -0.11328,-0.30315 -0.11328,-0.48633c0,-0.08642 0.01153,-0.16685 0.0332,-0.24218c0.02154,-0.07534 0.05938,-0.14423 0.11328,-0.20899l2.61914,-3.3164l-2.2168,-3.08594c-0.09701,-0.14025 -0.14453,-0.29836 -0.14453,-0.4707c0,-0.26954 0.097,-0.49456 0.29101,-0.67774c0.2048,-0.18318 0.44146,-0.27539 0.71094,-0.27539c0.1509,0 0.28572,0.0329 0.4043,0.09766zM94.625,171.34766c0.23715,0.22636 0.35547,0.50086 0.35547,0.82422v6.80664c0,0.32345 -0.11832,0.59795 -0.35547,0.82421c-0.22636,0.22627 -0.5028,0.33985 -0.82617,0.33985c-0.32336,0 -0.59785,-0.11358 -0.82422,-0.33985c-0.22637,-0.23712 -0.33984,-0.51162 -0.33984,-0.82421v-6.80664c0,-0.32346 0.11347,-0.59796 0.33984,-0.82422c0.23714,-0.23711 0.51163,-0.35743 0.82422,-0.35743c0.32336,0 0.5998,0.12032 0.82617,0.35743zM63.28321,178.00781h3.37891c0.24792,0 0.47973,-0.04752 0.69531,-0.14453c0.22636,-0.09693 0.42034,-0.22691 0.58203,-0.38867c0.16169,-0.16159 0.29166,-0.35072 0.38867,-0.56641c0.09701,-0.21556 0.14453,-0.44737 0.14453,-0.69531c0,-0.24781 -0.04752,-0.47963 -0.14453,-0.69531c-0.09701,-0.22629 -0.22698,-0.42027 -0.38867,-0.58203c-0.16168,-0.16169 -0.35566,-0.28971 -0.58203,-0.38672c-0.21559,-0.09701 -0.4474,-0.14649 -0.69531,-0.14649h-3.37891z" fill="#1eff00" stroke="none" stroke-width="1.01053" stroke-miterlimit="10" stroke-dashoffset="0"/></g></g></svg>