<svg version="1.1" xmlns="http://www.w3.org/2000/svg" xmlns:xlink="http://www.w3.org/1999/xlink" width="73.93388" height="95.9062" viewBox="0,0,73.93388,95.9062"><g transform="translate(-203.03306,-132.0469)"><g data-paper-data="{&quot;isPaintingLayer&quot;:true}" fill-rule="nonzero" stroke="none" stroke-linecap="butt" stroke-linejoin="miter" stroke-miterlimit="10" stroke-dasharray="" stroke-dashoffset="0" style="mix-blend-mode: normal"><path d="M249.847,145.501c3.474,1.476 6.498,3.721 9.072,6.736c2.574,3.016 4.569,6.801 5.984,11.356c1.48,4.555 2.219,9.913 2.219,16.072c0,5.197 -0.643,10.072 -1.93,14.627c-1.286,4.491 -3.152,8.438 -5.597,11.838c-2.445,3.336 -5.469,5.966 -9.073,7.891c-3.603,1.924 -7.752,2.886 -12.449,2.886c-3.989,0 -7.464,-0.737 -10.424,-2.213c-2.895,-1.475 -5.308,-3.176 -7.238,-5.101c-1.93,-1.989 -3.379,-3.944 -4.344,-5.869c-0.9,-1.989 -1.349,-3.466 -1.349,-4.428c0,-1.476 0.547,-2.629 1.64,-3.463c1.094,-0.834 2.252,-1.252 3.475,-1.252c0.772,0 1.48,0.193 2.123,0.578c0.643,0.321 1.126,0.899 1.447,1.733c0.644,1.668 1.383,3.207 2.219,4.619c0.901,1.411 1.932,2.63 3.09,3.656c1.222,0.962 2.637,1.731 4.246,2.309c1.609,0.577 3.506,0.867 5.693,0.867c1.738,0 3.637,-0.29 5.696,-0.867c2.059,-0.642 3.989,-1.86 5.791,-3.657c1.801,-1.796 3.312,-4.266 4.535,-7.41c1.222,-3.208 1.834,-7.409 1.834,-12.605c-0.515,0.641 -1.319,1.41 -2.412,2.308c-1.03,0.834 -2.317,1.668 -3.862,2.502c-1.544,0.77 -3.345,1.444 -5.404,2.022c-1.995,0.577 -4.215,0.865 -6.66,0.865c-2.831,0 -5.726,-0.544 -8.686,-1.635c-2.959,-1.09 -5.662,-2.663 -8.107,-4.716c-2.381,-2.053 -4.343,-4.524 -5.887,-7.411c-1.48,-2.887 -2.22,-6.157 -2.22,-9.814c0,-4.042 0.676,-7.604 2.027,-10.684c1.351,-3.079 3.186,-5.644 5.502,-7.697c2.316,-2.117 4.986,-3.69 8.01,-4.717c3.088,-1.09 6.369,-1.635 9.843,-1.635c4.054,0 7.786,0.769 11.196,2.309zM232.476,152.816c-1.931,0.769 -3.636,1.86 -5.116,3.271c-1.48,1.411 -2.669,3.079 -3.57,5.004c-0.836,1.86 -1.256,3.881 -1.256,6.062c0,2.246 0.42,4.332 1.256,6.256c0.901,1.925 2.09,3.626 3.57,5.102c1.545,1.411 3.346,2.533 5.405,3.367c2.059,0.834 4.246,1.252 6.562,1.252c2.188,0 4.214,-0.386 6.08,-1.156c1.93,-0.77 3.604,-1.829 5.02,-3.176c1.415,-1.412 2.54,-3.048 3.377,-4.908c0.836,-1.861 1.256,-3.881 1.256,-6.063c0,-2.309 -0.451,-4.427 -1.352,-6.351c-0.836,-1.989 -1.995,-3.72 -3.475,-5.196c-1.479,-1.475 -3.216,-2.63 -5.211,-3.464c-1.994,-0.835 -4.119,-1.252 -6.371,-1.252c-2.187,0 -4.245,0.417 -6.175,1.252z" data-paper-data="{&quot;origPos&quot;:null}" fill="#ffffff" stroke-width="0"/><path d="M203.03306,227.9531v-95.9062h73.93388v95.9062z" fill="none" stroke-width="none"/></g></g></svg>