<svg version="1.1" xmlns="http://www.w3.org/2000/svg" xmlns:xlink="http://www.w3.org/1999/xlink" width="372.21484" height="68.64258"><g transform="translate(-53.89258,-145.67871)"><g data-paper-data="{&quot;isPaintingLayer&quot;:true}" fill-rule="nonzero" stroke-linecap="butt" stroke-linejoin="miter" stroke-dasharray="" style="mix-blend-mode: normal"><path d="M425.00977,146.42871c0.19313,0 0.34765,0.15452 0.34765,0.34766v66.44531c0,0.19313 -0.15452,0.34961 -0.34765,0.34961h-370.01758c-0.19313,0 -0.34961,-0.15648 -0.34961,-0.34961v-66.44531c0,-0.19313 0.15648,-0.34766 0.34961,-0.34766z" data-paper-data="{&quot;origPos&quot;:null}" id="rect815-0-0-8-7" fill="#1e1e1e" stroke="#1eff00" stroke-width="1.5" stroke-miterlimit="4" stroke-dashoffset="17.35"/><path d="M69.10262,187.82987c1.23765,0 2.26406,4.17887 3.26532,4.90636c1.0013,0.72748 5.29285,0.41227 5.6753,1.58937c0.38245,1.1771 -3.27475,3.44459 -3.6572,4.62164c-0.38245,1.1771 1.24348,5.16117 0.24234,5.88869c-1.0013,0.72745 -4.28796,-2.05005 -5.52561,-2.05005c-1.23765,0 -4.52431,2.7775 -5.52561,2.05005c-1.0013,-0.72752 0.62464,-4.7116 0.24234,-5.88869c-0.38245,-1.17706 -4.03965,-3.44455 -3.6572,-4.62164c0.38245,-1.1771 4.674,-0.86188 5.6753,-1.58937c1.00126,-0.72748 2.02767,-4.90636 3.26532,-4.90636z" data-paper-data="{&quot;origPos&quot;:null}" id="path1428-5-07-2-4" fill="#1eff00" stroke="none" stroke-width="0.85542" stroke-miterlimit="4" stroke-dashoffset="17.35"/><path d="M66.73829,151.83887c0.544,0.16 1.00662,0.37397 1.39062,0.64062c0.39466,0.26666 0.69877,0.5658 0.91211,0.89648c0.21334,0.33066 0.32031,0.66153 0.32031,0.99219c0,0.27742 -0.09511,0.50129 -0.28711,0.67187c-0.18133,0.16 -0.38537,0.24023 -0.60937,0.24023c-0.16001,0 -0.30861,-0.04349 -0.44727,-0.12891c-0.13866,-0.0961 -0.2506,-0.24468 -0.33594,-0.44727c-0.12799,-0.32 -0.29838,-0.57558 -0.51172,-0.76758c-0.20267,-0.20273 -0.43345,-0.35826 -0.68945,-0.46484c-0.24533,-0.11742 -0.50587,-0.19261 -0.7832,-0.22461c-0.27733,-0.04258 -0.54478,-0.0625 -0.80078,-0.0625c-0.384,0 -0.73965,0.04154 -1.07031,0.12695c-0.31999,0.07458 -0.60427,0.18652 -0.84961,0.33594c-0.23467,0.13858 -0.41993,0.31588 -0.55859,0.5293c-0.128,0.20268 -0.19336,0.43647 -0.19336,0.70312c0,0.36276 0.10697,0.6619 0.32031,0.89648c0.224,0.23466 0.51819,0.4318 0.88086,0.5918c0.36267,0.15992 0.77376,0.2986 1.23242,0.41602c0.45867,0.11742 0.92625,0.23919 1.40625,0.36719c0.49067,0.12792 0.96712,0.28343 1.42578,0.46484c0.45867,0.17066 0.8678,0.39453 1.23047,0.67187c0.36266,0.27734 0.65189,0.61812 0.86523,1.02344c0.224,0.40534 0.33594,0.90162 0.33594,1.48828c0,0.65068 -0.12877,1.21531 -0.38477,1.69531c-0.24533,0.48 -0.5861,0.88117 -1.02344,1.20117c-0.43733,0.32 -0.95044,0.55875 -1.53711,0.71875c-0.58666,0.16 -1.20976,0.24023 -1.87109,0.24023c-0.94933,0 -1.75964,-0.13175 -2.43164,-0.39844c-0.66133,-0.27732 -1.20119,-0.60819 -1.61719,-0.99219c-0.416,-0.39468 -0.72011,-0.80576 -0.91211,-1.23242c-0.192,-0.43734 -0.28711,-0.81672 -0.28711,-1.13672c0,-0.384 0.09511,-0.65641 0.28711,-0.81641c0.20266,-0.16 0.41166,-0.23828 0.625,-0.23828c0.18133,0 0.34675,0.05836 0.49609,0.17578c0.14934,0.10658 0.23948,0.28193 0.27148,0.52734c0.06399,0.40534 0.20267,0.76295 0.41602,1.07227c0.224,0.30927 0.49641,0.56979 0.81641,0.7832c0.32,0.20273 0.6776,0.35826 1.07227,0.46484c0.39467,0.10658 0.79884,0.16016 1.21484,0.16016c0.33067,0 0.67339,-0.0387 1.02539,-0.11328c0.36267,-0.08542 0.68661,-0.20719 0.97461,-0.36719c0.29866,-0.17068 0.53936,-0.38959 0.7207,-0.65625c0.192,-0.26666 0.28711,-0.58564 0.28711,-0.95898c0,-0.40534 -0.11194,-0.74115 -0.33594,-1.00781c-0.21333,-0.26658 -0.50062,-0.49241 -0.86328,-0.67383c-0.352,-0.18124 -0.75813,-0.32985 -1.2168,-0.44726c-0.45867,-0.128 -0.92625,-0.25677 -1.40625,-0.38477c-0.48,-0.128 -0.94954,-0.27164 -1.4082,-0.43164c-0.45866,-0.17068 -0.86976,-0.38267 -1.23242,-0.63867c-0.352,-0.26666 -0.63928,-0.5876 -0.86328,-0.96094c-0.21334,-0.384 -0.32031,-0.85851 -0.32031,-1.42383c0,-0.53334 0.11194,-1.00783 0.33594,-1.42383c0.23467,-0.416 0.55365,-0.76864 0.95898,-1.05664c0.40533,-0.28792 0.88674,-0.50683 1.44141,-0.65625c0.55467,-0.14942 1.16093,-0.22266 1.82226,-0.22266c0.64,0 1.22839,0.07828 1.76172,0.23828zM82.41798,152.12793c0.768,0.352 1.41979,0.82651 1.95312,1.42383c0.544,0.59734 0.96005,1.29074 1.24805,2.08008c0.29867,0.78932 0.44726,1.62141 0.44726,2.49609c0,0.88532 -0.1486,1.72238 -0.44726,2.51172c-0.288,0.78934 -0.70405,1.48276 -1.24805,2.08008c-0.53333,0.59734 -1.18512,1.07183 -1.95312,1.42383c-0.75733,0.352 -1.60926,0.5293 -2.55859,0.5293c-0.94933,0 -1.80817,-0.1773 -2.57617,-0.5293c-0.75733,-0.352 -1.40912,-0.82649 -1.95312,-1.42383c-0.53333,-0.59732 -0.94938,-1.29074 -1.24805,-2.08008c-0.288,-0.78934 -0.43164,-1.6264 -0.43164,-2.51172c0,-0.87468 0.14364,-1.70678 0.43164,-2.49609c0.29867,-0.78934 0.71471,-1.48274 1.24805,-2.08008c0.544,-0.59732 1.19579,-1.07183 1.95312,-1.42383c0.768,-0.352 1.62684,-0.52734 2.57617,-0.52734c0.94933,0 1.80126,0.17534 2.55859,0.52734zM96.70704,151.83887c0.544,0.16 1.00662,0.37397 1.39062,0.64062c0.39466,0.26666 0.69877,0.5658 0.91211,0.89648c0.21334,0.33066 0.32031,0.66153 0.32031,0.99219c0,0.27742 -0.09511,0.50129 -0.28711,0.67187c-0.18133,0.16 -0.38537,0.24023 -0.60937,0.24023c-0.16001,0 -0.30861,-0.04349 -0.44727,-0.12891c-0.13866,-0.0961 -0.2506,-0.24468 -0.33594,-0.44727c-0.12799,-0.32 -0.29838,-0.57558 -0.51172,-0.76758c-0.20267,-0.20273 -0.43345,-0.35826 -0.68945,-0.46484c-0.24533,-0.11742 -0.50587,-0.19261 -0.7832,-0.22461c-0.27733,-0.04258 -0.54478,-0.0625 -0.80078,-0.0625c-0.384,0 -0.73965,0.04154 -1.07031,0.12695c-0.31999,0.07458 -0.60427,0.18652 -0.84961,0.33594c-0.23467,0.13858 -0.41993,0.31588 -0.55859,0.5293c-0.128,0.20268 -0.19336,0.43647 -0.19336,0.70312c0,0.36276 0.10697,0.6619 0.32031,0.89648c0.224,0.23466 0.51819,0.4318 0.88086,0.5918c0.36267,0.15992 0.77376,0.2986 1.23242,0.41602c0.45867,0.11742 0.92625,0.23919 1.40625,0.36719c0.49067,0.12792 0.96712,0.28343 1.42578,0.46484c0.45867,0.17066 0.8678,0.39453 1.23047,0.67187c0.36266,0.27734 0.65189,0.61812 0.86523,1.02344c0.224,0.40534 0.33594,0.90162 0.33594,1.48828c0,0.65068 -0.12877,1.21531 -0.38477,1.69531c-0.24533,0.48 -0.5861,0.88117 -1.02344,1.20117c-0.43733,0.32 -0.95044,0.55875 -1.53711,0.71875c-0.58667,0.16 -1.20976,0.24023 -1.87109,0.24023c-0.94933,0 -1.75964,-0.13175 -2.43164,-0.39844c-0.66133,-0.27732 -1.20119,-0.60819 -1.61719,-0.99219c-0.416,-0.39468 -0.72011,-0.80576 -0.91211,-1.23242c-0.192,-0.43734 -0.28711,-0.81672 -0.28711,-1.13672c0,-0.384 0.09511,-0.65641 0.28711,-0.81641c0.20266,-0.16 0.41166,-0.23828 0.625,-0.23828c0.18133,0 0.34675,0.05836 0.49609,0.17578c0.14934,0.10658 0.23948,0.28193 0.27148,0.52734c0.06399,0.40534 0.20267,0.76295 0.41602,1.07227c0.224,0.30927 0.49641,0.56979 0.81641,0.7832c0.32,0.20273 0.6776,0.35826 1.07227,0.46484c0.39467,0.10658 0.79884,0.16016 1.21484,0.16016c0.33066,0 0.67339,-0.0387 1.02539,-0.11328c0.36267,-0.08542 0.68661,-0.20719 0.97461,-0.36719c0.29866,-0.17068 0.53936,-0.38959 0.7207,-0.65625c0.192,-0.26666 0.28711,-0.58564 0.28711,-0.95898c0,-0.40534 -0.11194,-0.74115 -0.33594,-1.00781c-0.21333,-0.26658 -0.50061,-0.49241 -0.86328,-0.67383c-0.352,-0.18124 -0.75813,-0.32985 -1.2168,-0.44726c-0.45867,-0.128 -0.92625,-0.25677 -1.40625,-0.38477c-0.48,-0.128 -0.94953,-0.27164 -1.4082,-0.43164c-0.45866,-0.17068 -0.86976,-0.38267 -1.23242,-0.63867c-0.352,-0.26666 -0.63928,-0.5876 -0.86328,-0.96094c-0.21334,-0.384 -0.32031,-0.85851 -0.32031,-1.42383c0,-0.53334 0.11194,-1.00783 0.33594,-1.42383c0.23467,-0.416 0.55365,-0.76864 0.95898,-1.05664c0.40533,-0.28792 0.88674,-0.50683 1.44141,-0.65625c0.55467,-0.14942 1.16093,-0.22266 1.82226,-0.22266c0.64,0 1.22838,0.07828 1.76172,0.23828zM78.16212,153.64746c-0.52266,0.224 -0.98033,0.54494 -1.375,0.96094c-0.384,0.416 -0.68811,0.92219 -0.91211,1.51953c-0.224,0.59734 -0.33594,1.264 -0.33594,2c0,0.736 0.11194,1.40268 0.33594,2c0.224,0.59734 0.52811,1.1085 0.91211,1.53516c0.39467,0.4161 0.85233,0.74198 1.375,0.97656c0.52267,0.224 1.08927,0.33594 1.69727,0.33594c0.608,0 1.17264,-0.11194 1.69531,-0.33594c0.52266,-0.23468 0.97537,-0.56056 1.35937,-0.97656c0.39467,-0.42666 0.70569,-0.93781 0.92969,-1.53516c0.224,-0.59732 0.33594,-1.264 0.33594,-2c0,-0.736 -0.11194,-1.40266 -0.33594,-2c-0.224,-0.59734 -0.53502,-1.10353 -0.92969,-1.51953c-0.384,-0.416 -0.83671,-0.73694 -1.35937,-0.96094c-0.52267,-0.23458 -1.08731,-0.35156 -1.69531,-0.35156c-0.608,0 -1.1746,0.11698 -1.69727,0.35156zM72.6504,162.47949c0.23466,0.224 0.35156,0.49641 0.35156,0.81641c0,0.30942 -0.1169,0.58182 -0.35156,0.81641c-0.224,0.224 -0.49145,0.33594 -0.80078,0.33594c-0.32001,0 -0.59737,-0.11194 -0.83203,-0.33594c-0.224,-0.23466 -0.33594,-0.50706 -0.33594,-0.81641c0,-0.32 0.11194,-0.59241 0.33594,-0.81641c0.23467,-0.23458 0.51203,-0.35156 0.83203,-0.35156c0.30933,0 0.57678,0.11698 0.80078,0.35156zM88.68165,162.47949c0.23466,0.224 0.35156,0.49641 0.35156,0.81641c0,0.30942 -0.1169,0.58182 -0.35156,0.81641c-0.224,0.224 -0.49145,0.33594 -0.80078,0.33594c-0.32001,0 -0.59737,-0.11194 -0.83203,-0.33594c-0.224,-0.23466 -0.33594,-0.50706 -0.33594,-0.81641c0,-0.32 0.11194,-0.59241 0.33594,-0.81641c0.23467,-0.23458 0.51203,-0.35156 0.83203,-0.35156c0.30933,0 0.57678,0.11698 0.80078,0.35156zM66.28907,167.2959c0.45867,0 0.8965,0.08023 1.3125,0.24023c0.42667,0.14934 0.79914,0.36331 1.11914,0.64062c0.32,0.26668 0.57753,0.58567 0.76953,0.95898c0.192,0.37334 0.28711,0.77256 0.28711,1.19922c0,0.448 -0.06341,0.82738 -0.19141,1.13672c-0.11733,0.30942 -0.27284,0.56499 -0.46484,0.76758c-0.19199,0.20266 -0.41091,0.36809 -0.65625,0.49609c-0.24532,0.11742 -0.49099,0.22431 -0.73633,0.32031c0.192,0.064 0.42279,0.17089 0.68945,0.32031c0.27733,0.13866 0.54283,0.3358 0.79883,0.5918c0.25599,0.256 0.47491,0.58685 0.65625,0.99219c0.18134,0.39466 0.27148,0.88103 0.27148,1.45703c0,0.52266 -0.10502,0.99714 -0.31836,1.42383c-0.21333,0.42666 -0.49761,0.79417 -0.84961,1.10352c-0.352,0.30942 -0.76113,0.54817 -1.23047,0.71875c-0.45867,0.17058 -0.94503,0.25781 -1.45703,0.25781l-4.89648,-0.00195c-0.14932,0 -0.29792,-0.01992 -0.44727,-0.0625c-0.14933,-0.05342 -0.28801,-0.12861 -0.41601,-0.22461c-0.11734,-0.10666 -0.21245,-0.24039 -0.28711,-0.40039c-0.07466,-0.16 -0.11328,-0.35217 -0.11328,-0.57617v-10.11133c0,-0.096 0.01683,-0.21298 0.04883,-0.35156c0.032,-0.14934 0.09044,-0.28802 0.17578,-0.41602c0.096,-0.13858 0.22476,-0.25052 0.38476,-0.33594c0.17067,-0.096 0.38267,-0.14453 0.63867,-0.14453zM91.96681,167.63184c0.23466,0.224 0.35156,0.49641 0.35156,0.81641c0,0.32 -0.1169,0.59241 -0.35156,0.81641c-0.224,0.224 -0.49641,0.33594 -0.81641,0.33594c-0.30934,0 -0.57979,-0.11194 -0.81445,-0.33594c-0.224,-0.224 -0.33594,-0.49641 -0.33594,-0.81641c0,-0.32 0.11194,-0.59241 0.33594,-0.81641c0.23467,-0.224 0.50512,-0.33594 0.81445,-0.33594c0.32,0 0.59241,0.11194 0.81641,0.33594zM62.57813,172.33496h3.2793c0.20266,0 0.39483,-0.03675 0.57617,-0.11133c0.18133,-0.07458 0.33489,-0.17669 0.46289,-0.30469c0.13868,-0.13858 0.24565,-0.2971 0.32031,-0.47851c0.07466,-0.18142 0.11328,-0.37359 0.11328,-0.57617c0,-0.20258 -0.03862,-0.39475 -0.11328,-0.57617c-0.07468,-0.18132 -0.18165,-0.33684 -0.32031,-0.46484c-0.12799,-0.13883 -0.28155,-0.24573 -0.46289,-0.32031c-0.18134,-0.07458 -0.37351,-0.11133 -0.57617,-0.11133h-3.2793zM77.09376,171.07129c0.52267,0.26666 0.94863,0.60247 1.2793,1.00781c0.34133,0.40532 0.59195,0.84316 0.75195,1.3125c0.16,0.46934 0.24023,0.90222 0.24023,1.29688c0,0.37324 -0.07033,0.68232 -0.20898,0.92773c-0.13867,0.24542 -0.34075,0.36719 -0.60742,0.36719h-5.11914c-0.11734,0 -0.20944,0.04349 -0.27344,0.12891c-0.05334,0.07458 -0.08008,0.17473 -0.08008,0.30273c0,0.15992 0.04853,0.34713 0.14453,0.56055c0.096,0.20266 0.23964,0.3998 0.43164,0.5918c0.192,0.192 0.42774,0.35247 0.70508,0.48047c0.288,0.128 0.61885,0.19141 0.99219,0.19141c0.22401,0 0.42114,-0.01992 0.5918,-0.0625c0.17066,-0.05342 0.32917,-0.12861 0.47852,-0.22461c0.14934,-0.096 0.29493,-0.21972 0.43359,-0.36914c0.14932,-0.1599 0.31475,-0.34518 0.49609,-0.55859c0.16001,-0.192 0.34031,-0.28906 0.54297,-0.28906c0.128,0 0.25677,0.0317 0.38477,0.0957c0.128,0.064 0.23994,0.14928 0.33594,0.25586c0.096,0.10683 0.17623,0.23056 0.24023,0.36914c0.064,0.12808 0.0957,0.26181 0.0957,0.40039c0,0.13866 -0.07527,0.3358 -0.22461,0.5918c-0.13866,0.24534 -0.35758,0.49595 -0.65625,0.75195c-0.29866,0.24534 -0.67114,0.46425 -1.11914,0.65625c-0.448,0.18142 -0.98094,0.27148 -1.59961,0.27148c-0.704,0 -1.334,-0.12877 -1.88867,-0.38477c-0.55467,-0.256 -1.0242,-0.59678 -1.4082,-1.02344c-0.37334,-0.43734 -0.66062,-0.93859 -0.86328,-1.50391c-0.192,-0.576 -0.28906,-1.18422 -0.28906,-1.82422c0,-0.64 0.0852,-1.24325 0.25586,-1.80859c0.18133,-0.576 0.45374,-1.07725 0.81641,-1.50391c0.36267,-0.43734 0.81537,-0.78306 1.35937,-1.03906c0.544,-0.256 1.18392,-0.38477 1.91992,-0.38477c0.71467,0 1.3298,0.13867 1.8418,0.41602zM85.25782,170.81543c0.288,0.096 0.5287,0.20794 0.7207,0.33594c0.20266,0.128 0.36809,0.25677 0.49609,0.38477c0.128,0.128 0.21814,0.21807 0.27148,0.27148c0,-0.34142 0.10203,-0.59699 0.30469,-0.76758c0.21333,-0.18142 0.46395,-0.27344 0.75195,-0.27344c0.28801,0 0.53367,0.1021 0.73633,0.30469c0.21334,0.20266 0.32031,0.44833 0.32031,0.73633v8.11133c0,0.55466 -0.12877,1.04103 -0.38477,1.45703c-0.24533,0.42668 -0.57123,0.77737 -0.97656,1.05469c-0.39467,0.2881 -0.84737,0.50204 -1.35937,0.64062c-0.512,0.14942 -1.03007,0.22461 -1.55273,0.22461c-0.37333,0 -0.72402,-0.02187 -1.05469,-0.06445c-0.33067,-0.04258 -0.64664,-0.12282 -0.94531,-0.24023c-0.288,-0.10676 -0.55845,-0.26031 -0.81445,-0.46289c-0.24532,-0.20266 -0.47611,-0.46516 -0.68945,-0.78516c-0.13866,-0.21334 -0.20703,-0.43225 -0.20703,-0.65625c0,-0.28808 0.09511,-0.53375 0.28711,-0.73633c0.20267,-0.192 0.43841,-0.28711 0.70508,-0.28711c0.24533,0 0.43059,0.06845 0.55859,0.20703c0.13867,0.13868 0.28922,0.28922 0.44922,0.44922c0.15999,0.17073 0.36208,0.32431 0.60742,0.46289c0.256,0.13858 0.62351,0.20898 1.10352,0.20898c0.48,0 0.86434,-0.0704 1.15234,-0.20898c0.28799,-0.128 0.50691,-0.30334 0.65625,-0.52734c0.14934,-0.21332 0.2464,-0.46395 0.28906,-0.75195c0.04266,-0.288 0.0625,-0.59211 0.0625,-0.91211v-0.56055c-0.08534,0.11742 -0.19231,0.24114 -0.32031,0.36914c-0.11733,0.11742 -0.27089,0.22935 -0.46289,0.33594c-0.192,0.10683 -0.42774,0.1969 -0.70508,0.27148c-0.27733,0.064 -0.60623,0.0957 -0.99023,0.0957c-0.62933,0 -1.21081,-0.11698 -1.74414,-0.35156c-0.52267,-0.23466 -0.97237,-0.55364 -1.3457,-0.95898c-0.37332,-0.40534 -0.66556,-0.87489 -0.87891,-1.4082c-0.20266,-0.544 -0.30469,-1.11555 -0.30469,-1.71289c0,-0.59734 0.10203,-1.162 0.30469,-1.69531c0.21333,-0.53334 0.50557,-1.00286 0.87891,-1.4082c0.37333,-0.40542 0.82304,-0.72635 1.3457,-0.96094c0.53333,-0.23458 1.11481,-0.35156 1.74414,-0.35156c0.37333,0 0.70223,0.05357 0.99023,0.16016zM99.63087,170.86426c0.36267,0.13858 0.67669,0.33075 0.94336,0.57617c0.27732,0.24534 0.49128,0.54253 0.64062,0.89453c0.16,0.34134 0.24023,0.72568 0.24023,1.15234v5.28125c0,0.30942 -0.11194,0.58182 -0.33594,0.81641c-0.224,0.224 -0.49641,0.33594 -0.81641,0.33594c-0.32001,0 -0.59737,-0.11194 -0.83203,-0.33594c-0.224,-0.23466 -0.33594,-0.50706 -0.33594,-0.81641v-4.51172c0,-0.23476 -0.04853,-0.45367 -0.14453,-0.65625c-0.08532,-0.20258 -0.20222,-0.37793 -0.35156,-0.52734c-0.14934,-0.14916 -0.32469,-0.2681 -0.52734,-0.35351c-0.20267,-0.096 -0.42159,-0.14258 -0.65625,-0.14258c-0.22399,0 -0.44291,0.04658 -0.65625,0.14258c-0.20266,0.08516 -0.378,0.2041 -0.52734,0.35351c-0.14934,0.14942 -0.27314,0.32476 -0.36914,0.52734c-0.08534,0.20276 -0.12695,0.42167 -0.12695,0.65625v4.51172c0,0.30942 -0.11194,0.58182 -0.33594,0.81641c-0.224,0.224 -0.49641,0.33594 -0.81641,0.33594c-0.32001,0 -0.59737,-0.11194 -0.83203,-0.33594c-0.224,-0.23466 -0.33594,-0.50706 -0.33594,-0.81641v-6.96094c0,-0.30934 0.11194,-0.57483 0.33594,-0.79883c0.23467,-0.23458 0.51203,-0.35156 0.83203,-0.35156c0.32,0 0.59241,0.11698 0.81641,0.35156c0.224,0.224 0.33594,0.48949 0.33594,0.79883c0.096,-0.10683 0.22281,-0.2286 0.38281,-0.36719c0.16,-0.13883 0.35217,-0.26256 0.57617,-0.36914c0.224,-0.11742 0.47958,-0.21253 0.76758,-0.28711c0.288,-0.08542 0.6139,-0.12891 0.97656,-0.12891c0.40533,0 0.78968,0.0704 1.15234,0.20898zM108.88087,170.86426c0.36267,0.13858 0.67669,0.33075 0.94336,0.57617c0.27732,0.24534 0.49128,0.54253 0.64062,0.89453c0.16,0.34134 0.24024,0.72568 0.24024,1.15234v5.28125c0,0.30942 -0.11194,0.58182 -0.33594,0.81641c-0.224,0.224 -0.49641,0.33594 -0.81641,0.33594c-0.32,0 -0.59737,-0.11194 -0.83203,-0.33594c-0.224,-0.23466 -0.33593,-0.50706 -0.33593,-0.81641v-4.51172c0,-0.23476 -0.04854,-0.45367 -0.14454,-0.65625c-0.08531,-0.20258 -0.20222,-0.37793 -0.35156,-0.52734c-0.14934,-0.14916 -0.32468,-0.2681 -0.52734,-0.35351c-0.20268,-0.096 -0.42159,-0.14258 -0.65625,-0.14258c-0.22399,0 -0.44291,0.04658 -0.65625,0.14258c-0.20266,0.08516 -0.378,0.2041 -0.52735,0.35351c-0.14934,0.14942 -0.27314,0.32476 -0.36914,0.52734c-0.08534,0.20276 -0.12695,0.42167 -0.12695,0.65625v4.51172c0,0.30942 -0.11194,0.58182 -0.33594,0.81641c-0.224,0.224 -0.49641,0.33594 -0.81641,0.33594c-0.32001,0 -0.59737,-0.11194 -0.83203,-0.33594c-0.224,-0.23466 -0.33594,-0.50706 -0.33594,-0.81641v-6.96094c0,-0.30934 0.11194,-0.57483 0.33594,-0.79883c0.23466,-0.23458 0.51203,-0.35156 0.83203,-0.35156c0.32,0 0.59241,0.11698 0.81641,0.35156c0.224,0.224 0.33594,0.48949 0.33594,0.79883c0.096,-0.10683 0.22281,-0.2286 0.38281,-0.36719c0.16,-0.13883 0.35218,-0.26256 0.57618,-0.36914c0.224,-0.11742 0.47957,-0.21253 0.76757,-0.28711c0.288,-0.08542 0.6139,-0.12891 0.97657,-0.12891c0.40533,0 0.78967,0.0704 1.15234,0.20898zM117.84376,171.07129c0.52267,0.26666 0.94863,0.60247 1.2793,1.00781c0.34133,0.40532 0.59195,0.84316 0.75195,1.3125c0.16,0.46934 0.24023,0.90222 0.24023,1.29688c0,0.37324 -0.07032,0.68232 -0.20898,0.92773c-0.13867,0.24542 -0.34076,0.36719 -0.60742,0.36719h-5.11914c-0.11734,0 -0.20944,0.04349 -0.27344,0.12891c-0.05334,0.07458 -0.08008,0.17473 -0.08008,0.30273c0,0.15992 0.04853,0.34713 0.14453,0.56055c0.096,0.20266 0.23964,0.3998 0.43164,0.5918c0.192,0.192 0.42775,0.35247 0.70508,0.48047c0.288,0.128 0.61886,0.19141 0.99219,0.19141c0.22401,0 0.42114,-0.01992 0.5918,-0.0625c0.17065,-0.05342 0.32917,-0.12861 0.47851,-0.22461c0.14934,-0.096 0.29494,-0.21972 0.4336,-0.36914c0.14932,-0.1599 0.31475,-0.34518 0.49609,-0.55859c0.16001,-0.192 0.34031,-0.28906 0.54297,-0.28906c0.128,0 0.25676,0.0317 0.38476,0.0957c0.128,0.064 0.23994,0.14928 0.33594,0.25586c0.096,0.10683 0.17624,0.23056 0.24024,0.36914c0.064,0.12808 0.0957,0.26181 0.0957,0.40039c0,0.13866 -0.07527,0.3358 -0.22461,0.5918c-0.13867,0.24534 -0.35758,0.49595 -0.65625,0.75195c-0.29867,0.24534 -0.67114,0.46425 -1.11914,0.65625c-0.448,0.18142 -0.98094,0.27148 -1.59961,0.27148c-0.704,0 -1.33401,-0.12877 -1.88867,-0.38477c-0.55467,-0.256 -1.02421,-0.59678 -1.40821,-1.02344c-0.37334,-0.43734 -0.66062,-0.93859 -0.86328,-1.50391c-0.192,-0.576 -0.28906,-1.18422 -0.28906,-1.82422c0,-0.64 0.0852,-1.24325 0.25586,-1.80859c0.18133,-0.576 0.45374,-1.07725 0.81641,-1.50391c0.36266,-0.43734 0.81537,-0.78306 1.35937,-1.03906c0.544,-0.256 1.18392,-0.38477 1.91992,-0.38477c0.71467,0 1.3298,0.13867 1.8418,0.41602zM126.20118,170.99121c0.16,0.224 0.24024,0.4865 0.24024,0.78516c0,0.24534 -0.0604,0.43059 -0.17774,0.55859c-0.10667,0.11742 -0.24536,0.20944 -0.41601,0.27344c-0.16,0.064 -0.33535,0.11757 -0.52735,0.16016c-0.19201,0.032 -0.37231,0.07858 -0.54297,0.14258v0.00195c-0.30933,0.11734 -0.55995,0.27089 -0.75195,0.46289c-0.18133,0.18124 -0.32002,0.37838 -0.41601,0.5918c-0.09601,0.20258 -0.16136,0.41158 -0.19336,0.625c-0.032,0.21324 -0.04688,0.41038 -0.04688,0.5918v3.58398c0,0.32 -0.1169,0.59241 -0.35156,0.81641c-0.224,0.224 -0.49641,0.33594 -0.81641,0.33594c-0.30934,0 -0.58175,-0.11194 -0.8164,-0.33594c-0.224,-0.23466 -0.33594,-0.50706 -0.33594,-0.81641v-6.96094c0,-0.30934 0.11194,-0.57483 0.33594,-0.79883c0.23466,-0.23458 0.51203,-0.35156 0.83203,-0.35156c0.32,0 0.5924,0.11698 0.8164,0.35156c0.224,0.224 0.33594,0.48949 0.33594,0.79883c0.096,-0.10683 0.2129,-0.2286 0.35156,-0.36719c0.14934,-0.13883 0.30981,-0.26256 0.48047,-0.36914c0.18134,-0.11742 0.3666,-0.21253 0.5586,-0.28711c0.192,-0.08542 0.38417,-0.12891 0.57617,-0.12891c0.42666,0 0.71589,0.11194 0.86523,0.33594zM91.96681,171.21582c0.23466,0.224 0.35156,0.49641 0.35156,0.81641v6.73633c0,0.32 -0.1169,0.59045 -0.35156,0.81445c-0.224,0.224 -0.49641,0.33789 -0.81641,0.33789c-0.32,0 -0.59045,-0.11389 -0.81445,-0.33789c-0.224,-0.23466 -0.33594,-0.50511 -0.33594,-0.81445v-6.73633c0,-0.32 0.11194,-0.59241 0.33594,-0.81641c0.23467,-0.23458 0.50512,-0.35156 0.81445,-0.35156c0.32,0 0.59241,0.11698 0.81641,0.35156zM74.32423,172.71973c-0.25601,0.10676 -0.46801,0.24543 -0.63867,0.41601c-0.16,0.1599 -0.2838,0.3303 -0.36914,0.51172c-0.08534,0.18142 -0.12695,0.34189 -0.12695,0.48047c0,0.21342 0.08023,0.32031 0.24023,0.32031h3.64648c0.13866,0 0.20898,-0.1021 0.20898,-0.30469c0,-0.13858 -0.04356,-0.29905 -0.12891,-0.48047c-0.07468,-0.18134 -0.19653,-0.35172 -0.36719,-0.51172c-0.16,-0.17058 -0.369,-0.31422 -0.625,-0.43164c-0.2555,-0.11719 -0.55904,-0.17555 -0.91016,-0.17578h-0.00195c-0.35115,0.00023 -0.66159,0.05859 -0.92773,0.17578zM83.49806,172.71973c-0.28799,0.11734 -0.53861,0.28772 -0.75195,0.51172c-0.21333,0.21332 -0.38372,0.48078 -0.51172,0.80078c-0.11734,0.30934 -0.17578,0.65506 -0.17578,1.03906c0,0.384 0.05844,0.73664 0.17578,1.05664c0.12799,0.30934 0.29838,0.57678 0.51172,0.80078c0.21333,0.21324 0.46395,0.37672 0.75195,0.49414c0.29867,0.11742 0.61961,0.17773 0.96094,0.17773c0.34133,0 0.65536,-0.06536 0.94336,-0.19336c0.29866,-0.13868 0.55424,-0.31897 0.76758,-0.54297c0.21332,-0.23466 0.37875,-0.50212 0.49609,-0.80078c0.128,-0.30934 0.19336,-0.64019 0.19336,-0.99219c0,-0.32 -0.05844,-0.62908 -0.17578,-0.92773c-0.11733,-0.30942 -0.28275,-0.58182 -0.49609,-0.81641c-0.21333,-0.23476 -0.47086,-0.42001 -0.76953,-0.55859c-0.288,-0.14942 -0.60698,-0.22461 -0.95898,-0.22461c-0.34133,0 -0.66227,0.05836 -0.96094,0.17578zM115.07423,172.71973c-0.25601,0.10676 -0.46801,0.24543 -0.63867,0.41601c-0.16,0.1599 -0.2838,0.3303 -0.36914,0.51172c-0.08535,0.18142 -0.12696,0.34189 -0.12696,0.48047c0,0.21342 0.08024,0.32031 0.24024,0.32031h3.64648c0.13866,0 0.20899,-0.1021 0.20899,-0.30469c0,-0.13858 -0.04357,-0.29905 -0.12891,-0.48047c-0.07468,-0.18134 -0.19653,-0.35172 -0.36719,-0.51172c-0.16,-0.17058 -0.369,-0.31422 -0.625,-0.43164c-0.25549,-0.11719 -0.55903,-0.17555 -0.91015,-0.17578h-0.00196c-0.35114,0.00023 -0.66159,0.05859 -0.92773,0.17578zM62.57813,177.80762h3.34375c0.24533,0 0.47416,-0.04853 0.6875,-0.14453c0.224,-0.096 0.41617,-0.22281 0.57617,-0.38281c0.16,-0.15992 0.28876,-0.34713 0.38476,-0.56055c0.096,-0.21324 0.14258,-0.44208 0.14258,-0.6875c0,-0.24524 -0.04658,-0.47408 -0.14258,-0.6875c-0.096,-0.224 -0.22476,-0.41617 -0.38476,-0.57617c-0.16,-0.16 -0.35217,-0.28877 -0.57617,-0.38477c-0.21333,-0.096 -0.44216,-0.14453 -0.6875,-0.14453h-3.34375z" data-paper-data="{&quot;origPos&quot;:null}" id="path2005" fill="#1eff00" stroke="none" stroke-width="1" stroke-miterlimit="10" stroke-dashoffset="0"/></g></g></svg>