<svg version="1.1" xmlns="http://www.w3.org/2000/svg" xmlns:xlink="http://www.w3.org/1999/xlink" width="372.21484" height="68.64258"><g transform="translate(-53.89258,-145.67871)"><g data-paper-data="{&quot;isPaintingLayer&quot;:true}" fill-rule="nonzero" stroke-linecap="butt" stroke-linejoin="miter" stroke-dasharray="" style="mix-blend-mode: normal"><path d="M425.00977,146.42871c0.19313,0 0.34765,0.15452 0.34765,0.34766v66.44531c0,0.19313 -0.15452,0.34961 -0.34765,0.34961h-370.01758c-0.19313,0 -0.34961,-0.15647 -0.34961,-0.34961v-66.44531c0,-0.19313 0.15648,-0.34766 0.34961,-0.34766z" data-paper-data="{&quot;origPos&quot;:null}" id="rect815-0-69" fill="#1e1e1e" stroke="#1eff00" stroke-width="1.5" stroke-miterlimit="4" stroke-dashoffset="17.35"/><path d="M66.46485,151.60058c0.50132,0 0.97086,0.09511 1.4082,0.28711c0.448,0.192 0.83039,0.4545 1.15039,0.78516c0.33066,0.32 0.59316,0.70239 0.78516,1.15039c0.192,0.43734 0.28711,0.90192 0.28711,1.39258c0,0.288 -0.05162,0.58217 -0.1582,0.88086c-0.09608,0.29866 -0.24664,0.581 -0.44922,0.84766c-0.20268,0.256 -0.45826,0.47987 -0.76758,0.67187c-0.29868,0.1921 -0.65627,0.32581 -1.07226,0.40039c0.26676,0.064 0.50249,0.16415 0.70508,0.30273c0.20276,0.13876 0.37314,0.29426 0.51172,0.46484c0.14942,0.17066 0.26135,0.35097 0.33594,0.54297c0.08642,0.18134 0.14,0.35367 0.16016,0.51367l0.35156,3.35937c0.02116,0.2559 -0.05403,0.48971 -0.22461,0.70313c-0.17068,0.21342 -0.40447,0.32031 -0.70312,0.32031c-0.26658,0 -0.49241,-0.08023 -0.67383,-0.24023c-0.18242,-0.16 -0.28258,-0.36705 -0.30273,-0.62305l-0.24023,-2.73633c-0.032,-0.33066 -0.11728,-0.60803 -0.25586,-0.83203c-0.1279,-0.23476 -0.2983,-0.42196 -0.51172,-0.56055c-0.20268,-0.13858 -0.4315,-0.23873 -0.6875,-0.30273c-0.256,-0.064 -0.52346,-0.0957 -0.80078,-0.0957h-3.56836v4.44727c0,0.256 -0.09007,0.47987 -0.27148,0.67187c-0.18134,0.18142 -0.40522,0.27148 -0.67187,0.27148c-0.256,0 -0.47987,-0.09007 -0.67187,-0.27148c-0.18142,-0.192 -0.27344,-0.41587 -0.27344,-0.67187v-10.43164c0,-0.34124 0.12372,-0.63544 0.36914,-0.88086c0.24532,-0.24542 0.54448,-0.36719 0.89648,-0.36719zM90.98438,151.84082c0.16,0.16007 0.24023,0.35721 0.24023,0.5918v6.11133l3.91992,-3.4082c0.14927,-0.11742 0.31468,-0.17578 0.49609,-0.17578c0.17066,0 0.3361,0.06341 0.4961,0.19141c0.16,0.12808 0.23828,0.31034 0.23828,0.54492c0,0.21327 -0.08528,0.39355 -0.25586,0.54297l-2.44726,2.11328l3.23242,4.57617c0.096,0.14942 0.14453,0.30793 0.14453,0.47852c0,0.14942 -0.02666,0.27818 -0.08008,0.38476c-0.05317,0.096 -0.12357,0.17623 -0.20898,0.24023c-0.08542,0.064 -0.17549,0.11253 -0.27149,0.14453c-0.096,0.032 -0.18802,0.04687 -0.27344,0.04687c-0.13858,0 -0.26539,-0.02666 -0.38281,-0.08008c-0.11716,-0.05316 -0.21927,-0.13844 -0.30469,-0.25586l-3.07226,-4.44726l-1.23047,1.05664v2.87891c0,0.23476 -0.08023,0.43684 -0.24023,0.60742c-0.1601,0.16 -0.35721,0.24023 -0.5918,0.24023c-0.23473,0 -0.43879,-0.08023 -0.60937,-0.24023c-0.16,-0.17076 -0.24023,-0.37284 -0.24023,-0.60742v-10.94336c0,-0.23466 0.08023,-0.4318 0.24023,-0.5918c0.17073,-0.16 0.37479,-0.24023 0.60937,-0.24023c0.23468,0 0.4318,0.08023 0.5918,0.24023zM103.94141,151.87207c0.18141,0.18132 0.27148,0.40519 0.27148,0.67187v10.73633c0,0.256 -0.09007,0.47987 -0.27148,0.67187c-0.18135,0.18142 -0.40522,0.27148 -0.67188,0.27148c-0.256,0 -0.47987,-0.09007 -0.67187,-0.27148c-0.18142,-0.192 -0.27344,-0.41587 -0.27344,-0.67187v-10.73633c0,-0.26658 0.09202,-0.49046 0.27344,-0.67187c0.192,-0.18142 0.41587,-0.27148 0.67187,-0.27148c0.26658,0 0.49046,0.09007 0.67188,0.27148zM108.03711,152.57519c0.17058,0.1601 0.25586,0.35917 0.25586,0.59375v2h0.87891c0.20275,0 0.37313,0.07324 0.51171,0.22266c0.14942,0.13876 0.22461,0.30914 0.22461,0.51172c0,0.21342 -0.07519,0.39071 -0.22461,0.5293c-0.13876,0.13858 -0.30913,0.20703 -0.51171,0.20703h-0.87891v6.73633c0,0.23476 -0.08528,0.43684 -0.25586,0.60742c-0.1601,0.16 -0.35917,0.24023 -0.59375,0.24023c-0.23466,0 -0.4318,-0.08023 -0.5918,-0.24023c-0.16,-0.17076 -0.24023,-0.37284 -0.24023,-0.60742v-6.73633h-0.5918c-0.20258,0 -0.37793,-0.06845 -0.52734,-0.20703c-0.13859,-0.13858 -0.20703,-0.31588 -0.20703,-0.5293c0,-0.20276 0.06844,-0.37314 0.20703,-0.51172c0.14941,-0.14942 0.32476,-0.22266 0.52734,-0.22266h0.5918v-2c0,-0.23468 0.08023,-0.43375 0.24023,-0.59375c0.16008,-0.16 0.35722,-0.23828 0.5918,-0.23828c0.23468,0 0.43375,0.07828 0.59375,0.23828zM61.74414,157.15136h4.51172c0.26676,0 0.51737,-0.04658 0.75195,-0.14258c0.23476,-0.10676 0.43879,-0.24543 0.60938,-0.41601c0.18132,-0.18142 0.32001,-0.39042 0.41601,-0.625c0.10658,-0.23466 0.1582,-0.48527 0.1582,-0.75195c0,-0.26673 -0.05162,-0.51737 -0.1582,-0.75195c-0.0959,-0.23476 -0.2346,-0.43684 -0.41601,-0.60742c-0.17076,-0.18134 -0.37479,-0.32001 -0.60938,-0.41601c-0.23466,-0.10658 -0.48527,-0.16016 -0.75195,-0.16016h-4.51172zM86.39453,155.13574c0.46932,0.18132 0.85366,0.40025 1.15234,0.65625c0.30924,0.256 0.53808,0.52149 0.6875,0.79883c0.14942,0.27734 0.22461,0.51308 0.22461,0.70508c0,0.24542 -0.08528,0.43759 -0.25586,0.57617c-0.17058,0.128 -0.36275,0.19141 -0.57617,0.19141c-0.14932,0 -0.28802,-0.03675 -0.41601,-0.11133c-0.128,-0.07458 -0.21807,-0.20335 -0.27148,-0.38477c-0.05342,-0.17066 -0.14544,-0.33609 -0.27344,-0.49609c-0.11732,-0.16 -0.27089,-0.30364 -0.46289,-0.43164c-0.18134,-0.128 -0.40025,-0.2301 -0.65625,-0.30469c-0.24534,-0.07458 -0.51775,-0.11133 -0.81641,-0.11133c-0.33066,0 -0.6615,0.06341 -0.99219,0.19141c-0.32,0.11734 -0.61225,0.30951 -0.87891,0.57617c-0.256,0.26668 -0.465,0.61932 -0.625,1.05664c-0.16,0.42668 -0.24023,0.94473 -0.24023,1.55273c0,0.608 0.08023,1.12412 0.24023,1.55078c0.16,0.42666 0.369,0.77433 0.625,1.04102c0.26666,0.26666 0.55891,0.4638 0.87891,0.5918c0.33068,0.11742 0.66153,0.17578 0.99219,0.17578c0.29858,0 0.57099,-0.03674 0.81641,-0.11133c0.25592,-0.07458 0.47483,-0.17669 0.65625,-0.30469c0.1919,-0.128 0.34547,-0.27164 0.46289,-0.43164c0.128,-0.16008 0.22002,-0.32551 0.27344,-0.49609c0.05342,-0.18142 0.14348,-0.31018 0.27148,-0.38477c0.1279,-0.07458 0.2666,-0.11133 0.41601,-0.11133c0.21342,0 0.40559,0.06845 0.57617,0.20703c0.18142,0.12807 0.27148,0.31034 0.27148,0.54492c0,0.11734 -0.05357,0.31448 -0.16016,0.5918c-0.10668,0.26668 -0.2969,0.53909 -0.57422,0.81641c-0.27734,0.27727 -0.66168,0.52291 -1.15234,0.73633c-0.48,0.21342 -1.10008,0.32031 -1.85742,0.32031v-0.00195c-0.62934,0 -1.21577,-0.11194 -1.75977,-0.33594c-0.53332,-0.23466 -0.99789,-0.56056 -1.39258,-0.97656c-0.39466,-0.416 -0.70373,-0.91228 -0.92773,-1.48828c-0.224,-0.58666 -0.33594,-1.23155 -0.33594,-1.93555c0,-0.71468 0.11194,-1.35955 0.33594,-1.93555c0.224,-0.58666 0.53308,-1.08791 0.92773,-1.50391c0.39468,-0.416 0.85926,-0.73694 1.39258,-0.96094c0.544,-0.23458 1.13042,-0.35156 1.75977,-0.35156c0.64,0 1.19472,0.09706 1.66406,0.28906zM77.00586,155.16894c0.544,0.21334 1.01354,0.52239 1.4082,0.92773c0.39468,0.40532 0.70373,0.9016 0.92773,1.48828c0.224,0.58666 0.33594,1.25828 0.33594,2.01562c0,0.75732 -0.11194,1.42894 -0.33594,2.01562c-0.224,0.58666 -0.53305,1.08294 -0.92773,1.48828c-0.39466,0.39458 -0.8642,0.69869 -1.4082,0.91211c-0.53334,0.21342 -1.11482,0.32031 -1.74414,0.32031c-0.62934,0 -1.21577,-0.10689 -1.75977,-0.32031c-0.53334,-0.21334 -0.99597,-0.51745 -1.39062,-0.91211c-0.39466,-0.40534 -0.70373,-0.90162 -0.92773,-1.48828c-0.224,-0.58668 -0.33789,-1.25831 -0.33789,-2.01562c0,-0.75734 0.11389,-1.42897 0.33789,-2.01562c0.224,-0.58668 0.53308,-1.08296 0.92773,-1.48828c0.39466,-0.40527 0.85728,-0.71432 1.39062,-0.92773c0.544,-0.21342 1.13042,-0.32031 1.75977,-0.32031c0.62932,0 1.2108,0.10689 1.74414,0.32031zM74.1582,156.43261c-0.33058,0.128 -0.61786,0.33011 -0.86328,0.60742c-0.23476,0.26668 -0.42196,0.61436 -0.56055,1.04102c-0.13858,0.42666 -0.20703,0.93285 -0.20703,1.51953c0,0.58666 0.06845,1.09287 0.20703,1.51953c0.13876,0.416 0.32596,0.76172 0.56055,1.03906c0.24532,0.26676 0.5326,0.47079 0.86328,0.60937c0.34132,0.128 0.71078,0.19141 1.10547,0.19141c0.39466,0 0.75723,-0.06341 1.08789,-0.19141c0.34142,-0.13868 0.6287,-0.34272 0.86328,-0.60937c0.24542,-0.27734 0.43759,-0.62306 0.57617,-1.03906c0.13858,-0.42666 0.20703,-0.93287 0.20703,-1.51953c0,-0.58668 -0.06845,-1.09287 -0.20703,-1.51953c-0.13858,-0.42666 -0.33075,-0.77433 -0.57617,-1.04102c-0.23466,-0.27732 -0.52194,-0.47942 -0.86328,-0.60742c-0.33066,-0.13858 -0.69323,-0.20898 -1.08789,-0.20898c-0.39468,0 -0.76415,0.0704 -1.10547,0.20898zM62.39649,169.26269c0.24469,0.15992 0.45612,0.39038 0.63477,0.69141l4.17578,7v-6.92773c0,-0.28223 0.09933,-0.52316 0.29687,-0.7207c0.20697,-0.19754 0.44594,-0.29687 0.71875,-0.29687c0.2822,0 0.52316,0.09933 0.7207,0.29687c0.20687,0.19754 0.31055,0.43847 0.31055,0.7207v8.90234c0,0.16942 -0.03384,0.33004 -0.09961,0.48047c-0.06576,0.1411 -0.1547,0.26798 -0.26758,0.38086c-0.10356,0.11288 -0.23043,0.20181 -0.38086,0.26758c-0.14113,0.05644 -0.29552,0.08594 -0.46484,0.08594c-0.32917,0 -0.61667,-0.08654 -0.86133,-0.25586c-0.23526,-0.16932 -0.44245,-0.39978 -0.62109,-0.69141l-4.17773,-6.99805v6.92773c0,0.27291 -0.10173,0.51384 -0.30859,0.7207c-0.19754,0.19754 -0.43847,0.29687 -0.7207,0.29687c-0.27288,0 -0.51188,-0.09933 -0.71875,-0.29687c-0.19754,-0.20697 -0.29687,-0.4479 -0.29687,-0.7207v-8.91797c0,-0.32935 0.11647,-0.61062 0.35156,-0.8457c0.23519,-0.23509 0.52268,-0.35352 0.86133,-0.35352c0.32935,0 0.61257,0.08458 0.84766,0.25391zM107.35156,169.30566c0.20687,0.19754 0.31055,0.43652 0.31055,0.71875v9.10156c0,0.28223 -0.10368,0.52316 -0.31055,0.7207c-0.19754,0.19754 -0.43654,0.29687 -0.71875,0.29687c-0.28223,0 -0.5212,-0.09933 -0.71875,-0.29687c-0.19754,-0.20697 -0.29687,-0.4479 -0.29687,-0.7207v-9.10156c0,-0.28223 0.09933,-0.52121 0.29687,-0.71875c0.20697,-0.19754 0.44595,-0.29687 0.71875,-0.29687c0.28221,0 0.52121,0.09933 0.71875,0.29687zM83.74219,172.26855c0.1411,0.19757 0.21094,0.42802 0.21094,0.69141c0,0.21636 -0.05074,0.38126 -0.1543,0.49414c-0.09424,0.10356 -0.21676,0.18379 -0.36719,0.24023c-0.1411,0.05644 -0.29747,0.10308 -0.4668,0.14062c-0.16942,0.02822 -0.32809,0.07051 -0.47852,0.12695c-0.27281,0.10348 -0.49474,0.24083 -0.66406,0.41016c-0.16,0.15985 -0.28057,0.33326 -0.36523,0.52148c-0.08466,0.17865 -0.1417,0.36256 -0.16992,0.55078c-0.02822,0.18807 -0.04297,0.36148 -0.04297,0.52148v3.16211c0,0.28223 -0.10368,0.52121 -0.31055,0.71875c-0.19754,0.19754 -0.43655,0.29687 -0.71875,0.29687c-0.27291,0 -0.51384,-0.09933 -0.7207,-0.29687c-0.19754,-0.20697 -0.29492,-0.44594 -0.29492,-0.71875v-6.13867c0,-0.27281 0.09738,-0.50753 0.29492,-0.70508c0.20697,-0.20687 0.45217,-0.31055 0.73437,-0.31055c0.28223,0 0.52316,0.10368 0.7207,0.31055c0.19754,0.19754 0.29492,0.43227 0.29492,0.70508c0.08466,-0.09424 0.18834,-0.20201 0.31055,-0.32422c0.13178,-0.12246 0.2734,-0.23219 0.42383,-0.32617c0.15992,-0.10356 0.32482,-0.18814 0.49414,-0.25391c0.16932,-0.07534 0.33849,-0.11328 0.50781,-0.11328c0.37621,0 0.62994,0.09933 0.76172,0.29687zM86.43164,172.28222c0.19754,0.19754 0.29687,0.43227 0.29687,0.70508c0.08466,-0.09398 0.19244,-0.19571 0.32422,-0.30859c0.1316,-0.1222 0.29225,-0.23628 0.48047,-0.33984c0.18807,-0.10356 0.40378,-0.18814 0.64844,-0.25391c0.25401,-0.07534 0.53723,-0.11328 0.84766,-0.11328c0.36679,0 0.67135,0.03794 0.91601,0.11328c0.25409,0.07534 0.47174,0.17467 0.65039,0.29687c0.17882,0.11298 0.32897,0.24411 0.45117,0.39453c0.1222,0.1412 0.23433,0.28707 0.33789,0.4375c0.08466,-0.1317 0.19244,-0.2671 0.32422,-0.4082c0.13178,-0.1506 0.30095,-0.28795 0.50781,-0.41016c0.21636,-0.1222 0.47632,-0.22154 0.77734,-0.29687c0.30103,-0.08466 0.66688,-0.12695 1.09961,-0.12695c0.21636,0 0.46157,0.03794 0.73437,0.11328c0.2823,0.06576 0.5403,0.17984 0.77539,0.33984c0.24451,0.15992 0.44742,0.37136 0.60742,0.63477c0.16932,0.25398 0.2539,0.56902 0.2539,0.94531v5.12109c0,0.27291 -0.10368,0.51384 -0.31054,0.7207c-0.19755,0.19754 -0.43655,0.29492 -0.71875,0.29492c-0.28223,0 -0.52316,-0.09738 -0.72071,-0.29492c-0.19754,-0.20697 -0.29687,-0.4479 -0.29687,-0.7207v-4.04883c0,-0.39509 -0.1354,-0.72915 -0.4082,-1.00195c-0.27281,-0.27281 -0.60684,-0.41016 -1.00195,-0.41016c-0.39509,0 -0.72915,0.13735 -1.00195,0.41016c-0.27281,0.27281 -0.41016,0.60687 -0.41016,1.00195v4.04883c0,0.27291 -0.10173,0.51384 -0.30859,0.7207c-0.19754,0.19754 -0.43422,0.29492 -0.70703,0.29492c-0.2823,0 -0.52556,-0.09738 -0.73242,-0.29492c-0.19754,-0.20697 -0.29687,-0.4479 -0.29687,-0.7207v-4.04883c0,-0.39509 -0.13735,-0.72915 -0.41016,-1.00195c-0.27281,-0.27281 -0.60684,-0.41016 -1.00195,-0.41016c-0.39509,0 -0.72915,0.13735 -1.00195,0.41016c-0.27281,0.27281 -0.4082,0.60687 -0.4082,1.00195v4.04883c0,0.27291 -0.09933,0.51384 -0.29687,0.7207c-0.19754,0.19754 -0.43655,0.29492 -0.71875,0.29492c-0.28231,0 -0.52751,-0.09738 -0.73437,-0.29492c-0.19754,-0.20697 -0.29687,-0.4479 -0.29687,-0.7207v-6.13867c0,-0.27281 0.09933,-0.50753 0.29687,-0.70508c0.20697,-0.20687 0.45217,-0.31055 0.73437,-0.31055c0.2822,0 0.52121,0.10368 0.71875,0.31055zM102.42188,172.09863c0.40448,0.08476 0.75134,0.21589 1.04296,0.39453c0.30095,0.17875 0.53141,0.40493 0.69141,0.67773c0.16932,0.26338 0.25391,0.58269 0.25391,0.95898v5.03906c0,0.27273 -0.09303,0.50319 -0.28125,0.69141c-0.18815,0.18822 -0.4186,0.28125 -0.69141,0.28125c-0.25391,0 -0.47584,-0.08023 -0.66406,-0.24023c-0.17865,-0.16932 -0.28233,-0.38078 -0.31055,-0.63476c-0.35749,0.33875 -0.73382,0.5692 -1.12891,0.69141c-0.39511,0.1222 -0.84127,0.18359 -1.33984,0.18359c-0.31985,0 -0.64341,-0.04664 -0.97266,-0.14062c-0.31982,-0.09401 -0.61159,-0.23561 -0.875,-0.42383c-0.2539,-0.19754 -0.46109,-0.43655 -0.62109,-0.71875c-0.16,-0.28223 -0.24023,-0.61202 -0.24023,-0.98828c0,-0.58326 0.12687,-1.03989 0.38086,-1.36914c0.2634,-0.32925 0.58892,-0.57872 0.9746,-0.74805c0.38569,-0.16932 0.79811,-0.29185 1.24024,-0.36719c0.45155,-0.07509 0.87017,-0.14927 1.25586,-0.22461c0.38569,-0.07509 0.70693,-0.17877 0.96094,-0.31055c0.26338,-0.14113 0.39453,-0.36304 0.39453,-0.66406c0,-0.1411 -0.04229,-0.26363 -0.12696,-0.36719c-0.07533,-0.11288 -0.18311,-0.20181 -0.32421,-0.26758c-0.14103,-0.07534 -0.30592,-0.13042 -0.49414,-0.16797c-0.18823,-0.03754 -0.38689,-0.05664 -0.59376,-0.05664c-0.2729,0 -0.48434,0.03794 -0.63476,0.11328c-0.15068,0.07534 -0.2732,0.16837 -0.36719,0.28125c-0.08466,0.11288 -0.15449,0.23976 -0.21094,0.38086c-0.05644,0.13178 -0.12627,0.25431 -0.21093,0.36719c-0.07509,0.11288 -0.17877,0.20786 -0.31055,0.2832c-0.13163,0.07534 -0.31979,0.11133 -0.56445,0.11133c-0.22577,0 -0.42443,-0.05704 -0.59375,-0.16992c-0.16,-0.1223 -0.23828,-0.33801 -0.23828,-0.64844c0,-0.30103 0.07418,-0.57805 0.22461,-0.83203c0.15052,-0.25408 0.36623,-0.47174 0.64843,-0.65039c0.28223,-0.18807 0.62674,-0.33199 1.03125,-0.43555c0.40449,-0.10356 0.86115,-0.15625 1.36914,-0.15625c0.47978,0 0.92166,0.04229 1.32618,0.12695zM75.88086,172.28222c0.4986,0.19754 0.93001,0.48076 1.29687,0.84766c0.36697,0.36687 0.65446,0.80878 0.86133,1.32617c0.21644,0.50799 0.32422,1.07251 0.32422,1.69336c0,0.62088 -0.10778,1.18964 -0.32422,1.70703c-0.20697,0.50799 -0.49446,0.94563 -0.86133,1.3125c-0.36687,0.36697 -0.79828,0.65446 -1.29687,0.86133c-0.49857,0.19754 -1.03554,0.29492 -1.60937,0.29492c-0.56443,0 -1.09518,-0.09738 -1.59375,-0.29492c-0.49857,-0.20694 -0.93194,-0.49444 -1.29883,-0.86133c-0.36679,-0.36687 -0.65856,-0.80451 -0.875,-1.3125c-0.20687,-0.51739 -0.31055,-1.08615 -0.31055,-1.70703c0,-0.62085 0.10368,-1.18536 0.31055,-1.69336c0.21637,-0.51739 0.50813,-0.95931 0.875,-1.32617c0.36689,-0.36689 0.80026,-0.65011 1.29883,-0.84766c0.49857,-0.20687 1.02932,-0.30859 1.59375,-0.30859c0.57383,0 1.1108,0.10173 1.60937,0.30859zM73.33985,173.68066c-0.27281,0.1411 -0.50753,0.33779 -0.70508,0.5918c-0.18807,0.24456 -0.33394,0.53206 -0.4375,0.86133c-0.10356,0.31982 -0.15625,0.65816 -0.15625,1.01562c0,0.35749 0.05269,0.70005 0.15625,1.0293c0.10341,0.32917 0.24928,0.61667 0.4375,0.86133c0.19754,0.24466 0.43227,0.44137 0.70508,0.5918c0.27281,0.1411 0.58357,0.21289 0.93164,0.21289c0.34807,0 0.65883,-0.07179 0.93164,-0.21289c0.28213,-0.15042 0.51686,-0.34713 0.70508,-0.5918c0.18807,-0.24459 0.33394,-0.53208 0.4375,-0.86133c0.10356,-0.32925 0.15625,-0.6718 0.15625,-1.0293c0,-0.35747 -0.05269,-0.6958 -0.15625,-1.01562c-0.10341,-0.32917 -0.24928,-0.61667 -0.4375,-0.86133c-0.18814,-0.25401 -0.42287,-0.45069 -0.70508,-0.5918c-0.27281,-0.15042 -0.58357,-0.22656 -0.93164,-0.22656c-0.34807,0 -0.65883,0.07614 -0.93164,0.22656zM101.66016,176.41699c-0.32925,0.10331 -0.77737,0.20699 -1.3418,0.31055c-0.68672,0.12228 -1.0293,0.44782 -1.0293,0.97461c0,0.1318 0.0191,0.25865 0.05664,0.38086c0.04687,0.1222 0.12105,0.23433 0.22461,0.33789c0.10349,0.09398 0.24084,0.17012 0.41016,0.22656c0.17872,0.05644 0.39443,0.08398 0.64844,0.08398c0.21629,0 0.43395,-0.02319 0.65039,-0.07031c0.22576,-0.05644 0.42247,-0.13258 0.59179,-0.22656c0.17865,-0.10356 0.32027,-0.22609 0.42383,-0.36719c0.11288,-0.15042 0.16797,-0.31959 0.16797,-0.50781v-1.36719c-0.19744,0.04689 -0.46485,0.12128 -0.80273,0.22461z" data-paper-data="{&quot;origPos&quot;:null}" id="path1746" fill="#1eff00" stroke="none" stroke-width="1" stroke-miterlimit="10" stroke-dashoffset="0"/><path d="M69.10239,187.56492c1.27593,0 2.33405,4.30813 3.36631,5.0581c1.03226,0.74997 5.4565,0.42505 5.85078,1.63854c0.39432,1.21349 -3.37599,3.55109 -3.77027,4.76459c-0.39428,1.21349 1.2819,5.32078 0.24983,6.07079c-1.03223,0.74997 -4.42054,-2.11344 -5.69647,-2.11344c-1.27597,0 -4.66424,2.86341 -5.6965,2.11344c-1.03226,-0.75001 0.64396,-4.8573 0.24983,-6.07079c-0.39432,-1.21349 -4.16459,-3.55113 -3.77031,-4.76459c0.39428,-1.21349 4.81852,-0.88857 5.85078,-1.63854c1.03226,-0.74997 2.09038,-5.0581 3.36635,-5.0581z" data-paper-data="{&quot;origPos&quot;:null}" id="path1428-5-5" fill="#1eff00" stroke="none" stroke-width="0.88188" stroke-miterlimit="4" stroke-dashoffset="17.35"/><path d="M92.03936,187.56492c1.27597,0 2.33409,4.30813 3.36635,5.0581c1.03226,0.74997 5.4565,0.42505 5.85078,1.63854c0.39428,1.21349 -3.37599,3.55109 -3.77027,4.76459c-0.39432,1.21349 1.2819,5.32078 0.24945,6.07079c-1.03226,0.74997 -4.42054,-2.11344 -5.6965,-2.11344c-1.27593,0 -4.66424,2.86341 -5.69647,2.11344c-1.03226,-0.75001 0.64396,-4.8573 0.24945,-6.07079c-0.39428,-1.21349 -4.16455,-3.55113 -3.77027,-4.76459c0.39428,-1.21349 4.81852,-0.88857 5.85078,-1.63854c1.03226,-0.74997 2.09038,-5.0581 3.36631,-5.0581z" data-paper-data="{&quot;origPos&quot;:null}" id="path1428-0-2-27" fill="#1eff00" stroke="none" stroke-width="0.88188" stroke-miterlimit="4" stroke-dashoffset="17.35"/><path d="M114.97637,195.4224c0.14022,0 0.25663,0.47391 0.37039,0.55642c0.11339,0.08239 0.60023,0.04687 0.64358,0.18028c0.04346,0.13342 -0.37153,0.39065 -0.41473,0.52411c-0.04346,0.13342 0.14098,0.5853 0.02646,0.6678c-0.11339,0.08239 -0.48627,-0.23244 -0.62661,-0.23244c-0.14022,0 -0.51307,0.31483 -0.62665,0.23244c-0.11339,-0.08239 0.07068,-0.53431 0.02646,-0.6678c-0.04346,-0.13342 -0.45812,-0.39061 -0.41473,-0.52411c0.04346,-0.13342 0.53004,-0.09789 0.64358,-0.18028c0.11339,-0.08239 0.2298,-0.55642 0.37039,-0.55642z" data-paper-data="{&quot;origPos&quot;:null}" id="path1428-0-6-3-0" fill="#1eff00" stroke="none" stroke-width="0.09701" stroke-miterlimit="4" stroke-dashoffset="17.35"/></g></g></svg>