<svg version="1.1" xmlns="http://www.w3.org/2000/svg" xmlns:xlink="http://www.w3.org/1999/xlink" width="222.68347" height="55.89962"><g transform="translate(-128.65827,-117.84361)"><g data-paper-data="{&quot;isPaintingLayer&quot;:true}" fill-rule="nonzero" stroke="none" stroke-linecap="butt" stroke-linejoin="miter" stroke-miterlimit="10" stroke-dasharray="" stroke-dashoffset="0" style="mix-blend-mode: normal"><path d="M329.60046,117.84364c0,0 19.86009,20.29776 21.74128,55.89959l-222.68347,-0.18784v-55.71178z" data-paper-data="{&quot;origPos&quot;:null}" id="path1427" fill="#1e1e1e" stroke-width="0.26458"/><path d="M236.13315,127.46876c1.2558,0 2.43186,0.2417 3.52734,0.72266c1.09549,0.45422 2.05843,1.09358 2.88672,1.92187c0.8283,0.8283 1.4696,1.79124 1.92383,2.88672c0.48095,1.09548 0.7207,2.27153 0.7207,3.52734c0,1.25581 -0.23975,2.43186 -0.7207,3.52735c-0.45423,1.09548 -1.09553,2.05647 -1.92383,2.88476c-0.82829,0.8283 -1.79123,1.48196 -2.88672,1.96289c-1.09548,0.45423 -2.27154,0.68164 -3.52734,0.68164h-9.93946v11.14258c0,0.64126 -0.22546,1.20266 -0.67968,1.6836c-0.45423,0.45422 -1.01562,0.68164 -1.6836,0.68164c-0.64126,0 -1.20265,-0.22742 -1.68359,-0.68164c-0.45423,-0.48094 -0.68164,-1.04234 -0.68164,-1.6836v-26.13086c0,-0.855 0.30733,-1.59052 0.92187,-2.20508c0.61454,-0.61455 1.36241,-0.92187 2.24414,-0.92187zM251.45151,128.07032c0.40079,0.40078 0.60156,0.89461 0.60156,1.48242v27.41407c0,0.58784 -0.20077,1.09594 -0.60156,1.52343c-0.40079,0.40079 -0.8946,0.60157 -1.48243,0.60157c-0.58782,0 -1.09593,-0.20078 -1.52343,-0.60157c-0.40079,-0.42749 -0.59961,-0.93559 -0.59961,-1.52343v-27.41407c0,-0.58781 0.19882,-1.08164 0.59961,-1.48242c0.4275,-0.4008 0.93561,-0.60156 1.52343,-0.60156c0.58783,0 1.08164,0.20076 1.48243,0.60156zM226.19369,141.37696h9.41993c0.66797,0 1.29499,-0.12095 1.88281,-0.36133c0.58782,-0.26718 1.09593,-0.61545 1.52344,-1.04296c0.45422,-0.45423 0.80053,-0.97469 1.04101,-1.5625c0.26719,-0.58785 0.40235,-1.21485 0.40235,-1.88282c0,-0.66799 -0.13516,-1.29694 -0.40235,-1.88476c-0.24047,-0.58782 -0.58679,-1.09397 -1.04101,-1.52149c-0.42751,-0.45432 -0.93562,-0.80259 -1.52344,-1.04297c-0.58782,-0.26718 -1.21484,-0.40039 -1.88281,-0.40039h-9.41993zM271.74252,137.24807c1.62987,1.06877 2.44532,2.65871 2.44532,4.76953v14.94922c0,0.58784 -0.20078,1.09594 -0.60157,1.52343c-0.40079,0.40079 -0.8946,0.60157 -1.48242,0.60157c-0.58782,0 -1.09593,-0.20078 -1.52344,-0.60157c-0.40079,-0.42749 -0.60156,-0.93559 -0.60156,-1.52343v-0.64063c-1.01533,1.09549 -2.17709,1.82905 -3.48633,2.20313c-1.28252,0.37404 -2.64505,0.5625 -4.08789,0.5625c-0.90845,0 -1.83045,-0.12095 -2.76562,-0.36133c-0.90846,-0.26719 -1.73624,-0.66873 -2.48438,-1.20313c-0.72141,-0.53437 -1.30944,-1.20232 -1.76367,-2.0039c-0.45423,-0.80156 -0.68164,-1.76255 -0.68164,-2.88477c0,-1.28252 0.25405,-2.35202 0.76172,-3.20703c0.50766,-0.88174 1.18795,-1.60295 2.04297,-2.16406c0.85501,-0.56111 1.83029,-0.98736 2.92578,-1.28125c1.1222,-0.29397 2.29826,-0.50904 3.52734,-0.64258c1.41612,-0.16038 2.5246,-0.33452 3.32617,-0.52148c0.80158,-0.21377 1.40391,-0.45352 1.80469,-0.72071c0.4008,-0.26718 0.64055,-0.57451 0.7207,-0.92187c0.10689,-0.34734 0.16016,-0.7346 0.16016,-1.16211c0,-0.50767 -0.14554,-0.9482 -0.43945,-1.32227c-0.29391,-0.37415 -0.66882,-0.68149 -1.12305,-0.92187c-0.45423,-0.24053 -0.96233,-0.41465 -1.52344,-0.52149c-0.5611,-0.13354 -1.10819,-0.19922 -1.64257,-0.19922c-0.9619,0 -1.7364,0.07999 -2.32422,0.24024c-0.58783,0.1603 -1.06929,0.37344 -1.44336,0.64062c-0.37407,0.26722 -0.6814,0.58687 -0.92188,0.96094c-0.21375,0.37405 -0.41452,0.76326 -0.60156,1.16406c-0.16032,0.32068 -0.38773,0.56045 -0.68164,0.72071c-0.26719,0.13354 -0.54789,0.19922 -0.8418,0.19922c-0.53438,0 -1.02819,-0.1722 -1.48242,-0.51954c-0.45423,-0.34736 -0.68164,-0.82883 -0.68164,-1.44336c0,-0.24047 0.06758,-0.53352 0.20117,-0.88085c0.24047,-0.56111 0.56015,-1.11014 0.96094,-1.64454c0.40079,-0.56108 0.93554,-1.0549 1.60351,-1.48242c0.6947,-0.42761 1.53678,-0.76157 2.5254,-1.00195c1.01532,-0.26719 2.24466,-0.40039 3.6875,-0.40039c2.72535,0 4.88903,0.54709 6.49218,1.64258zM279.08041,136.28712c0.40079,0.24048 0.69383,0.58679 0.88086,1.04101l6.97461,16.75391l6.0918,-16.55273c0.18703,-0.48094 0.46773,-0.86819 0.8418,-1.16211c0.40078,-0.32063 0.84132,-0.48242 1.32226,-0.48242c0.48095,0 0.94812,0.18842 1.40234,0.5625c0.45423,0.34736 0.68165,0.90874 0.68165,1.68359c0,0.13364 -0.01431,0.26685 -0.04102,0.40039c-0.02671,0.13364 -0.0657,0.26685 -0.11914,0.40039l-9.21875,23.72656c-0.21376,0.53438 -0.46781,1.08147 -0.76172,1.64258c-0.26719,0.58782 -0.6278,1.11023 -1.08203,1.56445c-0.42751,0.45423 -0.98889,0.82718 -1.68359,1.1211c-0.66798,0.29392 -1.49577,0.4414 -2.48438,0.4414h-1.92383c-0.53438,0 -0.98921,-0.18647 -1.36328,-0.56054c-0.34735,-0.34737 -0.51953,-0.78985 -0.51953,-1.32422c0,-0.5344 0.17218,-0.98728 0.51953,-1.36133c0.37407,-0.37407 0.8289,-0.5625 1.36328,-0.5625h1.24219c0.24047,0 0.49453,-0.01235 0.76172,-0.03906c0.29391,-0.02671 0.5746,-0.10669 0.8418,-0.24024c0.26718,-0.10688 0.52124,-0.30766 0.76171,-0.60156c0.24048,-0.26721 0.45359,-0.66875 0.64063,-1.20312l1.00195,-2.80469l-9.21679,-19.79883c-0.1336,-0.32063 -0.20118,-0.61562 -0.20118,-0.88281c0,-0.21385 0.04095,-0.43931 0.1211,-0.67969c0.08015,-0.26729 0.19904,-0.50899 0.35937,-0.72266c0.16031,-0.21379 0.36109,-0.38794 0.60157,-0.52148c0.26719,-0.16025 0.58882,-0.24023 0.96289,-0.24023c0.45422,0 0.86812,0.13515 1.24218,0.40234zM268.9769,147.86915c-0.50767,0.16025 -1.10804,0.2812 -1.80274,0.36133c-0.66798,0.08012 -1.37686,0.17246 -2.125,0.2793c-0.72142,0.10693 -1.42834,0.24209 -2.12304,0.40234c-0.6947,0.16033 -1.32367,0.40007 -1.88477,0.7207c-0.5611,0.2939 -1.01398,0.68115 -1.36133,1.16211c-0.32063,0.48093 -0.48242,1.09561 -0.48242,1.84375c0,0.58782 0.12085,1.08162 0.36133,1.48242c0.26719,0.37415 0.60116,0.6815 1.00195,0.92188c0.40079,0.21379 0.85562,0.37363 1.36328,0.48047c0.50767,0.08012 1.01382,0.12109 1.52149,0.12109c0.77486,0 1.55131,-0.07998 2.32617,-0.24023c0.77486,-0.18704 1.46944,-0.48203 2.08398,-0.88282c0.64126,-0.40078 1.14742,-0.93356 1.52149,-1.60156c0.40078,-0.66797 0.60156,-1.4977 0.60156,-2.48633v-2.8457z" data-paper-data="{&quot;origPos&quot;:null}" id="path1515" fill="#1eff00" stroke-width="2.50493"/></g></g></svg>