<svg version="1.1" xmlns="http://www.w3.org/2000/svg" xmlns:xlink="http://www.w3.org/1999/xlink" width="372.21484" height="68.64258"><g transform="translate(-53.89258,-145.67871)"><g data-paper-data="{&quot;isPaintingLayer&quot;:true}" fill-rule="nonzero" stroke-linecap="butt" stroke-linejoin="miter" stroke-dasharray="" style="mix-blend-mode: normal"><path d="M425.00976,146.42871c0.19313,0 0.34766,0.15452 0.34766,0.34766v66.44531c0,0.19313 -0.15453,0.34961 -0.34766,0.34961h-370.01757c-0.19328,0 -0.34961,-0.15647 -0.34961,-0.34961v-66.44531c0,-0.19313 0.15637,-0.34766 0.34961,-0.34766z" data-paper-data="{&quot;origPos&quot;:null}" id="rect815-0-9" fill="#1e1e1e" stroke="#1eff00" stroke-width="1.5" stroke-miterlimit="4" stroke-dashoffset="17.35"/><path d="M68.04883,151.60059c0.23467,0 0.4318,0.08023 0.5918,0.24023c0.17067,0.16007 0.25586,0.35721 0.25586,0.5918c0,0.23476 -0.08519,0.43684 -0.25586,0.60742c-0.16,0.16 -0.35713,0.24023 -0.5918,0.24023h-2.99219v10c0,0.256 -0.09511,0.47987 -0.28711,0.67187c-0.18133,0.18142 -0.40025,0.27148 -0.65625,0.27148c-0.26667,0 -0.49054,-0.09007 -0.67187,-0.27148c-0.18133,-0.192 -0.27148,-0.41587 -0.27148,-0.67187v-10h-2.99219c-0.23467,0 -0.43871,-0.08023 -0.60937,-0.24023c-0.16,-0.17076 -0.23828,-0.37284 -0.23828,-0.60742c0,-0.23466 0.07828,-0.4318 0.23828,-0.5918c0.17067,-0.16 0.37471,-0.24023 0.60937,-0.24023zM88.84375,151.87207c0.192,0.18132 0.28711,0.40519 0.28711,0.67187c0,0.256 -0.09511,0.47987 -0.28711,0.67188c-0.18133,0.18142 -0.40025,0.27148 -0.65625,0.27148c-0.26666,0 -0.49745,-0.09007 -0.68945,-0.27148c-0.18134,-0.192 -0.27148,-0.41588 -0.27148,-0.67188c0,-0.26658 0.09014,-0.49046 0.27148,-0.67187c0.192,-0.18142 0.42279,-0.27148 0.68945,-0.27148c0.25599,0 0.47491,0.09007 0.65625,0.27148zM92.21289,151.87207c0.18134,0.18132 0.27148,0.40519 0.27148,0.67187v7.67969c0,0.26658 -0.09014,0.49046 -0.27148,0.67187c-0.18133,0.18142 -0.40521,0.27344 -0.67187,0.27344c-0.256,0 -0.47987,-0.09202 -0.67187,-0.27344c-0.18134,-0.18134 -0.27344,-0.40522 -0.27344,-0.67187v-7.67969c0,-0.26658 0.09209,-0.49046 0.27344,-0.67187c0.192,-0.18142 0.41587,-0.27148 0.67187,-0.27148c0.26666,0 0.49053,0.09007 0.67187,0.27148zM79.28711,152.5752c0.17066,0.1601 0.25586,0.35917 0.25586,0.59375v2h0.88086c0.20268,0 0.37306,0.07324 0.51172,0.22266c0.14934,0.13876 0.22266,0.30914 0.22266,0.51172c0,0.21342 -0.07331,0.39071 -0.22266,0.5293c-0.13868,0.13858 -0.30906,0.20703 -0.51172,0.20703h-0.88086v6.73633c0,0.23476 -0.0852,0.43684 -0.25586,0.60742c-0.16001,0.16 -0.35714,0.24023 -0.5918,0.24023c-0.23467,0 -0.4318,-0.08023 -0.5918,-0.24023c-0.16,-0.17076 -0.24023,-0.37284 -0.24023,-0.60742v-6.73633h-0.5918c-0.20266,0 -0.37995,-0.06845 -0.5293,-0.20703c-0.13866,-0.13858 -0.20703,-0.31588 -0.20703,-0.5293c0,-0.20276 0.06837,-0.37314 0.20703,-0.51172c0.14934,-0.14942 0.32664,-0.22266 0.5293,-0.22266h0.5918v-2c0,-0.23468 0.08023,-0.43375 0.24023,-0.59375c0.16001,-0.16 0.35714,-0.23828 0.5918,-0.23828c0.23467,0 0.4318,0.07828 0.5918,0.23828zM84.53711,152.5752c0.17066,0.1601 0.25586,0.35917 0.25586,0.59375v2h0.88086c0.20268,0 0.37306,0.07324 0.51172,0.22266c0.14934,0.13876 0.22266,0.30914 0.22266,0.51172c0,0.21342 -0.07331,0.39071 -0.22266,0.5293c-0.13868,0.13858 -0.30906,0.20703 -0.51172,0.20703h-0.88086v6.73633c0,0.23476 -0.0852,0.43684 -0.25586,0.60742c-0.16001,0.16 -0.35714,0.24023 -0.5918,0.24023c-0.23467,0 -0.4318,-0.08023 -0.5918,-0.24023c-0.16,-0.17076 -0.24023,-0.37284 -0.24023,-0.60742v-6.73633h-0.5918c-0.20266,0 -0.37995,-0.06845 -0.5293,-0.20703c-0.13866,-0.13858 -0.20703,-0.31588 -0.20703,-0.5293c0,-0.20276 0.06837,-0.37314 0.20703,-0.51172c0.14934,-0.14942 0.32664,-0.22266 0.5293,-0.22266h0.5918v-2c0,-0.23468 0.08023,-0.43375 0.24023,-0.59375c0.16001,-0.16 0.35714,-0.23828 0.5918,-0.23828c0.23467,0 0.4318,0.07828 0.5918,0.23828zM69.54102,155.21582c0.16,0.1601 0.24023,0.35721 0.24023,0.5918v5.56836c0,0.24524 0.05349,0.45921 0.16016,0.64062c0.11733,0.18134 0.26097,0.33489 0.43164,0.46289c0.18133,0.11742 0.37846,0.20944 0.5918,0.27344c0.224,0.064 0.44292,0.0957 0.65625,0.0957c0.352,0 0.67294,-0.05836 0.96094,-0.17578c0.288,-0.12792 0.52675,-0.2983 0.71875,-0.51172c0.20267,-0.21334 0.35818,-0.46395 0.46484,-0.75195c0.10667,-0.29866 0.16016,-0.6196 0.16016,-0.96094v-4.64062c0,-0.23468 0.08023,-0.4318 0.24023,-0.5918c0.16,-0.17058 0.35713,-0.25586 0.5918,-0.25586c0.23467,0 0.4318,0.08528 0.5918,0.25586c0.17067,0.1601 0.25586,0.35721 0.25586,0.5918v7.56836c0,0.23476 -0.08519,0.43879 -0.25586,0.60937c-0.16,0.16 -0.35713,0.23828 -0.5918,0.23828c-0.23467,0 -0.4318,-0.07828 -0.5918,-0.23828c-0.16,-0.17076 -0.24023,-0.37479 -0.24023,-0.60937v-0.28711c-0.10667,0.096 -0.24039,0.21298 -0.40039,0.35156c-0.14933,0.128 -0.33655,0.24977 -0.56055,0.36719c-0.224,0.11717 -0.48454,0.21927 -0.7832,0.30469c-0.288,0.07458 -0.62381,0.11133 -1.00781,0.11133c-0.39467,0 -0.77901,-0.05357 -1.15234,-0.16016c-0.36267,-0.11734 -0.68856,-0.28772 -0.97656,-0.51172c-0.288,-0.224 -0.51683,-0.50137 -0.6875,-0.83203c-0.17067,-0.33068 -0.25586,-0.71307 -0.25586,-1.15039v-5.76172c0,-0.23468 0.08023,-0.4318 0.24023,-0.5918c0.17067,-0.17058 0.37276,-0.25586 0.60742,-0.25586c0.23467,0 0.4318,0.08528 0.5918,0.25586zM88.7793,155.21582c0.16,0.1601 0.24023,0.35721 0.24023,0.5918v7.56836c0,0.23476 -0.08023,0.43684 -0.24023,0.60742c-0.16001,0.16 -0.35714,0.24023 -0.5918,0.24023c-0.23468,0 -0.43872,-0.08023 -0.60937,-0.24023c-0.16,-0.17076 -0.23828,-0.37284 -0.23828,-0.60742v-7.56836c0,-0.23468 0.07828,-0.4318 0.23828,-0.5918c0.17068,-0.17058 0.37472,-0.25586 0.60937,-0.25586c0.23467,0 0.4318,0.08528 0.5918,0.25586zM92.35742,162.25684c0.23466,0.224 0.35156,0.49445 0.35156,0.81445c0,0.30942 -0.1169,0.58182 -0.35156,0.81641c-0.224,0.224 -0.49641,0.33594 -0.81641,0.33594c-0.30934,0 -0.58175,-0.11194 -0.81641,-0.33594c-0.224,-0.23466 -0.33594,-0.50706 -0.33594,-0.81641c0,-0.32 0.11194,-0.59045 0.33594,-0.81445c0.23467,-0.23458 0.50707,-0.35351 0.81641,-0.35351c0.32,0 0.59241,0.11893 0.81641,0.35351zM62.39649,169.2627c0.24458,0.15992 0.45603,0.39038 0.63476,0.69141l4.17773,7v-6.92773c0,-0.28223 0.09737,-0.52316 0.29492,-0.7207c0.20696,-0.19754 0.4479,-0.29687 0.7207,-0.29687c0.28221,0 0.5212,0.09933 0.71875,0.29687c0.20696,0.19754 0.31055,0.43847 0.31055,0.7207v8.90234c0,0.16942 -0.03181,0.33004 -0.09766,0.48047c-0.06585,0.1411 -0.15665,0.26798 -0.26953,0.38086c-0.10348,0.11288 -0.23035,0.20181 -0.38086,0.26758c-0.14111,0.05644 -0.29552,0.08594 -0.46484,0.08594c-0.32925,0 -0.61674,-0.08654 -0.86133,-0.25586c-0.23518,-0.16932 -0.44236,-0.39978 -0.62109,-0.69141l-4.17578,-6.99805v6.92773c0,0.27291 -0.10359,0.51384 -0.31055,0.7207c-0.19755,0.19754 -0.43654,0.29687 -0.71875,0.29687c-0.27281,0 -0.51375,-0.09933 -0.7207,-0.29687c-0.19755,-0.20697 -0.29687,-0.4479 -0.29687,-0.7207v-8.91797c0,-0.32935 0.11834,-0.61062 0.35352,-0.8457c0.23518,-0.23509 0.52267,-0.35352 0.86133,-0.35352c0.32925,0 0.61052,0.08458 0.8457,0.25391zM107.35352,169.30566c0.20697,0.19754 0.31055,0.43652 0.31055,0.71875v9.10156c0,0.28223 -0.10358,0.52316 -0.31055,0.7207c-0.19755,0.19754 -0.43849,0.29687 -0.7207,0.29687c-0.28222,0 -0.52121,-0.09933 -0.71875,-0.29687c-0.19754,-0.20697 -0.29687,-0.4479 -0.29687,-0.7207v-9.10156c0,-0.28223 0.09933,-0.52121 0.29687,-0.71875c0.20696,-0.19754 0.44594,-0.29687 0.71875,-0.29687c0.28222,0 0.52316,0.09933 0.7207,0.29687zM83.74219,172.26856c0.1411,0.19757 0.21289,0.42802 0.21289,0.69141c0,0.21636 -0.05277,0.38126 -0.15625,0.49414c-0.09406,0.10356 -0.21666,0.18379 -0.36719,0.24023c-0.14111,0.05644 -0.29552,0.10308 -0.46484,0.14062c-0.16934,0.02822 -0.32997,0.07051 -0.48047,0.12695c-0.27281,0.10348 -0.49279,0.24083 -0.66211,0.41016c-0.15992,0.15985 -0.28253,0.33326 -0.36719,0.52148c-0.08466,0.17865 -0.1417,0.36256 -0.16992,0.55078c-0.02822,0.18807 -0.04297,0.36148 -0.04297,0.52148v3.16211c0,0.28223 -0.10163,0.52121 -0.30859,0.71875c-0.19755,0.19754 -0.43849,0.29687 -0.7207,0.29687c-0.2728,0 -0.51178,-0.09933 -0.71875,-0.29687c-0.19754,-0.20697 -0.29687,-0.44594 -0.29687,-0.71875v-6.13867c0,-0.27281 0.09933,-0.50753 0.29687,-0.70508c0.20696,-0.20687 0.45021,-0.31055 0.73242,-0.31055c0.28222,0 0.52316,0.10368 0.7207,0.31055c0.19754,0.19754 0.29492,0.43227 0.29492,0.70508c0.08466,-0.09424 0.18824,-0.20201 0.31055,-0.32422c0.13169,-0.12246 0.2733,-0.23219 0.42383,-0.32617c0.15993,-0.10356 0.32482,-0.18814 0.49414,-0.25391c0.16933,-0.07534 0.33849,-0.11328 0.50781,-0.11328c0.37628,0 0.63001,0.09933 0.76172,0.29687zM86.43359,172.28223c0.19754,0.19754 0.29687,0.43227 0.29687,0.70508c0.08466,-0.09398 0.19251,-0.19571 0.32422,-0.30859c0.1317,-0.1222 0.29037,-0.23628 0.47852,-0.33984c0.18814,-0.10356 0.4058,-0.18814 0.65039,-0.25391c0.25399,-0.07534 0.53527,-0.11328 0.8457,-0.11328c0.36688,0 0.67338,0.03794 0.91797,0.11328c0.25398,0.07534 0.46969,0.17467 0.64844,0.29687c0.17875,0.11298 0.32889,0.24411 0.45117,0.39453c0.12228,0.1412 0.23636,0.28707 0.33984,0.4375c0.08466,-0.1317 0.19251,-0.2671 0.32422,-0.4082c0.13169,-0.1506 0.30084,-0.28795 0.50781,-0.41016c0.21637,-0.1222 0.47436,-0.22154 0.77539,-0.29687c0.30103,-0.08466 0.66884,-0.12695 1.10156,-0.12695c0.21636,0 0.45961,0.03794 0.73242,0.11328c0.2822,0.06576 0.54216,0.17984 0.77734,0.33984c0.24458,0.15992 0.44554,0.37136 0.60547,0.63477c0.16932,0.25398 0.25586,0.56902 0.25586,0.94531v5.12109c0,0.27291 -0.10358,0.51384 -0.31055,0.7207c-0.19755,0.19754 -0.43849,0.29492 -0.7207,0.29492c-0.28222,0 -0.52121,-0.09738 -0.71875,-0.29492c-0.19754,-0.20697 -0.29687,-0.4479 -0.29687,-0.7207v-4.04883c0,-0.39509 -0.13735,-0.72915 -0.41016,-1.00195c-0.27281,-0.27281 -0.6049,-0.41016 -1,-0.41016c-0.3951,0 -0.72914,0.13735 -1.00195,0.41016c-0.27281,0.27281 -0.41016,0.60687 -0.41016,1.00195v4.04883c0,0.27291 -0.10358,0.51384 -0.31055,0.7207c-0.19755,0.19754 -0.43227,0.29492 -0.70508,0.29492c-0.2822,0 -0.52741,-0.09738 -0.73437,-0.29492c-0.19754,-0.20697 -0.29687,-0.4479 -0.29687,-0.7207v-4.04883c0,-0.39509 -0.1354,-0.72915 -0.4082,-1.00195c-0.27281,-0.27281 -0.60685,-0.41016 -1.00195,-0.41016c-0.3951,0 -0.72915,0.13735 -1.00195,0.41016c-0.27281,0.27281 -0.4082,0.60687 -0.4082,1.00195v4.04883c0,0.27291 -0.09933,0.51384 -0.29687,0.7207c-0.19755,0.19754 -0.43849,0.29492 -0.7207,0.29492c-0.2822,0 -0.52545,-0.09738 -0.73242,-0.29492c-0.19754,-0.20697 -0.29687,-0.4479 -0.29687,-0.7207v-6.13867c0,-0.27281 0.09933,-0.50753 0.29687,-0.70508c0.20696,-0.20687 0.45021,-0.31055 0.73242,-0.31055c0.28222,0 0.52316,0.10368 0.7207,0.31055zM102.42187,172.09863c0.40451,0.08476 0.7533,0.21589 1.04492,0.39453c0.30103,0.17875 0.53148,0.40493 0.69141,0.67773c0.16932,0.26338 0.25391,0.58269 0.25391,0.95898v5.03906c0,0.27273 -0.09506,0.50319 -0.2832,0.69141c-0.18814,0.18822 -0.4186,0.28125 -0.69141,0.28125c-0.25399,0 -0.47396,-0.08023 -0.66211,-0.24023c-0.17875,-0.16932 -0.28233,-0.38078 -0.31055,-0.63476c-0.35747,0.33875 -0.73381,0.5692 -1.12891,0.69141c-0.3951,0.1222 -0.84322,0.18359 -1.3418,0.18359c-0.31984,0 -0.64341,-0.04664 -0.97266,-0.14062c-0.31984,-0.09401 -0.6116,-0.23561 -0.875,-0.42383c-0.25399,-0.19754 -0.46117,-0.43655 -0.62109,-0.71875c-0.15992,-0.28223 -0.24023,-0.61202 -0.24023,-0.98828c0,-0.58326 0.12687,-1.03989 0.38086,-1.36914c0.2634,-0.32925 0.58892,-0.57872 0.97461,-0.74805c0.38569,-0.16932 0.80005,-0.29185 1.24219,-0.36719c0.45154,-0.07509 0.87017,-0.14927 1.25586,-0.22461c0.38569,-0.07509 0.70499,-0.17877 0.95898,-0.31055c0.2634,-0.14113 0.39453,-0.36304 0.39453,-0.66406c0,-0.1411 -0.04229,-0.26363 -0.12695,-0.36719c-0.07526,-0.11288 -0.18312,-0.20181 -0.32422,-0.26758c-0.1411,-0.07534 -0.306,-0.13042 -0.49414,-0.16797c-0.18813,-0.03754 -0.38483,-0.05664 -0.5918,-0.05664c-0.27282,0 -0.48426,0.03794 -0.63476,0.11328c-0.15053,0.07534 -0.27313,0.16837 -0.36719,0.28125c-0.08466,0.11288 -0.15645,0.23976 -0.21289,0.38086c-0.05644,0.13178 -0.12628,0.25431 -0.21094,0.36719c-0.07526,0.11288 -0.17884,0.20786 -0.31055,0.2832c-0.1317,0.07534 -0.31987,0.11133 -0.56445,0.11133c-0.22578,0 -0.42247,-0.05704 -0.5918,-0.16992c-0.15992,-0.1223 -0.24023,-0.33801 -0.24023,-0.64844c0,-0.30103 0.07604,-0.57805 0.22656,-0.83203c0.15051,-0.25408 0.36623,-0.47174 0.64844,-0.65039c0.28221,-0.18807 0.62479,-0.33199 1.0293,-0.43555c0.4045,-0.10356 0.86116,-0.15625 1.36914,-0.15625c0.47976,0 0.92167,0.04229 1.32617,0.12695zM75.88086,172.28223c0.49858,0.19754 0.93195,0.48076 1.29883,0.84766c0.36687,0.36687 0.65241,0.80878 0.85937,1.32617c0.21636,0.50799 0.32617,1.07251 0.32617,1.69336c0,0.62088 -0.10981,1.18964 -0.32617,1.70703c-0.20696,0.50799 -0.4925,0.94563 -0.85937,1.3125c-0.36688,0.36697 -0.80025,0.65446 -1.29883,0.86133c-0.49858,0.19754 -1.03554,0.29492 -1.60937,0.29492c-0.56443,0 -1.09517,-0.09738 -1.59375,-0.29492c-0.49858,-0.20694 -0.93195,-0.49444 -1.29883,-0.86133c-0.36688,-0.36687 -0.65864,-0.80451 -0.875,-1.3125c-0.20696,-0.51739 -0.30859,-1.08615 -0.30859,-1.70703c0,-0.62085 0.10164,-1.18536 0.30859,-1.69336c0.21636,-0.51739 0.50812,-0.95931 0.875,-1.32617c0.36688,-0.36689 0.80025,-0.65011 1.29883,-0.84766c0.49858,-0.20687 1.02932,-0.30859 1.59375,-0.30859c0.57383,0 1.1108,0.10173 1.60937,0.30859zM73.3418,173.68066c-0.2728,0.1411 -0.50948,0.33779 -0.70703,0.5918c-0.18814,0.24456 -0.33402,0.53206 -0.4375,0.86133c-0.10348,0.31982 -0.1543,0.65816 -0.1543,1.01562c0,0.35749 0.05082,0.70005 0.1543,1.0293c0.10348,0.32917 0.24936,0.61667 0.4375,0.86133c0.19755,0.24466 0.43422,0.44137 0.70703,0.5918c0.27281,0.1411 0.58162,0.21289 0.92969,0.21289c0.34806,0 0.65883,-0.07179 0.93164,-0.21289c0.28221,-0.15042 0.51889,-0.34713 0.70703,-0.5918c0.18814,-0.24459 0.33402,-0.53208 0.4375,-0.86133c0.10348,-0.32925 0.1543,-0.6718 0.1543,-1.0293c0,-0.35747 -0.05082,-0.6958 -0.1543,-1.01562c-0.10348,-0.32917 -0.24936,-0.61667 -0.4375,-0.86133c-0.18814,-0.25401 -0.42482,-0.45069 -0.70703,-0.5918c-0.27281,-0.15042 -0.58358,-0.22656 -0.93164,-0.22656c-0.34806,0 -0.65688,0.07614 -0.92969,0.22656zM101.66016,176.41699c-0.32925,0.10331 -0.77542,0.20699 -1.33984,0.31055c-0.68672,0.12228 -1.03125,0.44782 -1.03125,0.97461c0,0.1318 0.01902,0.25865 0.05664,0.38086c0.04704,0.1222 0.12308,0.23433 0.22656,0.33789c0.10348,0.09398 0.23888,0.17012 0.4082,0.22656c0.17873,0.05644 0.3964,0.08398 0.65039,0.08398c0.21636,0 0.43207,-0.02319 0.64844,-0.07031c0.22578,-0.05644 0.42247,-0.13258 0.5918,-0.22656c0.17873,-0.10356 0.32034,-0.22609 0.42383,-0.36719c0.11288,-0.15042 0.16992,-0.31959 0.16992,-0.50781v-1.36719c-0.19755,0.04687 -0.46603,0.12105 -0.80469,0.22461z" data-paper-data="{&quot;origPos&quot;:null}" id="path1592" fill="#1eff00" stroke="none" stroke-width="1" stroke-miterlimit="10" stroke-dashoffset="0"/><path d="M69.10321,187.56491c1.27594,0 2.33407,4.30813 3.36633,5.0581c1.03226,0.74997 5.45651,0.42505 5.8508,1.63854c0.39429,1.21349 -3.376,3.55109 -3.77029,4.76459c-0.39429,1.21349 1.28192,5.32078 0.24966,6.07079c-1.03226,0.74997 -4.42056,-2.11344 -5.6965,-2.11344c-1.27594,0 -4.66424,2.86341 -5.6965,2.11344c-1.03226,-0.75001 0.64395,-4.8573 0.24966,-6.07079c-0.39429,-1.21349 -4.16458,-3.55113 -3.77029,-4.76459c0.39429,-1.21349 4.81854,-0.88857 5.8508,-1.63854c1.03226,-0.74997 2.09039,-5.0581 3.36633,-5.0581z" data-paper-data="{&quot;origPos&quot;:null}" id="path1428-5-8" fill="#1eff00" stroke="none" stroke-width="0.88188" stroke-miterlimit="4" stroke-dashoffset="17.35"/><path d="M92.0402,188.44777c1.14835,0 2.10066,3.8773 3.02969,4.55229c0.92903,0.67499 4.91086,0.38253 5.26572,1.4747c0.35486,1.09213 -3.0384,3.19601 -3.39326,4.28814c-0.35486,1.09213 1.15373,4.7887 0.22469,5.46368c-0.92903,0.67499 -3.9785,-1.90208 -5.12685,-1.90208c-1.14835,0 -4.19782,2.57707 -5.12685,1.90208c-0.92903,-0.67499 0.57956,-4.37155 0.22469,-5.46368c-0.35486,-1.09213 -3.74812,-3.19601 -3.39326,-4.28814c0.35486,-1.09217 4.33669,-0.79971 5.26572,-1.4747c0.92903,-0.67499 1.88135,-4.55229 3.0297,-4.55229z" data-paper-data="{&quot;origPos&quot;:null}" id="path1428-0-2-7" fill="#1eff00" stroke="none" stroke-width="0.79369" stroke-miterlimit="4" stroke-dashoffset="17.35"/></g></g></svg>