<svg version="1.1" xmlns="http://www.w3.org/2000/svg" xmlns:xlink="http://www.w3.org/1999/xlink" width="372.21497" height="68.64271" viewBox="0,0,372.21497,68.64271"><g transform="translate(-53.89251,-145.67864)"><g data-paper-data="{&quot;isPaintingLayer&quot;:true}" fill-rule="nonzero" stroke-linecap="butt" stroke-linejoin="miter" stroke-dasharray="" style="mix-blend-mode: normal"><path d="M425.00977,146.42864c0.19313,0 0.34772,0.15458 0.34772,0.34772v66.44538c0,0.19313 -0.15458,0.34961 -0.34772,0.34961h-370.01764c-0.19313,0 -0.34961,-0.15647 -0.34961,-0.34961v-66.4453c0,-0.19313 0.15647,-0.34772 0.34961,-0.34772z" fill="#1e1e1e" stroke="#1eff00" stroke-width="1.5" stroke-miterlimit="4" stroke-dashoffset="17.35"/><path d="M69.10183,187.56563c1.27601,0 2.33412,4.30809 3.36643,5.0581c1.03219,0.7499 5.4565,0.42501 5.85078,1.6385c0.3942,1.21349 -3.3761,3.55109 -3.77031,4.76459c-0.39428,1.21353 1.2819,5.32082 0.24983,6.07083c-1.0323,0.7499 -4.42057,-2.11351 -5.6965,-2.11351c-1.27589,0 -4.66416,2.86341 -5.69647,2.11351c-1.0323,-0.75001 0.64399,-4.8573 0.24983,-6.07083c-0.39432,-1.21349 -4.16462,-3.55109 -3.77031,-4.76459c0.39428,-1.21349 4.8186,-0.8886 5.85078,-1.6385c1.0323,-0.75001 2.09042,-5.0581 3.36631,-5.0581z" fill="#1eff00" stroke="none" stroke-width="0.23333" stroke-miterlimit="4" stroke-dashoffset="17.35"/><path d="M92.03895,187.56563c1.27589,0 2.33401,4.30809 3.36631,5.0581c1.0323,0.7499 5.45647,0.42501 5.85078,1.6385c0.39432,1.21349 -3.37599,3.55109 -3.77031,4.76459c-0.39428,1.21353 1.2819,5.32082 0.24945,6.07083c-1.0323,0.7499 -4.42061,-2.11351 -5.6965,-2.11351c-1.27601,0 -4.66428,2.86341 -5.6965,2.11351c-1.0323,-0.75001 0.64399,-4.8573 0.24945,-6.07083c-0.3942,-1.21349 -4.16447,-3.55109 -3.77019,-4.76459c0.3942,-1.21349 4.81852,-0.8886 5.85071,-1.6385c1.0323,-0.75001 2.09038,-5.0581 3.36639,-5.0581z" fill="#1eff00" stroke="none" stroke-width="0.23333" stroke-miterlimit="4" stroke-dashoffset="17.35"/><path d="M114.97603,187.56563c1.27593,0 2.33401,4.30809 3.36631,5.0581c1.0323,0.7499 5.4565,0.42501 5.85082,1.6385c0.39428,1.21349 -3.37603,3.55109 -3.77031,4.76459c-0.39432,1.21353 1.2819,5.32082 0.24945,6.07083c-1.0323,0.7499 -4.42061,-2.11351 -5.6965,-2.11351c-1.27601,0 -4.66431,2.86341 -5.6965,2.11351c-1.0323,-0.75001 0.64399,-4.8573 0.24945,-6.07083c-0.3942,-1.21349 -4.16451,-3.55109 -3.77019,-4.76459c0.39417,-1.21349 4.81848,-0.8886 5.85067,-1.6385c1.0323,-0.75001 2.09042,-5.0581 3.36643,-5.0581z" fill="#1eff00" stroke="none" stroke-width="0.23333" stroke-miterlimit="4" stroke-dashoffset="17.35"/><path d="M137.91315,187.56563c1.27589,0 2.33397,4.30809 3.36627,5.0581c1.0323,0.7499 5.4565,0.42501 5.85082,1.6385c0.39428,1.21349 -3.37603,3.55109 -3.77031,4.76459c-0.39432,1.21353 1.2819,5.32082 0.24945,6.07083c-1.0323,0.7499 -4.42061,-2.11351 -5.6965,-2.11351c-1.27601,0 -4.66431,2.86341 -5.6965,2.11351c-1.0323,-0.75001 0.64399,-4.8573 0.24945,-6.07083c-0.3942,-1.21349 -4.16451,-3.55109 -3.77019,-4.76459c0.3942,-1.21349 4.81848,-0.8886 5.85067,-1.6385c1.0323,-0.75001 2.09042,-5.0581 3.36643,-5.0581z" fill="#1eff00" stroke="none" stroke-width="0.23333" stroke-miterlimit="4" stroke-dashoffset="17.35"/><path d="M160.85027,187.56563c1.27589,0 2.33397,4.30809 3.36627,5.0581c1.03234,0.7499 5.45654,0.42501 5.85086,1.6385c0.39428,1.21349 -3.37606,3.55109 -3.77034,4.76459c-0.39432,1.21353 1.2819,5.32082 0.24945,6.07083c-1.03226,0.7499 -4.42061,-2.11351 -5.6965,-2.11351c-1.27601,0 -4.66431,2.86341 -5.6965,2.11351c-1.0323,-0.75001 0.64399,-4.8573 0.24945,-6.07083c-0.3942,-1.21349 -4.16451,-3.55109 -3.77019,-4.76459c0.3942,-1.21349 4.81848,-0.8886 5.85075,-1.6385c1.03226,-0.75001 2.09038,-5.0581 3.36635,-5.0581z" fill="#1eff00" stroke="none" stroke-width="0.23333" stroke-miterlimit="4" stroke-dashoffset="17.35"/><path d="M183.78724,193.30424c0.44655,0 0.81687,1.50784 1.17819,1.77033c0.36132,0.2623 1.90976,0.14891 2.04779,0.57347c0.13795,0.42474 -1.18159,1.2429 -1.31962,1.6676c-0.13795,0.42474 0.44867,1.86229 0.08731,2.12481c-0.36132,0.2623 -1.54719,-0.73973 -1.99374,-0.73973c-0.44663,0 -1.63253,1.00218 -1.99381,0.73973c-0.36132,-0.26268 0.22526,-1.70007 0.08731,-2.12481c-0.13795,-0.42471 -1.45757,-1.24286 -1.31955,-1.6676c0.13795,-0.42471 1.68646,-0.31106 2.04775,-0.57347c0.36132,-0.26268 0.73164,-1.77033 1.17823,-1.77033z" fill="#1eff00" stroke="none" stroke-width="0.08167" stroke-miterlimit="4" stroke-dashoffset="17.35"/><path d="M105.5451,153.1661c0.54974,0.16169 1.01821,0.377 1.40624,0.64648c0.39897,0.26948 0.70645,0.57016 0.92188,0.9043c0.21569,0.33416 0.32227,0.66782 0.32227,1.00195c0,0.28014 -0.097,0.50709 -0.29102,0.67969c-0.18333,0.16176 -0.38701,0.24219 -0.61328,0.24219c-0.16171,0 -0.31303,-0.04274 -0.45313,-0.12891c-0.14009,-0.09696 -0.25367,-0.24827 -0.33984,-0.45312c-0.12923,-0.32338 -0.30189,-0.58138 -0.51758,-0.7754c-0.20482,-0.20474 -0.43661,-0.3609 -0.69531,-0.46874c-0.24791,-0.11868 -0.51075,-0.19432 -0.79102,-0.22657c-0.28024,-0.04308 -0.54989,-0.06445 -0.80859,-0.06445c-0.38806,0 -0.74985,0.04273 -1.08398,0.12891c-0.32336,0.07533 -0.60949,0.18891 -0.85743,0.33984c-0.23717,0.14002 -0.42435,0.31752 -0.56445,0.5332c-0.12926,0.2048 -0.19531,0.44146 -0.19531,0.71094c0,0.36651 0.10853,0.66915 0.32422,0.90625c0.22637,0.23708 0.52218,0.43589 0.88867,0.59766c0.36649,0.16156 0.7826,0.30319 1.24609,0.42187c0.4635,0.11868 0.93681,0.24184 1.42188,0.37109c0.49582,0.12944 0.97595,0.28557 1.43945,0.46876c0.46352,0.17244 0.87765,0.39942 1.24414,0.67968c0.36636,0.28027 0.65736,0.62556 0.87305,1.03516c0.22627,0.4096 0.33984,0.9091 0.33984,1.50195c0,0.65751 -0.12997,1.22978 -0.38867,1.71485c-0.24791,0.48503 -0.59125,0.88951 -1.0332,1.21289c-0.44193,0.3233 -0.95988,0.56479 -1.55274,0.72656c-0.59285,0.16176 -1.22428,0.24219 -1.89258,0.24219c-0.95934,0 -1.77795,-0.13287 -2.45703,-0.40235c-0.66829,-0.28026 -1.21243,-0.61587 -1.63281,-1.0039c-0.42038,-0.39884 -0.72786,-0.813 -0.92187,-1.24414c-0.19402,-0.44196 -0.29102,-0.82507 -0.29102,-1.14844c0,-0.38796 0.097,-0.66246 0.29102,-0.82422c0.20469,-0.16176 0.41517,-0.24219 0.63085,-0.24219c0.18324,0 0.35103,0.05906 0.50196,0.17774c0.15093,0.10776 0.24118,0.28526 0.27344,0.5332c0.06458,0.4096 0.20423,0.77139 0.41992,1.08398c0.22634,0.3125 0.50279,0.57533 0.82617,0.79102c0.32338,0.20475 0.68321,0.36091 1.08203,0.46875c0.39884,0.10784 0.80813,0.16211 1.22852,0.16211c0.33413,0 0.67942,-0.03769 1.03515,-0.11328c0.36649,-0.08618 0.69531,-0.20933 0.98633,-0.3711c0.30188,-0.17247 0.54534,-0.3946 0.72852,-0.66406c0.19401,-0.26948 0.29101,-0.59148 0.29101,-0.96875c0,-0.4096 -0.11357,-0.75005 -0.33984,-1.01953c-0.21559,-0.26953 -0.50656,-0.49651 -0.87305,-0.67969c-0.3557,-0.18315 -0.76502,-0.33249 -1.22851,-0.45117c-0.4635,-0.12944 -0.93877,-0.25941 -1.42383,-0.38867c-0.48504,-0.12926 -0.95836,-0.27574 -1.42188,-0.4375c-0.46349,-0.17247 -0.8796,-0.38779 -1.24609,-0.64649c-0.35581,-0.26948 -0.64678,-0.59147 -0.87305,-0.96875c-0.21568,-0.38803 -0.32226,-0.86816 -0.32226,-1.43945c0,-0.53896 0.11162,-1.01907 0.33789,-1.43945c0.23715,-0.42039 0.5611,-0.77538 0.9707,-1.06641c0.4096,-0.29102 0.89457,-0.51313 1.45508,-0.66406c0.56053,-0.15093 1.17545,-0.22656 1.84375,-0.22656c0.64673,0 1.24033,0.08237 1.7793,0.24414zM65.35563,153.14852c0.63595,0 1.27028,0.10853 1.90625,0.32422c0.63597,0.21558 1.20824,0.57542 1.71485,1.08203c0.50663,0.49585 0.91592,1.15346 1.22851,1.97266c0.31259,0.80844 0.46875,1.80649 0.46875,2.99218c0,1.19648 -0.15616,2.20424 -0.46875,3.02344c-0.31259,0.80844 -0.72188,1.46605 -1.22851,1.97266c-0.50661,0.49574 -1.07888,0.85072 -1.71485,1.0664c-0.63597,0.21569 -1.2703,0.32422 -1.90625,0.32422h-3.83203c-0.16166,0 -0.31977,-0.02811 -0.4707,-0.08203c-0.15103,-0.06476 -0.28392,-0.14997 -0.40235,-0.25781c-0.11867,-0.10772 -0.21567,-0.24253 -0.29101,-0.4043c-0.07534,-0.16169 -0.11328,-0.33919 -0.11328,-0.5332v-10.21875c0,-0.34492 0.12315,-0.64074 0.37109,-0.88867c0.24791,-0.24794 0.55055,-0.37305 0.90625,-0.37305zM87.40642,153.39071c0.16177,0.16171 0.24219,0.3625 0.24219,0.59961v6.17578l3.96094,-3.44336c0.15098,-0.11868 0.31877,-0.17774 0.50195,-0.17774c0.17237,0 0.33824,0.0641 0.5,0.19336c0.16177,0.12939 0.24414,0.31368 0.24414,0.55078c0,0.21556 -0.08742,0.3979 -0.25976,0.54883l-2.47266,2.13477l3.26562,4.62304c0.09701,0.15103 0.14454,0.31399 0.14454,0.48633c0,0.15086 -0.02616,0.27888 -0.08008,0.38672c-0.05392,0.09701 -0.12477,0.17939 -0.21094,0.24414c-0.08617,0.06476 -0.17643,0.11228 -0.27344,0.14453c-0.097,0.03226 -0.18921,0.04883 -0.27539,0.04883c-0.14002,0 -0.26999,-0.02615 -0.38867,-0.08008c-0.11868,-0.05392 -0.22047,-0.14108 -0.30664,-0.25976l-3.10352,-4.49414l-1.24609,1.0664v2.91016c0,0.23728 -0.08042,0.44289 -0.24219,0.61523c-0.16174,0.16177 -0.36055,0.24219 -0.59765,0.24219c-0.23726,0 -0.44289,-0.08042 -0.61524,-0.24219c-0.16176,-0.17252 -0.24218,-0.37813 -0.24219,-0.61523v-11.05859c0,-0.23706 0.08043,-0.43785 0.24219,-0.59961c0.1725,-0.16177 0.37813,-0.24219 0.61524,-0.24219c0.23707,0 0.43589,0.08042 0.59765,0.24219zM111.40642,153.39266c0.16177,0.16171 0.24219,0.36055 0.24219,0.59766v3.79882c0.34495,-0.39871 0.71837,-0.70619 1.11719,-0.92187c0.39884,-0.21569 0.87699,-0.32227 1.4375,-0.32227c0.49582,0 0.95461,0.07564 1.375,0.22657c0.42038,0.1509 0.78217,0.36622 1.08398,0.64648c0.30176,0.26948 0.53355,0.60314 0.69532,1.00195c0.17234,0.38806 0.25781,0.82551 0.25781,1.31055v5.31836c0,0.23728 -0.08547,0.44289 -0.25781,0.61523c-0.16174,0.16177 -0.36251,0.24219 -0.59961,0.24219c-0.23706,0 -0.4359,-0.08042 -0.59766,-0.24219c-0.16176,-0.17252 -0.24219,-0.37813 -0.24219,-0.61523v-5.31836c0,-0.24781 -0.05426,-0.47963 -0.16211,-0.69531c-0.09713,-0.22627 -0.23195,-0.42027 -0.40429,-0.58203c-0.17255,-0.16177 -0.37139,-0.28688 -0.59766,-0.37305c-0.22634,-0.09701 -0.463,-0.14453 -0.71094,-0.14453c-0.32337,0 -0.63085,0.0641 -0.92187,0.19336c-0.29115,0.11845 -0.55108,0.28627 -0.77735,0.50195c-0.21566,0.2048 -0.38832,0.4463 -0.51758,0.72656c-0.11867,0.28027 -0.17773,0.5829 -0.17773,0.90625v4.78516c0,0.23728 -0.08042,0.44289 -0.24219,0.61523c-0.16171,0.16177 -0.36055,0.24219 -0.59765,0.24219c-0.237,0 -0.44264,-0.08042 -0.61524,-0.24219c-0.16176,-0.17252 -0.24219,-0.37813 -0.24219,-0.61523v-11.05859c0.00001,-0.23706 0.08043,-0.4359 0.24219,-0.59766c0.1725,-0.16176 0.37813,-0.24414 0.61524,-0.24414c0.23705,0 0.43589,0.08238 0.59765,0.24414zM62.15446,164.20907h2.82813c0.63596,0 1.19173,-0.10854 1.66601,-0.32422c0.47428,-0.22635 0.8671,-0.53866 1.17969,-0.9375c0.31257,-0.4096 0.54438,-0.89942 0.69531,-1.47071c0.15093,-0.58207 0.22656,-1.23483 0.22656,-1.95703c0,-0.7114 -0.07563,-1.35251 -0.22656,-1.92383c-0.1509,-0.58204 -0.38272,-1.07381 -0.69531,-1.47265c-0.31259,-0.4095 -0.70541,-0.72182 -1.17969,-0.9375c-0.47428,-0.22627 -1.03005,-0.33985 -1.66601,-0.33985h-2.82813zM78.19158,157.09383c0.65754,0.43117 0.98633,1.0723 0.98633,1.92383v6.03125c0,0.23728 -0.08043,0.44289 -0.24219,0.61523c-0.16174,0.16177 -0.36055,0.24219 -0.59766,0.24219c-0.23725,0 -0.44288,-0.08042 -0.61523,-0.24219c-0.16176,-0.17252 -0.24219,-0.37813 -0.24219,-0.61523v-0.25781c-0.4096,0.4419 -0.87807,0.73774 -1.40625,0.88867c-0.51739,0.15093 -1.06832,0.22656 -1.65039,0.22656c-0.36649,0 -0.73799,-0.04947 -1.11523,-0.14648c-0.36649,-0.10767 -0.70012,-0.26869 -1.00196,-0.48438c-0.2911,-0.21558 -0.52971,-0.48521 -0.71289,-0.80859c-0.18318,-0.32338 -0.27343,-0.71135 -0.27343,-1.16406c0,-0.5174 0.10179,-0.94803 0.30664,-1.29297c0.2048,-0.35581 0.4793,-0.64678 0.82421,-0.87305c0.34495,-0.22624 0.73972,-0.3989 1.18165,-0.51758c0.45273,-0.11867 0.92605,-0.20584 1.42187,-0.25976c0.57129,-0.06476 1.01842,-0.13365 1.3418,-0.20899c0.3233,-0.08617 0.56675,-0.18317 0.72851,-0.29101c0.16177,-0.10785 0.25877,-0.23296 0.29102,-0.37305c0.04309,-0.13999 0.06445,-0.29615 0.06445,-0.46875c0,-0.20477 -0.05931,-0.38227 -0.17773,-0.5332c-0.11865,-0.15093 -0.26995,-0.27409 -0.45313,-0.3711c-0.18333,-0.097 -0.38896,-0.16785 -0.61523,-0.21093c-0.22624,-0.05393 -0.44643,-0.08008 -0.66211,-0.08008c-0.38808,0 -0.7004,0.03094 -0.9375,0.0957c-0.23713,0.06476 -0.4311,0.15192 -0.58203,0.25977c-0.15093,0.10776 -0.27604,0.23579 -0.37305,0.38672c-0.08614,0.15033 -0.16706,0.30755 -0.24219,0.46874v0.00196c-0.06446,0.1285 -0.15717,0.22456 -0.27539,0.28906c-0.10784,0.05392 -0.21946,0.08203 -0.33789,0.08203c-0.21566,0 -0.41643,-0.07084 -0.59961,-0.21094c-0.18318,-0.14012 -0.27344,-0.33409 -0.27344,-0.58203c0,-0.097 0.02616,-0.21537 0.08008,-0.35547c0.09694,-0.22626 0.22691,-0.44642 0.38868,-0.66211c0.16168,-0.22621 0.377,-0.42701 0.64648,-0.5996c0.28024,-0.17248 0.61874,-0.30729 1.01758,-0.4043c0.4096,-0.10784 0.90621,-0.16016 1.48828,-0.16016c1.09946,0 1.97241,0.22016 2.61914,0.66211zM124.65838,156.70516c0.53893,0.18323 1.00256,0.45289 1.39062,0.80859c0.39892,0.34495 0.71123,0.77074 0.9375,1.27735c0.22627,0.50663 0.33984,1.08374 0.33984,1.73047c0,0.39879 -0.09699,0.7014 -0.29101,0.90625c-0.19402,0.20485 -0.42099,0.30664 -0.67969,0.30664h-5.91601c0,0.02141 0.00554,0.11362 0.01562,0.27539c0.02142,0.1508 0.05741,0.33314 0.11133,0.54883c0.06476,0.21555 0.15192,0.44737 0.25976,0.69531c0.11858,0.2371 0.27474,0.45921 0.46876,0.66406c0.19401,0.20483 0.43069,0.37748 0.71093,0.51758c0.29105,0.12926 0.64118,0.19336 1.05078,0.19336c0.33419,0 0.62032,-0.02616 0.85743,-0.08008c0.2372,-0.05392 0.44767,-0.1363 0.63086,-0.24414c0.18323,-0.10772 0.35102,-0.24253 0.50195,-0.4043c0.15088,-0.17255 0.30024,-0.37139 0.45117,-0.59765c0.08617,-0.12926 0.18317,-0.22147 0.29102,-0.27539c0.10759,-0.05393 0.22116,-0.08008 0.33984,-0.08008c0.19394,0 0.37144,0.07084 0.5332,0.21093c0.16177,0.14002 0.24414,0.31752 0.24414,0.53321c0,0.12933 -0.07084,0.32333 -0.21093,0.58203c-0.14015,0.2587 -0.3671,0.51669 -0.67969,0.77539c-0.30181,0.25872 -0.69462,0.48567 -1.17969,0.67969c-0.48504,0.19401 -1.07865,0.29101 -1.7793,0.29101c-0.7114,0 -1.34572,-0.12997 -1.90625,-0.38867c-0.5605,-0.25869 -1.03579,-0.60399 -1.42382,-1.03516c-0.37723,-0.44192 -0.6682,-0.95308 -0.87305,-1.53515c-0.19402,-0.58207 -0.29102,-1.19216 -0.29102,-1.82813c0,-0.65751 0.10179,-1.2773 0.30664,-1.85937c0.20483,-0.59286 0.4958,-1.10399 0.87305,-1.53516c0.38806,-0.43114 0.85166,-0.77159 1.39063,-1.01953c0.53893,-0.25869 1.14417,-0.38672 1.8125,-0.38672c0.6144,0 1.18471,0.09026 1.71289,0.27344zM134.06853,156.70516c0.53896,0.18323 1.0026,0.45289 1.39063,0.80859c0.39894,0.34495 0.71123,0.77074 0.9375,1.27735c0.22627,0.50663 0.33984,1.08374 0.33984,1.73047c0,0.39879 -0.097,0.7014 -0.29101,0.90625c-0.19402,0.20485 -0.421,0.30664 -0.67969,0.30664h-5.91602c0,0.02141 0.00555,0.11362 0.01563,0.27539c0.02141,0.1508 0.05936,0.33314 0.11328,0.54883c0.06475,0.21555 0.14997,0.44737 0.25781,0.69531c0.11858,0.2371 0.27474,0.45921 0.46875,0.66406c0.19402,0.20483 0.43263,0.37748 0.71289,0.51758c0.29103,0.12926 0.64116,0.19336 1.05078,0.19336c0.33419,0 0.61837,-0.02616 0.85547,-0.08008c0.23721,-0.05392 0.44768,-0.1363 0.63086,-0.24414c0.18321,-0.10772 0.35103,-0.24253 0.50195,-0.4043c0.15088,-0.17255 0.3022,-0.37139 0.45313,-0.59765c0.08617,-0.12926 0.18317,-0.22147 0.29101,-0.27539c0.10785,-0.05393 0.21947,-0.08008 0.3379,-0.08008c0.19396,0 0.37339,0.07084 0.53515,0.21093c0.16177,0.14002 0.24219,0.31752 0.24219,0.53321c0,0.12933 -0.07084,0.32333 -0.21094,0.58203c-0.14012,0.2587 -0.36514,0.51669 -0.67773,0.77539c-0.30181,0.25872 -0.69658,0.48567 -1.18164,0.67969c-0.48507,0.19401 -1.07672,0.29101 -1.77735,0.29101c-0.71143,0 -1.3477,-0.12997 -1.9082,-0.38867c-0.5605,-0.25869 -1.03577,-0.60399 -1.42383,-1.03516c-0.37722,-0.44192 -0.66819,-0.95308 -0.87305,-1.53515c-0.19401,-0.58207 -0.29101,-1.19216 -0.29101,-1.82813c0,-0.65751 0.10374,-1.2773 0.30859,-1.85937c0.2048,-0.59286 0.49578,-1.10399 0.87305,-1.53516c0.38803,-0.43114 0.85166,-0.77159 1.39063,-1.01953c0.53896,-0.25869 1.14225,-0.38672 1.81054,-0.38672c0.6144,0 1.18472,0.09026 1.71289,0.27344zM81.89275,156.80282c0.16177,0.16171 0.24219,0.36055 0.24219,0.59765v0.3086c0.04309,-0.04309 0.12546,-0.13051 0.24414,-0.25977c0.11868,-0.12944 0.2632,-0.25941 0.43555,-0.38867c0.18313,-0.1401 0.38197,-0.25846 0.59765,-0.35547c0.22635,-0.10784 0.46496,-0.16016 0.71289,-0.16016c0.23708,0 0.4359,0.08522 0.59766,0.25782c0.17235,0.16171 0.25781,0.36055 0.25781,0.59765c0,0.22647 -0.08546,0.42727 -0.25781,0.59961c-0.16174,0.16177 -0.36055,0.24219 -0.59766,0.24219c-0.4096,0 -0.74521,0.097 -1.0039,0.29101c-0.25867,0.18326 -0.46236,0.40342 -0.61328,0.66211c-0.1401,0.2587 -0.2371,0.52833 -0.29102,0.8086c-0.05392,0.28031 -0.08203,0.51213 -0.08203,0.69531v4.34961c0,0.23728 -0.08042,0.44093 -0.24219,0.61328c-0.16174,0.16177 -0.36055,0.24414 -0.59765,0.24414c-0.23726,0 -0.44289,-0.08237 -0.61524,-0.24414c-0.16176,-0.17252 -0.24219,-0.37618 -0.24219,-0.61328v-7.64844c0,-0.23705 0.08043,-0.43589 0.24219,-0.59765c0.1725,-0.1726 0.37813,-0.25977 0.61524,-0.25977c0.23707,0 0.43589,0.08717 0.59765,0.25977zM139.25994,156.80282c0.16176,0.16171 0.24219,0.36055 0.24219,0.59765v0.14649c0.21566,-0.18334 0.41447,-0.33949 0.59765,-0.46875c0.19397,-0.12926 0.39281,-0.23105 0.59766,-0.30664c0.20477,-0.08643 0.43175,-0.14549 0.67969,-0.17774c0.24793,-0.03225 0.53404,-0.04883 0.85742,-0.04883c0.52815,0 1.02476,0.11358 1.48828,0.33985c0.47428,0.22634 0.8836,0.54836 1.22851,0.96875c0.35566,0.4096 0.635,0.90621 0.83985,1.48828c0.20485,0.57129 0.30664,1.20271 0.30664,1.89258c0,0.68986 -0.09026,1.31933 -0.27344,1.89062c-0.18325,0.57129 -0.44805,1.0679 -0.79297,1.48828c-0.33416,0.4097 -0.73861,0.72686 -1.21289,0.95313c-0.47428,0.22627 -1.00193,0.33984 -1.58398,0.33984c-0.38806,0 -0.72851,-0.03769 -1.01953,-0.11328c-0.28017,-0.08617 -0.52651,-0.18796 -0.74219,-0.30664c-0.20473,-0.1186 -0.38902,-0.24858 -0.55078,-0.38867l-0.41992,-0.41992v3.7832c0,0.23705 -0.08043,0.43589 -0.24219,0.59766c-0.16171,0.17259 -0.36251,0.25976 -0.59961,0.25976c-0.23725,0 -0.44094,-0.08717 -0.61328,-0.25976c-0.16177,-0.16172 -0.24219,-0.36056 -0.24219,-0.59766v-11.06055c0,-0.23705 0.08042,-0.43589 0.24219,-0.59765c0.1725,-0.1726 0.37618,-0.25782 0.61328,-0.25782c0.23705,0 0.43784,0.08522 0.59961,0.25782zM121.9572,158.00008c-0.28026,0.11865 -0.51692,0.26995 -0.71093,0.45313c-0.18318,0.17234 -0.32966,0.36634 -0.4375,0.58203c-0.10785,0.21563 -0.18827,0.41447 -0.24219,0.59765c-0.05468,0.18329 -0.08758,0.34428 -0.09766,0.48438c-0.01008,0.12825 -0.01367,0.20388 -0.01367,0.22656h5.23828c0,-0.33413 -0.05426,-0.65132 -0.16211,-0.95312c-0.10789,-0.30191 -0.27568,-0.5667 -0.50195,-0.79297c-0.21558,-0.23718 -0.49492,-0.42631 -0.83984,-0.56641c-0.34495,-0.14009 -0.7494,-0.20898 -1.21289,-0.20898c-0.39882,0 -0.73927,0.05931 -1.01954,0.17773zM131.36736,158.00008c-0.28026,0.11865 -0.51692,0.26995 -0.71094,0.45313c-0.1832,0.17234 -0.3277,0.36634 -0.43554,0.58203c-0.10785,0.21563 -0.19022,0.41447 -0.24414,0.59765c-0.05468,0.18329 -0.08563,0.34428 -0.09571,0.48438c-0.01008,0.12825 -0.01562,0.20388 -0.01562,0.22656h5.23828c0,-0.33413 -0.05427,-0.65132 -0.16211,-0.95312c-0.10789,-0.30191 -0.27373,-0.5667 -0.5,-0.79297c-0.21556,-0.23718 -0.49685,-0.42631 -0.8418,-0.56641c-0.34492,-0.14009 -0.74939,-0.20898 -1.21289,-0.20898c-0.39884,0 -0.73929,0.05931 -1.01953,0.17773zM140.85955,158.20907c-0.31249,0.18323 -0.57533,0.43154 -0.79102,0.74414c-0.21571,0.3018 -0.38353,0.65194 -0.50195,1.05078c-0.10784,0.38803 -0.16211,0.79735 -0.16211,1.22851c0,0.42039 0.05427,0.83166 0.16211,1.23047c0.11845,0.39884 0.28627,0.74898 0.50195,1.05078c0.21559,0.30189 0.47843,0.54339 0.79102,0.72657c0.32337,0.18318 0.69001,0.27539 1.09961,0.27539c0.39881,0 0.75576,-0.09221 1.06836,-0.27539c0.32327,-0.18326 0.59291,-0.42476 0.80859,-0.72657c0.22632,-0.3018 0.39216,-0.65194 0.5,-1.05078c0.11843,-0.39881 0.17773,-0.81008 0.17773,-1.23047c0.00001,-0.43116 -0.0593,-0.84048 -0.17773,-1.22851c-0.10789,-0.39884 -0.27373,-0.74898 -0.5,-1.05078c-0.21558,-0.31265 -0.48522,-0.56096 -0.80859,-0.74414c-0.3126,-0.18318 -0.66955,-0.27344 -1.06836,-0.27344c-0.4096,0 -0.77624,0.09026 -1.09961,0.27344zM77.07634,161.37898c-0.20482,0.06475 -0.44827,0.11228 -0.72851,0.14453c-0.26948,0.0325 -0.55561,0.07019 -0.85742,0.11328c-0.29105,0.04309 -0.57523,0.09735 -0.85547,0.16211c-0.28037,0.06476 -0.5335,0.16176 -0.75977,0.29102c-0.22639,0.11857 -0.41068,0.27473 -0.55078,0.46875c-0.12926,0.19401 -0.19336,0.4423 -0.19336,0.74414c0,0.23705 0.04753,0.43589 0.14453,0.59765c0.10772,0.15093 0.24254,0.27604 0.4043,0.37305c0.16164,0.08617 0.34593,0.15027 0.55078,0.19336c0.20475,0.03225 0.40843,0.04883 0.61328,0.04883c0.3126,0 0.62686,-0.0329 0.93946,-0.09766c0.31256,-0.07534 0.5919,-0.1937 0.83984,-0.35547c0.25867,-0.16169 0.46431,-0.377 0.61523,-0.64648c0.16177,-0.26948 0.24219,-0.60314 0.24219,-1.00196v-1.14843zM66.71306,167.93172c0.57129,0.21559 1.03977,0.48038 1.40625,0.79297c0.36642,0.31259 0.63121,0.64141 0.79297,0.98633c0.17235,0.34497 0.25782,0.63594 0.25782,0.87305c0,0.17249 -0.03795,0.32865 -0.11329,0.46875c-0.0645,0.12926 -0.15671,0.24283 -0.27539,0.33984c-0.10784,0.08617 -0.231,0.15506 -0.37109,0.20898c-0.14017,0.04309 -0.27983,0.06641 -0.41992,0.06641c-0.18323,0 -0.35103,-0.04469 -0.50196,-0.13086c-0.15067,-0.08625 -0.25751,-0.2259 -0.32226,-0.41992c-0.08635,-0.24796 -0.21633,-0.4633 -0.38867,-0.64649c-0.17253,-0.18315 -0.37814,-0.33444 -0.61524,-0.45312c-0.22634,-0.12926 -0.4727,-0.21952 -0.74218,-0.27344c-0.26949,-0.06475 -0.53428,-0.09765 -0.79297,-0.09765c-0.77609,0 -1.34157,0.13481 -1.69727,0.40429c-0.35573,0.26948 -0.5332,0.62932 -0.5332,1.08203c0,0.33411 0.10179,0.60375 0.30664,0.8086c0.21558,0.19406 0.4949,0.36186 0.83984,0.50195c0.34492,0.12926 0.7329,0.24284 1.16406,0.33984c0.44193,0.08643 0.89102,0.18822 1.34375,0.30665c0.4635,0.10771 0.91063,0.24253 1.3418,0.40429c0.44193,0.16169 0.83474,0.38185 1.17969,0.66211c0.34487,0.26948 0.61937,0.6148 0.82422,1.03516c0.21568,0.40962 0.32422,0.92271 0.32422,1.53711c0,0.70065 -0.14648,1.30878 -0.4375,1.82617c-0.28027,0.50661 -0.65658,0.92756 -1.13086,1.26172c-0.47428,0.32327 -1.02521,0.56675 -1.65039,0.72851c-0.6144,0.16177 -1.25554,0.24219 -1.92383,0.24219c-0.83001,0 -1.53514,-0.10853 -2.11719,-0.32422c-0.58207,-0.21558 -1.06218,-0.49008 -1.43945,-0.82422c-0.36662,-0.33416 -0.63625,-0.69595 -0.8086,-1.08398c-0.16176,-0.38806 -0.24218,-0.75953 -0.24218,-1.11523c0,-0.19395 0.03094,-0.37144 0.0957,-0.53321c0.07534,-0.16164 0.16755,-0.29645 0.27539,-0.40429c0.1186,-0.11843 0.24858,-0.21064 0.38867,-0.2754c0.15093,-0.06475 0.29545,-0.0957 0.43555,-0.0957c0.18323,0 0.35102,0.05231 0.50195,0.16016c0.15093,0.09711 0.25272,0.26006 0.30664,0.48633c0.14012,0.57128 0.40007,1.0281 0.77735,1.37304c0.38803,0.34492 0.99616,0.51758 1.82617,0.51758c0.80841,0 1.44955,-0.13968 1.92383,-0.41992c0.47428,-0.28027 0.71093,-0.68472 0.71093,-1.21289c0,-0.35581 -0.10179,-0.64678 -0.30664,-0.87305c-0.2048,-0.23705 -0.47927,-0.43589 -0.82422,-0.59765c-0.33413,-0.16164 -0.71726,-0.29646 -1.14843,-0.4043c-0.43117,-0.11843 -0.87346,-0.23679 -1.32617,-0.35547c-0.44196,-0.12926 -0.87746,-0.27574 -1.3086,-0.4375c-0.43117,-0.16166 -0.81912,-0.36534 -1.16406,-0.61328c-0.33409,-0.2587 -0.60374,-0.57101 -0.8086,-0.9375c-0.20485,-0.37727 -0.30664,-0.84088 -0.30664,-1.39063c0.01084,-0.6144 0.12921,-1.15853 0.35547,-1.63281c0.23716,-0.47428 0.55915,-0.87391 0.96875,-1.19727c0.4096,-0.3235 0.89458,-0.57179 1.45508,-0.74414c0.56051,-0.17259 1.17543,-0.25781 1.84375,-0.25781c0.80842,0 1.49903,0.11162 2.07031,0.33789zM72.9904,168.17391c0.24793,0.23713 0.37109,0.5281 0.37109,0.87305v3.78515h5.27149v-3.78515c0,-0.34497 0.11836,-0.63595 0.35546,-0.87305c0.23713,-0.2371 0.52811,-0.35547 0.87305,-0.35547c0.34497,0 0.63595,0.11837 0.87305,0.35547c0.24794,0.23713 0.37109,0.5281 0.37109,0.87305v10.30078c0,0.34494 -0.12315,0.63594 -0.37109,0.87304c-0.23715,0.23711 -0.52813,0.35547 -0.87305,0.35547c-0.34497,0 -0.63594,-0.11836 -0.87305,-0.35547c-0.2371,-0.23712 -0.35546,-0.52812 -0.35546,-0.87304v-4.38281h-5.27149v4.38281c0,0.34494 -0.12316,0.63594 -0.37109,0.87304c-0.23713,0.23711 -0.5281,0.35547 -0.87305,0.35547c-0.34494,0 -0.63594,-0.11836 -0.87305,-0.35547c-0.2371,-0.23712 -0.35547,-0.52812 -0.35547,-0.87304v-10.30078c0,-0.34497 0.11837,-0.63595 0.35547,-0.87305c0.23713,-0.2371 0.52813,-0.35547 0.87305,-0.35547c0.34497,0 0.63595,0.11837 0.87305,0.35547zM88.27947,167.81844c0.77609,0 1.46472,0.18914 2.06836,0.56641c0.6144,0.36649 1.12751,0.85143 1.53711,1.45508c0.42028,0.59283 0.73744,1.27178 0.95312,2.03711c0.21569,0.7653 0.32422,1.53641 0.32422,2.3125c0,0.78687 -0.10853,1.56279 -0.32422,2.32812c-0.21558,0.75452 -0.53274,1.43347 -0.95312,2.03711c-0.4096,0.60362 -0.91592,1.09343 -1.51953,1.4707c-0.60364,0.36649 -1.29907,0.55078 -2.08594,0.55078h-4.39844c-0.15088,0 -0.30219,-0.02136 -0.45312,-0.06445c-0.15101,-0.05392 -0.29066,-0.12955 -0.41992,-0.22656c-0.11868,-0.10772 -0.21568,-0.24253 -0.29102,-0.4043c-0.07534,-0.16179 -0.11328,-0.35576 -0.11328,-0.58203v-10.21875c0,-0.09701 0.01657,-0.21537 0.04883,-0.35547c0.03225,-0.151 0.09635,-0.29066 0.19336,-0.41992c0.09693,-0.1401 0.2269,-0.25367 0.38867,-0.33984c0.17245,-0.09701 0.38779,-0.14649 0.64648,-0.14649zM85.0783,178.44149h2.2793c0.63596,0 1.1636,-0.11837 1.58398,-0.35547c0.43117,-0.24794 0.77646,-0.57189 1.03516,-0.9707c0.25864,-0.39882 0.44098,-0.85079 0.54882,-1.35743c0.10785,-0.51739 0.16211,-1.04018 0.16211,-1.56835c0,-0.52818 -0.05426,-1.04613 -0.16211,-1.55274c-0.10779,-0.50661 -0.29013,-0.95858 -0.54882,-1.35742c-0.2587,-0.39879 -0.60399,-0.72277 -1.03516,-0.9707c-0.42038,-0.24794 -0.94802,-0.3711 -1.58398,-0.3711h-2.2793z" fill="#1eff00" stroke="none" stroke-width="1.01053" stroke-miterlimit="10" stroke-dashoffset="0"/></g></g></svg>