<svg version="1.1" xmlns="http://www.w3.org/2000/svg" xmlns:xlink="http://www.w3.org/1999/xlink" width="53.854" height="71.117" viewBox="0,0,53.854,71.117"><g transform="translate(-213.194,-144.403)"><g data-paper-data="{&quot;isPaintingLayer&quot;:true}" fill="#ffffff" fill-rule="nonzero" stroke="none" stroke-width="0" stroke-linecap="butt" stroke-linejoin="miter" stroke-miterlimit="10" stroke-dasharray="" stroke-dashoffset="0" style="mix-blend-mode: normal"><path d="M254.018,145.944c1.094,1.026 1.641,2.276 1.641,3.752v39.842h6.949c1.223,0 2.252,0.449 3.088,1.347c0.901,0.834 1.352,1.859 1.352,3.078c0,1.283 -0.451,2.342 -1.352,3.176c-0.836,0.834 -1.865,1.252 -3.088,1.252h-6.949v12.029c0,1.412 -0.515,2.63 -1.545,3.657c-0.965,0.962 -2.155,1.443 -3.57,1.443c-1.416,0 -2.639,-0.481 -3.668,-1.443c-0.965,-1.027 -1.447,-2.245 -1.447,-3.657v-12.029h-25.19c-1.93,0 -3.602,-0.674 -5.018,-2.021c-1.351,-1.348 -2.027,-2.984 -2.027,-4.909c0,-0.898 0.096,-1.635 0.289,-2.213c0.193,-0.577 0.548,-1.218 1.063,-1.923l31.654,-40.996c0.322,-0.514 0.837,-0.963 1.545,-1.348c0.772,-0.385 1.609,-0.578 2.51,-0.578c1.48,0 2.734,0.514 3.763,1.541zM223.907,189.538h21.522v-28.487z"/></g></g></svg>