<svg version="1.1" xmlns="http://www.w3.org/2000/svg" xmlns:xlink="http://www.w3.org/1999/xlink" width="146.79994" height="175.14563" viewBox="0,0,146.79994,175.14563"><g transform="translate(-280.84417,-44.10589)"><g data-paper-data="{&quot;isPaintingLayer&quot;:true}" fill="#87ff98" fill-rule="nonzero" stroke="#ffffff" stroke-width="5.28822" stroke-linecap="butt" stroke-linejoin="miter" stroke-miterlimit="10" stroke-dasharray="" stroke-dashoffset="0" font-family="none" font-weight="none" font-size="none" text-anchor="none" style="mix-blend-mode: normal"><path d="M363.86914,50.5586c3.10242,2.53836 5.42926,5.92177 6.98047,10.15234l53.09375,136.64843c0.7051,1.83325 1.05664,3.59486 1.05664,5.28711c0,1.26917 -0.21171,2.67925 -0.63477,4.23047c-0.42305,1.55119 -1.1281,3.10308 -2.11523,4.6543c-0.98713,1.41019 -2.39722,2.60857 -4.23047,3.5957c-1.69223,0.98714 -3.80736,1.48047 -6.3457,1.48047c-2.9614,0 -5.71166,-0.91675 -8.25,-2.75c-2.53835,-1.83327 -4.37185,-4.23002 -5.5,-7.19141l-13.96094,-40.18945h-60.91992l-13.53711,42.30469c-0.84612,2.53833 -2.39799,4.51364 -4.6543,5.92383c-2.2563,1.26919 -4.72298,1.90234 -7.40234,1.90234c-3.80752,0 -7.12298,-1.26828 -9.94336,-3.80664c-2.67936,-2.53836 -4.01758,-5.6421 -4.01758,-9.30859c0,-1.41019 0.21171,-2.74841 0.63477,-4.01758l50.34375,-138.76366c1.55121,-4.23058 3.80617,-7.61399 6.76758,-10.15234c3.10242,-2.53833 6.91121,-3.80859 11.42382,-3.80859c4.51262,0 8.24954,1.27026 11.21094,3.80859zM330.02344,144.05273h46.11328l-24.32617,-69.59179z" id="path878"/></g></g></svg>