<svg version="1.1" xmlns="http://www.w3.org/2000/svg" xmlns:xlink="http://www.w3.org/1999/xlink" width="372.21484" height="68.64258"><g transform="translate(-53.89258,-145.67871)"><g data-paper-data="{&quot;isPaintingLayer&quot;:true}" fill-rule="nonzero" stroke-linecap="butt" stroke-linejoin="miter" stroke-dasharray="" style="mix-blend-mode: normal"><path d="M425.00976,146.42871c0.19314,0 0.34766,0.15452 0.34766,0.34766v66.44531c0,0.19313 -0.15452,0.34961 -0.34766,0.34961h-370.01757c-0.19328,0 -0.34961,-0.15648 -0.34961,-0.34961v-66.44531c0,-0.19314 0.15637,-0.34766 0.34961,-0.34766z" data-paper-data="{&quot;origPos&quot;:null}" id="rect815-0-0-3" fill="#1e1e1e" stroke="#1eff00" stroke-width="1.5" stroke-miterlimit="4" stroke-dashoffset="17.35"/><path d="M67.2168,151.79199c0.62933,0.27732 1.16919,0.61313 1.61719,1.00781c0.45867,0.384 0.80935,0.79316 1.05469,1.23047c0.256,0.43734 0.38477,0.81672 0.38477,1.13672c0,0.28808 -0.10698,0.51692 -0.32031,0.6875c-0.21333,0.16 -0.44217,0.24024 -0.6875,0.24024c-0.18133,0 -0.35172,-0.04154 -0.51172,-0.12696c-0.16,-0.09592 -0.27194,-0.25142 -0.33594,-0.46484c-0.096,-0.29866 -0.22972,-0.59286 -0.40039,-0.88086c-0.17067,-0.2881 -0.38958,-0.54862 -0.65625,-0.7832c-0.26667,-0.23474 -0.58069,-0.42197 -0.94336,-0.56055c-0.352,-0.14942 -0.76309,-0.22266 -1.23242,-0.22266c-0.53333,0 -1.03457,0.11698 -1.50391,0.35157c-0.46933,0.224 -0.88042,0.54988 -1.23242,0.97656c-0.34133,0.416 -0.61374,0.92221 -0.81641,1.51953c-0.20267,0.59734 -0.30273,1.264 -0.30273,2c0,0.736 0.10007,1.40266 0.30273,2c0.20267,0.59732 0.47507,1.10847 0.81641,1.53516c0.352,0.42673 0.76309,0.7576 1.23242,0.99218c0.46933,0.224 0.97057,0.33594 1.50391,0.33594c0.46933,0 0.88042,-0.06845 1.23242,-0.20703c0.36267,-0.14942 0.67669,-0.34159 0.94336,-0.57617c0.26667,-0.23466 0.48558,-0.49716 0.65625,-0.78516c0.17067,-0.29868 0.30439,-0.59587 0.40039,-0.89453c0.064,-0.21324 0.17594,-0.3638 0.33594,-0.44922c0.16,-0.096 0.33038,-0.14258 0.51172,-0.14258c0.24533,0 0.47417,0.08024 0.6875,0.24024c0.21333,0.16 0.32031,0.38387 0.32031,0.67187c0,0.23466 -0.09706,0.56358 -0.28906,0.99024c-0.192,0.42668 -0.4892,0.85459 -0.89453,1.28125c-0.40533,0.416 -0.93332,0.77855 -1.58398,1.08789c-0.64,0.30931 -1.41365,0.46289 -2.32031,0.46289c-0.96,0 -1.80201,-0.18031 -2.52734,-0.54297c-0.71467,-0.36266 -1.31297,-0.84903 -1.79297,-1.45703c-0.46933,-0.608 -0.82693,-1.3014 -1.07227,-2.08008c-0.23467,-0.78932 -0.35156,-1.60955 -0.35156,-2.46289c0,-0.84266 0.1169,-1.65792 0.35156,-2.44727c0.24533,-0.78934 0.60293,-1.48276 1.07227,-2.08007c0.48,-0.608 1.0783,-1.09435 1.79297,-1.45703c0.72533,-0.36266 1.56734,-0.54297 2.52734,-0.54297c0.736,0 1.41258,0.13867 2.03125,0.41601zM72.84375,151.87012c0.192,0.18134 0.28711,0.40521 0.28711,0.67187c0,0.256 -0.09511,0.48183 -0.28711,0.67383c-0.18133,0.18142 -0.40025,0.27148 -0.65625,0.27148c-0.26667,0 -0.49745,-0.09006 -0.68945,-0.27148c-0.18133,-0.192 -0.27148,-0.41783 -0.27148,-0.67383c0,-0.26658 0.09015,-0.49046 0.27148,-0.67187c0.192,-0.18142 0.42279,-0.27149 0.68945,-0.27149c0.256,0 0.47492,0.09007 0.65625,0.27149zM108.0586,151.59863c0.58667,0 1.10278,0.08528 1.55078,0.25586c0.45867,0.17066 0.84301,0.4064 1.15234,0.70508c0.30933,0.288 0.54508,0.63375 0.70508,1.03906c0.16,0.39469 0.23828,0.82259 0.23828,1.28125c0,0.40534 -0.05844,0.75603 -0.17578,1.05469c-0.10666,0.29866 -0.2503,0.56116 -0.43164,0.78516c-0.17067,0.21341 -0.3678,0.38876 -0.5918,0.52734c-0.21333,0.128 -0.43225,0.22311 -0.65625,0.28711c0.448,0.14942 0.82243,0.34159 1.12109,0.57617c0.29866,0.224 0.53741,0.47461 0.71875,0.75195c0.18134,0.27735 0.31011,0.57649 0.38477,0.89649c0.07466,0.32 0.11133,0.64094 0.11133,0.96094c0,0.52265 -0.10697,0.99717 -0.32031,1.42382c-0.21333,0.42669 -0.50557,0.7942 -0.87891,1.10352c-0.36267,0.30942 -0.79554,0.55012 -1.29687,0.7207c-0.49067,0.17059 -1.01865,0.25586 -1.58398,0.25586h-4.67187c-0.15999,0 -0.31355,-0.02666 -0.46289,-0.08008c-0.14933,-0.064 -0.28305,-0.14927 -0.40039,-0.25586c-0.11734,-0.10668 -0.2144,-0.24039 -0.28906,-0.40039c-0.07466,-0.16 -0.11133,-0.33534 -0.11133,-0.52734v-10.11328c0,-0.34127 0.12185,-0.63349 0.36719,-0.87891c0.24533,-0.24541 0.54448,-0.36914 0.89648,-0.36914zM137.79688,151.83887c0.16,0.16007 0.24023,0.35721 0.24023,0.59179v6.11133l3.91992,-3.40625c0.14932,-0.11742 0.31475,-0.17773 0.49609,-0.17773c0.17067,0 0.33609,0.06536 0.49609,0.19336c0.16,0.12807 0.24023,0.30838 0.24023,0.54297c0,0.21324 -0.0852,0.3955 -0.25586,0.54492l-2.44922,2.11133l3.23242,4.57617c0.096,0.14941 0.14453,0.30988 0.14453,0.48047c0,0.14941 -0.02674,0.27623 -0.08008,0.38281c-0.05332,0.096 -0.12169,0.17623 -0.20703,0.24023c-0.08534,0.064 -0.17744,0.11253 -0.27344,0.14453c-0.096,0.032 -0.18614,0.04883 -0.27148,0.04883c-0.13866,0 -0.26742,-0.02666 -0.38477,-0.08008c-0.11732,-0.05316 -0.21739,-0.13844 -0.30273,-0.25586l-3.07227,-4.44921l-1.23242,1.05664v2.8789c0,0.23476 -0.08023,0.4388 -0.24023,0.60938c-0.16001,0.16 -0.35714,0.24023 -0.5918,0.24023c-0.23467,0 -0.43676,-0.08023 -0.60742,-0.24023c-0.16,-0.17076 -0.24023,-0.37479 -0.24023,-0.60938v-10.94336c0,-0.23465 0.08023,-0.43179 0.24023,-0.59179c0.17067,-0.16 0.37276,-0.24024 0.60742,-0.24024c0.23467,0 0.4318,0.08024 0.5918,0.24024zM104.0586,156.84668h3.75977c0.26667,0 0.5272,-0.04154 0.7832,-0.12695c0.256,-0.08517 0.47987,-0.2041 0.67187,-0.35352c0.19199,-0.15992 0.3475,-0.34518 0.46484,-0.55859c0.11734,-0.224 0.17578,-0.46967 0.17578,-0.73633c0,-0.52266 -0.16543,-0.95057 -0.49609,-1.28125c-0.33067,-0.34132 -0.81012,-0.51172 -1.43945,-0.51172h-3.91992zM94.22656,155.16699c0.544,0.21334 1.01353,0.52242 1.4082,0.92774c0.39467,0.40534 0.70373,0.90162 0.92773,1.48828c0.224,0.58668 0.33594,1.25831 0.33594,2.01562c0,0.75734 -0.11194,1.42897 -0.33594,2.01563c-0.224,0.58668 -0.53307,1.08296 -0.92773,1.48828c-0.39467,0.39458 -0.8642,0.69869 -1.4082,0.91211c-0.53333,0.21342 -1.11481,0.32031 -1.74414,0.32031c-0.62933,0 -1.21577,-0.10689 -1.75977,-0.32031c-0.53333,-0.21332 -0.99791,-0.51743 -1.39258,-0.91211c-0.39467,-0.40532 -0.70373,-0.9016 -0.92773,-1.48828c-0.224,-0.58666 -0.33594,-1.25829 -0.33594,-2.01563c0,-0.75731 0.11194,-1.42894 0.33594,-2.01562c0.224,-0.58666 0.53307,-1.08294 0.92773,-1.48828c0.39467,-0.40524 0.85925,-0.71432 1.39258,-0.92774c0.544,-0.21342 1.13043,-0.32031 1.75977,-0.32031c0.62933,0 1.21081,0.10689 1.74414,0.32031zM123.92969,155.11816c0.53333,0.18135 0.991,0.44878 1.375,0.80079c0.39467,0.34131 0.70569,0.76233 0.92969,1.26367c0.224,0.50134 0.33594,1.07289 0.33594,1.71289c0,0.39473 -0.09706,0.6939 -0.28906,0.89648c-0.192,0.20258 -0.41587,0.30274 -0.67187,0.30274h-5.85547c0,0.02141 0.00504,0.11343 0.01562,0.27343c0.02132,0.14927 0.05799,0.32956 0.11133,0.54297c0.064,0.21324 0.1492,0.44209 0.25586,0.6875c0.11733,0.23476 0.27284,0.45367 0.46484,0.65625c0.192,0.20274 0.42579,0.37314 0.70312,0.51172c0.288,0.128 0.63568,0.19336 1.04101,0.19336c0.33067,0 0.613,-0.02666 0.84766,-0.08008c0.23466,-0.05341 0.44366,-0.13365 0.625,-0.24023c0.18133,-0.10669 0.34675,-0.24039 0.49609,-0.40039c0.14932,-0.17066 0.29792,-0.3678 0.44727,-0.5918c0.08534,-0.128 0.18045,-0.21807 0.28711,-0.27148c0.10666,-0.05342 0.2186,-0.08008 0.33594,-0.08008c0.192,0 0.3693,0.06845 0.5293,0.20703c0.16,0.13858 0.24023,0.31393 0.24023,0.52734c0,0.128 -0.07033,0.32017 -0.20898,0.57618c-0.13867,0.25599 -0.36254,0.51157 -0.67187,0.76757c-0.29867,0.256 -0.68797,0.48183 -1.16797,0.67383c-0.48,0.192 -1.06643,0.28711 -1.75977,0.28711c-0.704,0 -1.334,-0.12876 -1.88867,-0.38477c-0.55466,-0.256 -1.0242,-0.59677 -1.4082,-1.02343c-0.37334,-0.43734 -0.66062,-0.94353 -0.86328,-1.51953c-0.192,-0.576 -0.28711,-1.17926 -0.28711,-1.8086c0,-0.65066 0.10008,-1.26384 0.30273,-1.83984c0.20267,-0.58666 0.4919,-1.09285 0.86523,-1.51953c0.384,-0.42659 0.84167,-0.7624 1.375,-1.00781c0.53333,-0.256 1.13164,-0.38477 1.79297,-0.38477c0.608,0 1.17264,0.09007 1.69531,0.27148zM134.02344,155.50293c0.65067,0.42666 0.97461,1.06161 0.97461,1.9043v5.96679c0,0.23476 -0.08023,0.4388 -0.24023,0.60938c-0.16001,0.16 -0.35714,0.24023 -0.5918,0.24023c-0.23467,0 -0.43676,-0.08023 -0.60742,-0.24023c-0.16,-0.17076 -0.24023,-0.37479 -0.24023,-0.60938v-0.25586c-0.40533,0.43724 -0.86991,0.73145 -1.39258,0.88086c-0.512,0.14942 -1.05486,0.22461 -1.63086,0.22461c-0.36267,0 -0.73018,-0.04853 -1.10352,-0.14453c-0.36267,-0.10658 -0.69352,-0.26705 -0.99219,-0.48047c-0.28799,-0.21334 -0.52374,-0.47883 -0.70508,-0.79883c-0.18134,-0.32 -0.27148,-0.70434 -0.27148,-1.15234c0,-0.512 0.10203,-0.93991 0.30469,-1.28125c0.20267,-0.352 0.47312,-0.63928 0.81445,-0.86328c0.34133,-0.2239 0.73064,-0.3943 1.16797,-0.51172c0.448,-0.11716 0.91753,-0.20244 1.4082,-0.25586c0.56533,-0.064 1.00812,-0.1344 1.32812,-0.20898c0.32,-0.08542 0.5607,-0.18053 0.7207,-0.28711c0.16,-0.10684 0.25511,-0.22861 0.28711,-0.36719c0.04266,-0.13873 0.06445,-0.29426 0.06445,-0.46484c0,-0.20259 -0.05844,-0.37793 -0.17578,-0.52735c-0.11732,-0.14941 -0.26592,-0.27314 -0.44726,-0.36914c-0.18133,-0.096 -0.38537,-0.16445 -0.60937,-0.20703c-0.22399,-0.05342 -0.44291,-0.08008 -0.65625,-0.08008c-0.38401,0 -0.69308,0.03171 -0.92773,0.09571c-0.23466,0.064 -0.42683,0.14927 -0.57617,0.25585c-0.14934,0.10659 -0.27119,0.2334 -0.36719,0.38282c-0.08534,0.14934 -0.16558,0.30484 -0.24023,0.46484c-0.064,0.128 -0.15414,0.22311 -0.27148,0.28711c-0.10666,0.05342 -0.2186,0.08008 -0.33594,0.08008c-0.21333,0 -0.41046,-0.06845 -0.5918,-0.20703c-0.18134,-0.13859 -0.27344,-0.33076 -0.27344,-0.57617c0,-0.096 0.02674,-0.21298 0.08008,-0.35157c0.096,-0.22392 0.22477,-0.44283 0.38477,-0.65625c0.16,-0.22407 0.37396,-0.42121 0.64062,-0.59179c0.27733,-0.17066 0.61314,-0.30439 1.00781,-0.40039c0.40533,-0.10659 0.8947,-0.16016 1.4707,-0.16016c1.088,0 1.95375,0.21891 2.59375,0.65625zM75.7168,155.21387c0.16,0.16007 0.24023,0.35916 0.24023,0.59375v0.30273c0.04267,-0.04258 0.1229,-0.12786 0.24023,-0.25586c0.11733,-0.128 0.26097,-0.25481 0.43164,-0.38281c0.18133,-0.13858 0.37846,-0.25752 0.5918,-0.35352c0.224,-0.10658 0.45779,-0.1582 0.70312,-0.1582c0.23467,0 0.4318,0.08528 0.5918,0.25586c0.17067,0.16008 0.25781,0.35721 0.25781,0.5918c0,0.2241 -0.08715,0.42121 -0.25781,0.59179c-0.16,0.16 -0.35713,0.24024 -0.5918,0.24024c-0.40533,0 -0.73619,0.09511 -0.99219,0.28711c-0.256,0.18131 -0.45809,0.40025 -0.60742,0.65625c-0.13867,0.256 -0.23377,0.52344 -0.28711,0.80078c-0.05333,0.27724 -0.08008,0.50608 -0.08008,0.6875v4.30273c0,0.23476 -0.08023,0.4388 -0.24023,0.60938c-0.16,0.16 -0.35713,0.24023 -0.5918,0.24023c-0.23467,0 -0.43871,-0.08023 -0.60937,-0.24023c-0.16,-0.17076 -0.23828,-0.37479 -0.23828,-0.60938v-7.5664c0,-0.23466 0.07828,-0.43375 0.23828,-0.59375c0.17067,-0.17059 0.37471,-0.25586 0.60937,-0.25586c0.23467,0 0.4318,0.08527 0.5918,0.25586zM85.1875,155.13574c0.37333,0.10669 0.70419,0.2721 0.99219,0.4961c0.288,0.224 0.51879,0.50137 0.68945,0.83203c0.17067,0.33066 0.25586,0.71305 0.25586,1.15039v5.76172c0,0.23476 -0.08519,0.43684 -0.25586,0.60742c-0.16,0.16 -0.35908,0.24023 -0.59375,0.24023c-0.23467,0 -0.4318,-0.08023 -0.5918,-0.24023c-0.16,-0.17076 -0.24023,-0.37284 -0.24023,-0.60742v-5.56836c0,-0.23459 -0.05845,-0.44359 -0.17578,-0.625c-0.10667,-0.19193 -0.25031,-0.34548 -0.43164,-0.46289c-0.17067,-0.128 -0.3678,-0.22507 -0.5918,-0.28907c-0.21333,-0.064 -0.42729,-0.0957 -0.64062,-0.0957c-0.352,0 -0.67098,0.06341 -0.95898,0.19141c-0.288,0.11726 -0.53366,0.28267 -0.73633,0.49609c-0.192,0.21332 -0.3406,0.47085 -0.44726,0.76953c-0.10667,0.288 -0.16016,0.60204 -0.16016,0.94336v4.64063c0,0.23476 -0.08023,0.43684 -0.24023,0.60742c-0.16,0.16 -0.35713,0.24023 -0.5918,0.24023c-0.23467,0 -0.43871,-0.08023 -0.60937,-0.24023c-0.16,-0.17076 -0.23828,-0.37284 -0.23828,-0.60742v-7.56836c0,-0.23466 0.07828,-0.4318 0.23828,-0.5918c0.17067,-0.17058 0.37471,-0.25586 0.60937,-0.25586c0.23467,0 0.4318,0.08528 0.5918,0.25586c0.16,0.16008 0.24023,0.35721 0.24023,0.5918v0.28711c0.10667,-0.096 0.23348,-0.20794 0.38281,-0.33594c0.16,-0.13858 0.35217,-0.2654 0.57617,-0.38281c0.224,-0.11742 0.47958,-0.21448 0.76758,-0.28907c0.29867,-0.08541 0.64139,-0.1289 1.02539,-0.1289c0.39467,0 0.7721,0.06031 1.13477,0.17773zM114.68555,155.21387c0.16,0.16007 0.24023,0.35916 0.24023,0.59375v0.30273c0.04266,-0.04258 0.12289,-0.12786 0.24023,-0.25586c0.11734,-0.128 0.26098,-0.25481 0.43164,-0.38281c0.18133,-0.13858 0.37846,-0.25752 0.5918,-0.35352c0.22399,-0.10658 0.45778,-0.1582 0.70312,-0.1582c0.23467,0 0.4318,0.08528 0.5918,0.25586c0.17066,0.16008 0.25781,0.35721 0.25781,0.5918c0,0.2241 -0.08715,0.42121 -0.25781,0.59179c-0.16001,0.16 -0.35714,0.24024 -0.5918,0.24024c-0.40533,0 -0.73619,0.09511 -0.99219,0.28711c-0.25599,0.18131 -0.45808,0.40025 -0.60742,0.65625c-0.13866,0.256 -0.23377,0.52344 -0.28711,0.80078c-0.05334,0.27724 -0.08008,0.50608 -0.08008,0.6875v4.30273c0,0.23476 -0.08023,0.4388 -0.24023,0.60938c-0.16001,0.16 -0.35714,0.24023 -0.5918,0.24023c-0.23468,0 -0.43872,-0.08023 -0.60937,-0.24023c-0.16,-0.17076 -0.23828,-0.37479 -0.23828,-0.60938v-7.5664c0,-0.23466 0.07828,-0.43375 0.23828,-0.59375c0.17068,-0.17059 0.37472,-0.25586 0.60937,-0.25586c0.23467,0 0.4318,0.08527 0.5918,0.25586zM72.7793,155.21582c0.16,0.16008 0.24023,0.35721 0.24023,0.5918v7.5664c0,0.23476 -0.08023,0.4388 -0.24023,0.60938c-0.16,0.16 -0.35713,0.24023 -0.5918,0.24023c-0.23467,0 -0.43871,-0.08023 -0.60937,-0.24023c-0.16,-0.17076 -0.23828,-0.37479 -0.23828,-0.60938v-7.5664c0,-0.23466 0.07828,-0.4318 0.23828,-0.5918c0.17067,-0.17058 0.37471,-0.25586 0.60937,-0.25586c0.23467,0 0.4318,0.08528 0.5918,0.25586zM121.25781,156.39941c-0.27733,0.11724 -0.51308,0.26585 -0.70508,0.44727c-0.18134,0.17058 -0.32498,0.36275 -0.43164,0.57617c-0.10666,0.21324 -0.18689,0.41038 -0.24023,0.5918c-0.05342,0.18142 -0.08512,0.34188 -0.0957,0.48047c-0.01058,0.12926 -0.01562,0.20445 -0.01562,0.22461h5.18359c0,-0.33066 -0.0535,-0.64663 -0.16016,-0.94532c-0.10667,-0.29865 -0.27209,-0.5592 -0.49609,-0.7832c-0.21333,-0.23476 -0.4907,-0.42196 -0.83203,-0.56055c-0.34133,-0.13858 -0.74055,-0.20703 -1.19922,-0.20703v-0.00195c-0.39467,0 -0.73048,0.06032 -1.00781,0.17773zM91.37891,156.43066c-0.33066,0.128 -0.61989,0.33008 -0.86523,0.60743c-0.23468,0.26665 -0.41993,0.61433 -0.55859,1.04101c-0.13866,0.42666 -0.20898,0.93287 -0.20898,1.51953c0,0.58669 0.07033,1.09288 0.20898,1.51953c0.13868,0.416 0.32394,0.76368 0.55859,1.04102c0.24533,0.26673 0.53457,0.46884 0.86523,0.60742c0.34133,0.128 0.70885,0.19141 1.10352,0.19141c0.39467,0 0.75722,-0.06341 1.08789,-0.19141c0.34134,-0.13866 0.62862,-0.34076 0.86328,-0.60742c0.24534,-0.27734 0.43751,-0.62502 0.57617,-1.04102c0.13866,-0.42665 0.20898,-0.93284 0.20898,-1.51953c0,-0.58666 -0.07033,-1.09287 -0.20898,-1.51953c-0.13866,-0.42668 -0.33083,-0.77436 -0.57617,-1.04101c-0.23467,-0.27735 -0.52195,-0.47943 -0.86328,-0.60743c-0.33067,-0.13858 -0.69322,-0.20703 -1.08789,-0.20703c-0.39467,0 -0.76218,0.06845 -1.10352,0.20703zM104.0586,162.54199h3.90234c0.864,0 1.4623,-0.17038 1.79297,-0.51172c0.34133,-0.352 0.51172,-0.82648 0.51172,-1.42382c0,-0.69332 -0.23379,-1.22627 -0.70312,-1.59961c-0.45867,-0.384 -1.07184,-0.57618 -1.83984,-0.57618h-3.66406zM132.91797,159.74316c-0.20267,0.064 -0.44142,0.11254 -0.71875,0.14453c-0.26667,0.03201 -0.55094,0.06875 -0.84961,0.11133c-0.288,0.04259 -0.57032,0.09616 -0.84766,0.16016c-0.27733,0.064 -0.52795,0.15911 -0.75195,0.28711c-0.22401,0.11734 -0.40431,0.27284 -0.54297,0.46484c-0.128,0.192 -0.19336,0.43767 -0.19336,0.73633c0,0.23466 0.04853,0.4318 0.14453,0.5918c0.10667,0.14941 0.24039,0.27118 0.40039,0.36719c0.16001,0.08541 0.34031,0.14882 0.54297,0.1914c0.20267,0.032 0.40672,0.04883 0.60937,0.04883c0.30933,0 0.6184,-0.0317 0.92773,-0.0957c0.30932,-0.07459 0.58669,-0.19157 0.83203,-0.35157c0.25599,-0.16 0.45808,-0.37394 0.60742,-0.64062c0.16,-0.26666 0.24023,-0.59753 0.24023,-0.99219v-1.13476zM92.91016,168.9248c0.15991,0.07509 0.30152,0.17682 0.42383,0.3086c0.1317,0.12238 0.24383,0.27448 0.33789,0.45312c0.09408,0.16925 0.17439,0.34694 0.24023,0.53516l2.91992,8.43945c0.04704,0.14121 0.07227,0.27233 0.07227,0.39453c0,0.11289 -0.02522,0.23541 -0.07227,0.36719c-0.03764,0.13153 -0.09893,0.248 -0.18359,0.35156c-0.08466,0.10331 -0.19251,0.19224 -0.32422,0.26758c-0.1317,0.06577 -0.29037,0.09961 -0.47852,0.09961c-0.22578,0 -0.43722,-0.06548 -0.63476,-0.19726c-0.18814,-0.13171 -0.32122,-0.31135 -0.39648,-0.53711l-0.80469,-2.69336h-3.27344l-0.80273,2.69336c-0.07527,0.22568 -0.21261,0.40533 -0.41016,0.53711c-0.18814,0.13178 -0.39532,0.19726 -0.62109,0.19726c-0.32925,0 -0.59151,-0.10778 -0.78906,-0.32422c-0.18814,-0.22579 -0.2832,-0.47951 -0.2832,-0.76172c0,-0.1223 0.02328,-0.25343 0.07031,-0.39453l2.93555,-8.43945c0.06586,-0.18815 0.14617,-0.36583 0.24023,-0.53516c0.09406,-0.17882 0.20191,-0.33092 0.32422,-0.45312c0.12229,-0.13153 0.2639,-0.23326 0.42383,-0.3086c0.15991,-0.07533 0.34186,-0.11328 0.54883,-0.11328c0.19755,0 0.37718,0.03795 0.53711,0.11328zM112.69531,169.1084c0.49858,0.18814 0.90672,0.4186 1.22656,0.6914c0.31985,0.27281 0.5503,0.55835 0.69141,0.85938c0.15053,0.3011 0.22656,0.55681 0.22656,0.76367c0,0.1506 -0.03374,0.286 -0.09961,0.4082c-0.05644,0.11289 -0.1348,0.21222 -0.23828,0.29688c-0.09408,0.07509 -0.20389,0.13648 -0.32617,0.18359c-0.1223,0.03755 -0.24295,0.05469 -0.36523,0.05469c-0.15992,0 -0.3058,-0.03599 -0.4375,-0.11133c-0.1317,-0.07534 -0.22676,-0.19786 -0.2832,-0.36719c-0.07526,-0.21628 -0.18739,-0.40445 -0.33789,-0.56445c-0.15051,-0.15985 -0.33014,-0.29292 -0.53711,-0.39648c-0.19754,-0.11288 -0.41325,-0.19117 -0.64844,-0.23828c-0.23519,-0.05644 -0.46564,-0.08594 -0.69141,-0.08594c-0.67731,0 -1.17199,0.11843 -1.48242,0.35351c-0.31043,0.23519 -0.46484,0.55023 -0.46484,0.94532c0,0.2917 0.08883,0.52643 0.26758,0.70508c0.18814,0.16942 0.43335,0.31529 0.73437,0.4375c0.30103,0.11288 0.63934,0.21221 1.01562,0.29687c0.38569,0.07509 0.77677,0.16402 1.17187,0.26758c0.40451,0.09398 0.79364,0.21046 1.16992,0.35156c0.38569,0.14105 0.73022,0.33542 1.03125,0.58008c0.30102,0.23516 0.54,0.53545 0.71875,0.90234c0.18814,0.35747 0.2832,0.80363 0.2832,1.33985v0.00195c0,0.61145 -0.12687,1.1422 -0.38086,1.59375c-0.24459,0.44213 -0.57437,0.80996 -0.98828,1.10156c-0.41391,0.28223 -0.89384,0.49367 -1.43945,0.63477c-0.53621,0.1411 -1.09645,0.21093 -1.67969,0.21093c-0.72435,0 -1.33967,-0.09302 -1.84766,-0.28124c-0.50799,-0.18815 -0.92661,-0.4291 -1.25586,-0.72071c-0.31986,-0.29163 -0.55458,-0.60666 -0.70508,-0.94531c-0.1411,-0.33867 -0.21289,-0.66223 -0.21289,-0.97266c0,-0.16934 0.02754,-0.32569 0.08398,-0.46679c0.06584,-0.14111 0.14615,-0.25758 0.24023,-0.35157c0.10346,-0.10356 0.21754,-0.18379 0.33984,-0.24023c0.13171,-0.05644 0.25858,-0.08399 0.38086,-0.08399c0.15992,0 0.3058,0.04665 0.4375,0.14063c0.1317,0.08469 0.22053,0.22433 0.26758,0.42187c0.12229,0.49858 0.34848,0.90015 0.67773,1.20118c0.33866,0.30102 0.8694,0.45117 1.59375,0.45117c0.70553,0 1.26577,-0.12253 1.67969,-0.36719c0.41391,-0.24458 0.62109,-0.59764 0.62109,-1.05859c0,-0.31045 -0.08883,-0.56418 -0.26758,-0.76172c-0.17873,-0.20694 -0.41967,-0.38038 -0.7207,-0.52149c-0.29162,-0.1411 -0.62567,-0.25953 -1.00195,-0.35351c-0.37628,-0.10331 -0.76115,-0.20699 -1.15625,-0.31055c-0.38569,-0.11288 -0.76825,-0.23976 -1.14453,-0.38086c-0.37628,-0.14102 -0.7146,-0.31871 -1.01562,-0.53515c-0.29161,-0.22577 -0.52633,-0.49851 -0.70508,-0.81836c-0.17875,-0.32925 -0.26758,-0.73507 -0.26758,-1.21485c0.00942,-0.53619 0.113,-1.00989 0.31055,-1.42382c0.20696,-0.41391 0.48823,-0.76272 0.8457,-1.04493c0.35747,-0.2823 0.78036,-0.49801 1.26953,-0.64843c0.48917,-0.15043 1.02613,-0.22657 1.60937,-0.22657c0.70553,0 1.30806,0.09933 1.80664,0.29688zM76.36328,169.12012c0.14111,0.07534 0.25323,0.17032 0.33789,0.2832c0.08466,0.11288 0.1417,0.22936 0.16992,0.35156c0.03763,0.12246 0.05664,0.23219 0.05664,0.32617c0,0.20705 -0.0613,0.39948 -0.18359,0.57813l-2.56836,3.75391l2.80859,4.09179c0.11289,0.16933 0.16797,0.35324 0.16797,0.55078c0,0.19757 -0.03607,0.36671 -0.11133,0.50782c-0.07526,0.13178 -0.17032,0.23955 -0.2832,0.32421c-0.11289,0.08467 -0.23549,0.15015 -0.36719,0.19727c-0.12229,0.03754 -0.23868,0.05664 -0.35156,0.05664c-0.16933,0 -0.33422,-0.03794 -0.49414,-0.11328c-0.15051,-0.07509 -0.27311,-0.19156 -0.36719,-0.35156l-2.13086,-3.71289l-2.14453,3.71289c-0.09407,0.15975 -0.22094,0.27622 -0.38086,0.35156c-0.15051,0.07534 -0.31114,0.11328 -0.48047,0.11328c-0.14111,0 -0.2765,-0.02319 -0.4082,-0.07031c-0.1317,-0.05644 -0.25004,-0.13258 -0.35352,-0.22656c-0.10348,-0.09399 -0.18806,-0.20611 -0.25391,-0.33789c-0.06585,-0.13171 -0.09961,-0.28185 -0.09961,-0.45118c0,-0.19754 0.05704,-0.38145 0.16992,-0.55078l2.82227,-4.09179l-2.58203,-3.75391c-0.11289,-0.16925 -0.16992,-0.36168 -0.16992,-0.57813c0,-0.09423 0.01475,-0.20201 0.04297,-0.32421c0.03763,-0.13153 0.09893,-0.24996 0.18359,-0.35352c0.08466,-0.11288 0.19678,-0.20786 0.33789,-0.2832c0.14111,-0.07534 0.32075,-0.11133 0.53711,-0.11133c0.16933,0 0.328,0.03599 0.47852,0.11133c0.15051,0.06576 0.27311,0.17984 0.36719,0.33984l1.93359,3.33008l1.91992,-3.33008c0.09407,-0.16 0.21472,-0.27408 0.36523,-0.33984c0.15051,-0.07534 0.31114,-0.11328 0.48047,-0.11328c0.22577,0 0.40967,0.03794 0.55078,0.11328zM67.4336,169.00879c0.25399,0 0.47165,0.08893 0.65039,0.26758c0.17874,0.17872 0.26758,0.39442 0.26758,0.64843c0,0.26349 -0.08884,0.48542 -0.26758,0.66407c-0.17873,0.17864 -0.3964,0.26758 -0.65039,0.26758h-4.9375v2.4121h4.14844c0.2634,0 0.48337,0.09499 0.66211,0.28321c0.17874,0.17874 0.26953,0.39445 0.26953,0.64843c0,0.25394 -0.09079,0.47585 -0.26953,0.66407c-0.17874,0.17864 -0.39871,0.26758 -0.66211,0.26758h-4.14844v3.16211h4.9375c0.25399,0 0.47165,0.08893 0.65039,0.26757c0.17874,0.17875 0.26758,0.39446 0.26758,0.64844c0,0.26348 -0.08884,0.48542 -0.26758,0.66406c-0.17873,0.17865 -0.3964,0.26758 -0.65039,0.26758h-5.98242c-0.1317,0 -0.26283,-0.0191 -0.39453,-0.05664c-0.1317,-0.04712 -0.2543,-0.1126 -0.36719,-0.19727c-0.10348,-0.09398 -0.18806,-0.21241 -0.25391,-0.35351c-0.06585,-0.14113 -0.09961,-0.31027 -0.09961,-0.50781v-8.91797c0,-0.08466 0.01475,-0.18834 0.04297,-0.31055c0.02822,-0.13178 0.08526,-0.2543 0.16992,-0.36719c0.08466,-0.1222 0.19678,-0.21958 0.33789,-0.29492c0.15051,-0.08466 0.33868,-0.12695 0.56445,-0.12695zM79.91992,169.31934c0.21636,0.20696 0.32422,0.46069 0.32422,0.76171v3.30079h4.59961v-3.30079c0,-0.30112 0.10359,-0.55485 0.31055,-0.76171c0.20696,-0.20687 0.46069,-0.31055 0.76172,-0.31055c0.30103,0 0.55476,0.10368 0.76172,0.31055c0.21636,0.20696 0.32617,0.46069 0.32617,0.76171v8.98829c0,0.30112 -0.10981,0.55485 -0.32617,0.76171c-0.20696,0.20687 -0.46069,0.31055 -0.76172,0.31055c-0.30103,0 -0.55476,-0.10368 -0.76172,-0.31055c-0.20696,-0.20694 -0.31055,-0.46066 -0.31055,-0.76171v-3.82422h-4.59961v3.82422c0,0.30112 -0.10786,0.55485 -0.32422,0.76171c-0.20696,0.20687 -0.46069,0.31055 -0.76172,0.31055c-0.30103,0 -0.55476,-0.10368 -0.76172,-0.31055c-0.20696,-0.20694 -0.31055,-0.46066 -0.31055,-0.76171v-8.98829c0,-0.30112 0.10359,-0.55485 0.31055,-0.76171c0.20696,-0.20687 0.46069,-0.31055 0.76172,-0.31055c0.30103,0 0.55476,0.10368 0.76172,0.31055zM99.13086,169.31934c0.21636,0.20696 0.32422,0.46069 0.32422,0.76171v6.7168c0,0.26348 0.05704,0.49821 0.16992,0.70508c0.12229,0.20704 0.2767,0.38473 0.46484,0.53516c0.19755,0.1411 0.41948,0.25083 0.66406,0.32617c0.25399,0.07534 0.51199,0.11133 0.77539,0.11133c0.2634,0 0.51713,-0.03599 0.76172,-0.11133c0.25399,-0.07534 0.47592,-0.18507 0.66406,-0.32617c0.19755,-0.15061 0.35196,-0.32829 0.46484,-0.53516c0.12231,-0.20694 0.18359,-0.44167 0.18359,-0.70508v-6.7168c0,-0.30112 0.10358,-0.55485 0.31055,-0.76171c0.21636,-0.20687 0.47436,-0.31055 0.77539,-0.31055c0.30102,0 0.5567,0.10368 0.76367,0.31055c0.20697,0.20696 0.30859,0.46069 0.30859,0.76171v6.7168c0,0.69611 -0.12065,1.27343 -0.36523,1.73438c-0.23518,0.45155 -0.55021,0.81508 -0.94531,1.08789c-0.3951,0.2633 -0.84748,0.44527 -1.35547,0.54883c-0.50799,0.10355 -1.0302,0.15624 -1.56641,0.15624c-0.53621,0 -1.05842,-0.05269 -1.56641,-0.15624c-0.50798,-0.10346 -0.95842,-0.28543 -1.35352,-0.54883c-0.3951,-0.27281 -0.71635,-0.63634 -0.96094,-1.08789c-0.23519,-0.46095 -0.35156,-1.03827 -0.35156,-1.73438v-6.7168c0,-0.30112 0.10358,-0.55485 0.31055,-0.76171c0.20696,-0.20687 0.46069,-0.31055 0.76172,-0.31055c0.30102,0 0.55475,0.10368 0.76172,0.31055zM123.31641,169.00879c0.254,0 0.46972,0.08893 0.64844,0.26758c0.18814,0.17872 0.28125,0.39442 0.28125,0.64843c0,0.26349 -0.0931,0.48542 -0.28125,0.66407c-0.17873,0.17864 -0.39445,0.26758 -0.64844,0.26758h-2.45508v8.21289c0,0.30112 -0.10358,0.55485 -0.31055,0.76171c-0.20696,0.20687 -0.46264,0.31055 -0.76367,0.31055c-0.30102,0 -0.55475,-0.10368 -0.76172,-0.31055c-0.20697,-0.20694 -0.31055,-0.46066 -0.31055,-0.76171v-8.21289h-2.45508c-0.25399,0 -0.47396,-0.08894 -0.66211,-0.26758c-0.17875,-0.17875 -0.26953,-0.40068 -0.26953,-0.66407c0,-0.25408 0.09078,-0.46979 0.26953,-0.64843c0.18814,-0.17865 0.40812,-0.26758 0.66211,-0.26758zM91.2168,175.06152h2.30078l-1.14453,-3.89453z" data-paper-data="{&quot;origPos&quot;:null}" id="path5338" fill="#1eff00" stroke="none" stroke-width="1" stroke-miterlimit="10" stroke-dashoffset="0"/><path d="M69.10325,187.56367c1.27594,0 2.33407,4.30813 3.36633,5.0581c1.03226,0.75001 5.45651,0.42505 5.8508,1.63854c0.39429,1.21349 -3.37601,3.55113 -3.77029,4.76462c-0.39429,1.21349 1.28192,5.32078 0.24966,6.07075c-1.03226,0.74997 -4.42056,-2.1134 -5.6965,-2.1134c-1.27594,0 -4.66424,2.86337 -5.6965,2.1134c-1.03226,-0.74997 0.64395,-4.85726 0.24966,-6.07075c-0.39429,-1.21349 -4.16458,-3.55113 -3.77029,-4.76462c0.39429,-1.21349 4.81854,-0.88853 5.8508,-1.63854c1.03226,-0.74997 2.09039,-5.0581 3.36633,-5.0581z" data-paper-data="{&quot;origPos&quot;:null}" id="path1428-5-20-7" fill="#1eff00" stroke="none" stroke-width="0.88188" stroke-miterlimit="4" stroke-dashoffset="17.35"/><path d="M92.04024,187.56367c1.27594,0 2.33407,4.30813 3.36633,5.0581c1.03226,0.75001 5.45651,0.42505 5.8508,1.63854c0.39429,1.21349 -3.376,3.55113 -3.77029,4.76462c-0.39429,1.21349 1.28192,5.32078 0.24968,6.07075c-1.03226,0.74997 -4.42055,-2.1134 -5.6965,-2.1134c-1.27594,0 -4.66424,2.86337 -5.69649,2.1134c-1.03226,-0.74997 0.64395,-4.85726 0.24966,-6.07075c-0.39429,-1.21349 -4.16458,-3.55113 -3.77029,-4.76462c0.39429,-1.21349 4.81854,-0.88853 5.8508,-1.63854c1.03226,-0.74997 2.09039,-5.0581 3.36633,-5.0581z" data-paper-data="{&quot;origPos&quot;:null}" id="path1428-0-2-0-9" fill="#1eff00" stroke="none" stroke-width="0.88188" stroke-miterlimit="4" stroke-dashoffset="17.35"/><path d="M114.9772,187.56367c1.27594,0 2.33407,4.30813 3.36633,5.0581c1.03226,0.75001 5.45651,0.42505 5.8508,1.63854c0.39428,1.21349 -3.37601,3.55113 -3.77029,4.76462c-0.39429,1.21349 1.28192,5.32078 0.24968,6.07075c-1.03226,0.74997 -4.42055,-2.1134 -5.6965,-2.1134c-1.27594,0 -4.66424,2.86337 -5.6965,2.1134c-1.03225,-0.74997 0.64395,-4.85726 0.24968,-6.07075c-0.39429,-1.21349 -4.16458,-3.55113 -3.77029,-4.76462c0.39429,-1.21349 4.81854,-0.88853 5.8508,-1.63854c1.03226,-0.74997 2.09039,-5.0581 3.36633,-5.0581z" data-paper-data="{&quot;origPos&quot;:null}" id="path1428-0-6-3-0-08" fill="#1eff00" stroke="none" stroke-width="0.88188" stroke-miterlimit="4" stroke-dashoffset="17.35"/><path d="M137.91421,187.56367c1.27594,0 2.33407,4.30813 3.36633,5.0581c1.03226,0.75001 5.45651,0.42505 5.8508,1.63854c0.39429,1.21349 -3.37601,3.55113 -3.77029,4.76462c-0.39428,1.21349 1.28192,5.32078 0.24968,6.07075c-1.03226,0.74997 -4.42055,-2.1134 -5.69649,-2.1134c-1.27594,0 -4.66424,2.86337 -5.6965,2.1134c-1.03226,-0.74997 0.64395,-4.85726 0.24968,-6.07075c-0.39429,-1.21349 -4.16458,-3.55113 -3.77029,-4.76462c0.39429,-1.21349 4.81854,-0.88853 5.8508,-1.63854c1.03226,-0.74997 2.09038,-5.0581 3.36633,-5.0581z" data-paper-data="{&quot;origPos&quot;:null}" id="path1428-0-0-2-2-4" fill="#1eff00" stroke="none" stroke-width="0.88188" stroke-miterlimit="4" stroke-dashoffset="17.35"/><path d="M160.85118,195.15637c0.17862,0 0.32678,0.60314 0.47128,0.70813c0.14453,0.10507 0.76391,0.05934 0.81911,0.22942c0.05518,0.17008 -0.47264,0.49716 -0.52784,0.66705c-0.05518,0.17008 0.17949,0.74491 0.03477,0.8499c-0.14453,0.10507 -0.61887,-0.29594 -0.79751,-0.29594c-0.17862,0 -0.653,0.40086 -0.79751,0.29594c-0.14453,-0.10507 0.09014,-0.68001 0.03477,-0.8499c-0.05518,-0.1697 -0.58304,-0.49716 -0.52784,-0.66705c0.05518,-0.1697 0.6746,-0.12435 0.81911,-0.22942c0.14453,-0.10507 0.29265,-0.70813 0.47129,-0.70813z" data-paper-data="{&quot;origPos&quot;:null}" id="path1428-0-8-5-5-1" fill="#1eff00" stroke="none" stroke-width="0.12346" stroke-miterlimit="4" stroke-dashoffset="17.35"/></g></g></svg>