<svg version="1.1" xmlns="http://www.w3.org/2000/svg" xmlns:xlink="http://www.w3.org/1999/xlink" width="53.758" height="73.716" viewBox="0,0,53.758,73.716"><g transform="translate(-213.133,-143.313)"><g data-paper-data="{&quot;isPaintingLayer&quot;:true}" fill="#ffffff" fill-rule="nonzero" stroke="none" stroke-width="0" stroke-linecap="butt" stroke-linejoin="miter" stroke-miterlimit="10" stroke-dasharray="" stroke-dashoffset="0" style="mix-blend-mode: normal"><path d="M249.615,144.756c2.96,0.898 5.469,2.215 7.528,3.947c2.123,1.668 3.732,3.689 4.826,6.063c1.158,2.309 1.736,4.874 1.736,7.697c0,1.411 -0.161,2.888 -0.482,4.428c-0.322,1.475 -0.9,2.887 -1.737,4.234c-0.836,1.347 -1.963,2.566 -3.379,3.656c-1.415,1.091 -3.183,1.958 -5.306,2.6c1.351,0.256 2.831,0.769 4.439,1.539c1.673,0.706 3.216,1.764 4.631,3.176c1.416,1.411 2.607,3.239 3.572,5.484c0.965,2.181 1.448,4.91 1.448,8.182c0,3.657 -0.741,6.832 -2.221,9.527c-1.48,2.63 -3.442,4.811 -5.887,6.543c-2.38,1.732 -5.115,3.047 -8.203,3.945c-3.088,0.834 -6.273,1.252 -9.555,1.252c-4.568,0 -8.59,-0.674 -12.064,-2.021c-3.41,-1.347 -6.305,-3.047 -8.686,-5.1c-2.38,-2.053 -4.181,-4.298 -5.404,-6.736c-1.158,-2.438 -1.738,-4.717 -1.738,-6.834c0,-1.668 0.451,-2.886 1.351,-3.656c0.965,-0.834 1.996,-1.252 3.09,-1.252c1.094,0 2.09,0.353 2.99,1.058c0.901,0.642 1.481,1.606 1.739,2.889c0.386,1.925 1.06,3.721 2.025,5.389c1.03,1.668 2.317,3.111 3.861,4.33c1.545,1.155 3.314,2.085 5.309,2.791c2.059,0.641 4.311,0.963 6.756,0.963c1.994,0 3.925,-0.259 5.791,-0.772c1.93,-0.577 3.635,-1.378 5.115,-2.404c1.544,-1.091 2.765,-2.439 3.666,-4.043c0.901,-1.668 1.352,-3.592 1.352,-5.774c0,-5.26 -1.609,-8.949 -4.826,-11.066c-3.153,-2.117 -7.849,-3.176 -14.09,-3.176c-1.223,0 -2.124,-0.418 -2.703,-1.252c-0.579,-0.834 -0.868,-1.733 -0.868,-2.695c0,-0.962 0.289,-1.859 0.868,-2.693c0.579,-0.834 1.48,-1.252 2.703,-1.252c6.176,0 10.52,-0.931 13.029,-2.791c2.574,-1.861 3.859,-4.65 3.859,-8.371c0,-1.54 -0.386,-2.952 -1.158,-4.235c-0.772,-1.347 -1.832,-2.502 -3.183,-3.465c-1.287,-1.026 -2.8,-1.829 -4.538,-2.406c-1.672,-0.577 -3.474,-0.865 -5.404,-0.865c-3.989,0 -7.399,0.865 -10.23,2.598c-2.767,1.668 -4.664,4.684 -5.694,9.046c-0.321,1.219 -0.901,2.116 -1.738,2.694c-0.772,0.577 -1.607,0.867 -2.508,0.867c-1.415,0 -2.574,-0.45 -3.474,-1.348c-0.901,-0.898 -1.352,-2.278 -1.352,-4.138c0,-1.219 0.418,-2.822 1.254,-4.811c0.836,-2.053 2.22,-4.042 4.15,-5.967c1.931,-1.989 4.473,-3.69 7.625,-5.101c3.217,-1.412 7.206,-2.117 11.967,-2.117c3.603,0 6.853,0.481 9.748,1.443z"/></g></g></svg>