<svg version="1.1" xmlns="http://www.w3.org/2000/svg" xmlns:xlink="http://www.w3.org/1999/xlink" width="372.21484" height="68.64257"><g transform="translate(-53.89258,-145.67872)"><g data-paper-data="{&quot;isPaintingLayer&quot;:true}" fill-rule="nonzero" stroke-linecap="butt" stroke-linejoin="miter" stroke-dasharray="" style="mix-blend-mode: normal"><path d="M425.00976,146.42872c0.19313,0 0.34766,0.15452 0.34766,0.34765v66.44531c0,0.19314 -0.15453,0.34961 -0.34766,0.34961h-370.01757c-0.19313,0 -0.34961,-0.15647 -0.34961,-0.34961v-66.44531c0,-0.19313 0.15648,-0.34765 0.34961,-0.34765z" data-paper-data="{&quot;origPos&quot;:null}" id="rect815-0-5" fill="#1e1e1e" stroke="#1eff00" stroke-width="1.5" stroke-miterlimit="4" stroke-dashoffset="17.35"/><path d="M66.46484,151.60059c0.50134,0 0.97086,0.09511 1.4082,0.28711c0.448,0.192 0.83234,0.4545 1.15234,0.78516c0.33066,0.32 0.5912,0.70434 0.7832,1.15234c0.192,0.43734 0.28906,0.89997 0.28906,1.39063c0,0.288 -0.05357,0.5822 -0.16016,0.88085c-0.0961,0.29869 -0.24468,0.581 -0.44726,0.84766c-0.20266,0.256 -0.46019,0.47988 -0.76953,0.67188c-0.29866,0.19207 -0.65431,0.3258 -1.07031,0.40039c0.26676,0.064 0.50054,0.16415 0.70312,0.30273c0.20273,0.13874 0.37314,0.29426 0.51172,0.46484c0.14942,0.17069 0.26135,0.35293 0.33594,0.54493c0.08642,0.18131 0.14,0.35172 0.16016,0.51172l0.35156,3.35937c0.02116,0.25593 -0.05403,0.49166 -0.22461,0.70508c-0.17066,0.21342 -0.40447,0.31836 -0.70312,0.31836c-0.26658,0 -0.49046,-0.07828 -0.67187,-0.23828c-0.18243,-0.16 -0.28453,-0.369 -0.30469,-0.625l-0.24023,-2.73633c-0.032,-0.33068 -0.11728,-0.60803 -0.25586,-0.83203c-0.12792,-0.23474 -0.2983,-0.42001 -0.51172,-0.5586c-0.20266,-0.13858 -0.4315,-0.24068 -0.6875,-0.30468c-0.256,-0.064 -0.52344,-0.09571 -0.80078,-0.09571h-3.56641v4.44727c0,0.256 -0.09202,0.47987 -0.27344,0.67187c-0.18132,0.18142 -0.40519,0.27344 -0.67187,0.27344c-0.256,0 -0.47987,-0.09202 -0.67187,-0.27344c-0.18142,-0.192 -0.27148,-0.41587 -0.27148,-0.67187v-10.43164c0,-0.34127 0.12177,-0.63544 0.36719,-0.88086c0.24534,-0.24542 0.54448,-0.36719 0.89648,-0.36719zM90.98437,151.84083c0.16,0.16007 0.24023,0.35721 0.24023,0.59179v6.11133l3.91992,-3.4082c0.14924,-0.11742 0.31468,-0.17578 0.49609,-0.17578c0.17068,0 0.33609,0.06536 0.49609,0.19336c0.16,0.12807 0.24023,0.30838 0.24023,0.54296c0,0.21325 -0.08528,0.39551 -0.25586,0.54493l-2.44922,2.11132l3.23242,4.57618c0.096,0.14941 0.14453,0.30988 0.14453,0.48046c0,0.14942 -0.02666,0.27623 -0.08008,0.38282c-0.05316,0.096 -0.12161,0.17623 -0.20703,0.24023c-0.08542,0.064 -0.17744,0.11253 -0.27344,0.14453c-0.096,0.032 -0.18607,0.04688 -0.27148,0.04688c-0.13858,0 -0.26735,-0.02666 -0.38476,-0.08008c-0.11717,-0.05317 -0.21732,-0.13844 -0.30273,-0.25586l-3.07226,-4.44726l-1.23242,1.05664v2.8789c0,0.23476 -0.08023,0.43879 -0.24023,0.60938c-0.16007,0.16 -0.35721,0.23828 -0.5918,0.23828c-0.23476,0 -0.43684,-0.07828 -0.60742,-0.23828c-0.16,-0.17076 -0.24023,-0.3748 -0.24023,-0.60938v-10.94336c0,-0.23466 0.08023,-0.43179 0.24023,-0.59179c0.17076,-0.16 0.37284,-0.24024 0.60742,-0.24024c0.23466,0 0.4318,0.08024 0.5918,0.24024zM103.9414,151.87208c0.18142,0.18134 0.27344,0.40521 0.27344,0.67187v10.73633c0,0.256 -0.09202,0.47987 -0.27344,0.67187c-0.18132,0.18142 -0.40519,0.27149 -0.67187,0.27149c-0.256,0 -0.47987,-0.09007 -0.67187,-0.27149c-0.18142,-0.192 -0.27148,-0.41587 -0.27148,-0.67187v-10.73633c0,-0.26658 0.09007,-0.49046 0.27148,-0.67187c0.192,-0.18142 0.41587,-0.27149 0.67187,-0.27149c0.26658,0 0.49046,0.09007 0.67187,0.27149zM108.03711,152.57715c0.17058,0.16008 0.25586,0.35722 0.25586,0.5918v2h0.88086c0.20276,0 0.37314,0.07324 0.51172,0.22266c0.14942,0.13873 0.22266,0.31109 0.22266,0.51367c0,0.21342 -0.07324,0.38876 -0.22266,0.52734c-0.13876,0.13859 -0.30913,0.20703 -0.51172,0.20703h-0.88086v6.73633c0,0.23476 -0.08528,0.43879 -0.25586,0.60938c-0.16008,0.16 -0.35721,0.23828 -0.5918,0.23828c-0.23466,0 -0.4318,-0.07828 -0.5918,-0.23828c-0.16,-0.17076 -0.24023,-0.3748 -0.24023,-0.60938v-6.73633h-0.5918c-0.20258,0 -0.37988,-0.06844 -0.5293,-0.20703c-0.13858,-0.13858 -0.20703,-0.31392 -0.20703,-0.52734c0,-0.20274 0.06845,-0.37509 0.20703,-0.51367c0.14942,-0.14942 0.32671,-0.22266 0.5293,-0.22266h0.5918v-2c0,-0.23466 0.08023,-0.4318 0.24023,-0.5918c0.16008,-0.16 0.35721,-0.24023 0.5918,-0.24023c0.23466,0 0.4318,0.08023 0.5918,0.24023zM61.74609,157.15137h4.51172c0.26676,0 0.51737,-0.04658 0.75195,-0.14258c0.23473,-0.10673 0.43684,-0.24543 0.60742,-0.41601c0.18134,-0.18142 0.32001,-0.39042 0.41602,-0.625c0.10658,-0.23468 0.16016,-0.4853 0.16016,-0.75195c0,-0.26676 -0.05357,-0.51737 -0.16016,-0.75196c-0.09592,-0.23473 -0.2346,-0.43684 -0.41602,-0.60742c-0.17073,-0.18134 -0.37284,-0.32002 -0.60742,-0.41601c-0.23468,-0.10659 -0.48529,-0.16016 -0.75195,-0.16016h-4.51172zM86.39648,155.13575c0.46934,0.18134 0.85173,0.40025 1.15039,0.65625c0.30927,0.256 0.54004,0.52148 0.68945,0.79883c0.14942,0.27731 0.22266,0.51307 0.22266,0.70507c0,0.24542 -0.08528,0.43759 -0.25586,0.57618c-0.17058,0.128 -0.3608,0.1914 -0.57422,0.1914c-0.14934,0 -0.28802,-0.03674 -0.41602,-0.11133c-0.128,-0.07458 -0.22002,-0.20334 -0.27344,-0.38476c-0.05342,-0.17066 -0.14348,-0.3361 -0.27148,-0.4961c-0.11734,-0.16 -0.27284,-0.30364 -0.46484,-0.43164c-0.18132,-0.128 -0.40025,-0.2301 -0.65625,-0.30468c-0.24534,-0.07459 -0.51579,-0.11133 -0.81445,-0.11133c-0.33068,0 -0.66153,0.0634 -0.99219,0.1914c-0.32,0.11735 -0.6142,0.30952 -0.88086,0.57618c-0.256,0.26665 -0.46305,0.6193 -0.62305,1.05664c-0.16,0.42666 -0.24023,0.94473 -0.24023,1.55273c0,0.608 0.08023,1.1241 0.24023,1.55078c0.16,0.42666 0.36705,0.77436 0.62305,1.04102c0.26666,0.26668 0.56086,0.4638 0.88086,0.59179c0.33066,0.11742 0.6615,0.17579 0.99219,0.17579c0.29858,0 0.56904,-0.03675 0.81445,-0.11133c0.2559,-0.07458 0.47483,-0.17669 0.65625,-0.30469c0.19192,-0.128 0.34743,-0.27164 0.46484,-0.43164c0.128,-0.1601 0.21807,-0.32551 0.27148,-0.49609c0.05342,-0.18142 0.14544,-0.31019 0.27344,-0.38477c0.12792,-0.07458 0.2666,-0.11133 0.41602,-0.11133c0.21342,0 0.40364,0.0704 0.57422,0.20899c0.18142,0.1281 0.27344,0.30838 0.27344,0.54297c0,0.11731 -0.05357,0.31445 -0.16016,0.59179c-0.10666,0.26666 -0.29883,0.53907 -0.57617,0.81641c-0.27732,0.27724 -0.66166,0.52291 -1.15234,0.73633c-0.48,0.21341 -1.09815,0.32031 -1.85547,0.32031v-0.00195c-0.62934,0 -1.21576,-0.11194 -1.75976,-0.33594c-0.53334,-0.23466 -0.99792,-0.56056 -1.39258,-0.97656c-0.39466,-0.416 -0.70373,-0.91033 -0.92773,-1.48633c-0.224,-0.58669 -0.33594,-1.2335 -0.33594,-1.9375c0,-0.71466 0.11194,-1.35955 0.33594,-1.93555c0.224,-0.58666 0.53308,-1.0879 0.92773,-1.50391c0.39466,-0.41599 0.85924,-0.73498 1.39258,-0.95898c0.544,-0.23458 1.13042,-0.35352 1.75976,-0.35352c0.64,0.00001 1.19475,0.09707 1.66406,0.28907zM77.00781,155.16895c0.544,0.21334 1.01354,0.52242 1.4082,0.92773c0.39466,0.40535 0.70373,0.90163 0.92773,1.48829c0.224,0.58668 0.33594,1.2583 0.33594,2.01562c0,0.75734 -0.11194,1.42897 -0.33594,2.01563c-0.224,0.58668 -0.53308,1.08296 -0.92773,1.48828c-0.39466,0.39458 -0.8642,0.69869 -1.4082,0.91211c-0.53334,0.21341 -1.1148,0.32031 -1.74414,0.32031c-0.62932,0 -1.21576,-0.1069 -1.75976,-0.32031c-0.53334,-0.21332 -0.99792,-0.51743 -1.39258,-0.91211c-0.39468,-0.40532 -0.70373,-0.9016 -0.92773,-1.48828c-0.224,-0.58666 -0.33594,-1.25829 -0.33594,-2.01563c0,-0.75732 0.11194,-1.42894 0.33594,-2.01562c0.224,-0.58666 0.53305,-1.08294 0.92773,-1.48829c0.39466,-0.40524 0.85924,-0.71431 1.39258,-0.92773c0.544,-0.21342 1.13045,-0.32031 1.75976,-0.32031c0.62934,0 1.2108,0.10689 1.74414,0.32031zM74.16015,156.43262c-0.33058,0.128 -0.61982,0.33008 -0.86523,0.60742c-0.23473,0.26666 -0.42001,0.61434 -0.55859,1.04102c-0.13858,0.42666 -0.20898,0.93287 -0.20898,1.51953c0,0.58668 0.0704,1.09287 0.20898,1.51953c0.13873,0.416 0.32401,0.76368 0.55859,1.04102c0.24534,0.26673 0.53458,0.46884 0.86523,0.60742c0.34134,0.128 0.70886,0.19141 1.10351,0.19141c0.39468,0 0.75723,-0.06341 1.08789,-0.19141c0.34142,-0.13866 0.6287,-0.34076 0.86328,-0.60742c0.24542,-0.27734 0.43759,-0.62502 0.57617,-1.04102c0.13858,-0.42666 0.20898,-0.93285 0.20898,-1.51953c0,-0.58666 -0.0704,-1.09287 -0.20898,-1.51953c-0.13858,-0.42668 -0.33075,-0.77436 -0.57617,-1.04102c-0.23466,-0.27734 -0.52194,-0.47942 -0.86328,-0.60742c-0.33066,-0.13858 -0.69321,-0.20898 -1.08789,-0.20898c-0.39466,0 -0.76217,0.0704 -1.10351,0.20898zM64.9375,168.92481c0.16003,0.07509 0.29967,0.17877 0.42187,0.31055c0.13178,0.12238 0.24586,0.27252 0.33984,0.45117c0.09424,0.16925 0.17447,0.34889 0.24023,0.53711l2.91992,8.4375c0.04712,0.14118 0.07031,0.27428 0.07031,0.39648c0,0.11288 -0.02319,0.23346 -0.07031,0.36524c-0.03754,0.13152 -0.09893,0.24995 -0.18359,0.35351c-0.08466,0.10331 -0.19244,0.19224 -0.32422,0.26758c-0.13163,0.06576 -0.29225,0.09961 -0.48047,0.09961c-0.22576,0 -0.43722,-0.06549 -0.63477,-0.19727c-0.18807,-0.1317 -0.31919,-0.31134 -0.39453,-0.53711l-0.80469,-2.69531h-3.27344l-0.80469,2.69531c-0.07526,0.22569 -0.21261,0.40533 -0.41016,0.53711c-0.18817,0.13178 -0.39338,0.19727 -0.61914,0.19727c-0.32925,0 -0.59347,-0.10778 -0.79102,-0.32422c-0.18822,-0.22576 -0.2832,-0.47949 -0.2832,-0.76172c0,-0.12228 0.02515,-0.25538 0.07227,-0.39648l2.93359,-8.4375c0.06602,-0.18815 0.14625,-0.36779 0.24023,-0.53711c0.09424,-0.17882 0.20201,-0.32897 0.32422,-0.45117c0.1222,-0.13153 0.26383,-0.23521 0.42383,-0.31055c0.16,-0.07534 0.34391,-0.11328 0.55078,-0.11328c0.19747,0 0.37711,0.03794 0.53711,0.11328zM93.73828,169.30567c0.20687,0.19754 0.31055,0.43654 0.31055,0.71875v2.79492c0,0.05644 0.0191,0.08399 0.05664,0.08399c0.05644,0 0.14537,-0.04665 0.26758,-0.14063c0.12238,-0.10356 0.27253,-0.21134 0.45117,-0.32422c0.18807,-0.11288 0.40573,-0.21656 0.65039,-0.31054c0.24459,-0.10356 0.51733,-0.1543 0.81836,-0.1543c0.40451,0 0.76609,0.06548 1.08594,0.19726c0.32917,0.13171 0.60192,0.3094 0.81836,0.53516c0.21636,0.22576 0.38126,0.49424 0.49414,0.80469c0.1222,0.30102 0.18359,0.62656 0.18359,0.97461v4.64062c0,0.27291 -0.10368,0.51384 -0.31055,0.7207c-0.19757,0.19755 -0.43227,0.29688 -0.70508,0.29688c-0.2823,0 -0.52751,-0.09933 -0.73437,-0.29688c-0.19754,-0.20696 -0.29492,-0.44789 -0.29492,-0.7207v-3.95117c0,-0.38569 -0.13735,-0.70927 -0.41016,-0.97266c-0.26338,-0.27283 -0.59317,-0.41015 -0.98828,-0.41015c-0.38569,0 -0.71352,0.13732 -0.98633,0.41015c-0.26341,0.26339 -0.39648,0.59317 -0.39648,0.98829v3.93554c0,0.27291 -0.10368,0.51384 -0.31055,0.7207c-0.19757,0.19755 -0.43655,0.29688 -0.71875,0.29688c-0.27291,0 -0.51384,-0.09933 -0.7207,-0.29688c-0.19754,-0.20696 -0.29492,-0.44789 -0.29492,-0.7207v-9.10156c0,-0.28221 0.09738,-0.52121 0.29492,-0.71875c0.20697,-0.19754 0.4479,-0.29688 0.7207,-0.29688c0.28223,0 0.52121,0.09934 0.71875,0.29688zM89.09961,169.67286c0.20687,0.19754 0.31055,0.43654 0.31055,0.71875v1.58203v0.18164h1.00195c0.17882,0 0.32897,0.06744 0.45117,0.19922c0.13178,0.12238 0.19726,0.27252 0.19726,0.45117c0,0.18825 -0.06549,0.34264 -0.19726,0.46484c-0.12238,0.12221 -0.27253,0.1836 -0.45117,0.1836h-1.00195v5.67187c0,0.27291 -0.10368,0.51384 -0.31055,0.7207c-0.19754,0.19755 -0.43227,0.29688 -0.70508,0.29688c-0.28231,0 -0.52751,-0.09933 -0.73437,-0.29688c-0.19754,-0.20696 -0.29687,-0.44789 -0.29687,-0.7207v-5.67187h-0.5918c-0.17865,0 -0.33306,-0.06139 -0.46484,-0.1836c-0.1222,-0.12223 -0.18359,-0.27662 -0.18359,-0.46484c0,-0.17882 0.06139,-0.32897 0.18359,-0.45117c0.13178,-0.13178 0.2862,-0.19922 0.46484,-0.19922h0.5918v-0.18164v-1.58203c0,-0.28221 0.09933,-0.52121 0.29687,-0.71875c0.20694,-0.19755 0.45214,-0.29688 0.73437,-0.29688c0.27281,0 0.50753,0.09933 0.70508,0.29688zM63.24414,175.06348h2.29883l-1.14258,-3.89453zM105.17187,172.33887c0.46095,0.23519 0.83728,0.53316 1.12891,0.89063c0.30103,0.35747 0.52296,0.74234 0.66406,1.15625c0.1411,0.41391 0.21094,0.79451 0.21094,1.14258c0,0.32917 -0.06139,0.60191 -0.18359,0.81835c-0.12238,0.21645 -0.30202,0.32422 -0.53711,0.32422h-4.51367c-0.10356,0 -0.18379,0.03795 -0.24023,0.11328c-0.04712,0.06577 -0.07031,0.1547 -0.07031,0.26758c0,0.14103 0.04229,0.30592 0.12695,0.49414c0.08466,0.17875 0.21154,0.35412 0.38086,0.52344c0.16925,0.16932 0.37643,0.30899 0.62109,0.42188c0.25401,0.11288 0.54575,0.16992 0.875,0.16992c0.19764,0 0.37106,-0.0191 0.52148,-0.05664c0.15043,-0.04712 0.29205,-0.11261 0.42383,-0.19727c0.13178,-0.08466 0.25865,-0.19244 0.38086,-0.32422c0.13163,-0.14102 0.2775,-0.30592 0.4375,-0.49414c0.1412,-0.16932 0.29987,-0.2539 0.47852,-0.2539c0.11288,0 0.22696,0.02754 0.33984,0.08398c0.11288,0.05644 0.21026,0.13258 0.29492,0.22656c0.08466,0.09424 0.15645,0.20202 0.21289,0.32422c0.05644,0.11288 0.08398,0.22936 0.08398,0.35156c0,0.12231 -0.06549,0.29768 -0.19727,0.52344c-0.1223,0.21637 -0.31474,0.43635 -0.57812,0.66211c-0.26341,0.21637 -0.59317,0.41076 -0.98828,0.58008c-0.39509,0.16 -0.86454,0.23828 -1.41016,0.23828c-0.62088,0 -1.17684,-0.11213 -1.66602,-0.33789c-0.48917,-0.22576 -0.90354,-0.52605 -1.24219,-0.90234c-0.32935,-0.38569 -0.58307,-0.82761 -0.76172,-1.32618c-0.16932,-0.50799 -0.25391,-1.04494 -0.25391,-1.60937c0,-0.56444 0.07614,-1.09518 0.22656,-1.59375c0.15992,-0.50799 0.3989,-0.95186 0.71875,-1.32813c0.31985,-0.38571 0.71947,-0.69025 1.19922,-0.91601c0.47977,-0.22577 1.04426,-0.33985 1.69336,-0.33985c0.63027,0 1.17152,0.12253 1.62305,0.36719zM71.41211,172.28418c0.19754,0.19755 0.29687,0.43228 0.29687,0.70508c0.08466,-0.09423 0.19874,-0.20201 0.33984,-0.32422c0.1411,-0.12245 0.31027,-0.23023 0.50781,-0.32421c0.19757,-0.10356 0.4218,-0.1901 0.67578,-0.25586c0.25398,-0.07534 0.54148,-0.11133 0.86133,-0.11133c0.35747,0 0.69578,0.05943 1.01562,0.18164c0.31992,0.12223 0.5989,0.29332 0.83398,0.50976c0.24451,0.21637 0.43267,0.47864 0.56445,0.78907c0.1411,0.30102 0.21094,0.63933 0.21094,1.01562v4.65821c0,0.2729 -0.09933,0.51188 -0.29687,0.71874c-0.19754,0.19755 -0.43652,0.29688 -0.71875,0.29688c-0.2823,0 -0.52751,-0.09933 -0.73437,-0.29688c-0.19754,-0.20696 -0.29687,-0.44594 -0.29687,-0.71874v-3.98047c0,-0.20707 -0.04229,-0.39948 -0.12695,-0.57813c-0.07509,-0.17864 -0.17681,-0.33306 -0.30859,-0.46484c-0.13178,-0.13153 -0.28815,-0.23521 -0.4668,-0.31055c-0.17882,-0.08466 -0.37126,-0.12695 -0.57812,-0.12695c-0.19747,0 -0.3899,0.04229 -0.57812,0.12695c-0.17867,0.07509 -0.33502,0.17877 -0.4668,0.31055c-0.13178,0.13178 -0.23956,0.2862 -0.32422,0.46484c-0.07534,0.17885 -0.11328,0.37126 -0.11328,0.57813v3.98047c0,0.2729 -0.09933,0.51188 -0.29687,0.71874c-0.19754,0.19755 -0.43655,0.29688 -0.71875,0.29688c-0.28231,0 -0.52751,-0.09933 -0.73437,-0.29688c-0.19754,-0.20696 -0.29492,-0.44594 -0.29492,-0.71874v-6.13868c0,-0.2728 0.09738,-0.50753 0.29492,-0.70508c0.20694,-0.20686 0.45214,-0.31054 0.73437,-0.31054c0.2822,0 0.52121,0.10368 0.71875,0.31054zM83.24023,172.28418c0.49859,0.19755 0.93001,0.47884 1.29687,0.84571c0.36697,0.36689 0.65446,0.80878 0.86133,1.32617c0.21644,0.50797 0.32422,1.07248 0.32422,1.69336c0,0.62087 -0.10778,1.18964 -0.32422,1.70703c-0.20694,0.50799 -0.49444,0.94563 -0.86133,1.3125c-0.36687,0.36697 -0.79828,0.65446 -1.29687,0.86133c-0.49857,0.19754 -1.03554,0.29687 -1.60937,0.29687c-0.56443,0 -1.09518,-0.09933 -1.59375,-0.29687c-0.49857,-0.20694 -0.93194,-0.49444 -1.29883,-0.86133c-0.36679,-0.36687 -0.65856,-0.80451 -0.875,-1.3125c-0.20687,-0.51739 -0.31055,-1.08616 -0.31055,-1.70703c0,-0.62088 0.10368,-1.18539 0.31055,-1.69336c0.21636,-0.51739 0.50813,-0.95928 0.875,-1.32617c0.36689,-0.36687 0.80026,-0.64816 1.29883,-0.84571c0.49857,-0.20686 1.02931,-0.31054 1.59375,-0.31054c0.57383,0 1.1108,0.10368 1.60937,0.31054zM109.74999,172.28418c0.19755,0.19755 0.29493,0.43228 0.29493,0.70508c0.08466,-0.09423 0.18834,-0.20201 0.31054,-0.32422c0.13181,-0.12245 0.27341,-0.23218 0.42383,-0.32617c0.15993,-0.10356 0.32482,-0.18814 0.49414,-0.2539c0.16932,-0.07534 0.33849,-0.11133 0.50781,-0.11133c0.37622,0 0.62994,0.09738 0.76172,0.29492c0.14111,0.19754 0.21094,0.428 0.21094,0.69141c0,0.21636 -0.05074,0.38125 -0.1543,0.49414c-0.09423,0.10356 -0.21676,0.18379 -0.36718,0.24023c-0.14111,0.05644 -0.29552,0.10308 -0.46485,0.14063c-0.16942,0.02822 -0.33004,0.07051 -0.48047,0.12695c-0.2728,0.10348 -0.49278,0.24083 -0.66211,0.41016c-0.16,0.15982 -0.28252,0.33326 -0.36718,0.52148c-0.08466,0.17867 -0.1417,0.36256 -0.16993,0.55078c-0.02822,0.18807 -0.04296,0.36149 -0.04296,0.52149v3.16211c0,0.28222 -0.10368,0.5212 -0.31055,0.71874c-0.19754,0.19755 -0.43655,0.29688 -0.71875,0.29688c-0.27291,0 -0.51384,-0.09933 -0.7207,-0.29688c-0.19754,-0.20696 -0.29492,-0.44594 -0.29492,-0.71874v-6.13868c0,-0.2728 0.09738,-0.50753 0.29492,-0.70508c0.20697,-0.20686 0.45217,-0.31054 0.73437,-0.31054c0.28223,0 0.52316,0.10368 0.7207,0.31054zM80.69921,173.68067c-0.27281,0.1411 -0.50753,0.33781 -0.70508,0.5918c-0.18807,0.24458 -0.33394,0.53208 -0.4375,0.86132c-0.10356,0.31985 -0.15625,0.65816 -0.15625,1.01563c0,0.35747 0.05269,0.70005 0.15625,1.0293c0.10341,0.32917 0.24928,0.61666 0.4375,0.86132c0.19754,0.24469 0.43227,0.44333 0.70508,0.59375c0.27281,0.14111 0.58357,0.21094 0.93164,0.21094c0.34807,0 0.65883,-0.06983 0.93164,-0.21094c0.28213,-0.15045 0.51686,-0.34908 0.70508,-0.59375c0.18807,-0.24458 0.33394,-0.53208 0.4375,-0.86132c0.10356,-0.32925 0.15625,-0.67183 0.15625,-1.0293c0,-0.35747 -0.05269,-0.69578 -0.15625,-1.01563c-0.10341,-0.32917 -0.24928,-0.61666 -0.4375,-0.86132c-0.18814,-0.25399 -0.42287,-0.4507 -0.70508,-0.5918c-0.27281,-0.15043 -0.58357,-0.22656 -0.93164,-0.22656c-0.34807,0 -0.65883,0.07613 -0.93164,0.22656zM102.73046,173.792c-0.22586,0.09423 -0.41207,0.21676 -0.5625,0.36718c-0.1411,0.14106 -0.25083,0.29313 -0.32617,0.45313c-0.07534,0.16 -0.11328,0.29967 -0.11328,0.42187c0,0.18823 0.07179,0.28321 0.21289,0.28321h3.2168c0.1222,0 0.18359,-0.08893 0.18359,-0.26758c0,-0.1222 -0.03794,-0.26383 -0.11328,-0.42383c-0.06602,-0.15992 -0.17379,-0.31007 -0.32422,-0.45117c-0.14113,-0.15045 -0.32502,-0.2773 -0.55078,-0.38086c-0.22526,-0.10333 -0.49319,-0.15602 -0.80273,-0.15625h-0.00195c-0.30967,0.00023 -0.58379,0.05097 -0.81836,0.1543z" data-paper-data="{&quot;origPos&quot;:null}" id="path1802" fill="#1eff00" stroke="none" stroke-width="1" stroke-miterlimit="10" stroke-dashoffset="0"/><path d="M69.1032,187.56521c1.27593,0 2.33409,4.30809 3.36635,5.0581c1.03223,0.74997 5.4565,0.42501 5.85078,1.6385c0.39428,1.21349 -3.37603,3.55113 -3.77031,4.76462c-0.39428,1.21349 1.28194,5.32078 0.24983,6.07075c-1.03226,0.75001 -4.42057,-2.1134 -5.6965,-2.1134c-1.27593,0 -4.66424,2.86341 -5.6965,2.1134c-1.03223,-0.74997 0.64396,-4.85726 0.24983,-6.07075c-0.39428,-1.21349 -4.16459,-3.55113 -3.77031,-4.76462c0.39432,-1.21349 4.81856,-0.88853 5.85082,-1.6385c1.03226,-0.75001 2.09038,-5.0581 3.36631,-5.0581z" data-paper-data="{&quot;origPos&quot;:null}" id="path1428-5-0" fill="#1eff00" stroke="none" stroke-width="0.88188" stroke-miterlimit="4" stroke-dashoffset="17.35"/><path d="M92.0402,187.56521c1.27593,0 2.33409,4.30809 3.36631,5.0581c1.03226,0.74997 5.45654,0.42501 5.85082,1.6385c0.39428,1.21349 -3.37603,3.55113 -3.77031,4.76462c-0.39428,1.21349 1.28194,5.32078 0.24983,6.07075c-1.03226,0.75001 -4.42057,-2.1134 -5.6965,-2.1134c-1.27593,0 -4.66424,2.86341 -5.6965,2.1134c-1.03226,-0.74997 0.64396,-4.85726 0.24983,-6.07075c-0.39428,-1.21349 -4.16459,-3.55113 -3.77031,-4.76462c0.39428,-1.21349 4.81856,-0.88853 5.85082,-1.6385c1.03223,-0.75001 2.09038,-5.0581 3.36631,-5.0581z" data-paper-data="{&quot;origPos&quot;:null}" id="path1428-0-2-4" fill="#1eff00" stroke="none" stroke-width="0.88188" stroke-miterlimit="4" stroke-dashoffset="17.35"/><path d="M114.97717,187.56521c1.27593,0 2.33409,4.30809 3.36635,5.0581c1.03223,0.74997 5.4565,0.42501 5.85078,1.6385c0.39428,1.21349 -3.37603,3.55113 -3.77031,4.76462c-0.39428,1.21349 1.28194,5.32078 0.24983,6.07075c-1.03226,0.75001 -4.42057,-2.1134 -5.6965,-2.1134c-1.27593,0 -4.66424,2.86341 -5.6965,2.1134c-1.03223,-0.74997 0.64396,-4.85726 0.24983,-6.07075c-0.39428,-1.21349 -4.16459,-3.55113 -3.77031,-4.76462c0.39432,-1.21349 4.81856,-0.88853 5.85082,-1.6385c1.03226,-0.75001 2.09038,-5.0581 3.36631,-5.0581z" data-paper-data="{&quot;origPos&quot;:null}" id="path1428-0-6-3-2" fill="#1eff00" stroke="none" stroke-width="0.88188" stroke-miterlimit="4" stroke-dashoffset="17.35"/><path d="M137.91422,191.53809c0.70174,0 1.28372,2.36946 1.85148,2.78196c0.56772,0.4125 3.00106,0.23357 3.21793,0.90119c0.21694,0.66743 -1.85681,1.95311 -2.07368,2.62054c-0.21694,0.66743 0.70507,2.92645 0.1372,3.33895c-0.56776,0.41246 -2.43133,-1.16239 -3.13308,-1.16239c-0.70178,0 -2.56535,1.57485 -3.13308,1.16239c-0.56776,-0.4125 0.35414,-2.67152 0.1372,-3.33895c-0.21694,-0.66743 -2.29051,-1.95311 -2.07368,-2.62054c0.21694,-0.66743 2.6502,-0.48869 3.21797,-0.90119c0.56772,-0.4125 1.14969,-2.78196 1.85148,-2.78196z" data-paper-data="{&quot;origPos&quot;:null}" id="path1428-0-0-2-4" fill="#1eff00" stroke="none" stroke-width="0.48503" stroke-miterlimit="4" stroke-dashoffset="17.35"/></g></g></svg>