<svg version="1.1" xmlns="http://www.w3.org/2000/svg" xmlns:xlink="http://www.w3.org/1999/xlink" width="372.21484" height="68.64258"><g transform="translate(-53.89258,-145.67871)"><g data-paper-data="{&quot;isPaintingLayer&quot;:true}" fill-rule="nonzero" stroke-linecap="butt" stroke-linejoin="miter" stroke-dasharray="" style="mix-blend-mode: normal"><path d="M425.00976,146.42871c0.19314,0 0.34766,0.15453 0.34766,0.34766v66.44531c0,0.19314 -0.15452,0.34961 -0.34766,0.34961h-370.01757c-0.19314,0 -0.34961,-0.15647 -0.34961,-0.34961v-66.44531c0,-0.19313 0.15647,-0.34766 0.34961,-0.34766z" data-paper-data="{&quot;origPos&quot;:null}" id="rect815-0-0-8-5" fill="#1e1e1e" stroke="#1eff00" stroke-width="1.5" stroke-miterlimit="4" stroke-dashoffset="17.35"/><path d="M69.10317,187.56472c1.27593,0 2.33409,4.30813 3.36631,5.0581c1.03227,0.74997 5.45654,0.42505 5.85082,1.63854c0.39428,1.21349 -3.37603,3.55109 -3.77031,4.76459c-0.39428,1.21349 1.28194,5.32078 0.24983,6.07079c-1.03226,0.74997 -4.42057,-2.11344 -5.6965,-2.11344c-1.27593,0 -4.66424,2.86341 -5.69651,2.11344c-1.03226,-0.75001 0.64396,-4.8573 0.24983,-6.07079c-0.39428,-1.21349 -4.16459,-3.55109 -3.77031,-4.76459c0.39428,-1.21349 4.81856,-0.88857 5.85082,-1.63854c1.03223,-0.74997 2.09038,-5.0581 3.36631,-5.0581z" data-paper-data="{&quot;origPos&quot;:null}" id="path1428-5-07-2-3" fill="#1eff00" stroke="none" stroke-width="0.88188" stroke-miterlimit="4" stroke-dashoffset="17.35"/><path d="M92.04022,187.56472c1.27593,0 2.33405,4.30813 3.36631,5.0581c1.03226,0.74997 5.4565,0.42505 5.85078,1.63854c0.39428,1.21349 -3.37599,3.55109 -3.77027,4.76459c-0.39432,1.21349 1.2819,5.32078 0.24945,6.07079c-1.03223,0.74997 -4.42054,-2.11344 -5.69647,-2.11344c-1.27597,0 -4.66424,2.86341 -5.6965,2.11344c-1.03226,-0.75001 0.64396,-4.8573 0.24945,-6.07079c-0.39428,-1.21349 -4.16455,-3.55109 -3.77027,-4.76459c0.39428,-1.21349 4.81852,-0.88857 5.85078,-1.63854c1.03226,-0.74997 2.09038,-5.0581 3.36635,-5.0581z" data-paper-data="{&quot;origPos&quot;:null}" id="path1428-0-2-53-3-3" fill="#1eff00" stroke="none" stroke-width="0.88188" stroke-miterlimit="4" stroke-dashoffset="17.35"/><path d="M114.97711,187.56472c1.27593,0 2.33409,4.30813 3.36635,5.0581c1.03223,0.74997 5.4565,0.42505 5.85078,1.63854c0.39428,1.21349 -3.37602,3.55109 -3.77031,4.76459c-0.39428,1.21349 1.28194,5.32078 0.24983,6.07079c-1.03226,0.74997 -4.42057,-2.11344 -5.6965,-2.11344c-1.27593,0 -4.66424,2.86341 -5.6965,2.11344c-1.03223,-0.75001 0.64396,-4.8573 0.24983,-6.07079c-0.39428,-1.21349 -4.16459,-3.55109 -3.77031,-4.76459c0.39432,-1.21349 4.81856,-0.88857 5.85082,-1.63854c1.03226,-0.74997 2.09038,-5.0581 3.36631,-5.0581z" data-paper-data="{&quot;origPos&quot;:null}" id="path1428-0-6-3-11-6-3" fill="#1eff00" stroke="none" stroke-width="0.88188" stroke-miterlimit="4" stroke-dashoffset="17.35"/><path d="M137.91416,187.56472c1.27593,0 2.33404,4.30813 3.36631,5.0581c1.03226,0.74997 5.4565,0.42505 5.85078,1.63854c0.39431,1.21349 -3.37599,3.55109 -3.77027,4.76459c-0.39428,1.21349 1.2819,5.32078 0.24983,6.07079c-1.03227,0.74997 -4.42057,-2.11344 -5.69651,-2.11344c-1.27593,0 -4.66424,2.86341 -5.6965,2.11344c-1.03226,-0.75001 0.64396,-4.8573 0.24983,-6.07079c-0.39432,-1.21349 -4.16459,-3.55109 -3.77031,-4.76459c0.39428,-1.21349 4.81856,-0.88857 5.85078,-1.63854c1.03226,-0.74997 2.09042,-5.0581 3.36635,-5.0581z" data-paper-data="{&quot;origPos&quot;:null}" id="path1428-0-0-2-3-6-5" fill="#1eff00" stroke="none" stroke-width="0.88188" stroke-miterlimit="4" stroke-dashoffset="17.35"/><path d="M66.73829,151.83887c0.544,0.16 1.00858,0.37397 1.39258,0.64062c0.39466,0.26669 0.69681,0.56583 0.91016,0.89649c0.21334,0.33066 0.32031,0.6615 0.32031,0.99219c0,0.27741 -0.09511,0.50129 -0.28711,0.67187c-0.18133,0.16 -0.38342,0.24024 -0.60742,0.24024c-0.16,0 -0.31055,-0.04349 -0.44922,-0.12891c-0.13866,-0.09608 -0.2506,-0.24468 -0.33594,-0.44727c-0.128,-0.32 -0.29838,-0.57753 -0.51172,-0.76953c-0.20267,-0.20276 -0.4315,-0.3563 -0.6875,-0.46289c-0.24533,-0.11741 -0.50782,-0.19261 -0.78516,-0.22461c-0.27733,-0.04258 -0.54283,-0.06445 -0.79883,-0.06445c-0.384,0 -0.7416,0.04349 -1.07227,0.12891c-0.32,0.07458 -0.60232,0.18652 -0.84766,0.33593c-0.23467,0.13859 -0.42188,0.31393 -0.56055,0.52735c-0.128,0.20266 -0.19141,0.43842 -0.19141,0.70508c0,0.36275 0.10698,0.6619 0.32031,0.89648c0.224,0.23466 0.51624,0.4318 0.87891,0.5918c0.36267,0.15992 0.77375,0.2986 1.23242,0.41601c0.45867,0.11742 0.9282,0.23919 1.4082,0.36719c0.49067,0.1279 0.96516,0.28343 1.42383,0.46484c0.45867,0.17069 0.86976,0.39456 1.23242,0.67188c0.36266,0.27734 0.64994,0.61809 0.86328,1.02344c0.224,0.40531 0.33594,0.90159 0.33594,1.48828c0,0.65066 -0.12876,1.21531 -0.38476,1.69531c-0.24533,0.48 -0.5861,0.88117 -1.02344,1.20117c-0.43733,0.32 -0.94849,0.55875 -1.53516,0.71875c-0.58667,0.16 -1.21171,0.24024 -1.87305,0.24024c-0.94933,0 -1.75964,-0.13374 -2.43164,-0.40039c-0.66133,-0.27735 -1.19923,-0.60624 -1.61523,-0.99024c-0.416,-0.39466 -0.72011,-0.80574 -0.91211,-1.23242c-0.192,-0.43732 -0.28906,-0.81672 -0.28906,-1.13672c0,-0.384 0.09706,-0.65641 0.28906,-0.81641c0.20266,-0.16 0.40971,-0.24023 0.62305,-0.24023c0.18133,0 0.34676,0.06032 0.49609,0.17773c0.14933,0.10659 0.23948,0.28193 0.27148,0.52735c0.064,0.40534 0.20268,0.76292 0.41601,1.07226c0.224,0.30924 0.49641,0.56979 0.81641,0.78321c0.32,0.20276 0.6776,0.35826 1.07226,0.46484c0.39467,0.10658 0.8008,0.16016 1.2168,0.16016c0.33067,0 0.67144,-0.0387 1.02344,-0.11328c0.36267,-0.08542 0.68856,-0.20719 0.97656,-0.36719c0.29867,-0.17066 0.53742,-0.38957 0.71875,-0.65625c0.192,-0.26666 0.28906,-0.5876 0.28906,-0.96094c0,-0.40532 -0.11194,-0.74113 -0.33594,-1.00781c-0.21333,-0.26658 -0.50257,-0.49046 -0.86523,-0.67188c-0.352,-0.18124 -0.75618,-0.32985 -1.21484,-0.44726c-0.45867,-0.128 -0.9282,-0.25677 -1.4082,-0.38477c-0.48,-0.128 -0.94954,-0.27164 -1.4082,-0.43164c-0.45867,-0.17066 -0.86975,-0.38462 -1.23242,-0.64062c-0.352,-0.26669 -0.63928,-0.58567 -0.86328,-0.95899c-0.21333,-0.384 -0.32031,-0.85848 -0.32031,-1.42383c0,-0.53334 0.11194,-1.00782 0.33594,-1.42382c0.23467,-0.416 0.5556,-0.76864 0.96094,-1.05665c0.40533,-0.28789 0.88479,-0.50683 1.43945,-0.65624c0.55467,-0.14942 1.16289,-0.22461 1.82422,-0.22461c0.64,0 1.22643,0.08023 1.75977,0.24023zM96.70704,151.83887c0.544,0.16 1.00858,0.37397 1.39258,0.64062c0.39466,0.26669 0.69681,0.56583 0.91016,0.89649c0.21334,0.33066 0.32031,0.6615 0.32031,0.99219c0,0.27741 -0.09511,0.50129 -0.28711,0.67187c-0.18133,0.16 -0.38342,0.24024 -0.60742,0.24024c-0.16001,0 -0.31056,-0.04349 -0.44922,-0.12891c-0.13866,-0.09608 -0.25059,-0.24468 -0.33594,-0.44727c-0.12799,-0.32 -0.29838,-0.57753 -0.51172,-0.76953c-0.20267,-0.20276 -0.4315,-0.3563 -0.6875,-0.46289c-0.24533,-0.11741 -0.50782,-0.19261 -0.78516,-0.22461c-0.27733,-0.04258 -0.54283,-0.06445 -0.79883,-0.06445c-0.384,0 -0.7416,0.04349 -1.07227,0.12891c-0.31999,0.07458 -0.60231,0.18652 -0.84766,0.33593c-0.23468,0.13859 -0.42189,0.31393 -0.56055,0.52735c-0.128,0.20266 -0.19141,0.43842 -0.19141,0.70508c0,0.36275 0.10697,0.6619 0.32031,0.89648c0.224,0.23466 0.51624,0.4318 0.87891,0.5918c0.36267,0.15992 0.77376,0.2986 1.23242,0.41601c0.45867,0.11742 0.9282,0.23919 1.4082,0.36719c0.49067,0.1279 0.96516,0.28343 1.42383,0.46484c0.45866,0.17069 0.86975,0.39456 1.23242,0.67188c0.36266,0.27734 0.64994,0.61809 0.86328,1.02344c0.224,0.40531 0.33594,0.90159 0.33594,1.48828c0,0.65066 -0.12876,1.21531 -0.38476,1.69531c-0.24533,0.48 -0.5861,0.88117 -1.02344,1.20117c-0.43733,0.32 -0.94849,0.55875 -1.53516,0.71875c-0.58667,0.16 -1.21171,0.24024 -1.87305,0.24024c-0.94933,0 -1.75964,-0.13374 -2.43164,-0.40039c-0.66133,-0.27735 -1.19923,-0.60624 -1.61523,-0.99024c-0.416,-0.39466 -0.72011,-0.80574 -0.91211,-1.23242c-0.192,-0.43732 -0.28906,-0.81672 -0.28906,-1.13672c0,-0.384 0.09706,-0.65641 0.28906,-0.81641c0.20266,-0.16 0.4097,-0.24023 0.62305,-0.24023c0.18132,0 0.34675,0.06032 0.49609,0.17773c0.14934,0.10659 0.23948,0.28193 0.27148,0.52735c0.06399,0.40534 0.20267,0.76292 0.41601,1.07226c0.224,0.30924 0.49641,0.56979 0.81641,0.78321c0.32,0.20276 0.6776,0.35826 1.07226,0.46484c0.39467,0.10658 0.8008,0.16016 1.2168,0.16016c0.33067,0 0.67144,-0.0387 1.02344,-0.11328c0.36266,-0.08542 0.68856,-0.20719 0.97656,-0.36719c0.29866,-0.17066 0.53741,-0.38957 0.71875,-0.65625c0.192,-0.26666 0.28906,-0.5876 0.28906,-0.96094c0,-0.40532 -0.11194,-0.74113 -0.33594,-1.00781c-0.21333,-0.26658 -0.50257,-0.49046 -0.86523,-0.67188c-0.352,-0.18124 -0.75618,-0.32985 -1.21484,-0.44726c-0.45867,-0.128 -0.9282,-0.25677 -1.4082,-0.38477c-0.48,-0.128 -0.94954,-0.27164 -1.4082,-0.43164c-0.45867,-0.17066 -0.86975,-0.38462 -1.23242,-0.64062c-0.352,-0.26669 -0.63928,-0.58567 -0.86328,-0.95899c-0.21334,-0.384 -0.32031,-0.85848 -0.32031,-1.42383c0,-0.53334 0.11194,-1.00782 0.33594,-1.42382c0.23467,-0.416 0.5556,-0.76864 0.96094,-1.05665c0.40533,-0.28789 0.88478,-0.50683 1.43945,-0.65624c0.55467,-0.14942 1.16288,-0.22461 1.82422,-0.22461c0.64,0 1.22643,0.08023 1.75977,0.24023zM82.41993,152.12793c0.768,0.352 1.41784,0.82649 1.95117,1.42383c0.544,0.59732 0.96005,1.29074 1.24805,2.08008c0.29867,0.78934 0.44922,1.62143 0.44922,2.49609c0,0.88534 -0.15055,1.7224 -0.44922,2.51172c-0.288,0.78934 -0.70405,1.48274 -1.24805,2.08008c-0.53333,0.59732 -1.18317,1.07183 -1.95117,1.42383c-0.75733,0.352 -1.61121,0.52734 -2.56055,0.52734c-0.94933,0 -1.80817,-0.17534 -2.57617,-0.52734c-0.75733,-0.352 -1.40717,-0.82651 -1.95117,-1.42383c-0.53333,-0.59734 -0.94938,-1.29074 -1.24805,-2.08008c-0.288,-0.78932 -0.43164,-1.62638 -0.43164,-2.51172c0,-0.87466 0.14364,-1.70675 0.43164,-2.49609c0.29866,-0.78934 0.71471,-1.48276 1.24805,-2.08008c0.544,-0.59734 1.19384,-1.07183 1.95117,-1.42383c0.768,-0.352 1.62684,-0.52734 2.57617,-0.52734c0.94933,0 1.80321,0.17534 2.56055,0.52734zM78.16407,153.64746c-0.52267,0.224 -0.98229,0.54494 -1.37695,0.96094c-0.384,0.416 -0.68811,0.92222 -0.91211,1.51953c-0.224,0.59734 -0.33594,1.264 -0.33594,2c0,0.736 0.11194,1.40266 0.33594,2c0.224,0.59732 0.52811,1.10848 0.91211,1.53516c0.39466,0.41607 0.85428,0.74198 1.37695,0.97656c0.52267,0.224 1.08731,0.33594 1.69531,0.33594c0.608,0 1.17265,-0.11194 1.69531,-0.33594c0.52267,-0.23466 0.97733,-0.56056 1.36133,-0.97656c0.39467,-0.42668 0.70373,-0.93784 0.92773,-1.53516c0.224,-0.59734 0.33594,-1.264 0.33594,-2c0,-0.736 -0.11194,-1.40266 -0.33594,-2c-0.224,-0.59731 -0.53307,-1.10353 -0.92773,-1.51953c-0.384,-0.416 -0.83866,-0.73694 -1.36133,-0.96094c-0.52267,-0.23458 -1.08731,-0.35156 -1.69531,-0.35156c-0.608,0 -1.17265,0.11698 -1.69531,0.35156zM72.6504,162.47949c0.23466,0.22401 0.35156,0.49641 0.35156,0.81641c0,0.30942 -0.1169,0.58182 -0.35156,0.81641c-0.224,0.224 -0.48949,0.33594 -0.79883,0.33594c-0.32001,0 -0.59737,-0.11194 -0.83203,-0.33594c-0.224,-0.23469 -0.33594,-0.50709 -0.33594,-0.81641c0,-0.32 0.11194,-0.59241 0.33594,-0.81641c0.23466,-0.23458 0.51203,-0.35156 0.83203,-0.35156c0.30933,0 0.57483,0.11698 0.79883,0.35156zM88.68165,162.47949c0.23466,0.22401 0.35156,0.49641 0.35156,0.81641c0,0.30942 -0.1169,0.58182 -0.35156,0.81641c-0.224,0.224 -0.48949,0.33594 -0.79883,0.33594c-0.32001,0 -0.59737,-0.11194 -0.83203,-0.33594c-0.224,-0.23469 -0.33594,-0.50709 -0.33594,-0.81641c0,-0.32 0.11194,-0.59241 0.33594,-0.81641c0.23466,-0.23458 0.51203,-0.35156 0.83203,-0.35156c0.30933,0 0.57483,0.11698 0.79883,0.35156z" data-paper-data="{&quot;origPos&quot;:null}" id="path1913" fill="#1eff00" stroke="none" stroke-width="1" stroke-miterlimit="10" stroke-dashoffset="0"/><path d="M62.57795,175.4073v3.29597c0,0.34142 -0.12267,0.62942 -0.368,0.864c-0.23467,0.23458 -0.52267,0.35187 -0.864,0.35187c-0.34133,0 -0.62933,-0.11729 -0.864,-0.35187c-0.23467,-0.23466 -0.352,-0.52266 -0.352,-0.864v-10.15997c0,-0.096 0.016,-0.21329 0.048,-0.35187c0.032,-0.14932 0.096,-0.28797 0.192,-0.41597c0.096,-0.13858 0.224,-0.25058 0.384,-0.336c0.17067,-0.096 0.384,-0.144 0.64,-0.144h4.016c0.55467,0 1.07733,0.10671 1.568,0.32013c0.50133,0.21334 0.93333,0.50134 1.296,0.864c0.37332,0.36268 0.66666,0.79468 0.88,1.296c0.21334,0.49068 0.32001,1.01335 0.32001,1.56801c0,0.56534 -0.10667,1.09334 -0.32001,1.584c-0.21333,0.49066 -0.50666,0.92266 -0.88,1.296c-0.36267,0.36258 -0.79467,0.65058 -1.296,0.864c-0.49067,0.21342 -1.01333,0.32013 -1.568,0.32013zM62.57795,169.39154v3.92001h2.624c0.26667,0 0.51733,-0.048 0.752,-0.144c0.24533,-0.10658 0.45867,-0.25058 0.64,-0.432c0.18133,-0.18142 0.32,-0.38942 0.416,-0.624c0.10667,-0.23466 0.16,-0.49066 0.16,-0.768c0,-0.26676 -0.05333,-0.51743 -0.16,-0.75201c-0.096,-0.24542 -0.23467,-0.45342 -0.416,-0.624c-0.18133,-0.18132 -0.39467,-0.31997 -0.64,-0.41597c-0.23467,-0.10658 -0.48533,-0.15987 -0.752,-0.15987z" data-paper-data="{&quot;origPos&quot;:null}" id="path1902" fill="#1eff00" stroke="none" stroke-width="0.26458" stroke-miterlimit="10" stroke-dashoffset="0"/><path d="M72.54872,179.7917c-0.56533,-0.23466 -1.056,-0.55999 -1.472,-0.97599c-0.41599,-0.416 -0.74666,-0.912 -0.992,-1.488c-0.23466,-0.58668 -0.35199,-1.23203 -0.35199,-1.93603c0,-0.704 0.11733,-1.344 0.35199,-1.92c0.24533,-0.58666 0.576,-1.08799 0.992,-1.50399c0.416,-0.416 0.90667,-0.736 1.472,-0.96c0.56533,-0.23458 1.168,-0.35187 1.808,-0.35187c0.65067,0 1.25867,0.11729 1.824,0.35187c0.56533,0.224 1.056,0.544 1.472,0.96c0.41601,0.416 0.74134,0.91733 0.976,1.50399c0.24534,0.576 0.36801,1.216 0.36801,1.92c0,0.704 -0.12267,1.34934 -0.36801,1.93603c-0.23467,0.576 -0.56,1.072 -0.976,1.488c-0.416,0.41608 -0.90667,0.7414 -1.472,0.97599c-0.56533,0.224 -1.17333,0.336 -1.824,0.336c-0.64,0 -1.24267,-0.112 -1.808,-0.336zM76.7087,174.23969c-0.11732,-0.37332 -0.28266,-0.69865 -0.496,-0.97599c-0.21333,-0.288 -0.48,-0.512 -0.8,-0.672c-0.30933,-0.17058 -0.66133,-0.25587 -1.056,-0.25587c-0.39467,0 -0.74667,0.08529 -1.056,0.25587c-0.30933,0.16 -0.576,0.384 -0.8,0.672c-0.21333,0.27734 -0.37866,0.60267 -0.496,0.97599c-0.11734,0.36268 -0.17601,0.74668 -0.17601,1.152c0,0.40534 0.05867,0.79468 0.17601,1.16803c0.11733,0.37332 0.28266,0.69865 0.496,0.97599c0.224,0.27742 0.49067,0.50142 0.8,0.672c0.30933,0.16 0.66133,0.24 1.056,0.24c0.39467,0 0.74667,-0.08 1.056,-0.24c0.31999,-0.17066 0.58666,-0.39466 0.8,-0.672c0.21332,-0.27734 0.37866,-0.60267 0.496,-0.97599c0.11734,-0.37334 0.17601,-0.76268 0.17601,-1.16803c0,-0.40532 -0.05867,-0.78932 -0.17601,-1.152z" data-paper-data="{&quot;origPos&quot;:null}" id="path1904" fill="#1eff00" stroke="none" stroke-width="0.26458" stroke-miterlimit="10" stroke-dashoffset="0"/><path d="M87.93943,177.44008c0,0.11734 -0.06933,0.32534 -0.20799,0.624c-0.128,0.288 -0.34667,0.58667 -0.656,0.89601c-0.29867,0.30942 -0.69334,0.58142 -1.184,0.816c-0.49067,0.23458 -1.09867,0.35187 -1.824,0.35187c-0.62933,0 -1.216,-0.112 -1.76,-0.336c-0.53333,-0.224 -0.99733,-0.544 -1.392,-0.96c-0.39467,-0.416 -0.704,-0.912 -0.928,-1.488c-0.224,-0.58666 -0.336,-1.23733 -0.336,-1.95201c0,-0.71466 0.112,-1.35999 0.336,-1.93599c0.224,-0.58666 0.53333,-1.08799 0.928,-1.50399c0.39467,-0.416 0.85866,-0.736 1.392,-0.96c0.544,-0.224 1.13067,-0.336 1.76,-0.336c0.68267,0 1.26933,0.11729 1.76,0.35187c0.49067,0.23466 0.89067,0.50666 1.2,0.816c0.32001,0.30934 0.54934,0.61334 0.688,0.912c0.14934,0.28792 0.22401,0.4906 0.22401,0.60801c0,0.1599 -0.04267,0.31456 -0.12801,0.46397c-0.07466,0.13883 -0.17599,0.26154 -0.30399,0.36813c-0.128,0.10658 -0.272,0.19187 -0.432,0.25587c-0.14933,0.064 -0.29866,0.096 -0.448,0.096c-0.14933,0 -0.288,-0.03729 -0.416,-0.11187c-0.11732,-0.08534 -0.20265,-0.22401 -0.25599,-0.41601c-0.032,-0.13866 -0.09067,-0.28799 -0.17601,-0.44799c-0.08534,-0.17058 -0.20801,-0.33058 -0.36801,-0.48c-0.14933,-0.14942 -0.336,-0.27213 -0.56,-0.36813c-0.224,-0.10658 -0.48533,-0.15987 -0.784,-0.15987c-0.66133,0 -1.17867,0.22933 -1.552,0.68799c-0.37333,0.45868 -0.56,1.17868 -0.56,2.16c0,0.98134 0.18667,1.70134 0.56,2.16c0.37333,0.45868 0.89066,0.68803 1.552,0.68803c0.29867,0 0.56,-0.048 0.784,-0.144c0.23466,-0.10658 0.42666,-0.23458 0.576,-0.384c0.14932,-0.14934 0.26665,-0.30401 0.35199,-0.46401c0.08534,-0.17076 0.14401,-0.32543 0.17601,-0.46401c0.04266,-0.19208 0.12799,-0.3254 0.25599,-0.39999c0.12799,-0.08542 0.26666,-0.12813 0.416,-0.12813c0.13866,0 0.28266,0.032 0.432,0.096c0.16,0.064 0.304,0.14929 0.432,0.25587c0.128,0.10658 0.23467,0.23458 0.32001,0.384c0.08534,0.13866 0.12801,0.28799 0.12801,0.44799z" data-paper-data="{&quot;origPos&quot;:null}" id="path1906" fill="#1eff00" stroke="none" stroke-width="0.26458" stroke-miterlimit="10" stroke-dashoffset="0"/><path d="M91.40495,179.7917c-0.56533,-0.23466 -1.056,-0.55999 -1.472,-0.97599c-0.41599,-0.416 -0.74666,-0.912 -0.992,-1.488c-0.23466,-0.58668 -0.35199,-1.23203 -0.35199,-1.93603c0,-0.704 0.11733,-1.344 0.35199,-1.92c0.24533,-0.58666 0.576,-1.08799 0.992,-1.50399c0.416,-0.416 0.90667,-0.736 1.472,-0.96c0.56533,-0.23458 1.168,-0.35187 1.808,-0.35187c0.65067,0 1.25867,0.11729 1.824,0.35187c0.56533,0.224 1.056,0.544 1.472,0.96c0.41601,0.416 0.74134,0.91733 0.976,1.50399c0.24534,0.576 0.36801,1.216 0.36801,1.92c0,0.704 -0.12267,1.34934 -0.36801,1.93603c-0.23467,0.576 -0.56,1.072 -0.976,1.488c-0.416,0.41608 -0.90667,0.7414 -1.472,0.97599c-0.56533,0.224 -1.17333,0.336 -1.824,0.336c-0.64,0 -1.24267,-0.112 -1.808,-0.336zM95.56493,174.23969c-0.11733,-0.37332 -0.28266,-0.69865 -0.496,-0.97599c-0.21333,-0.288 -0.48,-0.512 -0.8,-0.672c-0.30933,-0.17058 -0.66133,-0.25587 -1.056,-0.25587c-0.39467,0 -0.74667,0.08529 -1.056,0.25587c-0.30933,0.16 -0.576,0.384 -0.8,0.672c-0.21332,0.27734 -0.37866,0.60267 -0.496,0.97599c-0.11734,0.36268 -0.17601,0.74668 -0.17601,1.152c0,0.40534 0.05867,0.79468 0.17601,1.16803c0.11732,0.37332 0.28266,0.69865 0.496,0.97599c0.224,0.27742 0.49067,0.50142 0.8,0.672c0.30933,0.16 0.66133,0.24 1.056,0.24c0.39467,0 0.74667,-0.08 1.056,-0.24c0.31999,-0.17066 0.58666,-0.39466 0.8,-0.672c0.21333,-0.27734 0.37866,-0.60267 0.496,-0.97599c0.11734,-0.37334 0.17601,-0.76268 0.17601,-1.16803c0,-0.40532 -0.05867,-0.78932 -0.17601,-1.152z" data-paper-data="{&quot;origPos&quot;:null}" id="path1908" fill="#1eff00" stroke="none" stroke-width="0.26458" stroke-miterlimit="10" stroke-dashoffset="0"/><path d="M99.26318,177.83969c0.23467,-0.24542 0.52267,-0.36813 0.864,-0.36813c0.34134,0 0.62934,0.12271 0.864,0.36813c0.24534,0.23468 0.36801,0.52268 0.36801,0.864c0,0.34142 -0.12267,0.62942 -0.36801,0.864c-0.23467,0.23458 -0.52267,0.35187 -0.864,0.35187c-0.34134,0 -0.62934,-0.11729 -0.864,-0.35187c-0.23466,-0.23466 -0.35199,-0.52266 -0.35199,-0.864c0,-0.34142 0.11733,-0.62942 0.35199,-0.864zM101.1352,175.40771c0,0.27742 -0.10133,0.51742 -0.30399,0.72c-0.192,0.20258 -0.42667,0.30387 -0.704,0.30387c-0.27734,0 -0.51734,-0.10129 -0.72,-0.30387c-0.192,-0.20268 -0.288,-0.44268 -0.288,-0.72v-7.104c0,-0.27734 0.096,-0.51201 0.288,-0.70401c0.20267,-0.20258 0.44267,-0.30387 0.72,-0.30387c0.27733,0 0.512,0.10129 0.704,0.30387c0.20266,0.192 0.30399,0.42667 0.30399,0.70401z" data-paper-data="{&quot;origPos&quot;:null}" id="path1910" fill="#1eff00" stroke="none" stroke-width="0.26458" stroke-miterlimit="10" stroke-dashoffset="0"/><path d="M160.85163,196.12848c0.03829,0 0.07003,0.12926 0.10099,0.15156c0.03099,0.02268 0.16369,0.01134 0.17552,0.04913c0.01172,0.0378 -0.10129,0.10658 -0.11312,0.14287c-0.01172,0.0378 0.03844,0.1595 0.00756,0.18217c-0.03099,0.02268 -0.13262,-0.0635 -0.17091,-0.0635c-0.03829,0 -0.13992,0.0858 -0.17091,0.0635c-0.03099,-0.02268 0.01928,-0.14551 0.00756,-0.18217c-0.01172,-0.0378 -0.12495,-0.10658 -0.11312,-0.14287c0.01172,-0.0378 0.14457,-0.02646 0.17552,-0.04913c0.03099,-0.02268 0.0627,-0.15156 0.10099,-0.15156z" data-paper-data="{&quot;origPos&quot;:null}" id="path1428-0-0-2-3-6-9-6" fill="#1eff00" stroke="none" stroke-width="0.02646" stroke-miterlimit="4" stroke-dashoffset="17.35"/></g></g></svg>