<svg version="1.1" xmlns="http://www.w3.org/2000/svg" xmlns:xlink="http://www.w3.org/1999/xlink" width="372.21484" height="68.64257"><g transform="translate(-53.89258,-145.67872)"><g data-paper-data="{&quot;isPaintingLayer&quot;:true}" fill-rule="nonzero" stroke-linecap="butt" stroke-linejoin="miter" stroke-dasharray="" style="mix-blend-mode: normal"><path d="M425.00976,146.42872c0.19314,0 0.34766,0.15452 0.34766,0.34765v66.44531c0,0.19314 -0.15452,0.34961 -0.34766,0.34961h-370.01757c-0.19314,0 -0.34961,-0.15647 -0.34961,-0.34961v-66.44531c0,-0.19313 0.15647,-0.34765 0.34961,-0.34765z" data-paper-data="{&quot;origPos&quot;:null}" id="rect815-0-0" fill="#1e1e1e" stroke="#1eff00" stroke-width="1.5" stroke-miterlimit="4" stroke-dashoffset="17.35"/><path d="M66.46484,151.60059c0.50134,0 0.97086,0.09511 1.4082,0.28711c0.448,0.192 0.83235,0.4545 1.15235,0.78516c0.33066,0.32 0.5912,0.70434 0.7832,1.15234c0.192,0.43734 0.28711,0.89997 0.28711,1.39063h0.00195c0,0.288 -0.05357,0.58217 -0.16015,0.88085c-0.0961,0.29866 -0.24664,0.581 -0.44922,0.84766c-0.20266,0.256 -0.45824,0.47988 -0.76758,0.67188c-0.29866,0.1921 -0.65626,0.3258 -1.07226,0.40039c0.26675,0.064 0.50249,0.1661 0.70507,0.30468c0.20274,0.13876 0.37314,0.29231 0.51172,0.46289c0.14942,0.17066 0.26136,0.35293 0.33594,0.54493c0.08643,0.18134 0.14,0.35172 0.16016,0.51172l0.35156,3.35937c0.02116,0.2559 -0.05403,0.49166 -0.22461,0.70508c-0.17066,0.21342 -0.40447,0.31836 -0.70313,0.31836c-0.26658,0 -0.49045,-0.07828 -0.67187,-0.23828c-0.18243,-0.16 -0.28453,-0.369 -0.30469,-0.625l-0.24023,-2.73633c-0.032,-0.33066 -0.11728,-0.60803 -0.25586,-0.83203c-0.12793,-0.23476 -0.2983,-0.42001 -0.51172,-0.5586c-0.20266,-0.13858 -0.4315,-0.24068 -0.6875,-0.30468c-0.256,-0.064 -0.52344,-0.09571 -0.80078,-0.09571h-3.56836v4.44727c0,0.256 -0.09007,0.47987 -0.27149,0.67187c-0.18131,0.18142 -0.40519,0.27344 -0.67187,0.27344c-0.256,0 -0.47988,-0.09202 -0.67188,-0.27344c-0.18141,-0.192 -0.27148,-0.41587 -0.27148,-0.67187v-10.43164c0,-0.34124 0.12177,-0.63544 0.36719,-0.88086c0.24534,-0.24542 0.54448,-0.36719 0.89648,-0.36719zM90.98437,151.84083c0.16,0.16007 0.24024,0.35721 0.24024,0.59179v6.11133l3.91992,-3.4082c0.14924,-0.11742 0.31468,-0.17578 0.49609,-0.17578c0.17069,0 0.3361,0.06536 0.4961,0.19336c0.16,0.12807 0.24023,0.30838 0.24023,0.54296c0,0.21327 -0.08528,0.39551 -0.25586,0.54493l-2.44922,2.11132l3.23243,4.57618c0.096,0.14941 0.14453,0.30988 0.14453,0.48046c0,0.14942 -0.02666,0.27623 -0.08008,0.38282c-0.05317,0.096 -0.12357,0.17623 -0.20899,0.24023c-0.08541,0.064 -0.17548,0.11253 -0.27148,0.14453c-0.096,0.032 -0.18607,0.04688 -0.27148,0.04688c-0.13859,0 -0.26735,-0.02666 -0.38477,-0.08008c-0.11717,-0.05317 -0.21927,-0.13844 -0.30469,-0.25586l-3.07031,-4.44726l-1.23242,1.05664v2.8789c0,0.23476 -0.08024,0.43879 -0.24024,0.60938c-0.16007,0.16 -0.35721,0.23828 -0.59179,0.23828c-0.23476,0 -0.4388,-0.07828 -0.60938,-0.23828c-0.16,-0.17076 -0.23828,-0.3748 -0.23828,-0.60938v-10.94336c0,-0.23466 0.07828,-0.43179 0.23828,-0.59179c0.17076,-0.16 0.37479,-0.24024 0.60938,-0.24024c0.23465,0 0.43179,0.08024 0.59179,0.24024zM103.9414,151.87208c0.18142,0.18131 0.27149,0.40519 0.27149,0.67187v10.73633c0,0.256 -0.09007,0.47987 -0.27149,0.67187c-0.18131,0.18142 -0.40519,0.27149 -0.67187,0.27149c-0.256,0 -0.47988,-0.09007 -0.67188,-0.27149c-0.18141,-0.192 -0.27343,-0.41587 -0.27343,-0.67187v-10.73633c0,-0.26658 0.09202,-0.49046 0.27343,-0.67187c0.192,-0.18142 0.41588,-0.27149 0.67188,-0.27149c0.26658,0 0.49046,0.09007 0.67187,0.27149zM108.03711,152.57715c0.17058,0.1601 0.25586,0.35722 0.25586,0.5918v2h0.8789c0.20276,0 0.37314,0.07324 0.51172,0.22266c0.14942,0.13876 0.22461,0.31109 0.22461,0.51367c0,0.21342 -0.07519,0.38876 -0.22461,0.52734c-0.13876,0.13859 -0.30913,0.20703 -0.51172,0.20703h-0.8789v6.73633c0,0.23476 -0.08528,0.43879 -0.25586,0.60938c-0.16008,0.16 -0.35722,0.23828 -0.5918,0.23828c-0.23466,0 -0.4318,-0.07828 -0.5918,-0.23828c-0.16,-0.17076 -0.24023,-0.3748 -0.24023,-0.60938v-6.73633h-0.5918c-0.20258,0 -0.37988,-0.06844 -0.52929,-0.20703c-0.13859,-0.13858 -0.20704,-0.31392 -0.20704,-0.52734c0,-0.20276 0.06845,-0.37509 0.20704,-0.51367c0.14941,-0.14942 0.32671,-0.22266 0.52929,-0.22266h0.5918v-2c0,-0.23468 0.08023,-0.4318 0.24023,-0.5918c0.16008,-0.16 0.35722,-0.24023 0.5918,-0.24023c0.23466,0 0.4318,0.08023 0.5918,0.24023zM61.74414,157.15333h4.51172c0.26676,0 0.51737,-0.04854 0.75195,-0.14454c0.23473,-0.10675 0.43879,-0.24543 0.60938,-0.41601c0.18134,-0.18142 0.32001,-0.39042 0.41601,-0.625c0.10658,-0.23466 0.16016,-0.48527 0.16016,-0.75195c0,-0.26674 -0.05358,-0.51737 -0.16016,-0.75196c-0.09592,-0.23476 -0.2346,-0.43684 -0.41601,-0.60742c-0.17074,-0.18134 -0.3748,-0.32001 -0.60938,-0.41601c-0.23468,-0.10659 -0.48529,-0.16016 -0.75195,-0.16016h-4.51172zM86.39453,155.13575c0.46934,0.18131 0.85368,0.40025 1.15234,0.65625c0.30927,0.256 0.53809,0.52148 0.6875,0.79883c0.14942,0.27734 0.22461,0.51307 0.22461,0.70507c0,0.24542 -0.08527,0.43759 -0.25586,0.57618c-0.17058,0.128 -0.36275,0.1914 -0.57617,0.1914c-0.14934,0 -0.28801,-0.03674 -0.41601,-0.11133c-0.128,-0.07458 -0.21807,-0.20334 -0.27149,-0.38476c-0.05342,-0.17066 -0.14348,-0.3361 -0.27148,-0.4961c-0.11734,-0.16 -0.27285,-0.30364 -0.46485,-0.43164c-0.18131,-0.128 -0.40025,-0.2301 -0.65625,-0.30468c-0.24534,-0.07459 -0.51774,-0.11133 -0.8164,-0.11133c-0.33069,0 -0.66153,0.0634 -0.99219,0.1914c-0.32,0.11735 -0.61225,0.30952 -0.87891,0.57618c-0.256,0.26668 -0.465,0.61932 -0.625,1.05664c-0.16,0.42668 -0.23828,0.94473 -0.23828,1.55273c0,0.608 0.07828,1.12412 0.23828,1.55078c0.16,0.42666 0.369,0.77433 0.625,1.04102c0.26666,0.26666 0.55891,0.4638 0.87891,0.59179c0.33066,0.11742 0.6615,0.17579 0.99219,0.17579c0.29858,0 0.57099,-0.03675 0.8164,-0.11133c0.2559,-0.07458 0.47484,-0.17669 0.65625,-0.30469c0.19193,-0.128 0.34743,-0.27164 0.46485,-0.43164c0.128,-0.16008 0.21806,-0.32551 0.27148,-0.49609c0.05342,-0.18142 0.14349,-0.31019 0.27149,-0.38477c0.12792,-0.07458 0.26659,-0.11133 0.41601,-0.11133c0.21342,0 0.40559,0.0704 0.57617,0.20899c0.18142,0.12807 0.27149,0.30838 0.27149,0.54297c0,0.11734 -0.05162,0.31448 -0.15821,0.59179c-0.10665,0.26669 -0.29883,0.53909 -0.57617,0.81641c-0.27731,0.27726 -0.66166,0.52291 -1.15234,0.73633c-0.48,0.21341 -1.09815,0.32031 -1.85547,0.32031l-0.00195,-0.00195c-0.62934,0 -1.21577,-0.11194 -1.75977,-0.33594c-0.53334,-0.23466 -0.99597,-0.56056 -1.39062,-0.97656c-0.39466,-0.416 -0.70569,-0.91033 -0.92969,-1.48633c-0.224,-0.58666 -0.33594,-1.2335 -0.33594,-1.9375c0,-0.71469 0.11194,-1.35955 0.33594,-1.93555c0.224,-0.58666 0.53503,-1.08791 0.92969,-1.50391c0.39465,-0.416 0.85728,-0.73498 1.39062,-0.95898c0.544,-0.23458 1.13043,-0.35352 1.75977,-0.35352c0.64,0 1.19474,0.09707 1.66406,0.28907zM77.00781,155.16895c0.544,0.21334 1.01159,0.52239 1.40625,0.92773c0.39466,0.40532 0.70569,0.9016 0.92969,1.48829c0.224,0.58665 0.33594,1.25828 0.33594,2.01562c0,0.75732 -0.11194,1.42894 -0.33594,2.01563c-0.224,0.58665 -0.53503,1.08294 -0.92969,1.48828c-0.39466,0.39458 -0.86225,0.69869 -1.40625,0.91211c-0.53334,0.21341 -1.1148,0.32031 -1.74414,0.32031c-0.62932,0 -1.21772,-0.1069 -1.76172,-0.32031c-0.53334,-0.21334 -0.99597,-0.51745 -1.39062,-0.91211c-0.39469,-0.40534 -0.70374,-0.90163 -0.92774,-1.48828c-0.224,-0.58669 -0.33594,-1.25831 -0.33594,-2.01563c0,-0.75734 0.11194,-1.42897 0.33594,-2.01562c0.224,-0.58669 0.53305,-1.08297 0.92774,-1.48829c0.39465,-0.40526 0.85728,-0.71431 1.39062,-0.92773c0.544,-0.21342 1.1324,-0.32031 1.76172,-0.32031c0.62934,0 1.2108,0.10689 1.74414,0.32031zM74.1582,156.43262c-0.33058,0.128 -0.61786,0.33011 -0.86328,0.60742c-0.23473,0.26669 -0.42196,0.61436 -0.56055,1.04102c-0.13858,0.42666 -0.20703,0.93285 -0.20703,1.51953c0,0.58666 0.06845,1.09287 0.20703,1.51953c0.13874,0.416 0.32597,0.76368 0.56055,1.04102c0.24534,0.26676 0.53262,0.46884 0.86328,0.60742c0.34134,0.128 0.71081,0.19141 1.10547,0.19141c0.39468,0 0.75723,-0.06341 1.08789,-0.19141c0.34142,-0.13868 0.6287,-0.34076 0.86328,-0.60742c0.24542,-0.27734 0.43759,-0.62502 0.57617,-1.04102c0.13859,-0.42666 0.20703,-0.93287 0.20703,-1.51953c0,-0.58668 -0.06844,-1.09287 -0.20703,-1.51953c-0.13858,-0.42666 -0.33075,-0.77433 -0.57617,-1.04102c-0.23466,-0.27731 -0.52194,-0.47942 -0.86328,-0.60742c-0.33066,-0.13858 -0.69321,-0.20898 -1.08789,-0.20898c-0.39466,0 -0.76413,0.0704 -1.10547,0.20898zM67.43359,169.01075c0.25409,0 0.46979,0.08893 0.64844,0.26758c0.17865,0.17874 0.26953,0.39445 0.26953,0.64843c0,0.26349 -0.09088,0.48542 -0.26953,0.66407c-0.17872,0.17864 -0.39443,0.26757 -0.64844,0.26757h-4.93945v2.41211h4.14844c0.26348,0 0.48541,0.09499 0.66406,0.28321c0.17864,0.17874 0.26758,0.39445 0.26758,0.64843c0,0.25391 -0.08894,0.47585 -0.26758,0.66407c-0.17872,0.17864 -0.40066,0.26757 -0.66406,0.26757h-4.14844v3.16016h4.93945c0.25409,0 0.46979,0.09089 0.64844,0.26953c0.17865,0.17872 0.26953,0.39446 0.26953,0.64844c0,0.26351 -0.09088,0.48542 -0.26953,0.66406c-0.17872,0.17865 -0.39443,0.26758 -0.64844,0.26758h-5.98242c-0.13163,0 -0.2647,-0.0191 -0.39648,-0.05664c-0.13178,-0.04712 -0.25236,-0.1126 -0.36524,-0.19727c-0.10356,-0.09398 -0.18814,-0.21241 -0.25391,-0.35351c-0.06576,-0.1411 -0.0996,-0.31027 -0.0996,-0.50781v-8.91797c0,-0.08466 0.01474,-0.18835 0.04296,-0.31055c0.02822,-0.13178 0.08331,-0.25431 0.16797,-0.36719c0.08466,-0.1222 0.19874,-0.21958 0.33985,-0.29492c0.15052,-0.08466 0.33869,-0.12695 0.56445,-0.12695zM79.09765,169.67286c0.20687,0.19754 0.3086,0.43652 0.3086,0.71875v1.58203v0.18164h1.00195c0.17882,0 0.33092,0.06744 0.45313,0.19922c0.13178,0.12238 0.19726,0.27252 0.19726,0.45117c0,0.18822 -0.06548,0.34264 -0.19726,0.46484c-0.12238,0.12221 -0.27448,0.1836 -0.45313,0.1836h-1.00195v5.67187c0,0.27291 -0.10173,0.51384 -0.3086,0.7207c-0.19754,0.19755 -0.43422,0.29688 -0.70703,0.29688c-0.2823,0 -0.52555,-0.09933 -0.73242,-0.29688c-0.19754,-0.20696 -0.29687,-0.44789 -0.29687,-0.7207v-5.67187h-0.59375c-0.17865,0 -0.33307,-0.06139 -0.46485,-0.1836c-0.1222,-0.1222 -0.18359,-0.27662 -0.18359,-0.46484c0,-0.17882 0.06139,-0.32897 0.18359,-0.45117c0.13178,-0.13178 0.2862,-0.19922 0.46485,-0.19922h0.59375v-0.18164v-1.58203c0,-0.28223 0.09933,-0.52121 0.29687,-0.71875c0.20694,-0.19755 0.45019,-0.29688 0.73242,-0.29688c0.27281,0 0.50949,0.09933 0.70703,0.29688zM91.91015,172.09864c0.40451,0.08476 0.75332,0.21588 1.04493,0.39453c0.30095,0.17875 0.5314,0.40493 0.6914,0.67773c0.16933,0.26339 0.25391,0.5827 0.25391,0.95899v5.03906c0,0.27273 -0.09498,0.50319 -0.2832,0.69141c-0.18815,0.18822 -0.4186,0.28125 -0.69141,0.28125c-0.25391,0 -0.47389,-0.08024 -0.66211,-0.24024c-0.17865,-0.16932 -0.28233,-0.38078 -0.31055,-0.63476c-0.35746,0.33874 -0.73379,0.5692 -1.1289,0.6914c-0.39509,0.12221 -0.84128,0.1836 -1.33985,0.1836c-0.31985,0 -0.64536,-0.04664 -0.97461,-0.14063c-0.31985,-0.09401 -0.61159,-0.23561 -0.875,-0.42383c-0.2539,-0.19754 -0.46109,-0.43654 -0.62109,-0.71875c-0.16,-0.28223 -0.24023,-0.61201 -0.24023,-0.98828c0,-0.58325 0.12685,-1.03989 0.38086,-1.36914c0.26338,-0.32925 0.58892,-0.57872 0.9746,-0.74804c0.38572,-0.16933 0.80006,-0.29185 1.24219,-0.36719c0.45153,-0.07509 0.87015,-0.14927 1.25586,-0.22461c0.38569,-0.07509 0.705,-0.17877 0.95899,-0.31055c0.2634,-0.1411 0.39453,-0.36303 0.39453,-0.66406c0,-0.1411 -0.04229,-0.26168 -0.12696,-0.36524c-0.07533,-0.11288 -0.18311,-0.20376 -0.32421,-0.26953c-0.14103,-0.07534 -0.30593,-0.13042 -0.49415,-0.16797c-0.18824,-0.03754 -0.38493,-0.05664 -0.59179,-0.05664c-0.27291,0 -0.48434,0.03795 -0.63477,0.11329c-0.15068,0.07533 -0.2732,0.16836 -0.36719,0.28124c-0.08466,0.11289 -0.15645,0.23976 -0.21289,0.38086c-0.05644,0.13178 -0.12627,0.25431 -0.21093,0.36719c-0.07509,0.11288 -0.17877,0.20787 -0.31055,0.28321c-0.13163,0.07533 -0.31979,0.11328 -0.56445,0.11328v-0.00196c-0.22579,0 -0.42248,-0.05508 -0.5918,-0.16797c-0.16,-0.1223 -0.24024,-0.33996 -0.24024,-0.65039c0,-0.30102 0.07614,-0.57804 0.22657,-0.83203c0.1505,-0.25408 0.36621,-0.46979 0.64843,-0.64843c0.28221,-0.18807 0.62479,-0.33395 1.0293,-0.4375c0.40451,-0.10356 0.86117,-0.15626 1.36914,-0.15626c0.47978,0 0.92166,0.0423 1.32617,0.12696zM70.50976,172.05762c0.11289,0.04712 0.20592,0.12735 0.28125,0.24024l1.45313,2.27148l1.43945,-2.27148c0.07509,-0.11289 0.16597,-0.19312 0.26953,-0.24024c0.11289,-0.05644 0.23346,-0.08398 0.36524,-0.08398c0.23518,0 0.4381,0.07828 0.60742,0.23828c0.17865,0.16002 0.26758,0.35866 0.26758,0.59375c0,0.1506 -0.04229,0.286 -0.12696,0.4082l-1.93164,2.69531l2.28516,2.89258c0.04813,0.05644 0.08002,0.11783 0.09766,0.1836c0.01763,0.06576 0.02734,0.13755 0.02734,0.21289c0,0.08466 -0.0191,0.18204 -0.05664,0.29492c-0.03754,0.10331 -0.09893,0.20699 -0.18359,0.31055c-0.07509,0.09423 -0.17877,0.17447 -0.31055,0.24023c-0.13163,0.06576 -0.2903,0.09961 -0.47852,0.09961c-0.13152,0 -0.24995,-0.02515 -0.35351,-0.07227c-0.10331,-0.04711 -0.19224,-0.12735 -0.26758,-0.24023l-1.65039,-2.56641l-1.66602,2.56641c-0.07508,0.11288 -0.16402,0.19312 -0.26758,0.24023c-0.1033,0.04712 -0.22173,0.07227 -0.35351,0.07227c-0.11288,0 -0.22936,-0.0191 -0.35156,-0.05664c-0.11289,-0.04687 -0.22066,-0.10826 -0.32422,-0.18359c-0.10356,-0.07534 -0.18814,-0.17033 -0.25391,-0.28321c-0.06576,-0.1222 -0.09961,-0.26187 -0.09961,-0.42187c0,-0.07534 0.00971,-0.14713 0.02735,-0.21289c0.01864,-0.06577 0.05053,-0.12716 0.09765,-0.1836l2.28711,-2.89258l-1.93164,-2.69531c-0.08466,-0.12238 -0.12695,-0.25778 -0.12695,-0.4082c0,-0.23511 0.08458,-0.43375 0.2539,-0.59375c0.17883,-0.16 0.38601,-0.23828 0.6211,-0.23828c0.13153,0 0.24995,0.02754 0.35351,0.08398zM83.65039,172.28418c0.19754,0.19755 0.29492,0.43228 0.29492,0.70508c0.08466,-0.09423 0.18834,-0.20201 0.31055,-0.32422c0.1318,-0.12245 0.2734,-0.23023 0.42383,-0.32421c0.15992,-0.10356 0.32481,-0.1901 0.49414,-0.25586c0.16932,-0.07534 0.33849,-0.11133 0.50781,-0.11133c0.37621,0 0.62994,0.09738 0.76172,0.29492c0.1411,0.19754 0.21094,0.42802 0.21094,0.69141c0,0.21639 -0.05074,0.38125 -0.1543,0.49414c-0.09424,0.10356 -0.21676,0.18379 -0.36719,0.24023c-0.1411,0.05644 -0.29747,0.10308 -0.4668,0.14063c-0.16942,0.02822 -0.32809,0.07051 -0.47851,0.12695c-0.27281,0.10348 -0.49474,0.24083 -0.66406,0.41016c-0.16,0.15984 -0.28058,0.33326 -0.36524,0.52148c-0.08466,0.17865 -0.1417,0.36256 -0.16992,0.55078c-0.02822,0.18807 -0.04297,0.36149 -0.04297,0.52149v3.16211c0,0.28222 -0.10368,0.5212 -0.31055,0.71874c-0.19754,0.19755 -0.43652,0.29688 -0.71875,0.29688c-0.27288,0 -0.51383,-0.09933 -0.7207,-0.29688c-0.19754,-0.20696 -0.29492,-0.44594 -0.29492,-0.71874v-6.13868c0,-0.2728 0.09738,-0.50753 0.29492,-0.70508c0.20694,-0.20686 0.45215,-0.31054 0.73438,-0.31054c0.2822,0 0.52316,0.10368 0.7207,0.31054zM91.14844,176.41895c-0.32925,0.10331 -0.77541,0.20504 -1.33985,0.30859c-0.68671,0.12228 -1.03125,0.44782 -1.03125,0.97461c0,0.13181 0.0191,0.25866 0.05664,0.38086c0.04687,0.12221 0.12301,0.23433 0.22656,0.33789c0.10349,0.09399 0.23889,0.17013 0.40821,0.22657c0.17874,0.05644 0.3964,0.08398 0.65039,0.08398c0.21629,0 0.432,-0.02319 0.64844,-0.07031c0.22576,-0.05644 0.42247,-0.13063 0.59179,-0.22461c0.17867,-0.10356 0.32027,-0.22609 0.42383,-0.36719c0.11288,-0.15042 0.16992,-0.31959 0.16992,-0.50781v-1.36914c-0.19754,0.04686 -0.46601,0.123 -0.80468,0.22656z" data-paper-data="{&quot;origPos&quot;:null}" id="path1834" fill="#1eff00" stroke="none" stroke-width="1" stroke-miterlimit="10" stroke-dashoffset="0"/><path d="M69.10265,187.56511c1.27593,0 2.33409,4.30813 3.36631,5.0581c1.03226,0.74997 5.45654,0.42505 5.85082,1.63854c0.39428,1.21349 -3.37603,3.55109 -3.77031,4.76459c-0.39428,1.21349 1.28194,5.32078 0.24983,6.07079c-1.03226,0.74997 -4.42057,-2.11344 -5.6965,-2.11344c-1.27593,0 -4.66424,2.86341 -5.6965,2.11344c-1.03226,-0.75001 0.64396,-4.8573 0.24983,-6.07079c-0.39428,-1.21349 -4.16459,-3.55109 -3.77031,-4.76459c0.39428,-1.21349 4.81856,-0.88857 5.85082,-1.63854c1.03223,-0.74997 2.09038,-5.0581 3.36631,-5.0581z" data-paper-data="{&quot;origPos&quot;:null}" id="path1428-5-07" fill="#1eff00" stroke="none" stroke-width="0.88188" stroke-miterlimit="4" stroke-dashoffset="17.35"/><path d="M92.03969,187.56511c1.27593,0 2.33405,4.30813 3.36631,5.0581c1.03226,0.74997 5.4565,0.42505 5.85078,1.63854c0.39428,1.21349 -3.37599,3.55109 -3.77027,4.76459c-0.39432,1.21349 1.2819,5.32078 0.24945,6.07079c-1.03223,0.74997 -4.42054,-2.11344 -5.69647,-2.11344c-1.27597,0 -4.66424,2.86341 -5.6965,2.11344c-1.03226,-0.75001 0.64396,-4.8573 0.24945,-6.07079c-0.39428,-1.21349 -4.16455,-3.55109 -3.77027,-4.76459c0.39428,-1.21349 4.81852,-0.88857 5.85078,-1.63854c1.03226,-0.74997 2.09038,-5.0581 3.36635,-5.0581z" data-paper-data="{&quot;origPos&quot;:null}" id="path1428-0-2-53" fill="#1eff00" stroke="none" stroke-width="0.88188" stroke-miterlimit="4" stroke-dashoffset="17.35"/><path d="M114.97659,187.56511c1.27593,0 2.33409,4.30813 3.36635,5.0581c1.03223,0.74997 5.4565,0.42505 5.85078,1.63854c0.39428,1.21349 -3.37603,3.55109 -3.77031,4.76459c-0.39428,1.21349 1.28194,5.32078 0.24983,6.07079c-1.03226,0.74997 -4.42057,-2.11344 -5.6965,-2.11344c-1.27593,0 -4.66424,2.86341 -5.6965,2.11344c-1.03223,-0.75001 0.64396,-4.8573 0.24983,-6.07079c-0.39428,-1.21349 -4.16459,-3.55109 -3.77031,-4.76459c0.39432,-1.21349 4.81856,-0.88857 5.85082,-1.63854c1.03226,-0.74997 2.09038,-5.0581 3.36631,-5.0581z" data-paper-data="{&quot;origPos&quot;:null}" id="path1428-0-6-3-11" fill="#1eff00" stroke="none" stroke-width="0.88188" stroke-miterlimit="4" stroke-dashoffset="17.35"/><path d="M137.91363,187.56511c1.27593,0 2.33405,4.30813 3.36631,5.0581c1.03226,0.74997 5.4565,0.42505 5.85078,1.63854c0.39432,1.21349 -3.37599,3.55109 -3.77027,4.76459c-0.39428,1.21349 1.2819,5.32078 0.24983,6.07079c-1.03226,0.74997 -4.42057,-2.11344 -5.6965,-2.11344c-1.27593,0 -4.66424,2.86341 -5.6965,2.11344c-1.03226,-0.75001 0.64396,-4.8573 0.24983,-6.07079c-0.39432,-1.21349 -4.16459,-3.55109 -3.77031,-4.76459c0.39428,-1.21349 4.81856,-0.88857 5.85078,-1.63854c1.03226,-0.74997 2.09042,-5.0581 3.36635,-5.0581z" data-paper-data="{&quot;origPos&quot;:null}" id="path1428-0-0-2-3" fill="#1eff00" stroke="none" stroke-width="0.88188" stroke-miterlimit="4" stroke-dashoffset="17.35"/><path d="M160.85053,193.65681c0.39557,0 0.72359,1.33553 1.04357,1.56801c0.32013,0.23244 1.69153,0.13191 1.81376,0.50797c0.12208,0.37606 -1.04655,1.10083 -1.16878,1.477c-0.12208,0.37606 0.39738,1.64946 0.07748,1.88194c-0.32013,0.23244 -1.37034,-0.65514 -1.76591,-0.65514c-0.39553,0 -1.4459,0.88766 -1.76591,0.65514c-0.32013,-0.23244 0.19956,-1.50573 0.07748,-1.88194c-0.12208,-0.37606 -1.29101,-1.10083 -1.16878,-1.477c0.12208,-0.37606 1.49374,-0.27553 1.81372,-0.50797c0.32013,-0.23244 0.64804,-1.56801 1.04357,-1.56801z" data-paper-data="{&quot;origPos&quot;:null}" id="path1428-0-8-5-42" fill="#1eff00" stroke="none" stroke-width="0.27338" stroke-miterlimit="4" stroke-dashoffset="17.35"/></g></g></svg>