<svg version="1.1" xmlns="http://www.w3.org/2000/svg" xmlns:xlink="http://www.w3.org/1999/xlink" width="427.10986" height="27.77196" viewBox="0,0,427.10986,27.77196"><g transform="translate(-25.93736,-150.42304)"><g data-paper-data="{&quot;isPaintingLayer&quot;:true}" fill-rule="nonzero" stroke-linecap="butt" stroke-linejoin="miter" stroke-dasharray="" style="mix-blend-mode: normal"><g id="g1028"><path d="M452.10557,151.17327c0.10684,0 0.19141,0.0865 0.19141,0.19336v25.88477c0,0.10684 -0.08456,0.19336 -0.19141,0.19336h-425.22657c-0.10684,0 -0.19141,-0.0865 -0.19141,-0.19336v-25.88477c0,-0.10684 0.08456,-0.19336 0.19141,-0.19336z" id="rect913-8-4" fill="#272727" stroke="#1eff00" stroke-width="1.50047" stroke-miterlimit="4" stroke-dashoffset="17.35"/><path d="M190.97081,156.41546c0.23475,0 0.43174,0.08018 0.59179,0.24023c0.17074,0.16006 0.25586,0.35705 0.25586,0.5918c0,0.23475 -0.08512,0.43865 -0.25586,0.60937c-0.16005,0.16006 -0.35704,0.24024 -0.59179,0.24024h-2.99414v10.00195c-0.00001,0.2561 -0.09505,0.48176 -0.28711,0.67383c-0.1814,0.18139 -0.40016,0.27148 -0.65625,0.27148c-0.26676,0 -0.49048,-0.09009 -0.67188,-0.27148c-0.1814,-0.19207 -0.27344,-0.41773 -0.27344,-0.67383v-10.00195h-2.99218c-0.23476,0 -0.43865,-0.08018 -0.60938,-0.24024c-0.16006,-0.17072 -0.23828,-0.37462 -0.23828,-0.60937c0,-0.23475 0.07822,-0.43174 0.23828,-0.5918c0.17073,-0.16005 0.37462,-0.24023 0.60938,-0.24023zM220.60362,156.65569c0.16006,0.16006 0.24023,0.35705 0.24023,0.5918v10.94922c0,0.23474 -0.08017,0.43669 -0.24023,0.60742c-0.16006,0.16005 -0.35705,0.24023 -0.5918,0.24023c-0.23475,0 -0.43669,-0.08018 -0.60742,-0.24023c-0.16006,-0.17073 -0.24023,-0.37268 -0.24023,-0.60742v-10.94922c0,-0.23475 0.08017,-0.43174 0.24023,-0.5918c0.17073,-0.16005 0.37267,-0.24023 0.60742,-0.24023c0.23475,0 0.43174,0.08018 0.5918,0.24023zM278.4376,156.65569c0.16006,0.16006 0.24024,0.35705 0.24024,0.5918v10.94922c0,0.23474 -0.08018,0.43669 -0.24024,0.60742c-0.16005,0.16005 -0.35704,0.24023 -0.59179,0.24023c-0.23476,0 -0.43865,-0.08018 -0.60938,-0.24023c-0.16006,-0.17073 -0.24023,-0.37268 -0.24023,-0.60742v-10.94922c0,-0.23475 0.08017,-0.43174 0.24023,-0.5918c0.17073,-0.16005 0.37462,-0.24023 0.60938,-0.24023c0.23475,0 0.43174,0.08018 0.59179,0.24023zM255.66807,157.39202c0.17073,0.16006 0.25781,0.35705 0.25781,0.5918v2.00195h0.87891c0.20274,0 0.37496,0.07327 0.51367,0.22266c0.14939,0.13871 0.22266,0.30898 0.22266,0.51172c0,0.21341 -0.07327,0.39058 -0.22266,0.52929c-0.13871,0.13872 -0.31093,0.20703 -0.51367,0.20703h-0.87891v6.74024c0,0.23474 -0.08708,0.43669 -0.25781,0.60742c-0.16006,0.16005 -0.35705,0.24023 -0.5918,0.24023c-0.23475,0 -0.43173,-0.08018 -0.59179,-0.24023c-0.16006,-0.17073 -0.24024,-0.37268 -0.24024,-0.60742v-6.74024h-0.59179c-0.20274,0 -0.37991,-0.06831 -0.5293,-0.20703c-0.13871,-0.13871 -0.20703,-0.31588 -0.20703,-0.52929c0,-0.20274 0.06832,-0.37301 0.20703,-0.51172c0.14939,-0.14939 0.32656,-0.22266 0.5293,-0.22266h0.59179v-2.00195c0,-0.23475 0.08018,-0.43174 0.24024,-0.5918c0.16006,-0.16006 0.35704,-0.24023 0.59179,-0.24023c0.23475,0 0.43174,0.08017 0.5918,0.24023zM196.69151,159.98577c0.54419,0.21341 1.01339,0.52226 1.4082,0.92773c0.39481,0.40548 0.70366,0.90141 0.92774,1.48829c0.22408,0.58687 0.33593,1.25997 0.33593,2.01757c0,0.75761 -0.11185,1.42875 -0.33593,2.01563c-0.22408,0.58688 -0.53293,1.0828 -0.92774,1.48828c-0.39481,0.39481 -0.86401,0.6987 -1.4082,0.91211c-0.53353,0.21341 -1.11654,0.32031 -1.7461,0.32031c-0.62956,0 -1.21556,-0.1069 -1.75976,-0.32031c-0.53352,-0.21341 -0.99777,-0.5173 -1.39258,-0.91211c-0.39481,-0.40548 -0.70365,-0.9014 -0.92773,-1.48828c-0.22408,-0.58688 -0.33594,-1.25802 -0.33594,-2.01563c0,-0.7576 0.11186,-1.4307 0.33594,-2.01757c0.22408,-0.58688 0.53292,-1.08281 0.92773,-1.48829c0.39481,-0.40547 0.85906,-0.71432 1.39258,-0.92773c0.5442,-0.21341 1.1302,-0.32031 1.75976,-0.32031c0.62956,0 1.21257,0.1069 1.7461,0.32031zM227.93956,159.93694c0.53352,0.1814 0.99086,0.44866 1.375,0.80078c0.3948,0.34146 0.7056,0.76216 0.92968,1.26368c0.22408,0.50151 0.33594,1.07265 0.33594,1.71289c0,0.3948 -0.09699,0.69374 -0.28906,0.89648c-0.19207,0.20274 -0.41578,0.30469 -0.67188,0.30469h-5.85742c0,0.02134 0.00496,0.11143 0.01563,0.27148c0.02136,0.14939 0.05799,0.32956 0.11132,0.54297c0.06403,0.21341 0.15111,0.44403 0.25782,0.68945c0.11737,0.23475 0.27082,0.45351 0.46289,0.65625c0.19207,0.20274 0.42764,0.373 0.70508,0.51172c0.2881,0.12805 0.63358,0.19141 1.03906,0.19141c0.33078,0 0.61485,-0.02675 0.84961,-0.08008c0.23475,-0.05335 0.44165,-0.13157 0.62304,-0.23828c0.1814,-0.10671 0.34671,-0.24034 0.4961,-0.40039c0.14938,-0.17073 0.29983,-0.36967 0.44922,-0.59375c0.08536,-0.12806 0.1804,-0.21815 0.28711,-0.27148c0.1067,-0.05334 0.21856,-0.08008 0.33593,-0.08008c0.19207,0 0.36924,0.07027 0.5293,0.20898c0.16006,0.13872 0.24023,0.31394 0.24024,0.52734c0,0.12805 -0.07027,0.32008 -0.20899,0.57618c-0.13871,0.25609 -0.36243,0.51343 -0.67187,0.76953c-0.29878,0.25609 -0.6878,0.47981 -1.16797,0.67187c-0.48018,0.19207 -1.06814,0.28711 -1.76172,0.28711c-0.70426,0 -1.33381,-0.12672 -1.88867,-0.38281c-0.55487,-0.25609 -1.02407,-0.59857 -1.40821,-1.02539c-0.37346,-0.43749 -0.66054,-0.94333 -0.86328,-1.51953c-0.19206,-0.57621 -0.28906,-1.17903 -0.28906,-1.8086c0,-0.6509 0.10195,-1.26559 0.30469,-1.84179c0.20274,-0.58688 0.48981,-1.09271 0.86328,-1.51953c0.38414,-0.42682 0.84342,-0.76435 1.37695,-1.00977c0.53352,-0.25609 1.1314,-0.38281 1.79297,-0.38281c0.60822,0 1.17441,0.09008 1.69727,0.27148zM242.24424,160.32171c0.65091,0.42682 0.97461,1.06133 0.97461,1.90429v5.97071c0,0.23474 -0.07822,0.43669 -0.23828,0.60742c-0.16006,0.16005 -0.359,0.24023 -0.59375,0.24023c-0.23475,0 -0.43669,-0.08018 -0.60742,-0.24023c-0.16006,-0.17073 -0.24023,-0.37268 -0.24023,-0.60742v-0.25781c-0.40549,0.43749 -0.86973,0.73147 -1.39258,0.88086c-0.51219,0.14938 -1.05661,0.2246 -1.63282,0.2246c-0.3628,0 -0.73004,-0.04849 -1.10351,-0.14453c-0.3628,-0.1067 -0.69342,-0.26706 -0.99219,-0.48047c-0.2881,-0.21341 -0.52368,-0.47871 -0.70508,-0.79882c-0.1814,-0.32012 -0.27148,-0.70613 -0.27148,-1.1543c0,-0.51218 0.09999,-0.93784 0.30273,-1.2793c0.20274,-0.35212 0.47496,-0.64115 0.81641,-0.86523c0.34146,-0.22408 0.73243,-0.39435 1.16992,-0.51172c0.44816,-0.1174 0.91736,-0.20253 1.4082,-0.25586c0.56554,-0.06402 1.00802,-0.13429 1.32813,-0.20898c0.32012,-0.08537 0.56065,-0.18041 0.7207,-0.28711c0.16008,-0.1067 0.25511,-0.23042 0.28711,-0.36914c0.04267,-0.13872 0.06445,-0.29216 0.06446,-0.4629c-0.00001,-0.20274 -0.05841,-0.37991 -0.17579,-0.52929c-0.11738,-0.14939 -0.26782,-0.27116 -0.44921,-0.36719c-0.1814,-0.09605 -0.38335,-0.16632 -0.60743,-0.20898c-0.22408,-0.05334 -0.44284,-0.08008 -0.65625,-0.08008c-0.38414,0 -0.69298,0.03365 -0.92773,0.09765c-0.23475,0.06403 -0.42679,0.14916 -0.57617,0.25586c-0.14939,0.10671 -0.2731,0.23343 -0.36914,0.38282c-0.08536,0.14938 -0.16554,0.30478 -0.24024,0.46484c-0.06402,0.12807 -0.15411,0.22506 -0.27148,0.28906c-0.10671,0.05334 -0.21857,0.07813 -0.33594,0.07813c-0.21341,0 -0.4104,-0.06832 -0.5918,-0.20703c-0.18139,-0.13872 -0.27343,-0.33076 -0.27343,-0.57618c0,-0.09603 0.02674,-0.21284 0.08007,-0.35156c0.09604,-0.22408 0.22472,-0.44284 0.38477,-0.65625c0.16006,-0.22408 0.37386,-0.42302 0.64062,-0.59375c0.27744,-0.17072 0.613,-0.3024 1.00782,-0.39844c0.40548,-0.1067 0.89645,-0.16015 1.47265,-0.16015c1.0884,0 1.95353,0.21875 2.59375,0.65625zM264.02159,159.98577c0.54419,0.21341 1.01339,0.52226 1.4082,0.92773c0.39481,0.40548 0.70561,0.90141 0.92969,1.48829c0.22408,0.58687 0.33593,1.25997 0.33593,2.01757c0,0.75761 -0.11185,1.42875 -0.33593,2.01563c-0.22408,0.58688 -0.53488,1.0828 -0.92969,1.48828c-0.39481,0.39481 -0.86401,0.6987 -1.4082,0.91211c-0.53353,0.21341 -1.11458,0.32031 -1.74414,0.32031c-0.62956,0 -1.21752,-0.1069 -1.76172,-0.32031c-0.53353,-0.21341 -0.99777,-0.5173 -1.39258,-0.91211c-0.39481,-0.40548 -0.70366,-0.9014 -0.92774,-1.48828c-0.22408,-0.58688 -0.33593,-1.25802 -0.33593,-2.01563c0,-0.7576 0.11185,-1.4307 0.33593,-2.01757c0.22409,-0.58688 0.53293,-1.08281 0.92774,-1.48829c0.39481,-0.40547 0.85905,-0.71432 1.39258,-0.92773c0.5442,-0.21341 1.13216,-0.32031 1.76172,-0.32031c0.62956,0 1.21061,0.1069 1.74414,0.32031zM286.54112,160.32171c0.6509,0.42682 0.97656,1.06133 0.97656,1.90429v5.97071c0,0.23474 -0.08017,0.43669 -0.24023,0.60742c-0.16006,0.16005 -0.35705,0.24023 -0.5918,0.24023c-0.23475,0 -0.43865,-0.08018 -0.60938,-0.24023c-0.16006,-0.17073 -0.24023,-0.37268 -0.24023,-0.60742v-0.25781c-0.40548,0.43749 -0.86972,0.73147 -1.39258,0.88086c-0.51218,0.14938 -1.0566,0.2246 -1.63281,0.2246c-0.3628,0 -0.73005,-0.04849 -1.10352,-0.14453c-0.3628,-0.1067 -0.69341,-0.26706 -0.99218,-0.48047c-0.2881,-0.21341 -0.52368,-0.47871 -0.70508,-0.79882c-0.1814,-0.32012 -0.27149,-0.70613 -0.27149,-1.1543c0,-0.51218 0.10195,-0.93784 0.30469,-1.2793c0.20274,-0.35212 0.47495,-0.64115 0.81641,-0.86523c0.34146,-0.22408 0.73047,-0.39435 1.16797,-0.51172c0.44816,-0.1174 0.91736,-0.20253 1.4082,-0.25586c0.56554,-0.06402 1.00801,-0.13429 1.32812,-0.20898c0.32012,-0.08537 0.56065,-0.18041 0.72071,-0.28711c0.16007,-0.1067 0.25511,-0.23042 0.28711,-0.36914c0.04266,-0.13872 0.06445,-0.29216 0.06445,-0.4629c0,-0.20274 -0.05841,-0.37991 -0.17578,-0.52929c-0.11738,-0.14939 -0.26587,-0.27116 -0.44727,-0.36719c-0.1814,-0.09605 -0.38529,-0.16632 -0.60937,-0.20898c-0.22409,-0.05334 -0.44285,-0.08008 -0.65625,-0.08008c-0.38414,0 -0.69298,0.03365 -0.92774,0.09765c-0.23474,0.06403 -0.42678,0.14916 -0.57617,0.25586c-0.14938,0.10671 -0.2731,0.23343 -0.36914,0.38282c-0.08536,0.14938 -0.16554,0.30478 -0.24023,0.46484c-0.06403,0.12807 -0.15411,0.22506 -0.27149,0.28906c-0.1067,0.05334 -0.21856,0.07813 -0.33593,0.07813c-0.21342,0 -0.4104,-0.06832 -0.5918,-0.20703c-0.1814,-0.13872 -0.27149,-0.33076 -0.27149,-0.57618c0,-0.09603 0.0248,-0.21284 0.07813,-0.35156c0.09604,-0.22408 0.22471,-0.44284 0.38476,-0.65625c0.16006,-0.22408 0.37387,-0.42302 0.64063,-0.59375c0.27743,-0.17072 0.613,-0.3024 1.00781,-0.39844c0.40548,-0.1067 0.89645,-0.16015 1.47266,-0.16015c1.08839,0 1.95352,0.21875 2.59375,0.65625zM205.57627,160.08147c0.45884,0.20274 0.84291,0.43141 1.15235,0.6875v-0.14453c0,-0.23475 0.08017,-0.43173 0.24023,-0.59179c0.16006,-0.17073 0.35705,-0.25586 0.5918,-0.25586c0.23475,0 0.43369,0.08513 0.59375,0.25586c0.17073,0.16006 0.25586,0.35704 0.25586,0.59179v8.21094c0,0.53353 -0.11186,1.01954 -0.33594,1.45703c-0.21341,0.43749 -0.50739,0.81165 -0.88086,1.12109c-0.37346,0.32012 -0.81098,0.56561 -1.3125,0.73633c-0.50151,0.1814 -1.04098,0.27149 -1.61719,0.27149c-0.62956,0 -1.16707,-0.08018 -1.61523,-0.24024c-0.44816,-0.14938 -0.82232,-0.33151 -1.12109,-0.54492c-0.29878,-0.20274 -0.51753,-0.41459 -0.65625,-0.63867c-0.13872,-0.21341 -0.20899,-0.38563 -0.20899,-0.51367c0,-0.21341 0.07027,-0.39854 0.20899,-0.5586c0.13872,-0.16006 0.30402,-0.24023 0.49609,-0.24023c0.19207,0 0.3841,0.09999 0.57617,0.30273c0.13872,0.16006 0.2773,0.29865 0.41602,0.41602c0.13871,0.12805 0.29411,0.23495 0.46484,0.32031c0.18139,0.08538 0.38334,0.15069 0.60742,0.19336c0.23475,0.04267 0.51191,0.0625 0.83203,0.0625c0.34146,0 0.66217,-0.04159 0.96094,-0.12695c0.29878,-0.0747 0.55913,-0.20337 0.7832,-0.38477c0.22409,-0.17073 0.40126,-0.39444 0.5293,-0.67187c0.12804,-0.26676 0.19141,-0.58747 0.19141,-0.96094v-1.05664c-0.1067,0.11737 -0.24033,0.251 -0.40039,0.40039c-0.16006,0.13872 -0.35209,0.27234 -0.57617,0.40039c-0.22408,0.12805 -0.48443,0.2399 -0.78321,0.33594c-0.29877,0.08536 -0.6462,0.1289 -1.04101,0.1289c-0.57621,0 -1.10877,-0.09009 -1.59961,-0.27148c-0.48018,-0.1814 -0.89788,-0.46051 -1.25,-0.83398c-0.34146,-0.37347 -0.60676,-0.85258 -0.79883,-1.43946c-0.19207,-0.58688 -0.28906,-1.27978 -0.28906,-2.08008c0,-0.81095 0.1069,-1.50581 0.32031,-2.08203c0.21341,-0.58687 0.49552,-1.06598 0.84766,-1.43945c0.36279,-0.38413 0.78049,-0.66821 1.25,-0.84961c0.48017,-0.1814 0.98601,-0.27148 1.51953,-0.27148c0.6509,0 1.20027,0.10194 1.64843,0.30468zM214.95518,160.08147c0.45883,0.20274 0.8429,0.43141 1.15234,0.6875v-0.14453c0,-0.23475 0.08019,-0.43173 0.24024,-0.59179c0.16006,-0.17073 0.35704,-0.25586 0.5918,-0.25586c0.23475,0 0.43174,0.08513 0.59179,0.25586c0.17073,0.16006 0.25586,0.35704 0.25586,0.59179v8.21094c0,0.53353 -0.11186,1.01954 -0.33594,1.45703c-0.2134,0.43749 -0.50544,0.81165 -0.8789,1.12109c-0.37348,0.32012 -0.81099,0.56561 -1.3125,0.73633c-0.50152,0.1814 -1.04098,0.27149 -1.61719,0.27149c-0.62956,0 -1.16903,-0.08018 -1.61719,-0.24024c-0.44816,-0.14938 -0.82036,-0.33151 -1.11914,-0.54492c-0.29877,-0.20274 -0.51753,-0.41459 -0.65625,-0.63867c-0.13872,-0.21341 -0.20898,-0.38563 -0.20898,-0.51367c0,-0.21341 0.07026,-0.39854 0.20898,-0.5586c0.13872,-0.16006 0.30403,-0.24023 0.4961,-0.24023c0.19207,0 0.3841,0.09999 0.57617,0.30273c0.13872,0.16006 0.2773,0.29865 0.41601,0.41602c0.13872,0.12805 0.29217,0.23495 0.46289,0.32031c0.1814,0.08538 0.3853,0.15069 0.60938,0.19336c0.23475,0.04267 0.51192,0.0625 0.83203,0.0625c0.34145,0 0.66216,-0.04159 0.96094,-0.12695c0.29877,-0.0747 0.55912,-0.20337 0.7832,-0.38477c0.22408,-0.17073 0.40125,-0.39444 0.5293,-0.67187c0.12804,-0.26676 0.1914,-0.58747 0.1914,-0.96094v-1.05664c-0.1067,0.11737 -0.24033,0.251 -0.40039,0.40039c-0.16005,0.13872 -0.35209,0.27234 -0.57617,0.40039c-0.22408,0.12805 -0.48443,0.2399 -0.7832,0.33594c-0.29877,0.08536 -0.64621,0.1289 -1.04102,0.1289c-0.5762,0 -1.11071,-0.09009 -1.60156,-0.27148c-0.48017,-0.1814 -0.89592,-0.46051 -1.24805,-0.83398c-0.34145,-0.37347 -0.6087,-0.85258 -0.80078,-1.43946c-0.19206,-0.58688 -0.28711,-1.27978 -0.28711,-2.08008c0,-0.81095 0.10691,-1.50581 0.32032,-2.08203c0.21341,-0.58687 0.49553,-1.06598 0.84765,-1.43945c0.3628,-0.38413 0.77855,-0.66821 1.24805,-0.84961c0.48017,-0.1814 0.98796,-0.27148 1.52148,-0.27148c0.6509,0 1.20028,0.10194 1.64844,0.30468zM245.90831,160.03265c0.16005,0.16006 0.23828,0.35704 0.23828,0.59179v5.57032c0,0.24541 0.05345,0.45922 0.16015,0.64062c0.11738,0.18139 0.26287,0.3368 0.4336,0.46484c0.1814,0.1174 0.37839,0.20749 0.59179,0.27149c0.22408,0.064 0.44284,0.0957 0.65625,0.0957c0.35213,0 0.67284,-0.0584 0.96094,-0.17578c0.28811,-0.12805 0.52668,-0.29831 0.71875,-0.51172c0.20274,-0.21341 0.35814,-0.46385 0.46484,-0.75195c0.10671,-0.29878 0.16016,-0.61948 0.16016,-0.96094v-4.64258c0,-0.23475 0.08018,-0.43173 0.24024,-0.59179c0.16005,-0.17073 0.35704,-0.25586 0.59179,-0.25586c0.23476,0 0.43175,0.08513 0.5918,0.25586c0.17073,0.16006 0.25586,0.35704 0.25586,0.59179v7.57227c0,0.23474 -0.08513,0.43669 -0.25586,0.60742c-0.16005,0.16005 -0.35704,0.24023 -0.5918,0.24023c-0.23475,0 -0.43174,-0.08018 -0.59179,-0.24023c-0.16006,-0.17073 -0.24024,-0.37268 -0.24024,-0.60742v-0.28906c-0.10671,0.09604 -0.24033,0.21284 -0.40039,0.35156c-0.14939,0.12804 -0.33647,0.25177 -0.56055,0.36914c-0.22408,0.11738 -0.48443,0.21933 -0.7832,0.30469c-0.28811,0.07469 -0.62563,0.11132 -1.00976,0.11132c-0.39482,0 -0.77888,-0.05345 -1.15235,-0.16015c-0.3628,-0.11738 -0.68651,-0.28764 -0.97461,-0.51172c-0.2881,-0.22408 -0.51872,-0.50125 -0.68945,-0.83203c-0.17073,-0.33079 -0.25586,-0.71485 -0.25586,-1.15235v-5.76367c0,-0.23475 0.08018,-0.43173 0.24023,-0.59179c0.17074,-0.17073 0.37268,-0.25586 0.60743,-0.25586c0.23475,0 0.43369,0.08513 0.59375,0.25586zM269.1837,160.03265c0.16006,0.16006 0.24023,0.35704 0.24023,0.59179v0.14453c0.21341,-0.1814 0.4104,-0.33679 0.5918,-0.46484c0.19207,-0.12805 0.39101,-0.22804 0.59375,-0.30273c0.20274,-0.08538 0.42645,-0.14379 0.67187,-0.17579c0.24542,-0.032 0.52755,-0.04882 0.84766,-0.04882c0.52286,0 1.01382,0.11185 1.47266,0.33593c0.46949,0.22408 0.87534,0.54479 1.21679,0.96094c0.35213,0.40548 0.62929,0.89645 0.83203,1.47266c0.20274,0.56554 0.30469,1.19014 0.30469,1.87304c0,0.68292 -0.09204,1.30556 -0.27344,1.8711c-0.1814,0.56554 -0.44174,1.05651 -0.7832,1.47265c-0.33079,0.40548 -0.73167,0.72124 -1.20117,0.94532c-0.4695,0.22408 -0.99215,0.33593 -1.56836,0.33593c-0.38413,0 -0.71971,-0.03663 -1.00781,-0.11132c-0.27744,-0.08536 -0.52292,-0.18731 -0.73633,-0.30469c-0.20274,-0.11737 -0.38486,-0.24605 -0.54492,-0.38477l-0.41602,-0.41601v3.74609c0,0.23475 -0.08017,0.43174 -0.24023,0.5918c-0.16006,0.17072 -0.35705,0.25586 -0.5918,0.25586c-0.23475,0 -0.4367,-0.08514 -0.60742,-0.25586c-0.16006,-0.16006 -0.24024,-0.35705 -0.24024,-0.5918v-10.94922c0,-0.23475 0.08018,-0.43173 0.24024,-0.59179c0.17072,-0.17073 0.37267,-0.25586 0.60742,-0.25586c0.23475,0 0.43174,0.08513 0.5918,0.25586zM289.47081,159.93694c0.16005,0.09604 0.27686,0.23462 0.35156,0.41602l2.78515,6.68945l2.4336,-6.60937c0.07469,-0.19208 0.18655,-0.34747 0.33594,-0.46485c0.16006,-0.12804 0.33527,-0.1914 0.52734,-0.1914c0.19207,0 0.37915,0.07522 0.56055,0.22461c0.1814,0.13872 0.27148,0.36243 0.27148,0.67187c0,0.05337 -0.00496,0.10682 -0.01562,0.16016c-0.01067,0.05337 -0.02555,0.10682 -0.04688,0.16015l-3.68164,9.47461c-0.08537,0.21341 -0.18731,0.43217 -0.30469,0.65625c-0.1067,0.23476 -0.25024,0.4436 -0.43164,0.625c-0.17072,0.1814 -0.39444,0.32989 -0.67187,0.44727c-0.26676,0.11737 -0.59738,0.17578 -0.99219,0.17578h-0.76953c-0.21342,0 -0.39358,-0.07327 -0.54297,-0.22266c-0.13872,-0.13871 -0.20899,-0.31588 -0.20899,-0.52929c0.00001,-0.21341 0.07027,-0.39359 0.20899,-0.54297c0.14939,-0.14939 0.32955,-0.22461 0.54297,-0.22461h0.49609c0.09604,0 0.19799,-0.00496 0.30469,-0.01563c0.11738,-0.01066 0.22924,-0.04237 0.33594,-0.0957c0.1067,-0.04269 0.20865,-0.12286 0.30468,-0.24023c0.09604,-0.10671 0.18117,-0.26707 0.25586,-0.48047l0.40039,-1.1211l-3.68164,-7.90625c-0.05333,-0.12804 -0.08007,-0.24681 -0.08007,-0.35351c0,-0.08536 0.01682,-0.17545 0.04882,-0.27149c0.03204,-0.1067 0.07858,-0.20174 0.14258,-0.28711c0.06403,-0.08538 0.1442,-0.15565 0.24024,-0.20898c0.1067,-0.064 0.23538,-0.0957 0.38476,-0.0957c0.1814,0 0.34671,0.05345 0.4961,0.16015zM193.8419,161.24944c-0.33079,0.12805 -0.61981,0.32999 -0.86523,0.60742c-0.23476,0.26677 -0.41989,0.6142 -0.5586,1.04102c-0.13872,0.42682 -0.20898,0.93461 -0.20898,1.52148c0,0.58688 0.07026,1.09272 0.20898,1.51954c0.13871,0.41615 0.32384,0.76358 0.5586,1.04101c0.24542,0.26676 0.53444,0.4687 0.86523,0.60742c0.34146,0.12805 0.70871,0.19141 1.10351,0.19141c0.39481,0 0.75906,-0.06336 1.08985,-0.19141c0.34146,-0.13872 0.62853,-0.34066 0.86328,-0.60742c0.24543,-0.27743 0.43746,-0.62486 0.57617,-1.04101c0.13872,-0.42682 0.20899,-0.93266 0.20899,-1.51954c0,-0.58687 -0.07027,-1.09466 -0.20899,-1.52148c-0.13871,-0.42682 -0.33074,-0.77425 -0.57617,-1.04102c-0.23475,-0.27743 -0.52182,-0.47937 -0.86328,-0.60742c-0.33079,-0.13871 -0.69504,-0.20898 -1.08985,-0.20898c-0.3948,0 -0.76205,0.07027 -1.10351,0.20898zM225.26573,161.21819c-0.27744,0.11738 -0.51106,0.26587 -0.70313,0.44727c-0.1814,0.17072 -0.32688,0.36276 -0.43359,0.57617c-0.10673,0.21341 -0.1869,0.4104 -0.24024,0.5918c-0.05333,0.1814 -0.08503,0.34175 -0.0957,0.48047c-0.01067,0.12805 -0.01562,0.20327 -0.01562,0.2246h5.18554c0,-0.33078 -0.05345,-0.64653 -0.16015,-0.94531c-0.10671,-0.29878 -0.27202,-0.55912 -0.4961,-0.7832c-0.21341,-0.23475 -0.49057,-0.42183 -0.83203,-0.56055c-0.34146,-0.13871 -0.74234,-0.20898 -1.20117,-0.20898c-0.39481,0 -0.73038,0.06036 -1.00781,0.17773zM261.17198,161.24944c-0.33079,0.12805 -0.61786,0.32999 -0.86328,0.60742c-0.23476,0.26677 -0.42184,0.6142 -0.56055,1.04102c-0.13872,0.42682 -0.20703,0.93461 -0.20703,1.52148c0,0.58688 0.06831,1.09272 0.20703,1.51954c0.13871,0.41615 0.32579,0.76358 0.56055,1.04101c0.24542,0.26676 0.53249,0.4687 0.86328,0.60742c0.34145,0.12805 0.71065,0.19141 1.10547,0.19141c0.3948,0 0.7571,-0.06336 1.08789,-0.19141c0.34146,-0.13872 0.63048,-0.34066 0.86523,-0.60742c0.24542,-0.27743 0.43745,-0.62486 0.57617,-1.04101c0.13872,-0.42682 0.20703,-0.93266 0.20703,-1.51954c0,-0.58687 -0.06831,-1.09466 -0.20703,-1.52148c-0.13872,-0.42682 -0.33075,-0.77425 -0.57617,-1.04102c-0.23475,-0.27743 -0.52377,-0.47937 -0.86523,-0.60742c-0.33079,-0.13871 -0.69309,-0.20898 -1.08789,-0.20898c-0.39482,0 -0.76402,0.07027 -1.10547,0.20898zM202.26377,161.98577c-0.4695,0.55487 -0.70507,1.36655 -0.70507,2.43359c0,1.06706 0.23557,1.87678 0.70507,2.43164c0.46951,0.54421 1.11392,0.81641 1.93555,0.81641c0.82163,0 1.46304,-0.2722 1.92188,-0.81641c0.4695,-0.55486 0.70312,-1.36458 0.70312,-2.43164c0,-1.06704 -0.23362,-1.87872 -0.70312,-2.43359c-0.45884,-0.55487 -1.10025,-0.83203 -1.92188,-0.83203c-0.82163,0 -1.46604,0.27716 -1.93555,0.83203zM211.64268,161.98577c-0.46951,0.55487 -0.70508,1.36655 -0.70508,2.43359c0,1.06706 0.23557,1.87678 0.70508,2.43164c0.4695,0.54421 1.11391,0.81641 1.93555,0.81641c0.82162,0 1.46304,-0.2722 1.92187,-0.81641c0.4695,-0.55486 0.70313,-1.36458 0.70313,-2.43164c0,-1.06704 -0.23363,-1.87872 -0.70313,-2.43359c-0.45883,-0.55487 -1.10025,-0.83203 -1.92187,-0.83203c-0.82164,0 -1.46605,0.27716 -1.93555,0.83203zM270.76963,161.42522c-0.30944,0.1814 -0.57174,0.42689 -0.78515,0.73633c-0.21342,0.29878 -0.37872,0.6462 -0.4961,1.04102c-0.1067,0.38413 -0.16015,0.78997 -0.16015,1.21679c0,0.41616 0.05345,0.82004 0.16015,1.21485c0.11738,0.39481 0.28268,0.74224 0.4961,1.04101c0.21341,0.29878 0.47571,0.53931 0.78515,0.72071c0.32012,0.1814 0.68241,0.27148 1.08789,0.27148c0.39481,0 0.7472,-0.09008 1.05665,-0.27148c0.32011,-0.1814 0.58541,-0.42193 0.79882,-0.72071c0.22408,-0.29877 0.3894,-0.6462 0.4961,-1.04101c0.11738,-0.39481 0.17773,-0.79869 0.17773,-1.21485c0,-0.42682 -0.06035,-0.83266 -0.17773,-1.21679c-0.1067,-0.39482 -0.27202,-0.74224 -0.4961,-1.04102c-0.21341,-0.30944 -0.47871,-0.55493 -0.79882,-0.73633c-0.30945,-0.18139 -0.66184,-0.27148 -1.05665,-0.27148c-0.40548,0 -0.76777,0.09009 -1.08789,0.27148zM241.13877,164.56194c-0.20274,0.06404 -0.44327,0.11253 -0.7207,0.14453c-0.26677,0.03203 -0.54888,0.06867 -0.84766,0.11133c-0.2881,0.04271 -0.57022,0.09616 -0.84765,0.16016c-0.27743,0.06402 -0.52787,0.16101 -0.75195,0.28906c-0.22408,0.11737 -0.40621,0.27277 -0.54493,0.46484c-0.12804,0.19207 -0.1914,0.43561 -0.1914,0.73438c0,0.23475 0.04654,0.43369 0.14258,0.59375c0.1067,0.14939 0.24033,0.27115 0.40039,0.36719c0.16006,0.08538 0.34218,0.15069 0.54492,0.19336c0.20274,0.032 0.40468,0.04687 0.60742,0.04687c0.30945,0 0.62025,-0.0317 0.92969,-0.0957c0.30944,-0.0747 0.58661,-0.1915 0.83203,-0.35156c0.25609,-0.16006 0.45803,-0.37386 0.60742,-0.64063c0.16006,-0.26676 0.24023,-0.59738 0.24024,-0.99219v-1.13672zM285.43565,164.56194c-0.20274,0.06404 -0.44132,0.11253 -0.71875,0.14453c-0.26677,0.03203 -0.55084,0.06867 -0.84961,0.11133c-0.28811,0.04271 -0.57022,0.09616 -0.84766,0.16016c-0.27743,0.06402 -0.52787,0.16101 -0.75195,0.28906c-0.22408,0.11737 -0.40621,0.27277 -0.54492,0.46484c-0.12805,0.19207 -0.19141,0.43561 -0.19141,0.73438c0,0.23475 0.04655,0.43369 0.14258,0.59375c0.10671,0.14939 0.24034,0.27115 0.40039,0.36719c0.16006,0.08538 0.34218,0.15069 0.54492,0.19336c0.20274,0.032 0.40469,0.04687 0.60743,0.04687c0.30944,0 0.62024,-0.0317 0.92968,-0.0957c0.30945,-0.0747 0.58661,-0.1915 0.83203,-0.35156c0.2561,-0.16006 0.45804,-0.37386 0.60743,-0.64063c0.16006,-0.26676 0.24023,-0.59738 0.24023,-0.99219v-1.13672z" id="path982" fill="#1eff00" stroke="none" stroke-width="1.00036" stroke-miterlimit="10" stroke-dashoffset="0"/></g></g></g></svg>