<svg version="1.1" xmlns="http://www.w3.org/2000/svg" xmlns:xlink="http://www.w3.org/1999/xlink" width="137.70423" height="172.1847" viewBox="0,0,137.70423,172.1847"><g transform="translate(-288.03558,-47.06683)"><g data-paper-data="{&quot;isPaintingLayer&quot;:true}" fill="#ff87eb" fill-rule="nonzero" stroke="#ffffff" stroke-width="5.28822" stroke-linecap="butt" stroke-linejoin="miter" stroke-miterlimit="10" stroke-dasharray="" stroke-dashoffset="0" font-family="none" font-weight="none" font-size="none" text-anchor="none" style="mix-blend-mode: normal"><path d="M368.52148,49.71094c7.75606,0 14.59673,1.12844 20.51954,3.38476c6.06382,2.2563 11.14091,5.36007 15.23046,9.30859c4.08956,3.80752 7.19136,8.38931 9.30664,13.74805c2.11529,5.21769 3.17188,10.85805 3.17188,16.92187c0,5.35874 -0.77496,10.01241 -2.32617,13.96094c-1.41019,3.94855 -3.31361,7.40382 -5.71094,10.36523c-2.2563,2.82038 -4.86477,5.14722 -7.82617,6.98047c-2.82038,1.69222 -5.71243,2.96248 -8.67383,3.80859c5.92281,1.97427 10.8581,4.51282 14.80664,7.61523c3.94854,2.96141 7.12221,6.27491 9.51953,9.94141c2.39733,3.66649 4.08904,7.61513 5.07617,11.8457c0.98714,4.23058 1.48047,8.46083 1.48047,12.69141c0,6.90993 -1.41008,13.1854 -4.23047,18.82617c-2.82038,5.64077 -6.69714,10.50615 -11.63281,14.5957c-4.79465,4.08955 -10.50687,7.26128 -17.13476,9.51758c-6.48689,2.25633 -13.46739,3.38477 -20.94141,3.38477h-61.76563c-2.11528,0 -4.16049,-0.35153 -6.13476,-1.05664c-1.97427,-0.84611 -3.7359,-1.97457 -5.28711,-3.38476c-1.55121,-1.41019 -2.82146,-3.17379 -3.80859,-5.28906c-0.98714,-2.1153 -1.48047,-4.44214 -1.48047,-6.98047v-133.68554c0,-4.5126 1.62179,-8.39133 4.86523,-11.63477c3.24344,-3.24346 7.19207,-4.86523 11.8457,-4.86523zM315.64062,119.09375h49.70899c3.52548,0 6.98077,-0.56522 10.36523,-1.69336c3.38446,-1.12816 6.34447,-2.67807 8.88282,-4.65234c2.53834,-2.11528 4.58355,-4.58391 6.13476,-7.4043c1.55121,-2.96141 2.32617,-6.205 2.32617,-9.73047c0,-6.90993 -2.18504,-12.55027 -6.55664,-16.92187c-4.37159,-4.5126 -10.71698,-6.76953 -19.03711,-6.76953h-51.82422zM315.64062,194.39648h51.61329c11.42254,0 19.31785,-2.25497 23.68945,-6.76758c4.51261,-4.65363 6.76953,-10.9291 6.76953,-18.82617c0,-9.16624 -3.1018,-16.21666 -9.30664,-21.15234c-6.06382,-5.07669 -14.17279,-7.61523 -24.32617,-7.61523h-48.43946z" id="path883"/></g></g></svg>