<svg version="1.1" xmlns="http://www.w3.org/2000/svg" xmlns:xlink="http://www.w3.org/1999/xlink" width="372.21484" height="68.64257"><g transform="translate(-53.89258,-145.67871)"><g data-paper-data="{&quot;isPaintingLayer&quot;:true}" fill-rule="nonzero" stroke-linecap="butt" stroke-linejoin="miter" stroke-dasharray="" style="mix-blend-mode: normal"><path d="M425.00976,146.42871c0.19314,0 0.34766,0.15452 0.34766,0.34766v66.44531c0,0.19313 -0.15452,0.34961 -0.34766,0.34961h-370.01757c-0.19329,0 -0.34961,-0.15648 -0.34961,-0.34961v-66.44531c0,-0.19314 0.15636,-0.34766 0.34961,-0.34766z" data-paper-data="{&quot;origPos&quot;:null}" id="rect815-0-25" fill="#1e1e1e" stroke="#1eff00" stroke-width="1.5" stroke-miterlimit="4" stroke-dashoffset="17.35"/><path d="M65.71289,151.60059c0.50134,0 0.97087,0.09511 1.40821,0.2871c0.43733,0.18132 0.82167,0.4369 1.15234,0.76758c0.33066,0.33066 0.58623,0.71501 0.76757,1.15235c0.192,0.43731 0.28907,0.90686 0.28907,1.4082c0,0.50134 -0.09707,0.97089 -0.28907,1.4082c-0.18133,0.43734 -0.43691,0.82169 -0.76757,1.15235c-0.33067,0.33068 -0.71501,0.5912 -1.15234,0.7832c-0.43733,0.18142 -0.90687,0.27148 -1.40821,0.27148h-3.96679v4.44922c0,0.256 -0.0921,0.47988 -0.27344,0.67188c-0.18133,0.18142 -0.4052,0.27148 -0.67187,0.27148c-0.256,0 -0.47987,-0.09006 -0.67187,-0.27148c-0.18134,-0.192 -0.27149,-0.41588 -0.27149,-0.67188v-10.43164c0,-0.34126 0.12185,-0.63544 0.36719,-0.88086c0.24534,-0.24541 0.54449,-0.36718 0.89649,-0.36718zM85.51562,151.84082c0.16,0.16008 0.24023,0.35721 0.24023,0.5918v10.94336c0,0.23476 -0.08023,0.43684 -0.24023,0.60742c-0.16001,0.16 -0.35713,0.24023 -0.59179,0.24023c-0.23468,0 -0.43677,-0.08023 -0.60743,-0.24023c-0.16,-0.17076 -0.24024,-0.37284 -0.24024,-0.60742v-10.94336c0,-0.23466 0.08024,-0.4318 0.24024,-0.5918c0.17067,-0.16 0.37277,-0.24023 0.60743,-0.24023c0.23467,0 0.43179,0.08023 0.59179,0.24023zM103.51758,151.84082c0.17066,0.16008 0.25586,0.35721 0.25586,0.5918v10.94336c0,0.23476 -0.0852,0.43684 -0.25586,0.60742c-0.16001,0.16 -0.35714,0.24023 -0.5918,0.24023c-0.23467,0 -0.43179,-0.08023 -0.59179,-0.24023c-0.16,-0.17076 -0.24024,-0.37284 -0.24024,-0.60742v-0.14453c-0.21333,0.18134 -0.41542,0.33684 -0.60742,0.46484c-0.18134,0.128 -0.37351,0.23489 -0.57617,0.32031c-0.20266,0.07458 -0.42654,0.12816 -0.67187,0.16016c-0.24533,0.032 -0.52766,0.04687 -0.84766,0.04687c-0.52267,0 -1.01895,-0.11193 -1.48828,-0.33594c-0.45867,-0.224 -0.8648,-0.53801 -1.2168,-0.94335c-0.34134,-0.416 -0.61374,-0.90732 -0.81641,-1.47266c-0.20266,-0.56532 -0.30273,-1.18841 -0.30273,-1.87109c0,-0.68266 0.09014,-1.30771 0.27148,-1.87305c0.18133,-0.576 0.43691,-1.06539 0.76758,-1.4707c0.34133,-0.416 0.74746,-0.73694 1.2168,-0.96094c0.46934,-0.224 0.99236,-0.33594 1.56836,-0.33594c0.43733,0 0.81477,0.05357 1.13477,0.16016c0.31999,0.10658 0.58744,0.23535 0.80078,0.38476c0.21332,0.13876 0.37875,0.27744 0.49609,0.41602c0.128,0.13858 0.21814,0.23873 0.27148,0.30273v-3.79101c0,-0.23466 0.08024,-0.4318 0.24024,-0.5918c0.16001,-0.16 0.35713,-0.24023 0.59179,-0.24023c0.23467,0 0.4318,0.08023 0.5918,0.24023zM106.625,151.87207c0.192,0.18134 0.28711,0.40522 0.28711,0.67188c0,0.256 -0.09511,0.47987 -0.28711,0.67187c-0.18133,0.18142 -0.40025,0.27148 -0.65625,0.27148c-0.26666,0 -0.49745,-0.09006 -0.68945,-0.27148c-0.18134,-0.192 -0.27148,-0.41587 -0.27148,-0.67187c0,-0.26659 0.09014,-0.49046 0.27148,-0.67188c0.192,-0.18142 0.42279,-0.27148 0.68945,-0.27148c0.25599,0 0.47491,0.09006 0.65625,0.27148zM61.74609,157.15137h3.75976c0.26667,0 0.5173,-0.04853 0.75196,-0.14453c0.23468,-0.10674 0.43676,-0.24348 0.60742,-0.41407c0.18133,-0.18141 0.32002,-0.39041 0.41602,-0.625c0.10666,-0.23468 0.16016,-0.48529 0.16016,-0.75195c0,-0.26676 -0.05349,-0.51737 -0.16016,-0.75195c-0.09599,-0.23474 -0.23468,-0.43684 -0.41602,-0.60742c-0.17067,-0.18135 -0.37276,-0.32002 -0.60742,-0.41602c-0.23467,-0.10658 -0.48529,-0.16016 -0.75196,-0.16016h-3.75976zM81.72851,155.50293c0.65067,0.42666 0.97657,1.06161 0.97657,1.9043v5.96875c0,0.23476 -0.08024,0.43684 -0.24024,0.60742c-0.16001,0.16 -0.35714,0.24023 -0.5918,0.24023c-0.23468,0 -0.43676,-0.08023 -0.60742,-0.24023c-0.16,-0.17076 -0.24024,-0.37284 -0.24024,-0.60742v-0.25586c-0.40534,0.43724 -0.86991,0.72949 -1.39257,0.8789c-0.512,0.14942 -1.05682,0.22461 -1.63281,0.22461c-0.36266,0 -0.73018,-0.04853 -1.10352,-0.14453c-0.36266,-0.10658 -0.69352,-0.2651 -0.99219,-0.47851c-0.28799,-0.21335 -0.52178,-0.48079 -0.70312,-0.80079c-0.18134,-0.32 -0.27148,-0.70434 -0.27148,-1.15234c0,-0.512 0.10007,-0.93795 0.30273,-1.2793c0.20267,-0.352 0.47508,-0.63928 0.81641,-0.86328c0.34133,-0.2239 0.73063,-0.39625 1.16796,-0.51367c0.448,-0.11716 0.91754,-0.20244 1.40821,-0.25586c0.56534,-0.064 1.00813,-0.13245 1.32813,-0.20703c0.32,-0.08542 0.55875,-0.18053 0.71875,-0.28711c0.16,-0.10683 0.25706,-0.23056 0.28906,-0.36914c0.04266,-0.13873 0.06445,-0.29426 0.06445,-0.46484c0,-0.20259 -0.05844,-0.37793 -0.17578,-0.52735c-0.11732,-0.14941 -0.26788,-0.27119 -0.44922,-0.36719c-0.18133,-0.096 -0.38342,-0.1664 -0.60742,-0.20898c-0.22399,-0.05342 -0.44291,-0.08008 -0.65625,-0.08008c-0.38401,0 -0.69308,0.03171 -0.92774,0.09571c-0.23466,0.064 -0.42683,0.14927 -0.57617,0.25585c-0.14934,0.10659 -0.27119,0.23535 -0.36719,0.38477c-0.08506,0.14885 -0.16579,0.30346 -0.24024,0.46289v0.00195c-0.06396,0.12725 -0.15655,0.22336 -0.27343,0.28711c-0.10666,0.05342 -0.2186,0.08008 -0.33594,0.08008c-0.21332,0 -0.41045,-0.0704 -0.59179,-0.20898c-0.18134,-0.13859 -0.27149,-0.33076 -0.27149,-0.57617c0,-0.096 0.02674,-0.21298 0.08008,-0.35157c0.096,-0.22392 0.22477,-0.44283 0.38477,-0.65625c0.16,-0.22407 0.37201,-0.42121 0.63867,-0.59179c0.27733,-0.17066 0.61315,-0.30439 1.00781,-0.40039c0.40534,-0.10659 0.89666,-0.15821 1.47266,-0.15821c1.088,0 1.9518,0.21696 2.59179,0.6543zM71.71679,155.21582c0.16,0.16008 0.24024,0.35721 0.24024,0.5918v0.30468c0.04266,-0.04258 0.12289,-0.12785 0.24023,-0.25585c0.11734,-0.128 0.26098,-0.25677 0.43164,-0.38477c0.18132,-0.13858 0.37846,-0.25556 0.5918,-0.35156c0.22399,-0.10659 0.45779,-0.16016 0.70313,-0.16016c0.23467,0 0.43179,0.08528 0.59179,0.25586c0.17066,0.16008 0.25586,0.35721 0.25586,0.5918c0,0.2241 -0.0852,0.42121 -0.25586,0.59179c-0.16001,0.16 -0.35713,0.24024 -0.59179,0.24024c-0.40533,0 -0.73619,0.09706 -0.99219,0.28906c-0.256,0.18132 -0.45808,0.3983 -0.60742,0.6543c-0.13866,0.256 -0.23377,0.52344 -0.28711,0.80078c-0.05334,0.27724 -0.08008,0.50608 -0.08008,0.6875v4.30469c0,0.23476 -0.08024,0.43684 -0.24024,0.60742c-0.16001,0.16 -0.35713,0.24023 -0.59179,0.24023c-0.23468,0 -0.43872,-0.08023 -0.60937,-0.24023c-0.16,-0.17076 -0.23828,-0.37284 -0.23828,-0.60742v-7.56836c0,-0.23466 0.07828,-0.4318 0.23828,-0.5918c0.17067,-0.17058 0.37472,-0.25586 0.60938,-0.25586c0.23467,0 0.43179,0.08528 0.59179,0.25586zM88.56054,155.21582c0.16,0.16008 0.24024,0.35721 0.24024,0.5918v5.56836c0,0.24526 0.0535,0.4592 0.16016,0.64062c0.11734,0.18132 0.26098,0.33489 0.43164,0.46289c0.18132,0.11742 0.37846,0.20944 0.59179,0.27344c0.224,0.064 0.44291,0.0957 0.65625,0.0957c0.352,0 0.67098,-0.05836 0.95898,-0.17578c0.288,-0.1279 0.52871,-0.2983 0.72071,-0.51172c0.20267,-0.21334 0.35623,-0.4659 0.46289,-0.7539c0.10666,-0.29866 0.16015,-0.61765 0.16015,-0.95899v-4.64062c0,-0.23466 0.08024,-0.4318 0.24024,-0.5918c0.16001,-0.17058 0.35713,-0.25586 0.59179,-0.25586c0.23467,0 0.4318,0.08528 0.5918,0.25586c0.17066,0.16008 0.25781,0.35721 0.25781,0.5918v7.56836c0,0.23476 -0.08715,0.43684 -0.25781,0.60742c-0.16001,0.16 -0.35714,0.24023 -0.5918,0.24023c-0.23467,0 -0.43179,-0.08023 -0.59179,-0.24023c-0.16,-0.17076 -0.24024,-0.37284 -0.24024,-0.60742v-0.28711c-0.10666,0.096 -0.23844,0.21298 -0.39844,0.35156c-0.14934,0.128 -0.33655,0.24977 -0.56054,0.36719c-0.224,0.11716 -0.48649,0.21927 -0.78516,0.30468c-0.288,0.07459 -0.62382,0.11133 -1.00781,0.11133c-0.39467,0 -0.77706,-0.05357 -1.15039,-0.16015c-0.36267,-0.11732 -0.68856,-0.28772 -0.97656,-0.51172c-0.288,-0.224 -0.51684,-0.50135 -0.6875,-0.83203c-0.17066,-0.33066 -0.25586,-0.71501 -0.25586,-1.15235v-5.75976c0,-0.23466 0.07828,-0.4318 0.23828,-0.5918c0.17067,-0.17058 0.37472,-0.25586 0.60938,-0.25586c0.23467,0 0.43179,0.08528 0.59179,0.25586zM106.56054,155.21582c0.16,0.16008 0.24023,0.35721 0.24023,0.5918v7.56836c0,0.23476 -0.08023,0.43684 -0.24023,0.60742c-0.16001,0.16 -0.35714,0.24023 -0.5918,0.24023c-0.23467,0 -0.43872,-0.08023 -0.60937,-0.24023c-0.16,-0.17076 -0.23828,-0.37284 -0.23828,-0.60742v-7.56836c0,-0.23466 0.07828,-0.4318 0.23828,-0.5918c0.17068,-0.17058 0.37471,-0.25586 0.60938,-0.25586c0.23467,0 0.4318,0.08528 0.5918,0.25586zM109.49804,155.21582c0.16,0.16008 0.24023,0.35721 0.24023,0.5918v5.56836c0,0.24526 0.0535,0.4592 0.16016,0.64062c0.11734,0.18132 0.26098,0.33489 0.43164,0.46289c0.18133,0.11742 0.37845,0.20944 0.59179,0.27344c0.224,0.064 0.44291,0.0957 0.65625,0.0957c0.352,0 0.67099,-0.05836 0.95899,-0.17578c0.288,-0.1279 0.52871,-0.2983 0.72071,-0.51172c0.20267,-0.21334 0.35623,-0.4659 0.46289,-0.7539c0.10666,-0.29866 0.16016,-0.61765 0.16016,-0.95899v-4.64062c0,-0.23466 0.08023,-0.4318 0.24023,-0.5918c0.16001,-0.17058 0.35713,-0.25586 0.59179,-0.25586c0.23467,0 0.4318,0.08528 0.5918,0.25586c0.17066,0.16008 0.25781,0.35721 0.25781,0.5918v7.56836c0,0.23476 -0.08715,0.43684 -0.25781,0.60742c-0.16001,0.16 -0.35714,0.24023 -0.5918,0.24023c-0.23467,0 -0.43179,-0.08023 -0.59179,-0.24023c-0.16,-0.17076 -0.24023,-0.37284 -0.24023,-0.60742v-0.28711c-0.10667,0.096 -0.23844,0.21298 -0.39844,0.35156c-0.14934,0.128 -0.33655,0.24977 -0.56055,0.36719c-0.224,0.11716 -0.48649,0.21927 -0.78515,0.30468c-0.288,0.07459 -0.62381,0.11133 -1.00781,0.11133c-0.39467,0 -0.77706,-0.05357 -1.15039,-0.16015c-0.36267,-0.11732 -0.68856,-0.28772 -0.97656,-0.51172c-0.288,-0.224 -0.51684,-0.50135 -0.6875,-0.83203c-0.17066,-0.33066 -0.25586,-0.71501 -0.25586,-1.15235v-5.75976c0,-0.23466 0.07828,-0.4318 0.23828,-0.5918c0.17068,-0.17058 0.37471,-0.25586 0.60938,-0.25586c0.23467,0 0.4318,0.08528 0.5918,0.25586zM118.24804,155.21582c0.16,0.16008 0.24023,0.35721 0.24023,0.5918v0.35156c0.064,-0.07484 0.15414,-0.18173 0.27148,-0.32031c0.12801,-0.13866 0.29344,-0.27044 0.4961,-0.39844c0.20266,-0.128 0.44336,-0.23994 0.7207,-0.33594c0.288,-0.096 0.62381,-0.14453 1.00781,-0.14453c0.53334,0 0.991,0.14364 1.375,0.43164c0.38399,0.27732 0.68314,0.62502 0.89649,1.04102c0.288,-0.52266 0.65055,-0.8971 1.08789,-1.1211c0.448,-0.23458 0.97102,-0.35156 1.56836,-0.35156c0.384,0 0.73468,0.05836 1.05468,0.17578c0.33068,0.10669 0.61495,0.2721 0.84961,0.4961c0.24534,0.224 0.43752,0.50137 0.57617,0.83203c0.13866,0.33066 0.20704,0.715 0.20704,1.15234v5.75977c0,0.23476 -0.08024,0.43684 -0.24024,0.60742c-0.16001,0.16 -0.35714,0.24023 -0.5918,0.24023c-0.23467,0 -0.43676,-0.08023 -0.60742,-0.24023c-0.16,-0.17076 -0.24023,-0.37284 -0.24023,-0.60742v-5.67969c0,-0.37334 -0.1238,-0.69233 -0.36914,-0.95899c-0.24534,-0.26668 -0.56928,-0.40039 -0.97461,-0.40039c-0.352,0 -0.65611,0.06845 -0.91211,0.20704c-0.25601,0.12799 -0.46997,0.30334 -0.64063,0.52734c-0.16,0.224 -0.28184,0.48153 -0.36718,0.76953c-0.07466,0.288 -0.11328,0.58521 -0.11329,0.89453v4.64063c0,0.23476 -0.08023,0.43684 -0.24023,0.60742c-0.16001,0.16 -0.35714,0.24023 -0.5918,0.24023c-0.23467,0 -0.43676,-0.08023 -0.60742,-0.24023c-0.16,-0.17076 -0.24023,-0.37284 -0.24023,-0.60742v-5.67969c0,-0.37334 -0.11691,-0.69428 -0.35156,-0.96094c-0.23467,-0.26668 -0.56552,-0.39844 -0.99219,-0.39844c-0.352,0 -0.65611,0.06845 -0.91211,0.20704c-0.25601,0.12799 -0.46997,0.30334 -0.64063,0.52734c-0.16,0.224 -0.28185,0.48153 -0.36719,0.76953c-0.07466,0.288 -0.11133,0.58521 -0.11133,0.89453v4.64063c0,0.23476 -0.08023,0.43684 -0.24023,0.60742c-0.16001,0.16 -0.35714,0.24023 -0.5918,0.24023c-0.23467,0 -0.43872,-0.08023 -0.60937,-0.24023c-0.16,-0.17076 -0.23828,-0.37284 -0.23828,-0.60742v-7.56836c0,-0.23466 0.07828,-0.4318 0.23828,-0.5918c0.17068,-0.17058 0.37471,-0.25586 0.60938,-0.25586c0.23467,0 0.4318,0.08528 0.5918,0.25586zM98.58984,156.6084c-0.30933,0.18134 -0.57483,0.42701 -0.79883,0.73633c-0.21332,0.29868 -0.37876,0.6444 -0.4961,1.03906c-0.10666,0.384 -0.16015,0.79014 -0.16015,1.2168c0,0.416 0.05349,0.82016 0.16015,1.21484c0.11732,0.39466 0.28276,0.74236 0.4961,1.04102c0.224,0.29858 0.4895,0.53733 0.79883,0.71874c0.30933,0.18142 0.66694,0.27344 1.07227,0.27344c0.40533,0 0.76293,-0.09202 1.07226,-0.27344c0.31999,-0.18131 0.58549,-0.42006 0.79883,-0.71874c0.21334,-0.29866 0.37381,-0.64636 0.48047,-1.04102c0.11734,-0.39468 0.17578,-0.79884 0.17578,-1.21484c0,-0.42666 -0.05844,-0.8328 -0.17578,-1.2168c-0.10666,-0.39466 -0.26713,-0.74038 -0.48047,-1.03906c-0.21333,-0.30924 -0.47883,-0.55491 -0.79883,-0.73633c-0.30933,-0.18142 -0.66693,-0.27344 -1.07226,-0.27344c-0.40533,0 -0.76293,0.09202 -1.07227,0.27344zM80.625,159.74316c-0.20267,0.064 -0.44338,0.11254 -0.72071,0.14453c-0.26667,0.03201 -0.54899,0.06875 -0.84766,0.11133c-0.288,0.04259 -0.57032,0.09616 -0.84766,0.16016c-0.27733,0.064 -0.52795,0.16106 -0.75195,0.28906c-0.22401,0.11734 -0.40626,0.27089 -0.54492,0.46289c-0.128,0.192 -0.1914,0.43767 -0.1914,0.73633c0,0.23466 0.04853,0.4318 0.14453,0.5918c0.10667,0.14941 0.24039,0.27314 0.40039,0.36914c0.16001,0.08542 0.34031,0.14882 0.54297,0.1914c0.20267,0.032 0.40476,0.04883 0.60742,0.04883c0.30933,0 0.6184,-0.03365 0.92774,-0.09765c0.30933,-0.07459 0.58669,-0.19157 0.83203,-0.35157c0.25599,-0.16 0.46004,-0.37198 0.60938,-0.63867c0.16,-0.26666 0.24023,-0.59753 0.24023,-0.99219v-1.13671zM64.9375,168.9248c0.15993,0.07509 0.2996,0.17877 0.42188,0.31055c0.13171,0.12238 0.24578,0.27253 0.33984,0.45117c0.09409,0.16925 0.17244,0.34889 0.23828,0.53711l2.92188,8.4375c0.04704,0.14118 0.07031,0.27233 0.07031,0.39453c0,0.11289 -0.02327,0.23541 -0.07031,0.36719c-0.03762,0.13153 -0.09893,0.24996 -0.18359,0.35352c-0.08466,0.1033 -0.19251,0.19224 -0.32422,0.26758c-0.1317,0.06576 -0.29233,0.09765 -0.48047,0.09765c-0.22577,0 -0.43722,-0.06548 -0.63476,-0.19726c-0.18813,-0.13171 -0.31927,-0.3094 -0.39454,-0.53516l-0.80469,-2.69531h-3.27344l-0.80469,2.69531c-0.07527,0.22569 -0.21066,0.40338 -0.4082,0.53516c-0.18815,0.13178 -0.39533,0.19921 -0.62109,0.19921c-0.32925,0 -0.59348,-0.10973 -0.79102,-0.32617c-0.18814,-0.22576 -0.28125,-0.47949 -0.28125,-0.76172c0,-0.12228 0.02327,-0.25343 0.07031,-0.39453l2.9336,-8.4375c0.06587,-0.18814 0.14617,-0.36778 0.24023,-0.53711c0.09409,-0.17882 0.20194,-0.32896 0.32422,-0.45117c0.12229,-0.13153 0.2639,-0.23521 0.42383,-0.31055c0.15991,-0.07533 0.34382,-0.11328 0.55078,-0.11328c0.19754,0 0.37719,0.03795 0.53711,0.11328zM93.73828,169.30566c0.20696,0.19755 0.31055,0.43655 0.31055,0.71875v2.79493c0,0.05644 0.01902,0.08398 0.05664,0.08398c0.05644,0 0.14527,-0.04664 0.26757,-0.14063c0.12231,-0.10355 0.27246,-0.21133 0.45118,-0.32421c0.18814,-0.11289 0.4058,-0.21657 0.65039,-0.31055c0.24459,-0.10356 0.51734,-0.15625 0.81836,-0.15625c0.40451,0 0.7661,0.06549 1.08594,0.19727c0.32925,0.1317 0.60199,0.31134 0.81836,0.5371c0.21637,0.22577 0.38126,0.49424 0.49414,0.80469c0.1223,0.30103 0.18359,0.62461 0.18359,0.97266v4.64258c0,0.2729 -0.10358,0.51383 -0.31054,0.7207c-0.19755,0.19754 -0.43228,0.29492 -0.70508,0.29492c-0.2822,0 -0.52741,-0.09738 -0.73437,-0.29492c-0.19754,-0.20697 -0.29687,-0.4479 -0.29687,-0.7207v-3.95118c0,-0.38568 -0.1354,-0.70924 -0.40821,-0.97265c-0.2634,-0.27281 -0.59318,-0.41016 -0.98828,-0.41016c-0.38569,0 -0.71547,0.13735 -0.98828,0.41016c-0.2634,0.26341 -0.39453,0.59121 -0.39453,0.98633v3.9375c0,0.2729 -0.10359,0.51383 -0.31055,0.7207c-0.19755,0.19754 -0.43653,0.29492 -0.71875,0.29492c-0.2728,0 -0.51373,-0.09738 -0.7207,-0.29492c-0.19754,-0.20697 -0.29687,-0.4479 -0.29687,-0.7207v-9.10157c0,-0.2822 0.09933,-0.5212 0.29688,-0.71875c0.20695,-0.19754 0.44789,-0.29687 0.7207,-0.29687c0.28222,0 0.52121,0.09933 0.71875,0.29687zM89.09961,169.67285c0.20696,0.19754 0.31055,0.43655 0.31055,0.71875v1.58008v0.18359h1.00195c0.17874,0 0.32889,0.06549 0.45117,0.19727c0.13171,0.12238 0.19726,0.27448 0.19726,0.45312c0,0.18825 -0.06556,0.34264 -0.19726,0.46485c-0.12228,0.1222 -0.27243,0.18359 -0.45117,0.18359h-1.00195v5.67188c0,0.2729 -0.10358,0.51383 -0.31055,0.7207c-0.19755,0.19754 -0.43227,0.29492 -0.70508,0.29492c-0.28221,0 -0.52741,-0.09738 -0.73437,-0.29492c-0.19754,-0.20697 -0.29687,-0.4479 -0.29687,-0.7207v-5.67188h-0.5918c-0.17873,0 -0.33509,-0.06139 -0.46679,-0.18359c-0.12231,-0.12223 -0.18359,-0.27663 -0.18359,-0.46485c0,-0.17882 0.06129,-0.33092 0.18359,-0.45312c0.13172,-0.13178 0.28807,-0.19727 0.46679,-0.19727h0.5918v-0.18359v-1.58008c0,-0.2822 0.09933,-0.52121 0.29688,-0.71875c0.20695,-0.19754 0.45216,-0.29687 0.73438,-0.29687c0.27282,0 0.50753,0.09933 0.70508,0.29687zM63.24414,175.06348h2.29883l-1.14258,-3.89649zM75.10937,172.15527c0.31983,0.12223 0.59879,0.29137 0.83398,0.50782c0.24459,0.21636 0.43275,0.48059 0.56446,0.79101c0.1411,0.30103 0.21094,0.63934 0.21094,1.01563v4.65625c0,0.2729 -0.09933,0.51383 -0.29687,0.7207c-0.19755,0.19754 -0.43653,0.29687 -0.71875,0.29687c-0.28221,0 -0.52741,-0.09933 -0.73437,-0.29687c-0.19754,-0.20697 -0.29687,-0.4479 -0.29687,-0.7207v-3.97852c0,-0.20707 -0.04229,-0.39948 -0.12696,-0.57812c-0.07527,-0.17865 -0.17884,-0.33502 -0.31054,-0.4668c-0.13169,-0.13153 -0.2861,-0.23326 -0.46484,-0.30859c-0.17872,-0.08467 -0.37116,-0.12696 -0.57812,-0.12696c-0.19754,0 -0.38998,0.04229 -0.57812,0.12696c-0.17873,0.07508 -0.33509,0.17681 -0.4668,0.30859c-0.13171,0.13178 -0.23956,0.28815 -0.32422,0.4668c-0.07527,0.17884 -0.11328,0.37125 -0.11328,0.57812v3.97852c0,0.2729 -0.09933,0.51383 -0.29687,0.7207c-0.19755,0.19754 -0.43653,0.29687 -0.71875,0.29687c-0.28221,0 -0.52741,-0.09933 -0.73437,-0.29687c-0.19754,-0.20697 -0.29492,-0.4479 -0.29492,-0.7207v-6.13672c0,-0.27281 0.09737,-0.50949 0.29492,-0.70703c0.20695,-0.20687 0.45216,-0.3086 0.73438,-0.3086c0.28222,0 0.52121,0.10173 0.71875,0.3086c0.19754,0.19754 0.29688,0.43422 0.29688,0.70703c0.08466,-0.09424 0.19875,-0.20397 0.33985,-0.32617c0.14112,-0.12246 0.31026,-0.23024 0.50781,-0.32422c0.19755,-0.10356 0.42178,-0.18815 0.67578,-0.25391c0.25399,-0.07534 0.54149,-0.11328 0.86133,-0.11328c0.35747,0 0.69578,0.06139 1.01563,0.18359zM83.24023,172.28223c0.49857,0.19754 0.92999,0.48079 1.29688,0.84765c0.36687,0.36689 0.65437,0.80878 0.86133,1.32617c0.21636,0.50797 0.32422,1.07249 0.32422,1.69336c0,0.62088 -0.10785,1.18964 -0.32422,1.70704c-0.20695,0.50799 -0.49445,0.94563 -0.86133,1.3125c-0.36688,0.36696 -0.7983,0.65446 -1.29687,0.86132c-0.49858,0.19755 -1.03554,0.29492 -1.60937,0.29492c-0.56442,0 -1.09518,-0.09737 -1.59375,-0.29492c-0.49858,-0.20696 -0.93195,-0.49446 -1.29883,-0.86132c-0.36687,-0.36687 -0.65864,-0.80451 -0.875,-1.3125c-0.20696,-0.5174 -0.31055,-1.08616 -0.31055,-1.70704c0,-0.62087 0.10358,-1.18539 0.31055,-1.69336c0.21636,-0.51739 0.50812,-0.95928 0.875,-1.32617c0.36688,-0.36686 0.80025,-0.65011 1.29883,-0.84765c0.49857,-0.20687 1.02933,-0.31055 1.59375,-0.31055c0.57384,0 1.11079,0.10368 1.60938,0.31055zM105.17187,172.33887c0.46095,0.23518 0.83729,0.5312 1.12891,0.88867c0.30104,0.35747 0.52296,0.74429 0.66406,1.1582c0.1411,0.41391 0.21094,0.79451 0.21094,1.14258c0,0.32917 -0.06131,0.60192 -0.18359,0.81836c-0.12228,0.21644 -0.30192,0.32422 -0.53711,0.32422h-4.51367c-0.10348,0 -0.18379,0.03794 -0.24023,0.11328c-0.04704,0.06576 -0.07031,0.1547 -0.07031,0.26758c0,0.14102 0.0423,0.30592 0.12696,0.49414c0.08467,0.17874 0.21153,0.35216 0.38085,0.52148c0.16933,0.16933 0.37651,0.31095 0.62109,0.42383c0.25399,0.11288 0.54575,0.16992 0.875,0.16992c0.19754,0 0.37096,-0.01909 0.52148,-0.05664c0.15051,-0.04712 0.29212,-0.1126 0.42383,-0.19726c0.13169,-0.08467 0.25856,-0.1944 0.38086,-0.32618c0.13169,-0.14102 0.27758,-0.30396 0.4375,-0.49218c0.1411,-0.16933 0.29977,-0.25391 0.47851,-0.25391c0.11288,0 0.22696,0.02754 0.33984,0.08399c0.11288,0.05644 0.21026,0.13062 0.29492,0.2246c0.08466,0.09424 0.15645,0.20397 0.21289,0.32618c0.05644,0.11288 0.08398,0.22935 0.08398,0.35156c0,0.1223 -0.06556,0.29767 -0.19727,0.52344c-0.1223,0.21636 -0.31473,0.43634 -0.57812,0.66211c-0.2634,0.21636 -0.59318,0.4088 -0.98828,0.57812c-0.3951,0.16 -0.86455,0.24023 -1.41016,0.24023c-0.62087,0 -1.17685,-0.11212 -1.66602,-0.33789c-0.48917,-0.22576 -0.90353,-0.528 -1.24218,-0.90429c-0.32924,-0.38569 -0.58298,-0.82758 -0.76172,-1.32617c-0.16933,-0.50797 -0.2539,-1.04299 -0.2539,-1.60743c0,-0.56443 0.07606,-1.09713 0.22656,-1.5957c0.15992,-0.50799 0.39891,-0.94991 0.71875,-1.32617c0.31984,-0.38571 0.71946,-0.69025 1.19922,-0.91602c0.47976,-0.22576 1.04427,-0.33984 1.69336,-0.33984c0.63027,0 1.1715,0.12253 1.62304,0.36719zM112.54297,172.26855c0.1411,0.19755 0.21094,0.428 0.21094,0.69141c0,0.21637 -0.05081,0.38126 -0.15429,0.49414c-0.09409,0.10356 -0.21669,0.18379 -0.36719,0.24024c-0.14111,0.05644 -0.29552,0.10308 -0.46484,0.14062c-0.16934,0.02822 -0.32997,0.07051 -0.48047,0.12695c-0.27281,0.10349 -0.49474,0.24084 -0.66406,0.41016c-0.15992,0.15982 -0.28253,0.33326 -0.36719,0.52148c-0.08466,0.17868 -0.13975,0.36257 -0.16797,0.55079c-0.02822,0.18806 -0.04297,0.36148 -0.04297,0.52148v3.16016c0,0.28223 -0.10358,0.52316 -0.31055,0.7207c-0.19755,0.19754 -0.43653,0.29687 -0.71875,0.29687c-0.27279,0 -0.51374,-0.09933 -0.7207,-0.29687c-0.19754,-0.20697 -0.29492,-0.4479 -0.29492,-0.7207v-6.13672c0,-0.27281 0.09738,-0.50949 0.29492,-0.70703c0.20695,-0.20687 0.45216,-0.3086 0.73438,-0.3086c0.28222,0 0.52121,0.10173 0.71875,0.3086c0.19754,0.19754 0.29688,0.43422 0.29688,0.70703c0.08468,-0.09424 0.18827,-0.20397 0.31055,-0.32617c0.13171,-0.12246 0.27332,-0.23024 0.42383,-0.32422c0.15992,-0.10356 0.32482,-0.18815 0.49415,-0.25391c0.16933,-0.07534 0.33848,-0.11328 0.50781,-0.11328c0.37628,0 0.63002,0.09933 0.76172,0.29687zM80.69922,173.68066c-0.27282,0.14111 -0.50754,0.33782 -0.70508,0.5918c-0.18813,0.24459 -0.33401,0.53208 -0.4375,0.86133c-0.10349,0.31985 -0.15625,0.65816 -0.15625,1.01562c0,0.35747 0.05276,0.70005 0.15625,1.0293c0.10348,0.32917 0.24936,0.61667 0.4375,0.86133c0.19755,0.24469 0.43228,0.44137 0.70508,0.5918c0.27281,0.1411 0.58357,0.21289 0.93164,0.21289c0.34806,0 0.65883,-0.07179 0.93164,-0.21289c0.28221,-0.15045 0.51694,-0.34714 0.70508,-0.5918c0.18814,-0.24459 0.33401,-0.53208 0.4375,-0.86133c0.10349,-0.32925 0.15429,-0.67183 0.15429,-1.0293c0,-0.35746 -0.05081,-0.69577 -0.15429,-1.01562c-0.10348,-0.32917 -0.24936,-0.61667 -0.4375,-0.86133c-0.18814,-0.25398 -0.42287,-0.45069 -0.70508,-0.5918c-0.27281,-0.15042 -0.58358,-0.22656 -0.93164,-0.22656c-0.34806,0 -0.65883,0.07614 -0.93164,0.22656zM102.73047,173.79199c-0.22578,0.09424 -0.41395,0.21676 -0.56446,0.36719c-0.1411,0.14105 -0.24895,0.29117 -0.32422,0.45117c-0.07527,0.16 -0.11328,0.30162 -0.11328,0.42383c0,0.18822 0.07179,0.2832 0.21289,0.2832h3.2168c0.1223,0 0.18359,-0.09088 0.18359,-0.26953c0,-0.1222 -0.03802,-0.26187 -0.11328,-0.42187c-0.06586,-0.15993 -0.17372,-0.31203 -0.32422,-0.45313c-0.14112,-0.15045 -0.32502,-0.2773 -0.55078,-0.38086c-0.22577,-0.10356 -0.49425,-0.1543 -0.80469,-0.1543c-0.31043,0 -0.58317,0.05074 -0.81836,0.1543z" data-paper-data="{&quot;origPos&quot;:null}" id="path993" fill="#1eff00" stroke="none" stroke-width="1" stroke-miterlimit="10" stroke-dashoffset="0"/><path d="M69.10313,187.56469c1.27594,0 2.33407,4.3081 3.36633,5.05811c1.03225,0.74997 5.45651,0.425 5.8508,1.6385c0.39429,1.2135 -3.37601,3.55113 -3.7703,4.76462c-0.39429,1.2135 1.28193,5.32078 0.24968,6.07075c-1.03225,0.75001 -4.42056,-2.1134 -5.6965,-2.1134c-1.27594,0 -4.66424,2.86341 -5.69649,2.1134c-1.03225,-0.74997 0.64395,-4.85726 0.24967,-6.07075c-0.39429,-1.2135 -4.16458,-3.55113 -3.77029,-4.76462c0.39428,-1.2135 4.81854,-0.88853 5.8508,-1.6385c1.03225,-0.75001 2.09039,-5.05811 3.36633,-5.05811z" data-paper-data="{&quot;origPos&quot;:null}" id="path1428-5-3" fill="#1eff00" stroke="none" stroke-width="0.88188" stroke-miterlimit="4" stroke-dashoffset="17.35"/><path d="M92.04011,187.56469c1.27594,0 2.33407,4.3081 3.36633,5.05811c1.03225,0.74997 5.45651,0.425 5.8508,1.6385c0.39429,1.2135 -3.376,3.55113 -3.7703,4.76462c-0.39428,1.2135 1.28192,5.32078 0.24967,6.07075c-1.03225,0.75001 -4.42056,-2.1134 -5.69649,-2.1134c-1.27594,0 -4.66424,2.86341 -5.69649,2.1134c-1.03225,-0.74997 0.64395,-4.85726 0.24967,-6.07075c-0.39429,-1.2135 -4.16458,-3.55113 -3.77029,-4.76462c0.39429,-1.2135 4.81855,-0.88853 5.8508,-1.6385c1.03225,-0.75001 2.09039,-5.05811 3.36633,-5.05811z" data-paper-data="{&quot;origPos&quot;:null}" id="path1428-0-2-7" fill="#1eff00" stroke="none" stroke-width="0.88188" stroke-miterlimit="4" stroke-dashoffset="17.35"/><path d="M114.97708,187.56469c1.27594,0 2.33407,4.3081 3.36633,5.05811c1.03226,0.74997 5.4565,0.425 5.85079,1.6385c0.39429,1.2135 -3.376,3.55113 -3.7703,4.76462c-0.39429,1.2135 1.28192,5.32078 0.24968,6.07075c-1.03226,0.75001 -4.42055,-2.1134 -5.69649,-2.1134c-1.27594,0 -4.66424,2.86341 -5.6965,2.1134c-1.03226,-0.74997 0.64395,-4.85726 0.24968,-6.07075c-0.39429,-1.2135 -4.16458,-3.55113 -3.7703,-4.76462c0.39429,-1.2135 4.81854,-0.88853 5.8508,-1.6385c1.03226,-0.75001 2.09039,-5.05811 3.36633,-5.05811z" data-paper-data="{&quot;origPos&quot;:null}" id="path1428-0-6-3-8" fill="#1eff00" stroke="none" stroke-width="0.88188" stroke-miterlimit="4" stroke-dashoffset="17.35"/><path d="M137.91407,191.71412c0.67625,0 1.23705,2.28329 1.78415,2.68078c0.5471,0.39749 2.89195,0.22526 3.10092,0.86843c0.20897,0.64316 -1.78928,1.88209 -1.99825,2.52525c-0.20897,0.64316 0.67942,2.82002 0.13232,3.21751c-0.5471,0.39749 -2.34289,-1.1201 -3.01914,-1.1201c-0.67625,0 -2.47204,1.51759 -3.01914,1.1201c-0.5471,-0.39749 0.34129,-2.57435 0.13232,-3.21751c-0.20897,-0.64316 -2.20723,-1.88209 -1.99826,-2.52525c0.20897,-0.64312 2.55383,-0.47093 3.10093,-0.86843c0.5471,-0.39749 1.1079,-2.68078 1.78415,-2.68078z" data-paper-data="{&quot;origPos&quot;:null}" id="path1428-0-0-2-5" fill="#1eff00" stroke="none" stroke-width="0.4674" stroke-miterlimit="4" stroke-dashoffset="17.35"/></g></g></svg>