<svg version="1.1" xmlns="http://www.w3.org/2000/svg" xmlns:xlink="http://www.w3.org/1999/xlink" width="372.21484" height="68.64258"><g transform="translate(-53.89258,-145.67871)"><g data-paper-data="{&quot;isPaintingLayer&quot;:true}" fill-rule="nonzero" stroke-linecap="butt" stroke-linejoin="miter" stroke-dasharray="" style="mix-blend-mode: normal"><path d="M425.00976,146.42871c0.19314,0 0.34766,0.15452 0.34766,0.34766v66.44531c0,0.19313 -0.15452,0.34961 -0.34766,0.34961h-370.01757c-0.19328,0 -0.34961,-0.15648 -0.34961,-0.34961v-66.44531c0,-0.19314 0.15636,-0.34766 0.34961,-0.34766z" data-paper-data="{&quot;origPos&quot;:null}" id="rect815-0-8" fill="#1e1e1e" stroke="#1eff00" stroke-width="1.5" stroke-miterlimit="4" stroke-dashoffset="17.35"/><path d="M68.04688,151.59863c0.23467,0 0.4318,0.08024 0.5918,0.24024c0.17066,0.1601 0.25781,0.35721 0.25781,0.5918c0,0.23473 -0.08715,0.43879 -0.25781,0.60937c-0.16001,0.16 -0.35714,0.24023 -0.5918,0.24023h-2.99219v10c0,0.256 -0.09511,0.47988 -0.28711,0.67188c-0.18133,0.18142 -0.40025,0.27148 -0.65625,0.27148c-0.26666,0 -0.49053,-0.09006 -0.67187,-0.27148c-0.18134,-0.192 -0.27148,-0.41588 -0.27148,-0.67188v-10h-2.99219c-0.23468,0 -0.43676,-0.08023 -0.60742,-0.24023c-0.16,-0.17073 -0.24023,-0.37479 -0.24023,-0.60937c0,-0.23469 0.08023,-0.4318 0.24023,-0.5918c0.17068,-0.16 0.37276,-0.24024 0.60742,-0.24024zM88.8418,151.87207c0.192,0.18134 0.28711,0.40522 0.28711,0.67188c0,0.256 -0.09511,0.47987 -0.28711,0.67187c-0.18133,0.18142 -0.40025,0.27149 -0.65625,0.27149c-0.26666,0 -0.4955,-0.09007 -0.6875,-0.27149c-0.18134,-0.192 -0.27344,-0.41587 -0.27344,-0.67187c0,-0.26659 0.0921,-0.49046 0.27344,-0.67188c0.192,-0.18142 0.42083,-0.27344 0.6875,-0.27344c0.25599,0 0.47491,0.09202 0.65625,0.27344zM92.21094,151.87207c0.18134,0.18134 0.27148,0.40522 0.27148,0.67188v7.67968c0,0.26659 -0.09014,0.49046 -0.27148,0.67188c-0.18133,0.18142 -0.40521,0.27148 -0.67187,0.27148c-0.256,0 -0.47987,-0.09006 -0.67187,-0.27148c-0.18134,-0.18134 -0.27148,-0.40522 -0.27148,-0.67188v-7.67968c0,-0.26659 0.09014,-0.49046 0.27148,-0.67188c0.192,-0.18142 0.41587,-0.27344 0.67187,-0.27344c0.26666,0 0.49053,0.09202 0.67187,0.27344zM79.28516,152.5752c0.17066,0.16007 0.25586,0.35721 0.25586,0.59179v2h0.88086c0.20268,0 0.37306,0.0752 0.51172,0.22461c0.14934,0.13876 0.22461,0.30914 0.22461,0.51172c0,0.21342 -0.07527,0.39072 -0.22461,0.5293c-0.13868,0.13858 -0.30906,0.20703 -0.51172,0.20703h-0.88086v6.73633c0,0.23473 -0.0852,0.43684 -0.25586,0.60742c-0.16001,0.16 -0.35714,0.24023 -0.5918,0.24023c-0.23467,0 -0.4318,-0.08023 -0.5918,-0.24023c-0.16,-0.17073 -0.24023,-0.37284 -0.24023,-0.60742v-6.73633h-0.5918c-0.20266,0 -0.378,-0.06845 -0.52734,-0.20703c-0.13866,-0.13858 -0.20898,-0.31588 -0.20898,-0.5293c0,-0.20276 0.07033,-0.37313 0.20898,-0.51172c0.14934,-0.14941 0.32469,-0.22461 0.52734,-0.22461h0.5918v-2c0,-0.23466 0.08023,-0.43179 0.24023,-0.59179c0.16001,-0.16 0.35714,-0.24024 0.5918,-0.24024c0.23467,0 0.4318,0.08024 0.5918,0.24024zM84.53516,152.5752c0.17066,0.16007 0.25586,0.35721 0.25586,0.59179v2h0.88086c0.20268,0 0.37306,0.0752 0.51172,0.22461c0.14934,0.13876 0.22461,0.30914 0.22461,0.51172c0,0.21342 -0.07527,0.39072 -0.22461,0.5293c-0.13868,0.13858 -0.30906,0.20703 -0.51172,0.20703h-0.88086v6.73633c0,0.23473 -0.0852,0.43684 -0.25586,0.60742c-0.16001,0.16 -0.35714,0.24023 -0.5918,0.24023c-0.23467,0 -0.4318,-0.08023 -0.5918,-0.24023c-0.16,-0.17073 -0.24023,-0.37284 -0.24023,-0.60742v-6.73633h-0.5918c-0.20266,0 -0.378,-0.06845 -0.52734,-0.20703c-0.13866,-0.13858 -0.20898,-0.31588 -0.20898,-0.5293c0,-0.20276 0.07033,-0.37313 0.20898,-0.51172c0.14934,-0.14941 0.32469,-0.22461 0.52734,-0.22461h0.5918v-2c0,-0.23466 0.08023,-0.43179 0.24023,-0.59179c0.16001,-0.16 0.35714,-0.24024 0.5918,-0.24024c0.23467,0 0.4318,0.08024 0.5918,0.24024zM69.53906,155.21582c0.16,0.16008 0.24023,0.35722 0.24023,0.5918v5.56836c0,0.24524 0.0535,0.45921 0.16016,0.64062c0.11734,0.18134 0.26098,0.33489 0.43164,0.46289c0.18133,0.11742 0.37846,0.20749 0.5918,0.27149c0.22399,0.064 0.44291,0.09765 0.65625,0.09765c0.352,0 0.67294,-0.06031 0.96094,-0.17773c0.288,-0.12793 0.5287,-0.2983 0.7207,-0.51172c0.20268,-0.21332 0.35623,-0.46395 0.46289,-0.75195c0.10666,-0.29869 0.16016,-0.61767 0.16016,-0.95899v-4.64062c0,-0.23466 0.08023,-0.4318 0.24023,-0.5918c0.16001,-0.17058 0.35714,-0.25586 0.5918,-0.25586c0.23467,0 0.4318,0.08528 0.5918,0.25586c0.17066,0.16008 0.25586,0.35722 0.25586,0.5918v7.56836c0,0.23473 -0.0852,0.43684 -0.25586,0.60742c-0.16001,0.16 -0.35714,0.24023 -0.5918,0.24023c-0.23467,0 -0.4318,-0.08023 -0.5918,-0.24023c-0.16,-0.17073 -0.24023,-0.37284 -0.24023,-0.60742v-0.28907c-0.10667,0.096 -0.24039,0.21494 -0.40039,0.35352c-0.14933,0.128 -0.33655,0.24977 -0.56055,0.36719c-0.224,0.11716 -0.48454,0.21927 -0.7832,0.30469c-0.288,0.07458 -0.62381,0.11132 -1.00781,0.11132c-0.39467,0 -0.77901,-0.05357 -1.15234,-0.16015c-0.36267,-0.11734 -0.68856,-0.28772 -0.97656,-0.51172c-0.28801,-0.224 -0.51684,-0.50137 -0.6875,-0.83203c-0.17066,-0.33066 -0.25586,-0.715 -0.25586,-1.15235v-5.75976c0,-0.23466 0.08023,-0.4318 0.24023,-0.5918c0.17068,-0.17058 0.37276,-0.25586 0.60742,-0.25586c0.23467,0 0.4318,0.08528 0.5918,0.25586zM88.77734,155.21582c0.16,0.16008 0.24023,0.35722 0.24023,0.5918v7.56836c0,0.23473 -0.08023,0.43684 -0.24023,0.60742c-0.16001,0.16 -0.35714,0.24023 -0.5918,0.24023c-0.23467,0 -0.43676,-0.08023 -0.60742,-0.24023c-0.16,-0.17073 -0.24023,-0.37284 -0.24023,-0.60742v-7.56836c0,-0.23466 0.08023,-0.4318 0.24023,-0.5918c0.17067,-0.17058 0.37276,-0.25586 0.60742,-0.25586c0.23467,0 0.4318,0.08528 0.5918,0.25586zM92.35547,162.25488c0.23466,0.224 0.35156,0.49641 0.35156,0.81641c0,0.30942 -0.1169,0.58182 -0.35156,0.81641c-0.224,0.224 -0.49641,0.33593 -0.81641,0.33593c-0.30934,0 -0.58175,-0.11193 -0.81641,-0.33593c-0.224,-0.23466 -0.33594,-0.50707 -0.33594,-0.81641c0,-0.32 0.11194,-0.59241 0.33594,-0.81641c0.23467,-0.23458 0.50707,-0.35156 0.81641,-0.35156c0.32,0 0.59241,0.11698 0.81641,0.35156zM67.43164,169.00879c0.25398,0 0.47164,0.08893 0.65039,0.26758c0.17875,0.17872 0.26758,0.39638 0.26758,0.65039c0,0.26348 -0.08883,0.48346 -0.26758,0.66211c-0.17873,0.17864 -0.3964,0.26758 -0.65039,0.26758h-4.9375v2.41406h4.14844c0.26339,0 0.48336,0.09303 0.66211,0.28125c0.17875,0.17875 0.26953,0.39641 0.26953,0.65039c0,0.25391 -0.09078,0.47389 -0.26953,0.66211c-0.17873,0.17864 -0.39871,0.26758 -0.66211,0.26758l-4.14844,0.00195v3.16016h4.9375c0.25398,0 0.47164,0.08893 0.65039,0.26757c0.17875,0.17873 0.26758,0.39639 0.26758,0.65039c0,0.26349 -0.08883,0.48347 -0.26758,0.66211c-0.17873,0.17865 -0.3964,0.26758 -0.65039,0.26758h-5.98242c-0.1317,0 -0.26283,-0.01909 -0.39453,-0.05664c-0.1317,-0.04712 -0.2543,-0.1126 -0.36719,-0.19726c-0.10348,-0.09399 -0.18807,-0.21046 -0.25391,-0.35157c-0.06584,-0.14112 -0.09961,-0.31027 -0.09961,-0.50781v-8.91797c0,-0.08466 0.01475,-0.18834 0.04297,-0.31054c0.02822,-0.13178 0.08526,-0.25431 0.16992,-0.36719c0.08466,-0.12221 0.19679,-0.22154 0.33789,-0.29688c0.15052,-0.08466 0.33869,-0.12695 0.56445,-0.12695zM87.61914,169.30567c0.20697,0.19756 0.31055,0.43654 0.31055,0.71874v2.79493c0,0.05644 0.01902,0.08398 0.05664,0.08398c0.05647,0 0.1453,-0.04664 0.26758,-0.14062c0.1223,-0.10356 0.27245,-0.21329 0.45117,-0.32618c0.18814,-0.11288 0.40385,-0.21461 0.64844,-0.30859c0.24459,-0.10356 0.51733,-0.15625 0.81836,-0.15625c0.40451,0 0.76805,0.06549 1.08789,0.19727c0.32925,0.13173 0.60199,0.31134 0.81836,0.53711c0.21636,0.22576 0.38126,0.49426 0.49414,0.80468c0.12231,0.30103 0.18164,0.62459 0.18164,0.97266v4.64258c0,0.27288 -0.10163,0.51188 -0.30859,0.71875c-0.19755,0.19754 -0.43422,0.29687 -0.70703,0.29687c-0.2822,0 -0.52545,-0.09933 -0.73242,-0.29687c-0.19754,-0.20694 -0.29687,-0.44595 -0.29687,-0.71875v-3.95117c0,-0.38569 -0.13735,-0.70925 -0.41016,-0.97266c-0.2634,-0.27281 -0.59123,-0.41016 -0.98633,-0.41016c-0.38569,0 -0.71547,0.13735 -0.98828,0.41016c-0.2634,0.26341 -0.39453,0.59124 -0.39453,0.98633v3.9375c0,0.27288 -0.10358,0.51188 -0.31055,0.71875c-0.19755,0.19754 -0.43849,0.29687 -0.7207,0.29687c-0.2728,0 -0.51178,-0.09933 -0.71875,-0.29687c-0.19754,-0.20694 -0.29687,-0.44595 -0.29687,-0.71875v-9.10157c0,-0.28222 0.09933,-0.5212 0.29687,-0.71874c0.20696,-0.19755 0.44594,-0.29688 0.71875,-0.29688c0.28222,0 0.52316,0.09933 0.7207,0.29688zM112.39063,169.30567c0.20697,0.19756 0.31055,0.43654 0.31055,0.71874c0,0.28223 -0.10358,0.52316 -0.31055,0.72071c-0.19755,0.19754 -0.43849,0.29492 -0.7207,0.29492c-0.2728,0 -0.51178,-0.09738 -0.71875,-0.29492c-0.19754,-0.19757 -0.29688,-0.4385 -0.29688,-0.72071c0,-0.28222 0.09933,-0.5212 0.29688,-0.71874c0.20696,-0.19755 0.44594,-0.29688 0.71875,-0.29688c0.28222,0 0.52316,0.09933 0.7207,0.29688zM70.94336,172.28223c0.19754,0.19754 0.29492,0.43227 0.29492,0.70508v3.98046c0,0.20705 0.03802,0.39948 0.11328,0.57813c0.08466,0.17875 0.19251,0.33937 0.32422,0.48047c0.13169,0.13153 0.28805,0.23325 0.4668,0.30859c0.18815,0.07534 0.38058,0.11328 0.57812,0.11328c0.20695,0 0.39938,-0.03794 0.57812,-0.11328c0.17873,-0.07508 0.33509,-0.17681 0.4668,-0.30859c0.1317,-0.14121 0.23528,-0.30182 0.31055,-0.48047c0.08466,-0.17882 0.12695,-0.37126 0.12695,-0.57813v-3.98046c0,-0.27281 0.09738,-0.50754 0.29492,-0.70508c0.20696,-0.20687 0.45216,-0.31055 0.73438,-0.31055c0.28222,0 0.52121,0.10368 0.71875,0.31055c0.19754,0.19754 0.29687,0.43227 0.29687,0.70508v6.13867c0,0.27288 -0.09933,0.51383 -0.29687,0.7207c-0.19755,0.19754 -0.43654,0.29492 -0.71875,0.29492c-0.28222,0 -0.52121,-0.09738 -0.71875,-0.29492c-0.19754,-0.20694 -0.29687,-0.4479 -0.29688,-0.7207c-0.08466,0.10356 -0.19874,0.21568 -0.33984,0.33789c-0.14111,0.11288 -0.31027,0.22261 -0.50781,0.32617c-0.19755,0.09398 -0.42179,0.17857 -0.67578,0.25391c-0.25399,0.06576 -0.54149,0.09765 -0.86133,0.09765c-0.35747,0 -0.69578,-0.05508 -1.01562,-0.16797c-0.31984,-0.1222 -0.60307,-0.29332 -0.84766,-0.50976c-0.23518,-0.22577 -0.42335,-0.48804 -0.56445,-0.78906c-0.1411,-0.31045 -0.21094,-0.65496 -0.21094,-1.03125v-4.65625c0,-0.27281 0.09933,-0.50754 0.29687,-0.70508c0.20696,-0.20687 0.45021,-0.31055 0.73242,-0.31055c0.28222,0 0.52316,0.10368 0.7207,0.31055zM79.18555,172.28223c0.20697,0.19754 0.31055,0.43227 0.31055,0.70508c0.08466,-0.11289 0.18399,-0.22936 0.29687,-0.35157c0.12231,-0.12245 0.27245,-0.23023 0.45117,-0.32422c0.18814,-0.10355 0.40812,-0.18379 0.66211,-0.24023c0.2634,-0.06576 0.57843,-0.09961 0.94531,-0.09961c0.46095,0 0.87957,0.09933 1.25586,0.29688c0.38569,0.19754 0.71547,0.47881 0.98828,0.8457c0.27281,0.35747 0.47999,0.79086 0.62109,1.29883c0.1505,0.49859 0.22656,1.04833 0.22656,1.65039c0,0.60205 -0.07606,1.15377 -0.22656,1.65234c-0.14111,0.49857 -0.34829,0.92998 -0.62109,1.29688c-0.27281,0.35746 -0.60259,0.63644 -0.98828,0.83398c-0.37628,0.19754 -0.79491,0.29492 -1.25586,0.29492c-0.34806,0 -0.65261,-0.05074 -0.91602,-0.15429c-0.26339,-0.10356 -0.48959,-0.21764 -0.67773,-0.33985c-0.17874,-0.13153 -0.32462,-0.248 -0.4375,-0.35156c-0.11288,-0.10356 -0.19746,-0.15625 -0.25391,-0.15625c-0.04704,0 -0.07031,0.06139 -0.07031,0.18359v2.76563c0,0.28223 -0.10358,0.52316 -0.31055,0.7207c-0.19755,0.20687 -0.43849,0.31055 -0.7207,0.31055c-0.2728,0 -0.51178,-0.10368 -0.71875,-0.31055c-0.19754,-0.19757 -0.29687,-0.4385 -0.29687,-0.7207v-9.10156c0,-0.27281 0.09933,-0.50754 0.29687,-0.70508c0.20696,-0.20687 0.44594,-0.31055 0.71875,-0.31055c0.28222,0 0.52316,0.10368 0.7207,0.31055zM99.27734,172.28223c0.49858,0.19754 0.93195,0.48076 1.29883,0.84765c0.36687,0.36687 0.65436,0.80878 0.86133,1.32618c0.21636,0.50799 0.32422,1.07248 0.32422,1.69335c0,0.62088 -0.10785,1.18964 -0.32422,1.70704c-0.20696,0.50796 -0.49445,0.9456 -0.86133,1.3125c-0.36688,0.36696 -0.80025,0.65251 -1.29883,0.85937c-0.49858,0.19754 -1.03359,0.29688 -1.60742,0.29688c-0.56443,0 -1.09713,-0.09934 -1.5957,-0.29688c-0.49858,-0.20697 -0.93,-0.49251 -1.29687,-0.85937c-0.36688,-0.3669 -0.65863,-0.80454 -0.875,-1.3125c-0.20697,-0.5174 -0.31055,-1.08616 -0.31055,-1.70704c0,-0.62087 0.10358,-1.18536 0.31055,-1.69335c0.21637,-0.5174 0.50812,-0.95931 0.875,-1.32618c0.36688,-0.36689 0.7983,-0.65011 1.29687,-0.84765c0.49858,-0.20687 1.03128,-0.31055 1.5957,-0.31055c0.57383,0 1.10884,0.10368 1.60742,0.31055zM104.3457,172.28223c0.19754,0.19754 0.29687,0.43422 0.29687,0.70703c0.08466,-0.09424 0.19679,-0.20397 0.33789,-0.32617c0.14111,-0.12246 0.31027,-0.23024 0.50781,-0.32422c0.19755,-0.10356 0.42374,-0.18814 0.67773,-0.25391c0.25399,-0.07534 0.54149,-0.11328 0.86133,-0.11328c0.35747,0 0.69578,0.06139 1.01562,0.18359c0.31983,0.12223 0.59684,0.29138 0.83203,0.50782c0.24458,0.21634 0.43275,0.48056 0.56445,0.79101c0.1411,0.30103 0.21094,0.63934 0.21094,1.01563v4.65625c0,0.27288 -0.09738,0.51383 -0.29492,0.7207c-0.19755,0.19754 -0.43849,0.29492 -0.7207,0.29492c-0.2822,0 -0.52545,-0.09738 -0.73242,-0.29492c-0.19754,-0.20694 -0.29687,-0.4479 -0.29687,-0.7207v-3.97852c0,-0.20704 -0.04229,-0.39948 -0.12695,-0.57812c-0.07526,-0.17865 -0.17884,-0.33502 -0.31055,-0.4668c-0.13171,-0.13153 -0.28807,-0.23521 -0.4668,-0.31055c-0.17873,-0.08466 -0.37116,-0.12695 -0.57813,-0.12695c-0.19755,0 -0.38998,0.04229 -0.57812,0.12695c-0.17873,0.07509 -0.33314,0.17877 -0.46484,0.31055c-0.1317,0.13178 -0.24151,0.28815 -0.32617,0.4668c-0.07526,0.17882 -0.11133,0.37126 -0.11133,0.57812v3.97852c0,0.27288 -0.09933,0.51383 -0.29687,0.7207c-0.19755,0.19754 -0.43849,0.29492 -0.7207,0.29492c-0.2822,0 -0.52545,-0.09738 -0.73242,-0.29492c-0.19754,-0.20694 -0.29687,-0.4479 -0.29687,-0.7207v-6.13672c0,-0.27281 0.09933,-0.50949 0.29687,-0.70703c0.20696,-0.20687 0.45021,-0.31055 0.73242,-0.31055c0.28222,0 0.52316,0.10368 0.7207,0.31055zM115.45117,172.28223c0.19754,0.19754 0.29687,0.43227 0.29687,0.70508v3.98046c0,0.20705 0.03802,0.39948 0.11328,0.57813c0.08466,0.17875 0.19251,0.33937 0.32422,0.48047c0.13171,0.13153 0.28808,0.23325 0.4668,0.30859c0.18815,0.07534 0.38058,0.11328 0.57812,0.11328c0.20695,0 0.39938,-0.03794 0.57813,-0.11328c0.17873,-0.07508 0.33314,-0.17681 0.46484,-0.30859c0.13171,-0.14121 0.23529,-0.30182 0.31055,-0.48047c0.08466,-0.17882 0.12695,-0.37126 0.12695,-0.57813v-3.98046c0,-0.27281 0.09933,-0.50754 0.29688,-0.70508c0.20695,-0.20687 0.45216,-0.31055 0.73437,-0.31055c0.28222,0 0.52121,0.10368 0.71875,0.31055c0.19755,0.19754 0.29688,0.43227 0.29688,0.70508v6.13867c0,0.27288 -0.09933,0.51383 -0.29688,0.7207c-0.19755,0.19754 -0.43653,0.29492 -0.71875,0.29492c-0.28222,0 -0.52316,-0.09738 -0.7207,-0.29492c-0.19754,-0.20694 -0.29492,-0.4479 -0.29492,-0.7207c-0.08466,0.10356 -0.19874,0.21568 -0.33985,0.33789c-0.14111,0.11288 -0.31026,0.22261 -0.50781,0.32617c-0.19755,0.09398 -0.42374,0.17857 -0.67773,0.25391c-0.25399,0.06576 -0.53953,0.09765 -0.85938,0.09765c-0.35747,0 -0.69774,-0.05508 -1.01758,-0.16797c-0.31984,-0.1222 -0.60112,-0.29332 -0.8457,-0.50976c-0.23518,-0.22577 -0.42335,-0.48804 -0.56445,-0.78906c-0.1411,-0.31045 -0.21094,-0.65496 -0.21094,-1.03125v-4.65625c0,-0.27281 0.09738,-0.50754 0.29492,-0.70508c0.20696,-0.20687 0.45216,-0.31055 0.73438,-0.31055c0.28222,0 0.52121,0.10368 0.71875,0.31055zM123.60937,172.28223c0.19754,0.19754 0.29688,0.43227 0.29688,0.70508c0.08466,-0.09399 0.19251,-0.19767 0.32421,-0.31055c0.1317,-0.12221 0.29233,-0.23433 0.48047,-0.33789c0.18814,-0.10356 0.40385,-0.18814 0.64844,-0.25391c0.25399,-0.07534 0.53722,-0.11328 0.84766,-0.11328c0.36688,0 0.67143,0.03794 0.91601,0.11328c0.25398,0.07534 0.47165,0.17467 0.65039,0.29688c0.17875,0.11295 0.32889,0.2441 0.45118,0.39453c0.12228,0.1412 0.2344,0.28707 0.33789,0.4375c0.08466,-0.13171 0.19251,-0.26906 0.32421,-0.41016c0.1317,-0.1506 0.30085,-0.286 0.50782,-0.4082c0.21636,-0.12221 0.47631,-0.22154 0.77734,-0.29688c0.30103,-0.08466 0.66688,-0.12695 1.09961,-0.12695c0.21636,0 0.46157,0.03794 0.73437,0.11328c0.28221,0.06577 0.54021,0.17789 0.7754,0.33789c0.24458,0.15993 0.44749,0.37139 0.60742,0.63477c0.16932,0.25398 0.2539,0.56902 0.2539,0.94531v5.12305c0,0.27288 -0.10358,0.51188 -0.31054,0.71875c-0.19755,0.19754 -0.43654,0.29687 -0.71875,0.29687c-0.28222,0 -0.52316,-0.09933 -0.72071,-0.29687c-0.19754,-0.20694 -0.29687,-0.44595 -0.29687,-0.71875v-4.05078c0,-0.39512 -0.1354,-0.7272 -0.4082,-1c-0.27281,-0.27281 -0.60686,-0.41016 -1.00196,-0.41016c-0.3951,0 -0.72914,0.13735 -1.00195,0.41016c-0.27281,0.2728 -0.41016,0.60488 -0.41016,1v4.05078c0,0.27288 -0.10162,0.51188 -0.30859,0.71875c-0.19755,0.19754 -0.43423,0.29687 -0.70703,0.29687c-0.2822,0 -0.52546,-0.09933 -0.73242,-0.29687c-0.19755,-0.20694 -0.29688,-0.44595 -0.29688,-0.71875v-4.05078c0,-0.39512 -0.13735,-0.7272 -0.41016,-1c-0.2728,-0.27281 -0.60685,-0.41016 -1.00195,-0.41016c-0.3951,0 -0.72914,0.13735 -1.00195,0.41016c-0.27281,0.2728 -0.4082,0.60488 -0.4082,1v4.05078c0,0.27288 -0.09934,0.51188 -0.29688,0.71875c-0.19755,0.19754 -0.43653,0.29687 -0.71875,0.29687c-0.2822,0 -0.52741,-0.09933 -0.73437,-0.29687c-0.19755,-0.20694 -0.29688,-0.44595 -0.29688,-0.71875v-6.13867c0,-0.27281 0.09933,-0.50754 0.29688,-0.70508c0.20695,-0.20687 0.45216,-0.31055 0.73437,-0.31055c0.28222,0 0.52121,0.10368 0.71875,0.31055zM112.39063,172.46582c0.20697,0.19754 0.31055,0.43655 0.31055,0.71875v5.94141c0,0.2822 -0.10358,0.52316 -0.31055,0.7207c-0.19755,0.19754 -0.43849,0.29492 -0.7207,0.29492c-0.28222,0 -0.52121,-0.09738 -0.71875,-0.29492c-0.19754,-0.20694 -0.29688,-0.4479 -0.29688,-0.7207v-5.94141c0,-0.2822 0.09933,-0.52121 0.29688,-0.71875c0.20696,-0.20686 0.44594,-0.31055 0.71875,-0.31055c0.28222,0 0.52316,0.10369 0.7207,0.31055zM96.73828,173.67871c-0.27281,0.14113 -0.50753,0.33977 -0.70508,0.59375c-0.18814,0.24459 -0.33402,0.53013 -0.4375,0.85938c-0.10348,0.31985 -0.15625,0.66011 -0.15625,1.01757c0,0.35747 0.05277,0.70005 0.15625,1.0293c0.10348,0.32917 0.24935,0.61667 0.4375,0.86133c0.19755,0.24469 0.43227,0.44137 0.70508,0.5918c0.27281,0.1411 0.58358,0.21289 0.93164,0.21289c0.34806,0 0.65688,-0.07179 0.92969,-0.21289c0.28221,-0.15045 0.51889,-0.34714 0.70703,-0.5918c0.18814,-0.24459 0.33402,-0.53208 0.4375,-0.86133c0.10348,-0.32925 0.1543,-0.67183 0.1543,-1.0293c0,-0.35746 -0.05081,-0.69772 -0.1543,-1.01757c-0.10348,-0.32917 -0.24935,-0.61472 -0.4375,-0.85938c-0.18814,-0.25401 -0.42482,-0.45265 -0.70703,-0.59375c-0.27281,-0.15042 -0.58162,-0.22461 -0.92969,-0.22461c-0.34806,0 -0.65883,0.07419 -0.93164,0.22461zM79.80664,174.28613c-0.32925,0.43273 -0.49414,1.02477 -0.49414,1.77735c0,0.74315 0.16489,1.33094 0.49414,1.76367c0.32925,0.43273 0.79016,0.65039 1.38281,0.65039c0.60206,0 1.06723,-0.21766 1.39648,-0.65039c0.32925,-0.43273 0.49414,-1.02052 0.49414,-1.76367c0,-0.75258 -0.16489,-1.34462 -0.49414,-1.77735c-0.32925,-0.43273 -0.79443,-0.64843 -1.39648,-0.64843c-0.59265,0 -1.05356,0.2157 -1.38281,0.64843z" data-paper-data="{&quot;origPos&quot;:null}" id="path1670" fill="#1eff00" stroke="none" stroke-width="1" stroke-miterlimit="10" stroke-dashoffset="0"/><path d="M69.10154,187.56435c1.27594,0 2.33407,4.30813 3.36633,5.0581c1.03226,0.74997 5.45651,0.42505 5.8508,1.63854c0.39429,1.21349 -3.376,3.55113 -3.77029,4.76462c-0.39429,1.21346 1.28192,5.32078 0.24968,6.07075c-1.03226,0.74997 -4.42056,-2.1134 -5.6965,-2.1134c-1.27594,0 -4.66424,2.86337 -5.6965,2.1134c-1.03226,-0.74997 0.64395,-4.8573 0.24968,-6.07079c-0.39428,-1.21346 -4.16458,-3.55109 -3.77029,-4.76459c0.39429,-1.21349 4.81854,-0.88857 5.8508,-1.63854c1.03226,-0.74997 2.09039,-5.0581 3.36633,-5.0581z" data-paper-data="{&quot;origPos&quot;:null}" id="path1428-5-7" fill="#1eff00" stroke="none" stroke-width="0.88188" stroke-miterlimit="4" stroke-dashoffset="17.35"/><path d="M92.03853,187.56435c1.27594,0 2.33407,4.30813 3.36633,5.0581c1.03226,0.74997 5.45651,0.42505 5.8508,1.63854c0.39429,1.21349 -3.37601,3.55113 -3.77029,4.76462c-0.39429,1.21346 1.28192,5.32078 0.24968,6.07075c-1.03226,0.74997 -4.42056,-2.1134 -5.6965,-2.1134c-1.27594,0 -4.66424,2.86337 -5.6965,2.1134c-1.03226,-0.74997 0.64395,-4.8573 0.24968,-6.07079c-0.39429,-1.21346 -4.16458,-3.55109 -3.77029,-4.76459c0.39428,-1.21349 4.81854,-0.88857 5.8508,-1.63854c1.03226,-0.74997 2.09039,-5.0581 3.36633,-5.0581z" data-paper-data="{&quot;origPos&quot;:null}" id="path1428-0-2-2" fill="#1eff00" stroke="none" stroke-width="0.88188" stroke-miterlimit="4" stroke-dashoffset="17.35"/><path d="M114.97549,187.56435c1.27594,0 2.33407,4.30813 3.36633,5.0581c1.03226,0.74997 5.45651,0.42505 5.8508,1.63854c0.39429,1.21349 -3.37601,3.55113 -3.77029,4.76462c-0.39429,1.21346 1.28192,5.32078 0.24968,6.07075c-1.03226,0.74997 -4.42056,-2.1134 -5.6965,-2.1134c-1.27594,0 -4.66424,2.86337 -5.6965,2.1134c-1.03226,-0.74997 0.64395,-4.8573 0.24968,-6.07079c-0.39429,-1.21346 -4.16458,-3.55109 -3.77029,-4.76459c0.39428,-1.21349 4.81854,-0.88857 5.8508,-1.63854c1.03226,-0.74997 2.09039,-5.0581 3.36633,-5.0581z" data-paper-data="{&quot;origPos&quot;:null}" id="path1428-0-6-3-1" fill="#1eff00" stroke="none" stroke-width="0.88188" stroke-miterlimit="4" stroke-dashoffset="17.35"/><path d="M137.91249,191.36062c0.72729,0 1.33042,2.45563 1.91881,2.88314c0.58839,0.42746 3.11021,0.24227 3.33495,0.93396c0.22473,0.69169 -1.92432,2.02413 -2.14907,2.71582c-0.22473,0.69169 0.73069,3.03284 0.1423,3.46035c-0.58839,0.42746 -2.51972,-1.20465 -3.247,-1.20465c-0.72728,0 -2.65861,1.63211 -3.247,1.20465c-0.58839,-0.4275 0.36707,-2.76866 0.1423,-3.46035c-0.22473,-0.69169 -2.37381,-2.02413 -2.14907,-2.71582c0.22473,-0.69169 2.74657,-0.50649 3.33495,-0.93396c0.58839,-0.4275 1.19152,-2.88314 1.91881,-2.88314z" data-paper-data="{&quot;origPos&quot;:null}" id="path1428-0-0-2-6" fill="#1eff00" stroke="none" stroke-width="0.50267" stroke-miterlimit="4" stroke-dashoffset="17.35"/></g></g></svg>