<svg version="1.1" xmlns="http://www.w3.org/2000/svg" xmlns:xlink="http://www.w3.org/1999/xlink" width="372.21496" height="68.64271" viewBox="0,0,372.21496,68.64271"><g transform="translate(-53.89252,-145.67864)"><g data-paper-data="{&quot;isPaintingLayer&quot;:true}" fill-rule="nonzero" stroke-linecap="butt" stroke-linejoin="miter" stroke-dasharray="" style="mix-blend-mode: normal"><path d="M425.00976,146.42864c0.19313,0 0.34772,0.15458 0.34772,0.34772v66.44538c0,0.19313 -0.15458,0.34961 -0.34772,0.34961h-370.01763c-0.19313,0 -0.34961,-0.15647 -0.34961,-0.34961v-66.4453c0,-0.19313 0.15647,-0.34772 0.34961,-0.34772z" fill="#1e1e1e" stroke="#1eff00" stroke-width="1.5" stroke-miterlimit="4" stroke-dashoffset="17.35"/><path d="M69.10183,187.56562c1.27601,0 2.33412,4.30809 3.36643,5.0581c1.03219,0.7499 5.4565,0.42501 5.85078,1.6385c0.3942,1.21349 -3.3761,3.55109 -3.77031,4.76459c-0.39428,1.21353 1.2819,5.32082 0.24983,6.07083c-1.0323,0.7499 -4.42057,-2.11351 -5.6965,-2.11351c-1.27589,0 -4.66417,2.86341 -5.69647,2.11351c-1.0323,-0.75001 0.64399,-4.8573 0.24983,-6.07083c-0.39432,-1.21349 -4.16462,-3.55109 -3.77031,-4.76459c0.39428,-1.21349 4.8186,-0.8886 5.85079,-1.6385c1.0323,-0.75001 2.09042,-5.0581 3.36632,-5.0581z" fill="#1eff00" stroke="none" stroke-width="0.23333" stroke-miterlimit="4" stroke-dashoffset="17.35"/><path d="M92.03895,187.56562c1.27589,0 2.33401,4.30809 3.36631,5.0581c1.0323,0.7499 5.45647,0.42501 5.85078,1.6385c0.39432,1.21349 -3.37599,3.55109 -3.77031,4.76459c-0.39428,1.21353 1.2819,5.32082 0.24945,6.07083c-1.0323,0.7499 -4.42061,-2.11351 -5.6965,-2.11351c-1.27601,0 -4.66428,2.86341 -5.6965,2.11351c-1.0323,-0.75001 0.64399,-4.8573 0.24945,-6.07083c-0.3942,-1.21349 -4.16447,-3.55109 -3.77019,-4.76459c0.3942,-1.21349 4.81852,-0.8886 5.85071,-1.6385c1.0323,-0.75001 2.09038,-5.0581 3.36639,-5.0581z" fill="#1eff00" stroke="none" stroke-width="0.23333" stroke-miterlimit="4" stroke-dashoffset="17.35"/><path d="M114.97603,187.56562c1.27593,0 2.33401,4.30809 3.36631,5.0581c1.0323,0.7499 5.4565,0.42501 5.85082,1.6385c0.39428,1.21349 -3.37603,3.55109 -3.77031,4.76459c-0.39432,1.21353 1.2819,5.32082 0.24945,6.07083c-1.0323,0.7499 -4.42061,-2.11351 -5.6965,-2.11351c-1.27601,0 -4.66431,2.86341 -5.6965,2.11351c-1.0323,-0.75001 0.64399,-4.8573 0.24945,-6.07083c-0.3942,-1.21349 -4.16451,-3.55109 -3.77019,-4.76459c0.39417,-1.21349 4.81848,-0.8886 5.85067,-1.6385c1.0323,-0.75001 2.09042,-5.0581 3.36643,-5.0581z" fill="#1eff00" stroke="none" stroke-width="0.23333" stroke-miterlimit="4" stroke-dashoffset="17.35"/><path d="M137.91298,195.06995c0.1914,0 0.3501,0.64622 0.50494,0.7587c0.15485,0.11263 0.81848,0.06387 0.87762,0.24567c0.05915,0.18217 -0.5064,0.53265 -0.56555,0.71467c-0.05915,0.18217 0.1923,0.79812 0.03742,0.91064c-0.15485,0.11263 -0.66309,-0.3171 -0.85448,-0.3171c-0.1914,0 -0.69965,0.42951 -0.85448,0.3171c-0.15485,-0.11263 0.0966,-0.72858 0.03742,-0.91064c-0.05911,-0.18217 -0.62468,-0.53265 -0.56553,-0.71467c0.05915,-0.18217 0.72277,-0.13342 0.8776,-0.24567c0.15485,-0.11263 0.31355,-0.7587 0.50496,-0.7587z" fill="#1eff00" stroke="none" stroke-width="0.035" stroke-miterlimit="4" stroke-dashoffset="17.35"/><path d="M68.26463,153.81167c0.23713,0 0.43792,0.08042 0.59961,0.24218c0.17247,0.16174 0.25781,0.36056 0.25781,0.59766c0,0.23725 -0.08534,0.44289 -0.25781,0.61523c-0.1617,0.16177 -0.36248,0.24219 -0.59961,0.24219h-5.57812v3.50977h5.07812c0.23714,0 0.43597,0.08521 0.59766,0.25781c0.16169,0.16171 0.24219,0.36055 0.24219,0.59766c0,0.22647 -0.0805,0.42726 -0.24219,0.59961c-0.16167,0.16176 -0.3605,0.24218 -0.59766,0.24218h-5.07812v4.89844c0,0.2587 -0.09018,0.48567 -0.27344,0.67969c-0.18324,0.18318 -0.41021,0.27344 -0.67969,0.27344c-0.2587,0 -0.48566,-0.09026 -0.67969,-0.27344c-0.18324,-0.19402 -0.27539,-0.42099 -0.27539,-0.67969v-10.54101c0,-0.3449 0.12513,-0.64269 0.37305,-0.89063c0.24792,-0.24794 0.54859,-0.37109 0.9043,-0.37109zM101.64744,154.05385c0.17247,0.16174 0.25977,0.36251 0.25977,0.59961v11.0586c0,0.23725 -0.08729,0.44289 -0.25977,0.61523c-0.1617,0.16177 -0.36053,0.24219 -0.59766,0.24219c-0.23714,0 -0.43597,-0.08042 -0.59766,-0.24219c-0.16169,-0.1725 -0.24414,-0.37813 -0.24414,-0.61523v-0.14453v-0.00196c-0.21559,0.18334 -0.41927,0.33949 -0.61328,0.46875c-0.18325,0.12951 -0.37723,0.23805 -0.58203,0.32422c-0.20481,0.07559 -0.43177,0.12986 -0.67969,0.16211c-0.24792,0.03225 -0.53405,0.04883 -0.85742,0.04883c-0.52817,0 -1.02963,-0.11358 -1.50391,-0.33984c-0.4635,-0.22637 -0.87281,-0.54548 -1.22852,-0.95508c-0.34493,-0.42039 -0.61942,-0.91504 -0.82422,-1.48633c-0.2048,-0.57129 -0.30664,-1.20271 -0.30664,-1.89258c0,-0.68984 0.09213,-1.31931 0.27539,-1.89062c0.18324,-0.58205 0.44124,-1.07866 0.77539,-1.48829c0.34493,-0.42045 0.75424,-0.74443 1.22852,-0.9707c0.47428,-0.22627 1.00191,-0.33789 1.58398,-0.33789c0.44194,0 0.82506,0.05231 1.14844,0.16016c0.32337,0.10776 0.59301,0.23774 0.80859,0.38867c0.21557,0.14017 0.38338,0.27983 0.50195,0.41992c0.12933,0.1401 0.21954,0.24384 0.27344,0.3086v-3.83204c0,-0.23707 0.08245,-0.43784 0.24414,-0.59961c0.1617,-0.16176 0.36053,-0.24218 0.59766,-0.24218c0.23713,0 0.43597,0.08042 0.59766,0.24218zM135.48923,153.81167c0.63597,0 1.27224,0.10853 1.90821,0.32422c0.63596,0.21558 1.20627,0.57542 1.71289,1.08203c0.50662,0.49585 0.91788,1.15345 1.23047,1.97265c0.31259,0.80844 0.46875,1.8065 0.46875,2.99219c0,1.19647 -0.15616,2.20421 -0.46875,3.02344c-0.31259,0.80841 -0.72385,1.46602 -1.23047,1.97265c-0.50662,0.49573 -1.07693,0.85073 -1.71289,1.06641c-0.63597,0.21569 -1.27224,0.32422 -1.90821,0.32422h-3.83203c-0.16168,0 -0.31784,-0.02811 -0.46875,-0.08203c-0.1509,-0.06476 -0.28572,-0.14997 -0.40429,-0.25781c-0.11855,-0.10772 -0.21555,-0.24254 -0.29102,-0.4043c-0.07546,-0.16169 -0.11328,-0.33919 -0.11328,-0.5332v-10.21875c0,-0.3449 0.12318,-0.64269 0.37109,-0.89063c0.24792,-0.24794 0.55054,-0.37109 0.90625,-0.37109zM143.2822,154.08706c0.19402,0.18323 0.29102,0.4102 0.29102,0.67968c0,0.25873 -0.097,0.48372 -0.29102,0.67774c-0.18324,0.18318 -0.40536,0.27539 -0.66406,0.27539c-0.26948,0 -0.5013,-0.09221 -0.69531,-0.27539c-0.18326,-0.19404 -0.27344,-0.41904 -0.27344,-0.67774c0,-0.26953 0.09018,-0.4965 0.27344,-0.67968c0.19402,-0.18318 0.42583,-0.27539 0.69531,-0.27539c0.25868,0 0.48081,0.09221 0.66406,0.27539zM132.28806,164.87026h2.83008c0.63597,0 1.18979,-0.10683 1.66406,-0.32226c0.47428,-0.22637 0.86905,-0.53869 1.18164,-0.9375c0.3126,-0.40963 0.54441,-0.90137 0.69532,-1.47266c0.1509,-0.58207 0.22461,-1.23289 0.22461,-1.95508c0,-0.71141 -0.07371,-1.35254 -0.22461,-1.92383c-0.15091,-0.58207 -0.38272,-1.07381 -0.69532,-1.47265c-0.31259,-0.4095 -0.70736,-0.72182 -1.18164,-0.9375c-0.47427,-0.22627 -1.02809,-0.33985 -1.66406,-0.33985h-2.83008zM80.874,157.36831c0.53895,0.18325 1.00258,0.45289 1.39062,0.80859c0.39881,0.34492 0.71113,0.77074 0.9375,1.27734c0.22637,0.50664 0.33984,1.08375 0.33984,1.73047c0,0.39879 -0.097,0.7014 -0.29101,0.90625c-0.19402,0.20485 -0.42099,0.30664 -0.67969,0.30664h-5.91797c0,0.02142 0.00479,0.11363 0.01562,0.2754c0.02157,0.15105 0.05939,0.33339 0.11328,0.54882c0.06468,0.21559 0.15197,0.44738 0.25976,0.69532c0.11858,0.23707 0.27473,0.45921 0.46875,0.66406c0.19402,0.20485 0.43068,0.37748 0.71094,0.51758c0.29103,0.12926 0.64118,0.19336 1.05078,0.19336c0.33414,0 0.62027,-0.02811 0.85742,-0.08204c0.23713,-0.05392 0.4476,-0.13434 0.63086,-0.24218c0.18325,-0.10772 0.3491,-0.24254 0.5,-0.4043c0.15091,-0.17255 0.30222,-0.37139 0.45312,-0.59766c0.08622,-0.12926 0.18322,-0.22147 0.29102,-0.27539c0.10779,-0.05392 0.22127,-0.08007 0.33984,-0.08007c0.19402,0 0.37151,0.06888 0.5332,0.20898c0.16169,0.14002 0.24219,0.31947 0.24219,0.53516c0,0.12936 -0.06886,0.32333 -0.20898,0.58203c-0.14013,0.25869 -0.36709,0.51669 -0.67969,0.77539c-0.30181,0.25869 -0.69463,0.48567 -1.17969,0.67968c-0.48506,0.19402 -1.07866,0.29102 -1.7793,0.29102c-0.71142,0 -1.34769,-0.12998 -1.9082,-0.38867c-0.56051,-0.2587 -1.03383,-0.60399 -1.42187,-1.03516c-0.37727,-0.44193 -0.66825,-0.95308 -0.87305,-1.53515c-0.19402,-0.58208 -0.29101,-1.19216 -0.29101,-1.82813c0,-0.65751 0.10184,-1.2773 0.30664,-1.85937c0.2048,-0.59286 0.49578,-1.10402 0.87305,-1.53516c0.38805,-0.43114 0.85167,-0.77159 1.39062,-1.01953c0.53895,-0.2587 1.14224,-0.38672 1.81055,-0.38672c0.6144,0 1.18667,0.09026 1.71484,0.27344zM90.29588,157.36831c0.53895,0.18325 1.00258,0.45289 1.39062,0.80859c0.39882,0.34492 0.71308,0.77074 0.93945,1.27734c0.22637,0.50664 0.33789,1.08375 0.33789,1.73047c0,0.39879 -0.097,0.7014 -0.29101,0.90625c-0.19402,0.20485 -0.41904,0.30664 -0.67773,0.30664h-5.91797c0,0.02142 0.00479,0.11363 0.01562,0.2754c0.02157,0.15105 0.05938,0.33339 0.11328,0.54882c0.06468,0.21559 0.15002,0.44738 0.25781,0.69532c0.11858,0.23707 0.27669,0.45921 0.4707,0.66406c0.19402,0.20485 0.43068,0.37748 0.71094,0.51758c0.29104,0.12926 0.64118,0.19336 1.05078,0.19336c0.33414,0 0.62027,-0.02811 0.85742,-0.08204c0.23713,-0.05392 0.4476,-0.13434 0.63086,-0.24218c0.18325,-0.10772 0.3491,-0.24254 0.5,-0.4043c0.15091,-0.17255 0.30222,-0.37139 0.45312,-0.59766c0.08622,-0.12926 0.18322,-0.22147 0.29102,-0.27539c0.10779,-0.05392 0.22127,-0.08007 0.33984,-0.08007c0.19402,0 0.37151,0.06888 0.5332,0.20898c0.16169,0.14002 0.24219,0.31947 0.24219,0.53516c0,0.12936 -0.06886,0.32333 -0.20898,0.58203c-0.14013,0.25869 -0.36709,0.51669 -0.67969,0.77539c-0.30181,0.25869 -0.69463,0.48567 -1.17969,0.67968c-0.48506,0.19402 -1.07866,0.29102 -1.7793,0.29102c-0.71142,0 -1.34769,-0.12998 -1.9082,-0.38867c-0.56051,-0.2587 -1.03383,-0.60399 -1.42187,-1.03516c-0.37727,-0.44193 -0.66825,-0.95308 -0.87305,-1.53515c-0.19401,-0.58208 -0.29101,-1.19216 -0.29101,-1.82813c0,-0.65751 0.10184,-1.2773 0.30664,-1.85937c0.2048,-0.59286 0.49578,-1.10402 0.87305,-1.53516c0.38804,-0.43114 0.85167,-0.77159 1.39062,-1.01953c0.53895,-0.2587 1.14224,-0.38672 1.81055,-0.38672c0.6144,0 1.18472,0.09026 1.71289,0.27344zM109.18455,157.41714c0.54973,0.21558 1.02305,0.5279 1.42187,0.9375c0.39882,0.40962 0.71113,0.91107 0.9375,1.5039c0.22637,0.59286 0.33984,1.27181 0.33984,2.03711c0,0.76533 -0.11347,1.44428 -0.33984,2.03711c-0.22636,0.59286 -0.53867,1.09431 -0.9375,1.50391c-0.39882,0.39871 -0.87214,0.70619 -1.42187,0.92187c-0.53895,0.21569 -1.12575,0.32422 -1.76172,0.32422c-0.63596,0 -1.22956,-0.10853 -1.7793,-0.32422c-0.53895,-0.21556 -1.00742,-0.52303 -1.40625,-0.92187c-0.39882,-0.4096 -0.71113,-0.91105 -0.9375,-1.50391c-0.22637,-0.59283 -0.33984,-1.27178 -0.33984,-2.03711c0,-0.7653 0.11347,-1.44425 0.33984,-2.03711c0.22636,-0.59283 0.53867,-1.09428 0.9375,-1.5039c0.39883,-0.4095 0.8673,-0.72182 1.40625,-0.9375c0.54973,-0.21569 1.14333,-0.32227 1.7793,-0.32227c0.63597,0 1.22276,0.10658 1.76172,0.32227zM158.60056,157.36831c0.53896,0.18325 1.00258,0.45289 1.39063,0.80859c0.39882,0.34492 0.71113,0.77074 0.9375,1.27734c0.22637,0.50664 0.33984,1.08375 0.33984,1.73047c0,0.39879 -0.097,0.7014 -0.29101,0.90625c-0.19403,0.20485 -0.421,0.30664 -0.67969,0.30664h-5.91797c0,0.02142 0.00674,0.11363 0.01758,0.2754c0.02154,0.15105 0.05938,0.33339 0.11328,0.54882c0.06468,0.21559 0.15002,0.44738 0.25781,0.69532c0.11858,0.23707 0.27474,0.45921 0.46875,0.66406c0.19403,0.20485 0.43068,0.37748 0.71094,0.51758c0.29103,0.12926 0.64118,0.19336 1.05078,0.19336c0.33416,0 0.62029,-0.02811 0.85742,-0.08204c0.23716,-0.05392 0.44763,-0.13434 0.63086,-0.24218c0.18325,-0.10772 0.35105,-0.24254 0.50195,-0.4043c0.15091,-0.17255 0.30027,-0.37139 0.45118,-0.59766c0.08622,-0.12926 0.18322,-0.22147 0.29101,-0.27539c0.10779,-0.05392 0.22127,-0.08007 0.33985,-0.08007c0.19402,0 0.37151,0.06888 0.5332,0.20898c0.16169,0.14002 0.24414,0.31947 0.24414,0.53516c0,0.12936 -0.07082,0.32333 -0.21094,0.58203c-0.14013,0.25869 -0.36709,0.51669 -0.67968,0.77539c-0.30182,0.25869 -0.69464,0.48567 -1.17969,0.67968c-0.48506,0.19402 -1.07866,0.29102 -1.7793,0.29102c-0.71142,0 -1.34574,-0.12998 -1.90625,-0.38867c-0.56051,-0.2587 -1.03578,-0.60399 -1.42383,-1.03516c-0.37727,-0.44193 -0.66824,-0.95308 -0.87304,-1.53515c-0.19402,-0.58208 -0.29102,-1.19216 -0.29102,-1.82813c0,-0.65751 0.10184,-1.2773 0.30664,-1.85937c0.2048,-0.59286 0.49578,-1.10402 0.87305,-1.53516c0.38804,-0.43114 0.85167,-0.77159 1.39062,-1.01953c0.53896,-0.2587 1.14225,-0.38672 1.81055,-0.38672c0.6144,0 1.18667,0.09026 1.71484,0.27344zM71.53221,157.46596c0.16169,0.16172 0.24219,0.36056 0.24219,0.59766v0.30664c0.04311,-0.04309 0.12361,-0.12855 0.24219,-0.25781c0.11856,-0.12944 0.26503,-0.25941 0.4375,-0.38867c0.18324,-0.1401 0.38207,-0.25846 0.59766,-0.35547c0.22637,-0.10785 0.46303,-0.16211 0.71094,-0.16211c0.23714,0 0.43792,0.08717 0.59961,0.25976c0.17247,0.16172 0.25781,0.36056 0.25781,0.59766c0,0.22649 -0.08534,0.42726 -0.25781,0.59961c-0.1617,0.16176 -0.36248,0.24219 -0.59961,0.24219c-0.4096,0 -0.74325,0.097 -1.00195,0.29101c-0.2587,0.18323 -0.46433,0.40342 -0.61523,0.66211c-0.14012,0.2587 -0.23712,0.52833 -0.29102,0.8086c-0.0539,0.28031 -0.08008,0.51213 -0.08008,0.69531v4.34961c0,0.23725 -0.0805,0.44093 -0.24219,0.61328c-0.16167,0.16176 -0.3605,0.24414 -0.59766,0.24414c-0.23713,0 -0.44276,-0.08238 -0.61523,-0.24414c-0.16169,-0.1725 -0.24219,-0.37618 -0.24219,-0.61328v-7.64844c0,-0.23705 0.0805,-0.43589 0.24219,-0.59766c0.17247,-0.17259 0.37811,-0.25976 0.61523,-0.25976c0.23714,0 0.43597,0.08717 0.59766,0.25976zM114.29002,157.46596c0.16169,0.16172 0.24219,0.36056 0.24219,0.59766v0.35547c0.06465,-0.07559 0.15681,-0.18217 0.27539,-0.32227c0.12935,-0.14022 0.29715,-0.27503 0.50195,-0.40429c0.2048,-0.12926 0.44631,-0.24284 0.72656,-0.33985c0.29104,-0.09701 0.63148,-0.14453 1.01953,-0.14453c0.53895,0 1.00258,0.1445 1.39062,0.43555c0.38804,0.28024 0.68871,0.6304 0.9043,1.05078c0.29103,-0.52825 0.65767,-0.90459 1.09961,-1.13086c0.45272,-0.2371 0.98036,-0.35547 1.58398,-0.35547c0.38805,0 0.74499,0.05906 1.06836,0.17774c0.33414,0.10786 0.62027,0.27373 0.85742,0.5c0.24793,0.22636 0.44191,0.50763 0.58203,0.84179c0.14012,0.33414 0.20898,0.72211 0.20898,1.16406v5.82032c0,0.23725 -0.0805,0.44289 -0.24218,0.61523c-0.1617,0.16177 -0.36053,0.24219 -0.59766,0.24219c-0.23713,0 -0.44276,-0.08042 -0.61523,-0.24219c-0.16169,-0.1725 -0.24219,-0.37813 -0.24219,-0.61523v-5.74024c0,-0.37727 -0.12318,-0.69927 -0.37109,-0.96875c-0.24792,-0.26948 -0.57672,-0.40429 -0.98633,-0.40429c-0.35571,0 -0.66318,0.06889 -0.92187,0.20898c-0.25869,0.12944 -0.47401,0.30694 -0.64648,0.5332c-0.16169,0.22637 -0.28682,0.48632 -0.37305,0.77735c-0.07546,0.29102 -0.11328,0.5917 -0.11328,0.90429v4.68946c0,0.23725 -0.0805,0.44289 -0.24219,0.61523c-0.1617,0.16177 -0.36053,0.24219 -0.59766,0.24219c-0.23713,0 -0.44276,-0.08042 -0.61523,-0.24219c-0.16169,-0.1725 -0.24219,-0.37813 -0.24219,-0.61523v-5.74024c0,-0.37727 -0.11834,-0.69927 -0.35547,-0.96875c-0.23714,-0.26948 -0.57079,-0.40429 -1.00195,-0.40429c-0.35571,0 -0.66318,0.06889 -0.92187,0.20898c-0.25869,0.12944 -0.47401,0.30694 -0.64648,0.5332c-0.16169,0.22637 -0.28682,0.48632 -0.37305,0.77735c-0.07546,0.29102 -0.11328,0.5917 -0.11328,0.90429v4.68946c0,0.23725 -0.0805,0.44289 -0.24219,0.61523c-0.16167,0.16177 -0.3605,0.24219 -0.59766,0.24219c-0.23713,0 -0.44276,-0.08042 -0.61523,-0.24219c-0.16169,-0.1725 -0.24219,-0.37813 -0.24219,-0.61523v-7.64844c0,-0.23705 0.0805,-0.43589 0.24219,-0.59766c0.17248,-0.17259 0.37811,-0.25781 0.61523,-0.25781c0.23714,0 0.43597,0.08522 0.59766,0.25781zM143.21775,157.46596c0.16169,0.16172 0.24219,0.36056 0.24219,0.59766v7.64844c0,0.23725 -0.0805,0.44289 -0.24219,0.61523c-0.1617,0.16177 -0.36248,0.24219 -0.59961,0.24219c-0.23713,0 -0.44081,-0.08042 -0.61328,-0.24219c-0.16169,-0.1725 -0.24414,-0.37813 -0.24414,-0.61523v-7.64844c0,-0.23705 0.08245,-0.43589 0.24414,-0.59766c0.17248,-0.17259 0.37615,-0.25781 0.61328,-0.25781c0.23714,0 0.43792,0.08522 0.59961,0.25781zM145.65134,157.37026c0.15091,0.09688 0.25275,0.2317 0.30665,0.4043l2.28124,6.85547l2.26368,-6.85547c0.05389,-0.17247 0.15573,-0.30729 0.30664,-0.4043c0.15092,-0.10784 0.31872,-0.16211 0.50195,-0.16211c0.06468,0 0.14518,0.01462 0.24219,0.04688c0.10779,0.02141 0.20479,0.0661 0.29101,0.13086c0.08623,0.06475 0.16189,0.15501 0.22657,0.27343c0.06468,0.10772 0.0957,0.24254 0.0957,0.4043c0,0.08617 -0.01455,0.17838 -0.04688,0.27539l-2.62109,7.29297c-0.10779,0.28036 -0.26879,0.50539 -0.48437,0.67773c-0.21559,0.1726 -0.47358,0.25977 -0.7754,0.25977c-0.31258,0 -0.57738,-0.08717 -0.79296,-0.25977c-0.21558,-0.17247 -0.37659,-0.39749 -0.48438,-0.67773l-2.60351,-7.29297c-0.03233,-0.09701 -0.04883,-0.18726 -0.04883,-0.27344c0,-0.07559 0.0165,-0.16275 0.04883,-0.25976c0.03232,-0.09701 0.07985,-0.18922 0.14453,-0.27539c0.06468,-0.09701 0.15197,-0.17264 0.25976,-0.22657c0.1078,-0.06475 0.23777,-0.0957 0.38867,-0.0957c0.18325,0 0.3491,0.05427 0.5,0.16211zM78.17283,158.66323c-0.28026,0.11863 -0.51692,0.26799 -0.71094,0.45117c-0.18324,0.17235 -0.32775,0.36635 -0.43555,0.58203c-0.10779,0.21566 -0.19024,0.41643 -0.24414,0.59961c-0.05385,0.18328 -0.08487,0.34428 -0.0957,0.48438c-0.01083,0.12825 -0.01758,0.20388 -0.01758,0.22656h5.24023c0,-0.33416 -0.05432,-0.65132 -0.16211,-0.95313c-0.10778,-0.3019 -0.27558,-0.5667 -0.50195,-0.79296c-0.21558,-0.23718 -0.49491,-0.42632 -0.83984,-0.56641c-0.34493,-0.1401 -0.74939,-0.20898 -1.21289,-0.20898v-0.00196c-0.39882,0 -0.73927,0.06101 -1.01953,0.17969zM87.59666,158.66323c-0.28026,0.11863 -0.51692,0.26799 -0.71094,0.45117c-0.18324,0.17235 -0.32971,0.36635 -0.4375,0.58203c-0.10779,0.21566 -0.18829,0.41643 -0.24219,0.59961c-0.05385,0.18328 -0.08682,0.34428 -0.09766,0.48438c-0.01083,0.12825 -0.01562,0.20388 -0.01562,0.22656h5.23828c0,-0.33416 -0.05236,-0.65132 -0.16016,-0.95313c-0.10778,-0.3019 -0.27558,-0.5667 -0.50195,-0.79296c-0.21558,-0.23718 -0.49687,-0.42632 -0.8418,-0.56641c-0.34493,-0.1401 -0.74744,-0.20898 -1.21094,-0.20898v-0.00196c-0.39883,0 -0.73927,0.06101 -1.01953,0.17969zM155.90134,158.66323c-0.28026,0.11863 -0.51887,0.26799 -0.71289,0.45117c-0.18324,0.17235 -0.32775,0.36635 -0.43554,0.58203c-0.1078,0.21566 -0.18829,0.41643 -0.24219,0.59961c-0.05385,0.18328 -0.08682,0.34428 -0.09766,0.48438c-0.01083,0.12825 -0.01562,0.20388 -0.01562,0.22656h5.23828c0,-0.33416 -0.05432,-0.65132 -0.16211,-0.95313c-0.10778,-0.3019 -0.27558,-0.5667 -0.50195,-0.79296c-0.21558,-0.23718 -0.49492,-0.42632 -0.83985,-0.56641c-0.34493,-0.1401 -0.74939,-0.20898 -1.21289,-0.20898v-0.00196c-0.39882,0 -0.73732,0.06101 -1.01758,0.17969zM106.30564,158.69448c-0.33415,0.12936 -0.62513,0.33499 -0.87305,0.61523c-0.23715,0.26948 -0.42433,0.61962 -0.56445,1.05079c-0.14012,0.43116 -0.21094,0.94232 -0.21094,1.53515c0,0.59286 0.07082,1.10594 0.21094,1.53711c0.14014,0.42038 0.32733,0.77054 0.56445,1.05078c0.24792,0.26953 0.5389,0.47319 0.87305,0.61328c0.34493,0.12926 0.71836,0.19532 1.11719,0.19532c0.39883,0 0.7635,-0.06606 1.09766,-0.19532c0.34494,-0.14014 0.63592,-0.3438 0.87305,-0.61328c0.24793,-0.28024 0.44191,-0.6304 0.58203,-1.05078c0.14012,-0.43117 0.21094,-0.94425 0.21094,-1.53711c0,-0.59283 -0.07082,-1.10399 -0.21094,-1.53515c-0.14013,-0.43117 -0.33412,-0.78131 -0.58203,-1.05079c-0.23714,-0.28034 -0.52812,-0.48597 -0.87305,-0.61523c-0.33415,-0.1401 -0.69883,-0.20898 -1.09766,-0.20898c-0.39882,-0.00001 -0.77225,0.06888 -1.11719,0.20898zM96.66697,158.87221c-0.31258,0.18324 -0.58222,0.43155 -0.80859,0.74414c-0.21557,0.30184 -0.38142,0.65197 -0.5,1.05079c-0.10779,0.38805 -0.16211,0.79737 -0.16211,1.22851c0,0.42039 0.05432,0.82968 0.16211,1.22852c0.11857,0.39881 0.28441,0.75092 0.5,1.05273c0.22636,0.30188 0.496,0.54338 0.80859,0.72656c0.31259,0.18318 0.67438,0.27539 1.08398,0.27539c0.4096,0 0.77139,-0.09221 1.08398,-0.27539c0.32337,-0.18323 0.59301,-0.42473 0.80859,-0.72656c0.21558,-0.30181 0.37658,-0.65392 0.48437,-1.05273c0.11858,-0.39884 0.17773,-0.80813 0.17773,-1.22852c0,-0.43114 -0.05916,-0.84046 -0.17773,-1.22851c-0.10779,-0.39882 -0.26879,-0.74895 -0.48437,-1.05079c-0.21558,-0.31264 -0.48522,-0.56096 -0.80859,-0.74414c-0.31259,-0.18318 -0.67438,-0.27343 -1.08398,-0.27343c-0.4096,0 -0.77139,0.09025 -1.08398,0.27343zM67.70017,168.62807c0.21558,0.08635 0.39792,0.21438 0.54883,0.38672c0.16169,0.16177 0.28487,0.35577 0.37109,0.58203c0.09701,0.22637 0.14648,0.46982 0.14648,0.72852v5.85351h0.87305c0.29104,0 0.53934,0.10179 0.74414,0.30665c0.21558,0.2048 0.32227,0.45795 0.32227,0.75976c0,0.291 -0.10668,0.53929 -0.32227,0.74414c-0.2048,0.20485 -0.4531,0.30664 -0.74414,0.30664h-0.87305v1.71485c0,0.34497 -0.12318,0.63594 -0.37109,0.87304c-0.23714,0.2371 -0.52812,0.35547 -0.87305,0.35547c-0.34494,0 -0.63592,-0.11837 -0.87305,-0.35547c-0.23715,-0.23715 -0.35742,-0.52812 -0.35742,-0.87304v-1.71485h-4.00976c-0.31259,0 -0.59192,-0.04752 -0.83984,-0.14453c-0.24792,-0.10764 -0.46324,-0.24928 -0.64648,-0.42187c-0.17246,-0.17258 -0.30728,-0.37139 -0.4043,-0.59766c-0.09701,-0.23713 -0.14648,-0.48545 -0.14648,-0.74414c0,-0.54975 0.21048,-1.06574 0.63086,-1.55078l4.52734,-5.33594c0.23714,-0.28026 0.4806,-0.51887 0.72851,-0.71289c0.2587,-0.20485 0.55452,-0.30664 0.88867,-0.30664c0.23714,0 0.4641,0.04948 0.67969,0.14648zM73.77635,168.83706c0.24791,0.23715 0.37109,0.52812 0.37109,0.87304v3.91407l4.34961,-4.68946c0.2048,-0.21568 0.45795,-0.32421 0.75976,-0.32421c0.30183,0 0.57147,0.10853 0.80859,0.32421c0.23715,0.21559 0.35547,0.49493 0.35547,0.83985c0,0.2696 -0.08534,0.49171 -0.25781,0.66406l-3.12109,3.18555l4.07422,5.70703c0.16169,0.22637 0.24219,0.47466 0.24219,0.74414c0,0.1186 -0.02618,0.24662 -0.08008,0.38672c-0.04311,0.14002 -0.11393,0.26999 -0.21094,0.38867c-0.09701,0.10784 -0.22019,0.20005 -0.37109,0.27539c-0.15091,0.07534 -0.3284,0.11328 -0.5332,0.11328c-0.18324,0 -0.35589,-0.03794 -0.51758,-0.11328c-0.16169,-0.07534 -0.2965,-0.18891 -0.4043,-0.33984l-3.75195,-5.59375l-1.3418,1.35742v3.46094c0,0.34497 -0.12318,0.63594 -0.37109,0.87304c-0.23714,0.2371 -0.52812,0.35547 -0.87305,0.35547c-0.34492,0 -0.63589,-0.11837 -0.87305,-0.35547c-0.23713,-0.23715 -0.35547,-0.52812 -0.35547,-0.87304v-10.30079c0,-0.34497 0.11834,-0.63594 0.35547,-0.87304c0.23714,-0.2371 0.52812,-0.35547 0.87305,-0.35547c0.34492,0 0.63589,0.11837 0.87305,0.35547zM88.64939,168.83706c0.24791,0.23715 0.37305,0.52812 0.37305,0.87304v3.78516h5.26953v-3.78516c0,-0.34497 0.12027,-0.63594 0.35742,-0.87304c0.23714,-0.2371 0.52812,-0.35547 0.87305,-0.35547c0.34494,0 0.63592,0.11837 0.87305,0.35547c0.24791,0.23715 0.37109,0.52812 0.37109,0.87304v10.30079c0,0.34497 -0.12318,0.63594 -0.37109,0.87304c-0.23714,0.2371 -0.52811,0.35547 -0.87305,0.35547c-0.34494,0 -0.63592,-0.11837 -0.87305,-0.35547c-0.23715,-0.23715 -0.35742,-0.52812 -0.35742,-0.87304v-4.38282h-5.26953v4.38282c0,0.34497 -0.12513,0.63594 -0.37305,0.87304c-0.23714,0.2371 -0.52812,0.35547 -0.87305,0.35547c-0.34494,0 -0.63592,-0.11837 -0.87305,-0.35547c-0.23713,-0.23715 -0.35547,-0.52812 -0.35547,-0.87304v-10.30079c0,-0.34497 0.11834,-0.63594 0.35547,-0.87304c0.23714,-0.2371 0.52812,-0.35547 0.87305,-0.35547c0.34494,0 0.63592,0.11837 0.87305,0.35547zM62.39549,176.17885h3.89648v-4.65625zM105.54002,172.20034c0.2587,0.21558 0.38867,0.50656 0.38867,0.87305c0,0.10784 -0.0165,0.21158 -0.04883,0.30859l-2.97461,9.2793c-0.1509,0.45271 -0.34004,0.80966 -0.56641,1.06836c-0.21558,0.25874 -0.45224,0.45756 -0.71094,0.59765c-0.2587,0.1401 -0.53514,0.22556 -0.82617,0.25781c-0.28026,0.04309 -0.5499,0.06446 -0.80859,0.06446h-0.83984c-0.2048,0 -0.38909,-0.03599 -0.55078,-0.11133c-0.1509,-0.07534 -0.28377,-0.17234 -0.40234,-0.29102c-0.10779,-0.11855 -0.19508,-0.25336 -0.25976,-0.40429c-0.0539,-0.1401 -0.08008,-0.28657 -0.08008,-0.4375c0,-0.21556 0.06402,-0.3979 0.19336,-0.54883c0.14013,-0.15093 0.35545,-0.22656 0.64648,-0.22656v-0.00196c0.28026,0 0.54506,-0.00554 0.79297,-0.01562c0.2587,-0.01084 0.48372,-0.04853 0.67773,-0.11328c0.19402,-0.06476 0.34533,-0.16655 0.45312,-0.30664c0.11858,-0.12934 0.17773,-0.31847 0.17773,-0.56641c0,-0.15095 -0.02134,-0.31682 -0.06445,-0.5c-0.04311,-0.18323 -0.11198,-0.39855 -0.20898,-0.64648l-2.70117,-6.85547c-0.06468,-0.16174 -0.09766,-0.3344 -0.09766,-0.51758c0,-0.12939 0.02329,-0.2642 0.06641,-0.4043c0.04314,-0.14002 0.10713,-0.26999 0.19336,-0.38867c0.09701,-0.11868 0.22019,-0.21568 0.37109,-0.29102c0.16168,-0.08617 0.35566,-0.1289 0.58203,-0.1289c0.23714,0 0.45926,0.0641 0.66406,0.19336c0.20479,0.1186 0.34446,0.2961 0.41992,0.5332l1.98828,6.14453l1.55273,-6.12695c0.06467,-0.24801 0.1995,-0.43715 0.4043,-0.56641c0.21559,-0.12926 0.4474,-0.19336 0.69531,-0.19336c0.32337,0 0.61435,0.10658 0.87305,0.32227zM108.874,172.23355c0.23715,0.22637 0.35547,0.496 0.35547,0.8086c0.09703,-0.12939 0.21051,-0.26421 0.33984,-0.4043c0.14013,-0.1401 0.31278,-0.26521 0.51758,-0.37305c0.21558,-0.11842 0.46873,-0.20868 0.75977,-0.27344c0.30181,-0.07559 0.66165,-0.11328 1.08203,-0.11328c0.52817,0 1.00829,0.11358 1.43945,0.33985c0.44194,0.22637 0.82022,0.55032 1.13281,0.9707c0.31259,0.4096 0.54925,0.90426 0.71094,1.48633c0.17247,0.57129 0.25781,1.20271 0.25781,1.89258c0,0.68984 -0.08534,1.31931 -0.25781,1.89062c-0.16168,0.57129 -0.39834,1.0679 -0.71094,1.48828c-0.31259,0.40968 -0.69087,0.72686 -1.13281,0.95313c-0.43116,0.22627 -0.91128,0.33984 -1.43945,0.33984c-0.39883,0 -0.74897,-0.05906 -1.05078,-0.17773c-0.30181,-0.1186 -0.55981,-0.24858 -0.77539,-0.38867c-0.20479,-0.15078 -0.37259,-0.28562 -0.50195,-0.4043c-0.12933,-0.11868 -0.22633,-0.17774 -0.29101,-0.17774c-0.0539,0 -0.08008,0.07085 -0.08008,0.21094v3.16797c0,0.32345 -0.11832,0.59795 -0.35547,0.82422c-0.22636,0.2371 -0.50085,0.35742 -0.82422,0.35742c-0.3126,0 -0.58904,-0.12032 -0.82617,-0.35742c-0.22637,-0.22634 -0.33789,-0.50084 -0.33789,-0.82422v-10.42773c0,-0.3127 0.11152,-0.58233 0.33789,-0.8086c0.23714,-0.2371 0.51358,-0.35547 0.82617,-0.35547c0.32336,0 0.59785,0.11837 0.82422,0.35547zM122.38572,172.29801c0.52817,0.26948 0.95882,0.60797 1.29297,1.01757c0.34493,0.4096 0.59808,0.85189 0.75976,1.32617c0.16169,0.47429 0.24219,0.91171 0.24219,1.31055c0,0.37725 -0.06886,0.68956 -0.20898,0.9375c-0.14013,0.24794 -0.34576,0.3711 -0.61524,0.3711h-5.17383c-0.11855,0 -0.21071,0.04468 -0.27539,0.13085c-0.0539,0.0756 -0.08008,0.17739 -0.08008,0.30665c0,0.16158 0.04752,0.35072 0.14453,0.5664c0.09702,0.2048 0.24348,0.40364 0.4375,0.59766c0.19402,0.19411 0.43068,0.35511 0.71094,0.48437c0.29104,0.12926 0.62469,0.19532 1.00195,0.19532c0.22635,0 0.42714,-0.02137 0.59961,-0.06446c0.17247,-0.05392 0.33347,-0.12955 0.48437,-0.22656c0.15091,-0.09701 0.29543,-0.22212 0.43555,-0.37305c0.15092,-0.16158 0.31872,-0.35072 0.50195,-0.5664c0.16169,-0.19402 0.34598,-0.29102 0.55078,-0.29102c0.12934,0 0.25736,0.0329 0.38672,0.09766c0.12936,0.0645 0.24284,0.15192 0.33985,0.25976c0.097,0.10785 0.1775,0.231 0.24218,0.3711c0.06468,0.12938 0.09766,0.2642 0.09766,0.40429c0,0.14012 -0.07566,0.33896 -0.22656,0.59766c-0.14013,0.24791 -0.3603,0.50107 -0.66211,0.75977c-0.30181,0.24793 -0.68009,0.47004 -1.13281,0.66406c-0.45272,0.18318 -0.992,0.27344 -1.61719,0.27344c-0.71142,0 -1.34574,-0.12803 -1.90625,-0.38672c-0.56051,-0.2587 -1.03578,-0.60402 -1.42383,-1.03516c-0.37727,-0.44195 -0.66825,-0.94824 -0.87305,-1.51953c-0.19401,-0.58207 -0.29101,-1.197 -0.29101,-1.84375c0,-0.64673 0.08534,-1.25488 0.25781,-1.82617c0.18324,-0.58207 0.45968,-1.09032 0.82617,-1.52149c0.36649,-0.44192 0.82331,-0.79206 1.37305,-1.05078c0.54973,-0.25869 1.19765,-0.38672 1.94141,-0.38672c0.7222,0 1.34198,0.13966 1.85937,0.41993zM127.62986,172.23355c0.22637,0.22637 0.33984,0.496 0.33984,0.8086c0.09704,-0.10785 0.21535,-0.23296 0.35547,-0.37305c0.1509,-0.1401 0.31191,-0.26325 0.48438,-0.37109c0.18325,-0.11868 0.37239,-0.21568 0.5664,-0.29102c0.19403,-0.08617 0.38802,-0.12891 0.58204,-0.12891c0.43116,0 0.72214,0.11358 0.87304,0.33985c0.16169,0.22637 0.24219,0.4892 0.24219,0.79101c0,0.24802 -0.05916,0.43715 -0.17773,0.56641c-0.10779,0.11842 -0.24745,0.21063 -0.41993,0.27539c-0.16169,0.06476 -0.33918,0.11707 -0.5332,0.16016c-0.19402,0.03225 -0.37831,0.08172 -0.55078,0.14648c-0.3126,0.11858 -0.56575,0.27473 -0.75977,0.46875c-0.18325,0.18316 -0.32291,0.38197 -0.41992,0.59766c-0.09703,0.2047 -0.16103,0.41517 -0.19336,0.63086c-0.03233,0.21563 -0.04883,0.41447 -0.04883,0.59765v3.62305c0,0.32345 -0.11834,0.59795 -0.35547,0.82422c-0.22636,0.22627 -0.5028,0.33984 -0.82617,0.33984c-0.3126,0 -0.58709,-0.11357 -0.82422,-0.33984c-0.22636,-0.23713 -0.33984,-0.51163 -0.33984,-0.82422v-7.0332c0,-0.3127 0.11348,-0.58233 0.33984,-0.8086c0.23714,-0.2371 0.51843,-0.35547 0.8418,-0.35547c0.32337,0 0.59785,0.11837 0.82422,0.35547zM119.58884,173.96401c-0.25869,0.10789 -0.47596,0.24758 -0.64844,0.41992c-0.16169,0.16177 -0.28487,0.3344 -0.37109,0.51758c-0.08622,0.18328 -0.12891,0.34428 -0.12891,0.48438c0,0.21568 0.0805,0.32421 0.24219,0.32421h3.68555c0.14012,0 0.21094,-0.10374 0.21094,-0.30859c0,-0.14019 -0.04268,-0.30119 -0.12891,-0.48437c-0.07544,-0.18319 -0.20057,-0.35582 -0.37305,-0.51758c-0.16169,-0.17235 -0.37021,-0.31687 -0.62891,-0.43555c-0.2587,-0.11868 -0.56617,-0.17773 -0.92187,-0.17773v-0.00196c-0.35571,0 -0.66802,0.06101 -0.9375,0.17969zM109.58494,174.52847c-0.37727,0.49583 -0.56641,1.17478 -0.56641,2.03711c0,0.85153 0.18914,1.52564 0.56641,2.02149c0.37727,0.49582 0.9049,0.74414 1.58398,0.74414c0.68986,0 1.2243,-0.24832 1.60156,-0.74414c0.37727,-0.49585 0.56641,-1.16996 0.56641,-2.02149c0,-0.86233 -0.18914,-1.54128 -0.56641,-2.03711c-0.37727,-0.49585 -0.9117,-0.74218 -1.60156,-0.74218c-0.67908,0 -1.20672,0.24633 -1.58398,0.74218z" fill="#1eff00" stroke="none" stroke-width="1.01053" stroke-miterlimit="10" stroke-dashoffset="0"/></g></g></svg>