<svg version="1.1" xmlns="http://www.w3.org/2000/svg" xmlns:xlink="http://www.w3.org/1999/xlink" width="73.93388" height="95.9062" viewBox="0,0,73.93388,95.9062"><g transform="translate(-203.03306,-132.0469)"><g data-paper-data="{&quot;isPaintingLayer&quot;:true}" fill-rule="nonzero" stroke="none" stroke-linecap="butt" stroke-linejoin="miter" stroke-miterlimit="10" stroke-dasharray="" stroke-dashoffset="0" style="mix-blend-mode: normal"><path d="M249.521,144.15c2.959,0.834 5.533,2.052 7.72,3.656c2.188,1.54 3.893,3.497 5.116,5.871c1.222,2.31 1.834,4.973 1.834,7.988c0,1.797 -0.29,3.464 -0.87,5.004c-0.514,1.476 -1.255,2.822 -2.22,4.041c-0.901,1.219 -1.995,2.278 -3.281,3.176c-1.223,0.898 -2.542,1.635 -3.957,2.213c0.643,0.064 1.737,0.547 3.281,1.445c1.608,0.834 3.217,2.021 4.826,3.561c1.673,1.539 3.121,3.398 4.344,5.58c1.222,2.181 1.834,4.62 1.834,7.314c0,3.272 -0.645,6.288 -1.932,9.047c-1.287,2.759 -3.153,5.164 -5.598,7.217c-2.445,1.989 -5.435,3.56 -8.974,4.715c-3.475,1.09 -7.432,1.636 -11.871,1.636c-4.183,0 -8.01,-0.546 -11.485,-1.636c-3.474,-1.155 -6.467,-2.726 -8.976,-4.715c-2.51,-2.053 -4.471,-4.458 -5.887,-7.217c-1.351,-2.759 -2.027,-5.775 -2.027,-9.047c0,-2.694 0.611,-5.133 1.834,-7.314c1.222,-2.182 2.637,-4.041 4.246,-5.58c1.673,-1.54 3.282,-2.727 4.826,-3.561c1.544,-0.898 2.669,-1.381 3.377,-1.445c-2.831,-1.155 -5.275,-2.951 -7.334,-5.389c-1.995,-2.438 -2.992,-5.452 -2.992,-9.045c0,-3.015 0.611,-5.678 1.834,-7.988c1.222,-2.374 2.896,-4.331 5.019,-5.871c2.188,-1.604 4.761,-2.822 7.721,-3.656c3.024,-0.834 6.305,-1.25 9.844,-1.25c3.538,0 6.788,0.416 9.748,1.25zM234.562,151.849c-1.737,0.449 -3.282,1.123 -4.633,2.021c-1.351,0.834 -2.445,1.925 -3.281,3.272c-0.837,1.283 -1.288,2.791 -1.352,4.523c-0.064,1.797 0.322,3.368 1.158,4.715c0.837,1.347 1.93,2.503 3.282,3.465c1.415,0.898 2.991,1.604 4.728,2.117c1.802,0.449 3.571,0.674 5.309,0.674c1.737,0 3.473,-0.225 5.211,-0.674c1.801,-0.513 3.377,-1.219 4.728,-2.117c1.416,-0.962 2.543,-2.118 3.379,-3.465c0.836,-1.347 1.223,-2.918 1.158,-4.715c-0.064,-1.732 -0.515,-3.24 -1.351,-4.523c-0.837,-1.347 -1.93,-2.438 -3.282,-3.272c-1.351,-0.898 -2.895,-1.572 -4.632,-2.021c-1.738,-0.449 -3.474,-0.674 -5.211,-0.674c-1.738,0 -3.474,0.225 -5.211,0.674zM233.113,181.489c-2.124,0.45 -4.054,1.252 -5.792,2.407c-1.672,1.09 -3.054,2.5 -4.148,4.232c-1.029,1.732 -1.545,3.85 -1.545,6.352c0,2.502 0.516,4.653 1.545,6.449c1.094,1.796 2.476,3.239 4.148,4.33c1.738,1.091 3.668,1.893 5.792,2.406c2.187,0.513 4.408,0.77 6.66,0.77c2.187,0 4.375,-0.257 6.562,-0.77c2.188,-0.513 4.118,-1.315 5.791,-2.406c1.737,-1.091 3.121,-2.534 4.151,-4.33c1.093,-1.796 1.64,-3.947 1.64,-6.449c0,-2.502 -0.547,-4.62 -1.64,-6.352c-1.03,-1.732 -2.414,-3.142 -4.151,-4.232c-1.673,-1.155 -3.603,-1.957 -5.791,-2.407c-2.187,-0.513 -4.375,-0.769 -6.562,-0.769c-2.252,0 -4.473,0.256 -6.66,0.769z" data-paper-data="{&quot;origPos&quot;:null}" fill="#ffffff" stroke-width="0"/><path d="M203.03306,227.9531v-95.9062h73.93388v95.9062z" fill="none" stroke-width="none"/></g></g></svg>