<svg version="1.1" xmlns="http://www.w3.org/2000/svg" xmlns:xlink="http://www.w3.org/1999/xlink" width="86.32054" height="26.37273" viewBox="0,0,86.32054,26.37273"><g transform="translate(-192.85126,-166.74564)"><g data-paper-data="{&quot;isPaintingLayer&quot;:true}" fill="#ffffff" fill-rule="nonzero" stroke="none" stroke-width="1" stroke-linecap="butt" stroke-linejoin="miter" stroke-miterlimit="10" stroke-dasharray="" stroke-dashoffset="0" style="mix-blend-mode: normal"><path d="M206.74776,167.23011c1.09884,0.32319 2.03647,0.75377 2.81213,1.29244c0.79719,0.53864 1.41226,1.14213 1.84319,1.81005c0.43092,0.66794 0.64543,1.33623 0.64543,2.00415c0,0.5602 -0.1929,1.01241 -0.58073,1.35714c-0.36629,0.32319 -0.77686,0.48447 -1.22932,0.48447c-0.32319,0 -0.62413,-0.0848 -0.90423,-0.25723c-0.28009,-0.19391 -0.5062,-0.49645 -0.67857,-0.90582c-0.25855,-0.64638 -0.6043,-1.16342 -1.03522,-1.55124c-0.40938,-0.40937 -0.8716,-0.7219 -1.3887,-0.93737c-0.49556,-0.2371 -1.02419,-0.38838 -1.58439,-0.45291c-0.56019,-0.08611 -1.09884,-0.12783 -1.61595,-0.12783c-0.77565,0 -1.49719,0.08637 -2.16512,0.25881c-0.64638,0.15082 -1.21665,0.37692 -1.71221,0.67857c-0.47401,0.28009 -0.85138,0.63427 -1.13148,1.0652c-0.25855,0.40937 -0.38821,0.88476 -0.38821,1.42342c0,0.73256 0.21609,1.33446 0.64701,1.80847c0.45246,0.47402 1.04435,0.87299 1.77691,1.19618c0.73256,0.32319 1.56214,0.60412 2.48862,0.84111c0.92648,0.23702 1.87412,0.48473 2.84368,0.74328c0.99112,0.25855 1.95035,0.57108 2.87683,0.93737c0.92648,0.34473 1.75606,0.79694 2.48862,1.35714c0.73256,0.56018 1.31443,1.2501 1.74534,2.06885c0.45246,0.81875 0.67858,1.81963 0.67858,3.00465c0,1.3143 -0.25931,2.45642 -0.77641,3.42599c-0.49555,0.96957 -1.18389,1.77754 -2.06727,2.42392c-0.88339,0.64638 -1.91747,1.13179 -3.10249,1.45498c-1.18502,0.32319 -2.44521,0.48447 -3.78106,0.48447c-1.91759,0 -3.55514,-0.26933 -4.91253,-0.80797c-1.33585,-0.5602 -2.42474,-1.2285 -3.26503,-2.00415c-0.84029,-0.79719 -1.45379,-1.62679 -1.84161,-2.48861c-0.38783,-0.8834 -0.58231,-1.64814 -0.58231,-2.29452c0,-0.77565 0.19448,-1.32432 0.58231,-1.64751c0.40938,-0.32319 0.82838,-0.48604 1.25931,-0.48604c0.36628,0 0.70043,0.11963 1.00207,0.35664c0.30165,0.21545 0.48453,0.56964 0.54917,1.0652c0.12928,0.81874 0.41019,1.54185 0.84112,2.16669c0.45246,0.62484 1.00113,1.1519 1.64751,1.58281c0.64638,0.40938 1.36949,0.72192 2.16669,0.93737c0.79719,0.21545 1.61519,0.3235 2.45548,0.3235c0.66793,0 1.35784,-0.07639 2.06885,-0.22724c0.73256,-0.17237 1.38927,-0.42008 1.97101,-0.74327c0.60329,-0.34473 1.0887,-0.78536 1.45498,-1.324c0.38783,-0.53866 0.58073,-1.18535 0.58073,-1.93945c0,-0.81875 -0.2261,-1.49707 -0.67857,-2.03571c-0.43092,-0.53866 -1.01279,-0.99087 -1.74535,-1.35714c-0.71102,-0.36629 -1.529,-0.6688 -2.45548,-0.90581c-0.92648,-0.25855 -1.87412,-0.51629 -2.84368,-0.77484c-0.96957,-0.25855 -1.91879,-0.54948 -2.84527,-0.87268c-0.92647,-0.34472 -1.75606,-0.77691 -2.48861,-1.29402c-0.71102,-0.53864 -1.29289,-1.18375 -1.74535,-1.93787c-0.43092,-0.77565 -0.64543,-1.73488 -0.64543,-2.87682c0,-1.07729 0.22611,-2.03654 0.67858,-2.87683c0.47401,-0.84029 1.1207,-1.55181 1.93945,-2.13355c0.81874,-0.58174 1.788,-1.02235 2.90839,-1.32401c1.12038,-0.30165 2.34895,-0.4529 3.68479,-0.4529c1.29276,0 2.47653,0.16128 3.55382,0.48447zM226.99758,174.3409c0.94802,0.36626 1.72437,0.80847 2.32766,1.32558c0.62483,0.5171 1.08706,1.05575 1.3887,1.61595c0.30164,0.5602 0.45291,1.03402 0.45291,1.42185c0,0.49555 -0.17287,0.88293 -0.51761,1.16304c-0.34473,0.25855 -0.73212,0.38821 -1.16304,0.38821c-0.30165,0 -0.58098,-0.07639 -0.83953,-0.22724c-0.25854,-0.15082 -0.44301,-0.40854 -0.55075,-0.77483c-0.10773,-0.34473 -0.29061,-0.67889 -0.54916,-1.00208c-0.23701,-0.32319 -0.54955,-0.61412 -0.93738,-0.87268c-0.36628,-0.25851 -0.8069,-0.46301 -1.324,-0.61387c-0.49555,-0.15086 -1.0458,-0.22567 -1.64909,-0.22567c-0.66792,0 -1.33623,0.12808 -2.00415,0.38663c-0.64638,0.23701 -1.23826,0.62597 -1.7769,1.16461c-0.5171,0.53867 -0.93769,1.24861 -1.26088,2.13198c-0.32319,0.86185 -0.48447,1.9075 -0.48447,3.13562c0,1.22812 0.16128,2.27222 0.48447,3.13405c0.32319,0.86183 0.74378,1.56333 1.26088,2.10199c0.53864,0.53864 1.13052,0.93605 1.7769,1.1946c0.66793,0.23701 1.33623,0.35664 2.00415,0.35664c0.60329,0.00001 1.15353,-0.07639 1.64909,-0.22723c0.5171,-0.15082 0.95772,-0.35532 1.324,-0.61387c0.38783,-0.25855 0.70037,-0.54949 0.93738,-0.87268c0.25854,-0.32319 0.44143,-0.65734 0.54916,-1.00207c0.10774,-0.36625 0.2922,-0.62398 0.55075,-0.77484c0.25855,-0.15086 0.53788,-0.22724 0.83953,-0.22724c0.43092,0 0.81831,0.14123 1.16304,0.42135c0.36629,0.25855 0.55075,0.62433 0.55075,1.09833c0,0.23701 -0.10804,0.636 -0.3235,1.19618c-0.21545,0.53866 -0.60442,1.08733 -1.16462,1.64751c-0.56019,0.5602 -1.33496,1.05562 -2.32607,1.48655c-0.96957,0.4309 -2.21974,0.64701 -3.7495,0.64701c-1.27121,0 -2.45655,-0.22611 -3.5554,-0.67858c-1.07729,-0.474 -2.01335,-1.13072 -2.81054,-1.97101c-0.7972,-0.84029 -1.42228,-1.84274 -1.87475,-3.00622c-0.45246,-1.18502 -0.67858,-2.48844 -0.67858,-3.91047c0,-1.44359 0.2261,-2.74698 0.67858,-3.91046c0.45246,-1.18502 1.07754,-2.1975 1.87475,-3.03779c0.79719,-0.84028 1.73325,-1.48699 2.81054,-1.93945c1.09884,-0.474 2.28419,-0.7117 3.5554,-0.7117c1.29276,-0.00001 2.41328,0.19448 3.3613,0.58231zM244.96077,174.4056c1.09884,0.43092 2.04649,1.056 2.84368,1.87475c0.7972,0.81874 1.42229,1.81961 1.87476,3.00465c0.45246,1.18502 0.67857,2.54323 0.67857,4.073c0,1.52975 -0.2261,2.88639 -0.67857,4.07143c-0.45246,1.18502 -1.07755,2.18747 -1.87476,3.00622c-0.79719,0.79719 -1.74484,1.41069 -2.84368,1.84161c-1.07729,0.4309 -2.25262,0.64701 -3.52384,0.64701c-1.27121,0 -2.45655,-0.21611 -3.5554,-0.64701c-1.07729,-0.43092 -2.01335,-1.04442 -2.81054,-1.84161c-0.7972,-0.81875 -1.42228,-1.8212 -1.87476,-3.00622c-0.45246,-1.18505 -0.67857,-2.54168 -0.67857,-4.07143c0,-1.52977 0.2261,-2.88798 0.67857,-4.073c0.45247,-1.18504 1.07755,-2.18591 1.87476,-3.00465c0.79719,-0.81875 1.73325,-1.44382 2.81054,-1.87475c1.09884,-0.43091 2.28419,-0.64701 3.5554,-0.64701c1.27122,0 2.44654,0.2161 3.52384,0.64701zM273.83949,174.30775c1.07729,0.36629 2.00333,0.90493 2.77898,1.61595c0.7972,0.68948 1.42228,1.54067 1.87475,2.55332c0.45247,1.01266 0.67858,2.16638 0.67858,3.45913c0,0.79719 -0.19448,1.40066 -0.58231,1.81005c-0.38783,0.40937 -0.84004,0.61387 -1.35714,0.61387h-11.82923c0,0.0431 0.0116,0.22598 0.03314,0.54917c0.04308,0.30162 0.11792,0.66741 0.22567,1.09833c0.12928,0.43092 0.30214,0.89474 0.5176,1.39028c0.237,0.47403 0.54955,0.91464 0.93738,1.32401c0.38783,0.40936 0.86165,0.7551 1.42184,1.03522c0.58174,0.25855 1.28167,0.3882 2.10041,0.3882c0.66793,0 1.23978,-0.05485 1.71379,-0.16254c0.47401,-0.10774 0.89302,-0.26901 1.2593,-0.48447c0.36628,-0.21545 0.70043,-0.48478 1.00207,-0.80797c0.30165,-0.34475 0.60417,-0.74371 0.90582,-1.19617c0.17236,-0.25858 0.36527,-0.44148 0.58073,-0.54917c0.21545,-0.10769 0.44157,-0.16096 0.67857,-0.16096c0.38783,0 0.74359,0.13967 1.06677,0.41977c0.32319,0.28011 0.48447,0.63587 0.48447,1.06677c0,0.25855 -0.13967,0.64594 -0.41977,1.16304c-0.2801,0.5171 -0.73231,1.03414 -1.35714,1.55124c-0.60328,0.5171 -1.38965,0.96932 -2.35922,1.35714c-0.96957,0.38783 -2.15491,0.58231 -3.5554,0.58231c-1.42203,0 -2.69223,-0.25931 -3.81262,-0.77641c-1.12038,-0.5171 -2.06961,-1.20544 -2.84526,-2.06727c-0.75411,-0.88339 -1.33598,-1.90745 -1.74535,-3.07093c-0.38783,-1.16348 -0.58073,-2.38047 -0.58073,-3.65167c0,-1.31431 0.2045,-2.55288 0.61387,-3.71636c0.40937,-1.18501 0.99124,-2.20909 1.74534,-3.07093c0.77565,-0.86185 1.70169,-1.54017 2.77899,-2.03571c1.07729,-0.5171 2.28424,-0.77641 3.62009,-0.77641c1.22813,0 2.37024,0.1829 3.426,0.54916zM255.16617,174.50186c0.32319,0.32319 0.48447,0.72215 0.48447,1.19618v0.61387c0.08619,-0.08618 0.24747,-0.25748 0.48447,-0.51603c0.237,-0.25855 0.52794,-0.51786 0.87268,-0.77641c0.36628,-0.28021 0.76526,-0.51789 1.19618,-0.71171c0.45246,-0.21545 0.92628,-0.32193 1.42184,-0.32193c0.47401,0 0.87299,0.17131 1.19618,0.51604c0.34474,0.32319 0.51761,0.72215 0.51761,1.19618c0,0.45246 -0.17287,0.85145 -0.51761,1.19617c-0.32319,0.32319 -0.72217,0.48447 -1.19618,0.48447c-0.81874,0 -1.48547,0.19449 -2.00257,0.58231c-0.5171,0.36629 -0.92767,0.8069 -1.22932,1.324c-0.28009,0.5171 -0.473,1.05576 -0.58073,1.61595c-0.10774,0.5602 -0.16254,1.02399 -0.16254,1.39028v8.6936c0,0.47402 -0.16128,0.88301 -0.48447,1.22774c-0.32319,0.32319 -0.72217,0.48604 -1.19618,0.48604c-0.47401,0 -0.883,-0.16286 -1.22774,-0.48604c-0.32319,-0.34473 -0.48447,-0.75372 -0.48447,-1.22774v-15.28678c0,-0.47403 0.16128,-0.87299 0.48447,-1.19618c0.34474,-0.34473 0.75373,-0.51604 1.22774,-0.51604c0.47401,0 0.87299,0.17131 1.19618,0.51604zM239.20713,176.95892c-0.66793,0.25855 -1.24979,0.66756 -1.74535,1.22774c-0.47401,0.53867 -0.85138,1.23858 -1.13148,2.10041c-0.2801,0.86183 -0.41977,1.88589 -0.41977,3.07093c0,1.18502 0.13967,2.20752 0.41977,3.06935c0.2801,0.84029 0.65747,1.54179 1.13148,2.10199c0.49556,0.53864 1.07742,0.94763 1.74535,1.22775c0.68947,0.25855 1.43262,0.3882 2.22981,0.3882c0.7972,0 1.53033,-0.12965 2.19826,-0.3882c0.68947,-0.28012 1.27134,-0.6891 1.74534,-1.22775c0.49556,-0.5602 0.88294,-1.2617 1.16304,-2.10199c0.28009,-0.86183 0.41977,-1.88433 0.41977,-3.06935c0,-1.18504 -0.13967,-2.20909 -0.41977,-3.07093c-0.2801,-0.86183 -0.66748,-1.56175 -1.16304,-2.10041c-0.47401,-0.56018 -1.05588,-0.96919 -1.74534,-1.22774c-0.66793,-0.28011 -1.40106,-0.41977 -2.19826,-0.41977c-0.79719,0 -1.54034,0.13966 -2.22981,0.41977zM268.44248,176.89421c-0.56019,0.23702 -1.03559,0.53797 -1.42342,0.90424c-0.36628,0.34475 -0.65721,0.7337 -0.87267,1.16461c-0.21545,0.43092 -0.37673,0.82832 -0.48447,1.1946c-0.10774,0.36626 -0.17257,0.6904 -0.19411,0.97051c-0.02154,0.25847 -0.03156,0.40817 -0.03156,0.45133h10.4705c0,-0.66792 -0.10647,-1.30303 -0.32192,-1.90631c-0.21546,-0.60331 -0.54962,-1.13035 -1.00208,-1.58281c-0.43092,-0.47401 -0.99117,-0.85139 -1.68065,-1.13148c-0.68947,-0.28011 -1.49744,-0.41977 -2.42392,-0.41977c-0.79719,0 -1.47551,0.11805 -2.03571,0.35506z" data-paper-data="{&quot;origPos&quot;:null}"/></g></g></svg>