<svg version="1.1" xmlns="http://www.w3.org/2000/svg" xmlns:xlink="http://www.w3.org/1999/xlink" width="372.21489" height="68.64262" viewBox="0,0,372.21489,68.64262"><g transform="translate(-53.89255,-145.67869)"><g data-paper-data="{&quot;isPaintingLayer&quot;:true}" fill-rule="nonzero" stroke-linecap="butt" stroke-linejoin="miter" stroke-dasharray="" style="mix-blend-mode: normal"><path d="M425.00973,146.42869c0.19313,0 0.34772,0.15458 0.34772,0.34772v66.4453c0,0.19313 -0.15458,0.34961 -0.34772,0.34961h-370.01757c-0.19313,0 -0.34961,-0.15647 -0.34961,-0.34961v-66.4453c0,-0.19313 0.15647,-0.34772 0.34961,-0.34772z" fill="#1e1e1e" stroke="#1eff00" stroke-width="1.5" stroke-miterlimit="4" stroke-dashoffset="17.35"/><path d="M69.34571,154.03906c0.23714,0 0.43597,0.08043 0.59766,0.24219c0.17247,0.16174 0.25977,0.36251 0.25977,0.59961c0,0.237 -0.08729,0.44068 -0.25977,0.61328c-0.1617,0.16176 -0.36053,0.24414 -0.59766,0.24414h-5.57812v3.50781h5.07617c0.23714,0 0.43792,0.08547 0.59961,0.25782c0.16169,0.16171 0.24219,0.3625 0.24219,0.59961c0,0.22646 -0.0805,0.42531 -0.24219,0.59765c-0.16167,0.16177 -0.36246,0.24219 -0.59961,0.24219h-5.07617v4.89844c0,0.25869 -0.09216,0.48567 -0.27539,0.67968c-0.18324,0.18319 -0.40826,0.2754 -0.67773,0.2754c-0.25871,0 -0.48567,-0.09221 -0.67969,-0.2754c-0.18326,-0.19401 -0.27539,-0.42099 -0.27539,-0.67968v-10.54102c0,-0.34489 0.12513,-0.64073 0.37305,-0.88867c0.24792,-0.24794 0.54859,-0.37305 0.9043,-0.37305zM102.72852,154.28125c0.17247,0.16174 0.25781,0.36251 0.25781,0.59961v11.05859c0,0.237 -0.08534,0.44264 -0.25781,0.61524c-0.1617,0.16176 -0.36053,0.24219 -0.59766,0.24219c-0.23714,0 -0.43792,-0.08043 -0.59961,-0.24219c-0.16169,-0.1725 -0.24219,-0.37813 -0.24219,-0.61524v-0.14453c-0.21559,0.18336 -0.42122,0.33949 -0.61523,0.46875c-0.18325,0.12926 -0.37723,0.23609 -0.58203,0.32227c-0.20481,0.07559 -0.42983,0.12985 -0.67774,0.16211c-0.24792,0.03225 -0.53405,0.04883 -0.85742,0.04883c-0.52817,0 -1.02963,-0.11358 -1.50391,-0.33985c-0.4635,-0.22637 -0.87281,-0.54548 -1.22851,-0.95508c-0.34493,-0.42038 -0.61942,-0.91504 -0.82422,-1.48633c-0.2048,-0.57128 -0.30859,-1.20271 -0.30859,-1.89257c0,-0.68987 0.09216,-1.31934 0.27539,-1.89063c0.18324,-0.58207 0.44319,-1.07868 0.77734,-1.48828c0.34493,-0.42046 0.75423,-0.74443 1.22851,-0.9707c0.47428,-0.22627 1.00191,-0.33789 1.58398,-0.33789c0.44194,0 0.82506,0.05231 1.14844,0.16015c0.32337,0.10777 0.59301,0.23775 0.80859,0.38868c0.21558,0.14017 0.38143,0.27982 0.5,0.41992c0.12936,0.14009 0.2215,0.24383 0.27539,0.30859v-3.83203c0,-0.23708 0.0805,-0.43785 0.24219,-0.59961c0.1617,-0.16176 0.36248,-0.24219 0.59961,-0.24219c0.23713,0 0.43597,0.08043 0.59766,0.24219zM136.57031,154.03906c0.63597,0 1.27224,0.10854 1.90821,0.32422c0.63596,0.21559 1.20627,0.57542 1.71289,1.08203c0.50661,0.49585 0.91592,1.15346 1.22851,1.97266c0.31259,0.80844 0.46875,1.8065 0.46875,2.99219c0,1.19647 -0.15616,2.20421 -0.46875,3.02343c-0.31259,0.80842 -0.7219,1.46605 -1.22851,1.97266c-0.50662,0.49575 -1.07693,0.85072 -1.71289,1.06641c-0.63597,0.21568 -1.27224,0.32422 -1.90821,0.32422h-3.83203c-0.16169,0 -0.31784,-0.02811 -0.46875,-0.08204c-0.1509,-0.0645 -0.28572,-0.14997 -0.4043,-0.25781c-0.11855,-0.10772 -0.21555,-0.24253 -0.29101,-0.4043c-0.07544,-0.16168 -0.11328,-0.33918 -0.11328,-0.5332v-10.21875c0,-0.34489 0.12318,-0.64073 0.37109,-0.88867c0.24792,-0.24794 0.55054,-0.37305 0.90625,-0.37305zM144.36133,154.31445c0.19401,0.18323 0.29101,0.41021 0.29101,0.67969c0,0.2587 -0.097,0.48372 -0.29101,0.67774c-0.18325,0.18318 -0.40342,0.27539 -0.66211,0.27539c-0.26949,0 -0.5013,-0.09221 -0.69531,-0.27539c-0.18326,-0.19402 -0.27539,-0.41904 -0.27539,-0.67774c0,-0.26953 0.09213,-0.49651 0.27539,-0.67969c0.19402,-0.18318 0.42583,-0.27539 0.69531,-0.27539c0.25868,0 0.47885,0.09221 0.66211,0.27539zM133.36914,165.09961h2.82813c0.63596,0 1.19173,-0.10853 1.66601,-0.32422c0.47428,-0.22634 0.86709,-0.53866 1.17969,-0.9375c0.31259,-0.4096 0.54441,-0.89941 0.69531,-1.4707c0.15091,-0.58207 0.22656,-1.23484 0.22656,-1.95703c0,-0.71141 -0.07565,-1.35254 -0.22656,-1.92383c-0.15091,-0.58207 -0.38272,-1.07382 -0.69531,-1.47266c-0.3126,-0.4095 -0.70541,-0.72181 -1.17969,-0.9375c-0.47428,-0.22627 -1.03005,-0.33789 -1.66601,-0.33789h-2.82813zM81.95313,157.59766c0.53895,0.18323 1.00258,0.45091 1.39062,0.80664c0.39882,0.34492 0.71308,0.77073 0.93945,1.27734c0.22637,0.50663 0.33789,1.08374 0.33789,1.73047c0,0.39879 -0.097,0.7014 -0.29102,0.90625c-0.19402,0.20485 -0.41904,0.30664 -0.67773,0.30664h-5.91797c0,0.02142 0.00479,0.11363 0.01562,0.27539c0.02154,0.1508 0.05938,0.33314 0.11328,0.54883c0.06468,0.21556 0.15002,0.44737 0.25781,0.69531c0.11858,0.2371 0.27669,0.45921 0.4707,0.66406c0.19402,0.20483 0.43068,0.37749 0.71094,0.51758c0.29103,0.12926 0.64118,0.19336 1.05078,0.19336c0.33416,0 0.62029,-0.02616 0.85742,-0.08008c0.23715,-0.05392 0.44567,-0.13629 0.62891,-0.24414c0.18325,-0.10771 0.35105,-0.24253 0.50195,-0.40429c0.15091,-0.17255 0.30222,-0.37139 0.45312,-0.59766c0.08622,-0.12926 0.18322,-0.22147 0.29102,-0.27539c0.10779,-0.05392 0.22127,-0.08008 0.33984,-0.08008c0.19402,0 0.37151,0.07084 0.5332,0.21094c0.16169,0.14002 0.24219,0.31752 0.24219,0.5332c0,0.12934 -0.07082,0.32331 -0.21094,0.58203c-0.14013,0.2587 -0.36514,0.5167 -0.67773,0.77539c-0.30181,0.2587 -0.69658,0.48567 -1.18164,0.67969c-0.48506,0.19402 -1.0767,0.29102 -1.77734,0.29102c-0.71142,0 -1.34769,-0.12998 -1.9082,-0.38868c-0.56051,-0.25869 -1.03383,-0.60398 -1.42187,-1.03515c-0.37727,-0.44193 -0.66825,-0.95309 -0.87305,-1.53516c-0.19402,-0.58207 -0.29102,-1.19215 -0.29102,-1.82812c0,-0.65751 0.10184,-1.27731 0.30664,-1.85938c0.2048,-0.59285 0.49578,-1.10401 0.87305,-1.53515c0.38805,-0.43117 0.85167,-0.76965 1.39063,-1.01758c0.53895,-0.2587 1.14224,-0.38867 1.81055,-0.38867c0.61441,0 1.18472,0.09221 1.71289,0.27539zM91.37696,157.59766c0.53895,0.18323 1.00258,0.45091 1.39062,0.80664c0.39882,0.34492 0.71113,0.77073 0.9375,1.27734c0.22637,0.50663 0.33984,1.08374 0.33984,1.73047c0,0.39879 -0.097,0.7014 -0.29102,0.90625c-0.19402,0.20485 -0.42099,0.30664 -0.67969,0.30664h-5.91797c0,0.02142 0.00674,0.11363 0.01758,0.27539c0.02154,0.1508 0.05938,0.33314 0.11328,0.54883c0.06468,0.21556 0.15002,0.44737 0.25781,0.69531c0.11858,0.2371 0.27473,0.45921 0.46875,0.66406c0.19402,0.20483 0.43068,0.37749 0.71094,0.51758c0.29103,0.12926 0.64313,0.19336 1.05273,0.19336c0.33416,0 0.61834,-0.02616 0.85547,-0.08008c0.23715,-0.05392 0.44763,-0.13629 0.63086,-0.24414c0.18325,-0.10771 0.35105,-0.24253 0.50195,-0.40429c0.15091,-0.17255 0.30222,-0.37139 0.45312,-0.59766c0.08622,-0.12926 0.18322,-0.22147 0.29102,-0.27539c0.10779,-0.05392 0.21931,-0.08008 0.33789,-0.08008c0.19402,0 0.37347,0.07084 0.53516,0.21094c0.16169,0.14002 0.24219,0.31752 0.24219,0.5332c0,0.12934 -0.07082,0.32331 -0.21094,0.58203c-0.14013,0.2587 -0.36514,0.5167 -0.67773,0.77539c-0.30181,0.2587 -0.69658,0.48567 -1.18164,0.67969c-0.48506,0.19402 -1.07671,0.29102 -1.77734,0.29102c-0.71142,0 -1.34769,-0.12998 -1.9082,-0.38868c-0.56051,-0.25869 -1.03578,-0.60398 -1.42383,-1.03515c-0.37727,-0.44193 -0.66825,-0.95309 -0.87305,-1.53516c-0.19402,-0.58207 -0.29102,-1.19215 -0.29102,-1.82812c0,-0.65751 0.10379,-1.27731 0.30859,-1.85938c0.2048,-0.59285 0.49578,-1.10401 0.87305,-1.53515c0.38805,-0.43117 0.84972,-0.76965 1.38867,-1.01758c0.53895,-0.2587 1.1442,-0.38867 1.8125,-0.38867c0.61441,0 1.18472,0.09221 1.71289,0.27539zM110.26562,157.64453c0.54974,0.21559 1.02306,0.5279 1.42188,0.9375c0.39882,0.40963 0.71113,0.91108 0.9375,1.50391c0.22637,0.59285 0.33984,1.2718 0.33984,2.03711c0,0.76533 -0.11347,1.44427 -0.33984,2.03711c-0.22636,0.59285 -0.53867,1.0943 -0.9375,1.5039c-0.39882,0.39897 -0.87214,0.70644 -1.42188,0.92188c-0.53895,0.21568 -1.1277,0.32422 -1.76367,0.32422c-0.63596,0 -1.22761,-0.10854 -1.77734,-0.32422c-0.53895,-0.21556 -1.00938,-0.52304 -1.4082,-0.92188c-0.39882,-0.4096 -0.71114,-0.91105 -0.9375,-1.5039c-0.22637,-0.59284 -0.33985,-1.27178 -0.33985,-2.03711c0,-0.76531 0.11348,-1.44426 0.33985,-2.03711c0.22635,-0.59283 0.53867,-1.09428 0.9375,-1.50391c0.39882,-0.4095 0.86925,-0.72181 1.4082,-0.9375c0.54973,-0.21568 1.14138,-0.32226 1.77734,-0.32226c0.63597,0 1.22472,0.10658 1.76367,0.32226zM159.68164,157.59766c0.53895,0.18323 1.00258,0.45091 1.39063,0.80664c0.39881,0.34492 0.71113,0.77073 0.9375,1.27734c0.22636,0.50663 0.33984,1.08374 0.33984,1.73047c0,0.39879 -0.097,0.7014 -0.29102,0.90625c-0.19402,0.20485 -0.42099,0.30664 -0.67968,0.30664h-5.91797c0,0.02142 0.00479,0.11363 0.01562,0.27539c0.02155,0.1508 0.05939,0.33314 0.11328,0.54883c0.06468,0.21556 0.15198,0.44737 0.25977,0.69531c0.11858,0.2371 0.27473,0.45921 0.46875,0.66406c0.19402,0.20483 0.43068,0.37749 0.71094,0.51758c0.29103,0.12926 0.64117,0.19336 1.05078,0.19336c0.33414,0 0.62027,-0.02616 0.85742,-0.08008c0.23715,-0.05392 0.44763,-0.13629 0.63086,-0.24414c0.18325,-0.10771 0.3491,-0.24253 0.5,-0.40429c0.15091,-0.17255 0.30222,-0.37139 0.45312,-0.59766c0.08623,-0.12926 0.18323,-0.22147 0.29102,-0.27539c0.10779,-0.05392 0.22127,-0.08008 0.33984,-0.08008c0.19402,0 0.37152,0.07084 0.53321,0.21094c0.16169,0.14002 0.24218,0.31752 0.24218,0.5332c0,0.12934 -0.06886,0.32331 -0.20898,0.58203c-0.14013,0.2587 -0.3671,0.5167 -0.67969,0.77539c-0.30181,0.2587 -0.69463,0.48567 -1.17968,0.67969c-0.48506,0.19402 -1.07866,0.29102 -1.7793,0.29102c-0.71142,0 -1.34769,-0.12998 -1.9082,-0.38868c-0.56052,-0.25869 -1.03383,-0.60398 -1.42188,-1.03515c-0.37727,-0.44193 -0.66825,-0.95309 -0.87305,-1.53516c-0.19401,-0.58207 -0.29101,-1.19215 -0.29101,-1.82812c0,-0.65751 0.10184,-1.27731 0.30664,-1.85938c0.2048,-0.59285 0.49578,-1.10401 0.87304,-1.53515c0.38805,-0.43117 0.85168,-0.76965 1.39063,-1.01758c0.53895,-0.2587 1.14225,-0.38867 1.81055,-0.38867c0.6144,0 1.18667,0.09221 1.71484,0.27539zM72.61328,157.69336c0.16169,0.16171 0.24219,0.36251 0.24219,0.59961v0.30664c0.04311,-0.04334 0.12361,-0.13051 0.24219,-0.25977c0.11856,-0.12943 0.26307,-0.25746 0.43555,-0.38672c0.18324,-0.14009 0.38402,-0.25846 0.59961,-0.35546c0.22637,-0.10785 0.46303,-0.16211 0.71094,-0.16211c0.23713,0 0.43597,0.08546 0.59766,0.25781c0.17247,0.16171 0.25977,0.36055 0.25977,0.59766c0,0.22646 -0.08729,0.42726 -0.25977,0.5996c-0.16169,0.16177 -0.36053,0.24219 -0.59766,0.24219c-0.4096,0 -0.74325,0.097 -1.00195,0.29102c-0.2587,0.18323 -0.46433,0.40341 -0.61523,0.66211c-0.14012,0.25869 -0.23712,0.52833 -0.29101,0.80859c-0.0539,0.28032 -0.08008,0.51213 -0.08008,0.69531v4.34961c0,0.237 -0.0805,0.44264 -0.24219,0.61524c-0.16167,0.16176 -0.36246,0.24219 -0.59961,0.24219c-0.23713,0 -0.44081,-0.08043 -0.61328,-0.24219c-0.16169,-0.1725 -0.24414,-0.37813 -0.24414,-0.61524v-7.64648c0,-0.23705 0.08245,-0.43785 0.24414,-0.59961c0.17248,-0.17235 0.37615,-0.25781 0.61328,-0.25781c0.23714,0 0.43792,0.08546 0.59961,0.25781zM115.37109,157.69336c0.16169,0.16171 0.24219,0.36251 0.24219,0.59961v0.35547c0.06468,-0.07559 0.15682,-0.18413 0.27539,-0.32422c0.12935,-0.14022 0.2952,-0.27504 0.5,-0.4043c0.2048,-0.12926 0.44826,-0.24283 0.72852,-0.33984c0.29103,-0.09701 0.62953,-0.14453 1.01758,-0.14453c0.53895,0 1.00257,0.14452 1.39062,0.43554c0.38804,0.28027 0.69067,0.6304 0.90625,1.05079c0.29103,-0.52828 0.65767,-0.9046 1.09961,-1.13086c0.45272,-0.23711 0.98036,-0.35547 1.58398,-0.35547c0.38805,0 0.74304,0.05905 1.06641,0.17773c0.33414,0.10787 0.62027,0.27569 0.85742,0.50195c0.24793,0.22637 0.44191,0.50569 0.58203,0.83985c0.14012,0.33413 0.21094,0.72211 0.21094,1.16406v5.82031c0,0.237 -0.0805,0.44264 -0.24219,0.61524c-0.16169,0.16176 -0.36248,0.24219 -0.59961,0.24219c-0.23713,0 -0.4408,-0.08043 -0.61328,-0.24219c-0.16169,-0.1725 -0.24218,-0.37813 -0.24218,-0.61524v-5.74023c0,-0.37727 -0.12514,-0.69927 -0.37305,-0.96875c-0.24792,-0.26948 -0.57672,-0.4043 -0.98633,-0.4043c-0.35571,0 -0.66318,0.06889 -0.92187,0.20899c-0.2587,0.12943 -0.47402,0.30888 -0.64649,0.53515c-0.16169,0.22635 -0.28487,0.48434 -0.37109,0.77539c-0.07544,0.29103 -0.11328,0.59171 -0.11328,0.9043v4.68945c0,0.237 -0.0805,0.44264 -0.24219,0.61524c-0.16167,0.16176 -0.36246,0.24219 -0.59961,0.24219c-0.23713,0 -0.44081,-0.08043 -0.61328,-0.24219c-0.16169,-0.1725 -0.24219,-0.37813 -0.24219,-0.61524v-5.74023c0,-0.37727 -0.11834,-0.69927 -0.35547,-0.96875c-0.23714,-0.26948 -0.57274,-0.4043 -1.0039,-0.4043c-0.35571,0 -0.66318,0.06889 -0.92188,0.20899c-0.25869,0.12943 -0.47401,0.30888 -0.64648,0.53515c-0.16169,0.22635 -0.28487,0.48434 -0.3711,0.77539c-0.07546,0.29103 -0.11328,0.59171 -0.11328,0.9043v4.68945c0,0.237 -0.0805,0.44264 -0.24219,0.61524c-0.16169,0.16176 -0.36248,0.24219 -0.59961,0.24219c-0.23713,0 -0.4408,-0.08043 -0.61328,-0.24219c-0.16169,-0.1725 -0.24218,-0.37813 -0.24218,-0.61524v-7.64648c0,-0.23705 0.08049,-0.43785 0.24218,-0.59961c0.17246,-0.17235 0.37613,-0.25781 0.61328,-0.25781c0.23714,0 0.43793,0.08546 0.59961,0.25781zM144.29688,157.69336c0.16168,0.16171 0.24218,0.36251 0.24218,0.59961v7.64648c0,0.237 -0.0805,0.44264 -0.24218,0.61524c-0.1617,0.16176 -0.36053,0.24219 -0.59766,0.24219c-0.23713,0 -0.44276,-0.08043 -0.61524,-0.24219c-0.16168,-0.1725 -0.24218,-0.37813 -0.24218,-0.61524v-7.64648c0,-0.23705 0.0805,-0.43785 0.24218,-0.59961c0.17246,-0.17235 0.37809,-0.25781 0.61524,-0.25781c0.23713,0 0.43597,0.08546 0.59766,0.25781zM146.73242,157.59766c0.15091,0.09713 0.25275,0.23195 0.30664,0.40429l2.2793,6.85547l2.26367,-6.85547c0.0539,-0.17247 0.15769,-0.30729 0.30859,-0.40429c0.15092,-0.10785 0.31677,-0.16211 0.5,-0.16211c0.06469,0 0.14518,0.01657 0.24219,0.04883c0.10779,0.02141 0.20479,0.06415 0.29102,0.1289c0.08622,0.06451 0.16188,0.15671 0.22656,0.27539c0.06468,0.10772 0.09766,0.24253 0.09766,0.4043c0,0.08617 -0.0165,0.17643 -0.04883,0.27344l-2.61914,7.29297c-0.10779,0.28011 -0.26879,0.50708 -0.48438,0.67968c-0.21558,0.17235 -0.47553,0.25782 -0.77734,0.25782c-0.31259,0 -0.57543,-0.08547 -0.79102,-0.25782c-0.21558,-0.17247 -0.37853,-0.39945 -0.48632,-0.67968l-2.60157,-7.29297c-0.03232,-0.09701 -0.04883,-0.18727 -0.04883,-0.27344c0,-0.07534 0.01651,-0.16276 0.04883,-0.25977c0.03233,-0.097 0.07985,-0.18726 0.14453,-0.27343c0.06468,-0.09701 0.15198,-0.17265 0.25977,-0.22657c0.10779,-0.06475 0.23581,-0.09765 0.38672,-0.09765c0.18325,0 0.35105,0.05426 0.50195,0.16211zM79.25391,158.89062c-0.28026,0.11866 -0.51692,0.26995 -0.71094,0.45313c-0.18324,0.17235 -0.32971,0.36635 -0.4375,0.58203c-0.10779,0.21566 -0.18829,0.41448 -0.24219,0.59766c-0.05384,0.18325 -0.08682,0.34428 -0.09766,0.48437c-0.01083,0.12825 -0.01562,0.20389 -0.01562,0.22657h5.23828c0,-0.33417 -0.05432,-0.65132 -0.16211,-0.95313c-0.10778,-0.30191 -0.27363,-0.5667 -0.5,-0.79297c-0.21558,-0.23718 -0.49687,-0.42631 -0.8418,-0.5664c-0.34442,-0.13989 -0.7483,-0.20878 -1.21094,-0.20899h-0.00195c-0.39792,0.00021 -0.73781,0.05927 -1.01758,0.17773zM88.67774,158.89062c-0.28026,0.11866 -0.51887,0.26995 -0.71289,0.45313c-0.18324,0.17235 -0.32775,0.36635 -0.43555,0.58203c-0.10779,0.21566 -0.18829,0.41448 -0.24219,0.59766c-0.05384,0.18325 -0.08682,0.34428 -0.09766,0.48437c-0.01083,0.12825 -0.01562,0.20389 -0.01562,0.22657h5.23828c0,-0.33417 -0.05432,-0.65132 -0.16211,-0.95313c-0.10778,-0.30191 -0.27363,-0.5667 -0.5,-0.79297c-0.21558,-0.23718 -0.49687,-0.42631 -0.8418,-0.5664c-0.34493,-0.1401 -0.74939,-0.20899 -1.21289,-0.20899c-0.39882,0 -0.73732,0.05906 -1.01758,0.17773zM107.38672,158.92188c-0.33416,0.12936 -0.62514,0.33499 -0.87305,0.61523c-0.23715,0.26948 -0.42628,0.61961 -0.5664,1.05078c-0.14012,0.43117 -0.20899,0.94233 -0.20899,1.53516c0,0.59285 0.06887,1.10594 0.20899,1.53711c0.14011,0.42038 0.32925,0.77054 0.5664,1.05078c0.24792,0.2695 0.5389,0.47514 0.87305,0.61523c0.34493,0.12926 0.71641,0.19336 1.11523,0.19336c0.39883,0 0.76546,-0.0641 1.09961,-0.19336c0.34492,-0.14012 0.6359,-0.34575 0.87305,-0.61523c0.24793,-0.28024 0.44191,-0.6304 0.58203,-1.05078c0.14012,-0.43117 0.21094,-0.94426 0.21094,-1.53711c0,-0.59283 -0.07082,-1.10399 -0.21094,-1.53516c-0.14013,-0.43117 -0.33412,-0.7813 -0.58203,-1.05078c-0.23714,-0.28034 -0.52812,-0.48598 -0.87305,-0.61523c-0.33415,-0.1401 -0.70078,-0.20899 -1.09961,-0.20899c-0.39882,0 -0.7703,0.06889 -1.11523,0.20899zM156.98047,158.89062c-0.28026,0.11866 -0.51692,0.26995 -0.71094,0.45313c-0.18324,0.17235 -0.32971,0.36635 -0.4375,0.58203c-0.10779,0.21566 -0.18829,0.41448 -0.24219,0.59766c-0.05384,0.18325 -0.08486,0.34428 -0.0957,0.48437c-0.01083,0.12825 -0.01758,0.20389 -0.01758,0.22657h5.23828c0,-0.33417 -0.05236,-0.65132 -0.16015,-0.95313c-0.10778,-0.30191 -0.27559,-0.5667 -0.50196,-0.79297c-0.21558,-0.23718 -0.49491,-0.42631 -0.83984,-0.5664c-0.34493,-0.1401 -0.74939,-0.20899 -1.21289,-0.20899c-0.39882,0 -0.73927,0.05906 -1.01953,0.17773zM97.74805,159.09961c-0.31258,0.18323 -0.58222,0.43155 -0.80859,0.74414c-0.21557,0.30183 -0.38142,0.65197 -0.5,1.05078c-0.10779,0.38803 -0.16211,0.79735 -0.16211,1.22852c0,0.42038 0.05432,0.83162 0.16211,1.23047c0.11857,0.39881 0.28442,0.74897 0.5,1.05078c0.22636,0.30188 0.496,0.54338 0.80859,0.72656c0.31259,0.18318 0.67438,0.27539 1.08398,0.27539c0.4096,0 0.76944,-0.09221 1.08203,-0.27539c0.32337,-0.18326 0.59301,-0.42476 0.8086,-0.72656c0.21558,-0.30181 0.37853,-0.65197 0.48632,-1.05078c0.11858,-0.39885 0.17774,-0.81009 0.17774,-1.23047c0,-0.43117 -0.05916,-0.84049 -0.17774,-1.22852c-0.10778,-0.39881 -0.27074,-0.74895 -0.48632,-1.05078c-0.21559,-0.31264 -0.48523,-0.56096 -0.8086,-0.74414c-0.31259,-0.18318 -0.67243,-0.27344 -1.08203,-0.27344c-0.4096,0 -0.77139,0.09026 -1.08398,0.27344zM68.08399,168.70898c0.4635,0 0.90579,0.08238 1.32617,0.24414c0.43116,0.15093 0.80944,0.36625 1.13281,0.64649c0.32338,0.26948 0.58137,0.59148 0.77539,0.96875c0.19402,0.37727 0.29102,0.78175 0.29102,1.21289c0,0.45274 -0.064,0.83585 -0.19336,1.14844c-0.11858,0.31254 -0.27473,0.57054 -0.46875,0.77539c-0.19403,0.2049 -0.41615,0.37269 -0.66406,0.50195c-0.24792,0.11843 -0.49623,0.22721 -0.74414,0.32422c0.19402,0.06476 0.42584,0.17134 0.69531,0.32227c0.28025,0.14014 0.54989,0.34091 0.80859,0.5996c0.25871,0.2587 0.48083,0.59236 0.66406,1.00196c0.18323,0.39881 0.27344,0.88863 0.27344,1.4707c0,0.52818 -0.10668,1.00829 -0.32227,1.43945c-0.21558,0.43117 -0.50171,0.80265 -0.85742,1.11524c-0.35571,0.31269 -0.76986,0.55617 -1.24414,0.72851c-0.4635,0.17235 -0.95526,0.25782 -1.47266,0.25782h-4.94726c-0.15091,0 -0.30222,-0.02137 -0.45312,-0.06446c-0.15089,-0.05392 -0.29056,-0.12955 -0.41992,-0.22656c-0.11855,-0.10772 -0.21555,-0.24253 -0.29102,-0.4043c-0.07546,-0.16178 -0.11328,-0.35576 -0.11328,-0.58203v-10.21875c0,-0.097 0.0165,-0.21537 0.04883,-0.35547c0.03235,-0.151 0.09151,-0.29066 0.17773,-0.41992c0.09701,-0.14009 0.22698,-0.25367 0.38867,-0.33984c0.17246,-0.09701 0.38779,-0.14649 0.64648,-0.14649zM95.67578,169.04883c0.23713,0.22637 0.35547,0.50084 0.35547,0.82422c0,0.32345 -0.11834,0.5999 -0.35547,0.82617c-0.22636,0.22627 -0.5028,0.33789 -0.82617,0.33789c-0.31258,0 -0.58707,-0.11162 -0.82422,-0.33789c-0.22637,-0.22634 -0.33984,-0.5028 -0.33984,-0.82617c0,-0.32348 0.11347,-0.59795 0.33984,-0.82422c0.23714,-0.22627 0.51163,-0.33985 0.82422,-0.33985c0.32336,0 0.5998,0.11358 0.82617,0.33985zM64.33399,173.80273h3.31445c0.20481,0 0.3988,-0.03794 0.58203,-0.11328c0.18323,-0.07559 0.33939,-0.17738 0.46875,-0.30664c0.14012,-0.14019 0.2468,-0.30314 0.32226,-0.48633c0.07546,-0.18318 0.11328,-0.37718 0.11328,-0.58203c0,-0.20487 -0.03782,-0.39885 -0.11328,-0.58203c-0.07546,-0.18333 -0.18215,-0.33949 -0.32226,-0.46875c-0.12936,-0.14009 -0.28552,-0.24667 -0.46875,-0.32226c-0.18325,-0.07534 -0.37723,-0.11329 -0.58203,-0.11329h-3.31445zM80.04883,172.42773c0.2587,0.21559 0.38867,0.50656 0.38867,0.87305c0,0.10784 -0.0165,0.21159 -0.04883,0.3086l-2.97461,9.27929c-0.1509,0.45271 -0.34004,0.80967 -0.56641,1.06836c-0.21558,0.25875 -0.45224,0.45756 -0.71094,0.59766c-0.2587,0.14009 -0.53318,0.22751 -0.82422,0.25976c-0.28025,0.04309 -0.54989,0.06446 -0.80859,0.06446h-0.8418c-0.2048,0 -0.38714,-0.03795 -0.54883,-0.11329c-0.1509,-0.07559 -0.28572,-0.17259 -0.4043,-0.29101c-0.10779,-0.11855 -0.19508,-0.25337 -0.25976,-0.4043c-0.0539,-0.14012 -0.08008,-0.28657 -0.08008,-0.4375c0,-0.21556 0.064,-0.3979 0.19336,-0.54883c0.14013,-0.15092 0.3574,-0.22656 0.64844,-0.22656v-0.00195c0.28026,0 0.5431,-0.00555 0.79101,-0.01563c0.2587,-0.01058 0.48567,-0.04657 0.67969,-0.11132c0.19402,-0.06476 0.34533,-0.1685 0.45312,-0.3086c0.11858,-0.12933 0.17773,-0.31651 0.17773,-0.56445c0,-0.15098 -0.02134,-0.31877 -0.06445,-0.50195c-0.04311,-0.18321 -0.11393,-0.39855 -0.21094,-0.64649l-2.69922,-6.85547c-0.06468,-0.16174 -0.09766,-0.33439 -0.09766,-0.51758c0,-0.12938 0.02134,-0.2642 0.06445,-0.40429c0.04311,-0.14027 0.10713,-0.27025 0.19336,-0.38867c0.09701,-0.11868 0.22214,-0.21568 0.37305,-0.29102c0.16168,-0.08617 0.35566,-0.12891 0.58203,-0.12891c0.23714,0 0.45731,0.0641 0.66211,0.19336c0.20479,0.1186 0.34446,0.2961 0.41992,0.53321l1.99023,6.14453l1.55078,-6.12696c0.06467,-0.24801 0.1995,-0.43714 0.4043,-0.5664c0.21559,-0.12926 0.4474,-0.19336 0.69531,-0.19336c0.32337,0 0.61435,0.10658 0.87305,0.32226zM87.06055,172.20312c0.12936,0.05393 0.23799,0.14614 0.32422,0.2754l1.66406,2.60156l1.65039,-2.60156c0.08622,-0.12926 0.18806,-0.22147 0.30664,-0.2754c0.12935,-0.06475 0.26902,-0.09765 0.41992,-0.09765c0.26948,0 0.5013,0.09221 0.69531,0.27539c0.2048,0.18323 0.30664,0.41021 0.30664,0.67969c0,0.17249 -0.04752,0.32865 -0.14453,0.46875l-2.21484,3.08789l2.61914,3.31445c0.05379,0.0645 0.09161,0.13339 0.11328,0.20898c0.02167,0.0756 0.03125,0.15797 0.03125,0.24415c0,0.097 -0.02134,0.20863 -0.06445,0.33789c-0.04311,0.11842 -0.11198,0.23679 -0.20898,0.35546c-0.08622,0.10785 -0.20456,0.20006 -0.35547,0.2754c-0.1509,0.07533 -0.3352,0.11328 -0.55078,0.11328c-0.1509,0 -0.28572,-0.02616 -0.4043,-0.08008c-0.11858,-0.05392 -0.22042,-0.14613 -0.30664,-0.27539l-1.89258,-2.94336l-1.90625,2.94336c-0.08622,0.12926 -0.19002,0.22147 -0.30859,0.27539c-0.11857,0.05392 -0.25339,0.08008 -0.4043,0.08008c-0.12936,0 -0.26418,-0.02137 -0.4043,-0.06446c-0.12934,-0.05392 -0.25252,-0.12476 -0.37109,-0.21093c-0.11855,-0.08643 -0.21555,-0.19301 -0.29102,-0.32227c-0.07546,-0.14019 -0.11328,-0.30315 -0.11328,-0.48633c0,-0.08642 0.01153,-0.16685 0.0332,-0.24219c0.02154,-0.07533 0.05938,-0.14422 0.11328,-0.20898l2.61914,-3.31641l-2.2168,-3.08593c-0.09701,-0.14025 -0.14453,-0.29641 -0.14453,-0.46875c0,-0.26953 0.097,-0.49651 0.29101,-0.67969c0.2048,-0.18318 0.44146,-0.27539 0.71094,-0.27539c0.1509,0 0.28572,0.0329 0.4043,0.09765zM95.67578,172.67188c0.23713,0.22636 0.35547,0.50084 0.35547,0.82421v6.80664c0,0.32346 -0.11834,0.59796 -0.35547,0.82422c-0.22636,0.22627 -0.5028,0.33985 -0.82617,0.33985c-0.32336,0 -0.59785,-0.11358 -0.82422,-0.33985c-0.22637,-0.23712 -0.33984,-0.51162 -0.33984,-0.82422v-6.80664c0,-0.32347 0.11347,-0.59795 0.33984,-0.82421c0.23714,-0.23711 0.51163,-0.35743 0.82422,-0.35743c0.32336,0 0.5998,0.12032 0.82617,0.35743zM64.33399,179.33203h3.37891c0.24792,0 0.47973,-0.04752 0.69531,-0.14453c0.22636,-0.09693 0.42034,-0.22691 0.58203,-0.38867c0.16169,-0.16159 0.29166,-0.35072 0.38867,-0.56641c0.09701,-0.21556 0.14453,-0.44737 0.14453,-0.69531c0,-0.24781 -0.04752,-0.47963 -0.14453,-0.69531c-0.09701,-0.2263 -0.22698,-0.42027 -0.38867,-0.58203c-0.16168,-0.16169 -0.35566,-0.28972 -0.58203,-0.38672c-0.21559,-0.09701 -0.4474,-0.14649 -0.69531,-0.14649h-3.37891z" fill="#1eff00" stroke="none" stroke-width="1.01053" stroke-miterlimit="10" stroke-dashoffset="0"/></g></g></svg>