<svg version="1.1" xmlns="http://www.w3.org/2000/svg" xmlns:xlink="http://www.w3.org/1999/xlink" width="200.07268" height="101.1585"><g transform="translate(66.28511,-283.79654)"><g data-paper-data="{&quot;isPaintingLayer&quot;:true}" fill-rule="nonzero" stroke-linecap="butt" stroke-linejoin="miter" stroke-dasharray="" style="mix-blend-mode: normal"><g data-paper-data="{&quot;origPos&quot;:null}"><path d="M-63.69191,286.29654h194.88628c0.0516,0 0.0932,0.0416 0.0932,0.0932v95.9721c0,0.0516 -0.0416,0.0932 -0.0932,0.0932h-194.88628c-0.0516,0 -0.0932,-0.0416 -0.0932,-0.0932v-95.9721c0,-0.0516 0.0416,-0.0932 0.0932,-0.0932z" data-paper-data="{&quot;origPos&quot;:null}" id="rect1596-9" fill="#1e1e1e" stroke="#1eff00" stroke-width="5" stroke-miterlimit="4" stroke-dashoffset="17.35"/><path d="M28.19992,296.02464c1.78824,0 3.36491,0.25908 4.73047,0.77929c1.39808,0.52022 2.56883,1.23611 3.51172,2.14649c0.94289,0.87786 1.65878,1.93441 2.14649,3.16992c0.4877,1.203 0.73046,2.50426 0.73046,3.90234c0,1.23552 -0.17751,2.30838 -0.53515,3.21875c-0.32514,0.91038 -0.76563,1.70589 -1.31836,2.38867c-0.52021,0.65028 -1.1219,1.18671 -1.80469,1.60938c-0.65027,0.39016 -1.31526,0.68382 -1.99805,0.87891c1.36557,0.45518 2.50369,1.04056 3.41407,1.75586c0.91038,0.68278 1.64063,1.44566 2.19336,2.29101c0.55273,0.84535 0.94428,1.75702 1.17187,2.73242c0.22759,0.97541 0.33984,1.95038 0.33984,2.92578c0,1.59316 -0.32433,3.03931 -0.9746,4.33985c-0.65027,1.30054 -1.54367,2.42234 -2.68164,3.36523c-1.10546,0.9429 -2.42304,1.6751 -3.95118,2.19532c-1.49562,0.52021 -3.10491,0.77929 -4.82812,0.77929h-14.24024c-0.4877,0 -0.96082,-0.08157 -1.41601,-0.24414c-0.45519,-0.19508 -0.86111,-0.45416 -1.21875,-0.7793c-0.35766,-0.32513 -0.64936,-0.73104 -0.87696,-1.21875c-0.22759,-0.4877 -0.34179,-1.02413 -0.34179,-1.60937v-30.82422c0,-1.04043 0.37328,-1.93383 1.12109,-2.68164c0.74781,-0.74781 1.65948,-1.12109 2.73242,-1.12109zM102.18039,296.7551c0.4877,0.48771 0.73242,1.08939 0.73242,1.80469v18.63086l11.94727,-10.38867c0.45519,-0.35765 0.95899,-0.53711 1.51172,-0.53711c0.52021,0 1.02597,0.19578 1.51367,0.58594c0.48771,0.39016 0.73047,0.9429 0.73047,1.6582c0,0.65027 -0.25908,1.20301 -0.7793,1.6582l-7.46289,6.4375l9.85156,13.94922c0.29263,0.45519 0.43946,0.94268 0.43946,1.46289c0,0.4552 -0.08158,0.84479 -0.24414,1.16993c-0.16258,0.29262 -0.37466,0.53734 -0.63477,0.73242c-0.26011,0.19508 -0.5355,0.33996 -0.82812,0.4375c-0.29262,0.09754 -0.56997,0.14648 -0.83008,0.14648c-0.42268,0 -0.81228,-0.08157 -1.16992,-0.24414c-0.35765,-0.16257 -0.66567,-0.42165 -0.92579,-0.7793l-9.36523,-13.55859l-3.75391,3.21875v8.7793c0,0.7153 -0.24472,1.3333 -0.73242,1.85351c-0.4877,0.4877 -1.08939,0.73047 -1.80468,0.73047c-0.71531,0 -1.33331,-0.24277 -1.85352,-0.73047c-0.4877,-0.52021 -0.73047,-1.13821 -0.73047,-1.85351v-33.35938c0,-0.7153 0.24277,-1.31699 0.73047,-1.80469c0.52021,-0.4877 1.13821,-0.73046 1.85352,-0.73046c0.71529,0 1.31698,0.24277 1.80468,0.73046zM16.00656,312.02073h11.46094c0.81284,0 1.6103,-0.13051 2.39063,-0.39063c0.78032,-0.2601 1.46358,-0.61707 2.04882,-1.07226c0.58524,-0.48771 1.05642,-1.05677 1.41407,-1.70703c0.35765,-0.68278 0.53711,-1.4313 0.53711,-2.24414c0,-1.59316 -0.50575,-2.89247 -1.51368,-3.90039c-1.00792,-1.04044 -2.47037,-1.56055 -4.38867,-1.56055h-11.94922zM63.81321,307.92307c1.98332,1.30054 2.9746,3.23612 2.9746,5.80469v18.19141c0,0.7153 -0.24472,1.3333 -0.73242,1.85351c-0.4877,0.4877 -1.08744,0.73047 -1.80273,0.73047c-0.7153,0 -1.3333,-0.24277 -1.85352,-0.73047c-0.4877,-0.52021 -0.73242,-1.13821 -0.73242,-1.85351v-0.78125c-1.23551,1.33305 -2.64903,2.2284 -4.24219,2.68359c-1.56064,0.45519 -3.21887,0.68164 -4.97461,0.68164c-1.10546,0 -2.22726,-0.14488 -3.36523,-0.4375c-1.10546,-0.32513 -2.11306,-0.81458 -3.02344,-1.46484c-0.87786,-0.65028 -1.59376,-1.4621 -2.14648,-2.4375c-0.55273,-0.9754 -0.83008,-2.14615 -0.83008,-3.51172c0,-1.56065 0.30998,-2.86191 0.92773,-3.90234c0.61776,-1.07295 1.44591,-1.95003 2.48633,-2.63282c1.04044,-0.68278 2.2275,-1.2029 3.56055,-1.56054c1.36557,-0.35766 2.79735,-0.61869 4.29297,-0.78125c1.72321,-0.19508 3.07147,-0.40522 4.04687,-0.63282c0.97541,-0.2601 1.70761,-0.55377 2.19531,-0.8789c0.48771,-0.32514 0.77942,-0.69842 0.87696,-1.1211c0.13005,-0.42267 0.19531,-0.89384 0.19531,-1.41406c0,-0.61775 -0.17946,-1.15419 -0.53711,-1.60937c-0.35765,-0.4552 -0.81251,-0.82848 -1.36523,-1.1211c-0.55274,-0.29262 -1.17074,-0.50471 -1.85352,-0.63476c-0.68279,-0.16257 -1.34778,-0.24414 -1.99805,-0.24414c-1.17048,0 -2.11478,0.09788 -2.83007,0.29297c-0.7153,0.19507 -1.30068,0.45416 -1.75586,0.77929c-0.4552,0.32514 -0.82848,0.71668 -1.1211,1.17188c-0.2601,0.45518 -0.50287,0.92636 -0.73047,1.41406c-0.19508,0.39017 -0.47242,0.68187 -0.83007,0.87695c-0.32514,0.16257 -0.66579,0.24414 -1.02344,0.24414c-0.65027,0 -1.25196,-0.21014 -1.80469,-0.63281c-0.55273,-0.42268 -0.83008,-1.00805 -0.83008,-1.75586c0,-0.29262 0.08158,-0.65154 0.24414,-1.07422c0.29262,-0.68278 0.68223,-1.34972 1.16993,-2c0.4877,-0.68278 1.13833,-1.28251 1.95117,-1.80273c0.84535,-0.52022 1.86926,-0.92809 3.07226,-1.2207c1.23552,-0.32514 2.73256,-0.48633 4.48828,-0.48633c3.31638,0 5.94958,0.66499 7.9004,1.99804zM88.19406,306.80198c1.4306,0.55273 2.60135,1.21967 3.51172,2c0.9429,0.78033 1.64247,1.59215 2.09766,2.4375c0.45519,0.84535 0.68164,1.56124 0.68164,2.14648c0,0.74782 -0.25908,1.33319 -0.7793,1.75586c-0.52021,0.39016 -1.10558,0.58594 -1.75586,0.58594c-0.45518,0 -0.87741,-0.1142 -1.26757,-0.3418c-0.39016,-0.22759 -0.66751,-0.61719 -0.83008,-1.16992c-0.16257,-0.52022 -0.43797,-1.02402 -0.82813,-1.51172c-0.35764,-0.4877 -0.83077,-0.92819 -1.41601,-1.31836c-0.55273,-0.39016 -1.21772,-0.69818 -1.99805,-0.92578c-0.74781,-0.22759 -1.5779,-0.34179 -2.48828,-0.34179c-1.00792,0 -2.01553,0.19577 -3.02344,0.58593c-0.97541,0.35765 -1.8688,0.94302 -2.68164,1.75586c-0.78032,0.81284 -1.41464,1.8857 -1.90234,3.21875c-0.48771,1.30054 -0.73243,2.8772 -0.73243,4.73047c0,1.85327 0.24472,3.42993 0.73243,4.73047c0.4877,1.30054 1.12202,2.35709 1.90234,3.16992c0.81284,0.81284 1.70623,1.41453 2.68164,1.80469c1.00791,0.35765 2.01552,0.53711 3.02344,0.53711c0.91038,0 1.74047,-0.1142 2.48828,-0.3418c0.78033,-0.22759 1.44532,-0.53757 1.99805,-0.92773c0.58524,-0.39016 1.05837,-0.8287 1.41601,-1.31641c0.39016,-0.4877 0.66556,-0.9915 0.82813,-1.51172c0.16257,-0.55273 0.43992,-0.94233 0.83008,-1.16992c0.39016,-0.22759 0.81239,-0.3418 1.26757,-0.3418c0.65028,0 1.23565,0.2121 1.75586,0.63477c0.55274,0.39016 0.82813,0.9429 0.82813,1.6582c0,0.35765 -0.16315,0.95934 -0.48828,1.80469c-0.32514,0.81283 -0.90856,1.64098 -1.75391,2.48633c-0.84535,0.84535 -2.0161,1.59387 -3.51172,2.24414c-1.4631,0.65027 -3.34974,0.97461 -5.6582,0.97461c-1.91829,0 -3.70705,-0.34065 -5.36524,-1.02344c-1.62568,-0.71529 -3.03919,-1.70853 -4.24218,-2.97656c-1.203,-1.26803 -2.14534,-2.77942 -2.82813,-4.53516c-0.68278,-1.78824 -1.02539,-3.7545 -1.02539,-5.90039c0,-2.1784 0.34261,-4.14662 1.02539,-5.90234c0.68279,-1.78825 1.62513,-3.31597 2.82813,-4.58399c1.20299,-1.26802 2.6165,-2.24299 4.24218,-2.92578c1.65819,-0.71529 3.44695,-1.07226 5.36524,-1.07226c1.95081,0 3.64167,0.29171 5.07226,0.87695zM16.00656,329.38206h11.90039c2.6336,0 4.45498,-0.52012 5.4629,-1.56055c1.04043,-1.07295 1.56054,-2.51909 1.56054,-4.33984c0,-2.11338 -0.71589,-3.73898 -2.14648,-4.87696c-1.39808,-1.17048 -3.26645,-1.75585 -5.60742,-1.75585h-11.16993zM60.44797,320.84886c-0.61775,0.19508 -1.34996,0.33996 -2.19531,0.4375c-0.81284,0.09754 -1.67361,0.21174 -2.58399,0.34179c-0.87786,0.13006 -1.74059,0.2932 -2.58593,0.48828c-0.84536,0.19509 -1.60823,0.4868 -2.29102,0.87696c-0.68278,0.35764 -1.23553,0.82881 -1.6582,1.41406c-0.39017,0.58524 -0.58594,1.33376 -0.58594,2.24414c0,0.71529 0.14683,1.31698 0.43945,1.80469c0.32514,0.45518 0.73105,0.82847 1.21875,1.12109c0.48771,0.26011 1.04045,0.45588 1.65821,0.58594c0.61775,0.09754 1.23575,0.14648 1.85351,0.14648c0.9429,0 1.88524,-0.09789 2.82813,-0.29297c0.94289,-0.22759 1.7893,-0.58456 2.53711,-1.07226c0.78032,-0.48771 1.39833,-1.13834 1.85351,-1.95117c0.48771,-0.81284 0.73047,-1.82044 0.73047,-3.02344v-3.46289z" data-paper-data="{&quot;origPos&quot;:null}" id="path846" fill="#1eff00" stroke="none" stroke-width="3.04814" stroke-miterlimit="10" stroke-dashoffset="0"/></g></g></g></svg>