<svg version="1.1" xmlns="http://www.w3.org/2000/svg" xmlns:xlink="http://www.w3.org/1999/xlink" width="427.11156" height="27.77145" viewBox="0,0,427.11156,27.77145"><g transform="translate(-25.93651,-79.75831)"><g data-paper-data="{&quot;isPaintingLayer&quot;:true}" fill-rule="nonzero" stroke-linecap="butt" stroke-linejoin="miter" stroke-dasharray="" style="mix-blend-mode: normal"><g id="g1635"><path d="M26.8796,80.50854h425.22538c0.10684,0 0.19285,0.08602 0.19285,0.19286v25.88526c0,0.10685 -0.086,0.19286 -0.19285,0.19286h-425.22538c-0.10684,0 -0.19286,-0.086 -0.19286,-0.19286v-25.88526c0,-0.10684 0.08601,-0.19286 0.19286,-0.19286z" id="rect913-8-6-9-1-4-8" fill="#272727" stroke="#1eff00" stroke-width="1.50047" stroke-miterlimit="4" stroke-dashoffset="17.35"/><path d="M168.13291,85.94735c0.62934,0.27733 1.16724,0.61315 1.61524,1.00781c0.45867,0.384 0.81131,0.79509 1.05664,1.23242c0.256,0.43733 0.38477,0.81672 0.38477,1.13672c0,0.288 -0.10698,0.51683 -0.32032,0.6875c-0.21333,0.16 -0.44216,0.24023 -0.6875,0.24023c-0.18133,0 -0.35367,-0.04358 -0.51367,-0.12891c-0.16,-0.096 -0.27194,-0.24956 -0.33594,-0.46289c-0.096,-0.29867 -0.22777,-0.59286 -0.39843,-0.88086c-0.17067,-0.288 -0.38959,-0.54854 -0.65625,-0.7832c-0.26667,-0.23467 -0.58265,-0.42188 -0.94532,-0.56055c-0.352,-0.14934 -0.76113,-0.22266 -1.23046,-0.22266c-0.53334,0 -1.03458,0.11689 -1.50391,0.35156c-0.46933,0.224 -0.88042,0.54794 -1.23242,0.97461c-0.34134,0.416 -0.61374,0.92415 -0.81641,1.52148c-0.20267,0.59733 -0.30469,1.264 -0.30469,2c0,0.736 0.10202,1.40267 0.30469,2c0.20267,0.59733 0.47507,1.10849 0.81641,1.53516c0.352,0.42667 0.76309,0.75752 1.23242,0.99219c0.46933,0.224 0.97057,0.33594 1.50391,0.33594c0.46933,0 0.87846,-0.06837 1.23046,-0.20703c0.36267,-0.14933 0.67865,-0.3415 0.94532,-0.57617c0.26666,-0.23467 0.48558,-0.49716 0.65625,-0.78516c0.17066,-0.29867 0.30243,-0.59587 0.39843,-0.89453c0.064,-0.21333 0.17594,-0.36389 0.33594,-0.44922c0.16,-0.096 0.33234,-0.14453 0.51367,-0.14453c0.24534,0 0.47417,0.08024 0.6875,0.24023c0.21334,0.16 0.32032,0.38388 0.32032,0.67188c0,0.23467 -0.09707,0.56552 -0.28907,0.99219c-0.192,0.42667 -0.48919,0.85458 -0.89453,1.28125c-0.40533,0.416 -0.93332,0.77856 -1.58398,1.08789c-0.64,0.30933 -1.41365,0.46289 -2.32031,0.46289c-0.96,0 -1.80397,-0.1803 -2.5293,-0.54297c-0.71467,-0.36267 -1.31102,-0.84903 -1.79102,-1.45703c-0.46933,-0.608 -0.82693,-1.30141 -1.07226,-2.08008c-0.23467,-0.78933 -0.35157,-1.60956 -0.35157,-2.46289c0,-0.84267 0.1169,-1.65989 0.35157,-2.44922c0.24533,-0.78933 0.60293,-1.48274 1.07226,-2.08008c0.48,-0.608 1.07635,-1.09241 1.79102,-1.45508c0.72533,-0.36267 1.56929,-0.54492 2.5293,-0.54492c0.736,0 1.41258,0.13868 2.03124,0.41602zM173.80674,85.99618c0.16004,0.16 0.24024,0.35713 0.24024,0.5918v3.75977c0.34133,-0.39467 0.70885,-0.69878 1.10351,-0.91211c0.39467,-0.21333 0.86916,-0.32031 1.42383,-0.32031c0.49067,0 0.94533,0.07528 1.36133,0.22461c0.416,0.14933 0.77165,0.36329 1.07031,0.64063c0.29867,0.26667 0.52945,0.59752 0.68945,0.99219c0.17066,0.384 0.25586,0.81492 0.25586,1.29492v5.26367c0,0.23467 -0.08519,0.43871 -0.25586,0.60938c-0.16,0.16 -0.35713,0.24023 -0.59179,0.24023c-0.23467,0 -0.43375,-0.08023 -0.59375,-0.24023c-0.15998,-0.17067 -0.23828,-0.37471 -0.23828,-0.60937v-5.26367c0,-0.24533 -0.05349,-0.47417 -0.16016,-0.6875c-0.096,-0.224 -0.22972,-0.41617 -0.40039,-0.57617c-0.17067,-0.16 -0.3678,-0.28186 -0.5918,-0.36719c-0.224,-0.096 -0.45974,-0.14453 -0.70507,-0.14453c-0.32001,0 -0.62411,0.06341 -0.91211,0.19141c-0.288,0.11733 -0.54358,0.28276 -0.76758,0.49609c-0.21334,0.20267 -0.38372,0.44337 -0.51172,0.7207c-0.11738,0.27733 -0.17578,0.57648 -0.17578,0.89648v4.73438c0,0.23467 -0.08024,0.43871 -0.24024,0.60938c-0.16,0.16 -0.35713,0.24023 -0.59179,0.24023c-0.23467,0 -0.43676,-0.08023 -0.60743,-0.24023c-0.16003,-0.17067 -0.24023,-0.37471 -0.24023,-0.60937v-10.94336c0,-0.23467 0.08023,-0.4318 0.24023,-0.5918c0.17067,-0.15999 0.37276,-0.24023 0.60743,-0.24023c0.23466,0 0.43179,0.08024 0.59179,0.24023zM215.52549,85.99618c0.16004,0.16 0.24024,0.35713 0.24024,0.5918v10.94336c0,0.23467 -0.08024,0.43871 -0.24024,0.60938c-0.16,0.16 -0.35713,0.24023 -0.59179,0.24023c-0.23467,0 -0.43676,-0.08023 -0.60743,-0.24023c-0.16003,-0.17067 -0.24023,-0.37471 -0.24023,-0.60937v-10.94336c0,-0.23467 0.08023,-0.4318 0.24023,-0.5918c0.17067,-0.15999 0.37276,-0.24023 0.60743,-0.24023c0.23466,0 0.43179,0.08024 0.59179,0.24023zM235.6212,85.75595c0.23466,0 0.43179,0.08024 0.59179,0.24023c0.16004,0.16 0.24024,0.35713 0.24024,0.5918v3.79297c0.05333,-0.064 0.13852,-0.16602 0.25586,-0.30469c0.128,-0.13867 0.29838,-0.27735 0.51172,-0.41602c0.21333,-0.14933 0.48078,-0.2781 0.80078,-0.38477c0.32,-0.10667 0.69743,-0.16016 1.13476,-0.16016c0.576,0 1.09903,0.11194 1.56836,0.33594c0.46934,0.224 0.87051,0.54494 1.20117,0.96094c0.34134,0.40533 0.60187,0.89666 0.78321,1.47266c0.18138,0.56533 0.27148,1.18843 0.27148,1.87109c0,0.68267 -0.10007,1.30771 -0.30273,1.87305c-0.20267,0.56533 -0.48003,1.0547 -0.83203,1.4707c-0.34134,0.40533 -0.74747,0.72131 -1.2168,0.94531c-0.45867,0.224 -0.94999,0.33594 -1.47266,0.33594c-0.32,0 -0.60232,-0.01683 -0.84765,-0.04883c-0.24534,-0.032 -0.46921,-0.08549 -0.67188,-0.16016c-0.20267,-0.08533 -0.3998,-0.19231 -0.5918,-0.32031c-0.18133,-0.128 -0.37846,-0.28156 -0.59179,-0.46289v0.14258c0,0.23467 -0.08024,0.43871 -0.24024,0.60938c-0.16,0.16 -0.35713,0.24023 -0.59179,0.24023c-0.23467,0 -0.43676,-0.08023 -0.60743,-0.24023c-0.16003,-0.17067 -0.24023,-0.37471 -0.24023,-0.60937v-10.94336c0,-0.23467 0.08023,-0.4318 0.24023,-0.5918c0.17067,-0.15999 0.37276,-0.24023 0.60743,-0.24023zM262.40247,85.75594c0.23466,0 0.43179,0.08024 0.59179,0.24023c0.16004,0.16 0.24024,0.35713 0.24024,0.5918v6.11133l3.91992,-3.4082c0.14933,-0.11733 0.31476,-0.17578 0.49609,-0.17578c0.17067,0 0.3361,0.06536 0.4961,0.19336c0.16003,0.128 0.24023,0.3083 0.24023,0.54297c0,0.21333 -0.08519,0.39559 -0.25586,0.54492l-2.44922,2.11133l3.23243,4.57617c0.09603,0.14933 0.14453,0.3098 0.14453,0.48047c0,0.14933 -0.0268,0.27615 -0.0801,0.38281c-0.05334,0.096 -0.12369,0.17624 -0.20899,0.24023c-0.08533,0.064 -0.17548,0.11253 -0.27148,0.14453c-0.096,0.032 -0.18618,0.04883 -0.27148,0.04883c-0.13867,0 -0.26744,-0.02675 -0.38477,-0.08008c-0.11733,-0.05333 -0.21743,-0.13853 -0.30273,-0.25586l-3.07227,-4.44922l-1.23242,1.05664v2.87891c0,0.23467 -0.08024,0.43871 -0.24024,0.60938c-0.16,0.16 -0.35713,0.24023 -0.59179,0.24023c-0.23467,0 -0.43676,-0.08023 -0.60743,-0.24023c-0.16003,-0.17067 -0.24023,-0.37471 -0.24023,-0.60937v-10.94336c0,-0.23467 0.08023,-0.4318 0.24023,-0.5918c0.17067,-0.15999 0.37276,-0.24023 0.60743,-0.24023zM318.3712,85.99618c0.17066,0.16 0.25586,0.35713 0.25586,0.5918v10.94336c0,0.23467 -0.0852,0.43871 -0.25586,0.60938c-0.16,0.16 -0.35713,0.24023 -0.5918,0.24023c-0.23467,0 -0.4318,-0.08023 -0.5918,-0.24023c-0.16003,-0.17067 -0.24023,-0.37471 -0.24023,-0.60937v-0.14258c-0.21334,0.18133 -0.41542,0.33489 -0.60742,0.46289c-0.18134,0.128 -0.37351,0.23498 -0.57618,0.32031c-0.20266,0.07467 -0.42654,0.12816 -0.67187,0.16016c-0.24533,0.032 -0.52766,0.04883 -0.84766,0.04883c-0.52266,0 -1.01894,-0.11194 -1.48828,-0.33594c-0.45866,-0.224 -0.86479,-0.53998 -1.21679,-0.94531c-0.34134,-0.416 -0.61374,-0.90537 -0.81641,-1.4707c-0.20267,-0.56533 -0.30274,-1.19038 -0.30274,-1.87305c0,-0.68267 0.09016,-1.30576 0.27149,-1.87109c0.18133,-0.576 0.43691,-1.06732 0.76758,-1.47266c0.34133,-0.416 0.74746,-0.73694 1.21679,-0.96094c0.46934,-0.224 0.99236,-0.33594 1.56836,-0.33594c0.43734,0 0.81477,0.05349 1.13477,0.16016c0.32,0.10667 0.58745,0.23543 0.80078,0.38477c0.21333,0.13867 0.37876,0.27735 0.49609,0.41602c0.128,0.13867 0.21819,0.24069 0.27149,0.30469v-3.79297c0,-0.23467 0.08023,-0.4318 0.24023,-0.5918c0.16,-0.15999 0.35713,-0.24023 0.5918,-0.24023c0.23467,0 0.4318,0.08024 0.5918,0.24023zM197.70323,86.73251c0.17066,0.16 0.25586,0.35713 0.25586,0.5918v2h0.8789c0.20267,0 0.37501,0.07528 0.51368,0.22461c0.14935,0.13867 0.22265,0.30905 0.22265,0.51172c0,0.21333 -0.07332,0.38868 -0.22265,0.52734c-0.13867,0.13866 -0.31101,0.20898 -0.51368,0.20898h-0.8789v6.73438c0,0.23467 -0.0852,0.43871 -0.25586,0.60938c-0.16,0.16 -0.35713,0.24023 -0.5918,0.24023c-0.23467,0 -0.4318,-0.08023 -0.5918,-0.24023c-0.16003,-0.17067 -0.24023,-0.37471 -0.24023,-0.60937v-6.73437h-0.5918c-0.20266,0 -0.37996,-0.07032 -0.52929,-0.20898c-0.13864,-0.13867 -0.20704,-0.31401 -0.20704,-0.52734c0,-0.20267 0.06837,-0.37305 0.20704,-0.51172c0.14933,-0.14933 0.32663,-0.22461 0.52929,-0.22461h0.5918v-2c0,-0.23467 0.08023,-0.4318 0.24023,-0.5918c0.16,-0.15999 0.35713,-0.24023 0.5918,-0.24023c0.23467,0 0.4318,0.08024 0.5918,0.24023zM185.09575,89.00399c1.088,0 1.95179,0.21892 2.59179,0.65625c0.65067,0.42667 0.97657,1.06163 0.97657,1.9043v5.9668c0,0.23467 -0.08024,0.43871 -0.24024,0.60938c-0.16,0.16 -0.35713,0.24023 -0.5918,0.24023c-0.23466,0 -0.43675,-0.08023 -0.60742,-0.24023c-0.16003,-0.17067 -0.24023,-0.37471 -0.24023,-0.60937v-0.25586c-0.40534,0.43733 -0.86991,0.73153 -1.39258,0.88086c-0.512,0.14933 -1.05486,0.22461 -1.63086,0.22461c-0.36267,0 -0.73214,-0.04853 -1.10547,-0.14453c-0.36267,-0.10667 -0.69352,-0.26713 -0.99219,-0.48047c-0.288,-0.21333 -0.52179,-0.48078 -0.70312,-0.80078c-0.18129,-0.32 -0.27149,-0.70239 -0.27149,-1.15039c0,-0.512 0.10007,-0.93992 0.30274,-1.28125c0.20267,-0.352 0.47507,-0.63928 0.8164,-0.86328c0.34134,-0.224 0.73064,-0.39438 1.16797,-0.51172c0.448,-0.11733 0.91754,-0.20253 1.40821,-0.25586c0.56533,-0.064 1.00812,-0.13431 1.32812,-0.20898c0.32,-0.08533 0.5607,-0.18044 0.7207,-0.28711c0.16,-0.10667 0.25511,-0.23047 0.28711,-0.36914c0.0427,-0.13867 0.0645,-0.29222 0.0645,-0.46289c0,-0.20267 -0.05845,-0.37996 -0.17578,-0.5293c-0.11734,-0.14933 -0.26789,-0.27119 -0.44922,-0.36719c-0.18134,-0.096 -0.38342,-0.16436 -0.60742,-0.20703c-0.224,-0.05333 -0.44292,-0.08008 -0.65625,-0.08008c-0.384,0 -0.69307,0.0317 -0.92774,0.0957c-0.23467,0.064 -0.42684,0.14919 -0.57617,0.25586c-0.14933,0.10667 -0.27119,0.23348 -0.36719,0.38281c-0.08533,0.14933 -0.16553,0.30484 -0.24023,0.46484c-0.064,0.128 -0.15415,0.22311 -0.27149,0.28711c-0.10666,0.05334 -0.2186,0.08008 -0.33593,0.08008c-0.21334,0 -0.41047,-0.06836 -0.5918,-0.20703c-0.18134,-0.13867 -0.27344,-0.33084 -0.27344,-0.57617c0,-0.096 0.0268,-0.2129 0.0801,-0.35156c0.096,-0.224 0.22477,-0.44292 0.38477,-0.65625c0.15999,-0.224 0.372,-0.42113 0.63867,-0.5918c0.27733,-0.17067 0.6151,-0.30439 1.00976,-0.40039c0.40534,-0.10667 0.89471,-0.16016 1.47071,-0.16016zM221.03325,89.00399c1.088,0 1.95179,0.21892 2.59179,0.65625c0.65067,0.42667 0.97657,1.06163 0.97657,1.9043v5.9668c0,0.23467 -0.08024,0.43871 -0.24024,0.60938c-0.16,0.16 -0.35713,0.24023 -0.5918,0.24023c-0.23466,0 -0.43675,-0.08023 -0.60742,-0.24023c-0.16003,-0.17067 -0.24023,-0.37471 -0.24023,-0.60937v-0.25586c-0.40534,0.43733 -0.86991,0.73153 -1.39258,0.88086c-0.512,0.14933 -1.05486,0.22461 -1.63086,0.22461c-0.36267,0 -0.73214,-0.04853 -1.10547,-0.14453c-0.36267,-0.10667 -0.69352,-0.26713 -0.99219,-0.48047c-0.288,-0.21333 -0.52179,-0.48078 -0.70312,-0.80078c-0.18129,-0.32 -0.27149,-0.70239 -0.27149,-1.15039c0,-0.512 0.10007,-0.93992 0.30274,-1.28125c0.20267,-0.352 0.47507,-0.63928 0.8164,-0.86328c0.34134,-0.224 0.73064,-0.39438 1.16797,-0.51172c0.448,-0.11733 0.91754,-0.20253 1.40821,-0.25586c0.56533,-0.064 1.00812,-0.13431 1.32812,-0.20898c0.32,-0.08533 0.5607,-0.18044 0.7207,-0.28711c0.16,-0.10667 0.25511,-0.23047 0.28711,-0.36914c0.0427,-0.13867 0.0645,-0.29222 0.0645,-0.46289c0,-0.20267 -0.05845,-0.37996 -0.17578,-0.5293c-0.11734,-0.14933 -0.26789,-0.27119 -0.44922,-0.36719c-0.18134,-0.096 -0.38342,-0.16436 -0.60742,-0.20703c-0.224,-0.05333 -0.44292,-0.08008 -0.65625,-0.08008c-0.384,0 -0.69307,0.0317 -0.92774,0.0957c-0.23467,0.064 -0.42684,0.14919 -0.57617,0.25586c-0.14933,0.10667 -0.27119,0.23348 -0.36719,0.38281c-0.08533,0.14933 -0.16553,0.30484 -0.24023,0.46484c-0.064,0.128 -0.15415,0.22311 -0.27149,0.28711c-0.10666,0.05334 -0.2186,0.08008 -0.33593,0.08008c-0.21334,0 -0.41047,-0.06836 -0.5918,-0.20703c-0.18134,-0.13867 -0.27344,-0.33084 -0.27344,-0.57617c0,-0.096 0.0268,-0.2129 0.0801,-0.35156c0.096,-0.224 0.22477,-0.44292 0.38477,-0.65625c0.15999,-0.224 0.372,-0.42113 0.63867,-0.5918c0.27733,-0.17067 0.6151,-0.30439 1.00976,-0.40039c0.40534,-0.10667 0.89471,-0.16016 1.47071,-0.16016zM247.8145,89.00399c1.088,0 1.95179,0.21892 2.59179,0.65625c0.65067,0.42667 0.97656,1.06163 0.97656,1.9043v5.9668c0,0.23467 -0.08023,0.43871 -0.24023,0.60938c-0.16,0.16 -0.35713,0.24023 -0.5918,0.24023c-0.23466,0 -0.43675,-0.08023 -0.60742,-0.24023c-0.16003,-0.17067 -0.24023,-0.37471 -0.24023,-0.60937v-0.25586c-0.40534,0.43733 -0.86991,0.73153 -1.39258,0.88086c-0.512,0.14933 -1.05486,0.22461 -1.63086,0.22461c-0.36267,0 -0.73214,-0.04853 -1.10547,-0.14453c-0.36267,-0.10667 -0.69352,-0.26713 -0.99219,-0.48047c-0.288,-0.21333 -0.52179,-0.48078 -0.70312,-0.80078c-0.18129,-0.32 -0.27149,-0.70239 -0.27149,-1.15039c0,-0.512 0.10007,-0.93992 0.30274,-1.28125c0.20267,-0.352 0.47507,-0.63928 0.81641,-0.86328c0.34133,-0.224 0.73063,-0.39438 1.16796,-0.51172c0.448,-0.11733 0.91754,-0.20253 1.40821,-0.25586c0.56533,-0.064 1.00812,-0.13431 1.32812,-0.20898c0.32,-0.08533 0.5607,-0.18044 0.72071,-0.28711c0.15999,-0.10667 0.2551,-0.23047 0.2871,-0.36914c0.0427,-0.13867 0.0645,-0.29222 0.0645,-0.46289c0,-0.20267 -0.05845,-0.37996 -0.17578,-0.5293c-0.11734,-0.14933 -0.26789,-0.27119 -0.44922,-0.36719c-0.18134,-0.096 -0.38342,-0.16436 -0.60742,-0.20703c-0.224,-0.05333 -0.44292,-0.08008 -0.65625,-0.08008c-0.384,0 -0.69307,0.0317 -0.92774,0.0957c-0.23467,0.064 -0.42684,0.14919 -0.57617,0.25586c-0.14933,0.10667 -0.27119,0.23348 -0.36719,0.38281c-0.08533,0.14933 -0.16553,0.30484 -0.24023,0.46484c-0.064,0.128 -0.15415,0.22311 -0.27149,0.28711c-0.10666,0.05334 -0.2186,0.08008 -0.33593,0.08008c-0.21334,0 -0.41047,-0.06836 -0.5918,-0.20703c-0.18134,-0.13867 -0.27344,-0.33084 -0.27344,-0.57617c0,-0.096 0.0268,-0.2129 0.0801,-0.35156c0.096,-0.224 0.22477,-0.44292 0.38476,-0.65625c0.16,-0.224 0.37201,-0.42113 0.63868,-0.5918c0.27733,-0.17067 0.6151,-0.30439 1.00976,-0.40039c0.40534,-0.10667 0.89471,-0.16016 1.47071,-0.16016zM258.40635,89.2911c0.46934,0.18133 0.85368,0.40025 1.15235,0.65625c0.30933,0.256 0.53816,0.52345 0.6875,0.80078c0.14935,0.27733 0.22265,0.51113 0.22265,0.70313c0,0.24533 -0.08519,0.43751 -0.25586,0.57617c-0.17066,0.128 -0.36284,0.19336 -0.57617,0.19336c-0.14933,0 -0.28606,-0.03861 -0.41406,-0.11328c-0.128,-0.07467 -0.22014,-0.20148 -0.27344,-0.38281c-0.05333,-0.17067 -0.14348,-0.33609 -0.27148,-0.49609c-0.11734,-0.16 -0.27285,-0.30364 -0.46485,-0.43164c-0.18133,-0.128 -0.39829,-0.23002 -0.65429,-0.30469c-0.24534,-0.07467 -0.51774,-0.11133 -0.81641,-0.11133c-0.33067,0 -0.66152,0.06341 -0.99219,0.19141c-0.32,0.11733 -0.61419,0.30951 -0.88086,0.57617c-0.256,0.26667 -0.46304,0.61736 -0.62304,1.05469c-0.16004,0.42667 -0.24024,0.94473 -0.24024,1.55273c0,0.608 0.08024,1.12607 0.24024,1.55273c0.16,0.42667 0.36704,0.7724 0.62304,1.03906c0.26667,0.26667 0.56086,0.4638 0.88086,0.5918c0.33067,0.11733 0.66152,0.17578 0.99219,0.17578c0.29867,0 0.57107,-0.03666 0.81641,-0.11133c0.256,-0.07467 0.47296,-0.17669 0.65429,-0.30469c0.192,-0.128 0.34751,-0.27164 0.46485,-0.43164c0.128,-0.16 0.21818,-0.32543 0.27148,-0.49609c0.05333,-0.18133 0.14544,-0.30814 0.27344,-0.38281c0.128,-0.07467 0.26473,-0.11328 0.41406,-0.11328c0.21333,0 0.40551,0.07032 0.57617,0.20898c0.18134,0.128 0.27344,0.3083 0.27344,0.54297c0,0.11733 -0.05349,0.31446 -0.16016,0.5918c-0.10666,0.26667 -0.29883,0.53907 -0.57617,0.81641c-0.27733,0.27733 -0.66167,0.52299 -1.15234,0.73633c-0.48,0.21333 -1.09814,0.32031 -1.85547,0.32031c-0.62933,0 -1.21577,-0.11194 -1.75977,-0.33594c-0.53333,-0.23467 -0.99791,-0.56056 -1.39257,-0.97656c-0.39467,-0.416 -0.70374,-0.91228 -0.92774,-1.48828c-0.224,-0.58667 -0.33594,-1.23155 -0.33594,-1.93555c0,-0.71467 0.11194,-1.35955 0.33594,-1.93555c0.224,-0.58667 0.53307,-1.08791 0.92774,-1.50391c0.39466,-0.416 0.85924,-0.73694 1.39257,-0.96094c0.544,-0.23467 1.13044,-0.35156 1.75977,-0.35156c0.64,0 1.19473,0.09511 1.66406,0.28711zM277.64659,89.00399c0.608,0 1.12111,0.06341 1.53711,0.19141c0.416,0.128 0.75677,0.29343 1.02343,0.49609c0.10667,0.08533 0.21861,0.19231 0.33594,0.32031c0.11733,0.11733 0.22927,0.25106 0.33594,0.40039c0.10667,0.13867 0.19186,0.27735 0.25586,0.41602c0.07468,0.13867 0.11328,0.26052 0.11328,0.36719c0,0.24533 -0.09706,0.44246 -0.28906,0.5918c-0.192,0.13867 -0.39905,0.20898 -0.62305,0.20898c-0.13867,0 -0.26743,-0.0317 -0.38477,-0.0957c-0.11733,-0.07467 -0.20748,-0.18661 -0.27148,-0.33594c-0.08533,-0.20267 -0.17548,-0.37996 -0.27148,-0.5293c-0.096,-0.14933 -0.22477,-0.27119 -0.38477,-0.36719c-0.14933,-0.096 -0.33655,-0.16436 -0.56055,-0.20703c-0.21333,-0.05333 -0.48574,-0.08008 -0.8164,-0.08008c-0.65067,0 -1.12516,0.10503 -1.42383,0.31836c-0.288,0.20267 -0.43164,0.4602 -0.43164,0.76953c0,0.23467 0.08519,0.42684 0.25586,0.57617c0.17066,0.13867 0.39454,0.26052 0.67187,0.36719c0.288,0.096 0.6139,0.18119 0.97656,0.25586c0.36267,0.064 0.73019,0.14423 1.10352,0.24023c0.37333,0.08533 0.7428,0.19231 1.10547,0.32031c0.36267,0.11733 0.68165,0.28276 0.95898,0.49609c0.288,0.20267 0.51684,0.45329 0.6875,0.75195c0.17066,0.29867 0.25586,0.67114 0.25586,1.11914c0,0.53333 -0.10502,0.98604 -0.31836,1.35938c-0.21333,0.36267 -0.49761,0.66182 -0.84961,0.89648c-0.352,0.224 -0.76113,0.38943 -1.23046,0.49609c-0.46934,0.096 -0.96066,0.14453 -1.47266,0.14453c-0.72533,0 -1.33851,-0.10698 -1.83984,-0.32031c-0.49067,-0.224 -0.8968,-0.47958 -1.2168,-0.76758c-0.30933,-0.29867 -0.53321,-0.59286 -0.67188,-0.88086c-0.13863,-0.288 -0.20703,-0.50692 -0.20703,-0.65625c0,-0.24533 0.0852,-0.44246 0.25586,-0.5918c0.18134,-0.16 0.37351,-0.24023 0.57617,-0.24023c0.128,0 0.24986,0.03861 0.36719,0.11328c0.11733,0.07467 0.20749,0.19156 0.27149,0.35156c0.18133,0.45867 0.47056,0.84301 0.86523,1.15234c0.40533,0.30933 0.9799,0.46289 1.72656,0.46289c0.34134,0 0.63553,-0.03666 0.88086,-0.11133c0.24534,-0.08533 0.44247,-0.19231 0.5918,-0.32031c0.16,-0.13867 0.27686,-0.28727 0.35156,-0.44727c0.07468,-0.17067 0.11328,-0.34796 0.11328,-0.5293c0,-0.36267 -0.14364,-0.63312 -0.43164,-0.81445c-0.288,-0.18133 -0.6456,-0.32497 -1.07226,-0.43164c-0.42667,-0.10667 -0.89621,-0.20373 -1.40821,-0.28906c-0.50133,-0.096 -0.96591,-0.22972 -1.39258,-0.40039c-0.42666,-0.18133 -0.78426,-0.43195 -1.07226,-0.75195c-0.288,-0.33067 -0.43164,-0.78338 -0.43164,-1.35937c0,-0.832 0.30411,-1.48379 0.91211,-1.95312c0.608,-0.46933 1.45497,-0.70312 2.54297,-0.70312zM296.13099,89.004c0.608,0 1.17265,0.09015 1.69531,0.27148c0.53334,0.18133 0.99296,0.44878 1.37696,0.80078c0.39466,0.34133 0.70373,0.76234 0.92773,1.26367c0.224,0.50133 0.33594,1.07289 0.33594,1.71289c0,0.39467 -0.09706,0.69187 -0.28906,0.89453c-0.192,0.20267 -0.41588,0.30469 -0.67188,0.30469h-5.85547c0,0.02133 0.0049,0.11148 0.0156,0.27148c0.02138,0.14933 0.05998,0.33159 0.11328,0.54492c0.064,0.21333 0.14919,0.44217 0.25586,0.6875c0.11733,0.23467 0.27089,0.45358 0.46289,0.65625c0.192,0.20267 0.42774,0.37305 0.70508,0.51172c0.288,0.128 0.63373,0.19141 1.03906,0.19141c0.33067,0 0.61299,-0.02675 0.84766,-0.08008c0.23466,-0.05333 0.44366,-0.13161 0.625,-0.23828c0.18133,-0.10667 0.34676,-0.24039 0.49609,-0.40039c0.14933,-0.17067 0.29793,-0.3678 0.44727,-0.5918c0.08533,-0.128 0.18239,-0.22011 0.28906,-0.27344c0.10666,-0.05333 0.2186,-0.08008 0.33594,-0.08008c0.192,0 0.36734,0.07032 0.52734,0.20898c0.16003,0.13867 0.24023,0.31401 0.24023,0.52734c0,0.128 -0.07031,0.32017 -0.20898,0.57617c-0.13867,0.256 -0.36254,0.51158 -0.67188,0.76758c-0.29866,0.256 -0.68796,0.47988 -1.16796,0.67188c-0.48,0.192 -1.06644,0.28906 -1.75977,0.28906c-0.704,0 -1.33401,-0.12877 -1.88867,-0.38477c-0.55467,-0.256 -1.02225,-0.59677 -1.40625,-1.02344c-0.37334,-0.43733 -0.66257,-0.94353 -0.86524,-1.51953c-0.19201,-0.576 -0.28711,-1.17926 -0.28711,-1.80859c0,-0.65067 0.10007,-1.26384 0.30274,-1.83984c0.20267,-0.58667 0.4919,-1.09286 0.86523,-1.51953c0.384,-0.42667 0.84167,-0.76248 1.375,-1.00781c0.53334,-0.256 1.13164,-0.38477 1.79297,-0.38477zM305.44349,89.004c0.608,0 1.17265,0.09015 1.69531,0.27148c0.53334,0.18133 0.99296,0.44878 1.37696,0.80078c0.39466,0.34133 0.70373,0.76234 0.92773,1.26367c0.224,0.50133 0.33594,1.07289 0.33594,1.71289c0,0.39467 -0.09706,0.69187 -0.28906,0.89453c-0.192,0.20267 -0.41588,0.30469 -0.67188,0.30469h-5.85547c0,0.02133 0.0049,0.11148 0.0156,0.27148c0.02138,0.14933 0.05998,0.33159 0.11328,0.54492c0.064,0.21333 0.14919,0.44217 0.25586,0.6875c0.11733,0.23467 0.27089,0.45358 0.46289,0.65625c0.192,0.20267 0.42774,0.37305 0.70508,0.51172c0.288,0.128 0.63373,0.19141 1.03906,0.19141c0.33067,0 0.61299,-0.02675 0.84766,-0.08008c0.23466,-0.05333 0.44366,-0.13161 0.625,-0.23828c0.18133,-0.10667 0.34676,-0.24039 0.49609,-0.40039c0.14933,-0.17067 0.29793,-0.3678 0.44727,-0.5918c0.08533,-0.128 0.18239,-0.22011 0.28906,-0.27344c0.10666,-0.05333 0.2186,-0.08008 0.33594,-0.08008c0.192,0 0.36734,0.07032 0.52734,0.20898c0.16003,0.13867 0.24023,0.31401 0.24023,0.52734c0,0.128 -0.07031,0.32017 -0.20898,0.57617c-0.13867,0.256 -0.36254,0.51158 -0.67188,0.76758c-0.29866,0.256 -0.68796,0.47988 -1.16796,0.67188c-0.48,0.192 -1.06644,0.28906 -1.75977,0.28906c-0.704,0 -1.33401,-0.12877 -1.88867,-0.38477c-0.55467,-0.256 -1.02225,-0.59677 -1.40625,-1.02344c-0.37334,-0.43733 -0.66257,-0.94353 -0.86524,-1.51953c-0.19201,-0.576 -0.28711,-1.17926 -0.28711,-1.80859c0,-0.65067 0.10007,-1.26384 0.30274,-1.83984c0.20267,-0.58667 0.4919,-1.09286 0.86523,-1.51953c0.384,-0.42667 0.84167,-0.76248 1.375,-1.00781c0.53334,-0.256 1.13164,-0.38477 1.79297,-0.38477zM190.75989,89.11532c0.23466,0 0.4318,0.08519 0.5918,0.25586c0.16003,0.16 0.24023,0.35908 0.24023,0.59375v0.30273c0.04267,-0.04267 0.12095,-0.12786 0.23828,-0.25586c0.11733,-0.128 0.26293,-0.25481 0.43359,-0.38281c0.18134,-0.13867 0.37847,-0.25751 0.5918,-0.35352c0.224,-0.10667 0.45779,-0.16016 0.70313,-0.16016c0.23466,0 0.43179,0.08519 0.59179,0.25586c0.17066,0.16 0.25586,0.35908 0.25586,0.59375c0,0.224 -0.08519,0.42113 -0.25586,0.5918c-0.16,0.16 -0.35713,0.24023 -0.59179,0.24023c-0.40534,0 -0.73619,0.09511 -0.99219,0.28711c-0.256,0.18133 -0.45809,0.40025 -0.60742,0.65625c-0.13867,0.256 -0.23381,0.5215 -0.28711,0.79883c-0.0534,0.27733 -0.0801,0.50812 -0.0801,0.68945v4.30273c0,0.23467 -0.08024,0.43871 -0.24023,0.60938c-0.16001,0.16 -0.35714,0.24023 -0.5918,0.24023c-0.23467,0 -0.43871,-0.08023 -0.60938,-0.24023c-0.16003,-0.17067 -0.24023,-0.37471 -0.24023,-0.60937v-7.56641c0,-0.23467 0.08023,-0.43375 0.24023,-0.59375c0.17067,-0.17067 0.37471,-0.25586 0.60938,-0.25586zM205.6837,89.11532c0.23466,0 0.43179,0.08519 0.59179,0.25586c0.16004,0.16 0.24024,0.35908 0.24024,0.59375v0.14258c0.21333,-0.18133 0.41046,-0.33489 0.59179,-0.46289c0.192,-0.128 0.38913,-0.23002 0.5918,-0.30469c0.20267,-0.08533 0.42654,-0.14378 0.67188,-0.17578c0.24533,-0.032 0.52765,-0.04883 0.84765,-0.04883c0.52267,0 1.01399,0.11194 1.47266,0.33594c0.46933,0.224 0.87546,0.54494 1.2168,0.96094c0.352,0.40533 0.62936,0.89666 0.83203,1.47266c0.20266,0.56533 0.30273,1.18843 0.30273,1.87109c0,0.68267 -0.09015,1.30771 -0.27148,1.87305c-0.18134,0.56533 -0.44187,1.0547 -0.78321,1.4707c-0.33066,0.40533 -0.73183,0.72131 -1.20117,0.94531c-0.46933,0.224 -0.99236,0.33594 -1.56836,0.33594c-0.384,0 -0.71981,-0.03861 -1.00781,-0.11328c-0.27733,-0.08533 -0.52299,-0.1854 -0.73633,-0.30273c-0.20266,-0.11733 -0.38297,-0.2461 -0.54297,-0.38477l-0.41601,-0.41602v3.74414c0,0.23467 -0.08024,0.4318 -0.24024,0.5918c-0.16,0.17067 -0.35713,0.25586 -0.59179,0.25586c-0.23467,0 -0.43676,-0.08519 -0.60743,-0.25586c-0.16003,-0.16 -0.24023,-0.35713 -0.24023,-0.5918v-10.94336c0,-0.23467 0.08023,-0.43375 0.24023,-0.59375c0.17067,-0.17067 0.37276,-0.25586 0.60743,-0.25586zM226.0587,89.11532c0.18133,0 0.34676,0.05349 0.49609,0.16016c0.16,0.096 0.27686,0.23468 0.35156,0.41602l2.78516,6.68945l2.43164,-6.60937c0.07467,-0.192 0.1866,-0.34556 0.33594,-0.46289c0.16,-0.128 0.33534,-0.19336 0.52734,-0.19336c0.192,0 0.37921,0.07528 0.56055,0.22461c0.18138,0.13867 0.27148,0.36254 0.27148,0.67188c0,0.05333 -0.0049,0.10683 -0.0156,0.16016c-0.0106,0.05333 -0.0275,0.10683 -0.0488,0.16016l-3.67969,9.47266c-0.08533,0.21333 -0.1854,0.43225 -0.30273,0.65625c-0.10667,0.23467 -0.25226,0.44171 -0.4336,0.62305c-0.17066,0.18133 -0.39454,0.32993 -0.67187,0.44727c-0.26667,0.11733 -0.59752,0.17578 -0.99219,0.17578h-0.76758c-0.21333,0 -0.39363,-0.07332 -0.54297,-0.22266c-0.13868,-0.13867 -0.20898,-0.31596 -0.20898,-0.5293c0,-0.21333 0.07032,-0.39364 0.20898,-0.54297c0.14934,-0.14933 0.32964,-0.22461 0.54297,-0.22461h0.4961c0.096,0 0.19802,-0.00496 0.30468,-0.01563c0.11734,-0.01066 0.22927,-0.04237 0.33594,-0.0957c0.10667,-0.04267 0.20869,-0.1229 0.30469,-0.24023c0.096,-0.10667 0.18116,-0.26713 0.25586,-0.48047l0.39844,-1.11914l-3.67969,-7.9043c-0.0534,-0.128 -0.0801,-0.2449 -0.0801,-0.35156c0,-0.08533 0.0168,-0.17744 0.0488,-0.27344c0.032,-0.10667 0.08053,-0.20178 0.14453,-0.28711c0.064,-0.08533 0.14228,-0.1537 0.23828,-0.20703c0.10667,-0.064 0.23543,-0.09766 0.38477,-0.09766zM283.8087,89.11532c0.23466,0 0.43179,0.08519 0.59179,0.25586c0.16004,0.16 0.24024,0.35908 0.24024,0.59375v0.14258c0.21333,-0.18133 0.41046,-0.33489 0.59179,-0.46289c0.192,-0.128 0.38913,-0.23002 0.5918,-0.30469c0.20267,-0.08533 0.42654,-0.14378 0.67188,-0.17578c0.24533,-0.032 0.52765,-0.04883 0.84765,-0.04883c0.52267,0 1.01399,0.11194 1.47266,0.33594c0.46933,0.224 0.87546,0.54494 1.2168,0.96094c0.352,0.40533 0.62936,0.89666 0.83203,1.47266c0.20266,0.56533 0.30273,1.18843 0.30273,1.87109c0,0.68267 -0.09015,1.30771 -0.27148,1.87305c-0.18134,0.56533 -0.44187,1.0547 -0.78321,1.4707c-0.33066,0.40533 -0.73183,0.72131 -1.20117,0.94531c-0.46933,0.224 -0.99236,0.33594 -1.56836,0.33594c-0.384,0 -0.71981,-0.03861 -1.00781,-0.11328c-0.27733,-0.08533 -0.52299,-0.1854 -0.73633,-0.30273c-0.20266,-0.11733 -0.38297,-0.2461 -0.54297,-0.38477l-0.41601,-0.41602v3.74414c0,0.23467 -0.08024,0.4318 -0.24024,0.5918c-0.16,0.17067 -0.35713,0.25586 -0.59179,0.25586c-0.23467,0 -0.43676,-0.08519 -0.60743,-0.25586c-0.16003,-0.16 -0.24023,-0.35713 -0.24023,-0.5918v-10.94336c0,-0.23467 0.08023,-0.43375 0.24023,-0.59375c0.17067,-0.17067 0.37276,-0.25586 0.60743,-0.25586zM296.16223,90.38094c-0.39466,0 -0.73048,0.05845 -1.00781,0.17578c-0.27733,0.11733 -0.51113,0.26593 -0.70313,0.44727c-0.18133,0.17067 -0.32692,0.36284 -0.43359,0.57617c-0.10667,0.21333 -0.18498,0.41046 -0.23828,0.5918c-0.0534,0.18133 -0.087,0.3418 -0.0977,0.48047c-0.0106,0.128 -0.0156,0.20328 -0.0156,0.22461h5.18359c0,-0.33067 -0.05153,-0.64665 -0.1582,-0.94531c-0.10667,-0.29867 -0.2721,-0.5592 -0.4961,-0.7832c-0.21333,-0.23467 -0.49069,-0.42188 -0.83203,-0.56055c-0.34133,-0.13866 -0.7425,-0.20703 -1.20117,-0.20703zM305.47473,90.38094c-0.39466,0 -0.73048,0.05845 -1.00781,0.17578c-0.27733,0.11733 -0.51113,0.26593 -0.70313,0.44727c-0.18133,0.17067 -0.32692,0.36284 -0.43359,0.57617c-0.10667,0.21333 -0.18498,0.41046 -0.23828,0.5918c-0.0534,0.18133 -0.087,0.3418 -0.0977,0.48047c-0.0106,0.128 -0.0156,0.20328 -0.0156,0.22461h5.18359c0,-0.33067 -0.05153,-0.64665 -0.1582,-0.94531c-0.10667,-0.29867 -0.2721,-0.5592 -0.4961,-0.7832c-0.21333,-0.23467 -0.49069,-0.42188 -0.83203,-0.56055c-0.34133,-0.13866 -0.7425,-0.20703 -1.20117,-0.20703zM207.85948,90.76376c-0.30934,0.18133 -0.56987,0.427 -0.78321,0.73633c-0.21333,0.29867 -0.37876,0.6444 -0.49609,1.03906c-0.10666,0.384 -0.16016,0.79013 -0.16016,1.2168c0,0.416 0.05349,0.82213 0.16016,1.2168c0.11733,0.39467 0.28276,0.7404 0.49609,1.03906c0.21334,0.29867 0.47387,0.53937 0.78321,0.7207c0.32,0.18133 0.68255,0.27148 1.08789,0.27148c0.39466,0 0.74731,-0.09015 1.05664,-0.27148c0.32,-0.18133 0.58549,-0.42204 0.79883,-0.7207c0.224,-0.29867 0.38942,-0.6444 0.49609,-1.03906c0.11738,-0.39467 0.17578,-0.8008 0.17578,-1.2168c0,-0.42667 -0.05845,-0.8328 -0.17578,-1.2168c-0.10667,-0.39467 -0.27209,-0.7404 -0.49609,-1.03906c-0.21334,-0.30933 -0.47883,-0.555 -0.79883,-0.73633c-0.30933,-0.18134 -0.66198,-0.27148 -1.05664,-0.27148c-0.40534,0 -0.76789,0.09015 -1.08789,0.27148zM237.79698,90.76376c-0.30934,0.18133 -0.56987,0.427 -0.78321,0.73633c-0.21333,0.29867 -0.37876,0.6444 -0.49609,1.03906c-0.10666,0.384 -0.16016,0.79013 -0.16016,1.2168c0,0.416 0.05349,0.82213 0.16016,1.2168c0.11733,0.39467 0.28276,0.7404 0.49609,1.03906c0.21334,0.29867 0.47387,0.53937 0.78321,0.7207c0.32,0.18133 0.68255,0.27148 1.08789,0.27148c0.39466,0 0.74731,-0.09015 1.05664,-0.27148c0.32,-0.18133 0.58549,-0.42204 0.79883,-0.7207c0.224,-0.29867 0.38942,-0.6444 0.49609,-1.03906c0.11738,-0.39467 0.17578,-0.8008 0.17578,-1.2168c0,-0.42667 -0.05845,-0.8328 -0.17578,-1.2168c-0.10667,-0.39467 -0.27209,-0.7404 -0.49609,-1.03906c-0.21334,-0.30933 -0.47883,-0.555 -0.79883,-0.73633c-0.30933,-0.18134 -0.66198,-0.27148 -1.05664,-0.27148c-0.40534,0 -0.76789,0.09015 -1.08789,0.27148zM285.98448,90.76376c-0.30934,0.18133 -0.56987,0.427 -0.78321,0.73633c-0.21333,0.29867 -0.37876,0.6444 -0.49609,1.03906c-0.10666,0.384 -0.16016,0.79013 -0.16016,1.2168c0,0.416 0.05349,0.82213 0.16016,1.2168c0.11733,0.39467 0.28276,0.7404 0.49609,1.03906c0.21334,0.29867 0.47387,0.53937 0.78321,0.7207c0.32,0.18133 0.68255,0.27148 1.08789,0.27148c0.39466,0 0.74731,-0.09015 1.05664,-0.27148c0.32,-0.18133 0.58549,-0.42204 0.79883,-0.7207c0.224,-0.29867 0.38942,-0.6444 0.49609,-1.03906c0.11738,-0.39467 0.17578,-0.8008 0.17578,-1.2168c0,-0.42667 -0.05845,-0.8328 -0.17578,-1.2168c-0.10667,-0.39467 -0.27209,-0.7404 -0.49609,-1.03906c-0.21334,-0.30933 -0.47883,-0.555 -0.79883,-0.73633c-0.30933,-0.18134 -0.66198,-0.27148 -1.05664,-0.27148c-0.40534,0 -0.76789,0.09015 -1.08789,0.27148zM313.44346,90.76376c-0.30933,0.18133 -0.57678,0.427 -0.80078,0.73633c-0.21333,0.29867 -0.37876,0.6444 -0.49609,1.03906c-0.10671,0.384 -0.15821,0.79013 -0.15821,1.2168c0,0.416 0.05154,0.82213 0.15821,1.2168c0.11733,0.39467 0.28276,0.7404 0.49609,1.03906c0.224,0.29867 0.49145,0.53937 0.80078,0.7207c0.30934,0.18133 0.66693,0.27148 1.07227,0.27148c0.40533,0 0.76293,-0.09015 1.07226,-0.27148c0.32,-0.18133 0.5855,-0.42204 0.79883,-0.7207c0.21333,-0.29867 0.3738,-0.6444 0.48047,-1.03906c0.11738,-0.39467 0.17578,-0.8008 0.17578,-1.2168c0,-0.42667 -0.05845,-0.8328 -0.17578,-1.2168c-0.10667,-0.39467 -0.26714,-0.7404 -0.48047,-1.03906c-0.21333,-0.30933 -0.47883,-0.555 -0.79883,-0.73633c-0.30933,-0.18134 -0.66693,-0.27148 -1.07226,-0.27148c-0.40534,0 -0.76293,0.09015 -1.07227,0.27148zM186.58409,93.90047c-0.20267,0.064 -0.44337,0.11253 -0.72071,0.14453c-0.26666,0.032 -0.54899,0.06866 -0.84765,0.11133c-0.288,0.04267 -0.57033,0.09616 -0.84766,0.16016c-0.27733,0.064 -0.52795,0.15911 -0.75195,0.28711c-0.224,0.11733 -0.4043,0.27284 -0.54297,0.46484c-0.12796,0.192 -0.19336,0.43766 -0.19336,0.73633c0,0.23467 0.04853,0.4318 0.14453,0.5918c0.10667,0.14933 0.24039,0.27119 0.40039,0.36719c0.16,0.08533 0.3403,0.14874 0.54297,0.19141c0.20267,0.032 0.40671,0.04883 0.60938,0.04883c0.30933,0 0.6184,-0.0317 0.92773,-0.0957c0.30933,-0.07467 0.5867,-0.19156 0.83203,-0.35156c0.256,-0.16 0.45809,-0.37396 0.60742,-0.64063c0.16004,-0.26667 0.24024,-0.59752 0.24024,-0.99219v-1.13672zM222.52159,93.90047c-0.20267,0.064 -0.44337,0.11253 -0.72071,0.14453c-0.26666,0.032 -0.54899,0.06866 -0.84765,0.11133c-0.288,0.04267 -0.57033,0.09616 -0.84766,0.16016c-0.27733,0.064 -0.52795,0.15911 -0.75195,0.28711c-0.224,0.11733 -0.4043,0.27284 -0.54297,0.46484c-0.12796,0.192 -0.19336,0.43766 -0.19336,0.73633c0,0.23467 0.04853,0.4318 0.14453,0.5918c0.10667,0.14933 0.24039,0.27119 0.40039,0.36719c0.16,0.08533 0.3403,0.14874 0.54297,0.19141c0.20267,0.032 0.40671,0.04883 0.60938,0.04883c0.30933,0 0.6184,-0.0317 0.92773,-0.0957c0.30933,-0.07467 0.5867,-0.19156 0.83203,-0.35156c0.256,-0.16 0.45809,-0.37396 0.60742,-0.64063c0.16004,-0.26667 0.24024,-0.59752 0.24024,-0.99219v-1.13672zM249.30284,93.90047c-0.20267,0.064 -0.44337,0.11253 -0.72071,0.14453c-0.26666,0.032 -0.54899,0.06866 -0.84765,0.11133c-0.288,0.04267 -0.57033,0.09616 -0.84766,0.16016c-0.27733,0.064 -0.52795,0.15911 -0.75195,0.28711c-0.224,0.11733 -0.4043,0.27284 -0.54297,0.46484c-0.12796,0.192 -0.19336,0.43766 -0.19336,0.73633c0,0.23467 0.04853,0.4318 0.14453,0.5918c0.10667,0.14933 0.24039,0.27119 0.40039,0.36719c0.16,0.08533 0.3403,0.14874 0.54297,0.19141c0.20267,0.032 0.40671,0.04883 0.60938,0.04883c0.30933,0 0.6184,-0.0317 0.92773,-0.0957c0.30933,-0.07467 0.5867,-0.19156 0.83203,-0.35156c0.256,-0.16 0.45809,-0.37396 0.60742,-0.64063c0.16004,-0.26667 0.24024,-0.59752 0.24024,-0.99219v-1.13672z" id="path1485" fill="#1eff00" stroke="none" stroke-width="1" stroke-miterlimit="10" stroke-dashoffset="0"/></g></g></g></svg>