<svg version="1.1" xmlns="http://www.w3.org/2000/svg" xmlns:xlink="http://www.w3.org/1999/xlink" width="372.21485" height="68.64263" viewBox="0,0,372.21485,68.64263"><g transform="translate(-53.89258,-145.67868)"><g data-paper-data="{&quot;isPaintingLayer&quot;:true}" fill-rule="nonzero" stroke-linecap="butt" stroke-linejoin="miter" stroke-dasharray="" style="mix-blend-mode: normal"><path d="M425.0097,146.42869c0.19313,0 0.34772,0.15458 0.34772,0.34772v66.4453c0,0.19313 -0.15458,0.34961 -0.34772,0.34961h-370.01752c-0.19313,0 -0.34961,-0.15647 -0.34961,-0.34961v-66.4453c0,-0.19313 0.15647,-0.34772 0.34961,-0.34772z" fill="#1e1e1e" stroke="#1eff00" stroke-width="1.5" stroke-miterlimit="4" stroke-dashoffset="17.35"/><path d="M69.10243,187.56367c1.27597,0 2.33416,4.30813 3.36635,5.05807c1.0323,0.74997 5.45658,0.42505 5.85086,1.63858c0.39428,1.21349 -3.37606,3.55106 -3.77031,4.76462c-0.39428,1.21349 1.28194,5.32074 0.24983,6.07075c-1.0323,0.74997 -4.42061,-2.11344 -5.69654,-2.11344c-1.27593,0 -4.66428,2.86341 -5.6965,2.11344c-1.03226,-0.75001 0.64396,-4.85726 0.24983,-6.07075c-0.39428,-1.21353 -4.16459,-3.55113 -3.77031,-4.76462c0.39428,-1.21353 4.81856,-0.88857 5.85082,-1.63858c1.03223,-0.74993 2.09038,-5.05807 3.36631,-5.05807z" fill="#1eff00" stroke="none" stroke-width="0.88188" stroke-miterlimit="4" stroke-dashoffset="17.35"/><path d="M92.03948,187.56367c1.27593,0 2.33405,4.30813 3.36631,5.05807c1.03226,0.74997 5.4565,0.42505 5.85078,1.63858c0.39428,1.21349 -3.37599,3.55106 -3.77027,4.76462c-0.39432,1.21349 1.2819,5.32074 0.24945,6.07075c-1.03223,0.74997 -4.42054,-2.11344 -5.69647,-2.11344c-1.27593,0 -4.6642,2.86341 -5.69647,2.11344c-1.03226,-0.75001 0.64396,-4.85726 0.24945,-6.07075c-0.39428,-1.21353 -4.16455,-3.55113 -3.77031,-4.76462c0.39428,-1.21353 4.81856,-0.88857 5.85078,-1.63858c1.0323,-0.74993 2.09042,-5.05807 3.36635,-5.05807z" fill="#1eff00" stroke="none" stroke-width="0.88188" stroke-miterlimit="4" stroke-dashoffset="17.35"/><path d="M114.97638,187.56367c1.27593,0 2.33409,4.30813 3.36631,5.05807c1.03223,0.74997 5.4565,0.42505 5.85078,1.63858c0.39428,1.21349 -3.37603,3.55106 -3.77031,4.76462c-0.39428,1.21349 1.28194,5.32074 0.24983,6.07075c-1.03226,0.74997 -4.42054,-2.11344 -5.69647,-2.11344c-1.27593,0 -4.66424,2.86341 -5.6965,2.11344c-1.03223,-0.75001 0.64396,-4.85726 0.24983,-6.07075c-0.39428,-1.21353 -4.16459,-3.55113 -3.77031,-4.76462c0.39432,-1.21353 4.81856,-0.88857 5.85082,-1.63858c1.03226,-0.74993 2.09038,-5.05807 3.36631,-5.05807z" fill="#1eff00" stroke="none" stroke-width="0.88188" stroke-miterlimit="4" stroke-dashoffset="17.35"/><path d="M137.91357,187.56367c1.27593,0 2.33409,4.30813 3.36631,5.05807c1.03226,0.74997 5.4565,0.42505 5.85082,1.63858c0.39428,1.21349 -3.37603,3.55106 -3.77031,4.76462c-0.39428,1.21349 1.2819,5.32074 0.24983,6.07075c-1.0323,0.74997 -4.42061,-2.11344 -5.69654,-2.11344c-1.27593,0 -4.66424,2.86341 -5.6965,2.11344c-1.03223,-0.75001 0.64396,-4.85726 0.24983,-6.07075c-0.39428,-1.21353 -4.16459,-3.55113 -3.77031,-4.76462c0.39432,-1.21353 4.81856,-0.88857 5.85082,-1.63858c1.0323,-0.74993 2.09038,-5.05807 3.36631,-5.05807z" fill="#1eff00" stroke="none" stroke-width="0.88188" stroke-miterlimit="4" stroke-dashoffset="17.35"/><path d="M160.85123,196.30401c0.01134,0 0.02268,0.04309 0.03402,0.05065c0.01134,0.00756 0.05443,0.00378 0.05858,0.01512c0.00378,0.01134 -0.03402,0.03402 -0.0378,0.04762c-0.00378,0.01134 0.01134,0.05329 0.002,0.06085c-0.01134,0.00756 -0.04422,-0.02268 -0.05707,-0.02268c-0.01134,0 -0.04649,0.03024 -0.05707,0.02268c-0.01134,-0.00756 0.00756,-0.04876 0.002,-0.06085c-0.00378,-0.01134 -0.04157,-0.03402 -0.0378,-0.04762c0.00378,-0.01134 0.048,-0.00756 0.05858,-0.01512c0.01134,-0.00756 0.0189,-0.05065 0.03402,-0.05065z" fill="#1eff00" stroke="none" stroke-width="0.00882" stroke-miterlimit="4" stroke-dashoffset="17.35"/><path d="M160.85058,196.30401c0.01134,0 0.02268,0.04309 0.03402,0.05065c0.01134,0.00756 0.05443,0.00378 0.05858,0.01512c0.00378,0.01134 -0.03402,0.03402 -0.0378,0.04762c-0.00378,0.01134 0.01134,0.05329 0.00249,0.06085c-0.01134,0.00756 -0.04422,-0.02268 -0.05707,-0.02268c-0.01134,0 -0.04649,0.03024 -0.05707,0.02268c-0.01134,-0.00756 0.00756,-0.04876 0.00249,-0.06085c-0.00378,-0.01134 -0.04157,-0.03402 -0.0378,-0.04762c0.00378,-0.01134 0.048,-0.00756 0.05858,-0.01512c0.01134,-0.00756 0.02268,-0.05065 0.03402,-0.05065z" fill="#1eff00" stroke="none" stroke-width="0.00882" stroke-miterlimit="4" stroke-dashoffset="17.35"/><path d="M66.40352,153.44322c0.23705,0.19404 0.41452,0.45204 0.5332,0.77539l4.05859,10.44531c0.05392,0.14022 0.08008,0.27504 0.08008,0.4043c0,0.09701 -0.01658,0.20554 -0.04883,0.32422c-0.0325,0.11842 -0.08482,0.23679 -0.16015,0.35547c-0.07534,0.10759 -0.18413,0.1998 -0.32422,0.27539c-0.12936,0.07534 -0.29036,0.11328 -0.48438,0.11328c-0.22637,0 -0.43684,-0.07084 -0.63086,-0.21094c-0.19409,-0.14022 -0.33375,-0.32451 -0.41992,-0.55078l-1.06836,-3.07031h-4.65625l-1.03515,3.23242c-0.06451,0.19396 -0.18287,0.34528 -0.35547,0.45312c-0.17243,0.09701 -0.36156,0.14648 -0.56641,0.14648c-0.29092,0 -0.54408,-0.097 -0.75977,-0.29101c-0.20485,-0.19402 -0.30664,-0.43263 -0.30664,-0.71289c0,-0.10784 0.01658,-0.20963 0.04883,-0.30664l3.84766,-10.60742c0.11865,-0.32338 0.29131,-0.58137 0.51758,-0.77539c0.23715,-0.19402 0.52812,-0.29102 0.87304,-0.29102c0.34502,0 0.63116,0.097 0.85743,0.29102zM105.65547,153.44322c0.23705,0.19404 0.41648,0.45204 0.53515,0.77539l4.05665,10.44531c0.05392,0.14022 0.08203,0.27504 0.08203,0.4043c0,0.09701 -0.01658,0.20554 -0.04883,0.32422c-0.03251,0.11842 -0.08677,0.23679 -0.16211,0.35547c-0.07559,0.10759 -0.18217,0.1998 -0.32227,0.27539c-0.12936,0.07534 -0.29231,0.11328 -0.48632,0.11328c-0.22637,0 -0.43685,-0.07084 -0.63086,-0.21094c-0.1941,-0.14022 -0.33375,-0.32451 -0.41993,-0.55078l-1.0664,-3.07031h-4.65625l-1.03516,3.23242c-0.0645,0.19396 -0.18287,0.34528 -0.35547,0.45312c-0.17242,0.09701 -0.36155,0.14648 -0.5664,0.14648c-0.29093,0 -0.54408,-0.097 -0.75977,-0.29101c-0.20485,-0.19402 -0.30664,-0.43263 -0.30664,-0.71289c0,-0.10784 0.01462,-0.20963 0.04688,-0.30664l3.84961,-10.60742c0.11867,-0.32338 0.29131,-0.58137 0.51757,-0.77539c0.23713,-0.19402 0.52813,-0.29102 0.87305,-0.29102c0.34502,0 0.6292,0.097 0.85547,0.29102zM73.73359,153.58971c0.20493,0.12934 0.39406,0.31652 0.56641,0.56445l5.78711,8.68359v-8.50586c0,-0.26953 0.09221,-0.49455 0.27539,-0.67773c0.18326,-0.18318 0.41021,-0.27539 0.67969,-0.27539c0.26953,0 0.49455,0.09221 0.67773,0.27539c0.18318,0.18323 0.27539,0.40825 0.27539,0.67773v10.84961c0,0.2587 -0.09221,0.48567 -0.27539,0.67969c-0.18325,0.18318 -0.40828,0.27539 -0.67773,0.27539v-0.00195c-0.30179,0 -0.55492,-0.0641 -0.75977,-0.19336c-0.20472,-0.14012 -0.38902,-0.33409 -0.55078,-0.58203l-5.80469,-8.61719v8.43945c0,0.2587 -0.09221,0.48567 -0.27539,0.67969c-0.18325,0.18318 -0.40825,0.27344 -0.67773,0.27344c-0.2587,0 -0.48567,-0.09026 -0.67969,-0.27344c-0.18318,-0.19402 -0.27539,-0.42099 -0.27539,-0.67969v-10.84961c0,-0.26953 0.09221,-0.49455 0.27539,-0.67773c0.19402,-0.18318 0.42099,-0.27539 0.67969,-0.27539c0.30178,0 0.55491,0.07084 0.75976,0.21094zM84.88984,153.65416c0.19402,0.18323 0.29102,0.40825 0.29102,0.67773c0,0.2587 -0.097,0.48567 -0.29102,0.67969c-0.18325,0.18318 -0.40536,0.27539 -0.66406,0.27539c-0.26948,0 -0.5013,-0.09221 -0.69531,-0.27539c-0.18318,-0.19401 -0.27344,-0.42099 -0.27344,-0.67969c0,-0.26953 0.09026,-0.49455 0.27344,-0.67773c0.19401,-0.18318 0.42583,-0.27539 0.69531,-0.27539c0.25877,0 0.48088,0.09221 0.66406,0.27539zM88.53633,153.76744c0.22639,0.24791 0.41068,0.54857 0.55078,0.9043l3.42773,8.86133l3.42774,-8.86133c0.14027,-0.3557 0.31777,-0.65636 0.5332,-0.9043c0.22637,-0.2587 0.52898,-0.38867 0.90625,-0.38867c0.33424,0 0.61358,0.11837 0.83985,0.35547c0.2371,0.22634 0.35546,0.50084 0.35546,0.82422v10.7207c0,0.23703 -0.08546,0.44068 -0.25781,0.61328c-0.16171,0.16176 -0.36055,0.24414 -0.59765,0.24414c-0.23708,0 -0.43785,-0.08238 -0.59961,-0.24414c-0.16177,-0.17252 -0.24219,-0.37618 -0.24219,-0.61328v-8.29492l-3.15235,8.21289c-0.10774,0.28011 -0.2639,0.50709 -0.46875,0.67969c-0.19401,0.17235 -0.44233,0.25781 -0.74414,0.25781c-0.30175,0 -0.55491,-0.08547 -0.75976,-0.25781c-0.19399,-0.17247 -0.34528,-0.39945 -0.45313,-0.67969l-3.15234,-8.21289v8.29492c0,0.23703 -0.08042,0.44068 -0.24219,0.61328c-0.16174,0.16176 -0.36251,0.24414 -0.59961,0.24414c-0.23725,0 -0.44093,-0.08238 -0.61328,-0.24414c-0.16176,-0.17252 -0.24414,-0.37618 -0.24414,-0.61328v-10.7207c0,-0.32345 0.11358,-0.59795 0.33984,-0.82422c0.23713,-0.2371 0.52327,-0.35547 0.85743,-0.35547c0.37717,0 0.67298,0.12998 0.88867,0.38867zM63.81562,160.58971h3.5254l-1.85938,-5.32031zM103.06953,160.58971h3.52344l-1.85938,-5.32031zM84.82539,157.03307c0.16176,0.16171 0.24219,0.36055 0.24219,0.59766v7.64844c0,0.23703 -0.08043,0.44068 -0.24219,0.61328c-0.16174,0.16176 -0.36251,0.24414 -0.59961,0.24414c-0.23725,0 -0.44093,-0.08238 -0.61328,-0.24414c-0.16176,-0.17252 -0.24414,-0.37618 -0.24414,-0.61328v-7.64844c0,-0.23705 0.08238,-0.43589 0.24414,-0.59766c0.1725,-0.17235 0.37618,-0.25977 0.61328,-0.25977c0.23708,0 0.43785,0.08742 0.59961,0.25977zM67.27656,168.16197c0.57129,0.21558 1.03976,0.48038 1.40625,0.79297c0.36642,0.31259 0.63121,0.64141 0.79297,0.98633c0.17235,0.34497 0.25781,0.63594 0.25781,0.87305c0,0.1725 -0.03794,0.32865 -0.11328,0.46875c-0.0645,0.12926 -0.15671,0.24284 -0.27539,0.33984c-0.10784,0.08617 -0.231,0.15506 -0.37109,0.20898c-0.14017,0.04309 -0.27983,0.06445 -0.41992,0.06445c-0.18324,0 -0.35103,-0.04273 -0.50196,-0.12891c-0.15093,-0.08625 -0.25946,-0.22591 -0.32422,-0.41992c-0.08635,-0.24796 -0.21437,-0.4633 -0.38671,-0.64648c-0.1725,-0.18316 -0.37814,-0.33445 -0.61524,-0.45312c-0.22634,-0.12926 -0.47466,-0.22147 -0.74414,-0.27539c-0.26948,-0.06476 -0.53232,-0.09766 -0.79102,-0.09766c-0.77608,0 -1.34153,0.13482 -1.69726,0.4043c-0.3557,0.26948 -0.53516,0.63127 -0.53516,1.08398c0,0.33411 0.10375,0.60374 0.3086,0.80859c0.21558,0.19407 0.4949,0.36186 0.83984,0.50195c0.34492,0.12926 0.73289,0.24088 1.16406,0.33789c0.44193,0.08617 0.88906,0.18992 1.3418,0.30859c0.4635,0.10772 0.91063,0.24253 1.3418,0.4043c0.44192,0.16169 0.83669,0.38184 1.18164,0.66211c0.34487,0.26948 0.61937,0.61477 0.82422,1.03516c0.21568,0.4096 0.32422,0.92076 0.32422,1.53516c-0.00001,0.70065 -0.14646,1.31073 -0.4375,1.82812c-0.28024,0.50661 -0.65658,0.92756 -1.13086,1.26172c-0.47428,0.32327 -1.02521,0.5648 -1.6504,0.72656c-0.6144,0.16176 -1.2555,0.24219 -1.92382,0.24219c-0.82999,0 -1.53512,-0.10658 -2.11719,-0.32227c-0.58205,-0.21558 -1.06218,-0.49204 -1.43945,-0.82617c-0.36662,-0.33416 -0.63625,-0.694 -0.8086,-1.08203c-0.16176,-0.38806 -0.24218,-0.75953 -0.24218,-1.11523c0,-0.19394 0.03094,-0.37339 0.0957,-0.53516c0.07534,-0.16164 0.16755,-0.29645 0.27539,-0.4043c0.1186,-0.11842 0.24858,-0.20868 0.38867,-0.27344c0.15095,-0.06476 0.29545,-0.09766 0.43555,-0.09766c0.18323,0 0.35102,0.05427 0.50195,0.16211c0.15093,0.09711 0.25272,0.25811 0.30664,0.48437c0.14012,0.57129 0.40007,1.03005 0.77734,1.375c0.38804,0.34492 0.99619,0.51758 1.82618,0.51758c0.80844,0 1.44954,-0.13968 1.92382,-0.41992c0.47429,-0.28026 0.71094,-0.68471 0.71094,-1.21289c0,-0.3558 -0.10179,-0.64678 -0.30664,-0.87305c-0.2048,-0.23705 -0.47927,-0.43785 -0.82422,-0.59961c-0.33413,-0.16164 -0.71727,-0.29645 -1.14843,-0.4043c-0.43117,-0.11842 -0.87346,-0.23679 -1.32618,-0.35547c-0.44195,-0.12926 -0.87742,-0.27378 -1.30859,-0.43555c-0.43114,-0.16166 -0.81912,-0.3673 -1.16406,-0.61523c-0.33409,-0.2587 -0.60375,-0.57101 -0.8086,-0.9375c-0.20485,-0.37727 -0.30664,-0.8409 -0.30664,-1.39062c0.01084,-0.61442 0.1292,-1.15853 0.35547,-1.63281c0.23713,-0.47428 0.55913,-0.87391 0.96875,-1.19727c0.4096,-0.32325 0.89458,-0.56959 1.45508,-0.74219c0.5605,-0.17235 1.17543,-0.25977 1.84375,-0.25977c0.80842,0 1.49902,0.11358 2.07031,0.33984zM115.23359,168.06432c0.22627,0.16169 0.33985,0.37216 0.33985,0.63086c0,0.07559 -0.00555,0.12986 -0.01563,0.16211l-0.40429,1.84375c-0.04309,0.17235 -0.11198,0.31687 -0.20899,0.43555c-0.09713,0.11868 -0.23195,0.17773 -0.4043,0.17773c-0.17247,0 -0.30728,-0.05906 -0.40429,-0.17773c-0.09701,-0.11868 -0.16785,-0.2632 -0.21094,-0.43555l-0.40625,-1.84375c-0.01008,-0.0325 -0.01562,-0.08677 -0.01563,-0.16211c0.00001,-0.25862 0.11358,-0.4691 0.33985,-0.63086c0.22639,-0.16176 0.45821,-0.24219 0.69531,-0.24219c0.23723,0 0.46905,0.08042 0.69531,0.24219zM156.31172,168.03307c0.5605,0.12933 1.05711,0.36115 1.48828,0.69531c0.43117,0.32338 0.77646,0.75887 1.03516,1.30859c0.25869,0.54974 0.38672,1.23549 0.38672,2.05469c-0.00001,0.4635 -0.08522,0.89899 -0.25782,1.30859c-0.17244,0.4096 -0.39942,0.78787 -0.67968,1.13281c-0.26949,0.34492 -0.57696,0.66208 -0.92188,0.95312c-0.34494,0.28029 -0.69024,0.53829 -1.03516,0.77539c-0.33416,0.23715 -0.65131,0.45442 -0.95312,0.64844c-0.30188,0.18326 -0.54534,0.34428 -0.72852,0.48437c-0.08642,0.06476 -0.193,0.14518 -0.32226,0.24219c-0.12926,0.09701 -0.25437,0.19401 -0.37305,0.29102c-0.11868,0.09701 -0.22047,0.19401 -0.30664,0.29101c-0.08617,0.09701 -0.12891,0.18247 -0.12891,0.25781c0,0.06476 0.03795,0.11902 0.11328,0.16211c0.07547,0.03225 0.21029,0.04883 0.4043,0.04883h4.38086c0.291,0 0.53929,0.10179 0.74414,0.30664c0.20485,0.2048 0.30664,0.45309 0.30664,0.74414c0,0.30176 -0.10179,0.55491 -0.30664,0.75976c-0.2048,0.20485 -0.45309,0.30859 -0.74414,0.30859h-7.14648c-0.30176,0 -0.55492,-0.11358 -0.75977,-0.33984c-0.20485,-0.22634 -0.30664,-0.46982 -0.30664,-0.72851c0,-0.50663 0.15616,-0.98479 0.46875,-1.4375c0.32338,-0.45274 0.72103,-0.88532 1.19531,-1.29492c0.48504,-0.42038 1.00783,-0.82486 1.56836,-1.21289c0.56051,-0.39884 1.07846,-0.7965 1.55274,-1.19531c0.48506,-0.39882 0.88467,-0.80813 1.19726,-1.22852c0.32335,-0.42038 0.48438,-0.86752 0.48438,-1.3418c0,-0.72219 -0.20564,-1.24498 -0.61524,-1.56836c-0.39881,-0.33416 -0.89347,-0.50195 -1.48633,-0.50195c-0.23702,0 -0.464,0.02616 -0.67968,0.08008c-0.21551,0.05392 -0.40464,0.14613 -0.56641,0.27539c-0.16169,0.12923 -0.28971,0.30189 -0.38672,0.51758c-0.08617,0.21558 -0.1289,0.48522 -0.1289,0.80859c0,0.28011 -0.11358,0.50514 -0.33985,0.67773c-0.22637,0.16176 -0.47952,0.24414 -0.75976,0.24414c-0.16167,0 -0.31782,-0.02811 -0.46875,-0.08203c-0.15081,-0.05392 -0.28562,-0.13913 -0.4043,-0.25781c-0.11868,-0.11843 -0.21568,-0.2649 -0.29102,-0.4375c-0.07559,-0.18326 -0.11328,-0.40341 -0.11328,-0.66211c0,-0.5605 0.11837,-1.04548 0.35547,-1.45508c0.24794,-0.4096 0.5651,-0.75005 0.95313,-1.01953c0.38805,-0.28034 0.83035,-0.48402 1.32617,-0.61328c0.49585,-0.14009 0.9973,-0.21094 1.5039,-0.21094c0.60365,0 1.18559,0.07084 1.7461,0.21094zM82.56562,168.38853c0.23711,0.22637 0.35547,0.50084 0.35547,0.82422v6.14453l3.26563,-3.58984c0.19401,-0.21568 0.42583,-0.32227 0.69531,-0.32227c0.09701,0 0.20554,0.02137 0.32422,0.06445c0.11868,0.04309 0.22721,0.10719 0.32422,0.19336c0.09701,0.08642 0.17743,0.19496 0.24219,0.32422c0.06475,0.11848 0.0957,0.25816 0.0957,0.41992c0,0.12939 -0.02616,0.2642 -0.08008,0.4043c-0.05392,0.12926 -0.13434,0.24284 -0.24219,0.33984l-1.89257,1.875l2.65234,3.94531c0.11868,0.18318 0.17773,0.37718 0.17773,0.58203c0,0.1186 -0.02615,0.24662 -0.08007,0.38672c-0.04309,0.14027 -0.11872,0.27025 -0.22657,0.38867c-0.09693,0.11868 -0.2269,0.22047 -0.38867,0.30664c-0.16179,0.08617 -0.35576,0.13086 -0.58203,0.13086c-0.15093,0 -0.29545,-0.02811 -0.43555,-0.08203c-0.14009,-0.06476 -0.25367,-0.16655 -0.33984,-0.30664l-2.36133,-3.76758l-1.14844,1.14844v1.84375c0,0.31262 -0.11836,0.58712 -0.35547,0.82422c-0.22634,0.22627 -0.50084,0.33984 -0.82421,0.33984c-0.31265,0 -0.58712,-0.11358 -0.82422,-0.33984c-0.22627,-0.23713 -0.33985,-0.51163 -0.33985,-0.82422v-10.42969c0,-0.32348 0.11358,-0.59795 0.33985,-0.82422c0.23715,-0.22627 0.51162,-0.33984 0.82422,-0.33984c0.32345,0 0.59795,0.11358 0.82421,0.33984zM131.65938,168.40416c0.24793,0.23713 0.37109,0.5281 0.37109,0.87305v9.41016h5.22265c0.30176,0 0.55492,0.10179 0.75977,0.30664c0.20485,0.2048 0.30664,0.45309 0.30664,0.74414c0,0.30176 -0.10179,0.55491 -0.30664,0.75976c-0.2048,0.20485 -0.45796,0.30859 -0.75977,0.30859h-6.41992c-0.15088,0 -0.30024,-0.02332 -0.45117,-0.06641c-0.151,-0.05392 -0.29261,-0.1276 -0.42187,-0.22461c-0.11868,-0.10772 -0.21568,-0.24253 -0.29102,-0.4043c-0.07534,-0.16179 -0.11328,-0.35576 -0.11328,-0.58203v-10.25195c0,-0.34497 0.12032,-0.63594 0.35742,-0.87305c0.23715,-0.2371 0.52813,-0.35547 0.87305,-0.35547c0.34497,0 0.63594,0.11837 0.87305,0.35547zM167.45625,168.19322c0.21556,0.0861 0.3979,0.21607 0.54883,0.38867c0.16176,0.16176 0.28687,0.35576 0.37304,0.58203c0.09701,0.22637 0.14454,0.46982 0.14454,0.72852v5.85156h0.87304c0.29098,0 0.53929,0.10374 0.74414,0.30859c0.21569,0.20482 0.32422,0.45796 0.32422,0.75976c0,0.29097 -0.10853,0.53929 -0.32422,0.74414c-0.2048,0.20485 -0.45311,0.30664 -0.74414,0.30664h-0.87304v1.71289c0,0.34494 -0.12316,0.63594 -0.3711,0.87305c-0.23715,0.2371 -0.52812,0.35742 -0.87304,0.35742c-0.34497,0 -0.63595,-0.12032 -0.87305,-0.35742c-0.2371,-0.23713 -0.35547,-0.52813 -0.35547,-0.87305v-1.71289h-4.00977c-0.31256,0 -0.59386,-0.04948 -0.84179,-0.14648c-0.24799,-0.10789 -0.46331,-0.24757 -0.64649,-0.41992c-0.17244,-0.17257 -0.30729,-0.37139 -0.40429,-0.59766c-0.09701,-0.23713 -0.14454,-0.48544 -0.14454,-0.74414c0,-0.54974 0.20853,-1.06767 0.62891,-1.55273l4.52735,-5.33594c0.2371,-0.28024 0.48057,-0.51692 0.72851,-0.71094c0.2587,-0.20485 0.55451,-0.30664 0.88867,-0.30664c0.23703,0 0.464,0.04752 0.67969,0.14453zM162.15352,175.744h3.89648v-4.65625zM76.91523,171.58972c0.4635,0.09698 0.86311,0.24632 1.19727,0.45117c0.345,0.2048 0.60979,0.46475 0.79297,0.77734c0.19401,0.30181 0.29101,0.66844 0.29101,1.09961v5.77148c0,0.31249 -0.10853,0.57728 -0.32421,0.79297c-0.21556,0.21568 -0.48038,0.32227 -0.79297,0.32227c-0.29095,0 -0.54408,-0.09026 -0.75977,-0.27344c-0.20485,-0.19401 -0.32322,-0.43749 -0.35547,-0.72851c-0.4096,0.38808 -0.84023,0.65287 -1.29297,0.79297c-0.45271,0.14009 -0.96386,0.20898 -1.53515,0.20898c-0.36649,0 -0.73992,-0.05231 -1.11719,-0.16016c-0.36649,-0.10769 -0.70015,-0.27064 -1.00195,-0.48633c-0.2911,-0.22637 -0.52776,-0.50087 -0.71094,-0.82422c-0.18318,-0.32338 -0.27539,-0.69969 -0.27539,-1.13086c0,-0.6683 0.14645,-1.19109 0.4375,-1.56836c0.30181,-0.37727 0.67328,-0.66341 1.11523,-0.85742c0.44193,-0.19409 0.91527,-0.33375 1.42188,-0.41992c0.51742,-0.08617 0.99752,-0.17359 1.43945,-0.25976c0.44195,-0.08617 0.80859,-0.20454 1.09961,-0.35547c0.30181,-0.16169 0.45313,-0.41485 0.45313,-0.75977c0,-0.16159 -0.04948,-0.30124 -0.14649,-0.41992c-0.08617,-0.12951 -0.20933,-0.23325 -0.37109,-0.30859c-0.16159,-0.08617 -0.35072,-0.15027 -0.56641,-0.19336c-0.21561,-0.04309 -0.44258,-0.06445 -0.67969,-0.06445c-0.31246,0 -0.55396,0.04273 -0.72656,0.12891c-0.17242,0.08643 -0.31208,0.19496 -0.41992,0.32422c-0.09701,0.12926 -0.17939,0.27378 -0.24414,0.43555c-0.06476,0.151 -0.14518,0.29261 -0.24219,0.42187c-0.08617,0.12951 -0.20454,0.23609 -0.35547,0.32227c-0.1509,0.08617 -0.36622,0.12891 -0.64648,0.12891c-0.2587,0 -0.48567,-0.0641 -0.67969,-0.19336c-0.18318,-0.14012 -0.27344,-0.38844 -0.27344,-0.74414c0,-0.34494 0.08547,-0.6621 0.25782,-0.95312c0.17247,-0.29097 0.42076,-0.53929 0.74414,-0.74414c0.32337,-0.21548 0.71619,-0.38328 1.17968,-0.50195c0.4635,-0.11868 0.98629,-0.17773 1.56836,-0.17773c0.54972,0 1.05604,0.04948 1.51953,0.14648zM91.43867,171.80064c0.22627,0.22634 0.33789,0.49405 0.33789,0.80664v4.56055c0,0.2371 0.04469,0.45726 0.13086,0.66211c0.09701,0.20472 0.22017,0.38902 0.3711,0.55078c0.15085,0.15093 0.32835,0.26929 0.5332,0.35547c0.21568,0.08617 0.43779,0.12891 0.66406,0.12891c0.23708,0 0.45726,-0.04273 0.66211,-0.12891c0.20478,-0.08617 0.38227,-0.20454 0.5332,-0.35547c0.15093,-0.16164 0.2693,-0.34593 0.35547,-0.55078c0.09701,-0.20485 0.14649,-0.42501 0.14649,-0.66211v-4.56055c0,-0.31267 0.11357,-0.58037 0.33984,-0.80664c0.23713,-0.2371 0.51647,-0.35742 0.83984,-0.35742c0.32346,0 0.59796,0.12032 0.82422,0.35742c0.22627,0.22634 0.33985,0.49405 0.33985,0.80664v7.03516c0,0.31262 -0.11358,0.58712 -0.33985,0.82422c-0.22634,0.22627 -0.50084,0.33789 -0.82422,0.33789c-0.32347,0 -0.59795,-0.11162 -0.82421,-0.33789c-0.22627,-0.23713 -0.33985,-0.51163 -0.33985,-0.82422c-0.09693,0.1186 -0.22691,0.24662 -0.38867,0.38672c-0.16179,0.12926 -0.35576,0.25437 -0.58203,0.37305c-0.22637,0.10784 -0.48437,0.20484 -0.77539,0.29102c-0.29103,0.07534 -0.61984,0.11133 -0.98633,0.11133c-0.40963,0 -0.79757,-0.0641 -1.16406,-0.19336c-0.36649,-0.14009 -0.69047,-0.33409 -0.97071,-0.58203c-0.2694,-0.2587 -0.48472,-0.55935 -0.64648,-0.9043c-0.16176,-0.3557 -0.24219,-0.75047 -0.24219,-1.18164v-5.33594c0,-0.31267 0.11358,-0.58037 0.33985,-0.80664c0.23712,-0.2371 0.51646,-0.35742 0.83984,-0.35742c0.32345,0 0.5999,0.12032 0.82617,0.35742zM103.98555,171.78307c0.16176,0.22637 0.24414,0.49116 0.24414,0.79297c0,0.24801 -0.05906,0.43715 -0.17774,0.56641c-0.10789,0.11842 -0.24953,0.20868 -0.42187,0.27344c-0.16172,0.06476 -0.33919,0.11902 -0.5332,0.16211c-0.19389,0.03225 -0.37623,0.08173 -0.54883,0.14648c-0.3126,0.11858 -0.56575,0.27473 -0.75977,0.46875c-0.18326,0.18316 -0.32487,0.38197 -0.42187,0.59766c-0.09701,0.2047 -0.16111,0.41517 -0.19336,0.63086c-0.03226,0.21563 -0.04883,0.41447 -0.04883,0.59766v3.62305c0,0.32345 -0.11837,0.59795 -0.35547,0.82422c-0.22637,0.22627 -0.50087,0.33984 -0.82422,0.33984c-0.31264,0 -0.58712,-0.11358 -0.82422,-0.33984c-0.22627,-0.23713 -0.33984,-0.51163 -0.33984,-0.82422v-7.03516c0,-0.31267 0.11357,-0.58037 0.33984,-0.80664c0.23716,-0.2371 0.5165,-0.35547 0.83985,-0.35547c0.32347,0 0.59795,0.11837 0.82422,0.35547c0.22626,0.22634 0.33984,0.49405 0.33984,0.80664c0.09701,-0.10784 0.21537,-0.231 0.35547,-0.37109c0.15103,-0.14009 0.31398,-0.26325 0.48633,-0.37109c0.18325,-0.11868 0.37043,-0.21568 0.56445,-0.29102c0.19401,-0.08617 0.38801,-0.13086 0.58203,-0.13086c0.43114,0 0.72212,0.11358 0.87305,0.33984zM110.25117,171.58972c0.4635,0.09698 0.86311,0.24632 1.19727,0.45117c0.34499,0.2048 0.60783,0.46475 0.79101,0.77734c0.19402,0.30181 0.29102,0.66844 0.29102,1.09961v5.77148c0,0.31249 -0.10658,0.57728 -0.32227,0.79297c-0.21558,0.21568 -0.48037,0.32227 -0.79297,0.32227c-0.29092,0 -0.54408,-0.09026 -0.75976,-0.27344c-0.20485,-0.19401 -0.32322,-0.43749 -0.35547,-0.72851c-0.4096,0.38808 -0.84026,0.65287 -1.29297,0.79297c-0.45274,0.14009 -0.96582,0.20898 -1.53711,0.20898c-0.36649,0 -0.73799,-0.05231 -1.11523,-0.16016c-0.36649,-0.10769 -0.70012,-0.27064 -1.00196,-0.48633c-0.29109,-0.22637 -0.52971,-0.50087 -0.71289,-0.82422c-0.18318,-0.32338 -0.27343,-0.69969 -0.27343,-1.13086c0,-0.6683 0.14452,-1.19109 0.43554,-1.56836c0.30184,-0.37727 0.67331,-0.66341 1.11524,-0.85742c0.44195,-0.19409 0.91722,-0.33375 1.42383,-0.41992c0.51739,-0.08617 0.9975,-0.17359 1.43945,-0.25976c0.44193,-0.08617 0.80856,-0.20454 1.09961,-0.35547c0.30181,-0.16169 0.45117,-0.41485 0.45117,-0.75977c0,-0.16159 -0.04752,-0.30124 -0.14453,-0.41992c-0.08617,-0.12951 -0.21128,-0.23325 -0.37305,-0.30859c-0.16156,-0.08617 -0.34877,-0.15027 -0.56445,-0.19336c-0.21564,-0.04309 -0.44259,-0.06445 -0.67969,-0.06445c-0.31269,0 -0.55421,0.04273 -0.72656,0.12891c-0.17242,0.08643 -0.31403,0.19496 -0.42188,0.32422c-0.097,0.12926 -0.17743,0.27378 -0.24218,0.43555c-0.06476,0.151 -0.14518,0.29261 -0.24219,0.42187c-0.08617,0.12951 -0.20454,0.23609 -0.35547,0.32227c-0.1509,0.08617 -0.36622,0.12891 -0.64648,0.12891c-0.2587,0 -0.48568,-0.0641 -0.67969,-0.19336c-0.18318,-0.14012 -0.27539,-0.38844 -0.27539,-0.74414c0,-0.34494 0.08716,-0.6621 0.25976,-0.95312c0.17245,-0.29097 0.42077,-0.53929 0.74414,-0.74414c0.32338,-0.21548 0.7162,-0.38328 1.17969,-0.50195c0.4635,-0.11868 0.98629,-0.17773 1.56836,-0.17773c0.54975,0 1.05604,0.04948 1.51953,0.14648zM121.58906,171.68736c0.45271,0.151 0.83389,0.33819 1.14649,0.56445c0.32325,0.22637 0.57154,0.47468 0.74414,0.74414c0.18318,0.2588 0.27539,0.50225 0.27539,0.72852c0,0.14002 -0.0329,0.26804 -0.09766,0.38672c-0.0645,0.11868 -0.14997,0.22242 -0.25781,0.30859c-0.09701,0.07534 -0.21058,0.13944 -0.33984,0.19336c-0.11843,0.04309 -0.2368,0.06445 -0.35547,0.06445c-0.12926,0 -0.25242,-0.02616 -0.3711,-0.08008c-0.11867,-0.06476 -0.20584,-0.17329 -0.25976,-0.32422c-0.08618,-0.20482 -0.20454,-0.37748 -0.35547,-0.51758c-0.1402,-0.14009 -0.3012,-0.25367 -0.48438,-0.33984c-0.17242,-0.09701 -0.36155,-0.1659 -0.5664,-0.20898c-0.19402,-0.04309 -0.38802,-0.06445 -0.58203,-0.06445c-0.42039,0 -0.77052,0.07368 -1.05078,0.22461c-0.28024,0.14012 -0.42188,0.36709 -0.42188,0.67969c0,0.25872 0.13484,0.45756 0.4043,0.59766c0.28026,0.14009 0.62555,0.2652 1.03515,0.37305c0.4096,0.09701 0.85189,0.20359 1.32617,0.32226c0.47429,0.10779 0.91658,0.25911 1.32618,0.45312c0.40962,0.18323 0.74812,0.43155 1.01758,0.74414c0.28026,0.30183 0.42187,0.70628 0.42187,1.21289c0,0.53896 -0.10179,1.01227 -0.30664,1.42188c-0.19402,0.39881 -0.46365,0.73927 -0.80859,1.01953c-0.33414,0.2695 -0.73377,0.47319 -1.19727,0.61328c-0.45274,0.14009 -0.93769,0.21094 -1.45508,0.21094c-0.65751,0 -1.23946,-0.09221 -1.74609,-0.27539c-0.50661,-0.19404 -0.93243,-0.4307 -1.27735,-0.71094c-0.34499,-0.28026 -0.60978,-0.58774 -0.79296,-0.92187c-0.1726,-0.34494 -0.25782,-0.6621 -0.25782,-0.95312c0,-0.24791 0.11358,-0.44868 0.33985,-0.59961c0.23712,-0.15093 0.49028,-0.22656 0.75976,-0.22656c0.18323,0 0.34907,0.03769 0.5,0.11328c0.15093,0.07534 0.25947,0.1937 0.32422,0.35547c0.18323,0.45274 0.44805,0.81937 0.79297,1.09961c0.34494,0.28026 0.79692,0.42187 1.35742,0.42187c0.18331,0 0.36565,-0.02137 0.54883,-0.06445c0.18328,-0.05392 0.34623,-0.12476 0.48633,-0.21094c0.15093,-0.09701 0.26929,-0.21058 0.35547,-0.33984c0.097,-0.1402 0.14453,-0.30119 0.14453,-0.48438c0,-0.29095 -0.13482,-0.51792 -0.4043,-0.67969c-0.26948,-0.16164 -0.60311,-0.29645 -1.00195,-0.4043c-0.39882,-0.11842 -0.83432,-0.232 -1.3086,-0.33984c-0.47428,-0.11858 -0.91173,-0.27473 -1.31054,-0.46875c-0.39884,-0.19401 -0.7325,-0.44717 -1.00196,-0.75976c-0.26948,-0.31259 -0.40429,-0.73159 -0.40429,-1.25977c0,-0.42038 0.08546,-0.81031 0.25781,-1.16601c0.17247,-0.3557 0.41592,-0.65636 0.72852,-0.9043c0.32337,-0.24794 0.70453,-0.44194 1.14648,-0.58203c0.44193,-0.14009 0.9337,-0.21094 1.47266,-0.21094c0.54972,0 1.05117,0.08238 1.5039,0.24414zM140.46406,171.60533c0.18318,0.09691 0.30829,0.25306 0.37305,0.46875l1.77734,5.9668l1.79493,-5.9668c0.0645,-0.21558 0.18287,-0.37174 0.35546,-0.46875c0.18313,-0.10784 0.38197,-0.16211 0.59766,-0.16211c0.12944,0 0.25941,0.02811 0.38867,0.08203c0.1401,0.04309 0.26325,0.10719 0.3711,0.19336c0.11842,0.08617 0.21542,0.19975 0.29101,0.33984c0.07534,0.12949 0.11328,0.28078 0.11328,0.45312c0,0.09701 -0.01462,0.19401 -0.04687,0.29102l-2.42578,6.95117c-0.11855,0.32338 -0.30285,0.58333 -0.55079,0.77734c-0.24793,0.18318 -0.54375,0.27344 -0.88867,0.27344c-0.34492,0 -0.64073,-0.09026 -0.88867,-0.27344c-0.24781,-0.19401 -0.4321,-0.45397 -0.55078,-0.77734l-2.4082,-6.95117c-0.03226,-0.09701 -0.04883,-0.19401 -0.04883,-0.29102c0,-0.34499 0.12316,-0.60979 0.37109,-0.79297c0.24791,-0.18318 0.51271,-0.27539 0.79297,-0.27539c0.21569,0 0.40969,0.05427 0.58203,0.16211zM76.04219,176.53698c-0.37725,0.11842 -0.88841,0.23679 -1.53516,0.35547c-0.78687,0.14012 -1.17969,0.51159 -1.17969,1.11523c0,0.15093 0.02137,0.29741 0.06446,0.4375c0.05367,0.14002 0.13913,0.26999 0.25781,0.38867c0.11858,0.10784 0.27473,0.19306 0.46875,0.25781c0.2048,0.06476 0.45309,0.09766 0.74414,0.09766c0.24789,0 0.4962,-0.02811 0.74414,-0.08203c0.2587,-0.06476 0.48567,-0.14997 0.67969,-0.25781c0.2047,-0.1185 0.3657,-0.25816 0.48437,-0.41992c0.12926,-0.17235 0.19336,-0.36635 0.19336,-0.58203v-1.56836c-0.22637,0.05392 -0.53382,0.13939 -0.92187,0.25781zM109.37812,176.53698c-0.37727,0.11842 -0.88842,0.23679 -1.53515,0.35547c-0.78687,0.14012 -1.18164,0.51159 -1.18164,1.11523c0,0.15093 0.02136,0.29741 0.06445,0.4375c0.05367,0.14002 0.14109,0.26999 0.25977,0.38867c0.11857,0.10784 0.27473,0.19306 0.46875,0.25781c0.2048,0.06476 0.45311,0.09766 0.74414,0.09766c0.24791,0 0.49425,-0.02811 0.74218,-0.08203c0.2587,-0.06476 0.48568,-0.14997 0.67969,-0.25781c0.2047,-0.1185 0.3657,-0.25816 0.48438,-0.41992c0.12926,-0.17235 0.19531,-0.36635 0.19531,-0.58203v-1.56836c-0.22634,0.05392 -0.53382,0.13939 -0.92188,0.25781zM149.175,178.703c0.24794,0.23713 0.37305,0.5281 0.37305,0.87305c0,0.34494 -0.12511,0.63594 -0.37305,0.87305c-0.23713,0.2371 -0.5281,0.35742 -0.87305,0.35742c-0.34497,0 -0.63594,-0.12032 -0.87304,-0.35742c-0.23711,-0.23713 -0.35547,-0.52813 -0.35547,-0.87305c0,-0.34497 0.11836,-0.63594 0.35547,-0.87305c0.23715,-0.24794 0.52812,-0.37109 0.87304,-0.37109c0.34497,0 0.63595,0.12316 0.87305,0.37109z" fill="#1eff00" stroke="none" stroke-width="1.01053" stroke-miterlimit="10" stroke-dashoffset="0"/></g></g></svg>