<svg version="1.1" xmlns="http://www.w3.org/2000/svg" xmlns:xlink="http://www.w3.org/1999/xlink" width="427.11156" height="27.77145"><g transform="translate(-25.93651,-9.09333)"><g data-paper-data="{&quot;isPaintingLayer&quot;:true}" fill-rule="nonzero" stroke-linecap="butt" stroke-linejoin="miter" stroke-dasharray="" style="mix-blend-mode: normal"><g id="g1627"><path d="M26.8796,9.84357h425.22538c0.10684,0 0.19285,0.08601 0.19285,0.19286v25.88527c0,0.10684 -0.086,0.19286 -0.19285,0.19286h-425.22538c-0.10684,0 -0.19286,-0.08601 -0.19286,-0.19286v-25.88527c0,-0.10684 0.08601,-0.19286 0.19286,-0.19286z" id="rect913" fill="#272727" stroke="#1eff00" stroke-width="1.50047" stroke-miterlimit="4" stroke-dashoffset="17.35"/><path d="M195.29502,15.36273c0.18134,0.18133 0.27149,0.40521 0.27149,0.67188v4.99219l5.91992,-5.71094c0.14933,-0.14933 0.34151,-0.22461 0.57617,-0.22461c0.288,0 0.50001,0.09511 0.63867,0.28711c0.13867,0.192 0.20899,0.37921 0.20899,0.56055c0,0.23467 -0.08519,0.4318 -0.25586,0.5918l-3.93555,3.80859l4.62305,6.03125c0.10667,0.13867 0.16016,0.30905 0.16016,0.51172c0,0.17067 -0.03171,0.30935 -0.09571,0.41602c-0.05333,0.10667 -0.12861,0.19186 -0.22461,0.25586c-0.08533,0.064 -0.17548,0.10757 -0.27148,0.12891c-0.096,0.02133 -0.17624,0.03125 -0.24024,0.03125c-0.27733,0 -0.5012,-0.10503 -0.67187,-0.31836l-4.51172,-5.88867l-1.91992,1.85547v3.4082c0,0.256 -0.09015,0.47987 -0.27149,0.67188c-0.18133,0.18133 -0.40716,0.27148 -0.67382,0.27148c-0.256,0 -0.47988,-0.09015 -0.67188,-0.27148c-0.18133,-0.192 -0.27148,-0.41587 -0.27148,-0.67187v-10.73633c0,-0.26667 0.09015,-0.49054 0.27148,-0.67187c0.192,-0.18133 0.41588,-0.27149 0.67188,-0.27149c0.26666,0 0.49249,0.09015 0.67382,0.27149zM228.02354,15.33148c0.16,0.16 0.24023,0.35713 0.24023,0.5918v3.79102c0.05334,-0.064 0.13853,-0.16407 0.25586,-0.30273c0.128,-0.13867 0.30034,-0.27735 0.51368,-0.41602c0.21333,-0.14933 0.47882,-0.2781 0.79882,-0.38477c0.32,-0.10667 0.69939,-0.16016 1.13672,-0.16016c0.576,0 1.09903,0.11194 1.56836,0.33594c0.46934,0.224 0.86855,0.54494 1.19922,0.96094c0.34133,0.40533 0.60187,0.8947 0.7832,1.4707c0.18134,0.56533 0.27344,1.19038 0.27344,1.87305c0,0.68267 -0.10202,1.30576 -0.30469,1.87109c-0.20266,0.56533 -0.48003,1.05666 -0.83203,1.47266c-0.34133,0.40533 -0.74746,0.71936 -1.21679,0.94336c-0.45867,0.224 -0.94804,0.33594 -1.47071,0.33594c-0.32,0 -0.60232,-0.01487 -0.84765,-0.04687c-0.24534,-0.032 -0.46921,-0.08549 -0.67188,-0.16016c-0.20267,-0.08533 -0.40175,-0.19231 -0.59375,-0.32031c-0.18133,-0.128 -0.37846,-0.28351 -0.5918,-0.46484v0.14453c0,0.23467 -0.08023,0.43871 -0.24023,0.60938c-0.16,0.16 -0.35713,0.23828 -0.5918,0.23828c-0.23466,0 -0.43675,-0.07828 -0.60742,-0.23828c-0.16,-0.17067 -0.24023,-0.37471 -0.24023,-0.60937v-10.94336c0,-0.23467 0.08023,-0.4318 0.24023,-0.5918c0.17067,-0.16 0.37276,-0.24024 0.60742,-0.24024c0.23467,0 0.4318,0.08024 0.5918,0.24024zM237.22667,15.36273c0.192,0.18133 0.2871,0.40521 0.2871,0.67188c0,0.256 -0.0951,0.47987 -0.2871,0.67188c-0.18134,0.18133 -0.40025,0.27344 -0.65626,0.27344c-0.26666,0 -0.49549,-0.0921 -0.6875,-0.27344c-0.18133,-0.192 -0.27343,-0.41587 -0.27343,-0.67187c0,-0.26667 0.0921,-0.49054 0.27343,-0.67187c0.19201,-0.18133 0.42084,-0.27149 0.6875,-0.27149c0.25601,0 0.47492,0.09015 0.65626,0.27149zM255.0587,15.33148c0.17066,0.16 0.25586,0.35713 0.25586,0.5918v10.94336c0,0.23467 -0.0852,0.43871 -0.25586,0.60938c-0.16,0.16 -0.35909,0.23828 -0.59375,0.23828c-0.23467,0 -0.4318,-0.07828 -0.5918,-0.23828c-0.16,-0.17067 -0.23828,-0.37471 -0.23828,-0.60937v-0.14453c-0.21334,0.18133 -0.41738,0.33684 -0.60938,0.46484c-0.18133,0.128 -0.3735,0.23498 -0.57617,0.32031c-0.20267,0.07467 -0.42654,0.12816 -0.67187,0.16016c-0.24534,0.032 -0.52766,0.04688 -0.84766,0.04688c-0.52267,0 -1.01895,-0.11194 -1.48828,-0.33594c-0.45867,-0.224 -0.86284,-0.53803 -1.21484,-0.94336c-0.34134,-0.416 -0.61374,-0.90732 -0.81641,-1.47266c-0.20267,-0.56533 -0.30469,-1.18843 -0.30469,-1.87109c0,-0.68267 0.09015,-1.30771 0.27149,-1.87305c0.18133,-0.576 0.43886,-1.06537 0.76953,-1.4707c0.34133,-0.416 0.74551,-0.73694 1.21484,-0.96094c0.46933,-0.224 0.99236,-0.33594 1.56836,-0.33594c0.43733,0 0.81672,0.05349 1.13672,0.16016c0.32,0.10667 0.58549,0.23543 0.79883,0.38477c0.21333,0.13867 0.37876,0.27735 0.49609,0.41602c0.128,0.13867 0.2201,0.23873 0.27344,0.30273v-3.79102c0,-0.23467 0.07828,-0.4318 0.23828,-0.5918c0.16,-0.16 0.35713,-0.24024 0.5918,-0.24024c0.23466,0 0.43375,0.08024 0.59375,0.24024zM258.16417,15.36273c0.192,0.18133 0.2871,0.40521 0.2871,0.67188c0,0.256 -0.0951,0.47987 -0.2871,0.67188c-0.18134,0.18133 -0.40025,0.27344 -0.65626,0.27344c-0.26666,0 -0.49549,-0.0921 -0.6875,-0.27344c-0.18133,-0.192 -0.27343,-0.41587 -0.27343,-0.67187c0,-0.26667 0.0921,-0.49054 0.27343,-0.67187c0.19201,-0.18133 0.42084,-0.27149 0.6875,-0.27149c0.25601,0 0.47492,0.09015 0.65626,0.27149zM209.65635,18.61077c0.53334,0.18133 0.99296,0.44878 1.37696,0.80078c0.39466,0.34133 0.70373,0.76234 0.92773,1.26367c0.224,0.50133 0.33594,1.07094 0.33594,1.71094c0,0.39467 -0.09706,0.69382 -0.28907,0.89648c-0.19199,0.20267 -0.41587,0.30469 -0.67187,0.30469h-5.85547c0,0.02133 0.00496,0.11148 0.01563,0.27148c0.02133,0.14933 0.05994,0.33159 0.11328,0.54492c0.064,0.21333 0.14919,0.44217 0.25586,0.6875c0.11733,0.23467 0.27089,0.45358 0.46289,0.65625c0.192,0.20267 0.42774,0.37305 0.70508,0.51172c0.288,0.128 0.63372,0.19141 1.03906,0.19141c0.33066,0 0.61299,-0.02674 0.84765,-0.08008c0.23467,-0.05333 0.44367,-0.13357 0.625,-0.24023c0.18134,-0.10667 0.34676,-0.23844 0.4961,-0.39844c0.14933,-0.17067 0.29793,-0.36975 0.44726,-0.59375c0.08534,-0.128 0.1824,-0.21815 0.28907,-0.27148c0.10666,-0.05333 0.2186,-0.08008 0.33593,-0.08008c0.192,0 0.36735,0.07032 0.52735,0.20898c0.16,0.13867 0.24023,0.31401 0.24023,0.52734c0,0.128 -0.07032,0.32017 -0.20898,0.57617c-0.13867,0.256 -0.36254,0.51158 -0.67188,0.76758c-0.29866,0.256 -0.68797,0.47987 -1.16797,0.67188c-0.48,0.192 -1.06643,0.28906 -1.75976,0.28906c-0.704,0 -1.33205,-0.12877 -1.88672,-0.38477c-0.55467,-0.256 -1.0242,-0.59677 -1.4082,-1.02344c-0.37334,-0.43733 -0.66257,-0.94353 -0.86524,-1.51953c-0.192,-0.576 -0.28711,-1.17926 -0.28711,-1.80859c0,-0.65067 0.10007,-1.26384 0.30274,-1.83984c0.20266,-0.58667 0.4919,-1.09286 0.86523,-1.51953c0.384,-0.42667 0.84167,-0.76443 1.375,-1.00977c0.53333,-0.256 1.13164,-0.38281 1.79297,-0.38281c0.608,0 1.17265,0.09015 1.69531,0.27148zM282.68174,18.53069c0.416,0.128 0.75873,0.29343 1.02539,0.49609c0.10667,0.08533 0.21861,0.19231 0.33594,0.32031c0.11733,0.11733 0.22927,0.25106 0.33594,0.40039c0.10667,0.13867 0.19186,0.27735 0.25586,0.41602c0.07466,0.13867 0.11133,0.26052 0.11133,0.36719c0,0.24533 -0.09511,0.44246 -0.28711,0.5918c-0.192,0.13867 -0.401,0.20898 -0.625,0.20898c-0.13867,0 -0.26548,-0.0317 -0.38282,-0.0957c-0.11733,-0.07467 -0.20943,-0.18661 -0.27343,-0.33594c-0.08534,-0.20267 -0.17549,-0.37996 -0.27149,-0.5293c-0.096,-0.14933 -0.22476,-0.27119 -0.38476,-0.36719c-0.14934,-0.096 -0.3346,-0.16632 -0.5586,-0.20898c-0.21333,-0.05333 -0.48574,-0.08008 -0.8164,-0.08008c-0.65067,0 -1.12516,0.10698 -1.42383,0.32031c-0.288,0.20267 -0.43164,0.45825 -0.43164,0.76758c0,0.23467 0.08519,0.42684 0.25586,0.57617c0.17066,0.13867 0.39454,0.26247 0.67187,0.36914c0.288,0.096 0.61195,0.18119 0.97461,0.25586c0.36267,0.064 0.73214,0.14423 1.10547,0.24023c0.37333,0.08533 0.74085,0.19231 1.10352,0.32031c0.36266,0.11733 0.6836,0.28276 0.96093,0.49609c0.288,0.20267 0.51684,0.45329 0.6875,0.75195c0.17067,0.29867 0.25586,0.67114 0.25586,1.11914c0,0.53333 -0.10698,0.98604 -0.32031,1.35938c-0.21333,0.36267 -0.49566,0.66182 -0.84766,0.89648c-0.352,0.224 -0.76308,0.38943 -1.23242,0.49609c-0.46933,0.096 -0.96065,0.14453 -1.47265,0.14453c-0.72534,0 -1.33851,-0.10698 -1.83985,-0.32031c-0.49066,-0.224 -0.89484,-0.47958 -1.21484,-0.76758c-0.30933,-0.29867 -0.53321,-0.59286 -0.67188,-0.88086c-0.13866,-0.288 -0.20898,-0.50692 -0.20898,-0.65625c0,-0.24533 0.08519,-0.44246 0.25586,-0.5918c0.18133,-0.16 0.3735,-0.24023 0.57617,-0.24023c0.128,0 0.25181,0.03862 0.36914,0.11328c0.11733,0.07467 0.20749,0.19156 0.27149,0.35156c0.18133,0.45867 0.46861,0.84301 0.86328,1.15234c0.40533,0.30933 0.98185,0.46289 1.72851,0.46289c0.34134,0 0.63358,-0.03666 0.87891,-0.11133c0.24533,-0.08533 0.44442,-0.19231 0.59375,-0.32031c0.16,-0.13867 0.27689,-0.28727 0.35156,-0.44727c0.07467,-0.17067 0.11133,-0.34796 0.11133,-0.5293c0,-0.36267 -0.14364,-0.63312 -0.43164,-0.81445c-0.288,-0.18133 -0.6456,-0.32693 -1.07227,-0.43359c-0.42666,-0.10667 -0.8962,-0.20178 -1.4082,-0.28711c-0.50133,-0.096 -0.96591,-0.22972 -1.39258,-0.40039c-0.42666,-0.18133 -0.78231,-0.43195 -1.07031,-0.75195c-0.288,-0.33067 -0.43359,-0.78337 -0.43359,-1.35937c0,-0.832 0.3041,-1.48379 0.91211,-1.95312c0.608,-0.46933 1.45692,-0.70312 2.54492,-0.70312c0.608,0 1.11915,0.06341 1.53515,0.19141zM214.15049,18.61077c0.16,0.096 0.2769,0.23468 0.35157,0.41602l2.7832,6.6875l2.43164,-6.60742c0.07467,-0.192 0.1866,-0.34556 0.33594,-0.46289c0.16,-0.128 0.33729,-0.19336 0.52929,-0.19336c0.192,0 0.37726,0.07528 0.5586,0.22461c0.18133,0.13867 0.27344,0.36254 0.27344,0.67188c-0.00001,0.05333 -0.00496,0.10682 -0.01563,0.16016c-0.01067,0.05333 -0.02749,0.10682 -0.04883,0.16016l-3.67969,9.4707c-0.08533,0.21333 -0.18735,0.43225 -0.30468,0.65625c-0.10667,0.23467 -0.25031,0.44367 -0.43164,0.625c-0.17067,0.18133 -0.39455,0.32993 -0.67188,0.44727c-0.26667,0.11733 -0.59752,0.17578 -0.99219,0.17578h-0.76757c-0.21334,0 -0.39559,-0.07332 -0.54493,-0.22266c-0.13866,-0.13867 -0.20703,-0.31596 -0.20703,-0.5293c0,-0.21333 0.06837,-0.39363 0.20703,-0.54297c0.14934,-0.14933 0.33159,-0.22461 0.54493,-0.22461h0.49609c0.096,0 0.19607,-0.00496 0.30273,-0.01562c0.11734,-0.01067 0.22927,-0.04237 0.33594,-0.0957c0.10667,-0.04267 0.20869,-0.1229 0.30469,-0.24023c0.096,-0.10667 0.18119,-0.26714 0.25586,-0.48047l0.40039,-1.11914l-3.67969,-7.9043c-0.05333,-0.128 -0.08008,-0.2449 -0.08008,-0.35156c0,-0.08533 0.01488,-0.17744 0.04688,-0.27344c0.032,-0.10667 0.08053,-0.20178 0.14453,-0.28711c0.064,-0.08533 0.14423,-0.15565 0.24023,-0.20898c0.10667,-0.064 0.23544,-0.0957 0.38477,-0.0957c0.18133,0 0.34676,0.05349 0.49609,0.16016zM237.16221,18.70648c0.16,0.16 0.24024,0.35713 0.24024,0.5918v7.56836c0,0.23467 -0.08024,0.43871 -0.24024,0.60938c-0.16,0.16 -0.35713,0.23828 -0.5918,0.23828c-0.23466,0 -0.43675,-0.07828 -0.60742,-0.23828c-0.16,-0.17067 -0.24023,-0.37471 -0.24023,-0.60937v-7.56836c0,-0.23467 0.08023,-0.4318 0.24023,-0.5918c0.17067,-0.17067 0.37276,-0.25586 0.60742,-0.25586c0.23467,0 0.4318,0.08519 0.5918,0.25586zM240.09971,18.70648c0.16,0.16 0.24024,0.35713 0.24024,0.5918v0.28906c0.10666,-0.096 0.23543,-0.20794 0.38476,-0.33594c0.16,-0.13867 0.35217,-0.26743 0.57617,-0.38477c0.224,-0.11733 0.47958,-0.21244 0.76758,-0.28711c0.29867,-0.08533 0.63944,-0.12891 1.02344,-0.12891c0.39467,0 0.77405,0.05845 1.13672,0.17578c0.37333,0.10667 0.70419,0.27209 0.99219,0.49609c0.288,0.224 0.51683,0.50136 0.6875,0.83203c0.17066,0.33067 0.25586,0.71501 0.25586,1.15234v5.75977c-0.00001,0.23467 -0.0852,0.43871 -0.25586,0.60938c-0.16,0.16 -0.35713,0.23828 -0.5918,0.23828c-0.23467,0 -0.4318,-0.07828 -0.5918,-0.23828c-0.16,-0.17067 -0.24023,-0.37471 -0.24023,-0.60937v-5.56836c0,-0.23467 -0.05845,-0.44171 -0.17578,-0.62305c-0.10667,-0.192 -0.25226,-0.34751 -0.4336,-0.46484c-0.17066,-0.128 -0.36779,-0.22311 -0.59179,-0.28711c-0.21334,-0.064 -0.42534,-0.0957 -0.63868,-0.0957c-0.352,0 -0.67293,0.06341 -0.96093,0.19141c-0.288,0.11733 -0.53367,0.28276 -0.73633,0.49609c-0.192,0.21333 -0.3406,0.46891 -0.44727,0.76758c-0.10666,0.288 -0.16015,0.60398 -0.16015,0.94531v4.63867c0,0.23467 -0.08024,0.43871 -0.24024,0.60938c-0.16,0.16 -0.35713,0.23828 -0.5918,0.23828c-0.23466,0 -0.43675,-0.07828 -0.60742,-0.23828c-0.16,-0.17067 -0.24023,-0.37471 -0.24023,-0.60937v-7.56836c0,-0.23467 0.08023,-0.4318 0.24023,-0.5918c0.17067,-0.17067 0.37276,-0.25586 0.60742,-0.25586c0.23467,0 0.4318,0.08519 0.5918,0.25586zM258.09971,18.70648c0.16,0.16 0.24024,0.35713 0.24024,0.5918v7.56836c0,0.23467 -0.08024,0.43871 -0.24024,0.60938c-0.16,0.16 -0.35713,0.23828 -0.5918,0.23828c-0.23466,0 -0.43675,-0.07828 -0.60742,-0.23828c-0.16,-0.17067 -0.24023,-0.37471 -0.24023,-0.60937v-7.56836c0,-0.23467 0.08023,-0.4318 0.24023,-0.5918c0.17067,-0.17067 0.37276,-0.25586 0.60742,-0.25586c0.23467,0 0.4318,0.08519 0.5918,0.25586zM261.03721,18.70648c0.16,0.16 0.24024,0.35713 0.24024,0.5918v0.28906c0.10666,-0.096 0.23543,-0.20794 0.38476,-0.33594c0.16,-0.13867 0.35217,-0.26743 0.57617,-0.38477c0.224,-0.11733 0.47958,-0.21244 0.76758,-0.28711c0.29867,-0.08533 0.63944,-0.12891 1.02344,-0.12891c0.39467,0 0.77405,0.05845 1.13672,0.17578c0.37333,0.10667 0.70419,0.27209 0.99219,0.49609c0.288,0.224 0.51683,0.50136 0.6875,0.83203c0.17066,0.33067 0.25586,0.71501 0.25586,1.15234v5.75977c0,0.23467 -0.0852,0.43871 -0.25586,0.60938c-0.16,0.16 -0.35713,0.23828 -0.5918,0.23828c-0.23467,0 -0.4318,-0.07828 -0.5918,-0.23828c-0.16,-0.17067 -0.24023,-0.37471 -0.24023,-0.60937v-5.56836c0,-0.23467 -0.05845,-0.44171 -0.17578,-0.62305c-0.10667,-0.192 -0.25226,-0.34751 -0.4336,-0.46484c-0.17066,-0.128 -0.36779,-0.22311 -0.59179,-0.28711c-0.21334,-0.064 -0.42534,-0.0957 -0.63868,-0.0957c-0.352,0 -0.67293,0.06341 -0.96093,0.19141c-0.288,0.11733 -0.53367,0.28276 -0.73633,0.49609c-0.192,0.21333 -0.3406,0.46891 -0.44727,0.76758c-0.10666,0.288 -0.16015,0.60398 -0.16015,0.94531v4.63867c0,0.23467 -0.08024,0.43871 -0.24024,0.60938c-0.16,0.16 -0.35713,0.23828 -0.5918,0.23828c-0.23466,0 -0.43675,-0.07828 -0.60742,-0.23828c-0.16,-0.17067 -0.24023,-0.37471 -0.24023,-0.60937v-7.56836c0,-0.23467 0.08023,-0.4318 0.24023,-0.5918c0.17067,-0.17067 0.37276,-0.25586 0.60742,-0.25586c0.23467,0 0.4318,0.08519 0.5918,0.25586zM273.62706,18.7553c0.45866,0.20267 0.84301,0.4315 1.15234,0.6875v-0.14453c0,-0.23467 0.08023,-0.4318 0.24023,-0.5918c0.16,-0.17067 0.35713,-0.25586 0.5918,-0.25586c0.23467,0 0.4318,0.08519 0.5918,0.25586c0.17066,0.16 0.25586,0.35713 0.25586,0.5918v8.20898c0,0.53333 -0.11194,1.01775 -0.33594,1.45508c-0.21333,0.43733 -0.50557,0.81176 -0.87891,1.12109c-0.37333,0.32 -0.81116,0.56566 -1.3125,0.73633c-0.50133,0.18133 -1.04118,0.27148 -1.61718,0.27148c-0.62934,0 -1.16724,-0.08023 -1.61524,-0.24023c-0.448,-0.14933 -0.82047,-0.33159 -1.11914,-0.54492c-0.29867,-0.20267 -0.51758,-0.41467 -0.65625,-0.63867c-0.13867,-0.21333 -0.20898,-0.38372 -0.20898,-0.51172c0,-0.21333 0.07031,-0.40055 0.20898,-0.56055c0.13867,-0.16 0.30409,-0.24023 0.49609,-0.24023c0.192,0 0.38418,0.10202 0.57618,0.30469c0.13866,0.16 0.27735,0.29868 0.41601,0.41602c0.13867,0.128 0.29223,0.23498 0.46289,0.32031c0.18134,0.08533 0.38342,0.14874 0.60742,0.19141c0.23467,0.04267 0.51204,0.06445 0.83204,0.06445c0.34133,0 0.66227,-0.04357 0.96093,-0.12891c0.29867,-0.07467 0.55921,-0.20343 0.78321,-0.38477c0.224,-0.17067 0.40129,-0.39454 0.52929,-0.67187c0.128,-0.26667 0.19141,-0.58565 0.19141,-0.95898v-1.05664c-0.10667,0.11733 -0.24039,0.25106 -0.40039,0.40039c-0.16,0.13867 -0.35217,0.27239 -0.57617,0.40039c-0.224,0.128 -0.48454,0.23994 -0.78321,0.33594c-0.29866,0.08533 -0.64635,0.12695 -1.04101,0.12695c-0.576,0 -1.10894,-0.09015 -1.59961,-0.27148c-0.48,-0.18133 -0.89605,-0.4587 -1.24805,-0.83203c-0.34133,-0.37333 -0.60683,-0.85279 -0.79883,-1.43945c-0.192,-0.58667 -0.28906,-1.28008 -0.28906,-2.08008c0,-0.81067 0.10698,-1.50408 0.32031,-2.08008c0.21334,-0.58667 0.49566,-1.06612 0.84766,-1.43945c0.36267,-0.384 0.77871,-0.66828 1.24805,-0.84961c0.48,-0.18133 0.98619,-0.27148 1.51953,-0.27148c0.65066,0 1.20044,0.10202 1.64844,0.30469zM206.98448,19.89202c-0.27734,0.11733 -0.51113,0.26593 -0.70313,0.44727c-0.18133,0.17067 -0.32692,0.36284 -0.43359,0.57617c-0.10667,0.21333 -0.18495,0.41046 -0.23828,0.5918c-0.05334,0.18133 -0.08699,0.3418 -0.09766,0.48047c-0.01067,0.128 -0.01562,0.20132 -0.01562,0.22266h5.18359c0,-0.33067 -0.05154,-0.64469 -0.1582,-0.94336c-0.10667,-0.29867 -0.2721,-0.5592 -0.4961,-0.7832c-0.21333,-0.23467 -0.49069,-0.42188 -0.83203,-0.56055c-0.34133,-0.13867 -0.7425,-0.20898 -1.20117,-0.20898c-0.39467,0 -0.73048,0.0604 -1.00781,0.17773zM229.60752,20.09905c-0.30933,0.18133 -0.56987,0.427 -0.7832,0.73633c-0.21333,0.29867 -0.37876,0.6444 -0.49609,1.03906c-0.10667,0.384 -0.16016,0.79013 -0.16016,1.2168c0,0.416 0.05349,0.82018 0.16016,1.21484c0.11733,0.39467 0.28276,0.74235 0.49609,1.04102c0.21333,0.29867 0.47387,0.53937 0.7832,0.7207c0.32,0.18133 0.68451,0.27148 1.08985,0.27148c0.39466,0 0.74535,-0.09015 1.05469,-0.27148c0.32,-0.18133 0.58744,-0.42204 0.80078,-0.7207c0.224,-0.29867 0.38942,-0.64635 0.49609,-1.04102c0.11733,-0.39467 0.17578,-0.79884 0.17578,-1.21484c0,-0.42667 -0.05845,-0.8328 -0.17578,-1.2168c-0.10667,-0.39467 -0.27209,-0.7404 -0.49609,-1.03906c-0.21334,-0.30933 -0.48078,-0.555 -0.80078,-0.73633c-0.30934,-0.18133 -0.66003,-0.27148 -1.05469,-0.27148c-0.40534,0 -0.76985,0.09015 -1.08985,0.27148zM250.12901,20.09905c-0.30933,0.18133 -0.57483,0.427 -0.79883,0.73633c-0.21333,0.29867 -0.37876,0.6444 -0.49609,1.03906c-0.10667,0.384 -0.16016,0.79013 -0.16016,1.2168c0,0.416 0.05349,0.82018 0.16016,1.21484c0.11733,0.39467 0.28276,0.74235 0.49609,1.04102c0.224,0.29867 0.4895,0.53937 0.79883,0.7207c0.30933,0.18133 0.66693,0.27148 1.07226,0.27148c0.40534,0 0.76294,-0.09015 1.07227,-0.27148c0.32,-0.18133 0.58745,-0.42204 0.80078,-0.7207c0.21333,-0.29867 0.3738,-0.64635 0.48047,-1.04102c0.11733,-0.39467 0.17578,-0.79884 0.17578,-1.21484c0,-0.42667 -0.05845,-0.8328 -0.17578,-1.2168c-0.10667,-0.39467 -0.26714,-0.7404 -0.48047,-1.03906c-0.21333,-0.30933 -0.48078,-0.555 -0.80078,-0.73633c-0.30933,-0.18133 -0.66693,-0.27148 -1.07227,-0.27148c-0.40533,0 -0.76293,0.09015 -1.07226,0.27148zM270.31456,20.6596c-0.46934,0.55467 -0.70313,1.36497 -0.70313,2.43164c0,1.06667 0.23379,1.87697 0.70313,2.43164c0.46933,0.544 1.11616,0.81641 1.9375,0.81641c0.82133,0 1.46125,-0.27241 1.91992,-0.81641c0.46933,-0.55467 0.70312,-1.36497 0.70312,-2.43164c0,-1.06667 -0.23379,-1.87697 -0.70312,-2.43164c-0.45867,-0.55467 -1.09859,-0.83203 -1.91992,-0.83203c-0.82134,0 -1.46817,0.27736 -1.9375,0.83203z" id="path1313" fill="#1eff00" stroke="none" stroke-width="1" stroke-miterlimit="10" stroke-dashoffset="0"/></g></g></g></svg>