<svg version="1.1" xmlns="http://www.w3.org/2000/svg" xmlns:xlink="http://www.w3.org/1999/xlink" width="372.21484" height="68.64257"><g transform="translate(-53.89258,-145.67871)"><g data-paper-data="{&quot;isPaintingLayer&quot;:true}" fill-rule="nonzero" stroke-linecap="butt" stroke-linejoin="miter" stroke-dasharray="" style="mix-blend-mode: normal"><path d="M425.00976,146.42871c0.19314,0 0.34766,0.15452 0.34766,0.34766v66.44531c0,0.19313 -0.15452,0.34961 -0.34766,0.34961h-370.01757c-0.19328,0 -0.34961,-0.15647 -0.34961,-0.34961v-66.44531c0,-0.19313 0.15637,-0.34766 0.34961,-0.34766z" data-paper-data="{&quot;origPos&quot;:null}" id="rect815-0-8" fill="#1e1e1e" stroke="#1eff00" stroke-width="1.5" stroke-miterlimit="4" stroke-dashoffset="17.35"/><path d="M67.21484,151.79199c0.62933,0.27732 1.16919,0.61313 1.61719,1.00781c0.45867,0.384 0.81131,0.7951 1.05664,1.23242c0.256,0.43734 0.38281,0.81476 0.38281,1.13476c0,0.28808 -0.10698,0.51692 -0.32031,0.6875c-0.21333,0.16 -0.44217,0.24023 -0.6875,0.24023c-0.18133,0 -0.35172,-0.04154 -0.51172,-0.12695c-0.16,-0.09592 -0.27194,-0.25143 -0.33594,-0.46484c-0.096,-0.29866 -0.22972,-0.59091 -0.40039,-0.87891c-0.17067,-0.2881 -0.38958,-0.55057 -0.65625,-0.78516c-0.26667,-0.23473 -0.58069,-0.42196 -0.94336,-0.56055c-0.352,-0.14942 -0.76309,-0.22266 -1.23242,-0.22266c-0.53333,0 -1.03457,0.11698 -1.50391,0.35156c-0.46933,0.224 -0.88042,0.54988 -1.23242,0.97656c-0.34133,0.416 -0.61374,0.92221 -0.81641,1.51953c-0.20267,0.59734 -0.30273,1.264 -0.30273,2c0,0.736 0.10007,1.40266 0.30273,2c0.20267,0.59732 0.47507,1.10847 0.81641,1.53516c0.352,0.42673 0.76309,0.7576 1.23242,0.99219c0.46933,0.224 0.97057,0.33594 1.50391,0.33594c0.46933,0 0.88042,-0.06845 1.23242,-0.20703c0.36267,-0.14942 0.67669,-0.34159 0.94336,-0.57617c0.26667,-0.23466 0.48558,-0.4952 0.65625,-0.7832c0.17067,-0.29868 0.30439,-0.59783 0.40039,-0.89648c0.064,-0.21324 0.17594,-0.3638 0.33594,-0.44922c0.16,-0.096 0.33038,-0.14258 0.51172,-0.14258c0.24533,0 0.47416,0.08023 0.6875,0.24023c0.21333,0.16 0.32031,0.38387 0.32031,0.67187c0,0.23466 -0.09511,0.56553 -0.28711,0.99219c-0.192,0.42668 -0.49115,0.85264 -0.89648,1.2793c-0.40533,0.416 -0.93332,0.77855 -1.58398,1.08789c-0.64,0.30932 -1.41365,0.46484 -2.32031,0.46484c-0.96,0 -1.80201,-0.18226 -2.52734,-0.54492c-0.71467,-0.36266 -1.31297,-0.84708 -1.79297,-1.45508c-0.46933,-0.608 -0.82693,-1.30139 -1.07227,-2.08008c-0.23467,-0.78932 -0.35156,-1.6115 -0.35156,-2.46484c0,-0.84266 0.1169,-1.65792 0.35156,-2.44727c0.24533,-0.78934 0.60293,-1.48276 1.07227,-2.08008c0.48,-0.608 1.0783,-1.09435 1.79297,-1.45703c0.72533,-0.36266 1.56734,-0.54297 2.52734,-0.54297c0.736,0 1.41258,0.13867 2.03125,0.41601zM72.8418,151.87207c0.192,0.18134 0.28711,0.40522 0.28711,0.67187c0,0.256 -0.09511,0.47987 -0.28711,0.67188c-0.18133,0.18142 -0.40025,0.27148 -0.65625,0.27148c-0.26667,0 -0.4955,-0.09007 -0.6875,-0.27148c-0.18133,-0.192 -0.27344,-0.41587 -0.27344,-0.67188c0,-0.26658 0.0921,-0.49046 0.27344,-0.67187c0.192,-0.18142 0.42083,-0.27344 0.6875,-0.27344c0.256,0 0.47492,0.09202 0.65625,0.27344zM108.05664,151.59863c0.58667,0 1.10278,0.08528 1.55078,0.25586c0.45866,0.17066 0.84301,0.40639 1.15234,0.70508c0.30933,0.288 0.54508,0.63374 0.70508,1.03906c0.16,0.39468 0.24023,0.82259 0.24023,1.28125c0,0.40534 -0.06039,0.75603 -0.17773,1.05469c-0.10666,0.29866 -0.2503,0.56116 -0.43164,0.78516c-0.17067,0.21342 -0.3678,0.38876 -0.5918,0.52734c-0.21333,0.128 -0.43225,0.22506 -0.65625,0.28906c0.448,0.14942 0.82243,0.33964 1.12109,0.57422c0.29866,0.224 0.53741,0.47656 0.71875,0.75391c0.18134,0.27734 0.31011,0.57453 0.38476,0.89453c0.07466,0.32 0.11133,0.64094 0.11133,0.96094c0,0.52266 -0.10697,0.99717 -0.32031,1.42383c-0.21333,0.42668 -0.50557,0.7942 -0.87891,1.10352c-0.36267,0.30942 -0.79554,0.55012 -1.29687,0.7207c-0.49067,0.17058 -1.01865,0.25586 -1.58398,0.25586h-4.67187c-0.15999,0 -0.31355,-0.02666 -0.46289,-0.08008c-0.14932,-0.064 -0.28305,-0.14928 -0.40039,-0.25586c-0.11734,-0.10668 -0.2144,-0.24039 -0.28906,-0.40039c-0.07466,-0.16 -0.11133,-0.33534 -0.11133,-0.52734v-10.11328c0,-0.34127 0.1238,-0.63349 0.36914,-0.87891c0.24533,-0.24542 0.54253,-0.36914 0.89453,-0.36914zM137.79492,151.83887c0.16,0.16008 0.24023,0.35721 0.24023,0.5918v6.11328l3.91992,-3.4082c0.14932,-0.11742 0.31475,-0.17578 0.49609,-0.17578c0.17067,0 0.33609,0.06341 0.49609,0.19141c0.16,0.12808 0.24023,0.30839 0.24023,0.54297c0,0.21324 -0.0852,0.3955 -0.25586,0.54492l-2.44726,2.11133l3.23047,4.57617c0.096,0.14942 0.14453,0.30989 0.14453,0.48047c0,0.14942 -0.02674,0.27818 -0.08008,0.38476c-0.05332,0.096 -0.12169,0.17428 -0.20703,0.23828c-0.08534,0.064 -0.17744,0.11253 -0.27344,0.14453c-0.096,0.032 -0.18614,0.04883 -0.27148,0.04883c-0.13866,0 -0.26547,-0.02666 -0.38281,-0.08008c-0.11732,-0.05316 -0.21935,-0.13844 -0.30469,-0.25586l-3.07226,-4.44922l-1.23242,1.05664v2.88086c0,0.23476 -0.08023,0.43684 -0.24023,0.60742c-0.16001,0.16 -0.35714,0.24023 -0.5918,0.24023c-0.23468,0 -0.43676,-0.08023 -0.60742,-0.24023c-0.16,-0.17076 -0.24023,-0.37284 -0.24023,-0.60742v-10.94531c0,-0.23466 0.08023,-0.4318 0.24023,-0.5918c0.17068,-0.16 0.37276,-0.24023 0.60742,-0.24023c0.23466,0 0.4318,0.08023 0.5918,0.24023zM104.05664,156.84668h3.75977c0.26667,0 0.5272,-0.04154 0.7832,-0.12695c0.256,-0.08517 0.47987,-0.2041 0.67187,-0.35352c0.19199,-0.15992 0.3475,-0.34518 0.46484,-0.55859c0.11734,-0.224 0.17578,-0.46967 0.17578,-0.73633c0,-0.52266 -0.16543,-0.94861 -0.49609,-1.2793c-0.33067,-0.34132 -0.81012,-0.51367 -1.43945,-0.51367h-3.91992zM94.22461,155.16699c0.544,0.21334 1.01354,0.52242 1.4082,0.92773c0.39467,0.40534 0.70373,0.90162 0.92773,1.48828c0.224,0.58668 0.33594,1.25831 0.33594,2.01562c0,0.75734 -0.11194,1.42897 -0.33594,2.01562c-0.224,0.58668 -0.53307,1.08296 -0.92773,1.48828c-0.39467,0.39458 -0.8642,0.69869 -1.4082,0.91211c-0.53333,0.21342 -1.11481,0.32031 -1.74414,0.32031c-0.62933,0 -1.21576,-0.10689 -1.75976,-0.32031c-0.53333,-0.21332 -0.99791,-0.51743 -1.39258,-0.91211c-0.39467,-0.40532 -0.70373,-0.9016 -0.92773,-1.48828c-0.224,-0.58666 -0.33594,-1.25828 -0.33594,-2.01562c0,-0.75732 0.11194,-1.42894 0.33594,-2.01562c0.224,-0.58666 0.53307,-1.08294 0.92773,-1.48828c0.39467,-0.40524 0.85924,-0.71432 1.39258,-0.92773c0.544,-0.21342 1.13043,-0.32031 1.75976,-0.32031c0.62933,0 1.21081,0.10689 1.74414,0.32031zM123.92773,155.12012c0.53333,0.18134 0.99295,0.44683 1.37695,0.79883c0.39467,0.34132 0.70373,0.76233 0.92773,1.26367c0.224,0.50134 0.33594,1.07289 0.33594,1.71289c0,0.39473 -0.09706,0.6939 -0.28906,0.89648c-0.192,0.20258 -0.41587,0.30273 -0.67187,0.30273h-5.85547c0,0.02142 0.00504,0.11344 0.01562,0.27344c0.02132,0.14927 0.05994,0.32955 0.11328,0.54297c0.064,0.21324 0.1492,0.44404 0.25586,0.68945c0.11733,0.23476 0.27089,0.45171 0.46289,0.6543c0.192,0.20273 0.42774,0.37509 0.70508,0.51367c0.288,0.128 0.63373,0.19141 1.03906,0.19141c0.33067,0 0.613,-0.02666 0.84766,-0.08008c0.23466,-0.05342 0.44366,-0.13365 0.625,-0.24023c0.18133,-0.10668 0.34675,-0.24039 0.49609,-0.40039c0.14932,-0.17066 0.29792,-0.3678 0.44726,-0.5918c0.08534,-0.128 0.1824,-0.21807 0.28906,-0.27148c0.10666,-0.05342 0.2186,-0.08008 0.33594,-0.08008c0.192,0 0.36734,0.06845 0.52734,0.20703c0.16,0.13858 0.24023,0.31393 0.24023,0.52734c0,0.128 -0.07033,0.32017 -0.20898,0.57617c-0.13867,0.256 -0.36254,0.51353 -0.67187,0.76953c-0.29867,0.256 -0.68797,0.47987 -1.16797,0.67187c-0.48,0.192 -1.06643,0.28711 -1.75976,0.28711c-0.704,0 -1.334,-0.12681 -1.88867,-0.38281c-0.55467,-0.256 -1.02225,-0.59873 -1.40625,-1.02539c-0.37334,-0.43734 -0.66258,-0.94353 -0.86523,-1.51953c-0.192,-0.576 -0.28711,-1.17925 -0.28711,-1.80859c0,-0.65066 0.10008,-1.26384 0.30273,-1.83984c0.20267,-0.58666 0.4919,-1.09285 0.86523,-1.51953c0.384,-0.42658 0.84167,-0.76239 1.375,-1.00781c0.53333,-0.256 1.13164,-0.38476 1.79297,-0.38476c0.608,0 1.17264,0.09202 1.69531,0.27344zM134.02148,155.50293c0.65067,0.42666 0.97461,1.06161 0.97461,1.9043v5.9668c0,0.23476 -0.07828,0.43879 -0.23828,0.60937c-0.16001,0.16 -0.35909,0.24023 -0.59375,0.24023c-0.23468,0 -0.43676,-0.08023 -0.60742,-0.24023c-0.16,-0.17076 -0.24023,-0.37479 -0.24023,-0.60937v-0.25586c-0.40533,0.43724 -0.86796,0.73144 -1.39062,0.88086c-0.512,0.14942 -1.05681,0.22461 -1.63281,0.22461c-0.36267,0 -0.73018,-0.04853 -1.10351,-0.14453c-0.36267,-0.10658 -0.69352,-0.26705 -0.99219,-0.48047c-0.28799,-0.21334 -0.52374,-0.47883 -0.70508,-0.79883c-0.18134,-0.32 -0.27148,-0.70434 -0.27148,-1.15234c0,-0.512 0.10203,-0.93795 0.30469,-1.2793c0.20267,-0.352 0.47507,-0.64123 0.81641,-0.86523c0.34133,-0.2239 0.73064,-0.3943 1.16797,-0.51172c0.448,-0.11716 0.91754,-0.20244 1.4082,-0.25586c0.56533,-0.064 1.00617,-0.13245 1.32617,-0.20703c0.32,-0.08542 0.5607,-0.18248 0.7207,-0.28906c0.16,-0.10683 0.25706,-0.2286 0.28906,-0.36719c0.04266,-0.13873 0.0625,-0.29426 0.0625,-0.46484c0,-0.20258 -0.05844,-0.37793 -0.17578,-0.52734c-0.11733,-0.14942 -0.26592,-0.27314 -0.44727,-0.36914c-0.18133,-0.096 -0.38342,-0.16445 -0.60742,-0.20703c-0.22399,-0.05342 -0.44291,-0.08008 -0.65625,-0.08008c-0.38401,0 -0.69308,0.0317 -0.92773,0.0957c-0.23466,0.064 -0.42683,0.14928 -0.57617,0.25586c-0.14934,0.10658 -0.27314,0.23535 -0.36914,0.38477c-0.08534,0.14934 -0.16558,0.30289 -0.24023,0.46289c-0.064,0.128 -0.15414,0.22311 -0.27148,0.28711c-0.10666,0.05342 -0.2186,0.08008 -0.33594,0.08008c-0.21333,0 -0.41045,-0.06845 -0.5918,-0.20703c-0.18134,-0.13858 -0.27148,-0.33075 -0.27148,-0.57617c0,-0.096 0.02674,-0.21298 0.08008,-0.35156c0.096,-0.22392 0.22281,-0.44283 0.38281,-0.65625c0.16,-0.22408 0.37396,-0.42121 0.64062,-0.5918c0.27733,-0.17066 0.61314,-0.30439 1.00781,-0.40039c0.40533,-0.10658 0.89666,-0.16016 1.47266,-0.16016c1.088,0 1.9518,0.21891 2.5918,0.65625zM72.77734,155.21582c0.16,0.16007 0.24023,0.35721 0.24023,0.5918v7.56836c0,0.23476 -0.08023,0.43684 -0.24023,0.60742c-0.16,0.16 -0.35713,0.24023 -0.5918,0.24023c-0.23467,0 -0.43676,-0.08023 -0.60742,-0.24023c-0.16,-0.17076 -0.24023,-0.37284 -0.24023,-0.60742v-7.56836c0,-0.23466 0.08023,-0.4318 0.24023,-0.5918c0.17067,-0.17058 0.37276,-0.25586 0.60742,-0.25586c0.23467,0 0.4318,0.08528 0.5918,0.25586zM75.71484,155.21582c0.16,0.16007 0.24023,0.35721 0.24023,0.5918v0.30273c0.04267,-0.04258 0.1229,-0.12786 0.24023,-0.25586c0.11733,-0.128 0.26097,-0.25481 0.43164,-0.38281c0.18133,-0.13858 0.37846,-0.25556 0.5918,-0.35156c0.224,-0.10658 0.45974,-0.16016 0.70508,-0.16016c0.23467,0 0.4318,0.08528 0.5918,0.25586c0.17066,0.16007 0.25586,0.35721 0.25586,0.5918c0,0.2241 -0.08519,0.42121 -0.25586,0.5918c-0.16,0.16 -0.35713,0.24023 -0.5918,0.24023c-0.40533,0 -0.73619,0.09511 -0.99219,0.28711c-0.256,0.18132 -0.46004,0.40025 -0.60937,0.65625c-0.13867,0.256 -0.23377,0.52344 -0.28711,0.80078c-0.05333,0.27724 -0.08008,0.50608 -0.08008,0.6875v4.30469c0,0.23476 -0.08023,0.43684 -0.24023,0.60742c-0.16,0.16 -0.35713,0.24023 -0.5918,0.24023c-0.23467,0 -0.43676,-0.08023 -0.60742,-0.24023c-0.16,-0.17076 -0.24023,-0.37284 -0.24023,-0.60742v-7.56836c0,-0.23466 0.08023,-0.4318 0.24023,-0.5918c0.17067,-0.17058 0.37276,-0.25586 0.60742,-0.25586c0.23467,0 0.4318,0.08528 0.5918,0.25586zM81.05859,155.21582c0.16,0.16007 0.24023,0.35721 0.24023,0.5918v0.28711c0.10667,-0.096 0.23543,-0.20794 0.38476,-0.33594c0.16,-0.13858 0.35022,-0.26539 0.57422,-0.38281c0.224,-0.11742 0.48153,-0.21448 0.76953,-0.28906c0.29867,-0.08542 0.63944,-0.12695 1.02344,-0.12695c0.39467,0 0.77405,0.05836 1.13672,0.17578c0.37333,0.10668 0.70419,0.27209 0.99219,0.49609c0.288,0.224 0.51683,0.50137 0.6875,0.83203c0.17067,0.33066 0.25586,0.715 0.25586,1.15234v5.75977c0,0.23476 -0.08519,0.43684 -0.25586,0.60742c-0.16,0.16 -0.35713,0.24023 -0.5918,0.24023c-0.23467,0 -0.4318,-0.08023 -0.5918,-0.24023c-0.16,-0.17076 -0.24023,-0.37284 -0.24023,-0.60742v-5.56836c0,-0.23458 -0.05845,-0.44358 -0.17578,-0.625c-0.10667,-0.19192 -0.25226,-0.34547 -0.43359,-0.46289c-0.17067,-0.128 -0.3678,-0.22506 -0.5918,-0.28906c-0.21333,-0.064 -0.42534,-0.0957 -0.63867,-0.0957c-0.352,0 -0.67294,0.06341 -0.96094,0.19141c-0.288,0.11727 -0.53366,0.28268 -0.73633,0.49609c-0.192,0.21332 -0.3406,0.47085 -0.44727,0.76953c-0.10667,0.288 -0.16016,0.60204 -0.16016,0.94336v4.64062c0,0.23476 -0.08023,0.43684 -0.24023,0.60742c-0.16,0.16 -0.35713,0.24023 -0.5918,0.24023c-0.23467,0 -0.43676,-0.08023 -0.60742,-0.24023c-0.16,-0.17076 -0.24023,-0.37284 -0.24023,-0.60742v-7.56836c0,-0.23466 0.08023,-0.4318 0.24023,-0.5918c0.17067,-0.17058 0.37276,-0.25586 0.60742,-0.25586c0.23467,0 0.4318,0.08528 0.5918,0.25586zM114.68359,155.21582c0.16,0.16007 0.24023,0.35721 0.24023,0.5918v0.30273c0.04266,-0.04258 0.12289,-0.12786 0.24023,-0.25586c0.11734,-0.128 0.26098,-0.25481 0.43164,-0.38281c0.18133,-0.13858 0.37845,-0.25556 0.5918,-0.35156c0.22399,-0.10658 0.45974,-0.16016 0.70508,-0.16016c0.23467,0 0.4318,0.08528 0.5918,0.25586c0.17066,0.16007 0.25586,0.35721 0.25586,0.5918c0,0.2241 -0.0852,0.42121 -0.25586,0.5918c-0.16001,0.16 -0.35714,0.24023 -0.5918,0.24023c-0.40533,0 -0.73619,0.09511 -0.99219,0.28711c-0.25599,0.18132 -0.46003,0.40025 -0.60937,0.65625c-0.13866,0.256 -0.23377,0.52344 -0.28711,0.80078c-0.05334,0.27724 -0.08008,0.50608 -0.08008,0.6875v4.30469c0,0.23476 -0.08023,0.43684 -0.24023,0.60742c-0.16001,0.16 -0.35714,0.24023 -0.5918,0.24023c-0.23467,0 -0.43676,-0.08023 -0.60742,-0.24023c-0.16,-0.17076 -0.24023,-0.37284 -0.24023,-0.60742v-7.56836c0,-0.23466 0.08023,-0.4318 0.24023,-0.5918c0.17068,-0.17058 0.37276,-0.25586 0.60742,-0.25586c0.23467,0 0.4318,0.08528 0.5918,0.25586zM91.37695,156.43066c-0.33067,0.128 -0.61795,0.33203 -0.86328,0.60937c-0.23467,0.26666 -0.42188,0.61238 -0.56055,1.03906c-0.13867,0.42666 -0.20898,0.93287 -0.20898,1.51953c0,0.58668 0.07032,1.09483 0.20898,1.52148c0.13867,0.416 0.32588,0.76172 0.56055,1.03906c0.24533,0.26673 0.53261,0.46884 0.86328,0.60742c0.34133,0.128 0.70885,0.19336 1.10351,0.19336c0.39467,0 0.75722,-0.06536 1.08789,-0.19336c0.34134,-0.13866 0.63058,-0.34076 0.86523,-0.60742c0.24534,-0.27734 0.43556,-0.62306 0.57422,-1.03906c0.13866,-0.42666 0.20898,-0.9348 0.20898,-1.52148c0,-0.58666 -0.07033,-1.09287 -0.20898,-1.51953c-0.13866,-0.42668 -0.32888,-0.7724 -0.57422,-1.03906c-0.23466,-0.27734 -0.5239,-0.48137 -0.86523,-0.60937c-0.33067,-0.13858 -0.69322,-0.20703 -1.08789,-0.20703c-0.39467,0 -0.76218,0.06845 -1.10351,0.20703zM121.25586,156.39941c-0.27733,0.11724 -0.51112,0.26585 -0.70312,0.44727c-0.18134,0.17058 -0.32693,0.36275 -0.43359,0.57617c-0.10666,0.21324 -0.18689,0.41038 -0.24023,0.5918c-0.05342,0.18142 -0.08512,0.34189 -0.0957,0.48047c-0.01058,0.12926 -0.01562,0.20445 -0.01562,0.22461h5.18359c0,-0.33066 -0.05154,-0.64663 -0.1582,-0.94531c-0.10667,-0.29866 -0.27209,-0.5592 -0.49609,-0.7832c-0.21333,-0.23476 -0.4907,-0.42196 -0.83203,-0.56055c-0.34133,-0.13858 -0.74251,-0.20703 -1.20117,-0.20703c-0.39467,0 -0.73048,0.05836 -1.00781,0.17578zM104.05664,162.54395h3.9043c0.864,0 1.46035,-0.17233 1.79102,-0.51367c0.34133,-0.352 0.51172,-0.82649 0.51172,-1.42383c0,-0.69332 -0.23379,-1.22627 -0.70313,-1.59961c-0.45867,-0.384 -1.07184,-0.57617 -1.83984,-0.57617h-3.66406zM132.91602,159.74316c-0.20267,0.064 -0.44142,0.11253 -0.71875,0.14453c-0.26667,0.032 -0.54899,0.06875 -0.84766,0.11133c-0.288,0.04258 -0.57228,0.09616 -0.84961,0.16016c-0.27733,0.064 -0.52795,0.15911 -0.75195,0.28711c-0.22401,0.11734 -0.40431,0.27284 -0.54297,0.46484c-0.128,0.192 -0.19141,0.43767 -0.19141,0.73633c0,0.23466 0.04658,0.4318 0.14258,0.5918c0.10666,0.14942 0.24039,0.27119 0.40039,0.36719c0.16001,0.08542 0.34226,0.15078 0.54492,0.19336c0.20267,0.032 0.40476,0.04687 0.60742,0.04687c0.30933,0 0.6184,-0.0317 0.92773,-0.0957c0.30933,-0.07458 0.58669,-0.19156 0.83203,-0.35156c0.25599,-0.16 0.45808,-0.37394 0.60742,-0.64062c0.16,-0.26666 0.24023,-0.59753 0.24023,-0.99219v-1.13477zM74.36328,168.92481c0.15992,0.07509 0.29958,0.17877 0.42187,0.31055c0.1317,0.12238 0.24577,0.27253 0.33984,0.45117c0.09407,0.16925 0.17438,0.34693 0.24023,0.53516l2.91992,8.43945c0.04703,0.14118 0.07031,0.27233 0.07031,0.39453c0,0.11288 -0.02328,0.23541 -0.07031,0.36719c-0.03763,0.13153 -0.09893,0.248 -0.18359,0.35156c-0.08466,0.10331 -0.19252,0.19419 -0.32422,0.26953c-0.1317,0.06576 -0.29233,0.09766 -0.48047,0.09766c-0.22577,0 -0.43721,-0.06549 -0.63477,-0.19727c-0.18814,-0.1317 -0.31927,-0.31134 -0.39453,-0.53711l-0.80469,-2.69336h-3.27344l-0.80469,2.69531c-0.07525,0.22569 -0.21065,0.40338 -0.4082,0.53516c-0.18814,0.13178 -0.39532,0.19727 -0.62109,0.19727c-0.32925,0 -0.59347,-0.10778 -0.79101,-0.32422c-0.18814,-0.22576 -0.28125,-0.47949 -0.28125,-0.76172c0,-0.12228 0.02328,-0.25343 0.07031,-0.39453l2.93555,-8.43945c0.06585,-0.18814 0.14421,-0.36583 0.23828,-0.53516c0.09407,-0.17882 0.20388,-0.32897 0.32617,-0.45117c0.12229,-0.13153 0.26195,-0.23521 0.42187,-0.31055c0.15992,-0.07534 0.34382,-0.11328 0.55078,-0.11328c0.19755,0 0.37719,0.03794 0.53711,0.11328zM84.39063,169.1084c0.49858,0.18814 0.90867,0.4186 1.22851,0.69141c0.31984,0.27281 0.5503,0.5603 0.69141,0.86133c0.15051,0.3011 0.22461,0.55485 0.22461,0.76172c0,0.1506 -0.03181,0.286 -0.09766,0.4082c-0.05644,0.11288 -0.13676,0.21221 -0.24023,0.29687c-0.09407,0.07509 -0.20193,0.13648 -0.32422,0.18359c-0.12229,0.03754 -0.24489,0.05664 -0.36719,0.05664c-0.15992,0 -0.3058,-0.03794 -0.4375,-0.11328c-0.1317,-0.07534 -0.22481,-0.19786 -0.28125,-0.36719c-0.07526,-0.21629 -0.18933,-0.40445 -0.33984,-0.56445c-0.15051,-0.15985 -0.3282,-0.29097 -0.53516,-0.39453c-0.19755,-0.11288 -0.41521,-0.19312 -0.65039,-0.24023c-0.23518,-0.05644 -0.46563,-0.08594 -0.69141,-0.08594c-0.67731,0 -1.17003,0.11843 -1.48047,0.35352c-0.31043,0.23519 -0.4668,0.55023 -0.4668,0.94531c0,0.2917 0.09079,0.52643 0.26953,0.70508c0.18814,0.16942 0.43139,0.3153 0.73242,0.4375c0.30103,0.11288 0.63934,0.21221 1.01562,0.29688c0.38569,0.07509 0.77677,0.16402 1.17187,0.26758c0.40451,0.09398 0.79559,0.21241 1.17187,0.35351c0.38569,0.14103 0.72827,0.33346 1.0293,0.57812c0.30103,0.23516 0.54197,0.53545 0.7207,0.90234c0.18814,0.35747 0.28125,0.80558 0.28125,1.3418c0,0.61145 -0.12687,1.1422 -0.38086,1.59375c-0.24458,0.44213 -0.57437,0.80993 -0.98828,1.10156c-0.41391,0.2822 -0.89384,0.49366 -1.43945,0.63477c-0.53621,0.1411 -1.09449,0.21094 -1.67773,0.21094c-0.72435,0 -1.34162,-0.09303 -1.84961,-0.28125c-0.50798,-0.18812 -0.92661,-0.42907 -1.25586,-0.7207c-0.31984,-0.29163 -0.55456,-0.60667 -0.70508,-0.94531c-0.14111,-0.33867 -0.21094,-0.66223 -0.21094,-0.97266c0,-0.16935 0.02754,-0.32569 0.08398,-0.4668c0.06585,-0.1411 0.14616,-0.25758 0.24023,-0.35156c0.10348,-0.10356 0.2156,-0.18379 0.33789,-0.24023c0.1317,-0.05644 0.25857,-0.08398 0.38086,-0.08398c0.15992,0 0.3058,0.04664 0.4375,0.14063c0.1317,0.08469 0.22054,0.22628 0.26758,0.42383c0.12229,0.49857 0.34848,0.89819 0.67773,1.19922c0.33866,0.30103 0.87135,0.45117 1.5957,0.45117c0.70553,0 1.26382,-0.12253 1.67773,-0.36719c0.41391,-0.24459 0.62109,-0.59764 0.62109,-1.05859c0,-0.31042 -0.08884,-0.56417 -0.26758,-0.76172c-0.17873,-0.20697 -0.41772,-0.38038 -0.71875,-0.52148c-0.29162,-0.1411 -0.62567,-0.25953 -1.00195,-0.35352c-0.37628,-0.10331 -0.7631,-0.20699 -1.1582,-0.31055c-0.38569,-0.11291 -0.76629,-0.23976 -1.14258,-0.38086c-0.37628,-0.14103 -0.7146,-0.31871 -1.01562,-0.53516c-0.29162,-0.22576 -0.52634,-0.49851 -0.70508,-0.81836c-0.17874,-0.32925 -0.26953,-0.73507 -0.26953,-1.21484c0.00941,-0.53619 0.113,-1.00992 0.31055,-1.42383c0.20696,-0.41393 0.49018,-0.76272 0.84766,-1.04492c0.35747,-0.28231 0.78036,-0.49801 1.26953,-0.64844c0.48917,-0.15042 1.02613,-0.22656 1.60937,-0.22656c0.70553,0 1.30611,0.09933 1.80469,0.29687zM98.02539,169.16309c0.5268,0.22579 0.9687,0.49426 1.32617,0.80469c0.35746,0.31042 0.62594,0.62974 0.80469,0.95898c0.17875,0.32927 0.26758,0.59347 0.26758,0.79102c0,0.15042 -0.03802,0.29205 -0.11328,0.42383c-0.06586,0.13178 -0.1547,0.24391 -0.26758,0.33789c-0.11289,0.09398 -0.23976,0.16817 -0.38086,0.22461c-0.1317,0.05644 -0.26283,0.08594 -0.39453,0.08594c-0.14111,0 -0.26798,-0.03384 -0.38086,-0.09961c-0.11291,-0.06576 -0.20369,-0.16314 -0.26953,-0.29492c-0.07526,-0.1505 -0.16837,-0.32589 -0.28125,-0.52344c-0.10348,-0.20697 -0.24935,-0.39513 -0.4375,-0.56445c-0.17874,-0.17882 -0.40919,-0.32897 -0.69141,-0.45117c-0.27281,-0.1222 -0.61734,-0.18359 -1.03125,-0.18359c-0.47036,0 -0.88898,0.11843 -1.25586,0.35351c-0.35747,0.22576 -0.66202,0.52178 -0.91602,0.88867c-0.24459,0.36687 -0.43275,0.78551 -0.56445,1.25586c-0.12229,0.46095 -0.18359,0.92613 -0.18359,1.39648c0,0.47977 0.0613,0.95543 0.18359,1.42578c0.1317,0.46095 0.31987,0.8753 0.56445,1.24219c0.25399,0.36697 0.55854,0.66726 0.91602,0.90234c0.36688,0.22576 0.7855,0.33789 1.25586,0.33789c0.41391,0 0.75844,-0.05944 1.03125,-0.18164c0.2822,-0.12238 0.51266,-0.27448 0.69141,-0.45312c0.18814,-0.17875 0.33402,-0.36691 0.4375,-0.56445c0.11288,-0.19747 0.20599,-0.37516 0.28125,-0.53516c0.06586,-0.13178 0.15665,-0.23111 0.26953,-0.29687c0.11288,-0.06576 0.23353,-0.09766 0.36523,-0.09766c0.1317,0 0.26478,0.02754 0.39648,0.08398c0.14111,0.05644 0.26798,0.13258 0.38086,0.22656c0.11291,0.09398 0.20174,0.20611 0.26758,0.33789c0.07526,0.13178 0.11328,0.2734 0.11328,0.42383c0,0.20697 -0.08883,0.47349 -0.26758,0.80273c-0.17874,0.32925 -0.44722,0.65051 -0.80469,0.96094c-0.34806,0.31045 -0.7857,0.57892 -1.3125,0.80469c-0.5268,0.22576 -1.14407,0.33789 -1.84961,0.33789c-0.84664,0 -1.58883,-0.16064 -2.22852,-0.48047c-0.63028,-0.31985 -1.15676,-0.74274 -1.58008,-1.26953c-0.41391,-0.53621 -0.72895,-1.14727 -0.94531,-1.83398c-0.20696,-0.69614 -0.31055,-1.42125 -0.31055,-2.17383c0,-0.74316 0.10359,-1.46209 0.31055,-2.1582c0.21636,-0.69614 0.5314,-1.30719 0.94531,-1.83398c0.42332,-0.53621 0.9498,-0.96531 1.58008,-1.28516c0.63968,-0.31982 1.38187,-0.47851 2.22852,-0.47851c0.70553,0 1.32281,0.11648 1.84961,0.35156zM65.76758,169.00879c0.40451,0 0.78937,0.06983 1.15625,0.21094c0.37628,0.1316 0.70607,0.31979 0.98828,0.56445c0.28221,0.23519 0.50841,0.51841 0.67773,0.84766c0.16933,0.32925 0.25391,0.68035 0.25391,1.05664c0,0.39511 -0.05703,0.72915 -0.16992,1.00195c-0.10348,0.27288 -0.23888,0.49909 -0.4082,0.67773c-0.16933,0.17875 -0.36176,0.32462 -0.57812,0.4375c-0.21636,0.10356 -0.43403,0.19854 -0.65039,0.2832c0.16933,0.05644 0.37224,0.14947 0.60742,0.28125c0.24458,0.12228 0.47931,0.29572 0.70508,0.52148c0.22577,0.22579 0.4182,0.51753 0.57812,0.875c0.15992,0.34807 0.24023,0.77719 0.24023,1.28516c0,0.46095 -0.09311,0.87957 -0.28125,1.25586c-0.18814,0.37629 -0.43761,0.69985 -0.74805,0.97266c-0.31044,0.27288 -0.67398,0.48434 -1.08789,0.63476c-0.40451,0.15042 -0.83166,0.22656 -1.2832,0.22656h-4.31836c-0.1317,0 -0.26283,-0.0191 -0.39453,-0.05664c-0.1317,-0.04712 -0.2543,-0.1126 -0.36719,-0.19727c-0.10348,-0.09398 -0.18806,-0.21241 -0.25391,-0.35351c-0.06585,-0.1411 -0.09766,-0.31027 -0.09766,-0.50781v-8.91797c0,-0.08466 0.0128,-0.18834 0.04102,-0.31055c0.02822,-0.13178 0.08099,-0.25431 0.15625,-0.36719c0.08466,-0.1222 0.19678,-0.21958 0.33789,-0.29492c0.15051,-0.08466 0.33868,-0.12695 0.56445,-0.12695zM89.86719,169.31934c0.21636,0.20697 0.32422,0.46069 0.32422,0.76172v8.98828c0,0.3011 -0.10786,0.55485 -0.32422,0.76172c-0.20696,0.20687 -0.46069,0.31055 -0.76172,0.31055c-0.30103,0 -0.55476,-0.10368 -0.76172,-0.31055c-0.20696,-0.20694 -0.31055,-0.46069 -0.31055,-0.76172v-8.98828c0,-0.30113 0.10359,-0.55485 0.31055,-0.76172c0.20696,-0.20687 0.46069,-0.31055 0.76172,-0.31055c0.30103,0 0.55476,0.10368 0.76172,0.31055zM62.49414,173.45215h2.89258c0.17873,0 0.34789,-0.03189 0.50781,-0.09766c0.15992,-0.06576 0.29727,-0.1547 0.41016,-0.26758c0.12229,-0.1222 0.2154,-0.26383 0.28125,-0.42383c0.06585,-0.16002 0.09961,-0.32917 0.09961,-0.50781c0,-0.17865 -0.03376,-0.34781 -0.09961,-0.50781c-0.06585,-0.15992 -0.15896,-0.29727 -0.28125,-0.41016c-0.11288,-0.12246 -0.25023,-0.21549 -0.41016,-0.28125c-0.15992,-0.06576 -0.32908,-0.09961 -0.50781,-0.09961h-2.89258zM72.66992,175.06152h2.29883l-1.14258,-3.89453zM62.49414,178.27832h2.94922c0.21636,0 0.41928,-0.04229 0.60742,-0.12695c0.19755,-0.08466 0.3667,-0.19679 0.50781,-0.33789c0.14111,-0.14103 0.25323,-0.30592 0.33789,-0.49414c0.08466,-0.18807 0.12695,-0.39098 0.12695,-0.60742c0,-0.21629 -0.04229,-0.41725 -0.12695,-0.60547c-0.08466,-0.19754 -0.19678,-0.36671 -0.33789,-0.50781c-0.14111,-0.1411 -0.31026,-0.25518 -0.50781,-0.33984c-0.18814,-0.08466 -0.39106,-0.12695 -0.60742,-0.12695h-2.94922z" data-paper-data="{&quot;origPos&quot;:null}" id="path1422" fill="#1eff00" stroke="none" stroke-width="1" stroke-miterlimit="10" stroke-dashoffset="0"/><path d="M69.1017,187.56393c1.27594,0 2.33407,4.30809 3.36633,5.0581c1.03226,0.74997 5.45651,0.42501 5.8508,1.6385c0.39429,1.21349 -3.37601,3.55113 -3.77029,4.76462c-0.39429,1.21349 1.28192,5.32078 0.24966,6.07075c-1.03226,0.75001 -4.42056,-2.1134 -5.6965,-2.1134c-1.27594,0 -4.66424,2.86341 -5.6965,2.1134c-1.03226,-0.74997 0.64395,-4.85726 0.24966,-6.07075c-0.39429,-1.21349 -4.16458,-3.55113 -3.77029,-4.76462c0.39429,-1.21349 4.81854,-0.88853 5.8508,-1.6385c1.03226,-0.75001 2.09039,-5.0581 3.36633,-5.0581z" data-paper-data="{&quot;origPos&quot;:null}" id="path1428-5-2" fill="#1eff00" stroke="none" stroke-width="0.88188" stroke-miterlimit="4" stroke-dashoffset="17.35"/><path d="M92.03869,192.86109c0.51038,0 0.93363,1.72324 1.34653,2.02322c0.4129,0.30009 2.1826,0.17008 2.34032,0.65541c0.15772,0.4854 -1.3504,1.42046 -1.50812,1.90586c-0.15772,0.4854 0.51277,2.12829 0.09986,2.42831c-0.4129,0.30009 -1.76822,-0.84537 -2.2786,-0.84537c-0.51038,0 -1.8657,1.14535 -2.2786,0.84537c-0.4129,-0.30009 0.25758,-1.9429 0.09987,-2.42831c-0.15772,-0.4854 -1.66583,-1.42046 -1.50812,-1.90586c0.15772,-0.48537 1.92742,-0.35528 2.34032,-0.65541c0.4129,-0.30009 0.83615,-2.02322 1.34653,-2.02322z" data-paper-data="{&quot;origPos&quot;:null}" id="path1428-0-2-3" fill="#1eff00" stroke="none" stroke-width="0.35275" stroke-miterlimit="4" stroke-dashoffset="17.35"/></g></g></svg>