<svg version="1.1" xmlns="http://www.w3.org/2000/svg" xmlns:xlink="http://www.w3.org/1999/xlink" width="372.21484" height="68.64257"><g transform="translate(-53.89258,-145.67871)"><g data-paper-data="{&quot;isPaintingLayer&quot;:true}" fill-rule="nonzero" stroke-linecap="butt" stroke-linejoin="miter" stroke-dasharray="" style="mix-blend-mode: normal"><path d="M425.00976,146.42871c0.19313,0 0.34766,0.15452 0.34766,0.34766v66.44531c0,0.19314 -0.15453,0.34961 -0.34766,0.34961h-370.01757c-0.19328,0 -0.34961,-0.15647 -0.34961,-0.34961v-66.44531c0,-0.19313 0.15637,-0.34766 0.34961,-0.34766z" data-paper-data="{&quot;origPos&quot;:null}" id="rect815-0-3" fill="#1e1e1e" stroke="#1eff00" stroke-width="1.5" stroke-miterlimit="4" stroke-dashoffset="17.35"/><path d="M64.91406,151.60059c0.62933,0 1.25738,0.10689 1.88672,0.32031c0.62933,0.21334 1.19593,0.57095 1.69726,1.07226c0.50133,0.49068 0.90551,1.14061 1.21484,1.95117c0.30933,0.8 0.46484,1.7876 0.46484,2.96094c0,1.184 -0.15551,2.17957 -0.46484,2.99023c-0.30933,0.8 -0.71351,1.45179 -1.21484,1.95313c-0.50133,0.49058 -1.06793,0.84322 -1.69726,1.05664c-0.62933,0.21342 -1.25739,0.31836 -1.88672,0.31836h-3.79297c-0.16,0 -0.31356,-0.02666 -0.46289,-0.08008c-0.14933,-0.064 -0.28306,-0.14928 -0.40039,-0.25586c-0.11733,-0.10666 -0.2144,-0.23844 -0.28906,-0.39844c-0.07466,-0.16 -0.11133,-0.33729 -0.11133,-0.52929v-10.11133c0,-0.34124 0.12185,-0.63544 0.36719,-0.88086c0.24533,-0.24542 0.54448,-0.36719 0.89648,-0.36719zM81.98437,151.84082c0.16,0.1601 0.24023,0.35721 0.24023,0.5918v3.79102c0.05332,-0.064 0.13852,-0.16415 0.25586,-0.30273c0.12799,-0.13873 0.29838,-0.27743 0.51172,-0.41602c0.21333,-0.14942 0.48078,-0.27818 0.80078,-0.38477c0.32,-0.10658 0.69743,-0.16016 1.13477,-0.16016c0.576,0 1.09902,0.11194 1.56836,0.33594c0.46933,0.224 0.8705,0.54494 1.20117,0.96094c0.34132,0.40534 0.60186,0.8947 0.7832,1.4707c0.18134,0.56535 0.27148,1.19039 0.27148,1.87305c0,0.68266 -0.10008,1.30575 -0.30273,1.87109c-0.20267,0.56535 -0.48003,1.05666 -0.83203,1.47266c-0.34133,0.40532 -0.74746,0.71936 -1.2168,0.94336c-0.45867,0.224 -0.94804,0.33594 -1.4707,0.33594c-0.31999,0 -0.60427,-0.01488 -0.84961,-0.04688c-0.24534,-0.032 -0.46922,-0.08557 -0.67187,-0.16015c-0.20267,-0.08542 -0.3998,-0.19232 -0.5918,-0.32032c-0.18132,-0.12789 -0.37846,-0.28147 -0.5918,-0.46289v0.14258c0,0.23474 -0.08023,0.43684 -0.24023,0.60742c-0.16001,0.16 -0.35714,0.24024 -0.5918,0.24024c-0.23467,0 -0.43676,-0.08024 -0.60742,-0.24024c-0.16,-0.17073 -0.24023,-0.37284 -0.24023,-0.60742v-10.94336c0,-0.23468 0.08023,-0.4318 0.24023,-0.5918c0.17067,-0.16 0.37276,-0.24023 0.60742,-0.24023c0.23467,0 0.4318,0.08023 0.5918,0.24023zM117.19531,151.60059c0.62933,0 1.25739,0.10689 1.88672,0.32031c0.62933,0.21334 1.19593,0.57095 1.69726,1.07226c0.50133,0.49068 0.90551,1.14051 1.21484,1.95117c0.30933,0.8 0.46484,1.7876 0.46484,2.96094c0,1.184 -0.15551,2.17957 -0.46484,2.99023c-0.30933,0.8 -0.71351,1.45179 -1.21484,1.95313c-0.50133,0.49058 -1.06793,0.84322 -1.69726,1.05664c-0.62933,0.21342 -1.25738,0.31836 -1.88672,0.31836h-3.79297c-0.15999,0 -0.3155,-0.02666 -0.46484,-0.08008c-0.14932,-0.064 -0.28109,-0.14928 -0.39844,-0.25586c-0.11734,-0.10666 -0.2144,-0.23844 -0.28906,-0.39844c-0.07466,-0.16 -0.11133,-0.33729 -0.11133,-0.52929v-10.11133c0,-0.34124 0.12185,-0.63544 0.36719,-0.88086c0.24533,-0.24542 0.54448,-0.36719 0.89648,-0.36719zM61.74609,162.54395h2.79883c0.62933,0 1.1791,-0.10689 1.64844,-0.32031c0.46933,-0.224 0.85863,-0.53305 1.16797,-0.92774c0.30933,-0.40531 0.53817,-0.88973 0.6875,-1.45507c0.14933,-0.576 0.22461,-1.22089 0.22461,-1.93555c0,-0.704 -0.07527,-1.33896 -0.22461,-1.9043c-0.14933,-0.576 -0.37817,-1.06237 -0.6875,-1.45703c-0.30933,-0.40527 -0.69863,-0.71432 -1.16797,-0.92773c-0.46933,-0.224 -1.0191,-0.33594 -1.64844,-0.33594h-2.79883zM114.02734,162.54395h2.79883c0.62933,0 1.1791,-0.10689 1.64844,-0.32031c0.46933,-0.224 0.85863,-0.53305 1.16797,-0.92774c0.30932,-0.40531 0.53816,-0.88973 0.6875,-1.45507c0.14934,-0.576 0.22461,-1.22089 0.22461,-1.93555c0,-0.704 -0.07527,-1.33896 -0.22461,-1.9043c-0.14933,-0.576 -0.37816,-1.06237 -0.6875,-1.45703c-0.30933,-0.40527 -0.69864,-0.71432 -1.16797,-0.92773c-0.46933,-0.224 -1.0191,-0.33594 -1.64844,-0.33594h-2.79883zM146.64649,155.13575c0.46933,0.18134 0.85368,0.40025 1.15234,0.65625c0.30933,0.256 0.53816,0.52151 0.6875,0.79883c0.14934,0.27734 0.22461,0.51308 0.22461,0.70507c0,0.24542 -0.0852,0.43759 -0.25586,0.57618c-0.17066,0.128 -0.36283,0.1914 -0.57617,0.1914c-0.14933,0 -0.28802,-0.03674 -0.41602,-0.11133c-0.128,-0.07458 -0.22009,-0.20334 -0.27343,-0.38476c-0.05334,-0.17069 -0.14349,-0.3361 -0.27149,-0.4961c-0.11733,-0.16 -0.27089,-0.30364 -0.46289,-0.43164c-0.18133,-0.128 -0.40025,-0.2301 -0.65625,-0.30469c-0.24533,-0.07458 -0.51774,-0.11133 -0.8164,-0.11133c-0.33067,0 -0.66153,0.06341 -0.99219,0.19141c-0.32,0.11732 -0.61419,0.30949 -0.88086,0.57617c-0.256,0.26665 -0.46305,0.6193 -0.62305,1.05664c-0.16,0.42666 -0.24023,0.94473 -0.24023,1.55273c0,0.608 0.08023,1.12412 0.24023,1.55078c0.16,0.42669 0.36705,0.77436 0.62305,1.04102c0.26667,0.26666 0.56086,0.46379 0.88086,0.59179c0.33066,0.11742 0.66152,0.17579 0.99219,0.17579c0.29865,0 0.57106,-0.03675 0.8164,-0.11133c0.25599,-0.07458 0.47491,-0.17669 0.65625,-0.30469c0.19199,-0.128 0.34555,-0.27164 0.46289,-0.43164c0.128,-0.16008 0.21815,-0.32551 0.27149,-0.49609c0.05334,-0.18142 0.14543,-0.31019 0.27343,-0.38477c0.128,-0.07458 0.26668,-0.11133 0.41602,-0.11133c0.21334,0 0.40551,0.0704 0.57617,0.20899c0.18134,0.12807 0.27149,0.30838 0.27149,0.54297c0,0.11734 -0.0535,0.31445 -0.16016,0.59179c-0.10667,0.26666 -0.29884,0.53907 -0.57617,0.81641c-0.27733,0.27724 -0.66168,0.52291 -1.15235,0.73633c-0.47999,0.21341 -1.09813,0.32031 -1.85546,0.32031v-0.00195c-0.62934,0 -1.21577,-0.11194 -1.75977,-0.33594c-0.53333,-0.23468 -0.99791,-0.55861 -1.39258,-0.97461c-0.39466,-0.416 -0.70373,-0.91228 -0.92773,-1.48828c-0.224,-0.58666 -0.33594,-1.2335 -0.33594,-1.9375c0,-0.71466 0.11194,-1.35955 0.33594,-1.93555c0.224,-0.58668 0.53307,-1.0879 0.92773,-1.5039c0.39467,-0.416 0.85924,-0.73498 1.39258,-0.95898c0.544,-0.23458 1.13043,-0.35352 1.75977,-0.35352c0.64,0 1.19473,0.09706 1.66406,0.28906zM76.84766,155.12012c0.53333,0.18132 0.99295,0.44878 1.37695,0.80078c0.39467,0.34134 0.70373,0.76233 0.92773,1.26368c0.224,0.50131 0.33594,1.07289 0.33594,1.71289c0,0.39476 -0.09511,0.69194 -0.28711,0.89453c-0.192,0.20258 -0.41783,0.30468 -0.67383,0.30468h-5.85547c0,0.02142 0.00497,0.11149 0.01562,0.27149c0.02133,0.14924 0.05995,0.3315 0.11328,0.54492c0.064,0.21327 0.14919,0.44208 0.25586,0.6875c0.11733,0.23474 0.27089,0.45367 0.46289,0.65625c0.192,0.20276 0.42774,0.37314 0.70508,0.51172c0.288,0.128 0.63373,0.19336 1.03906,0.19336c0.33067,0 0.61299,-0.02861 0.84766,-0.08203c0.23467,-0.05342 0.44367,-0.1317 0.625,-0.23828c0.18133,-0.10666 0.34676,-0.24039 0.49609,-0.40039c0.14933,-0.17066 0.29793,-0.3678 0.44727,-0.5918c0.08533,-0.128 0.1824,-0.22002 0.28906,-0.27344c0.10667,-0.05342 0.2186,-0.08008 0.33594,-0.08008c0.192,0 0.36734,0.07041 0.52734,0.20899c0.16,0.13858 0.24023,0.31392 0.24023,0.52734c0,0.128 -0.07032,0.32017 -0.20898,0.57617c-0.13867,0.256 -0.36254,0.51158 -0.67187,0.76758c-0.29867,0.256 -0.68797,0.47988 -1.16797,0.67188c-0.48,0.192 -1.06643,0.28906 -1.75977,0.28906c-0.704,0 -1.33205,-0.12877 -1.88672,-0.38477c-0.55467,-0.256 -1.0242,-0.59675 -1.4082,-1.02343c-0.37333,-0.43732 -0.66257,-0.94353 -0.86523,-1.51954c-0.192,-0.576 -0.28711,-1.17925 -0.28711,-1.80859c0,-0.65066 0.10202,-1.26384 0.30469,-1.83984c0.20267,-0.58669 0.48995,-1.09287 0.86328,-1.51953c0.384,-0.42658 0.84167,-0.76239 1.375,-1.00781c0.53333,-0.256 1.13164,-0.38477 1.79297,-0.38477c0.608,0 1.17265,0.09007 1.69531,0.27148zM129.89844,155.50489c0.65067,0.42666 0.97461,1.06164 0.97461,1.90429v5.9668c0,0.23474 -0.08023,0.43684 -0.24023,0.60742c-0.16001,0.16 -0.35714,0.24024 -0.5918,0.24024c-0.23468,0 -0.43676,-0.08024 -0.60742,-0.24024c-0.16,-0.17073 -0.24023,-0.37284 -0.24023,-0.60742v-0.25586c-0.40533,0.43727 -0.86991,0.73144 -1.39258,0.88086c-0.512,0.14942 -1.05486,0.22266 -1.63086,0.22266c-0.36267,0 -0.73018,-0.04658 -1.10351,-0.14258c-0.36267,-0.10658 -0.69352,-0.26705 -0.99219,-0.48047c-0.28799,-0.21332 -0.52374,-0.48078 -0.70508,-0.80078c-0.18134,-0.32 -0.27148,-0.70239 -0.27148,-1.15039c0,-0.512 0.10203,-0.93991 0.30469,-1.28125c0.20267,-0.352 0.47312,-0.63928 0.81445,-0.86328c0.34133,-0.22393 0.73063,-0.3943 1.16797,-0.51172c0.448,-0.11717 0.91754,-0.20244 1.4082,-0.25586c0.56533,-0.064 1.00812,-0.1344 1.32812,-0.20898c0.32,-0.08542 0.5607,-0.18053 0.7207,-0.28711c0.16,-0.10684 0.25511,-0.23056 0.28711,-0.36914c0.04266,-0.13876 0.06445,-0.29231 0.06445,-0.4629c0,-0.20258 -0.05844,-0.37987 -0.17578,-0.52929c-0.11732,-0.14942 -0.26592,-0.27119 -0.44726,-0.36719c-0.18133,-0.096 -0.38537,-0.16445 -0.60937,-0.20703c-0.22399,-0.05342 -0.44291,-0.08203 -0.65625,-0.08203c-0.38401,0 -0.69308,0.03366 -0.92773,0.09766c-0.23466,0.064 -0.42683,0.14928 -0.57617,0.25586c-0.14934,0.10658 -0.27119,0.23339 -0.36719,0.38281c-0.08534,0.14934 -0.16558,0.30484 -0.24023,0.46484c-0.064,0.128 -0.15414,0.22311 -0.27148,0.28711c-0.10666,0.05342 -0.21859,0.08008 -0.33594,0.08008c-0.21332,0 -0.41045,-0.06845 -0.5918,-0.20703c-0.18134,-0.13859 -0.27344,-0.33076 -0.27344,-0.57618c0,-0.096 0.02674,-0.21493 0.08008,-0.35351c0.096,-0.22392 0.22476,-0.44088 0.38476,-0.6543c0.16,-0.22408 0.37396,-0.42121 0.64062,-0.5918c0.27733,-0.17068 0.61315,-0.30439 1.00781,-0.40039c0.40533,-0.10658 0.8947,-0.16016 1.4707,-0.16016c1.088,0 1.95375,0.21891 2.59375,0.65625zM155.41016,155.12012c0.53333,0.18132 0.99295,0.44878 1.37695,0.80078c0.39467,0.34134 0.70374,0.76233 0.92774,1.26368c0.224,0.50131 0.33594,1.07289 0.33594,1.71289c0,0.39476 -0.09511,0.69194 -0.28711,0.89453c-0.192,0.20258 -0.41783,0.30468 -0.67383,0.30468h-5.85547c0,0.02142 0.00504,0.11149 0.01562,0.27149c0.02132,0.14924 0.05994,0.3315 0.11329,0.54492c0.064,0.21327 0.1492,0.44208 0.25586,0.6875c0.11733,0.23474 0.27089,0.45367 0.46289,0.65625c0.192,0.20276 0.42774,0.37314 0.70507,0.51172c0.288,0.128 0.63373,0.19336 1.03907,0.19336c0.33067,0 0.61299,-0.02861 0.84765,-0.08203c0.23466,-0.05342 0.44366,-0.1317 0.625,-0.23828c0.18133,-0.10666 0.34675,-0.24039 0.4961,-0.40039c0.14932,-0.17066 0.29792,-0.3678 0.44726,-0.5918c0.08534,-0.128 0.18241,-0.22002 0.28906,-0.27344c0.10666,-0.05342 0.2186,-0.08008 0.33594,-0.08008c0.192,0 0.36735,0.07041 0.52735,0.20899c0.16,0.13858 0.24023,0.31392 0.24023,0.52734c0,0.128 -0.07033,0.32017 -0.20898,0.57617c-0.13867,0.256 -0.36255,0.51158 -0.67188,0.76758c-0.29867,0.256 -0.68797,0.47988 -1.16797,0.67188c-0.48,0.192 -1.06643,0.28906 -1.75976,0.28906c-0.704,0 -1.33206,-0.12877 -1.88672,-0.38477c-0.55467,-0.256 -1.02421,-0.59675 -1.40821,-1.02343c-0.37334,-0.43732 -0.66257,-0.94353 -0.86523,-1.51954c-0.192,-0.576 -0.28711,-1.17925 -0.28711,-1.80859c0,-0.65066 0.10203,-1.26384 0.30469,-1.83984c0.20266,-0.58669 0.48995,-1.09287 0.86328,-1.51953c0.384,-0.42658 0.84167,-0.76239 1.375,-1.00781c0.53333,-0.256 1.13163,-0.38477 1.79297,-0.38477c0.608,0 1.17264,0.09007 1.69531,0.27148zM91.12305,155.21582c0.16,0.16007 0.24023,0.35917 0.24023,0.59375v5.5664c0,0.24524 0.0535,0.45921 0.16016,0.64063c0.11734,0.18134 0.26098,0.33684 0.43164,0.46484c0.18133,0.11742 0.37846,0.20748 0.5918,0.27149c0.22399,0.064 0.44291,0.0957 0.65625,0.0957c0.352,0 0.67098,-0.05837 0.95898,-0.17578c0.288,-0.12793 0.5287,-0.2983 0.7207,-0.51172c0.20268,-0.21332 0.35818,-0.46396 0.46484,-0.75196c0.10666,-0.29868 0.1582,-0.61962 0.1582,-0.96093v-4.63867c0,-0.23466 0.08023,-0.43375 0.24023,-0.59375c0.16001,-0.17058 0.35714,-0.25586 0.5918,-0.25586c0.23467,0 0.43375,0.08528 0.59375,0.25586c0.17066,0.16007 0.25586,0.35917 0.25586,0.59375v7.5664c0,0.23474 -0.0852,0.43879 -0.25586,0.60938c-0.16001,0.16 -0.35909,0.24023 -0.59375,0.24023c-0.23467,0 -0.4318,-0.08023 -0.5918,-0.24023c-0.16,-0.17074 -0.24023,-0.3748 -0.24023,-0.60938v-0.28711c-0.10667,0.096 -0.23844,0.21298 -0.39844,0.35157c-0.14933,0.12799 -0.33655,0.25172 -0.56055,0.36914c-0.224,0.11716 -0.48454,0.21731 -0.7832,0.30273c-0.288,0.07458 -0.62576,0.11133 -1.00976,0.11133c-0.39467,0 -0.77706,-0.05162 -1.15039,-0.1582c-0.36267,-0.11735 -0.68856,-0.28968 -0.97656,-0.51368c-0.28801,-0.224 -0.51684,-0.50137 -0.6875,-0.83203c-0.17066,-0.33066 -0.25586,-0.71305 -0.25586,-1.15039v-5.75976c0,-0.23466 0.07828,-0.43375 0.23828,-0.59375c0.17068,-0.17058 0.37472,-0.25586 0.60937,-0.25586c0.23467,0 0.4318,0.08528 0.5918,0.25586zM103.71289,155.26465c0.45867,0.20266 0.84301,0.4315 1.15234,0.6875v-0.14258c0,-0.23466 0.08023,-0.4318 0.24023,-0.5918c0.16001,-0.17058 0.35714,-0.25586 0.5918,-0.25586c0.23467,0 0.4318,0.08528 0.5918,0.25586c0.17066,0.16007 0.25586,0.35721 0.25586,0.5918v8.20703c0,0.53334 -0.11194,1.01971 -0.33594,1.45703c-0.21333,0.43734 -0.50752,0.8098 -0.88086,1.11914c-0.37333,0.32007 -0.80921,0.56574 -1.31055,0.73633c-0.50133,0.18141 -1.04119,0.27148 -1.61719,0.27148c-0.62933,0 -1.16723,-0.08023 -1.61523,-0.24023c-0.448,-0.14927 -0.82243,-0.32955 -1.12109,-0.54297c-0.29867,-0.20266 -0.51759,-0.41663 -0.65625,-0.64063c-0.13866,-0.21334 -0.20703,-0.38372 -0.20703,-0.51172c0,-0.21331 0.06837,-0.40054 0.20703,-0.56054c0.13867,-0.16 0.30409,-0.24024 0.49609,-0.24024c0.192,0 0.38417,0.10211 0.57617,0.30469c0.13868,0.15993 0.27736,0.2986 0.41602,0.41602c0.13867,0.128 0.29419,0.23489 0.46484,0.32031c0.18133,0.08542 0.38342,0.14882 0.60742,0.1914c0.23467,0.04259 0.51203,0.06446 0.83203,0.06446c0.34133,0 0.66227,-0.04349 0.96094,-0.12891c0.29867,-0.07458 0.5592,-0.20139 0.7832,-0.38281c0.224,-0.17066 0.39934,-0.39453 0.52734,-0.67188c0.128,-0.26665 0.19336,-0.58759 0.19336,-0.96093v-1.05664c-0.10667,0.11724 -0.24039,0.25097 -0.40039,0.40039c-0.16,0.13868 -0.35217,0.27239 -0.57617,0.40039c-0.224,0.128 -0.48454,0.23993 -0.7832,0.33593c-0.29867,0.08542 -0.64635,0.12891 -1.04101,0.12891c-0.576,0 -1.10894,-0.09202 -1.59961,-0.27344c-0.48,-0.18134 -0.89605,-0.45869 -1.24805,-0.83203c-0.34133,-0.37331 -0.60878,-0.85277 -0.80078,-1.43945c-0.192,-0.58666 -0.28711,-1.28008 -0.28711,-2.08008c0,-0.81066 0.10697,-1.50408 0.32031,-2.08008c0.21333,-0.58668 0.49566,-1.06613 0.84766,-1.43945c0.36267,-0.38392 0.77871,-0.66624 1.24805,-0.84766c0.48,-0.18142 0.9862,-0.27344 1.51953,-0.27344c0.65067,0 1.20044,0.1021 1.64844,0.30469zM133.56055,155.21582c0.16,0.16007 0.24023,0.35721 0.24023,0.5918v0.28906c0.10666,-0.096 0.23347,-0.20794 0.38281,-0.33594c0.16,-0.13858 0.35217,-0.26735 0.57617,-0.38477c0.224,-0.11742 0.47958,-0.21253 0.76758,-0.28711c0.29867,-0.08542 0.64139,-0.12891 1.02539,-0.12891c0.39467,0 0.7721,0.05836 1.13476,0.17578c0.37333,0.10666 0.70419,0.27209 0.99219,0.49609c0.28801,0.224 0.51879,0.50135 0.68945,0.83203c0.17066,0.33066 0.25586,0.715 0.25586,1.15235v5.75976c0,0.23474 -0.0852,0.43879 -0.25586,0.60938c-0.16001,0.16 -0.35909,0.23828 -0.59375,0.23828c-0.23467,0 -0.4318,-0.07828 -0.5918,-0.23828c-0.16,-0.17074 -0.24023,-0.3748 -0.24023,-0.60938v-5.56836c0,-0.23458 -0.05844,-0.44163 -0.17578,-0.62304c-0.10666,-0.19193 -0.2503,-0.34743 -0.43164,-0.46485c-0.17067,-0.128 -0.3678,-0.22311 -0.5918,-0.28711c-0.21333,-0.064 -0.42728,-0.0957 -0.64062,-0.0957c-0.352,0 -0.67098,0.06341 -0.95898,0.19141c-0.28801,0.11724 -0.53367,0.28268 -0.73633,0.49609c-0.19201,0.21334 -0.34061,0.46892 -0.44727,0.76758c-0.10666,0.288 -0.16016,0.60397 -0.16016,0.94531v4.63867c0,0.23474 -0.08023,0.43879 -0.24023,0.60938c-0.16001,0.16 -0.35714,0.23828 -0.5918,0.23828c-0.23468,0 -0.43872,-0.07828 -0.60937,-0.23828c-0.16,-0.17074 -0.23828,-0.3748 -0.23828,-0.60938v-7.56836c0,-0.23466 0.07828,-0.4318 0.23828,-0.5918c0.17068,-0.17058 0.37472,-0.25586 0.60937,-0.25586c0.23467,0 0.4318,0.08528 0.5918,0.25586zM74.17578,156.39942c-0.27733,0.11727 -0.51112,0.2678 -0.70312,0.44922c-0.18133,0.17058 -0.32497,0.36275 -0.43164,0.57617c-0.10667,0.21324 -0.1869,0.41038 -0.24023,0.5918c-0.05334,0.18141 -0.08504,0.34188 -0.0957,0.48047c-0.01066,0.12926 -0.01758,0.20249 -0.01758,0.22265h5.18555c0,-0.33068 -0.05349,-0.6447 -0.16016,-0.94336c-0.10667,-0.29866 -0.27209,-0.5592 -0.49609,-0.7832c-0.21333,-0.23476 -0.4907,-0.42196 -0.83203,-0.56055c-0.34133,-0.13858 -0.7425,-0.20898 -1.20117,-0.20898c-0.39467,0 -0.73048,0.05836 -1.00781,0.17578zM152.73829,156.39942c-0.27734,0.11727 -0.51113,0.2678 -0.70313,0.44922c-0.18134,0.17058 -0.32498,0.36275 -0.43164,0.57617c-0.10666,0.21324 -0.18689,0.41038 -0.24023,0.5918c-0.05342,0.18141 -0.08708,0.34188 -0.09766,0.48047c-0.01058,0.12926 -0.01563,0.20249 -0.01563,0.22265h5.18555c0,-0.33068 -0.0535,-0.6447 -0.16016,-0.94336c-0.10666,-0.29866 -0.27209,-0.5592 -0.49609,-0.7832c-0.21333,-0.23476 -0.4907,-0.42196 -0.83203,-0.56055c-0.34133,-0.13858 -0.74251,-0.20898 -1.20117,-0.20898c-0.39467,0 -0.73048,0.05836 -1.00781,0.17578zM83.56836,156.6084c-0.30933,0.18132 -0.56986,0.42699 -0.7832,0.73633c-0.21332,0.29866 -0.37875,0.64438 -0.49609,1.03906c-0.10666,0.384 -0.16016,0.79014 -0.16016,1.2168c0,0.416 0.0535,0.82214 0.16016,1.2168c0.11732,0.39468 0.28275,0.7404 0.49609,1.03906c0.21333,0.29858 0.47387,0.53929 0.7832,0.7207c0.32,0.18142 0.68256,0.27149 1.08789,0.27149c0.39467,0 0.74731,-0.09007 1.05664,-0.27149c0.31999,-0.18134 0.58744,-0.42204 0.80078,-0.7207c0.22401,-0.29866 0.38748,-0.64438 0.49414,-1.03906c0.11734,-0.39466 0.17773,-0.8008 0.17773,-1.2168c0,-0.42666 -0.06039,-0.8328 -0.17773,-1.2168c-0.10667,-0.39468 -0.27014,-0.7404 -0.49414,-1.03906c-0.21333,-0.30924 -0.48078,-0.55491 -0.80078,-0.73633c-0.30933,-0.18142 -0.66197,-0.27148 -1.05664,-0.27148c-0.40533,0 -0.76789,0.09007 -1.08789,0.27148zM100.40039,157.16895c-0.46933,0.55468 -0.70312,1.36498 -0.70312,2.43164c0,1.06666 0.23379,1.87696 0.70312,2.43164c0.46933,0.544 1.11421,0.81641 1.93555,0.81641c0.82133,0 1.46126,-0.27241 1.91992,-0.81641c0.46933,-0.55468 0.70508,-1.36498 0.70508,-2.43164c0,-1.06666 -0.23574,-1.87696 -0.70508,-2.43164c-0.45867,-0.55466 -1.09859,-0.83203 -1.91992,-0.83203c-0.82133,0 -1.46621,0.27737 -1.93555,0.83203zM128.79297,159.74512c-0.20267,0.064 -0.44142,0.11058 -0.71875,0.14258c-0.26667,0.032 -0.55094,0.0707 -0.84961,0.11328c-0.288,0.04258 -0.57032,0.09616 -0.84766,0.16016c-0.27733,0.064 -0.52795,0.15911 -0.75195,0.28711c-0.22401,0.11731 -0.40431,0.27284 -0.54297,0.46484c-0.128,0.192 -0.19336,0.43569 -0.19336,0.73438c0,0.23465 0.04853,0.43179 0.14453,0.59179c0.10667,0.14942 0.24039,0.27314 0.40039,0.36914c0.16001,0.08542 0.34031,0.14883 0.54297,0.19141c0.20268,0.032 0.40672,0.04883 0.60937,0.04883c0.30933,0 0.6184,-0.0317 0.92773,-0.0957c0.30932,-0.07459 0.58669,-0.19157 0.83203,-0.35157c0.25599,-0.16 0.45808,-0.37396 0.60742,-0.64062c0.16,-0.26666 0.24023,-0.59751 0.24023,-0.99219v-1.13672zM65.76953,169.00879c0.40451,0 0.78937,0.07179 1.15625,0.21289c0.37628,0.13163 0.70607,0.3198 0.98828,0.56446c0.28221,0.23519 0.50841,0.51645 0.67773,0.8457c0.16933,0.32925 0.25391,0.68231 0.25391,1.0586c0,0.39508 -0.05704,0.72914 -0.16992,1.00195c-0.10348,0.27291 -0.23888,0.49909 -0.4082,0.67773c-0.16933,0.17872 -0.36371,0.32462 -0.58008,0.4375c-0.21636,0.10356 -0.43207,0.19659 -0.64844,0.28125c0.16933,0.05644 0.37224,0.15143 0.60742,0.28321c0.24458,0.1223 0.47931,0.29572 0.70508,0.52148c0.22577,0.22576 0.4182,0.51753 0.57812,0.875c0.15992,0.34807 0.24023,0.77716 0.24023,1.28516c0,0.46095 -0.09506,0.87957 -0.2832,1.25586c-0.18814,0.37626 -0.43566,0.69985 -0.74609,0.97265c-0.31043,0.27291 -0.67398,0.48434 -1.08789,0.63477c-0.40451,0.15042 -0.83166,0.22656 -1.2832,0.22656h-4.31836c-0.1317,0 -0.26283,-0.0191 -0.39453,-0.05664c-0.1317,-0.04712 -0.2543,-0.11456 -0.36719,-0.19922c-0.10348,-0.09398 -0.18806,-0.21046 -0.25391,-0.35156c-0.06585,-0.14113 -0.09961,-0.31027 -0.09961,-0.50781v-8.91797c0,-0.08466 0.01475,-0.18835 0.04297,-0.31055c0.02822,-0.13178 0.07904,-0.25431 0.1543,-0.36719c0.08466,-0.1222 0.19874,-0.22153 0.33984,-0.29687c0.15051,-0.08466 0.33868,-0.12696 0.56445,-0.12696zM72.03711,169.31934c0.21636,0.20694 0.32422,0.46069 0.32422,0.76172v8.21289h4.55859c0.2634,0 0.48337,0.09089 0.66211,0.26953c0.17874,0.17872 0.26953,0.39443 0.26953,0.64844c0,0.26348 -0.09079,0.48346 -0.26953,0.66211c-0.17874,0.17864 -0.39871,0.26953 -0.66211,0.26953h-5.60156c-0.1317,0 -0.26479,-0.0191 -0.39648,-0.05664c-0.1317,-0.04712 -0.25235,-0.1126 -0.36523,-0.19727c-0.10348,-0.09398 -0.18806,-0.21241 -0.25391,-0.35351c-0.06585,-0.14113 -0.09961,-0.31027 -0.09961,-0.50781v-8.94727c0,-0.3011 0.10359,-0.55485 0.31055,-0.76172c0.20696,-0.20686 0.46069,-0.31055 0.76172,-0.31055c0.30103,0 0.55476,0.10369 0.76172,0.31055zM80.15625,169.31934c0.21636,0.20694 0.32422,0.46069 0.32422,0.76172v6.7168c0,0.26348 0.05704,0.50016 0.16992,0.70703c0.12229,0.20704 0.2767,0.38473 0.46484,0.53515c0.19755,0.14111 0.41948,0.24888 0.66406,0.32422c0.25399,0.07534 0.51199,0.11328 0.77539,0.11328c0.2634,0 0.51909,-0.03794 0.76367,-0.11328c0.25399,-0.07534 0.47396,-0.18311 0.66211,-0.32422c0.19755,-0.1506 0.35196,-0.32829 0.46484,-0.53515c0.12228,-0.20697 0.18359,-0.44365 0.18359,-0.70703v-6.7168c0,-0.3011 0.10358,-0.55485 0.31055,-0.76172c0.21636,-0.20686 0.47632,-0.31055 0.77734,-0.31055c0.30102,0 0.55475,0.10369 0.76172,0.31055c0.20697,0.20694 0.31055,0.46069 0.31055,0.76172v6.7168c0,0.69611 -0.1226,1.27537 -0.36719,1.73632c-0.23518,0.45156 -0.55021,0.81314 -0.94531,1.08594c-0.3951,0.26331 -0.84748,0.44722 -1.35547,0.55078c-0.50798,0.10356 -1.0302,0.15625 -1.56641,0.15625c-0.53621,0 -1.05842,-0.05269 -1.56641,-0.15625c-0.50798,-0.10348 -0.95842,-0.28739 -1.35352,-0.55078c-0.3951,-0.2728 -0.7144,-0.63438 -0.95898,-1.08594c-0.23518,-0.46095 -0.35352,-1.04021 -0.35352,-1.73632v-6.7168c0,-0.3011 0.10359,-0.55485 0.31055,-0.76172c0.20696,-0.20686 0.46069,-0.31055 0.76172,-0.31055c0.30103,0 0.55476,0.10369 0.76172,0.31055zM95.1875,169.01075c0.25401,0 0.46972,0.08893 0.64844,0.26758c0.17875,0.17872 0.26758,0.39445 0.26758,0.64843c0,0.26351 -0.08883,0.48542 -0.26758,0.66407c-0.17873,0.17864 -0.39444,0.26757 -0.64844,0.26757h-4.93945v2.41211h4.14844c0.26339,0 0.48532,0.09499 0.66406,0.28321c0.17875,0.17874 0.26758,0.39445 0.26758,0.64843c0,0.25391 -0.08883,0.47585 -0.26758,0.66407c-0.17873,0.17864 -0.40066,0.26757 -0.66406,0.26757h-4.14844v3.16016h4.93945c0.25401,0 0.46972,0.09089 0.64844,0.26953c0.17875,0.17872 0.26758,0.39443 0.26758,0.64844c0,0.26348 -0.08883,0.48542 -0.26758,0.66406c-0.17873,0.17865 -0.39444,0.26758 -0.64844,0.26758h-5.98242c-0.1317,0 -0.26478,-0.0191 -0.39648,-0.05664c-0.1317,-0.04712 -0.2543,-0.1126 -0.36719,-0.19727c-0.10348,-0.09398 -0.18807,-0.21241 -0.25391,-0.35351c-0.06584,-0.14113 -0.09766,-0.31027 -0.09766,-0.50781v-8.91797c0,-0.08466 0.01279,-0.18835 0.04102,-0.31055c0.02822,-0.13178 0.08526,-0.25431 0.16992,-0.36719c0.08466,-0.1222 0.19874,-0.21958 0.33984,-0.29492c0.15052,-0.08466 0.33869,-0.12695 0.56445,-0.12695zM62.49609,173.45411h2.89258c0.17873,0 0.34789,-0.0319 0.50781,-0.09766c0.15992,-0.06576 0.29532,-0.15665 0.4082,-0.26953c0.12229,-0.12223 0.21735,-0.26188 0.2832,-0.42188c0.06585,-0.16 0.09766,-0.33112 0.09766,-0.50976c0,-0.17865 -0.03181,-0.34781 -0.09766,-0.50781c-0.06585,-0.15993 -0.16091,-0.29532 -0.2832,-0.40821c-0.11288,-0.12245 -0.24828,-0.21744 -0.4082,-0.2832c-0.15992,-0.06576 -0.32908,-0.09766 -0.50781,-0.09766h-2.89258zM62.49609,178.28028h2.94922c0.21636,0 0.41733,-0.04229 0.60547,-0.12695c0.19755,-0.08467 0.3667,-0.19679 0.50781,-0.33789c0.14111,-0.14103 0.25518,-0.30593 0.33984,-0.49415c0.08466,-0.18806 0.12695,-0.39098 0.12695,-0.60742c0,-0.21626 -0.04229,-0.4192 -0.12695,-0.60742c-0.08466,-0.19757 -0.19874,-0.36671 -0.33984,-0.50781c-0.14111,-0.1411 -0.31026,-0.25323 -0.50781,-0.33789c-0.18814,-0.08466 -0.38911,-0.12696 -0.60547,-0.12696h-2.94922z" data-paper-data="{&quot;origPos&quot;:null}" id="path5576" fill="#1eff00" stroke="none" stroke-width="1" stroke-miterlimit="10" stroke-dashoffset="0"/><path d="M69.10321,187.56519c1.27594,0 2.33407,4.30809 3.36633,5.0581c1.03226,0.74997 5.45651,0.42501 5.8508,1.6385c0.39429,1.21349 -3.37601,3.55113 -3.77029,4.76462c-0.39429,1.21349 1.28192,5.32078 0.24966,6.07075c-1.03226,0.75001 -4.42056,-2.1134 -5.6965,-2.1134c-1.27594,0 -4.66424,2.86341 -5.6965,2.1134c-1.03226,-0.74997 0.64395,-4.85726 0.24966,-6.07075c-0.39429,-1.21349 -4.16458,-3.55113 -3.77029,-4.76462c0.39429,-1.21349 4.81854,-0.88853 5.8508,-1.6385c1.03226,-0.75001 2.09039,-5.0581 3.36633,-5.0581z" data-paper-data="{&quot;origPos&quot;:null}" id="path1428-5-2" fill="#1eff00" stroke="none" stroke-width="0.88188" stroke-miterlimit="4" stroke-dashoffset="17.35"/><path d="M92.0402,187.56519c1.27594,0 2.33407,4.30809 3.36633,5.0581c1.03226,0.74997 5.45651,0.42501 5.8508,1.6385c0.39429,1.21349 -3.37601,3.55113 -3.77029,4.76462c-0.39428,1.21349 1.28192,5.32078 0.24968,6.07075c-1.03225,0.75001 -4.42055,-2.1134 -5.69649,-2.1134c-1.27594,0 -4.66424,2.86341 -5.6965,2.1134c-1.03226,-0.74997 0.64395,-4.85726 0.24968,-6.07075c-0.39429,-1.21349 -4.16458,-3.55113 -3.77029,-4.76462c0.39428,-1.21349 4.81854,-0.88853 5.8508,-1.6385c1.03226,-0.75001 2.09038,-5.0581 3.36633,-5.0581z" data-paper-data="{&quot;origPos&quot;:null}" id="path1428-0-2-0" fill="#1eff00" stroke="none" stroke-width="0.88188" stroke-miterlimit="4" stroke-dashoffset="17.35"/><path d="M114.97716,195.95238c0.0638,0 0.11671,0.21543 0.1683,0.25285c0.05163,0.0378 0.27284,0.02268 0.29254,0.08202c0.01965,0.06085 -0.16879,0.17764 -0.18852,0.23811c-0.01965,0.06085 0.0641,0.26608 0.01247,0.3035c-0.05163,0.0378 -0.22103,-0.10545 -0.28483,-0.10545c-0.0638,0 -0.2332,0.14324 -0.28483,0.10545c-0.05163,-0.0378 0.03213,-0.24265 0.01247,-0.3035c-0.01965,-0.06047 -0.20821,-0.17764 -0.18852,-0.23811c0.01965,-0.06047 0.24094,-0.04422 0.29254,-0.08202c0.05163,-0.0378 0.1045,-0.25285 0.1683,-0.25285z" data-paper-data="{&quot;origPos&quot;:null}" id="path1428-0-6-3-9" fill="#1eff00" stroke="none" stroke-width="0.04409" stroke-miterlimit="4" stroke-dashoffset="17.35"/></g></g></svg>