<svg version="1.1" xmlns="http://www.w3.org/2000/svg" xmlns:xlink="http://www.w3.org/1999/xlink" width="427.11156" height="27.77145" viewBox="0,0,427.11156,27.77145"><g transform="translate(-25.93651,-115.09079)"><g data-paper-data="{&quot;isPaintingLayer&quot;:true}" fill-rule="nonzero" stroke-linecap="butt" stroke-linejoin="miter" stroke-dasharray="" style="mix-blend-mode: normal"><g id="g1639"><path d="M26.8796,115.84103h425.22538c0.10684,0 0.19285,0.086 0.19285,0.19286v25.88526c0,0.10685 -0.086,0.19286 -0.19285,0.19286h-425.22538c-0.10684,0 -0.19286,-0.086 -0.19286,-0.19286v-25.88526c0,-0.10684 0.08601,-0.19286 0.19286,-0.19286z" id="rect913-8-6" fill="#272727" stroke="#1eff00" stroke-width="1.50047" stroke-miterlimit="4" stroke-dashoffset="17.35"/><path d="M177.13682,121.3605c0.18129,0.18133 0.27149,0.40521 0.27149,0.67188v4.27148h6.32031v-4.27148c0,-0.26667 0.09015,-0.49055 0.27148,-0.67188c0.192,-0.18138 0.41588,-0.27148 0.67188,-0.27148c0.26666,0 0.49054,0.09015 0.67187,0.27148c0.19196,0.18133 0.28906,0.40521 0.28906,0.67188v10.73632c0,0.256 -0.09706,0.47988 -0.28906,0.67188c-0.18133,0.18138 -0.40521,0.27148 -0.67187,0.27148c-0.256,0 -0.47988,-0.09015 -0.67188,-0.27148c-0.18138,-0.192 -0.27148,-0.41588 -0.27148,-0.67188v-4.7832h-6.32031v4.7832c0,0.256 -0.09016,0.47988 -0.27149,0.67188c-0.18133,0.18138 -0.40521,0.27148 -0.67187,0.27148c-0.256,0 -0.47988,-0.09015 -0.67188,-0.27148c-0.18134,-0.192 -0.27344,-0.41588 -0.27344,-0.67188v-10.73632c0,-0.26667 0.09211,-0.49055 0.27344,-0.67188c0.192,-0.18138 0.41588,-0.27148 0.67188,-0.27148c0.26666,0 0.49054,0.09015 0.67187,0.27148zM188.50596,121.3605c0.19196,0.18133 0.28906,0.40521 0.28906,0.67188c0,0.256 -0.09706,0.47987 -0.28906,0.67187c-0.18133,0.18138 -0.40025,0.27148 -0.65625,0.27148c-0.26666,0 -0.4955,-0.09015 -0.6875,-0.27148c-0.18138,-0.192 -0.27148,-0.41588 -0.27148,-0.67187c0,-0.26667 0.09015,-0.49055 0.27148,-0.67188c0.192,-0.18138 0.42084,-0.27148 0.6875,-0.27148c0.256,0 0.47492,0.09015 0.65625,0.27148zM237.65245,121.08899c0.23466,0 0.43179,0.08023 0.59179,0.24023c0.17066,0.16 0.25586,0.35713 0.25586,0.5918v10.94336c0,0.23466 -0.08519,0.43675 -0.25586,0.60742c-0.16,0.16003 -0.35713,0.24023 -0.59179,0.24023c-0.23467,0 -0.4318,-0.08023 -0.5918,-0.24023c-0.16004,-0.17067 -0.24024,-0.37276 -0.24024,-0.60742v-0.14453c-0.21333,0.18133 -0.41542,0.33684 -0.60742,0.46484c-0.18133,0.128 -0.3735,0.23501 -0.57617,0.32031c-0.20267,0.07466 -0.42654,0.12816 -0.67187,0.16016c-0.24534,0.032 -0.52961,0.0469 -0.84961,0.0469c-0.52267,0 -1.017,-0.11193 -1.48633,-0.33594c-0.45867,-0.22399 -0.8648,-0.53802 -1.2168,-0.94335c-0.34133,-0.416 -0.61374,-0.90733 -0.8164,-1.47266c-0.20267,-0.56533 -0.30469,-1.18843 -0.30469,-1.87109c0,-0.68267 0.0921,-1.30772 0.27344,-1.87305c0.18133,-0.576 0.43691,-1.06537 0.76757,-1.4707c0.34134,-0.416 0.74747,-0.73694 1.2168,-0.96094c0.46933,-0.224 0.99041,-0.33594 1.56641,-0.33594c0.43733,0 0.81672,0.05349 1.13672,0.16016c0.32,0.10666 0.58744,0.23543 0.80078,0.38476c0.21333,0.13867 0.37876,0.27735 0.49609,0.41602c0.128,0.13866 0.21818,0.23873 0.27148,0.30273v-3.79101c0,-0.23467 0.08024,-0.4318 0.24024,-0.5918c0.16,-0.16003 0.35713,-0.24023 0.5918,-0.24023zM271.71104,121.32925c0.16003,0.16 0.24023,0.35713 0.24023,0.5918v10.94336c0,0.23466 -0.08023,0.43675 -0.24023,0.60742c-0.16,0.16003 -0.35713,0.24023 -0.5918,0.24023c-0.23466,0 -0.43871,-0.08023 -0.60937,-0.24023c-0.16004,-0.17067 -0.24024,-0.37276 -0.24024,-0.60742v-10.94336c0,-0.23467 0.08024,-0.4318 0.24024,-0.5918c0.17066,-0.16003 0.37471,-0.24023 0.60937,-0.24023c0.23467,0 0.4318,0.08023 0.5918,0.24023zM192.38682,122.06362c0.17071,0.16 0.25781,0.35909 0.25781,0.59376v2h0.87891c0.20267,0 0.37305,0.07332 0.51172,0.22265c0.14931,0.13867 0.22461,0.30905 0.22461,0.51172c0,0.21333 -0.07528,0.39063 -0.22461,0.5293c-0.13867,0.13863 -0.30905,0.20703 -0.51172,0.20703h-0.87891v6.73633c0,0.23466 -0.08714,0.43675 -0.25781,0.60742c-0.16,0.16003 -0.35713,0.24023 -0.5918,0.24023c-0.23466,0 -0.43179,-0.08023 -0.59179,-0.24023c-0.16004,-0.17067 -0.24024,-0.37276 -0.24024,-0.60742v-6.73633h-0.59179c-0.20267,0 -0.37801,-0.06837 -0.52735,-0.20703c-0.13868,-0.13867 -0.20898,-0.31597 -0.20898,-0.5293c0,-0.20267 0.07032,-0.37305 0.20898,-0.51172c0.14934,-0.14935 0.32468,-0.22265 0.52735,-0.22265h0.59179v-2c0,-0.23467 0.08024,-0.43375 0.24024,-0.59376c0.16,-0.15998 0.35713,-0.23828 0.59179,-0.23828c0.23467,0 0.4318,0.07829 0.5918,0.23828zM198.42393,124.33712c0.608,0 1.11916,0.06341 1.53516,0.19141c0.416,0.128 0.75872,0.29343 1.02539,0.49609c0.10666,0.08534 0.2186,0.19232 0.33593,0.32032c0.11734,0.11733 0.22928,0.25105 0.33594,0.40039c0.10667,0.13866 0.19186,0.27734 0.25586,0.41601c0.07463,0.13867 0.11133,0.26052 0.11133,0.36719c0,0.24533 -0.09511,0.44246 -0.28711,0.5918c-0.192,0.13868 -0.401,0.20898 -0.625,0.20898c-0.13867,0 -0.26548,-0.0337 -0.38281,-0.0977c-0.11734,-0.07466 -0.20944,-0.1866 -0.27344,-0.33593c-0.08533,-0.20267 -0.17548,-0.37801 -0.27148,-0.52735c-0.096,-0.14933 -0.22282,-0.27119 -0.38282,-0.36719c-0.14933,-0.096 -0.33654,-0.16628 -0.56054,-0.20898c-0.21334,-0.0534 -0.48574,-0.0801 -0.81641,-0.0801c-0.65067,0 -1.12516,0.10698 -1.42383,0.32032c-0.288,0.20266 -0.43164,0.45824 -0.43164,0.76757c0,0.23467 0.08519,0.42684 0.25586,0.57617c0.17067,0.13867 0.39454,0.26248 0.67188,0.36915c0.288,0.096 0.61389,0.18115 0.97656,0.25585c0.36267,0.064 0.73018,0.14424 1.10351,0.24024c0.37334,0.08533 0.74085,0.19036 1.10352,0.31836c0.36267,0.11733 0.6836,0.28276 0.96094,0.49609c0.288,0.20267 0.51683,0.45329 0.6875,0.75196c0.17066,0.29866 0.25586,0.67309 0.25586,1.12109c0,0.53333 -0.10698,0.98604 -0.32032,1.35937c-0.21333,0.36267 -0.49565,0.66182 -0.84765,0.89649c-0.352,0.224 -0.76309,0.38943 -1.23242,0.49609c-0.46934,0.09603 -0.95871,0.14453 -1.47071,0.14453c-0.72533,0 -1.34046,-0.10698 -1.84179,-0.32031c-0.49067,-0.224 -0.89485,-0.47958 -1.21485,-0.76758c-0.30933,-0.29866 -0.53321,-0.59286 -0.67187,-0.88086c-0.13869,-0.288 -0.20899,-0.50691 -0.20899,-0.65625c0,-0.24533 0.0852,-0.44246 0.25586,-0.59179c0.18134,-0.16004 0.37351,-0.24024 0.57617,-0.24024c0.128,0 0.25181,0.03663 0.36915,0.11133c0.11733,0.07467 0.20748,0.19352 0.27148,0.35352c0.18133,0.45866 0.46861,0.84301 0.86328,1.15234c0.40533,0.30933 0.98185,0.46289 1.72852,0.46289c0.34133,0 0.63552,-0.03663 0.88086,-0.11133c0.24533,-0.08533 0.44246,-0.19231 0.59179,-0.32031c0.16,-0.13867 0.27687,-0.28727 0.35157,-0.44727c0.07462,-0.17066 0.11132,-0.34796 0.11132,-0.52929c0,-0.36267 -0.14364,-0.63508 -0.43164,-0.81641c-0.288,-0.18133 -0.6456,-0.32497 -1.07226,-0.43164c-0.42667,-0.10667 -0.89621,-0.20181 -1.40821,-0.28711c-0.50133,-0.096 -0.96395,-0.22972 -1.39062,-0.40039c-0.42667,-0.18133 -0.78427,-0.43195 -1.07227,-0.75195c-0.288,-0.33067 -0.43164,-0.78338 -0.43164,-1.35938c0,-0.832 0.30411,-1.48379 0.91211,-1.95312c0.608,-0.46934 1.45497,-0.70313 2.54297,-0.70313zM209.48252,124.65738c0.544,0.21333 1.01354,0.5224 1.40821,0.92773c0.39466,0.40533 0.70373,0.90161 0.92773,1.48828c0.224,0.58667 0.33594,1.25829 0.33594,2.01563c0,0.75733 -0.11194,1.42895 -0.33594,2.01562c-0.224,0.58667 -0.53307,1.08295 -0.92773,1.48828c-0.39467,0.39467 -0.86421,0.69878 -1.40821,0.91211c-0.53333,0.21333 -1.1148,0.32031 -1.74414,0.32031c-0.62933,0 -1.21576,-0.10698 -1.75976,-0.32031c-0.53334,-0.21333 -0.99596,-0.51744 -1.39063,-0.91211c-0.39466,-0.40533 -0.70373,-0.90161 -0.92773,-1.48828c-0.224,-0.58667 -0.33789,-1.25829 -0.33789,-2.01562c0,-0.75734 0.11389,-1.42896 0.33789,-2.01563c0.224,-0.58667 0.53307,-1.08295 0.92773,-1.48828c0.39467,-0.40533 0.85729,-0.7144 1.39063,-0.92773c0.544,-0.21334 1.13043,-0.32032 1.75976,-0.32032c0.62934,0 1.21081,0.10698 1.74414,0.32032zM243.26963,124.33712c0.608,0 1.12111,0.06341 1.53711,0.19141c0.416,0.128 0.75677,0.29343 1.02344,0.49609c0.10667,0.08534 0.2186,0.19232 0.33594,0.32032c0.11733,0.11733 0.22927,0.25105 0.33594,0.40039c0.10666,0.13866 0.19185,0.27734 0.25585,0.41601c0.07463,0.13867 0.11133,0.26052 0.11133,0.36719c0,0.24533 -0.09511,0.44246 -0.28711,0.5918c-0.192,0.13868 -0.401,0.20898 -0.625,0.20898c-0.13866,0 -0.26548,-0.0337 -0.38281,-0.0977c-0.11733,-0.07466 -0.20748,-0.1866 -0.27148,-0.33593c-0.08534,-0.20267 -0.17744,-0.37801 -0.27344,-0.52735c-0.096,-0.14933 -0.22281,-0.27119 -0.38281,-0.36719c-0.14934,-0.096 -0.33655,-0.16628 -0.56055,-0.20898c-0.21333,-0.0534 -0.48574,-0.0801 -0.81641,-0.0801c-0.65066,0 -1.12516,0.10698 -1.42382,0.32032c-0.288,0.20266 -0.43164,0.45824 -0.43164,0.76757c0,0.23467 0.08519,0.42684 0.25585,0.57617c0.17067,0.13867 0.39455,0.26248 0.67188,0.36915c0.288,0.096 0.6139,0.18115 0.97656,0.25585c0.36267,0.064 0.73018,0.14424 1.10352,0.24024c0.37333,0.08533 0.74085,0.19036 1.10351,0.31836c0.36267,0.11733 0.68361,0.28276 0.96094,0.49609c0.288,0.20267 0.51683,0.45329 0.6875,0.75196c0.17066,0.29866 0.25586,0.67309 0.25586,1.12109c0,0.53333 -0.10698,0.98604 -0.32031,1.35937c-0.21334,0.36267 -0.49566,0.66182 -0.84766,0.89649c-0.352,0.224 -0.76309,0.38943 -1.23242,0.49609c-0.46933,0.09603 -0.9587,0.14453 -1.4707,0.14453c-0.72534,0 -1.33851,-0.10698 -1.83985,-0.32031c-0.49066,-0.224 -0.89679,-0.47958 -1.21679,-0.76758c-0.30934,-0.29866 -0.53321,-0.59286 -0.67188,-0.88086c-0.13868,-0.288 -0.20898,-0.50691 -0.20898,-0.65625c0,-0.24533 0.08714,-0.44246 0.25781,-0.59179c0.18133,-0.16004 0.37155,-0.24024 0.57422,-0.24024c0.128,0 0.2518,0.03663 0.36914,0.11133c0.11733,0.07467 0.20748,0.19352 0.27148,0.35352c0.18134,0.45866 0.46862,0.84301 0.86328,1.15234c0.40534,0.30933 0.98185,0.46289 1.72852,0.46289c0.34133,0 0.63553,-0.03663 0.88086,-0.11133c0.24533,-0.08533 0.44246,-0.19231 0.5918,-0.32031c0.16,-0.13867 0.27686,-0.28727 0.35156,-0.44727c0.07463,-0.17066 0.11133,-0.34796 0.11133,-0.52929c0,-0.36267 -0.14364,-0.63508 -0.43164,-0.81641c-0.288,-0.18133 -0.6456,-0.32497 -1.07227,-0.43164c-0.42667,-0.10667 -0.8962,-0.20181 -1.4082,-0.28711c-0.50134,-0.096 -0.96396,-0.22972 -1.39063,-0.40039c-0.42666,-0.18133 -0.78426,-0.43195 -1.07226,-0.75195c-0.288,-0.33067 -0.43164,-0.78338 -0.43164,-1.35938c0,-0.832 0.3041,-1.48379 0.91211,-1.95312c0.60799,-0.46934 1.45496,-0.70313 2.54296,-0.70313zM266.54307,124.65738c0.544,0.21333 1.01354,0.5224 1.4082,0.92773c0.39467,0.40533 0.70374,0.90161 0.92774,1.48828c0.224,0.58667 0.33594,1.25829 0.33594,2.01563c0,0.75733 -0.11194,1.42895 -0.33594,2.01562c-0.224,0.58667 -0.53307,1.08295 -0.92774,1.48828c-0.39466,0.39467 -0.8642,0.69878 -1.4082,0.91211c-0.53333,0.21333 -1.11481,0.32031 -1.74414,0.32031c-0.62933,0 -1.21577,-0.10698 -1.75976,-0.32031c-0.53334,-0.21333 -0.99792,-0.51744 -1.39258,-0.91211c-0.39467,-0.40533 -0.70374,-0.90161 -0.92774,-1.48828c-0.224,-0.58667 -0.33594,-1.25829 -0.33594,-2.01562c0,-0.75734 0.11194,-1.42896 0.33594,-2.01563c0.224,-0.58667 0.53307,-1.08295 0.92774,-1.48828c0.39466,-0.40533 0.85924,-0.7144 1.39258,-0.92773c0.54399,-0.21334 1.13043,-0.32032 1.75976,-0.32032c0.62933,0 1.21081,0.10698 1.74414,0.32032zM299.12904,124.3371c0.608,0 1.17264,0.09015 1.69531,0.27149c0.53333,0.18133 0.991,0.44878 1.375,0.80078c0.39467,0.34133 0.70569,0.76234 0.92969,1.26367c0.224,0.50133 0.33594,1.07094 0.33594,1.71094c0,0.39466 -0.09707,0.69382 -0.28907,0.89648c-0.192,0.20267 -0.41587,0.30469 -0.67187,0.30469h-5.85547c0,0.02133 0.0049,0.11148 0.0156,0.27148c0.02132,0.14934 0.05802,0.32964 0.11132,0.54297c0.064,0.21334 0.1492,0.44412 0.25586,0.68946c0.11734,0.23466 0.27285,0.45358 0.46485,0.65625c0.192,0.20266 0.42579,0.37305 0.70312,0.51171c0.288,0.12801 0.63568,0.19141 1.04102,0.19141c0.33066,0 0.61299,-0.0268 0.84765,-0.0801c0.23467,-0.05333 0.44367,-0.13357 0.625,-0.24023c0.18134,-0.10667 0.34481,-0.24039 0.49414,-0.40039c0.14934,-0.17067 0.29989,-0.3678 0.44922,-0.5918c0.08534,-0.128 0.18045,-0.21818 0.28711,-0.27148c0.10667,-0.0534 0.21861,-0.0801 0.33594,-0.0801c0.192,0 0.3693,0.07032 0.5293,0.20898c0.16003,0.13867 0.24023,0.31401 0.24023,0.52735c0,0.128 -0.07032,0.32017 -0.20898,0.57617c-0.13867,0.256 -0.36255,0.51158 -0.67188,0.76758c-0.29867,0.256 -0.68797,0.47987 -1.16797,0.67187c-0.48,0.19196 -1.06643,0.28906 -1.75976,0.28906c-0.704,0 -1.33401,-0.12876 -1.88867,-0.38476c-0.55467,-0.256 -1.02421,-0.59677 -1.40821,-1.02344c-0.37333,-0.43733 -0.66061,-0.94548 -0.86328,-1.52148c-0.19196,-0.576 -0.28906,-1.17731 -0.28906,-1.80664c0,-0.65067 0.10202,-1.26385 0.30469,-1.83985c0.20266,-0.58666 0.48994,-1.09482 0.86328,-1.52148c0.384,-0.42667 0.84362,-0.76248 1.37695,-1.00781c0.53333,-0.25601 1.13164,-0.38282 1.79297,-0.38282zM188.44151,124.70425c0.16003,0.16 0.24023,0.35713 0.24023,0.5918v7.56836c0,0.23466 -0.08023,0.43675 -0.24023,0.60742c-0.16,0.16003 -0.35713,0.24023 -0.5918,0.24023c-0.23466,0 -0.43675,-0.08023 -0.60742,-0.24023c-0.16003,-0.17067 -0.24023,-0.37276 -0.24023,-0.60742v-7.56836c0,-0.23467 0.08023,-0.4318 0.24023,-0.5918c0.17067,-0.17066 0.37276,-0.25586 0.60742,-0.25586c0.23467,0 0.4318,0.08519 0.5918,0.25586zM214.53526,124.70425c0.16003,0.16 0.24023,0.35713 0.24023,0.5918v5.56836c0,0.24533 0.05349,0.45929 0.16016,0.64062c0.11733,0.18133 0.26097,0.33489 0.43164,0.46289c0.18133,0.11734 0.37846,0.20944 0.5918,0.27344c0.224,0.064 0.44291,0.0957 0.65625,0.0957c0.352,0 0.67293,-0.05845 0.96093,-0.17578c0.288,-0.128 0.52871,-0.30034 0.72071,-0.51367c0.20266,-0.21333 0.35622,-0.46395 0.46289,-0.75195c0.10665,-0.29867 0.16015,-0.61765 0.16015,-0.95899v-4.64062c0,-0.23467 0.08024,-0.4318 0.24024,-0.5918c0.16,-0.17066 0.35713,-0.25586 0.5918,-0.25586c0.23466,0 0.43179,0.08519 0.59179,0.25586c0.17066,0.16 0.25586,0.35713 0.25586,0.5918v7.56836c0,0.23466 -0.08519,0.43675 -0.25586,0.60742c-0.16,0.16003 -0.35713,0.24023 -0.59179,0.24023c-0.23467,0 -0.4318,-0.08023 -0.5918,-0.24023c-0.16004,-0.17067 -0.24024,-0.37276 -0.24024,-0.60742v-0.28711c-0.10666,0.096 -0.24039,0.21289 -0.40039,0.35156c-0.14933,0.128 -0.33654,0.24985 -0.56054,0.36719c-0.224,0.11733 -0.48454,0.21938 -0.78321,0.30468c-0.288,0.07463 -0.62381,0.11133 -1.00781,0.11133c-0.39467,0 -0.77901,-0.05349 -1.15234,-0.16015c-0.36267,-0.11734 -0.68857,-0.28772 -0.97656,-0.51172c-0.288,-0.224 -0.51684,-0.50137 -0.6875,-0.83203c-0.17066,-0.33067 -0.25586,-0.71501 -0.25586,-1.15235v-5.75976c0,-0.23467 0.08023,-0.4318 0.24023,-0.5918c0.17067,-0.17066 0.37276,-0.25586 0.60742,-0.25586c0.23467,0 0.4318,0.08519 0.5918,0.25586zM222.69346,124.44838c0.23467,0 0.4318,0.08519 0.5918,0.25586c0.16003,0.16 0.24023,0.35713 0.24023,0.5918v0.28906c0.10667,-0.096 0.23544,-0.20794 0.38477,-0.33594c0.16,-0.13866 0.35217,-0.26743 0.57617,-0.38476c0.224,-0.11734 0.47958,-0.21241 0.76758,-0.28711c0.29867,-0.08531 0.63944,-0.12891 1.02344,-0.12891c0.39466,0 0.77405,0.05845 1.13672,0.17578c0.37333,0.10667 0.70418,0.2721 0.99218,0.4961c0.288,0.224 0.51684,0.50136 0.6875,0.83203c0.17066,0.33066 0.25586,0.71501 0.25586,1.15234v5.75977c0,0.23466 -0.08519,0.43675 -0.25586,0.60742c-0.16,0.16003 -0.35713,0.24023 -0.59179,0.24023c-0.23467,0 -0.4318,-0.08023 -0.5918,-0.24023c-0.16004,-0.17067 -0.24024,-0.37276 -0.24024,-0.60742v-5.56836c0,-0.23467 -0.05844,-0.44172 -0.17578,-0.62305c-0.10666,-0.192 -0.2503,-0.34751 -0.43164,-0.46484c-0.17066,-0.128 -0.36779,-0.22311 -0.59179,-0.28711c-0.21334,-0.064 -0.4273,-0.0957 -0.64063,-0.0957c-0.352,0 -0.67294,0.06341 -0.96094,0.19141c-0.288,0.11733 -0.53171,0.28276 -0.73437,0.49609c-0.192,0.21334 -0.34255,0.46892 -0.44922,0.76758c-0.10666,0.288 -0.16016,0.60203 -0.16016,0.94336v4.64063c0,0.23466 -0.08023,0.43675 -0.24023,0.60742c-0.16,0.16003 -0.35713,0.24023 -0.5918,0.24023c-0.23466,0 -0.43675,-0.08023 -0.60742,-0.24023c-0.16003,-0.17067 -0.24023,-0.37276 -0.24023,-0.60742v-7.56836c0,-0.23467 0.08023,-0.4318 0.24023,-0.5918c0.17067,-0.17066 0.37276,-0.25586 0.60742,-0.25586zM253.1056,124.44842c0.18133,0 0.34676,0.05349 0.4961,0.16016c0.14933,0.096 0.25138,0.22972 0.30468,0.40039l2.25586,6.7832l2.24024,-6.7832c0.05333,-0.17067 0.1534,-0.30439 0.30273,-0.40039c0.14933,-0.10666 0.31476,-0.16016 0.49609,-0.16016c0.064,0 0.14424,0.0168 0.24024,0.0488c0.10667,0.02133 0.20376,0.06295 0.28906,0.12695c0.08533,0.064 0.15866,0.15415 0.22266,0.27149c0.064,0.10666 0.0957,0.24039 0.0957,0.40039c0,0.08533 -0.0149,0.17743 -0.0469,0.27343l-2.5918,7.21485c-0.10667,0.27733 -0.26714,0.50121 -0.48047,0.67187c-0.21333,0.17066 -0.46891,0.25586 -0.76758,0.25586c-0.30933,0 -0.57182,-0.08519 -0.78515,-0.25586c-0.21334,-0.17066 -0.37185,-0.39454 -0.47852,-0.67187l-2.57617,-7.21485c-0.032,-0.096 -0.0488,-0.18813 -0.0488,-0.27343c0,-0.07467 0.0168,-0.15986 0.0488,-0.25586c0.032,-0.096 0.07858,-0.18619 0.14258,-0.27149c0.064,-0.096 0.15114,-0.17131 0.25781,-0.22461c0.10667,-0.064 0.23348,-0.0957 0.38281,-0.0957zM274.75401,124.70425c0.16003,0.16 0.24023,0.35713 0.24023,0.5918v5.56836c0,0.24533 0.05349,0.45929 0.16016,0.64062c0.11733,0.18133 0.26097,0.33489 0.43164,0.46289c0.18133,0.11734 0.37846,0.20944 0.5918,0.27344c0.224,0.064 0.44291,0.0957 0.65625,0.0957c0.352,0 0.67293,-0.05845 0.96093,-0.17578c0.288,-0.128 0.52871,-0.30034 0.72071,-0.51367c0.20266,-0.21333 0.35622,-0.46395 0.46289,-0.75195c0.10665,-0.29867 0.16015,-0.61765 0.16015,-0.95899v-4.64062c0,-0.23467 0.08024,-0.4318 0.24024,-0.5918c0.16,-0.17066 0.35713,-0.25586 0.5918,-0.25586c0.23466,0 0.43179,0.08519 0.59179,0.25586c0.17066,0.16 0.25586,0.35713 0.25586,0.5918v7.56836c0,0.23466 -0.08519,0.43675 -0.25586,0.60742c-0.16,0.16003 -0.35713,0.24023 -0.59179,0.24023c-0.23467,0 -0.4318,-0.08023 -0.5918,-0.24023c-0.16004,-0.17067 -0.24024,-0.37276 -0.24024,-0.60742v-0.28711c-0.10666,0.096 -0.24039,0.21289 -0.40039,0.35156c-0.14933,0.128 -0.33654,0.24985 -0.56054,0.36719c-0.224,0.11733 -0.48454,0.21938 -0.78321,0.30468c-0.288,0.07463 -0.62381,0.11133 -1.00781,0.11133c-0.39467,0 -0.77901,-0.05349 -1.15234,-0.16015c-0.36267,-0.11734 -0.68856,-0.28772 -0.97657,-0.51172c-0.288,-0.224 -0.51683,-0.50137 -0.6875,-0.83203c-0.17065,-0.33067 -0.25585,-0.71501 -0.25585,-1.15235v-5.75976c0,-0.23467 0.08023,-0.4318 0.24023,-0.5918c0.17067,-0.17066 0.37276,-0.25586 0.60742,-0.25586c0.23467,0 0.4318,0.08519 0.5918,0.25586zM283.50401,124.70425c0.16003,0.16 0.24023,0.35713 0.24023,0.5918v0.35156c0.064,-0.07467 0.15611,-0.17969 0.27344,-0.31836c0.128,-0.13867 0.29147,-0.27239 0.49414,-0.40039c0.20267,-0.128 0.44337,-0.23994 0.7207,-0.33594c0.288,-0.09603 0.62382,-0.14453 1.00782,-0.14453c0.53333,0 0.99295,0.14364 1.37695,0.43164c0.384,0.27733 0.6812,0.62502 0.89453,1.04102c0.288,-0.52267 0.65251,-0.8971 1.08985,-1.1211c0.44799,-0.23466 0.96907,-0.35156 1.5664,-0.35156c0.384,0 0.73664,0.05845 1.05664,0.17578c0.33067,0.10667 0.61299,0.2721 0.84766,0.4961c0.24533,0.224 0.4375,0.50136 0.57617,0.83203c0.13868,0.33066 0.20898,0.71501 0.20898,1.15234v5.75977c0,0.23466 -0.08023,0.43675 -0.24023,0.60742c-0.16,0.16003 -0.35713,0.24023 -0.5918,0.24023c-0.23466,0 -0.43871,-0.08023 -0.60937,-0.24023c-0.16004,-0.17067 -0.24024,-0.37276 -0.24024,-0.60742v-5.67969c0,-0.37333 -0.12185,-0.69427 -0.36718,-0.96094c-0.24534,-0.26667 -0.57123,-0.39844 -0.97657,-0.39844c-0.352,0 -0.65611,0.06837 -0.91211,0.20704c-0.256,0.12799 -0.468,0.30334 -0.63867,0.52734c-0.16,0.224 -0.28384,0.48153 -0.36914,0.76953c-0.07463,0.288 -0.11133,0.5852 -0.11133,0.89453v4.64063c0,0.23466 -0.08023,0.43675 -0.24023,0.60742c-0.16,0.16003 -0.35713,0.24023 -0.5918,0.24023c-0.23466,0 -0.43675,-0.08023 -0.60742,-0.24023c-0.16003,-0.17067 -0.24023,-0.37276 -0.24023,-0.60742v-5.67969c0,-0.37333 -0.1169,-0.69427 -0.35157,-0.96094c-0.23466,-0.26667 -0.56552,-0.39844 -0.99218,-0.39844c-0.352,0 -0.65611,0.06837 -0.91211,0.20704c-0.256,0.12799 -0.46996,0.30334 -0.64063,0.52734c-0.16,0.224 -0.28189,0.48153 -0.36719,0.76953c-0.07468,0.288 -0.11328,0.5852 -0.11328,0.89453v4.64063c0,0.23466 -0.08023,0.43675 -0.24023,0.60742c-0.16,0.16003 -0.35713,0.24023 -0.5918,0.24023c-0.23466,0 -0.43675,-0.08023 -0.60742,-0.24023c-0.16003,-0.17067 -0.24023,-0.37276 -0.24023,-0.60742v-7.56836c0,-0.23467 0.08023,-0.4318 0.24023,-0.5918c0.17067,-0.17066 0.37276,-0.25586 0.60742,-0.25586c0.23467,0 0.4318,0.08519 0.5918,0.25586zM206.63487,125.92105c-0.33067,0.128 -0.61795,0.33009 -0.86328,0.60742c-0.23467,0.26667 -0.42188,0.61435 -0.56055,1.04101c-0.13863,0.42667 -0.20703,0.93287 -0.20703,1.51954c0,0.58666 0.06836,1.09286 0.20703,1.51953c0.13867,0.416 0.32588,0.76173 0.56055,1.03906c0.24533,0.26667 0.53261,0.47071 0.86328,0.60937c0.34133,0.12801 0.70885,0.19141 1.10351,0.19141c0.39467,0 0.75918,-0.06341 1.08985,-0.19141c0.34133,-0.13866 0.62861,-0.3427 0.86328,-0.60937c0.24533,-0.27733 0.4375,-0.62306 0.57617,-1.03906c0.13863,-0.42667 0.20703,-0.93287 0.20703,-1.51953c0,-0.58667 -0.06836,-1.09287 -0.20703,-1.51954c-0.13867,-0.42666 -0.33084,-0.77434 -0.57617,-1.04101c-0.23467,-0.27733 -0.52195,-0.47942 -0.86328,-0.60742c-0.33067,-0.13869 -0.69518,-0.20899 -1.08985,-0.20899c-0.39466,0 -0.76218,0.07032 -1.10351,0.20899zM263.69541,125.92105c-0.33066,0.128 -0.61794,0.33009 -0.86328,0.60742c-0.23466,0.26667 -0.42188,0.61435 -0.56054,1.04101c-0.13869,0.42667 -0.20899,0.93287 -0.20899,1.51954c0,0.58666 0.07032,1.09286 0.20899,1.51953c0.13866,0.416 0.32588,0.76173 0.56054,1.03906c0.24534,0.26667 0.53262,0.47071 0.86328,0.60937c0.34134,0.12801 0.70885,0.19141 1.10352,0.19141c0.39467,0 0.75722,-0.06341 1.08789,-0.19141c0.34133,-0.13866 0.63057,-0.3427 0.86524,-0.60937c0.24533,-0.27733 0.4375,-0.62306 0.57617,-1.03906c0.13863,-0.42667 0.20703,-0.93287 0.20703,-1.51953c0,-0.58667 -0.06837,-1.09287 -0.20703,-1.51954c-0.13867,-0.42666 -0.33084,-0.77434 -0.57617,-1.04101c-0.23467,-0.27733 -0.52391,-0.47942 -0.86524,-0.60742c-0.33067,-0.13869 -0.69322,-0.20899 -1.08789,-0.20899c-0.39467,0 -0.76218,0.07032 -1.10352,0.20899zM299.16024,125.71206c-0.39467,0 -0.73048,0.05845 -1.00781,0.17578c-0.27734,0.11734 -0.51308,0.26789 -0.70508,0.44922c-0.18134,0.17067 -0.32498,0.36284 -0.43164,0.57617c-0.10667,0.21334 -0.18694,0.41047 -0.24024,0.5918c-0.0533,0.18133 -0.085,0.3418 -0.0957,0.48047c-0.0106,0.12796 -0.01561,0.20136 -0.0156,0.22266h5.18359c0,-0.33067 -0.05349,-0.6447 -0.16016,-0.94336c-0.10666,-0.29867 -0.27209,-0.56116 -0.49609,-0.78516c-0.21333,-0.23467 -0.4907,-0.41993 -0.83203,-0.55859c-0.34134,-0.13869 -0.74055,-0.20899 -1.19922,-0.20899zM233.31651,126.09683c-0.30933,0.18133 -0.57678,0.42699 -0.80078,0.73633c-0.21334,0.29866 -0.37876,0.64439 -0.4961,1.03906c-0.10665,0.384 -0.16015,0.79013 -0.16015,1.2168c0,0.416 0.05349,0.82017 0.16015,1.21484c0.11734,0.39467 0.28276,0.74235 0.4961,1.04102c0.224,0.29866 0.49145,0.53741 0.80078,0.71874c0.30933,0.18134 0.66693,0.27344 1.07226,0.27344c0.40534,0 0.76098,-0.0921 1.07032,-0.27344c0.32,-0.18133 0.58744,-0.42008 0.80078,-0.71874c0.21333,-0.29867 0.3738,-0.64635 0.48047,-1.04102c0.11728,-0.39467 0.17578,-0.79884 0.17578,-1.21484c0,-0.42667 -0.05845,-0.8328 -0.17578,-1.2168c-0.10667,-0.39467 -0.26714,-0.7404 -0.48047,-1.03906c-0.21334,-0.30934 -0.48078,-0.555 -0.80078,-0.73633c-0.30934,-0.18139 -0.66498,-0.27149 -1.07032,-0.27149c-0.40533,0 -0.76293,0.09015 -1.07226,0.27149z" id="path1389" fill="#1eff00" stroke="none" stroke-width="1" stroke-miterlimit="10" stroke-dashoffset="0"/></g></g></g></svg>