<svg version="1.1" xmlns="http://www.w3.org/2000/svg" xmlns:xlink="http://www.w3.org/1999/xlink" width="372.21489" height="68.64262" viewBox="0,0,372.21489,68.64262"><g transform="translate(-53.89255,-145.67869)"><g data-paper-data="{&quot;isPaintingLayer&quot;:true}" fill-rule="nonzero" stroke-linecap="butt" stroke-linejoin="miter" stroke-dasharray="" style="mix-blend-mode: normal"><path d="M425.00973,146.42869c0.19313,0 0.34772,0.15458 0.34772,0.34772v66.4453c0,0.19313 -0.15458,0.34961 -0.34772,0.34961h-370.01757c-0.19313,0 -0.34961,-0.15647 -0.34961,-0.34961v-66.4453c0,-0.19313 0.15647,-0.34772 0.34961,-0.34772z" fill="#1e1e1e" stroke="#1eff00" stroke-width="1.5" stroke-miterlimit="4" stroke-dashoffset="17.35"/><path d="M69.08789,152.71484c0.23714,0 0.43597,0.08043 0.59766,0.24219c0.17247,0.16171 0.25781,0.36056 0.25781,0.59766c0,0.237 -0.08534,0.44263 -0.25781,0.61523c-0.1617,0.16177 -0.36053,0.24219 -0.59766,0.24219h-3.02344v10.10547c0,0.25872 -0.097,0.48567 -0.29101,0.67969c-0.18324,0.18318 -0.40536,0.27343 -0.66406,0.27343c-0.26949,0 -0.4945,-0.09025 -0.67773,-0.27343c-0.18326,-0.19405 -0.27539,-0.421 -0.27539,-0.67969v-10.10547h-3.02344c-0.23713,0 -0.44276,-0.08042 -0.61523,-0.24219c-0.16169,-0.1725 -0.24219,-0.37813 -0.24219,-0.61523c0,-0.23705 0.0805,-0.43589 0.24219,-0.59766c0.17248,-0.16176 0.37811,-0.24219 0.61523,-0.24219zM90.09961,152.99023c0.19402,0.18326 0.29102,0.40826 0.29102,0.67774c0,0.25869 -0.097,0.48567 -0.29102,0.67969c-0.18324,0.18318 -0.40341,0.27539 -0.66211,0.27539c-0.26948,0 -0.5013,-0.09221 -0.69531,-0.27539c-0.18323,-0.19402 -0.27539,-0.421 -0.27539,-0.67969c0,-0.26956 0.09216,-0.49455 0.27539,-0.67774c0.19402,-0.18318 0.42584,-0.27539 0.69531,-0.27539c0.25871,0 0.47888,0.09221 0.66211,0.27539zM93.50586,152.99023c0.18323,0.18326 0.27344,0.40826 0.27344,0.67774v7.76172c0,0.26953 -0.09021,0.4965 -0.27344,0.67969c-0.18324,0.18318 -0.41021,0.27343 -0.67969,0.27343c-0.2587,0 -0.48567,-0.09025 -0.67969,-0.27343c-0.18326,-0.18326 -0.27344,-0.41024 -0.27344,-0.67969v-7.76172c0,-0.26956 0.09018,-0.49455 0.27344,-0.67774c0.19402,-0.18318 0.42099,-0.27539 0.67969,-0.27539c0.26946,0 0.49643,0.09221 0.67969,0.27539zM80.44336,153.70117c0.17247,0.16172 0.25977,0.36056 0.25977,0.59766v2.02148h0.88867c0.20481,0 0.37746,0.07564 0.51758,0.22657c0.1509,0.14006 0.22656,0.31272 0.22656,0.51757c0,0.21561 -0.07566,0.39311 -0.22656,0.53321c-0.14013,0.14009 -0.31278,0.21093 -0.51758,0.21093h-0.88867v6.80664c0,0.23726 -0.08729,0.44094 -0.25977,0.61329c-0.1617,0.16176 -0.36053,0.24414 -0.59766,0.24414c-0.23714,0 -0.43792,-0.08238 -0.59961,-0.24414c-0.16169,-0.1725 -0.24219,-0.37618 -0.24219,-0.61329v-6.80664h-0.59766c-0.2048,0 -0.3823,-0.07084 -0.5332,-0.21093c-0.14012,-0.14002 -0.21094,-0.31752 -0.21094,-0.53321c0,-0.20482 0.07082,-0.37748 0.21094,-0.51757c0.15091,-0.15093 0.3284,-0.22657 0.5332,-0.22657h0.59766v-2.02148c0,-0.23705 0.0805,-0.43589 0.24219,-0.59766c0.1617,-0.16176 0.36248,-0.24219 0.59961,-0.24219c0.23714,0 0.43597,0.08043 0.59766,0.24219zM85.74805,153.70117c0.17247,0.16172 0.25976,0.36056 0.25976,0.59766v2.02148h0.88867c0.20481,0 0.37746,0.07564 0.51758,0.22657c0.1509,0.14006 0.22656,0.31272 0.22656,0.51757c0,0.21561 -0.07566,0.39311 -0.22656,0.53321c-0.14013,0.14009 -0.31278,0.21093 -0.51758,0.21093h-0.88867v6.80664c0,0.23726 -0.08729,0.44094 -0.25976,0.61329c-0.1617,0.16176 -0.36053,0.24414 -0.59766,0.24414c-0.23714,0 -0.43597,-0.08238 -0.59766,-0.24414c-0.16169,-0.1725 -0.24219,-0.37618 -0.24219,-0.61329v-6.80664h-0.59961c-0.20481,0 -0.3823,-0.07084 -0.5332,-0.21093c-0.14012,-0.14002 -0.20898,-0.31752 -0.20898,-0.53321c0,-0.20482 0.06886,-0.37748 0.20898,-0.51757c0.15091,-0.15093 0.3284,-0.22657 0.5332,-0.22657h0.59961v-2.02148c0,-0.23705 0.0805,-0.43589 0.24219,-0.59766c0.1617,-0.16176 0.36053,-0.24219 0.59766,-0.24219c0.23713,0 0.43597,0.08043 0.59766,0.24219zM76.46485,156.36914c0.17247,0.16171 0.25781,0.36055 0.25781,0.59766v7.64843c0,0.23726 -0.08534,0.44094 -0.25781,0.61329c-0.1617,0.16176 -0.36053,0.24414 -0.59766,0.24414c-0.23714,0 -0.43792,-0.08238 -0.59961,-0.24414c-0.16169,-0.1725 -0.24219,-0.37618 -0.24219,-0.61329v-0.29101c-0.10779,0.09701 -0.24261,0.21537 -0.4043,0.35547c-0.1509,0.12926 -0.34004,0.25241 -0.56641,0.37109c-0.22636,0.11868 -0.4892,0.22242 -0.79102,0.3086c-0.29103,0.07533 -0.63148,0.11132 -1.01953,0.11132v0.00196c-0.39883,0 -0.7868,-0.05427 -1.16406,-0.16211c-0.36649,-0.11866 -0.69529,-0.29131 -0.98633,-0.51758c-0.29103,-0.22637 -0.52284,-0.50764 -0.69531,-0.8418c-0.17247,-0.33413 -0.25781,-0.72211 -0.25781,-1.16406v-5.82031c0,-0.23706 0.0805,-0.4359 0.24219,-0.59766c0.17248,-0.17235 0.37811,-0.25781 0.61523,-0.25781c0.23713,0 0.43597,0.08546 0.59766,0.25781c0.16169,0.16171 0.24219,0.36055 0.24219,0.59766v5.62695c0,0.24799 0.05432,0.4633 0.16211,0.64648c0.11856,0.18334 0.26307,0.33949 0.43555,0.46875c0.18324,0.11843 0.38402,0.21064 0.59961,0.2754c0.22636,0.06475 0.44652,0.09765 0.66211,0.09765c0.35571,0 0.67967,-0.05906 0.9707,-0.17773c0.29104,-0.12924 0.53255,-0.3019 0.72656,-0.51758c0.2048,-0.21559 0.36096,-0.46872 0.46875,-0.75977c0.10779,-0.3018 0.16211,-0.62578 0.16211,-0.9707v-4.68945c0,-0.23706 0.0805,-0.4359 0.24219,-0.59766c0.1617,-0.17235 0.36248,-0.25976 0.59961,-0.25976c0.23713,0 0.43597,0.08741 0.59766,0.25976zM90.03516,156.36914c0.16169,0.16171 0.24219,0.36055 0.24219,0.59766v7.64843c0,0.23726 -0.0805,0.44094 -0.24219,0.61329c-0.1617,0.16176 -0.36053,0.24414 -0.59766,0.24414c-0.23713,0 -0.44276,-0.08238 -0.61523,-0.24414c-0.16169,-0.1725 -0.24219,-0.37618 -0.24219,-0.61329v-7.64843c0,-0.23706 0.0805,-0.4359 0.24219,-0.59766c0.17247,-0.17235 0.37811,-0.25976 0.61523,-0.25976c0.23714,0 0.43597,0.08741 0.59766,0.25976zM93.65039,163.48242c0.23713,0.22637 0.35547,0.50084 0.35547,0.82422c0,0.31262 -0.11834,0.58907 -0.35547,0.82617c-0.22636,0.22627 -0.50085,0.33789 -0.82422,0.33789c-0.3126,0 -0.58709,-0.11162 -0.82422,-0.33789c-0.22637,-0.23713 -0.33984,-0.51358 -0.33984,-0.82617c0,-0.32348 0.11348,-0.59795 0.33984,-0.82422c0.23714,-0.2371 0.51163,-0.35547 0.82422,-0.35547c0.32336,0 0.59785,0.11837 0.82422,0.35547zM142.89453,167.70898c0.7222,0.36649 1.32549,0.85631 1.81055,1.47071c0.48506,0.6144 0.8517,1.31953 1.09961,2.11719c0.24791,0.78687 0.37109,1.60743 0.37109,2.45898c0,0.91621 -0.13287,1.75615 -0.40234,2.52148c-0.2587,0.75452 -0.57781,1.39081 -0.95508,1.90821l0.69531,0.63086c0.23713,0.21558 0.35547,0.47842 0.35547,0.79101c0,0.29103 -0.097,0.51314 -0.29102,0.66406c-0.19402,0.15093 -0.39285,0.22657 -0.59765,0.22657c-0.26947,0 -0.49159,-0.08717 -0.66406,-0.25977l-0.83985,-0.77539c-0.52817,0.33424 -1.02963,0.56605 -1.5039,0.69531c-0.47428,0.12926 -1.00192,0.19336 -1.58399,0.19336c-0.95934,0 -1.80124,-0.18234 -2.52344,-0.54883c-0.72219,-0.36648 -1.32549,-0.85143 -1.81054,-1.45507c-0.48507,-0.6144 -0.8517,-1.31469 -1.09961,-2.10157c-0.23715,-0.79765 -0.35547,-1.62792 -0.35547,-2.49023c0,-0.85155 0.11832,-1.67211 0.35547,-2.45898c0.24791,-0.79766 0.61455,-1.50279 1.09961,-2.11719c0.48505,-0.6144 1.08835,-1.10422 1.81054,-1.47071c0.7222,-0.36648 1.5641,-0.55078 2.52344,-0.55078c0.94856,0 1.78366,0.1843 2.50586,0.55078zM67.03321,167.38477c0.4635,0 0.90579,0.08042 1.32617,0.24218c0.43116,0.15091 0.80944,0.36622 1.13281,0.64649c0.32338,0.26948 0.58137,0.59345 0.77539,0.9707c0.19402,0.37727 0.29102,0.78172 0.29102,1.21289c0,0.45271 -0.064,0.83585 -0.19336,1.14844c-0.11858,0.31254 -0.27473,0.57054 -0.46875,0.77539c-0.19403,0.2049 -0.41615,0.37074 -0.66406,0.5c-0.24793,0.11868 -0.49623,0.22721 -0.74414,0.32422c0.19402,0.06475 0.42583,0.17329 0.69531,0.32422c0.28025,0.14012 0.54989,0.33896 0.80859,0.59765c0.25868,0.2587 0.4808,0.59236 0.66406,1.00196c0.18323,0.39884 0.27344,0.89058 0.27344,1.47265c0,0.52815 -0.10668,1.00633 -0.32227,1.4375c-0.21558,0.43117 -0.50171,0.8046 -0.85742,1.11719c-0.35571,0.31247 -0.76986,0.55396 -1.24414,0.72656c-0.4635,0.17235 -0.95526,0.25977 -1.47266,0.25977l-4.94726,-0.00196c-0.15091,0 -0.30222,-0.02136 -0.45313,-0.06445c-0.1509,-0.05392 -0.29056,-0.12955 -0.41992,-0.22656c-0.11858,-0.10772 -0.21558,-0.24253 -0.29102,-0.4043c-0.07546,-0.16176 -0.11328,-0.35576 -0.11328,-0.58203v-10.21875c0,-0.09701 0.0165,-0.21537 0.04883,-0.35547c0.03235,-0.15098 0.09151,-0.29066 0.17773,-0.41992c0.09701,-0.14009 0.22698,-0.25367 0.38867,-0.33984c0.17246,-0.09701 0.38779,-0.14453 0.64648,-0.14453zM86.72266,167.74023c0.24791,0.23716 0.37109,0.52813 0.37109,0.87305v3.91211l4.34961,-4.6875c0.2048,-0.21568 0.45795,-0.32422 0.75977,-0.32422c0.3018,0 0.57144,0.10854 0.80859,0.32422c0.23713,0.21558 0.35547,0.4949 0.35547,0.83984c0,0.26933 -0.08729,0.49147 -0.25977,0.66407l-3.11914,3.18359l4.07422,5.70899c0.16169,0.22634 0.24219,0.4727 0.24219,0.74218c0,0.1186 -0.02618,0.24858 -0.08008,0.38867c-0.04311,0.14028 -0.11393,0.27025 -0.21094,0.38868c-0.09701,0.10759 -0.22019,0.1998 -0.37109,0.27539c-0.15091,0.07534 -0.33036,0.11132 -0.53516,0.11132c-0.18324,0 -0.35394,-0.03598 -0.51562,-0.11132c-0.16168,-0.07534 -0.2965,-0.18892 -0.4043,-0.33985l-3.75195,-5.5957l-1.3418,1.35937v3.45899c0,0.34497 -0.12318,0.63594 -0.37109,0.87305c-0.23714,0.2371 -0.52812,0.35546 -0.87305,0.35546c-0.34494,0 -0.63787,-0.11836 -0.875,-0.35546c-0.23713,-0.23713 -0.35547,-0.52811 -0.35547,-0.87305v-10.29883c0,-0.34497 0.11834,-0.63594 0.35547,-0.87305c0.23714,-0.2371 0.53007,-0.35546 0.875,-0.35546c0.34492,0 0.63589,0.11836 0.87305,0.35546zM96.99219,167.72461c0.23713,0.22634 0.35547,0.50084 0.35547,0.82422c0,0.32348 -0.11834,0.59795 -0.35547,0.82422c-0.22636,0.22626 -0.50085,0.33984 -0.82422,0.33984c-0.3126,0 -0.58709,-0.11358 -0.82422,-0.33984c-0.22637,-0.22637 -0.33984,-0.50085 -0.33984,-0.82422c0,-0.32345 0.11347,-0.59795 0.33984,-0.82422c0.23714,-0.22627 0.51162,-0.33984 0.82422,-0.33984c0.32336,0 0.59785,0.11357 0.82422,0.33984zM125.65625,167.72461c0.23715,0.22634 0.35547,0.50084 0.35547,0.82422c0,0.32348 -0.11832,0.59795 -0.35547,0.82422c-0.22636,0.22626 -0.50085,0.33984 -0.82422,0.33984c-0.31258,0 -0.58902,-0.11358 -0.82617,-0.33984c-0.22637,-0.22637 -0.33984,-0.50085 -0.33984,-0.82422c0,-0.32345 0.11347,-0.59795 0.33984,-0.82422c0.23714,-0.22627 0.51358,-0.33984 0.82617,-0.33984c0.32337,0 0.59785,0.11357 0.82422,0.33984zM129.14062,167.72461c0.23713,0.22634 0.35547,0.50084 0.35547,0.82422c0,0.32348 -0.11834,0.59795 -0.35547,0.82422c-0.22635,0.22626 -0.50084,0.33984 -0.82421,0.33984c-0.31261,0 -0.58709,-0.11358 -0.82422,-0.33984c-0.22637,-0.22637 -0.33985,-0.50085 -0.33985,-0.82422c0,-0.32345 0.11348,-0.59795 0.33985,-0.82422c0.23714,-0.22627 0.51162,-0.33984 0.82422,-0.33984c0.32336,0 0.59785,0.11357 0.82421,0.33984zM101.60156,168.14453c0.23713,0.22637 0.35547,0.50084 0.35547,0.82422v1.81055v0.21093h1.14649c0.20481,0 0.37745,0.07564 0.51757,0.22657c0.15091,0.14009 0.22657,0.31272 0.22657,0.51758c0,0.2156 -0.07566,0.3931 -0.22657,0.5332c-0.14013,0.14009 -0.31277,0.21094 -0.51757,0.21094h-1.14649v6.49804c0,0.31265 -0.11834,0.58907 -0.35547,0.82617c-0.22636,0.22627 -0.496,0.33789 -0.80859,0.33789c-0.32336,0 -0.60465,-0.11162 -0.8418,-0.33789c-0.22637,-0.23715 -0.33984,-0.51358 -0.33984,-0.82617v-6.49804h-0.67773c-0.2048,0 -0.38425,-0.07085 -0.53516,-0.21094c-0.14012,-0.14002 -0.20898,-0.31752 -0.20898,-0.5332c0,-0.20486 0.06886,-0.37749 0.20898,-0.51758c0.15091,-0.15093 0.33036,-0.22657 0.53516,-0.22657h0.67773v-0.21093v-1.81055c0,-0.32348 0.11347,-0.59795 0.33984,-0.82422c0.23714,-0.22627 0.51843,-0.33984 0.8418,-0.33984c0.31258,0 0.58222,0.11357 0.80859,0.33984zM174.99023,168.14453c0.23716,0.22637 0.35547,0.50084 0.35547,0.82422v1.81055v0.21093h1.14844c0.20481,0 0.37746,0.07564 0.51758,0.22657c0.1509,0.14009 0.22656,0.31272 0.22656,0.51758c0,0.2156 -0.07566,0.3931 -0.22656,0.5332c-0.14013,0.14009 -0.31278,0.21094 -0.51758,0.21094h-1.14844v6.49804c0,0.31265 -0.11831,0.58907 -0.35547,0.82617c-0.22636,0.22627 -0.496,0.33789 -0.80859,0.33789c-0.32336,0 -0.60269,-0.11162 -0.83984,-0.33789c-0.22637,-0.23715 -0.33985,-0.51358 -0.33985,-0.82617v-6.49804h-0.67968c-0.20481,0 -0.3823,-0.07085 -0.53321,-0.21094c-0.14012,-0.14002 -0.20898,-0.31752 -0.20898,-0.5332c0,-0.20486 0.06886,-0.37749 0.20898,-0.51758c0.15091,-0.15093 0.32841,-0.22657 0.53321,-0.22657h0.67968v-0.21093v-1.81055c0,-0.32348 0.11348,-0.59795 0.33985,-0.82422c0.23714,-0.22627 0.51647,-0.33984 0.83984,-0.33984c0.31259,0 0.58223,0.11357 0.80859,0.33984zM190.17969,168.14453c0.23713,0.22637 0.35742,0.50084 0.35742,0.82422v1.81055v0.21093h1.14648c0.20481,0 0.37746,0.07564 0.51758,0.22657c0.15091,0.14009 0.22656,0.31272 0.22656,0.51758c0,0.2156 -0.07565,0.3931 -0.22656,0.5332c-0.14013,0.14009 -0.31278,0.21094 -0.51758,0.21094h-1.14648v6.49804c0,0.31265 -0.12029,0.58907 -0.35742,0.82617c-0.22636,0.22627 -0.49405,0.33789 -0.80664,0.33789c-0.32336,0 -0.60465,-0.11162 -0.8418,-0.33789c-0.22637,-0.23715 -0.33984,-0.51358 -0.33984,-0.82617v-6.49804h-0.67774c-0.2048,0 -0.38425,-0.07085 -0.53515,-0.21094c-0.14012,-0.14002 -0.20899,-0.31752 -0.20899,-0.5332c0,-0.20486 0.06887,-0.37749 0.20899,-0.51758c0.1509,-0.15093 0.33035,-0.22657 0.53515,-0.22657h0.67774v-0.21093v-1.81055c0,-0.32348 0.11347,-0.59795 0.33984,-0.82422c0.23714,-0.22627 0.51843,-0.33984 0.8418,-0.33984c0.31258,0 0.58027,0.11357 0.80664,0.33984zM138.80469,169.68164c-0.43117,0.2587 -0.7881,0.59719 -1.06836,1.01758c-0.28024,0.42038 -0.48392,0.90052 -0.61328,1.43945c-0.12934,0.52818 -0.19532,1.06744 -0.19532,1.61719c0,0.54972 0.06598,1.09385 0.19532,1.63281c0.12934,0.52818 0.33302,1.00829 0.61328,1.43945c0.28026,0.42039 0.63719,0.75889 1.06836,1.01758c0.44194,0.2587 0.96957,0.38868 1.58398,0.38868c0.32339,0 0.57654,-0.02811 0.75977,-0.08204c0.19402,-0.05392 0.42099,-0.13913 0.67968,-0.25781l-0.40429,-0.38867c-0.09701,-0.08617 -0.17267,-0.18796 -0.22656,-0.30664c-0.04312,-0.12951 -0.06446,-0.25267 -0.06446,-0.3711c0,-0.07533 0.00958,-0.16754 0.03125,-0.27539c0.03233,-0.10784 0.08181,-0.20484 0.14649,-0.29101c0.07544,-0.08617 0.17244,-0.16181 0.29101,-0.22656c0.11856,-0.06476 0.26308,-0.09766 0.43555,-0.09766c0.21558,0 0.39988,0.07084 0.55078,0.21094l0.5332,0.48437c0.18326,-0.31259 0.34426,-0.72191 0.48438,-1.22851c0.1509,-0.5174 0.22656,-1.06637 0.22656,-1.64844c0,-0.54975 -0.064,-1.08901 -0.19336,-1.61719c-0.12935,-0.53893 -0.33498,-1.01907 -0.61523,-1.43945c-0.28026,-0.42039 -0.63525,-0.75888 -1.06641,-1.01758c-0.43116,-0.2587 -0.95395,-0.38867 -1.56836,-0.38867c-0.61441,0 -1.14204,0.12997 -1.58398,0.38867zM63.28321,172.47852h3.31445c0.20479,0 0.39877,-0.03795 0.58203,-0.11329c0.18323,-0.07559 0.33939,-0.17933 0.46875,-0.30859c0.14012,-0.14017 0.24875,-0.30119 0.32422,-0.48437c0.07546,-0.18321 0.11133,-0.37719 0.11133,-0.58204c0,-0.20487 -0.03586,-0.39885 -0.11133,-0.58203c-0.07546,-0.18333 -0.1841,-0.33949 -0.32422,-0.46875c-0.12936,-0.14009 -0.28552,-0.24888 -0.46875,-0.32422c-0.18325,-0.07559 -0.37723,-0.11328 -0.58203,-0.11328h-3.31445zM78.99805,171.10352c0.2587,0.21555 0.38867,0.50655 0.38867,0.87304c0,0.10785 -0.0165,0.20964 -0.04883,0.30664l-2.97461,9.28125c-0.1509,0.45274 -0.34004,0.80771 -0.56641,1.06641c-0.21558,0.25872 -0.45224,0.45951 -0.71094,0.59961c-0.2587,0.14035 -0.53319,0.22556 -0.82422,0.25781c-0.28026,0.04309 -0.5499,0.06445 -0.80859,0.06445h-0.8418c-0.2048,0 -0.38714,-0.03769 -0.54883,-0.11328c-0.1509,-0.07534 -0.28572,-0.17234 -0.4043,-0.29101c-0.10779,-0.11855 -0.19313,-0.25337 -0.25781,-0.4043c-0.0539,-0.14009 -0.08203,-0.28462 -0.08203,-0.43555c0,-0.21556 0.06402,-0.39985 0.19336,-0.55078c0.14013,-0.15093 0.3574,-0.22656 0.64844,-0.22656c0.28026,0 0.5431,-0.00555 0.79102,-0.01563c0.2587,-0.01083 0.48567,-0.04852 0.67969,-0.11328c0.19402,-0.06475 0.34533,-0.16654 0.45312,-0.30664c0.11858,-0.12933 0.17773,-0.31847 0.17773,-0.5664c0,-0.15096 -0.02134,-0.31878 -0.06445,-0.50196c-0.04311,-0.18323 -0.11393,-0.39854 -0.21094,-0.64648l-2.69922,-6.85547c-0.06468,-0.16174 -0.09766,-0.3344 -0.09766,-0.51758c0,-0.12938 0.02134,-0.2642 0.06445,-0.40429c0.04314,-0.14002 0.10714,-0.26805 0.19336,-0.38672c0.09701,-0.11868 0.22214,-0.21568 0.37305,-0.29102c0.16168,-0.08617 0.35566,-0.1289 0.58203,-0.1289c0.23714,-0.00001 0.45731,0.06409 0.66211,0.19335c0.20479,0.11861 0.34446,0.29611 0.41992,0.53321l1.99023,6.14453l1.55078,-6.12891c0.06468,-0.24801 0.1995,-0.43519 0.4043,-0.56445c0.21559,-0.12926 0.4474,-0.19531 0.69531,-0.19531c0.32337,0 0.61435,0.10853 0.87305,0.32422zM109.99805,170.92578c0.4635,0.09696 0.86311,0.24632 1.19726,0.45117c0.34494,0.2048 0.60974,0.46475 0.79297,0.77735c0.19402,0.3018 0.29102,0.66844 0.29102,1.09961v5.77148c0,0.31249 -0.10864,0.57728 -0.32422,0.79297c-0.21558,0.21568 -0.48038,0.32226 -0.79297,0.32226c-0.29103,0 -0.54418,-0.09025 -0.75977,-0.27343c-0.2048,-0.19402 -0.32314,-0.43747 -0.35546,-0.72852c-0.40961,0.38808 -0.84025,0.65288 -1.29297,0.79297c-0.45272,0.1401 -0.96582,0.20898 -1.53711,0.20898c-0.36649,0 -0.73797,-0.05231 -1.11524,-0.16015c-0.36649,-0.10769 -0.70014,-0.27064 -1.00195,-0.48633c-0.29105,-0.22637 -0.52771,-0.50084 -0.71094,-0.82422c-0.18323,-0.32337 -0.27539,-0.70167 -0.27539,-1.13281c0,-0.66832 0.14647,-1.19111 0.4375,-1.56836c0.30181,-0.37727 0.67329,-0.66145 1.11524,-0.85547c0.44194,-0.19409 0.91525,-0.3357 1.42187,-0.42187c0.5174,-0.08618 0.99751,-0.17164 1.43945,-0.25782c0.44195,-0.08617 0.80858,-0.20454 1.09961,-0.35547c0.30182,-0.16168 0.45313,-0.41482 0.45313,-0.75976c0,-0.16156 -0.04948,-0.30125 -0.14649,-0.41992c-0.08622,-0.12951 -0.2094,-0.23326 -0.37109,-0.3086c-0.16168,-0.08617 -0.35082,-0.15027 -0.56641,-0.19336c-0.21559,-0.04308 -0.44256,-0.06445 -0.67968,-0.06445c-0.31259,0 -0.55409,0.04273 -0.72657,0.12891c-0.17246,0.08642 -0.31213,0.19496 -0.41992,0.32422c-0.09701,0.12928 -0.17946,0.27378 -0.24414,0.43554c-0.06468,0.15098 -0.14518,0.29262 -0.24219,0.42188c-0.08622,0.12951 -0.20456,0.23609 -0.35547,0.32226c-0.1509,0.08618 -0.36622,0.12891 -0.64648,0.12891c-0.25871,0 -0.48567,-0.0641 -0.67969,-0.19336c-0.18325,-0.14012 -0.27343,-0.38841 -0.27343,-0.74414c0,-0.34492 0.08534,-0.66405 0.25781,-0.95508c0.17247,-0.291 0.42077,-0.53734 0.74414,-0.74219c0.32337,-0.21548 0.71619,-0.38327 1.17969,-0.50195c0.4635,-0.11842 0.98629,-0.17773 1.56836,-0.17773c0.54973,0 1.05603,0.04947 1.51953,0.14648zM115.56445,171.13672c0.22637,0.22637 0.33985,0.49405 0.33985,0.80664v4.56055c0,0.23707 0.04268,0.45726 0.1289,0.66211c0.09701,0.20472 0.22215,0.38901 0.37305,0.55078c0.15091,0.15093 0.3284,0.26929 0.5332,0.35547c0.21558,0.08617 0.43574,0.1289 0.66211,0.1289c0.23714,0 0.45926,-0.04273 0.66406,-0.1289c0.20481,-0.08618 0.3823,-0.20454 0.53321,-0.35547c0.1509,-0.16164 0.26924,-0.34593 0.35547,-0.55078c0.097,-0.20483 0.14453,-0.42501 0.14453,-0.66211v-4.56055c0,-0.31269 0.11347,-0.58037 0.33984,-0.80664c0.23714,-0.2371 0.51843,-0.35742 0.8418,-0.35742c0.32336,0 0.59785,0.12032 0.82422,0.35742c0.22637,0.22637 0.33984,0.49405 0.33984,0.80664v7.03516c0,0.31264 -0.11347,0.58711 -0.33984,0.82421c-0.22636,0.22627 -0.50085,0.33789 -0.82422,0.33789c-0.32337,0 -0.5998,-0.11162 -0.82617,-0.33789c-0.22637,-0.23715 -0.33789,-0.51162 -0.33789,-0.82421c-0.09701,0.1186 -0.22699,0.24662 -0.38868,0.38671c-0.16167,0.12926 -0.35566,0.25437 -0.58203,0.37305c-0.22636,0.10784 -0.48435,0.20484 -0.77539,0.29102c-0.29103,0.07534 -0.61984,0.11132 -0.98633,0.11132c-0.4096,0 -0.79757,-0.06409 -1.16406,-0.19335c-0.36649,-0.14012 -0.69044,-0.3341 -0.9707,-0.58204c-0.26947,-0.25869 -0.4848,-0.55937 -0.64649,-0.90429c-0.16168,-0.35571 -0.24218,-0.75047 -0.24218,-1.18164v-5.33594c0,-0.31269 0.11152,-0.58037 0.33789,-0.80664c0.23714,-0.2371 0.51842,-0.35742 0.84179,-0.35742c0.32337,0 0.59785,0.12032 0.82422,0.35742zM149.13281,171.13672c0.22637,0.22637 0.33985,0.49405 0.33985,0.80664v4.56055c0,0.23707 0.04268,0.45726 0.1289,0.66211c0.09701,0.20472 0.22215,0.38901 0.37305,0.55078c0.15091,0.15093 0.3284,0.26929 0.5332,0.35547c0.21557,0.08617 0.43574,0.1289 0.66211,0.1289c0.23714,0 0.45926,-0.04273 0.66406,-0.1289c0.20481,-0.08618 0.3823,-0.20454 0.53321,-0.35547c0.15093,-0.16164 0.26924,-0.34593 0.35547,-0.55078c0.097,-0.20483 0.14648,-0.42501 0.14648,-0.66211v-4.56055c0,-0.31269 0.11152,-0.58037 0.33789,-0.80664c0.23714,-0.2371 0.51842,-0.35742 0.8418,-0.35742c0.32336,0 0.59785,0.12032 0.82422,0.35742c0.22637,0.22637 0.33984,0.49405 0.33984,0.80664v7.03516c0,0.31264 -0.11347,0.58711 -0.33984,0.82421c-0.22636,0.22627 -0.50085,0.33789 -0.82422,0.33789c-0.32337,0 -0.59785,-0.11162 -0.82422,-0.33789c-0.22637,-0.23715 -0.33984,-0.51162 -0.33984,-0.82421c-0.09701,0.1186 -0.22699,0.24662 -0.38868,0.38671c-0.16167,0.12926 -0.35566,0.25437 -0.58203,0.37305c-0.22636,0.10784 -0.48435,0.20484 -0.77539,0.29102c-0.29103,0.07534 -0.61984,0.11132 -0.98633,0.11132c-0.4096,0 -0.79757,-0.06409 -1.16406,-0.19335c-0.36649,-0.14012 -0.69044,-0.3341 -0.9707,-0.58204c-0.26947,-0.25869 -0.4848,-0.55937 -0.64649,-0.90429c-0.16168,-0.35571 -0.24218,-0.75047 -0.24218,-1.18164v-5.33594c0,-0.31269 0.11347,-0.58037 0.33984,-0.80664c0.23714,-0.2371 0.51647,-0.35742 0.83984,-0.35742c0.32337,0 0.59785,0.12032 0.82422,0.35742zM162.05469,170.92578c0.4635,0.09696 0.86116,0.24632 1.19531,0.45117c0.34494,0.2048 0.60974,0.46475 0.79297,0.77735c0.19401,0.3018 0.29101,0.66844 0.29101,1.09961v5.77148c0,0.31249 -0.10863,0.57728 -0.32421,0.79297c-0.21559,0.21568 -0.47843,0.32226 -0.79102,0.32226c-0.29103,0 -0.54418,-0.09025 -0.75977,-0.27343c-0.2048,-0.19402 -0.32509,-0.43747 -0.35742,-0.72852c-0.4096,0.38808 -0.84025,0.65288 -1.29297,0.79297c-0.45272,0.1401 -0.96386,0.20898 -1.53515,0.20898c-0.36649,0 -0.73797,-0.05231 -1.11524,-0.16015c-0.36649,-0.10769 -0.70209,-0.27064 -1.0039,-0.48633c-0.29103,-0.22637 -0.52768,-0.50084 -0.71094,-0.82422c-0.18323,-0.32337 -0.27539,-0.70167 -0.27539,-1.13281c0,-0.66832 0.14646,-1.19111 0.4375,-1.56836c0.30181,-0.37727 0.67329,-0.66145 1.11523,-0.85547c0.44195,-0.19409 0.91722,-0.3357 1.42383,-0.42187c0.5174,-0.08618 0.99556,-0.17164 1.4375,-0.25782c0.44194,-0.08617 0.80857,-0.20454 1.09961,-0.35547c0.30181,-0.16168 0.45313,-0.41482 0.45313,-0.75976c0,-0.16156 -0.04753,-0.30125 -0.14454,-0.41992c-0.08622,-0.12951 -0.21135,-0.23326 -0.37304,-0.3086c-0.16169,-0.08617 -0.35082,-0.15027 -0.56641,-0.19336c-0.21559,-0.04308 -0.44061,-0.06445 -0.67773,-0.06445c-0.31259,0 -0.55605,0.04273 -0.72852,0.12891c-0.17246,0.08642 -0.31213,0.19496 -0.41992,0.32422c-0.09701,0.12928 -0.17751,0.27378 -0.24219,0.43554c-0.06468,0.15098 -0.14518,0.29262 -0.24219,0.42188c-0.08624,0.12951 -0.20651,0.23609 -0.35742,0.32226c-0.1509,0.08618 -0.36622,0.12891 -0.64648,0.12891c-0.25871,0 -0.48372,-0.0641 -0.67774,-0.19336c-0.18323,-0.14012 -0.27539,-0.38841 -0.27539,-0.74414c0,-0.34492 0.08534,-0.66405 0.25782,-0.95508c0.17246,-0.291 0.42076,-0.53734 0.74414,-0.74219c0.32337,-0.21548 0.71618,-0.38327 1.17968,-0.50195c0.4635,-0.11842 0.98629,-0.17773 1.56836,-0.17773c0.54974,0 1.05799,0.04947 1.52149,0.14648zM167.60742,171.13672c0.22637,0.22637 0.33985,0.49405 0.33985,0.80664c0.097,-0.10784 0.21534,-0.231 0.35546,-0.37109c0.1509,-0.1401 0.31191,-0.26326 0.48438,-0.3711c0.18325,-0.11868 0.37239,-0.21568 0.56641,-0.29101c0.19403,-0.08618 0.38801,-0.13086 0.58203,-0.13086c0.43116,0 0.72214,0.11357 0.87304,0.33984c0.16169,0.22637 0.24219,0.49116 0.24219,0.79297c0,0.24801 -0.05916,0.43715 -0.17773,0.56641c-0.10779,0.11842 -0.24745,0.20868 -0.41993,0.27343c-0.16169,0.06476 -0.33918,0.11903 -0.5332,0.16211c-0.19401,0.03225 -0.37831,0.08173 -0.55078,0.14649c-0.3126,0.11857 -0.56575,0.27473 -0.75976,0.46875c-0.18325,0.18313 -0.32292,0.38197 -0.41993,0.59765c-0.09703,0.2047 -0.16103,0.41518 -0.19336,0.63086c-0.03232,0.21564 -0.04882,0.41448 -0.04882,0.59766v3.62305c0,0.32347 -0.11832,0.59795 -0.35547,0.82421c-0.22636,0.22627 -0.5028,0.33985 -0.82618,0.33985c-0.3126,0 -0.58709,-0.11358 -0.82421,-0.33985c-0.22637,-0.23715 -0.33985,-0.51162 -0.33985,-0.82421v-7.03516c0,-0.31269 0.11348,-0.58037 0.33985,-0.80664c0.23713,-0.2371 0.51842,-0.35742 0.84179,-0.35742c0.32337,0 0.59785,0.12032 0.82422,0.35742zM183.8418,171.20117c0.52817,0.26948 0.95882,0.60798 1.29297,1.01758c0.34493,0.40963 0.59807,0.85192 0.75976,1.32617c0.16169,0.47428 0.24219,0.91171 0.24219,1.31055c0,0.37725 -0.07082,0.68956 -0.21094,0.9375c-0.14013,0.24794 -0.3438,0.37109 -0.61328,0.37109h-5.17383c-0.11857,0 -0.21071,0.04274 -0.27539,0.12891c-0.05389,0.07559 -0.08008,0.17933 -0.08008,0.30859c0,0.16156 0.04753,0.34877 0.14453,0.56446c0.09702,0.20482 0.24349,0.40559 0.4375,0.5996c0.19403,0.19412 0.43068,0.35512 0.71094,0.48438c0.29104,0.12926 0.62469,0.19336 1.00195,0.19336c0.22636,0 0.42519,-0.02137 0.59766,-0.06445c0.17247,-0.05393 0.33543,-0.12956 0.48633,-0.22657c0.15091,-0.097 0.29543,-0.22016 0.43555,-0.37109c0.15092,-0.16159 0.31872,-0.35072 0.50195,-0.56641c0.16169,-0.19401 0.34403,-0.29101 0.54883,-0.29101c0.12936,0 0.25933,0.0329 0.38867,0.09765c0.12936,0.06476 0.24284,0.14997 0.33984,0.25782c0.09701,0.10784 0.17751,0.23295 0.24219,0.37304c0.06468,0.12939 0.09766,0.26421 0.09766,0.4043c0,0.14012 -0.07566,0.33896 -0.22657,0.59766c-0.14012,0.24793 -0.36029,0.50107 -0.66211,0.75976c-0.30181,0.24791 -0.68009,0.4681 -1.13281,0.66211c-0.45272,0.18318 -0.992,0.27539 -1.61719,0.27539c-0.71141,0 -1.34769,-0.12997 -1.9082,-0.38867c-0.56051,-0.2587 -1.03383,-0.60203 -1.42187,-1.0332c-0.37727,-0.44196 -0.66825,-0.9502 -0.87305,-1.52149c-0.19402,-0.58207 -0.29102,-1.19507 -0.29102,-1.84179c0,-0.64676 0.08534,-1.25684 0.25782,-1.82813c0.18324,-0.58207 0.45773,-1.08836 0.82422,-1.51953c0.36648,-0.44193 0.82526,-0.79209 1.375,-1.05078c0.54973,-0.2587 1.19765,-0.38867 1.9414,-0.38867c0.7222,0 1.34198,0.14163 1.85938,0.42187zM96.99219,171.3457c0.23713,0.22635 0.35547,0.50085 0.35547,0.82422v6.80664c0,0.32348 -0.11834,0.59991 -0.35547,0.82617c-0.22636,0.22627 -0.50085,0.33789 -0.82422,0.33789c-0.32336,0 -0.59785,-0.11162 -0.82422,-0.33789c-0.22637,-0.23715 -0.33984,-0.51358 -0.33984,-0.82617v-6.80664c0,-0.32345 0.11347,-0.59795 0.33984,-0.82422c0.23714,-0.2371 0.51162,-0.35547 0.82422,-0.35547c0.32336,0 0.59785,0.11837 0.82422,0.35547zM125.65625,171.3457c0.23715,0.22635 0.35547,0.50085 0.35547,0.82422v9.03906c0,0.28024 -0.03298,0.55958 -0.09766,0.83985c-0.06465,0.28016 -0.18299,0.52845 -0.35547,0.74414c-0.17246,0.22639 -0.41396,0.41069 -0.72656,0.55078c-0.30181,0.14009 -0.69174,0.20898 -1.16601,0.20898c-0.82999,0 -1.44978,-0.07563 -1.85938,-0.22656c-0.4096,-0.14012 -0.61328,-0.41946 -0.61328,-0.83984c0,-0.39877 0.11347,-0.68003 0.33984,-0.8418c0.21558,-0.15093 0.5279,-0.22461 0.9375,-0.22461c0.17248,0 0.32863,-0.01052 0.46875,-0.0332c0.15091,-0.01084 0.28088,-0.05836 0.38867,-0.14453c0.1078,-0.0861 0.1883,-0.21608 0.24219,-0.38867c0.06468,-0.16169 0.09571,-0.39835 0.09571,-0.71094v-7.97266c0,-0.32345 0.11347,-0.59795 0.33984,-0.82422c0.23714,-0.2371 0.51358,-0.35547 0.82617,-0.35547c0.32337,0 0.59785,0.11837 0.82422,0.35547zM129.14062,171.3457c0.23713,0.22635 0.35547,0.50085 0.35547,0.82422v6.80664c0,0.32348 -0.11834,0.59991 -0.35547,0.82617c-0.22635,0.22627 -0.50084,0.33789 -0.82421,0.33789c-0.32337,0 -0.59785,-0.11162 -0.82422,-0.33789c-0.22637,-0.23715 -0.33985,-0.51358 -0.33985,-0.82617v-6.80664c0,-0.32345 0.11348,-0.59795 0.33985,-0.82422c0.23714,-0.2371 0.51162,-0.35547 0.82422,-0.35547c0.32336,0 0.59785,0.11837 0.82421,0.35547zM181.04297,172.86523c-0.25869,0.10767 -0.47401,0.24928 -0.64649,0.42188c-0.16168,0.16174 -0.28487,0.33244 -0.37109,0.51562c-0.08622,0.18329 -0.12891,0.34624 -0.12891,0.48633c0,0.21569 0.0805,0.32227 0.24219,0.32227h3.68555c0.14012,0 0.21094,-0.10179 0.21094,-0.30664c0,-0.1402 -0.04269,-0.3012 -0.12891,-0.48438c-0.07544,-0.18315 -0.20057,-0.35581 -0.37305,-0.51758c-0.16168,-0.17237 -0.37216,-0.31882 -0.63086,-0.4375c-0.25869,-0.11867 -0.56421,-0.17773 -0.91992,-0.17773c-0.35571,0 -0.66998,0.05906 -0.93945,0.17773zM63.28321,178.00781h3.37891c0.24792,0 0.47973,-0.04947 0.69531,-0.14648c0.22636,-0.09693 0.42034,-0.22496 0.58203,-0.38672c0.16169,-0.16156 0.29166,-0.35072 0.38867,-0.56641c0.09701,-0.21556 0.14453,-0.44737 0.14453,-0.69531c0,-0.24784 -0.04752,-0.47963 -0.14453,-0.69531c-0.09701,-0.22627 -0.22698,-0.42027 -0.38867,-0.58203c-0.16167,-0.16169 -0.35566,-0.29167 -0.58203,-0.38867c-0.21559,-0.09701 -0.4474,-0.14454 -0.69531,-0.14454h-3.37891zM109.125,175.87305c-0.37727,0.11867 -0.88841,0.23704 -1.53516,0.35547c-0.78687,0.14014 -1.17968,0.51161 -1.17968,1.11523c0,0.15095 0.02134,0.29741 0.06445,0.4375c0.0539,0.14002 0.13924,0.26999 0.25781,0.38867c0.11858,0.10759 0.27474,0.19306 0.46875,0.25781c0.2048,0.06476 0.45311,0.09766 0.74414,0.09766c0.24793,0 0.49623,-0.02811 0.74414,-0.08203c0.25871,-0.0645 0.48372,-0.14997 0.67774,-0.25781c0.20479,-0.11848 0.36775,-0.25816 0.48633,-0.41993c0.12936,-0.17237 0.19336,-0.36634 0.19336,-0.58203v-1.56836c-0.22637,0.05367 -0.53383,0.13914 -0.92188,0.25782zM161.18164,175.87305c-0.37727,0.11867 -0.89036,0.23704 -1.53711,0.35547c-0.78687,0.14014 -1.17969,0.51161 -1.17969,1.11523c0,0.15095 0.02135,0.29741 0.06446,0.4375c0.05389,0.14002 0.13923,0.26999 0.25781,0.38867c0.11858,0.10759 0.27473,0.19306 0.46875,0.25781c0.2048,0.06476 0.45311,0.09766 0.74414,0.09766c0.24792,0 0.49623,-0.02811 0.74414,-0.08203c0.25871,-0.0645 0.48567,-0.14997 0.67969,-0.25781c0.20479,-0.11848 0.3658,-0.25816 0.48437,-0.41993c0.12936,-0.17237 0.19336,-0.36634 0.19336,-0.58203v-1.56836c-0.22636,0.05367 -0.53188,0.13914 -0.91992,0.25782z" fill="#1eff00" stroke="none" stroke-width="1.01053" stroke-miterlimit="10" stroke-dashoffset="0"/></g></g></svg>