<svg version="1.1" xmlns="http://www.w3.org/2000/svg" xmlns:xlink="http://www.w3.org/1999/xlink" width="372.21484" height="68.64257"><g transform="translate(-53.89258,-145.67872)"><g data-paper-data="{&quot;isPaintingLayer&quot;:true}" fill-rule="nonzero" stroke-linecap="butt" stroke-linejoin="miter" stroke-dasharray="" style="mix-blend-mode: normal"><path d="M425.00976,146.42872c0.19313,0 0.34766,0.15452 0.34766,0.34765v66.44531c0,0.19314 -0.15453,0.34961 -0.34766,0.34961h-370.01757c-0.19313,0 -0.34961,-0.15647 -0.34961,-0.34961v-66.44531c0,-0.19313 0.15648,-0.34765 0.34961,-0.34765z" data-paper-data="{&quot;origPos&quot;:null}" id="rect815-0-0-8-6-4" fill="#1e1e1e" stroke="#1eff00" stroke-width="1.5" stroke-miterlimit="4" stroke-dashoffset="17.35"/><path d="M69.10258,187.56561c1.27593,0 2.33409,4.30813 3.36631,5.0581c1.03226,0.74997 5.45654,0.42505 5.85082,1.63854c0.39428,1.21349 -3.37603,3.55109 -3.77031,4.76459c-0.39428,1.21349 1.28194,5.32078 0.24983,6.07079c-1.03226,0.74997 -4.42057,-2.11344 -5.6965,-2.11344c-1.27593,0 -4.66424,2.86341 -5.6965,2.11344c-1.03226,-0.75001 0.64396,-4.8573 0.24983,-6.07079c-0.39428,-1.21349 -4.16459,-3.55109 -3.77031,-4.76459c0.39428,-1.21349 4.81856,-0.88857 5.85082,-1.63854c1.03223,-0.74997 2.09038,-5.0581 3.36631,-5.0581z" data-paper-data="{&quot;origPos&quot;:null}" id="path1428-5-07-2-6-5" fill="#1eff00" stroke="none" stroke-width="0.88188" stroke-miterlimit="4" stroke-dashoffset="17.35"/><path d="M92.03963,187.56561c1.27593,0 2.33405,4.30813 3.36631,5.0581c1.03226,0.74997 5.4565,0.42505 5.85078,1.63854c0.39428,1.21349 -3.37599,3.55109 -3.77027,4.76459c-0.39432,1.21349 1.2819,5.32078 0.24945,6.07079c-1.03223,0.74997 -4.42054,-2.11344 -5.69647,-2.11344c-1.27597,0 -4.66424,2.86341 -5.69651,2.11344c-1.03226,-0.75001 0.64396,-4.8573 0.24945,-6.07079c-0.39428,-1.21349 -4.16455,-3.55109 -3.77027,-4.76459c0.39428,-1.21349 4.81852,-0.88857 5.85078,-1.63854c1.03226,-0.74997 2.09038,-5.0581 3.36635,-5.0581z" data-paper-data="{&quot;origPos&quot;:null}" id="path1428-0-2-53-3-8-2" fill="#1eff00" stroke="none" stroke-width="0.88188" stroke-miterlimit="4" stroke-dashoffset="17.35"/><path d="M114.97653,187.56561c1.27593,0 2.33409,4.30813 3.36635,5.0581c1.03223,0.74997 5.4565,0.42505 5.85078,1.63854c0.39428,1.21349 -3.37602,3.55109 -3.77031,4.76459c-0.39428,1.21349 1.28194,5.32078 0.24983,6.07079c-1.03226,0.74997 -4.42057,-2.11344 -5.6965,-2.11344c-1.27593,0 -4.66424,2.86341 -5.6965,2.11344c-1.03223,-0.75001 0.64396,-4.8573 0.24983,-6.07079c-0.39428,-1.21349 -4.16459,-3.55109 -3.77031,-4.76459c0.39432,-1.21349 4.81856,-0.88857 5.85082,-1.63854c1.03226,-0.74997 2.09038,-5.0581 3.36631,-5.0581z" data-paper-data="{&quot;origPos&quot;:null}" id="path1428-0-6-3-11-6-9-3" fill="#1eff00" stroke="none" stroke-width="0.88188" stroke-miterlimit="4" stroke-dashoffset="17.35"/><path d="M137.91358,187.56561c1.27593,0 2.33404,4.30813 3.36631,5.0581c1.03226,0.74997 5.4565,0.42505 5.85078,1.63854c0.39431,1.21349 -3.37599,3.55109 -3.77027,4.76459c-0.39428,1.21349 1.2819,5.32078 0.24983,6.07079c-1.03227,0.74997 -4.42057,-2.11344 -5.69651,-2.11344c-1.27593,0 -4.66424,2.86341 -5.6965,2.11344c-1.03226,-0.75001 0.64396,-4.8573 0.24983,-6.07079c-0.39432,-1.21349 -4.16459,-3.55109 -3.77031,-4.76459c0.39428,-1.21349 4.81856,-0.88857 5.85078,-1.63854c1.03226,-0.74997 2.09042,-5.0581 3.36635,-5.0581z" data-paper-data="{&quot;origPos&quot;:null}" id="path1428-0-0-2-3-6-97-2" fill="#1eff00" stroke="none" stroke-width="0.88188" stroke-miterlimit="4" stroke-dashoffset="17.35"/><path d="M67.49024,152.01661c0.62933,0.27731 1.16723,0.61313 1.61523,1.00781c0.45866,0.384 0.8113,0.7951 1.05664,1.23242c0.256,0.43734 0.38281,0.81672 0.38281,1.13672c0,0.28808 -0.10697,0.51692 -0.32031,0.6875c-0.21332,0.16 -0.44216,0.24023 -0.6875,0.24023c-0.18133,0 -0.35172,-0.04348 -0.51172,-0.1289c-0.16,-0.09593 -0.27194,-0.24948 -0.33594,-0.46289c-0.09601,-0.29866 -0.22973,-0.59286 -0.40039,-0.88086c-0.17067,-0.2881 -0.38958,-0.54862 -0.65625,-0.7832c-0.26667,-0.23474 -0.58069,-0.42197 -0.94336,-0.56055c-0.352,-0.14942 -0.76309,-0.22461 -1.23242,-0.22461c-0.53333,0 -1.03457,0.11698 -1.50391,0.35156c-0.46933,0.224 -0.88042,0.54988 -1.23242,0.97656c-0.34134,0.416 -0.61179,0.92222 -0.81445,1.51954c-0.20266,0.59734 -0.30469,1.26399 -0.30469,2c0,0.73599 0.10203,1.40265 0.30469,2c0.20267,0.59731 0.47312,1.11042 0.81445,1.5371c0.352,0.42674 0.76309,0.75761 1.23242,0.99219c0.46933,0.224 0.97057,0.33594 1.50391,0.33594c0.46933,0 0.88042,-0.0704 1.23242,-0.20899c0.36267,-0.14941 0.67669,-0.34158 0.94336,-0.57617c0.26667,-0.23466 0.48559,-0.4952 0.65625,-0.7832c0.17066,-0.29868 0.30439,-0.59783 0.40039,-0.89648c0.064,-0.21325 0.17594,-0.36185 0.33594,-0.44727c0.15999,-0.096 0.33038,-0.14453 0.51172,-0.14453c0.24532,0 0.47416,0.08023 0.6875,0.24023c0.21334,0.16 0.32031,0.38388 0.32031,0.67188c0,0.23466 -0.09511,0.56553 -0.28711,0.99219c-0.192,0.42668 -0.49115,0.85263 -0.89648,1.27929c-0.40533,0.416 -0.93332,0.77855 -1.58398,1.08789c-0.64,0.30932 -1.41365,0.46485 -2.32031,0.46485c-0.96,0 -1.80201,-0.18227 -2.52734,-0.54492c-0.71466,-0.36266 -1.31297,-0.84708 -1.79297,-1.45508c-0.46932,-0.608 -0.82692,-1.3014 -1.07227,-2.08008c-0.23466,-0.78932 -0.35156,-1.6115 -0.35156,-2.46484c0,-0.84266 0.1169,-1.65793 0.35156,-2.44727c0.24533,-0.78934 0.60293,-1.48276 1.07227,-2.08008c0.48,-0.608 1.0783,-1.09239 1.79297,-1.45508c0.72533,-0.36266 1.56734,-0.54492 2.52734,-0.54492c0.736,0 1.41454,0.13868 2.0332,0.41602zM73.11524,152.09668c0.192,0.18135 0.28711,0.40522 0.28711,0.67188c0,0.256 -0.09511,0.47988 -0.28711,0.67188c-0.18133,0.18141 -0.40025,0.27148 -0.65625,0.27148c-0.26666,0 -0.4955,-0.09007 -0.6875,-0.27148c-0.18134,-0.192 -0.27148,-0.41588 -0.27148,-0.67188c0,-0.26658 0.09014,-0.49046 0.27148,-0.67188c0.192,-0.18141 0.42083,-0.27148 0.6875,-0.27148c0.25599,0 0.47491,0.09007 0.65625,0.27148zM76.9961,152.79981c0.17066,0.16008 0.25586,0.35721 0.25586,0.5918v2h0.88086c0.20267,0 0.37306,0.07519 0.51172,0.22461c0.14934,0.13873 0.22461,0.30913 0.22461,0.51172c0,0.21341 -0.07527,0.39071 -0.22461,0.52929c-0.13868,0.13858 -0.30906,0.20703 -0.51172,0.20703h-0.88086v6.73633c0,0.23476 -0.0852,0.43684 -0.25586,0.60742c-0.16001,0.16 -0.35714,0.24024 -0.5918,0.24024c-0.23467,0 -0.4318,-0.08024 -0.5918,-0.24024c-0.16,-0.17076 -0.24023,-0.37284 -0.24023,-0.60742v-6.73633h-0.5918c-0.20266,0 -0.378,-0.06845 -0.52734,-0.20703c-0.13866,-0.13858 -0.20898,-0.31588 -0.20898,-0.52929c0,-0.20274 0.07033,-0.37314 0.20898,-0.51172c0.14934,-0.14942 0.32468,-0.22461 0.52734,-0.22461h0.5918v-2c0,-0.23466 0.08023,-0.4318 0.24023,-0.5918c0.16001,-0.16 0.35714,-0.24023 0.5918,-0.24023c0.23467,0 0.4318,0.08023 0.5918,0.24023zM98.85156,155.26465c0.416,0.1281 0.75872,0.29351 1.02539,0.4961c0.10666,0.08541 0.2186,0.19231 0.33594,0.32031c0.11734,0.11727 0.22928,0.24902 0.33594,0.39844c0.10666,0.13873 0.19186,0.27743 0.25586,0.41601c0.07466,0.13884 0.11133,0.26256 0.11133,0.36914c0,0.24524 -0.09511,0.44238 -0.28711,0.5918c-0.192,0.13858 -0.401,0.20703 -0.625,0.20703c-0.13866,0 -0.26547,-0.0317 -0.38281,-0.0957c-0.11734,-0.07458 -0.20944,-0.18652 -0.27344,-0.33594c-0.08534,-0.20258 -0.17548,-0.37793 -0.27148,-0.52734c-0.096,-0.14942 -0.22477,-0.27314 -0.38477,-0.36914c-0.14933,-0.096 -0.33459,-0.16445 -0.55859,-0.20703c-0.21333,-0.05342 -0.48574,-0.08008 -0.81641,-0.08008c-0.65067,0 -1.12516,0.10689 -1.42383,0.32031c-0.288,0.20266 -0.43164,0.45824 -0.43164,0.76758c0,0.23458 0.0852,0.42675 0.25586,0.57617c0.17067,0.13883 0.39454,0.26256 0.67187,0.36914c0.288,0.096 0.61389,0.18128 0.97656,0.25586c0.36267,0.064 0.73018,0.14228 1.10352,0.23828c0.37333,0.08542 0.74085,0.19231 1.10352,0.32031c0.36266,0.11727 0.6836,0.28268 0.96094,0.4961c0.28801,0.20266 0.51684,0.45329 0.6875,0.75195c0.17066,0.29868 0.25586,0.67309 0.25586,1.12109c0,0.53332 -0.10697,0.98604 -0.32031,1.35938c-0.21333,0.36276 -0.49566,0.6619 -0.84766,0.89648c-0.352,0.22408 -0.76309,0.38951 -1.23242,0.4961c-0.46933,0.096 -0.96066,0.14453 -1.47266,0.14453c-0.72533,0 -1.33851,-0.1069 -1.83984,-0.32031c-0.49067,-0.224 -0.89484,-0.48153 -1.21484,-0.76954c-0.30934,-0.29865 -0.53322,-0.5909 -0.67187,-0.8789c-0.13866,-0.28793 -0.20898,-0.50683 -0.20898,-0.65625c0,-0.24524 0.0852,-0.44238 0.25586,-0.5918c0.18134,-0.16 0.37351,-0.24023 0.57617,-0.24023c0.128,0 0.2518,0.03674 0.36914,0.11133c0.11734,0.07458 0.20748,0.19156 0.27148,0.35156c0.18133,0.45866 0.46861,0.843 0.86328,1.15234c0.40533,0.30932 0.98185,0.46485 1.72852,0.46485c0.34133,0 0.63552,-0.03675 0.88086,-0.11133c0.24532,-0.08542 0.44245,-0.19232 0.5918,-0.32031c0.16,-0.13866 0.2769,-0.28922 0.35156,-0.44922c0.07466,-0.17059 0.11133,-0.34593 0.11133,-0.52735c0,-0.36258 -0.14364,-0.63499 -0.43164,-0.8164c-0.288,-0.18142 -0.6456,-0.32506 -1.07226,-0.43164c-0.42667,-0.10659 -0.8962,-0.2017 -1.4082,-0.28711c-0.50133,-0.09608 -0.96396,-0.22981 -1.39062,-0.40039c-0.42666,-0.18135 -0.78426,-0.43196 -1.07226,-0.75196c-0.288,-0.33066 -0.43164,-0.78533 -0.43164,-1.36133c0,-0.832 0.30216,-1.48183 0.91016,-1.95117c0.608,-0.46934 1.45692,-0.70508 2.54492,-0.70508c0.608,0 1.11916,0.06536 1.53516,0.19336zM73.05078,155.44044c0.16,0.16007 0.24023,0.35721 0.24023,0.59179v7.56836c0,0.23476 -0.08023,0.43684 -0.24023,0.60742c-0.16001,0.16 -0.35714,0.24024 -0.5918,0.24024c-0.23468,0 -0.43676,-0.08024 -0.60742,-0.24024c-0.16,-0.17076 -0.24023,-0.37284 -0.24023,-0.60742v-7.56836c0,-0.23466 0.08023,-0.43179 0.24023,-0.59179c0.17067,-0.17059 0.37276,-0.25586 0.60742,-0.25586c0.23467,0 0.4318,0.08527 0.5918,0.25586zM81.23828,155.44044c0.16,0.16007 0.24023,0.35721 0.24023,0.59179v0.30469c0.04266,-0.04258 0.12289,-0.12786 0.24023,-0.25586c0.11734,-0.128 0.26098,-0.25677 0.43164,-0.38477c0.18132,-0.13858 0.37845,-0.25556 0.5918,-0.35156c0.22399,-0.10658 0.45974,-0.16015 0.70508,-0.16015c0.23466,0 0.4318,0.08527 0.5918,0.25586c0.17066,0.16007 0.25586,0.35721 0.25586,0.59179c0,0.2241 -0.0852,0.42122 -0.25586,0.5918c-0.16001,0.16 -0.35714,0.24023 -0.5918,0.24023c-0.40533,0 -0.73619,0.09707 -0.99219,0.28907c-0.25599,0.18131 -0.46003,0.39829 -0.60937,0.65429c-0.13866,0.256 -0.23377,0.52344 -0.28711,0.80078c-0.05334,0.27724 -0.08008,0.50609 -0.08008,0.6875v4.30469c0,0.23476 -0.08023,0.43684 -0.24023,0.60742c-0.16001,0.16 -0.35714,0.24024 -0.5918,0.24024c-0.23468,0 -0.43676,-0.08024 -0.60742,-0.24024c-0.16,-0.17076 -0.24023,-0.37284 -0.24023,-0.60742v-7.56836c0,-0.23466 0.08023,-0.4318 0.24023,-0.59179c0.17067,-0.17059 0.37276,-0.25586 0.60742,-0.25586c0.23467,0 0.4318,0.08527 0.5918,0.25586zM86.58203,155.44044c0.16,0.16007 0.24023,0.35721 0.24023,0.59179v5.56836c0,0.24527 0.0535,0.45921 0.16016,0.64063c0.11734,0.18131 0.26098,0.33489 0.43164,0.46289c0.18132,0.11741 0.37845,0.20943 0.5918,0.27343c0.22399,0.064 0.44291,0.09571 0.65625,0.09571c0.352,0 0.67294,-0.05837 0.96094,-0.17578c0.288,-0.1279 0.52675,-0.29831 0.71875,-0.51172c0.20267,-0.21334 0.35818,-0.46591 0.46484,-0.75391c0.10666,-0.29866 0.16016,-0.61764 0.16016,-0.95898v-4.64063c0,-0.23466 0.08023,-0.43179 0.24023,-0.59179c0.16001,-0.17059 0.35714,-0.25586 0.5918,-0.25586c0.23467,0 0.4318,0.08527 0.5918,0.25586c0.17066,0.16007 0.25586,0.35721 0.25586,0.59179v7.56836c0,0.23476 -0.0852,0.43684 -0.25586,0.60742c-0.16001,0.16 -0.35714,0.24024 -0.5918,0.24024c-0.23467,0 -0.4318,-0.08024 -0.5918,-0.24024c-0.16,-0.17076 -0.24023,-0.37284 -0.24023,-0.60742v-0.28711c-0.10667,0.096 -0.24039,0.21298 -0.40039,0.35156c-0.14933,0.128 -0.33655,0.24977 -0.56055,0.36719c-0.224,0.11717 -0.48453,0.21927 -0.7832,0.30469c-0.288,0.07458 -0.62381,0.11133 -1.00781,0.11133c-0.39467,0 -0.77901,-0.05358 -1.15234,-0.16016c-0.36267,-0.11732 -0.68856,-0.28772 -0.97656,-0.51172c-0.28801,-0.224 -0.51684,-0.50135 -0.6875,-0.83203c-0.17066,-0.33066 -0.25586,-0.715 -0.25586,-1.15234v-5.75977c0,-0.23466 0.08023,-0.43179 0.24023,-0.59179c0.17067,-0.17059 0.37276,-0.25586 0.60742,-0.25586c0.23467,0 0.4318,0.08527 0.5918,0.25586zM66.5293,167.40918c0.56533,0.21335 1.02991,0.47389 1.39258,0.78321c0.36267,0.30934 0.6232,0.63522 0.7832,0.97656c0.17066,0.34142 0.25586,0.6287 0.25586,0.86328c0,0.17074 -0.03667,0.32626 -0.11133,0.46485c-0.064,0.128 -0.15414,0.23993 -0.27148,0.33593c-0.10668,0.08517 -0.23048,0.15362 -0.36914,0.20703c-0.13868,0.04259 -0.27736,0.06446 -0.41601,0.06446c-0.18132,0 -0.34675,-0.04154 -0.49609,-0.12696c-0.14934,-0.08531 -0.25631,-0.22401 -0.32031,-0.41601c-0.08534,-0.24527 -0.21215,-0.45921 -0.38281,-0.64063c-0.17067,-0.18124 -0.37276,-0.32984 -0.60742,-0.44726c-0.224,-0.128 -0.46966,-0.22002 -0.73633,-0.27344c-0.26667,-0.064 -0.52916,-0.0957 -0.78516,-0.0957c-0.768,0 -1.32769,0.1337 -1.67969,0.40039c-0.352,0.26666 -0.52734,0.62426 -0.52734,1.07226c0,0.33076 0.10008,0.59625 0.30273,0.79883c0.21333,0.19208 0.4907,0.35751 0.83203,0.4961c0.34133,0.128 0.72568,0.23993 1.15234,0.33593c0.43733,0.08517 0.88012,0.18727 1.32812,0.30469c0.45867,0.10668 0.90146,0.24039 1.32812,0.40039c0.43733,0.16 0.82664,0.37893 1.16797,0.65625c0.34134,0.26668 0.61375,0.60744 0.81641,1.02344c0.21334,0.40532 0.32031,0.91153 0.32031,1.51953c0,0.69334 -0.14364,1.29659 -0.43164,1.80859c-0.27733,0.50132 -0.65176,0.91737 -1.12109,1.24805c-0.46933,0.32 -1.01219,0.5607 -1.63086,0.7207c-0.608,0.16 -1.24296,0.24024 -1.9043,0.24024c-0.82133,0 -1.51971,-0.1069 -2.0957,-0.32031c-0.576,-0.21335 -1.05245,-0.48575 -1.42578,-0.81641c-0.36268,-0.33066 -0.62817,-0.68827 -0.79883,-1.07227c-0.16,-0.384 -0.24023,-0.75151 -0.24023,-1.10351c0,-0.192 0.0317,-0.36735 0.0957,-0.52735c0.07468,-0.16007 0.16483,-0.2938 0.27148,-0.40039c0.11734,-0.11741 0.24611,-0.20943 0.38477,-0.27343c0.14934,-0.064 0.29298,-0.09571 0.43164,-0.09571c0.18132,0 0.34675,0.05358 0.49609,0.16016c0.14932,0.096 0.25135,0.25647 0.30469,0.48047c0.13867,0.56534 0.39425,1.01803 0.76758,1.35937c0.384,0.34132 0.98726,0.51172 1.80859,0.51172c0.8,0 1.43496,-0.1387 1.9043,-0.41601c0.46933,-0.27735 0.70312,-0.67656 0.70312,-1.19922c0,-0.352 -0.10203,-0.63928 -0.30469,-0.86328c-0.20267,-0.23469 -0.47312,-0.43375 -0.81445,-0.59375c-0.33067,-0.16008 -0.71005,-0.29186 -1.13672,-0.39844c-0.42667,-0.11717 -0.8645,-0.23415 -1.3125,-0.35156c-0.43733,-0.128 -0.86826,-0.2736 -1.29492,-0.4336c-0.42666,-0.15992 -0.81101,-0.362 -1.15234,-0.60742c-0.33067,-0.256 -0.59812,-0.56508 -0.80078,-0.92773c-0.20266,-0.37335 -0.30273,-0.83296 -0.30273,-1.37696c0.01066,-0.608 0.12756,-1.14589 0.35156,-1.61523c0.23466,-0.46932 0.55365,-0.8636 0.95898,-1.18359c0.40533,-0.32011 0.88674,-0.56575 1.44141,-0.73633c0.55467,-0.17059 1.16093,-0.25586 1.82227,-0.25586c0.8,0 1.48349,0.11193 2.04883,0.33593zM117.4961,167.2959c0.768,0 1.44954,0.18723 2.04687,0.56055c0.608,0.36268 1.1142,0.84214 1.51953,1.43945c0.416,0.58669 0.73198,1.25831 0.94532,2.01563c0.21334,0.75734 0.32031,1.52106 0.32031,2.28906c0,0.77866 -0.10697,1.54735 -0.32031,2.30469c-0.21334,0.74666 -0.52932,1.41828 -0.94532,2.01562c-0.40533,0.59732 -0.90657,1.08174 -1.5039,1.45508c-0.59733,0.36266 -1.28383,0.54492 -2.0625,0.54492h-4.35352c-0.14933,0 -0.29792,-0.02187 -0.44726,-0.06445c-0.14933,-0.05342 -0.28802,-0.12861 -0.41602,-0.22461c-0.11734,-0.10666 -0.21245,-0.24039 -0.28711,-0.40039c-0.07466,-0.16 -0.11328,-0.35022 -0.11328,-0.57422v-10.11328c0,-0.096 0.01683,-0.21298 0.04883,-0.35156c0.032,-0.14932 0.09541,-0.28802 0.19141,-0.41602c0.096,-0.13858 0.22476,-0.25052 0.38476,-0.33593c0.17067,-0.09601 0.38267,-0.14454 0.63867,-0.14454zM104.3711,168.04786c0.23466,0.224 0.35156,0.4964 0.35156,0.8164v1.79297v0.20703h1.13672c0.20268,0 0.37306,0.0752 0.51172,0.22461c0.14934,0.13874 0.22266,0.30914 0.22266,0.51172c0,0.21342 -0.07331,0.38876 -0.22266,0.52735c-0.13868,0.13858 -0.30906,0.20898 -0.51172,0.20898h-1.13672v6.43164c0,0.30942 -0.1169,0.58182 -0.35156,0.81641c-0.224,0.224 -0.49145,0.33593 -0.80078,0.33593c-0.32001,0 -0.59737,-0.11193 -0.83203,-0.33593c-0.224,-0.23466 -0.33594,-0.50707 -0.33594,-0.81641v-6.43164h-0.67187c-0.20266,0 -0.378,-0.0704 -0.52734,-0.20898c-0.13866,-0.13859 -0.20898,-0.31393 -0.20898,-0.52735c0,-0.20273 0.07033,-0.37313 0.20898,-0.51172c0.14934,-0.14941 0.32468,-0.22461 0.52734,-0.22461h0.67187v-0.20703v-1.79297c0,-0.32 0.11194,-0.5924 0.33594,-0.8164c0.23467,-0.224 0.51203,-0.33594 0.83203,-0.33594c0.30933,0 0.57678,0.11194 0.80078,0.33594zM114.32813,177.80761h2.25586c0.62933,0 1.15041,-0.11698 1.56641,-0.35156c0.42666,-0.24532 0.76939,-0.5643 1.02539,-0.95898c0.25601,-0.39466 0.43631,-0.84241 0.54297,-1.34375c0.10666,-0.512 0.16016,-1.03008 0.16016,-1.55274c0,-0.52266 -0.0535,-1.03381 -0.16016,-1.53515c-0.10667,-0.50135 -0.28697,-0.95105 -0.54297,-1.34571c-0.256,-0.39458 -0.59872,-0.71357 -1.02539,-0.95898c-0.416,-0.24542 -0.93707,-0.36914 -1.56641,-0.36914h-2.25586zM71.45703,170.87989c0.20267,0.14926 0.33639,0.34638 0.40039,0.59179l1.50391,5.52149l1.48828,-5.32813c0.08534,-0.30926 0.24581,-0.55491 0.48047,-0.73632c0.23467,-0.18142 0.51203,-0.27149 0.83203,-0.27149c0.32,0 0.59045,0.09007 0.81445,0.27149c0.23466,0.18134 0.39513,0.42698 0.48047,0.73632l1.48828,5.32813l1.51953,-5.52149c0.064,-0.24526 0.19276,-0.44237 0.38476,-0.59179c0.19199,-0.14942 0.41091,-0.22266 0.65625,-0.22266c0.30934,0 0.56492,0.11698 0.76758,0.35156c0.20266,0.23466 0.30273,0.49024 0.30273,0.76758c0,0.10684 -0.01487,0.21373 -0.04687,0.32031l-2.04883,6.67188c-0.10667,0.34127 -0.28697,0.61861 -0.54297,0.83203c-0.256,0.21342 -0.58685,0.32031 -0.99219,0.32031c-0.29866,0 -0.57106,-0.11193 -0.81641,-0.33593c-0.23467,-0.224 -0.40009,-0.49641 -0.49609,-0.81641l-1.47266,-5.03906l-1.48633,5.03906c-0.096,0.32 -0.25647,0.59241 -0.48047,0.81641c-0.21333,0.224 -0.4907,0.33593 -0.83203,0.33593c-0.40533,0 -0.73619,-0.10689 -0.99219,-0.32031c-0.25601,-0.21334 -0.43826,-0.49069 -0.54492,-0.83203l-2.03125,-6.67188c-0.032,-0.10658 -0.04687,-0.21852 -0.04687,-0.33593c0,-0.1921 0.0317,-0.35751 0.0957,-0.4961c0.064,-0.13858 0.1492,-0.25052 0.25586,-0.33593c0.10666,-0.096 0.2186,-0.16641 0.33594,-0.20899c0.128,-0.04258 0.24985,-0.0625 0.36719,-0.0625c0.24533,0 0.46425,0.07324 0.65625,0.22266zM89.00391,171.07325c0.52267,0.26668 0.94863,0.60249 1.2793,1.00781c0.34133,0.40534 0.59195,0.84121 0.75195,1.31055c0.16,0.46931 0.24023,0.90219 0.24023,1.29687c0,0.37324 -0.07033,0.68232 -0.20898,0.92774c-0.13867,0.24541 -0.34076,0.36914 -0.60742,0.36914h-5.11914c-0.11734,0 -0.20748,0.04153 -0.27148,0.12695c-0.05334,0.07458 -0.08008,0.17669 -0.08008,0.30469c0,0.1599 0.04658,0.34517 0.14258,0.55859c0.096,0.20268 0.23964,0.40175 0.43164,0.59375c0.192,0.19198 0.42774,0.35052 0.70508,0.47852c0.288,0.128 0.61886,0.19336 0.99219,0.19336c0.22401,0 0.42114,-0.02187 0.5918,-0.06446c0.17066,-0.05341 0.33113,-0.12861 0.48047,-0.22461c0.14934,-0.096 0.29298,-0.21777 0.43164,-0.36718c0.14932,-0.15993 0.31475,-0.34713 0.49609,-0.56055c0.16001,-0.192 0.34031,-0.28906 0.54297,-0.28906c0.128,0 0.25677,0.03365 0.38477,0.09765c0.128,0.064 0.23994,0.14928 0.33594,0.25586c0.096,0.10684 0.17623,0.22861 0.24023,0.36719c0.064,0.12808 0.0957,0.26181 0.0957,0.40039c0,0.13868 -0.07527,0.3358 -0.22461,0.5918c-0.13867,0.24531 -0.35758,0.49595 -0.65625,0.75195c-0.29867,0.24534 -0.67114,0.46425 -1.11914,0.65625c-0.448,0.18142 -0.98094,0.27149 -1.59961,0.27149c-0.704,0 -1.33401,-0.12682 -1.88867,-0.38282c-0.55467,-0.256 -1.0242,-0.5987 -1.4082,-1.02539c-0.37334,-0.43731 -0.66062,-0.93856 -0.86328,-1.5039c-0.192,-0.576 -0.28906,-1.18422 -0.28906,-1.82422c0,-0.64 0.0852,-1.24133 0.25586,-1.80664c0.18133,-0.576 0.45374,-1.07723 0.81641,-1.50391c0.36266,-0.43732 0.81733,-0.78502 1.36133,-1.04102c0.544,-0.256 1.18392,-0.38281 1.91992,-0.38281c0.71467,0 1.32784,0.1387 1.83984,0.41602zM98.09375,171.07325c0.52267,0.26668 0.94863,0.60249 1.2793,1.00781c0.34133,0.40534 0.59195,0.84121 0.75195,1.31055c0.16,0.46931 0.24023,0.90219 0.24023,1.29687c0,0.37324 -0.07033,0.68232 -0.20898,0.92774c-0.13867,0.24541 -0.34076,0.36914 -0.60742,0.36914h-5.11914c-0.11734,0 -0.20944,0.04153 -0.27344,0.12695c-0.05334,0.07458 -0.08008,0.17669 -0.08008,0.30469c0,0.1599 0.04853,0.34517 0.14453,0.55859c0.096,0.20268 0.23964,0.40175 0.43164,0.59375c0.192,0.19198 0.42774,0.35052 0.70508,0.47852c0.288,0.128 0.61886,0.19336 0.99219,0.19336c0.22401,0 0.42114,-0.02187 0.5918,-0.06446c0.17066,-0.05341 0.32917,-0.12861 0.47852,-0.22461c0.14934,-0.096 0.29493,-0.21777 0.43359,-0.36718c0.14932,-0.15993 0.31475,-0.34713 0.49609,-0.56055c0.16001,-0.192 0.34031,-0.28906 0.54297,-0.28906c0.128,0 0.25677,0.03365 0.38477,0.09765c0.128,0.064 0.23994,0.14928 0.33594,0.25586c0.096,0.10684 0.17623,0.22861 0.24023,0.36719c0.064,0.12808 0.0957,0.26181 0.0957,0.40039c0,0.13868 -0.07527,0.3358 -0.22461,0.5918c-0.13867,0.24531 -0.35758,0.49595 -0.65625,0.75195c-0.29866,0.24534 -0.67114,0.46425 -1.11914,0.65625c-0.448,0.18142 -0.98094,0.27149 -1.59961,0.27149c-0.704,0 -1.33401,-0.12682 -1.88867,-0.38282c-0.55466,-0.256 -1.0242,-0.5987 -1.4082,-1.02539c-0.37334,-0.43731 -0.66062,-0.93856 -0.86328,-1.5039c-0.192,-0.576 -0.28906,-1.18422 -0.28906,-1.82422c0,-0.64 0.0852,-1.24133 0.25586,-1.80664c0.18133,-0.576 0.45374,-1.07723 0.81641,-1.50391c0.36267,-0.43732 0.81537,-0.78502 1.35937,-1.04102c0.544,-0.256 1.18392,-0.38281 1.91992,-0.38281c0.71467,0 1.3298,0.1387 1.8418,0.41602zM125.25196,171.00879c0.224,0.224 0.33594,0.49144 0.33594,0.80079c0.096,-0.10684 0.2129,-0.23056 0.35156,-0.36914c0.14934,-0.13884 0.30981,-0.26061 0.48047,-0.36719c0.18133,-0.11742 0.36659,-0.21448 0.55859,-0.28907c0.192,-0.08541 0.38417,-0.12695 0.57617,-0.12695c0.42666,0 0.7159,0.11194 0.86524,0.33594c0.16,0.224 0.24023,0.48454 0.24023,0.7832c0,0.24534 -0.06039,0.43255 -0.17773,0.56055c-0.10668,0.11742 -0.24536,0.20748 -0.41602,0.27148c-0.16,0.064 -0.33534,0.11758 -0.52734,0.16016c-0.19201,0.032 -0.37231,0.08053 -0.54297,0.14453c-0.30934,0.11732 -0.55995,0.27089 -0.75195,0.46289c-0.18134,0.18127 -0.32002,0.38033 -0.41602,0.59375c-0.096,0.20258 -0.16136,0.40963 -0.19336,0.62305c-0.032,0.21324 -0.04687,0.41038 -0.04687,0.5918v3.58398c0,0.32 -0.11691,0.59241 -0.35157,0.81641c-0.224,0.224 -0.4964,0.33593 -0.8164,0.33593c-0.30934,0 -0.58175,-0.11193 -0.81641,-0.33593c-0.224,-0.23466 -0.33594,-0.50707 -0.33594,-0.81641v-6.95898c0,-0.30935 0.11194,-0.57679 0.33594,-0.80079c0.23467,-0.23458 0.51203,-0.35156 0.83203,-0.35156c0.32,0 0.59241,0.11698 0.81641,0.35156zM135.24219,171.00879c0.56534,0.224 1.05666,0.54299 1.47266,0.95899c0.41601,0.416 0.7419,0.91725 0.97656,1.5039c0.24534,0.576 0.36719,1.21593 0.36719,1.91993c0,0.704 -0.12185,1.35081 -0.36719,1.9375c-0.23466,0.57597 -0.56056,1.07228 -0.97656,1.48828c-0.416,0.4161 -0.90732,0.74002 -1.47266,0.97461c-0.56533,0.224 -1.17355,0.33594 -1.82422,0.33594c-0.64,0 -1.24131,-0.11194 -1.80664,-0.33594c-0.56533,-0.23469 -1.05665,-0.55861 -1.47265,-0.97461c-0.416,-0.416 -0.74685,-0.91231 -0.99219,-1.48828c-0.23466,-0.58669 -0.35156,-1.2335 -0.35156,-1.9375c0,-0.704 0.1169,-1.34393 0.35156,-1.91993c0.24533,-0.58665 0.57619,-1.0879 0.99219,-1.5039c0.416,-0.416 0.90732,-0.73499 1.47265,-0.95899c0.56533,-0.23458 1.16664,-0.35156 1.80664,-0.35156c0.65067,0 1.25889,0.11698 1.82422,0.35156zM141.09766,171.00879c0.23466,0.224 0.35156,0.49144 0.35156,0.80079c0.096,-0.12811 0.20794,-0.26181 0.33594,-0.4004c0.13867,-0.13883 0.30906,-0.26255 0.51172,-0.36914c0.21333,-0.11741 0.46395,-0.20748 0.75195,-0.27148c0.29867,-0.07458 0.65627,-0.11133 1.07227,-0.11133c0.52267,0 0.99716,0.11194 1.42383,0.33594c0.43733,0.224 0.81176,0.54298 1.12109,0.95898c0.30933,0.40532 0.54313,0.89666 0.70313,1.47266c0.17065,0.56534 0.25586,1.19039 0.25585,1.87305c0,0.68268 -0.0852,1.30577 -0.25585,1.87109c-0.16,0.56534 -0.3938,1.05666 -0.70313,1.47266c-0.30933,0.40531 -0.68376,0.71936 -1.12109,0.94336c-0.42667,0.224 -0.90116,0.33593 -1.42383,0.33593c-0.39467,0 -0.7404,-0.05836 -1.03906,-0.17578c-0.29866,-0.11741 -0.55619,-0.24618 -0.76954,-0.38476c-0.20266,-0.14927 -0.36809,-0.28298 -0.49609,-0.40039c-0.128,-0.11742 -0.22311,-0.17579 -0.28711,-0.17579c-0.05334,0 -0.08008,0.07041 -0.08008,0.20899v3.13477c0,0.31999 -0.1169,0.5924 -0.35156,0.8164c-0.224,0.23458 -0.49641,0.35156 -0.8164,0.35156c-0.30935,0 -0.58175,-0.11698 -0.81641,-0.35156c-0.224,-0.224 -0.33594,-0.49641 -0.33594,-0.8164v-10.31836c0,-0.30935 0.11194,-0.57679 0.33594,-0.80079c0.23467,-0.23458 0.50707,-0.35156 0.81641,-0.35156c0.31999,0 0.5924,0.11698 0.8164,0.35156zM132.36329,172.59278c-0.30934,0.16 -0.57679,0.38387 -0.80079,0.67187c-0.21332,0.27735 -0.37875,0.60325 -0.49609,0.97657c-0.11734,0.36268 -0.17578,0.74507 -0.17578,1.15039c0,0.40534 0.05844,0.79462 0.17578,1.16797c0.11733,0.37331 0.28275,0.69922 0.49609,0.97656c0.22401,0.27742 0.49145,0.50129 0.80079,0.67187c0.30933,0.16 0.66002,0.24024 1.05468,0.24024c0.39467,0 0.74731,-0.08024 1.05664,-0.24024c0.32,-0.17068 0.58744,-0.39456 0.80079,-0.67187c0.21332,-0.27734 0.37875,-0.60325 0.49609,-0.97656c0.11734,-0.37335 0.17578,-0.76263 0.17578,-1.16797c0,-0.40532 -0.05844,-0.78771 -0.17578,-1.15039c-0.11732,-0.37332 -0.28275,-0.69922 -0.49609,-0.97657c-0.21334,-0.288 -0.48079,-0.51187 -0.80079,-0.67187c-0.30933,-0.17058 -0.66197,-0.25586 -1.05664,-0.25586c-0.39466,0 -0.74535,0.08528 -1.05468,0.25586zM86.23633,172.71973c-0.25601,0.10674 -0.46997,0.24543 -0.64062,0.41602c-0.16,0.15992 -0.2838,0.3303 -0.36914,0.51172c-0.08534,0.18141 -0.12695,0.34188 -0.12695,0.48047c0,0.21341 0.08023,0.32031 0.24023,0.32031h3.64844c0.13866,0 0.20703,-0.10015 0.20703,-0.30274c0,-0.13858 -0.04161,-0.29905 -0.12695,-0.48047c-0.07468,-0.18131 -0.19848,-0.35171 -0.36914,-0.51171c-0.16,-0.17059 -0.36705,-0.31618 -0.62305,-0.4336c-0.256,-0.11742 -0.56011,-0.17578 -0.91211,-0.17578c-0.352,0 -0.66107,0.05836 -0.92773,0.17578zM95.32422,172.71973c-0.25601,0.10674 -0.46801,0.24543 -0.63867,0.41602c-0.16,0.15992 -0.2838,0.3303 -0.36914,0.51172c-0.08534,0.18141 -0.12695,0.34188 -0.12695,0.48047c0,0.21341 0.08023,0.32031 0.24023,0.32031h3.64648c0.13866,0 0.20898,-0.10015 0.20898,-0.30274c0,-0.13858 -0.04356,-0.29905 -0.12891,-0.48047c-0.07468,-0.18131 -0.19653,-0.35171 -0.36719,-0.51171c-0.16,-0.17059 -0.369,-0.31618 -0.625,-0.4336c-0.256,-0.11742 -0.56011,-0.17578 -0.91211,-0.17578c-0.352,0 -0.66107,0.05836 -0.92773,0.17578zM141.80079,173.28028c-0.37334,0.49068 -0.5586,1.16231 -0.5586,2.01562c0,0.84269 0.18526,1.50935 0.5586,2c0.37333,0.49066 0.89636,0.73633 1.56836,0.73633c0.68266,0 1.21065,-0.24567 1.58398,-0.73633c0.37333,-0.49065 0.56055,-1.15731 0.56055,-2c0,-0.85331 -0.18722,-1.52494 -0.56055,-2.01562c-0.37333,-0.49066 -0.90132,-0.73633 -1.58398,-0.73633c-0.672,0 -1.19503,0.24567 -1.56836,0.73633z" data-paper-data="{&quot;origPos&quot;:null}" id="path1777" fill="#1eff00" stroke="none" stroke-width="1" stroke-miterlimit="10" stroke-dashoffset="0"/><path d="M160.851,193.12763c0.47209,0 0.8636,1.59402 1.24554,1.87151c0.38194,0.27742 2.0189,0.15723 2.16479,0.60627c0.14589,0.44897 -1.24911,1.31388 -1.395,1.76288c-0.14589,0.44897 0.4743,1.96868 0.09245,2.24617c-0.38194,0.27742 -1.63561,-0.78195 -2.10771,-0.78195c-0.4721,0 -1.72577,1.05944 -2.10771,0.78195c-0.38194,-0.27742 0.23826,-1.7972 0.09245,-2.24617c-0.14589,-0.44901 -1.54089,-1.31391 -1.39501,-1.76288c0.14589,-0.44901 1.78287,-0.32882 2.16479,-0.60627c0.38193,-0.27742 0.77345,-1.87151 1.24555,-1.87151z" data-paper-data="{&quot;origPos&quot;:null}" id="path1428-0-0-2-3-6-9-6-16" fill="#1eff00" stroke="none" stroke-width="0.3263" stroke-miterlimit="4" stroke-dashoffset="17.35"/></g></g></svg>