<svg version="1.1" xmlns="http://www.w3.org/2000/svg" xmlns:xlink="http://www.w3.org/1999/xlink" width="372.21489" height="68.64262" viewBox="0,0,372.21489,68.64262"><g transform="translate(-53.89255,-145.67869)"><g data-paper-data="{&quot;isPaintingLayer&quot;:true}" fill-rule="nonzero" stroke-linecap="butt" stroke-linejoin="miter" stroke-dasharray="" style="mix-blend-mode: normal"><path d="M425.00973,146.42869c0.19313,0 0.34772,0.15458 0.34772,0.34772v66.4453c0,0.19313 -0.15458,0.34961 -0.34772,0.34961h-370.01757c-0.19313,0 -0.34961,-0.15647 -0.34961,-0.34961v-66.4453c0,-0.19313 0.15647,-0.34772 0.34961,-0.34772z" fill="#1e1e1e" stroke="#1eff00" stroke-width="1.5" stroke-miterlimit="4" stroke-dashoffset="17.35"/><path d="M68.48633,152.73047c0.54973,0.16169 1.0182,0.377 1.40625,0.64648c0.39882,0.26948 0.70629,0.57209 0.92187,0.90625c0.21558,0.33414 0.32422,0.6678 0.32422,1.00196c0,0.28036 -0.097,0.50734 -0.29102,0.67968c-0.18323,0.16177 -0.38887,0.24219 -0.61523,0.24219c-0.1617,0 -0.313,-0.04273 -0.45312,-0.12891c-0.14014,-0.09695 -0.25167,-0.24827 -0.33789,-0.45312c-0.12934,-0.3234 -0.30199,-0.58137 -0.51758,-0.77539c-0.2048,-0.20475 -0.43661,-0.36091 -0.69531,-0.46875c-0.24792,-0.11868 -0.51271,-0.19431 -0.79297,-0.22656c-0.28025,-0.04309 -0.54989,-0.06446 -0.80859,-0.06446c-0.38805,0 -0.74788,0.04274 -1.08203,0.12891c-0.32338,0.07534 -0.60951,0.18891 -0.85742,0.33984c-0.23715,0.14002 -0.42629,0.31752 -0.56641,0.53321c-0.12936,0.2048 -0.19336,0.44145 -0.19336,0.71093c0,0.36654 0.10668,0.66915 0.32227,0.90625c0.22636,0.23706 0.52414,0.4359 0.89062,0.59766c0.36649,0.16159 0.78064,0.30125 1.24414,0.41992c0.4635,0.11868 0.93681,0.24379 1.42187,0.37305c0.49584,0.12941 0.97595,0.28557 1.43945,0.46875c0.4635,0.17247 0.8796,0.39749 1.24609,0.67773c0.36648,0.28027 0.65746,0.62556 0.87305,1.03516c0.22637,0.4096 0.33984,0.91105 0.33984,1.50391c0,0.65753 -0.12998,1.22785 -0.38867,1.71289c-0.24792,0.48506 -0.59321,0.88951 -1.03516,1.21289c-0.44194,0.3233 -0.95988,0.56675 -1.55273,0.72851c-0.59285,0.16177 -1.22232,0.24219 -1.89062,0.24219c-0.95933,0 -1.77795,-0.13484 -2.45703,-0.4043c-0.6683,-0.28026 -1.21438,-0.61389 -1.63476,-1.00195c-0.42039,-0.39882 -0.72591,-0.81492 -0.91992,-1.24609c-0.19402,-0.44193 -0.29102,-0.82311 -0.29102,-1.14649c0,-0.38798 0.097,-0.66441 0.29102,-0.82617c0.2048,-0.16176 0.41332,-0.24219 0.62891,-0.24219c0.18325,0 0.35105,0.05906 0.50195,0.17774c0.1509,0.10776 0.24306,0.28526 0.27539,0.5332c0.06467,0.40963 0.20434,0.77139 0.41992,1.08399c0.22636,0.31246 0.50085,0.57728 0.82422,0.79296c0.32337,0.20478 0.68516,0.36091 1.08398,0.46875c0.39883,0.10785 0.80813,0.16211 1.22851,0.16211c0.33415,0 0.67945,-0.03794 1.03516,-0.11328c0.36649,-0.08617 0.69529,-0.21128 0.98633,-0.37304c0.3018,-0.17248 0.54331,-0.39263 0.72656,-0.66211c0.19402,-0.26948 0.29102,-0.59344 0.29102,-0.97071c0,-0.4096 -0.11347,-0.7481 -0.33984,-1.01758c-0.21558,-0.26953 -0.50656,-0.4965 -0.87305,-0.67968c-0.35571,-0.18313 -0.76501,-0.33445 -1.22851,-0.45313c-0.4635,-0.12943 -0.93682,-0.25746 -1.42187,-0.38672c-0.48506,-0.12928 -0.96033,-0.27573 -1.42383,-0.4375c-0.4635,-0.17244 -0.87765,-0.38779 -1.24414,-0.64648c-0.3557,-0.26948 -0.64668,-0.59343 -0.87305,-0.9707c-0.21558,-0.38806 -0.32422,-0.86817 -0.32422,-1.43946c0,-0.53893 0.11348,-1.01711 0.33984,-1.4375c0.23714,-0.42038 0.5611,-0.77731 0.9707,-1.06836c0.4096,-0.291 0.89457,-0.51118 1.45508,-0.66211c0.56051,-0.15093 1.17545,-0.22656 1.84375,-0.22656c0.64674,0 1.23839,0.08042 1.77734,0.24219zM84.33399,153.02148c0.77609,0.35571 1.4337,0.83584 1.97266,1.43946c0.54973,0.60364 0.96873,1.3039 1.25976,2.10156c0.30182,0.79763 0.45312,1.63956 0.45312,2.52344c0,0.89466 -0.15131,1.73945 -0.45312,2.53711c-0.29103,0.79765 -0.71003,1.49794 -1.25976,2.10156c-0.53895,0.60364 -1.19656,1.08375 -1.97266,1.43945c-0.76531,0.35571 -1.62855,0.53321 -2.58789,0.53321c-0.95934,0 -1.82742,-0.1775 -2.60352,-0.53321c-0.76531,-0.3557 -1.42292,-0.83581 -1.97266,-1.43945c-0.53895,-0.60362 -0.95795,-1.30391 -1.25977,-2.10156c-0.29104,-0.79766 -0.4375,-1.64245 -0.4375,-2.53711c0,-0.88388 0.14646,-1.72581 0.4375,-2.52344c0.30181,-0.79766 0.72081,-1.49792 1.25977,-2.10156c0.54973,-0.60362 1.20734,-1.08375 1.97266,-1.43946c0.77609,-0.3557 1.64418,-0.5332 2.60352,-0.5332c0.95934,0 1.82258,0.1775 2.58789,0.5332zM98.77149,152.73047c0.54973,0.16169 1.0182,0.377 1.40625,0.64648c0.39882,0.26948 0.70629,0.57209 0.92188,0.90625c0.21558,0.33414 0.32227,0.6678 0.32227,1.00196c-0.00001,0.28036 -0.097,0.50734 -0.29102,0.67968c-0.18323,0.16177 -0.38691,0.24219 -0.61328,0.24219c-0.1617,0 -0.313,-0.04273 -0.45312,-0.12891c-0.14014,-0.09695 -0.25362,-0.24827 -0.33984,-0.45312c-0.12934,-0.3234 -0.30199,-0.58137 -0.51758,-0.77539c-0.2048,-0.20475 -0.43661,-0.36091 -0.69531,-0.46875c-0.24792,-0.11868 -0.51076,-0.19431 -0.79102,-0.22656c-0.28025,-0.04309 -0.54989,-0.06446 -0.80859,-0.06446c-0.38805,0 -0.74983,0.04274 -1.08398,0.12891c-0.32338,0.07534 -0.60951,0.18891 -0.85742,0.33984c-0.23715,0.14002 -0.42433,0.31752 -0.56445,0.53321c-0.12933,0.2048 -0.19531,0.44145 -0.19531,0.71093c0,0.36654 0.10863,0.66915 0.32422,0.90625c0.22636,0.23706 0.52218,0.4359 0.88867,0.59766c0.36649,0.16159 0.78259,0.30125 1.24609,0.41992c0.4635,0.11868 0.93681,0.24379 1.42187,0.37305c0.49584,0.12941 0.97595,0.28557 1.43945,0.46875c0.4635,0.17247 0.87765,0.39749 1.24414,0.67773c0.36649,0.28027 0.65746,0.62556 0.87305,1.03516c0.22637,0.4096 0.33984,0.91105 0.33984,1.50391c0,0.65753 -0.12802,1.22785 -0.38672,1.71289c-0.24792,0.48506 -0.59321,0.88951 -1.03515,1.21289c-0.44194,0.3233 -0.95988,0.56675 -1.55273,0.72851c-0.59285,0.16177 -1.22427,0.24219 -1.89258,0.24219c-0.95933,0 -1.77795,-0.13484 -2.45703,-0.4043c-0.6683,-0.28026 -1.21243,-0.61389 -1.63281,-1.00195c-0.42039,-0.39882 -0.72786,-0.81492 -0.92187,-1.24609c-0.19402,-0.44193 -0.29102,-0.82311 -0.29102,-1.14649c0,-0.38798 0.097,-0.66441 0.29102,-0.82617c0.2048,-0.16176 0.41527,-0.24219 0.63086,-0.24219c0.18325,0 0.35105,0.05906 0.50195,0.17774c0.15093,0.10776 0.24111,0.28526 0.27344,0.5332c0.06467,0.40963 0.20629,0.77139 0.42187,1.08399c0.22636,0.31246 0.50085,0.57728 0.82422,0.79296c0.32337,0.20478 0.6832,0.36091 1.08203,0.46875c0.39883,0.10785 0.81008,0.16211 1.23047,0.16211c0.33415,0 0.67749,-0.03794 1.0332,-0.11328c0.36649,-0.08617 0.69529,-0.21128 0.98633,-0.37304c0.3018,-0.17248 0.54526,-0.39263 0.72852,-0.66211c0.19401,-0.26948 0.29101,-0.59344 0.29101,-0.97071c0,-0.4096 -0.11347,-0.7481 -0.33984,-1.01758c-0.21558,-0.26953 -0.50656,-0.4965 -0.87305,-0.67968c-0.35571,-0.18313 -0.76501,-0.33445 -1.22852,-0.45313c-0.4635,-0.12943 -0.93877,-0.25746 -1.42383,-0.38672c-0.48506,-0.12928 -0.95838,-0.27573 -1.42187,-0.4375c-0.4635,-0.17244 -0.87961,-0.38779 -1.24609,-0.64648c-0.3557,-0.26948 -0.64668,-0.59343 -0.87305,-0.9707c-0.21558,-0.38806 -0.32226,-0.86817 -0.32226,-1.43946c0,-0.53893 0.11347,-1.01711 0.33984,-1.4375c0.23714,-0.42038 0.55914,-0.77731 0.96875,-1.06836c0.4096,-0.291 0.89457,-0.51118 1.45508,-0.66211c0.56051,-0.15093 1.17545,-0.22656 1.84375,-0.22656c0.64674,0 1.24034,0.08042 1.7793,0.24219zM80.03321,154.55859c-0.52817,0.22637 -0.9918,0.54837 -1.39062,0.96875c-0.38804,0.42039 -0.69551,0.9335 -0.92187,1.53711c-0.22637,0.60364 -0.33984,1.27775 -0.33984,2.02149c0,0.74376 0.11348,1.41589 0.33984,2.01953c0.22636,0.60361 0.53383,1.12156 0.92187,1.55273c0.39883,0.42041 0.86245,0.74923 1.39062,0.98633c0.52817,0.22627 1.09848,0.33985 1.71289,0.33985c0.6144,0 1.18667,-0.11358 1.71484,-0.33985c0.52817,-0.23713 0.985,-0.56594 1.37305,-0.98633c0.39882,-0.43117 0.71113,-0.94912 0.9375,-1.55273c0.22637,-0.60364 0.33984,-1.27577 0.33984,-2.01953c0,-0.74374 -0.11347,-1.41785 -0.33984,-2.02149c-0.22636,-0.60361 -0.53867,-1.11672 -0.9375,-1.53711c-0.38804,-0.42048 -0.84487,-0.74248 -1.37305,-0.96875c-0.52818,-0.2371 -1.10044,-0.35547 -1.71484,-0.35547c-0.61441,0 -1.18472,0.11837 -1.71289,0.35547zM74.46094,163.48242c0.23713,0.22637 0.35742,0.50084 0.35742,0.82422c0,0.31262 -0.12029,0.58907 -0.35742,0.82617c-0.22636,0.22627 -0.496,0.33789 -0.80859,0.33789c-0.32338,0 -0.60272,-0.11162 -0.83984,-0.33789c-0.22637,-0.23713 -0.33984,-0.51358 -0.33984,-0.82617c0,-0.32348 0.11347,-0.59795 0.33984,-0.82422c0.23714,-0.2371 0.51647,-0.35547 0.83984,-0.35547c0.31258,0 0.58222,0.11837 0.80859,0.35547zM90.66211,163.48242c0.23715,0.22637 0.35547,0.50084 0.35547,0.82422c0,0.31262 -0.11832,0.58907 -0.35547,0.82617c-0.22636,0.22627 -0.496,0.33789 -0.80859,0.33789c-0.32338,0 -0.60272,-0.11162 -0.83984,-0.33789c-0.22637,-0.23713 -0.33984,-0.51358 -0.33984,-0.82617c0,-0.32348 0.11347,-0.59795 0.33984,-0.82422c0.23714,-0.2371 0.51647,-0.35547 0.83984,-0.35547c0.31258,0 0.58222,0.11837 0.80859,0.35547zM104.74609,163.48242c0.23713,0.22637 0.35547,0.50084 0.35547,0.82422c0,0.31262 -0.11834,0.58907 -0.35547,0.82617c-0.22636,0.22627 -0.496,0.33789 -0.80859,0.33789c-0.32338,0 -0.60272,-0.11162 -0.83984,-0.33789c-0.22637,-0.23713 -0.33985,-0.51358 -0.33985,-0.82617c0,-0.32348 0.11348,-0.59795 0.33985,-0.82422c0.23714,-0.2371 0.51647,-0.35547 0.83984,-0.35547c0.31258,0 0.58223,0.11837 0.80859,0.35547zM116.72266,167.28711c0.18325,0.08617 0.34425,0.20454 0.48437,0.35547c0.15091,0.14007 0.28088,0.31273 0.38867,0.51758c0.1078,0.19391 0.19995,0.39955 0.27539,0.61523l3.34571,9.66797c0.05389,0.16171 0.08203,0.31303 0.08203,0.45312c0,0.12934 -0.02814,0.269 -0.08203,0.41993c-0.04311,0.1508 -0.11198,0.28562 -0.20899,0.40429c-0.09701,0.11868 -0.22214,0.22242 -0.37304,0.3086c-0.15091,0.07534 -0.33325,0.11328 -0.54883,0.11328c-0.25869,0 -0.50215,-0.07564 -0.72852,-0.22656c-0.21559,-0.15091 -0.36495,-0.35654 -0.45117,-0.61524l-0.92187,-3.08789h-3.75196l-0.92187,3.08789c-0.08623,0.25867 -0.24238,0.46431 -0.46875,0.61524c-0.21558,0.15092 -0.45224,0.22656 -0.71094,0.22656c-0.37726,0 -0.67988,-0.12511 -0.90625,-0.37305c-0.21558,-0.25869 -0.32227,-0.54967 -0.32227,-0.87305c0,-0.14004 0.02619,-0.29136 0.08008,-0.45312l3.36328,-9.66797c0.07544,-0.21558 0.1676,-0.42122 0.27539,-0.61523c0.1078,-0.20483 0.23098,-0.37749 0.3711,-0.51758c0.14014,-0.15093 0.30309,-0.2693 0.48633,-0.35547c0.18323,-0.08617 0.39175,-0.12891 0.6289,-0.12891c0.22635,0 0.43198,0.04274 0.61524,0.12891zM68.03321,167.38477c0.4635,0 0.90579,0.08042 1.32617,0.24218c0.43116,0.15091 0.80944,0.36622 1.13281,0.64649c0.32338,0.26948 0.58137,0.59345 0.77539,0.9707c0.19402,0.37727 0.29102,0.78172 0.29102,1.21289c0,0.45271 -0.064,0.83585 -0.19336,1.14844c-0.11858,0.31254 -0.27473,0.57054 -0.46875,0.77539c-0.19403,0.2049 -0.41615,0.37074 -0.66406,0.5c-0.24793,0.11868 -0.49623,0.22721 -0.74414,0.32422c0.19402,0.06475 0.42583,0.17329 0.69531,0.32422c0.28025,0.14012 0.54989,0.33896 0.80859,0.59765c0.25868,0.2587 0.4808,0.59236 0.66406,1.00196c0.18323,0.39884 0.27344,0.89058 0.27344,1.47265c0,0.52815 -0.10668,1.00633 -0.32227,1.4375c-0.21558,0.43117 -0.50171,0.8046 -0.85742,1.11719c-0.35571,0.31247 -0.76986,0.55396 -1.24414,0.72656c-0.4635,0.17235 -0.95526,0.25977 -1.47266,0.25977l-4.94726,-0.00196c-0.15091,0 -0.30222,-0.02136 -0.45313,-0.06445c-0.1509,-0.05392 -0.29056,-0.12955 -0.41992,-0.22656c-0.11858,-0.10772 -0.21558,-0.24253 -0.29102,-0.4043c-0.07546,-0.16176 -0.11328,-0.35576 -0.11328,-0.58203v-10.21875c0,-0.09701 0.0165,-0.21537 0.04883,-0.35547c0.03235,-0.15098 0.09151,-0.29066 0.17773,-0.41992c0.09701,-0.14009 0.22698,-0.25367 0.38867,-0.33984c0.17246,-0.09701 0.38779,-0.14453 0.64648,-0.14453zM87.02735,167.70703c0.25871,0.2048 0.43135,0.48609 0.51758,0.8418l1.95508,7.9707l1.71484,-7.9707c0.07545,-0.35566 0.2413,-0.63695 0.5,-0.8418c0.2587,-0.21568 0.57296,-0.32226 0.93945,-0.32226c0.36649,0 0.6788,0.10658 0.9375,0.32226c0.25869,0.2048 0.42453,0.48609 0.5,0.8418l1.71484,7.9707l1.95508,-7.9707c0.08623,-0.35566 0.25888,-0.63695 0.51758,-0.8418c0.2587,-0.21568 0.57296,-0.32226 0.93945,-0.32226c0.28026,0 0.51692,0.10179 0.71094,0.30664c0.2048,0.2048 0.30664,0.43661 0.30664,0.69531c0,0.05392 -0.01153,0.13434 -0.0332,0.24219l-2.8457,10.12304c-0.10779,0.38806 -0.29013,0.71685 -0.54883,0.98633c-0.2587,0.26946 -0.59235,0.4043 -1.00195,0.4043c-0.4096,0 -0.75006,-0.12998 -1.01953,-0.38867c-0.26948,-0.26946 -0.44698,-0.60312 -0.5332,-1.00196l-1.60156,-7.29297l-1.59961,7.29297c-0.08623,0.39884 -0.26373,0.7325 -0.5332,1.00196c-0.26948,0.25869 -0.60993,0.38671 -1.01953,0.38671c-0.4096,0 -0.74325,-0.13288 -1.00195,-0.40234c-0.2587,-0.26948 -0.44104,-0.59827 -0.54883,-0.98633l-2.8457,-10.12304c-0.02167,-0.10785 -0.0332,-0.18348 -0.0332,-0.22657c0,-0.26943 0.10184,-0.50608 0.30664,-0.71093c0.2048,-0.20485 0.44341,-0.30664 0.71289,-0.30664c0.36649,0 0.6788,0.10658 0.9375,0.32226zM109.32031,167.38477c0.29104,0 0.53934,0.10179 0.74414,0.30664c0.2048,0.2048 0.3086,0.45309 0.3086,0.74414c0,0.30175 -0.1038,0.55491 -0.3086,0.75976c-0.2048,0.20485 -0.4531,0.30664 -0.74414,0.30664h-5.6582v2.76563h4.75391c0.30181,0 0.55496,0.10853 0.75976,0.32422c0.2048,0.2048 0.30664,0.45116 0.30664,0.74218c0,0.29093 -0.10184,0.54408 -0.30664,0.75977c-0.2048,0.20485 -0.45795,0.30859 -0.75976,0.30859l-4.75391,-0.00195v3.62305h5.6582c0.29104,0 0.53934,0.10179 0.74414,0.30664c0.2048,0.2048 0.3086,0.45312 0.3086,0.74414c0,0.30176 -0.1038,0.55491 -0.3086,0.75976c-0.2048,0.20485 -0.4531,0.30664 -0.74414,0.30664h-6.85547c-0.15091,0 -0.30026,-0.02136 -0.45117,-0.06445c-0.15092,-0.05392 -0.29254,-0.12955 -0.42187,-0.22656c-0.11855,-0.10772 -0.21555,-0.24253 -0.29102,-0.4043c-0.07544,-0.16176 -0.11328,-0.35576 -0.11328,-0.58203v-10.21875c0,-0.09701 0.0165,-0.21537 0.04883,-0.35547c0.03235,-0.15098 0.0983,-0.29066 0.19531,-0.41992c0.09701,-0.14009 0.22503,-0.25367 0.38672,-0.33984c0.17246,-0.09701 0.38779,-0.14453 0.64648,-0.14453zM122.04492,167.5625c0.20479,0.1186 0.34446,0.2961 0.41992,0.5332l2.58789,8.42383l2.60352,-8.42383c0.07546,-0.23702 0.21028,-0.41452 0.4043,-0.5332c0.2048,-0.11868 0.42982,-0.17773 0.67773,-0.17773c0.19402,0 0.37347,0.03794 0.53516,0.11328c0.16168,0.07534 0.29455,0.17234 0.40234,0.29101c0.11855,0.10777 0.21071,0.23775 0.27539,0.38867c0.06468,0.14017 0.09766,0.27983 0.09766,0.41993c0,0.12926 -0.02134,0.24283 -0.06445,0.33984l-3.70313,10.29883c-0.09701,0.28019 -0.25317,0.50034 -0.46875,0.66211c-0.2048,0.16176 -0.45795,0.24414 -0.75977,0.24414c-0.29103,0 -0.54418,-0.08238 -0.75976,-0.24414c-0.21559,-0.16169 -0.37174,-0.38185 -0.46875,-0.66211l-3.6875,-10.29883c-0.04311,-0.09701 -0.06445,-0.21058 -0.06445,-0.33984c0,-0.12939 0.02813,-0.26421 0.08203,-0.4043c0.05389,-0.1508 0.13439,-0.28562 0.24218,-0.4043c0.10779,-0.11867 0.24261,-0.21567 0.4043,-0.29101c0.16168,-0.07534 0.35566,-0.11328 0.58203,-0.11328c0.24793,0 0.4681,0.05905 0.66211,0.17773zM139.09961,167.38477c0.29104,0 0.53934,0.10179 0.74414,0.30664c0.2048,0.2048 0.30859,0.45309 0.30859,0.74414c0,0.30175 -0.10379,0.55491 -0.30859,0.75976c-0.2048,0.20485 -0.4531,0.30664 -0.74414,0.30664h-5.6582v2.76563h4.7539c0.30182,0 0.55497,0.10853 0.75977,0.32422c0.2048,0.2048 0.30664,0.45116 0.30664,0.74218c0,0.29093 -0.10184,0.54408 -0.30664,0.75977c-0.2048,0.20485 -0.45795,0.30859 -0.75977,0.30859l-4.7539,-0.00195v3.62305h5.6582c0.29104,0 0.53934,0.10179 0.74414,0.30664c0.2048,0.2048 0.30859,0.45312 0.30859,0.74414c0,0.30176 -0.10379,0.55491 -0.30859,0.75976c-0.2048,0.20485 -0.4531,0.30664 -0.74414,0.30664h-6.85547c-0.15091,0 -0.30027,-0.02136 -0.45117,-0.06445c-0.1509,-0.05392 -0.29252,-0.12955 -0.42188,-0.22656c-0.11855,-0.10772 -0.21555,-0.24253 -0.29101,-0.4043c-0.07544,-0.16176 -0.11328,-0.35576 -0.11328,-0.58203v-10.21875c0,-0.09701 0.0165,-0.21537 0.04882,-0.35547c0.03236,-0.15098 0.09831,-0.29066 0.19532,-0.41992c0.09701,-0.14009 0.22503,-0.25367 0.38672,-0.33984c0.17246,-0.09701 0.38778,-0.14453 0.64648,-0.14453zM147.76367,167.38477c0.45272,0 0.88337,0.08546 1.29297,0.25781c0.40961,0.17245 0.76459,0.41106 1.06641,0.71289c0.3018,0.30181 0.54042,0.6568 0.71289,1.06641c0.18323,0.39881 0.27344,0.82944 0.27344,1.29296c0,0.73298 -0.18234,1.36927 -0.54883,1.90821c-0.35571,0.53898 -0.89015,0.92696 -1.60157,1.16406c-0.11857,0.04309 -0.17773,0.08582 -0.17773,0.12891c0,0.06475 0.06598,0.11423 0.19531,0.14648c0.19404,0.0325 0.38122,0.09156 0.56446,0.17773c0.19402,0.08618 0.36667,0.19975 0.51757,0.33985c0.15091,0.12941 0.28088,0.28557 0.38868,0.46875c0.10769,0.17237 0.17169,0.36634 0.19335,0.58203l0.37305,3.37891c0.02157,0.18328 -0.00656,0.34428 -0.08203,0.48437c-0.06465,0.1401 -0.16165,0.25846 -0.29102,0.35547c-0.11856,0.09701 -0.25823,0.17264 -0.41992,0.22656c-0.15091,0.04309 -0.30222,0.06445 -0.45312,0.06445c-0.31259,0 -0.58223,-0.09025 -0.8086,-0.27343c-0.22636,-0.18326 -0.35439,-0.42671 -0.38671,-0.72852l-0.35743,-2.97461c-0.02156,-0.12938 -0.07393,-0.2642 -0.16015,-0.40429c-0.07544,-0.14002 -0.20058,-0.27 -0.37305,-0.38868c-0.17246,-0.12926 -0.39263,-0.23105 -0.66211,-0.30664c-0.26948,-0.07534 -0.59828,-0.11328 -0.98633,-0.11328h-2.32812v3.96094c0,0.34497 -0.12514,0.63594 -0.37305,0.87305c-0.23714,0.2371 -0.52812,0.35546 -0.87305,0.35546c-0.34494,0 -0.63591,-0.11836 -0.87304,-0.35546c-0.23716,-0.23713 -0.35547,-0.52811 -0.35547,-0.87305v-10.26563c0,-0.097 0.0165,-0.21537 0.04883,-0.35546c0.03235,-0.15098 0.09635,-0.29262 0.19336,-0.42188c0.09701,-0.14009 0.22698,-0.25172 0.38867,-0.33789c0.17246,-0.09701 0.38779,-0.14648 0.64648,-0.14648zM64.28321,172.47852h3.31445c0.20479,0 0.39877,-0.03795 0.58203,-0.11329c0.18323,-0.07559 0.33939,-0.17933 0.46875,-0.30859c0.14012,-0.14017 0.24875,-0.30119 0.32422,-0.48437c0.07546,-0.18321 0.11133,-0.37719 0.11133,-0.58204c0,-0.20487 -0.03586,-0.39885 -0.11133,-0.58203c-0.07546,-0.18333 -0.1841,-0.33949 -0.32422,-0.46875c-0.12936,-0.14009 -0.28552,-0.24888 -0.46875,-0.32422c-0.18325,-0.07559 -0.37723,-0.11328 -0.58203,-0.11328h-3.31445zM143.70508,173.04297h3.16797c0.23713,0 0.4641,-0.04273 0.67968,-0.12891c0.21558,-0.09695 0.40472,-0.22691 0.56641,-0.38867c0.16169,-0.16156 0.28487,-0.34877 0.37109,-0.56445c0.09701,-0.21556 0.14649,-0.44738 0.14649,-0.69532c0,-0.23705 -0.04948,-0.464 -0.14649,-0.67968c-0.08622,-0.21551 -0.2094,-0.40464 -0.37109,-0.56641c-0.16168,-0.16176 -0.35082,-0.28492 -0.56641,-0.37109c-0.21556,-0.09701 -0.44253,-0.14649 -0.67968,-0.14649h-3.16797zM114.7832,174.32031h2.63477l-1.31055,-4.46093zM79.99805,171.10352c0.2587,0.21555 0.38867,0.50655 0.38867,0.87304c0,0.10785 -0.0165,0.20964 -0.04883,0.30664l-2.97461,9.28125c-0.1509,0.45274 -0.34004,0.80771 -0.56641,1.06641c-0.21558,0.25872 -0.45224,0.45951 -0.71094,0.59961c-0.2587,0.14035 -0.53319,0.22556 -0.82422,0.25781c-0.28026,0.04309 -0.5499,0.06445 -0.80859,0.06445h-0.8418c-0.2048,0 -0.38714,-0.03769 -0.54883,-0.11328c-0.1509,-0.07534 -0.28572,-0.17234 -0.4043,-0.29101c-0.10779,-0.11855 -0.19313,-0.25337 -0.25781,-0.4043c-0.0539,-0.14009 -0.08203,-0.28462 -0.08203,-0.43555c0,-0.21556 0.06402,-0.39985 0.19336,-0.55078c0.14013,-0.15093 0.3574,-0.22656 0.64844,-0.22656c0.28026,0 0.5431,-0.00555 0.79102,-0.01563c0.2587,-0.01083 0.48567,-0.04852 0.67969,-0.11328c0.19402,-0.06475 0.34533,-0.16654 0.45312,-0.30664c0.11858,-0.12933 0.17773,-0.31847 0.17773,-0.5664c0,-0.15096 -0.02134,-0.31878 -0.06445,-0.50196c-0.04311,-0.18323 -0.11393,-0.39854 -0.21094,-0.64648l-2.69922,-6.85547c-0.06468,-0.16174 -0.09766,-0.3344 -0.09766,-0.51758c0,-0.12938 0.02134,-0.2642 0.06445,-0.40429c0.04314,-0.14002 0.10714,-0.26805 0.19336,-0.38672c0.09701,-0.11868 0.22214,-0.21568 0.37305,-0.29102c0.16168,-0.08617 0.35566,-0.1289 0.58203,-0.1289c0.23714,-0.00001 0.45731,0.06409 0.66211,0.19335c0.20479,0.11861 0.34446,0.29611 0.41992,0.53321l1.99023,6.14453l1.55078,-6.12891c0.06468,-0.24801 0.1995,-0.43519 0.4043,-0.56445c0.21559,-0.12926 0.4474,-0.19531 0.69531,-0.19531c0.32337,0 0.61435,0.10853 0.87305,0.32422zM64.28321,178.00781h3.37891c0.24792,0 0.47973,-0.04947 0.69531,-0.14648c0.22636,-0.09693 0.42034,-0.22496 0.58203,-0.38672c0.16169,-0.16156 0.29166,-0.35072 0.38867,-0.56641c0.09701,-0.21556 0.14453,-0.44737 0.14453,-0.69531c0,-0.24784 -0.04752,-0.47963 -0.14453,-0.69531c-0.09701,-0.22627 -0.22698,-0.42027 -0.38867,-0.58203c-0.16167,-0.16169 -0.35566,-0.29167 -0.58203,-0.38867c-0.21559,-0.09701 -0.4474,-0.14454 -0.69531,-0.14454h-3.37891z" fill="#1eff00" stroke="none" stroke-width="1.01053" stroke-miterlimit="10" stroke-dashoffset="0"/></g></g></svg>