<svg version="1.1" xmlns="http://www.w3.org/2000/svg" xmlns:xlink="http://www.w3.org/1999/xlink" width="86.29343" height="86.29343" viewBox="0,0,86.29343,86.29343"><g transform="translate(-196.85328,-136.85328)"><g data-paper-data="{&quot;isPaintingLayer&quot;:true}" fill-rule="nonzero" stroke-linecap="butt" stroke-linejoin="miter" stroke-dasharray="" style="mix-blend-mode: normal"><path d="M240,222.39648c-23.41475,-0.00044 -42.39604,-18.98174 -42.39648,-42.39648c0.00044,-23.41475 18.98173,-42.39604 42.39648,-42.39648c23.41475,0.00044 42.39604,18.98174 42.39648,42.39648c-0.00044,23.41475 -18.98173,42.39604 -42.39648,42.39648z" data-paper-data="{&quot;origPos&quot;:null,&quot;origRot&quot;:0}" id="path1030" fill="#272727" stroke="#1eff00" stroke-width="1.50047" stroke-miterlimit="4" stroke-dashoffset="17.35"/><path d="M272.42551,182.14231c-0.56816,0.56816 -1.33881,0.88724 -2.14231,0.88699c-1.67248,-0.00057 -3.02785,-1.35682 -3.02734,-3.0293c-0.00051,-1.67248 1.35486,-3.02873 3.02734,-3.0293c0.8035,-0.00024 1.57415,0.31883 2.14231,0.88699c0.56816,0.56816 0.88724,1.33881 0.88699,2.14231c0.00024,0.8035 -0.31883,1.57415 -0.88699,2.14231z" data-paper-data="{&quot;origRot&quot;:0,&quot;origPos&quot;:null}" id="path1032" fill="#1eff00" stroke="#1eff00" stroke-width="1.5" stroke-miterlimit="4" stroke-dashoffset="17.35"/><path d="M245.98438,162.60156c-0.24534,0.224 -0.54449,0.40626 -0.89649,0.54492l-8.76758,3.39258l8.76758,3.39063c0.352,0.13866 0.65115,0.31596 0.89649,0.52929c0.256,0.224 0.38281,0.5212 0.38281,0.89454c0,0.33066 -0.1169,0.60803 -0.35157,0.83203c-0.22399,0.23466 -0.4964,0.35351 -0.8164,0.35351h-10.60742c-0.23467,0 -0.43676,-0.08519 -0.60742,-0.25586c-0.16,-0.16 -0.24024,-0.35908 -0.24024,-0.59375c0,-0.23466 0.08024,-0.43179 0.24024,-0.59179c0.17066,-0.16 0.37275,-0.24024 0.60742,-0.24024l8.20898,0l-8.1289,-3.11914c-0.27734,-0.10667 -0.50121,-0.26218 -0.67188,-0.46484c-0.17067,-0.192 -0.25586,-0.43571 -0.25586,-0.73438c0,-0.29866 0.08519,-0.54928 0.25586,-0.75195c0.17067,-0.192 0.39454,-0.34255 0.67188,-0.44922l8.1289,-3.11914l-8.20898,0c-0.23467,0 -0.43676,-0.08023 -0.60742,-0.24023c-0.16,-0.16 -0.24024,-0.35713 -0.24024,-0.5918c0,-0.23467 0.08024,-0.43676 0.24024,-0.60742c0.17066,-0.16 0.37275,-0.24024 0.60742,-0.24024h10.60742c0.32,0 0.5924,0.11194 0.8164,0.33594c0.23467,0.23467 0.35157,0.51699 0.35157,0.84766c0,0.37333 -0.12681,0.66557 -0.38281,0.8789zM242.84766,179.62305c-0.18134,0.53333 -0.44683,0.99295 -0.79883,1.37695c-0.34134,0.39467 -0.76429,0.70373 -1.26563,0.92773c-0.50133,0.224 -1.07093,0.33594 -1.71093,0.33594c-0.39467,0 -0.69382,-0.09706 -0.89649,-0.28906c-0.20267,-0.192 -0.30469,-0.41588 -0.30469,-0.67188l0,-5.85546c-0.02133,0 -0.11148,0.00495 -0.27148,0.01562c-0.14933,0.02133 -0.32964,0.058 -0.54297,0.11133c-0.21333,0.064 -0.44412,0.15114 -0.68945,0.25781c-0.23467,0.11733 -0.45163,0.27089 -0.6543,0.46289c-0.20267,0.192 -0.375,0.42775 -0.51367,0.70508c-0.128,0.288 -0.19141,0.63373 -0.19141,1.03906c0,0.33067 0.02675,0.61299 0.08008,0.84766c0.05333,0.23467 0.13357,0.44367 0.24023,0.625c0.10667,0.18133 0.2404,0.34676 0.4004,0.49609c0.17066,0.14934 0.36779,0.29793 0.59179,0.44727c0.128,0.08533 0.21815,0.18044 0.27149,0.28711c0.05333,0.10666 0.08008,0.22055 0.08008,0.33789c-0.00001,0.192 -0.06837,0.36734 -0.20704,0.52734c-0.13866,0.16 -0.31596,0.24024 -0.52929,0.24024c-0.128,0 -0.32017,-0.07032 -0.57617,-0.20899c-0.256,-0.13866 -0.51158,-0.36254 -0.76758,-0.67187c-0.256,-0.29867 -0.47988,-0.68797 -0.67188,-1.16797c-0.192,-0.48 -0.28711,-1.06643 -0.28711,-1.75977c0,-0.704 0.12681,-1.334 0.38281,-1.88867c0.256,-0.55467 0.59678,-1.0242 1.02344,-1.4082c0.43734,-0.37334 0.94549,-0.66062 1.52149,-0.86328c0.576,-0.192 1.1773,-0.28711 1.80664,-0.28711c0.65066,0 1.26384,0.10006 1.83984,0.30273c0.58667,0.20267 1.09482,0.4919 1.52149,0.86524c0.42666,0.384 0.76247,0.84166 1.00781,1.375c0.256,0.53333 0.38281,1.13163 0.38281,1.79296c0,0.608 -0.09015,1.17265 -0.27148,1.69532zM242.75195,184.64844c-0.16,0.16 -0.35713,0.23828 -0.59179,0.23828h-0.28907c0.096,0.10667 0.20794,0.23543 0.33594,0.38476c0.13867,0.16 0.26743,0.35218 0.38477,0.57618c0.11733,0.224 0.21439,0.47957 0.28906,0.76757c0.08533,0.29867 0.12695,0.63944 0.12695,1.02344c0,0.39467 -0.05845,0.77405 -0.17578,1.13672c-0.10667,0.37333 -0.27209,0.70419 -0.49609,0.99219c-0.224,0.288 -0.50137,0.51683 -0.83203,0.6875c-0.33067,0.17066 -0.71501,0.25586 -1.15235,0.25586l-5.75976,0c-0.23467,0 -0.43676,-0.0852 -0.60742,-0.25586c-0.16,-0.16 -0.24024,-0.35713 -0.24024,-0.5918c0,-0.23467 0.08024,-0.4318 0.24024,-0.5918c0.17066,-0.16 0.37275,-0.24023 0.60742,-0.24023l5.56836,0c0.23466,0 0.44171,-0.05845 0.62304,-0.17578c0.192,-0.10667 0.34751,-0.25031 0.46485,-0.43164c0.128,-0.17067 0.22311,-0.3678 0.28711,-0.5918c0.064,-0.21333 0.09765,-0.42729 0.09765,-0.64062c0,-0.352 -0.06536,-0.67099 -0.19336,-0.95899c-0.11733,-0.288 -0.28276,-0.53366 -0.49609,-0.73633c-0.21333,-0.192 -0.46891,-0.34255 -0.76758,-0.44921c-0.288,-0.10667 -0.60202,-0.16016 -0.94336,-0.16016h-4.64062c-0.23467,0 -0.43676,-0.07828 -0.60742,-0.23828c-0.16001,-0.16 -0.24024,-0.35909 -0.24024,-0.59375c0,-0.23467 0.08023,-0.43676 0.24024,-0.60742c0.17066,-0.16 0.37275,-0.24024 0.60742,-0.24024l7.56836,0c0.23466,0 0.43179,0.08024 0.59179,0.24024c0.17067,0.17066 0.25586,0.37275 0.25586,0.60742c0,0.23466 -0.08519,0.43375 -0.25586,0.59375zM242.75195,193.39844c-0.16,0.16 -0.35713,0.23828 -0.59179,0.23828l-5.56836,0c-0.24534,0 -0.45929,0.05349 -0.64063,0.16016c-0.18133,0.11733 -0.33489,0.26292 -0.46289,0.43359c-0.11733,0.18133 -0.20748,0.37846 -0.27148,0.5918c-0.064,0.224 -0.09766,0.44291 -0.09766,0.65625c0,0.352 0.0604,0.67098 0.17774,0.95898c0.128,0.288 0.29838,0.5287 0.51171,0.7207c0.21334,0.20267 0.46396,0.35623 0.75196,0.46289c0.29866,0.10667 0.61765,0.16016 0.95898,0.16016l4.64063,0c0.23466,0 0.43179,0.08023 0.59179,0.24023c0.17067,0.16 0.25586,0.35713 0.25586,0.5918c0,0.23467 -0.08519,0.4318 -0.25586,0.5918c-0.16,0.17066 -0.35713,0.25586 -0.59179,0.25586h-7.56836c-0.23467,0 -0.43676,-0.0852 -0.60742,-0.25586c-0.16001,-0.16 -0.24024,-0.35713 -0.24024,-0.5918c0,-0.23467 0.08023,-0.4318 0.24024,-0.5918c0.17066,-0.16 0.37275,-0.24023 0.60742,-0.24023l0.28906,0c-0.096,-0.10667 -0.21485,-0.24039 -0.35352,-0.40039c-0.128,-0.14933 -0.24985,-0.33459 -0.36718,-0.55859c-0.11734,-0.224 -0.21936,-0.48649 -0.30469,-0.78516c-0.07467,-0.288 -0.11133,-0.62381 -0.11133,-1.00781c0,-0.39467 0.05349,-0.77901 0.16016,-1.15235c0.11733,-0.36266 0.28772,-0.68661 0.51172,-0.97461c0.224,-0.288 0.50136,-0.51878 0.83203,-0.68945c0.33066,-0.17067 0.71501,-0.25586 1.15234,-0.25586l5.75977,0c0.23466,0 0.43179,0.08024 0.59179,0.24024c0.17067,0.17066 0.25586,0.37275 0.25586,0.60742c0,0.23466 -0.08519,0.43375 -0.25586,0.59375zM241.56836,176.95117c-0.11733,-0.27733 -0.26789,-0.51112 -0.44922,-0.70312c-0.17067,-0.18134 -0.36088,-0.32693 -0.57422,-0.4336c-0.21333,-0.10666 -0.41241,-0.1869 -0.59375,-0.24023c-0.18133,-0.05333 -0.33985,-0.08504 -0.47851,-0.0957c-0.128,-0.01067 -0.20328,-0.01563 -0.22461,-0.01563l0,5.18359c0.33066,0 0.64469,-0.05349 0.94336,-0.16015c0.29866,-0.10667 0.56115,-0.2721 0.78515,-0.4961c0.23467,-0.21333 0.41993,-0.49069 0.5586,-0.83203c0.13866,-0.34133 0.20898,-0.74055 0.20898,-1.19922c0,-0.39466 -0.05845,-0.73047 -0.17578,-1.00781z" data-paper-data="{&quot;origRot&quot;:0,&quot;origPos&quot;:null}" id="path1041" fill="#1eff00" stroke="none" stroke-width="1" stroke-miterlimit="10" stroke-dashoffset="0"/></g></g></svg>