<svg version="1.1" xmlns="http://www.w3.org/2000/svg" xmlns:xlink="http://www.w3.org/1999/xlink" width="222.32992" height="55.89962"><g transform="translate(-129.01182,-186.25677)"><g data-paper-data="{&quot;isPaintingLayer&quot;:true}" fill-rule="nonzero" stroke="none" stroke-linecap="butt" stroke-linejoin="miter" stroke-miterlimit="10" stroke-dasharray="" stroke-dashoffset="0" style="mix-blend-mode: normal"><path d="M129.01182,242.15639v-55.71178l222.32992,-0.18784c-1.88118,35.60183 -21.74128,55.89959 -21.74128,55.89959z" data-paper-data="{&quot;origPos&quot;:null}" id="path1459" fill="#1e1e1e" stroke-width="0.26458"/><path d="M210.67026,195.14455c1.92378,0.88171 3.55466,2.07012 4.89062,3.56641c1.36268,1.49626 2.40358,3.23371 3.125,5.21094c0.74814,1.97722 1.12305,4.06096 1.12305,6.25195c0,2.21767 -0.37491,4.31574 -1.12305,6.29297c-0.72142,1.97722 -1.76232,3.71269 -3.125,5.20898c-1.33596,1.49627 -2.96684,2.68662 -4.89062,3.56836c-1.89707,0.88174 -4.0341,1.32227 -6.41211,1.32227c-2.37801,0 -4.52934,-0.44053 -6.45313,-1.32227c-1.89706,-0.88174 -3.52599,-2.07209 -4.88867,-3.56836c-1.33596,-1.49629 -2.37882,-3.23176 -3.12695,-5.20898c-0.72142,-1.97723 -1.08203,-4.0753 -1.08203,-6.29297c0,-2.19099 0.36061,-4.27473 1.08203,-6.25195c0.74813,-1.97723 1.79099,-3.71468 3.12695,-5.21094c1.36268,-1.49629 2.99161,-2.6847 4.88867,-3.56641c1.92379,-0.88174 4.07512,-1.32226 6.45313,-1.32226c2.37801,0 4.51504,0.44052 6.41211,1.32226zM261.80893,195.06447c0.48095,0.45423 0.7207,1.01563 0.7207,1.6836c0,0.64126 -0.23975,1.20068 -0.7207,1.68164c-0.45423,0.45422 -1.00132,0.68164 -1.64258,0.68164c-0.66798,0 -1.24366,-0.22742 -1.72461,-0.68164c-0.45422,-0.48096 -0.68164,-1.04038 -0.68164,-1.68164c0,-0.66797 0.22742,-1.22937 0.68164,-1.6836c0.48095,-0.45422 1.05663,-0.68164 1.72461,-0.68164c0.64126,0 1.18835,0.22742 1.64258,0.68164zM251.01596,196.82813c0.42751,0.40081 0.64258,0.89461 0.64258,1.48243v5.00976h2.20312c0.50767,0 0.93586,0.18648 1.28321,0.56055c0.37407,0.34734 0.56054,0.77554 0.56054,1.2832c0,0.5344 -0.18647,0.97493 -0.56054,1.32227c-0.34735,0.34736 -0.77554,0.52148 -1.28321,0.52148h-2.20312v16.87305c0,0.58782 -0.21507,1.09592 -0.64258,1.52344c-0.40079,0.40078 -0.8946,0.59961 -1.48242,0.59961c-0.58782,0 -1.08164,-0.19883 -1.48242,-0.59961c-0.40079,-0.42752 -0.60157,-0.93562 -0.60157,-1.52344v-16.87305h-1.48242c-0.50766,0 -0.9482,-0.17412 -1.32226,-0.52148c-0.34735,-0.34734 -0.52149,-0.78787 -0.52149,-1.32227c0,-0.50766 0.17414,-0.93586 0.52149,-1.2832c0.37406,-0.37407 0.8146,-0.56055 1.32226,-0.56055h1.48242v-5.00976c0,-0.58782 0.20078,-1.08162 0.60157,-1.48243c0.40078,-0.40078 0.8946,-0.60156 1.48242,-0.60156c0.58782,0 1.08163,0.20078 1.48242,0.60156zM200.0101,198.9512c-1.30924,0.56111 -2.45866,1.36223 -3.44726,2.4043c-0.9619,1.04204 -1.72406,2.31233 -2.28516,3.80859c-0.5611,1.49629 -0.8418,3.16614 -0.8418,5.00977c0,1.8436 0.2807,3.51347 0.8418,5.00976c0.5611,1.49627 1.32326,2.77889 2.28516,3.84766c0.9886,1.04204 2.13802,1.85747 3.44726,2.44531c1.30924,0.56109 2.72505,0.8418 4.24805,0.8418c1.52299,0 2.9388,-0.28071 4.24804,-0.8418c1.30925,-0.58784 2.44436,-1.40327 3.40625,-2.44531c0.98862,-1.06877 1.76312,-2.35139 2.32422,-3.84766c0.56111,-1.49629 0.8418,-3.16616 0.8418,-5.00976c0,-1.84363 -0.28069,-3.51348 -0.8418,-5.00977c-0.5611,-1.49626 -1.3356,-2.76655 -2.32422,-3.80859c-0.96189,-1.04207 -2.097,-1.84319 -3.40625,-2.4043c-1.30924,-0.58782 -2.72505,-0.88086 -4.24804,-0.88086c-1.523,0 -2.93881,0.29304 -4.24805,0.88086zM323.46127,203.00003c1.04205,0.32063 1.89647,0.73452 2.56446,1.24219c0.26719,0.21374 0.54788,0.48015 0.84179,0.80078c0.29391,0.29392 0.57461,0.6279 0.8418,1.00195c0.26718,0.34737 0.4803,0.69563 0.64062,1.04297c0.18704,0.34736 0.28125,0.65469 0.28125,0.92188c0,0.61455 -0.24171,1.10837 -0.72265,1.48242c-0.48095,0.34736 -1.0014,0.52148 -1.5625,0.52148c-0.34735,0 -0.66703,-0.07998 -0.96094,-0.24023c-0.2939,-0.18704 -0.52131,-0.46775 -0.68164,-0.8418c-0.21375,-0.50767 -0.44116,-0.94819 -0.68164,-1.32226c-0.24047,-0.37418 -0.5621,-0.6815 -0.96289,-0.92188c-0.37407,-0.2405 -0.84124,-0.41465 -1.40235,-0.52148c-0.53438,-0.13355 -1.21467,-0.20118 -2.04296,-0.20118c-1.62988,0 -2.82023,0.26836 -3.56836,0.80274c-0.72142,0.50766 -1.08203,1.14897 -1.08203,1.92383c0,0.58781 0.21507,1.06733 0.64257,1.4414c0.42751,0.34737 0.98694,0.65469 1.68164,0.92188c0.72142,0.24053 1.53686,0.45561 2.44532,0.64258c0.90845,0.16042 1.83045,0.36118 2.76562,0.60156c0.93517,0.21374 1.85717,0.48015 2.76563,0.80078c0.90845,0.29392 1.70959,0.70781 2.40429,1.24219c0.72142,0.50766 1.29711,1.13662 1.72461,1.88476c0.42751,0.74812 0.64063,1.68247 0.64063,2.80469c0,1.33596 -0.2664,2.47107 -0.80078,3.40625c-0.53439,0.90845 -1.24327,1.65632 -2.125,2.24414c-0.88174,0.56111 -1.9103,0.975 -3.08594,1.24219c-1.17565,0.24038 -2.40498,0.36133 -3.6875,0.36133c-1.81691,0 -3.35357,-0.26639 -4.60938,-0.80078c-1.22908,-0.56109 -2.24334,-1.2024 -3.04492,-1.92383c-0.77486,-0.74812 -1.33624,-1.48365 -1.68359,-2.20508c-0.34735,-0.72141 -0.52149,-1.26851 -0.52149,-1.64258c0,-0.61453 0.21312,-1.1103 0.64063,-1.48437c0.45423,-0.40081 0.9357,-0.59961 1.44336,-0.59961c0.32063,0 0.62796,0.09233 0.92187,0.27929c0.2939,0.18704 0.52132,0.48201 0.68164,0.88282c0.45423,1.14892 1.17546,2.10991 2.16407,2.88476c1.01533,0.77485 2.45778,1.16211 4.32812,1.16211c0.85502,0 1.59054,-0.09234 2.20508,-0.2793c0.61454,-0.21374 1.10835,-0.4821 1.48242,-0.80273c0.40079,-0.34736 0.69383,-0.72031 0.88086,-1.12109c0.18704,-0.42752 0.28125,-0.87 0.28125,-1.32422c0,-0.90845 -0.36061,-1.58875 -1.08203,-2.04297c-0.72142,-0.45423 -1.61678,-0.81482 -2.68555,-1.08203c-1.06876,-0.26727 -2.24482,-0.50704 -3.52734,-0.72071c-1.2558,-0.24047 -2.41756,-0.57443 -3.48633,-1.00195c-1.06877,-0.45422 -1.96413,-1.0832 -2.68555,-1.88477c-0.72141,-0.82829 -1.08203,-1.9634 -1.08203,-3.40624c0,-2.08411 0.76217,-3.715 2.28516,-4.89063c1.523,-1.17563 3.64769,-1.76367 6.37305,-1.76367c1.52299,0 2.8056,0.16179 3.84765,0.48242zM280.06869,203.32032c1.36268,0.53438 2.53874,1.30889 3.52735,2.32422c0.98861,1.01533 1.76311,2.25896 2.32422,3.72852c0.5611,1.46955 0.84179,3.15175 0.84179,5.04883c0,1.89707 -0.28069,3.58122 -0.84179,5.05078c-0.56111,1.46955 -1.33561,2.71123 -2.32422,3.72656c-0.98861,0.9886 -2.16467,1.75078 -3.52735,2.28516c-1.33596,0.53439 -2.79271,0.80078 -4.36914,0.80078c-1.57643,0 -3.04552,-0.26639 -4.4082,-0.80078c-1.33596,-0.53438 -2.49772,-1.29656 -3.48633,-2.28516c-0.98861,-1.01533 -1.76507,-2.25701 -2.32617,-3.72656c-0.5611,-1.46956 -0.8418,-3.15371 -0.8418,-5.05078c0,-1.89708 0.2807,-3.57928 0.8418,-5.04883c0.5611,-1.46956 1.33756,-2.71319 2.32617,-3.72852c0.98861,-1.01533 2.15037,-1.78984 3.48633,-2.32422c1.36268,-0.53437 2.83177,-0.80078 4.4082,-0.80078c1.57643,0 3.03318,0.26641 4.36914,0.80078zM226.07651,203.44142c0.40079,0.4008 0.60156,0.8946 0.60156,1.48242v0.35937c0.53438,-0.45425 1.0282,-0.84148 1.48242,-1.16211c0.48095,-0.3207 0.97671,-0.57475 1.48438,-0.76171c0.50766,-0.21378 1.0671,-0.35933 1.68164,-0.43946c0.61454,-0.08012 1.32342,-0.12109 2.125,-0.12109c1.30924,0 2.53857,0.28071 3.6875,0.84179c1.17564,0.56111 2.1899,1.36226 3.04492,2.4043c0.88173,1.01533 1.57827,2.24465 2.08594,3.6875c0.50766,1.41612 0.75976,2.97942 0.75976,4.68946c0,1.71003 -0.22546,3.27333 -0.67969,4.68945c-0.45422,1.41611 -1.10983,2.64546 -1.96484,3.6875c-0.8283,1.01533 -1.83021,1.80217 -3.00586,2.36328c-1.17564,0.56111 -2.4849,0.8418 -3.92773,0.8418c-0.9619,0 -1.80398,-0.09234 -2.52539,-0.2793c-0.6947,-0.21375 -1.30937,-0.4678 -1.84375,-0.76172c-0.50767,-0.29392 -0.96054,-0.61555 -1.36133,-0.96289c-0.37407,-0.37407 -0.72234,-0.72039 -1.04297,-1.04102v9.37891c0,0.58782 -0.20077,1.08164 -0.60156,1.48242c-0.40079,0.42752 -0.8946,0.64063 -1.48243,0.64063c-0.58782,0 -1.09593,-0.21311 -1.52343,-0.64063c-0.40079,-0.40078 -0.60157,-0.8946 -0.60157,-1.48242v-27.41406c0,-0.58782 0.20078,-1.08162 0.60157,-1.48242c0.4275,-0.42749 0.93561,-0.64258 1.52343,-0.64258c0.58783,0 1.08164,0.21509 1.48243,0.64258zM261.64877,203.44142c0.40079,0.4008 0.60157,0.8946 0.60157,1.48242v18.95703c0,0.58782 -0.20078,1.09592 -0.60157,1.52344c-0.40079,0.40078 -0.8946,0.59961 -1.48242,0.59961c-0.58782,0 -1.09593,-0.19883 -1.52344,-0.59961c-0.40079,-0.42752 -0.60156,-0.93562 -0.60156,-1.52344v-18.95703c0,-0.58782 0.20077,-1.08162 0.60156,-1.48242c0.42751,-0.42749 0.93562,-0.64258 1.52344,-0.64258c0.58782,0 1.08163,0.21509 1.48242,0.64258zM292.72494,203.43947c0.40079,0.40081 0.60157,0.89656 0.60157,1.48438v0.7207c0.26719,-0.24045 0.58687,-0.52117 0.96093,-0.8418c0.40079,-0.34736 0.88226,-0.66701 1.44336,-0.96093c0.56111,-0.29397 1.20241,-0.5357 1.92383,-0.72266c0.74814,-0.21367 1.60257,-0.32031 2.56445,-0.32031c0.98862,0 1.93725,0.14751 2.84571,0.4414c0.93517,0.26719 1.76491,0.68108 2.48633,1.24219c0.72141,0.56111 1.29515,1.25569 1.72265,2.08399c0.42751,0.82829 0.64063,1.78928 0.64063,2.88476v14.42969c0,0.58782 -0.21312,1.09592 -0.64063,1.52344c-0.40079,0.40078 -0.8946,0.59961 -1.48242,0.59961c-0.58782,0 -1.08359,-0.19883 -1.48437,-0.59961c-0.40079,-0.42752 -0.59961,-0.93562 -0.59961,-1.52344v-13.94727c0,-0.58781 -0.1475,-1.11023 -0.44141,-1.56445c-0.26719,-0.48096 -0.62781,-0.86821 -1.08203,-1.16211c-0.42751,-0.3207 -0.92132,-0.56045 -1.48242,-0.7207c-0.53439,-0.16025 -1.06913,-0.24024 -1.60352,-0.24024c-0.88173,0 -1.68288,0.15984 -2.4043,0.48047c-0.72141,0.2939 -1.33608,0.70779 -1.84375,1.24219c-0.48094,0.53437 -0.85585,1.17568 -1.12304,1.92383c-0.26719,0.72141 -0.40039,1.51023 -0.40039,2.36523v11.62305c0,0.58782 -0.20078,1.09592 -0.60157,1.52344c-0.40078,0.40078 -0.8946,0.59961 -1.48242,0.59961c-0.58782,0 -1.09593,-0.19883 -1.52344,-0.59961c-0.40078,-0.42752 -0.60156,-0.93562 -0.60156,-1.52344v-18.95703c0,-0.58782 0.20078,-1.08357 0.60156,-1.48438c0.42751,-0.42749 0.93562,-0.64062 1.52344,-0.64062c0.58782,0 1.08164,0.21313 1.48242,0.64062zM272.93393,206.48634c-0.8283,0.32063 -1.54952,0.82873 -2.16406,1.52344c-0.58783,0.66796 -1.055,1.53669 -1.40235,2.60546c-0.34735,1.06878 -0.52148,2.33709 -0.52148,3.80665c0,1.46955 0.17413,2.73981 0.52148,3.80859c0.34735,1.04204 0.81452,1.90881 1.40235,2.60351c0.61454,0.66797 1.33576,1.17608 2.16406,1.52344c0.85501,0.32063 1.77701,0.48047 2.76562,0.48047c0.98861,0 1.89632,-0.15984 2.72461,-0.48047c0.85502,-0.34736 1.5782,-0.85547 2.16602,-1.52344c0.61454,-0.6947 1.09405,-1.56147 1.4414,-2.60351c0.34735,-1.06878 0.52149,-2.33904 0.52149,-3.80859c0,-1.46956 -0.17414,-2.73787 -0.52149,-3.80665c-0.34735,-1.06877 -0.82686,-1.9375 -1.4414,-2.60546c-0.58782,-0.69471 -1.311,-1.20281 -2.16602,-1.52344c-0.82829,-0.34734 -1.736,-0.52149 -2.72461,-0.52149c-0.98861,0 -1.91061,0.17415 -2.76562,0.52149zM230.04526,206.92776c-0.77486,0.45423 -1.43046,1.0689 -1.96485,1.84375c-0.53438,0.74815 -0.94827,1.61687 -1.24218,2.60547c-0.26719,0.96189 -0.40039,1.97615 -0.40039,3.04493c0,1.04204 0.1332,2.05825 0.40039,3.04687c0.29391,0.9886 0.7078,1.85537 1.24218,2.60352c0.53439,0.74814 1.18999,1.35046 1.96485,1.80468c0.80157,0.45423 1.70928,0.68164 2.72461,0.68164c0.9886,0 1.87162,-0.22741 2.64648,-0.68164c0.80158,-0.45422 1.46952,-1.05654 2.00391,-1.80468c0.5611,-0.74815 0.97499,-1.61492 1.24218,-2.60352c0.29392,-0.98862 0.43946,-2.00483 0.43946,-3.04687c0,-1.06878 -0.14554,-2.08304 -0.43946,-3.04493c-0.26719,-0.9886 -0.68108,-1.85732 -1.24218,-2.60547c-0.53439,-0.77485 -1.20233,-1.38952 -2.00391,-1.84375c-0.77486,-0.45422 -1.65788,-0.68164 -2.64648,-0.68164c-1.01533,0 -1.92304,0.22742 -2.72461,0.68164z" data-paper-data="{&quot;origPos&quot;:null}" id="path1529" fill="#1eff00" stroke-width="2.50493"/></g></g></svg>