<svg version="1.1" xmlns="http://www.w3.org/2000/svg" xmlns:xlink="http://www.w3.org/1999/xlink" width="67.22266" height="26.33984"><g transform="translate(-206.38867,-166.83008)"><g data-paper-data="{&quot;isPaintingLayer&quot;:true}" fill="#ff0000" fill-rule="nonzero" stroke="none" stroke-width="1" stroke-linecap="butt" stroke-linejoin="miter" stroke-miterlimit="10" stroke-dasharray="" stroke-dashoffset="0" style="mix-blend-mode: normal"><path d="M210.6582,167.62305c0.46328,0.5074 0.83822,1.12551 1.125,1.85351l7.01368,18.13477l7.01562,-18.13477c0.28679,-0.728 0.65058,-1.34611 1.0918,-1.85351c0.46327,-0.52946 1.08139,-0.79297 1.85351,-0.79297c0.68389,0 1.25743,0.24318 1.72071,0.72851c0.48533,0.46328 0.72851,1.02568 0.72851,1.6875v21.93946c0,0.48534 -0.17633,0.90289 -0.5293,1.25586c-0.33091,0.33091 -0.73927,0.49804 -1.22461,0.49804c-0.48533,0 -0.8937,-0.16713 -1.2246,-0.49804c-0.33092,-0.35297 -0.4961,-0.77052 -0.4961,-1.25586v-16.97657l-6.45312,16.81055c-0.22062,0.57358 -0.53983,1.03571 -0.95899,1.38867c-0.39709,0.35298 -0.90574,0.53125 -1.52343,0.53125c-0.6177,0 -1.13554,-0.17827 -1.55469,-0.53125c-0.3971,-0.35296 -0.70518,-0.81509 -0.92578,-1.38867l-6.45313,-16.81055v16.97657c0,0.48534 -0.16518,0.90289 -0.49609,1.25586c-0.33092,0.33091 -0.73928,0.49804 -1.22461,0.49804c-0.48534,0 -0.90484,-0.16713 -1.25781,-0.49804c-0.33092,-0.35297 -0.4961,-0.77052 -0.4961,-1.25586v-21.93946c0,-0.66182 0.23203,-1.22422 0.69531,-1.6875c0.48534,-0.48533 1.07003,-0.72851 1.75391,-0.72851c0.77213,0 1.3791,0.26351 1.82031,0.79297zM237.12305,167.39258c0.39709,0.37502 0.5957,0.83715 0.5957,1.38867c0,0.52946 -0.19861,0.99353 -0.5957,1.39063c-0.37504,0.37503 -0.82601,0.5625 -1.35547,0.5625c-0.55152,0 -1.02674,-0.18747 -1.42383,-0.5625c-0.37503,-0.3971 -0.5625,-0.86117 -0.5625,-1.39063c0,-0.55152 0.18747,-1.01365 0.5625,-1.38867c0.39709,-0.37504 0.87231,-0.5625 1.42383,-0.5625c0.52946,0 0.98043,0.18746 1.35547,0.5625zM250.3457,173.94336c0.86037,0.26473 1.56762,0.60819 2.11914,1.02734c0.22061,0.17649 0.45069,0.39739 0.69336,0.66211c0.24267,0.24267 0.47471,0.51732 0.69532,0.82617c0.2206,0.28679 0.39693,0.57455 0.52929,0.86133c0.15442,0.2868 0.23242,0.53916 0.23242,0.75977c0,0.50739 -0.19861,0.91575 -0.5957,1.22461c-0.39709,0.28678 -0.82774,0.42969 -1.29101,0.42969c-0.28679,-0.00001 -0.5503,-0.06491 -0.79297,-0.19727c-0.24267,-0.15443 -0.43014,-0.38646 -0.5625,-0.69531c-0.17649,-0.41916 -0.36396,-0.78295 -0.5625,-1.0918c-0.19855,-0.30885 -0.46401,-0.56317 -0.79493,-0.76172c-0.30884,-0.19855 -0.69492,-0.34145 -1.1582,-0.42969c-0.44121,-0.1103 -1.00362,-0.16601 -1.6875,-0.16601c-1.3457,0 -2.32761,0.22089 -2.94531,0.66211c-0.59564,0.41915 -0.89258,0.94813 -0.89258,1.58789c0,0.48533 0.17632,0.88255 0.5293,1.1914c0.35296,0.28679 0.81509,0.54112 1.38867,0.76172c0.59564,0.19855 1.26946,0.37487 2.01953,0.5293c0.75007,0.13237 1.51108,0.29755 2.2832,0.49609c0.77212,0.17649 1.53314,0.39739 2.28321,0.66211c0.75006,0.24267 1.41079,0.58418 1.98437,1.02539c0.59564,0.41916 1.07086,0.93894 1.42383,1.55664c0.35297,0.6177 0.5293,1.38986 0.5293,2.31641c0,1.10304 -0.2209,2.04038 -0.66211,2.8125c-0.44122,0.75007 -1.0259,1.36622 -1.75391,1.85156c-0.728,0.46328 -1.5762,0.80674 -2.54687,1.02735c-0.97068,0.19854 -1.98601,0.29687 -3.04493,0.29687c-1.50013,0 -2.76978,-0.22089 -3.80664,-0.66211c-1.01479,-0.46328 -1.85185,-0.99225 -2.51367,-1.58789c-0.63976,-0.6177 -1.10383,-1.22467 -1.39062,-1.82031c-0.28679,-0.59564 -0.42969,-1.04662 -0.42969,-1.35547c0,-0.5074 0.17633,-0.91576 0.5293,-1.22461c0.37503,-0.33091 0.77225,-0.49609 1.1914,-0.49609c0.26474,0 0.51906,0.07604 0.76172,0.23047c0.24267,0.15442 0.43014,0.39761 0.5625,0.72851c0.37504,0.94862 0.97086,1.74305 1.78711,2.38281c0.83831,0.63976 2.02801,0.95899 3.57227,0.95899c0.70594,0 1.31291,-0.07605 1.82031,-0.23047c0.50739,-0.17649 0.91576,-0.39738 1.22461,-0.66211c0.33091,-0.28679 0.57409,-0.59682 0.72851,-0.92773c0.15443,-0.35297 0.23047,-0.71677 0.23047,-1.0918c0,-0.75007 -0.29693,-1.31247 -0.89258,-1.6875c-0.59563,-0.37503 -1.33436,-0.67197 -2.21679,-0.89258c-0.88243,-0.22061 -1.8532,-0.41922 -2.91211,-0.5957c-1.03685,-0.19855 -1.99647,-0.47516 -2.87891,-0.82813c-0.88242,-0.37503 -1.62115,-0.89286 -2.21679,-1.55468c-0.59564,-0.68388 -0.89454,-1.62122 -0.89454,-2.8125c0,-1.72074 0.62926,-3.06644 1.88672,-4.03711c1.25747,-0.97068 3.01153,-1.45703 5.26172,-1.45703c1.25746,-0.00001 2.31542,0.13175 3.17578,0.39648zM268.18359,173.94336c0.86037,0.26473 1.56762,0.60819 2.11914,1.02734c0.22061,0.17649 0.45265,0.39739 0.69532,0.66211c0.24267,0.24267 0.47275,0.51732 0.69336,0.82617c0.2206,0.28679 0.39693,0.57455 0.52929,0.86133c0.15443,0.2868 0.23242,0.53916 0.23242,0.75977c0,0.50739 -0.1986,0.91575 -0.5957,1.22461c-0.39709,0.28678 -0.82774,0.42969 -1.29101,0.42969c-0.28679,-0.00001 -0.5503,-0.06491 -0.79297,-0.19727c-0.24267,-0.15443 -0.43014,-0.38646 -0.5625,-0.69531c-0.17648,-0.41916 -0.36396,-0.78295 -0.5625,-1.0918c-0.19855,-0.30885 -0.46401,-0.56317 -0.79492,-0.76172c-0.30886,-0.19855 -0.69493,-0.34145 -1.15821,-0.42969c-0.44121,-0.1103 -1.00362,-0.16601 -1.6875,-0.16601c-1.3457,0 -2.32761,0.22089 -2.94531,0.66211c-0.59564,0.41915 -0.89258,0.94813 -0.89258,1.58789c0,0.48533 0.17633,0.88255 0.5293,1.1914c0.35297,0.28679 0.81509,0.54112 1.38867,0.76172c0.59564,0.19855 1.26947,0.37487 2.01953,0.5293c0.75007,0.13237 1.51108,0.29755 2.2832,0.49609c0.77213,0.17649 1.53314,0.39739 2.28321,0.66211c0.75006,0.24267 1.41079,0.58418 1.98437,1.02539c0.59564,0.41916 1.07086,0.93894 1.42383,1.55664c0.35297,0.6177 0.5293,1.38986 0.5293,2.31641c0,1.10304 -0.2209,2.04038 -0.66211,2.8125c-0.44121,0.75007 -1.0259,1.36622 -1.75391,1.85156c-0.728,0.46328 -1.57621,0.80674 -2.54687,1.02735c-0.97068,0.19854 -1.98601,0.29687 -3.04492,0.29687c-1.50014,0 -2.76784,-0.22089 -3.80469,-0.66211c-1.0148,-0.46328 -1.85381,-0.99225 -2.51563,-1.58789c-0.63976,-0.6177 -1.10384,-1.22467 -1.39062,-1.82031c-0.28679,-0.59564 -0.42969,-1.04662 -0.42969,-1.35547c0,-0.5074 0.17633,-0.91576 0.5293,-1.22461c0.37503,-0.33091 0.77225,-0.49609 1.1914,-0.49609c0.26474,0 0.51906,0.07604 0.76172,0.23047c0.24267,0.15442 0.43014,0.39761 0.5625,0.72851c0.37504,0.94862 0.97087,1.74305 1.78711,2.38281c0.83831,0.63976 2.02997,0.95899 3.57422,0.95899c0.70595,0 1.31097,-0.07605 1.81836,-0.23047c0.5074,-0.17649 0.91576,-0.39738 1.22461,-0.66211c0.33091,-0.28679 0.57409,-0.59682 0.72851,-0.92773c0.15443,-0.35297 0.23243,-0.71677 0.23243,-1.0918c0,-0.75007 -0.29889,-1.31247 -0.89453,-1.6875c-0.59564,-0.37503 -1.33437,-0.67197 -2.2168,-0.89258c-0.88243,-0.22061 -1.8532,-0.41922 -2.91211,-0.5957c-1.03685,-0.19855 -1.99647,-0.47516 -2.87891,-0.82813c-0.88242,-0.37503 -1.62115,-0.89286 -2.21679,-1.55468c-0.59564,-0.68388 -0.89453,-1.62122 -0.89453,-2.8125c0,-1.72074 0.62925,-3.06644 1.88671,-4.03711c1.25746,-0.97068 3.01152,-1.45703 5.26172,-1.45703c1.25746,-0.00001 2.31542,0.13175 3.17578,0.39648zM236.99023,174.30859c0.33092,0.33092 0.49805,0.73927 0.49805,1.22461v15.65235c0,0.48534 -0.16713,0.90289 -0.49805,1.25586c-0.3309,0.33091 -0.73731,0.49804 -1.22265,0.49804c-0.48534,0 -0.90484,-0.16713 -1.25781,-0.49804c-0.33091,-0.35297 -0.4961,-0.77052 -0.4961,-1.25586v-15.65235c0,-0.48534 0.16519,-0.89369 0.4961,-1.22461c0.35297,-0.35296 0.77247,-0.52929 1.25781,-0.52929c0.48534,0 0.89175,0.17633 1.22265,0.52929z" data-paper-data="{&quot;origPos&quot;:null}" id="path4939"/></g></g></svg>