<svg version="1.1" xmlns="http://www.w3.org/2000/svg" xmlns:xlink="http://www.w3.org/1999/xlink" width="372.21484" height="68.64258"><g transform="translate(-53.89258,-145.67871)"><g data-paper-data="{&quot;isPaintingLayer&quot;:true}" fill-rule="nonzero" stroke-linecap="butt" stroke-linejoin="miter" stroke-dasharray="" style="mix-blend-mode: normal"><path d="M425.00976,146.42871c0.19313,0 0.34766,0.15452 0.34766,0.34766v66.44531c0,0.19313 -0.15453,0.34961 -0.34766,0.34961h-370.01757c-0.19328,0 -0.34961,-0.15648 -0.34961,-0.34961v-66.44531c0,-0.19313 0.15637,-0.34766 0.34961,-0.34766z" data-paper-data="{&quot;origPos&quot;:null}" id="rect815-0-2" fill="#1e1e1e" stroke="#1eff00" stroke-width="1.5" stroke-miterlimit="4" stroke-dashoffset="17.35"/><path d="M65.71094,151.59863c0.50133,0 0.97087,0.09706 1.4082,0.28906c0.43733,0.18134 0.82168,0.43692 1.15234,0.76758c0.33066,0.33068 0.58624,0.71503 0.76758,1.15234c0.192,0.43734 0.28906,0.90686 0.28906,1.4082c0,0.50132 -0.09706,0.97086 -0.28906,1.4082c-0.18133,0.43734 -0.43691,0.81973 -0.76758,1.15039c-0.33066,0.33066 -0.71501,0.59316 -1.15234,0.78516c-0.43733,0.18142 -0.90687,0.27148 -1.4082,0.27148h-3.9668v4.44922c0,0.256 -0.0921,0.47987 -0.27344,0.67187c-0.18133,0.18142 -0.40521,0.27148 -0.67187,0.27148c-0.256,0 -0.47987,-0.09007 -0.67187,-0.27148c-0.18134,-0.192 -0.27148,-0.41587 -0.27148,-0.67187v-10.43359c0,-0.34124 0.12185,-0.63349 0.36719,-0.87891c0.24533,-0.24542 0.54448,-0.36914 0.89648,-0.36914zM85.51367,151.83887c0.16,0.1601 0.24023,0.35721 0.24023,0.5918v10.94531c0,0.23473 -0.08023,0.43684 -0.24023,0.60742c-0.16001,0.16 -0.35714,0.24023 -0.5918,0.24023c-0.23468,0 -0.43676,-0.08023 -0.60742,-0.24023c-0.16,-0.17073 -0.24023,-0.37284 -0.24023,-0.60742v-10.94531c0,-0.23468 0.08023,-0.4318 0.24023,-0.5918c0.17068,-0.16 0.37276,-0.24023 0.60742,-0.24023c0.23467,0 0.4318,0.08023 0.5918,0.24023zM103.51563,151.83887c0.17066,0.1601 0.25781,0.35721 0.25781,0.5918v10.94531c0,0.23473 -0.08715,0.43684 -0.25781,0.60742c-0.16001,0.16 -0.35714,0.24023 -0.5918,0.24023c-0.23467,0 -0.4318,-0.08023 -0.5918,-0.24023c-0.16,-0.17073 -0.24023,-0.37284 -0.24023,-0.60742v-0.14453c-0.21333,0.18132 -0.41542,0.33684 -0.60742,0.46484c-0.18134,0.128 -0.37351,0.23489 -0.57617,0.32031c-0.20266,0.07458 -0.42653,0.1262 -0.67187,0.1582c-0.24533,0.032 -0.52766,0.04883 -0.84766,0.04883c-0.52267,0 -1.01895,-0.11194 -1.48828,-0.33594c-0.45867,-0.224 -0.8648,-0.53804 -1.2168,-0.94336c-0.34134,-0.416 -0.61179,-0.90731 -0.81445,-1.47266c-0.20266,-0.56534 -0.30469,-1.18843 -0.30469,-1.87109c0,-0.68266 0.09014,-1.3077 0.27148,-1.87305c0.18133,-0.576 0.43886,-1.06731 0.76953,-1.47266c0.34133,-0.416 0.74551,-0.73498 1.21484,-0.95898c0.46933,-0.224 0.99236,-0.33594 1.56836,-0.33594c0.43733,0 0.81672,0.05357 1.13672,0.16016c0.31999,0.10658 0.58549,0.23339 0.79883,0.38281c0.21332,0.13873 0.37875,0.27743 0.49609,0.41602c0.128,0.13858 0.21814,0.24069 0.27148,0.30469v-3.79297c0,-0.23468 0.08023,-0.4318 0.24023,-0.5918c0.16001,-0.16 0.35714,-0.24023 0.5918,-0.24023c0.23467,0 0.4318,0.08023 0.5918,0.24023zM106.62305,151.87207c0.192,0.18134 0.28711,0.40522 0.28711,0.67187c0,0.256 -0.09511,0.47987 -0.28711,0.67187c-0.18133,0.18142 -0.40025,0.27148 -0.65625,0.27148c-0.26667,0 -0.4955,-0.09007 -0.6875,-0.27148c-0.18134,-0.192 -0.27344,-0.41587 -0.27344,-0.67187c0,-0.26658 0.0921,-0.49046 0.27344,-0.67187c0.192,-0.18142 0.42083,-0.27344 0.6875,-0.27344c0.25599,0 0.47491,0.09202 0.65625,0.27344zM61.74414,157.15137h3.75976c0.26668,0 0.51729,-0.04853 0.75195,-0.14453c0.23468,-0.10676 0.43676,-0.24543 0.60742,-0.41601c0.18133,-0.18142 0.32002,-0.38846 0.41602,-0.62305c0.10666,-0.23466 0.16016,-0.48529 0.16016,-0.75195c0,-0.26676 -0.0535,-0.51737 -0.16016,-0.75195c-0.09599,-0.23476 -0.23467,-0.43879 -0.41602,-0.60937c-0.17068,-0.18132 -0.37276,-0.32002 -0.60742,-0.41602c-0.23466,-0.10658 -0.48528,-0.1582 -0.75195,-0.1582l-3.75976,-0.00195zM81.72656,155.50293c0.65066,0.42666 0.97656,1.06164 0.97656,1.9043v5.96875c0,0.23473 -0.08023,0.43684 -0.24023,0.60742c-0.16001,0.16 -0.35714,0.24023 -0.5918,0.24023c-0.23468,0 -0.43676,-0.08023 -0.60742,-0.24023c-0.16,-0.17073 -0.24023,-0.37284 -0.24023,-0.60742v-0.25586c-0.40533,0.43727 -0.86991,0.72949 -1.39258,0.87891c-0.512,0.14942 -1.05486,0.22461 -1.63086,0.22461c-0.36267,0 -0.73213,-0.04853 -1.10547,-0.14453c-0.36267,-0.10658 -0.69352,-0.26705 -0.99219,-0.48047c-0.28799,-0.21332 -0.52178,-0.47883 -0.70312,-0.79883c-0.18134,-0.32 -0.27148,-0.70434 -0.27148,-1.15234c0,-0.512 0.10008,-0.93796 0.30273,-1.2793c0.20267,-0.352 0.47507,-0.64123 0.81641,-0.86523c0.34133,-0.22392 0.73063,-0.3943 1.16797,-0.51172c0.448,-0.11717 0.91754,-0.20244 1.4082,-0.25586c0.56533,-0.064 1.00812,-0.13245 1.32812,-0.20703c0.32,-0.08542 0.5607,-0.18248 0.7207,-0.28906c0.16,-0.10683 0.25511,-0.2286 0.28711,-0.36719c0.04266,-0.13876 0.06445,-0.29426 0.06445,-0.46484c0,-0.20258 -0.05844,-0.37793 -0.17578,-0.52734c-0.11733,-0.14942 -0.26788,-0.27314 -0.44922,-0.36914c-0.18133,-0.096 -0.38342,-0.16445 -0.60742,-0.20703c-0.22399,-0.05342 -0.44291,-0.08008 -0.65625,-0.08008c-0.38401,0 -0.69308,0.0317 -0.92773,0.0957c-0.23466,0.064 -0.42683,0.14928 -0.57617,0.25586c-0.14934,0.10658 -0.27119,0.23535 -0.36719,0.38477c-0.08534,0.14934 -0.16558,0.30289 -0.24023,0.46289c-0.064,0.128 -0.15414,0.22311 -0.27148,0.28711c-0.10666,0.05342 -0.2186,0.08008 -0.33594,0.08008c-0.21332,0 -0.41241,-0.06845 -0.59375,-0.20703c-0.18134,-0.13858 -0.27148,-0.33075 -0.27148,-0.57617c0,-0.096 0.02674,-0.21298 0.08008,-0.35156c0.096,-0.22392 0.22477,-0.44283 0.38477,-0.65625c0.16,-0.22408 0.37201,-0.42121 0.63867,-0.5918c0.27733,-0.17068 0.6151,-0.30439 1.00977,-0.40039c0.40533,-0.10658 0.8947,-0.16016 1.4707,-0.16016c1.088,0 1.9518,0.21891 2.5918,0.65625zM71.71484,155.21582c0.16,0.16007 0.24023,0.35721 0.24023,0.5918v0.30273c0.04266,-0.04258 0.12289,-0.12786 0.24023,-0.25586c0.11734,-0.128 0.26098,-0.25481 0.43164,-0.38281c0.18133,-0.13858 0.37845,-0.25556 0.5918,-0.35156c0.22399,-0.10658 0.45778,-0.16016 0.70312,-0.16016c0.23467,0 0.43375,0.08528 0.59375,0.25586c0.17066,0.16007 0.25586,0.35721 0.25586,0.5918c0,0.22407 -0.0852,0.42121 -0.25586,0.5918c-0.16001,0.16 -0.35909,0.24023 -0.59375,0.24023c-0.40533,0 -0.73423,0.09511 -0.99023,0.28711c-0.25599,0.18134 -0.46003,0.40025 -0.60937,0.65625c-0.13866,0.256 -0.23377,0.52344 -0.28711,0.80078c-0.05334,0.27724 -0.08008,0.50608 -0.08008,0.6875v4.30469c0,0.23473 -0.08023,0.43684 -0.24023,0.60742c-0.16001,0.16 -0.35714,0.24023 -0.5918,0.24023c-0.23467,0 -0.43676,-0.08023 -0.60742,-0.24023c-0.16,-0.17073 -0.24023,-0.37284 -0.24023,-0.60742v-7.56836c0,-0.23466 0.08023,-0.4318 0.24023,-0.5918c0.17067,-0.17058 0.37276,-0.25586 0.60742,-0.25586c0.23467,0 0.4318,0.08528 0.5918,0.25586zM88.55859,155.21582c0.16,0.16007 0.24023,0.35721 0.24023,0.5918v5.56836c0,0.24524 0.0535,0.45921 0.16016,0.64062c0.11734,0.18134 0.26098,0.33489 0.43164,0.46289c0.18133,0.11742 0.37845,0.20748 0.5918,0.27148c0.22399,0.064 0.44291,0.09766 0.65625,0.09766c0.352,0 0.67098,-0.06032 0.95898,-0.17773c0.288,-0.12792 0.5287,-0.2983 0.7207,-0.51172c0.20268,-0.21332 0.35819,-0.46395 0.46484,-0.75195c0.10666,-0.29868 0.16016,-0.61767 0.16016,-0.95898v-4.64062c0,-0.23466 0.07828,-0.4318 0.23828,-0.5918c0.16001,-0.17058 0.35909,-0.25586 0.59375,-0.25586c0.23467,0 0.4318,0.08528 0.5918,0.25586c0.17066,0.16007 0.25586,0.35721 0.25586,0.5918v7.56836c0,0.23473 -0.0852,0.43684 -0.25586,0.60742c-0.16001,0.16 -0.35714,0.24023 -0.5918,0.24023c-0.23467,0 -0.43375,-0.08023 -0.59375,-0.24023c-0.16,-0.17073 -0.23828,-0.37284 -0.23828,-0.60742v-0.28906c-0.10666,0.096 -0.24039,0.21493 -0.40039,0.35351c-0.14933,0.128 -0.33655,0.24977 -0.56055,0.36719c-0.224,0.11716 -0.48454,0.21927 -0.7832,0.30469c-0.288,0.07458 -0.62381,0.11133 -1.00781,0.11133c-0.39467,0 -0.77901,-0.05357 -1.15234,-0.16016c-0.36267,-0.11734 -0.68856,-0.28772 -0.97656,-0.51172c-0.28801,-0.224 -0.51684,-0.50137 -0.6875,-0.83203c-0.17066,-0.33066 -0.25586,-0.715 -0.25586,-1.15234v-5.75976c0,-0.23466 0.08023,-0.4318 0.24023,-0.5918c0.17068,-0.17058 0.37276,-0.25586 0.60742,-0.25586c0.23467,0 0.4318,0.08528 0.5918,0.25586zM106.55859,155.21582c0.16,0.16007 0.24023,0.35721 0.24023,0.5918v7.56836c0,0.23473 -0.08023,0.43684 -0.24023,0.60742c-0.16001,0.16 -0.35714,0.24023 -0.5918,0.24023c-0.23467,0 -0.43676,-0.08023 -0.60742,-0.24023c-0.16,-0.17073 -0.24023,-0.37284 -0.24023,-0.60742v-7.56836c0,-0.23466 0.08023,-0.4318 0.24023,-0.5918c0.17067,-0.17058 0.37276,-0.25586 0.60742,-0.25586c0.23467,0 0.4318,0.08528 0.5918,0.25586zM109.49609,155.21582c0.16,0.16007 0.24023,0.35721 0.24023,0.5918v5.56836c0,0.24524 0.0535,0.45921 0.16016,0.64062c0.11734,0.18134 0.26098,0.33489 0.43164,0.46289c0.18132,0.11742 0.37845,0.20748 0.5918,0.27148c0.22399,0.064 0.44291,0.09766 0.65625,0.09766c0.352,0 0.67098,-0.06032 0.95898,-0.17773c0.288,-0.12792 0.5287,-0.2983 0.7207,-0.51172c0.20268,-0.21332 0.35819,-0.46395 0.46484,-0.75195c0.10666,-0.29868 0.16016,-0.61767 0.16016,-0.95898v-4.64062c0,-0.23466 0.07828,-0.4318 0.23828,-0.5918c0.16001,-0.17058 0.35909,-0.25586 0.59375,-0.25586c0.23467,0 0.4318,0.08528 0.5918,0.25586c0.17066,0.16007 0.25586,0.35721 0.25586,0.5918v7.56836c0,0.23473 -0.0852,0.43684 -0.25586,0.60742c-0.16001,0.16 -0.35714,0.24023 -0.5918,0.24023c-0.23467,0 -0.43375,-0.08023 -0.59375,-0.24023c-0.16,-0.17073 -0.23828,-0.37284 -0.23828,-0.60742v-0.28906c-0.10666,0.096 -0.24039,0.21493 -0.40039,0.35351c-0.14933,0.128 -0.33655,0.24977 -0.56055,0.36719c-0.224,0.11716 -0.48454,0.21927 -0.7832,0.30469c-0.288,0.07458 -0.62381,0.11133 -1.00781,0.11133c-0.39467,0 -0.77901,-0.05357 -1.15234,-0.16016c-0.36267,-0.11734 -0.68856,-0.28772 -0.97656,-0.51172c-0.28801,-0.224 -0.51684,-0.50137 -0.6875,-0.83203c-0.17066,-0.33066 -0.25586,-0.715 -0.25586,-1.15234v-5.75976c0,-0.23466 0.08023,-0.4318 0.24023,-0.5918c0.17067,-0.17058 0.37276,-0.25586 0.60742,-0.25586c0.23467,0 0.4318,0.08528 0.5918,0.25586zM118.2461,155.21582c0.16,0.16007 0.24023,0.35721 0.24023,0.5918v0.35156c0.064,-0.07483 0.15415,-0.18173 0.27149,-0.32031c0.12801,-0.13868 0.29343,-0.27239 0.49609,-0.40039c0.20267,-0.128 0.44337,-0.23994 0.7207,-0.33594c0.288,-0.096 0.62382,-0.14258 1.00782,-0.14258c0.53333,0 0.991,0.14364 1.375,0.43164c0.38399,0.27734 0.68314,0.62306 0.89648,1.03906c0.288,-0.52266 0.65056,-0.89514 1.08789,-1.11914c0.448,-0.23458 0.97103,-0.35156 1.56836,-0.35156c0.384,0 0.73664,0.05836 1.05664,0.17578c0.33068,0.10666 0.613,0.27209 0.84766,0.49609c0.24534,0.224 0.43751,0.50135 0.57617,0.83203c0.13866,0.33066 0.20703,0.715 0.20703,1.15234v5.75976c0,0.23473 -0.08023,0.43684 -0.24023,0.60742c-0.16001,0.16 -0.35714,0.24023 -0.5918,0.24023c-0.23467,0 -0.43676,-0.08023 -0.60742,-0.24023c-0.16,-0.17073 -0.24024,-0.37284 -0.24024,-0.60742v-5.67969c0,-0.37332 -0.12184,-0.69425 -0.36718,-0.96094c-0.24534,-0.26666 -0.57123,-0.40039 -0.97657,-0.40039c-0.352,0 -0.65611,0.0704 -0.91211,0.20898c-0.256,0.128 -0.46996,0.30334 -0.64062,0.52734c-0.16,0.224 -0.28185,0.47958 -0.36719,0.76758c-0.07466,0.288 -0.11133,0.58714 -0.11133,0.89648v4.64062c0,0.23473 -0.08023,0.43684 -0.24023,0.60742c-0.16001,0.16 -0.35714,0.24023 -0.5918,0.24023c-0.23467,0 -0.43871,-0.08023 -0.60937,-0.24023c-0.16,-0.17073 -0.24024,-0.37284 -0.24024,-0.60742v-5.67969c0,-0.37332 -0.1169,-0.69425 -0.35156,-0.96094c-0.23467,-0.26666 -0.56552,-0.40039 -0.99219,-0.40039c-0.352,0 -0.65611,0.0704 -0.91211,0.20898c-0.25601,0.128 -0.46801,0.30334 -0.63867,0.52734c-0.16,0.224 -0.2838,0.47958 -0.36914,0.76758c-0.07466,0.288 -0.11133,0.58714 -0.11133,0.89648v4.64062c0,0.23473 -0.08023,0.43684 -0.24023,0.60742c-0.16001,0.16 -0.35714,0.24023 -0.5918,0.24023c-0.23468,0 -0.43676,-0.08023 -0.60742,-0.24023c-0.16,-0.17073 -0.24023,-0.37284 -0.24023,-0.60742v-7.56836c0,-0.23466 0.08023,-0.4318 0.24023,-0.5918c0.17068,-0.17058 0.37276,-0.25586 0.60742,-0.25586c0.23467,0 0.4318,0.08528 0.5918,0.25586zM98.58789,156.6084c-0.30933,0.18132 -0.57483,0.42503 -0.79883,0.73437c-0.21332,0.29866 -0.37875,0.64633 -0.49609,1.04102c-0.10666,0.384 -0.16016,0.78818 -0.16016,1.21484c0,0.416 0.0535,0.82214 0.16016,1.2168c0.11732,0.39468 0.28275,0.7404 0.49609,1.03906c0.224,0.29858 0.48949,0.53929 0.79883,0.7207c0.30933,0.18142 0.66693,0.27148 1.07226,0.27148c0.40533,0 0.76293,-0.09007 1.07227,-0.27148c0.31999,-0.18134 0.58744,-0.42204 0.80078,-0.7207c0.21334,-0.29866 0.37186,-0.64438 0.47852,-1.03906c0.11734,-0.39466 0.17773,-0.8008 0.17773,-1.2168c0,-0.42666 -0.06039,-0.83084 -0.17773,-1.21484c-0.10666,-0.39468 -0.26517,-0.74236 -0.47852,-1.04102c-0.21333,-0.30924 -0.48078,-0.55296 -0.80078,-0.73437c-0.30933,-0.18142 -0.66693,-0.27344 -1.07227,-0.27344c-0.40533,0 -0.76293,0.09202 -1.07226,0.27344zM80.62305,159.74316c-0.20267,0.064 -0.44337,0.11253 -0.7207,0.14453c-0.26667,0.032 -0.54899,0.06874 -0.84766,0.11133c-0.288,0.04258 -0.57032,0.09616 -0.84766,0.16016c-0.27733,0.064 -0.52795,0.15911 -0.75195,0.28711c-0.22401,0.11732 -0.40626,0.27284 -0.54492,0.46484c-0.128,0.192 -0.19141,0.43764 -0.19141,0.73633c0,0.23466 0.04853,0.4318 0.14453,0.5918c0.10667,0.14942 0.24039,0.27119 0.40039,0.36719c0.16001,0.08542 0.34031,0.15078 0.54297,0.19336c0.20268,0.032 0.40672,0.04687 0.60937,0.04687c0.30933,0 0.6184,-0.0317 0.92773,-0.0957c0.30933,-0.07458 0.58669,-0.19156 0.83203,-0.35156c0.25599,-0.16 0.45808,-0.37397 0.60742,-0.64062c0.16,-0.26666 0.24023,-0.5975 0.24023,-0.99219v-1.13477zM62.39453,169.2627c0.24457,0.15992 0.45602,0.39038 0.63477,0.69141l4.17773,6.99805v-6.92773c0,-0.28223 0.09933,-0.52121 0.29687,-0.71875c0.20696,-0.19754 0.44594,-0.29687 0.71875,-0.29687c0.28222,0 0.52316,0.09933 0.7207,0.29687c0.20697,0.19757 0.30859,0.43654 0.30859,0.71875v8.9043c0,0.16942 -0.03179,0.33004 -0.09766,0.48047c-0.06586,0.1411 -0.1547,0.26798 -0.26758,0.38086c-0.10349,0.11288 -0.23036,0.20181 -0.38086,0.26758c-0.14111,0.05644 -0.29747,0.08398 -0.4668,0.08398c-0.32925,0 -0.61674,-0.08458 -0.86133,-0.25391c-0.23517,-0.16932 -0.44039,-0.39978 -0.61914,-0.69141l-4.17773,-6.99805v6.92773c0,0.27288 -0.10358,0.51188 -0.31055,0.71875c-0.19755,0.19754 -0.43654,0.29687 -0.71875,0.29687c-0.2728,0 -0.51374,-0.09933 -0.7207,-0.29687c-0.19754,-0.20694 -0.29687,-0.44594 -0.29687,-0.71875v-8.91797c0,-0.32932 0.11833,-0.61062 0.35352,-0.8457c0.23518,-0.23509 0.52267,-0.35351 0.86133,-0.35351c0.32924,0 0.61052,0.08458 0.8457,0.25391zM107.35156,169.30566c0.20697,0.19757 0.31055,0.43654 0.31055,0.71875v9.10156c0,0.2822 -0.10358,0.52121 -0.31055,0.71875c-0.19755,0.19754 -0.43654,0.29687 -0.71875,0.29687c-0.28222,0 -0.52316,-0.09933 -0.7207,-0.29687c-0.19754,-0.20694 -0.29687,-0.44594 -0.29687,-0.71875v-9.10156c0,-0.28223 0.09933,-0.52121 0.29687,-0.71875c0.20696,-0.19754 0.4479,-0.29687 0.7207,-0.29687c0.28222,0 0.52121,0.09933 0.71875,0.29687zM75.87891,172.28223c0.49858,0.19754 0.93195,0.48076 1.29883,0.84766c0.36687,0.36687 0.65436,0.80878 0.86133,1.32617c0.21636,0.50799 0.32422,1.07248 0.32422,1.69336c0,0.62087 -0.10785,1.18964 -0.32422,1.70703c-0.20696,0.50797 -0.49445,0.94561 -0.86133,1.3125c-0.36688,0.36697 -0.80025,0.65251 -1.29883,0.85937c-0.49858,0.19754 -1.03359,0.29687 -1.60742,0.29687c-0.56443,0 -1.09712,-0.09933 -1.5957,-0.29687c-0.49858,-0.20697 -0.93,-0.49251 -1.29687,-0.85937c-0.36688,-0.36689 -0.65863,-0.80453 -0.875,-1.3125c-0.20697,-0.51739 -0.31055,-1.08616 -0.31055,-1.70703c0,-0.62088 0.10358,-1.18537 0.31055,-1.69336c0.21637,-0.51739 0.50812,-0.9593 0.875,-1.32617c0.36688,-0.36689 0.7983,-0.65011 1.29687,-0.84766c0.49858,-0.20687 1.03128,-0.31055 1.5957,-0.31055c0.57384,0 1.10884,0.10368 1.60742,0.31055zM80.94727,172.28223c0.19754,0.19754 0.29687,0.43227 0.29687,0.70508c0.08466,-0.09424 0.18824,-0.20201 0.31055,-0.32422c0.13171,-0.12246 0.27137,-0.23023 0.42188,-0.32422c0.15993,-0.10356 0.32482,-0.18814 0.49414,-0.25391c0.16933,-0.07534 0.33849,-0.11328 0.50781,-0.11328c0.37628,0 0.63001,0.09933 0.76172,0.29687c0.1411,0.19754 0.21289,0.428 0.21289,0.69141c0,0.21636 -0.05277,0.38126 -0.15625,0.49414c-0.09408,0.10356 -0.21669,0.18379 -0.36719,0.24023c-0.14111,0.05644 -0.29552,0.10308 -0.46484,0.14063c-0.16932,0.02822 -0.32994,0.07051 -0.48047,0.12695c-0.27281,0.10348 -0.49279,0.23888 -0.66211,0.4082c-0.15992,0.15985 -0.28253,0.33522 -0.36719,0.52344c-0.08466,0.17865 -0.1417,0.36256 -0.16992,0.55078c-0.02822,0.18807 -0.04101,0.36148 -0.04101,0.52148v3.16016c0,0.2822 -0.10358,0.52316 -0.31055,0.7207c-0.19755,0.19754 -0.43849,0.29492 -0.7207,0.29492c-0.27282,0 -0.51181,-0.09738 -0.71875,-0.29492c-0.19754,-0.20694 -0.29687,-0.4479 -0.29687,-0.7207v-6.13867c0,-0.27281 0.09933,-0.50753 0.29687,-0.70508c0.20695,-0.20687 0.45021,-0.31055 0.73242,-0.31055c0.28222,0 0.52316,0.10368 0.7207,0.31055zM86.43164,172.28223c0.19754,0.19754 0.29687,0.43227 0.29687,0.70508c0.08466,-0.09398 0.19251,-0.19766 0.32422,-0.31055c0.1317,-0.1222 0.29037,-0.23433 0.47852,-0.33789c0.18814,-0.10356 0.4058,-0.18814 0.65039,-0.25391c0.25399,-0.07534 0.53527,-0.11328 0.8457,-0.11328c0.36688,0 0.67338,0.03794 0.91797,0.11328c0.25398,0.07534 0.46969,0.17467 0.64844,0.29687c0.17872,0.11296 0.32887,0.24411 0.45117,0.39453c0.12228,0.1412 0.23636,0.28707 0.33984,0.4375c0.08466,-0.1317 0.19251,-0.26905 0.32422,-0.41016c0.13169,-0.1506 0.30085,-0.286 0.50781,-0.4082c0.21636,-0.1222 0.47436,-0.22154 0.77539,-0.29687c0.30103,-0.08466 0.66883,-0.12695 1.10156,-0.12695c0.21636,0 0.46157,0.03794 0.73437,0.11328c0.2822,0.06576 0.5402,0.17789 0.77539,0.33789c0.24458,0.1599 0.4475,0.37136 0.60742,0.63477c0.16932,0.25398 0.25391,0.56902 0.25391,0.94531v5.12305c0,0.27288 -0.10358,0.51188 -0.31055,0.71875c-0.19755,0.19754 -0.43849,0.29687 -0.7207,0.29687c-0.28222,0 -0.52121,-0.09933 -0.71875,-0.29687c-0.19754,-0.20694 -0.29687,-0.44594 -0.29687,-0.71875v-4.05078c0,-0.39511 -0.1354,-0.72915 -0.4082,-1.00195c-0.27281,-0.27281 -0.60685,-0.4082 -1.00195,-0.4082c-0.3951,0 -0.72915,0.1354 -1.00195,0.4082c-0.27281,0.27281 -0.41016,0.60684 -0.41016,1.00195v4.05078c0,0.27288 -0.10358,0.51188 -0.31055,0.71875c-0.19755,0.19754 -0.43227,0.29687 -0.70508,0.29687c-0.2822,0 -0.52741,-0.09933 -0.73437,-0.29687c-0.19754,-0.20694 -0.29492,-0.44594 -0.29492,-0.71875v-4.05078c0,-0.39511 -0.13735,-0.72915 -0.41016,-1.00195c-0.27281,-0.27281 -0.60685,-0.4082 -1.00195,-0.4082c-0.3951,0 -0.72915,0.1354 -1.00195,0.4082c-0.27281,0.27281 -0.4082,0.60684 -0.4082,1.00195v4.05078c0,0.27288 -0.09933,0.51188 -0.29687,0.71875c-0.19755,0.19754 -0.43849,0.29687 -0.7207,0.29687c-0.2822,0 -0.52545,-0.09933 -0.73242,-0.29687c-0.19754,-0.20694 -0.29687,-0.44594 -0.29687,-0.71875v-6.13867c0,-0.27281 0.09933,-0.50753 0.29687,-0.70508c0.20696,-0.20687 0.45021,-0.31055 0.73242,-0.31055c0.28222,0 0.52316,0.10368 0.7207,0.31055zM102.41992,172.09863c0.40451,0.08474 0.7533,0.21589 1.04492,0.39453c0.30102,0.17875 0.53148,0.40493 0.69141,0.67773c0.16932,0.26341 0.25391,0.58272 0.25391,0.95898v5.03711c0,0.27273 -0.09506,0.50319 -0.2832,0.69141c-0.18814,0.18822 -0.4186,0.2832 -0.69141,0.2832c-0.25399,0 -0.47396,-0.08023 -0.66211,-0.24023c-0.17875,-0.16935 -0.28233,-0.38078 -0.31055,-0.63477c-0.35747,0.33875 -0.73381,0.5692 -1.12891,0.69141c-0.3951,0.1222 -0.84127,0.18359 -1.33984,0.18359c-0.31984,0 -0.64536,-0.04859 -0.97461,-0.14258c-0.31984,-0.09398 -0.6116,-0.23365 -0.875,-0.42187c-0.25399,-0.19757 -0.46117,-0.4385 -0.62109,-0.7207c-0.15992,-0.2822 -0.23828,-0.61004 -0.23828,-0.98633c0,-0.58326 0.12687,-1.03989 0.38086,-1.36914c0.2634,-0.32925 0.58696,-0.57872 0.97266,-0.74805c0.38569,-0.16932 0.80005,-0.29185 1.24219,-0.36719c0.45154,-0.07509 0.87017,-0.15122 1.25586,-0.22656c0.38569,-0.07509 0.70499,-0.17681 0.95898,-0.30859c0.2634,-0.1411 0.39453,-0.36303 0.39453,-0.66406c0,-0.1411 -0.04229,-0.26363 -0.12695,-0.36719c-0.07526,-0.11288 -0.18312,-0.20181 -0.32422,-0.26758c-0.1411,-0.07534 -0.306,-0.13238 -0.49414,-0.16992c-0.18813,-0.03754 -0.38483,-0.05664 -0.5918,-0.05664c-0.27282,0 -0.48426,0.03794 -0.63477,0.11328c-0.1505,0.07534 -0.2731,0.17032 -0.36719,0.2832c-0.08466,0.11291 -0.1545,0.23976 -0.21094,0.38086c-0.05644,0.13178 -0.12823,0.2543 -0.21289,0.36719c-0.07526,0.11288 -0.17884,0.20591 -0.31055,0.28125c-0.1317,0.07534 -0.31987,0.11328 -0.56445,0.11328c-0.22578,0 -0.42247,-0.05704 -0.5918,-0.16992c-0.15992,-0.12228 -0.24023,-0.33799 -0.24023,-0.64844c0,-0.30103 0.07606,-0.58 0.22656,-0.83398c0.15051,-0.25408 0.36622,-0.46979 0.64844,-0.64844c0.28221,-0.18807 0.62479,-0.33394 1.0293,-0.4375c0.40451,-0.10356 0.86115,-0.1543 1.36914,-0.1543c0.47976,0 0.92167,0.04229 1.32617,0.12695zM73.33984,173.67871c-0.27281,0.14113 -0.50753,0.33976 -0.70508,0.59375c-0.18814,0.24458 -0.33402,0.53013 -0.4375,0.85937c-0.10348,0.31985 -0.15625,0.66011 -0.15625,1.01758c0,0.35747 0.05277,0.70005 0.15625,1.0293c0.10348,0.32917 0.24935,0.61667 0.4375,0.86133c0.19755,0.24469 0.43227,0.44137 0.70508,0.5918c0.27281,0.1411 0.58358,0.21094 0.93164,0.21094c0.34806,0 0.65688,-0.06983 0.92969,-0.21094c0.28221,-0.15045 0.51889,-0.34713 0.70703,-0.5918c0.18814,-0.24459 0.33402,-0.53208 0.4375,-0.86133c0.10348,-0.32925 0.1543,-0.67183 0.1543,-1.0293c0,-0.35747 -0.05081,-0.69773 -0.1543,-1.01758c-0.10348,-0.32917 -0.24935,-0.61471 -0.4375,-0.85937c-0.18814,-0.25401 -0.42482,-0.45265 -0.70703,-0.59375c-0.27281,-0.15043 -0.58162,-0.22461 -0.92969,-0.22461c-0.34806,0 -0.65883,0.07418 -0.93164,0.22461zM101.6582,176.41699c-0.32925,0.10331 -0.77542,0.20699 -1.33984,0.31055c-0.68672,0.12228 -1.03125,0.44584 -1.03125,0.97266c0,0.13178 0.01902,0.25865 0.05664,0.38086c0.04702,0.1222 0.12308,0.23628 0.22656,0.33984c0.10348,0.09398 0.23888,0.16817 0.4082,0.22461c0.17874,0.05644 0.3964,0.08594 0.65039,0.08594c0.21636,0 0.43207,-0.02319 0.64844,-0.07031c0.22578,-0.05644 0.42443,-0.13258 0.59375,-0.22656c0.17873,-0.10356 0.31839,-0.22608 0.42187,-0.36719c0.11288,-0.15045 0.16992,-0.31959 0.16992,-0.50781v-1.36719c-0.19755,0.04687 -0.46603,0.12105 -0.80469,0.22461z" data-paper-data="{&quot;origPos&quot;:null}" id="path943" fill="#1eff00" stroke="none" stroke-width="1" stroke-miterlimit="10" stroke-dashoffset="0"/><path d="M69.10156,187.56421c1.27594,0 2.33407,4.30813 3.36633,5.0581c1.03226,0.74997 5.45651,0.42505 5.8508,1.63854c0.39429,1.21349 -3.376,3.55113 -3.77029,4.76459c-0.39429,1.21349 1.28192,5.32082 0.24968,6.07079c-1.03226,0.74997 -4.42056,-2.11344 -5.6965,-2.11344c-1.27594,0 -4.66424,2.86341 -5.6965,2.11344c-1.03226,-0.74997 0.64395,-4.8573 0.24968,-6.07079c-0.39428,-1.21346 -4.16458,-3.55109 -3.77029,-4.76459c0.39429,-1.21349 4.81854,-0.88857 5.8508,-1.63854c1.03226,-0.74997 2.09039,-5.0581 3.36633,-5.0581z" data-paper-data="{&quot;origPos&quot;:null}" id="path1428-5-1" fill="#1eff00" stroke="none" stroke-width="0.88188" stroke-miterlimit="4" stroke-dashoffset="17.35"/><path d="M92.03855,190.83078c0.80384,0 1.47046,2.71412 2.12078,3.18663c0.65032,0.47248 3.4376,0.26759 3.686,1.03226c0.24839,0.76449 -2.12688,2.23718 -2.37529,3.0017c-0.24839,0.76449 0.80761,3.3521 0.1573,3.82458c-0.65032,0.47248 -2.78495,-1.33145 -3.58879,-1.33145c-0.80384,0 -2.93847,1.80393 -3.58879,1.33145c-0.65032,-0.47248 0.40569,-3.06009 0.1573,-3.82458c-0.24839,-0.76452 -2.62368,-2.23722 -2.37529,-3.0017c0.24839,-0.76452 3.03568,-0.55979 3.686,-1.03226c0.65032,-0.47252 1.31695,-3.18663 2.12079,-3.18663z" data-paper-data="{&quot;origPos&quot;:null}" id="path1428-0-2-1" fill="#1eff00" stroke="none" stroke-width="0.55559" stroke-miterlimit="4" stroke-dashoffset="17.35"/></g></g></svg>