<svg version="1.1" xmlns="http://www.w3.org/2000/svg" xmlns:xlink="http://www.w3.org/1999/xlink" width="372.21485" height="68.64263" viewBox="0,0,372.21485,68.64263"><g transform="translate(-53.89258,-145.67868)"><g data-paper-data="{&quot;isPaintingLayer&quot;:true}" fill-rule="nonzero" stroke-linecap="butt" stroke-linejoin="miter" stroke-dasharray="" style="mix-blend-mode: normal"><path d="M425.00971,146.42868c0.19313,0 0.34772,0.15458 0.34772,0.34772v66.4453c0,0.19313 -0.15458,0.34961 -0.34772,0.34961h-370.01752c-0.19313,0 -0.34961,-0.15647 -0.34961,-0.34961v-66.4453c0,-0.19313 0.15647,-0.34772 0.34961,-0.34772z" fill="#1e1e1e" stroke="#1eff00" stroke-width="1.5" stroke-miterlimit="4" stroke-dashoffset="17.35"/><path d="M69.10244,187.56367c1.27597,0 2.33416,4.30813 3.36635,5.05807c1.0323,0.74997 5.45658,0.42505 5.85086,1.63858c0.39428,1.21349 -3.37606,3.55106 -3.77031,4.76462c-0.39428,1.21349 1.28194,5.32074 0.24983,6.07075c-1.0323,0.74997 -4.42061,-2.11344 -5.69654,-2.11344c-1.27593,0 -4.66428,2.86341 -5.69651,2.11344c-1.03226,-0.75001 0.64396,-4.85726 0.24983,-6.07075c-0.39428,-1.21353 -4.16459,-3.55113 -3.77031,-4.76462c0.39428,-1.21353 4.81856,-0.88857 5.85083,-1.63858c1.03223,-0.74993 2.09038,-5.05807 3.36631,-5.05807z" fill="#1eff00" stroke="none" stroke-width="0.88188" stroke-miterlimit="4" stroke-dashoffset="17.35"/><path d="M92.03953,187.56367c1.27593,0 2.33405,4.30813 3.36631,5.05807c1.03226,0.74997 5.4565,0.42505 5.85078,1.63858c0.39428,1.21349 -3.37599,3.55106 -3.77027,4.76462c-0.39432,1.21349 1.2819,5.32074 0.24945,6.07075c-1.03222,0.74997 -4.42053,-2.11344 -5.69646,-2.11344c-1.27594,0 -4.66421,2.86341 -5.69647,2.11344c-1.03226,-0.75001 0.64396,-4.85726 0.24945,-6.07075c-0.39428,-1.21353 -4.16455,-3.55113 -3.77031,-4.76462c0.39428,-1.21353 4.81856,-0.88857 5.85078,-1.63858c1.0323,-0.74993 2.09042,-5.05807 3.36636,-5.05807z" fill="#1eff00" stroke="none" stroke-width="0.88188" stroke-miterlimit="4" stroke-dashoffset="17.35"/><path d="M114.97642,187.56367c1.27593,0 2.33409,4.30813 3.36631,5.05807c1.03223,0.74997 5.4565,0.42505 5.85078,1.63858c0.39428,1.21349 -3.37603,3.55106 -3.77031,4.76462c-0.39428,1.21349 1.28194,5.32074 0.24983,6.07075c-1.03226,0.74997 -4.42054,-2.11344 -5.69647,-2.11344c-1.27593,0 -4.66424,2.86341 -5.6965,2.11344c-1.03223,-0.75001 0.64396,-4.85726 0.24983,-6.07075c-0.39428,-1.21353 -4.16459,-3.55113 -3.77031,-4.76462c0.39432,-1.21353 4.81856,-0.88857 5.85082,-1.63858c1.03226,-0.74993 2.09038,-5.05807 3.36631,-5.05807z" fill="#1eff00" stroke="none" stroke-width="0.88188" stroke-miterlimit="4" stroke-dashoffset="17.35"/><path d="M137.91366,190.38883c0.86763,0 1.58718,2.92955 2.28909,3.43948c0.70194,0.50997 3.71042,0.28913 3.97856,1.11424c0.26812,0.82518 -2.2957,2.4147 -2.56381,3.23992c-0.26812,0.82518 0.8717,3.6181 0.16989,4.12811c-0.70196,0.51001 -3.00601,-1.43713 -3.87365,-1.43713c-0.86764,0 -3.17169,1.94714 -3.87362,1.43713c-0.70191,-0.51001 0.43789,-3.30293 0.16989,-4.12811c-0.26812,-0.82518 -2.83192,-2.41474 -2.56381,-3.23992c0.26812,-0.82522 3.27662,-0.60423 3.97856,-1.11424c0.70197,-0.50993 1.42146,-3.43948 2.28909,-3.43948z" fill="#1eff00" stroke="none" stroke-width="0.59968" stroke-miterlimit="4" stroke-dashoffset="17.35"/><path d="M160.85126,196.30402c0.01285,0 0.02343,0.04309 0.03364,0.05065c0.0102,0.00756 0.05461,0.00378 0.05851,0.01512c0.00416,0.01134 -0.03364,0.03402 -0.0378,0.04762c-0.00416,0.01134 0.01285,0.05329 0.002,0.06085c-0.0102,0.00756 -0.04418,-0.02268 -0.057,-0.02268c-0.01285,0 -0.0466,0.03024 -0.057,0.02268c-0.0102,-0.00756 0.00605,-0.04876 0.002,-0.06085c-0.00416,-0.01134 -0.04169,-0.03402 -0.0378,-0.04762c0.00416,-0.01134 0.04819,-0.00756 0.05851,-0.01512c0.0102,-0.00756 0.02079,-0.05065 0.03364,-0.05065z" fill="#1eff00" stroke="none" stroke-width="0.00882" stroke-miterlimit="4" stroke-dashoffset="17.35"/><path d="M66.40304,153.44181c0.23713,0.19402 0.41463,0.45201 0.5332,0.77539l4.05859,10.44531c0.0539,0.1402 0.08008,0.27504 0.08008,0.4043c0,0.09701 -0.0165,0.20554 -0.04883,0.32422c-0.03233,0.11842 -0.08469,0.23679 -0.16016,0.35547c-0.07546,0.10784 -0.1841,0.20005 -0.32422,0.27539c-0.12936,0.07534 -0.29036,0.11133 -0.48437,0.11133c-0.22637,0 -0.43684,-0.06889 -0.63086,-0.20899c-0.19403,-0.14022 -0.3337,-0.32451 -0.41992,-0.55078l-1.06836,-3.07031h-4.65625l-1.03516,3.23242c-0.06468,0.19399 -0.183,0.34528 -0.35547,0.45312c-0.17247,0.09701 -0.36161,0.14649 -0.56641,0.14649c-0.29103,0 -0.54418,-0.09895 -0.75977,-0.29297c-0.2048,-0.19404 -0.30664,-0.4307 -0.30664,-0.71094c0,-0.10784 0.0165,-0.20963 0.04883,-0.30664l3.84766,-10.60742c0.11856,-0.32338 0.29121,-0.58137 0.51758,-0.77539c0.23714,-0.19402 0.52812,-0.29102 0.87305,-0.29102c0.34492,0 0.63105,0.097 0.85742,0.29102zM105.65499,153.44181c0.23713,0.19402 0.41463,0.45201 0.53321,0.77539l4.05859,10.44531c0.05389,0.1402 0.08203,0.27504 0.08203,0.4043c0,0.09701 -0.0165,0.20554 -0.04883,0.32422c-0.03235,0.11842 -0.08667,0.23679 -0.16211,0.35547c-0.07546,0.10784 -0.18214,0.20005 -0.32226,0.27539c-0.12936,0.07534 -0.29232,0.11133 -0.48633,0.11133c-0.22637,0 -0.43684,-0.06889 -0.63086,-0.20899c-0.19403,-0.14022 -0.3337,-0.32451 -0.41992,-0.55078l-1.06641,-3.07031h-4.65625l-1.03515,3.23242c-0.06465,0.19399 -0.183,0.34528 -0.35547,0.45312c-0.17247,0.09701 -0.36161,0.14649 -0.56641,0.14649c-0.29103,0 -0.54418,-0.09895 -0.75977,-0.29297c-0.2048,-0.19404 -0.30664,-0.4307 -0.30664,-0.71094c0,-0.10784 0.01455,-0.20963 0.04687,-0.30664l3.84961,-10.60742c0.11856,-0.32338 0.29121,-0.58137 0.51758,-0.77539c0.23713,-0.19402 0.52811,-0.29102 0.87304,-0.29102c0.34492,0 0.6291,0.097 0.85547,0.29102zM73.73312,153.58829c0.20479,0.12931 0.39393,0.31652 0.56641,0.56446l5.78711,8.68359v-8.50586c0,-0.26953 0.09213,-0.49455 0.27539,-0.67773c0.18324,-0.18318 0.41021,-0.27539 0.67969,-0.27539c0.26949,0 0.4945,0.09221 0.67773,0.27539c0.18326,0.18323 0.27539,0.40825 0.27539,0.67773v10.84961c0,0.2587 -0.09213,0.48567 -0.27539,0.67969c-0.18324,0.18318 -0.40826,0.27344 -0.67773,0.27344c-0.30182,0 -0.55497,-0.0641 -0.75977,-0.19336c-0.2048,-0.1401 -0.38909,-0.3341 -0.55078,-0.58203l-5.80469,-8.61719v8.43945c0,0.2587 -0.09213,0.48567 -0.27539,0.67969c-0.18324,0.18318 -0.40826,0.27344 -0.67773,0.27344c-0.2587,0 -0.48567,-0.09026 -0.67969,-0.27344c-0.18323,-0.19402 -0.27539,-0.42099 -0.27539,-0.67969v-10.84961c0,-0.26953 0.09216,-0.49455 0.27539,-0.67773c0.19402,-0.18318 0.42099,-0.27539 0.67969,-0.27539c0.30182,0 0.55497,0.07084 0.75977,0.21093zM84.88937,153.65275c0.19402,0.18323 0.29101,0.40825 0.29101,0.67773c0,0.25872 -0.097,0.48567 -0.29101,0.67969c-0.18324,0.18318 -0.40537,0.27539 -0.66406,0.27539c-0.26948,0 -0.5013,-0.09221 -0.69531,-0.27539c-0.18323,-0.19404 -0.27344,-0.42099 -0.27344,-0.67969c0,-0.26953 0.09021,-0.49455 0.27344,-0.67773c0.19402,-0.18318 0.42583,-0.27539 0.69531,-0.27539c0.25868,0 0.48081,0.09221 0.66406,0.27539zM88.53585,153.76603c0.22637,0.24794 0.41066,0.54859 0.55078,0.9043l3.42773,8.86132l3.42773,-8.86132c0.14012,-0.35571 0.31762,-0.65636 0.5332,-0.9043c0.22636,-0.2587 0.52703,-0.38867 0.9043,-0.38867c0.33414,0 0.61543,0.11836 0.8418,0.35547c0.23715,0.22636 0.35547,0.50086 0.35547,0.82421v10.72071c0,0.237 -0.08534,0.44068 -0.25781,0.61328c-0.1617,0.16176 -0.36248,0.24414 -0.59961,0.24414c-0.23714,0 -0.43597,-0.08238 -0.59766,-0.24414c-0.16169,-0.1725 -0.24219,-0.37618 -0.24219,-0.61328v-8.29492l-3.15234,8.21289c-0.10779,0.28011 -0.26395,0.50709 -0.46875,0.67968c-0.19402,0.17235 -0.44233,0.25782 -0.74414,0.25782c-0.30182,0 -0.55497,-0.08547 -0.75977,-0.25782c-0.19402,-0.17247 -0.34533,-0.39944 -0.45312,-0.67968l-3.15234,-8.21289v8.29492c0,0.237 -0.08245,0.44068 -0.24414,0.61328c-0.1617,0.16176 -0.36053,0.24414 -0.59766,0.24414c-0.23713,0 -0.44081,-0.08238 -0.61328,-0.24414c-0.16169,-0.1725 -0.24414,-0.37618 -0.24414,-0.61328v-10.72071c0,-0.32345 0.11347,-0.59795 0.33984,-0.82421c0.23714,-0.23711 0.52327,-0.35547 0.85742,-0.35547c0.37726,0 0.67309,0.12997 0.88867,0.38867zM63.81515,160.58829h3.52539l-1.85937,-5.32031zM103.06905,160.58829h3.52344l-1.85937,-5.32031zM84.82492,157.03165c0.16169,0.16172 0.24219,0.36056 0.24219,0.59766v7.64844c0,0.237 -0.0805,0.44068 -0.24219,0.61328c-0.1617,0.16176 -0.36248,0.24414 -0.59961,0.24414c-0.23713,0 -0.44081,-0.08238 -0.61328,-0.24414c-0.16169,-0.1725 -0.24219,-0.37618 -0.24219,-0.61328v-7.64844c0,-0.23705 0.0805,-0.43589 0.24219,-0.59766c0.17248,-0.17259 0.37615,-0.25976 0.61328,-0.25976c0.23714,0 0.43792,0.08717 0.59961,0.25976zM89.80343,168.22306c0.60363,0.2587 1.10993,0.56615 1.51953,0.92188c0.4096,0.3557 0.71707,0.72233 0.92187,1.0996c0.2048,0.37735 0.30664,0.67999 0.30664,0.90625c0,0.17245 -0.04268,0.33345 -0.12891,0.48438c-0.07544,0.15085 -0.17728,0.28083 -0.30664,0.38867c-0.12935,0.10759 -0.27581,0.19306 -0.4375,0.25781c-0.15091,0.06476 -0.30222,0.09766 -0.45312,0.09766c-0.16167,0 -0.30619,-0.03794 -0.43555,-0.11328c-0.12936,-0.07534 -0.2312,-0.18892 -0.30664,-0.33985c-0.08625,-0.17254 -0.19488,-0.37138 -0.32422,-0.59765c-0.11857,-0.23715 -0.28637,-0.45247 -0.50195,-0.64649c-0.2048,-0.20482 -0.46764,-0.37748 -0.79102,-0.51757c-0.31259,-0.1401 -0.70736,-0.21094 -1.18164,-0.21094c-0.53895,0 -1.01712,0.13482 -1.4375,0.4043c-0.4096,0.25869 -0.75975,0.59914 -1.05078,1.01953c-0.28026,0.42038 -0.49753,0.90049 -0.64844,1.43945c-0.14012,0.52818 -0.20898,1.06065 -0.20898,1.59961c0,0.54972 0.06886,1.09385 0.20898,1.63281c0.15091,0.52818 0.36818,1.00345 0.64844,1.42383c0.29103,0.42038 0.64118,0.7657 1.05078,1.03516c0.42038,0.25869 0.89855,0.38672 1.4375,0.38672c0.47428,-0.00001 0.86905,-0.06889 1.18164,-0.20899c0.32337,-0.14007 0.58622,-0.31273 0.79102,-0.51758c0.21557,-0.2049 0.38338,-0.42021 0.50195,-0.64648c0.12936,-0.22642 0.23799,-0.43206 0.32422,-0.61524c0.07544,-0.15093 0.17728,-0.2645 0.30664,-0.33984c0.12935,-0.07534 0.26902,-0.11328 0.41992,-0.11328c0.15091,0 0.30222,0.0329 0.45312,0.09765c0.16168,0.06476 0.30619,0.15193 0.43555,0.25977c0.12934,0.10777 0.23313,0.23579 0.30859,0.38672c0.08622,0.15078 0.12891,0.31373 0.12891,0.48633c0,0.23713 -0.10184,0.5446 -0.30664,0.92187c-0.2048,0.37727 -0.51227,0.74391 -0.92187,1.09961c-0.39883,0.35571 -0.90028,0.66123 -1.50391,0.91992c-0.60362,0.2587 -1.31071,0.38868 -2.11914,0.38868c-0.97011,0 -1.81976,-0.18234 -2.55273,-0.54883c-0.7222,-0.36649 -1.32744,-0.85146 -1.8125,-1.45508c-0.47428,-0.6144 -0.83412,-1.31664 -1.08203,-2.10352c-0.23715,-0.79765 -0.35547,-1.62597 -0.35547,-2.48828c0,-0.85155 0.11832,-1.67695 0.35547,-2.47461c0.24792,-0.79765 0.60775,-1.49794 1.08203,-2.10156c0.48506,-0.6144 1.0903,-1.10421 1.8125,-1.4707c0.73298,-0.36649 1.58262,-0.55078 2.55273,-0.55078c0.80843,0 1.51551,0.13288 2.11914,0.40234zM98.82492,167.94962c0.18325,0.08618 0.34425,0.20454 0.48437,0.35547c0.15091,0.1401 0.28088,0.31273 0.38867,0.51758c0.10779,0.19391 0.19993,0.39955 0.27539,0.61523l3.3457,9.66797c0.0539,0.16172 0.08204,0.31303 0.08204,0.45313c0,0.12933 -0.02814,0.26899 -0.08204,0.41992c-0.04311,0.1508 -0.11197,0.28562 -0.20898,0.4043c-0.09701,0.11867 -0.22214,0.22242 -0.37305,0.30859c-0.1509,0.07534 -0.33324,0.11328 -0.54882,0.11328c-0.25869,0 -0.50215,-0.07563 -0.72852,-0.22656c-0.21559,-0.15091 -0.3669,-0.35654 -0.45312,-0.61524l-0.91992,-3.08789h-3.75195l-0.92187,3.08789c-0.08623,0.25868 -0.24238,0.46431 -0.46875,0.61524c-0.21558,0.15093 -0.45224,0.22656 -0.71094,0.22656c-0.37726,0 -0.67988,-0.12511 -0.90625,-0.37305c-0.21558,-0.25869 -0.32227,-0.54967 -0.32227,-0.87304c0,-0.14005 0.02618,-0.29136 0.08008,-0.45313l3.36328,-9.66797c0.07544,-0.21558 0.1676,-0.42121 0.27539,-0.61523c0.10779,-0.20485 0.23097,-0.37748 0.37109,-0.51758c0.14012,-0.15093 0.30112,-0.26929 0.48437,-0.35547c0.18325,-0.08617 0.39373,-0.1289 0.63086,-0.1289c0.22635,0 0.43198,0.04273 0.61523,0.1289zM127.54951,168.0629c0.22637,0.16169 0.33985,0.37217 0.33985,0.63086c0,0.07559 -0.00479,0.12986 -0.01563,0.16211l-0.4043,1.84375c-0.04311,0.1726 -0.11392,0.31712 -0.21093,0.43555c-0.09701,0.11868 -0.23183,0.17773 -0.4043,0.17773c-0.17247,0 -0.30729,-0.05905 -0.4043,-0.17773c-0.097,-0.11843 -0.16587,-0.26295 -0.20898,-0.43555l-0.4043,-1.84375c-0.01083,-0.03225 -0.01562,-0.08652 -0.01562,-0.16211c0,-0.25862 0.11152,-0.46909 0.33789,-0.63086c0.22634,-0.16176 0.45816,-0.24218 0.69531,-0.24218c0.23713,0 0.46894,0.08042 0.69531,0.24218zM135.42451,168.16056c0.57129,0.21558 1.03976,0.48038 1.40625,0.79297c0.36649,0.31259 0.62933,0.64138 0.79102,0.98633c0.17247,0.34494 0.25976,0.63594 0.25976,0.87304c0,0.1725 -0.03784,0.32866 -0.11328,0.46875c-0.06465,0.12926 -0.15681,0.24089 -0.27539,0.33789c-0.10779,0.08618 -0.23097,0.15702 -0.37109,0.21094c-0.14014,0.04309 -0.2798,0.06446 -0.41992,0.06446c-0.18325,-0.00001 -0.35105,-0.04274 -0.50196,-0.12891c-0.1509,-0.08622 -0.25953,-0.22591 -0.32421,-0.41992c-0.08623,-0.24799 -0.21425,-0.46331 -0.38672,-0.64649c-0.17248,-0.18338 -0.37811,-0.3347 -0.61524,-0.45312c-0.22636,-0.12926 -0.47466,-0.22147 -0.74414,-0.27539c-0.26947,-0.06476 -0.53232,-0.09766 -0.79101,-0.09766c-0.7761,0 -1.34351,0.13482 -1.69922,0.4043c-0.35571,0.26948 -0.53321,0.63127 -0.53321,1.08398c0,0.33411 0.1038,0.60375 0.3086,0.8086c0.21558,0.19406 0.49491,0.36185 0.83984,0.50195c0.34493,0.12926 0.7329,0.24088 1.16406,0.33789c0.44194,0.08617 0.88908,0.18992 1.3418,0.30859c0.4635,0.10769 0.91063,0.24254 1.3418,0.4043c0.44194,0.16169 0.83671,0.38184 1.18164,0.66211c0.34493,0.26948 0.61942,0.61477 0.82422,1.03516c0.21558,0.4096 0.32226,0.92075 0.32226,1.53515c0,0.70065 -0.14451,1.31073 -0.43554,1.82813c-0.28026,0.5066 -0.65854,0.9256 -1.13282,1.25976c-0.47427,0.3233 -1.02325,0.56675 -1.64843,0.72852c-0.61441,0.16176 -1.25553,0.24219 -1.92383,0.24219c-0.82999,0 -1.53707,-0.10684 -2.11914,-0.32227c-0.58207,-0.21558 -1.06024,-0.49201 -1.4375,-0.82617c-0.36648,-0.33416 -0.63612,-0.694 -0.8086,-1.08203c-0.16169,-0.38806 -0.24218,-0.75953 -0.24218,-1.11524c0,-0.19394 0.03102,-0.37339 0.0957,-0.53515c0.07544,-0.16164 0.1676,-0.29646 0.27539,-0.4043c0.11858,-0.11843 0.24855,-0.20868 0.38867,-0.27344c0.15092,-0.06475 0.29543,-0.09765 0.43555,-0.09765c0.18324,0 0.35105,0.05426 0.50195,0.16211c0.15091,0.0971 0.25275,0.2581 0.30664,0.48437c0.14013,0.57129 0.39813,1.03008 0.77539,1.375c0.38805,0.34492 0.99814,0.51758 1.82813,0.51758c0.80843,0 1.44955,-0.13968 1.92383,-0.41992c0.47428,-0.28027 0.71093,-0.68472 0.71093,-1.21289c0,-0.35581 -0.10184,-0.64678 -0.30664,-0.87305c-0.2048,-0.23705 -0.47929,-0.43785 -0.82422,-0.59961c-0.33415,-0.16164 -0.71727,-0.29645 -1.14843,-0.4043c-0.43116,-0.11842 -0.87345,-0.23679 -1.32618,-0.35547c-0.44194,-0.12928 -0.87743,-0.27378 -1.30859,-0.43554c-0.43116,-0.16167 -0.81913,-0.3673 -1.16406,-0.61524c-0.33415,-0.25869 -0.6038,-0.57101 -0.8086,-0.9375c-0.2048,-0.37727 -0.30859,-0.8409 -0.30859,-1.39062c0.01076,-0.61443 0.1291,-1.15856 0.35547,-1.63281c0.23714,-0.47429 0.5611,-0.87389 0.9707,-1.19727c0.40961,-0.32325 0.89457,-0.56959 1.45508,-0.74219c0.56051,-0.17234 1.17545,-0.25976 1.84375,-0.25976c0.80843,0 1.49902,0.11357 2.07031,0.33984zM170.61593,168.0297c0.56051,0.12934 1.05712,0.36115 1.48828,0.69531c0.43116,0.32338 0.77646,0.76083 1.03516,1.31055c0.25869,0.54974 0.38672,1.23353 0.38672,2.05273c0,0.4635 -0.08534,0.90093 -0.25782,1.31055c-0.17246,0.4096 -0.39943,0.78594 -0.67968,1.13086c-0.26948,0.34492 -0.57695,0.66403 -0.92188,0.95508c-0.34493,0.28029 -0.68827,0.53829 -1.0332,0.77539c-0.33415,0.23715 -0.65327,0.45247 -0.95508,0.64648c-0.3018,0.18329 -0.54331,0.34428 -0.72656,0.48438c-0.08623,0.06475 -0.19486,0.14713 -0.32422,0.24414c-0.12934,0.09701 -0.25252,0.19401 -0.3711,0.29101c-0.11857,0.09701 -0.22237,0.19401 -0.30859,0.29102c-0.08622,0.09701 -0.12891,0.18222 -0.12891,0.25781c0,0.06476 0.03782,0.11903 0.11329,0.16211c0.07546,0.03225 0.21028,0.04883 0.40429,0.04883h4.38086c0.29104,0 0.53934,0.10179 0.74414,0.30664c0.2048,0.2048 0.3086,0.45309 0.3086,0.74414c0,0.30176 -0.1038,0.55492 -0.3086,0.75977c-0.2048,0.20485 -0.4531,0.30664 -0.74414,0.30664h-7.14648c-0.30182,0 -0.55497,-0.11162 -0.75977,-0.33789c-0.2048,-0.22635 -0.30664,-0.46982 -0.30664,-0.72852c0,-0.50663 0.15616,-0.98674 0.46875,-1.43945c0.32337,-0.45271 0.72299,-0.88337 1.19727,-1.29297c0.48505,-0.42038 1.00784,-0.82483 1.56836,-1.21289c0.56051,-0.39882 1.0765,-0.79647 1.55078,-1.19531c0.48505,-0.39882 0.88467,-0.81009 1.19726,-1.23047c0.32338,-0.42039 0.48438,-0.86752 0.48438,-1.3418c0,-0.72219 -0.20368,-1.24498 -0.61328,-1.56836c-0.39883,-0.33416 -0.89544,-0.5 -1.48828,-0.5c-0.23714,0 -0.46215,0.02616 -0.67774,0.08008c-0.21558,0.05392 -0.40472,0.14613 -0.5664,0.27539c-0.16169,0.12924 -0.29167,0.30189 -0.38868,0.51758c-0.08622,0.21558 -0.1289,0.48522 -0.1289,0.80859c0,0.28037 -0.11348,0.50539 -0.33985,0.67774c-0.22636,0.16176 -0.47951,0.24414 -0.75976,0.24414c-0.16169,0 -0.31785,-0.02811 -0.46875,-0.08203c-0.1509,-0.05367 -0.28572,-0.13914 -0.4043,-0.25782c-0.11855,-0.11845 -0.21555,-0.2649 -0.29102,-0.4375c-0.07543,-0.18323 -0.11328,-0.40341 -0.11328,-0.66211v-0.00195c0,-0.56053 0.11834,-1.04548 0.35547,-1.45508c0.24792,-0.4096 0.56508,-0.74809 0.95313,-1.01757c0.38804,-0.28035 0.83033,-0.48598 1.32617,-0.61524c0.49584,-0.14009 0.99729,-0.20898 1.50391,-0.20898c0.60362,0 1.18558,0.06889 1.74609,0.20898zM181.95577,168.28947c0.65753,0.3018 1.21815,0.7441 1.68164,1.32617c0.46351,0.57129 0.81366,1.26674 1.05079,2.08594c0.24791,0.80844 0.37109,1.71434 0.37109,2.71679c0,1.00243 -0.12318,1.9132 -0.37109,2.73242c-0.23714,0.80842 -0.58729,1.50387 -1.05079,2.08594c-0.46349,0.57129 -1.02411,1.01163 -1.68164,1.32422c-0.65752,0.30181 -1.39563,0.45313 -2.21484,0.45313c-0.82999,0 -1.5749,-0.15132 -2.23242,-0.45313c-0.65752,-0.31259 -1.21814,-0.75293 -1.68164,-1.32422c-0.45273,-0.58207 -0.80287,-1.27752 -1.05078,-2.08594c-0.23713,-0.81922 -0.35547,-1.72999 -0.35547,-2.73242c0,-1.00245 0.11834,-1.90835 0.35547,-2.71679c0.24791,-0.8192 0.59806,-1.51465 1.05078,-2.08594c0.4635,-0.58207 1.02412,-1.02437 1.68164,-1.32617c0.65752,-0.3126 1.40243,-0.46875 2.23242,-0.46875c0.81921,0 1.55732,0.15615 2.21484,0.46875zM66.48312,168.04728c0.77609,0 1.46669,0.18916 2.07031,0.5664c0.61441,0.36649 1.12555,0.85144 1.53516,1.45508c0.42038,0.59286 0.73949,1.27181 0.95508,2.03711c0.21558,0.76531 0.32226,1.53639 0.32226,2.3125c0,0.78685 -0.10668,1.5628 -0.32226,2.32813c-0.21558,0.75452 -0.53469,1.43347 -0.95508,2.03711c-0.4096,0.60361 -0.9159,1.09343 -1.51953,1.4707c-0.60363,0.36649 -1.29907,0.55078 -2.08594,0.55078l-4.39844,-0.00195c-0.15091,0 -0.30027,-0.02137 -0.45117,-0.06446c-0.15092,-0.05392 -0.29254,-0.12955 -0.42188,-0.22656c-0.11858,-0.10771 -0.21558,-0.24253 -0.29101,-0.40429c-0.07546,-0.16179 -0.11328,-0.35577 -0.11328,-0.58204v-10.21679c0,-0.09701 0.0165,-0.21733 0.04883,-0.35742c0.03233,-0.15098 0.0983,-0.29067 0.19531,-0.41993c0.09701,-0.14009 0.22503,-0.25367 0.38672,-0.33984c0.17246,-0.09701 0.38779,-0.14453 0.64648,-0.14453zM80.56125,168.04728c0.29104,0 0.53934,0.10179 0.74414,0.30664c0.2048,0.2048 0.30859,0.45312 0.30859,0.74414c0,0.30178 -0.10379,0.55492 -0.30859,0.75977c-0.2048,0.20485 -0.45311,0.30664 -0.74414,0.30664h-5.6582v2.76562h4.75391c0.30182,0 0.55497,0.10853 0.75977,0.32422c0.2048,0.2048 0.30664,0.45114 0.30664,0.74219c0,0.29092 -0.10184,0.54408 -0.30664,0.75976c-0.2048,0.20485 -0.45795,0.3086 -0.75977,0.3086l-4.75391,-0.00196v3.62305h5.66016c0.29104,0 0.53739,0.10179 0.74219,0.30664c0.2048,0.2048 0.30859,0.45309 0.30859,0.74414c0,0.30176 -0.10379,0.55492 -0.30859,0.75977c-0.2048,0.20485 -0.45115,0.30664 -0.74219,0.30664h-6.85547c-0.15091,0 -0.30222,-0.02137 -0.45312,-0.06446c-0.15089,-0.05392 -0.29251,-0.12955 -0.42187,-0.22656c-0.11858,-0.10771 -0.21558,-0.24253 -0.29101,-0.40429c-0.07546,-0.16179 -0.11133,-0.35577 -0.11133,-0.58204v-10.21875c0,-0.097 0.01455,-0.21537 0.04688,-0.35546c0.03233,-0.15098 0.0983,-0.29067 0.19531,-0.41993c0.09701,-0.14009 0.22503,-0.25367 0.38672,-0.33984c0.17246,-0.09701 0.38779,-0.14453 0.64648,-0.14453zM110.03194,168.04728c0.7761,0 1.46474,0.18916 2.06836,0.5664c0.61441,0.36649 1.12751,0.85144 1.53711,1.45508c0.42039,0.59286 0.73754,1.27181 0.95313,2.03711c0.21558,0.76531 0.32422,1.53639 0.32422,2.3125c0,0.78685 -0.10864,1.5628 -0.32422,2.32813c-0.21558,0.75452 -0.53274,1.43347 -0.95313,2.03711c-0.4096,0.60361 -0.9159,1.09343 -1.51953,1.4707c-0.60363,0.36649 -1.29907,0.55078 -2.08594,0.55078l-4.39843,-0.00195c-0.15091,0 -0.30222,-0.02137 -0.45313,-0.06446c-0.15089,-0.05392 -0.29056,-0.12955 -0.41992,-0.22656c-0.11855,-0.10771 -0.21555,-0.24253 -0.29102,-0.40429c-0.07546,-0.16179 -0.11328,-0.35577 -0.11328,-0.58204v-10.21679c0,-0.09701 0.0165,-0.21733 0.04883,-0.35742c0.03233,-0.15098 0.09635,-0.29067 0.19336,-0.41993c0.09701,-0.14009 0.22698,-0.25367 0.38867,-0.33984c0.17247,-0.09701 0.38779,-0.14453 0.64649,-0.14453zM124.11007,168.04728c0.29104,0 0.53934,0.10179 0.74414,0.30664c0.2048,0.2048 0.30664,0.45312 0.30664,0.74414c0,0.30178 -0.10184,0.55492 -0.30664,0.75977c-0.2048,0.20485 -0.45311,0.30664 -0.74414,0.30664h-5.6582v2.76562h4.75195c0.30182,0 0.55497,0.10853 0.75977,0.32422c0.2048,0.2048 0.30859,0.45114 0.30859,0.74219c0,0.29092 -0.10379,0.54408 -0.30859,0.75976c-0.20481,0.20485 -0.45796,0.3086 -0.75977,0.3086l-4.75195,-0.00196v3.62305h5.6582c0.29104,0 0.53934,0.10179 0.74414,0.30664c0.2048,0.2048 0.30664,0.45309 0.30664,0.74414c0,0.30176 -0.10184,0.55492 -0.30664,0.75977c-0.2048,0.20485 -0.45311,0.30664 -0.74414,0.30664h-6.85547c-0.15091,0 -0.30222,-0.02137 -0.45312,-0.06446c-0.1509,-0.05392 -0.29056,-0.12955 -0.41993,-0.22656c-0.11855,-0.10771 -0.21555,-0.24253 -0.29101,-0.40429c-0.07547,-0.16179 -0.11328,-0.35577 -0.11328,-0.58204v-10.21875c0,-0.097 0.0165,-0.21537 0.04883,-0.35546c0.03232,-0.15098 0.09635,-0.29067 0.19335,-0.41993c0.09702,-0.14009 0.22699,-0.25367 0.38868,-0.33984c0.17246,-0.09701 0.38779,-0.14453 0.64648,-0.14453zM145.96359,168.40275c0.24791,0.23715 0.37109,0.52812 0.37109,0.87304v9.41016h5.22266c0.30181,0 0.55496,0.10179 0.75976,0.30664c0.2048,0.2048 0.3086,0.45309 0.3086,0.74414c-0.00001,0.30176 -0.1038,0.55492 -0.3086,0.75977c-0.2048,0.20485 -0.45795,0.30859 -0.75976,0.30859h-6.41797c-0.15091,0 -0.30222,-0.02332 -0.45313,-0.06641c-0.15092,-0.05392 -0.29058,-0.1276 -0.41992,-0.2246c-0.11855,-0.10772 -0.21555,-0.24254 -0.29102,-0.4043c-0.07546,-0.16179 -0.11328,-0.35576 -0.11328,-0.58203v-10.25196c0,-0.34497 0.11834,-0.63594 0.35547,-0.87304c0.23714,-0.2371 0.52812,-0.35547 0.87305,-0.35547c0.34494,0 0.63592,0.11837 0.87305,0.35547zM63.28195,178.67033h2.2793c0.63597,0 1.16556,-0.11837 1.58594,-0.35547c0.43116,-0.24791 0.7745,-0.57187 1.0332,-0.97071c0.2587,-0.39881 0.44299,-0.85081 0.55078,-1.35742c0.10779,-0.51742 0.16211,-1.04021 0.16211,-1.56836c0,-0.52817 -0.05432,-1.0461 -0.16211,-1.55273c-0.10779,-0.50661 -0.29208,-0.95861 -0.55078,-1.35742c-0.2587,-0.39882 -0.60204,-0.72277 -1.0332,-0.97071c-0.42038,-0.24793 -0.94997,-0.37304 -1.58594,-0.37304h-2.2793zM106.83077,178.67033h2.2793c0.63597,0 1.1636,-0.11837 1.58398,-0.35547c0.43117,-0.24791 0.77646,-0.57187 1.03516,-0.97071c0.2587,-0.39881 0.44104,-0.85081 0.54883,-1.35742c0.10779,-0.51742 0.16211,-1.04021 0.16211,-1.56836c0,-0.52817 -0.05432,-1.0461 -0.16211,-1.55273c-0.10779,-0.50661 -0.29013,-0.95861 -0.54883,-1.35742c-0.2587,-0.39882 -0.60399,-0.72277 -1.03516,-0.97071c-0.42038,-0.24793 -0.94801,-0.37304 -1.58398,-0.37304h-2.2793zM177.60616,171.184c-0.48505,0.66829 -0.72851,1.74685 -0.72851,3.23437c0,1.49828 0.24346,2.58171 0.72851,3.25c0.49584,0.6683 1.20777,1.00196 2.13477,1.00196c0.91622,0 1.6165,-0.33366 2.10156,-1.00196c0.49584,-0.66829 0.74414,-1.75172 0.74414,-3.25c0,-1.48752 -0.2483,-2.56608 -0.74414,-3.23437c-0.48506,-0.67908 -1.18534,-1.01953 -2.10156,-1.01953c-0.927,0 -1.63893,0.34045 -2.13477,1.01953zM96.88351,174.98283h2.63672l-1.31055,-4.46094zM154.76826,171.60392c0.18323,0.09716 0.30837,0.25332 0.37305,0.46875l1.7793,5.9668l1.79297,-5.9668c0.06468,-0.21558 0.18495,-0.37174 0.35742,-0.46875c0.18324,-0.10784 0.38207,-0.16211 0.59765,-0.16211c0.12937,0 0.25739,0.02811 0.38672,0.08203c0.14012,0.04309 0.26526,0.10719 0.37305,0.19336c0.11858,0.08617 0.21558,0.19975 0.29101,0.33984c0.07547,0.12947 0.11329,0.28078 0.11329,0.45313c0,0.09701 -0.0165,0.19401 -0.04883,0.29101l-2.42578,6.95118c-0.11858,0.32337 -0.30092,0.58332 -0.54883,0.77734c-0.24792,0.18318 -0.54374,0.27344 -0.88867,0.27344c-0.34494,0 -0.64272,-0.09026 -0.89063,-0.27344c-0.24791,-0.19404 -0.43025,-0.45399 -0.54883,-0.77734l-2.41015,-6.95118c-0.03233,-0.097 -0.04883,-0.194 -0.04883,-0.29101c0,-0.345 0.12513,-0.60979 0.37305,-0.79297c0.24791,-0.18318 0.51075,-0.27539 0.79101,-0.27539c0.21558,0 0.40956,0.05427 0.58203,0.16211zM163.48116,178.70158c0.24792,0.23712 0.3711,0.5281 0.3711,0.87304c0,0.34497 -0.12318,0.63595 -0.3711,0.87305c-0.23714,0.2371 -0.52811,0.35742 -0.87304,0.35742c-0.34492,0 -0.63785,-0.12032 -0.875,-0.35742c-0.23713,-0.23715 -0.35547,-0.52813 -0.35547,-0.87305c0,-0.34497 0.11834,-0.63594 0.35547,-0.87304c0.23714,-0.24794 0.53007,-0.3711 0.875,-0.3711c0.34491,0 0.63589,0.12316 0.87304,0.3711z" fill="#1eff00" stroke="none" stroke-width="1.01053" stroke-miterlimit="10" stroke-dashoffset="0"/></g></g></svg>