<svg version="1.1" xmlns="http://www.w3.org/2000/svg" xmlns:xlink="http://www.w3.org/1999/xlink" width="372.21487" height="68.64263" viewBox="0,0,372.21487,68.64263"><g transform="translate(-53.89256,-145.67868)"><g data-paper-data="{&quot;isPaintingLayer&quot;:true}" fill-rule="nonzero" stroke-linecap="butt" stroke-linejoin="miter" stroke-dasharray="" style="mix-blend-mode: normal"><path d="M425.00972,146.42868c0.19313,0 0.34772,0.15458 0.34772,0.34772v66.4453c0,0.19313 -0.15458,0.34961 -0.34772,0.34961h-370.01754c-0.19313,0 -0.34961,-0.15647 -0.34961,-0.34961v-66.4453c0,-0.19313 0.15647,-0.34772 0.34961,-0.34772z" fill="#1e1e1e" stroke="#1eff00" stroke-width="1.5" stroke-miterlimit="4" stroke-dashoffset="17.35"/><path d="M69.10243,187.56367c1.27597,0 2.33416,4.30813 3.36635,5.05807c1.0323,0.74997 5.45658,0.42505 5.85086,1.63858c0.39428,1.21349 -3.37606,3.55106 -3.77031,4.76462c-0.39428,1.21349 1.28194,5.32074 0.24983,6.07075c-1.0323,0.74997 -4.42061,-2.11344 -5.69654,-2.11344c-1.27593,0 -4.66428,2.86341 -5.69651,2.11344c-1.03226,-0.75001 0.64396,-4.85726 0.24983,-6.07075c-0.39428,-1.21353 -4.16459,-3.55113 -3.77031,-4.76462c0.39428,-1.21353 4.81856,-0.88857 5.85083,-1.63858c1.03223,-0.74993 2.09038,-5.05807 3.36631,-5.05807z" fill="#1eff00" stroke="none" stroke-width="0.88188" stroke-miterlimit="4" stroke-dashoffset="17.35"/><path d="M92.03941,192.41942c0.57417,0 1.05032,1.93867 1.51484,2.27614c0.46452,0.33751 2.45543,0.19124 2.63285,0.73735c0.17741,0.54607 -1.5192,1.59798 -1.69662,2.14409c-0.17745,0.54607 0.57686,2.39433 0.11225,2.73184c-0.4645,0.33751 -1.98924,-0.95108 -2.56341,-0.95108c-0.57417,0 -2.09889,1.28855 -2.56341,0.95108c-0.46452,-0.33751 0.28978,-2.18578 0.11225,-2.73184c-0.17741,-0.5461 -1.87404,-1.59802 -1.69664,-2.14409c0.17741,-0.5461 2.16835,-0.39987 2.63285,-0.73735c0.46454,-0.33751 0.94069,-2.27614 1.51486,-2.27614z" fill="#1eff00" stroke="none" stroke-width="0.39685" stroke-miterlimit="4" stroke-dashoffset="17.35"/><path d="M160.85126,196.30402c0.01285,0 0.02343,0.04309 0.03364,0.05065c0.0102,0.00756 0.05458,0.00378 0.05851,0.01512c0.00378,0.01134 -0.03364,0.03402 -0.0378,0.04762c-0.00378,0.01134 0.01285,0.05329 0.0025,0.06085c-0.0102,0.00756 -0.04422,-0.02268 -0.05696,-0.02268c-0.01285,0 -0.04664,0.03024 -0.05696,0.02268c-0.0102,-0.00756 0.00643,-0.04876 0.0025,-0.06085c-0.00378,-0.01134 -0.04165,-0.03402 -0.0378,-0.04762c0.00378,-0.01134 0.04819,-0.00756 0.05851,-0.01512c0.0102,-0.00756 0.02079,-0.05065 0.03364,-0.05065z" fill="#1eff00" stroke="none" stroke-width="0.00882" stroke-miterlimit="4" stroke-dashoffset="17.35"/><path d="M66.4025,153.44328c0.23713,0.19404 0.41463,0.45204 0.5332,0.77539l4.05859,10.44531c0.0539,0.14022 0.08008,0.27504 0.08008,0.4043c0,0.09701 -0.0165,0.20554 -0.04883,0.32422c-0.03235,0.11842 -0.08472,0.23679 -0.16016,0.35547c-0.07546,0.10784 -0.1841,0.20005 -0.32422,0.27539c-0.12935,0.07534 -0.29036,0.11133 -0.48437,0.11133c-0.22637,0 -0.43684,-0.06889 -0.63086,-0.20898c-0.19403,-0.14022 -0.3337,-0.32451 -0.41992,-0.55078l-1.06836,-3.07031h-4.65625l-1.03516,3.23242c-0.06465,0.19396 -0.183,0.34528 -0.35547,0.45312c-0.17247,0.09701 -0.36161,0.14648 -0.56641,0.14648c-0.29103,0 -0.54418,-0.097 -0.75976,-0.29101c-0.2048,-0.19402 -0.30664,-0.43263 -0.30664,-0.71289c0,-0.10784 0.0165,-0.20963 0.04883,-0.30664l3.84766,-10.60742c0.11856,-0.32338 0.29121,-0.58137 0.51758,-0.77539c0.23714,-0.19402 0.52812,-0.29102 0.87305,-0.29102c0.34492,0 0.63105,0.097 0.85742,0.29102zM105.65445,153.44328c0.23713,0.19404 0.41658,0.45204 0.53515,0.77539l4.05664,10.44531c0.0539,0.14022 0.08204,0.27504 0.08204,0.4043c0,0.09701 -0.0165,0.20554 -0.04883,0.32422c-0.03233,0.11842 -0.08665,0.23679 -0.16211,0.35547c-0.07547,0.10784 -0.18215,0.20005 -0.32227,0.27539c-0.12935,0.07534 -0.29231,0.11133 -0.48633,0.11133c-0.22636,0 -0.43684,-0.06889 -0.63086,-0.20898c-0.19403,-0.14022 -0.33369,-0.32451 -0.41992,-0.55078l-1.0664,-3.07031h-4.65625l-1.03516,3.23242c-0.06468,0.19396 -0.183,0.34528 -0.35547,0.45312c-0.17246,0.09701 -0.3616,0.14648 -0.5664,0.14648c-0.29104,0 -0.54419,-0.097 -0.75977,-0.29101c-0.2048,-0.19402 -0.30664,-0.43263 -0.30664,-0.71289c0,-0.10784 0.01455,-0.20963 0.04687,-0.30664l3.84961,-10.60742c0.11857,-0.32338 0.29121,-0.58137 0.51758,-0.77539c0.23714,-0.19402 0.52812,-0.29102 0.87305,-0.29102c0.34492,0 0.6291,0.097 0.85547,0.29102zM73.73258,153.58976c0.20479,0.12931 0.39393,0.31652 0.56641,0.56445l5.78711,8.68359v-8.50586c0,-0.26953 0.09216,-0.49455 0.27539,-0.67773c0.18324,-0.18318 0.41021,-0.27539 0.67969,-0.27539c0.26949,0 0.4945,0.09221 0.67773,0.27539c0.18326,0.18323 0.27539,0.40825 0.27539,0.67773v10.84961c0,0.2587 -0.09213,0.48567 -0.27539,0.67969c-0.18324,0.18318 -0.40826,0.27344 -0.67773,0.27344c-0.30181,0 -0.55496,-0.0641 -0.75976,-0.19336c-0.2048,-0.14009 -0.38909,-0.33409 -0.55078,-0.58203l-5.80469,-8.61719v8.43945c0,0.2587 -0.09216,0.48567 -0.27539,0.67969c-0.18324,0.18318 -0.40826,0.27344 -0.67773,0.27344c-0.2587,0 -0.48567,-0.09026 -0.67969,-0.27344c-0.18326,-0.19402 -0.27539,-0.42099 -0.27539,-0.67969v-10.84961c0,-0.26953 0.09213,-0.49455 0.27539,-0.67773c0.19402,-0.18318 0.42099,-0.27539 0.67969,-0.27539c0.30182,0 0.55497,0.07084 0.75976,0.21094zM84.88883,153.65421c0.19402,0.18323 0.29102,0.40825 0.29102,0.67773c0,0.2587 -0.097,0.48567 -0.29102,0.67969c-0.18324,0.18318 -0.40536,0.27539 -0.66406,0.27539c-0.26948,0 -0.5013,-0.09221 -0.69531,-0.27539c-0.18326,-0.19401 -0.27344,-0.42099 -0.27344,-0.67969c0,-0.26953 0.09018,-0.49455 0.27344,-0.67773c0.19402,-0.18318 0.42584,-0.27539 0.69531,-0.27539c0.25869,0 0.48081,0.09221 0.66406,0.27539zM88.53531,153.7675c0.22637,0.24794 0.41066,0.54859 0.55078,0.9043l3.42773,8.86133l3.42773,-8.86133c0.14012,-0.3557 0.31762,-0.65636 0.5332,-0.9043c0.22636,-0.2587 0.52898,-0.38867 0.90625,-0.38867c0.33414,0 0.61347,0.11837 0.83984,0.35547c0.23713,0.22634 0.35547,0.50084 0.35547,0.82422v10.7207c0,0.237 -0.08534,0.44068 -0.25781,0.61328c-0.1617,0.16176 -0.36248,0.24414 -0.59961,0.24414c-0.23713,0 -0.43597,-0.08238 -0.59766,-0.24414c-0.16169,-0.1725 -0.24219,-0.37618 -0.24219,-0.61328v-8.29492l-3.15234,8.21289c-0.10779,0.28011 -0.26395,0.50709 -0.46875,0.67969c-0.19402,0.17235 -0.44233,0.25781 -0.74414,0.25781c-0.30181,0 -0.55496,-0.08547 -0.75976,-0.25781c-0.19402,-0.17247 -0.34533,-0.39945 -0.45312,-0.67969l-3.15234,-8.21289v8.29492c0,0.237 -0.08245,0.44068 -0.24414,0.61328c-0.16167,0.16176 -0.3605,0.24414 -0.59766,0.24414c-0.23713,0 -0.44081,-0.08238 -0.61328,-0.24414c-0.16169,-0.1725 -0.24414,-0.37618 -0.24414,-0.61328v-10.7207c0,-0.32345 0.11348,-0.59795 0.33984,-0.82422c0.23714,-0.2371 0.52327,-0.35547 0.85742,-0.35547c0.37726,0 0.67309,0.12998 0.88867,0.38867zM63.81461,160.58976h3.52539l-1.85937,-5.32031zM103.06851,160.58976h3.52344l-1.85938,-5.32031zM84.82437,157.03311c0.16169,0.16171 0.24219,0.36055 0.24219,0.59766v7.64844c0,0.237 -0.0805,0.44068 -0.24219,0.61328c-0.1617,0.16176 -0.36248,0.24414 -0.59961,0.24414c-0.23713,0 -0.44081,-0.08238 -0.61328,-0.24414c-0.16169,-0.1725 -0.24219,-0.37618 -0.24219,-0.61328v-7.64844c0,-0.23705 0.0805,-0.43589 0.24219,-0.59766c0.17247,-0.17235 0.37615,-0.25977 0.61328,-0.25977c0.23714,0 0.43792,0.08742 0.59961,0.25977zM62.91031,168.40421c0.24791,0.23713 0.37109,0.5281 0.37109,0.87305v9.41016h5.22266c0.30181,0 0.55496,0.10179 0.75976,0.30664c0.2048,0.2048 0.30664,0.45309 0.30664,0.74414c0,0.30176 -0.10184,0.55491 -0.30664,0.75976c-0.2048,0.20485 -0.45795,0.30859 -0.75976,0.30859h-6.41992c-0.15091,0 -0.30027,-0.02332 -0.45117,-0.06641c-0.15092,-0.05392 -0.29254,-0.1276 -0.42187,-0.22461c-0.11855,-0.10772 -0.21555,-0.24253 -0.29102,-0.4043c-0.07546,-0.16179 -0.11328,-0.35576 -0.11328,-0.58203v-10.25195c0,-0.34497 0.12029,-0.63594 0.35742,-0.87305c0.23714,-0.2371 0.52812,-0.35547 0.87305,-0.35547c0.34494,0 0.63592,0.11837 0.87305,0.35547zM88.79117,168.19328c0.21558,0.0861 0.39792,0.21607 0.54883,0.38867c0.16169,0.16176 0.28682,0.35576 0.37305,0.58203c0.09701,0.22637 0.14453,0.46982 0.14453,0.72852v5.85156h0.87305c0.29104,0 0.53934,0.10374 0.74414,0.30859c0.21558,0.2048 0.32422,0.45796 0.32422,0.75977c0,0.29097 -0.10863,0.53929 -0.32422,0.74414c-0.2048,0.20485 -0.4531,0.30664 -0.74414,0.30664h-0.87305v1.71289c0,0.34497 -0.12318,0.63594 -0.37109,0.87305c-0.23714,0.2371 -0.52812,0.35742 -0.87305,0.35742c-0.34494,0 -0.63592,-0.12032 -0.87305,-0.35742c-0.23713,-0.23715 -0.35547,-0.52813 -0.35547,-0.87305v-1.71289h-4.00976c-0.3126,0 -0.59388,-0.04948 -0.8418,-0.14648c-0.24793,-0.10789 -0.46325,-0.24757 -0.64648,-0.41992c-0.17247,-0.17257 -0.30729,-0.37139 -0.4043,-0.59766c-0.09701,-0.23713 -0.14453,-0.48544 -0.14453,-0.74414c0,-0.54974 0.21047,-1.06769 0.63086,-1.55273l4.52734,-5.33594c0.23715,-0.28026 0.47865,-0.51692 0.72656,-0.71094c0.2587,-0.20485 0.55452,-0.30664 0.88867,-0.30664c0.23714,0 0.4641,0.04752 0.67969,0.14453zM83.48844,175.74406h3.89648v-4.65625zM71.715,171.60539c0.18323,0.09691 0.30641,0.25306 0.37109,0.46875l1.7793,5.9668l1.79492,-5.9668c0.06465,-0.21558 0.183,-0.37174 0.35547,-0.46875c0.18324,-0.10784 0.38207,-0.16211 0.59766,-0.16211c0.12934,0 0.25931,0.02811 0.38867,0.08203c0.14012,0.04309 0.2633,0.10719 0.37109,0.19336c0.11855,0.08617 0.2175,0.19975 0.29297,0.33984c0.07546,0.12949 0.11133,0.28078 0.11133,0.45312c0,0.09701 -0.01455,0.19401 -0.04687,0.29102l-2.42578,6.95117c-0.11858,0.32338 -0.30287,0.58333 -0.55078,0.77734c-0.24792,0.18318 -0.54374,0.27344 -0.88867,0.27344c-0.34494,0 -0.64076,-0.09026 -0.88867,-0.27344c-0.24791,-0.19402 -0.4322,-0.45397 -0.55078,-0.77734l-2.4082,-6.95117c-0.03233,-0.09701 -0.04883,-0.19401 -0.04883,-0.29102c0,-0.34499 0.12318,-0.60979 0.37109,-0.79297c0.24792,-0.18318 0.51271,-0.27539 0.79297,-0.27539c0.21557,0 0.40956,0.05427 0.58203,0.16211zM80.42594,178.70304c0.24791,0.23713 0.37305,0.5281 0.37305,0.87305c0,0.34497 -0.12513,0.63594 -0.37305,0.87305c-0.23714,0.2371 -0.52811,0.35742 -0.87305,0.35742c-0.34494,0 -0.63592,-0.12032 -0.87305,-0.35742c-0.23715,-0.23715 -0.35547,-0.52813 -0.35547,-0.87305c0,-0.34497 0.11832,-0.63594 0.35547,-0.87305c0.23714,-0.24794 0.52812,-0.37109 0.87305,-0.37109c0.34494,0 0.63592,0.12316 0.87305,0.37109z" fill="#1eff00" stroke="none" stroke-width="1.01053" stroke-miterlimit="10" stroke-dashoffset="0"/></g></g></svg>