<svg version="1.1" xmlns="http://www.w3.org/2000/svg" xmlns:xlink="http://www.w3.org/1999/xlink" width="372.21493" height="68.64271" viewBox="0,0,372.21493,68.64271"><g transform="translate(-53.89254,-145.67864)"><g data-paper-data="{&quot;isPaintingLayer&quot;:true}" fill-rule="nonzero" stroke-linecap="butt" stroke-linejoin="miter" stroke-dasharray="" style="mix-blend-mode: normal"><path d="M425.00975,146.42864c0.19313,0 0.34772,0.15458 0.34772,0.34772v66.44538c0,0.19313 -0.15458,0.34961 -0.34772,0.34961h-370.0176c-0.19313,0 -0.34961,-0.15647 -0.34961,-0.34961v-66.4453c0,-0.19313 0.15647,-0.34772 0.34961,-0.34772z" fill="#1e1e1e" stroke="#1eff00" stroke-width="1.5" stroke-miterlimit="4" stroke-dashoffset="17.35"/><path d="M69.10185,187.56563c1.27601,0 2.33412,4.30809 3.36643,5.0581c1.03219,0.7499 5.4565,0.42501 5.85078,1.6385c0.3942,1.21349 -3.3761,3.55109 -3.77031,4.76459c-0.39428,1.21353 1.2819,5.32082 0.24983,6.07083c-1.0323,0.7499 -4.42057,-2.11351 -5.6965,-2.11351c-1.27589,0 -4.66416,2.86341 -5.69647,2.11351c-1.0323,-0.75001 0.64399,-4.8573 0.24983,-6.07083c-0.39432,-1.21349 -4.16462,-3.55109 -3.77031,-4.76459c0.39428,-1.21349 4.8186,-0.8886 5.85078,-1.6385c1.0323,-0.75001 2.09042,-5.0581 3.36631,-5.0581z" fill="#1eff00" stroke="none" stroke-width="0.23333" stroke-miterlimit="4" stroke-dashoffset="17.35"/><path d="M92.03897,187.56563c1.2759,0 2.33401,4.30809 3.36632,5.0581c1.0323,0.7499 5.45646,0.42501 5.85078,1.6385c0.39432,1.21349 -3.37599,3.55109 -3.77031,4.76459c-0.39428,1.21353 1.2819,5.32082 0.24945,6.07083c-1.0323,0.7499 -4.42061,-2.11351 -5.6965,-2.11351c-1.27601,0 -4.66428,2.86341 -5.6965,2.11351c-1.0323,-0.75001 0.64399,-4.8573 0.24945,-6.07083c-0.3942,-1.21349 -4.16447,-3.55109 -3.77019,-4.76459c0.3942,-1.21349 4.81852,-0.8886 5.85071,-1.6385c1.0323,-0.75001 2.09038,-5.0581 3.36639,-5.0581z" fill="#1eff00" stroke="none" stroke-width="0.23333" stroke-miterlimit="4" stroke-dashoffset="17.35"/><path d="M114.97606,187.56563c1.27593,0 2.33401,4.30809 3.36631,5.0581c1.0323,0.7499 5.4565,0.42501 5.85082,1.6385c0.39428,1.21349 -3.37603,3.55109 -3.77031,4.76459c-0.39432,1.21353 1.2819,5.32082 0.24945,6.07083c-1.0323,0.7499 -4.42061,-2.11351 -5.6965,-2.11351c-1.27601,0 -4.66431,2.86341 -5.6965,2.11351c-1.0323,-0.75001 0.64399,-4.8573 0.24945,-6.07083c-0.3942,-1.21349 -4.16451,-3.55109 -3.77019,-4.76459c0.39417,-1.21349 4.81848,-0.8886 5.85067,-1.6385c1.0323,-0.75001 2.09042,-5.0581 3.36643,-5.0581z" fill="#1eff00" stroke="none" stroke-width="0.23333" stroke-miterlimit="4" stroke-dashoffset="17.35"/><path d="M137.91315,188.44849c1.1483,0 2.10057,3.8773 3.02965,4.55229c0.92907,0.67491 4.91085,0.38253 5.26574,1.47466c0.35486,1.09213 -3.03842,3.19597 -3.39327,4.28814c-0.3549,1.09217 1.15371,4.78874 0.2245,5.46372c-0.92907,0.67491 -3.97855,-1.90216 -5.12685,-1.90216c-1.14841,0 -4.19788,2.57707 -5.12685,1.90216c-0.92907,-0.67499 0.57959,-4.37155 0.2245,-5.46372c-0.35478,-1.09217 -3.74806,-3.19601 -3.39317,-4.28814c0.35478,-1.09213 4.33663,-0.79975 5.2656,-1.47466c0.92907,-0.67499 1.88138,-4.55229 3.02978,-4.55229z" fill="#1eff00" stroke="none" stroke-width="0.21" stroke-miterlimit="4" stroke-dashoffset="17.35"/><path d="M105.54554,153.16522c0.54973,0.16169 1.01821,0.377 1.40625,0.64648c0.39883,0.26948 0.70629,0.57212 0.92188,0.90625c0.21558,0.33416 0.32226,0.66782 0.32226,1.00195c0,0.28039 -0.097,0.50735 -0.29101,0.67969c-0.18324,0.16177 -0.38692,0.24219 -0.61328,0.24219c-0.1617,0 -0.31301,-0.04273 -0.45313,-0.12891c-0.14014,-0.09695 -0.25362,-0.24827 -0.33984,-0.45312c-0.12935,-0.32338 -0.302,-0.58138 -0.51758,-0.77539c-0.2048,-0.20475 -0.43662,-0.36091 -0.69531,-0.46875c-0.24792,-0.11868 -0.51272,-0.19431 -0.79297,-0.22656c-0.28026,-0.04309 -0.54794,-0.06446 -0.80664,-0.06446c-0.38805,0 -0.74983,0.04273 -1.08399,0.12891c-0.32338,0.07534 -0.60951,0.18696 -0.85742,0.33789c-0.23715,0.14002 -0.42629,0.31947 -0.56641,0.53516c-0.12936,0.2048 -0.19336,0.44145 -0.19336,0.71093c0,0.36652 0.10863,0.6672 0.32422,0.9043c0.22636,0.23708 0.52218,0.43784 0.88867,0.59961c0.36649,0.16156 0.78064,0.30124 1.24414,0.41992c0.4635,0.11868 0.93877,0.24183 1.42382,0.37109c0.49584,0.12942 0.97596,0.28557 1.43946,0.46875c0.4635,0.17245 0.87765,0.39943 1.24414,0.67969c0.36648,0.28027 0.65746,0.62556 0.87305,1.03516c0.22636,0.4096 0.33984,0.91105 0.33984,1.5039c0,0.65752 -0.12998,1.22783 -0.38867,1.71289c-0.24792,0.48507 -0.59322,0.88954 -1.03516,1.2129c-0.44194,0.3233 -0.95793,0.56675 -1.55078,0.72851c-0.59285,0.16177 -1.22428,0.24219 -1.89258,0.24219c-0.95934,0 -1.77795,-0.13482 -2.45703,-0.4043c-0.6683,-0.28026 -1.21243,-0.61392 -1.63281,-1.00195c-0.42039,-0.39882 -0.72786,-0.81493 -0.92188,-1.24609c-0.19401,-0.44196 -0.29101,-0.82507 -0.29101,-1.14844c0,-0.38796 0.097,-0.66246 0.29101,-0.82422c0.2048,-0.16177 0.41528,-0.24219 0.63086,-0.24219c0.18325,0 0.3491,0.05906 0.5,0.17774c0.15093,0.10776 0.24306,0.28526 0.27539,0.5332c0.06467,0.4096 0.20434,0.77139 0.41992,1.08398c0.22636,0.31249 0.5028,0.57729 0.82617,0.79297c0.32337,0.20475 0.68321,0.36091 1.08203,0.46875c0.39882,0.10784 0.80813,0.16016 1.22851,0.16016c0.33415,0 0.67945,-0.03599 1.03516,-0.11133c0.36649,-0.08617 0.69529,-0.21128 0.98633,-0.37305c0.30183,-0.17247 0.54528,-0.39265 0.72851,-0.66211c0.19402,-0.26948 0.29102,-0.59343 0.29102,-0.9707c0,-0.4096 -0.11348,-0.7481 -0.33984,-1.01758c-0.21559,-0.26953 -0.50656,-0.4965 -0.87305,-0.67968c-0.35571,-0.18316 -0.76502,-0.33445 -1.22852,-0.45313c-0.4635,-0.12944 -0.93877,-0.25941 -1.42383,-0.38867c-0.48506,-0.12926 -0.95837,-0.27378 -1.42187,-0.43555c-0.4635,-0.17247 -0.8796,-0.38779 -1.24609,-0.64648c-0.3557,-0.26948 -0.64668,-0.59343 -0.87305,-0.97071c-0.21558,-0.38803 -0.32227,-0.86816 -0.32227,-1.43945c0,-0.53896 0.11152,-1.01907 0.33789,-1.43945c0.23714,-0.42039 0.5611,-0.77539 0.9707,-1.06641c0.4096,-0.29102 0.89457,-0.51118 1.45508,-0.66211c0.56051,-0.15093 1.17545,-0.22656 1.84374,-0.22656c0.64675,0 1.24035,0.08042 1.7793,0.24219zM65.35414,153.14959c0.63596,0 1.27224,0.10658 1.9082,0.32227c0.63596,0.21558 1.20823,0.57737 1.71484,1.08398c0.50662,0.49585 0.91592,1.15346 1.22852,1.97266c0.31259,0.80844 0.46875,1.80454 0.46875,2.99023c0,1.19647 -0.15616,2.20424 -0.46875,3.02344c-0.31259,0.80844 -0.7219,1.46605 -1.22852,1.97266c-0.50661,0.49574 -1.07888,0.85267 -1.71484,1.06836c-0.63597,0.21568 -1.27224,0.32226 -1.9082,0.32226h-3.83203c-0.16169,0 -0.31785,-0.02616 -0.46875,-0.08008c-0.1509,-0.06475 -0.28572,-0.15192 -0.4043,-0.25976c-0.11855,-0.10772 -0.21555,-0.24254 -0.29102,-0.4043c-0.07544,-0.16169 -0.11328,-0.33919 -0.11328,-0.5332v-10.21875c0,-0.34492 0.12513,-0.64074 0.37305,-0.88867c0.24792,-0.24794 0.54859,-0.3711 0.9043,-0.3711zM87.40687,153.39178c0.16169,0.16171 0.24219,0.36055 0.24219,0.59766v6.17773l3.96094,-3.44336c0.15092,-0.11868 0.31872,-0.17969 0.50195,-0.17969c0.17246,0 0.33831,0.06606 0.5,0.19532c0.16169,0.12938 0.24414,0.31172 0.24414,0.54882c0,0.21556 -0.08729,0.39986 -0.25977,0.55079l-2.47461,2.13281l3.26758,4.625c0.09701,0.15103 0.14453,0.31203 0.14453,0.48437c0,0.15086 -0.02618,0.28083 -0.08008,0.38867c-0.0539,0.09701 -0.12471,0.17744 -0.21094,0.24219c-0.08625,0.06476 -0.17838,0.11423 -0.27539,0.14649c-0.09701,0.03225 -0.18721,0.04687 -0.27344,0.04687c-0.14012,0 -0.27009,-0.02616 -0.38867,-0.08008c-0.11858,-0.05392 -0.22042,-0.14109 -0.30664,-0.25976l-3.10547,-4.49414l-1.24414,1.0664v2.91211c0,0.237 -0.0805,0.44069 -0.24219,0.61328c-0.16167,0.16177 -0.36246,0.24219 -0.59961,0.24219c-0.23713,0 -0.44081,-0.08042 -0.61328,-0.24219c-0.16169,-0.17249 -0.24219,-0.37618 -0.24219,-0.61328v-11.06054c0,-0.23706 0.0805,-0.4359 0.24219,-0.59766c0.17247,-0.16176 0.37615,-0.24219 0.61328,-0.24219c0.23714,0 0.43792,0.08043 0.59961,0.24219zM111.40687,153.39178c0.16169,0.16171 0.24219,0.36055 0.24219,0.59766v3.80078c0.34493,-0.39872 0.71641,-0.70619 1.11523,-0.92188c0.39883,-0.21568 0.87894,-0.32422 1.43945,-0.32422c0.49584,0 0.95462,0.07564 1.375,0.22657c0.42039,0.1509 0.78022,0.36622 1.08204,0.64648c0.30181,0.26948 0.53362,0.60509 0.69531,1.00391c0.17247,0.38805 0.25976,0.82355 0.25976,1.30859v5.32031c0,0.237 -0.08729,0.44069 -0.25976,0.61328c-0.1617,0.16177 -0.36053,0.24219 -0.59766,0.24219c-0.23714,0 -0.43597,-0.08042 -0.59765,-0.24219c-0.16169,-0.17249 -0.24219,-0.37618 -0.24219,-0.61328v-5.32031c0,-0.24781 -0.05432,-0.47963 -0.16211,-0.69531c-0.09701,-0.22627 -0.23183,-0.42027 -0.4043,-0.58203c-0.17245,-0.16177 -0.37324,-0.28492 -0.59961,-0.3711c-0.22636,-0.09701 -0.46302,-0.14648 -0.71093,-0.14648c-0.32338,0 -0.63084,0.0641 -0.92188,0.19336c-0.29103,0.11845 -0.54902,0.28627 -0.77539,0.50195c-0.21559,0.2048 -0.38824,0.44825 -0.51758,0.72852c-0.11857,0.28026 -0.17773,0.58092 -0.17773,0.90429v4.78711c0,0.237 -0.0805,0.44069 -0.24219,0.61328c-0.1617,0.16177 -0.36053,0.24414 -0.59766,0.24414c-0.23713,0 -0.44276,-0.08237 -0.61523,-0.24414c-0.16169,-0.17249 -0.24219,-0.37618 -0.24219,-0.61328v-11.06054c0,-0.23706 0.0805,-0.4359 0.24219,-0.59766c0.17245,-0.16176 0.37808,-0.24219 0.61523,-0.24219c0.23714,0 0.43597,0.08043 0.59766,0.24219zM62.15297,164.20818h2.83008c0.63597,0 1.19174,-0.10854 1.66602,-0.32422c0.47428,-0.22635 0.86709,-0.53866 1.17969,-0.9375c0.31259,-0.4096 0.54441,-0.89942 0.69531,-1.47071c0.1509,-0.58207 0.22656,-1.23484 0.22656,-1.95703c0,-0.71141 -0.07566,-1.35254 -0.22656,-1.92383c-0.15091,-0.58207 -0.38272,-1.07186 -0.69531,-1.4707c-0.31259,-0.4095 -0.70541,-0.72181 -1.17969,-0.9375c-0.47428,-0.22627 -1.03005,-0.33984 -1.66602,-0.33984h-2.83008zM78.19203,157.09489c0.65752,0.43117 0.98633,1.0723 0.98633,1.92383v6.03125c0,0.237 -0.0805,0.44069 -0.24219,0.61328c-0.16167,0.16177 -0.36246,0.24219 -0.59961,0.24219c-0.23713,0 -0.44081,-0.08042 -0.61328,-0.24219c-0.16169,-0.17249 -0.24219,-0.37618 -0.24219,-0.61328v-0.25976c-0.4096,0.44192 -0.88003,0.73969 -1.4082,0.89062c-0.51739,0.15093 -1.06637,0.22461 -1.64844,0.22461c-0.36649,0 -0.73797,-0.04752 -1.11523,-0.14453c-0.36649,-0.10769 -0.70014,-0.26869 -1.00195,-0.48437c-0.29102,-0.21559 -0.52963,-0.48522 -0.71289,-0.8086c-0.18323,-0.32338 -0.27344,-0.71135 -0.27344,-1.16406c0,-0.51739 0.10184,-0.94998 0.30664,-1.29492c0.2048,-0.35581 0.47929,-0.64678 0.82422,-0.87305c0.34493,-0.22624 0.73775,-0.3989 1.17969,-0.51758c0.45272,-0.11868 0.92799,-0.20389 1.42383,-0.25781c0.57129,-0.0645 1.01842,-0.13535 1.3418,-0.21094c0.32337,-0.08617 0.56683,-0.18317 0.72852,-0.29101c0.16169,-0.10785 0.25869,-0.231 0.29102,-0.3711c0.04311,-0.14024 0.06445,-0.2964 0.06445,-0.46875c0,-0.20477 -0.05916,-0.38227 -0.17773,-0.5332c-0.11858,-0.15093 -0.26989,-0.27604 -0.45312,-0.37305c-0.18323,-0.09701 -0.38886,-0.1659 -0.61523,-0.20898c-0.22636,-0.05392 -0.44652,-0.08203 -0.66211,-0.08203c-0.38806,0 -0.70037,0.0329 -0.9375,0.09765c-0.23714,0.06451 -0.43113,0.14997 -0.58203,0.25782c-0.1509,0.10776 -0.27604,0.23774 -0.37305,0.38867c-0.08622,0.15083 -0.16672,0.30698 -0.24219,0.46875c-0.06468,0.12926 -0.15681,0.22626 -0.27539,0.29101c-0.10779,0.05392 -0.22127,0.08008 -0.33984,0.08008c-0.21557,0 -0.4144,-0.06889 -0.59766,-0.20898c-0.18323,-0.1401 -0.27539,-0.3341 -0.27539,-0.58203c0,-0.09701 0.02813,-0.21538 0.08203,-0.35547c0.09701,-0.22625 0.22698,-0.44838 0.38867,-0.66407c0.16169,-0.22649 0.37701,-0.42531 0.64648,-0.59765c0.28025,-0.17247 0.61875,-0.30729 1.01758,-0.4043c0.4096,-0.10784 0.90621,-0.16211 1.48828,-0.16211c1.09946,0 1.9724,0.22211 2.61914,0.66406zM124.65882,156.70622c0.53896,0.18323 1.00258,0.45287 1.39063,0.8086c0.39882,0.34492 0.71113,0.77073 0.9375,1.27734c0.22637,0.50663 0.33984,1.08374 0.33984,1.73047c0,0.39879 -0.097,0.69945 -0.29101,0.9043c-0.19402,0.20485 -0.42099,0.30859 -0.67969,0.30859h-5.91797c0,0.02142 0.00479,0.11167 0.01562,0.27344c0.02157,0.1508 0.05939,0.33509 0.11329,0.55078c0.06468,0.21556 0.15197,0.44737 0.25976,0.69531c0.11858,0.2371 0.27474,0.45726 0.46875,0.66211c0.19403,0.20483 0.43068,0.37748 0.71094,0.51758c0.29104,0.12926 0.64118,0.19336 1.05078,0.19336c0.33414,0 0.62027,-0.02616 0.85742,-0.08008c0.23713,-0.05392 0.44761,-0.13435 0.63086,-0.24219c0.18325,-0.10771 0.3491,-0.24253 0.5,-0.40429c0.15091,-0.17255 0.30222,-0.37139 0.45313,-0.59766c0.08622,-0.12926 0.18322,-0.22147 0.29101,-0.27539c0.10779,-0.05392 0.22127,-0.08203 0.33985,-0.08203c0.19402,0 0.37151,0.07084 0.5332,0.21093c0.16169,0.14002 0.24219,0.31752 0.24219,0.53321c0,0.12933 -0.06887,0.32333 -0.20899,0.58203c-0.14012,0.25872 -0.36709,0.51865 -0.67969,0.77734c-0.30181,0.2587 -0.69463,0.48372 -1.17968,0.67774c-0.48506,0.19401 -1.07866,0.29101 -1.7793,0.29101c-0.71142,0 -1.34769,-0.12802 -1.9082,-0.38672c-0.56051,-0.25869 -1.03383,-0.60398 -1.42188,-1.03515c-0.37727,-0.44193 -0.66824,-0.95504 -0.87304,-1.53711c-0.19402,-0.58207 -0.29102,-1.19021 -0.29102,-1.82617c0,-0.65752 0.10184,-1.27731 0.30664,-1.85938c0.2048,-0.59286 0.49578,-1.10594 0.87305,-1.53711c0.38804,-0.43114 0.85167,-0.76964 1.39062,-1.01758c0.53896,-0.25869 1.14225,-0.38867 1.81055,-0.38867c0.6144,0 1.18667,0.09221 1.71484,0.27539zM134.06898,156.70622c0.53895,0.18323 1.00258,0.45287 1.39062,0.8086c0.39882,0.34492 0.71114,0.77073 0.9375,1.27734c0.22637,0.50663 0.33985,1.08374 0.33985,1.73047c0,0.39879 -0.097,0.69945 -0.29102,0.9043c-0.19402,0.20485 -0.42099,0.30859 -0.67969,0.30859h-5.91796c0,0.02142 0.00674,0.11167 0.01757,0.27344c0.02155,0.1508 0.05939,0.33509 0.11329,0.55078c0.06468,0.21556 0.15002,0.44737 0.25781,0.69531c0.11858,0.2371 0.27473,0.45726 0.46875,0.66211c0.19402,0.20483 0.43068,0.37748 0.71094,0.51758c0.29103,0.12926 0.64117,0.19336 1.05078,0.19336c0.33416,0 0.62029,-0.02616 0.85742,-0.08008c0.23715,-0.05392 0.44763,-0.13435 0.63086,-0.24219c0.18324,-0.10771 0.35105,-0.24253 0.50195,-0.40429c0.15091,-0.17255 0.30027,-0.37139 0.45117,-0.59766c0.08623,-0.12926 0.18323,-0.22147 0.29102,-0.27539c0.10779,-0.05392 0.22127,-0.08203 0.33984,-0.08203c0.19402,0 0.37152,0.07084 0.53321,0.21093c0.16168,0.14002 0.24414,0.31752 0.24414,0.53321c0,0.12933 -0.07082,0.32333 -0.21094,0.58203c-0.14013,0.25872 -0.3671,0.51865 -0.67969,0.77734c-0.30181,0.2587 -0.69463,0.48372 -1.17969,0.67774c-0.48506,0.19401 -1.07865,0.29101 -1.77929,0.29101c-0.71142,0 -1.34574,-0.12802 -1.90625,-0.38672c-0.56051,-0.25869 -1.03579,-0.60398 -1.42383,-1.03515c-0.37727,-0.44193 -0.66825,-0.95504 -0.87305,-1.53711c-0.19401,-0.58207 -0.29101,-1.19021 -0.29101,-1.82617c0,-0.65752 0.10184,-1.27731 0.30664,-1.85938c0.2048,-0.59286 0.49578,-1.10594 0.87304,-1.53711c0.38805,-0.43114 0.85168,-0.76964 1.39063,-1.01758c0.53895,-0.25869 1.14224,-0.38867 1.81055,-0.38867c0.6144,0 1.18667,0.09221 1.71484,0.27539zM81.8932,156.80193c0.16169,0.16171 0.24219,0.3625 0.24219,0.59961v0.30664c0.04311,-0.04309 0.12361,-0.12856 0.24219,-0.25782c0.11856,-0.12943 0.26503,-0.25941 0.4375,-0.38867c0.18324,-0.14009 0.38207,-0.25846 0.59766,-0.35547c0.22637,-0.10784 0.46303,-0.16211 0.71094,-0.16211c0.23714,0 0.43792,0.08717 0.59961,0.25977c0.17247,0.16171 0.25781,0.36055 0.25781,0.59766c0,0.22646 -0.08534,0.4253 -0.25781,0.59765c-0.16167,0.16177 -0.36246,0.24219 -0.59961,0.24219c-0.4096,0 -0.74325,0.097 -1.00195,0.29101c-0.2587,0.18324 -0.46238,0.40537 -0.61328,0.66407c-0.14012,0.25869 -0.23712,0.52833 -0.29101,0.80859c-0.0539,0.28032 -0.08203,0.51213 -0.08203,0.69531v4.34766c0,0.237 -0.0805,0.44264 -0.24219,0.61523c-0.16167,0.16177 -0.3605,0.24219 -0.59766,0.24219c-0.23713,0 -0.44276,-0.08042 -0.61523,-0.24219c-0.16169,-0.17249 -0.24219,-0.37813 -0.24219,-0.61523v-7.64648c0,-0.23706 0.0805,-0.43785 0.24219,-0.59961c0.17248,-0.1726 0.37811,-0.25782 0.61523,-0.25782c0.23714,0 0.43597,0.08522 0.59766,0.25782zM139.26039,156.80389c0.16168,0.16171 0.24218,0.36055 0.24218,0.59766v0.14648c0.2156,-0.18333 0.41443,-0.33949 0.59766,-0.46875c0.19402,-0.12951 0.39286,-0.23326 0.59766,-0.30859c0.20481,-0.08643 0.43177,-0.14549 0.67968,-0.17774c0.24792,-0.03225 0.53405,-0.04883 0.85743,-0.04883c0.52817,0 1.02282,0.11358 1.48632,0.33985c0.47428,0.22634 0.88554,0.55032 1.23047,0.9707c0.35571,0.4096 0.63505,0.90621 0.83985,1.48828c0.2048,0.57129 0.30664,1.20076 0.30664,1.89063c0,0.68986 -0.09021,1.32129 -0.27344,1.89257c-0.18325,0.57129 -0.44804,1.06595 -0.79297,1.48633c-0.33415,0.4097 -0.73861,0.72881 -1.21289,0.95508c-0.47428,0.22627 -1.00192,0.33789 -1.58398,0.33789c-0.38805,0 -0.7285,-0.03769 -1.01954,-0.11328c-0.28025,-0.08617 -0.52855,-0.18796 -0.74414,-0.30664c-0.2048,-0.1186 -0.38714,-0.24858 -0.54882,-0.38867c-0.1509,-0.15101 -0.29057,-0.29066 -0.41993,-0.41992v3.7832c0,0.23705 -0.0805,0.43784 -0.24218,0.59961c-0.1617,0.17234 -0.36249,0.25781 -0.59961,0.25781c-0.23714,0 -0.44081,-0.08547 -0.61328,-0.25781c-0.16169,-0.16172 -0.24415,-0.36251 -0.24415,-0.59961v-11.05859c0,-0.23706 0.08246,-0.4359 0.24415,-0.59766c0.17245,-0.1726 0.37612,-0.25977 0.61328,-0.25977c0.23713,0 0.43792,0.08717 0.59961,0.25977zM121.95765,157.9992c-0.28026,0.11865 -0.51692,0.26995 -0.71094,0.45313c-0.18324,0.17234 -0.32775,0.36634 -0.43554,0.58203c-0.1078,0.21566 -0.19025,0.41447 -0.24414,0.59765c-0.05385,0.18326 -0.08487,0.34624 -0.09571,0.48633c-0.01083,0.12825 -0.01757,0.20389 -0.01758,0.22656h5.24024c0,-0.33416 -0.05432,-0.65327 -0.16211,-0.95507c-0.10778,-0.30191 -0.27558,-0.56475 -0.50195,-0.79102c-0.21558,-0.23718 -0.49492,-0.42631 -0.83985,-0.56641c-0.34493,-0.14009 -0.74939,-0.21093 -1.21289,-0.21093c-0.39882,0 -0.73927,0.05905 -1.01953,0.17773zM131.36976,157.9992c-0.28026,0.11865 -0.51887,0.26995 -0.71289,0.45313c-0.18324,0.17234 -0.32775,0.36634 -0.43555,0.58203c-0.10779,0.21566 -0.18829,0.41447 -0.24218,0.59765c-0.05385,0.18326 -0.08683,0.34624 -0.09766,0.48633c-0.01084,0.12825 -0.01563,0.20389 -0.01563,0.22656h5.23829c0,-0.33416 -0.05432,-0.65327 -0.16211,-0.95507c-0.10779,-0.30191 -0.27559,-0.56475 -0.50196,-0.79102c-0.21558,-0.23718 -0.49491,-0.42631 -0.83984,-0.56641c-0.34493,-0.14009 -0.74939,-0.21093 -1.21289,-0.21093c-0.39882,0 -0.73732,0.05905 -1.01758,0.17773zM140.86,158.21014c-0.31259,0.18323 -0.57739,0.43155 -0.79297,0.74414c-0.21558,0.30181 -0.38143,0.65194 -0.5,1.05078c-0.1078,0.38803 -0.16211,0.79735 -0.16211,1.22852c0,0.42038 0.05431,0.82967 0.16211,1.22851c0.11856,0.39882 0.28441,0.74898 0.5,1.05078c0.21558,0.30189 0.48037,0.54534 0.79297,0.72852c0.32337,0.18318 0.69,0.27344 1.0996,0.27344c0.39883,0 0.75382,-0.09026 1.06641,-0.27344c0.32337,-0.18326 0.59301,-0.42671 0.80859,-0.72852c0.22636,-0.3018 0.39417,-0.65196 0.50196,-1.05078c0.11857,-0.39884 0.17773,-0.80813 0.17773,-1.22851c0,-0.43117 -0.05916,-0.84049 -0.17773,-1.22852c-0.10778,-0.39884 -0.27559,-0.74897 -0.50196,-1.05078c-0.21558,-0.31264 -0.48522,-0.56096 -0.80859,-0.74414c-0.31259,-0.18318 -0.66758,-0.27539 -1.06641,-0.27539c-0.4096,0 -0.77623,0.09221 -1.0996,0.27539zM77.0768,161.38006c-0.2048,0.06476 -0.44826,0.11228 -0.72852,0.14453c-0.26947,0.03225 -0.55561,0.0702 -0.85742,0.11328c-0.29104,0.04309 -0.57521,0.09736 -0.85547,0.16211c-0.28025,0.06476 -0.5334,0.16176 -0.75977,0.29102c-0.22637,0.11857 -0.41066,0.27473 -0.55078,0.46875c-0.12936,0.19404 -0.19336,0.44233 -0.19336,0.74414c0,0.23705 0.04752,0.43589 0.14453,0.59766c0.10779,0.15092 0.24261,0.27408 0.4043,0.37109c0.16169,0.08617 0.34598,0.15222 0.55078,0.19531c0.2048,0.03225 0.40848,0.04688 0.61328,0.04688c0.31259,0 0.62491,-0.03095 0.9375,-0.09571c0.3126,-0.07534 0.59388,-0.1937 0.8418,-0.35547c0.2587,-0.16168 0.46238,-0.37895 0.61328,-0.64843c0.16169,-0.26946 0.24414,-0.60312 0.24414,-1.00196v-1.14843zM63.44789,168.20819c0.34494,0.25869 0.5816,0.61369 0.71094,1.0664l2.29492,8.14844l2.29687,-8.14844c0.12935,-0.45271 0.36116,-0.80771 0.69531,-1.0664c0.34493,-0.2587 0.75908,-0.38868 1.24414,-0.38868c0.25871,0 0.50701,0.04274 0.74414,0.12891c0.23713,0.07534 0.4476,0.18891 0.63086,0.33984c0.18324,0.15086 0.32775,0.32836 0.43555,0.53321c0.10779,0.2048 0.16211,0.43661 0.16211,0.69531v9.89453c0,0.31262 -0.11347,0.58907 -0.33984,0.82617c-0.22636,0.22627 -0.50085,0.33789 -0.82422,0.33789c-0.32336,0 -0.59785,-0.11162 -0.82422,-0.33789c-0.22637,-0.23713 -0.33984,-0.51358 -0.33984,-0.82617v-8.40625l-2.34375,8.40625c-0.09701,0.3556 -0.28615,0.64174 -0.56641,0.85742c-0.26947,0.20485 -0.59344,0.30664 -0.9707,0.30664c-0.37727,0 -0.69927,-0.10179 -0.96875,-0.30664c-0.26948,-0.21558 -0.45377,-0.50172 -0.55078,-0.85742l-2.34375,-8.40625v8.40625c0,0.31262 -0.11832,0.58907 -0.35547,0.82617c-0.22636,0.22627 -0.5028,0.33789 -0.82617,0.33789c-0.31258,0 -0.58707,-0.11162 -0.82422,-0.33789c-0.22637,-0.23713 -0.33984,-0.51358 -0.33984,-0.82617v-9.89453c0,-0.25865 0.05432,-0.49046 0.16211,-0.69531c0.11856,-0.20478 0.26987,-0.38228 0.45312,-0.53321c0.18323,-0.15093 0.39371,-0.2645 0.63086,-0.33984c0.23715,-0.08617 0.47865,-0.12891 0.72656,-0.12891c0.48506,0 0.89632,0.12998 1.23047,0.38868zM75.80531,167.94842c0.17246,0.07551 0.31408,0.20549 0.42187,0.38867l2.21484,3.81446l2.19922,-3.81446c0.10778,-0.18336 0.24745,-0.31333 0.41992,-0.38867c0.17247,-0.08617 0.35481,-0.12891 0.54883,-0.12891c0.2587,0 0.46917,0.04274 0.63086,0.12891c0.16169,0.08643 0.29166,0.19496 0.38867,0.32422c0.09701,0.12938 0.16103,0.2642 0.19336,0.4043c0.04311,0.14009 0.06445,0.26325 0.06445,0.37109c0,0.23708 -0.06886,0.45921 -0.20898,0.66406l-2.94336,4.30078l3.2168,4.6875c0.12936,0.19412 0.19531,0.40459 0.19531,0.63086c0,0.22627 -0.04463,0.42027 -0.13086,0.58203c-0.08622,0.15093 -0.1929,0.27604 -0.32227,0.37305c-0.12935,0.09701 -0.26902,0.17264 -0.41992,0.22656c-0.14012,0.04309 -0.27494,0.06446 -0.4043,0.06446c-0.19401,0 -0.38315,-0.04469 -0.56641,-0.13086c-0.17246,-0.0863 -0.31213,-0.22112 -0.41992,-0.4043l-2.44141,-4.25195l-2.45898,4.25195c-0.1078,0.18331 -0.25232,0.31812 -0.43555,0.4043c-0.17247,0.08617 -0.35677,0.13086 -0.55078,0.13086c-0.16169,0 -0.31785,-0.02811 -0.46875,-0.08204c-0.1509,-0.06475 -0.28572,-0.14996 -0.4043,-0.25781c-0.11855,-0.10776 -0.21555,-0.23774 -0.29102,-0.38867c-0.07544,-0.1509 -0.11328,-0.32356 -0.11328,-0.51758c0,-0.22637 0.06598,-0.43684 0.19531,-0.63086l3.23242,-4.68945l-2.95898,-4.30078c-0.12936,-0.19399 -0.19336,-0.41417 -0.19336,-0.66211c0,-0.10784 0.0165,-0.231 0.04883,-0.37109c0.04311,-0.15081 0.11393,-0.28562 0.21094,-0.4043c0.09701,-0.12951 0.22503,-0.23805 0.38672,-0.32422c0.16169,-0.08617 0.36732,-0.12891 0.61523,-0.12891c0.19402,0 0.37636,0.04274 0.54883,0.12891z" fill="#1eff00" stroke="none" stroke-width="1.01053" stroke-miterlimit="10" stroke-dashoffset="0"/></g></g></svg>