<svg version="1.1" xmlns="http://www.w3.org/2000/svg" xmlns:xlink="http://www.w3.org/1999/xlink" width="372.2149" height="68.64263" viewBox="0,0,372.2149,68.64263"><g transform="translate(-53.89255,-145.67869)"><g data-paper-data="{&quot;isPaintingLayer&quot;:true}" fill-rule="nonzero" stroke-linecap="butt" stroke-linejoin="miter" stroke-dasharray="" style="mix-blend-mode: normal"><path d="M425.00973,146.42869c0.19313,0 0.34772,0.15458 0.34772,0.34772v66.4453c0,0.19313 -0.15458,0.34961 -0.34772,0.34961h-370.01757c-0.19313,0 -0.34961,-0.15647 -0.34961,-0.34961v-66.4453c0,-0.19313 0.15647,-0.34772 0.34961,-0.34772z" fill="#1e1e1e" stroke="#1eff00" stroke-width="1.5" stroke-miterlimit="4" stroke-dashoffset="17.35"/><path d="M69.10242,187.56367c1.27597,0 2.33416,4.30813 3.36635,5.05807c1.0323,0.74997 5.45658,0.42505 5.85086,1.63858c0.39428,1.21349 -3.37606,3.55106 -3.77031,4.76462c-0.39428,1.21349 1.28194,5.32074 0.24983,6.07075c-1.0323,0.74997 -4.42061,-2.11344 -5.69654,-2.11344c-1.27593,0 -4.66428,2.86341 -5.69651,2.11344c-1.03226,-0.75001 0.64396,-4.85726 0.24983,-6.07075c-0.39428,-1.21353 -4.16459,-3.55113 -3.77031,-4.76462c0.39428,-1.21353 4.81856,-0.88857 5.85083,-1.63858c1.03223,-0.74993 2.09038,-5.05807 3.36631,-5.05807z" fill="#1eff00" stroke="none" stroke-width="0.88188" stroke-miterlimit="4" stroke-dashoffset="17.35"/><path d="M92.03951,187.56367c1.27593,0 2.33405,4.30813 3.36631,5.05807c1.03226,0.74997 5.4565,0.42505 5.85078,1.63858c0.39428,1.21349 -3.37599,3.55106 -3.77027,4.76462c-0.39432,1.21349 1.2819,5.32074 0.24945,6.07075c-1.03222,0.74997 -4.42053,-2.11344 -5.69646,-2.11344c-1.27593,0 -4.66421,2.86341 -5.69647,2.11344c-1.03226,-0.75001 0.64396,-4.85726 0.24945,-6.07075c-0.39428,-1.21353 -4.16455,-3.55113 -3.77031,-4.76462c0.39428,-1.21353 4.81856,-0.88857 5.85078,-1.63858c1.0323,-0.74993 2.09042,-5.05807 3.36635,-5.05807z" fill="#1eff00" stroke="none" stroke-width="0.88188" stroke-miterlimit="4" stroke-dashoffset="17.35"/><path d="M114.9764,187.56367c1.27593,0 2.33409,4.30813 3.36631,5.05807c1.03223,0.74997 5.4565,0.42505 5.85078,1.63858c0.39428,1.21349 -3.37603,3.55106 -3.77031,4.76462c-0.39428,1.21349 1.28194,5.32074 0.24983,6.07075c-1.03226,0.74997 -4.42054,-2.11344 -5.69647,-2.11344c-1.27593,0 -4.66424,2.86341 -5.6965,2.11344c-1.03223,-0.75001 0.64396,-4.85726 0.24983,-6.07075c-0.39428,-1.21353 -4.16459,-3.55113 -3.77031,-4.76462c0.39432,-1.21353 4.81856,-0.88857 5.85082,-1.63858c1.03226,-0.74993 2.09038,-5.05807 3.36631,-5.05807z" fill="#1eff00" stroke="none" stroke-width="0.88188" stroke-miterlimit="4" stroke-dashoffset="17.35"/><path d="M137.9136,187.56367c1.27593,0 2.33409,4.30813 3.36631,5.05807c1.03226,0.74997 5.4565,0.42505 5.85082,1.63858c0.39428,1.21349 -3.37603,3.55106 -3.77031,4.76462c-0.39428,1.21349 1.2819,5.32074 0.24983,6.07075c-1.0323,0.74997 -4.42061,-2.11344 -5.69654,-2.11344c-1.27593,0 -4.66424,2.86341 -5.6965,2.11344c-1.03223,-0.75001 0.64396,-4.85726 0.24983,-6.07075c-0.39428,-1.21353 -4.16459,-3.55113 -3.77031,-4.76462c0.39432,-1.21353 4.81856,-0.88857 5.85082,-1.63858c1.0323,-0.74993 2.09038,-5.05807 3.36631,-5.05807z" fill="#1eff00" stroke="none" stroke-width="0.88188" stroke-miterlimit="4" stroke-dashoffset="17.35"/><path d="M160.85124,196.30401c0.01285,0 0.02343,0.04309 0.03364,0.05065c0.0102,0.00756 0.05458,0.00378 0.05851,0.01512c0.00378,0.01134 -0.03364,0.03402 -0.0378,0.04762c-0.00378,0.01134 0.01285,0.05329 0.0025,0.06085c-0.0102,0.00756 -0.04422,-0.02268 -0.05696,-0.02268c-0.01285,0 -0.04664,0.03024 -0.05696,0.02268c-0.0102,-0.00756 0.00643,-0.04876 0.0025,-0.06085c-0.00378,-0.01134 -0.04165,-0.03402 -0.0378,-0.04762c0.00378,-0.01134 0.04819,-0.00756 0.05851,-0.01512c0.0102,-0.00756 0.02079,-0.05065 0.03364,-0.05065z" fill="#1eff00" stroke="none" stroke-width="0.00882" stroke-miterlimit="4" stroke-dashoffset="17.35"/><path d="M124.91929,152.77977c0.23713,0.19401 0.41463,0.45201 0.5332,0.77539l4.0586,10.44531c0.05389,0.14022 0.08203,0.27504 0.08203,0.4043c0,0.097 -0.0165,0.20554 -0.04883,0.32422c-0.03233,0.11842 -0.08665,0.23679 -0.16211,0.35546c-0.07547,0.10785 -0.1841,0.20006 -0.32422,0.27539c-0.12935,0.07534 -0.29036,0.11329 -0.48437,0.11329c-0.22637,0 -0.43685,-0.07085 -0.63086,-0.21094c-0.19403,-0.14022 -0.3337,-0.32451 -0.41993,-0.55078l-1.0664,-3.07031h-4.65625l-1.03516,3.23242c-0.06468,0.19396 -0.18299,0.34528 -0.35547,0.45312c-0.17246,0.09701 -0.3616,0.14649 -0.5664,0.14649c-0.29103,0 -0.54418,-0.097 -0.75977,-0.29102c-0.2048,-0.19404 -0.30859,-0.43265 -0.30859,-0.71289c0,-0.10784 0.0165,-0.20963 0.04883,-0.30664l3.8496,-10.60742c0.11857,-0.32338 0.28926,-0.58138 0.51563,-0.77539c0.23714,-0.19402 0.52812,-0.29102 0.87305,-0.29102c0.34492,0 0.63105,0.097 0.85742,0.29102zM69.08726,152.71531c0.23714,0 0.43597,0.08043 0.59766,0.24219c0.17247,0.16174 0.25976,0.36056 0.25976,0.59766c0,0.237 -0.08729,0.44263 -0.25976,0.61523c-0.1617,0.16177 -0.36053,0.24219 -0.59766,0.24219h-3.02344v10.10547c0,0.25869 -0.097,0.48567 -0.29102,0.67969c-0.18324,0.18318 -0.40341,0.27343 -0.66211,0.27343c-0.26946,0 -0.49643,-0.09025 -0.67969,-0.27343c-0.18323,-0.19402 -0.27539,-0.421 -0.27539,-0.67969v-10.10547h-3.02344c-0.23713,0 -0.44276,-0.08042 -0.61523,-0.24219c-0.16169,-0.1725 -0.24219,-0.37813 -0.24219,-0.61523c0,-0.23708 0.0805,-0.43589 0.24219,-0.59766c0.17247,-0.16176 0.37811,-0.24219 0.61523,-0.24219zM72.09702,152.99071c0.19402,0.18324 0.29102,0.40826 0.29102,0.67774c0,0.25872 -0.097,0.48567 -0.29102,0.67969c-0.18324,0.18318 -0.40341,0.27539 -0.66211,0.27539c-0.26948,0 -0.5013,-0.09221 -0.69531,-0.27539c-0.18326,-0.19404 -0.27539,-0.421 -0.27539,-0.67969c0,-0.26953 0.09213,-0.49455 0.27539,-0.67774c0.19402,-0.18318 0.42584,-0.27539 0.69531,-0.27539c0.25871,0 0.47888,0.09221 0.66211,0.27539zM131.94273,152.99071c0.19401,0.18324 0.29101,0.40826 0.29101,0.67774c0,0.25872 -0.097,0.48567 -0.29101,0.67969c-0.18325,0.18318 -0.40342,0.27539 -0.66211,0.27539c-0.26949,0 -0.5013,-0.09221 -0.69532,-0.27539c-0.18323,-0.19404 -0.27539,-0.421 -0.27539,-0.67969c0,-0.26953 0.09216,-0.49455 0.27539,-0.67774c0.19403,-0.18318 0.42584,-0.27539 0.69532,-0.27539c0.25871,0 0.47887,0.09221 0.66211,0.27539zM102.8646,153.70164c0.17247,0.16172 0.25977,0.36056 0.25977,0.59766v2.02148h0.88867c0.20481,0 0.37746,0.07564 0.51758,0.22656c0.1509,0.14007 0.22656,0.31273 0.22656,0.51758c0,0.21561 -0.07566,0.39311 -0.22656,0.53321c-0.14013,0.14009 -0.31278,0.21093 -0.51758,0.21093h-0.88867v6.80664c0,0.23701 -0.0873,0.44069 -0.25977,0.61329c-0.16167,0.16176 -0.3605,0.24414 -0.59765,0.24414c-0.23714,0 -0.43793,-0.08238 -0.59961,-0.24414c-0.16169,-0.1725 -0.24219,-0.37618 -0.24219,-0.61329v-6.80664h-0.59766c-0.2048,0 -0.3823,-0.07084 -0.5332,-0.21093c-0.14012,-0.14002 -0.21094,-0.31752 -0.21094,-0.53321c0,-0.20482 0.07082,-0.37748 0.21094,-0.51758c0.15091,-0.15092 0.3284,-0.22656 0.5332,-0.22656h0.59766v-2.02148c0,-0.23705 0.0805,-0.43589 0.24219,-0.59766c0.16169,-0.16176 0.36248,-0.24219 0.59961,-0.24219c0.23713,0 0.43596,0.08043 0.59765,0.24219zM122.33335,159.92625h3.52344l-1.85938,-5.32031zM92.50523,156.27196c0.53895,0.18326 1.00257,0.45289 1.39062,0.8086c0.39882,0.34492 0.71113,0.77071 0.9375,1.27734c0.22637,0.50661 0.33984,1.08372 0.33984,1.73047c0.00001,0.39877 -0.09699,0.69945 -0.29101,0.9043c-0.19402,0.20485 -0.42099,0.30859 -0.67969,0.30859h-5.91797c0,0.02142 0.00674,0.11363 0.01758,0.27539c0.02157,0.15081 0.05938,0.33314 0.11328,0.54883c0.06468,0.21556 0.15002,0.44738 0.25781,0.69531c0.11858,0.23708 0.27474,0.45726 0.46876,0.66211c0.19402,0.20485 0.43068,0.37749 0.71093,0.51758c0.29104,0.12926 0.64313,0.19531 1.05274,0.19531c0.33416,0 0.61834,-0.02811 0.85547,-0.08203c0.23715,-0.05392 0.44762,-0.13434 0.63086,-0.24219c0.18324,-0.10771 0.35104,-0.24253 0.50195,-0.40429c0.15091,-0.17255 0.30222,-0.37139 0.45312,-0.59766c0.08623,-0.12926 0.18323,-0.22147 0.29102,-0.27539c0.10779,-0.05392 0.21931,-0.08008 0.33789,-0.08008c0.19402,0 0.37347,0.06889 0.53516,0.20899c0.16168,0.14002 0.24218,0.31751 0.24218,0.5332c0,0.12936 -0.07081,0.32333 -0.21093,0.58203c-0.14013,0.2587 -0.3671,0.51865 -0.67969,0.77734c-0.30181,0.2587 -0.69463,0.48372 -1.17969,0.67774c-0.48506,0.19401 -1.0767,0.29101 -1.77734,0.29101c-0.71142,0 -1.34769,-0.12802 -1.90821,-0.38671c-0.56051,-0.2587 -1.03578,-0.60402 -1.42382,-1.03516c-0.37727,-0.44195 -0.66825,-0.95308 -0.87305,-1.53516c-0.19402,-0.58207 -0.29102,-1.19215 -0.29102,-1.82812c0,-0.65751 0.10184,-1.2773 0.30664,-1.85938c0.2048,-0.59285 0.49773,-1.10401 0.875,-1.53515c0.38805,-0.43115 0.84972,-0.7716 1.38868,-1.01953c0.53895,-0.2587 1.14419,-0.38868 1.8125,-0.38868c0.6144,0 1.18471,0.09221 1.71289,0.27539zM111.3021,156.32079c0.54973,0.21556 1.025,0.52788 1.42383,0.9375c0.39882,0.4096 0.71113,0.91108 0.9375,1.50391c0.22637,0.59286 0.33984,1.2718 0.33984,2.03711c0,0.76533 -0.11347,1.44428 -0.33984,2.03711c-0.22636,0.59285 -0.53867,1.0943 -0.9375,1.5039c-0.39883,0.39874 -0.8741,0.70619 -1.42383,0.92188c-0.53895,0.21568 -1.12575,0.32226 -1.76172,0.32226c-0.63596,0 -1.22956,-0.10658 -1.77929,-0.32226c-0.53896,-0.21559 -1.00743,-0.52304 -1.40625,-0.92188c-0.39882,-0.4096 -0.71114,-0.91105 -0.9375,-1.5039c-0.22637,-0.59283 -0.33985,-1.27178 -0.33985,-2.03711c0,-0.76531 0.11348,-1.44425 0.33985,-2.03711c0.22636,-0.59283 0.53867,-1.09431 0.9375,-1.50391c0.39882,-0.4095 0.86729,-0.72181 1.40625,-0.9375c0.54973,-0.21568 1.14333,-0.32422 1.77929,-0.32422c0.63597,0 1.22277,0.10854 1.76172,0.32422zM72.03257,156.36962c0.16169,0.16171 0.24219,0.36055 0.24219,0.59766v7.64843c0,0.23701 -0.0805,0.44069 -0.24219,0.61329c-0.1617,0.16176 -0.36053,0.24414 -0.59766,0.24414c-0.23713,0 -0.44276,-0.08238 -0.61523,-0.24414c-0.16169,-0.1725 -0.24219,-0.37618 -0.24219,-0.61329v-7.64843c0,-0.23706 0.0805,-0.4359 0.24219,-0.59766c0.17245,-0.1726 0.37808,-0.25977 0.61523,-0.25977c0.23714,0 0.43597,0.08717 0.59766,0.25977zM75.00327,156.36962c0.16169,0.16171 0.24219,0.36055 0.24219,0.59766v0.35547c0.06465,-0.07559 0.15681,-0.18218 0.27539,-0.32227c0.12935,-0.14022 0.29715,-0.27504 0.50195,-0.4043c0.2048,-0.12926 0.44631,-0.24283 0.72656,-0.33984c0.29103,-0.09701 0.63148,-0.14649 1.01953,-0.14649c0.53895,0 1.00258,0.14646 1.39062,0.4375c0.38804,0.28024 0.68871,0.6304 0.9043,1.05079c0.29103,-0.52826 0.65767,-0.90655 1.09961,-1.13282c0.45272,-0.2371 0.98231,-0.35547 1.58594,-0.35547c0.38804,0.00001 0.74303,0.06102 1.06641,0.17969c0.33416,0.1079 0.62029,0.27373 0.85742,0.5c0.24793,0.22635 0.44191,0.50764 0.58203,0.8418c0.14012,0.33413 0.20898,0.72211 0.20898,1.16406v5.82031c0,0.23701 -0.0805,0.44069 -0.24219,0.61329c-0.1617,0.16176 -0.36053,0.24414 -0.59766,0.24414c-0.23713,0 -0.44276,-0.08238 -0.61523,-0.24414c-0.16169,-0.1725 -0.24219,-0.37618 -0.24219,-0.61329v-5.74023c0,-0.37727 -0.12318,-0.70122 -0.37109,-0.9707c-0.24792,-0.26948 -0.57672,-0.4043 -0.98633,-0.4043c-0.35571,0 -0.66318,0.07084 -0.92187,0.21094c-0.25869,0.12943 -0.47401,0.30693 -0.64648,0.5332c-0.16169,0.22637 -0.28682,0.48632 -0.37305,0.77734c-0.07546,0.29105 -0.11328,0.59171 -0.11328,0.9043v4.68945c0,0.23701 -0.0805,0.44069 -0.24219,0.61329c-0.1617,0.16176 -0.36053,0.24414 -0.59766,0.24414c-0.23713,0 -0.44276,-0.08238 -0.61523,-0.24414c-0.16169,-0.1725 -0.24219,-0.37618 -0.24219,-0.61329v-5.74023c0,-0.37727 -0.11834,-0.70122 -0.35547,-0.9707c-0.23714,-0.26948 -0.57079,-0.4043 -1.00195,-0.4043c-0.35571,0 -0.66318,0.07084 -0.92187,0.21094c-0.25869,0.12943 -0.47401,0.30693 -0.64648,0.5332c-0.16169,0.22637 -0.28682,0.48437 -0.37305,0.77539c-0.07546,0.29105 -0.11328,0.59366 -0.11328,0.90625v4.68945c0,0.23701 -0.0805,0.44069 -0.24219,0.61329c-0.1617,0.16176 -0.36053,0.24414 -0.59766,0.24414c-0.23713,0 -0.44276,-0.08238 -0.61523,-0.24414c-0.16169,-0.1725 -0.24219,-0.37618 -0.24219,-0.61329v-7.64843c0,-0.23706 0.0805,-0.4359 0.24219,-0.59766c0.17248,-0.1726 0.37811,-0.25977 0.61523,-0.25977c0.23713,0 0.43597,0.08717 0.59766,0.25977zM131.87827,156.36962c0.16169,0.16171 0.24219,0.36055 0.24219,0.59766v7.64843c0,0.23701 -0.0805,0.44069 -0.24219,0.61329c-0.16167,0.16176 -0.3605,0.24414 -0.59765,0.24414c-0.23714,0 -0.44277,-0.08238 -0.61524,-0.24414c-0.16169,-0.1725 -0.24219,-0.37618 -0.24219,-0.61329v-7.64843c0.00001,-0.23706 0.0805,-0.4359 0.24219,-0.59766c0.17245,-0.1726 0.37808,-0.25977 0.61524,-0.25977c0.23713,0 0.43596,0.08717 0.59765,0.25977zM134.84702,156.36962c0.16169,0.16171 0.24219,0.36055 0.24219,0.59766v0.30664c0.04311,-0.04309 0.12361,-0.12856 0.24219,-0.25781c0.11856,-0.12944 0.26503,-0.25942 0.4375,-0.38868c0.18324,-0.14009 0.38207,-0.25846 0.59765,-0.35547c0.22637,-0.10784 0.46303,-0.16211 0.71094,-0.16211c0.23714,0 0.43597,0.08717 0.59766,0.25977c0.17247,0.16171 0.25976,0.36055 0.25976,0.59766c0,0.22624 -0.08729,0.42505 -0.25976,0.59765c-0.1617,0.16177 -0.36053,0.24414 -0.59766,0.24414c-0.4096,0 -0.74325,0.097 -1.00195,0.29102c-0.2587,0.18323 -0.46433,0.40341 -0.61524,0.66211c-0.14012,0.25869 -0.23712,0.52833 -0.29101,0.80859c-0.0539,0.28032 -0.08008,0.51213 -0.08008,0.69532v4.3496c0,0.23701 -0.0805,0.44069 -0.24219,0.61329c-0.16167,0.16176 -0.36245,0.24218 -0.59961,0.24218c-0.23713,0 -0.44081,-0.08042 -0.61328,-0.24218c-0.16169,-0.1725 -0.24218,-0.37618 -0.24218,-0.61329v-7.64843c-0.00001,-0.23706 0.08049,-0.4359 0.24218,-0.59766c0.17248,-0.1726 0.37616,-0.25977 0.61328,-0.25977c0.23714,0 0.43792,0.08717 0.59961,0.25977zM89.80601,157.56493c-0.28026,0.11863 -0.51888,0.26995 -0.71289,0.45313c-0.18325,0.17234 -0.32776,0.36634 -0.43555,0.58203c-0.10779,0.21566 -0.18829,0.41643 -0.24219,0.59961c-0.05384,0.18328 -0.08682,0.34428 -0.09766,0.48437c-0.01083,0.12826 -0.01562,0.20389 -0.01562,0.22657h5.23828c0,-0.33416 -0.05431,-0.65327 -0.16211,-0.95508c-0.10778,-0.30191 -0.27363,-0.56475 -0.5,-0.79102c-0.21558,-0.23718 -0.49686,-0.42631 -0.84179,-0.5664c-0.34493,-0.1401 -0.74939,-0.21094 -1.21289,-0.21094c-0.39883,0 -0.73733,0.05906 -1.01758,0.17773zM108.42515,157.59814c-0.33416,0.12936 -0.62514,0.33499 -0.87305,0.61523c-0.23715,0.26948 -0.42629,0.61961 -0.56641,1.05078c-0.14011,0.43117 -0.21093,0.94233 -0.21093,1.53516c0,0.59285 0.07082,1.10594 0.21093,1.53711c0.14012,0.42038 0.32926,0.77054 0.56641,1.05078c0.24792,0.26953 0.5389,0.47319 0.87305,0.61328c0.34493,0.12926 0.71641,0.19336 1.11523,0.19336c0.39883,0 0.76546,-0.0641 1.09961,-0.19336c0.34494,-0.14014 0.63592,-0.3438 0.87305,-0.61328c0.24793,-0.28024 0.44191,-0.6304 0.58203,-1.05078c0.14012,-0.43117 0.20898,-0.94426 0.20898,-1.53711c0,-0.59283 -0.06886,-1.10399 -0.20898,-1.53516c-0.14013,-0.43117 -0.33412,-0.7813 -0.58203,-1.05078c-0.23714,-0.28034 -0.52812,-0.48597 -0.87305,-0.61523c-0.33415,-0.1401 -0.70078,-0.21094 -1.09961,-0.21094c-0.39882,0 -0.7703,0.07084 -1.11523,0.21094zM91.84898,167.28758c0.18325,0.08617 0.34425,0.20454 0.48437,0.35547c0.15091,0.14009 0.28088,0.31273 0.38867,0.51758c0.1078,0.19391 0.19993,0.39955 0.27539,0.61523l3.34571,9.66797c0.05389,0.16171 0.08203,0.31303 0.08203,0.45312c0,0.12934 -0.02814,0.269 -0.08203,0.41993c-0.04311,0.1508 -0.11198,0.28562 -0.20899,0.40429c-0.09701,0.11868 -0.22214,0.22242 -0.37304,0.3086c-0.15091,0.07534 -0.33325,0.11328 -0.54883,0.11328c-0.25869,0 -0.50215,-0.07564 -0.72852,-0.22656c-0.21559,-0.15091 -0.3669,-0.35654 -0.45312,-0.61524l-0.91993,-3.08789h-3.75195l-0.92187,3.08789c-0.08622,0.25867 -0.24238,0.46431 -0.46875,0.61524c-0.21558,0.15092 -0.45224,0.22656 -0.71094,0.22656c-0.37726,0 -0.67988,-0.12511 -0.90625,-0.37305c-0.21558,-0.25869 -0.32226,-0.54967 -0.32226,-0.87305c0,-0.14004 0.02618,-0.29136 0.08008,-0.45312l3.36328,-9.66797c0.07547,-0.21558 0.1676,-0.42122 0.27539,-0.61523c0.1078,-0.20485 0.23098,-0.37749 0.3711,-0.51758c0.14014,-0.15093 0.30114,-0.2693 0.48437,-0.35547c0.18326,-0.08617 0.39373,-0.12891 0.63086,-0.12891c0.22637,0 0.432,0.04274 0.61524,0.12891zM67.72984,167.52977c0.21558,0.08635 0.39792,0.21632 0.54883,0.38867c0.16169,0.16179 0.28682,0.35576 0.37305,0.58203c0.09701,0.22634 0.14453,0.46982 0.14453,0.72852v5.85156h0.87305c0.29104,0 0.53934,0.10374 0.74414,0.30859c0.21558,0.2048 0.32227,0.45796 0.32227,0.75977c0,0.291 -0.10668,0.53929 -0.32227,0.74414c-0.2048,0.20485 -0.45311,0.30664 -0.74414,0.30664h-0.87305v1.71289c0,0.34497 -0.12318,0.63594 -0.37109,0.87305c-0.23714,0.2371 -0.52812,0.35742 -0.87305,0.35742c-0.34494,0 -0.63592,-0.12032 -0.87305,-0.35742c-0.23713,-0.23716 -0.35742,-0.52813 -0.35742,-0.87305v-1.71289h-4.00976c-0.3126,0 -0.59193,-0.04948 -0.83984,-0.14649c-0.2479,-0.10791 -0.46323,-0.24757 -0.64648,-0.41992c-0.17247,-0.17255 -0.30729,-0.37139 -0.4043,-0.59765c-0.09701,-0.23716 -0.14648,-0.48545 -0.14648,-0.74414c0,-0.54972 0.21048,-1.06767 0.63086,-1.55274l4.52734,-5.33594c0.23715,-0.28026 0.4806,-0.51692 0.72851,-0.71093c0.2587,-0.20485 0.55452,-0.30664 0.88867,-0.30664c0.23714,0 0.4641,0.04752 0.67969,0.14453zM73.80601,167.74071c0.24791,0.23716 0.37109,0.52813 0.37109,0.87305v3.91211l4.34961,-4.6875c0.2048,-0.21568 0.45795,-0.32422 0.75976,-0.32422c0.30183,0 0.57147,0.10854 0.80859,0.32422c0.23713,0.21558 0.35547,0.49492 0.35547,0.83984c0,0.26961 -0.08534,0.49172 -0.25781,0.66407l-3.12109,3.18359l4.07422,5.70898c0.16169,0.22635 0.24219,0.47467 0.24219,0.74415c0,0.1186 -0.02618,0.24662 -0.08008,0.38671c-0.04311,0.14002 -0.11393,0.27 -0.21094,0.38868c-0.09701,0.10784 -0.22019,0.20005 -0.37109,0.27539c-0.15091,0.07534 -0.3284,0.11133 -0.5332,0.11133c-0.18324,-0.00001 -0.35589,-0.03599 -0.51758,-0.11133c-0.16168,-0.07534 -0.2965,-0.18892 -0.4043,-0.33985l-3.75195,-5.5957l-1.3418,1.35938v3.45898c0,0.34497 -0.12318,0.63594 -0.37109,0.87305c-0.23714,0.2371 -0.52812,0.35742 -0.87305,0.35742c-0.34494,0 -0.63592,-0.12032 -0.87305,-0.35742c-0.23715,-0.23716 -0.35547,-0.52813 -0.35547,-0.87305v-10.29883c0,-0.34497 0.11832,-0.63594 0.35547,-0.87305c0.23714,-0.2371 0.52812,-0.35546 0.87305,-0.35546c0.34494,0 0.63592,0.11836 0.87305,0.35546zM124.85093,167.72508c0.23713,0.22637 0.35547,0.50084 0.35547,0.82422v3.20117c0,0.06476 0.02134,0.09766 0.06445,0.09766c0.06468,0 0.16848,-0.05427 0.3086,-0.16211c0.14012,-0.11868 0.31082,-0.24184 0.51562,-0.3711c0.21558,-0.12926 0.46389,-0.24762 0.74414,-0.35547c0.28026,-0.11867 0.59257,-0.17968 0.9375,-0.17968c0.4635,0 0.87961,0.07563 1.24609,0.22656c0.37728,0.1509 0.68959,0.35654 0.9375,0.61523c0.24791,0.2587 0.43705,0.56617 0.56641,0.92188c0.14012,0.34492 0.20898,0.71639 0.20898,1.11523v5.32032c0.00001,0.31264 -0.11831,0.58711 -0.35546,0.82421c-0.22636,0.22627 -0.49601,0.33985 -0.8086,0.33985c-0.32336,0 -0.60269,-0.11358 -0.83984,-0.33985c-0.22637,-0.23715 -0.33984,-0.51162 -0.33984,-0.82421v-4.52735c0,-0.44195 -0.15616,-0.81538 -0.46876,-1.11719c-0.30181,-0.31259 -0.68009,-0.46875 -1.13281,-0.46875c-0.44194,0 -0.81826,0.15616 -1.13086,0.46875c-0.30181,0.30181 -0.45312,0.68008 -0.45312,1.13282v4.51172c0,0.31264 -0.11834,0.58711 -0.35547,0.82421c-0.22636,0.22627 -0.50085,0.33985 -0.82422,0.33985c-0.3126,0 -0.58709,-0.11358 -0.82422,-0.33985c-0.22637,-0.23715 -0.33984,-0.51162 -0.33984,-0.82421v-10.42969c0,-0.32348 0.11347,-0.59795 0.33984,-0.82422c0.23714,-0.22627 0.51163,-0.33984 0.82422,-0.33984c0.32336,0 0.59785,0.11357 0.82422,0.33984zM119.53452,168.145c0.23713,0.22637 0.35743,0.50084 0.35743,0.82422v1.81055v0.21093h1.14648c0.20481,0 0.37746,0.07564 0.51758,0.22657c0.1509,0.14007 0.22656,0.31272 0.22656,0.51757c0,0.21564 -0.07566,0.39311 -0.22656,0.53321c-0.14013,0.14009 -0.31278,0.21094 -0.51758,0.21094h-1.14648v6.5c-0.00001,0.31264 -0.1203,0.58711 -0.35743,0.82421c-0.22636,0.22627 -0.496,0.3379 -0.80859,0.3379c-0.32336,0 -0.60269,-0.11163 -0.83984,-0.3379c-0.22637,-0.23715 -0.33985,-0.51162 -0.33985,-0.82421v-6.5h-0.67969c-0.2048,0 -0.38229,-0.07085 -0.5332,-0.21094c-0.14012,-0.14005 -0.20898,-0.31752 -0.20898,-0.53321c0,-0.20482 0.06886,-0.37748 0.20898,-0.51757c0.15091,-0.15093 0.3284,-0.22657 0.5332,-0.22657h0.67969v-0.21093v-1.81055c0,-0.32348 0.11348,-0.59795 0.33985,-0.82422c0.23714,-0.22627 0.51647,-0.33984 0.83984,-0.33984c0.31258,0 0.58222,0.11357 0.80859,0.33984zM89.90757,174.32079h2.63672l-1.31055,-4.46094zM62.42515,175.08056h3.89648v-4.65625zM99.2689,171.13719c0.22637,0.22637 0.33984,0.49405 0.33984,0.80664c0.09701,-0.10784 0.22699,-0.231 0.38867,-0.37109c0.16168,-0.1401 0.35567,-0.26326 0.58204,-0.3711c0.22636,-0.11868 0.48435,-0.21568 0.77539,-0.29101c0.29103,-0.08618 0.61984,-0.13086 0.98632,-0.13086c0.40961,0 0.79758,0.07084 1.16407,0.21093c0.36648,0.1401 0.6856,0.3341 0.95507,0.58204c0.28026,0.24793 0.49558,0.55054 0.64649,0.90625c0.16169,0.34492 0.24219,0.73289 0.24219,1.16406v5.33594c0,0.31264 -0.11348,0.58711 -0.33985,0.82421c-0.22636,0.22627 -0.50084,0.33985 -0.82422,0.33985c-0.32338,0 -0.60467,-0.11358 -0.84179,-0.33985c-0.22637,-0.23715 -0.33789,-0.51162 -0.33789,-0.82421v-4.56055c0,-0.23708 -0.04948,-0.45726 -0.14649,-0.66211c-0.08622,-0.2048 -0.20456,-0.38423 -0.35547,-0.53516c-0.15091,-0.15093 -0.3284,-0.26929 -0.5332,-0.35547c-0.20482,-0.097 -0.42693,-0.14453 -0.66406,-0.14453c-0.22636,0 -0.44653,0.04753 -0.66211,0.14453c-0.20481,0.08618 -0.3823,0.20454 -0.53321,0.35547c-0.1509,0.15088 -0.27603,0.33031 -0.37304,0.53516c-0.08623,0.20482 -0.12891,0.42501 -0.12891,0.66211v4.56055c0,0.31264 -0.11347,0.58711 -0.33984,0.82421c-0.22636,0.22627 -0.50085,0.33985 -0.82422,0.33985c-0.32336,0 -0.60269,-0.11358 -0.83984,-0.33985c-0.22637,-0.23715 -0.33985,-0.51162 -0.33985,-0.82421v-7.03516c0,-0.31269 0.11348,-0.58037 0.33985,-0.80664c0.23714,-0.2371 0.51647,-0.35742 0.83984,-0.35742c0.32336,0 0.59785,0.12032 0.82422,0.35742zM137.95249,171.20165c0.52818,0.26948 0.95882,0.60798 1.29297,1.01758c0.34493,0.4096 0.59808,0.85189 0.75977,1.32617c0.16168,0.47428 0.24218,0.91171 0.24218,1.31055c0,0.37725 -0.06886,0.68956 -0.20898,0.9375c-0.14013,0.24794 -0.34576,0.37109 -0.61524,0.37109h-5.17382c-0.11855,0 -0.21071,0.04274 -0.27539,0.12891c-0.0539,0.07559 -0.08008,0.17933 -0.08008,0.30859c0,0.16159 0.04752,0.34877 0.14453,0.56446c0.09702,0.20482 0.24348,0.40559 0.4375,0.59961c0.19402,0.19409 0.43068,0.35511 0.71094,0.48437c0.29103,0.12926 0.62468,0.19336 1.00195,0.19336c0.22635,0 0.42714,-0.02137 0.59961,-0.06445c0.17247,-0.05393 0.33347,-0.12956 0.48437,-0.22657c0.15092,-0.097 0.29543,-0.22016 0.43555,-0.37109c0.15092,-0.16181 0.31872,-0.35097 0.50195,-0.56641c0.16169,-0.19401 0.34599,-0.29101 0.55079,-0.29101c0.12933,0 0.25735,0.0329 0.38671,0.09765c0.12937,0.06451 0.24284,0.14997 0.33985,0.25782c0.09701,0.10784 0.17751,0.23295 0.24219,0.37304c0.06468,0.12939 0.09765,0.26421 0.09765,0.4043c0,0.14012 -0.07566,0.33896 -0.22656,0.59766c-0.14013,0.24791 -0.3603,0.50104 -0.66211,0.75976c-0.30181,0.24791 -0.68009,0.47005 -1.13281,0.66407c-0.45272,0.18318 -0.992,0.27343 -1.61719,0.27343c-0.71142,0 -1.34769,-0.12995 -1.9082,-0.38867c-0.56051,-0.2587 -1.03383,-0.60206 -1.42188,-1.0332c-0.37727,-0.44196 -0.66825,-0.94825 -0.87305,-1.51953c-0.19401,-0.58208 -0.29101,-1.19703 -0.29101,-1.84375c0,-0.64676 0.08534,-1.25684 0.25781,-1.82813c0.18325,-0.58207 0.45969,-1.08836 0.82617,-1.51953c0.36649,-0.44193 0.82332,-0.79209 1.37305,-1.05078c0.54973,-0.2587 1.19765,-0.38867 1.94141,-0.38867c0.72219,0 1.34198,0.14163 1.85937,0.42187zM143.19663,171.13719c0.22637,0.22637 0.33985,0.496 0.33985,0.80859c0.09703,-0.10784 0.21535,-0.23295 0.35547,-0.37304c0.15089,-0.1401 0.3119,-0.26326 0.48437,-0.3711c0.18325,-0.11868 0.37239,-0.21568 0.56641,-0.29101c0.19402,-0.08618 0.38801,-0.13086 0.58203,-0.13086c0.43116,0 0.72214,0.11357 0.87304,0.33984c0.16169,0.22637 0.24219,0.49116 0.24219,0.79297c0,0.24801 -0.05916,0.43715 -0.17773,0.56641c-0.10778,0.11842 -0.24745,0.20868 -0.41992,0.27343c-0.1617,0.06476 -0.33919,0.11903 -0.53321,0.16211c-0.19401,0.03225 -0.37831,0.08173 -0.55078,0.14649c-0.3126,0.11857 -0.56575,0.27473 -0.75976,0.46875c-0.18325,0.18315 -0.32292,0.38197 -0.41993,0.59765c-0.097,0.2047 -0.16298,0.41518 -0.19531,0.63086c-0.03233,0.21564 -0.04687,0.41448 -0.04687,0.59766v3.62305c0,0.32347 -0.11834,0.59795 -0.35547,0.82421c-0.22636,0.22627 -0.5028,0.33985 -0.82617,0.33985c-0.31258,0 -0.58707,-0.11358 -0.82422,-0.33985c-0.22637,-0.23715 -0.33985,-0.51162 -0.33985,-0.82421v-7.03321c0,-0.31269 0.11348,-0.58232 0.33985,-0.80859c0.23714,-0.2371 0.51842,-0.35742 0.84179,-0.35742c0.32337,0 0.59785,0.12032 0.82422,0.35742zM112.82163,171.13719c0.57129,0.22637 1.06595,0.54836 1.48633,0.96875c0.42039,0.42038 0.7492,0.9267 0.98633,1.51953c0.24791,0.58207 0.37305,1.22997 0.37305,1.94141c0,0.7114 -0.12514,1.36417 -0.37305,1.95703c-0.23714,0.58204 -0.56595,1.08157 -0.98633,1.50195c-0.42038,0.42044 -0.91504,0.74923 -1.48633,0.98633c-0.57129,0.22627 -1.18622,0.33984 -1.84375,0.33984c-0.64674,0 -1.25683,-0.11357 -1.82812,-0.33984c-0.57129,-0.23715 -1.06595,-0.56595 -1.48633,-0.98633c-0.42039,-0.42038 -0.75404,-0.91991 -1.00195,-1.50195c-0.23716,-0.59286 -0.35743,-1.24563 -0.35743,-1.95703c0,-0.71144 0.12027,-1.35934 0.35743,-1.94141c0.24791,-0.59283 0.58157,-1.09915 1.00195,-1.51953c0.42038,-0.42049 0.91504,-0.74248 1.48633,-0.96875c0.57129,-0.2371 1.18138,-0.35547 1.82812,-0.35547c0.65753,0 1.27246,0.11837 1.84375,0.35547zM109.90952,172.73681c-0.31258,0.16166 -0.58027,0.38864 -0.80664,0.67969c-0.21557,0.28026 -0.38337,0.60908 -0.50195,0.98632c-0.11858,0.36649 -0.17774,0.75444 -0.17774,1.16407c0,0.4096 0.05916,0.80244 0.17774,1.17968c0.11857,0.37728 0.28637,0.70607 0.50195,0.98633c0.22636,0.28037 0.49405,0.50734 0.80664,0.67969c0.3126,0.16176 0.66954,0.24219 1.06836,0.24219c0.39883,0 0.75381,-0.08043 1.06641,-0.24219c0.32337,-0.17245 0.59301,-0.39942 0.80859,-0.67969c0.21558,-0.28026 0.38338,-0.60905 0.50196,-0.98633c0.11857,-0.37724 0.17773,-0.77008 0.17773,-1.17968c0,-0.40963 -0.05916,-0.79758 -0.17773,-1.16407c-0.11857,-0.37724 -0.28637,-0.70606 -0.50196,-0.98632c-0.21558,-0.29095 -0.48522,-0.51793 -0.80859,-0.67969c-0.3126,-0.17235 -0.66758,-0.25781 -1.06641,-0.25781c-0.39882,0 -0.75576,0.08546 -1.06836,0.25781zM135.15366,172.86571c-0.25869,0.10792 -0.47401,0.24953 -0.64648,0.42188c-0.16169,0.16174 -0.28487,0.3344 -0.37109,0.51758c-0.08623,0.18328 -0.12891,0.34428 -0.12891,0.48437c0,0.21569 0.0805,0.32422 0.24219,0.32422h3.68554c0.14012,0 0.21094,-0.10374 0.21094,-0.30859c0,-0.1402 -0.04268,-0.3012 -0.1289,-0.48438c-0.07544,-0.18318 -0.20058,-0.35581 -0.37305,-0.51758c-0.16169,-0.17234 -0.37021,-0.31882 -0.62891,-0.4375c-0.2587,-0.11867 -0.56616,-0.17773 -0.92187,-0.17773c-0.35571,0 -0.66998,0.05906 -0.93946,0.17773z" fill="#1eff00" stroke="none" stroke-width="1.01053" stroke-miterlimit="10" stroke-dashoffset="0"/></g></g></svg>