<svg version="1.1" xmlns="http://www.w3.org/2000/svg" xmlns:xlink="http://www.w3.org/1999/xlink" width="372.21487" height="68.64263" viewBox="0,0,372.21487,68.64263"><g transform="translate(-53.89256,-145.67868)"><g data-paper-data="{&quot;isPaintingLayer&quot;:true}" fill-rule="nonzero" stroke-linecap="butt" stroke-linejoin="miter" stroke-dasharray="" style="mix-blend-mode: normal"><path d="M425.00972,146.42868c0.19313,0 0.34772,0.15458 0.34772,0.34772v66.4453c0,0.19313 -0.15458,0.34961 -0.34772,0.34961h-370.01754c-0.19313,0 -0.34961,-0.15647 -0.34961,-0.34961v-66.4453c0,-0.19313 0.15647,-0.34772 0.34961,-0.34772z" fill="#1e1e1e" stroke="#1eff00" stroke-width="1.5" stroke-miterlimit="4" stroke-dashoffset="17.35"/><path d="M69.10242,187.56366c1.27597,0 2.33416,4.30813 3.36635,5.05807c1.0323,0.74997 5.45658,0.42505 5.85086,1.63858c0.39428,1.21349 -3.37606,3.55106 -3.77031,4.76462c-0.39428,1.21349 1.28194,5.32074 0.24983,6.07075c-1.0323,0.74997 -4.42061,-2.11344 -5.69654,-2.11344c-1.27593,0 -4.66428,2.86341 -5.69651,2.11344c-1.03226,-0.75001 0.64396,-4.85726 0.24983,-6.07075c-0.39428,-1.21353 -4.16459,-3.55113 -3.77031,-4.76462c0.39428,-1.21353 4.81856,-0.88857 5.85083,-1.63858c1.03223,-0.74993 2.09038,-5.05807 3.36631,-5.05807z" fill="#1eff00" stroke="none" stroke-width="0.88188" stroke-miterlimit="4" stroke-dashoffset="17.35"/><path d="M92.03951,187.56366c1.27593,0 2.33405,4.30813 3.36631,5.05807c1.03226,0.74997 5.4565,0.42505 5.85078,1.63858c0.39428,1.21349 -3.37599,3.55106 -3.77027,4.76462c-0.39432,1.21349 1.2819,5.32074 0.24945,6.07075c-1.03222,0.74997 -4.42053,-2.11344 -5.69646,-2.11344c-1.27594,0 -4.66421,2.86341 -5.69647,2.11344c-1.03226,-0.75001 0.64396,-4.85726 0.24945,-6.07075c-0.39428,-1.21353 -4.16455,-3.55113 -3.77031,-4.76462c0.39428,-1.21353 4.81856,-0.88857 5.85078,-1.63858c1.0323,-0.74993 2.09042,-5.05807 3.36636,-5.05807z" fill="#1eff00" stroke="none" stroke-width="0.88188" stroke-miterlimit="4" stroke-dashoffset="17.35"/><path d="M114.97654,196.03914c0.05102,0 0.09335,0.17235 0.13466,0.2022c0.04131,0.03024 0.21827,0.0189 0.23403,0.06539c0.01587,0.04838 -0.13504,0.14211 -0.1508,0.19049c-0.01587,0.04838 0.05129,0.21279 0.00983,0.24302c-0.04131,0.03024 -0.17681,-0.08466 -0.22787,-0.08466c-0.05102,0 -0.18656,0.11452 -0.22787,0.08466c-0.04127,-0.03024 0.0257,-0.19427 0.00983,-0.24302c-0.01587,-0.04838 -0.16656,-0.14211 -0.1508,-0.19049c0.01587,-0.04838 0.19276,-0.03402 0.23403,-0.06539c0.04131,-0.03024 0.0836,-0.2022 0.13466,-0.2022z" fill="#1eff00" stroke="none" stroke-width="0.03528" stroke-miterlimit="4" stroke-dashoffset="17.35"/><path d="M160.85125,196.304c0.01285,0 0.02343,0.04309 0.03364,0.05065c0.0102,0.00756 0.05461,0.00378 0.05851,0.01512c0.00416,0.01134 -0.03364,0.03402 -0.0378,0.04762c-0.00416,0.01134 0.01285,0.05329 0.002,0.06085c-0.0102,0.00756 -0.04418,-0.02268 -0.057,-0.02268c-0.01285,0 -0.0466,0.03024 -0.057,0.02268c-0.0102,-0.00756 0.00605,-0.04876 0.002,-0.06085c-0.00416,-0.01134 -0.04169,-0.03402 -0.0378,-0.04762c0.00416,-0.01134 0.04819,-0.00756 0.05851,-0.01512c0.0102,-0.00756 0.02079,-0.05065 0.03364,-0.05065z" fill="#1eff00" stroke="none" stroke-width="0.00882" stroke-miterlimit="4" stroke-dashoffset="17.35"/><path d="M66.40373,153.44275c0.23713,0.19404 0.41463,0.45201 0.5332,0.77539l4.05859,10.44531c0.0539,0.14022 0.08008,0.27504 0.08008,0.4043c0,0.097 -0.0165,0.20554 -0.04883,0.32421c-0.03233,0.11843 -0.08469,0.2368 -0.16016,0.35547c-0.07546,0.10785 -0.1841,0.20006 -0.32422,0.27539c-0.12936,0.07534 -0.29036,0.11133 -0.48437,0.11133c-0.22637,0 -0.43684,-0.06889 -0.63086,-0.20898c-0.19403,-0.14022 -0.3337,-0.32452 -0.41992,-0.55078l-1.06836,-3.07032h-4.65625l-1.03516,3.23243c-0.06468,0.19399 -0.183,0.34528 -0.35547,0.45312c-0.17247,0.09701 -0.36161,0.14453 -0.56641,0.14453c-0.29103,0 -0.54418,-0.097 -0.75977,-0.29101c-0.2048,-0.19402 -0.30664,-0.4307 -0.30664,-0.71094c0,-0.10784 0.0165,-0.20963 0.04883,-0.30664l3.84766,-10.60742c0.11856,-0.32341 0.29121,-0.58138 0.51758,-0.77539c0.23714,-0.19402 0.52812,-0.29102 0.87305,-0.29102c0.34492,0 0.63105,0.097 0.85742,0.29102zM105.65568,153.44275c0.23713,0.19404 0.41462,0.45201 0.5332,0.77539l4.05859,10.44531c0.0539,0.14022 0.08203,0.27504 0.08203,0.4043c0,0.097 -0.0165,0.20554 -0.04882,0.32421c-0.03236,0.11843 -0.08667,0.2368 -0.16211,0.35547c-0.07547,0.10785 -0.18215,0.20006 -0.32227,0.27539c-0.12935,0.07534 -0.29231,0.11133 -0.48633,0.11133c-0.22637,0 -0.43684,-0.06889 -0.63086,-0.20898c-0.19403,-0.14022 -0.33369,-0.32452 -0.41992,-0.55078l-1.0664,-3.07032h-4.65625l-1.03516,3.23243c-0.06466,0.19399 -0.183,0.34528 -0.35547,0.45312c-0.17247,0.09701 -0.36161,0.14453 -0.56641,0.14453c-0.29103,0 -0.54418,-0.097 -0.75976,-0.29101c-0.2048,-0.19402 -0.30664,-0.4307 -0.30664,-0.71094c0,-0.10784 0.01455,-0.20963 0.04687,-0.30664l3.84961,-10.60742c0.11856,-0.32341 0.29121,-0.58138 0.51758,-0.77539c0.23714,-0.19402 0.52812,-0.29102 0.87305,-0.29102c0.34492,0 0.6291,0.097 0.85547,0.29102zM73.7338,153.58923c0.20479,0.12931 0.39393,0.31652 0.56641,0.56445l5.78711,8.6836v-8.50586c0,-0.26953 0.09213,-0.49456 0.27539,-0.67774c0.18324,-0.18318 0.41021,-0.27539 0.67969,-0.27539c0.26949,0 0.4945,0.09221 0.67773,0.27539c0.18323,0.18323 0.27539,0.40826 0.27539,0.67774v10.84961c0,0.25869 -0.09216,0.48567 -0.27539,0.67968c-0.18324,0.18319 -0.40826,0.27344 -0.67773,0.27344c-0.30181,0 -0.55497,-0.0641 -0.75977,-0.19336c-0.2048,-0.14009 -0.38909,-0.33409 -0.55078,-0.58203l-5.80469,-8.61719v8.43946c0,0.25869 -0.09213,0.48567 -0.27539,0.67968c-0.18324,0.18319 -0.40826,0.27344 -0.67773,0.27344c-0.2587,0 -0.48567,-0.09025 -0.67969,-0.27344c-0.18323,-0.19401 -0.27539,-0.42099 -0.27539,-0.67968v-10.84961c0,-0.26953 0.09216,-0.49456 0.27539,-0.67774c0.19402,-0.18318 0.42099,-0.27539 0.67969,-0.27539c0.30181,0 0.55496,0.07085 0.75976,0.21094zM84.89005,153.65367c0.19402,0.18323 0.29102,0.40826 0.29102,0.67774c0,0.25869 -0.097,0.48567 -0.29102,0.67969c-0.18324,0.18318 -0.40536,0.27539 -0.66406,0.27539c-0.26948,0 -0.5013,-0.09221 -0.69531,-0.27539c-0.18323,-0.19402 -0.27344,-0.421 -0.27344,-0.67969c0,-0.26953 0.09021,-0.49456 0.27344,-0.67774c0.19402,-0.18318 0.42584,-0.27539 0.69531,-0.27539c0.25871,0 0.48083,0.09221 0.66406,0.27539zM88.53654,153.76696c0.22637,0.24794 0.41066,0.5486 0.55078,0.9043l3.42773,8.86133l3.42773,-8.86133c0.14012,-0.3557 0.31762,-0.65636 0.5332,-0.9043c0.22636,-0.25869 0.52898,-0.38867 0.90625,-0.38867c0.33414,0 0.61347,0.11837 0.83984,0.35547c0.23713,0.22634 0.35547,0.50084 0.35547,0.82422v10.7207c0,0.23726 -0.08534,0.44094 -0.25781,0.61328c-0.16167,0.16177 -0.36246,0.24415 -0.59961,0.24415c-0.23714,0 -0.43597,-0.08238 -0.59766,-0.24415c-0.16169,-0.17249 -0.24219,-0.37617 -0.24219,-0.61328v-8.29492l-3.15234,8.21289c-0.10779,0.28012 -0.26395,0.50709 -0.46875,0.67969c-0.19402,0.17235 -0.44233,0.25781 -0.74414,0.25781c-0.30182,0 -0.55496,-0.08546 -0.75976,-0.25781c-0.19402,-0.17247 -0.34533,-0.39945 -0.45312,-0.67969l-3.15234,-8.21289v8.29492c0,0.23726 -0.08245,0.44094 -0.24414,0.61328c-0.1617,0.16177 -0.36053,0.24415 -0.59766,0.24415c-0.23713,0 -0.44081,-0.08238 -0.61328,-0.24415c-0.16169,-0.17249 -0.24414,-0.37617 -0.24414,-0.61328v-10.7207c0,-0.32345 0.11347,-0.59795 0.33984,-0.82422c0.23714,-0.2371 0.52327,-0.35547 0.85742,-0.35547c0.37726,0 0.67309,0.12998 0.88867,0.38867zM63.81584,160.58923h3.52539l-1.85937,-5.32031zM103.06974,160.58923h3.52344l-1.85938,-5.32031zM84.8256,157.03258c0.16169,0.16171 0.24219,0.36055 0.24219,0.59766v7.64843c0,0.23726 -0.0805,0.44094 -0.24219,0.61328c-0.16167,0.16177 -0.36246,0.24415 -0.59961,0.24415c-0.23713,0 -0.44081,-0.08238 -0.61328,-0.24415c-0.16169,-0.17249 -0.24219,-0.37617 -0.24219,-0.61328v-7.64843c0,-0.23706 0.0805,-0.4359 0.24219,-0.59766c0.17248,-0.17235 0.37615,-0.25977 0.61328,-0.25977c0.23714,0 0.43792,0.08742 0.59961,0.25977zM99.31974,168.06384c0.22637,0.16169 0.33789,0.37216 0.33789,0.63086c0,0.07559 -0.00479,0.12986 -0.01562,0.16211l-0.4043,1.84375c-0.04311,0.17234 -0.11198,0.31687 -0.20898,0.43555c-0.097,0.11867 -0.23182,0.17773 -0.4043,0.17773c-0.17247,0 -0.30729,-0.05906 -0.4043,-0.17773c-0.09701,-0.11868 -0.16782,-0.26321 -0.21094,-0.43555l-0.4043,-1.84375c-0.01083,-0.03251 -0.01562,-0.08677 -0.01562,-0.16211c0,-0.25862 0.11347,-0.4691 0.33984,-0.63086c0.22635,-0.16176 0.45816,-0.24219 0.69531,-0.24219c0.23713,0 0.46894,0.08043 0.69531,0.24219zM141.09122,168.25915c0.64675,0.29103 1.19087,0.71002 1.63282,1.25977c0.44195,0.54972 0.7824,1.22383 1.01953,2.02148c0.24791,0.78687 0.37109,1.6763 0.37109,2.66797c0,0.90545 -0.10184,1.76869 -0.30664,2.58789c-0.19402,0.8192 -0.49664,1.54081 -0.90625,2.16602c-0.39883,0.62518 -0.90997,1.12666 -1.53516,1.5039c-0.6144,0.36649 -1.33798,0.54883 -2.16796,0.54883c-0.73298,0 -1.36246,-0.10683 -1.89063,-0.32226c-0.52817,-0.22637 -0.96562,-0.4863 -1.31055,-0.77735c-0.34493,-0.30181 -0.59807,-0.60928 -0.75976,-0.92187c-0.16169,-0.3126 -0.24219,-0.56575 -0.24219,-0.75977c0,-0.31252 0.11832,-0.54917 0.35547,-0.71094c0.23714,-0.16176 0.48544,-0.24218 0.74414,-0.24218c0.1509,0 0.29056,0.02615 0.41992,0.08007c0.12934,0.05367 0.23118,0.14109 0.30664,0.25977c0.2587,0.40968 0.54483,0.72686 0.85742,0.95313c0.3126,0.21568 0.75004,0.32421 1.31055,0.32421c0.33415,0 0.64647,-0.07084 0.9375,-0.21093c0.30182,-0.15096 0.55497,-0.34493 0.75977,-0.58204c0.21557,-0.24791 0.38337,-0.52725 0.50195,-0.83984c0.12936,-0.32338 0.19336,-0.66383 0.19336,-1.01953c0,-0.05392 -0.04268,-0.08008 -0.12891,-0.08008c-0.08622,0 -0.20456,0.02616 -0.35547,0.08008c-0.14013,0.04309 -0.31277,0.09735 -0.51757,0.16211c-0.19403,0.06476 -0.41616,0.12381 -0.66407,0.17773c-0.24792,0.04309 -0.51076,0.06446 -0.79101,0.06446c-0.68986,0 -1.32129,-0.10854 -1.89258,-0.32422c-0.56051,-0.22637 -1.04547,-0.53869 -1.45508,-0.9375c-0.40959,-0.39882 -0.72676,-0.86245 -0.95312,-1.39063c-0.22637,-0.53896 -0.33985,-1.12575 -0.33985,-1.76172c0,-0.67908 0.12318,-1.28723 0.3711,-1.82617c0.25869,-0.54974 0.59914,-1.01335 1.01953,-1.39062c0.43116,-0.38798 0.92581,-0.68578 1.48633,-0.89063c0.57129,-0.20485 1.16973,-0.30664 1.79492,-0.30664c0.78687,0 1.4988,0.14645 2.13476,0.4375zM62.91154,168.40367c0.24791,0.23716 0.37109,0.52813 0.37109,0.87305v3.91211l4.34961,-4.6875c0.2048,-0.21569 0.45795,-0.32422 0.75976,-0.32422c0.30183,0 0.57147,0.10853 0.80859,0.32422c0.23715,0.21558 0.35547,0.49492 0.35547,0.83984c0,0.26936 -0.08534,0.49147 -0.25781,0.66407l-3.12109,3.18359l4.07422,5.70898c0.16169,0.22637 0.24219,0.47271 0.24219,0.74219c0,0.1186 -0.02618,0.24858 -0.08008,0.38867c-0.04311,0.14002 -0.11393,0.27 -0.21094,0.38867c-0.09701,0.1076 -0.22019,0.19981 -0.37109,0.2754c-0.15091,0.07533 -0.3284,0.11132 -0.5332,0.11132c-0.18324,0 -0.35589,-0.03599 -0.51758,-0.11132c-0.16168,-0.07534 -0.2965,-0.18892 -0.4043,-0.33985l-3.75195,-5.5957l-1.3418,1.35937v3.45899c0,0.34497 -0.12318,0.63594 -0.37109,0.87305c-0.23714,0.2371 -0.52812,0.35546 -0.87305,0.35546c-0.34494,0 -0.63592,-0.11836 -0.87305,-0.35546c-0.23715,-0.23716 -0.35742,-0.52813 -0.35742,-0.87305v-10.29883c0,-0.34497 0.12027,-0.63594 0.35742,-0.87305c0.23714,-0.2371 0.52811,-0.35547 0.87305,-0.35547c0.34494,0 0.63592,0.11837 0.87305,0.35547zM115.74357,168.40367c0.24791,0.23716 0.37109,0.52813 0.37109,0.87305v9.41016h5.22266c0.30181,0 0.55496,0.10179 0.75976,0.30664c0.2048,0.2048 0.30664,0.45309 0.30664,0.74414c0,0.30175 -0.10184,0.55491 -0.30664,0.75976c-0.2048,0.20485 -0.45795,0.3086 -0.75976,0.3086h-6.41797c-0.15091,0 -0.30222,-0.02332 -0.45313,-0.06641c-0.15092,-0.05392 -0.29254,-0.1276 -0.42187,-0.22461c-0.11855,-0.10772 -0.21555,-0.24253 -0.29102,-0.4043c-0.07546,-0.16178 -0.11133,-0.35576 -0.11133,-0.58203v-10.25195c0,-0.34497 0.11835,-0.63594 0.35547,-0.87305c0.23714,-0.2371 0.52812,-0.35547 0.87305,-0.35547c0.34494,0 0.63592,0.11837 0.87305,0.35547zM138.13224,170.06969c-0.26948,0.12923 -0.50614,0.30189 -0.71094,0.51758c-0.20479,0.21558 -0.36775,0.46871 -0.48633,0.75976c-0.11857,0.28024 -0.17773,0.58092 -0.17773,0.9043c0,0.32338 0.05916,0.63085 0.17773,0.92187c0.12935,0.29095 0.302,0.54408 0.51758,0.75977c0.21558,0.21566 0.46873,0.38832 0.75977,0.51758c0.29103,0.11868 0.5985,0.17773 0.92187,0.17773c0.31259,0 0.61037,-0.05905 0.89063,-0.17773c0.28025,-0.11853 0.52176,-0.27953 0.72656,-0.48438c0.21559,-0.2048 0.38824,-0.44145 0.51758,-0.71093c0.12928,-0.28024 0.2001,-0.57804 0.21093,-0.89063c0.01079,-0.35573 -0.04353,-0.68452 -0.1621,-0.98633c-0.11857,-0.3017 -0.29121,-0.5597 -0.51758,-0.77539c-0.21558,-0.22644 -0.48038,-0.40394 -0.79297,-0.5332c-0.30182,-0.12926 -0.63062,-0.19531 -0.98633,-0.19531c-0.31259,0 -0.60842,0.06605 -0.88867,0.19531zM77.48966,171.76696c0.2587,0.21559 0.38672,0.50656 0.38672,0.87305c0,0.10784 -0.01455,0.21159 -0.04687,0.3086l-2.97656,9.27929c-0.1509,0.45271 -0.33808,0.80967 -0.56445,1.06836c-0.21558,0.25875 -0.45419,0.45756 -0.71289,0.59766c-0.2587,0.14009 -0.53318,0.22556 -0.82422,0.25781c-0.28026,0.04309 -0.5499,0.06445 -0.80859,0.06445h-0.83984c-0.2048,0 -0.38909,-0.03769 -0.55078,-0.11328c-0.1509,-0.07534 -0.28572,-0.17234 -0.4043,-0.29101c-0.10779,-0.11855 -0.19313,-0.25337 -0.25781,-0.4043c-0.0539,-0.14012 -0.08203,-0.28462 -0.08203,-0.43555c0,-0.21556 0.06595,-0.39985 0.19531,-0.55078c0.14013,-0.15093 0.35545,-0.22656 0.64648,-0.22656c0.28026,0 0.54506,-0.00555 0.79297,-0.01563c0.25871,-0.01058 0.48372,-0.04852 0.67773,-0.11328c0.19402,-0.06475 0.34533,-0.16654 0.45312,-0.30664c0.11858,-0.12933 0.17773,-0.31847 0.17773,-0.5664c0,-0.15096 -0.02134,-0.31682 -0.06445,-0.5c-0.04311,-0.18324 -0.11393,-0.39855 -0.21094,-0.64649l-2.69922,-6.85547c-0.06468,-0.16174 -0.09766,-0.33439 -0.09766,-0.51758c0,-0.12938 0.02134,-0.2642 0.06445,-0.40429c0.04314,-0.14002 0.10909,-0.27 0.19531,-0.38867c0.09701,-0.11868 0.22019,-0.21568 0.37109,-0.29102c0.16168,-0.08617 0.35566,-0.12891 0.58203,-0.12891c0.23714,0 0.45926,0.0641 0.66406,0.19336c0.20479,0.1186 0.34446,0.2961 0.41992,0.53321l1.98828,6.14453l1.55273,-6.12696c0.06468,-0.24801 0.1995,-0.43714 0.4043,-0.5664c0.21559,-0.12926 0.4474,-0.19531 0.69531,-0.19531c0.32337,0 0.61435,0.10853 0.87305,0.32421zM84.74357,171.80017c0.57129,0.22634 1.0679,0.54836 1.48828,0.96875c0.42037,0.42038 0.74917,0.92667 0.98633,1.51953c0.24791,0.58207 0.37109,1.23 0.37109,1.9414c0,0.71144 -0.12318,1.36225 -0.37109,1.95508c-0.23714,0.58208 -0.56594,1.08353 -0.98633,1.50391c-0.42038,0.42043 -0.91699,0.74923 -1.48828,0.98633c-0.57129,0.22627 -1.18427,0.33984 -1.8418,0.33984c-0.64674,0 -1.25684,-0.11357 -1.82812,-0.33984c-0.57129,-0.23716 -1.06594,-0.56595 -1.48633,-0.98633c-0.42039,-0.42038 -0.75599,-0.92183 -1.00391,-1.50391c-0.23715,-0.59283 -0.35547,-1.24364 -0.35547,-1.95508c0,-0.7114 0.11832,-1.35933 0.35547,-1.9414c0.24792,-0.59286 0.58352,-1.09915 1.00391,-1.51953c0.42038,-0.42046 0.91504,-0.74248 1.48633,-0.96875c0.57129,-0.2371 1.18138,-0.35742 1.82812,-0.35742c0.65752,0 1.27051,0.12032 1.8418,0.35742zM90.55412,171.80017c0.22637,0.22634 0.33984,0.49402 0.33984,0.80664v4.56054c0,0.23711 0.04268,0.45726 0.12891,0.66211c0.09701,0.20473 0.22019,0.38902 0.37109,0.55079c0.15091,0.15092 0.3284,0.26929 0.5332,0.35546c0.21557,0.08618 0.43769,0.12891 0.66406,0.12891c0.23714,0 0.45731,-0.04273 0.66211,-0.12891c0.20481,-0.08617 0.3823,-0.20454 0.5332,-0.35546c0.1509,-0.16164 0.2712,-0.34594 0.35742,-0.55079c0.09701,-0.20485 0.14453,-0.425 0.14453,-0.66211v-4.56054c0,-0.31269 0.11347,-0.58037 0.33984,-0.80664c0.23714,-0.2371 0.51647,-0.35742 0.83984,-0.35742c0.32336,0 0.5998,0.12032 0.82617,0.35742c0.22637,0.22634 0.33789,0.49402 0.33789,0.80664v7.03515c0,0.31262 -0.11152,0.58712 -0.33789,0.82422c-0.22636,0.22627 -0.5028,0.33789 -0.82617,0.33789c-0.32336,0 -0.59785,-0.11162 -0.82422,-0.33789c-0.22637,-0.23712 -0.33984,-0.51162 -0.33984,-0.82422c-0.09701,0.11861 -0.22503,0.24663 -0.38672,0.38672c-0.16168,0.12926 -0.35566,0.25437 -0.58203,0.37305c-0.22636,0.10784 -0.48631,0.20484 -0.77734,0.29102c-0.29104,0.07533 -0.61984,0.11132 -0.98633,0.11132c-0.4096,0 -0.79757,-0.0641 -1.16406,-0.19336c-0.36649,-0.14012 -0.68849,-0.33409 -0.96875,-0.58203c-0.26947,-0.25869 -0.48675,-0.55935 -0.64844,-0.90429c-0.16169,-0.35571 -0.24219,-0.7505 -0.24219,-1.18164v-5.33594c0,-0.31269 0.11348,-0.58037 0.33984,-0.80664c0.23714,-0.2371 0.51843,-0.35742 0.8418,-0.35742c0.32336,0 0.59785,0.12032 0.82422,0.35742zM105.67325,171.68492c0.45272,0.15101 0.8339,0.34014 1.14649,0.56641c0.32337,0.22637 0.57167,0.47466 0.74414,0.74414c0.18326,0.25877 0.27539,0.50225 0.27539,0.72852c0,0.14001 -0.03298,0.26804 -0.09766,0.38671c-0.06468,0.11868 -0.15002,0.22242 -0.25781,0.3086c-0.09701,0.07534 -0.21048,0.13944 -0.33984,0.19336c-0.11855,0.04308 -0.23689,0.06445 -0.35547,0.06445c-0.12934,0 -0.25252,-0.02616 -0.3711,-0.08008c-0.11857,-0.06475 -0.20586,-0.17329 -0.25976,-0.32422c-0.08622,-0.20482 -0.20457,-0.37748 -0.35547,-0.51757c-0.14014,-0.1401 -0.30114,-0.25367 -0.48437,-0.33985c-0.17247,-0.09701 -0.36161,-0.1659 -0.56641,-0.20898c-0.19403,-0.04309 -0.38802,-0.06446 -0.58203,-0.06446c-0.42038,0 -0.77053,0.07368 -1.05078,0.22461c-0.28026,0.14012 -0.41992,0.3671 -0.41992,0.67969c-0.00001,0.25875 0.13286,0.45756 0.40234,0.59766c0.28026,0.14009 0.62555,0.2652 1.03516,0.37304c0.4096,0.09701 0.85189,0.20359 1.32617,0.32227c0.47428,0.10779 0.91657,0.25911 1.32617,0.45312c0.4096,0.18324 0.7481,0.43155 1.01758,0.74415c0.27987,0.30142 0.4215,0.70528 0.42187,1.21093v0.00196c-0.00026,0.53811 -0.10405,1.01279 -0.30859,1.42187c-0.19403,0.39882 -0.46367,0.73927 -0.8086,1.01953c-0.33415,0.26951 -0.73181,0.47319 -1.19531,0.61328c-0.45272,0.1401 -0.93768,0.21094 -1.45508,0.21094c-0.65752,0 -1.23947,-0.09221 -1.74609,-0.27539c-0.50662,-0.19402 -0.93241,-0.43067 -1.27734,-0.71094c-0.34492,-0.28026 -0.60972,-0.58774 -0.79297,-0.92187c-0.17247,-0.34495 -0.25781,-0.66406 -0.25781,-0.95508c0,-0.24791 0.11347,-0.44673 0.33984,-0.59766c0.23714,-0.15093 0.49029,-0.22656 0.75976,-0.22656c0.18325,0 0.3491,0.03769 0.5,0.11328c0.15091,0.07534 0.25954,0.19371 0.32422,0.35547c0.18325,0.45274 0.44609,0.81937 0.79102,1.09961c0.34493,0.28027 0.79886,0.42188 1.35937,0.42188c0.18326,0 0.3656,-0.02332 0.54883,-0.06641c0.18325,-0.05392 0.34621,-0.12281 0.48633,-0.20899c0.15093,-0.097 0.26925,-0.21058 0.35547,-0.33984c0.09701,-0.14019 0.14453,-0.30119 0.14453,-0.48437c0,-0.29095 -0.13482,-0.51793 -0.4043,-0.67969c-0.26947,-0.16164 -0.60313,-0.29646 -1.00195,-0.4043c-0.39883,-0.11842 -0.83432,-0.232 -1.30859,-0.33984c-0.47428,-0.11858 -0.91172,-0.27474 -1.31055,-0.46875c-0.39882,-0.19402 -0.73248,-0.44718 -1.00195,-0.75977c-0.26947,-0.31259 -0.4043,-0.73354 -0.4043,-1.26172c0,-0.42038 0.08534,-0.80835 0.25781,-1.16406c0.17246,-0.3557 0.41593,-0.65636 0.72852,-0.9043c0.32337,-0.24793 0.70649,-0.44193 1.14844,-0.58203c0.44194,-0.14009 0.93175,-0.21093 1.4707,-0.21093c0.54973,0 1.05118,0.08042 1.5039,0.24218zM124.54825,171.60484c0.18324,0.09691 0.30837,0.25307 0.37305,0.46876l1.77735,5.96679l1.79492,-5.96679c0.06468,-0.21559 0.18299,-0.37175 0.35547,-0.46876c0.18324,-0.10784 0.38207,-0.1621 0.59765,-0.1621c0.12936,0 0.25934,0.02811 0.38867,0.08203c0.14012,0.04308 0.26526,0.10718 0.37305,0.19336c0.11855,0.08617 0.21555,0.19975 0.29102,0.33984c0.07546,0.12921 0.11328,0.28053 0.11328,0.45313c0,0.097 -0.0165,0.194 -0.04883,0.29101l-2.42578,6.95117c-0.11858,0.3234 -0.30287,0.58333 -0.55078,0.77735c-0.24792,0.18318 -0.54375,0.27343 -0.88867,0.27343c-0.34494,0 -0.64077,-0.09025 -0.88868,-0.27343c-0.24791,-0.19404 -0.4322,-0.45397 -0.55078,-0.77735l-2.4082,-6.95117c-0.03233,-0.09701 -0.04883,-0.19401 -0.04883,-0.29101c0,-0.345 0.12318,-0.60979 0.37109,-0.79297c0.24792,-0.18318 0.51272,-0.27539 0.79297,-0.27539c0.21558,0 0.40956,0.05426 0.58203,0.1621zM81.83341,173.39977c-0.31258,0.16169 -0.58223,0.38864 -0.80859,0.67968c-0.21557,0.28024 -0.38142,0.60906 -0.5,0.98633c-0.11858,0.36649 -0.17773,0.75446 -0.17773,1.16406c0,0.40963 0.05916,0.80245 0.17773,1.17969c0.11857,0.37727 0.28442,0.70607 0.5,0.98633c0.22636,0.28011 0.496,0.50709 0.80859,0.67969c0.31259,0.16176 0.66953,0.24219 1.06836,0.24219c0.39883,0 0.75381,-0.08043 1.06641,-0.24219c0.32337,-0.17247 0.59301,-0.39945 0.80859,-0.67969c0.21557,-0.28026 0.38338,-0.60906 0.50195,-0.98633c0.11858,-0.37724 0.17773,-0.77006 0.17773,-1.17969c0,-0.40959 -0.05916,-0.79757 -0.17773,-1.16406c-0.11857,-0.37727 -0.28637,-0.70609 -0.50195,-0.98633c-0.21558,-0.29097 -0.48522,-0.51792 -0.80859,-0.67968c-0.31259,-0.17235 -0.66758,-0.25782 -1.06641,-0.25782c-0.39883,0 -0.75577,0.08547 -1.06836,0.25782zM133.25919,178.7025c0.24791,0.23713 0.37305,0.5281 0.37305,0.87305c0,0.34497 -0.12514,0.63594 -0.37305,0.87305c-0.23714,0.2371 -0.52811,0.35742 -0.87304,0.35742c-0.34494,0 -0.63592,-0.12032 -0.87305,-0.35742c-0.23713,-0.23716 -0.35547,-0.52813 -0.35547,-0.87305c0,-0.34497 0.11834,-0.63595 0.35547,-0.87305c0.23714,-0.24794 0.52812,-0.37109 0.87305,-0.37109c0.34494,0 0.63591,0.12315 0.87304,0.37109z" fill="#1eff00" stroke="none" stroke-width="1.01053" stroke-miterlimit="10" stroke-dashoffset="0"/></g></g></svg>