<svg version="1.1" xmlns="http://www.w3.org/2000/svg" xmlns:xlink="http://www.w3.org/1999/xlink" width="55.881" height="73.715" viewBox="0,0,55.881,73.715"><g transform="translate(-212.19,-143.135)"><g data-paper-data="{&quot;isPaintingLayer&quot;:true}" fill="#ffffff" fill-rule="nonzero" stroke="none" stroke-width="0" stroke-linecap="butt" stroke-linejoin="miter" stroke-miterlimit="10" stroke-dasharray="" stroke-dashoffset="0" style="mix-blend-mode: normal"><path d="M260.833,152.565c4.825,6.223 7.238,15.366 7.238,27.428c0,12.061 -2.413,21.236 -7.238,27.523c-4.762,6.223 -11.678,9.334 -20.75,9.334c-9.073,0 -15.989,-3.111 -20.75,-9.334c-4.762,-6.287 -7.143,-15.462 -7.143,-27.523c0,-12.062 2.381,-21.205 7.143,-27.428c4.761,-6.287 11.677,-9.43 20.75,-9.43c9.072,0 15.988,3.143 20.75,9.43zM226.764,159.301c-2.96,4.876 -4.439,11.774 -4.439,20.692c0,8.982 1.479,15.911 4.439,20.787c2.96,4.812 7.399,7.217 13.319,7.217c5.983,0 10.423,-2.405 13.318,-7.217c2.96,-4.876 4.439,-11.805 4.439,-20.787c0,-8.918 -1.479,-15.816 -4.439,-20.692c-2.895,-4.876 -7.335,-7.312 -13.318,-7.312c-5.92,0 -10.359,2.436 -13.319,7.312z"/></g></g></svg>