<svg version="1.1" xmlns="http://www.w3.org/2000/svg" xmlns:xlink="http://www.w3.org/1999/xlink" width="372.21489" height="68.64263" viewBox="0,0,372.21489,68.64263"><g transform="translate(-53.89256,-145.67868)"><g data-paper-data="{&quot;isPaintingLayer&quot;:true}" fill-rule="nonzero" stroke-linecap="butt" stroke-linejoin="miter" stroke-dasharray="" style="mix-blend-mode: normal"><path d="M425.00973,146.42868c0.19313,0 0.34772,0.15458 0.34772,0.34772v66.4453c0,0.19313 -0.15458,0.34961 -0.34772,0.34961h-370.01756c-0.19313,0 -0.34961,-0.15647 -0.34961,-0.34961v-66.4453c0,-0.19313 0.15647,-0.34772 0.34961,-0.34772z" fill="#1e1e1e" stroke="#1eff00" stroke-width="1.5" stroke-miterlimit="4" stroke-dashoffset="17.35"/><path d="M69.10243,187.56366c1.27597,0 2.33416,4.30813 3.36635,5.05807c1.0323,0.74997 5.45658,0.42505 5.85086,1.63858c0.39428,1.21349 -3.37606,3.55106 -3.77031,4.76462c-0.39428,1.21349 1.28194,5.32074 0.24983,6.07075c-1.0323,0.74997 -4.42061,-2.11344 -5.69654,-2.11344c-1.27593,0 -4.66428,2.86341 -5.6965,2.11344c-1.03226,-0.75001 0.64396,-4.85726 0.24983,-6.07075c-0.39428,-1.21353 -4.16459,-3.55113 -3.77031,-4.76462c0.39428,-1.21353 4.81856,-0.88857 5.85082,-1.63858c1.03223,-0.74993 2.09038,-5.05807 3.36631,-5.05807z" fill="#1eff00" stroke="none" stroke-width="0.88188" stroke-miterlimit="4" stroke-dashoffset="17.35"/><path d="M92.0395,187.56366c1.27593,0 2.33405,4.30813 3.36631,5.05807c1.03226,0.74997 5.4565,0.42505 5.85078,1.63858c0.39428,1.21349 -3.37599,3.55106 -3.77027,4.76462c-0.39432,1.21349 1.2819,5.32074 0.24945,6.07075c-1.03223,0.74997 -4.42054,-2.11344 -5.69647,-2.11344c-1.27593,0 -4.6642,2.86341 -5.69647,2.11344c-1.03226,-0.75001 0.64396,-4.85726 0.24945,-6.07075c-0.39428,-1.21353 -4.16455,-3.55113 -3.77031,-4.76462c0.39428,-1.21353 4.81856,-0.88857 5.85078,-1.63858c1.0323,-0.74993 2.09042,-5.05807 3.36635,-5.05807z" fill="#1eff00" stroke="none" stroke-width="0.88188" stroke-miterlimit="4" stroke-dashoffset="17.35"/><path d="M114.9764,187.56366c1.27593,0 2.33409,4.30813 3.36631,5.05807c1.03223,0.74997 5.4565,0.42505 5.85078,1.63858c0.39428,1.21349 -3.37603,3.55106 -3.77031,4.76462c-0.39428,1.21349 1.28194,5.32074 0.24983,6.07075c-1.03226,0.74997 -4.42054,-2.11344 -5.69647,-2.11344c-1.27593,0 -4.66424,2.86341 -5.6965,2.11344c-1.03223,-0.75001 0.64396,-4.85726 0.24983,-6.07075c-0.39428,-1.21353 -4.16459,-3.55113 -3.77031,-4.76462c0.39432,-1.21353 4.81856,-0.88857 5.85082,-1.63858c1.03226,-0.74993 2.09038,-5.05807 3.36631,-5.05807z" fill="#1eff00" stroke="none" stroke-width="0.88188" stroke-miterlimit="4" stroke-dashoffset="17.35"/><path d="M137.9136,187.56366c1.27593,0 2.33409,4.30813 3.36631,5.05807c1.03226,0.74997 5.4565,0.42505 5.85082,1.63858c0.39428,1.21349 -3.37603,3.55106 -3.77031,4.76462c-0.39428,1.21349 1.2819,5.32074 0.24983,6.07075c-1.0323,0.74997 -4.42061,-2.11344 -5.69654,-2.11344c-1.27593,0 -4.66424,2.86341 -5.6965,2.11344c-1.03223,-0.75001 0.64396,-4.85726 0.24983,-6.07075c-0.39428,-1.21353 -4.16459,-3.55113 -3.77031,-4.76462c0.39432,-1.21353 4.81856,-0.88857 5.85082,-1.63858c1.0323,-0.74993 2.09038,-5.05807 3.36631,-5.05807z" fill="#1eff00" stroke="none" stroke-width="0.88188" stroke-miterlimit="4" stroke-dashoffset="17.35"/><path d="M160.85125,196.304c0.01134,0 0.02268,0.04309 0.03402,0.05065c0.01134,0.00756 0.0548,0.00378 0.05858,0.01512c0.00378,0.01134 -0.03402,0.03402 -0.0378,0.04762c-0.00378,0.01134 0.01134,0.05329 0.002,0.06085c-0.01134,0.00756 -0.04422,-0.02268 -0.05707,-0.02268c-0.01134,0 -0.04649,0.03024 -0.05707,0.02268c-0.01134,-0.00756 0.00756,-0.04876 0.00197,-0.06085c-0.00378,-0.01134 -0.04157,-0.03402 -0.0378,-0.04762c0.00378,-0.01134 0.048,-0.00756 0.05858,-0.01512c0.01134,-0.00756 0.0189,-0.05065 0.03402,-0.05065z" fill="#1eff00" stroke="none" stroke-width="0.00882" stroke-miterlimit="4" stroke-dashoffset="17.35"/><path d="M160.8511,191.18339c0.75281,0 1.37711,2.54181 1.98614,2.98428c0.60903,0.44247 3.21933,0.25058 3.45199,0.96677c0.23282,0.71596 -1.99185,2.09511 -2.22448,2.8111c-0.23282,0.71596 0.75632,3.13924 0.1474,3.58174c-0.60907,0.44251 -2.60818,-1.2469 -3.36098,-1.2469c-0.75281,0 -2.75191,1.68941 -3.36094,1.2469c-0.609,-0.44251 0.37996,-2.86579 0.1474,-3.58174c-0.23244,-0.71596 -2.45711,-2.09514 -2.22448,-2.8111c0.23282,-0.71599 2.84296,-0.52426 3.45199,-0.96677c0.60907,-0.44247 1.23334,-2.98428 1.98614,-2.98428z" fill="#1eff00" stroke="none" stroke-width="0.52031" stroke-miterlimit="4" stroke-dashoffset="17.35"/><path d="M66.40295,153.44226c0.23703,0.19404 0.41453,0.45204 0.5332,0.77539l4.0586,10.44531c0.05392,0.14022 0.08008,0.27504 0.08008,0.4043c0,0.097 -0.01463,0.20554 -0.04688,0.32421c-0.0325,0.11843 -0.08677,0.2368 -0.16211,0.35547c-0.07559,0.10785 -0.18412,0.1981 -0.32422,0.27344c-0.12936,0.07559 -0.29036,0.11328 -0.48437,0.11328c-0.22637,0 -0.43685,-0.06889 -0.63086,-0.20898c-0.19407,-0.14022 -0.33375,-0.32452 -0.41992,-0.55078l-1.06836,-3.07032h-4.65625l-1.03516,3.23243c-0.06475,0.19399 -0.18312,0.34528 -0.35547,0.45312c-0.17239,0.09701 -0.36155,0.14649 -0.5664,0.14649c-0.29095,0 -0.54408,-0.097 -0.75977,-0.29102c-0.20485,-0.19402 -0.30664,-0.43263 -0.30664,-0.71289c0,-0.10784 0.01658,-0.20963 0.04883,-0.30664l3.84765,-10.60742c0.11866,-0.32338 0.29131,-0.58138 0.51758,-0.77539c0.23713,-0.19402 0.5281,-0.29102 0.87305,-0.29102c0.34502,0 0.63115,0.097 0.85742,0.29102zM105.6549,153.44226c0.23703,0.19404 0.41648,0.45204 0.53516,0.77539l4.05664,10.44531c0.05392,0.14022 0.08203,0.27504 0.08203,0.4043c0,0.097 -0.01657,0.20554 -0.04883,0.32421c-0.03225,0.11843 -0.08651,0.2368 -0.1621,0.35547c-0.0756,0.10785 -0.18218,0.1981 -0.32227,0.27344c-0.12936,0.07559 -0.29231,0.11328 -0.48633,0.11328c-0.22634,0 -0.43684,-0.06889 -0.63086,-0.20898c-0.19409,-0.14022 -0.33375,-0.32452 -0.41992,-0.55078l-1.06641,-3.07032h-4.65625l-1.03515,3.23243c-0.06476,0.19399 -0.18312,0.34528 -0.35547,0.45312c-0.17242,0.09701 -0.36156,0.14649 -0.56641,0.14649c-0.29095,0 -0.54408,-0.097 -0.75976,-0.29102c-0.20485,-0.19402 -0.30664,-0.43263 -0.30664,-0.71289c0,-0.10784 0.01462,-0.20963 0.04687,-0.30664l3.84961,-10.60742c0.11865,-0.32338 0.28936,-0.58138 0.51563,-0.77539c0.23715,-0.19402 0.53008,-0.29102 0.875,-0.29102c0.34502,0 0.6292,0.097 0.85546,0.29102zM73.73303,153.58874c0.20493,0.12931 0.39406,0.31652 0.56641,0.56445l5.7871,8.6836v-8.50586c0,-0.26953 0.09221,-0.49456 0.2754,-0.67774c0.18323,-0.18318 0.4102,-0.27539 0.67968,-0.27539c0.26956,0 0.49456,0.09221 0.67774,0.27539c0.18318,0.18324 0.27539,0.40826 0.27539,0.67774v10.84961c0,0.25869 -0.09221,0.48567 -0.27539,0.67969c-0.18326,0.18318 -0.40826,0.27539 -0.67774,0.27539v-0.00196c-0.30175,0 -0.55491,-0.0641 -0.75976,-0.19336c-0.20473,-0.14009 -0.38902,-0.33409 -0.55078,-0.58203l-5.80469,-8.61719v8.43946c0,0.25869 -0.09221,0.48567 -0.27539,0.67969c-0.18323,0.18318 -0.40826,0.27343 -0.67774,0.27343c-0.25869,0 -0.48567,-0.09025 -0.67968,-0.27343c-0.18318,-0.19402 -0.27539,-0.421 -0.27539,-0.67969v-10.84961c0,-0.26953 0.09221,-0.49456 0.27539,-0.67774c0.19401,-0.18318 0.42099,-0.27539 0.67968,-0.27539c0.30176,0 0.55492,0.07085 0.75977,0.21094zM84.88928,153.65319c0.19402,0.18324 0.29102,0.40826 0.29102,0.67774c0,0.25869 -0.097,0.48567 -0.29102,0.67969c-0.18323,0.18318 -0.40537,0.27539 -0.66406,0.27539c-0.26948,0 -0.5013,-0.09221 -0.69532,-0.27539c-0.18318,-0.19402 -0.27343,-0.421 -0.27343,-0.67969c0,-0.26953 0.09025,-0.49456 0.27343,-0.67774c0.19402,-0.18318 0.42584,-0.27539 0.69532,-0.27539c0.25874,0 0.48088,0.09221 0.66406,0.27539zM88.53576,153.76647c0.2264,0.24794 0.41069,0.5486 0.55078,0.9043l3.42774,8.86133l3.42773,-8.86133c0.14002,-0.3557 0.31752,-0.65636 0.53321,-0.9043c0.22637,-0.25869 0.529,-0.38867 0.90625,-0.38867c0.33426,0 0.61357,0.11837 0.83984,0.35547c0.2371,0.22635 0.35547,0.50084 0.35547,0.82422v10.7207c0,0.23701 -0.08521,0.44069 -0.25781,0.61328c-0.16172,0.16177 -0.36056,0.24415 -0.59766,0.24415c-0.23705,0 -0.43784,-0.08238 -0.59961,-0.24415c-0.16176,-0.17249 -0.24219,-0.37617 -0.24219,-0.61328v-8.29492l-3.15234,8.21289c-0.10774,0.28037 -0.2639,0.50734 -0.46875,0.67969c-0.19402,0.1726 -0.44231,0.25977 -0.74414,0.25977c-0.30176,0 -0.55492,-0.08717 -0.75977,-0.25977c-0.19396,-0.17247 -0.34528,-0.39945 -0.45312,-0.67969l-3.15235,-8.21289v8.29492c0,0.23701 -0.08237,0.44069 -0.24414,0.61328c-0.16171,0.16177 -0.36055,0.24415 -0.59765,0.24415c-0.23726,0 -0.44094,-0.08238 -0.61328,-0.24415c-0.16177,-0.17249 -0.24414,-0.37617 -0.24414,-0.61328v-10.7207c0,-0.32345 0.11357,-0.59795 0.33984,-0.82422c0.23715,-0.2371 0.52329,-0.35547 0.85742,-0.35547c0.37717,0 0.67299,0.12998 0.88867,0.38867zM63.81506,160.58874h3.52539l-1.85937,-5.32031zM103.06897,160.58874h3.52343l-1.85937,-5.32031zM84.82483,157.03211c0.16176,0.16171 0.24218,0.36055 0.24218,0.59766v7.64843c0,0.23701 -0.08042,0.44069 -0.24218,0.61328c-0.16172,0.16177 -0.36251,0.24415 -0.59961,0.24415c-0.23726,0 -0.44094,-0.08238 -0.61328,-0.24415c-0.16177,-0.17249 -0.24414,-0.37617 -0.24414,-0.61328v-7.64843c-0.00001,-0.23706 0.08237,-0.4359 0.24414,-0.59766c0.17249,-0.1726 0.37617,-0.25977 0.61328,-0.25977c0.23705,0 0.43784,0.08717 0.59961,0.25977zM87.72717,168.06336c0.22627,0.16169 0.33984,0.37216 0.33984,0.63086c0,0.07559 -0.00554,0.12986 -0.01562,0.16211l-0.4043,1.84375c-0.04308,0.17235 -0.11197,0.31687 -0.20898,0.43555c-0.09714,0.11867 -0.23195,0.17773 -0.4043,0.17773c-0.17247,0 -0.30729,-0.05906 -0.4043,-0.17773c-0.097,-0.11868 -0.16785,-0.2632 -0.21093,-0.43555l-0.40625,-1.84375c-0.01008,-0.03225 -0.01563,-0.08652 -0.01563,-0.16211c0,-0.25862 0.11358,-0.4691 0.33984,-0.63086c0.2264,-0.16176 0.45822,-0.24219 0.69532,-0.24219c0.23723,0 0.46904,0.08043 0.69531,0.24219zM129.28967,168.11218c0.56053,0.19401 1.0358,0.45881 1.42383,0.79297c0.39871,0.33413 0.70619,0.71531 0.92187,1.14648c0.21569,0.43117 0.32227,0.88996 0.32227,1.375c0,0.40963 -0.08042,0.7646 -0.24219,1.06641c-0.16156,0.30175 -0.35072,0.55687 -0.56641,0.76172c-0.20477,0.19396 -0.40843,0.34333 -0.61328,0.45117c-0.19394,0.10658 -0.32391,0.17263 -0.38867,0.19531c-0.07534,0.0325 -0.11328,0.0702 -0.11328,0.11328c0,0.05266 0.02811,0.09061 0.08203,0.11328c0.2048,0.08643 0.43662,0.19301 0.69531,0.32227c0.2588,0.12938 0.5003,0.31368 0.72657,0.55078c0.22631,0.23713 0.41547,0.53294 0.5664,0.88867c0.16177,0.35571 0.24219,0.80284 0.24219,1.3418c0,0.6144 -0.14452,1.15853 -0.43555,1.63281c-0.29105,0.4635 -0.67415,0.85631 -1.14843,1.17969c-0.47426,0.32327 -1.00871,0.56675 -1.60157,0.72851c-0.59285,0.16177 -1.19614,0.24219 -1.81054,0.24219c-0.88388,0 -1.62199,-0.13481 -2.21485,-0.40429c-0.59283,-0.26946 -1.07296,-0.58664 -1.43945,-0.95313c-0.35565,-0.37727 -0.61363,-0.75554 -0.77539,-1.13281c-0.15093,-0.38813 -0.22656,-0.69561 -0.22656,-0.92188c0,-0.18328 0.0329,-0.34428 0.09765,-0.48437c0.07534,-0.15093 0.1656,-0.27409 0.27344,-0.3711c0.1186,-0.097 0.24858,-0.17264 0.38867,-0.22656c0.15093,-0.05392 0.29741,-0.08203 0.4375,-0.08203c0.19394,0 0.37144,0.04948 0.53321,0.14648c0.16151,0.08613 0.27987,0.23744 0.35546,0.45313c0.05367,0.16159 0.13914,0.34877 0.25782,0.56445c0.12931,0.2048 0.2971,0.4056 0.50195,0.59961c0.2048,0.19407 0.45309,0.35991 0.74414,0.5c0.30181,0.12926 0.65681,0.19531 1.06641,0.19531c0.29102,0 0.58199,-0.03794 0.87304,-0.11328c0.29113,-0.08617 0.54913,-0.20454 0.77539,-0.35547c0.2264,-0.16176 0.41069,-0.35576 0.55079,-0.58203c0.14009,-0.23715 0.20898,-0.50678 0.20898,-0.80859c0,-0.44195 -0.08547,-0.7989 -0.25781,-1.06836c-0.17247,-0.28024 -0.38779,-0.49556 -0.64649,-0.64648c-0.25869,-0.15093 -0.54483,-0.25272 -0.85742,-0.30665c-0.31259,-0.05392 -0.60841,-0.08007 -0.88867,-0.08007c-0.20475,0 -0.36091,-0.09221 -0.46875,-0.27539c-0.10784,-0.18318 -0.16211,-0.37718 -0.16211,-0.58204c0,-0.20479 0.04752,-0.38227 0.14453,-0.5332c0.10769,-0.16176 0.27064,-0.24414 0.48633,-0.24414c0.2048,0 0.44146,-0.02616 0.71094,-0.08008c0.28024,-0.05392 0.54503,-0.14613 0.79297,-0.27539c0.24778,-0.12923 0.45826,-0.30189 0.63086,-0.51758c0.18318,-0.22636 0.27343,-0.51054 0.27343,-0.85546c-0.01076,-0.5174 -0.19796,-0.91701 -0.56445,-1.19727c-0.36649,-0.28026 -0.87473,-0.41992 -1.52148,-0.41992c-0.32336,0 -0.60754,0.05426 -0.85547,0.16211c-0.24779,0.09693 -0.45826,0.22495 -0.63086,0.38672c-0.17243,0.15085 -0.31404,0.32835 -0.42188,0.5332c-0.09701,0.19404 -0.1659,0.38801 -0.20898,0.58203c-0.05392,0.28039 -0.1675,0.48118 -0.33985,0.59961c-0.17234,0.11868 -0.36634,0.17773 -0.58203,0.17773c-0.28024,0 -0.54503,-0.10179 -0.79297,-0.30664c-0.24793,-0.21558 -0.37109,-0.53469 -0.37109,-0.95507c0,-0.19402 0.07084,-0.47336 0.21094,-0.83985c0.14012,-0.37727 0.37193,-0.7439 0.69531,-1.09961c0.33416,-0.36649 0.76482,-0.6856 1.29297,-0.95508c0.53896,-0.28026 1.20625,-0.41992 2.00391,-0.41992c0.68986,0 1.30965,0.097 1.85937,0.29102zM140.52209,168.28991c0.65751,0.30184 1.21815,0.7441 1.68164,1.32617c0.46355,0.57129 0.81563,1.26674 1.05274,2.08594c0.24793,0.80844 0.37109,1.71437 0.37109,2.7168c0,1.00246 -0.12316,1.9132 -0.37109,2.73242c-0.23716,0.80842 -0.58924,1.50387 -1.05274,2.08594c-0.46349,0.57129 -1.02413,1.01162 -1.68164,1.32422c-0.65754,0.3018 -1.39564,0.45312 -2.21484,0.45312c-0.82999,0 -1.57293,-0.15132 -2.23047,-0.45312c-0.65751,-0.3126 -1.21815,-0.75293 -1.68164,-1.32422c-0.45271,-0.58207 -0.80285,-1.27752 -1.05078,-2.08594c-0.2371,-0.81922 -0.35547,-1.72996 -0.35547,-2.73242c0,-1.00243 0.11837,-1.90836 0.35547,-2.7168c0.24791,-0.8192 0.59804,-1.51465 1.05078,-2.08594c0.46349,-0.58207 1.02413,-1.02433 1.68164,-1.32617c0.65754,-0.31259 1.40048,-0.46875 2.23047,-0.46875c0.8192,0 1.5573,0.15616 2.21484,0.46875zM62.91075,168.4032c0.24794,0.23713 0.3711,0.52811 0.3711,0.87305v10.29883c0,0.34497 -0.12316,0.63594 -0.3711,0.87305c-0.23712,0.2371 -0.52812,0.35742 -0.87304,0.35742c-0.34497,0 -0.63595,-0.12032 -0.87305,-0.35742c-0.2371,-0.23716 -0.35742,-0.52813 -0.35742,-0.87305v-10.29883c0,-0.34497 0.12032,-0.63594 0.35742,-0.87305c0.23713,-0.2371 0.5281,-0.35546 0.87305,-0.35546c0.34494,0 0.63594,0.11836 0.87304,0.35546zM75.77599,168.38757c0.2371,0.22637 0.35547,0.50084 0.35547,0.82422v3.20117c0,0.06476 0.02136,0.09766 0.06445,0.09766c0.06476,0 0.1685,-0.05427 0.30859,-0.16211c0.1401,-0.11868 0.31078,-0.24184 0.51563,-0.3711c0.21558,-0.12926 0.4639,-0.24762 0.74414,-0.35547c0.28026,-0.11867 0.59258,-0.17968 0.9375,-0.17968c0.46352,0 0.8796,0.07563 1.24609,0.22656c0.37725,0.15093 0.68957,0.35654 0.9375,0.61523c0.24799,0.2587 0.43715,0.56617 0.56641,0.92188c0.14009,0.34492 0.20898,0.71639 0.20898,1.11523v5.32031c0,0.31262 -0.11836,0.58712 -0.35546,0.82422c-0.22635,0.22627 -0.49601,0.33789 -0.8086,0.33789c-0.32343,0 -0.60274,-0.11162 -0.83984,-0.33789c-0.22627,-0.23712 -0.33985,-0.51162 -0.33985,-0.82422v-4.52734c0,-0.44195 -0.15615,-0.81538 -0.46875,-1.11719c-0.30183,-0.31259 -0.6801,-0.46875 -1.13281,-0.46875c-0.44195,0 -0.81827,0.15616 -1.13086,0.46875c-0.30181,0.30181 -0.45312,0.6801 -0.45312,1.13282v4.51171c0,0.31262 -0.11837,0.58712 -0.35547,0.82422c-0.22637,0.22627 -0.50084,0.33789 -0.82422,0.33789c-0.31262,0 -0.58712,-0.11162 -0.82422,-0.33789c-0.22627,-0.23712 -0.33984,-0.51162 -0.33984,-0.82422v-10.42968c0,-0.32348 0.11357,-0.59795 0.33984,-0.82422c0.23713,-0.22627 0.51163,-0.33984 0.82422,-0.33984c0.32348,0 0.59795,0.11357 0.82422,0.33984zM84.80138,168.38757c0.2371,0.22637 0.35547,0.50084 0.35547,0.82422c0,0.32345 -0.11837,0.59795 -0.35547,0.82422c-0.22634,0.22626 -0.50084,0.33984 -0.82422,0.33984c-0.31264,0 -0.58712,-0.11358 -0.82422,-0.33984c-0.22627,-0.22635 -0.33984,-0.50085 -0.33984,-0.82422c0,-0.32348 0.11357,-0.59795 0.33984,-0.82422c0.23715,-0.22627 0.51163,-0.33984 0.82422,-0.33984c0.32345,0 0.59795,0.11357 0.82422,0.33984zM104.15295,168.4032c0.24794,0.23713 0.37109,0.52811 0.37109,0.87305v9.41016h5.22266c0.30176,0 0.55492,0.10179 0.75977,0.30664c0.20485,0.2048 0.30859,0.45309 0.30859,0.74414c0,0.30176 -0.10374,0.55491 -0.30859,0.75976c-0.2048,0.20485 -0.45796,0.3086 -0.75977,0.3086h-6.41797c-0.15088,0 -0.30219,-0.02332 -0.45312,-0.06641c-0.15101,-0.05392 -0.29066,-0.1276 -0.41992,-0.22461c-0.11868,-0.10771 -0.21568,-0.24253 -0.29102,-0.40429c-0.07559,-0.16179 -0.11328,-0.35577 -0.11328,-0.58204v-10.25195c0,-0.34497 0.11837,-0.63594 0.35547,-0.87305c0.23713,-0.2371 0.52812,-0.35546 0.87304,-0.35546c0.34497,0 0.63595,0.11836 0.87305,0.35546zM136.17444,171.18445c-0.48507,0.6683 -0.72852,1.74688 -0.72852,3.23438c0,1.4983 0.24345,2.5817 0.72852,3.25c0.49584,0.66829 1.20582,1.00195 2.13281,1.00195c0.91621,0 1.61845,-0.33366 2.10351,-1.00195c0.49585,-0.6683 0.74219,-1.7517 0.74219,-3.25c0,-1.4875 -0.24634,-2.56608 -0.74219,-3.23438c-0.48506,-0.67908 -1.1873,-1.01953 -2.10351,-1.01953c-0.92699,0 -1.63697,0.34045 -2.13281,1.01953zM70.57678,171.79774c0.49582,0.23712 0.9003,0.51162 1.21289,0.82421c0.32343,0.3126 0.55522,0.62007 0.69531,0.92188c0.15093,0.29095 0.22461,0.49656 0.22461,0.61523c0,0.16167 -0.04273,0.31782 -0.1289,0.46875c-0.07559,0.1401 -0.17739,0.26325 -0.30665,0.3711c-0.12925,0.10759 -0.27573,0.19501 -0.4375,0.25976c-0.15087,0.06476 -0.30024,0.09571 -0.45117,0.09571c-0.151,0 -0.29261,-0.03599 -0.42187,-0.11133c-0.11843,-0.08625 -0.20389,-0.22786 -0.25781,-0.42188c-0.03226,-0.14004 -0.09157,-0.28941 -0.17774,-0.45117c-0.08617,-0.17245 -0.20933,-0.3354 -0.37109,-0.48633c-0.15101,-0.15093 -0.34014,-0.27408 -0.56641,-0.37109c-0.22634,-0.10784 -0.49116,-0.16211 -0.79297,-0.16211c-0.66832,0 -1.19111,0.23182 -1.56836,0.69531c-0.37727,0.4635 -0.56445,1.19192 -0.56445,2.1836c0,0.99167 0.18718,1.71814 0.56445,2.18164c0.37725,0.46352 0.90004,0.69531 1.56836,0.69531c0.30189,0 0.5667,-0.04752 0.79297,-0.14453c0.23713,-0.10777 0.4311,-0.23775 0.58203,-0.38867c0.15093,-0.15083 0.2693,-0.30699 0.35547,-0.46875c0.08617,-0.1725 0.14548,-0.32866 0.17774,-0.46875c0.04308,-0.19412 0.12855,-0.32896 0.25781,-0.4043c0.12933,-0.08617 0.27094,-0.12891 0.42187,-0.12891c0.1401,0 0.28462,0.03095 0.43555,0.09571c0.16176,0.06475 0.30824,0.15192 0.4375,0.25976c0.12951,0.10777 0.23609,0.23774 0.32227,0.38867c0.08617,0.14005 0.1289,0.28941 0.1289,0.45118c0,0.11857 -0.06889,0.32905 -0.20898,0.63085c-0.12934,0.29103 -0.35147,0.59366 -0.66407,0.90625c-0.3018,0.31265 -0.69946,0.58712 -1.19531,0.82422c-0.49582,0.23711 -1.11077,0.35547 -1.84375,0.35547c-0.63597,0 -1.22955,-0.11357 -1.77929,-0.33984c-0.53894,-0.22637 -1.00741,-0.55032 -1.40625,-0.97071c-0.39892,-0.42038 -0.71124,-0.92183 -0.9375,-1.5039c-0.22627,-0.59286 -0.33985,-1.25047 -0.33985,-1.97266c0,-0.72219 0.11358,-1.373 0.33985,-1.95508c0.22636,-0.59283 0.53868,-1.09914 0.9375,-1.51953c0.39884,-0.42048 0.86731,-0.74443 1.40625,-0.9707c0.54974,-0.22627 1.14332,-0.33984 1.77929,-0.33984c0.68984,0 1.28345,0.11836 1.7793,0.35547zM94.08263,171.6864c0.45274,0.151 0.83389,0.33818 1.14648,0.56445c0.32348,0.22637 0.5718,0.47469 0.74414,0.74414c0.18318,0.2588 0.27539,0.50225 0.27539,0.72852c0,0.14027 -0.0329,0.26829 -0.09765,0.38672c-0.06451,0.11867 -0.14997,0.22242 -0.25781,0.30859c-0.09701,0.07534 -0.21059,0.13944 -0.33985,0.19336c-0.11842,0.04308 -0.23679,0.06445 -0.35547,0.06445c-0.12951,0 -0.25267,-0.02616 -0.37109,-0.08008c-0.11843,-0.06475 -0.20584,-0.17329 -0.25977,-0.32422c-0.08617,-0.20482 -0.20454,-0.37748 -0.35547,-0.51757c-0.14019,-0.1401 -0.30119,-0.25367 -0.48437,-0.33985c-0.17242,-0.09701 -0.36156,-0.1659 -0.56641,-0.20898c-0.19404,-0.04309 -0.38801,-0.06446 -0.58203,-0.06446c-0.42038,0 -0.77054,0.07369 -1.05078,0.22461c-0.28026,0.14012 -0.41992,0.3671 -0.41992,0.67969c0,0.25872 0.13482,0.45756 0.4043,0.59766c0.28026,0.14009 0.6236,0.2652 1.0332,0.37304c0.4096,0.09701 0.85189,0.20359 1.32617,0.32227c0.47428,0.10779 0.91657,0.25911 1.32617,0.45313c0.4096,0.18323 0.75005,0.43154 1.01953,0.74414c0.28027,0.30183 0.41993,0.70628 0.41993,1.21289c0,0.53896 -0.10375,1.01227 -0.3086,1.42187c-0.19404,0.39882 -0.46367,0.73927 -0.80859,1.01953c-0.33416,0.26951 -0.73182,0.47319 -1.19531,0.61328c-0.45272,0.1401 -0.93769,0.21094 -1.45508,0.21094c-0.65754,0 -1.23949,-0.09221 -1.7461,-0.27539c-0.5066,-0.19401 -0.93239,-0.43067 -1.27734,-0.71094c-0.34499,-0.28026 -0.60979,-0.58774 -0.79297,-0.92187c-0.17234,-0.34495 -0.25781,-0.6621 -0.25781,-0.95313c0,-0.24791 0.11358,-0.44868 0.33984,-0.59961c0.23716,-0.15092 0.49029,-0.22656 0.75977,-0.22656c0.18321,0 0.34907,0.03794 0.5,0.11328c0.15093,0.07534 0.25946,0.19371 0.32422,0.35547c0.18325,0.45274 0.44805,0.81937 0.79297,1.09961c0.34492,0.28027 0.79689,0.42188 1.35742,0.42188c0.18331,0 0.36565,-0.02137 0.54883,-0.06446c0.18325,-0.05392 0.34623,-0.12476 0.48632,-0.21093c0.15093,-0.09701 0.2693,-0.21059 0.35547,-0.33985c0.09701,-0.14019 0.14453,-0.30119 0.14453,-0.48437c0,-0.29095 -0.13481,-0.51793 -0.40429,-0.67969c-0.26948,-0.16164 -0.60314,-0.29645 -1.00196,-0.4043c-0.39881,-0.11842 -0.83431,-0.232 -1.30859,-0.33984c-0.47428,-0.11858 -0.91171,-0.27474 -1.31055,-0.46875c-0.39881,-0.19402 -0.73247,-0.44717 -1.00195,-0.75977c-0.26948,-0.31259 -0.4043,-0.73159 -0.4043,-1.25976c0,-0.42039 0.08547,-0.81031 0.25782,-1.16602c0.17247,-0.3557 0.41592,-0.65636 0.72851,-0.90429c0.32338,-0.24794 0.70456,-0.44194 1.14649,-0.58204c0.44195,-0.14009 0.93372,-0.21093 1.47265,-0.21093c0.54975,0 1.0512,0.08237 1.50391,0.24414zM112.95763,171.60438c0.18318,0.0969 0.30829,0.25306 0.37305,0.46875l1.77734,5.96679l1.79492,-5.96679c0.06451,-0.21559 0.18287,-0.37175 0.35547,-0.46875c0.18338,-0.10785 0.38222,-0.16211 0.59766,-0.16211c0.12946,0 0.25941,0.02811 0.38867,0.08203c0.14009,0.04308 0.2652,0.10718 0.37305,0.19336c0.11867,0.08617 0.21567,0.19975 0.29101,0.33984c0.07534,0.12949 0.11133,0.28078 0.11133,0.45313c0,0.097 -0.01462,0.194 -0.04688,0.29101l-2.42578,6.95117c-0.11855,0.32338 -0.30284,0.58333 -0.55078,0.77735c-0.24791,0.18318 -0.54373,0.27343 -0.88867,0.27343c-0.3449,0 -0.64074,-0.09025 -0.88867,-0.27343c-0.24781,-0.19402 -0.43211,-0.45397 -0.55078,-0.77735l-2.40821,-6.95117c-0.03225,-0.09701 -0.04883,-0.19401 -0.04883,-0.29101c0,-0.345 0.12511,-0.60979 0.37305,-0.79297c0.24794,-0.18318 0.51078,-0.27539 0.79102,-0.27539c0.21571,0 0.40968,0.05426 0.58203,0.16211zM84.80138,172.00866c0.2371,0.22637 0.35742,0.50084 0.35742,0.82422v6.80859c0,0.32346 -0.12032,0.59796 -0.35742,0.82422c-0.22634,0.22627 -0.50084,0.33789 -0.82422,0.33789c-0.32348,0 -0.59795,-0.11162 -0.82422,-0.33789c-0.22627,-0.23712 -0.33984,-0.51162 -0.33984,-0.82422v-6.80859c0,-0.32348 0.11357,-0.59795 0.33984,-0.82422c0.23715,-0.2371 0.51163,-0.35547 0.82422,-0.35547c0.32345,0 0.59795,0.11837 0.82422,0.35547zM121.66858,178.70203c0.24793,0.23713 0.37304,0.5281 0.37304,0.87305c0,0.34497 -0.12511,0.63594 -0.37304,0.87305c-0.23716,0.2371 -0.52813,0.35742 -0.87305,0.35742c-0.34497,0 -0.63595,-0.12032 -0.87305,-0.35742c-0.2371,-0.23716 -0.35547,-0.52813 -0.35547,-0.87305c0,-0.34497 0.11837,-0.63595 0.35547,-0.87305c0.23713,-0.24794 0.5281,-0.37109 0.87305,-0.37109c0.34497,0 0.63594,0.12315 0.87305,0.37109z" fill="#1eff00" stroke="none" stroke-width="1.01053" stroke-miterlimit="10" stroke-dashoffset="0"/></g></g></svg>