<svg version="1.1" xmlns="http://www.w3.org/2000/svg" xmlns:xlink="http://www.w3.org/1999/xlink" width="48.352" height="72.656" viewBox="0,0,48.352,72.656"><g transform="translate(-215.809,-143.825)"><g data-paper-data="{&quot;isPaintingLayer&quot;:true}" fill="#ffffff" fill-rule="nonzero" stroke="none" stroke-width="0" stroke-linecap="butt" stroke-linejoin="miter" stroke-miterlimit="10" stroke-dasharray="" stroke-dashoffset="0" style="mix-blend-mode: normal"><path d="M259.045,143.825c1.416,0 2.606,0.481 3.571,1.443c1.029,0.963 1.545,2.149 1.545,3.561c0,1.091 -0.194,2.053 -0.581,2.887c-0.386,0.834 -0.868,1.604 -1.447,2.31c-0.579,0.642 -1.253,1.314 -2.025,2.02c-0.708,0.641 -1.449,1.381 -2.221,2.215c-2.316,2.566 -4.794,5.805 -7.432,9.718c-2.638,3.914 -5.082,8.213 -7.334,12.897c-2.187,4.619 -4.022,9.526 -5.501,14.722c-1.48,5.133 -2.219,10.235 -2.219,15.303c0,1.476 -0.547,2.791 -1.641,3.945c-1.094,1.091 -2.413,1.635 -3.957,1.635c-1.544,0 -2.863,-0.544 -3.957,-1.635c-1.094,-1.154 -1.641,-2.469 -1.641,-3.945c0,-2.694 0.387,-5.679 1.159,-8.951c0.836,-3.272 1.961,-6.673 3.377,-10.201c1.415,-3.529 3.056,-7.089 4.922,-10.682c1.865,-3.593 3.827,-7.056 5.886,-10.392c2.059,-3.401 4.15,-6.577 6.274,-9.528c2.187,-2.951 4.312,-5.518 6.371,-7.699h-31.561c-1.287,0 -2.412,-0.481 -3.377,-1.443c-0.965,-0.963 -1.447,-2.086 -1.447,-3.369c0,-1.348 0.482,-2.469 1.447,-3.368c0.965,-0.962 2.09,-1.443 3.377,-1.443z"/></g></g></svg>