<svg version="1.1" xmlns="http://www.w3.org/2000/svg" xmlns:xlink="http://www.w3.org/1999/xlink" width="186.45312" height="186.45312"><g transform="translate(-146.77345,-86.77344)"><g data-paper-data="{&quot;isPaintingLayer&quot;:true}" fill-rule="nonzero" stroke="none" stroke-linecap="butt" stroke-linejoin="miter" stroke-dasharray="" style="mix-blend-mode: normal"><path d="M333.22657,180c-0.00018,51.48753 -41.73903,93.22637 -93.22656,93.22656c-51.48753,-0.00018 -93.22638,-41.73903 -93.22656,-93.22656c0.00018,-51.48753 41.73903,-93.22638 93.22656,-93.22656c51.48753,0.00018 93.22638,41.73903 93.22656,93.22656z" data-paper-data="{&quot;origPos&quot;:null}" id="path10" fill="#252525" stroke-width="0" stroke-miterlimit="4" stroke-dashoffset="17.35"/><path d="M295.27149,156.42773c0.70119,0.70114 1.05079,1.56847 1.05079,2.5996v29.69533c0,1.03113 -0.34962,1.89842 -1.05079,2.5996c-0.70116,0.70118 -1.56847,1.05078 -2.5996,1.05078c-0.98989,0 -1.85525,-0.34961 -2.59766,-1.05078c-0.70117,-0.70118 -1.05274,-1.56847 -1.05274,-2.5996v-29.69533c0,-1.03113 0.35157,-1.89846 1.05274,-2.5996c0.74241,-0.70118 1.60777,-1.05078 2.59766,-1.05078c1.03113,0 1.89844,0.34961 2.5996,1.05078zM206.63087,169.17385c2.1035,0.82488 3.91729,2.02054 5.44336,3.58787c1.52607,1.56733 2.72369,3.4854 3.58984,5.75391c0.86615,2.26847 1.29883,4.86652 1.29883,7.79494c0,2.92842 -0.43268,5.52643 -1.29883,7.7949c-0.86615,2.26851 -2.06377,4.18658 -3.58984,5.75391c-1.52607,1.52606 -3.33986,2.70244 -5.44336,3.52736c-2.06226,0.82488 -4.31067,1.23632 -6.74414,1.23632c-2.43347,0 -4.70119,-0.41144 -6.80469,-1.23632c-2.06226,-0.82492 -3.85674,-2.0013 -5.38281,-3.52736c-1.52607,-1.56733 -2.72174,-3.4854 -3.58789,-5.75391c-0.86615,-2.26847 -1.30078,-4.86648 -1.30078,-7.7949c0,-2.92842 0.43463,-5.52646 1.30078,-7.79494c0.86615,-2.26851 2.06182,-4.18658 3.58789,-5.75391c1.52607,-1.56733 3.32055,-2.76299 5.38281,-3.58787c2.1035,-0.82492 4.37122,-1.23829 6.80469,-1.23829c2.43347,0 4.68188,0.41337 6.74414,1.23829zM233.83985,167.93575c2.35098,0 4.33089,0.24722 5.93946,0.74219c1.60856,0.49493 2.92785,1.13431 3.95898,1.91796c0.41245,0.32995 0.84513,0.74332 1.29883,1.23829c0.4537,0.45369 0.88833,0.96945 1.30078,1.54688c0.41247,0.53616 0.74084,1.07119 0.98828,1.6074c0.28873,0.5362 0.4336,1.0114 0.4336,1.42382c0,0.94866 -0.37087,1.71167 -1.11329,2.28907c-0.74241,0.53628 -1.54596,0.80273 -2.4121,0.80273c-0.53619,0 -1.03264,-0.12359 -1.48633,-0.37115c-0.45369,-0.28876 -0.80329,-0.72144 -1.05078,-1.29883c-0.32996,-0.78369 -0.68152,-1.46358 -1.05274,-2.04102c-0.37121,-0.57744 -0.8657,-1.05267 -1.48437,-1.42382c-0.57743,-0.37115 -1.29987,-0.63757 -2.16602,-0.80273c-0.8249,-0.20636 -1.87569,-0.31068 -3.1543,-0.31068c-2.51595,0 -4.35099,0.4134 -5.50586,1.23829c-1.11362,0.78365 -1.66992,1.77264 -1.66992,2.96874c0,0.90739 0.32836,1.65109 0.98828,2.22852c0.65993,0.5362 1.52724,1.00944 2.59961,1.42186c1.11362,0.37126 2.3711,0.70152 3.77344,0.99027c1.40234,0.24745 2.82595,0.55657 4.26953,0.92772c1.44358,0.32995 2.86524,0.74332 4.26758,1.23829c1.40234,0.45369 2.64052,1.09304 3.71289,1.91796c1.11362,0.78365 2.00023,1.75136 2.66016,2.90623c0.65994,1.15487 0.99023,2.59975 0.99023,4.33206c0,2.06226 -0.41338,3.81422 -1.23828,5.25781c-0.8249,1.40232 -1.91821,2.55742 -3.2793,3.46484c-1.36109,0.86612 -2.94888,1.5055 -4.76367,1.91796c-1.81479,0.37107 -3.71164,0.55665 -5.69141,0.55665c-2.80467,0 -5.1767,-0.41144 -7.11523,-1.23632c-1.89728,-0.86615 -3.46381,-1.85711 -4.70117,-2.97071c-1.19611,-1.15487 -2.06147,-2.28873 -2.59766,-3.40237c-0.53618,-1.1136 -0.80468,-1.95965 -0.80468,-2.53708c-0.00001,-0.94866 0.33031,-1.71163 0.99023,-2.28907c0.70117,-0.61856 1.4429,-0.92772 2.22656,-0.92772c0.49494,0 0.97013,0.14483 1.42383,0.43359c0.45371,0.28872 0.80333,0.74264 1.05078,1.36131c0.70117,1.77354 1.81573,3.25701 3.3418,4.45311c1.56732,1.19611 3.79448,1.79494 6.68164,1.79494c1.31985,0 2.4537,-0.14483 3.40234,-0.43359c0.94864,-0.32995 1.71163,-0.74139 2.28906,-1.23632c0.61868,-0.5362 1.07261,-1.11375 1.36133,-1.73242c0.28874,-0.65994 0.43164,-1.34185 0.43164,-2.04299c0,-1.40236 -0.5563,-2.45314 -1.66992,-3.15428c-1.11362,-0.70118 -2.49472,-1.25749 -4.14453,-1.66995c-1.64981,-0.41242 -3.46554,-0.78527 -5.44531,-1.11523c-1.93853,-0.37119 -3.73301,-0.88498 -5.38281,-1.54492c-1.64981,-0.70114 -3.03092,-1.67082 -4.14454,-2.9082c-1.11362,-1.27861 -1.66992,-3.0325 -1.66992,-5.25978c0,-3.21713 1.17442,-5.73207 3.52539,-7.54688c2.35098,-1.81474 5.63088,-2.72262 9.83789,-2.72262zM257.23047,168.36907c0.90739,0 1.67038,0.33029 2.28906,0.99024c0.61869,0.61867 0.92774,1.38168 0.92774,2.28907v21.52928c0,0.94866 0.20668,1.77347 0.61914,2.47461c0.45369,0.70118 1.00999,1.29997 1.66992,1.79494c0.70117,0.45369 1.46416,0.80323 2.28906,1.05078c0.86615,0.24756 1.71221,0.37115 2.53711,0.37115c1.36109,0 2.59732,-0.22598 3.71094,-0.67971c1.11362,-0.49493 2.04274,-1.15551 2.78515,-1.98043c0.78366,-0.82492 1.38052,-1.7946 1.79297,-2.90823c0.41244,-1.15483 0.61914,-2.39104 0.61914,-3.71093v-17.94138c0,-0.90739 0.30906,-1.6704 0.92774,-2.28907c0.61868,-0.65991 1.38167,-0.99024 2.28906,-0.99024c0.90739,0 1.67038,0.33029 2.28906,0.99024c0.65995,0.61867 0.99024,1.38168 0.99024,2.28907v29.26367c0,0.90739 -0.33031,1.68968 -0.99024,2.34958c-0.61868,0.61856 -1.38167,0.92772 -2.28906,0.92772c-0.90739,0 -1.67038,-0.30901 -2.28906,-0.92772c-0.61869,-0.65991 -0.92774,-1.44219 -0.92774,-2.34958v-1.11526c-0.41245,0.37123 -0.92819,0.82515 -1.54687,1.36135c-0.57743,0.49493 -1.29987,0.97013 -2.16602,1.42382c-0.86615,0.45369 -1.87638,0.84582 -3.03125,1.17577c-1.11362,0.28876 -2.41165,0.43162 -3.89648,0.43162c-1.52607,0 -3.0115,-0.20474 -4.45508,-0.61716c-1.40234,-0.45369 -2.65982,-1.11432 -3.77344,-1.98047c-1.11362,-0.86615 -2.00023,-1.93822 -2.66015,-3.21679c-0.65995,-1.27861 -0.99024,-2.76404 -0.99024,-4.45508v-22.27147c0,-0.90739 0.30906,-1.6704 0.92774,-2.28907c0.65992,-0.65991 1.44416,-0.99024 2.35156,-0.99024zM195.6172,174.06055c-1.2786,0.49493 -2.3912,1.27922 -3.33985,2.35155c-0.90739,1.03113 -1.62983,2.37169 -2.16601,4.02149c-0.53619,1.6498 -0.80469,3.60847 -0.80469,5.87698c0,2.26847 0.2685,4.22714 0.80469,5.87694c0.53618,1.60857 1.25862,2.94913 2.16601,4.02149c0.94865,1.03113 2.06125,1.81534 3.33985,2.35155c1.31984,0.495 2.74346,0.74219 4.26953,0.74219c1.52607,0 2.92843,-0.24726 4.20703,-0.74219c1.31985,-0.5362 2.4344,-1.32042 3.3418,-2.35155c0.94864,-1.07237 1.69037,-2.41293 2.22656,-4.02149c0.53619,-1.6498 0.80469,-3.60847 0.80469,-5.87694c0,-2.26851 -0.2685,-4.22717 -0.80469,-5.87698c-0.53619,-1.6498 -1.27792,-2.99036 -2.22656,-4.02149c-0.9074,-1.07233 -2.02195,-1.85662 -3.3418,-2.35155c-1.2786,-0.53635 -2.68096,-0.8047 -4.20703,-0.8047c-1.52607,0 -2.94969,0.2685 -4.26953,0.8047zM295.82813,196.58007c0.9074,0.86615 1.36133,1.9189 1.36133,3.15625c0,1.19611 -0.45393,2.24689 -1.36133,3.15432c-0.86614,0.86612 -1.91889,1.2988 -3.15624,1.2988c-1.19611,0 -2.24691,-0.43268 -3.1543,-1.2988c-0.86615,-0.90743 -1.30078,-1.95821 -1.30078,-3.15432c0,-1.23734 0.43463,-2.29009 1.30078,-3.15625c0.90739,-0.90739 1.95819,-1.36131 3.1543,-1.36131c1.23735,0 2.2901,0.45392 3.15624,1.36131z" data-paper-data="{&quot;origPos&quot;:null}" id="path4534" fill="#1eff00" stroke-width="1.02307" stroke-miterlimit="10" stroke-dashoffset="0"/></g></g></svg>