<svg version="1.1" xmlns="http://www.w3.org/2000/svg" xmlns:xlink="http://www.w3.org/1999/xlink" width="372.21489" height="68.64262" viewBox="0,0,372.21489,68.64262"><g transform="translate(-53.89255,-145.67869)"><g data-paper-data="{&quot;isPaintingLayer&quot;:true}" fill-rule="nonzero" stroke-linecap="butt" stroke-linejoin="miter" stroke-dasharray="" style="mix-blend-mode: normal"><path d="M425.00973,146.42869c0.19313,0 0.34772,0.15458 0.34772,0.34772v66.4453c0,0.19313 -0.15458,0.34961 -0.34772,0.34961h-370.01757c-0.19313,0 -0.34961,-0.15647 -0.34961,-0.34961v-66.4453c0,-0.19313 0.15647,-0.34772 0.34961,-0.34772z" fill="#1e1e1e" stroke="#1eff00" stroke-width="1.5" stroke-miterlimit="4" stroke-dashoffset="17.35"/><path d="M68.2461,152.9082c0.63597,0.28027 1.18009,0.62072 1.63281,1.01953c0.46351,0.38806 0.82045,0.80222 1.06836,1.24415c0.2587,0.44195 0.38672,0.82506 0.38672,1.14843c0,0.29115 -0.10668,0.52297 -0.32226,0.69531c-0.21559,0.16177 -0.4474,0.24219 -0.69531,0.24219c-0.18324,0 -0.35589,-0.04273 -0.51758,-0.1289c-0.16169,-0.09691 -0.27516,-0.25307 -0.33984,-0.46875c-0.097,-0.30181 -0.23182,-0.59765 -0.4043,-0.88868c-0.17246,-0.29107 -0.39263,-0.55586 -0.66211,-0.79296c-0.26948,-0.23718 -0.58859,-0.42632 -0.95508,-0.56641c-0.35571,-0.15093 -0.76986,-0.22656 -1.24414,-0.22656c-0.53895,0 -1.04525,0.11836 -1.51953,0.35547c-0.47428,0.22636 -0.89038,0.55516 -1.24609,0.98632c-0.34493,0.42039 -0.61942,0.9335 -0.82422,1.53711c-0.2048,0.60364 -0.30664,1.2758 -0.30664,2.01953c0,0.74377 0.10184,1.41785 0.30664,2.02149c0.2048,0.60361 0.47929,1.12156 0.82422,1.55273c0.35571,0.4312 0.77181,0.76485 1.24609,1.00196c0.47428,0.22626 0.98058,0.33984 1.51953,0.33984c0.47428,0 0.88843,-0.07084 1.24414,-0.21094c0.36649,-0.15095 0.6856,-0.34493 0.95508,-0.58203c0.26947,-0.23715 0.48964,-0.49999 0.66211,-0.79101c0.17247,-0.30181 0.30729,-0.60445 0.4043,-0.90625c0.06468,-0.21566 0.17816,-0.36696 0.33984,-0.45313c0.1617,-0.09701 0.33435,-0.14453 0.51758,-0.14453c0.24791,0 0.47973,0.08042 0.69531,0.24219c0.21558,0.16169 0.32226,0.38866 0.32226,0.67968c0,0.23716 -0.097,0.57079 -0.29101,1.00196c-0.19402,0.43114 -0.49469,0.8618 -0.9043,1.29297c-0.4096,0.42038 -0.94404,0.78701 -1.60156,1.09961c-0.64674,0.31259 -1.42753,0.46875 -2.34375,0.46875c-0.97012,0 -1.82171,-0.18234 -2.55469,-0.54883c-0.7222,-0.36649 -1.32549,-0.85826 -1.81055,-1.47266c-0.47428,-0.6144 -0.83607,-1.31469 -1.08398,-2.10156c-0.23713,-0.79766 -0.35547,-1.6279 -0.35547,-2.49024c0,-0.85152 0.11834,-1.675 0.35547,-2.47265c0.24792,-0.79766 0.60971,-1.49795 1.08398,-2.10156c0.48506,-0.6144 1.08835,-1.10617 1.81055,-1.47266c0.73298,-0.36649 1.58457,-0.54883 2.55469,-0.54883c0.74376,0 1.42755,0.13968 2.05273,0.41992zM73.93164,152.99023c0.19401,0.18326 0.29101,0.40826 0.29101,0.67774c0,0.25869 -0.097,0.48567 -0.29101,0.67969c-0.18324,0.18318 -0.40341,0.27539 -0.66211,0.27539c-0.26948,0 -0.5013,-0.09221 -0.69531,-0.27539c-0.18323,-0.19402 -0.27539,-0.421 -0.27539,-0.67969c0,-0.26956 0.09216,-0.49455 0.27539,-0.67774c0.19402,-0.18318 0.42583,-0.27539 0.69531,-0.27539c0.25871,0 0.47888,0.09221 0.66211,0.27539zM109.51758,152.71484c0.59285,0 1.11564,0.08547 1.56836,0.25782c0.4635,0.17247 0.85147,0.40913 1.16406,0.71093c0.31259,0.29105 0.54925,0.64314 0.71094,1.05274c0.16169,0.39881 0.24219,0.82947 0.24218,1.29297c0,0.40962 -0.05915,0.7646 -0.17773,1.0664c-0.10778,0.30191 -0.25229,0.5667 -0.43555,0.79297c-0.17245,0.21561 -0.37128,0.39311 -0.59765,0.53321c-0.21557,0.12925 -0.4377,0.22625 -0.66407,0.29101c0.45272,0.15095 0.831,0.34493 1.13282,0.58203c0.3018,0.22635 0.5433,0.4795 0.72656,0.75977c0.18323,0.28026 0.31321,0.58287 0.38867,0.90625c0.07547,0.32335 0.11328,0.64537 0.11328,0.96875c0,0.52817 -0.10863,1.00828 -0.32422,1.43945c-0.21558,0.43117 -0.5114,0.80264 -0.88867,1.11524c-0.36648,0.31269 -0.80393,0.55616 -1.31054,0.72851c-0.49584,0.1726 -1.02832,0.25781 -1.59961,0.25781h-4.72266c-0.16169,0 -0.31785,-0.02615 -0.46875,-0.08008c-0.1509,-0.0645 -0.28572,-0.14996 -0.4043,-0.25781c-0.11855,-0.10769 -0.21555,-0.24253 -0.29101,-0.40429c-0.07544,-0.16172 -0.11133,-0.34114 -0.11133,-0.53516v-10.2168c0,-0.34492 0.12318,-0.64269 0.37109,-0.89062c0.24792,-0.24794 0.54859,-0.3711 0.9043,-0.3711zM139.57031,152.95703c0.16169,0.16171 0.24219,0.36056 0.24219,0.59766v6.17773l3.96094,-3.44531c0.15089,-0.11868 0.31869,-0.17773 0.50195,-0.17773c0.17247,0 0.34027,0.06605 0.50195,0.19531c0.16169,0.12938 0.24219,0.31172 0.24219,0.54883c0,0.21555 -0.08729,0.39985 -0.25976,0.55078l-2.47266,2.13281l3.26562,4.625c0.09701,0.15103 0.14454,0.31203 0.14454,0.48437c0,0.15086 -0.02619,0.28083 -0.08008,0.38868c-0.0539,0.097 -0.12472,0.17743 -0.21094,0.24218c-0.08625,0.06476 -0.17643,0.11424 -0.27344,0.14649c-0.09701,0.03225 -0.18916,0.04687 -0.27539,0.04687c-0.14012,0 -0.27009,-0.02615 -0.38867,-0.08008c-0.11858,-0.05366 -0.22042,-0.13913 -0.30664,-0.25781l-3.10352,-4.49609l-1.24609,1.06836v2.91015c0,0.23726 -0.0805,0.44094 -0.24219,0.61329c-0.16167,0.16176 -0.3605,0.24414 -0.59765,0.24414c-0.23714,0 -0.44277,-0.08238 -0.61524,-0.24414c-0.16169,-0.1725 -0.24219,-0.37618 -0.24219,-0.61329v-11.06054c0,-0.23705 0.0805,-0.43589 0.24219,-0.59766c0.17248,-0.16176 0.37811,-0.24219 0.61524,-0.24219c0.23713,0 0.43596,0.08043 0.59765,0.24219zM105.47461,158.01758h3.80078c0.26948,0 0.53232,-0.04273 0.79102,-0.12891c0.2587,-0.08617 0.48567,-0.20454 0.67968,-0.35547c0.19402,-0.16158 0.35018,-0.35072 0.46875,-0.5664c0.11858,-0.22635 0.17774,-0.47466 0.17774,-0.74414c0,-0.52818 -0.16585,-0.95881 -0.5,-1.29297c-0.33415,-0.34492 -0.81912,-0.51758 -1.45508,-0.51758h-3.96289zM95.54102,156.32031c0.54973,0.21559 1.02305,0.5279 1.42187,0.9375c0.39881,0.4096 0.71113,0.91105 0.9375,1.50391c0.22637,0.59283 0.33984,1.27178 0.33984,2.03711c0,0.7653 -0.11347,1.44425 -0.33984,2.03711c-0.22636,0.59283 -0.53868,1.09428 -0.9375,1.5039c-0.39883,0.39872 -0.87214,0.70619 -1.42187,0.92188c-0.53895,0.21568 -1.12771,0.32226 -1.76367,0.32226c-0.63596,0 -1.22761,-0.10658 -1.77734,-0.32226c-0.53895,-0.21559 -1.00938,-0.52306 -1.4082,-0.92188c-0.39882,-0.40962 -0.71113,-0.91107 -0.9375,-1.5039c-0.22637,-0.59286 -0.33984,-1.27181 -0.33984,-2.03711c0,-0.76533 0.11347,-1.44428 0.33984,-2.03711c0.22636,-0.59286 0.53868,-1.09431 0.9375,-1.50391c0.39883,-0.4095 0.86925,-0.72181 1.4082,-0.9375c0.54973,-0.21568 1.14138,-0.32422 1.77734,-0.32422c0.63597,0 1.22472,0.10854 1.76367,0.32422zM125.55664,156.27148c0.53895,0.18326 1.00258,0.45289 1.39063,0.8086c0.39881,0.34492 0.71113,0.77071 0.9375,1.27734c0.22636,0.50661 0.33984,1.08372 0.33984,1.73047c0,0.39877 -0.097,0.69945 -0.29102,0.9043c-0.19402,0.20485 -0.42099,0.30859 -0.67968,0.30859h-5.91797c0,0.02142 0.00479,0.11363 0.01562,0.27539c0.02157,0.15081 0.05939,0.33314 0.11328,0.54883c0.06468,0.21556 0.15198,0.44738 0.25977,0.69531c0.11858,0.23708 0.27473,0.45726 0.46875,0.66211c0.19402,0.20485 0.43068,0.37749 0.71094,0.51758c0.29103,0.12926 0.64118,0.19531 1.05078,0.19531c0.33416,0 0.62029,-0.02811 0.85742,-0.08203c0.23715,-0.05392 0.44763,-0.13434 0.63086,-0.24219c0.18325,-0.10771 0.35105,-0.24253 0.50195,-0.40429c0.15091,-0.17258 0.30027,-0.37139 0.45117,-0.59766c0.08623,-0.12926 0.18323,-0.22147 0.29102,-0.27539c0.10779,-0.05392 0.22127,-0.08008 0.33984,-0.08008c0.19402,0 0.37152,0.06889 0.53321,0.20899c0.16169,0.14002 0.24414,0.31751 0.24414,0.5332c0,0.12936 -0.07082,0.32333 -0.21094,0.58203c-0.14013,0.2587 -0.36709,0.51865 -0.67969,0.77734c-0.30181,0.2587 -0.69463,0.48372 -1.17968,0.67774c-0.48506,0.19401 -1.07866,0.29101 -1.7793,0.29101c-0.71142,0 -1.3477,-0.12802 -1.9082,-0.38671c-0.56052,-0.2587 -1.03383,-0.60399 -1.42188,-1.03516c-0.37727,-0.44195 -0.66825,-0.95504 -0.87305,-1.53711c-0.19401,-0.58207 -0.29101,-1.19023 -0.29101,-1.82617c0,-0.65754 0.10184,-1.2773 0.30664,-1.85938c0.2048,-0.59283 0.49578,-1.10398 0.87304,-1.53515c0.38805,-0.43115 0.85168,-0.7716 1.39063,-1.01953c0.53895,-0.2587 1.14225,-0.38868 1.81055,-0.38868c0.6144,0 1.18667,0.09221 1.71484,0.27539zM135.75586,156.66016c0.65752,0.43116 0.98633,1.07227 0.98633,1.92382v6.03125c0,0.23726 -0.0805,0.44094 -0.24219,0.61329c-0.16167,0.16176 -0.36246,0.24414 -0.59961,0.24414c-0.23713,0 -0.44081,-0.08238 -0.61328,-0.24414c-0.16169,-0.1725 -0.24219,-0.37618 -0.24219,-0.61329v-0.25976c-0.4096,0.44193 -0.87807,0.73969 -1.40625,0.89062c-0.51739,0.15093 -1.06832,0.22461 -1.65039,0.22461c-0.36649,0 -0.73797,-0.04752 -1.11523,-0.14453c-0.36649,-0.10769 -0.70014,-0.26869 -1.00196,-0.48437c-0.29102,-0.21559 -0.52963,-0.48522 -0.71289,-0.8086c-0.18323,-0.32335 -0.27343,-0.71132 -0.27343,-1.16406c0,-0.51739 0.10184,-0.95 0.30664,-1.29492c0.2048,-0.35581 0.47929,-0.64678 0.82421,-0.87305c0.34493,-0.22627 0.73775,-0.3989 1.17969,-0.51758c0.45272,-0.11842 0.92799,-0.20389 1.42383,-0.25781c0.57129,-0.06475 1.01842,-0.1356 1.3418,-0.21094c0.32337,-0.08617 0.56682,-0.18317 0.72851,-0.29101c0.16169,-0.10784 0.25869,-0.231 0.29102,-0.3711c0.04311,-0.13999 0.06445,-0.29615 0.06445,-0.46875c0,-0.20477 -0.05916,-0.38227 -0.17773,-0.5332c-0.11858,-0.15093 -0.2699,-0.27604 -0.45313,-0.37305c-0.18323,-0.097 -0.38886,-0.16589 -0.61523,-0.20898c-0.22636,-0.05392 -0.44653,-0.08203 -0.66211,-0.08203c-0.38804,0 -0.70035,0.0329 -0.9375,0.09766c-0.23714,0.0645 -0.43113,0.14996 -0.58203,0.25781c-0.15091,0.10776 -0.27604,0.23774 -0.37305,0.38867c-0.08625,0.15083 -0.16675,0.30699 -0.24219,0.46875c-0.06465,0.12926 -0.15681,0.22626 -0.27539,0.29101c-0.10779,0.05393 -0.21931,0.08204 -0.33789,0.08204c-0.21557,0 -0.41635,-0.07085 -0.59961,-0.21094c-0.18323,-0.14012 -0.27344,-0.3341 -0.27344,-0.58203c0.00001,-0.09701 0.02619,-0.21538 0.08008,-0.35547c0.09701,-0.22627 0.22699,-0.44838 0.38868,-0.66406c0.16168,-0.22647 0.377,-0.42531 0.64648,-0.59766c0.28025,-0.17247 0.61875,-0.30729 1.01758,-0.4043c0.4096,-0.10784 0.90621,-0.16211 1.48828,-0.16211c1.09946,0 1.9724,0.22214 2.61914,0.66407zM73.86719,156.36914c0.16169,0.16171 0.24219,0.36055 0.24219,0.59766v7.64843c0,0.23726 -0.0805,0.44094 -0.24219,0.61329c-0.1617,0.16176 -0.36053,0.24414 -0.59766,0.24414c-0.23713,0 -0.44276,-0.08238 -0.61523,-0.24414c-0.16169,-0.1725 -0.24219,-0.37618 -0.24219,-0.61329v-7.64843c0,-0.23706 0.0805,-0.4359 0.24219,-0.59766c0.17248,-0.17235 0.37811,-0.25976 0.61523,-0.25976c0.23713,0 0.43597,0.08741 0.59766,0.25976zM79.66406,156.36914c0.17247,0.16171 0.25977,0.36055 0.25977,0.59766c0,0.22624 -0.08729,0.42505 -0.25977,0.59765c-0.1617,0.16177 -0.36053,0.24414 -0.59766,0.24414c-0.4096,0 -0.74326,0.097 -1.00195,0.29102c-0.2587,0.18326 -0.46433,0.40341 -0.61523,0.66211c-0.14012,0.25869 -0.23712,0.52835 -0.29102,0.80859c-0.0539,0.28032 -0.08008,0.51213 -0.08008,0.69531v4.34961c0,0.23726 -0.0805,0.44094 -0.24219,0.61329c-0.1617,0.16176 -0.36248,0.24414 -0.59961,0.24414c-0.23713,0 -0.44081,-0.08238 -0.61328,-0.24414c-0.16169,-0.1725 -0.24219,-0.37618 -0.24219,-0.61329v-7.64843c0,-0.23706 0.0805,-0.4359 0.24219,-0.59766c0.17248,-0.17235 0.37615,-0.25781 0.61328,-0.25781c0.23713,0 0.43792,0.08546 0.59961,0.25781c0.16169,0.16171 0.24219,0.36055 0.24219,0.59766v0.30859c0.04311,-0.04334 0.12361,-0.13051 0.24219,-0.25977c0.11856,-0.12943 0.26503,-0.25941 0.4375,-0.38867c0.18324,-0.14009 0.38207,-0.25846 0.59766,-0.35547c0.22637,-0.10784 0.46302,-0.1621 0.71094,-0.1621c0.23714,0 0.43597,0.08741 0.59766,0.25976zM82.23633,156.36914c0.16169,0.16171 0.24219,0.36055 0.24219,0.59766v0.29101c0.10779,-0.09701 0.23581,-0.21058 0.38672,-0.33984c0.16168,-0.14002 0.35566,-0.26804 0.58203,-0.38672c0.22636,-0.11868 0.48631,-0.21568 0.77734,-0.29102c0.30181,-0.08617 0.64711,-0.13085 1.03516,-0.13085c0.39882,0 0.78,0.05905 1.14648,0.17773c0.37727,0.10789 0.71287,0.27568 1.00391,0.50195c0.29103,0.22635 0.52284,0.50764 0.69531,0.8418c0.17247,0.33416 0.25781,0.72213 0.25781,1.16406v5.82031c0,0.23726 -0.08534,0.44094 -0.25781,0.61329c-0.1617,0.16176 -0.36248,0.24414 -0.59961,0.24414c-0.23714,0 -0.43597,-0.08238 -0.59766,-0.24414c-0.16169,-0.1725 -0.24219,-0.37618 -0.24219,-0.61329v-5.62695c0,-0.2372 -0.05916,-0.44768 -0.17773,-0.63086c-0.1078,-0.19391 -0.25427,-0.35007 -0.4375,-0.46875c-0.17246,-0.12926 -0.37129,-0.22626 -0.59766,-0.29101c-0.21558,-0.06476 -0.4309,-0.09766 -0.64648,-0.09766c-0.35571,0 -0.67967,0.0641 -0.9707,0.19336c-0.29104,0.11847 -0.53934,0.28627 -0.74414,0.50195c-0.19402,0.21559 -0.34338,0.47359 -0.45117,0.77539c-0.10779,0.29103 -0.16211,0.61014 -0.16211,0.95508v4.68945c0,0.23726 -0.0805,0.44094 -0.24219,0.61329c-0.1617,0.16176 -0.36248,0.24218 -0.59961,0.24218c-0.23713,0 -0.44081,-0.08042 -0.61328,-0.24218c-0.16169,-0.1725 -0.24219,-0.37618 -0.24219,-0.61329v-7.64843c0,-0.23706 0.0805,-0.4359 0.24219,-0.59766c0.17245,-0.17235 0.37613,-0.25976 0.61328,-0.25976c0.23713,0 0.43792,0.08741 0.59961,0.25976zM119.04492,156.36914c0.17247,0.16171 0.25781,0.36055 0.25781,0.59766c0,0.22624 -0.08534,0.42505 -0.25781,0.59765c-0.16167,0.16177 -0.36245,0.24414 -0.59961,0.24414c-0.4096,0 -0.74325,0.097 -1.00195,0.29102c-0.2587,0.18326 -0.46238,0.40341 -0.61328,0.66211c-0.14012,0.25869 -0.23712,0.52835 -0.29102,0.80859c-0.05389,0.28032 -0.08203,0.51213 -0.08203,0.69531v4.34961c0,0.23726 -0.0805,0.44094 -0.24219,0.61329c-0.16169,0.16176 -0.36052,0.24414 -0.59765,0.24414c-0.23714,0 -0.44276,-0.08238 -0.61524,-0.24414c-0.16169,-0.1725 -0.24218,-0.37618 -0.24218,-0.61329v-7.64843c0,-0.23706 0.08049,-0.4359 0.24218,-0.59766c0.17246,-0.17235 0.37808,-0.25781 0.61524,-0.25781c0.23713,0 0.43597,0.08546 0.59765,0.25781c0.16169,0.16171 0.24219,0.36055 0.24219,0.59766v0.30859c0.04311,-0.04334 0.12361,-0.13051 0.24219,-0.25977c0.11856,-0.12943 0.26503,-0.25941 0.4375,-0.38867c0.18324,-0.14009 0.38207,-0.25846 0.59766,-0.35547c0.22636,-0.10784 0.46302,-0.1621 0.71093,-0.1621c0.23714,0 0.43792,0.08741 0.59961,0.25976zM92.66211,157.59766c-0.33416,0.12936 -0.62513,0.33497 -0.87305,0.61523c-0.23715,0.26946 -0.42629,0.61961 -0.56641,1.05078c-0.14012,0.43117 -0.20898,0.9423 -0.20898,1.53516c0,0.59283 0.06886,1.10399 0.20898,1.53515c0.14011,0.42039 0.32925,0.77247 0.56641,1.05274c0.24792,0.2695 0.53889,0.47319 0.87305,0.61328c0.34493,0.12926 0.71641,0.19336 1.11523,0.19336c0.39883,0 0.76546,-0.0641 1.09961,-0.19336c0.34492,-0.14012 0.63589,-0.3438 0.87305,-0.61328c0.24793,-0.28027 0.44191,-0.63235 0.58203,-1.05274c0.14012,-0.43116 0.21094,-0.94232 0.21094,-1.53515c0,-0.59286 -0.07082,-1.10399 -0.21094,-1.53516c-0.14013,-0.43117 -0.33412,-0.78132 -0.58203,-1.05078c-0.23714,-0.28036 -0.52812,-0.48597 -0.87305,-0.61523c-0.33415,-0.1401 -0.70078,-0.21094 -1.09961,-0.21094c-0.39882,0 -0.7703,0.07084 -1.11523,0.21094zM122.85547,157.56445c-0.28027,0.11863 -0.51692,0.26995 -0.71094,0.45313c-0.18324,0.17237 -0.32775,0.36634 -0.43555,0.58203c-0.10779,0.21563 -0.18829,0.41447 -0.24218,0.59766c-0.05385,0.18328 -0.08682,0.34623 -0.09766,0.48632c-0.01083,0.12826 -0.01562,0.20389 -0.01562,0.22657h5.23828c0,-0.33416 -0.05432,-0.65327 -0.16211,-0.95508c-0.10778,-0.30191 -0.27559,-0.56475 -0.50196,-0.79102c-0.21558,-0.23718 -0.49491,-0.42631 -0.83984,-0.5664c-0.34493,-0.1401 -0.74939,-0.21094 -1.21289,-0.21094c-0.39883,0 -0.73928,0.05906 -1.01953,0.17773zM105.47461,163.77344h3.94531c0.87311,0 1.4764,-0.17264 1.81055,-0.51758c0.34493,-0.3557 0.51758,-0.83388 0.51758,-1.4375c0,-0.70065 -0.23666,-1.23992 -0.71094,-1.61719c-0.4635,-0.38803 -1.08328,-0.58203 -1.85938,-0.58203h-3.70312zM134.64062,160.94531c-0.2048,0.06476 -0.44826,0.11228 -0.72851,0.14453c-0.26948,0.03226 -0.55561,0.0702 -0.85742,0.11328c-0.29104,0.04309 -0.57521,0.09736 -0.85547,0.16211c-0.28025,0.06476 -0.5334,0.16176 -0.75977,0.29102c-0.22637,0.11858 -0.41066,0.27473 -0.55078,0.46875c-0.12936,0.19402 -0.19336,0.44233 -0.19336,0.74414c0,0.23708 0.04753,0.43589 0.14453,0.59766c0.10779,0.15093 0.24261,0.27604 0.4043,0.37304c0.16169,0.08618 0.34598,0.15028 0.55078,0.19336c0.2048,0.03226 0.40848,0.04883 0.61328,0.04883c0.3126,0 0.62491,-0.0329 0.9375,-0.09765c0.3126,-0.07534 0.59389,-0.19371 0.8418,-0.35547c0.2587,-0.16169 0.46433,-0.37701 0.61523,-0.64649c0.16169,-0.26948 0.24219,-0.60509 0.24219,-1.0039v-1.14649zM67.03321,167.38477c0.4635,0 0.90579,0.08042 1.32617,0.24218c0.43116,0.15091 0.80944,0.36622 1.13281,0.64649c0.32338,0.26948 0.58137,0.59345 0.77539,0.9707c0.19402,0.37727 0.29102,0.78172 0.29102,1.21289c0,0.45271 -0.064,0.83585 -0.19336,1.14844c-0.11858,0.31254 -0.27473,0.57054 -0.46875,0.77539c-0.19403,0.2049 -0.41615,0.37074 -0.66406,0.5c-0.24793,0.11868 -0.49623,0.22721 -0.74414,0.32422c0.19402,0.06475 0.42583,0.17329 0.69531,0.32422c0.28025,0.14012 0.54989,0.33896 0.80859,0.59765c0.25868,0.2587 0.4808,0.59236 0.66406,1.00196c0.18323,0.39884 0.27344,0.89058 0.27344,1.47265c0,0.52815 -0.10668,1.00633 -0.32227,1.4375c-0.21558,0.43117 -0.50171,0.8046 -0.85742,1.11719c-0.35571,0.31247 -0.76986,0.55396 -1.24414,0.72656c-0.4635,0.17235 -0.95526,0.25977 -1.47266,0.25977l-4.94726,-0.00196c-0.15091,0 -0.30222,-0.02136 -0.45313,-0.06445c-0.1509,-0.05392 -0.29056,-0.12955 -0.41992,-0.22656c-0.11858,-0.10772 -0.21558,-0.24253 -0.29102,-0.4043c-0.07546,-0.16176 -0.11328,-0.35576 -0.11328,-0.58203v-10.21875c0,-0.09701 0.0165,-0.21537 0.04883,-0.35547c0.03235,-0.15098 0.09151,-0.29066 0.17773,-0.41992c0.09701,-0.14009 0.22698,-0.25367 0.38867,-0.33984c0.17246,-0.09701 0.38779,-0.14453 0.64648,-0.14453zM63.28321,172.47852h3.31445c0.20479,0 0.39877,-0.03795 0.58203,-0.11329c0.18323,-0.07559 0.33939,-0.17933 0.46875,-0.30859c0.14012,-0.14017 0.24875,-0.30119 0.32422,-0.48437c0.07546,-0.18321 0.11133,-0.37719 0.11133,-0.58204c0,-0.20487 -0.03586,-0.39885 -0.11133,-0.58203c-0.07546,-0.18333 -0.1841,-0.33949 -0.32422,-0.46875c-0.12936,-0.14009 -0.28552,-0.24888 -0.46875,-0.32422c-0.18325,-0.07559 -0.37723,-0.11328 -0.58203,-0.11328h-3.31445zM78.99805,171.10352c0.2587,0.21555 0.38867,0.50655 0.38867,0.87304c0,0.10785 -0.0165,0.20964 -0.04883,0.30664l-2.97461,9.28125c-0.1509,0.45274 -0.34004,0.80771 -0.56641,1.06641c-0.21558,0.25872 -0.45224,0.45951 -0.71094,0.59961c-0.2587,0.14035 -0.53319,0.22556 -0.82422,0.25781c-0.28026,0.04309 -0.5499,0.06445 -0.80859,0.06445h-0.8418c-0.2048,0 -0.38714,-0.03769 -0.54883,-0.11328c-0.1509,-0.07534 -0.28572,-0.17234 -0.4043,-0.29101c-0.10779,-0.11855 -0.19313,-0.25337 -0.25781,-0.4043c-0.0539,-0.14009 -0.08203,-0.28462 -0.08203,-0.43555c0,-0.21556 0.06402,-0.39985 0.19336,-0.55078c0.14013,-0.15093 0.3574,-0.22656 0.64844,-0.22656c0.28026,0 0.5431,-0.00555 0.79102,-0.01563c0.2587,-0.01083 0.48567,-0.04852 0.67969,-0.11328c0.19402,-0.06475 0.34533,-0.16654 0.45312,-0.30664c0.11858,-0.12933 0.17773,-0.31847 0.17773,-0.5664c0,-0.15096 -0.02134,-0.31878 -0.06445,-0.50196c-0.04311,-0.18323 -0.11393,-0.39854 -0.21094,-0.64648l-2.69922,-6.85547c-0.06468,-0.16174 -0.09766,-0.3344 -0.09766,-0.51758c0,-0.12938 0.02134,-0.2642 0.06445,-0.40429c0.04314,-0.14002 0.10714,-0.26805 0.19336,-0.38672c0.09701,-0.11868 0.22214,-0.21568 0.37305,-0.29102c0.16168,-0.08617 0.35566,-0.1289 0.58203,-0.1289c0.23714,-0.00001 0.45731,0.06409 0.66211,0.19335c0.20479,0.11861 0.34446,0.29611 0.41992,0.53321l1.99023,6.14453l1.55078,-6.12891c0.06468,-0.24801 0.1995,-0.43519 0.4043,-0.56445c0.21559,-0.12926 0.4474,-0.19531 0.69531,-0.19531c0.32337,0 0.61435,0.10853 0.87305,0.32422zM89.56836,171.02148c0.45272,0.15098 0.83389,0.34014 1.14648,0.56641c0.32336,0.22637 0.57167,0.47466 0.74414,0.74414c0.18326,0.2588 0.27539,0.50225 0.27539,0.72852c0,0.14002 -0.03298,0.26804 -0.09766,0.38672c-0.06468,0.11867 -0.15002,0.22242 -0.25781,0.30859c-0.09701,0.07534 -0.21048,0.13944 -0.33984,0.19336c-0.11855,0.04309 -0.23689,0.06445 -0.35547,0.06445c-0.12934,0 -0.25447,-0.02615 -0.37305,-0.08008c-0.11858,-0.06475 -0.20392,-0.17329 -0.25781,-0.32421c-0.08622,-0.20486 -0.20456,-0.37749 -0.35547,-0.51758c-0.14014,-0.1401 -0.3031,-0.25367 -0.48633,-0.33985c-0.17247,-0.097 -0.35965,-0.16589 -0.56445,-0.20898c-0.19403,-0.04309 -0.38801,-0.06641 -0.58203,-0.06641c-0.42038,0 -0.77053,0.07564 -1.05078,0.22656c-0.28025,0.14015 -0.42187,0.3671 -0.42187,0.67969c0,0.25872 0.13482,0.45756 0.4043,0.59766c0.28025,0.14009 0.62555,0.2652 1.03516,0.37305c0.4096,0.097 0.85189,0.20358 1.32617,0.32226c0.47428,0.10779 0.91657,0.25911 1.32617,0.45313c0.4096,0.18325 0.7481,0.43154 1.01758,0.74414c0.28026,0.3018 0.41992,0.70628 0.41992,1.21289c0,0.53896 -0.10184,1.01227 -0.30664,1.42187c-0.19402,0.39884 -0.46366,0.73929 -0.80859,1.01953c-0.33415,0.26951 -0.73181,0.47319 -1.19531,0.61328c-0.45272,0.1401 -0.93768,0.21094 -1.45508,0.21094c-0.65752,0 -1.23948,-0.09221 -1.74609,-0.27539c-0.50661,-0.19401 -0.93241,-0.43067 -1.27734,-0.71094c-0.34492,-0.28023 -0.60971,-0.58771 -0.79297,-0.92187c-0.17247,-0.34492 -0.25976,-0.66208 -0.25976,-0.95313c0,-0.24788 0.11347,-0.44868 0.33984,-0.59961c0.23714,-0.15092 0.49029,-0.22656 0.75976,-0.22656c0.18325,0 0.35105,0.03795 0.50195,0.11328c0.1509,0.07534 0.25954,0.19371 0.32422,0.35547c0.18324,0.45271 0.44609,0.81935 0.79102,1.09961c0.34493,0.28024 0.79886,0.42188 1.35937,0.42188c0.18326,0 0.3656,-0.02137 0.54883,-0.06446c0.18325,-0.05392 0.34425,-0.12476 0.48437,-0.21093c0.15093,-0.09701 0.2712,-0.21059 0.35742,-0.33985c0.09701,-0.14019 0.14453,-0.30119 0.14453,-0.48437c0,-0.29095 -0.13482,-0.51793 -0.4043,-0.67969c-0.26948,-0.16164 -0.60313,-0.29645 -1.00195,-0.4043c-0.39882,-0.11842 -0.83627,-0.232 -1.31055,-0.33984c-0.47428,-0.11858 -0.90977,-0.27473 -1.30859,-0.46875c-0.39882,-0.19404 -0.73248,-0.44717 -1.00195,-0.75977c-0.26948,-0.31259 -0.4043,-0.73354 -0.4043,-1.26172c0,-0.42038 0.08534,-0.80835 0.25781,-1.16406c0.17247,-0.35568 0.41592,-0.65636 0.72851,-0.90429c0.32337,-0.24797 0.70454,-0.44194 1.14648,-0.58204c0.44194,-0.14009 0.9337,-0.21093 1.47266,-0.21093c0.54973,0 1.05119,0.08042 1.50391,0.24218zM98.73828,170.92578c0.4635,0.09696 0.86116,0.24632 1.19531,0.45117c0.34492,0.2048 0.60972,0.46475 0.79297,0.77735c0.19402,0.3018 0.29102,0.66844 0.29102,1.09961v5.77148c0,0.31249 -0.10864,0.57728 -0.32422,0.79297c-0.21558,0.21568 -0.47842,0.32226 -0.79102,0.32226c-0.29103,0 -0.54418,-0.09025 -0.75977,-0.27343c-0.2048,-0.19402 -0.32509,-0.43747 -0.35742,-0.72852c-0.4096,0.38808 -0.84025,0.65288 -1.29297,0.79297c-0.45272,0.1401 -0.96387,0.20898 -1.53516,0.20898c-0.36649,0 -0.73797,-0.05231 -1.11523,-0.16015c-0.36649,-0.10769 -0.70209,-0.27064 -1.00391,-0.48633c-0.29105,-0.22637 -0.52771,-0.50084 -0.71094,-0.82422c-0.18326,-0.32337 -0.27539,-0.70167 -0.27539,-1.13281c0,-0.66832 0.14647,-1.19111 0.4375,-1.56836c0.30181,-0.37727 0.67329,-0.66145 1.11523,-0.85547c0.44194,-0.19409 0.91721,-0.3357 1.42383,-0.42187c0.51739,-0.08618 0.99556,-0.17164 1.4375,-0.25782c0.44194,-0.08617 0.80858,-0.20454 1.09961,-0.35547c0.30181,-0.16168 0.45312,-0.41482 0.45312,-0.75976c0,-0.16156 -0.04752,-0.30125 -0.14453,-0.41992c-0.08622,-0.12951 -0.21136,-0.23326 -0.37305,-0.3086c-0.16168,-0.08617 -0.35082,-0.15027 -0.56641,-0.19336c-0.21557,-0.04308 -0.44058,-0.06445 -0.67773,-0.06445c-0.31258,0 -0.55604,0.04273 -0.72852,0.12891c-0.17246,0.08642 -0.31213,0.19496 -0.41992,0.32422c-0.09701,0.12928 -0.17751,0.27378 -0.24219,0.43554c-0.06468,0.15098 -0.14518,0.29262 -0.24219,0.42188c-0.08625,0.12951 -0.20652,0.23609 -0.35742,0.32226c-0.15091,0.08618 -0.36623,0.12891 -0.64648,0.12891c-0.25871,0 -0.48372,-0.0641 -0.67773,-0.19336c-0.18326,-0.14012 -0.27539,-0.38841 -0.27539,-0.74414c0,-0.34492 0.08534,-0.66405 0.25781,-0.95508c0.17246,-0.291 0.42077,-0.53734 0.74414,-0.74219c0.32337,-0.21548 0.71619,-0.38327 1.17969,-0.50195c0.4635,-0.11842 0.98629,-0.17773 1.56836,-0.17773c0.54973,0 1.05798,0.04947 1.52148,0.14648zM103.48438,171.00586c0.20479,0.15088 0.33961,0.34972 0.40429,0.59766l1.51953,5.57812l1.50391,-5.38281c0.08624,-0.31267 0.24725,-0.56096 0.48437,-0.74414c0.23714,-0.18318 0.51843,-0.27539 0.8418,-0.27539c0.32337,0 0.59785,0.09221 0.82422,0.27539c0.23715,0.18325 0.39815,0.43155 0.48438,0.74414l1.5039,5.38281l1.53516,-5.57812c0.06468,-0.24789 0.19465,-0.44673 0.38867,-0.59766c0.19403,-0.15093 0.4142,-0.22656 0.66211,-0.22656c0.31259,0 0.57254,0.11836 0.77734,0.35547c0.2048,0.23715 0.30664,0.4971 0.30664,0.77734c0,0.10784 -0.0165,0.21442 -0.04882,0.32227l-2.06836,6.74218c-0.1078,0.34485 -0.29209,0.62611 -0.55079,0.8418c-0.25869,0.21568 -0.59234,0.32226 -1.00195,0.32226c-0.30182,0 -0.57631,-0.11162 -0.82422,-0.33789c-0.23714,-0.22636 -0.40494,-0.50279 -0.50195,-0.82617l-1.48633,-5.09179l-1.5039,5.09179c-0.09701,0.32348 -0.25996,0.59795 -0.48633,0.82422c-0.21558,0.22627 -0.49492,0.33984 -0.83985,0.33984c-0.4096,0 -0.74325,-0.10658 -1.00195,-0.32226c-0.2587,-0.21558 -0.44299,-0.49685 -0.55078,-0.8418l-2.05274,-6.74218c-0.03232,-0.1076 -0.04882,-0.22117 -0.04882,-0.33985c0,-0.19406 0.03297,-0.3599 0.09765,-0.5c0.06468,-0.14009 0.15002,-0.25367 0.25782,-0.33984c0.10779,-0.09701 0.22126,-0.16785 0.33984,-0.21094c0.12933,-0.04309 0.25252,-0.06445 0.37109,-0.06445c0.24793,0 0.47005,0.07563 0.66407,0.22656zM120.73633,170.92578c0.4635,0.09696 0.86116,0.24632 1.19531,0.45117c0.34494,0.2048 0.60974,0.46475 0.79297,0.77735c0.19402,0.3018 0.29101,0.66844 0.29101,1.09961v5.77148c0,0.31249 -0.10863,0.57728 -0.32421,0.79297c-0.21559,0.21568 -0.47843,0.32226 -0.79102,0.32226c-0.29103,0 -0.54418,-0.09025 -0.75977,-0.27343c-0.20479,-0.19402 -0.32509,-0.43747 -0.35742,-0.72852c-0.4096,0.38808 -0.84025,0.65288 -1.29297,0.79297c-0.45272,0.1401 -0.96386,0.20898 -1.53515,0.20898c-0.36649,0 -0.73797,-0.05231 -1.11524,-0.16015c-0.36648,-0.10769 -0.70209,-0.27064 -1.0039,-0.48633c-0.29102,-0.22637 -0.52768,-0.50084 -0.71094,-0.82422c-0.18323,-0.32337 -0.27539,-0.70167 -0.27539,-1.13281c0,-0.66832 0.14647,-1.19111 0.4375,-1.56836c0.30181,-0.37727 0.67329,-0.66145 1.11523,-0.85547c0.44195,-0.19409 0.91722,-0.3357 1.42383,-0.42187c0.5174,-0.08618 0.99556,-0.17164 1.4375,-0.25782c0.44194,-0.08617 0.80858,-0.20454 1.09961,-0.35547c0.30181,-0.16168 0.45313,-0.41482 0.45313,-0.75976c0,-0.16156 -0.04753,-0.30125 -0.14453,-0.41992c-0.08623,-0.12951 -0.21136,-0.23326 -0.37305,-0.3086c-0.16169,-0.08617 -0.35082,-0.15027 -0.56641,-0.19336c-0.21559,-0.04308 -0.4406,-0.06445 -0.67773,-0.06445c-0.31259,0 -0.55605,0.04273 -0.72852,0.12891c-0.17246,0.08642 -0.31213,0.19496 -0.41992,0.32422c-0.09701,0.12928 -0.17751,0.27378 -0.24219,0.43554c-0.06468,0.15098 -0.14518,0.29262 -0.24218,0.42188c-0.08625,0.12951 -0.20652,0.23609 -0.35743,0.32226c-0.1509,0.08618 -0.36622,0.12891 -0.64648,0.12891c-0.2587,0 -0.48372,-0.0641 -0.67774,-0.19336c-0.18325,-0.14012 -0.27539,-0.38841 -0.27539,-0.74414c0,-0.34492 0.08534,-0.66405 0.25782,-0.95508c0.17246,-0.291 0.42077,-0.53734 0.74414,-0.74219c0.32337,-0.21548 0.71618,-0.38327 1.17968,-0.50195c0.4635,-0.11842 0.98629,-0.17773 1.56836,-0.17773c0.54974,0 1.05799,0.04947 1.52149,0.14648zM125.49414,171.00586c0.2048,0.15088 0.33962,0.34972 0.4043,0.59766l1.51953,5.57812l1.50391,-5.38281c0.08621,-0.31267 0.24917,-0.56096 0.48632,-0.74414c0.23714,-0.18318 0.51648,-0.27539 0.83985,-0.27539c0.32336,0 0.59785,0.09221 0.82422,0.27539c0.23714,0.18325 0.4001,0.43155 0.48632,0.74414l1.50196,5.38281l1.53711,-5.57812c0.06468,-0.24789 0.19465,-0.44673 0.38867,-0.59766c0.19403,-0.15093 0.4142,-0.22656 0.66211,-0.22656c0.31259,0 0.57059,0.11836 0.77539,0.35547c0.2048,0.23715 0.30859,0.4971 0.30859,0.77734c0,0.10784 -0.0165,0.21442 -0.04883,0.32227l-2.07031,6.74218c-0.10779,0.34485 -0.29013,0.62611 -0.54883,0.8418c-0.2587,0.21568 -0.5943,0.32226 -1.0039,0.32226c-0.30182,0 -0.57631,-0.11162 -0.82422,-0.33789c-0.23714,-0.22636 -0.40299,-0.50279 -0.5,-0.82617l-1.48828,-5.09179l-1.50391,5.09179c-0.097,0.32348 -0.25801,0.59795 -0.48437,0.82422c-0.21559,0.22627 -0.49687,0.33984 -0.8418,0.33984c-0.4096,0 -0.74326,-0.10658 -1.00195,-0.32226c-0.2587,-0.21558 -0.44104,-0.49685 -0.54883,-0.8418l-2.05469,-6.74218c-0.03233,-0.1076 -0.04883,-0.22117 -0.04883,-0.33985c0,-0.19406 0.03298,-0.3599 0.09766,-0.5c0.06468,-0.14009 0.15197,-0.25367 0.25976,-0.33984c0.1078,-0.09701 0.21932,-0.16785 0.33789,-0.21094c0.12934,-0.04309 0.25447,-0.06445 0.37305,-0.06445c0.24793,0 0.46809,0.07563 0.66211,0.22656zM142.74609,170.92578c0.4635,0.09696 0.86312,0.24632 1.19727,0.45117c0.34492,0.2048 0.60776,0.46475 0.79102,0.77735c0.19401,0.3018 0.29101,0.66844 0.29101,1.09961v5.77148c0,0.31249 -0.10668,0.57728 -0.32227,0.79297c-0.21558,0.21568 -0.48037,0.32226 -0.79296,0.32226c-0.29103,0 -0.54419,-0.09025 -0.75977,-0.27343c-0.20482,-0.19402 -0.32314,-0.43747 -0.35547,-0.72852c-0.4096,0.38808 -0.84025,0.65288 -1.29297,0.79297c-0.45272,0.1401 -0.96582,0.20898 -1.53711,0.20898c-0.36648,0 -0.73796,-0.05231 -1.11523,-0.16015c-0.36649,-0.10769 -0.70014,-0.27064 -1.00195,-0.48633c-0.29105,-0.22637 -0.52771,-0.50084 -0.71094,-0.82422c-0.18323,-0.32337 -0.27539,-0.70167 -0.27539,-1.13281c0,-0.66832 0.14451,-1.19111 0.43555,-1.56836c0.30181,-0.37727 0.67524,-0.66145 1.11718,-0.85547c0.44195,-0.19409 0.91526,-0.3357 1.42188,-0.42187c0.51739,-0.08618 0.99751,-0.17164 1.43945,-0.25782c0.44194,-0.08617 0.80857,-0.20454 1.09961,-0.35547c0.30181,-0.16168 0.45312,-0.41482 0.45312,-0.75976c0,-0.16156 -0.04947,-0.30125 -0.14648,-0.41992c-0.08622,-0.12951 -0.2094,-0.23326 -0.37109,-0.3086c-0.16169,-0.08617 -0.35083,-0.15027 -0.56641,-0.19336c-0.21557,-0.04308 -0.44253,-0.06445 -0.67969,-0.06445c-0.31258,0 -0.55409,0.04273 -0.72656,0.12891c-0.17246,0.08642 -0.31408,0.19496 -0.42187,0.32422c-0.09701,0.12928 -0.17751,0.27378 -0.24219,0.43554c-0.06468,0.15098 -0.14518,0.29262 -0.24219,0.42188c-0.08625,0.12951 -0.20456,0.23609 -0.35547,0.32226c-0.1509,0.08618 -0.36623,0.12891 -0.64648,0.12891c-0.25871,0 -0.48567,-0.0641 -0.67969,-0.19336c-0.18326,-0.14012 -0.27539,-0.38841 -0.27539,-0.74414c0,-0.34492 0.08729,-0.66405 0.25977,-0.95508c0.17246,-0.291 0.42076,-0.53734 0.74414,-0.74219c0.32337,-0.21548 0.71618,-0.38327 1.17968,-0.50195c0.4635,-0.11842 0.98629,-0.17773 1.56836,-0.17773c0.54973,0 1.05604,0.04947 1.51953,0.14648zM63.28321,178.00781h3.37891c0.24792,0 0.47973,-0.04947 0.69531,-0.14648c0.22636,-0.09693 0.42034,-0.22496 0.58203,-0.38672c0.16169,-0.16156 0.29166,-0.35072 0.38867,-0.56641c0.09701,-0.21556 0.14453,-0.44737 0.14453,-0.69531c0,-0.24784 -0.04752,-0.47963 -0.14453,-0.69531c-0.09701,-0.22627 -0.22698,-0.42027 -0.38867,-0.58203c-0.16167,-0.16169 -0.35566,-0.29167 -0.58203,-0.38867c-0.21559,-0.09701 -0.4474,-0.14454 -0.69531,-0.14454h-3.37891zM97.86524,175.87305c-0.37727,0.11867 -0.89037,0.23704 -1.53711,0.35547c-0.78687,0.14014 -1.17969,0.51161 -1.17969,1.11523c0,0.15095 0.02134,0.29741 0.06445,0.4375c0.0539,0.14002 0.13924,0.26999 0.25781,0.38867c0.11858,0.10759 0.27473,0.19306 0.46875,0.25781c0.2048,0.06476 0.45311,0.09766 0.74414,0.09766c0.24793,0 0.49623,-0.02811 0.74414,-0.08203c0.2587,-0.0645 0.48567,-0.14997 0.67969,-0.25781c0.20479,-0.11848 0.3658,-0.25816 0.48437,-0.41993c0.12936,-0.17237 0.19336,-0.36634 0.19336,-0.58203v-1.56836c-0.22636,0.05367 -0.53187,0.13914 -0.91992,0.25782zM119.86328,175.87305c-0.37726,0.11867 -0.89036,0.23704 -1.53711,0.35547c-0.78687,0.14014 -1.17969,0.51161 -1.17969,1.11523c0,0.15095 0.02135,0.29741 0.06446,0.4375c0.05389,0.14002 0.13923,0.26999 0.25781,0.38867c0.11858,0.10759 0.27669,0.19306 0.4707,0.25781c0.2048,0.06476 0.45115,0.09766 0.74219,0.09766c0.24793,0 0.49623,-0.02811 0.74414,-0.08203c0.25871,-0.0645 0.48567,-0.14997 0.67969,-0.25781c0.20479,-0.11848 0.3658,-0.25816 0.48437,-0.41993c0.12934,-0.17237 0.19336,-0.36634 0.19336,-0.58203v-1.56836c-0.22636,0.05367 -0.53187,0.13914 -0.91992,0.25782zM141.87305,175.87305c-0.37727,0.11867 -0.88841,0.23704 -1.53516,0.35547c-0.78687,0.14014 -1.18164,0.51161 -1.18164,1.11523c0,0.15095 0.02134,0.29741 0.06445,0.4375c0.0539,0.14002 0.14119,0.26999 0.25977,0.38867c0.11858,0.10759 0.27473,0.19306 0.46875,0.25781c0.2048,0.06476 0.4531,0.09766 0.74414,0.09766c0.24792,0 0.49623,-0.02811 0.74414,-0.08203c0.25871,-0.0645 0.48372,-0.14997 0.67773,-0.25781c0.2048,-0.11848 0.36776,-0.25816 0.48633,-0.41993c0.12936,-0.17237 0.19336,-0.36634 0.19336,-0.58203v-1.56836c-0.22636,0.05367 -0.53383,0.13914 -0.92187,0.25782z" fill="#1eff00" stroke="none" stroke-width="1.01053" stroke-miterlimit="10" stroke-dashoffset="0"/></g></g></svg>