<svg version="1.1" xmlns="http://www.w3.org/2000/svg" xmlns:xlink="http://www.w3.org/1999/xlink" width="372.21498" height="68.64271" viewBox="0,0,372.21498,68.64271"><g transform="translate(-53.89251,-145.67864)"><g data-paper-data="{&quot;isPaintingLayer&quot;:true}" fill-rule="nonzero" stroke-linecap="butt" stroke-linejoin="miter" stroke-dasharray="" style="mix-blend-mode: normal"><path d="M425.00977,146.42864c0.19313,0 0.34772,0.15458 0.34772,0.34772v66.44538c0,0.19313 -0.15458,0.34961 -0.34772,0.34961h-370.01765c-0.19313,0 -0.34961,-0.15647 -0.34961,-0.34961v-66.4453c0,-0.19313 0.15647,-0.34772 0.34961,-0.34772z" fill="#1e1e1e" stroke="#1eff00" stroke-width="1.5" stroke-miterlimit="4" stroke-dashoffset="17.35"/><path d="M69.10182,187.56563c1.27601,0 2.33412,4.30809 3.36643,5.0581c1.03219,0.7499 5.4565,0.42501 5.85078,1.6385c0.3942,1.21349 -3.3761,3.55109 -3.77031,4.76459c-0.39428,1.21353 1.2819,5.32082 0.24983,6.07083c-1.0323,0.7499 -4.42057,-2.11351 -5.6965,-2.11351c-1.27589,0 -4.66417,2.86341 -5.69647,2.11351c-1.0323,-0.75001 0.64399,-4.8573 0.24983,-6.07083c-0.39432,-1.21349 -4.16462,-3.55109 -3.77031,-4.76459c0.39428,-1.21349 4.8186,-0.8886 5.85078,-1.6385c1.0323,-0.75001 2.09042,-5.0581 3.36632,-5.0581z" fill="#1eff00" stroke="none" stroke-width="0.23333" stroke-miterlimit="4" stroke-dashoffset="17.35"/><path d="M92.03894,187.56563c1.27589,0 2.33401,4.30809 3.36631,5.0581c1.0323,0.7499 5.45647,0.42501 5.85078,1.6385c0.39432,1.21349 -3.37599,3.55109 -3.77031,4.76459c-0.39428,1.21353 1.2819,5.32082 0.24945,6.07083c-1.0323,0.7499 -4.42061,-2.11351 -5.6965,-2.11351c-1.27601,0 -4.66428,2.86341 -5.69651,2.11351c-1.0323,-0.75001 0.64399,-4.8573 0.24945,-6.07083c-0.3942,-1.21349 -4.16447,-3.55109 -3.77019,-4.76459c0.3942,-1.21349 4.81852,-0.8886 5.85071,-1.6385c1.0323,-0.75001 2.09038,-5.0581 3.36639,-5.0581z" fill="#1eff00" stroke="none" stroke-width="0.23333" stroke-miterlimit="4" stroke-dashoffset="17.35"/><path d="M114.97602,187.56563c1.27593,0 2.33401,4.30809 3.36631,5.0581c1.0323,0.7499 5.4565,0.42501 5.85082,1.6385c0.39428,1.21349 -3.37603,3.55109 -3.77031,4.76459c-0.39432,1.21353 1.2819,5.32082 0.24945,6.07083c-1.0323,0.7499 -4.42061,-2.11351 -5.6965,-2.11351c-1.27601,0 -4.66431,2.86341 -5.6965,2.11351c-1.0323,-0.75001 0.64399,-4.8573 0.24945,-6.07083c-0.3942,-1.21349 -4.16451,-3.55109 -3.77019,-4.76459c0.39417,-1.21349 4.81848,-0.8886 5.85067,-1.6385c1.0323,-0.75001 2.09042,-5.0581 3.36643,-5.0581z" fill="#1eff00" stroke="none" stroke-width="0.23333" stroke-miterlimit="4" stroke-dashoffset="17.35"/><path d="M137.91315,187.56563c1.27589,0 2.33397,4.30809 3.36627,5.0581c1.0323,0.7499 5.4565,0.42501 5.85082,1.6385c0.39428,1.21349 -3.37603,3.55109 -3.77031,4.76459c-0.39432,1.21353 1.2819,5.32082 0.24945,6.07083c-1.0323,0.7499 -4.42061,-2.11351 -5.6965,-2.11351c-1.27601,0 -4.66431,2.86341 -5.6965,2.11351c-1.0323,-0.75001 0.64399,-4.8573 0.24945,-6.07083c-0.3942,-1.21349 -4.16451,-3.55109 -3.77019,-4.76459c0.3942,-1.21349 4.81848,-0.8886 5.85067,-1.6385c1.0323,-0.75001 2.09042,-5.0581 3.36643,-5.0581z" fill="#1eff00" stroke="none" stroke-width="0.23333" stroke-miterlimit="4" stroke-dashoffset="17.35"/><path d="M160.85026,187.56563c1.27589,0 2.33398,4.30809 3.36628,5.0581c1.03235,0.7499 5.45654,0.42501 5.85086,1.6385c0.39429,1.21349 -3.37607,3.55109 -3.77035,4.76459c-0.39432,1.21353 1.2819,5.32082 0.24945,6.07083c-1.03226,0.7499 -4.42061,-2.11351 -5.6965,-2.11351c-1.27601,0 -4.66432,2.86341 -5.69651,2.11351c-1.0323,-0.75001 0.644,-4.8573 0.24945,-6.07083c-0.3942,-1.21349 -4.16451,-3.55109 -3.77019,-4.76459c0.3942,-1.21349 4.81848,-0.8886 5.85075,-1.6385c1.03226,-0.75001 2.09038,-5.0581 3.36636,-5.0581z" fill="#1eff00" stroke="none" stroke-width="0.23333" stroke-miterlimit="4" stroke-dashoffset="17.35"/><path d="M68.2645,153.81077c0.23714,0 0.43792,0.08238 0.59961,0.24414c0.17247,0.16174 0.25781,0.36056 0.25781,0.59766c0,0.23725 -0.08534,0.44289 -0.25781,0.61523c-0.16167,0.16177 -0.36246,0.24219 -0.59961,0.24219h-5.57812v3.50781h5.07812c0.23714,0 0.43597,0.08742 0.59766,0.25977c0.16169,0.16171 0.24219,0.36055 0.24219,0.59765c0,0.2265 -0.0805,0.42531 -0.24219,0.59766c-0.16167,0.16176 -0.3605,0.24219 -0.59766,0.24219h-5.07812v4.90039c0,0.25869 -0.09019,0.48372 -0.27344,0.67773c-0.18324,0.18318 -0.41021,0.27539 -0.67969,0.27539c-0.2587,0 -0.48566,-0.09221 -0.67969,-0.27539c-0.18324,-0.19401 -0.27344,-0.41904 -0.27344,-0.67773v-10.54297c0,-0.3449 0.12317,-0.64074 0.37109,-0.88867c0.24792,-0.24794 0.55054,-0.37305 0.90625,-0.37305zM135.4891,153.81077c0.63597,0 1.27224,0.10853 1.90821,0.32422c0.63596,0.21558 1.20627,0.57738 1.71289,1.08398c0.50662,0.49585 0.91788,1.15346 1.23047,1.97266c0.31259,0.80844 0.46875,1.80455 0.46875,2.99023c0,1.19648 -0.15616,2.20422 -0.46875,3.02344c-0.31259,0.80842 -0.72385,1.46603 -1.23047,1.97266c-0.50662,0.49572 -1.07693,0.85267 -1.71289,1.06836c-0.63597,0.21568 -1.27224,0.32226 -1.90821,0.32226h-3.83203c-0.16168,0 -0.31784,-0.02615 -0.46875,-0.08008c-0.1509,-0.0645 -0.28572,-0.15192 -0.40429,-0.25976c-0.11855,-0.10772 -0.21555,-0.24253 -0.29102,-0.4043c-0.07546,-0.16169 -0.11328,-0.33918 -0.11328,-0.5332v-10.21875c0,-0.3449 0.12514,-0.64074 0.37305,-0.88867c0.24791,-0.24794 0.54858,-0.37305 0.90429,-0.37305zM101.64731,154.05492c0.17247,0.16174 0.25977,0.36056 0.25977,0.59766v11.05859c0,0.23725 -0.08729,0.44289 -0.25977,0.61524c-0.1617,0.16176 -0.36053,0.24218 -0.59766,0.24218c-0.23714,0 -0.43597,-0.08042 -0.59766,-0.24218c-0.16169,-0.1725 -0.24414,-0.37814 -0.24414,-0.61524v-0.14453c-0.21559,0.18333 -0.41927,0.33949 -0.61328,0.46875c-0.18325,0.12951 -0.37723,0.23609 -0.58203,0.32227c-0.20481,0.07559 -0.43177,0.12985 -0.67969,0.16211c-0.24792,0.03225 -0.53405,0.04882 -0.85742,0.04882c-0.52817,0 -1.02963,-0.11357 -1.50391,-0.33984c-0.4635,-0.22634 -0.87281,-0.5435 -1.22852,-0.95313c-0.34493,-0.42038 -0.61942,-0.91699 -0.82422,-1.48828c-0.2048,-0.57129 -0.30664,-1.20076 -0.30664,-1.89062c0,-0.68984 0.09216,-1.32129 0.27539,-1.89258c0.18324,-0.58207 0.44124,-1.07866 0.77539,-1.48828c0.34493,-0.42046 0.75423,-0.74248 1.22852,-0.96875c0.47428,-0.22627 1.00191,-0.33984 1.58398,-0.33984c0.44194,0 0.82506,0.05426 1.14844,0.1621c0.32337,0.10777 0.59301,0.23579 0.80859,0.38672c0.21557,0.14017 0.38338,0.28178 0.50195,0.42188c0.12936,0.14009 0.21954,0.24188 0.27344,0.30664v-3.83203c0,-0.23708 0.08245,-0.43589 0.24414,-0.59766c0.1617,-0.16176 0.36053,-0.24219 0.59766,-0.24219c0.23713,0 0.43597,0.08043 0.59766,0.24219zM143.28207,154.08617c0.19402,0.18323 0.29102,0.41021 0.29102,0.67969c0,0.25872 -0.097,0.48567 -0.29102,0.67969c-0.18324,0.18318 -0.40536,0.27343 -0.66406,0.27343c-0.26948,0 -0.5013,-0.09025 -0.69531,-0.27343c-0.18323,-0.19404 -0.27344,-0.421 -0.27344,-0.67969c0,-0.26953 0.09021,-0.49651 0.27344,-0.67969c0.19402,-0.18318 0.42583,-0.27344 0.69531,-0.27344c0.25871,0 0.48083,0.09026 0.66406,0.27344zM132.28793,164.87133h2.83008c0.63597,0 1.18979,-0.10854 1.66406,-0.32422c0.47428,-0.22637 0.86905,-0.53869 1.18164,-0.9375c0.3126,-0.40963 0.54441,-0.89942 0.69532,-1.4707c0.1509,-0.58208 0.22656,-1.23484 0.22656,-1.95704c0,-0.7114 -0.07566,-1.35254 -0.22656,-1.92382c-0.15091,-0.58208 -0.38272,-1.07189 -0.69532,-1.47071c-0.31259,-0.40952 -0.70736,-0.72181 -1.18164,-0.9375c-0.47427,-0.22626 -1.02809,-0.33984 -1.66406,-0.33984h-2.83008zM80.87387,157.36937c0.53895,0.18326 1.00258,0.45289 1.39062,0.8086c0.39881,0.34492 0.71113,0.77071 0.9375,1.27734c0.22637,0.50661 0.33984,1.08179 0.33984,1.72852c0,0.39879 -0.097,0.7014 -0.29101,0.90625c-0.19402,0.20485 -0.42099,0.30664 -0.67969,0.30664l-5.91797,0.00195c0,0.02142 0.00479,0.11167 0.01562,0.27344c0.02154,0.1508 0.05939,0.33509 0.11328,0.55078c0.06468,0.21556 0.15197,0.44738 0.25976,0.69531c0.11858,0.23708 0.27473,0.45726 0.46875,0.66211c0.19402,0.20485 0.43068,0.37749 0.71094,0.51758c0.29103,0.12926 0.64118,0.19336 1.05078,0.19336c0.33416,0 0.62029,-0.02616 0.85742,-0.08008c0.23713,-0.05392 0.4476,-0.13434 0.63086,-0.24219c0.18325,-0.10771 0.3491,-0.24253 0.5,-0.40429c0.15091,-0.17255 0.30222,-0.37334 0.45312,-0.59961c0.08622,-0.12926 0.18322,-0.21952 0.29102,-0.27344c0.10779,-0.05392 0.22127,-0.08203 0.33984,-0.08203c0.19402,0 0.37151,0.07084 0.5332,0.21094c0.16169,0.14002 0.24219,0.31751 0.24219,0.5332c0,0.12936 -0.06886,0.32333 -0.20898,0.58203c-0.14013,0.2587 -0.36709,0.5167 -0.67969,0.77539c-0.30181,0.2587 -0.69463,0.48567 -1.17969,0.67969c-0.48506,0.19401 -1.07866,0.29101 -1.7793,0.29101c-0.71142,0 -1.34769,-0.12997 -1.9082,-0.38867c-0.56051,-0.25869 -1.03383,-0.60206 -1.42187,-1.0332c-0.37727,-0.44195 -0.66825,-0.95504 -0.87305,-1.53711c-0.19402,-0.58207 -0.29101,-1.1902 -0.29101,-1.82617c0,-0.65751 0.10184,-1.2773 0.30664,-1.85938c0.2048,-0.59285 0.49578,-1.10596 0.87305,-1.53711c0.38805,-0.43114 0.85167,-0.76964 1.39062,-1.01757c0.53895,-0.2587 1.14225,-0.38868 1.81055,-0.38868c0.61441,0 1.18667,0.09221 1.71484,0.27539zM90.2977,157.36937c0.53895,0.18326 1.00062,0.45289 1.38867,0.8086c0.39882,0.34492 0.71308,0.77071 0.93945,1.27734c0.22637,0.50661 0.33789,1.08179 0.33789,1.72852c0,0.39879 -0.097,0.7014 -0.29101,0.90625c-0.19402,0.20485 -0.41904,0.30664 -0.67773,0.30664l-5.91797,0.00195c0,0.02142 0.00479,0.11167 0.01562,0.27344c0.02154,0.1508 0.05938,0.33509 0.11328,0.55078c0.06468,0.21556 0.15197,0.44738 0.25977,0.69531c0.11858,0.23708 0.27473,0.45726 0.46875,0.66211c0.19402,0.20485 0.43068,0.37749 0.71094,0.51758c0.29103,0.12926 0.64118,0.19336 1.05078,0.19336c0.33416,0 0.62029,-0.02616 0.85742,-0.08008c0.23715,-0.05392 0.44763,-0.13434 0.63086,-0.24219c0.18325,-0.10771 0.3491,-0.24253 0.5,-0.40429c0.15091,-0.17255 0.30222,-0.37334 0.45312,-0.59961c0.08622,-0.12926 0.18322,-0.21952 0.29102,-0.27344c0.10779,-0.05392 0.22127,-0.08203 0.33984,-0.08203c0.19402,0 0.37151,0.07084 0.5332,0.21094c0.16169,0.14002 0.24219,0.31751 0.24219,0.5332c0,0.12936 -0.06886,0.32333 -0.20898,0.58203c-0.14013,0.2587 -0.36709,0.5167 -0.67969,0.77539c-0.30181,0.2587 -0.69463,0.48567 -1.17969,0.67969c-0.48506,0.19401 -1.07866,0.29101 -1.7793,0.29101c-0.71142,0 -1.34769,-0.12997 -1.9082,-0.38867c-0.56051,-0.25869 -1.03383,-0.60206 -1.42187,-1.0332c-0.37727,-0.44195 -0.66825,-0.95504 -0.87305,-1.53711c-0.19401,-0.58207 -0.29101,-1.1902 -0.29101,-1.82617c0,-0.65751 0.10184,-1.2773 0.30664,-1.85938c0.2048,-0.59285 0.49578,-1.10596 0.87305,-1.53711c0.38804,-0.43114 0.85167,-0.76964 1.39062,-1.01757c0.53895,-0.2587 1.14224,-0.38868 1.81055,-0.38868c0.6144,0 1.18667,0.09221 1.71484,0.27539zM109.18442,157.41819c0.54973,0.21559 1.02305,0.52788 1.42187,0.9375c0.39882,0.4096 0.71308,0.91108 0.93945,1.50391c0.22637,0.59286 0.33789,1.2718 0.33789,2.03711c0,0.76533 -0.11152,1.44428 -0.33789,2.03711c-0.22636,0.59285 -0.54063,1.0943 -0.93945,1.5039c-0.39882,0.39874 -0.87214,0.70619 -1.42187,0.92188c-0.53895,0.21543 -1.12575,0.32226 -1.76172,0.32226c-0.63596,0 -1.22956,-0.10683 -1.7793,-0.32226c-0.53895,-0.21559 -1.00742,-0.52304 -1.40625,-0.92188c-0.39882,-0.4096 -0.71113,-0.91105 -0.9375,-1.5039c-0.22637,-0.59283 -0.33984,-1.27178 -0.33984,-2.03711c0,-0.76531 0.11347,-1.44425 0.33984,-2.03711c0.22636,-0.59283 0.53867,-1.09431 0.9375,-1.50391c0.39883,-0.40952 0.8673,-0.72181 1.40625,-0.9375c0.54973,-0.21568 1.14333,-0.32422 1.7793,-0.32422c0.63597,0 1.22276,0.10854 1.76172,0.32422zM158.60043,157.36937c0.53896,0.18326 1.00258,0.45289 1.39063,0.8086c0.39882,0.34492 0.71113,0.77071 0.9375,1.27734c0.22637,0.50661 0.33984,1.08179 0.33984,1.72852c0,0.39879 -0.097,0.7014 -0.29101,0.90625c-0.19403,0.20485 -0.421,0.30664 -0.67969,0.30664l-5.91797,0.00195c0,0.02142 0.00674,0.11167 0.01758,0.27344c0.02154,0.1508 0.05938,0.33509 0.11328,0.55078c0.06468,0.21556 0.15002,0.44738 0.25781,0.69531c0.11858,0.23708 0.27474,0.45726 0.46875,0.66211c0.19403,0.20485 0.43068,0.37749 0.71094,0.51758c0.29103,0.12926 0.64118,0.19336 1.05078,0.19336c0.33414,0 0.62027,-0.02616 0.85742,-0.08008c0.23716,-0.05392 0.44763,-0.13434 0.63086,-0.24219c0.18325,-0.10771 0.35105,-0.24253 0.50195,-0.40429c0.15091,-0.17255 0.30027,-0.37334 0.45118,-0.59961c0.08622,-0.12926 0.18322,-0.21952 0.29101,-0.27344c0.10779,-0.05392 0.22127,-0.08203 0.33985,-0.08203c0.19402,0 0.37346,0.07084 0.53515,0.21094c0.16169,0.14002 0.24219,0.31751 0.24219,0.5332c0,0.12936 -0.07082,0.32333 -0.21094,0.58203c-0.14013,0.2587 -0.36709,0.5167 -0.67968,0.77539c-0.30182,0.2587 -0.69464,0.48567 -1.17969,0.67969c-0.48506,0.19401 -1.07866,0.29101 -1.7793,0.29101c-0.71142,0 -1.34574,-0.12997 -1.90625,-0.38867c-0.56051,-0.25869 -1.03578,-0.60206 -1.42383,-1.0332c-0.37727,-0.44195 -0.66824,-0.95504 -0.87304,-1.53711c-0.19402,-0.58207 -0.29102,-1.1902 -0.29102,-1.82617c0,-0.65751 0.10184,-1.2773 0.30664,-1.85938c0.2048,-0.59285 0.49578,-1.10596 0.87305,-1.53711c0.38804,-0.43114 0.85167,-0.76964 1.39062,-1.01757c0.53896,-0.2587 1.1442,-0.38868 1.8125,-0.38868c0.61441,0 1.18472,0.09221 1.71289,0.27539zM71.53208,157.46508c0.16169,0.16171 0.24219,0.3625 0.24219,0.59961v0.30664c0.04311,-0.04309 0.12361,-0.12856 0.24219,-0.25782c0.11856,-0.12943 0.26503,-0.25941 0.4375,-0.38867c0.18324,-0.14009 0.38207,-0.25846 0.59766,-0.35547c0.22637,-0.10784 0.46303,-0.1621 0.71094,-0.1621c0.23714,0 0.43792,0.08546 0.59961,0.25781c0.17247,0.16171 0.25781,0.3625 0.25781,0.59961c0,0.22649 -0.08534,0.42531 -0.25781,0.59765c-0.1617,0.16177 -0.36248,0.24219 -0.59961,0.24219c-0.4096,0 -0.74325,0.097 -1.00195,0.29102c-0.2587,0.18323 -0.46433,0.40536 -0.61523,0.66406c-0.14012,0.25869 -0.23712,0.52833 -0.29102,0.80859c-0.0539,0.28032 -0.08008,0.51213 -0.08008,0.69531v4.34766c0,0.23725 -0.0805,0.44289 -0.24219,0.61524c-0.1617,0.16176 -0.36053,0.24218 -0.59766,0.24218c-0.23713,0 -0.44276,-0.08042 -0.61523,-0.24218c-0.16169,-0.1725 -0.24219,-0.37814 -0.24219,-0.61524v-7.64648c0,-0.23706 0.0805,-0.43785 0.24219,-0.59961c0.17247,-0.17235 0.37811,-0.25781 0.61523,-0.25781c0.23714,0 0.43597,0.08546 0.59766,0.25781zM114.28989,157.46508c0.16169,0.16171 0.24219,0.3625 0.24219,0.59961v0.35547c0.06468,-0.07559 0.15681,-0.18413 0.27539,-0.32422c0.12935,-0.14022 0.29715,-0.27504 0.50195,-0.4043c0.2048,-0.12926 0.44631,-0.24284 0.72656,-0.33984c0.29104,-0.09701 0.63148,-0.14453 1.01953,-0.14453c0.53895,0 1.00258,0.14645 1.39062,0.4375c0.38804,0.28023 0.68871,0.63039 0.9043,1.05078c0.29103,-0.52826 0.65767,-0.90655 1.09961,-1.13282c0.45272,-0.2371 0.98036,-0.35546 1.58398,-0.35546c0.38805,0 0.74499,0.05905 1.06836,0.17773c0.33416,0.10787 0.62029,0.27568 0.85742,0.50195c0.24793,0.22637 0.44191,0.50569 0.58203,0.83985c0.14012,0.33413 0.20898,0.72211 0.20898,1.16406v5.82226c0,0.23726 -0.0805,0.44094 -0.24219,0.61329c-0.16167,0.16176 -0.3605,0.24218 -0.59766,0.24218c-0.23713,0 -0.44276,-0.08042 -0.61523,-0.24218c-0.16169,-0.1725 -0.24219,-0.37618 -0.24219,-0.61329v-5.74023c0,-0.37727 -0.12318,-0.70122 -0.37109,-0.9707c-0.24792,-0.26948 -0.57672,-0.4043 -0.98633,-0.4043c-0.35571,0 -0.66318,0.07084 -0.92187,0.21094c-0.25869,0.12943 -0.47401,0.30693 -0.64648,0.5332c-0.16169,0.22637 -0.28682,0.48437 -0.37305,0.77539c-0.07546,0.29105 -0.11328,0.59366 -0.11328,0.90625v4.6875c0,0.23725 -0.0805,0.44289 -0.24219,0.61524c-0.1617,0.16176 -0.36053,0.24218 -0.59766,0.24218c-0.23713,0 -0.44276,-0.08042 -0.61523,-0.24218c-0.16169,-0.1725 -0.24219,-0.37814 -0.24219,-0.61524v-5.73828c0,-0.37727 -0.11834,-0.70122 -0.35547,-0.9707c-0.23714,-0.26948 -0.57079,-0.4043 -1.00195,-0.4043c-0.35571,0 -0.66318,0.07084 -0.92187,0.21094c-0.25869,0.12943 -0.47401,0.30693 -0.64648,0.5332c-0.16169,0.22637 -0.28682,0.48437 -0.37305,0.77539c-0.07546,0.29105 -0.11328,0.59366 -0.11328,0.90625v4.6875c0,0.23725 -0.0805,0.44289 -0.24219,0.61524c-0.1617,0.16176 -0.36053,0.24218 -0.59766,0.24218c-0.23713,0 -0.44276,-0.08042 -0.61523,-0.24218c-0.16169,-0.1725 -0.24219,-0.37814 -0.24219,-0.61524v-7.64648c0,-0.23706 0.0805,-0.43785 0.24219,-0.59961c0.17245,-0.17235 0.37808,-0.25781 0.61523,-0.25781c0.23714,0 0.43597,0.08546 0.59766,0.25781zM143.21762,157.46508c0.16169,0.16171 0.24219,0.3625 0.24219,0.59961v7.64648c0,0.23725 -0.0805,0.44289 -0.24219,0.61524c-0.1617,0.16176 -0.36248,0.24218 -0.59961,0.24218c-0.23713,0 -0.44081,-0.08042 -0.61328,-0.24218c-0.16169,-0.1725 -0.24219,-0.37814 -0.24219,-0.61524v-7.64648c0,-0.23706 0.0805,-0.43785 0.24219,-0.59961c0.17245,-0.17235 0.37613,-0.25781 0.61328,-0.25781c0.23714,0 0.43792,0.08546 0.59961,0.25781zM145.65121,157.36937c0.15091,0.09689 0.2547,0.2317 0.3086,0.4043l2.27929,6.85547l2.26368,-6.85547c0.05389,-0.17247 0.15573,-0.30729 0.30664,-0.4043c0.15092,-0.10784 0.31872,-0.1621 0.50195,-0.1621c0.06468,0 0.14518,0.01657 0.24219,0.04882c0.10779,0.02142 0.20479,0.06415 0.29101,0.12891c0.08623,0.06476 0.16189,0.15696 0.22657,0.27539c0.06468,0.10772 0.0957,0.24253 0.0957,0.4043c0,0.08617 -0.01455,0.17838 -0.04688,0.27539l-2.61914,7.29101c-0.10778,0.28037 -0.27074,0.50734 -0.48632,0.67969c-0.21559,0.17235 -0.47358,0.25781 -0.7754,0.25781c-0.31258,0 -0.57738,-0.08546 -0.79296,-0.25781c-0.21558,-0.17247 -0.37659,-0.39945 -0.48438,-0.67969l-2.60351,-7.29101c-0.03233,-0.09701 -0.04883,-0.18922 -0.04883,-0.27539c0,-0.07534 0.0165,-0.16081 0.04883,-0.25782c0.03232,-0.097 0.07985,-0.18921 0.14453,-0.27539c0.06468,-0.097 0.15197,-0.17264 0.25976,-0.22656c0.10779,-0.06475 0.23777,-0.09765 0.38867,-0.09765c0.18325,0 0.3491,0.05426 0.5,0.1621zM78.1727,158.66233c-0.28026,0.11863 -0.51692,0.26995 -0.71094,0.45313c-0.18324,0.1726 -0.32775,0.3666 -0.43555,0.58203c-0.10779,0.21566 -0.19024,0.41447 -0.24414,0.59766c-0.05385,0.18328 -0.08487,0.34623 -0.0957,0.48632c-0.01083,0.12826 -0.01758,0.20194 -0.01758,0.22461h5.24023c0,-0.33416 -0.05432,-0.65131 -0.16211,-0.95312c-0.10778,-0.30191 -0.27558,-0.5667 -0.50195,-0.79297c-0.21558,-0.23718 -0.49491,-0.42436 -0.83984,-0.56445c-0.34493,-0.1401 -0.74939,-0.21094 -1.21289,-0.21094c-0.39882,0 -0.73927,0.05906 -1.01953,0.17773zM87.59653,158.66233c-0.28026,0.11863 -0.51692,0.26995 -0.71094,0.45313c-0.18324,0.1726 -0.32971,0.3666 -0.4375,0.58203c-0.10779,0.21566 -0.18829,0.41447 -0.24219,0.59766c-0.05385,0.18328 -0.08682,0.34623 -0.09766,0.48632c-0.01083,0.12826 -0.01562,0.20194 -0.01562,0.22461h5.23828c0,-0.33416 -0.05236,-0.65131 -0.16016,-0.95312c-0.10778,-0.30191 -0.27558,-0.5667 -0.50195,-0.79297c-0.21558,-0.23718 -0.49687,-0.42436 -0.8418,-0.56445c-0.34493,-0.1401 -0.74744,-0.21094 -1.21094,-0.21094c-0.39882,0 -0.73927,0.05906 -1.01953,0.17773zM106.30551,158.69554c-0.33415,0.12936 -0.62513,0.33304 -0.87305,0.61328c-0.23715,0.26948 -0.42433,0.61961 -0.56445,1.05078c-0.14012,0.43117 -0.21094,0.94428 -0.21094,1.53711c0,0.59285 0.07082,1.10399 0.21094,1.53515c0.14011,0.42039 0.3273,0.77055 0.56445,1.05079c0.24792,0.26953 0.5389,0.47514 0.87305,0.61523c0.34493,0.12926 0.71836,0.19336 1.11719,0.19336c0.39883,0 0.7635,-0.0641 1.09766,-0.19336c0.34492,-0.14014 0.63785,-0.34575 0.875,-0.61523c0.24793,-0.28024 0.44191,-0.6304 0.58203,-1.05079c0.14012,-0.43116 0.20898,-0.9423 0.20898,-1.53515c0,-0.59283 -0.06886,-1.10594 -0.20898,-1.53711c-0.14013,-0.43117 -0.33412,-0.7813 -0.58203,-1.05078c-0.23714,-0.28034 -0.53007,-0.48402 -0.875,-0.61328c-0.33415,-0.1401 -0.69883,-0.21094 -1.09766,-0.21094c-0.39882,0 -0.77225,0.07084 -1.11719,0.21094zM155.90121,158.66233c-0.28026,0.11863 -0.51887,0.26995 -0.71289,0.45313c-0.18324,0.1726 -0.32775,0.3666 -0.43554,0.58203c-0.1078,0.21566 -0.18829,0.41447 -0.24219,0.59766c-0.05385,0.18328 -0.08682,0.34623 -0.09766,0.48632c-0.01083,0.12826 -0.01562,0.20194 -0.01562,0.22461h5.23828c0,-0.33416 -0.05432,-0.65131 -0.16211,-0.95312c-0.10778,-0.30191 -0.27558,-0.5667 -0.50195,-0.79297c-0.21558,-0.23718 -0.49492,-0.42436 -0.83985,-0.56445c-0.34493,-0.1401 -0.74939,-0.21094 -1.21289,-0.21094c-0.39882,0 -0.73732,0.05906 -1.01758,0.17773zM96.66684,158.87327c-0.31258,0.18323 -0.58027,0.4296 -0.80664,0.74219c-0.21557,0.30183 -0.38338,0.65392 -0.50195,1.05273c-0.10779,0.38806 -0.16211,0.79737 -0.16211,1.22852c0,0.42038 0.05432,0.82967 0.16211,1.22851c0.11857,0.39882 0.28637,0.74898 0.50195,1.05078c0.22636,0.30189 0.49405,0.54534 0.80664,0.72852c0.31259,0.18318 0.67438,0.27344 1.08398,0.27344c0.4096,0 0.77139,-0.09026 1.08398,-0.27344c0.32337,-0.18323 0.59301,-0.42668 0.80859,-0.72852c0.21558,-0.3018 0.37658,-0.65196 0.48437,-1.05078c0.11858,-0.39884 0.17773,-0.80813 0.17773,-1.22851c0,-0.43115 -0.05916,-0.84046 -0.17773,-1.22852c-0.10779,-0.39881 -0.26879,-0.7509 -0.48437,-1.05273c-0.21558,-0.31264 -0.48522,-0.55901 -0.80859,-0.74219c-0.31259,-0.18318 -0.67438,-0.27539 -1.08398,-0.27539c-0.4096,0 -0.77139,0.09221 -1.08398,0.27539zM131.56332,168.49827c0.22637,0.16166 0.33985,0.37214 0.33985,0.63086c0,0.07559 -0.00479,0.12986 -0.01563,0.16211l-0.40429,1.8418c-0.04312,0.17234 -0.11393,0.31882 -0.21094,0.4375c-0.09701,0.11867 -0.23183,0.17773 -0.4043,0.17773c-0.17247,0 -0.30729,-0.05906 -0.4043,-0.17773c-0.097,-0.11868 -0.16782,-0.26516 -0.21093,-0.4375l-0.40235,-1.8418c-0.01083,-0.0325 -0.01758,-0.08677 -0.01757,-0.16211c0,-0.25862 0.11347,-0.4691 0.33984,-0.63086c0.22637,-0.16176 0.45818,-0.24219 0.69531,-0.24219c0.23713,0 0.46895,0.08043 0.69531,0.24219zM229.56332,168.59594c0.57129,0.21558 1.04172,0.47842 1.40821,0.79101c0.36648,0.31259 0.62932,0.64139 0.79101,0.98633c0.17247,0.34497 0.25977,0.63595 0.25977,0.87305c0,0.1725 -0.03782,0.32865 -0.11328,0.46875c-0.06466,0.12926 -0.15682,0.24283 -0.27539,0.33984c-0.1078,0.08617 -0.23098,0.15702 -0.3711,0.21094c-0.14013,0.04309 -0.28175,0.06445 -0.42187,0.06445c-0.18325,0 -0.3491,-0.04273 -0.5,-0.1289c-0.15091,-0.08623 -0.25954,-0.22786 -0.32422,-0.42188c-0.08622,-0.24799 -0.21425,-0.4633 -0.38672,-0.64648c-0.17248,-0.18313 -0.37811,-0.3325 -0.61523,-0.45118c-0.22637,-0.12926 -0.47467,-0.22146 -0.74414,-0.27539c-0.26948,-0.06475 -0.53232,-0.09765 -0.79102,-0.09765c-0.77609,0 -1.34351,0.13481 -1.69922,0.40429c-0.35571,0.26948 -0.5332,0.63125 -0.5332,1.08399c0,0.33408 0.10184,0.60374 0.30664,0.80859c0.21558,0.19407 0.49687,0.35991 0.8418,0.5c0.34492,0.12926 0.7329,0.24284 1.16406,0.33985c0.44194,0.08617 0.88908,0.18796 1.34179,0.30664c0.46351,0.10769 0.91064,0.24253 1.3418,0.40429c0.44194,0.16169 0.83476,0.3838 1.17969,0.66407c0.34493,0.26948 0.62137,0.61477 0.82617,1.03515c0.21558,0.4096 0.32227,0.92076 0.32227,1.53516c0,0.70065 -0.14451,1.31073 -0.43555,1.82812c-0.28026,0.50661 -0.65853,0.92561 -1.13281,1.25977c-0.47428,0.3233 -1.02326,0.56675 -1.64844,0.72852c-0.61441,0.16176 -1.25553,0.24218 -1.92383,0.24218c-0.82999,0 -1.53707,-0.10853 -2.11914,-0.32422c-0.58207,-0.21558 -1.06219,-0.49005 -1.43945,-0.82422c-0.36648,-0.33413 -0.63417,-0.69592 -0.80664,-1.08398c-0.16169,-0.38806 -0.24414,-0.75953 -0.24414,-1.11523c0,-0.19394 0.03297,-0.37144 0.09765,-0.53321c0.07544,-0.16163 0.1676,-0.29645 0.27539,-0.40429c0.11858,-0.11843 0.2466,-0.21064 0.38672,-0.27539c0.15092,-0.06476 0.29738,-0.09571 0.4375,-0.09571c0.18325,0 0.35105,0.05427 0.50196,0.16211c0.1509,0.09711 0.25274,0.25811 0.30664,0.48438c0.14013,0.57129 0.39812,1.03008 0.77539,1.375c0.38804,0.34494 0.99813,0.51562 1.82812,0.51562c0.80843,0 1.44955,-0.13966 1.92383,-0.41992c0.47428,-0.28026 0.71094,-0.68471 0.71094,-1.21289c0,-0.35581 -0.10184,-0.64678 -0.30664,-0.87305c-0.20481,-0.23705 -0.47929,-0.43589 -0.82422,-0.59765c-0.33415,-0.16164 -0.71728,-0.29646 -1.14844,-0.4043c-0.43116,-0.11868 -0.87345,-0.23704 -1.32617,-0.35547c-0.44194,-0.12928 -0.87939,-0.27574 -1.31055,-0.4375c-0.43116,-0.16166 -0.81913,-0.36534 -1.16406,-0.61328c-0.33415,-0.2587 -0.60184,-0.57101 -0.80664,-0.9375c-0.2048,-0.37727 -0.3086,-0.84091 -0.3086,-1.39063c0.01076,-0.6144 0.1291,-1.15853 0.35547,-1.63281c0.23714,-0.47428 0.5611,-0.87389 0.97071,-1.19726c0.4096,-0.32325 0.89456,-0.57155 1.45507,-0.74414c0.56052,-0.17235 1.17545,-0.25782 1.84375,-0.25782c0.80844,0 1.49707,0.11358 2.06836,0.33985zM245.56137,168.80492c0.7222,0.36649 1.32549,0.85826 1.81055,1.47266c0.48506,0.6144 0.8517,1.31953 1.09961,2.11719c0.24791,0.78687 0.37109,1.60547 0.37109,2.45703c0,0.86231 -0.12318,1.69257 -0.37109,2.49023c-0.24792,0.78687 -0.61456,1.48716 -1.09961,2.10156c-0.48506,0.6144 -1.08835,1.10617 -1.81055,1.47266c-0.7222,0.36649 -1.55925,0.54883 -2.50781,0.54883c-0.95934,0 -1.79929,-0.18234 -2.52149,-0.54883c-0.72219,-0.36649 -1.32548,-0.85826 -1.81054,-1.47266c-0.48507,-0.6144 -0.8517,-1.31469 -1.09961,-2.10156c-0.23713,-0.79766 -0.35547,-1.62792 -0.35547,-2.49023c0,-0.85156 0.11834,-1.67016 0.35547,-2.45703c0.24792,-0.79766 0.61455,-1.50279 1.09961,-2.11719c0.48506,-0.6144 1.08835,-1.10617 1.81054,-1.47266c0.7222,-0.36649 1.56215,-0.54883 2.52149,-0.54883c0.94856,0 1.78561,0.18234 2.50781,0.54883zM268.09067,168.59594c0.57129,0.21558 1.03976,0.47842 1.40625,0.79101c0.36648,0.31259 0.63128,0.64139 0.79297,0.98633c0.17247,0.34497 0.25781,0.63595 0.25781,0.87305c0,0.1725 -0.03782,0.32865 -0.11328,0.46875c-0.06468,0.12926 -0.15486,0.24283 -0.27344,0.33984c-0.10779,0.08617 -0.23293,0.15702 -0.37305,0.21094c-0.14013,0.04309 -0.2798,0.06445 -0.41992,0.06445c-0.18325,0 -0.35105,-0.04273 -0.50195,-0.1289c-0.15091,-0.08623 -0.25759,-0.22786 -0.32227,-0.42188c-0.08622,-0.24799 -0.2162,-0.4633 -0.38867,-0.64648c-0.17245,-0.18313 -0.37613,-0.3325 -0.61328,-0.45118c-0.22636,-0.12926 -0.47467,-0.22146 -0.74414,-0.27539c-0.26948,-0.06475 -0.53427,-0.09765 -0.79297,-0.09765c-0.77609,0 -1.34156,0.13481 -1.69727,0.40429c-0.3557,0.26948 -0.5332,0.63125 -0.5332,1.08399c0,0.33408 0.10184,0.60374 0.30664,0.80859c0.21558,0.19407 0.49687,0.35991 0.8418,0.5c0.34493,0.12926 0.7329,0.24284 1.16406,0.33985c0.44194,0.08617 0.88908,0.18796 1.3418,0.30664c0.4635,0.10769 0.91063,0.24253 1.3418,0.40429c0.44194,0.16169 0.83475,0.3838 1.17968,0.66407c0.34493,0.26948 0.61942,0.61477 0.82422,1.03515c0.21559,0.4096 0.32422,0.92076 0.32422,1.53516c0,0.70065 -0.14646,1.31073 -0.4375,1.82812c-0.28025,0.50661 -0.65658,0.92561 -1.13086,1.25977c-0.47428,0.3233 -1.02521,0.56675 -1.65039,0.72852c-0.61441,0.16176 -1.25553,0.24218 -1.92383,0.24218c-0.82998,0 -1.53512,-0.10853 -2.11719,-0.32422c-0.58207,-0.21558 -1.06218,-0.49005 -1.43945,-0.82422c-0.36648,-0.33413 -0.63612,-0.69592 -0.80859,-1.08398c-0.16169,-0.38806 -0.24219,-0.75953 -0.24219,-1.11523c0,-0.19394 0.03298,-0.37144 0.09766,-0.53321c0.07546,-0.16163 0.16564,-0.29645 0.27343,-0.40429c0.11858,-0.11843 0.24856,-0.21064 0.38868,-0.27539c0.15091,-0.06476 0.29738,-0.09571 0.4375,-0.09571c0.18324,0 0.34909,0.05427 0.5,0.16211c0.1509,0.09711 0.25469,0.25811 0.30859,0.48438c0.14013,0.57129 0.39812,1.03008 0.77539,1.375c0.38805,0.34494 0.99619,0.51562 1.82617,0.51562c0.80843,0 1.4515,-0.13966 1.92578,-0.41992c0.47428,-0.28026 0.71094,-0.68471 0.71094,-1.21289c0,-0.35581 -0.10379,-0.64678 -0.30859,-0.87305c-0.20481,-0.23705 -0.47929,-0.43589 -0.82422,-0.59765c-0.33415,-0.16164 -0.71533,-0.29646 -1.14649,-0.4043c-0.43116,-0.11868 -0.87345,-0.23704 -1.32617,-0.35547c-0.44194,-0.12928 -0.87938,-0.27574 -1.31055,-0.4375c-0.43116,-0.16166 -0.81913,-0.36534 -1.16406,-0.61328c-0.33415,-0.2587 -0.60379,-0.57101 -0.80859,-0.9375c-0.2048,-0.37727 -0.30664,-0.84091 -0.30664,-1.39063c0.01078,-0.6144 0.1291,-1.15853 0.35547,-1.63281c0.23713,-0.47428 0.56109,-0.87389 0.9707,-1.19726c0.40961,-0.32325 0.89457,-0.57155 1.45508,-0.74414c0.56051,-0.17235 1.17544,-0.25782 1.84375,-0.25782c0.80843,0 1.49707,0.11358 2.06836,0.33985zM68.702,168.48069c0.29104,0 0.53934,0.10375 0.74414,0.3086c0.2048,0.2048 0.30664,0.45311 0.30664,0.74414c0,0.30178 -0.10184,0.55491 -0.30664,0.75976c-0.2048,0.20485 -0.45311,0.30664 -0.74414,0.30664h-5.44922v2.97461h4.54297c0.30181,0 0.55496,0.10854 0.75976,0.32422c0.2048,0.2048 0.30859,0.45312 0.30859,0.74414c0,0.29095 -0.10379,0.54408 -0.30859,0.75977c-0.2048,0.20485 -0.45795,0.30664 -0.75976,0.30664h-4.54297v4.30078c0,0.34497 -0.12317,0.63594 -0.37109,0.87305c-0.23714,0.2371 -0.52812,0.35546 -0.87305,0.35546c-0.34493,0 -0.63591,-0.11836 -0.87305,-0.35546c-0.23714,-0.23716 -0.35547,-0.52813 -0.35547,-0.87305v-10.26758c0,-0.09701 0.01454,-0.21537 0.04687,-0.35547c0.03233,-0.15098 0.0983,-0.29066 0.19531,-0.41992c0.09701,-0.14009 0.22503,-0.25367 0.38672,-0.33984c0.17246,-0.09701 0.38974,-0.14649 0.64844,-0.14649zM209.25082,168.48069c0.29104,0 0.53934,0.10375 0.74414,0.3086c0.2048,0.2048 0.30664,0.45311 0.30664,0.74414c0,0.30178 -0.10184,0.55491 -0.30664,0.75976c-0.2048,0.20485 -0.4531,0.30664 -0.74414,0.30664h-5.66015v2.76563h4.7539c0.30182,0 0.55497,0.10658 0.75977,0.32226c0.2048,0.2048 0.30859,0.4531 0.30859,0.74414c0,0.29093 -0.10379,0.54408 -0.30859,0.75977c-0.2048,0.20485 -0.45795,0.30664 -0.75977,0.30664h-4.7539v3.62109h5.66015c0.29104,0 0.53934,0.10375 0.74414,0.3086c0.2048,0.2048 0.30664,0.45114 0.30664,0.74219c0,0.30175 -0.10184,0.55686 -0.30664,0.76171c-0.2048,0.20485 -0.4531,0.30664 -0.74414,0.30664h-6.85546c-0.15091,0 -0.30223,-0.02136 -0.45313,-0.06445c-0.15089,-0.05392 -0.29056,-0.12955 -0.41992,-0.22656c-0.11858,-0.10772 -0.21558,-0.24253 -0.29102,-0.4043c-0.07546,-0.16179 -0.11328,-0.35576 -0.11328,-0.58203v-10.21875c0,-0.09701 0.0165,-0.21537 0.04883,-0.35547c0.03235,-0.15098 0.09635,-0.29066 0.19336,-0.41992c0.09701,-0.14009 0.22698,-0.25367 0.38867,-0.33984c0.17247,-0.09701 0.38779,-0.14649 0.64649,-0.14649zM81.77817,168.82055c0.23715,0.22636 0.35547,0.50279 0.35547,0.82617v10.42773c0,0.32348 -0.11832,0.59795 -0.35547,0.82422c-0.22636,0.22627 -0.50085,0.33984 -0.82422,0.33984c-0.32336,0 -0.59785,-0.11357 -0.82422,-0.33984c-0.22637,-0.23715 -0.33984,-0.51163 -0.33984,-0.82422v-10.42773c0,-0.32348 0.11347,-0.59991 0.33984,-0.82617c0.23714,-0.22627 0.51162,-0.33789 0.82422,-0.33789c0.32336,0 0.59785,0.11162 0.82422,0.33789zM85.60043,168.82055c0.23713,0.22636 0.35547,0.50279 0.35547,0.82617v10.42773c0,0.32348 -0.11834,0.59795 -0.35547,0.82422c-0.22636,0.22627 -0.5028,0.33984 -0.82617,0.33984c-0.32336,0 -0.59785,-0.11357 -0.82422,-0.33984c-0.22637,-0.23715 -0.33984,-0.51163 -0.33984,-0.82422v-10.42773c0,-0.32348 0.11347,-0.59991 0.33984,-0.82617c0.23714,-0.22627 0.51163,-0.33789 0.82422,-0.33789c0.32336,0 0.5998,0.11162 0.82617,0.33789zM152.80551,168.62719c0.21559,0.08635 0.39988,0.21632 0.55078,0.38867c0.16169,0.16179 0.28487,0.35576 0.3711,0.58203c0.097,0.22634 0.14453,0.46787 0.14453,0.72656v5.85352h0.87304c0.29104,0 0.53934,0.10179 0.74414,0.30664c0.21559,0.2048 0.32422,0.45796 0.32422,0.75976c0,0.291 -0.10863,0.53929 -0.32422,0.74414c-0.2048,0.20486 -0.4531,0.3086 -0.74414,0.3086h-0.87304v1.71289c0,0.34497 -0.12318,0.63594 -0.3711,0.87305c-0.23714,0.2371 -0.52811,0.35546 -0.87304,0.35546c-0.34492,0 -0.6359,-0.11836 -0.87305,-0.35546c-0.23713,-0.23716 -0.35547,-0.52813 -0.35547,-0.87305v-1.71289h-4.00976c-0.3126,0 -0.59389,-0.04948 -0.8418,-0.14649c-0.24793,-0.10791 -0.46325,-0.24757 -0.64649,-0.41992c-0.17247,-0.17255 -0.30728,-0.37139 -0.40429,-0.59765c-0.09701,-0.23716 -0.14453,-0.48545 -0.14453,-0.74414c0,-0.54972 0.21047,-1.06767 0.63086,-1.55274l4.52734,-5.33594c0.23714,-0.28026 0.47865,-0.51692 0.72656,-0.71093c0.2587,-0.20485 0.55452,-0.30664 0.88867,-0.30664c0.23714,0 0.46411,0.04752 0.67969,0.14453zM158.88168,168.83812c0.24791,0.23716 0.37305,0.52813 0.37305,0.87305v3.91211l4.34961,-4.68945c0.2048,-0.21569 0.45795,-0.32227 0.75976,-0.32227c0.30181,0 0.57145,0.10658 0.8086,0.32227c0.23713,0.21558 0.35547,0.49687 0.35547,0.84179c0,0.26936 -0.0873,0.48952 -0.25977,0.66211l-3.12109,3.18555l4.07617,5.70703c0.16169,0.22635 0.24219,0.47466 0.24219,0.74414c0,0.1186 -0.02814,0.24858 -0.08203,0.38867c-0.04312,0.14002 -0.11198,0.27 -0.20899,0.38868c-0.09701,0.10759 -0.22214,0.19784 -0.37305,0.27343c-0.1509,0.07534 -0.3284,0.11328 -0.5332,0.11328c-0.18324,0 -0.35589,-0.03794 -0.51758,-0.11328c-0.16168,-0.07533 -0.2965,-0.18891 -0.40429,-0.33984l-3.75,-5.59375l-1.3418,1.35937v3.45899c0,0.34497 -0.12514,0.63594 -0.37305,0.87305c-0.23714,0.2371 -0.52811,0.35546 -0.87304,0.35546c-0.34494,0 -0.63592,-0.11836 -0.87305,-0.35546c-0.23713,-0.23716 -0.35547,-0.52813 -0.35547,-0.87305v-10.29883c0,-0.34497 0.11834,-0.63594 0.35547,-0.87305c0.23714,-0.2371 0.52812,-0.35546 0.87305,-0.35546c0.34491,0 0.63589,0.11836 0.87304,0.35546zM177.32895,168.48266c0.77609,0 1.46668,0.18718 2.07031,0.56445c0.61441,0.36649 1.12555,0.85146 1.53516,1.45508c0.42038,0.59285 0.73949,1.2718 0.95508,2.03711c0.21558,0.7653 0.32226,1.53638 0.32226,2.3125c0,0.78687 -0.10668,1.56282 -0.32226,2.32812c-0.21558,0.75452 -0.5347,1.43347 -0.95508,2.03711c-0.40961,0.60362 -0.91591,1.09538 -1.51953,1.47266c-0.60363,0.36649 -1.29907,0.54882 -2.08594,0.54882h-4.39844c-0.15091,0 -0.30027,-0.02136 -0.45117,-0.06445c-0.15092,-0.05392 -0.29254,-0.12955 -0.42188,-0.22656c-0.11855,-0.10772 -0.21555,-0.24253 -0.29101,-0.4043c-0.07547,-0.16179 -0.11328,-0.35576 -0.11328,-0.58203v-10.21875c0,-0.09701 0.0165,-0.21537 0.04883,-0.35547c0.03235,-0.15098 0.0983,-0.29066 0.19531,-0.41992c0.09701,-0.14009 0.22503,-0.25367 0.38672,-0.33984c0.17246,-0.09701 0.38778,-0.14453 0.64648,-0.14453zM185.37778,168.83812c0.24791,0.23716 0.37109,0.52813 0.37109,0.87305v10.29883c0,0.34497 -0.12318,0.63594 -0.37109,0.87305c-0.23714,0.2371 -0.52812,0.35546 -0.87305,0.35546c-0.34492,0 -0.63589,-0.11836 -0.87305,-0.35546c-0.23715,-0.23716 -0.35547,-0.52813 -0.35547,-0.87305v-10.29883c0,-0.34497 0.11832,-0.63594 0.35547,-0.87305c0.23714,-0.2371 0.52812,-0.35546 0.87305,-0.35546c0.34492,0 0.63589,0.11836 0.87305,0.35546zM190.42465,168.86937c0.34492,0.2587 0.58158,0.61565 0.71094,1.06836l2.29492,8.14844l2.29688,-8.14844c0.12934,-0.45271 0.36116,-0.80966 0.69531,-1.06836c0.34493,-0.25869 0.75908,-0.38671 1.24414,-0.38671c0.25871,0 0.50701,0.04273 0.74414,0.1289c0.23715,0.07534 0.44763,0.18892 0.63086,0.33985c0.18324,0.15085 0.32971,0.32835 0.4375,0.5332c0.10779,0.2048 0.16016,0.43662 0.16016,0.69531v9.89453c0,0.31265 -0.11153,0.58712 -0.3379,0.82422c-0.22636,0.22627 -0.5028,0.33984 -0.82617,0.33984c-0.32336,0 -0.59785,-0.11357 -0.82422,-0.33984c-0.22636,-0.23715 -0.33984,-0.51163 -0.33984,-0.82422v-8.4082l-2.34375,8.4082c-0.09701,0.35561 -0.28615,0.64174 -0.56641,0.85742c-0.26947,0.20485 -0.59343,0.30664 -0.9707,0.30664c-0.37727,0 -0.69927,-0.10179 -0.96875,-0.30664c-0.26948,-0.21558 -0.45377,-0.50171 -0.55078,-0.85742l-2.34375,-8.4082v8.4082c0,0.31265 -0.11832,0.58712 -0.35547,0.82422c-0.22636,0.22627 -0.50084,0.33984 -0.82422,0.33984c-0.31258,0 -0.58902,-0.11357 -0.82617,-0.33984c-0.22637,-0.23715 -0.33789,-0.51163 -0.33789,-0.82422v-9.89453c0,-0.25864 0.05236,-0.49046 0.16016,-0.69531c0.11858,-0.20478 0.26989,-0.38228 0.45312,-0.5332c0.18323,-0.15093 0.39371,-0.26451 0.63086,-0.33985c0.23715,-0.08617 0.4806,-0.1289 0.72852,-0.1289c0.48506,0 0.89436,0.12802 1.22851,0.38671zM213.74106,168.77367c0.28026,0.18326 0.52371,0.4461 0.72851,0.79102l4.78516,8.01953v-7.9375c0,-0.32348 0.11348,-0.59991 0.33984,-0.82617c0.23714,-0.22627 0.51163,-0.33789 0.82422,-0.33789c0.32337,0 0.59785,0.11162 0.82422,0.33789c0.23715,0.22636 0.35547,0.50279 0.35547,0.82617v10.20117c0,0.19414 -0.03586,0.37843 -0.11133,0.55078c-0.07546,0.16177 -0.17926,0.30629 -0.30859,0.43555c-0.11856,0.12951 -0.26308,0.2313 -0.43555,0.30664c-0.16169,0.06475 -0.33919,0.09765 -0.5332,0.09765c-0.37727,0 -0.70607,-0.09699 -0.98633,-0.29101c-0.26948,-0.19402 -0.50809,-0.45686 -0.71289,-0.79102l-4.78516,-8.02148v7.93945c0,0.31265 -0.11831,0.58712 -0.35547,0.82422c-0.22636,0.22627 -0.50084,0.33984 -0.82421,0.33984c-0.31258,0 -0.58902,-0.11357 -0.82618,-0.33984c-0.22636,-0.23715 -0.33789,-0.51163 -0.33789,-0.82422v-10.21875c0,-0.37727 0.13482,-0.69929 0.4043,-0.96875c0.26948,-0.26948 0.59633,-0.40429 0.98438,-0.40429c0.37726,0 0.70122,0.097 0.9707,0.29101zM235.84067,168.83812c0.24791,0.23716 0.37304,0.52813 0.37304,0.87305v10.29883c0,0.34497 -0.12513,0.63594 -0.37304,0.87305c-0.23714,0.2371 -0.52812,0.35546 -0.87305,0.35546c-0.34492,0 -0.63589,-0.11836 -0.87305,-0.35546c-0.23712,-0.23716 -0.35546,-0.52813 -0.35547,-0.87305v-10.29883c0.00001,-0.34497 0.11835,-0.63594 0.35547,-0.87305c0.23714,-0.2371 0.52812,-0.35546 0.87305,-0.35546c0.34492,0 0.63589,0.11836 0.87305,0.35546zM252.2684,168.77367c0.28026,0.18326 0.52176,0.4461 0.72656,0.79102l4.78711,8.01953v-7.9375c0,-0.32348 0.11348,-0.59991 0.33985,-0.82617c0.23714,-0.22627 0.51162,-0.33789 0.82422,-0.33789c0.32336,0 0.59785,0.11162 0.82422,0.33789c0.23715,0.22636 0.35546,0.50279 0.35546,0.82617v10.20117c0,0.19414 -0.03781,0.37843 -0.11328,0.55078c-0.07546,0.16177 -0.1773,0.30629 -0.30664,0.43555c-0.11856,0.12951 -0.26503,0.2313 -0.4375,0.30664c-0.16169,0.06475 -0.33919,0.09765 -0.5332,0.09765c-0.37727,0 -0.70607,-0.09699 -0.98633,-0.29101c-0.26948,-0.19402 -0.50614,-0.45686 -0.71094,-0.79102l-4.78515,-8.02148v7.93945c0,0.31265 -0.1203,0.58712 -0.35742,0.82422c-0.22636,0.22627 -0.50085,0.33984 -0.82422,0.33984c-0.31258,0 -0.58707,-0.11357 -0.82422,-0.33984c-0.22637,-0.23715 -0.33985,-0.51163 -0.33985,-0.82422v-10.21875c0,-0.37727 0.13483,-0.69929 0.4043,-0.96875c0.26948,-0.26948 0.59828,-0.40429 0.98633,-0.40429c0.37727,0 0.70122,0.097 0.9707,0.29101zM241.46957,170.77758c-0.43116,0.25872 -0.78615,0.59914 -1.0664,1.01953c-0.28025,0.42036 -0.48588,0.89854 -0.61524,1.4375c-0.12936,0.52818 -0.19336,1.06744 -0.19336,1.61719c0,0.54972 0.064,1.09385 0.19336,1.63281c0.12935,0.52818 0.33498,1.00831 0.61524,1.43945c0.28025,0.42039 0.63524,0.76084 1.0664,1.01953c0.44195,0.25872 0.96958,0.38672 1.58399,0.38672c0.61441,0 1.1372,-0.128 1.56836,-0.38672c0.43116,-0.25869 0.7881,-0.59914 1.06836,-1.01953c0.28024,-0.43114 0.48392,-0.91127 0.61328,-1.43945c0.12936,-0.53896 0.19531,-1.08309 0.19531,-1.63281c0,-0.54975 -0.06595,-1.08901 -0.19531,-1.61719c-0.12935,-0.53896 -0.33303,-1.01714 -0.61328,-1.4375c-0.28026,-0.42039 -0.6372,-0.76081 -1.06836,-1.01953c-0.43116,-0.2587 -0.95395,-0.38867 -1.56836,-0.38867c-0.61441,0 -1.14204,0.12997 -1.58399,0.38867zM174.12778,179.10375h2.27929c0.63597,0 1.16556,-0.11837 1.58594,-0.35547c0.43116,-0.24791 0.77451,-0.56991 1.0332,-0.96875c0.2587,-0.39882 0.44299,-0.85277 0.55079,-1.35937c0.10779,-0.51742 0.1621,-1.04021 0.1621,-1.56836c0,-0.52818 -0.05431,-1.04415 -0.1621,-1.55079c-0.10779,-0.5066 -0.29209,-0.96055 -0.55079,-1.35937c-0.25869,-0.39882 -0.60204,-0.72081 -1.0332,-0.96875c-0.42038,-0.24794 -0.94997,-0.37305 -1.58594,-0.37305h-2.27929zM147.50278,176.17796h3.89648v-4.65625zM72.32114,172.23266c0.22637,0.22636 0.33984,0.496 0.33984,0.80859v4.56055c0,0.23707 0.04268,0.45726 0.12891,0.66211c0.09701,0.20472 0.22214,0.38901 0.37305,0.55078c0.15091,0.15093 0.3284,0.26929 0.5332,0.35547c0.21557,0.08617 0.43574,0.1289 0.66211,0.1289c0.23714,0 0.45926,-0.04273 0.66406,-0.1289c0.2048,-0.08618 0.3823,-0.20454 0.5332,-0.35547c0.15093,-0.16164 0.26924,-0.34593 0.35547,-0.55078c0.09701,-0.20483 0.14648,-0.42501 0.14648,-0.66211v-4.56055c0,-0.31269 0.11152,-0.58233 0.33789,-0.80859c0.23714,-0.23711 0.51843,-0.35547 0.8418,-0.35547c0.32336,0 0.59785,0.11836 0.82422,0.35547c0.22637,0.22636 0.33984,0.496 0.33984,0.80859v7.0332c0,0.31265 -0.11347,0.58712 -0.33984,0.82422c-0.22636,0.22627 -0.50085,0.33984 -0.82422,0.33984c-0.32336,0 -0.59785,-0.11357 -0.82422,-0.33984c-0.22637,-0.23715 -0.33984,-0.51163 -0.33984,-0.82422c-0.09701,0.1186 -0.22698,0.24858 -0.38867,0.38867c-0.16168,0.12926 -0.35566,0.25242 -0.58203,0.3711c-0.22636,0.10784 -0.48436,0.20484 -0.77539,0.29101c-0.29104,0.07534 -0.61984,0.11328 -0.98633,0.11328c-0.4096,0 -0.79757,-0.06409 -1.16406,-0.19335c-0.36649,-0.14012 -0.69045,-0.3341 -0.9707,-0.58204c-0.26947,-0.25869 -0.4848,-0.56133 -0.64648,-0.90625c-0.16169,-0.35572 -0.24219,-0.74854 -0.24219,-1.17968v-5.33594c0,-0.31269 0.11347,-0.58233 0.33984,-0.80859c0.23714,-0.23711 0.51647,-0.35547 0.83984,-0.35547c0.32336,0 0.59785,0.11836 0.82422,0.35547zM93.2684,172.29711c0.52817,0.26948 0.96077,0.60993 1.29492,1.01953c0.34493,0.4096 0.59808,0.85189 0.75976,1.32617c0.16169,0.47428 0.24219,0.90975 0.24219,1.3086c0,0.37724 -0.07082,0.68956 -0.21094,0.9375c-0.14013,0.24793 -0.3438,0.37304 -0.61328,0.37304h-5.17383c-0.11855,0 -0.21071,0.04274 -0.27539,0.12891c-0.0539,0.07559 -0.08203,0.17738 -0.08203,0.30664c0,0.16159 0.04948,0.35072 0.14648,0.56641c0.09702,0.2048 0.24153,0.40364 0.43555,0.59765c0.19402,0.19412 0.43264,0.35707 0.71289,0.48633c0.29103,0.12926 0.62469,0.19336 1.00195,0.19336c0.22635,0 0.42518,-0.02137 0.59766,-0.06445c0.17247,-0.05393 0.33542,-0.12956 0.48633,-0.22657c0.15092,-0.097 0.29543,-0.22016 0.43555,-0.37109c0.15092,-0.16159 0.31872,-0.35072 0.50195,-0.56641c0.16169,-0.19401 0.34403,-0.29101 0.54883,-0.29101c0.12933,0 0.25931,0.0329 0.38867,0.09765c0.12936,0.06451 0.24283,0.14997 0.33984,0.25782c0.09701,0.10784 0.17751,0.231 0.24219,0.37109c0.06468,0.12939 0.09766,0.2642 0.09766,0.4043c0,0.14012 -0.07566,0.34091 -0.22656,0.59961c-0.14013,0.24791 -0.36225,0.50107 -0.66406,0.75976c-0.30181,0.24794 -0.67814,0.4681 -1.13086,0.66211c-0.45272,0.18318 -0.992,0.27539 -1.61719,0.27539c-0.71142,0 -1.34769,-0.12995 -1.9082,-0.38867c-0.56051,-0.2587 -1.03383,-0.60401 -1.42187,-1.03516c-0.37727,-0.44195 -0.66825,-0.94824 -0.87305,-1.51953c-0.19402,-0.58207 -0.29102,-1.19699 -0.29102,-1.84375c0,-0.64672 0.08534,-1.25488 0.25781,-1.82617c0.18324,-0.58207 0.45773,-1.08836 0.82422,-1.51953c0.36649,-0.44193 0.82527,-0.79209 1.375,-1.05078c0.54973,-0.25872 1.1957,-0.38867 1.93945,-0.38867c0.7222,0 1.34198,0.13965 1.85937,0.41992zM98.51254,172.23266c0.22637,0.22636 0.33984,0.496 0.33984,0.80859c0.09703,-0.10784 0.21535,-0.231 0.35547,-0.37109c0.1509,-0.1401 0.31386,-0.26521 0.48633,-0.37305c0.18325,-0.11868 0.37239,-0.21568 0.56641,-0.29102c0.19403,-0.08617 0.38802,-0.1289 0.58203,-0.1289c0.43116,0 0.72214,0.11357 0.87305,0.33984c0.16169,0.22637 0.24219,0.49116 0.24219,0.79297c0,0.24801 -0.05916,0.43519 -0.17773,0.56445c-0.10778,0.11843 -0.2494,0.21064 -0.42187,0.27539c-0.16169,0.06476 -0.33919,0.11903 -0.5332,0.16211c-0.19401,0.03225 -0.37635,0.07978 -0.54883,0.14453c-0.3126,0.11858 -0.56575,0.27474 -0.75976,0.46875c-0.18325,0.18316 -0.32487,0.38393 -0.42187,0.59961c-0.09701,0.2047 -0.16103,0.41518 -0.19336,0.63086c-0.03233,0.21564 -0.04883,0.41448 -0.04883,0.59766v3.62109c0,0.32348 -0.11834,0.59795 -0.35547,0.82422c-0.22636,0.22627 -0.50084,0.33984 -0.82422,0.33984c-0.3126,0 -0.58709,-0.11357 -0.82422,-0.33984c-0.22637,-0.23715 -0.33984,-0.51163 -0.33984,-0.82422v-7.0332c0,-0.31269 0.11347,-0.58233 0.33984,-0.80859c0.23714,-0.23711 0.51647,-0.35547 0.83984,-0.35547c0.32336,0 0.59785,0.11836 0.82422,0.35547zM108.35043,172.29711c0.52817,0.26948 0.96077,0.60993 1.29492,1.01953c0.34493,0.4096 0.59808,0.85189 0.75977,1.32617c0.16169,0.47428 0.24219,0.90975 0.24219,1.3086c0,0.37724 -0.07082,0.68956 -0.21094,0.9375c-0.14013,0.24793 -0.3438,0.37304 -0.61328,0.37304h-5.17383c-0.11855,0 -0.21071,0.04274 -0.27539,0.12891c-0.0539,0.07559 -0.08008,0.17738 -0.08008,0.30664c0,0.16159 0.04752,0.35072 0.14453,0.56641c0.09702,0.2048 0.24348,0.40364 0.4375,0.59765c0.19402,0.19412 0.43068,0.35707 0.71094,0.48633c0.29103,0.12926 0.62469,0.19336 1.00195,0.19336c0.22635,0 0.42518,-0.02137 0.59766,-0.06445c0.17247,-0.05393 0.33542,-0.12956 0.48633,-0.22657c0.15092,-0.097 0.29543,-0.22016 0.43555,-0.37109c0.15092,-0.16159 0.31872,-0.35072 0.50195,-0.56641c0.16169,-0.19401 0.34403,-0.29101 0.54883,-0.29101c0.12933,0 0.25931,0.0329 0.38867,0.09765c0.12936,0.06451 0.24284,0.14997 0.33984,0.25782c0.09701,0.10784 0.17751,0.231 0.24219,0.37109c0.06468,0.12939 0.09766,0.2642 0.09766,0.4043c0,0.14012 -0.07566,0.34091 -0.22656,0.59961c-0.14013,0.24791 -0.36225,0.50107 -0.66406,0.75976c-0.30181,0.24794 -0.67814,0.4681 -1.13086,0.66211c-0.45272,0.18318 -0.992,0.27539 -1.61719,0.27539c-0.71142,0 -1.34769,-0.12995 -1.9082,-0.38867c-0.56051,-0.2587 -1.03383,-0.60401 -1.42187,-1.03516c-0.37727,-0.44195 -0.66825,-0.94824 -0.87305,-1.51953c-0.19401,-0.58207 -0.29101,-1.19699 -0.29101,-1.84375c0,-0.64672 0.08534,-1.25488 0.25781,-1.82617c0.18324,-0.58207 0.45773,-1.08836 0.82422,-1.51953c0.36649,-0.44193 0.82527,-0.79209 1.375,-1.05078c0.54973,-0.25872 1.1957,-0.38867 1.93945,-0.38867c0.72219,0 1.34198,0.13965 1.85937,0.41992zM113.60825,172.23266c0.22637,0.22636 0.33984,0.496 0.33984,0.80859c0.09701,-0.10784 0.22698,-0.231 0.38867,-0.37109c0.16168,-0.1401 0.35566,-0.26521 0.58203,-0.37305c0.22636,-0.11868 0.48436,-0.21568 0.77539,-0.29102c0.29103,-0.08617 0.61984,-0.1289 0.98633,-0.1289c0.4096,0 0.79757,0.07084 1.16406,0.21093c0.36649,0.1401 0.68365,0.3341 0.95312,0.58204c0.28026,0.24793 0.49753,0.54859 0.64844,0.90429c0.16169,0.34492 0.24219,0.7329 0.24219,1.16406v5.33594c0,0.31265 -0.11347,0.58712 -0.33984,0.82422c-0.22636,0.22627 -0.50084,0.33984 -0.82422,0.33984c-0.32338,0 -0.60467,-0.11357 -0.8418,-0.33984c-0.22637,-0.23715 -0.33984,-0.51163 -0.33984,-0.82422v-4.55859c0,-0.23708 -0.04752,-0.45921 -0.14453,-0.66406c-0.08622,-0.2048 -0.20456,-0.38228 -0.35547,-0.53321c-0.15091,-0.15093 -0.3284,-0.26929 -0.5332,-0.35547c-0.20482,-0.097 -0.42693,-0.14453 -0.66406,-0.14453c-0.22636,0 -0.44652,0.04753 -0.66211,0.14453c-0.2048,0.08618 -0.3823,0.20454 -0.5332,0.35547c-0.1509,0.15088 -0.27604,0.32836 -0.37305,0.53321c-0.08622,0.20482 -0.12891,0.42696 -0.12891,0.66406v4.55859c0,0.31265 -0.11347,0.58712 -0.33984,0.82422c-0.22636,0.22627 -0.50085,0.33984 -0.82422,0.33984c-0.32336,0 -0.60464,-0.11357 -0.8418,-0.33984c-0.22637,-0.23715 -0.33789,-0.51163 -0.33789,-0.82422v-7.0332c0,-0.31269 0.11152,-0.58233 0.33789,-0.80859c0.23714,-0.23711 0.51843,-0.35547 0.8418,-0.35547c0.32336,0 0.59785,0.11836 0.82422,0.35547zM126.90121,172.29711c0.52817,0.26948 0.95882,0.60993 1.29297,1.01953c0.34493,0.4096 0.59808,0.85189 0.75977,1.32617c0.16169,0.47428 0.24219,0.90975 0.24219,1.3086c0,0.37724 -0.06887,0.68956 -0.20899,0.9375c-0.14013,0.24793 -0.34575,0.37304 -0.61523,0.37304h-5.17383c-0.11855,0 -0.21071,0.04274 -0.27539,0.12891c-0.0539,0.07559 -0.08008,0.17738 -0.08008,0.30664c0,0.16159 0.04752,0.35072 0.14453,0.56641c0.09702,0.2048 0.24348,0.40364 0.4375,0.59765c0.19402,0.19412 0.43068,0.35707 0.71094,0.48633c0.29103,0.12926 0.62664,0.19336 1.00391,0.19336c0.22635,0 0.42518,-0.02137 0.59766,-0.06445c0.17247,-0.05393 0.33347,-0.12956 0.48437,-0.22657c0.15092,-0.097 0.29738,-0.22016 0.4375,-0.37109c0.15092,-0.16159 0.31677,-0.35072 0.5,-0.56641c0.16169,-0.19401 0.34598,-0.29101 0.55078,-0.29101c0.12936,0 0.25738,0.0329 0.38672,0.09765c0.12936,0.06451 0.24283,0.14997 0.33984,0.25782c0.09701,0.10784 0.17751,0.231 0.24219,0.37109c0.06468,0.12939 0.09765,0.2642 0.09765,0.4043c0,0.14012 -0.07565,0.34091 -0.22656,0.59961c-0.14013,0.24791 -0.36029,0.50107 -0.66211,0.75976c-0.30181,0.24794 -0.68009,0.4681 -1.13281,0.66211c-0.45272,0.18318 -0.99005,0.27539 -1.61523,0.27539c-0.71142,0 -1.34769,-0.12995 -1.9082,-0.38867c-0.56051,-0.2587 -1.03578,-0.60401 -1.42383,-1.03516c-0.37727,-0.44195 -0.66825,-0.94824 -0.87305,-1.51953c-0.19402,-0.58207 -0.29102,-1.19699 -0.29102,-1.84375c0,-0.64672 0.08729,-1.25488 0.25977,-1.82617c0.18324,-0.58207 0.45773,-1.08836 0.82422,-1.51953c0.36649,-0.44193 0.82331,-0.79209 1.37305,-1.05078c0.54973,-0.25872 1.19765,-0.38867 1.94141,-0.38867c0.7222,0 1.34198,0.13965 1.85937,0.41992zM137.91684,172.11937c0.45272,0.15101 0.83584,0.34014 1.14844,0.56641c0.32336,0.22637 0.57167,0.47466 0.74414,0.74414c0.18323,0.25877 0.27344,0.5003 0.27344,0.72656c-0.00001,0.14002 -0.03103,0.27 -0.09571,0.38868c-0.06468,0.11867 -0.15197,0.22046 -0.25976,0.30664c-0.09701,0.07533 -0.21049,0.14139 -0.33985,0.19531c-0.11855,0.04309 -0.23689,0.06445 -0.35547,0.06445c-0.12933,0 -0.25251,-0.02811 -0.37109,-0.08203c-0.11858,-0.06476 -0.20587,-0.17134 -0.25977,-0.32226c-0.08622,-0.20483 -0.20456,-0.37749 -0.35546,-0.51758c-0.14014,-0.1401 -0.30115,-0.25367 -0.48438,-0.33985c-0.17247,-0.097 -0.36161,-0.16785 -0.56641,-0.21093c-0.19403,-0.04309 -0.38801,-0.06446 -0.58203,-0.06446c-0.42038,0 -0.77052,0.07564 -1.05078,0.22656c-0.28026,0.14012 -0.41992,0.3671 -0.41992,0.67969c0,0.25875 0.13482,0.45756 0.4043,0.59766c0.28025,0.14009 0.62555,0.2652 1.03515,0.37305c0.40961,0.097 0.8519,0.20358 1.32618,0.32226c0.47427,0.10779 0.91461,0.25911 1.32421,0.45313c0.40961,0.18325 0.75006,0.43154 1.01953,0.74414c0.27989,0.3014 0.41955,0.70528 0.41993,1.21093v0.00196c-0.00026,0.53811 -0.1021,1.01279 -0.30664,1.42187c-0.19403,0.39882 -0.46367,0.73732 -0.8086,1.01758c-0.33415,0.26951 -0.73376,0.47514 -1.19726,0.61523c-0.45272,0.1401 -0.93769,0.20899 -1.45508,0.20899c-0.65753,0 -1.23948,-0.09026 -1.74609,-0.27344c-0.50662,-0.19401 -0.93242,-0.43262 -1.27735,-0.71289c-0.34492,-0.28026 -0.60776,-0.58579 -0.79101,-0.91992c-0.17248,-0.34495 -0.25977,-0.66406 -0.25977,-0.95508c0,-0.24789 0.11348,-0.44673 0.33984,-0.59766c0.23714,-0.15092 0.49029,-0.22656 0.75977,-0.22656c0.18325,0 0.35105,0.03769 0.50195,0.11328c0.15091,0.07534 0.25759,0.19371 0.32227,0.35547c0.18324,0.45271 0.44804,0.81935 0.79297,1.09961c0.34493,0.28024 0.79691,0.41992 1.35742,0.41992c0.18326,0 0.36755,-0.02136 0.55078,-0.06445c0.18325,-0.05392 0.34426,-0.12281 0.48437,-0.20898c0.15093,-0.09701 0.26925,-0.21059 0.35547,-0.33985c0.09701,-0.14019 0.14649,-0.30314 0.14649,-0.48633c0,-0.29094 -0.13482,-0.51597 -0.4043,-0.67773c-0.26947,-0.16164 -0.60508,-0.29645 -1.0039,-0.4043c-0.39883,-0.11842 -0.83432,-0.232 -1.3086,-0.33984c-0.47428,-0.11858 -0.91172,-0.27473 -1.31055,-0.46875c-0.39882,-0.19402 -0.73247,-0.44717 -1.00195,-0.75977c-0.26948,-0.31259 -0.4043,-0.73354 -0.4043,-1.26172c0,-0.42038 0.0873,-0.80835 0.25977,-1.16406c0.17246,-0.3557 0.41397,-0.65636 0.72656,-0.90429c0.32337,-0.24794 0.7065,-0.44194 1.14844,-0.58204c0.44194,-0.14009 0.93175,-0.21093 1.4707,-0.21093c0.54974,0 1.05119,0.08042 1.50391,0.24218zM90.47153,173.96312c-0.25869,0.10792 -0.47401,0.24758 -0.64648,0.41993c-0.16169,0.16173 -0.28487,0.33439 -0.37109,0.51757c-0.08622,0.18329 -0.13086,0.34624 -0.13086,0.48633c0,0.21569 0.08245,0.32227 0.24414,0.32227h3.68555c0.14012,0 0.21094,-0.10179 0.21094,-0.30664c0,-0.1402 -0.04463,-0.30315 -0.13086,-0.48633c-0.07544,-0.18318 -0.19862,-0.35386 -0.37109,-0.51563c-0.16168,-0.17234 -0.37216,-0.31882 -0.63086,-0.4375c-0.2587,-0.11867 -0.56617,-0.17773 -0.92187,-0.17773c-0.35571,0 -0.66802,0.05906 -0.9375,0.17773zM105.55356,173.96312c-0.25869,0.10792 -0.47401,0.24758 -0.64648,0.41993c-0.16169,0.16173 -0.28487,0.33439 -0.37109,0.51757c-0.08622,0.18329 -0.12891,0.34624 -0.12891,0.48633c0,0.21569 0.0805,0.32227 0.24219,0.32227h3.68555c0.14012,0 0.21094,-0.10179 0.21094,-0.30664c0,-0.1402 -0.04268,-0.30315 -0.12891,-0.48633c-0.07544,-0.18318 -0.20057,-0.35386 -0.37305,-0.51563c-0.16168,-0.17234 -0.37216,-0.31882 -0.63086,-0.4375c-0.2587,-0.11867 -0.56617,-0.17773 -0.92187,-0.17773c-0.35571,0 -0.66802,0.05906 -0.9375,0.17773zM124.10434,173.96312c-0.25869,0.10792 -0.47401,0.24758 -0.64648,0.41993c-0.16169,0.16173 -0.28682,0.33439 -0.37305,0.51757c-0.08622,0.18329 -0.12891,0.34624 -0.12891,0.48633c0,0.21569 0.0805,0.32227 0.24219,0.32227h3.6875c0.14012,0 0.20898,-0.10179 0.20898,-0.30664c0,-0.1402 -0.04268,-0.30315 -0.12891,-0.48633c-0.07544,-0.18318 -0.19862,-0.35386 -0.37109,-0.51563c-0.16169,-0.17234 -0.37216,-0.31882 -0.63086,-0.4375c-0.2587,-0.11867 -0.56617,-0.17773 -0.92187,-0.17773c-0.35571,0 -0.66802,0.05906 -0.9375,0.17773z" fill="#1eff00" stroke="none" stroke-width="1.01053" stroke-miterlimit="10" stroke-dashoffset="0"/><path d="M160.85026,187.56563c1.27589,0 2.33397,4.30809 3.36627,5.0581c1.0323,0.7499 5.4565,0.42501 5.85082,1.6385c0.39428,1.21349 -3.37603,3.55109 -3.77031,4.76459c-0.39432,1.21353 1.2819,5.32082 0.24945,6.07083c-1.0323,0.7499 -4.42061,-2.11351 -5.6965,-2.11351c-1.27601,0 -4.66431,2.86341 -5.69651,2.11351c-1.0323,-0.75001 0.644,-4.8573 0.24945,-6.07083c-0.3942,-1.21349 -4.16451,-3.55109 -3.77019,-4.76459c0.3942,-1.21349 4.81848,-0.8886 5.85067,-1.6385c1.0323,-0.75001 2.09042,-5.0581 3.36643,-5.0581z" fill="#1eff00" stroke="none" stroke-width="0.23333" stroke-miterlimit="4" stroke-dashoffset="17.35"/><path d="M183.78738,187.56563c1.27589,0 2.33398,4.30809 3.36628,5.0581c1.03235,0.7499 5.45653,0.42501 5.85086,1.6385c0.39429,1.21349 -3.37607,3.55109 -3.77035,4.76459c-0.39432,1.21353 1.28189,5.32082 0.24945,6.07083c-1.03226,0.7499 -4.42061,-2.11351 -5.6965,-2.11351c-1.27601,0 -4.66432,2.86341 -5.69651,2.11351c-1.03231,-0.75001 0.64399,-4.8573 0.24945,-6.07083c-0.3942,-1.21349 -4.16451,-3.55109 -3.77019,-4.76459c0.3942,-1.21349 4.81848,-0.8886 5.85075,-1.6385c1.03226,-0.75001 2.09038,-5.0581 3.36636,-5.0581z" fill="#1eff00" stroke="none" stroke-width="0.23333" stroke-miterlimit="4" stroke-dashoffset="17.35"/></g></g></svg>