<svg version="1.1" xmlns="http://www.w3.org/2000/svg" xmlns:xlink="http://www.w3.org/1999/xlink" width="372.21484" height="68.64454"><g transform="translate(-53.89258,-145.67773)"><g data-paper-data="{&quot;isPaintingLayer&quot;:true}" fill-rule="nonzero" stroke-linecap="butt" stroke-linejoin="miter" stroke-dasharray="" style="mix-blend-mode: normal"><path d="M425.35742,146.77539v66.44727c0,0.19313 -0.15452,0.34961 -0.34766,0.34961h-370.01757c-0.19314,0 -0.34961,-0.15648 -0.34961,-0.34961v-66.44532c0,-0.19313 0.15647,-0.34765 0.34961,-0.34765l370.01757,-0.00196c0.19314,0 0.34766,0.15453 0.34766,0.34766z" data-paper-data="{&quot;origPos&quot;:null}" id="rect815-0-0-8-6" fill="#1e1e1e" stroke="#1eff00" stroke-width="1.5" stroke-miterlimit="4" stroke-dashoffset="17.35"/><path d="M69.10317,187.56513c1.27593,0 2.33409,4.30813 3.36631,5.0581c1.03226,0.74997 5.45654,0.42505 5.85082,1.63854c0.39428,1.21349 -3.37602,3.55109 -3.7703,4.76459c-0.39428,1.21349 1.28194,5.32078 0.24983,6.07079c-1.03226,0.74997 -4.42057,-2.11344 -5.6965,-2.11344c-1.27593,0 -4.66424,2.86341 -5.6965,2.11344c-1.03226,-0.75001 0.64396,-4.8573 0.24983,-6.07079c-0.39428,-1.21349 -4.16459,-3.55109 -3.77031,-4.76459c0.39428,-1.21349 4.81856,-0.88857 5.85082,-1.63854c1.03223,-0.74997 2.09038,-5.0581 3.36631,-5.0581z" data-paper-data="{&quot;origPos&quot;:null}" id="path1428-5-07-2-1" fill="#1eff00" stroke="none" stroke-width="0.88188" stroke-miterlimit="4" stroke-dashoffset="17.35"/><path d="M92.04022,187.56513c1.27593,0 2.33405,4.30813 3.36631,5.0581c1.03226,0.74997 5.4565,0.42505 5.85078,1.63854c0.39428,1.21349 -3.37599,3.55109 -3.77027,4.76459c-0.39432,1.21349 1.2819,5.32078 0.24945,6.07079c-1.03223,0.74997 -4.42054,-2.11344 -5.69647,-2.11344c-1.27596,0 -4.66424,2.86341 -5.6965,2.11344c-1.03226,-0.75001 0.64396,-4.8573 0.24945,-6.07079c-0.39428,-1.21349 -4.16455,-3.55109 -3.77027,-4.76459c0.39428,-1.21349 4.81852,-0.88857 5.85079,-1.63854c1.03226,-0.74997 2.09038,-5.0581 3.36635,-5.0581z" data-paper-data="{&quot;origPos&quot;:null}" id="path1428-0-2-53-3-86" fill="#1eff00" stroke="none" stroke-width="0.88188" stroke-miterlimit="4" stroke-dashoffset="17.35"/><path d="M114.97725,195.77574c0.08931,0 0.16339,0.30161 0.23565,0.35414c0.07226,0.05254 0.38196,0.03024 0.40955,0.11452c0.02759,0.08504 -0.23633,0.24869 -0.26392,0.33373c-0.02759,0.08504 0.08973,0.37228 0.01739,0.42493c-0.07226,0.05254 -0.30943,-0.14778 -0.39876,-0.14778c-0.08931,0 -0.32651,0.20031 -0.39876,0.14778c-0.07226,-0.05254 0.04509,-0.34016 0.01739,-0.42493c-0.02759,-0.08504 -0.29151,-0.24869 -0.26392,-0.33373c0.02759,-0.08504 0.33729,-0.06236 0.40956,-0.11452c0.07226,-0.05254 0.14634,-0.35414 0.23565,-0.35414z" data-paper-data="{&quot;origPos&quot;:null}" id="path1428-0-6-3-11-6-5" fill="#1eff00" stroke="none" stroke-width="0.06173" stroke-miterlimit="4" stroke-dashoffset="17.35"/><path d="M66.73829,151.83984c0.544,0.16 1.00858,0.37397 1.39258,0.64063c0.39466,0.26668 0.69681,0.56387 0.91016,0.89453c0.21334,0.33066 0.32031,0.6615 0.32031,0.99219c0,0.27741 -0.09511,0.50129 -0.28711,0.67187c-0.18133,0.16 -0.38342,0.24024 -0.60742,0.24024c-0.16001,0 -0.31056,-0.04154 -0.44922,-0.12696c-0.13866,-0.09607 -0.25059,-0.24663 -0.33594,-0.44922c-0.12799,-0.32 -0.29838,-0.57557 -0.51172,-0.76757c-0.20267,-0.20276 -0.4315,-0.35631 -0.6875,-0.46289c-0.24533,-0.11742 -0.50782,-0.19261 -0.78516,-0.22461c-0.27733,-0.04259 -0.54283,-0.06446 -0.79883,-0.06446c-0.384,0 -0.7416,0.04349 -1.07227,0.12891c-0.31999,0.07458 -0.60231,0.18652 -0.84766,0.33594c-0.23467,0.13858 -0.42189,0.31392 -0.56055,0.52734c-0.128,0.20266 -0.19141,0.43842 -0.19141,0.70508c0,0.36276 0.10697,0.65995 0.32031,0.89453c0.224,0.23466 0.51624,0.4318 0.87891,0.5918c0.36266,0.15992 0.77376,0.2986 1.23242,0.41601c0.45867,0.11742 0.9282,0.24114 1.4082,0.36914c0.49067,0.1279 0.96516,0.28148 1.42383,0.46289c0.45867,0.17069 0.86976,0.39456 1.23242,0.67188c0.36266,0.27734 0.64994,0.62005 0.86328,1.02539c0.224,0.40532 0.33594,0.9016 0.33594,1.48828c0,0.65066 -0.12876,1.21531 -0.38476,1.69531c-0.24533,0.48 -0.58611,0.87922 -1.02344,1.19922c-0.43733,0.32 -0.94849,0.56071 -1.53516,0.72071c-0.58667,0.16 -1.21171,0.24023 -1.87305,0.24023c-0.94933,0 -1.75964,-0.13373 -2.43164,-0.40039c-0.66133,-0.27734 -1.19923,-0.60819 -1.61523,-0.99219c-0.416,-0.39466 -0.72011,-0.80574 -0.91211,-1.23242c-0.192,-0.43732 -0.28906,-0.81477 -0.28906,-1.13477c0,-0.384 0.09706,-0.6564 0.28906,-0.8164c0.20266,-0.16 0.4097,-0.24024 0.62305,-0.24024c0.18133,0 0.34675,0.05837 0.49609,0.17578c0.14934,0.10659 0.23948,0.28388 0.27148,0.5293c0.06399,0.40534 0.20267,0.76293 0.41601,1.07227c0.224,0.30924 0.49641,0.56978 0.81641,0.7832c0.32,0.20276 0.6776,0.35631 1.07226,0.46289c0.39467,0.10658 0.8008,0.16016 1.2168,0.16016c0.33067,0 0.67144,-0.03675 1.02344,-0.11133c0.36266,-0.08542 0.68856,-0.20719 0.97656,-0.36719c0.29866,-0.17066 0.53741,-0.38956 0.71875,-0.65625c0.192,-0.26666 0.28906,-0.58759 0.28906,-0.96094c0,-0.40531 -0.11194,-0.74112 -0.33594,-1.00781c-0.21333,-0.26658 -0.50257,-0.49046 -0.86523,-0.67187c-0.352,-0.18124 -0.75618,-0.32985 -1.21484,-0.44727c-0.45867,-0.128 -0.9282,-0.25676 -1.4082,-0.38476c-0.48,-0.128 -0.94953,-0.27165 -1.4082,-0.43164c-0.45867,-0.17066 -0.86976,-0.38463 -1.23242,-0.64063c-0.352,-0.26668 -0.63928,-0.58567 -0.86328,-0.95898c-0.21334,-0.384 -0.32031,-0.85849 -0.32031,-1.42383c0,-0.53334 0.11194,-1.00978 0.33594,-1.42578c0.23467,-0.416 0.5556,-0.76669 0.96094,-1.05469c0.40533,-0.2879 0.88479,-0.50683 1.43945,-0.65625c0.55467,-0.14942 1.16288,-0.22461 1.82422,-0.22461c0.64,0 1.22643,0.08023 1.75977,0.24023zM82.41993,152.12891c0.768,0.352 1.41784,0.82648 1.95117,1.42382c0.544,0.59732 0.96005,1.29074 1.24805,2.08008c0.29867,0.78934 0.44922,1.62144 0.44922,2.4961c0,0.88534 -0.15055,1.7224 -0.44922,2.51171c-0.288,0.78935 -0.70405,1.48274 -1.24805,2.08008c-0.53333,0.59732 -1.18317,1.07183 -1.95117,1.42383c-0.75733,0.352 -1.61121,0.52735 -2.56055,0.52735c-0.94933,0 -1.80817,-0.17535 -2.57617,-0.52735c-0.75733,-0.352 -1.40717,-0.82651 -1.95117,-1.42383c-0.53333,-0.59734 -0.94938,-1.29073 -1.24805,-2.08008c-0.288,-0.78931 -0.43164,-1.62637 -0.43164,-2.51171c0,-0.87466 0.14364,-1.70676 0.43164,-2.4961c0.29867,-0.78934 0.71471,-1.48276 1.24805,-2.08008c0.544,-0.59734 1.19384,-1.07182 1.95117,-1.42382c0.768,-0.352 1.62684,-0.5293 2.57617,-0.5293c0.94933,0 1.80321,0.1773 2.56055,0.5293zM96.70704,151.83984c0.544,0.16 1.00858,0.37397 1.39258,0.64063c0.39466,0.26668 0.69681,0.56387 0.91016,0.89453c0.21334,0.33066 0.32031,0.6615 0.32031,0.99219c0,0.27741 -0.09511,0.50129 -0.28711,0.67187c-0.18133,0.16 -0.38342,0.24024 -0.60742,0.24024c-0.16001,0 -0.31056,-0.04154 -0.44922,-0.12696c-0.13866,-0.09607 -0.25059,-0.24663 -0.33594,-0.44922c-0.12799,-0.32 -0.29838,-0.57557 -0.51172,-0.76757c-0.20267,-0.20276 -0.4315,-0.35631 -0.6875,-0.46289c-0.24533,-0.11742 -0.50782,-0.19261 -0.78516,-0.22461c-0.27733,-0.04259 -0.54283,-0.06446 -0.79883,-0.06446c-0.384,0 -0.7416,0.04349 -1.07227,0.12891c-0.31999,0.07458 -0.60231,0.18652 -0.84766,0.33594c-0.23468,0.13858 -0.42189,0.31392 -0.56055,0.52734c-0.128,0.20266 -0.19141,0.43842 -0.19141,0.70508c0,0.36276 0.10697,0.65995 0.32031,0.89453c0.224,0.23466 0.51624,0.4318 0.87891,0.5918c0.36266,0.15992 0.77375,0.2986 1.23242,0.41601c0.45867,0.11742 0.9282,0.24114 1.4082,0.36914c0.49067,0.1279 0.96516,0.28148 1.42383,0.46289c0.45867,0.17069 0.86976,0.39456 1.23242,0.67188c0.36266,0.27734 0.64994,0.62005 0.86328,1.02539c0.224,0.40532 0.33594,0.9016 0.33594,1.48828c0,0.65066 -0.12876,1.21531 -0.38476,1.69531c-0.24533,0.48 -0.58611,0.87922 -1.02344,1.19922c-0.43733,0.32 -0.94849,0.56071 -1.53516,0.72071c-0.58667,0.16 -1.21171,0.24023 -1.87305,0.24023c-0.94933,0 -1.75964,-0.13373 -2.43164,-0.40039c-0.66133,-0.27734 -1.19923,-0.60819 -1.61523,-0.99219c-0.416,-0.39466 -0.72011,-0.80574 -0.91211,-1.23242c-0.192,-0.43732 -0.28906,-0.81477 -0.28906,-1.13477c0,-0.384 0.09706,-0.6564 0.28906,-0.8164c0.20266,-0.16 0.4097,-0.24024 0.62305,-0.24024c0.18132,0 0.34675,0.05837 0.49609,0.17578c0.14934,0.10659 0.23948,0.28388 0.27148,0.5293c0.06399,0.40534 0.20267,0.76293 0.41601,1.07227c0.224,0.30924 0.49641,0.56978 0.81641,0.7832c0.32,0.20276 0.6776,0.35631 1.07226,0.46289c0.39467,0.10658 0.8008,0.16016 1.2168,0.16016c0.33067,0 0.67144,-0.03675 1.02344,-0.11133c0.36266,-0.08542 0.68856,-0.20719 0.97656,-0.36719c0.29866,-0.17066 0.53741,-0.38956 0.71875,-0.65625c0.192,-0.26666 0.28906,-0.58759 0.28906,-0.96094c0,-0.40531 -0.11194,-0.74112 -0.33594,-1.00781c-0.21333,-0.26658 -0.50257,-0.49046 -0.86523,-0.67187c-0.352,-0.18124 -0.75618,-0.32985 -1.21484,-0.44727c-0.45867,-0.128 -0.9282,-0.25676 -1.4082,-0.38476c-0.48,-0.128 -0.94954,-0.27165 -1.4082,-0.43164c-0.45867,-0.17066 -0.86976,-0.38463 -1.23242,-0.64063c-0.352,-0.26668 -0.63928,-0.58567 -0.86328,-0.95898c-0.21334,-0.384 -0.32031,-0.85849 -0.32031,-1.42383c0,-0.53334 0.11194,-1.00978 0.33594,-1.42578c0.23467,-0.416 0.55561,-0.76669 0.96094,-1.05469c0.40533,-0.2879 0.88479,-0.50683 1.43945,-0.65625c0.55467,-0.14942 1.16289,-0.22461 1.82422,-0.22461c0.64,0 1.22643,0.08023 1.75977,0.24023zM78.16407,153.64844c-0.52267,0.224 -0.98229,0.54298 -1.37695,0.95898c-0.384,0.416 -0.68811,0.92417 -0.91211,1.52149c-0.224,0.59734 -0.33594,1.264 -0.33594,2c0,0.736 0.11194,1.40265 0.33594,2c0.224,0.59731 0.52811,1.10847 0.91211,1.53515c0.39466,0.41608 0.85429,0.74198 1.37695,0.97656c0.52267,0.22401 1.08731,0.33594 1.69531,0.33594c0.608,0 1.17265,-0.11193 1.69531,-0.33594c0.52267,-0.23465 0.97733,-0.56056 1.36133,-0.97656c0.39467,-0.42668 0.70373,-0.93784 0.92773,-1.53515c0.224,-0.59735 0.33594,-1.264 0.33594,-2c0,-0.736 -0.11194,-1.40266 -0.33594,-2c-0.224,-0.59732 -0.53307,-1.10549 -0.92773,-1.52149c-0.384,-0.416 -0.83866,-0.73498 -1.36133,-0.95898c-0.52267,-0.23459 -1.08731,-0.35156 -1.69531,-0.35156c-0.608,0 -1.17264,0.11697 -1.69531,0.35156zM72.6504,162.48047c0.23466,0.224 0.35156,0.4964 0.35156,0.81641c0,0.30941 -0.1169,0.57987 -0.35156,0.81445c-0.224,0.224 -0.48949,0.33594 -0.79883,0.33594c-0.32001,0 -0.59737,-0.11194 -0.83203,-0.33594c-0.224,-0.23469 -0.33594,-0.50514 -0.33594,-0.81445c0,-0.32001 0.11194,-0.59241 0.33594,-0.81641c0.23466,-0.23458 0.51203,-0.35156 0.83203,-0.35156c0.30933,0 0.57483,0.11698 0.79883,0.35156zM88.68165,162.48047c0.23466,0.224 0.35156,0.4964 0.35156,0.81641c0,0.30941 -0.1169,0.57987 -0.35156,0.81445c-0.224,0.224 -0.48949,0.33594 -0.79883,0.33594c-0.32001,0 -0.59737,-0.11194 -0.83203,-0.33594c-0.224,-0.23469 -0.33594,-0.50514 -0.33594,-0.81445c0,-0.32001 0.11194,-0.59241 0.33594,-0.81641c0.23466,-0.23458 0.51203,-0.35156 0.83203,-0.35156c0.30933,0 0.57483,0.11698 0.79883,0.35156zM62.4668,167.58398c0.27734,0.18135 0.51609,0.44382 0.71875,0.78516l4.73633,7.93555v-7.85742c0,-0.32 0.11194,-0.59046 0.33594,-0.81446c0.23467,-0.224 0.50707,-0.33593 0.81641,-0.33593c0.32,0 0.59241,0.11193 0.81641,0.33593c0.23466,0.224 0.35156,0.49446 0.35156,0.81446v10.09765c0,0.19208 -0.03667,0.37239 -0.11133,0.54297c-0.07466,0.16 -0.17669,0.30364 -0.30469,0.43164c-0.11734,0.128 -0.26098,0.23011 -0.43164,0.30469c-0.16,0.064 -0.3373,0.0957 -0.5293,0.0957c-0.37333,0 -0.69728,-0.09511 -0.97461,-0.28711c-0.26668,-0.192 -0.50242,-0.4545 -0.70508,-0.78515l-4.73633,-7.93555v7.85547c0,0.30942 -0.1169,0.58182 -0.35156,0.8164c-0.224,0.224 -0.49641,0.33594 -0.81641,0.33594c-0.30934,0 -0.57979,-0.11194 -0.81445,-0.33594c-0.224,-0.23465 -0.33594,-0.50706 -0.33594,-0.8164v-10.11133c0,-0.37334 0.13177,-0.69428 0.39844,-0.96094c0.26667,-0.26668 0.59256,-0.39843 0.97656,-0.39843c0.37333,0 0.69427,0.0951 0.96094,0.2871zM113.44141,167.63281c0.23466,0.224 0.35156,0.49446 0.35156,0.81446v10.32031c0,0.32 -0.1169,0.5924 -0.35156,0.8164c-0.224,0.224 -0.49641,0.33594 -0.81641,0.33594c-0.32,0 -0.59045,-0.11194 -0.81445,-0.33594c-0.224,-0.23465 -0.33594,-0.50706 -0.33594,-0.8164v-10.32031c0,-0.32 0.11194,-0.59046 0.33594,-0.81446c0.23467,-0.224 0.50512,-0.33593 0.81445,-0.33593c0.32,0 0.59241,0.11193 0.81641,0.33593zM107.84961,170.79883c0.45866,0.0961 0.85488,0.24663 1.18555,0.44922c0.34132,0.20266 0.60186,0.45823 0.7832,0.76757c0.192,0.29866 0.28906,0.66124 0.28906,1.0879v5.71093c0,0.30927 -0.10697,0.57174 -0.32031,0.78516c-0.21333,0.21342 -0.47582,0.32031 -0.78516,0.32031c-0.28799,0 -0.53861,-0.09202 -0.75195,-0.27344c-0.20266,-0.192 -0.31956,-0.43075 -0.35156,-0.71875c-0.40533,0.38408 -0.8313,0.64462 -1.2793,0.78321c-0.448,0.13858 -0.95615,0.20898 -1.52148,0.20898c-0.36266,0 -0.73018,-0.05357 -1.10351,-0.16015c-0.36267,-0.10659 -0.69352,-0.26706 -0.99219,-0.48047c-0.28799,-0.224 -0.52178,-0.49641 -0.70312,-0.81641c-0.18134,-0.32 -0.27148,-0.69248 -0.27148,-1.11914c0,-0.66134 0.14364,-1.17939 0.43164,-1.55273c0.29867,-0.37332 0.66618,-0.65566 1.10351,-0.84766c0.43733,-0.19193 0.90687,-0.3306 1.4082,-0.41602c0.512,-0.08516 0.9865,-0.17044 1.42383,-0.25586c0.43733,-0.08516 0.79989,-0.20214 1.08789,-0.35156c0.29867,-0.16 0.44727,-0.41063 0.44727,-0.75195c0,-0.15993 -0.04658,-0.2986 -0.14258,-0.41602c-0.08534,-0.128 -0.20914,-0.2301 -0.36914,-0.30468c-0.15999,-0.08542 -0.34525,-0.14883 -0.55859,-0.19141c-0.21334,-0.04258 -0.43917,-0.06445 -0.67383,-0.06445c-0.30934,0 -0.54809,0.04349 -0.71875,0.1289c-0.17068,0.08542 -0.30936,0.19231 -0.41601,0.32031c-0.096,0.128 -0.17623,0.27165 -0.24023,0.43165c-0.064,0.14931 -0.14423,0.28801 -0.24023,0.41601c-0.08532,0.128 -0.20222,0.2349 -0.35156,0.32031c-0.14933,0.08542 -0.36329,0.12696 -0.64062,0.12696c-0.256,0 -0.47987,-0.06341 -0.67187,-0.19141c-0.18134,-0.13868 -0.27148,-0.38433 -0.27148,-0.73633c0,-0.34131 0.0852,-0.65731 0.25586,-0.94531c0.17067,-0.2881 0.41633,-0.53179 0.73633,-0.73438c0.32,-0.21324 0.7093,-0.37867 1.16797,-0.49609c0.45867,-0.11742 0.97478,-0.17773 1.55078,-0.17773c0.544,0 1.04524,0.04853 1.50391,0.14453zM77.75586,171.00781c0.56533,0.224 1.05666,0.54494 1.47266,0.96094c0.41601,0.416 0.73995,0.91725 0.97461,1.50391c0.24534,0.576 0.36914,1.21592 0.36914,1.91992c0,0.704 -0.1238,1.34889 -0.36914,1.93554c-0.23467,0.57601 -0.55861,1.07229 -0.97461,1.48829c-0.416,0.4161 -0.90732,0.74198 -1.47266,0.97656c-0.56533,0.224 -1.17355,0.33594 -1.82422,0.33594c-0.64,0 -1.24326,-0.11194 -1.80859,-0.33594c-0.56533,-0.23468 -1.0547,-0.56056 -1.4707,-0.97656c-0.41599,-0.416 -0.74685,-0.91228 -0.99219,-1.48829c-0.23466,-0.58665 -0.35156,-1.23154 -0.35156,-1.93554c0,-0.704 0.1169,-1.34392 0.35156,-1.91992c0.24533,-0.58666 0.57619,-1.08791 0.99219,-1.50391c0.416,-0.416 0.90537,-0.73694 1.4707,-0.96094c0.56533,-0.23458 1.16859,-0.35156 1.80859,-0.35156c0.65067,0 1.25889,0.11698 1.82422,0.35156zM83.50196,171.00781c0.224,0.224 0.33594,0.49147 0.33594,0.80078c0.096,-0.10683 0.2129,-0.23055 0.35156,-0.36914c0.14934,-0.13883 0.30981,-0.2606 0.48047,-0.36718c0.18133,-0.11742 0.36855,-0.21448 0.56055,-0.28907c0.192,-0.08541 0.38417,-0.12695 0.57617,-0.12695c0.42666,0 0.71394,0.11194 0.86328,0.33594c0.16,0.224 0.24023,0.48452 0.24023,0.7832c0,0.24532 -0.05844,0.43255 -0.17578,0.56055c-0.10668,0.11741 -0.24536,0.20748 -0.41601,0.27148c-0.16,0.064 -0.3373,0.11758 -0.5293,0.16016c-0.19201,0.032 -0.37231,0.08053 -0.54297,0.14453c-0.30933,0.11734 -0.55995,0.27284 -0.75195,0.46484c-0.18133,0.18124 -0.32002,0.37838 -0.41602,0.5918c-0.096,0.20258 -0.15941,0.40963 -0.19141,0.62305c-0.032,0.21326 -0.04883,0.41038 -0.04883,0.59179v3.58399c0,0.32 -0.1169,0.5924 -0.35156,0.8164c-0.224,0.224 -0.49641,0.33594 -0.81641,0.33594c-0.30934,0 -0.58175,-0.11194 -0.81641,-0.33594c-0.224,-0.23465 -0.33594,-0.50706 -0.33594,-0.8164v-6.95899c0,-0.30931 0.11194,-0.57678 0.33594,-0.80078c0.23467,-0.23458 0.51203,-0.35156 0.83203,-0.35156c0.32,0 0.59241,0.11698 0.81641,0.35156zM89.72071,171.00781c0.224,0.224 0.33594,0.49147 0.33594,0.80078c0.096,-0.10658 0.21785,-0.22551 0.36719,-0.35351c0.14933,-0.13858 0.33158,-0.2654 0.54492,-0.38281c0.21333,-0.11742 0.45899,-0.21448 0.73633,-0.28907c0.288,-0.08541 0.60698,-0.12695 0.95898,-0.12695c0.416,0 0.76368,0.04154 1.04101,0.12695c0.28801,0.08542 0.53367,0.19736 0.73633,0.33594c0.20268,0.12808 0.37306,0.27864 0.51172,0.44922c0.13866,0.1601 0.26547,0.32551 0.38281,0.49609c0.096,-0.14934 0.2198,-0.30484 0.36914,-0.46484c0.14934,-0.17076 0.34151,-0.32431 0.57617,-0.46289c0.24533,-0.13858 0.53757,-0.25052 0.87891,-0.33594c0.34133,-0.096 0.75738,-0.14453 1.24805,-0.14453c0.24533,0 0.5227,0.04154 0.83203,0.12695c0.32,0.07459 0.61419,0.20335 0.88086,0.38477c0.27732,0.18134 0.50616,0.42204 0.6875,0.7207c0.192,0.288 0.28906,0.64561 0.28906,1.07227v5.80664h-0.00195c0,0.30942 -0.1169,0.58182 -0.35156,0.8164c-0.224,0.224 -0.49641,0.33594 -0.81641,0.33594c-0.32,0 -0.59045,-0.11194 -0.81445,-0.33594c-0.224,-0.23465 -0.33594,-0.50706 -0.33594,-0.8164v-4.5918c0,-0.448 -0.15551,-0.82738 -0.46484,-1.13672c-0.30933,-0.30934 -0.68872,-0.46289 -1.13672,-0.46289c-0.448,0 -0.82543,0.15355 -1.13477,0.46289c-0.30933,0.30934 -0.46484,0.68872 -0.46484,1.13672v4.5918c0,0.30942 -0.1169,0.58182 -0.35156,0.8164c-0.224,0.224 -0.49145,0.33594 -0.80078,0.33594c-0.32001,0 -0.59737,-0.11194 -0.83203,-0.33594c-0.224,-0.23465 -0.33594,-0.50706 -0.33594,-0.8164v-4.5918c0,-0.448 -0.15356,-0.82738 -0.46289,-1.13672c-0.30933,-0.30934 -0.68872,-0.46289 -1.13672,-0.46289c-0.448,0 -0.82543,0.15355 -1.13476,0.46289c-0.30933,0.30934 -0.46484,0.68872 -0.46484,1.13672v4.5918c0,0.30942 -0.11194,0.58182 -0.33594,0.8164c-0.224,0.224 -0.49641,0.33594 -0.81641,0.33594c-0.32001,0 -0.59737,-0.11194 -0.83203,-0.33594c-0.224,-0.23465 -0.33594,-0.50706 -0.33594,-0.8164v-6.95899c0,-0.30931 0.11194,-0.57678 0.33594,-0.80078c0.23467,-0.23458 0.51203,-0.35156 0.83203,-0.35156c0.32,0 0.59241,0.11698 0.81641,0.35156zM74.875,172.5918c-0.30933,0.16 -0.57483,0.38387 -0.79883,0.67187c-0.21333,0.27732 -0.37875,0.60322 -0.49609,0.97656c-0.11734,0.36266 -0.17578,0.74701 -0.17578,1.15235c0,0.40534 0.05844,0.79465 0.17578,1.16797c0.11733,0.37334 0.28275,0.69726 0.49609,0.97461c0.224,0.27741 0.4895,0.50324 0.79883,0.67382c0.30933,0.16 0.66197,0.23829 1.05664,0.23829c0.39467,0 0.74731,-0.07829 1.05664,-0.23829c0.31999,-0.17068 0.58549,-0.39651 0.79883,-0.67382c0.21332,-0.27735 0.37875,-0.60127 0.49609,-0.97461c0.11734,-0.37332 0.17578,-0.76263 0.17578,-1.16797c0,-0.40534 -0.05844,-0.78969 -0.17578,-1.15235c-0.11732,-0.37334 -0.28275,-0.69924 -0.49609,-0.97656c-0.21333,-0.288 -0.47883,-0.51187 -0.79883,-0.67187c-0.30933,-0.17059 -0.66197,-0.25586 -1.05664,-0.25586c-0.39467,0 -0.74731,0.08527 -1.05664,0.25586zM106.98633,175.69727c-0.37333,0.11716 -0.87953,0.23414 -1.51953,0.35156c-0.77867,0.13866 -1.16797,0.50617 -1.16797,1.10351c0,0.14942 0.02179,0.29306 0.06445,0.43164c0.05332,0.13859 0.13852,0.26735 0.25586,0.38477c0.11733,0.10658 0.27089,0.19186 0.46289,0.25586c0.20266,0.064 0.44833,0.0957 0.73633,0.0957c0.24533,0 0.49099,-0.02666 0.73633,-0.08008c0.256,-0.064 0.47987,-0.14927 0.67187,-0.25585c0.20266,-0.11735 0.36313,-0.25602 0.48047,-0.41602c0.128,-0.17058 0.19141,-0.36276 0.19141,-0.57617v-1.55078c-0.224,0.05316 -0.52811,0.13844 -0.91211,0.25586z" data-paper-data="{&quot;origPos&quot;:null}" id="path1957" fill="#1eff00" stroke="none" stroke-width="1" stroke-miterlimit="10" stroke-dashoffset="0"/></g></g></svg>