<svg version="1.1" xmlns="http://www.w3.org/2000/svg" xmlns:xlink="http://www.w3.org/1999/xlink" width="372.21484" height="68.64257"><g transform="translate(-53.89258,-145.67872)"><g data-paper-data="{&quot;isPaintingLayer&quot;:true}" fill-rule="nonzero" stroke-linecap="butt" stroke-linejoin="miter" stroke-dasharray="" style="mix-blend-mode: normal"><path d="M425.00977,146.42872c0.19313,0 0.34765,0.15452 0.34765,0.34765v66.44531c0,0.19314 -0.15452,0.34961 -0.34765,0.34961h-370.01758c-0.19314,0 -0.34961,-0.15647 -0.34961,-0.34961v-66.44531c0,-0.19313 0.15647,-0.34765 0.34961,-0.34765z" data-paper-data="{&quot;origPos&quot;:null}" id="rect815-0-0-8-8" fill="#1e1e1e" stroke="#1eff00" stroke-width="1.5" stroke-miterlimit="4" stroke-dashoffset="17.35"/><path d="M69.10234,187.56444c1.27593,0 2.33409,4.30813 3.36631,5.0581c1.03226,0.74997 5.45654,0.42505 5.85082,1.63854c0.39428,1.21349 -3.37603,3.55109 -3.77031,4.76459c-0.39428,1.21349 1.28194,5.32078 0.24983,6.07079c-1.03226,0.74997 -4.42057,-2.11344 -5.6965,-2.11344c-1.27593,0 -4.66424,2.86341 -5.6965,2.11344c-1.03226,-0.75001 0.64396,-4.8573 0.24983,-6.07079c-0.39428,-1.21349 -4.16459,-3.55109 -3.77031,-4.76459c0.39428,-1.21349 4.81856,-0.88857 5.85082,-1.63854c1.03223,-0.74997 2.09038,-5.0581 3.36632,-5.0581z" data-paper-data="{&quot;origPos&quot;:null}" id="path1428-5-07-2-0" fill="#1eff00" stroke="none" stroke-width="0.88188" stroke-miterlimit="4" stroke-dashoffset="17.35"/><path d="M92.03939,187.56444c1.27593,0 2.33405,4.30813 3.36631,5.0581c1.03226,0.74997 5.4565,0.42505 5.85078,1.63854c0.39428,1.21349 -3.37599,3.55109 -3.77027,4.76459c-0.39432,1.21349 1.2819,5.32078 0.24945,6.07079c-1.03223,0.74997 -4.42054,-2.11344 -5.69647,-2.11344c-1.27597,0 -4.66424,2.86341 -5.6965,2.11344c-1.03226,-0.75001 0.64396,-4.8573 0.24945,-6.07079c-0.39428,-1.21349 -4.16455,-3.55109 -3.77027,-4.76459c0.39428,-1.21349 4.81852,-0.88857 5.85078,-1.63854c1.03226,-0.74997 2.09038,-5.0581 3.36635,-5.0581z" data-paper-data="{&quot;origPos&quot;:null}" id="path1428-0-2-53-3-00" fill="#1eff00" stroke="none" stroke-width="0.88188" stroke-miterlimit="4" stroke-dashoffset="17.35"/><path d="M114.97629,188.00589c1.21214,0 2.21738,4.0927 3.19803,4.80518c0.98062,0.71248 5.18368,0.4038 5.55825,1.5566c0.37455,1.15283 -3.20722,3.37357 -3.58179,4.52636c-0.37455,1.15283 1.21784,5.05474 0.23735,5.76726c-0.98065,0.71248 -4.19954,-2.00776 -5.41168,-2.00776c-1.21213,0 -4.43103,2.72024 -5.41168,2.00776c-0.98061,-0.71252 0.61176,-4.61443 0.23732,-5.76726c-0.37455,-1.15279 -3.95636,-3.37353 -3.58179,-4.52636c0.37459,-1.15279 4.57763,-0.84412 5.55828,-1.5566c0.98065,-0.71248 1.98586,-4.80518 3.19799,-4.80518z" data-paper-data="{&quot;origPos&quot;:null}" id="path1428-0-6-3-11-6-50" fill="#1eff00" stroke="none" stroke-width="0.83779" stroke-miterlimit="4" stroke-dashoffset="17.35"/><path d="M66.73634,151.83887c0.544,0.16 1.00858,0.37397 1.39258,0.64063c0.39466,0.26668 0.69877,0.56582 0.91211,0.89648c0.21334,0.33066 0.32031,0.66151 0.32031,0.99219c0,0.27742 -0.09706,0.50129 -0.28906,0.67187c-0.18133,0.16 -0.38342,0.24024 -0.60742,0.24024c-0.16001,0 -0.30861,-0.04349 -0.44727,-0.12891c-0.13866,-0.09607 -0.2506,-0.24468 -0.33594,-0.44726c-0.12799,-0.32 -0.29838,-0.57754 -0.51172,-0.76954c-0.20267,-0.20275 -0.43345,-0.3563 -0.68945,-0.46289c-0.24533,-0.11741 -0.50587,-0.1926 -0.7832,-0.22461c-0.27733,-0.04258 -0.54478,-0.06445 -0.80078,-0.06445c-0.384,0 -0.7416,0.04349 -1.07226,0.12891c-0.32,0.07458 -0.60232,0.18652 -0.84766,0.33594c-0.23467,0.13858 -0.41993,0.31392 -0.55859,0.52734c-0.128,0.20266 -0.19336,0.43842 -0.19336,0.70508c0,0.36276 0.10698,0.65995 0.32031,0.89453c0.224,0.23466 0.51819,0.43375 0.88086,0.59375c0.36267,0.15992 0.7718,0.2986 1.23047,0.41601c0.45867,0.11742 0.9282,0.23919 1.4082,0.36719c0.49067,0.1279 0.96516,0.28343 1.42383,0.46485c0.45867,0.17068 0.86975,0.39455 1.23242,0.67187c0.36266,0.27734 0.65189,0.6181 0.86523,1.02344c0.224,0.40531 0.33594,0.9016 0.33594,1.48828c0,0.65066 -0.12877,1.21531 -0.38477,1.69531c-0.24533,0.48 -0.5861,0.88117 -1.02344,1.20117c-0.43733,0.32 -0.95044,0.55875 -1.53711,0.71875c-0.58666,0.16 -1.20976,0.24024 -1.87109,0.24024c-0.94933,0 -1.75964,-0.13373 -2.43164,-0.40039c-0.66133,-0.27734 -1.20119,-0.60819 -1.61719,-0.99219c-0.416,-0.39466 -0.72011,-0.80379 -0.91211,-1.23047c-0.192,-0.43732 -0.28711,-0.81672 -0.28711,-1.13672c0,-0.384 0.09511,-0.6564 0.28711,-0.8164c0.20267,-0.16 0.41167,-0.24024 0.625,-0.24024c0.18133,0 0.34676,0.05837 0.49609,0.17578c0.14933,0.10659 0.23948,0.28388 0.27148,0.5293c0.064,0.40534 0.20268,0.76292 0.41602,1.07227c0.224,0.30924 0.49641,0.56978 0.81641,0.7832c0.32,0.20276 0.6776,0.35826 1.07227,0.46484c0.39467,0.10659 0.79884,0.15821 1.21484,0.15821c0.33067,0 0.67339,-0.03675 1.02539,-0.11133c0.36267,-0.08542 0.68661,-0.20719 0.97461,-0.36719c0.29866,-0.17066 0.53936,-0.38957 0.7207,-0.65625c0.192,-0.26666 0.28711,-0.5876 0.28711,-0.96094c0,-0.40531 -0.11194,-0.74113 -0.33594,-1.00781c-0.21333,-0.26658 -0.50062,-0.49046 -0.86328,-0.67188c-0.352,-0.18124 -0.75813,-0.32984 -1.2168,-0.44726c-0.45867,-0.128 -0.9282,-0.25677 -1.4082,-0.38477c-0.48,-0.128 -0.94758,-0.27164 -1.40625,-0.43164c-0.45867,-0.17066 -0.86975,-0.38462 -1.23242,-0.64062c-0.352,-0.26669 -0.64123,-0.58567 -0.86523,-0.95899c-0.21333,-0.384 -0.31836,-0.85848 -0.31836,-1.42382c0,-0.53335 0.11194,-1.00783 0.33594,-1.42383c0.23467,-0.416 0.55365,-0.76864 0.95898,-1.05664c0.40533,-0.2879 0.88479,-0.50684 1.43945,-0.65625c0.55467,-0.14942 1.16288,-0.22461 1.82422,-0.22461c0.64,0 1.22643,0.08023 1.75977,0.24023zM82.41798,152.12793c0.768,0.352 1.41979,0.82649 1.95312,1.42383c0.544,0.59732 0.96005,1.29074 1.24805,2.08008c0.29867,0.78934 0.44727,1.62144 0.44727,2.49609c0,0.88535 -0.1486,1.72241 -0.44727,2.51172c-0.288,0.78934 -0.70405,1.48274 -1.24805,2.08008c-0.53333,0.59732 -1.18513,1.07183 -1.95312,1.42383c-0.75733,0.352 -1.60926,0.52734 -2.55859,0.52734c-0.94933,0 -1.80817,-0.17534 -2.57617,-0.52734c-0.75733,-0.352 -1.40912,-0.82651 -1.95312,-1.42383c-0.53333,-0.59734 -0.94938,-1.29074 -1.24805,-2.08008c-0.288,-0.78931 -0.43164,-1.62637 -0.43164,-2.51172c0,-0.87465 0.14364,-1.70675 0.43164,-2.49609c0.29867,-0.78934 0.71471,-1.48276 1.24805,-2.08008c0.544,-0.59734 1.19579,-1.07183 1.95312,-1.42383c0.768,-0.352 1.62684,-0.52929 2.57617,-0.52929c0.94933,0 1.80126,0.17729 2.55859,0.52929zM96.70509,151.83887c0.544,0.16 1.00858,0.37397 1.39258,0.64063c0.39466,0.26668 0.69877,0.56582 0.91211,0.89648c0.21334,0.33066 0.32031,0.66151 0.32031,0.99219c0,0.27742 -0.09706,0.50129 -0.28906,0.67187c-0.18133,0.16 -0.38342,0.24024 -0.60742,0.24024c-0.16001,0 -0.30861,-0.04349 -0.44727,-0.12891c-0.13866,-0.09607 -0.2506,-0.24468 -0.33594,-0.44726c-0.12799,-0.32 -0.29838,-0.57754 -0.51172,-0.76954c-0.20267,-0.20275 -0.43345,-0.3563 -0.68945,-0.46289c-0.24533,-0.11741 -0.50587,-0.1926 -0.7832,-0.22461c-0.27733,-0.04258 -0.54478,-0.06445 -0.80078,-0.06445c-0.384,0 -0.7416,0.04349 -1.07226,0.12891c-0.31999,0.07458 -0.60231,0.18652 -0.84766,0.33594c-0.23468,0.13858 -0.41993,0.31392 -0.55859,0.52734c-0.128,0.20266 -0.19336,0.43842 -0.19336,0.70508c0,0.36276 0.10697,0.65995 0.32031,0.89453c0.224,0.23466 0.51819,0.43375 0.88086,0.59375c0.36267,0.15992 0.7718,0.2986 1.23047,0.41601c0.45867,0.11742 0.9282,0.23919 1.4082,0.36719c0.49067,0.1279 0.96516,0.28343 1.42383,0.46485c0.45867,0.17068 0.86975,0.39455 1.23242,0.67187c0.36266,0.27734 0.65189,0.6181 0.86523,1.02344c0.224,0.40531 0.33594,0.9016 0.33594,1.48828c0,0.65066 -0.12877,1.21531 -0.38477,1.69531c-0.24533,0.48 -0.5861,0.88117 -1.02344,1.20117c-0.43733,0.32 -0.95044,0.55875 -1.53711,0.71875c-0.58666,0.16 -1.20976,0.24024 -1.87109,0.24024c-0.94933,0 -1.75964,-0.13373 -2.43164,-0.40039c-0.66133,-0.27734 -1.20119,-0.60819 -1.61719,-0.99219c-0.416,-0.39466 -0.72011,-0.80379 -0.91211,-1.23047c-0.192,-0.43732 -0.28711,-0.81672 -0.28711,-1.13672c0,-0.384 0.09511,-0.6564 0.28711,-0.8164c0.20266,-0.16 0.41166,-0.24024 0.625,-0.24024c0.18132,0 0.34675,0.05837 0.49609,0.17578c0.14934,0.10659 0.23948,0.28388 0.27148,0.5293c0.06399,0.40534 0.20267,0.76292 0.41602,1.07227c0.224,0.30924 0.49641,0.56978 0.81641,0.7832c0.32,0.20276 0.6776,0.35826 1.07227,0.46484c0.39467,0.10659 0.79884,0.15821 1.21484,0.15821c0.33067,0 0.67339,-0.03675 1.02539,-0.11133c0.36267,-0.08542 0.68661,-0.20719 0.97461,-0.36719c0.29866,-0.17066 0.53936,-0.38957 0.7207,-0.65625c0.192,-0.26666 0.28711,-0.5876 0.28711,-0.96094c0,-0.40531 -0.11194,-0.74113 -0.33594,-1.00781c-0.21333,-0.26658 -0.50062,-0.49046 -0.86328,-0.67188c-0.352,-0.18124 -0.75813,-0.32984 -1.2168,-0.44726c-0.45867,-0.128 -0.9282,-0.25677 -1.4082,-0.38477c-0.48,-0.128 -0.94758,-0.27164 -1.40625,-0.43164c-0.45867,-0.17066 -0.86975,-0.38462 -1.23242,-0.64062c-0.352,-0.26669 -0.64123,-0.58567 -0.86523,-0.95899c-0.21334,-0.384 -0.31836,-0.85848 -0.31836,-1.42382c0,-0.53335 0.11194,-1.00783 0.33594,-1.42383c0.23467,-0.416 0.55365,-0.76864 0.95898,-1.05664c0.40533,-0.2879 0.88478,-0.50684 1.43945,-0.65625c0.55466,-0.14942 1.16288,-0.22461 1.82422,-0.22461c0.64,0 1.22643,0.08023 1.75977,0.24023zM78.16212,153.64747c-0.52267,0.224 -0.98033,0.54298 -1.375,0.95898c-0.384,0.416 -0.68811,0.92417 -0.91211,1.52148c-0.224,0.59735 -0.33594,1.264 -0.33594,2c0,0.736 0.11194,1.40266 0.33594,2c0.224,0.59732 0.52811,1.10848 0.91211,1.53516c0.39467,0.41608 0.85233,0.74198 1.375,0.97656c0.52267,0.224 1.08927,0.33594 1.69727,0.33594c0.608,0 1.17264,-0.11194 1.69531,-0.33594c0.52267,-0.23466 0.97537,-0.56056 1.35937,-0.97656c0.39467,-0.42668 0.70373,-0.93784 0.92773,-1.53516c0.224,-0.59734 0.33594,-1.264 0.33594,-2c0,-0.736 -0.11194,-1.40265 -0.33594,-2c-0.224,-0.59731 -0.53307,-1.10548 -0.92773,-1.52148c-0.384,-0.416 -0.83671,-0.73498 -1.35937,-0.95898c-0.52267,-0.23459 -1.08731,-0.35157 -1.69531,-0.35157c-0.608,0 -1.1746,0.11698 -1.69727,0.35157zM72.6504,162.47949c0.23466,0.224 0.35156,0.4964 0.35156,0.8164c0,0.30942 -0.1169,0.58183 -0.35156,0.81641c-0.224,0.224 -0.49145,0.33594 -0.80078,0.33594c-0.32001,0 -0.59737,-0.11194 -0.83203,-0.33594c-0.224,-0.23468 -0.33594,-0.50709 -0.33594,-0.81641c0,-0.32 0.11194,-0.5924 0.33594,-0.8164c0.23467,-0.23459 0.51203,-0.35157 0.83203,-0.35157c0.30933,0 0.57678,0.11698 0.80078,0.35157zM88.68165,162.47949c0.23466,0.224 0.35156,0.4964 0.35156,0.8164c0,0.30942 -0.1169,0.58183 -0.35156,0.81641c-0.224,0.224 -0.49145,0.33594 -0.80078,0.33594c-0.32001,0 -0.59737,-0.11194 -0.83203,-0.33594c-0.224,-0.23468 -0.33594,-0.50709 -0.33594,-0.81641c0,-0.32 0.11194,-0.5924 0.33594,-0.8164c0.23467,-0.23459 0.51203,-0.35157 0.83203,-0.35157c0.30933,0 0.57678,0.11698 0.80078,0.35157zM62.209,167.64747c0.24533,0.23465 0.36719,0.52194 0.36719,0.86328v3.74414h5.2168v-3.74414c0,-0.34142 0.1169,-0.6287 0.35156,-0.86328c0.23467,-0.23459 0.5239,-0.35157 0.86523,-0.35157c0.34134,0 0.62862,0.11698 0.86328,0.35157c0.24534,0.23465 0.36719,0.52194 0.36719,0.86328v10.19336c0,0.34141 -0.12185,0.62869 -0.36719,0.86328c-0.23467,0.23458 -0.52195,0.35156 -0.86328,0.35156c-0.34134,0 -0.63058,-0.11698 -0.86523,-0.35156c-0.23466,-0.23466 -0.35156,-0.52194 -0.35156,-0.86328v-4.33594h-5.2168v4.33594c0,0.34141 -0.12185,0.62869 -0.36719,0.86328c-0.23467,0.23458 -0.52195,0.35156 -0.86328,0.35156c-0.34133,0 -0.63057,-0.11698 -0.86523,-0.35156c-0.23467,-0.23466 -0.35156,-0.52194 -0.35156,-0.86328v-10.19336c0,-0.34142 0.1169,-0.6287 0.35156,-0.86328c0.23467,-0.23459 0.5239,-0.35157 0.86523,-0.35157c0.34133,0 0.62861,0.11698 0.86328,0.35157zM94.31251,167.63183c0.23466,0.224 0.35352,0.49641 0.35352,0.81641v10.31836c0,0.30941 -0.11886,0.58182 -0.35352,0.8164c-0.224,0.224 -0.49445,0.33594 -0.81445,0.33594c-0.32,0 -0.59241,-0.11194 -0.81641,-0.33594c-0.224,-0.23466 -0.33594,-0.50706 -0.33594,-0.8164c-0.096,0.10683 -0.20297,0.23055 -0.32031,0.36914c-0.11734,0.128 -0.27781,0.24977 -0.48047,0.36718c-0.192,0.11717 -0.44262,0.21927 -0.75195,0.30469c-0.29867,0.07458 -0.6761,0.11133 -1.13477,0.11133c-0.53333,0 -1.01474,-0.11194 -1.44141,-0.33594c-0.42667,-0.224 -0.79418,-0.53804 -1.10352,-0.94336c-0.29868,-0.416 -0.53247,-0.90731 -0.70312,-1.47265c-0.16,-0.56534 -0.24023,-1.18844 -0.24023,-1.8711c0,-0.68266 0.08023,-1.3077 0.24023,-1.87304c0.17067,-0.576 0.40446,-1.06732 0.70312,-1.47266c0.30933,-0.416 0.67685,-0.73498 1.10352,-0.95898c0.42667,-0.224 0.90807,-0.33594 1.44141,-0.33594c0.39467,0 0.7404,0.05836 1.03906,0.17578c0.29866,0.11724 0.55424,0.25097 0.76758,0.40039c0.21333,0.13858 0.38372,0.2654 0.51172,0.38281c0.128,0.11742 0.22506,0.17774 0.28906,0.17774c0.05334,0 0.08008,-0.0704 0.08008,-0.20899v-3.13476c0,-0.32 0.11194,-0.59241 0.33594,-0.81641c0.224,-0.224 0.49641,-0.33594 0.81641,-0.33594c0.32,0 0.59045,0.11194 0.81445,0.33594zM77.13087,170.79786c0.45867,0.0961 0.85293,0.24663 1.18359,0.44921c0.34132,0.20266 0.60381,0.45824 0.78516,0.76758c0.192,0.29866 0.28711,0.66124 0.28711,1.08789v5.71094c0,0.30927 -0.10697,0.57174 -0.32031,0.78516c-0.21333,0.21341 -0.47387,0.32031 -0.7832,0.32031c-0.28799,0 -0.53861,-0.09202 -0.75195,-0.27344c-0.20266,-0.192 -0.31956,-0.43075 -0.35156,-0.71875c-0.40533,0.38408 -0.83325,0.64462 -1.28125,0.78321c-0.448,0.13858 -0.9542,0.20898 -1.51953,0.20898c-0.36267,0 -0.73018,-0.05357 -1.10352,-0.16016c-0.36267,-0.10658 -0.69352,-0.26705 -0.99219,-0.48046c-0.28799,-0.224 -0.52374,-0.49641 -0.70508,-0.81641c-0.18134,-0.32 -0.27148,-0.69248 -0.27148,-1.11914c0,-0.66134 0.14364,-1.17939 0.43164,-1.55274c0.29867,-0.37331 0.66813,-0.65565 1.10547,-0.84765c0.43733,-0.19193 0.90492,-0.3306 1.40625,-0.41602c0.512,-0.08516 0.98845,-0.17044 1.42578,-0.25586c0.43733,-0.08516 0.79989,-0.20214 1.08789,-0.35156c0.29867,-0.16 0.44726,-0.41064 0.44726,-0.75195c0,-0.15993 -0.04853,-0.2986 -0.14453,-0.41602c-0.08534,-0.128 -0.20719,-0.2301 -0.36719,-0.30469c-0.15999,-0.08541 -0.34721,-0.14882 -0.56055,-0.1914c-0.21334,-0.04259 -0.43722,-0.06446 -0.67187,-0.06446c-0.30934,0 -0.55004,0.04349 -0.7207,0.12891c-0.17067,0.08542 -0.30936,0.19231 -0.41602,0.32031c-0.096,0.128 -0.17428,0.27164 -0.23828,0.43164c-0.064,0.14932 -0.14423,0.28802 -0.24023,0.41602c-0.08532,0.128 -0.20417,0.23489 -0.35351,0.32031c-0.14933,0.08542 -0.36134,0.12695 -0.63867,0.12695c-0.256,0 -0.47987,-0.0634 -0.67187,-0.1914c-0.18134,-0.13868 -0.27344,-0.38433 -0.27344,-0.73633c0,-0.34132 0.0852,-0.65536 0.25586,-0.94336c0.17067,-0.2881 0.41633,-0.53374 0.73633,-0.73633c0.32,-0.21324 0.7093,-0.37867 1.16797,-0.49609c0.45867,-0.11742 0.97673,-0.17578 1.55273,-0.17578c0.544,0 1.04524,0.04658 1.50391,0.14258zM82.62696,171.00684c0.224,0.224 0.33594,0.49147 0.33594,0.80078c0.096,-0.10683 0.2129,-0.2286 0.35156,-0.36719c0.14934,-0.13883 0.30981,-0.26255 0.48047,-0.36914c0.18133,-0.11741 0.36659,-0.21252 0.55859,-0.28711c0.192,-0.08541 0.38417,-0.1289 0.57617,-0.1289c0.42666,0 0.71589,0.11194 0.86523,0.33594c0.16,0.224 0.23828,0.48452 0.23828,0.7832c0,0.24532 -0.05844,0.43255 -0.17578,0.56055c-0.10668,0.11741 -0.24536,0.20943 -0.41602,0.27343c-0.16,0.064 -0.33534,0.11562 -0.52734,0.15821c-0.19136,0.03189 -0.37281,0.08085 -0.54297,0.14453h-0.00195c-0.30853,0.11726 -0.56031,0.2732 -0.75195,0.46484c-0.18133,0.18124 -0.32001,0.37838 -0.41601,0.5918c-0.096,0.20258 -0.15941,0.40963 -0.19141,0.62305c-0.032,0.21326 -0.04688,0.41233 -0.04688,0.59374v3.58399c0,0.32 -0.11886,0.59045 -0.35351,0.81445c-0.224,0.224 -0.49445,0.33594 -0.81445,0.33594c-0.30934,0 -0.58175,-0.11194 -0.81641,-0.33594c-0.224,-0.23466 -0.33594,-0.50511 -0.33594,-0.81445v-6.96094c0,-0.30931 0.11194,-0.57678 0.33594,-0.80078c0.23466,-0.23458 0.51203,-0.35156 0.83203,-0.35156c0.32,0 0.59241,0.11698 0.81641,0.35156zM88.82618,173.28028c-0.37333,0.49066 -0.56055,1.16228 -0.56055,2.01562c0,0.84266 0.18721,1.50932 0.56055,2c0.384,0.49066 0.91198,0.73633 1.58398,0.73633c0.672,0 1.19307,-0.24567 1.56641,-0.73633c0.384,-0.49068 0.57617,-1.15734 0.57617,-2c0,-0.85334 -0.19217,-1.52496 -0.57617,-2.01562c-0.37333,-0.49066 -0.89441,-0.73633 -1.56641,-0.73633c-0.672,0 -1.19998,0.24567 -1.58398,0.73633zM76.26759,175.69629c-0.37333,0.11717 -0.88148,0.23415 -1.52148,0.35157c-0.77867,0.13865 -1.16797,0.50617 -1.16797,1.10351c0,0.14942 0.02179,0.29306 0.06445,0.43164c0.05332,0.13859 0.13852,0.26735 0.25586,0.38477c0.11733,0.10658 0.27284,0.19186 0.46484,0.25586c0.20267,0.064 0.44833,0.0957 0.73633,0.0957c0.24532,0 0.48903,-0.02666 0.73437,-0.08008c0.256,-0.064 0.48183,-0.14927 0.67383,-0.25586c0.20266,-0.11734 0.36117,-0.25601 0.47852,-0.41601c0.128,-0.17059 0.19336,-0.36276 0.19336,-0.57617v-1.55079c-0.224,0.05317 -0.52811,0.13845 -0.91211,0.25586z" data-paper-data="{&quot;origPos&quot;:null}" id="path1933" fill="#1eff00" stroke="none" stroke-width="1" stroke-miterlimit="10" stroke-dashoffset="0"/></g></g></svg>