<svg version="1.1" xmlns="http://www.w3.org/2000/svg" xmlns:xlink="http://www.w3.org/1999/xlink" width="137.40041" height="32.41765" viewBox="0,0,137.40041,32.41765"><g transform="translate(-158.49307,-167.83436)"><g data-paper-data="{&quot;isPaintingLayer&quot;:true}" fill="#ffffff" fill-rule="nonzero" stroke="none" stroke-width="1" stroke-linecap="butt" stroke-linejoin="miter" stroke-miterlimit="10" stroke-dasharray="" stroke-dashoffset="0" style="mix-blend-mode: normal"><path d="M170.6773,168.41211c0.47029,0.38478 0.82326,0.89777 1.05841,1.53907l8.04766,20.7141c0.10689,0.27789 0.16126,0.54511 0.16126,0.80163c0,0.19239 -0.03295,0.40522 -0.09708,0.64037c-0.06413,0.23515 -0.17133,0.471 -0.32097,0.70613c-0.14964,0.21374 -0.36247,0.39519 -0.64036,0.54486c-0.25653,0.14967 -0.57812,0.22546 -0.96291,0.22546c-0.44892,0 -0.86463,-0.14015 -1.24942,-0.41804c-0.38478,-0.27789 -0.66349,-0.64081 -0.83452,-1.08973l-2.11525,-6.09211h-9.23601l-2.05106,6.41307c-0.12826,0.38478 -0.36409,0.68338 -0.70613,0.89714c-0.34203,0.1923 -0.71644,0.28809 -1.1226,0.28809c-0.57718,0 -1.07865,-0.19139 -1.50619,-0.57617c-0.40616,-0.38478 -0.60906,-0.8549 -0.60906,-1.41069c0,-0.21388 0.03138,-0.41676 0.09551,-0.60906l7.63118,-21.03506c0.23515,-0.64131 0.57818,-1.15429 1.02709,-1.53907c0.47029,-0.38478 1.0476,-0.57774 1.73166,-0.57774c0.68406,0 1.24986,0.19295 1.69877,0.57774zM165.54653,182.58475h6.99081l-3.6872,-10.54963zM193.1669,175.37004c0.94058,0.36341 1.70928,0.80213 2.30782,1.31518c0.61994,0.51305 1.0801,1.04748 1.37938,1.60327c0.29927,0.5558 0.44935,1.02591 0.44935,1.41069c0,0.49167 -0.17151,0.87602 -0.51354,1.15391c-0.34203,0.25652 -0.72638,0.38516 -1.15391,0.38516c-0.29928,0 -0.57799,-0.07579 -0.83452,-0.22546c-0.25651,-0.14965 -0.43797,-0.40536 -0.54486,-0.76876c-0.10688,-0.34204 -0.28833,-0.67356 -0.54485,-0.99421c-0.23515,-0.32065 -0.54524,-0.60931 -0.93002,-0.86583c-0.3634,-0.25648 -0.80214,-0.45938 -1.31518,-0.60905c-0.49167,-0.14967 -1.03602,-0.22546 -1.63458,-0.22546c-0.66268,0 -1.32574,0.12863 -1.98843,0.38516c-0.64131,0.23513 -1.22854,0.62104 -1.76297,1.15548c-0.51305,0.53442 -0.93033,1.23879 -1.25098,2.11525c-0.32065,0.85507 -0.48067,1.89255 -0.48067,3.11103c0,1.21848 0.16001,2.2544 0.48067,3.10947c0.32065,0.85509 0.73794,1.55108 1.25098,2.0855c0.53443,0.53442 1.12166,0.92871 1.76297,1.18523c0.66269,0.23515 1.32575,0.35384 1.98843,0.35384c0.59856,0 1.14291,-0.07579 1.63458,-0.22546c0.51305,-0.14965 0.95178,-0.35253 1.31518,-0.60905c0.38478,-0.25652 0.69487,-0.54518 0.93002,-0.86583c0.25651,-0.32065 0.43796,-0.65219 0.54485,-0.99421c0.10689,-0.36338 0.28834,-0.61909 0.54486,-0.76876c0.25652,-0.14967 0.53524,-0.22546 0.83452,-0.22546c0.42754,0 0.81188,0.14015 1.15391,0.41804c0.3634,0.25652 0.54486,0.61944 0.54486,1.08973c0,0.23515 -0.1072,0.63099 -0.32097,1.1868c-0.21377,0.53442 -0.59812,1.07877 -1.15392,1.63458c-0.5558,0.55579 -1.32449,1.04733 -2.30782,1.47489c-0.96196,0.42754 -2.20232,0.64193 -3.72009,0.64193c-1.26123,0 -2.43728,-0.22434 -3.5275,-0.67325c-1.06884,-0.4703 -1.99912,-1.12185 -2.79006,-1.95555c-0.79094,-0.8337 -1.40956,-1.82829 -1.85848,-2.98264c-0.44892,-1.17572 -0.67481,-2.46891 -0.67481,-3.87979c0,-1.43225 0.22589,-2.72543 0.67481,-3.87978c0.44892,-1.17574 1.06754,-2.18026 1.85848,-3.01396c0.79095,-0.8337 1.72122,-1.47532 2.79006,-1.92423c1.09022,-0.47029 2.26627,-0.70613 3.5275,-0.70613c1.28261,0 2.39434,0.19296 3.33493,0.57775zM210.8279,175.37004c0.94058,0.36341 1.70928,0.80213 2.30782,1.31518c0.61994,0.51305 1.0801,1.04748 1.37938,1.60327c0.29927,0.5558 0.44935,1.02591 0.44935,1.41069c0,0.49167 -0.17151,0.87602 -0.51354,1.15391c-0.34203,0.25652 -0.72638,0.38516 -1.15391,0.38516c-0.29928,0 -0.57799,-0.07579 -0.83452,-0.22546c-0.25651,-0.14965 -0.43797,-0.40536 -0.54486,-0.76876c-0.10688,-0.34204 -0.28833,-0.67356 -0.54485,-0.99421c-0.23515,-0.32065 -0.54524,-0.60931 -0.93002,-0.86583c-0.3634,-0.25648 -0.80214,-0.45938 -1.31518,-0.60905c-0.49167,-0.14967 -1.03602,-0.22546 -1.63458,-0.22546c-0.66268,0 -1.32574,0.12863 -1.98843,0.38516c-0.64131,0.23513 -1.22854,0.62104 -1.76297,1.15548c-0.51305,0.53442 -0.93033,1.23879 -1.25098,2.11525c-0.32065,0.85507 -0.48067,1.89255 -0.48067,3.11103c0,1.21848 0.16001,2.2544 0.48067,3.10947c0.32065,0.85509 0.73794,1.55108 1.25098,2.0855c0.53443,0.53442 1.12166,0.92871 1.76297,1.18523c0.66269,0.23515 1.32575,0.35384 1.98843,0.35384c0.59856,0 1.14291,-0.07579 1.63458,-0.22546c0.51305,-0.14965 0.95178,-0.35253 1.31518,-0.60905c0.38478,-0.25652 0.69487,-0.54518 0.93002,-0.86583c0.25651,-0.32065 0.43796,-0.65219 0.54485,-0.99421c0.10689,-0.36338 0.28834,-0.61909 0.54486,-0.76876c0.25652,-0.14967 0.53524,-0.22546 0.83452,-0.22546c0.42754,0 0.81188,0.14015 1.15391,0.41804c0.3634,0.25652 0.54486,0.61944 0.54486,1.08973c0,0.23515 -0.1072,0.63099 -0.32097,1.1868c-0.21377,0.53442 -0.59812,1.07877 -1.15392,1.63458c-0.5558,0.55579 -1.32449,1.04733 -2.30782,1.47489c-0.96196,0.42754 -2.20232,0.64193 -3.72009,0.64193c-1.26123,0 -2.43728,-0.22434 -3.5275,-0.67325c-1.06884,-0.4703 -1.99912,-1.12185 -2.79006,-1.95555c-0.79094,-0.8337 -1.40956,-1.82829 -1.85848,-2.98264c-0.44892,-1.17572 -0.67481,-2.46891 -0.67481,-3.87979c0,-1.43225 0.22589,-2.72543 0.67481,-3.87978c0.44892,-1.17574 1.06754,-2.18026 1.85848,-3.01396c0.79095,-0.8337 1.72122,-1.47532 2.79006,-1.92423c1.09022,-0.47029 2.26627,-0.70613 3.5275,-0.70613c1.28261,0 2.39434,0.19296 3.33493,0.57775zM257.39939,176.10748c1.30399,0.85507 1.95712,2.12682 1.95712,3.81559v11.96032c0,0.47028 -0.16001,0.87608 -0.48067,1.21811c-0.32065,0.32065 -0.7165,0.48067 -1.1868,0.48067c-0.47029,0 -0.87607,-0.16001 -1.21811,-0.48067c-0.32065,-0.34203 -0.48223,-0.74783 -0.48223,-1.21811v-0.51355c-0.81233,0.87646 -1.74103,1.46525 -2.7885,1.76453c-1.02609,0.29927 -2.11638,0.44779 -3.27073,0.44779c-0.72682,0 -1.46413,-0.0958 -2.21232,-0.28809c-0.72682,-0.21376 -1.38988,-0.53379 -1.98843,-0.96134c-0.57718,-0.42752 -1.04728,-0.96196 -1.41069,-1.60327c-0.3634,-0.64131 -0.54643,-1.41157 -0.54643,-2.3094c0,-1.02609 0.20446,-1.88053 0.61062,-2.5646c0.40616,-0.70544 0.95052,-1.28273 1.63458,-1.73165c0.68407,-0.44892 1.46426,-0.79194 2.34071,-1.02709c0.89783,-0.23518 1.83804,-0.40513 2.82138,-0.51198c1.13297,-0.12822 2.02037,-0.26681 2.66167,-0.41648c0.64131,-0.17102 1.12291,-0.36397 1.44357,-0.57774c0.32065,-0.21378 0.51204,-0.45954 0.57617,-0.73744c0.0855,-0.27789 0.12839,-0.58797 0.12839,-0.93002c0,-0.40615 -0.11714,-0.75912 -0.35229,-1.05841c-0.23514,-0.29936 -0.53373,-0.54515 -0.89714,-0.73744c-0.3634,-0.19247 -0.77076,-0.33103 -1.21967,-0.41647c-0.44892,-0.10685 -0.88608,-0.16126 -1.31361,-0.16126c-0.76957,0 -1.38975,0.06432 -1.86005,0.19258c-0.47029,0.12826 -0.85464,0.29979 -1.15391,0.51355c-0.29927,0.21376 -0.54505,0.46947 -0.73744,0.76875c-0.17102,0.29928 -0.33261,0.60937 -0.48223,0.93002c-0.12826,0.25652 -0.30972,0.44948 -0.54486,0.57774c-0.21377,0.10685 -0.4381,0.1597 -0.67325,0.1597c-0.42754,0 -0.82338,-0.13858 -1.18679,-0.41647c-0.36341,-0.27789 -0.54486,-0.66224 -0.54486,-1.15392c0,-0.19239 0.05437,-0.42823 0.16126,-0.70613c0.19239,-0.44892 0.4481,-0.88607 0.76875,-1.31361c0.32065,-0.44892 0.74788,-0.84477 1.2823,-1.1868c0.5558,-0.34215 1.23036,-0.60934 2.02131,-0.80163c0.81232,-0.21376 1.79541,-0.32097 2.94976,-0.32097c2.18044,0 3.91078,0.43873 5.19339,1.31518zM273.45556,175.37004c0.94058,0.36341 1.70928,0.80213 2.30782,1.31518c0.61994,0.51305 1.08011,1.04748 1.37938,1.60327c0.29927,0.5558 0.44935,1.02591 0.44935,1.41069c0,0.49167 -0.17151,0.87602 -0.51354,1.15391c-0.34203,0.25652 -0.72638,0.38516 -1.15391,0.38516c-0.29928,0 -0.57799,-0.07579 -0.83452,-0.22546c-0.25651,-0.14965 -0.43797,-0.40536 -0.54486,-0.76876c-0.10688,-0.34204 -0.28833,-0.67356 -0.54485,-0.99421c-0.23515,-0.32065 -0.54524,-0.60931 -0.93002,-0.86583c-0.3634,-0.25648 -0.80214,-0.45938 -1.31518,-0.60905c-0.49167,-0.14967 -1.03602,-0.22546 -1.63458,-0.22546c-0.66268,0 -1.32574,0.12863 -1.98843,0.38516c-0.64131,0.23513 -1.22854,0.62104 -1.76297,1.15548c-0.51305,0.53442 -0.93033,1.23879 -1.25098,2.11525c-0.32065,0.85507 -0.48067,1.89255 -0.48067,3.11103c0,1.21848 0.16001,2.2544 0.48067,3.10947c0.32065,0.85509 0.73794,1.55108 1.25098,2.0855c0.53443,0.53442 1.12166,0.92871 1.76297,1.18523c0.66269,0.23515 1.32575,0.35384 1.98843,0.35384c0.59856,0 1.14291,-0.07579 1.63458,-0.22546c0.51305,-0.14965 0.95178,-0.35253 1.31518,-0.60905c0.38478,-0.25652 0.69487,-0.54518 0.93002,-0.86583c0.25651,-0.32065 0.43796,-0.65219 0.54485,-0.99421c0.10689,-0.36338 0.28834,-0.61909 0.54486,-0.76876c0.25652,-0.14967 0.53524,-0.22546 0.83452,-0.22546c0.42754,0 0.81188,0.14015 1.15391,0.41804c0.3634,0.25652 0.54486,0.61944 0.54486,1.08973c0,0.23515 -0.1072,0.63099 -0.32097,1.1868c-0.21377,0.53442 -0.59812,1.07877 -1.15392,1.63458c-0.5558,0.55579 -1.32449,1.04733 -2.30782,1.47489c-0.96196,0.42754 -2.20232,0.64193 -3.72009,0.64193c-1.26123,0 -2.43728,-0.22434 -3.5275,-0.67325c-1.06884,-0.4703 -1.99912,-1.12185 -2.79006,-1.95555c-0.79095,-0.8337 -1.40956,-1.82829 -1.85848,-2.98264c-0.44892,-1.17572 -0.67481,-2.46891 -0.67481,-3.87979c0,-1.43225 0.22589,-2.72543 0.67481,-3.87978c0.44892,-1.17574 1.06753,-2.18026 1.85848,-3.01396c0.79095,-0.8337 1.72122,-1.47532 2.79006,-1.92423c1.09022,-0.47029 2.26627,-0.70613 3.5275,-0.70613c1.28261,0 2.39434,0.19296 3.33493,0.57775zM219.7993,175.52974c0.32065,0.32065 0.48067,0.71651 0.48067,1.18679v11.15869c0,0.49167 0.1072,0.91891 0.32097,1.2823c0.23515,0.36341 0.5238,0.67349 0.86583,0.93002c0.36341,0.23515 0.75769,0.4166 1.18523,0.54486c0.44892,0.12826 0.88764,0.19258 1.31518,0.19258c0.70544,0 1.34706,-0.11713 1.92423,-0.35228c0.57718,-0.25652 1.05878,-0.59955 1.44357,-1.02709c0.40616,-0.42753 0.71468,-0.92902 0.92845,-1.5062c0.21376,-0.59856 0.32097,-1.24018 0.32097,-1.92423v-9.29864c0,-0.47028 0.16001,-0.86613 0.48067,-1.18679c0.32065,-0.34205 0.7165,-0.51355 1.1868,-0.51355c0.47029,0 0.86614,0.1715 1.1868,0.51355c0.34203,0.32065 0.51354,0.71651 0.51354,1.18679v15.16686c0,0.47028 -0.17152,0.87608 -0.51354,1.21811c-0.32065,0.32065 -0.71651,0.48067 -1.1868,0.48067c-0.47029,0 -0.86614,-0.16001 -1.1868,-0.48067c-0.32065,-0.34203 -0.48067,-0.74783 -0.48067,-1.21811v-0.57775c-0.21377,0.19239 -0.48098,0.42823 -0.80163,0.70613c-0.29928,0.25652 -0.67369,0.50229 -1.1226,0.73744c-0.44892,0.23507 -0.97184,0.43797 -1.57039,0.60906c-0.57718,0.14967 -1.25017,0.2239 -2.01974,0.2239c-0.79094,0 -1.5612,-0.10564 -2.3094,-0.3194c-0.72681,-0.23515 -1.37837,-0.57818 -1.95555,-1.02709c-0.57718,-0.44892 -1.03734,-1.00478 -1.37937,-1.66746c-0.34203,-0.66268 -0.51198,-1.43137 -0.51198,-2.30783v-11.54384c0,-0.47028 0.16001,-0.86613 0.48066,-1.18679c0.34203,-0.34205 0.74782,-0.51355 1.21812,-0.51355c0.47029,0 0.86613,0.1715 1.18679,0.51355zM237.33505,175.52974c0.32065,0.32065 0.48067,0.71651 0.48067,1.18679v0.60906c0.08551,-0.0855 0.24552,-0.25703 0.48067,-0.51355c0.23514,-0.25652 0.5238,-0.51223 0.86583,-0.76875c0.3634,-0.27799 0.75926,-0.51384 1.1868,-0.70613c0.44892,-0.21378 0.91902,-0.32097 1.41069,-0.32097c0.47029,0 0.86613,0.1715 1.18679,0.51355c0.34203,0.32065 0.51199,0.71651 0.51199,1.18679c0,0.44892 -0.16995,0.84477 -0.51199,1.1868c-0.32065,0.32065 -0.7165,0.48067 -1.18679,0.48067c-0.81233,0 -1.47538,0.19296 -1.98843,0.57774c-0.51305,0.36342 -0.91883,0.80058 -1.21811,1.31362c-0.27789,0.51305 -0.47086,1.04746 -0.57775,1.60327c-0.10689,0.55578 -0.1597,1.01596 -0.1597,1.37937v8.6254c0,0.47028 -0.16001,0.87608 -0.48067,1.21811c-0.32065,0.32065 -0.7165,0.48067 -1.18679,0.48067c-0.47029,0 -0.87608,-0.16001 -1.21812,-0.48067c-0.32065,-0.34203 -0.48066,-0.74783 -0.48066,-1.21811v-15.16686c0,-0.47028 0.16001,-0.86613 0.48066,-1.18679c0.34203,-0.34205 0.74782,-0.51355 1.21812,-0.51355c0.47029,0 0.86613,0.1715 1.18679,0.51355zM281.33568,175.33716c0.32065,0.19239 0.55649,0.47112 0.70613,0.83452l5.58012,13.40232l4.87244,-13.24262c0.14963,-0.38478 0.37553,-0.69487 0.67482,-0.93002c0.32065,-0.25652 0.67205,-0.3836 1.05683,-0.3836c0.38478,0 0.7592,0.14851 1.1226,0.44779c0.36341,0.27789 0.54486,0.72655 0.54486,1.34649c0,0.10691 -0.00994,0.21412 -0.03131,0.32097c-0.02137,0.10693 -0.05431,0.21411 -0.09707,0.32097l-7.37441,18.98244c-0.17101,0.42754 -0.37391,0.86627 -0.60906,1.31518c-0.21376,0.47029 -0.50242,0.88757 -0.86583,1.25098c-0.34203,0.3634 -0.79069,0.66199 -1.34649,0.89715c-0.53443,0.23515 -1.19748,0.35228 -1.98843,0.35228h-1.53907c-0.42754,0 -0.79045,-0.1485 -1.08973,-0.44779c-0.2779,-0.27789 -0.41804,-0.63086 -0.41804,-1.05841c0,-0.42754 0.14013,-0.79202 0.41804,-1.09129c0.29927,-0.29928 0.66218,-0.44778 1.08973,-0.44778h0.99421c0.19239,0 0.39529,-0.01147 0.60906,-0.03288c0.23514,-0.02141 0.45947,-0.08573 0.67324,-0.19258c0.21377,-0.08552 0.41667,-0.24553 0.60905,-0.48067c0.19241,-0.21378 0.36392,-0.53381 0.51355,-0.96134l0.80163,-2.2452l-7.37597,-15.8401c-0.10689,-0.25652 -0.1597,-0.49235 -0.1597,-0.70613c0,-0.17111 0.03294,-0.35257 0.09707,-0.54486c0.06413,-0.2137 0.15983,-0.40509 0.28809,-0.57617c0.12826,-0.17106 0.28828,-0.31119 0.48067,-0.41804c0.21376,-0.12826 0.47104,-0.19101 0.77032,-0.19101c0.3634,0 0.69337,0.10562 0.99265,0.3194zM255.18707,184.60449c-0.40616,0.12826 -0.88621,0.22406 -1.442,0.28808c-0.53443,0.06423 -1.10179,0.14002 -1.70035,0.22546c-0.57717,0.08553 -1.14297,0.1927 -1.69877,0.32097c-0.5558,0.12826 -1.05885,0.31965 -1.50776,0.57617c-0.44892,0.23514 -0.81182,0.54524 -1.08972,0.93002c-0.25652,0.38478 -0.38516,0.87631 -0.38516,1.47488c0,0.47029 0.09726,0.86614 0.28965,1.1868c0.21376,0.29939 0.48098,0.54515 0.80163,0.73744c0.32065,0.17108 0.68355,0.29972 1.08972,0.38516c0.40616,0.06403 0.81195,0.09551 1.21811,0.09551c0.61994,0 1.24012,-0.06432 1.86005,-0.19258c0.61993,-0.14965 1.17579,-0.38391 1.66746,-0.70456c0.51304,-0.32065 0.91882,-0.74945 1.21811,-1.28387c0.32065,-0.53442 0.48067,-1.1959 0.48067,-1.98687v-2.27651z" data-paper-data="{&quot;origPos&quot;:null}"/></g></g></svg>