<svg version="1.1" xmlns="http://www.w3.org/2000/svg" xmlns:xlink="http://www.w3.org/1999/xlink" width="372.2149" height="68.64263" viewBox="0,0,372.2149,68.64263"><g transform="translate(-53.89255,-145.67869)"><g data-paper-data="{&quot;isPaintingLayer&quot;:true}" fill-rule="nonzero" stroke-linecap="butt" stroke-linejoin="miter" stroke-dasharray="" style="mix-blend-mode: normal"><path d="M425.00973,146.42869c0.19313,0 0.34772,0.15459 0.34772,0.34772v66.4453c0,0.19313 -0.15458,0.3496 -0.34772,0.3496h-370.01757c-0.19314,0 -0.3496,-0.15647 -0.3496,-0.3496v-66.4453c0,-0.19313 0.15647,-0.34772 0.3496,-0.34772z" fill="#1e1e1e" stroke="#1eff00" stroke-width="1.5" stroke-miterlimit="4" stroke-dashoffset="17.35"/><path d="M106.625,153.39453c0.54973,0.16169 1.02016,0.37701 1.4082,0.64649c0.39882,0.26948 0.70434,0.57013 0.91992,0.90429c0.21559,0.33414 0.32422,0.66975 0.32422,1.00391c0,0.28036 -0.097,0.50539 -0.29101,0.67773c-0.18324,0.16177 -0.38887,0.24219 -0.61524,0.24219c-0.16169,0 -0.31105,-0.04273 -0.45117,-0.12891c-0.14014,-0.09695 -0.25362,-0.24632 -0.33984,-0.45117c-0.12935,-0.3234 -0.302,-0.58333 -0.51758,-0.77734c-0.2048,-0.20475 -0.43662,-0.36091 -0.69531,-0.46875c-0.24792,-0.11868 -0.51272,-0.19431 -0.79297,-0.22656c-0.28026,-0.04309 -0.5499,-0.06446 -0.8086,-0.06446c-0.38804,0 -0.74788,0.04274 -1.08203,0.12891c-0.32338,0.07534 -0.60951,0.18891 -0.85742,0.33984c-0.23715,0.14002 -0.42628,0.31752 -0.5664,0.53321c-0.12934,0.2048 -0.19336,0.44145 -0.19336,0.71093c0,0.36654 0.10668,0.66915 0.32226,0.90625c0.22636,0.23706 0.52414,0.4359 0.89063,0.59766c0.36649,0.16159 0.78064,0.3032 1.24414,0.42187c0.4635,0.11868 0.93877,0.24184 1.42383,0.3711c0.49583,0.12941 0.974,0.28557 1.4375,0.46875c0.46349,0.17247 0.8796,0.39945 1.24609,0.67969c0.36649,0.28026 0.65746,0.62555 0.87305,1.03515c0.22636,0.4096 0.33984,0.9091 0.33984,1.50196c0,0.65751 -0.12997,1.22977 -0.38867,1.71484c-0.24792,0.48506 -0.59322,0.88951 -1.03516,1.21289c-0.44194,0.3233 -0.95988,0.5648 -1.55273,0.72656c-0.59285,0.16177 -1.22233,0.24219 -1.89063,0.24219c-0.95933,0 -1.77795,-0.13484 -2.45703,-0.4043c-0.6683,-0.28026 -1.21243,-0.61389 -1.63281,-1.00195c-0.42039,-0.39882 -0.72786,-0.81297 -0.92187,-1.24414c-0.19401,-0.44193 -0.29102,-0.82506 -0.29102,-1.14844c0,-0.38798 0.09701,-0.66245 0.29102,-0.82422c0.20479,-0.16176 0.41528,-0.24218 0.63085,-0.24218c0.18325,0 0.3491,0.05905 0.5,0.17773c0.15091,0.10777 0.24307,0.28527 0.27539,0.5332c0.06468,0.40963 0.20434,0.76944 0.41993,1.08203c0.22636,0.31247 0.50084,0.57729 0.82421,0.79297c0.32338,0.20475 0.68516,0.36091 1.08399,0.46875c0.39882,0.10785 0.80813,0.16211 1.22851,0.16211c0.33415,0 0.67945,-0.03794 1.03516,-0.11328c0.36649,-0.08617 0.69529,-0.20933 0.98633,-0.37109c0.3018,-0.17247 0.5433,-0.39458 0.72656,-0.66406c0.19402,-0.26949 0.29102,-0.59148 0.29102,-0.96876c0,-0.40959 -0.11153,-0.75005 -0.33789,-1.01953c-0.21559,-0.26953 -0.50656,-0.4965 -0.87305,-0.67968c-0.35571,-0.18313 -0.76697,-0.3325 -1.23047,-0.45118c-0.4635,-0.12943 -0.93682,-0.25941 -1.42187,-0.38867c-0.48506,-0.12928 -0.96033,-0.27573 -1.42383,-0.4375c-0.4635,-0.17244 -0.87765,-0.38779 -1.24414,-0.64648c-0.3557,-0.26948 -0.64668,-0.59148 -0.87305,-0.96875c-0.21558,-0.38806 -0.32422,-0.86817 -0.32422,-1.43945c0,-0.53894 0.11348,-1.01907 0.33984,-1.43946c0.23715,-0.42038 0.5611,-0.77536 0.97071,-1.0664c0.4096,-0.291 0.89456,-0.51314 1.45508,-0.66407c0.56051,-0.15093 1.17545,-0.22656 1.84375,-0.22656c0.64674,0 1.23839,0.08238 1.77734,0.24414zM66.43555,153.37695c0.63596,0 1.27224,0.10854 1.90821,0.32422c0.63596,0.21556 1.20627,0.5754 1.71289,1.08203c0.50662,0.49583 0.91788,1.15343 1.23047,1.97266c0.31259,0.80842 0.46875,1.8065 0.46875,2.99219c0,1.19649 -0.15616,2.20423 -0.46875,3.02343c-0.31259,0.80842 -0.72386,1.46603 -1.23047,1.97266c-0.50662,0.49572 -1.07692,0.85072 -1.71289,1.06641c-0.63596,0.21568 -1.27224,0.32422 -1.90821,0.32422h-3.83203c-0.16169,0 -0.31785,-0.02811 -0.46875,-0.08204c-0.1509,-0.06475 -0.28572,-0.14997 -0.40429,-0.25781c-0.11857,-0.10769 -0.21558,-0.24253 -0.29102,-0.4043c-0.07547,-0.16171 -0.11328,-0.33918 -0.11328,-0.5332v-10.21875c0,-0.34492 0.12514,-0.64073 0.37305,-0.88867c0.24792,-0.24794 0.54859,-0.37305 0.90429,-0.37305zM88.48633,153.61914c0.16169,0.16171 0.24415,0.36251 0.24415,0.59961v6.17578l3.96093,-3.44336c0.15092,-0.11868 0.31677,-0.17773 0.5,-0.17773c0.17246,0 0.34026,0.0641 0.50196,0.19336c0.16169,0.12938 0.24219,0.31368 0.24219,0.55078c0,0.21556 -0.08533,0.3979 -0.25781,0.54883l-2.47461,2.13476l3.26563,4.62305c0.09701,0.15103 0.14648,0.31398 0.14648,0.48633c0,0.15085 -0.02618,0.28083 -0.08008,0.38867c-0.0539,0.09701 -0.12471,0.17743 -0.21093,0.24219c-0.08625,0.06475 -0.17838,0.11228 -0.2754,0.14453c-0.09701,0.03225 -0.18917,0.04883 -0.27539,0.04883c-0.14013,0 -0.26814,-0.02616 -0.38671,-0.08008c-0.11858,-0.05392 -0.22042,-0.14109 -0.30665,-0.25977l-3.10547,-4.49414l-1.24414,1.06641v2.91015c0,0.23726 -0.08245,0.44289 -0.24415,0.61524c-0.1617,0.16176 -0.36053,0.24219 -0.59766,0.24219c-0.23714,0 -0.44081,-0.08043 -0.61328,-0.24219c-0.16169,-0.1725 -0.24414,-0.37813 -0.24414,-0.61524v-11.05859c0,-0.23705 0.08245,-0.43785 0.24414,-0.59961c0.17248,-0.16176 0.37615,-0.24219 0.61328,-0.24219c0.23714,0 0.43597,0.08043 0.59766,0.24219zM112.48828,153.62109c0.16169,0.16172 0.24219,0.36056 0.24219,0.59766v3.79883c0.34493,-0.39874 0.71641,-0.70619 1.11523,-0.92188c0.39883,-0.21568 0.87894,-0.32226 1.43946,-0.32226c0.49583,0 0.95266,0.07563 1.37304,0.22656c0.42038,0.15093 0.78217,0.36625 1.08399,0.64648c0.30181,0.26948 0.53362,0.60314 0.69531,1.00196c0.17247,0.38805 0.25781,0.82548 0.25781,1.31054v5.31836c0,0.23726 -0.08534,0.44289 -0.25781,0.61524c-0.1617,0.16176 -0.36053,0.24219 -0.59766,0.24219c-0.23713,0 -0.43792,-0.08043 -0.59961,-0.24219c-0.16168,-0.1725 -0.24218,-0.37813 -0.24218,-0.61524v-5.31836c0,-0.24781 -0.05432,-0.47962 -0.16211,-0.69531c-0.09701,-0.22629 -0.22987,-0.42027 -0.40235,-0.58203c-0.17245,-0.16176 -0.37324,-0.28687 -0.59961,-0.37305c-0.22636,-0.097 -0.46302,-0.14453 -0.71093,-0.14453c-0.32337,0 -0.63084,0.0641 -0.92188,0.19336c-0.29102,0.11848 -0.54902,0.28627 -0.77539,0.50196c-0.21557,0.20479 -0.38822,0.44629 -0.51758,0.72656c-0.11857,0.28024 -0.17773,0.58287 -0.17773,0.90625v4.78515c0,0.23726 -0.0805,0.44289 -0.24219,0.61524c-0.1617,0.16176 -0.36248,0.24219 -0.59961,0.24219c-0.23713,0 -0.44081,-0.08043 -0.61328,-0.24219c-0.16169,-0.1725 -0.24219,-0.37813 -0.24219,-0.61524v-11.05859c0,-0.23705 0.0805,-0.43589 0.24219,-0.59766c0.17248,-0.16176 0.37615,-0.24414 0.61328,-0.24414c0.23714,0 0.43792,0.08238 0.59961,0.24414zM63.23438,164.4375h2.83007c0.63596,0 1.18979,-0.10853 1.66406,-0.32422c0.47428,-0.22637 0.86905,-0.53868 1.18164,-0.9375c0.31259,-0.4096 0.54441,-0.89941 0.69531,-1.4707c0.1509,-0.58207 0.22656,-1.23482 0.22656,-1.95703c0,-0.71141 -0.07566,-1.35254 -0.22656,-1.92383c-0.1509,-0.58207 -0.38272,-1.07384 -0.69531,-1.47266c-0.31259,-0.4095 -0.70736,-0.72181 -1.18164,-0.9375c-0.47428,-0.22627 -1.0281,-0.33789 -1.66406,-0.33789h-2.83007zM79.27344,157.32227c0.65752,0.43116 0.98633,1.07227 0.98633,1.92382v6.03125c0,0.23726 -0.08245,0.44289 -0.24414,0.61524c-0.1617,0.16176 -0.36053,0.24219 -0.59766,0.24219c-0.23713,0 -0.44081,-0.08043 -0.61328,-0.24219c-0.16169,-0.1725 -0.24414,-0.37813 -0.24414,-0.61524v-0.25976c-0.4096,0.44193 -0.87807,0.73969 -1.40625,0.89062c-0.51739,0.15093 -1.06636,0.22657 -1.64843,0.22657c-0.36649,0 -0.73797,-0.04948 -1.11524,-0.14649c-0.36649,-0.10769 -0.70209,-0.26869 -1.00391,-0.48437c-0.29105,-0.21559 -0.52771,-0.48522 -0.71094,-0.8086c-0.18326,-0.32335 -0.27539,-0.71132 -0.27539,-1.16406c0,-0.51739 0.1038,-0.94805 0.3086,-1.29297c0.2048,-0.3558 0.47928,-0.64678 0.82421,-0.87305c0.34493,-0.22626 0.73774,-0.3989 1.17969,-0.51757c0.45272,-0.11843 0.92799,-0.20585 1.42383,-0.25977c0.57129,-0.0645 1.01842,-0.13339 1.34179,-0.20898c0.32337,-0.08618 0.56487,-0.18318 0.72656,-0.29102c0.16169,-0.10784 0.25869,-0.23295 0.29102,-0.37305c0.04311,-0.13999 0.06445,-0.29615 0.06445,-0.46875c0,-0.20477 -0.05916,-0.38227 -0.17773,-0.5332c-0.11858,-0.15093 -0.26794,-0.27409 -0.45117,-0.37109c-0.18323,-0.09701 -0.38886,-0.16785 -0.61523,-0.21094c-0.22636,-0.05392 -0.44653,-0.08008 -0.66211,-0.08008c-0.38806,0 -0.70233,0.03095 -0.93945,0.0957c-0.23714,0.06476 -0.43113,0.15193 -0.58203,0.25977c-0.1509,0.10777 -0.27408,0.23774 -0.37109,0.38867c-0.08596,0.15033 -0.16697,0.3056 -0.24219,0.4668v0.00195c-0.06464,0.12851 -0.15728,0.22456 -0.27539,0.28906c-0.1078,0.05393 -0.22127,0.08204 -0.33984,0.08204c-0.2156,0 -0.41442,-0.07085 -0.59766,-0.21094c-0.18326,-0.14012 -0.27539,-0.3341 -0.27539,-0.58203c0,-0.09701 0.02813,-0.21538 0.08203,-0.35547c0.09701,-0.22627 0.22503,-0.44643 0.38672,-0.66211c0.16169,-0.22647 0.37701,-0.42726 0.64649,-0.59961c0.28026,-0.17247 0.6207,-0.30729 1.01953,-0.4043c0.4096,-0.10784 0.90621,-0.16015 1.48828,-0.16015c1.09946,0 1.9724,0.22018 2.61914,0.66211zM125.73828,156.93359c0.53895,0.18326 1.00258,0.45289 1.39063,0.8086c0.39881,0.34492 0.71308,0.77071 0.93945,1.27734c0.22637,0.50661 0.33789,1.08372 0.33789,1.73047c0,0.39877 -0.097,0.7014 -0.29102,0.90625c-0.19402,0.20485 -0.41903,0.30664 -0.67773,0.30664h-5.91797c0,0.02142 0.00479,0.11363 0.01563,0.27539c0.02156,0.1508 0.05938,0.33314 0.11328,0.54883c0.06468,0.21556 0.15002,0.44737 0.25781,0.69531c0.11858,0.23708 0.27669,0.45921 0.4707,0.66406c0.19403,0.20485 0.43068,0.37749 0.71094,0.51758c0.29103,0.12926 0.64118,0.19336 1.05078,0.19336c0.33416,0 0.6203,-0.02615 0.85742,-0.08008c0.23716,-0.05392 0.44568,-0.13629 0.62891,-0.24414c0.18325,-0.10769 0.35105,-0.24253 0.50195,-0.40429c0.15091,-0.17258 0.30222,-0.37139 0.45313,-0.59766c0.08622,-0.12926 0.18322,-0.22147 0.29101,-0.27539c0.1078,-0.05392 0.22127,-0.08008 0.33985,-0.08008c0.19402,0 0.37151,0.07084 0.5332,0.21094c0.16169,0.14002 0.24219,0.31752 0.24219,0.5332c0,0.12936 -0.06887,0.32334 -0.20899,0.58203c-0.14012,0.2587 -0.36709,0.5167 -0.67968,0.77539c-0.30182,0.2587 -0.69463,0.48568 -1.17969,0.67969c-0.48506,0.19402 -1.07866,0.29102 -1.7793,0.29102c-0.71142,0 -1.34769,-0.12998 -1.9082,-0.38867c-0.56051,-0.2587 -1.03383,-0.60399 -1.42188,-1.03516c-0.37727,-0.44195 -0.66824,-0.95309 -0.87304,-1.53516c-0.19402,-0.58207 -0.29102,-1.19218 -0.29102,-1.82812c0,-0.65754 0.10184,-1.27731 0.30664,-1.85938c0.2048,-0.59283 0.49578,-1.10399 0.87305,-1.53515c0.38805,-0.43115 0.85167,-0.7716 1.39062,-1.01953c0.53896,-0.2587 1.14225,-0.38672 1.81055,-0.38672c0.61441,0 1.18472,0.09025 1.71289,0.27343zM135.15039,156.93359c0.53895,0.18326 1.00258,0.45289 1.39063,0.8086c0.39881,0.34492 0.71113,0.77071 0.9375,1.27734c0.22636,0.50661 0.33984,1.08372 0.33984,1.73047c0,0.39877 -0.097,0.7014 -0.29102,0.90625c-0.19402,0.20485 -0.42099,0.30664 -0.67968,0.30664h-5.91797c0,0.02142 0.00479,0.11363 0.01562,0.27539c0.02157,0.1508 0.05939,0.33314 0.11328,0.54883c0.06468,0.21556 0.15198,0.44737 0.25977,0.69531c0.11858,0.23708 0.27473,0.45921 0.46875,0.66406c0.19402,0.20485 0.43068,0.37749 0.71094,0.51758c0.29103,0.12926 0.64118,0.19336 1.05078,0.19336c0.33416,0 0.62029,-0.02615 0.85742,-0.08008c0.23715,-0.05392 0.44763,-0.13629 0.63086,-0.24414c0.18325,-0.10769 0.3491,-0.24253 0.5,-0.40429c0.15091,-0.17258 0.30222,-0.37139 0.45312,-0.59766c0.08623,-0.12926 0.18323,-0.22147 0.29102,-0.27539c0.10779,-0.05392 0.22127,-0.08008 0.33984,-0.08008c0.19402,0 0.37152,0.07084 0.53321,0.21094c0.16169,0.14002 0.24218,0.31752 0.24218,0.5332c0,0.12936 -0.06886,0.32334 -0.20898,0.58203c-0.14013,0.2587 -0.36709,0.5167 -0.67969,0.77539c-0.30181,0.2587 -0.69463,0.48568 -1.17969,0.67969c-0.48505,0.19402 -1.07865,0.29102 -1.77929,0.29102c-0.71142,0 -1.3477,-0.12998 -1.90821,-0.38867c-0.56051,-0.2587 -1.03382,-0.60399 -1.42187,-1.03516c-0.37727,-0.44195 -0.66825,-0.95309 -0.87305,-1.53516c-0.19401,-0.58207 -0.29101,-1.19218 -0.29101,-1.82812c0,-0.65754 0.10184,-1.27731 0.30664,-1.85938c0.2048,-0.59283 0.49578,-1.10399 0.87305,-1.53515c0.38804,-0.43115 0.85167,-0.7716 1.39062,-1.01953c0.53895,-0.2587 1.14225,-0.38672 1.81055,-0.38672c0.6144,0 1.18666,0.09025 1.71484,0.27343zM82.97461,157.03125c0.16169,0.16171 0.24219,0.36055 0.24219,0.59766v0.30859c0.04311,-0.04309 0.12361,-0.13051 0.24219,-0.25977c0.11856,-0.12943 0.26503,-0.25745 0.4375,-0.38671c0.18324,-0.1401 0.38207,-0.26042 0.59766,-0.35743c0.22637,-0.10784 0.46303,-0.16015 0.71094,-0.16015c0.23714,0 0.43597,0.08521 0.59766,0.25781c0.17248,0.16171 0.25977,0.36055 0.25977,0.59766c0,0.22649 -0.08729,0.42726 -0.25977,0.59961c-0.1617,0.16176 -0.36053,0.24218 -0.59766,0.24218c-0.4096,0 -0.74325,0.097 -1.00195,0.29102c-0.2587,0.18326 -0.46433,0.40341 -0.61523,0.66211c-0.14012,0.25869 -0.23712,0.52835 -0.29102,0.80859c-0.0539,0.28032 -0.08008,0.51213 -0.08008,0.69531v4.34961c0,0.23726 -0.08049,0.44094 -0.24219,0.61328c-0.1617,0.16177 -0.36248,0.24415 -0.59961,0.24415c-0.23713,0 -0.44081,-0.08238 -0.61328,-0.24415c-0.16169,-0.17249 -0.24219,-0.37617 -0.24219,-0.61328v-7.64843c0,-0.23706 0.0805,-0.4359 0.24219,-0.59766c0.17248,-0.1726 0.37615,-0.25977 0.61328,-0.25977c0.23714,0 0.43792,0.08717 0.59961,0.25977zM140.33984,157.03125c0.16169,0.16171 0.24219,0.36251 0.24219,0.59961v0.14453c0.2156,-0.18333 0.41638,-0.33949 0.59961,-0.46875c0.19403,-0.12926 0.39286,-0.23105 0.59766,-0.30664c0.2048,-0.08617 0.43177,-0.14548 0.67968,-0.17773c0.24792,-0.03226 0.5321,-0.04883 0.85547,-0.04883c0.52818,0 1.02479,0.11357 1.48828,0.33984c0.47428,0.22637 0.88359,0.54837 1.22852,0.96875c0.35571,0.4096 0.637,0.90621 0.8418,1.48828c0.2048,0.57129 0.30664,1.20076 0.30664,1.89063c0,0.68984 -0.09216,1.32126 -0.27539,1.89258c-0.18325,0.57128 -0.44609,1.06789 -0.79102,1.48828c-0.33415,0.40967 -0.73861,0.72685 -1.21289,0.95312c-0.47428,0.22627 -1.00191,0.33985 -1.58398,0.33985c-0.38805,0 -0.7285,-0.03795 -1.01953,-0.11329c-0.28026,-0.08617 -0.52856,-0.18796 -0.74415,-0.30664c-0.2048,-0.1186 -0.38714,-0.24857 -0.54882,-0.38867c-0.15093,-0.15098 -0.29254,-0.29066 -0.42188,-0.41992v3.7832c0,0.23706 -0.0805,0.4359 -0.24219,0.59766c-0.16169,0.1726 -0.36052,0.25977 -0.59765,0.25977c-0.23713,0 -0.44276,-0.08717 -0.61524,-0.25977c-0.16169,-0.16171 -0.24218,-0.36055 -0.24218,-0.59766v-11.05859c0,-0.23705 0.08049,-0.43785 0.24218,-0.59961c0.17248,-0.1726 0.37811,-0.25781 0.61524,-0.25781c0.23714,0 0.43597,0.08521 0.59765,0.25781zM123.03906,158.22852c-0.28026,0.11862 -0.51692,0.26994 -0.71094,0.45312c-0.18324,0.17237 -0.3297,0.36635 -0.4375,0.58203c-0.10779,0.21564 -0.18829,0.41448 -0.24218,0.59766c-0.05385,0.18328 -0.08682,0.34428 -0.09766,0.48437c-0.01083,0.12826 -0.01562,0.20389 -0.01562,0.22657h5.23828c0,-0.33417 -0.05432,-0.65132 -0.16211,-0.95313c-0.10778,-0.30191 -0.27363,-0.5667 -0.5,-0.79297c-0.21558,-0.23718 -0.49687,-0.42631 -0.8418,-0.5664c-0.34493,-0.1401 -0.74744,-0.20899 -1.21094,-0.20899c-0.39882,0 -0.73927,0.05906 -1.01953,0.17774zM132.44922,158.22852c-0.28027,0.11862 -0.51692,0.26994 -0.71094,0.45312c-0.18324,0.17237 -0.32775,0.36635 -0.43555,0.58203c-0.10779,0.21564 -0.19024,0.41448 -0.24414,0.59766c-0.05384,0.18328 -0.08486,0.34428 -0.0957,0.48437c-0.01083,0.12826 -0.01758,0.20389 -0.01758,0.22657h5.24024c0,-0.33417 -0.05432,-0.65132 -0.16211,-0.95313c-0.10778,-0.30191 -0.27559,-0.5667 -0.50196,-0.79297c-0.21558,-0.23718 -0.49491,-0.42631 -0.83984,-0.5664c-0.34493,-0.1401 -0.74939,-0.20899 -1.21289,-0.20899c-0.39883,0 -0.73928,0.05906 -1.01953,0.17774zM141.94141,158.4375c-0.31259,0.18326 -0.57739,0.43155 -0.79297,0.74414c-0.21558,0.30181 -0.38143,0.65197 -0.5,1.05078c-0.10779,0.38806 -0.16211,0.7993 -0.16211,1.23047c0,0.42038 0.05432,0.8297 0.16211,1.22852c0.11856,0.39881 0.28441,0.74894 0.5,1.05078c0.21558,0.30186 0.48037,0.54338 0.79297,0.72656c0.32337,0.18318 0.69,0.27539 1.09961,0.27539c0.39882,0 0.75381,-0.09221 1.0664,-0.27539c0.32337,-0.18323 0.59301,-0.42475 0.8086,-0.72656c0.22635,-0.30184 0.39416,-0.65197 0.50195,-1.05078c0.11858,-0.39882 0.17773,-0.80814 0.17773,-1.22852c0,-0.43117 -0.05915,-0.84241 -0.17773,-1.23047c-0.10778,-0.39881 -0.27559,-0.74897 -0.50195,-1.05078c-0.21559,-0.31267 -0.48523,-0.56096 -0.8086,-0.74414c-0.31259,-0.18318 -0.66758,-0.27344 -1.0664,-0.27344c-0.40961,0 -0.77624,0.09026 -1.09961,0.27344zM78.15625,161.60742c-0.2048,0.06476 -0.44631,0.11423 -0.72656,0.14649c-0.26948,0.03225 -0.55561,0.07019 -0.85742,0.11328c-0.29103,0.04308 -0.57716,0.0954 -0.85742,0.16015c-0.28025,0.06476 -0.5334,0.16176 -0.75977,0.29102c-0.22637,0.11858 -0.4087,0.27473 -0.54882,0.46875c-0.12936,0.19402 -0.19531,0.44233 -0.19531,0.74414c0,0.23708 0.04947,0.43785 0.14648,0.59961c0.10779,0.15093 0.24261,0.27409 0.4043,0.37109c0.16169,0.08618 0.34402,0.15028 0.54882,0.19336c0.2048,0.03225 0.41044,0.04883 0.61524,0.04883c0.31259,0 0.62491,-0.0329 0.9375,-0.09766c0.3126,-0.07533 0.59389,-0.1937 0.84179,-0.35546c0.2587,-0.16169 0.46238,-0.37701 0.61329,-0.64649c0.16169,-0.26948 0.24218,-0.60314 0.24218,-1.00195v-1.14844zM92.63867,168.22461c0.60363,0.2587 1.11188,0.56617 1.52148,0.92187c0.40961,0.35571 0.71512,0.72233 0.91992,1.0996c0.2048,0.37735 0.30859,0.67803 0.30859,0.9043c0,0.17245 -0.04268,0.3354 -0.1289,0.48633c-0.07544,0.15085 -0.17924,0.28083 -0.3086,0.38867c-0.12935,0.10784 -0.27385,0.19306 -0.43554,0.25781c-0.15091,0.06476 -0.30222,0.09766 -0.45312,0.09766c-0.16168,0 -0.30814,-0.03769 -0.4375,-0.11328c-0.12934,-0.07534 -0.23118,-0.18892 -0.30664,-0.33985c-0.08625,-0.17257 -0.19293,-0.37138 -0.32226,-0.59765c-0.11856,-0.23715 -0.28637,-0.45247 -0.50196,-0.64649c-0.20481,-0.20482 -0.4696,-0.37748 -0.79297,-0.51757c-0.31259,-0.1401 -0.7054,-0.21094 -1.17969,-0.21094c-0.53895,0 -1.01907,0.1348 -1.43946,0.40429c-0.4096,0.25869 -0.75974,0.59914 -1.05078,1.01953c-0.28026,0.42036 -0.49558,0.89854 -0.64648,1.4375c-0.14012,0.52817 -0.21094,1.0626 -0.21094,1.60156c0,0.54972 0.07082,1.09385 0.21094,1.63281c0.15091,0.52818 0.36623,1.00149 0.64648,1.42188c0.29104,0.42038 0.64118,0.76567 1.05078,1.03515c0.42039,0.2587 0.9005,0.38867 1.43946,0.38867c0.47428,0 0.86709,-0.07084 1.17969,-0.21093c0.32337,-0.14007 0.58817,-0.31273 0.79297,-0.51758c0.21558,-0.2049 0.38338,-0.42022 0.50196,-0.64649c0.12936,-0.22641 0.23604,-0.4301 0.32226,-0.61328c0.07547,-0.15067 0.1773,-0.26425 0.30664,-0.33984c0.12935,-0.07534 0.27097,-0.11328 0.42188,-0.11328c0.15091,0 0.30026,0.0329 0.45117,0.09765c0.16168,0.06451 0.30814,0.14997 0.4375,0.25782c0.12936,0.10776 0.2312,0.23774 0.30664,0.38867c0.08623,0.15078 0.12891,0.31178 0.12891,0.48437c0,0.23716 -0.10185,0.54463 -0.30665,0.92188c-0.2048,0.37727 -0.51227,0.7439 -0.92187,1.09961c-0.39882,0.35573 -0.90028,0.66318 -1.50391,0.92187c-0.60363,0.2587 -1.30876,0.38867 -2.11719,0.38867c-0.97012,0.00001 -1.82171,-0.18429 -2.55469,-0.55078c-0.72219,-0.36648 -1.32549,-0.85143 -1.81054,-1.45507c-0.47429,-0.6144 -0.83607,-1.31469 -1.08398,-2.10157c-0.23713,-0.79765 -0.35547,-1.62792 -0.35547,-2.49023c0,-0.85155 0.11834,-1.67695 0.35547,-2.47461c0.24792,-0.79763 0.6097,-1.49792 1.08398,-2.10156c0.48505,-0.6144 1.08835,-1.10422 1.81054,-1.47071c0.73298,-0.36648 1.58457,-0.55078 2.55469,-0.55078c0.80843,0 1.51355,0.13482 2.11719,0.4043zM67.55078,168.04688c0.4635,0 0.90578,0.08042 1.32617,0.24218c0.43116,0.15091 0.80944,0.36818 1.13281,0.64844c0.32338,0.26946 0.58138,0.59148 0.77539,0.96875c0.19402,0.37727 0.29101,0.78171 0.29101,1.21288c0,0.45271 -0.06402,0.83585 -0.19336,1.14844c-0.11858,0.31254 -0.27473,0.57054 -0.46875,0.77539c-0.19403,0.2049 -0.41615,0.37269 -0.66406,0.50195c-0.24793,0.11868 -0.49623,0.22721 -0.74414,0.32422c0.19402,0.06476 0.42583,0.17134 0.69531,0.32227c0.28026,0.14012 0.54989,0.33896 0.80859,0.59765c0.25869,0.2587 0.48081,0.59431 0.66406,1.00391c0.18323,0.39884 0.27344,0.88863 0.27344,1.4707c0,0.52815 -0.10668,1.00829 -0.32226,1.43945c-0.21558,0.43117 -0.50172,0.80265 -0.85743,1.11524c-0.35571,0.31272 -0.76986,0.55617 -1.24414,0.72852c-0.4635,0.17234 -0.95526,0.25781 -1.47266,0.25781h-4.94727c-0.15091,0 -0.30222,-0.02137 -0.45312,-0.06446c-0.15089,-0.05392 -0.29056,-0.12955 -0.41992,-0.22656c-0.11857,-0.10771 -0.21558,-0.24253 -0.29102,-0.40429c-0.07547,-0.16177 -0.11328,-0.35577 -0.11328,-0.58204v-10.21875c0,-0.097 0.0165,-0.21537 0.04883,-0.35547c0.03235,-0.15097 0.09151,-0.29066 0.17774,-0.41992c0.09701,-0.14009 0.22698,-0.25367 0.38867,-0.33984c0.17246,-0.09701 0.38779,-0.14648 0.64648,-0.14648zM98.5586,168.38672c0.23712,0.22634 0.35546,0.50084 0.35546,0.82422v3.20311c0,0.06476 0.02134,0.09571 0.06446,0.09571c0.06468,0 0.16652,-0.05427 0.30664,-0.16211c0.14013,-0.11868 0.31278,-0.24184 0.51758,-0.3711c0.21558,-0.12926 0.46389,-0.24762 0.74415,-0.35547c0.28025,-0.11867 0.59257,-0.17773 0.9375,-0.17773c0.4635,0 0.87765,0.07563 1.24414,0.22656c0.37727,0.15091 0.69154,0.35459 0.93945,0.61328c0.24793,0.2587 0.43512,0.56617 0.56445,0.92188c0.14012,0.34494 0.21094,0.71642 0.21094,1.11523v5.32031c0,0.31265 -0.11834,0.58712 -0.35547,0.82422c-0.22636,0.22627 -0.496,0.33985 -0.80859,0.33985c-0.32336,0 -0.60465,-0.11358 -0.8418,-0.33985c-0.22637,-0.23715 -0.33789,-0.51162 -0.33789,-0.82422v-4.52734c0,-0.44195 -0.15811,-0.81343 -0.4707,-1.11523c-0.30182,-0.3126 -0.67814,-0.46875 -1.13086,-0.46875c-0.44194,0 -0.82022,0.15615 -1.13281,0.46875c-0.30181,0.3018 -0.45117,0.67812 -0.45117,1.13086v4.51171c0,0.31265 -0.11834,0.58712 -0.35546,0.82422c-0.22636,0.22627 -0.5028,0.33985 -0.82618,0.33985c-0.31261,0 -0.58709,-0.11358 -0.82422,-0.33985c-0.22637,-0.23715 -0.33984,-0.51162 -0.33984,-0.82422v-10.42967c0,-0.32345 0.11347,-0.59795 0.33984,-0.82422c0.23714,-0.22627 0.51163,-0.33984 0.82422,-0.33984c0.32337,0 0.59981,0.11357 0.82618,0.33984zM63.80078,173.14062h3.31446c0.20479,0 0.39877,-0.03794 0.58203,-0.11328c0.18323,-0.07559 0.33939,-0.17738 0.46875,-0.30664c0.14012,-0.14017 0.2468,-0.30314 0.32227,-0.48632c0.07547,-0.18321 0.11328,-0.37719 0.11328,-0.58204c0,-0.20487 -0.03781,-0.39885 -0.11328,-0.58203c-0.07547,-0.18333 -0.18215,-0.33949 -0.32227,-0.46875c-0.12937,-0.14009 -0.28552,-0.24692 -0.46875,-0.32226c-0.18324,-0.07559 -0.37723,-0.11328 -0.58203,-0.11328h-3.31446zM141.95117,171.58789c0.4635,0.09696 0.86116,0.24828 1.19531,0.45313c0.34495,0.2048 0.60974,0.46279 0.79297,0.77539c0.19402,0.3018 0.29102,0.66844 0.29102,1.09961v5.77148c0,0.31249 -0.10864,0.57728 -0.32422,0.79297c-0.21558,0.21568 -0.47842,0.32422 -0.79102,0.32422c-0.29103,0 -0.54613,-0.09221 -0.76171,-0.27539c-0.20483,-0.19402 -0.32315,-0.43552 -0.35547,-0.72657c-0.40961,0.38809 -0.84025,0.65093 -1.29297,0.79102c-0.45272,0.14009 -0.96387,0.21094 -1.53516,0.21094c-0.36649,0 -0.73992,-0.05427 -1.11719,-0.16211c-0.36648,-0.10767 -0.70013,-0.26869 -1.00195,-0.48438c-0.29105,-0.22637 -0.5277,-0.50279 -0.71094,-0.82617c-0.18323,-0.32338 -0.27539,-0.69971 -0.27539,-1.13086c0,-0.66832 0.14647,-1.19111 0.4375,-1.56836c0.30182,-0.3773 0.6733,-0.6634 1.11524,-0.85742c0.44194,-0.19407 0.91526,-0.33375 1.42187,-0.41992c0.5174,-0.08617 0.99751,-0.17164 1.43946,-0.25781c0.44194,-0.08618 0.80857,-0.2065 1.0996,-0.35743c0.30182,-0.16168 0.45313,-0.41482 0.45313,-0.75976c0,-0.16156 -0.04948,-0.30125 -0.14648,-0.41992c-0.08623,-0.12951 -0.20941,-0.23131 -0.3711,-0.30664c-0.16168,-0.08618 -0.35082,-0.15028 -0.5664,-0.19336c-0.21557,-0.04309 -0.44059,-0.06641 -0.67774,-0.06641c-0.31258,0 -0.55604,0.04469 -0.72851,0.13086c-0.17247,0.08643 -0.31213,0.19301 -0.41993,0.32227c-0.097,0.12928 -0.1775,0.27573 -0.24218,0.4375c-0.06468,0.15098 -0.14714,0.29066 -0.24414,0.41992c-0.08623,0.12951 -0.20457,0.23804 -0.35547,0.32422c-0.15091,0.08617 -0.36623,0.1289 -0.64649,0.1289c-0.2587,0 -0.48567,-0.06605 -0.67969,-0.19531c-0.18323,-0.14012 -0.27343,-0.38841 -0.27343,-0.74414c0,-0.34492 0.08534,-0.6621 0.25781,-0.95313c0.17246,-0.29099 0.42077,-0.53929 0.74414,-0.74414c0.32337,-0.21548 0.71619,-0.38132 1.17969,-0.5c0.4635,-0.11867 0.98629,-0.17968 1.56836,-0.17968c0.54973,0 1.05798,0.04947 1.52148,0.14648zM79.51563,171.76758c0.2587,0.21556 0.38867,0.50656 0.38867,0.87304c0,0.10785 -0.0165,0.20964 -0.04882,0.30665l-2.97461,9.28125c-0.1509,0.45273 -0.34004,0.80771 -0.56641,1.0664c-0.21558,0.25872 -0.45224,0.45756 -0.71094,0.59766c-0.2587,0.14009 -0.53319,0.22751 -0.82422,0.25976c-0.28026,0.04309 -0.5499,0.06446 -0.80859,0.06446h-0.84179c-0.2048,0 -0.38714,-0.03769 -0.54883,-0.11328c-0.1509,-0.07534 -0.28572,-0.17234 -0.40429,-0.29102c-0.10779,-0.11855 -0.19509,-0.25337 -0.25977,-0.4043c-0.0539,-0.14009 -0.08008,-0.28657 -0.08008,-0.4375c0,-0.21556 0.06402,-0.3979 0.19336,-0.54882c0.14013,-0.15093 0.35741,-0.22657 0.64844,-0.22657c0.28026,0 0.5431,-0.00554 0.79101,-0.01562c0.2587,-0.01084 0.48567,-0.04853 0.67969,-0.11328c0.19402,-0.06476 0.34534,-0.1685 0.45313,-0.3086c0.11857,-0.12933 0.17773,-0.31651 0.17773,-0.56445c0,-0.15095 -0.02134,-0.31877 -0.06445,-0.50195c-0.04311,-0.18324 -0.11393,-0.39855 -0.21094,-0.64649l-2.69922,-6.85547c-0.06468,-0.16174 -0.09766,-0.33439 -0.09766,-0.51757c0,-0.12939 0.02134,-0.26421 0.06446,-0.4043c0.04311,-0.14002 0.10713,-0.27 0.19336,-0.38867c0.09701,-0.11868 0.22214,-0.21568 0.37304,-0.29102c0.16168,-0.08617 0.35566,-0.12891 0.58203,-0.12891c0.23714,0 0.45731,0.06606 0.66211,0.19532c0.20479,0.1186 0.34445,0.2961 0.41992,0.5332l1.99024,6.14258l1.55078,-6.12696c0.06467,-0.24801 0.19949,-0.43714 0.40429,-0.5664c0.21559,-0.12926 0.4474,-0.19336 0.69531,-0.19336c0.32337,0 0.61436,0.10853 0.87305,0.32422zM107.71289,171.79883c0.22637,0.22637 0.33984,0.496 0.33984,0.80859c0.09701,-0.10784 0.21535,-0.23295 0.35547,-0.37304c0.1509,-0.1401 0.31386,-0.26326 0.48633,-0.3711c0.18325,-0.11868 0.37044,-0.21568 0.56445,-0.29101c0.19404,-0.08618 0.38802,-0.12891 0.58204,-0.12891c0.43116,0 0.72214,0.11358 0.87304,0.33984c0.16169,0.22637 0.24414,0.48921 0.24414,0.79102c0,0.24801 -0.05915,0.43715 -0.17773,0.5664c-0.10779,0.11843 -0.2494,0.21064 -0.42188,0.2754c-0.16169,0.06475 -0.33918,0.11902 -0.5332,0.1621c-0.19402,0.03226 -0.37636,0.07978 -0.54883,0.14454c-0.3126,0.11857 -0.56575,0.27473 -0.75976,0.46875c-0.18325,0.18313 -0.32487,0.38197 -0.42188,0.59765c-0.09703,0.2047 -0.16103,0.41518 -0.19336,0.63086c-0.03233,0.21564 -0.04883,0.41643 -0.04883,0.59961v3.62109c0,0.32348 -0.11834,0.59796 -0.35546,0.82422c-0.22637,0.22627 -0.50085,0.33985 -0.82422,0.33985c-0.31261,0 -0.58709,-0.11358 -0.82422,-0.33985c-0.22637,-0.23715 -0.33985,-0.51162 -0.33985,-0.82422v-7.0332c0,-0.31269 0.11348,-0.58232 0.33985,-0.80859c0.23714,-0.2371 0.51647,-0.35547 0.83984,-0.35547c0.32337,0 0.59785,0.11837 0.82422,0.35547zM117.81055,171.79883c0.57129,0.22637 1.06594,0.55032 1.48633,0.9707c0.42039,0.42039 0.7492,0.9267 0.98632,1.51953c0.24791,0.58207 0.37305,1.22802 0.37305,1.93946c0,0.7114 -0.12514,1.36417 -0.37305,1.95703c-0.23714,0.58207 -0.56594,1.08352 -0.98632,1.5039c-0.42039,0.42041 -0.91504,0.74923 -1.48633,0.98633c-0.57129,0.22627 -1.18623,0.33984 -1.84375,0.33984c-0.64675,0 -1.25488,-0.11357 -1.82618,-0.33984c-0.57129,-0.23713 -1.06789,-0.56594 -1.48828,-0.98633c-0.42039,-0.42038 -0.75404,-0.92183 -1.00195,-1.5039c-0.23713,-0.59286 -0.35547,-1.24563 -0.35547,-1.95703c0,-0.71144 0.11834,-1.35739 0.35547,-1.93946c0.24792,-0.59283 0.58157,-1.09914 1.00195,-1.51953c0.42039,-0.42048 0.91699,-0.74443 1.48828,-0.9707c0.5713,-0.2371 1.17943,-0.35547 1.82618,-0.35547c0.65752,0 1.27246,0.11837 1.84375,0.35547zM123.62891,171.79883c0.22636,0.22637 0.33984,0.496 0.33984,0.80859c0.09701,-0.10784 0.22214,-0.22621 0.37305,-0.35547c0.1509,-0.14002 0.33324,-0.26999 0.54882,-0.38867c0.21559,-0.11868 0.46389,-0.21568 0.74415,-0.29101c0.29103,-0.08618 0.61304,-0.12891 0.96875,-0.12891c0.42038,0 0.77247,0.04273 1.05273,0.12891c0.29104,0.08617 0.53739,0.19974 0.74219,0.33984c0.20481,0.12921 0.37746,0.28053 0.51758,0.45312c0.14012,0.16157 0.27009,0.32741 0.38867,0.5c0.09701,-0.15082 0.22019,-0.30698 0.37109,-0.46875c0.1509,-0.17249 0.34488,-0.32865 0.58203,-0.46875c0.24792,-0.14009 0.5457,-0.25367 0.89063,-0.33984c0.34493,-0.09701 0.76393,-0.14453 1.25976,-0.14453c0.24792,0 0.52921,0.04273 0.8418,0.12891c0.32337,0.07551 0.6192,0.20549 0.88867,0.38867c0.28027,0.18325 0.51208,0.42475 0.69531,0.72656c0.19402,0.29102 0.29102,0.65282 0.29102,1.08398v5.86914c0,0.31265 -0.11834,0.58712 -0.35547,0.82422c-0.22636,0.22627 -0.50085,0.33985 -0.82422,0.33985c-0.32336,0 -0.59785,-0.11358 -0.82422,-0.33985c-0.22636,-0.23715 -0.33984,-0.51162 -0.33984,-0.82422v-4.64062c0,-0.45271 -0.15616,-0.83585 -0.46875,-1.14844c-0.31259,-0.31259 -0.69572,-0.46875 -1.14844,-0.46875c-0.45272,0 -0.83584,0.15616 -1.14844,0.46875c-0.31259,0.31259 -0.46874,0.69573 -0.46874,1.14844v4.64062c-0.00001,0.31265 -0.11832,0.58712 -0.35547,0.82422c-0.22636,0.22627 -0.49601,0.33985 -0.8086,0.33985c-0.32338,0 -0.60271,-0.11358 -0.83984,-0.33985c-0.22637,-0.23715 -0.33985,-0.51162 -0.33985,-0.82422v-4.64062c0.00001,-0.45271 -0.15615,-0.83585 -0.46874,-1.14844c-0.3126,-0.31259 -0.69572,-0.46875 -1.14844,-0.46875c-0.45272,0 -0.83585,0.15616 -1.14844,0.46875c-0.31259,0.31259 -0.46875,0.69573 -0.46875,1.14844v4.64062c0,0.31265 -0.11348,0.58712 -0.33984,0.82422c-0.22636,0.22627 -0.50085,0.33985 -0.82422,0.33985c-0.32339,0 -0.60272,-0.11358 -0.83985,-0.33985c-0.22636,-0.23715 -0.33984,-0.51162 -0.33984,-0.82422v-7.0332c0,-0.31269 0.11348,-0.58232 0.33984,-0.80859c0.23714,-0.2371 0.51647,-0.35547 0.83985,-0.35547c0.32336,0 0.59785,0.11837 0.82422,0.35547zM114.90039,173.39844c-0.31258,0.16169 -0.58222,0.38866 -0.80859,0.67968c-0.21558,0.28027 -0.38338,0.60906 -0.50196,0.98633c-0.11857,0.36649 -0.17773,0.75447 -0.17773,1.16407c0,0.4096 0.05916,0.80436 0.17773,1.18164c0.11857,0.37724 0.28637,0.70411 0.50196,0.98437c0.22636,0.28037 0.496,0.50734 0.80859,0.67969c0.31259,0.16176 0.66758,0.24219 1.06641,0.24219c0.39882,0 0.75381,-0.08043 1.0664,-0.24219c0.32337,-0.17245 0.59301,-0.39942 0.8086,-0.67969c0.21557,-0.28026 0.38337,-0.60713 0.50195,-0.98437c0.11858,-0.37728 0.17773,-0.77204 0.17773,-1.18164c0,-0.4096 -0.05915,-0.79758 -0.17773,-1.16407c-0.11857,-0.37727 -0.28637,-0.70606 -0.50195,-0.98633c-0.21558,-0.29094 -0.48523,-0.51792 -0.8086,-0.67968c-0.31259,-0.17235 -0.66758,-0.25782 -1.0664,-0.25782c-0.39883,0.00001 -0.75382,0.08547 -1.06641,0.25782zM63.80078,178.66992h3.37891c0.24792,0 0.47973,-0.04752 0.69531,-0.14453c0.22636,-0.09693 0.42034,-0.22691 0.58203,-0.38867c0.16169,-0.16156 0.29166,-0.35072 0.38867,-0.56641c0.09701,-0.21558 0.14454,-0.44737 0.14454,-0.69531c0,-0.24781 -0.04753,-0.47963 -0.14454,-0.69531c-0.09701,-0.22627 -0.22698,-0.42027 -0.38867,-0.58203c-0.16168,-0.16169 -0.35566,-0.28971 -0.58203,-0.38672c-0.21559,-0.09701 -0.44741,-0.14649 -0.69531,-0.14649h-3.37891zM141.07617,176.53516c-0.37726,0.11842 -0.88841,0.23874 -1.53515,0.35742c-0.78687,0.14014 -1.17969,0.51162 -1.17969,1.11523c0,0.15093 0.02134,0.29545 0.06445,0.43555c0.0539,0.14004 0.13924,0.26999 0.25781,0.38867c0.11858,0.10759 0.27474,0.19306 0.46875,0.25781c0.2048,0.06476 0.45311,0.09766 0.74414,0.09766c0.24793,0 0.49623,-0.02616 0.74414,-0.08008c0.25871,-0.0645 0.48568,-0.15192 0.67969,-0.25976c0.2048,-0.11848 0.3658,-0.25816 0.48438,-0.41993c0.12936,-0.17237 0.19336,-0.36634 0.19336,-0.58203v-1.56836c-0.22636,0.05393 -0.53383,0.13914 -0.92188,0.25782z" fill="#1eff00" stroke="none" stroke-width="1.01053" stroke-miterlimit="10" stroke-dashoffset="0"/></g></g></svg>