<svg version="1.1" xmlns="http://www.w3.org/2000/svg" xmlns:xlink="http://www.w3.org/1999/xlink" width="134.44995" height="174.00656" viewBox="0,0,134.44995,174.00656"><g transform="translate(-286.76916,-44.42428)"><g data-paper-data="{&quot;isPaintingLayer&quot;:true}" fill="#fffa87" fill-rule="nonzero" stroke="#ffffff" stroke-width="1.39917" stroke-linecap="butt" stroke-linejoin="miter" stroke-miterlimit="10" stroke-dasharray="" stroke-dashoffset="0" font-family="none" font-weight="none" font-size="none" text-anchor="none" style="mix-blend-mode: normal"><path d="M378.42578,48.29769c7.19199,2.11525 13.32761,4.93546 18.4043,8.46093c5.21771,3.52551 9.23625,7.47409 12.05664,11.84572c2.82038,4.37155 4.23047,8.74363 4.23047,13.11522c0,3.66648 -1.27024,6.62649 -3.8086,8.8828c-2.39733,2.11533 -5.07572,3.17386 -8.03711,3.17386c-2.1153,0 -4.09058,-0.56326 -5.92382,-1.69141c-1.83325,-1.26917 -3.31327,-3.24446 -4.44141,-5.92384c-1.69225,-4.23058 -3.94915,-7.61401 -6.76953,-10.15234c-2.67936,-2.67934 -5.71124,-4.72456 -9.0957,-6.13478c-3.24344,-1.55119 -6.69679,-2.53788 -10.36329,-2.96092c-3.66649,-0.56421 -7.19366,-0.84767 -10.57812,-0.84767c-5.07669,0 -9.80028,0.56519 -14.17188,1.69338c-4.23057,0.98714 -7.96749,2.46716 -11.21093,4.4414c-3.10242,1.83326 -5.57105,4.16009 -7.4043,6.98048c-1.69223,2.67938 -2.53711,5.78117 -2.53711,9.30663c0,4.79463 1.41009,8.74329 4.23047,11.84568c2.9614,3.10243 6.84011,5.71283 11.63476,7.82812c4.79466,2.11529 10.22329,3.94685 16.28711,5.49808c6.06383,1.55119 12.26742,3.17299 18.61329,4.8652c6.48687,1.69225 12.76234,3.73746 18.82617,6.13478c6.06382,2.2563 11.4944,5.21824 16.28906,8.88476c4.79466,3.66652 8.60149,8.17841 11.42187,13.53713c2.96139,5.35873 4.44141,11.91583 4.44141,19.67187c0,8.60217 -1.6917,16.07796 -5.07617,22.42382c-3.24344,6.34586 -7.75534,11.63271 -13.53711,15.86328c-5.7818,4.23058 -12.5506,7.40421 -20.30664,9.51953c-7.75605,2.11525 -16.00681,3.17186 -24.75,3.17186c-12.5507,0 -23.26814,-1.76164 -32.15234,-5.28711c-8.74319,-3.66648 -15.86354,-8.03853 -21.36329,-13.11522c-5.49974,-5.21768 -9.52025,-10.64636 -12.05859,-16.28712c-2.53835,-5.78177 -3.80664,-10.78896 -3.80664,-15.01954c0,-5.07666 1.26829,-8.67182 3.80664,-10.78711c2.67936,-2.11529 5.42962,-3.17382 8.25,-3.17382c2.39732,0 4.58433,0.77692 6.55859,2.32815c1.97427,1.41018 3.17265,3.73701 3.59571,6.98045c0.84611,5.35873 2.67961,10.08231 5.5,14.17187c2.9614,4.08956 6.55653,7.54484 10.78711,10.36524c4.23057,2.67934 8.95416,4.72263 14.17187,6.13281c5.21771,1.41018 10.57643,2.11525 16.07617,2.11525c4.3716,0 8.88543,-0.49334 13.53907,-1.48048c4.79466,-1.12815 9.09484,-2.74995 12.90234,-4.86523c3.94855,-2.2563 7.1222,-5.14639 9.51953,-8.67186c2.53833,-3.52547 3.80664,-7.75574 3.80664,-12.69143c0,-5.35873 -1.48002,-9.80069 -4.4414,-13.32616c-2.82039,-3.52551 -6.62722,-6.48745 -11.42188,-8.88476c-4.65363,-2.39732 -10.01235,-4.37068 -16.07617,-5.92188c-6.06382,-1.69221 -12.26937,-3.38589 -18.61524,-5.07814c-6.34586,-1.69221 -12.55141,-3.59565 -18.61523,-5.71094c-6.06382,-2.2563 -11.49246,-5.07647 -16.28711,-8.46093c-4.65363,-3.52547 -8.46047,-7.75574 -11.42187,-12.69139c-2.82039,-5.0767 -4.23047,-11.35219 -4.23047,-18.8262c0,-7.05094 1.48,-13.32642 4.4414,-18.82617c3.10242,-5.49974 7.33268,-10.1534 12.69141,-13.96093c5.35873,-3.8075 11.70411,-6.69759 19.03711,-8.67186c7.33299,-1.97427 15.37205,-2.96288 24.11523,-2.96288c8.46115,0 16.21664,1.05849 23.26758,3.17382z" data-paper-data="{&quot;origPos&quot;:null}" id="path819"/></g></g></svg>