<svg version="1.1" xmlns="http://www.w3.org/2000/svg" xmlns:xlink="http://www.w3.org/1999/xlink" width="55.24803" height="20.66012"><g transform="translate(-212.37599,-169.66994)"><g data-paper-data="{&quot;isPaintingLayer&quot;:true}" fill="#0072ff" fill-rule="nonzero" stroke="none" stroke-width="1.22747" stroke-linecap="butt" stroke-linejoin="miter" stroke-miterlimit="10" stroke-dasharray="" stroke-dashoffset="0" style="mix-blend-mode: normal"><path d="M217.16702,169.78712c0.15712,0.06547 0.29622,0.15756 0.41406,0.27539c0.11784,0.11784 0.20794,0.25499 0.27344,0.41211c0.07854,0.14402 0.11914,0.29406 0.11914,0.45118c0,0.23567 -0.09209,0.4456 -0.27539,0.6289c-0.90342,0.87724 -1.62979,1.8863 -2.17969,3.02539c-0.54991,1.126 -0.82617,2.4287 -0.82617,3.90821c0,1.47951 0.27626,2.78864 0.82617,3.92773c0.5499,1.13909 1.27627,2.13977 2.17969,3.00391c0.18329,0.1833 0.27539,0.39323 0.27539,0.6289c0,0.31424 -0.13072,0.60142 -0.39258,0.86328c-0.24877,0.26186 -0.53791,0.39258 -0.86524,0.39258c-0.27495,0 -0.52351,-0.11784 -0.74609,-0.35351c-0.57609,-0.61538 -1.08609,-1.23033 -1.53125,-1.84571c-0.44516,-0.62846 -0.818,-1.28205 -1.11914,-1.96289c-0.30114,-0.68083 -0.53682,-1.40075 -0.70703,-2.16015c-0.15713,-0.7594 -0.23633,-1.59072 -0.23633,-2.49414c0,-0.89033 0.07921,-1.71522 0.23633,-2.47461c0.15712,-0.77249 0.38636,-1.5008 0.6875,-2.18164c0.31423,-0.68084 0.69351,-1.32799 1.13867,-1.94336c0.44516,-0.62847 0.95516,-1.24987 1.53125,-1.86524c0.22258,-0.23567 0.47114,-0.35351 0.74609,-0.35351c0.15712,0 0.30716,0.03858 0.45118,0.11718zM264.03027,170.02345c0.57609,0.61537 1.08609,1.23677 1.53125,1.86524c0.44516,0.61537 0.818,1.26252 1.11914,1.94336c0.31423,0.68084 0.54992,1.40915 0.70703,2.18164c0.15713,0.75939 0.23633,1.58428 0.23633,2.47461c0,0.90342 -0.08566,1.73474 -0.25586,2.49414c-0.15712,0.7594 -0.38636,1.47932 -0.6875,2.16015c-0.30114,0.68084 -0.68041,1.33443 -1.13867,1.96289c-0.44516,0.61538 -0.94872,1.23033 -1.51172,1.84571c-0.22258,0.23567 -0.47114,0.35351 -0.7461,0.35351c-0.15712,0 -0.31554,-0.03859 -0.47265,-0.11719c-0.14402,-0.06546 -0.27474,-0.15755 -0.39258,-0.27539c-0.11783,-0.11784 -0.20794,-0.24855 -0.27344,-0.39257c-0.0655,-0.14403 -0.0996,-0.29406 -0.0996,-0.45118c0,-0.24876 0.09209,-0.46513 0.27539,-0.64843c0.89033,-0.86414 1.61025,-1.86482 2.16016,-3.00391c0.54991,-1.13909 0.82422,-2.44822 0.82422,-3.92773c0,-1.47951 -0.27431,-2.7906 -0.82422,-3.92969c-0.53681,-1.13909 -1.25674,-2.13977 -2.16016,-3.00391c-0.18329,-0.1833 -0.27539,-0.39967 -0.27539,-0.64843c0,-0.15713 0.0341,-0.30716 0.0996,-0.45118c0.06546,-0.14402 0.1556,-0.27474 0.27344,-0.39258c0.11784,-0.11783 0.24856,-0.20989 0.39258,-0.27539c0.15711,-0.07858 0.31553,-0.11718 0.47265,-0.11718c0.26186,0 0.51042,0.11784 0.7461,0.35351zM249.55959,171.04494c0.19643,0.1964 0.29493,0.43852 0.29493,0.72656v13.43359c0,0.28805 -0.09853,0.53661 -0.29493,0.7461c-0.19639,0.19637 -0.43851,0.29297 -0.72656,0.29297c-0.28805,0 -0.53661,-0.09657 -0.74609,-0.29297c-0.19642,-0.20949 -0.29492,-0.45805 -0.29492,-0.7461v-13.43359c0,-0.28804 0.09852,-0.53016 0.29492,-0.72656c0.20948,-0.19643 0.45804,-0.29493 0.74609,-0.29493c0.28805,0 0.53017,0.09853 0.72656,0.29493zM223.91312,174.73639c0.7463,0 1.43852,0.1114 2.08008,0.33399c0.65465,0.22258 1.2181,0.55035 1.68945,0.98242c0.48444,0.41898 0.86372,0.93541 1.13867,1.55078c0.27496,0.61537 0.41407,1.31598 0.41407,2.10156c0,0.48445 -0.11785,0.85085 -0.35352,1.09961c-0.23567,0.24877 -0.51194,0.37305 -0.82617,0.37305h-7.1875c0,0.02619 0.0064,0.13759 0.0195,0.33398c0.02619,0.1833 0.07122,0.40611 0.13672,0.66797c0.07856,0.26186 0.18352,0.54261 0.31445,0.84375c0.14403,0.28805 0.33464,0.55788 0.57031,0.80664c0.23568,0.24877 0.52286,0.45674 0.86328,0.62696c0.35351,0.15712 0.77981,0.23632 1.27735,0.23632c0.40588,0 0.75297,-0.0322 1.04101,-0.0977c0.28805,-0.06547 0.54305,-0.16399 0.76563,-0.29492c0.22258,-0.13093 0.42607,-0.29384 0.60937,-0.49024c0.1833,-0.20948 0.36553,-0.45161 0.54883,-0.72656c0.10474,-0.15711 0.22258,-0.26849 0.35352,-0.33399c0.13092,-0.0655 0.26808,-0.0996 0.41211,-0.0996c0.23567,0 0.45204,0.08564 0.64843,0.25586c0.19643,0.1702 0.29493,0.38657 0.29493,0.64843c0,0.15712 -0.08566,0.3928 -0.25586,0.70703c-0.17021,0.31424 -0.44452,0.62913 -0.82422,0.94336c-0.36661,0.31424 -0.84441,0.58855 -1.4336,0.82422c-0.58918,0.23568 -1.30911,0.35352 -2.16015,0.35352c-0.86414,0 -1.63752,-0.15647 -2.31836,-0.47071c-0.68083,-0.31422 -1.25521,-0.73408 -1.72656,-1.25781c-0.45826,-0.53681 -0.81178,-1.15821 -1.06055,-1.86523c-0.23567,-0.70703 -0.35352,-1.44822 -0.35352,-2.22071c0,-0.79867 0.12428,-1.55079 0.37305,-2.25781c0.24877,-0.72012 0.60229,-1.34151 1.06055,-1.86523c0.47135,-0.52372 1.03285,-0.93714 1.6875,-1.23828c0.65465,-0.31424 1.3894,-0.47071 2.20117,-0.47071zM235.18656,174.73624c1.33548,0 2.39605,0.26788 3.18164,0.80469c0.79867,0.52372 1.19726,1.30354 1.19726,2.33789v7.32617c0,0.28805 -0.09852,0.53661 -0.29492,0.7461c-0.19639,0.19637 -0.43851,0.29297 -0.72656,0.29297c-0.28805,0 -0.53661,-0.09657 -0.74609,-0.29297c-0.19643,-0.20949 -0.29493,-0.45805 -0.29493,-0.7461v-0.31445c-0.49754,0.53681 -1.06743,0.89678 -1.70898,1.08008c-0.62847,0.18334 -1.29493,0.27344 -2.00195,0.27344c-0.44517,0 -0.89722,-0.05795 -1.35547,-0.17579c-0.44516,-0.13093 -0.85215,-0.32798 -1.21875,-0.58984c-0.35352,-0.26186 -0.6407,-0.58768 -0.86328,-0.98047c-0.22258,-0.39279 -0.33399,-0.86415 -0.33399,-1.41406c0,-0.62847 0.12428,-1.15329 0.37305,-1.57227c0.24876,-0.43206 0.58298,-0.78559 1.00195,-1.06054c0.41898,-0.27496 0.89678,-0.48488 1.43359,-0.62891c0.54991,-0.14402 1.12624,-0.24895 1.72852,-0.31445c0.69393,-0.07856 1.23611,-0.16221 1.62891,-0.25391c0.39278,-0.10474 0.68836,-0.22258 0.88476,-0.35351c0.19641,-0.13093 0.31422,-0.28292 0.35352,-0.45313c0.0524,-0.17021 0.0781,-0.35887 0.0781,-0.56836c0,-0.24877 -0.07081,-0.46513 -0.21484,-0.64844c-0.14402,-0.1833 -0.3282,-0.33333 -0.55078,-0.45117c-0.22259,-0.1178 -0.47114,-0.20346 -0.7461,-0.25586c-0.27495,-0.0654 -0.54282,-0.0976 -0.80468,-0.0976c-0.47135,0 -0.85258,0.03858 -1.14063,0.11718c-0.28804,0.07856 -0.52373,0.18353 -0.70703,0.31446c-0.18331,0.13093 -0.33334,0.2874 -0.45117,0.4707c-0.10475,0.1833 -0.20332,0.37391 -0.29492,0.57031c-0.07856,0.15712 -0.18996,0.27492 -0.33399,0.35352c-0.13092,0.0655 -0.26808,0.0977 -0.41211,0.0977c-0.26186,0 -0.50398,-0.08564 -0.72656,-0.25585c-0.22258,-0.17021 -0.33398,-0.4059 -0.33398,-0.70704c0,-0.11784 0.0341,-0.26143 0.0996,-0.43164c0.11783,-0.27495 0.2743,-0.54282 0.4707,-0.80468c0.19639,-0.27496 0.45783,-0.51708 0.78515,-0.72657c0.34042,-0.20949 0.75384,-0.3724 1.23829,-0.49023c0.49753,-0.13097 1.09962,-0.19727 1.80664,-0.19727zM242.13769,174.87306c0.28805,0 0.53017,0.10497 0.72656,0.31445c0.19637,0.19641 0.29297,0.43853 0.29297,0.72657v0.37304c0.05237,-0.05237 0.1509,-0.15733 0.29492,-0.31445c0.14402,-0.15711 0.32176,-0.31358 0.53125,-0.4707c0.22258,-0.17021 0.4647,-0.31381 0.72656,-0.43164c0.27496,-0.13097 0.56215,-0.19727 0.86329,-0.19727c0.28804,0 0.53016,0.10497 0.72656,0.31445c0.20948,0.19641 0.31445,0.43853 0.31445,0.72657c0,0.27495 -0.10497,0.51707 -0.31445,0.72656c-0.1964,0.19642 -0.43852,0.29492 -0.72656,0.29492c-0.49754,0 -0.90257,0.11784 -1.2168,0.35352c-0.31423,0.22258 -0.56279,0.49045 -0.74609,0.80469c-0.17021,0.31423 -0.28802,0.642 -0.35352,0.98242c-0.0655,0.34042 -0.0996,0.62312 -0.0996,0.8457v5.2832c0,0.28805 -0.09657,0.53661 -0.29297,0.7461c-0.19639,0.19637 -0.43851,0.29297 -0.72656,0.29297c-0.28805,0 -0.53856,-0.09657 -0.74805,-0.29297c-0.19637,-0.20949 -0.29297,-0.45805 -0.29297,-0.7461v-9.29101c0,-0.28804 0.09658,-0.53017 0.29297,-0.72657c0.20949,-0.20948 0.46,-0.31445 0.74805,-0.31445zM252.02045,174.87303c0.22258,0 0.42607,0.06633 0.60938,0.19727c0.19639,0.11783 0.33994,0.28718 0.43164,0.50976l3.41601,8.21094l2.98633,-8.11133c0.09165,-0.23567 0.22881,-0.42628 0.41211,-0.57031c0.19639,-0.15713 0.41276,-0.23633 0.64844,-0.23633c0.23567,0 0.46492,0.09209 0.6875,0.27539c0.22258,0.17022 0.33398,0.44453 0.33398,0.82422c0,0.06547 -0.0064,0.13177 -0.0195,0.19727c-0.0131,0.06546 -0.0324,0.13176 -0.0586,0.19726l-4.51758,11.625c-0.10474,0.26186 -0.22902,0.53169 -0.37305,0.80664c-0.13092,0.28805 -0.30866,0.54304 -0.53125,0.76563c-0.20948,0.22258 -0.4838,0.40481 -0.82422,0.54883c-0.32732,0.14399 -0.73235,0.21679 -1.21679,0.21679h-0.94336c-0.26187,0 -0.48467,-0.09208 -0.66797,-0.27539c-0.17026,-0.1702 -0.25586,-0.38658 -0.25586,-0.64843c0,-0.26187 0.08565,-0.48272 0.25586,-0.66602c0.1833,-0.18329 0.4061,-0.27539 0.66797,-0.27539h0.60937c0.11784,0 0.24212,-0.0064 0.37305,-0.0195c0.14403,-0.01309 0.28118,-0.05364 0.41211,-0.11914c0.13093,-0.05238 0.25521,-0.14895 0.37304,-0.29297c0.11784,-0.13093 0.22276,-0.32799 0.31446,-0.58985l0.49023,-1.375l-4.51758,-9.70117c-0.0654,-0.15711 -0.0976,-0.30266 -0.0976,-0.43359c0,-0.10474 0.0193,-0.21615 0.0586,-0.33399c0.03928,-0.13092 0.09914,-0.24876 0.17774,-0.35351c0.07856,-0.10474 0.17708,-0.18841 0.29492,-0.25391c0.13093,-0.07854 0.2874,-0.11914 0.4707,-0.11914zM223.95213,176.4258c-0.48444,0 -0.89786,0.07081 -1.23828,0.21484c-0.34042,0.14402 -0.62761,0.3282 -0.86328,0.55078c-0.22258,0.20949 -0.40032,0.44517 -0.53125,0.70703c-0.13093,0.26186 -0.22942,0.50398 -0.29492,0.72656c-0.06549,0.22259 -0.10409,0.41964 -0.11719,0.58985c-0.0135,0.1571 -0.0195,0.24724 -0.0195,0.27344h6.36328c0,-0.40589 -0.06633,-0.79161 -0.19727,-1.15821c-0.13092,-0.3666 -0.33246,-0.68793 -0.60742,-0.96289c-0.26186,-0.28804 -0.6025,-0.51729 -1.02148,-0.6875c-0.41898,-0.1702 -0.90966,-0.2539 -1.47266,-0.2539zM237.01272,180.74611c-0.24877,0.07858 -0.54435,0.13648 -0.88477,0.17578c-0.32732,0.03927 -0.67441,0.08627 -1.04101,0.13867c-0.35352,0.05238 -0.7006,0.11671 -1.04102,0.19531c-0.34042,0.07856 -0.64692,0.1964 -0.92187,0.35352c-0.27496,0.14402 -0.49777,0.33464 -0.66797,0.57031c-0.15713,0.23568 -0.23633,0.5377 -0.23633,0.9043c0,0.28805 0.05989,0.53017 0.17773,0.72656c0.13094,0.18331 0.29385,0.33334 0.49024,0.45117c0.19639,0.10472 0.4192,0.18393 0.66797,0.23633c0.24876,0.0393 0.49732,0.0586 0.74609,0.0586c0.3797,0 0.75897,-0.04055 1.13867,-0.11915c0.3797,-0.09165 0.72035,-0.23524 1.02149,-0.43164c0.31423,-0.19639 0.56279,-0.45783 0.74609,-0.78515c0.19642,-0.32733 0.29492,-0.73236 0.29492,-1.2168v-1.39453z" data-paper-data="{&quot;origPos&quot;:null}" id="path861"/></g></g></svg>