<svg version="1.1" xmlns="http://www.w3.org/2000/svg" xmlns:xlink="http://www.w3.org/1999/xlink" width="372.21495" height="68.64271" viewBox="0,0,372.21495,68.64271"><g transform="translate(-53.89252,-145.67865)"><g data-paper-data="{&quot;isPaintingLayer&quot;:true}" fill-rule="nonzero" stroke-linecap="butt" stroke-linejoin="miter" stroke-dasharray="" style="mix-blend-mode: normal"><path d="M425.00976,146.42865c0.19313,0 0.34772,0.15458 0.34772,0.34772v66.44538c0,0.19313 -0.15458,0.34961 -0.34772,0.34961h-370.01762c-0.19313,0 -0.34961,-0.15647 -0.34961,-0.34961v-66.4453c0,-0.19313 0.15647,-0.34772 0.34961,-0.34772z" fill="#1e1e1e" stroke="#1eff00" stroke-width="1.5" stroke-miterlimit="4" stroke-dashoffset="17.35"/><path d="M69.10183,187.56563c1.27601,0 2.33412,4.30809 3.36643,5.0581c1.03219,0.7499 5.4565,0.42501 5.85078,1.6385c0.3942,1.21349 -3.3761,3.55109 -3.77031,4.76459c-0.39428,1.21353 1.2819,5.32082 0.24983,6.07083c-1.0323,0.7499 -4.42057,-2.11351 -5.6965,-2.11351c-1.27589,0 -4.66416,2.86341 -5.69647,2.11351c-1.0323,-0.75001 0.64399,-4.8573 0.24983,-6.07083c-0.39432,-1.21349 -4.16463,-3.55109 -3.77031,-4.76459c0.39428,-1.21349 4.8186,-0.8886 5.85079,-1.6385c1.0323,-0.75001 2.09042,-5.0581 3.36631,-5.0581z" fill="#1eff00" stroke="none" stroke-width="0.23333" stroke-miterlimit="4" stroke-dashoffset="17.35"/><path d="M92.03896,187.56563c1.27589,0 2.33401,4.30809 3.36631,5.0581c1.0323,0.7499 5.45647,0.42501 5.85078,1.6385c0.39432,1.21349 -3.37599,3.55109 -3.77031,4.76459c-0.39428,1.21353 1.2819,5.32082 0.24945,6.07083c-1.0323,0.7499 -4.42061,-2.11351 -5.6965,-2.11351c-1.27601,0 -4.66428,2.86341 -5.6965,2.11351c-1.0323,-0.75001 0.64399,-4.8573 0.24945,-6.07083c-0.3942,-1.21349 -4.16447,-3.55109 -3.77019,-4.76459c0.3942,-1.21349 4.81852,-0.8886 5.85071,-1.6385c1.0323,-0.75001 2.09038,-5.0581 3.36639,-5.0581z" fill="#1eff00" stroke="none" stroke-width="0.23333" stroke-miterlimit="4" stroke-dashoffset="17.35"/><path d="M68.26598,153.81204c0.23713,0 0.43597,0.08042 0.59766,0.24219c0.17247,0.16174 0.25781,0.36055 0.25781,0.59766c0,0.23725 -0.08534,0.44289 -0.25781,0.61523c-0.1617,0.16176 -0.36053,0.24219 -0.59766,0.24219h-5.57812v3.50781h5.07617c0.23713,0 0.43597,0.08717 0.59766,0.25977c0.16169,0.16171 0.24414,0.36055 0.24414,0.59766c0,0.22649 -0.08245,0.42726 -0.24414,0.59961c-0.16169,0.16176 -0.36053,0.24219 -0.59766,0.24219h-5.07617v4.89844c0,0.2587 -0.09216,0.48567 -0.27539,0.67969c-0.18324,0.18318 -0.41021,0.27344 -0.67969,0.27344c-0.2587,0 -0.48371,-0.09026 -0.67773,-0.27344c-0.18324,-0.19402 -0.27539,-0.42099 -0.27539,-0.67969v-10.54297c0,-0.34489 0.12318,-0.64073 0.37109,-0.88867c0.24792,-0.24794 0.55054,-0.37109 0.90625,-0.37109zM101.64684,154.05423c0.17247,0.16174 0.25976,0.36055 0.25976,0.59766v11.06055c0,0.23725 -0.08729,0.44093 -0.25976,0.61328c-0.1617,0.16176 -0.36053,0.24414 -0.59766,0.24414c-0.23714,0 -0.43597,-0.08238 -0.59766,-0.24414c-0.16169,-0.1725 -0.24219,-0.37618 -0.24219,-0.61328v-0.14648c-0.21559,0.18333 -0.42122,0.33949 -0.61523,0.46875c-0.18325,0.12951 -0.37723,0.23805 -0.58203,0.32422c-0.20481,0.07559 -0.43178,0.12986 -0.67969,0.16211c-0.24792,0.03225 -0.5321,0.04688 -0.85547,0.04688c-0.52817,0 -1.02963,-0.11162 -1.50391,-0.33789c-0.4635,-0.22634 -0.87281,-0.54545 -1.22852,-0.95508c-0.34493,-0.42038 -0.62137,-0.91504 -0.82617,-1.48633c-0.2048,-0.57129 -0.30664,-1.20271 -0.30664,-1.89258c0,-0.68984 0.09216,-1.32129 0.27539,-1.89258c0.18324,-0.58207 0.44124,-1.0767 0.77539,-1.48633c0.34493,-0.42046 0.75424,-0.74443 1.22851,-0.9707c0.47428,-0.22627 1.00387,-0.33984 1.58594,-0.33984c0.44194,0 0.82311,0.05427 1.14648,0.16211c0.32337,0.10777 0.59301,0.23774 0.80859,0.38867c0.21557,0.14017 0.38338,0.27983 0.50195,0.41992c0.12934,0.14009 0.22149,0.24188 0.27539,0.30664v-3.83203c0,-0.23708 0.0805,-0.43589 0.24219,-0.59766c0.16167,-0.16176 0.3605,-0.24219 0.59766,-0.24219c0.23714,0 0.43597,0.08042 0.59766,0.24219zM135.48864,153.81204c0.63596,0 1.27224,0.10658 1.9082,0.32227c0.63596,0.21558 1.20822,0.57735 1.71484,1.08398c0.50662,0.49582 0.91593,1.15346 1.22852,1.97266c0.31259,0.80844 0.46875,1.8065 0.46875,2.99219c0,1.19647 -0.15616,2.20421 -0.46875,3.02344c-0.31259,0.80842 -0.7219,1.46602 -1.22852,1.97266c-0.50662,0.49572 -1.07888,0.85072 -1.71484,1.06641c-0.63596,0.21568 -1.27224,0.32422 -1.9082,0.32422h-3.83204c-0.16168,0 -0.31784,-0.02811 -0.46875,-0.08203c-0.15089,-0.06476 -0.28572,-0.14997 -0.40429,-0.25781c-0.11858,-0.10772 -0.21558,-0.24253 -0.29102,-0.4043c-0.07546,-0.16169 -0.11328,-0.34114 -0.11328,-0.53516v-10.2168c0,-0.34489 0.12514,-0.64269 0.37305,-0.89062c0.24791,-0.24794 0.54859,-0.37109 0.90429,-0.37109zM143.2816,154.08744c0.19402,0.18323 0.29102,0.40825 0.29102,0.67773c0,0.25872 -0.097,0.48567 -0.29102,0.67969c-0.18324,0.18318 -0.40341,0.27539 -0.66211,0.27539c-0.26948,0 -0.50129,-0.09221 -0.69531,-0.27539c-0.18323,-0.19404 -0.27539,-0.42099 -0.27539,-0.67969c0,-0.26953 0.09216,-0.49455 0.27539,-0.67773c0.19403,-0.18318 0.42584,-0.27539 0.69531,-0.27539c0.25869,0 0.47886,0.09221 0.66211,0.27539zM132.28746,164.87064h2.83008c0.63597,0 1.19174,-0.10658 1.66602,-0.32227c0.47428,-0.22637 0.86709,-0.53868 1.17969,-0.9375c0.31259,-0.40962 0.5444,-0.90137 0.69531,-1.47266c0.1509,-0.58207 0.22656,-1.23289 0.22656,-1.95508c0,-0.71141 -0.07566,-1.35449 -0.22656,-1.92578c-0.15091,-0.58207 -0.38272,-1.07189 -0.69531,-1.4707c-0.3126,-0.40952 -0.70541,-0.72181 -1.17969,-0.9375c-0.47428,-0.22627 -1.03005,-0.33984 -1.66602,-0.33984h-2.83008zM80.8734,157.36869c0.53895,0.18326 1.00258,0.45289 1.39062,0.80859c0.39882,0.34492 0.71113,0.77071 0.9375,1.27734c0.22637,0.50661 0.33984,1.08372 0.33984,1.73047c0,0.39876 -0.097,0.69945 -0.29102,0.9043c-0.19402,0.20485 -0.42099,0.30859 -0.67969,0.30859h-5.91797c0,0.02142 0.00674,0.11363 0.01758,0.27539c0.02157,0.1508 0.05938,0.33314 0.11328,0.54883c0.06468,0.21556 0.15002,0.44738 0.25781,0.69531c0.11858,0.23708 0.27473,0.45726 0.46875,0.66211c0.19402,0.20485 0.43068,0.37748 0.71094,0.51758c0.29104,0.12926 0.64118,0.19531 1.05078,0.19531c0.33414,0 0.62027,-0.02811 0.85742,-0.08203c0.23713,-0.05392 0.4476,-0.13434 0.63086,-0.24219c0.18325,-0.10772 0.35105,-0.24253 0.50195,-0.4043c0.15091,-0.17255 0.30222,-0.37139 0.45312,-0.59766c0.08622,-0.12926 0.18322,-0.22147 0.29102,-0.27539c0.10779,-0.05392 0.21931,-0.08008 0.33789,-0.08008c0.19402,0 0.37347,0.06889 0.53516,0.20898c0.16169,0.14002 0.24219,0.31752 0.24219,0.5332c0,0.12936 -0.07082,0.32333 -0.21094,0.58203c-0.14013,0.2587 -0.36709,0.51865 -0.67969,0.77734c-0.30181,0.2587 -0.69463,0.48567 -1.17969,0.67969c-0.48506,0.19402 -1.0767,0.29102 -1.77734,0.29102c-0.71142,0 -1.34769,-0.12998 -1.9082,-0.38867c-0.56051,-0.2587 -1.03578,-0.60401 -1.42383,-1.03516c-0.37727,-0.44195 -0.66825,-0.95308 -0.87305,-1.53516c-0.19402,-0.58207 -0.29102,-1.19216 -0.29102,-1.82813c0,-0.65751 0.10184,-1.2773 0.30664,-1.85937c0.2048,-0.59286 0.49578,-1.10401 0.87305,-1.53516c0.38804,-0.43114 0.85167,-0.77159 1.39062,-1.01953c0.53895,-0.2587 1.1442,-0.38672 1.8125,-0.38672c0.6144,0 1.18472,0.09026 1.71289,0.27344zM90.29723,157.36869c0.53895,0.18326 1.00258,0.45289 1.39062,0.80859c0.39882,0.34492 0.71113,0.77071 0.9375,1.27734c0.22637,0.50661 0.33984,1.08372 0.33984,1.73047c0,0.39876 -0.097,0.69945 -0.29102,0.9043c-0.19402,0.20485 -0.42099,0.30859 -0.67969,0.30859h-5.91797c0,0.02142 0.00479,0.11363 0.01562,0.27539c0.02157,0.1508 0.05938,0.33314 0.11328,0.54883c0.06468,0.21556 0.15197,0.44738 0.25977,0.69531c0.11858,0.23708 0.27473,0.45726 0.46875,0.66211c0.19402,0.20485 0.43068,0.37748 0.71094,0.51758c0.29104,0.12926 0.64118,0.19531 1.05078,0.19531c0.33416,0 0.62029,-0.02811 0.85742,-0.08203c0.23715,-0.05392 0.44763,-0.13434 0.63086,-0.24219c0.18325,-0.10772 0.3491,-0.24253 0.5,-0.4043c0.15091,-0.17255 0.30222,-0.37139 0.45312,-0.59766c0.08622,-0.12926 0.18322,-0.22147 0.29102,-0.27539c0.10779,-0.05392 0.22127,-0.08008 0.33984,-0.08008c0.19402,0 0.37151,0.06889 0.5332,0.20898c0.16169,0.14002 0.24219,0.31752 0.24219,0.5332c0,0.12936 -0.06886,0.32333 -0.20898,0.58203c-0.14013,0.2587 -0.36709,0.51865 -0.67969,0.77734c-0.30181,0.2587 -0.69463,0.48567 -1.17969,0.67969c-0.48506,0.19402 -1.07866,0.29102 -1.7793,0.29102c-0.71142,0 -1.34769,-0.12998 -1.9082,-0.38867c-0.56051,-0.2587 -1.03383,-0.60401 -1.42187,-1.03516c-0.37727,-0.44195 -0.66825,-0.95308 -0.87305,-1.53516c-0.19402,-0.58207 -0.29102,-1.19216 -0.29102,-1.82813c0,-0.65751 0.10184,-1.2773 0.30664,-1.85937c0.2048,-0.59286 0.49578,-1.10401 0.87305,-1.53516c0.38805,-0.43114 0.85167,-0.77159 1.39062,-1.01953c0.53895,-0.2587 1.14225,-0.38672 1.81055,-0.38672c0.6144,0 1.18667,0.09026 1.71484,0.27344zM109.18395,157.41752c0.54973,0.21556 1.025,0.52787 1.42383,0.9375c0.39882,0.4096 0.71113,0.91107 0.9375,1.50391c0.22637,0.59286 0.33984,1.27181 0.33984,2.03711c0,0.76533 -0.11347,1.44428 -0.33984,2.03711c-0.22636,0.59286 -0.53868,1.09431 -0.9375,1.50391c-0.39883,0.39874 -0.8741,0.70619 -1.42383,0.92187c-0.53895,0.21543 -1.12575,0.32422 -1.76172,0.32422c-0.63597,0 -1.22956,-0.10879 -1.7793,-0.32422c-0.53895,-0.21558 -1.00742,-0.52303 -1.40625,-0.92187c-0.39881,-0.4096 -0.71113,-0.91105 -0.9375,-1.50391c-0.22637,-0.59283 -0.33984,-1.27178 -0.33984,-2.03711c0,-0.7653 0.11347,-1.44425 0.33984,-2.03711c0.22636,-0.59283 0.53868,-1.09431 0.9375,-1.50391c0.39883,-0.4095 0.8673,-0.72181 1.40625,-0.9375c0.54973,-0.21568 1.14333,-0.32227 1.7793,-0.32227c0.63596,0 1.22277,0.10658 1.76172,0.32227zM158.59996,157.36869c0.53896,0.18326 1.00258,0.45289 1.39063,0.80859c0.39882,0.34492 0.71113,0.77071 0.9375,1.27734c0.22637,0.50661 0.33984,1.08372 0.33984,1.73047c0,0.39876 -0.097,0.69945 -0.29101,0.9043c-0.19403,0.20485 -0.41904,0.30859 -0.67774,0.30859h-5.91797c0,0.02142 0.00479,0.11363 0.01563,0.27539c0.02157,0.1508 0.05938,0.33314 0.11328,0.54883c0.06468,0.21556 0.15002,0.44738 0.25781,0.69531c0.11858,0.23708 0.27474,0.45726 0.46875,0.66211c0.19403,0.20485 0.43264,0.37748 0.71289,0.51758c0.29104,0.12926 0.64118,0.19531 1.05078,0.19531c0.33417,0 0.61835,-0.02811 0.85547,-0.08203c0.23716,-0.05392 0.44763,-0.13434 0.63086,-0.24219c0.18325,-0.10772 0.35105,-0.24253 0.50196,-0.4043c0.1509,-0.17255 0.30222,-0.37139 0.45312,-0.59766c0.08622,-0.12926 0.18322,-0.22147 0.29102,-0.27539c0.10779,-0.05392 0.22126,-0.08008 0.33984,-0.08008c0.19402,0 0.37151,0.06889 0.5332,0.20898c0.16169,0.14002 0.24219,0.31752 0.24219,0.5332c0,0.12936 -0.07082,0.32333 -0.21094,0.58203c-0.14012,0.2587 -0.36514,0.51865 -0.67773,0.77734c-0.30181,0.2587 -0.69658,0.48567 -1.18164,0.67969c-0.48506,0.19402 -1.07671,0.29102 -1.77735,0.29102c-0.71141,0 -1.34769,-0.12998 -1.9082,-0.38867c-0.56051,-0.2587 -1.03578,-0.60401 -1.42383,-1.03516c-0.37727,-0.44195 -0.66824,-0.95308 -0.87304,-1.53516c-0.19402,-0.58207 -0.29102,-1.19216 -0.29102,-1.82813c0,-0.65751 0.10379,-1.2773 0.30859,-1.85937c0.20481,-0.59286 0.49578,-1.10401 0.87305,-1.53516c0.38805,-0.43114 0.85167,-0.77159 1.39063,-1.01953c0.53895,-0.2587 1.14224,-0.38672 1.81054,-0.38672c0.61441,0 1.18472,0.09026 1.71289,0.27344zM71.53161,157.46634c0.16169,0.16171 0.24219,0.36055 0.24219,0.59766v0.30664c0.04311,-0.04309 0.12361,-0.12855 0.24219,-0.25781c0.11856,-0.12944 0.26503,-0.25941 0.4375,-0.38867c0.18324,-0.14009 0.38207,-0.25846 0.59766,-0.35547c0.22637,-0.10784 0.46498,-0.16211 0.71289,-0.16211c0.23714,0 0.43597,0.08717 0.59766,0.25977c0.17247,0.16171 0.25781,0.36055 0.25781,0.59766c0,0.22649 -0.08534,0.42531 -0.25781,0.59766c-0.16167,0.16176 -0.3605,0.24414 -0.59766,0.24414c-0.4096,0 -0.74521,0.097 -1.00391,0.29102c-0.2587,0.18323 -0.46238,0.40341 -0.61328,0.66211c-0.14012,0.2587 -0.23712,0.52833 -0.29102,0.80859c-0.0539,0.28031 -0.08203,0.51213 -0.08203,0.69531v4.34961c0,0.23725 -0.0805,0.44093 -0.24219,0.61328c-0.16167,0.16176 -0.3605,0.24219 -0.59766,0.24219c-0.23713,0 -0.44276,-0.08042 -0.61523,-0.24219c-0.16169,-0.1725 -0.24219,-0.37618 -0.24219,-0.61328v-7.64844c0,-0.23705 0.0805,-0.43589 0.24219,-0.59766c0.17247,-0.1726 0.37811,-0.25977 0.61523,-0.25977c0.23714,0 0.43597,0.08717 0.59766,0.25977zM114.28942,157.46634c0.16169,0.16171 0.24414,0.36055 0.24414,0.59766v0.35547c0.06465,-0.07559 0.15486,-0.18217 0.27344,-0.32227c0.12935,-0.14022 0.29715,-0.27504 0.50195,-0.4043c0.2048,-0.12926 0.44631,-0.24284 0.72656,-0.33984c0.29103,-0.09701 0.63148,-0.14648 1.01953,-0.14648c0.53895,0 1.00258,0.14645 1.39062,0.4375c0.38804,0.28024 0.69067,0.6304 0.90625,1.05078c0.29104,-0.52825 0.65572,-0.90459 1.09766,-1.13086c0.45272,-0.2371 0.98231,-0.35742 1.58594,-0.35742c0.38805,0 0.74303,0.06101 1.06641,0.17969c0.33416,0.10789 0.62029,0.27373 0.85742,0.5c0.24793,0.22634 0.44191,0.50764 0.58203,0.8418c0.14012,0.33413 0.21094,0.72211 0.21094,1.16406v5.82031c0,0.23725 -0.08245,0.44093 -0.24414,0.61328c-0.1617,0.16176 -0.36053,0.24414 -0.59766,0.24414c-0.23713,0 -0.44276,-0.08238 -0.61523,-0.24414c-0.16169,-0.1725 -0.24219,-0.37618 -0.24219,-0.61328v-5.74023c0,-0.37727 -0.12318,-0.70122 -0.37109,-0.9707c-0.24792,-0.26948 -0.57673,-0.4043 -0.98633,-0.4043c-0.35571,0 -0.66318,0.07084 -0.92187,0.21094c-0.25869,0.12944 -0.47401,0.30693 -0.64648,0.5332c-0.16169,0.22637 -0.28487,0.48632 -0.37109,0.77734c-0.07546,0.29105 -0.11328,0.5917 -0.11328,0.9043v4.68945c0,0.23725 -0.08245,0.44093 -0.24414,0.61328c-0.16167,0.16176 -0.3605,0.24414 -0.59766,0.24414c-0.23713,0 -0.44081,-0.08238 -0.61328,-0.24414c-0.16169,-0.1725 -0.24414,-0.37618 -0.24414,-0.61328v-5.74023c0,-0.37727 -0.11834,-0.70122 -0.35547,-0.9707c-0.23714,-0.26948 -0.57079,-0.4043 -1.00195,-0.4043c-0.35571,0 -0.66318,0.07084 -0.92187,0.21094c-0.25869,0.12944 -0.47401,0.30693 -0.64648,0.5332c-0.16169,0.22637 -0.28487,0.48632 -0.37109,0.77734c-0.07546,0.29105 -0.11328,0.5917 -0.11328,0.9043v4.68945c0,0.23725 -0.08245,0.44093 -0.24414,0.61328c-0.1617,0.16176 -0.36053,0.24414 -0.59766,0.24414c-0.23713,0 -0.44081,-0.08238 -0.61328,-0.24414c-0.16169,-0.1725 -0.24414,-0.37618 -0.24414,-0.61328v-7.64844c0,-0.23705 0.08245,-0.43589 0.24414,-0.59766c0.17247,-0.1726 0.37615,-0.25977 0.61328,-0.25977c0.23714,0 0.43597,0.08717 0.59766,0.25977zM143.21715,157.46634c0.16169,0.16171 0.24219,0.36055 0.24219,0.59766v7.64844c0,0.23725 -0.0805,0.44093 -0.24219,0.61328c-0.1617,0.16176 -0.36053,0.24414 -0.59766,0.24414c-0.23713,0 -0.44276,-0.08238 -0.61523,-0.24414c-0.16169,-0.1725 -0.24219,-0.37618 -0.24219,-0.61328v-7.64844c0,-0.23705 0.0805,-0.43589 0.24219,-0.59766c0.17248,-0.1726 0.37811,-0.25977 0.61523,-0.25977c0.23714,0 0.43597,0.08717 0.59766,0.25977zM145.6527,157.36869c0.1509,0.09688 0.25274,0.2317 0.30664,0.4043l2.2793,6.85547l2.26367,-6.85547c0.05389,-0.17247 0.15573,-0.30729 0.30664,-0.4043c0.15089,-0.10784 0.31869,-0.16016 0.50195,-0.16016c0.06468,0 0.14518,0.01462 0.24219,0.04688c0.10779,0.02142 0.20479,0.0661 0.29101,0.13086c0.08623,0.06476 0.16189,0.15501 0.22657,0.27344c0.06468,0.10772 0.09765,0.24253 0.09765,0.4043c0,0.08617 -0.0165,0.17838 -0.04883,0.27539l-2.61914,7.29102c-0.10779,0.28036 -0.27074,0.50734 -0.48632,0.67969c-0.21558,0.1726 -0.47358,0.25977 -0.77539,0.25977c-0.31259,0 -0.57739,-0.08717 -0.79297,-0.25977c-0.21558,-0.17247 -0.37659,-0.39945 -0.48438,-0.67969l-2.60351,-7.29102c-0.03233,-0.09701 -0.04883,-0.18922 -0.04883,-0.27539c0,-0.07534 0.0165,-0.1608 0.04883,-0.25781c0.03232,-0.09701 0.0818,-0.18922 0.14648,-0.27539c0.06468,-0.09701 0.15002,-0.17264 0.25781,-0.22656c0.1078,-0.06476 0.23777,-0.0957 0.38868,-0.0957c0.18324,0 0.35104,0.05231 0.50195,0.16016zM78.17418,158.66165c-0.28026,0.11863 -0.51887,0.26994 -0.71289,0.45312c-0.18324,0.17235 -0.32775,0.36635 -0.43555,0.58203c-0.10779,0.21566 -0.18829,0.41643 -0.24219,0.59961c-0.05385,0.18328 -0.08682,0.34428 -0.09766,0.48437c-0.01083,0.12825 -0.01562,0.20388 -0.01562,0.22656h5.23828c0,-0.33416 -0.05432,-0.65327 -0.16211,-0.95508c-0.10778,-0.30191 -0.27558,-0.56475 -0.50195,-0.79101c-0.21558,-0.23718 -0.49491,-0.42631 -0.83984,-0.56641c-0.34493,-0.14009 -0.74939,-0.21094 -1.21289,-0.21094c-0.39883,0 -0.73732,0.05906 -1.01758,0.17773zM87.59606,158.66165c-0.28026,0.11863 -0.51692,0.26994 -0.71094,0.45312c-0.18324,0.17235 -0.32775,0.36635 -0.43555,0.58203c-0.10779,0.21566 -0.19024,0.41643 -0.24414,0.59961c-0.05384,0.18328 -0.08487,0.34428 -0.0957,0.48437c-0.01083,0.12825 -0.01758,0.20388 -0.01758,0.22656h5.24023c0,-0.33416 -0.05432,-0.65327 -0.16211,-0.95508c-0.10778,-0.30191 -0.27558,-0.56475 -0.50195,-0.79101c-0.21558,-0.23718 -0.49491,-0.42631 -0.83984,-0.56641c-0.34493,-0.14009 -0.74939,-0.21094 -1.21289,-0.21094c-0.39883,0 -0.73928,0.05906 -1.01953,0.17773zM106.307,158.69485c-0.33416,0.12936 -0.62513,0.33499 -0.87305,0.61523c-0.23715,0.26948 -0.42629,0.61961 -0.56641,1.05078c-0.14012,0.43117 -0.21094,0.94232 -0.21094,1.53516c0,0.59286 0.07082,1.10594 0.21094,1.53711c0.14014,0.42038 0.32928,0.77054 0.56641,1.05078c0.24792,0.26953 0.5389,0.47319 0.87305,0.61328c0.34493,0.12926 0.71641,0.19531 1.11523,0.19531c0.39882,0 0.76546,-0.06605 1.09961,-0.19531c0.34494,-0.14014 0.63592,-0.3438 0.87305,-0.61328c0.24793,-0.28024 0.44191,-0.6304 0.58203,-1.05078c0.14012,-0.43117 0.20898,-0.94425 0.20898,-1.53711c0,-0.59283 -0.06886,-1.10399 -0.20898,-1.53516c-0.14013,-0.43117 -0.33412,-0.7813 -0.58203,-1.05078c-0.23714,-0.28034 -0.52812,-0.48597 -0.87305,-0.61523c-0.33415,-0.14009 -0.70079,-0.21094 -1.09961,-0.21094c-0.39882,0 -0.7703,0.07084 -1.11523,0.21094zM155.90075,158.66165c-0.28027,0.11863 -0.51693,0.26994 -0.71094,0.45312c-0.18324,0.17235 -0.32971,0.36635 -0.4375,0.58203c-0.10779,0.21566 -0.18829,0.41643 -0.24219,0.59961c-0.05385,0.18328 -0.08682,0.34428 -0.09766,0.48437c-0.01083,0.12825 -0.01562,0.20388 -0.01562,0.22656h5.23828c0,-0.33416 -0.05432,-0.65327 -0.16211,-0.95508c-0.10778,-0.30191 -0.27363,-0.56475 -0.5,-0.79101c-0.21558,-0.23718 -0.49687,-0.42631 -0.8418,-0.56641c-0.34493,-0.14009 -0.74939,-0.21094 -1.21289,-0.21094c-0.39882,0 -0.73732,0.05906 -1.01757,0.17773zM96.66832,158.87259c-0.31258,0.18323 -0.58222,0.43155 -0.80859,0.74414c-0.21557,0.30183 -0.38338,0.65196 -0.50195,1.05078c-0.10779,0.38806 -0.16211,0.79737 -0.16211,1.22851c0,0.42038 0.05432,0.82967 0.16211,1.22852c0.11857,0.39882 0.28637,0.74897 0.50195,1.05078c0.22636,0.30188 0.496,0.54533 0.80859,0.72852c0.31259,0.18318 0.67243,0.27539 1.08203,0.27539c0.4096,0 0.77139,-0.09221 1.08398,-0.27539c0.32337,-0.18323 0.59301,-0.42668 0.80859,-0.72852c0.21558,-0.30181 0.37658,-0.65196 0.48438,-1.05078c0.11858,-0.39884 0.17773,-0.80813 0.17773,-1.22852c0,-0.43114 -0.05916,-0.84046 -0.17773,-1.22851c-0.10779,-0.39882 -0.26879,-0.74895 -0.48438,-1.05078c-0.21558,-0.31264 -0.48522,-0.56096 -0.80859,-0.74414c-0.31259,-0.18318 -0.67438,-0.27539 -1.08398,-0.27539c-0.4096,0 -0.76944,0.09221 -1.08203,0.27539zM67.69957,168.6265c0.21558,0.0861 0.39792,0.21607 0.54883,0.38867c0.16169,0.16179 0.28682,0.35576 0.37305,0.58203c0.09701,0.22634 0.14453,0.46982 0.14453,0.72852v5.85156h0.87305c0.29104,0 0.53934,0.10374 0.74414,0.30859c0.21558,0.2048 0.32422,0.45796 0.32422,0.75977c0,0.291 -0.10863,0.53929 -0.32422,0.74414c-0.2048,0.20485 -0.45311,0.30664 -0.74414,0.30664h-0.87305v1.71289c0,0.34497 -0.12318,0.6379 -0.37109,0.875c-0.23714,0.2371 -0.52811,0.35547 -0.87305,0.35547c-0.34494,0 -0.63592,-0.11837 -0.87305,-0.35547c-0.23715,-0.23715 -0.35547,-0.53008 -0.35547,-0.875v-1.71289h-4.00976c-0.3126,0 -0.59389,-0.04948 -0.8418,-0.14648c-0.24792,-0.10767 -0.46324,-0.24732 -0.64648,-0.41992c-0.17247,-0.17255 -0.30729,-0.37139 -0.4043,-0.59766c-0.09701,-0.23715 -0.14453,-0.48544 -0.14453,-0.74414c0,-0.54972 0.20852,-1.06767 0.62891,-1.55273l4.52734,-5.33398c0.23715,-0.28026 0.4806,-0.51887 0.72852,-0.71289c0.2587,-0.20485 0.55452,-0.30664 0.88867,-0.30664c0.23714,0 0.4641,0.04752 0.67969,0.14453zM73.77575,168.83744c0.24791,0.23715 0.37305,0.52813 0.37305,0.87305v3.91406l4.34766,-4.68945c0.2048,-0.21568 0.4599,-0.32422 0.76172,-0.32422c0.3018,0 0.56949,0.10853 0.80664,0.32422c0.23713,0.21558 0.35742,0.49492 0.35742,0.83984c0,0.26961 -0.08729,0.49172 -0.25976,0.66406l-3.12109,3.18555l4.07617,5.70703c0.16169,0.22634 0.24219,0.47466 0.24219,0.74414c0,0.1186 -0.02813,0.24662 -0.08203,0.38672c-0.04311,0.14002 -0.11198,0.26999 -0.20898,0.38867c-0.09701,0.10784 -0.22214,0.20005 -0.37305,0.27539c-0.15091,0.07534 -0.3284,0.11133 -0.5332,0.11133c-0.18324,0 -0.35589,-0.03599 -0.51758,-0.11133c-0.16168,-0.07534 -0.2965,-0.18891 -0.4043,-0.33984l-3.75,-5.59375l-1.3418,1.35742v3.45898c0,0.34497 -0.12513,0.6379 -0.37305,0.875c-0.23714,0.2371 -0.52812,0.35547 -0.87305,0.35547c-0.34494,0 -0.63592,-0.11837 -0.87305,-0.35547c-0.23715,-0.23715 -0.35547,-0.53008 -0.35547,-0.875v-10.29883c0,-0.34497 0.11832,-0.63594 0.35547,-0.87305c0.23714,-0.2371 0.52812,-0.35547 0.87305,-0.35547c0.34494,0 0.63592,0.11837 0.87305,0.35547zM88.90856,168.77298c0.28026,0.18326 0.52371,0.44805 0.72851,0.79297l4.78516,8.01953v-7.93945c0,-0.32348 0.11348,-0.59795 0.33984,-0.82422c0.23714,-0.22627 0.51163,-0.33984 0.82422,-0.33984c0.32336,0 0.59785,0.11358 0.82422,0.33984c0.23713,0.22637 0.35547,0.50084 0.35547,0.82422v10.20313c0,0.19414 -0.03782,0.37648 -0.11328,0.54883c-0.07546,0.16176 -0.1773,0.30824 -0.30664,0.4375c-0.11856,0.12951 -0.26307,0.2313 -0.43555,0.30664c-0.16169,0.06476 -0.34114,0.09766 -0.53516,0.09766c-0.37727,0 -0.70607,-0.097 -0.98633,-0.29101c-0.26948,-0.19402 -0.50614,-0.45881 -0.71094,-0.79297l-4.78516,-8.01953v7.93945c0,0.31264 -0.11834,0.58712 -0.35547,0.82422c-0.22636,0.22627 -0.5028,0.33789 -0.82617,0.33789c-0.3126,0 -0.58709,-0.11162 -0.82422,-0.33789c-0.22637,-0.23715 -0.33984,-0.51163 -0.33984,-0.82422v-10.21875c0,-0.37727 0.13482,-0.70125 0.4043,-0.9707c0.26948,-0.26948 0.59828,-0.4043 0.98633,-0.4043c0.37727,0 0.70123,0.097 0.9707,0.29102zM140.42223,168.82182c0.23713,0.22637 0.35547,0.50084 0.35547,0.82422v10.42969c0,0.32348 -0.11834,0.59795 -0.35547,0.82422c-0.22636,0.22627 -0.5028,0.33984 -0.82617,0.33984c-0.32337,0 -0.59785,-0.11358 -0.82422,-0.33984c-0.22637,-0.23715 -0.33985,-0.51163 -0.33985,-0.82422v-10.42969c0.00001,-0.32348 0.11348,-0.59795 0.33985,-0.82422c0.23714,-0.22627 0.51163,-0.33984 0.82422,-0.33984c0.32336,0 0.5998,0.11358 0.82617,0.33984zM62.39684,176.17923h3.89648v-4.6582zM134.77184,172.02298c0.4635,0.09696 0.86116,0.24632 1.19531,0.45117c0.34494,0.2048 0.60974,0.46475 0.79297,0.77734c0.19402,0.30181 0.29102,0.66844 0.29102,1.09961v5.77148c0,0.31249 -0.10864,0.57728 -0.32422,0.79297c-0.21558,0.21568 -0.47843,0.32226 -0.79102,0.32226c-0.29103,0 -0.54418,-0.09026 -0.75976,-0.27344c-0.2048,-0.19404 -0.32315,-0.43749 -0.35547,-0.72852c-0.40961,0.38808 -0.84221,0.65287 -1.29492,0.79297c-0.45273,0.14009 -0.96387,0.20898 -1.53516,0.20898c-0.36649,0 -0.73797,-0.05231 -1.11524,-0.16016c-0.36648,-0.10769 -0.70209,-0.27064 -1.0039,-0.48633c-0.29105,-0.22634 -0.52771,-0.50084 -0.71094,-0.82422c-0.18326,-0.32338 -0.27539,-0.69969 -0.27539,-1.13086c0,-0.6683 0.14646,-1.19109 0.4375,-1.56836c0.30181,-0.37727 0.67329,-0.66341 1.11523,-0.85742c0.44195,-0.19407 0.91722,-0.33375 1.42383,-0.41992c0.5174,-0.08617 0.99556,-0.17359 1.4375,-0.25977c0.44194,-0.08617 0.80858,-0.20454 1.09961,-0.35547c0.30181,-0.16166 0.45313,-0.41482 0.45313,-0.75976c0,-0.16156 -0.04753,-0.30124 -0.14453,-0.41992c-0.08623,-0.12926 -0.21136,-0.23105 -0.37305,-0.30664c-0.16168,-0.08617 -0.35082,-0.15223 -0.56641,-0.19531c-0.21559,-0.04309 -0.4406,-0.06445 -0.67773,-0.06445c-0.31259,0 -0.55605,0.04273 -0.72852,0.12891c-0.17246,0.08642 -0.31213,0.19496 -0.41992,0.32422c-0.09701,0.12926 -0.17751,0.27378 -0.24219,0.43555c-0.06468,0.151 -0.14518,0.29261 -0.24218,0.42187c-0.08623,0.12951 -0.20457,0.23609 -0.35547,0.32227c-0.15091,0.08617 -0.36818,0.13086 -0.64844,0.13086v-0.00195c-0.2587,0 -0.48372,-0.0641 -0.67773,-0.19336c-0.18324,-0.14014 -0.2754,-0.38844 -0.2754,-0.74414c0,-0.34492 0.08534,-0.66208 0.25782,-0.95312c0.17246,-0.29097 0.42077,-0.53929 0.74414,-0.74414c0.32337,-0.21548 0.71814,-0.38328 1.18164,-0.50195c0.4635,-0.11868 0.98629,-0.17773 1.56836,-0.17773c0.54973,0 1.05603,0.04948 1.51953,0.14648zM104.35973,172.23392c0.57129,0.22637 1.06595,0.54837 1.48633,0.96875c0.42037,0.42038 0.74917,0.92865 0.98633,1.52148c0.24791,0.58207 0.37305,1.22802 0.37305,1.93945c0,0.71141 -0.12513,1.36417 -0.37305,1.95703c-0.23714,0.58205 -0.56594,1.08352 -0.98633,1.50391c-0.42038,0.42043 -0.91504,0.74727 -1.48633,0.98437c-0.57129,0.22627 -1.18623,0.33984 -1.84375,0.33984c-0.64674,0 -1.25488,-0.11358 -1.82617,-0.33984c-0.57129,-0.23715 -1.0679,-0.56399 -1.48828,-0.98437c-0.42039,-0.42038 -0.75404,-0.92186 -1.00195,-1.50391c-0.23715,-0.59286 -0.35547,-1.24562 -0.35547,-1.95703c0,-0.71143 0.11832,-1.35738 0.35547,-1.93945c0.24792,-0.59283 0.58157,-1.1011 1.00195,-1.52148c0.42038,-0.42048 0.91699,-0.74248 1.48828,-0.96875c0.57129,-0.2371 1.17943,-0.35547 1.82617,-0.35547c0.65752,0 1.27246,0.11837 1.84375,0.35547zM110.16637,172.23392c0.22637,0.22637 0.33984,0.496 0.33984,0.80859c0.09701,-0.10784 0.21535,-0.23295 0.35547,-0.37305c0.1509,-0.14009 0.3119,-0.26325 0.48438,-0.37109c0.18325,-0.11868 0.37239,-0.21568 0.56641,-0.29101c0.19403,-0.08617 0.38801,-0.12891 0.58203,-0.12891c0.43117,0 0.72214,0.11162 0.87305,0.33789c0.16169,0.22637 0.24219,0.49116 0.24219,0.79297c0,0.24801 -0.05916,0.43715 -0.17773,0.56641c-0.10778,0.11842 -0.24745,0.20868 -0.41992,0.27344c-0.16169,0.06475 -0.33919,0.11902 -0.5332,0.16211c-0.19402,0.03225 -0.37831,0.08173 -0.55078,0.14648c-0.3126,0.11858 -0.56575,0.27473 -0.75977,0.46875c-0.18325,0.18316 -0.32291,0.38197 -0.41992,0.59766c-0.09703,0.2047 -0.16103,0.41517 -0.19336,0.63086c-0.03233,0.21563 -0.04883,0.41447 -0.04883,0.59766v3.62305c0,0.32348 -0.11834,0.59795 -0.35547,0.82422c-0.22636,0.22627 -0.5028,0.33984 -0.82617,0.33984c-0.3126,0 -0.58709,-0.11358 -0.82422,-0.33984c-0.22637,-0.23715 -0.33984,-0.51163 -0.33984,-0.82422v-7.0332c0,-0.31269 0.11347,-0.58233 0.33984,-0.80859c0.23714,-0.2371 0.51843,-0.35547 0.8418,-0.35547c0.32336,0 0.59785,0.11837 0.82422,0.35547zM116.44957,172.23392c0.22637,0.22637 0.33984,0.496 0.33984,0.80859c0.09701,-0.10784 0.22214,-0.22816 0.37305,-0.35742c0.1509,-0.14002 0.33324,-0.26804 0.54883,-0.38672c0.21558,-0.11868 0.46389,-0.21568 0.74414,-0.29101c0.29104,-0.08617 0.61499,-0.12891 0.9707,-0.12891c0.42038,0 0.77052,0.04273 1.05078,0.12891c0.29104,0.08617 0.53934,0.19975 0.74414,0.33984c0.20481,0.12921 0.37746,0.27857 0.51758,0.45117c0.14012,0.16179 0.26814,0.32961 0.38672,0.50195c0.09701,-0.15083 0.22214,-0.30699 0.37305,-0.46875c0.15089,-0.1725 0.34488,-0.32865 0.58203,-0.46875c0.24792,-0.14009 0.54374,-0.25367 0.88867,-0.33984c0.34493,-0.09701 0.76589,-0.14453 1.26172,-0.14453c0.24792,0 0.52725,0.04273 0.83985,0.12891c0.32337,0.07551 0.61919,0.20354 0.88867,0.38672c0.28027,0.18323 0.51208,0.42668 0.69531,0.72852c0.19402,0.29102 0.29102,0.65282 0.29102,1.08398v5.86914c0,0.31264 -0.11832,0.58712 -0.35547,0.82422c-0.22636,0.22627 -0.50085,0.33984 -0.82422,0.33984c-0.32336,0 -0.59785,-0.11358 -0.82422,-0.33984c-0.22637,-0.23715 -0.33984,-0.51163 -0.33984,-0.82422v-4.64062c0,-0.45271 -0.15616,-0.83584 -0.46875,-1.14844c-0.3126,-0.31259 -0.69572,-0.46875 -1.14844,-0.46875c-0.45272,0 -0.83585,0.15616 -1.14844,0.46875c-0.31259,0.31259 -0.46875,0.69572 -0.46875,1.14844v4.64062c0,0.31264 -0.11832,0.58712 -0.35547,0.82422c-0.22636,0.22627 -0.496,0.33984 -0.80859,0.33984c-0.32336,0 -0.60269,-0.11358 -0.83984,-0.33984c-0.22637,-0.23715 -0.33984,-0.51163 -0.33984,-0.82422v-4.64062c0,-0.45271 -0.15616,-0.83584 -0.46875,-1.14844c-0.31259,-0.31259 -0.69572,-0.46875 -1.14844,-0.46875c-0.45272,0 -0.83584,0.15616 -1.14844,0.46875c-0.31259,0.31259 -0.46875,0.69572 -0.46875,1.14844v4.64062c0,0.31264 -0.11347,0.58712 -0.33984,0.82422c-0.22636,0.22627 -0.50085,0.33984 -0.82422,0.33984c-0.32338,0 -0.60272,-0.11358 -0.83984,-0.33984c-0.22637,-0.23715 -0.33984,-0.51163 -0.33984,-0.82422v-7.0332c0,-0.31269 0.11347,-0.58233 0.33984,-0.80859c0.23714,-0.2371 0.51647,-0.35547 0.83984,-0.35547c0.32336,0 0.59785,0.11837 0.82422,0.35547zM101.44957,173.83352c-0.31258,0.16166 -0.58222,0.38864 -0.80859,0.67969c-0.21558,0.28026 -0.38338,0.60908 -0.50195,0.98633c-0.11858,0.36649 -0.17773,0.75444 -0.17773,1.16406c0,0.4096 0.05916,0.80244 0.17773,1.17969c0.11857,0.37727 0.28637,0.70606 0.50195,0.98633c0.22636,0.28037 0.496,0.50734 0.80859,0.67969c0.31259,0.16176 0.66758,0.24219 1.06641,0.24219c0.39882,0 0.75381,-0.08042 1.06641,-0.24219c0.32337,-0.17245 0.59301,-0.39942 0.80859,-0.67969c0.21557,-0.28026 0.38338,-0.60905 0.50195,-0.98633c0.11858,-0.37725 0.17773,-0.77009 0.17773,-1.17969c0,-0.40963 -0.05916,-0.79757 -0.17773,-1.16406c-0.11857,-0.37725 -0.28637,-0.70606 -0.50195,-0.98633c-0.21558,-0.29095 -0.48522,-0.51792 -0.80859,-0.67969c-0.31259,-0.17235 -0.66758,-0.25781 -1.06641,-0.25781c-0.39882,0 -0.75381,0.08547 -1.06641,0.25781zM133.89879,176.97025c-0.37727,0.11842 -0.89036,0.23679 -1.53711,0.35547c-0.78687,0.14012 -1.17969,0.51159 -1.17969,1.11523c0,0.15093 0.02135,0.29741 0.06446,0.4375c0.05389,0.14002 0.13923,0.26999 0.25781,0.38867c0.11858,0.10759 0.27669,0.19306 0.4707,0.25781c0.20481,0.06476 0.45116,0.09766 0.74219,0.09766c0.24793,0 0.49623,-0.02811 0.74414,-0.08203c0.25871,-0.0645 0.48567,-0.14997 0.67969,-0.25781c0.20479,-0.11847 0.3658,-0.25816 0.48437,-0.41992c0.12937,-0.17237 0.19532,-0.36635 0.19532,-0.58203v-1.56836c-0.22636,0.05392 -0.53383,0.13913 -0.92188,0.25781z" fill="#1eff00" stroke="none" stroke-width="1.01053" stroke-miterlimit="10" stroke-dashoffset="0"/></g></g></svg>