<svg version="1.1" xmlns="http://www.w3.org/2000/svg" xmlns:xlink="http://www.w3.org/1999/xlink" width="372.21484" height="68.64258"><g transform="translate(-53.89258,-145.67871)"><g data-paper-data="{&quot;isPaintingLayer&quot;:true}" fill-rule="nonzero" stroke-linecap="butt" stroke-linejoin="miter" stroke-dasharray="" style="mix-blend-mode: normal"><path d="M425.00977,146.42871c0.19313,0 0.34765,0.15452 0.34765,0.34766v66.44531c0,0.19313 -0.15452,0.34961 -0.34765,0.34961h-370.01758c-0.19313,0 -0.34961,-0.15647 -0.34961,-0.34961v-66.44531c0,-0.19313 0.15648,-0.34766 0.34961,-0.34766z" data-paper-data="{&quot;origPos&quot;:null}" id="rect815-0-0-8-6" fill="#1e1e1e" stroke="#1eff00" stroke-width="1.5" stroke-miterlimit="4" stroke-dashoffset="17.35"/><path d="M69.10262,187.56528c1.27593,0 2.33409,4.30813 3.36631,5.0581c1.03226,0.74997 5.45654,0.42505 5.85082,1.63854c0.39428,1.21349 -3.37603,3.55109 -3.77031,4.76459c-0.39428,1.21349 1.28194,5.32078 0.24983,6.07079c-1.03226,0.74997 -4.42057,-2.11344 -5.6965,-2.11344c-1.27593,0 -4.66424,2.86341 -5.6965,2.11344c-1.03226,-0.75001 0.64396,-4.8573 0.24983,-6.07079c-0.39428,-1.21349 -4.16459,-3.55109 -3.77031,-4.76459c0.39428,-1.21349 4.81856,-0.88857 5.85082,-1.63854c1.03223,-0.74997 2.09038,-5.0581 3.36631,-5.0581z" data-paper-data="{&quot;origPos&quot;:null}" id="path1428-5-07-2-6" fill="#1eff00" stroke="none" stroke-width="0.88188" stroke-miterlimit="4" stroke-dashoffset="17.35"/><path d="M92.03957,191.53817c0.70176,0 1.28373,2.36946 1.85147,2.78196c0.56775,0.41246 3.00108,0.23395 3.21793,0.90119c0.21687,0.66743 -1.85679,1.95311 -2.07365,2.62054c-0.21687,0.66739 0.70505,2.92641 0.1372,3.33891c-0.56772,0.4125 -2.43129,-1.16239 -3.13305,-1.16239c-0.70178,0 -2.56533,1.57489 -3.13308,1.16239c-0.56775,-0.4125 0.35418,-2.67152 0.1372,-3.33891c-0.21687,-0.66743 -2.2905,-1.95311 -2.07365,-2.62054c0.21687,-0.66743 2.65019,-0.48873 3.21793,-0.90119c0.56775,-0.4125 1.14971,-2.78196 1.85149,-2.78196z" data-paper-data="{&quot;origPos&quot;:null}" id="path1428-0-2-53-3-8" fill="#1eff00" stroke="none" stroke-width="0.48503" stroke-miterlimit="4" stroke-dashoffset="17.35"/><path d="M67.49024,152.0166c0.62933,0.27734 1.16723,0.61315 1.61523,1.00781c0.45866,0.384 0.8113,0.79508 1.05664,1.23242c0.256,0.43732 0.38281,0.81477 0.38281,1.13477c0,0.2881 -0.10697,0.51887 -0.32031,0.68945c-0.21332,0.16 -0.44216,0.24023 -0.6875,0.24023c-0.18133,0 -0.35172,-0.04349 -0.51172,-0.12891c-0.16,-0.09592 -0.27194,-0.25143 -0.33594,-0.46484c-0.09601,-0.29866 -0.22973,-0.59091 -0.40039,-0.87891c-0.17067,-0.28808 -0.38958,-0.55057 -0.65625,-0.78516c-0.26666,-0.23476 -0.58069,-0.42001 -0.94336,-0.55859c-0.352,-0.14942 -0.76309,-0.22461 -1.23242,-0.22461c-0.53333,0 -1.03457,0.11698 -1.50391,0.35156c-0.46933,0.224 -0.88042,0.5499 -1.23242,0.97656c-0.34134,0.416 -0.61179,0.92219 -0.81445,1.51953c-0.20266,0.59732 -0.30469,1.264 -0.30469,2c0,0.736 0.10203,1.40266 0.30469,2c0.20267,0.59734 0.47312,1.11045 0.81445,1.53711c0.352,0.42676 0.76309,0.7576 1.23242,0.99219c0.46933,0.224 0.97057,0.33594 1.50391,0.33594c0.46933,0 0.88042,-0.0704 1.23242,-0.20898c0.36267,-0.14942 0.67669,-0.34159 0.94336,-0.57617c0.26668,-0.23466 0.48559,-0.4952 0.65625,-0.7832c0.17067,-0.29866 0.30439,-0.5978 0.40039,-0.89648c0.064,-0.21324 0.17594,-0.36185 0.33594,-0.44726c0.15999,-0.096 0.33038,-0.14453 0.51172,-0.14453c0.24532,0 0.47416,0.08023 0.6875,0.24023c0.21334,0.16 0.32031,0.38387 0.32031,0.67187c0,0.23466 -0.09511,0.5655 -0.28711,0.99219c-0.192,0.42666 -0.49115,0.85264 -0.89648,1.2793c-0.40533,0.416 -0.93332,0.77855 -1.58398,1.08789c-0.64,0.30934 -1.41365,0.46484 -2.32031,0.46484c-0.96,0 -1.80201,-0.18224 -2.52734,-0.54492c-0.71467,-0.36266 -1.31297,-0.84708 -1.79297,-1.45508c-0.46933,-0.608 -0.82692,-1.30142 -1.07227,-2.08008c-0.23466,-0.78934 -0.35156,-1.6115 -0.35156,-2.46484c0,-0.84266 0.1169,-1.65792 0.35156,-2.44727c0.24533,-0.78932 0.60293,-1.48274 1.07227,-2.08008c0.48,-0.608 1.0783,-1.09437 1.79297,-1.45703c0.72533,-0.36268 1.56734,-0.54297 2.52734,-0.54297c0.736,0 1.41454,0.13867 2.0332,0.41602zM73.11524,152.09668c0.192,0.18132 0.28711,0.40519 0.28711,0.67187c0,0.256 -0.09511,0.47987 -0.28711,0.67187c-0.18133,0.18142 -0.40025,0.27148 -0.65625,0.27148c-0.26666,0 -0.4955,-0.09007 -0.6875,-0.27148c-0.18134,-0.192 -0.27148,-0.41587 -0.27148,-0.67187c0,-0.26658 0.09014,-0.49046 0.27148,-0.67187c0.192,-0.18142 0.42083,-0.27344 0.6875,-0.27344c0.25599,0 0.47491,0.09202 0.65625,0.27344zM76.9961,152.79981c0.17066,0.1601 0.25586,0.35721 0.25586,0.5918v2h0.88086c0.20268,0 0.37306,0.07519 0.51172,0.22461c0.14934,0.13876 0.22461,0.30914 0.22461,0.51172c0,0.21342 -0.07527,0.39071 -0.22461,0.5293c-0.13868,0.13858 -0.30906,0.20703 -0.51172,0.20703h-0.88086v6.73633c0,0.23476 -0.0852,0.43684 -0.25586,0.60742c-0.16001,0.16 -0.35714,0.24023 -0.5918,0.24023c-0.23467,0 -0.4318,-0.08023 -0.5918,-0.24023c-0.16,-0.17076 -0.24023,-0.37284 -0.24023,-0.60742v-6.73633h-0.5918c-0.20266,0 -0.378,-0.06845 -0.52734,-0.20703c-0.13866,-0.13858 -0.20898,-0.31588 -0.20898,-0.5293c0,-0.20276 0.07033,-0.37314 0.20898,-0.51172c0.14934,-0.14942 0.32468,-0.22461 0.52734,-0.22461h0.5918v-2c0,-0.23468 0.08023,-0.4318 0.24023,-0.5918c0.16001,-0.16 0.35714,-0.24023 0.5918,-0.24023c0.23467,0 0.4318,0.08023 0.5918,0.24023zM98.85157,155.26465c0.416,0.12808 0.75872,0.29351 1.02539,0.49609c0.10666,0.08542 0.2186,0.19036 0.33594,0.31836c0.11734,0.11724 0.22928,0.25097 0.33594,0.40039c0.10666,0.13876 0.19186,0.27743 0.25586,0.41602c0.07466,0.13883 0.11133,0.26256 0.11133,0.36914c0,0.24527 -0.09511,0.44238 -0.28711,0.5918c-0.192,0.13858 -0.401,0.20703 -0.625,0.20703c-0.13866,0 -0.26547,-0.0317 -0.38281,-0.0957c-0.11734,-0.07458 -0.20944,-0.18652 -0.27344,-0.33594c-0.08534,-0.20258 -0.17548,-0.37793 -0.27148,-0.52734c-0.096,-0.14942 -0.22281,-0.27314 -0.38281,-0.36914c-0.14933,-0.096 -0.33655,-0.16445 -0.56055,-0.20703c-0.21333,-0.05342 -0.48574,-0.08008 -0.81641,-0.08008c-0.65067,0 -1.12516,0.10689 -1.42383,0.32031c-0.288,0.20266 -0.43164,0.45824 -0.43164,0.76758c0,0.23458 0.0852,0.42675 0.25586,0.57617c0.17067,0.13883 0.39454,0.2606 0.67187,0.36719c0.288,0.096 0.61389,0.18128 0.97656,0.25586c0.36267,0.064 0.73018,0.14423 1.10352,0.24023c0.37333,0.08542 0.74085,0.19231 1.10352,0.32031c0.36266,0.11724 0.6836,0.28268 0.96094,0.49609c0.28801,0.20266 0.51684,0.45327 0.6875,0.75195c0.17066,0.29866 0.25586,0.67309 0.25586,1.12109c0,0.53334 -0.10697,0.98606 -0.32031,1.35937c-0.21333,0.36276 -0.49566,0.6619 -0.84766,0.89648c-0.352,0.22407 -0.76309,0.38951 -1.23242,0.49609c-0.46933,0.096 -0.96066,0.14258 -1.47266,0.14258c-0.72533,0 -1.33851,-0.10689 -1.83984,-0.32031c-0.49067,-0.224 -0.89484,-0.47958 -1.21484,-0.76758c-0.30934,-0.29868 -0.53322,-0.59091 -0.67187,-0.87891c-0.13866,-0.2879 -0.20898,-0.50683 -0.20898,-0.65625c0,-0.24527 0.0852,-0.44238 0.25586,-0.5918c0.18134,-0.16 0.37351,-0.24023 0.57617,-0.24023c0.128,0 0.2518,0.03675 0.36914,0.11133c0.11734,0.07458 0.20748,0.19156 0.27148,0.35156c0.18133,0.45866 0.46861,0.843 0.86328,1.15234c0.40533,0.30934 0.98185,0.46484 1.72852,0.46484c0.34133,0 0.63552,-0.0387 0.88086,-0.11328c0.24532,-0.08542 0.44245,-0.19036 0.5918,-0.31836c0.16,-0.13868 0.2769,-0.28922 0.35156,-0.44922c0.07466,-0.17058 0.11133,-0.34593 0.11133,-0.52734c0,-0.36258 -0.14364,-0.63499 -0.43164,-0.81641c-0.288,-0.18142 -0.6456,-0.32506 -1.07227,-0.43164c-0.42666,-0.10658 -0.8962,-0.20364 -1.4082,-0.28906c-0.50133,-0.09608 -0.96396,-0.22785 -1.39062,-0.39844c-0.42666,-0.18134 -0.78426,-0.43195 -1.07226,-0.75195c-0.288,-0.33066 -0.43164,-0.78533 -0.43164,-1.36133c0,-0.832 0.30216,-1.48183 0.91016,-1.95117c0.608,-0.46932 1.45692,-0.70508 2.54492,-0.70508c0.608,0 1.11916,0.06536 1.53516,0.19336zM73.05079,155.44043c0.16,0.1601 0.24023,0.35721 0.24023,0.5918v7.56836c0,0.23476 -0.08023,0.43684 -0.24023,0.60742c-0.16001,0.16 -0.35714,0.24023 -0.5918,0.24023c-0.23468,0 -0.43676,-0.08023 -0.60742,-0.24023c-0.16,-0.17076 -0.24023,-0.37284 -0.24023,-0.60742v-7.56836c0,-0.23468 0.08023,-0.4318 0.24023,-0.5918c0.17068,-0.17058 0.37276,-0.25586 0.60742,-0.25586c0.23467,0 0.4318,0.08528 0.5918,0.25586zM81.23829,155.44043c0.16,0.1601 0.24023,0.35721 0.24023,0.5918v0.30469c0.04266,-0.04258 0.12289,-0.12981 0.24023,-0.25781c0.11734,-0.128 0.26098,-0.25481 0.43164,-0.38281c0.18132,-0.13858 0.37845,-0.25556 0.5918,-0.35156c0.22399,-0.10658 0.45974,-0.16016 0.70508,-0.16016c0.23466,0 0.4318,0.08528 0.5918,0.25586c0.17066,0.1601 0.25586,0.35721 0.25586,0.5918c0,0.22408 -0.0852,0.42121 -0.25586,0.5918c-0.16001,0.16 -0.35714,0.24023 -0.5918,0.24023c-0.40533,0 -0.73619,0.09511 -0.99219,0.28711c-0.25599,0.18134 -0.46003,0.40025 -0.60937,0.65625c-0.13866,0.256 -0.23377,0.52346 -0.28711,0.80078c-0.05334,0.27727 -0.08008,0.50608 -0.08008,0.6875v4.30469c0,0.23476 -0.08023,0.43684 -0.24023,0.60742c-0.16001,0.16 -0.35714,0.24023 -0.5918,0.24023c-0.23468,0 -0.43676,-0.08023 -0.60742,-0.24023c-0.16,-0.17076 -0.24023,-0.37284 -0.24023,-0.60742v-7.56836c0,-0.23468 0.08023,-0.4318 0.24023,-0.5918c0.17068,-0.17058 0.37276,-0.25586 0.60742,-0.25586c0.23467,0 0.4318,0.08528 0.5918,0.25586zM86.58204,155.44043c0.16,0.1601 0.24023,0.35721 0.24023,0.5918v5.56836c0,0.24524 0.0535,0.45921 0.16016,0.64062c0.11734,0.18134 0.26098,0.33489 0.43164,0.46289c0.18132,0.11742 0.37846,0.20944 0.5918,0.27344c0.22399,0.064 0.44291,0.0957 0.65625,0.0957c0.352,0 0.67294,-0.05836 0.96094,-0.17578c0.288,-0.12792 0.52675,-0.30025 0.71875,-0.51367c0.20267,-0.21334 0.35818,-0.46395 0.46484,-0.75195c0.10666,-0.29866 0.16016,-0.61764 0.16016,-0.95898v-4.64063c0,-0.23468 0.08023,-0.4318 0.24023,-0.5918c0.16001,-0.17058 0.35714,-0.25586 0.5918,-0.25586c0.23467,0 0.4318,0.08528 0.5918,0.25586c0.17066,0.1601 0.25586,0.35721 0.25586,0.5918v7.56836c0,0.23476 -0.0852,0.43684 -0.25586,0.60742c-0.16001,0.16 -0.35714,0.24023 -0.5918,0.24023c-0.23467,0 -0.4318,-0.08023 -0.5918,-0.24023c-0.16,-0.17076 -0.24023,-0.37284 -0.24023,-0.60742v-0.28906c-0.10667,0.096 -0.24039,0.21493 -0.40039,0.35352c-0.14933,0.128 -0.33655,0.24977 -0.56055,0.36719c-0.224,0.11716 -0.48453,0.21927 -0.7832,0.30469c-0.288,0.07458 -0.62381,0.11133 -1.00781,0.11133c-0.39467,0 -0.77901,-0.05357 -1.15234,-0.16016c-0.36267,-0.11734 -0.68856,-0.28772 -0.97656,-0.51172c-0.28801,-0.224 -0.51684,-0.50137 -0.6875,-0.83203c-0.17066,-0.33068 -0.25586,-0.71503 -0.25586,-1.15234v-5.75977c0,-0.23468 0.08023,-0.4318 0.24023,-0.5918c0.17068,-0.17058 0.37276,-0.25586 0.60742,-0.25586c0.23467,0 0.4318,0.08528 0.5918,0.25586zM62.46485,167.58496c0.27734,0.18132 0.51804,0.44186 0.7207,0.7832l4.73633,7.93555v-7.85547c0,-0.32 0.11194,-0.59241 0.33594,-0.81641c0.23467,-0.224 0.50707,-0.33594 0.81641,-0.33594c0.32,0 0.59045,0.11194 0.81445,0.33594c0.23466,0.224 0.35352,0.49641 0.35352,0.81641v10.0957c0,0.19208 -0.03862,0.37434 -0.11328,0.54492c-0.07466,0.16 -0.17473,0.30364 -0.30273,0.43164c-0.11734,0.128 -0.26294,0.22815 -0.43359,0.30273c-0.16,0.064 -0.33534,0.09766 -0.52734,0.09766c-0.37333,0 -0.69923,-0.09706 -0.97656,-0.28906c-0.26667,-0.192 -0.50047,-0.45252 -0.70312,-0.7832l-4.73633,-7.93555v7.85547c0,0.30942 -0.1169,0.58182 -0.35156,0.81641c-0.224,0.224 -0.49641,0.33594 -0.81641,0.33594c-0.30934,0 -0.58175,-0.11194 -0.81641,-0.33594c-0.224,-0.23468 -0.33594,-0.50709 -0.33594,-0.81641v-10.11133c0,-0.37334 0.13372,-0.69428 0.40039,-0.96094c0.26667,-0.26666 0.59256,-0.40039 0.97656,-0.40039c0.37333,0 0.69232,0.09706 0.95898,0.28906zM113.44142,167.63184c0.23465,0.224 0.35156,0.49641 0.35156,0.81641v10.32031c0,0.32 -0.11691,0.59241 -0.35156,0.81641c-0.224,0.224 -0.49641,0.33594 -0.81641,0.33594c-0.32,0 -0.59241,-0.11194 -0.81641,-0.33594c-0.224,-0.23468 -0.33593,-0.50709 -0.33593,-0.81641v-10.32031c0,-0.32 0.11193,-0.59241 0.33593,-0.81641c0.23467,-0.224 0.50708,-0.33594 0.81641,-0.33594c0.32,0 0.59241,0.11194 0.81641,0.33594zM86.66993,170.99317c0.16,0.224 0.24023,0.48454 0.24023,0.7832c0,0.24534 -0.06039,0.43255 -0.17773,0.56055c-0.10667,0.11742 -0.2434,0.20748 -0.41406,0.27148c-0.16,0.064 -0.3373,0.11757 -0.5293,0.16016c-0.19201,0.032 -0.37231,0.08053 -0.54297,0.14453c-0.30933,0.11732 -0.55995,0.27089 -0.75195,0.46289c-0.18133,0.18127 -0.32002,0.37838 -0.41602,0.5918c-0.096,0.20258 -0.16136,0.41158 -0.19336,0.625c-0.032,0.21324 -0.04687,0.41038 -0.04687,0.5918v3.58398c0,0.32 -0.1169,0.59241 -0.35156,0.81641c-0.224,0.224 -0.49641,0.33594 -0.81641,0.33594c-0.30934,0 -0.58175,-0.11194 -0.81641,-0.33594c-0.224,-0.23468 -0.33594,-0.50709 -0.33594,-0.81641v-6.96094c0,-0.30934 0.11194,-0.57483 0.33594,-0.79883c0.23466,-0.23458 0.51203,-0.35156 0.83203,-0.35156c0.32,0 0.59241,0.11698 0.81641,0.35156c0.224,0.224 0.33594,0.48949 0.33594,0.79883c0.096,-0.10683 0.2129,-0.2286 0.35156,-0.36719c0.14934,-0.13883 0.30981,-0.2606 0.48047,-0.36719c0.18133,-0.11742 0.36659,-0.21448 0.55859,-0.28906c0.192,-0.08542 0.38417,-0.12891 0.57617,-0.12891c0.42666,0 0.71589,0.11389 0.86523,0.33789zM89.72071,171.00879c0.224,0.224 0.33594,0.48949 0.33594,0.79883c0.096,-0.10658 0.21784,-0.22356 0.36719,-0.35156c0.14932,-0.13858 0.33158,-0.26735 0.54492,-0.38477c0.21333,-0.11742 0.45899,-0.21253 0.73633,-0.28711c0.288,-0.08542 0.60698,-0.12891 0.95898,-0.12891c0.416,0 0.76368,0.04349 1.04102,0.12891c0.28801,0.08542 0.53172,0.19735 0.73437,0.33594c0.20267,0.1281 0.37306,0.27668 0.51172,0.44727c0.13866,0.16007 0.26742,0.32551 0.38477,0.49609c0.096,-0.14934 0.2198,-0.30289 0.36914,-0.46289c0.14934,-0.17073 0.33956,-0.32626 0.57422,-0.46484c0.24533,-0.13858 0.53953,-0.25052 0.88086,-0.33594c0.34133,-0.096 0.75738,-0.14453 1.24805,-0.14453c0.24533,0 0.5227,0.04349 0.83203,0.12891c0.32,0.07458 0.61419,0.20335 0.88086,0.38476c0.27732,0.18134 0.50616,0.42009 0.6875,0.71875c0.192,0.288 0.28711,0.64558 0.28711,1.07227v5.80859c0,0.30942 -0.1169,0.57987 -0.35156,0.81445c-0.224,0.224 -0.49641,0.33594 -0.81641,0.33594c-0.32,0 -0.59241,-0.11194 -0.81641,-0.33594c-0.224,-0.23468 -0.33594,-0.50514 -0.33594,-0.81445v-4.5918c0,-0.448 -0.15356,-0.82738 -0.46289,-1.13672c-0.30933,-0.30932 -0.68872,-0.46484 -1.13672,-0.46484c-0.448,0 -0.82543,0.15553 -1.13476,0.46484c-0.30933,0.30934 -0.46484,0.68872 -0.46484,1.13672v4.5918c0,0.30942 -0.1169,0.57987 -0.35156,0.81445c-0.224,0.224 -0.49145,0.33594 -0.80078,0.33594c-0.32001,0 -0.59737,-0.11194 -0.83203,-0.33594c-0.224,-0.23468 -0.33594,-0.50514 -0.33594,-0.81445v-4.5918c0,-0.448 -0.15356,-0.82738 -0.46289,-1.13672c-0.30933,-0.30932 -0.68872,-0.46484 -1.13672,-0.46484c-0.448,0 -0.82738,0.15553 -1.13672,0.46484c-0.30933,0.30934 -0.46289,0.68872 -0.46289,1.13672v4.5918c0,0.30942 -0.11194,0.57987 -0.33594,0.81445c-0.224,0.224 -0.49641,0.33594 -0.81641,0.33594c-0.32001,0 -0.59737,-0.11194 -0.83203,-0.33594c-0.224,-0.23468 -0.33594,-0.50514 -0.33594,-0.81445v-6.96094c0,-0.30934 0.11194,-0.57483 0.33594,-0.79883c0.23466,-0.23458 0.51203,-0.35352 0.83203,-0.35352c0.32,0 0.59241,0.11893 0.81641,0.35352zM107.84962,170.79981c0.45867,0.09607 0.85293,0.24468 1.18359,0.44726c0.34132,0.20266 0.60381,0.45824 0.78516,0.76758c0.192,0.29866 0.28711,0.66121 0.28711,1.08789v5.71289c0,0.30924 -0.10697,0.56979 -0.32031,0.7832c-0.21333,0.21342 -0.47387,0.32031 -0.7832,0.32031c-0.28799,0 -0.53861,-0.09007 -0.75195,-0.27148c-0.20266,-0.192 -0.31956,-0.4327 -0.35156,-0.7207c-0.40533,0.38407 -0.83325,0.64657 -1.28125,0.78516c-0.448,0.13858 -0.9542,0.20703 -1.51953,0.20703c-0.36267,0 -0.73018,-0.05357 -1.10351,-0.16016c-0.36267,-0.10658 -0.69352,-0.26705 -0.99219,-0.48047c-0.28799,-0.224 -0.52178,-0.49445 -0.70312,-0.81445c-0.18134,-0.32 -0.27344,-0.69443 -0.27344,-1.12109c0,-0.66134 0.14364,-1.17746 0.43164,-1.55078c0.29867,-0.37334 0.66813,-0.65761 1.10547,-0.84961c0.43733,-0.19192 0.90687,-0.3306 1.4082,-0.41602c0.512,-0.08516 0.98649,-0.17044 1.42383,-0.25586c0.43733,-0.08516 0.79989,-0.20214 1.08789,-0.35156c0.29867,-0.16 0.44726,-0.41061 0.44727,-0.75195c0,-0.15992 -0.04853,-0.2986 -0.14453,-0.41601c-0.08534,-0.128 -0.20719,-0.22815 -0.36719,-0.30273c-0.15999,-0.08542 -0.3472,-0.15078 -0.56055,-0.19336c-0.21334,-0.04258 -0.43722,-0.0625 -0.67187,-0.0625c-0.30934,0 -0.54809,0.04154 -0.71875,0.12695c-0.17068,0.08542 -0.30936,0.19231 -0.41602,0.32031c-0.096,0.128 -0.17623,0.27164 -0.24023,0.43164c-0.064,0.14934 -0.14423,0.28802 -0.24023,0.41602c-0.08532,0.128 -0.20222,0.23489 -0.35156,0.32031c-0.14933,0.08542 -0.36329,0.12891 -0.64062,0.12891v-0.00195c-0.256,0 -0.47987,-0.06341 -0.67187,-0.19141c-0.18134,-0.13866 -0.27148,-0.38433 -0.27148,-0.73633c0,-0.34134 0.0852,-0.65536 0.25586,-0.94336c0.17067,-0.28808 0.41437,-0.53375 0.73437,-0.73633c0.32,-0.21327 0.7093,-0.37868 1.16797,-0.49609c0.45867,-0.11742 0.97673,-0.17578 1.55273,-0.17578c0.544,0 1.04524,0.04853 1.50391,0.14453zM77.75587,171.00879c0.56533,0.224 1.0547,0.54298 1.4707,0.95898c0.41601,0.416 0.7419,0.91725 0.97656,1.50391c0.24534,0.576 0.36719,1.21592 0.36719,1.91992c0,0.704 -0.12184,1.35082 -0.36719,1.9375c-0.23467,0.576 -0.56056,1.07033 -0.97656,1.48633c-0.416,0.41607 -0.90537,0.74198 -1.4707,0.97656c-0.56533,0.224 -1.17355,0.33594 -1.82422,0.33594c-0.64,0 -1.24326,-0.11194 -1.80859,-0.33594c-0.56533,-0.23466 -1.05666,-0.56056 -1.47266,-0.97656c-0.41599,-0.416 -0.74685,-0.91033 -0.99219,-1.48633c-0.23466,-0.58668 -0.35156,-1.2335 -0.35156,-1.9375c0,-0.704 0.1169,-1.34392 0.35156,-1.91992c0.24533,-0.58666 0.57619,-1.08791 0.99219,-1.50391c0.416,-0.416 0.90732,-0.73498 1.47266,-0.95898c0.56533,-0.23458 1.16859,-0.35156 1.80859,-0.35156c0.65066,0 1.25888,0.11698 1.82422,0.35156zM74.87501,172.59277c-0.30933,0.16 -0.57678,0.38388 -0.80078,0.67188c-0.21332,0.27734 -0.3768,0.60129 -0.49414,0.97461c-0.11734,0.36268 -0.17773,0.74703 -0.17773,1.15234c0,0.40534 0.06039,0.79463 0.17773,1.16797c0.11732,0.37332 0.2808,0.69922 0.49414,0.97656c0.224,0.27742 0.49145,0.50129 0.80078,0.67187c0.30933,0.16 0.66197,0.24023 1.05664,0.24023c0.39466,0 0.74535,-0.08023 1.05469,-0.24023c0.31999,-0.17066 0.58744,-0.39453 0.80078,-0.67187c0.21332,-0.27734 0.37875,-0.60325 0.49609,-0.97656c0.11734,-0.37334 0.17578,-0.76263 0.17578,-1.16797c0,-0.40532 -0.05844,-0.78966 -0.17578,-1.15234c-0.11732,-0.37332 -0.28275,-0.69727 -0.49609,-0.97461c-0.21333,-0.288 -0.48078,-0.51187 -0.80078,-0.67188c-0.30933,-0.17058 -0.66002,-0.25586 -1.05469,-0.25586c-0.39467,0 -0.74731,0.08528 -1.05664,0.25586zM106.98633,175.69629c-0.37333,0.11716 -0.87953,0.23414 -1.51953,0.35156c-0.77867,0.13866 -1.16797,0.50617 -1.16797,1.10351c0,0.14942 0.01984,0.29501 0.0625,0.43359c0.05332,0.13858 0.13852,0.26539 0.25586,0.38281c0.11733,0.10658 0.27284,0.19186 0.46484,0.25586c0.20267,0.064 0.44833,0.0957 0.73633,0.0957c0.24532,0 0.49099,-0.02666 0.73633,-0.08008c0.256,-0.064 0.47987,-0.14928 0.67187,-0.25586c0.20266,-0.11732 0.36117,-0.25602 0.47852,-0.41602c0.128,-0.17058 0.19336,-0.3608 0.19336,-0.57422v-1.55273c-0.224,0.05316 -0.52811,0.13844 -0.91211,0.25586z" data-paper-data="{&quot;origPos&quot;:null}" id="path1855" fill="#1eff00" stroke="none" stroke-width="1" stroke-miterlimit="10" stroke-dashoffset="0"/></g></g></svg>