<svg version="1.1" xmlns="http://www.w3.org/2000/svg" xmlns:xlink="http://www.w3.org/1999/xlink" width="372.21484" height="68.64453"><g transform="translate(-53.89258,-145.67774)"><g data-paper-data="{&quot;isPaintingLayer&quot;:true}" fill-rule="nonzero" stroke-linecap="butt" stroke-linejoin="miter" stroke-dasharray="" style="mix-blend-mode: normal"><path d="M425.00976,146.42774c0.19313,0 0.34766,0.15648 0.34766,0.34961v66.44531c0,0.19313 -0.15453,0.34961 -0.34766,0.34961h-370.01757c-0.19328,0 -0.34961,-0.15648 -0.34961,-0.34961v-66.44531c0,-0.19313 0.15637,-0.34961 0.34961,-0.34961z" data-paper-data="{&quot;origPos&quot;:null}" id="rect815-0-9" fill="#1e1e1e" stroke="#1eff00" stroke-width="1.5" stroke-miterlimit="4" stroke-dashoffset="17.35"/><path d="M64.91406,151.59961c0.62933,0 1.25738,0.1069 1.88672,0.32031c0.62933,0.21334 1.19593,0.57092 1.69726,1.07227c0.50133,0.49066 0.90551,1.14051 1.21484,1.95117c0.30933,0.8 0.46484,1.7876 0.46484,2.96094c0,1.184 -0.15551,2.18153 -0.46484,2.99219c-0.30933,0.8 -0.71351,1.44983 -1.21484,1.95117c-0.50133,0.49058 -1.06793,0.84322 -1.69726,1.05664c-0.62933,0.21342 -1.25739,0.32031 -1.88672,0.32031l-3.79297,-0.00195c-0.16,0 -0.31356,-0.02666 -0.46289,-0.08008c-0.14933,-0.064 -0.28306,-0.14928 -0.40039,-0.25586c-0.11733,-0.10668 -0.2144,-0.23844 -0.28906,-0.39844c-0.07466,-0.16 -0.11133,-0.3373 -0.11133,-0.5293v-10.11133c0,-0.34127 0.12185,-0.63544 0.36719,-0.88086c0.24533,-0.24542 0.54448,-0.36719 0.89648,-0.36719zM81.98437,151.83985c0.16,0.16007 0.24023,0.35721 0.24023,0.5918v3.79101c0.05333,-0.064 0.13852,-0.16415 0.25586,-0.30273c0.128,-0.13876 0.29838,-0.27743 0.51172,-0.41602c0.21333,-0.14942 0.48078,-0.27818 0.80078,-0.38476c0.32,-0.10658 0.69938,-0.16016 1.13672,-0.16016c0.576,0 1.09707,0.11194 1.56641,0.33594c0.46933,0.224 0.87051,0.54494 1.20117,0.96094c0.34132,0.40532 0.60186,0.89666 0.7832,1.47266c0.18134,0.56534 0.27148,1.18843 0.27148,1.87109c0,0.68268 -0.10008,1.30773 -0.30273,1.87305c-0.20267,0.56534 -0.48003,1.0547 -0.83203,1.4707c-0.34133,0.40534 -0.74746,0.72131 -1.2168,0.94531c-0.45867,0.224 -0.94804,0.33594 -1.4707,0.33594c-0.32,0 -0.60427,-0.01683 -0.84961,-0.04883c-0.24533,-0.032 -0.46921,-0.08557 -0.67187,-0.16016c-0.20267,-0.08542 -0.3998,-0.19231 -0.5918,-0.32031c-0.18133,-0.12792 -0.37846,-0.28147 -0.5918,-0.46289v0.14258c0,0.23476 -0.08023,0.43879 -0.24023,0.60937c-0.16,0.16 -0.35713,0.23828 -0.5918,0.23828c-0.23467,0 -0.43676,-0.07828 -0.60742,-0.23828c-0.16,-0.17076 -0.24023,-0.37479 -0.24023,-0.60937v-10.94336c0,-0.23466 0.08023,-0.4318 0.24023,-0.5918c0.17067,-0.16 0.37276,-0.24023 0.60742,-0.24023c0.23467,0 0.4318,0.08023 0.5918,0.24023zM117.19531,151.59961c0.62933,0 1.25738,0.1069 1.88672,0.32031c0.62933,0.21334 1.19593,0.57092 1.69726,1.07227c0.50133,0.49066 0.90551,1.14051 1.21484,1.95117c0.30933,0.8 0.46484,1.7876 0.46484,2.96094c0,1.184 -0.15551,2.18153 -0.46484,2.99219c-0.30933,0.8 -0.71351,1.44983 -1.21484,1.95117c-0.50133,0.49058 -1.06793,0.84322 -1.69726,1.05664c-0.62933,0.21342 -1.25738,0.32031 -1.88672,0.32031l-3.79297,-0.00195c-0.15999,0 -0.3155,-0.02666 -0.46484,-0.08008c-0.14932,-0.064 -0.28109,-0.14928 -0.39844,-0.25586c-0.11734,-0.10668 -0.2144,-0.23844 -0.28906,-0.39844c-0.07466,-0.16 -0.11133,-0.3373 -0.11133,-0.5293v-10.11133c0,-0.34127 0.12185,-0.63544 0.36719,-0.88086c0.24533,-0.24542 0.54448,-0.36719 0.89648,-0.36719zM61.74609,162.54297h2.79883c0.62933,0 1.1791,-0.10494 1.64844,-0.31836c0.46933,-0.224 0.85863,-0.53503 1.16797,-0.92969c0.30933,-0.40534 0.53817,-0.88974 0.6875,-1.45508c0.14933,-0.576 0.22461,-1.22089 0.22461,-1.93555c0,-0.704 -0.07527,-1.33895 -0.22461,-1.9043c-0.14933,-0.576 -0.37817,-1.06237 -0.6875,-1.45703c-0.30933,-0.40524 -0.69863,-0.71432 -1.16797,-0.92773c-0.46933,-0.224 -1.0191,-0.33594 -1.64844,-0.33594h-2.79883zM114.02734,162.54297h2.79883c0.62933,0 1.1791,-0.10494 1.64844,-0.31836c0.46933,-0.224 0.85864,-0.53503 1.16797,-0.92969c0.30933,-0.40534 0.53816,-0.88974 0.6875,-1.45508c0.14934,-0.576 0.22461,-1.22089 0.22461,-1.93555c0,-0.704 -0.07527,-1.33895 -0.22461,-1.9043c-0.14933,-0.576 -0.37816,-1.06237 -0.6875,-1.45703c-0.30933,-0.40524 -0.69863,-0.71432 -1.16797,-0.92773c-0.46933,-0.224 -1.01911,-0.33594 -1.64844,-0.33594h-2.79883zM76.84766,155.11914c0.53333,0.18134 0.99295,0.44878 1.37695,0.80078c0.39467,0.34132 0.70373,0.76233 0.92773,1.26367c0.224,0.50134 0.33594,1.07289 0.33594,1.71289c0,0.39473 -0.09511,0.69195 -0.28711,0.89453c-0.192,0.20258 -0.41783,0.30469 -0.67383,0.30469h-5.85547c0,0.02142 0.00497,0.11344 0.01562,0.27344c0.02133,0.14927 0.05995,0.32955 0.11328,0.54297c0.064,0.21324 0.14919,0.44208 0.25586,0.6875c0.11733,0.23476 0.27089,0.45367 0.46289,0.65625c0.192,0.20273 0.42774,0.37314 0.70508,0.51172c0.288,0.128 0.63373,0.19336 1.03906,0.19336c0.33067,0 0.61299,-0.02666 0.84766,-0.08008c0.23467,-0.05342 0.44367,-0.13365 0.625,-0.24023c0.18133,-0.10668 0.34676,-0.24039 0.49609,-0.40039c0.14933,-0.17066 0.29793,-0.3678 0.44727,-0.5918c0.08533,-0.128 0.1824,-0.21807 0.28906,-0.27148c0.10667,-0.05342 0.2186,-0.08203 0.33594,-0.08203c0.192,0 0.36734,0.0704 0.52734,0.20898c0.16,0.13858 0.24023,0.31393 0.24023,0.52734c0,0.128 -0.07032,0.32017 -0.20898,0.57617c-0.13867,0.256 -0.36254,0.51158 -0.67187,0.76758c-0.29867,0.256 -0.68797,0.47987 -1.16797,0.67187c-0.48,0.192 -1.06643,0.28906 -1.75977,0.28906c-0.704,0 -1.33205,-0.12877 -1.88672,-0.38477c-0.55467,-0.256 -1.0242,-0.59678 -1.4082,-1.02344c-0.37333,-0.43734 -0.66257,-0.94353 -0.86523,-1.51953c-0.192,-0.576 -0.28711,-1.17925 -0.28711,-1.80859c0,-0.65066 0.10202,-1.26384 0.30469,-1.83984c0.20267,-0.58666 0.48995,-1.09285 0.86328,-1.51953c0.384,-0.42658 0.84167,-0.76239 1.375,-1.00781c0.53333,-0.256 1.13164,-0.38477 1.79297,-0.38477c0.608,0 1.17265,0.09007 1.69531,0.27148zM129.89844,155.50391c0.65067,0.42666 0.97461,1.06161 0.97461,1.9043v5.9668c0,0.23476 -0.08023,0.43879 -0.24023,0.60937c-0.16001,0.16 -0.35714,0.23828 -0.5918,0.23828c-0.23468,0 -0.43676,-0.07828 -0.60742,-0.23828c-0.16,-0.17076 -0.24023,-0.37479 -0.24023,-0.60937v-0.25586c-0.40533,0.43724 -0.86991,0.73144 -1.39258,0.88086c-0.512,0.14942 -1.05486,0.22461 -1.63086,0.22461c-0.36267,0 -0.73018,-0.04853 -1.10351,-0.14453c-0.36267,-0.10658 -0.69352,-0.26705 -0.99219,-0.48047c-0.28799,-0.21334 -0.52374,-0.48078 -0.70508,-0.80078c-0.18134,-0.32 -0.27148,-0.70239 -0.27148,-1.15039c0,-0.512 0.10203,-0.93991 0.30469,-1.28125c0.20267,-0.352 0.47312,-0.63928 0.81445,-0.86328c0.34133,-0.2239 0.73063,-0.3943 1.16797,-0.51172c0.448,-0.11717 0.91754,-0.20244 1.4082,-0.25586c0.56533,-0.064 1.00812,-0.1344 1.32812,-0.20898c0.32,-0.08542 0.5607,-0.18053 0.7207,-0.28711c0.16,-0.10683 0.25511,-0.23056 0.28711,-0.36914c0.04266,-0.13873 0.06445,-0.29231 0.06445,-0.46289c0,-0.20258 -0.05844,-0.37793 -0.17578,-0.52734c-0.11733,-0.14942 -0.26592,-0.27314 -0.44726,-0.36914c-0.18133,-0.096 -0.38537,-0.16445 -0.60937,-0.20703c-0.22399,-0.05342 -0.44291,-0.08008 -0.65625,-0.08008c-0.38401,0 -0.69308,0.0317 -0.92773,0.0957c-0.23466,0.064 -0.42683,0.14928 -0.57617,0.25586c-0.14934,0.10658 -0.27119,0.23339 -0.36719,0.38281c-0.08534,0.14934 -0.16558,0.30484 -0.24023,0.46484c-0.064,0.128 -0.15414,0.22311 -0.27148,0.28711c-0.10666,0.05342 -0.21859,0.08008 -0.33594,0.08008c-0.21332,0 -0.41045,-0.06845 -0.5918,-0.20703c-0.18134,-0.13858 -0.27344,-0.33075 -0.27344,-0.57617c0,-0.096 0.02674,-0.21298 0.08008,-0.35156c0.096,-0.22392 0.22476,-0.44283 0.38476,-0.65625c0.16,-0.22408 0.37396,-0.42121 0.64062,-0.5918c0.27733,-0.17066 0.61315,-0.30439 1.00781,-0.40039c0.40533,-0.10658 0.8947,-0.16016 1.4707,-0.16016c1.088,0 1.95375,0.21891 2.59375,0.65625zM146.64648,155.13477c0.46933,0.18134 0.85367,0.40025 1.15234,0.65625c0.30932,0.256 0.53816,0.52344 0.6875,0.80078c0.14934,0.27732 0.22461,0.51112 0.22461,0.70312c0,0.24542 -0.0852,0.43759 -0.25586,0.57617c-0.17066,0.128 -0.36283,0.19141 -0.57617,0.19141c-0.14933,0 -0.28802,-0.03674 -0.41602,-0.11133c-0.128,-0.07458 -0.2201,-0.20335 -0.27344,-0.38477c-0.05334,-0.17066 -0.14348,-0.33609 -0.27148,-0.49609c-0.11733,-0.16 -0.27089,-0.30364 -0.46289,-0.43164c-0.18133,-0.128 -0.40025,-0.22815 -0.65625,-0.30273c-0.24533,-0.07458 -0.51774,-0.11328 -0.81641,-0.11328c-0.33067,0 -0.66152,0.06536 -0.99219,0.19336c-0.32,0.11734 -0.61419,0.30951 -0.88086,0.57617c-0.256,0.26666 -0.46305,0.61734 -0.62305,1.05469c-0.16,0.42666 -0.24023,0.94473 -0.24023,1.55273c0,0.608 0.08023,1.1241 0.24023,1.55078c0.16,0.42666 0.36705,0.77436 0.62305,1.04101c0.26667,0.26668 0.56086,0.4638 0.88086,0.5918c0.33067,0.11742 0.66152,0.17578 0.99219,0.17578c0.29866,0 0.57106,-0.03674 0.81641,-0.11133c0.25599,-0.07458 0.47491,-0.17669 0.65625,-0.30469c0.19199,-0.128 0.34555,-0.27164 0.46289,-0.43164c0.128,-0.1601 0.21814,-0.32551 0.27148,-0.49609c0.05334,-0.18142 0.14544,-0.30823 0.27344,-0.38281c0.12799,-0.07458 0.26667,-0.11328 0.41602,-0.11328c0.21334,0 0.40551,0.0704 0.57617,0.20898c0.18134,0.1281 0.27149,0.30839 0.27149,0.54297c0,0.11732 -0.0535,0.31445 -0.16016,0.5918c-0.10667,0.26666 -0.29884,0.53906 -0.57617,0.81641c-0.27733,0.27724 -0.66168,0.52291 -1.15234,0.73633c-0.48,0.21342 -1.09813,0.32031 -1.85547,0.32031v-0.00195c-0.62933,0 -1.21576,-0.11194 -1.75976,-0.33594c-0.53333,-0.23466 -0.99791,-0.55861 -1.39258,-0.97461c-0.39466,-0.416 -0.70373,-0.91228 -0.92773,-1.48828c-0.224,-0.58668 -0.33594,-1.23155 -0.33594,-1.93555c0,-0.71466 0.11194,-1.3615 0.33594,-1.9375c0.224,-0.58666 0.53307,-1.08791 0.92773,-1.50391c0.39467,-0.416 0.85925,-0.73498 1.39258,-0.95898c0.544,-0.23458 1.13043,-0.35156 1.75976,-0.35156c0.64,0 1.19473,0.09511 1.66406,0.28711zM155.41015,155.11914c0.53333,0.18134 0.99295,0.44878 1.37695,0.80078c0.39467,0.34132 0.70374,0.76233 0.92774,1.26367c0.224,0.50134 0.33594,1.07289 0.33594,1.71289c0,0.39473 -0.09511,0.69195 -0.28711,0.89453c-0.192,0.20258 -0.41783,0.30469 -0.67383,0.30469h-5.85547c0,0.02142 0.00504,0.11344 0.01562,0.27344c0.02132,0.14927 0.05994,0.32955 0.11329,0.54297c0.064,0.21324 0.1492,0.44208 0.25586,0.6875c0.11733,0.23476 0.27089,0.45367 0.46289,0.65625c0.192,0.20273 0.42774,0.37314 0.70507,0.51172c0.288,0.128 0.63373,0.19336 1.03907,0.19336c0.33067,0 0.61299,-0.02666 0.84765,-0.08008c0.23466,-0.05342 0.44366,-0.13365 0.625,-0.24023c0.18133,-0.10668 0.34675,-0.24039 0.4961,-0.40039c0.14932,-0.17066 0.29792,-0.3678 0.44726,-0.5918c0.08534,-0.128 0.18241,-0.21807 0.28906,-0.27148c0.10666,-0.05342 0.2186,-0.08203 0.33594,-0.08203c0.192,0 0.36735,0.0704 0.52735,0.20898c0.16,0.13858 0.24023,0.31393 0.24023,0.52734c0,0.128 -0.07033,0.32017 -0.20898,0.57617c-0.13867,0.256 -0.36255,0.51158 -0.67188,0.76758c-0.29867,0.256 -0.68797,0.47987 -1.16797,0.67187c-0.48,0.192 -1.06643,0.28906 -1.75976,0.28906c-0.704,0 -1.33206,-0.12877 -1.88672,-0.38477c-0.55467,-0.256 -1.02421,-0.59678 -1.40821,-1.02344c-0.37334,-0.43734 -0.66257,-0.94353 -0.86523,-1.51953c-0.192,-0.576 -0.28711,-1.17925 -0.28711,-1.80859c0,-0.65066 0.10203,-1.26384 0.30469,-1.83984c0.20266,-0.58666 0.48995,-1.09285 0.86328,-1.51953c0.384,-0.42658 0.84167,-0.76239 1.375,-1.00781c0.53333,-0.256 1.13163,-0.38477 1.79297,-0.38477c0.608,0 1.17264,0.09007 1.69531,0.27148zM103.71289,155.26367c0.45867,0.20266 0.84301,0.4315 1.15234,0.6875v-0.14258c0,-0.23466 0.08023,-0.4318 0.24023,-0.5918c0.16001,-0.17058 0.35714,-0.25586 0.5918,-0.25586c0.23467,0 0.4318,0.08528 0.5918,0.25586c0.17066,0.16007 0.25586,0.35721 0.25586,0.5918v8.20703c0,0.53334 -0.11194,1.01969 -0.33594,1.45703c-0.21333,0.43732 -0.50753,0.8098 -0.88086,1.11914c-0.37333,0.32007 -0.80921,0.56574 -1.31055,0.73633c-0.50133,0.18142 -1.04119,0.27148 -1.61719,0.27148c-0.62933,0 -1.16723,-0.08023 -1.61523,-0.24023c-0.448,-0.14924 -0.82243,-0.32955 -1.12109,-0.54297c-0.29868,-0.20268 -0.51759,-0.41662 -0.65625,-0.64062c-0.13866,-0.21332 -0.20703,-0.38372 -0.20703,-0.51172c0,-0.21334 0.06837,-0.40055 0.20703,-0.56055c0.13867,-0.16 0.30409,-0.24023 0.49609,-0.24023c0.192,0 0.38417,0.1021 0.57617,0.30469c0.13867,0.15992 0.27736,0.2986 0.41602,0.41601c0.13868,0.128 0.29419,0.2349 0.46484,0.32031c0.18133,0.08542 0.38342,0.14882 0.60742,0.19141c0.23467,0.04258 0.51203,0.06445 0.83203,0.06445c0.34133,0 0.66227,-0.04349 0.96094,-0.12891c0.29867,-0.07458 0.5592,-0.20139 0.7832,-0.38281c0.224,-0.17066 0.39934,-0.39453 0.52734,-0.67188c0.128,-0.26666 0.19336,-0.58759 0.19336,-0.96094v-1.05469c-0.10667,0.11727 -0.24039,0.24902 -0.40039,0.39844c-0.16,0.13866 -0.35217,0.27239 -0.57617,0.40039c-0.224,0.128 -0.48453,0.23994 -0.7832,0.33594c-0.29867,0.08542 -0.64635,0.12891 -1.04101,0.12891c-0.576,0 -1.10894,-0.09202 -1.59961,-0.27344c-0.48,-0.18134 -0.89605,-0.45871 -1.24805,-0.83203c-0.34133,-0.37334 -0.60878,-0.85279 -0.80078,-1.43945c-0.192,-0.58668 -0.28711,-1.28008 -0.28711,-2.08008c0,-0.81066 0.10697,-1.50408 0.32031,-2.08008c0.21333,-0.58666 0.49566,-1.06611 0.84766,-1.43945c0.36267,-0.38392 0.77872,-0.66624 1.24805,-0.84766c0.48,-0.18142 0.9862,-0.27344 1.51953,-0.27344c0.65066,0 1.20044,0.1021 1.64844,0.30469zM137.6875,155.13672c0.37333,0.10668 0.70419,0.27209 0.99219,0.49609c0.28801,0.224 0.51879,0.49942 0.68945,0.83008c0.17066,0.33066 0.25586,0.715 0.25586,1.15234v5.75977c0,0.23476 -0.0852,0.43879 -0.25586,0.60937c-0.16001,0.16 -0.35909,0.24023 -0.59375,0.24023c-0.23467,0 -0.4318,-0.08023 -0.5918,-0.24023c-0.16,-0.17076 -0.24023,-0.37479 -0.24023,-0.60937v-5.56641c0,-0.23458 -0.05844,-0.44358 -0.17578,-0.625c-0.10666,-0.19192 -0.2503,-0.34547 -0.43164,-0.46289c-0.17067,-0.128 -0.3678,-0.22506 -0.5918,-0.28906c-0.21332,-0.064 -0.42728,-0.0957 -0.64062,-0.0957c-0.352,0 -0.67098,0.06341 -0.95898,0.19141c-0.28801,0.11727 -0.53367,0.28268 -0.73633,0.49609c-0.19201,0.21332 -0.34061,0.46889 -0.44727,0.76758c-0.10666,0.288 -0.16016,0.604 -0.16016,0.94531v4.63867c0,0.23476 -0.08023,0.43879 -0.24023,0.60937c-0.16001,0.16 -0.35714,0.24023 -0.5918,0.24023c-0.23468,0 -0.43872,-0.08023 -0.60937,-0.24023c-0.16,-0.17076 -0.23828,-0.37479 -0.23828,-0.60937v-7.56641c0,-0.23466 0.07828,-0.4318 0.23828,-0.5918c0.17068,-0.17058 0.37472,-0.25586 0.60937,-0.25586c0.23467,0 0.4318,0.08528 0.5918,0.25586c0.16,0.16007 0.24023,0.35721 0.24023,0.5918v0.28711c0.10666,-0.096 0.23347,-0.20794 0.38281,-0.33594c0.16,-0.13858 0.35217,-0.26735 0.57617,-0.38477c0.224,-0.11742 0.47958,-0.21253 0.76758,-0.28711c0.29867,-0.08542 0.64139,-0.12891 1.02539,-0.12891c0.39467,0 0.7721,0.06032 1.13476,0.17773zM91.12305,155.2168c0.16,0.16007 0.24023,0.35721 0.24023,0.5918v5.56641c0,0.24527 0.0535,0.45921 0.16016,0.64062c0.11734,0.18132 0.26098,0.33684 0.43164,0.46484c0.18132,0.11742 0.37846,0.20748 0.5918,0.27148c0.22399,0.064 0.44291,0.0957 0.65625,0.0957c0.352,0 0.67098,-0.05836 0.95898,-0.17578c0.288,-0.1279 0.5287,-0.2983 0.7207,-0.51172c0.20268,-0.21334 0.35818,-0.46395 0.46484,-0.75195c0.10666,-0.29866 0.1582,-0.6196 0.1582,-0.96094v-4.63867c0,-0.23466 0.08023,-0.4318 0.24023,-0.5918c0.16001,-0.17058 0.35714,-0.25586 0.5918,-0.25586c0.23467,0 0.43375,0.08528 0.59375,0.25586c0.17066,0.16007 0.25586,0.35721 0.25586,0.5918v7.56641c0,0.23476 -0.0852,0.43879 -0.25586,0.60937c-0.16001,0.16 -0.35909,0.24023 -0.59375,0.24023c-0.23467,0 -0.4318,-0.08023 -0.5918,-0.24023c-0.16,-0.17076 -0.24023,-0.37479 -0.24023,-0.60937v-0.28711c-0.10667,0.096 -0.23844,0.21298 -0.39844,0.35156c-0.14933,0.128 -0.33655,0.25172 -0.56055,0.36914c-0.224,0.11716 -0.48454,0.21732 -0.7832,0.30273c-0.288,0.07458 -0.62576,0.11328 -1.00976,0.11328c-0.39467,0 -0.77706,-0.05357 -1.15039,-0.16016c-0.36267,-0.11732 -0.68856,-0.28772 -0.97656,-0.51172c-0.28801,-0.224 -0.51684,-0.50135 -0.6875,-0.83203c-0.17066,-0.33066 -0.25586,-0.715 -0.25586,-1.15234v-5.75976c0,-0.23466 0.07828,-0.4318 0.23828,-0.5918c0.17067,-0.17058 0.37472,-0.25586 0.60937,-0.25586c0.23467,0 0.4318,0.08528 0.5918,0.25586zM74.17578,156.40039c-0.27733,0.11724 -0.51112,0.26585 -0.70312,0.44726c-0.18133,0.17058 -0.32497,0.36275 -0.43164,0.57617c-0.10667,0.21324 -0.1869,0.41038 -0.24023,0.5918c-0.05334,0.18142 -0.08504,0.34189 -0.0957,0.48047c-0.01066,0.12926 -0.01758,0.2025 -0.01758,0.22266h5.18555c0,-0.33066 -0.05349,-0.64468 -0.16016,-0.94336c-0.10667,-0.29866 -0.27209,-0.5592 -0.49609,-0.7832c-0.21333,-0.23476 -0.4907,-0.42196 -0.83203,-0.56055c-0.34133,-0.13858 -0.7425,-0.20703 -1.20117,-0.20703v-0.00195c-0.39467,0 -0.73048,0.06032 -1.00781,0.17773zM152.73828,156.40039c-0.27734,0.11724 -0.51113,0.26585 -0.70313,0.44726c-0.18134,0.17058 -0.32498,0.36275 -0.43164,0.57617c-0.10666,0.21324 -0.18689,0.41038 -0.24023,0.5918c-0.05342,0.18142 -0.08708,0.34189 -0.09766,0.48047c-0.01058,0.12926 -0.01563,0.2025 -0.01563,0.22266h5.18555c0,-0.33066 -0.0535,-0.64468 -0.16016,-0.94336c-0.10666,-0.29866 -0.27209,-0.5592 -0.49609,-0.7832c-0.21333,-0.23476 -0.4907,-0.42196 -0.83203,-0.56055c-0.34133,-0.13858 -0.7425,-0.20703 -1.20117,-0.20703v-0.00195c-0.39467,0 -0.73048,0.06032 -1.00781,0.17773zM83.56836,156.60742c-0.30933,0.18134 -0.56987,0.42701 -0.7832,0.73633c-0.21333,0.29868 -0.37876,0.6444 -0.49609,1.03906c-0.10667,0.384 -0.16016,0.79014 -0.16016,1.2168c0,0.416 0.05349,0.82211 0.16016,1.2168c0.11733,0.39466 0.28276,0.7404 0.49609,1.03906c0.21333,0.29858 0.47387,0.53929 0.7832,0.7207c0.32,0.18142 0.68256,0.27148 1.08789,0.27148c0.39467,0 0.74731,-0.09007 1.05664,-0.27148c0.32,-0.18132 0.58745,-0.42202 0.80078,-0.7207c0.22401,-0.29866 0.38748,-0.6444 0.49414,-1.03906c0.11734,-0.39468 0.17773,-0.8008 0.17773,-1.2168c0,-0.42666 -0.06039,-0.8328 -0.17773,-1.2168c-0.10667,-0.39466 -0.27014,-0.74038 -0.49414,-1.03906c-0.21333,-0.30924 -0.48078,-0.55491 -0.80078,-0.73633c-0.30933,-0.18142 -0.66197,-0.27148 -1.05664,-0.27148c-0.40533,0 -0.76789,0.09007 -1.08789,0.27148zM100.40039,157.16797c-0.46933,0.55466 -0.70312,1.36498 -0.70312,2.43164c0,1.06668 0.23379,1.87698 0.70312,2.43164c0.46933,0.544 1.11421,0.81641 1.93555,0.81641c0.82133,0 1.46126,-0.27241 1.91992,-0.81641c0.46933,-0.55466 0.70508,-1.36496 0.70508,-2.43164c0,-1.06666 -0.23574,-1.87698 -0.70508,-2.43164c-0.45867,-0.55468 -1.09859,-0.83203 -1.91992,-0.83203c-0.82133,0 -1.46621,0.27735 -1.93555,0.83203zM128.79297,159.74414c-0.20267,0.064 -0.44142,0.11253 -0.71875,0.14453c-0.26667,0.032 -0.55094,0.06874 -0.84961,0.11133c-0.288,0.04258 -0.57032,0.09616 -0.84766,0.16016c-0.27733,0.064 -0.52795,0.15911 -0.75195,0.28711c-0.22401,0.11734 -0.40431,0.27284 -0.54297,0.46484c-0.128,0.192 -0.19336,0.43767 -0.19336,0.73633c0,0.23466 0.04853,0.4318 0.14453,0.5918c0.10666,0.14942 0.24039,0.27119 0.40039,0.36719c0.16001,0.08542 0.34031,0.14882 0.54297,0.19141c0.20268,0.032 0.40672,0.04883 0.60937,0.04883c0.30933,0 0.6184,-0.0317 0.92773,-0.0957c0.30933,-0.07458 0.58669,-0.19156 0.83203,-0.35156c0.25599,-0.16 0.45808,-0.37394 0.60742,-0.64062c0.16,-0.26666 0.24023,-0.59753 0.24023,-0.99219v-1.13672zM66.88477,169.15039c0.5268,0.22576 0.9687,0.49851 1.32617,0.81836c0.35747,0.31042 0.62595,0.62974 0.80469,0.95898c0.17874,0.32927 0.26758,0.59347 0.26758,0.79102c0,0.15042 -0.03802,0.29009 -0.11328,0.42187c-0.06585,0.13178 -0.15469,0.24586 -0.26758,0.33984c-0.11288,0.09398 -0.23975,0.16817 -0.38086,0.22461c-0.1317,0.05644 -0.26479,0.08594 -0.39648,0.08594c-0.14111,0 -0.26797,-0.03385 -0.38086,-0.09961c-0.11289,-0.06576 -0.20173,-0.16509 -0.26758,-0.29687c-0.07526,-0.15053 -0.16837,-0.32394 -0.28125,-0.52148c-0.10348,-0.20694 -0.24936,-0.39513 -0.4375,-0.56445c-0.17873,-0.17882 -0.40919,-0.32897 -0.69141,-0.45117c-0.27281,-0.1222 -0.61734,-0.18359 -1.03125,-0.18359c-0.47036,0 -0.88898,0.11843 -1.25586,0.35352c-0.35747,0.22576 -0.66202,0.5218 -0.91601,0.88867c-0.24459,0.36689 -0.43275,0.78551 -0.56445,1.25586c-0.12229,0.46095 -0.18359,0.92613 -0.18359,1.39648c0,0.47977 0.0613,0.95543 0.18359,1.42578c0.1317,0.46095 0.31987,0.87334 0.56445,1.24023c0.25399,0.36697 0.55854,0.66921 0.91601,0.9043c0.36688,0.22576 0.7855,0.33789 1.25586,0.33789c0.55502,0 1.01593,-0.08893 1.38281,-0.26758c0.36688,-0.18804 0.65864,-0.40378 0.875,-0.64844c0.21636,-0.24469 0.36651,-0.48562 0.45117,-0.7207c0.08466,-0.24459 0.12695,-0.42227 0.12695,-0.53516c0,-0.16932 -0.0613,-0.26865 -0.18359,-0.29688c-0.12229,-0.02822 -0.25769,-0.04297 -0.4082,-0.04297h-1.29883c-0.24458,0 -0.45603,-0.08458 -0.63476,-0.25391c-0.16933,-0.17865 -0.25391,-0.3901 -0.25391,-0.63477c0,-0.24459 0.08458,-0.45177 0.25391,-0.62109c0.17873,-0.17865 0.39018,-0.26758 0.63476,-0.26758h2.93555c0.32925,0 0.56824,0.12253 0.71875,0.36719c0.15051,0.23519 0.22656,0.54595 0.22656,0.93164c0,0.26338 -0.04229,0.56795 -0.12695,0.91602c-0.07526,0.33867 -0.19786,0.68745 -0.36719,1.04492c-0.16933,0.35747 -0.38504,0.71052 -0.64844,1.05859c-0.25399,0.33865 -0.5605,0.64321 -0.91797,0.91602c-0.35747,0.27281 -0.76561,0.49474 -1.22656,0.66406c-0.46095,0.16 -0.97463,0.24023 -1.53906,0.24023c-0.84664,0 -1.58883,-0.16064 -2.22852,-0.48047c-0.63028,-0.31985 -1.15871,-0.74271 -1.58203,-1.26953c-0.41391,-0.53619 -0.72895,-1.14727 -0.94531,-1.83398c-0.20696,-0.69614 -0.31055,-1.42125 -0.31055,-2.17383c0,-0.74316 0.10359,-1.46209 0.31055,-2.1582c0.21636,-0.69614 0.5314,-1.30915 0.94531,-1.83594c0.42332,-0.53621 0.95175,-0.96335 1.58203,-1.2832c0.63968,-0.31982 1.38187,-0.48047 2.22852,-0.48047c0.70553,0 1.32281,0.11408 1.84961,0.33984zM76.48242,169.00977c0.3951,0 0.77144,0.07418 1.12891,0.22461c0.35747,0.1505 0.66824,0.35769 0.93164,0.62109c0.2634,0.26341 0.47058,0.57417 0.62109,0.93164c0.15992,0.34807 0.24023,0.72442 0.24023,1.12891c0,0.6397 -0.16063,1.19371 -0.48047,1.66406c-0.31043,0.47045 -0.77561,0.80876 -1.39648,1.01562c-0.10348,0.03779 -0.15625,0.07574 -0.15625,0.11328c0,0.05644 0.05704,0.09873 0.16992,0.12695c0.16933,0.02822 0.33422,0.08091 0.49414,0.15625c0.16933,0.07534 0.31947,0.17272 0.45117,0.29492c0.1317,0.11281 0.24382,0.25016 0.33789,0.41016c0.09406,0.15042 0.1511,0.31959 0.16992,0.50781l0.32422,2.94922c0.01881,0.16 -0.00446,0.30162 -0.07031,0.42383c-0.05644,0.1222 -0.14102,0.22588 -0.25391,0.31055c-0.10348,0.08466 -0.22608,0.15015 -0.36719,0.19727c-0.1317,0.03754 -0.26283,0.05664 -0.39453,0.05664c-0.2728,0 -0.50753,-0.08023 -0.70508,-0.24023c-0.19755,-0.15992 -0.31162,-0.37136 -0.33984,-0.63477l-0.31055,-2.59766c-0.01881,-0.11288 -0.06537,-0.22936 -0.14063,-0.35156c-0.06585,-0.1222 -0.1737,-0.23628 -0.32422,-0.33984c-0.15051,-0.11288 -0.34295,-0.20181 -0.57812,-0.26758c-0.23518,-0.06576 -0.52267,-0.09766 -0.86133,-0.09766h-2.03125v3.45703c0,0.3011 -0.10981,0.55485 -0.32617,0.76172c-0.20696,0.20687 -0.46069,0.31055 -0.76172,0.31055c-0.30103,0 -0.55476,-0.10368 -0.76172,-0.31055c-0.20696,-0.20694 -0.31055,-0.46069 -0.31055,-0.76172v-8.96094c0,-0.08466 0.01475,-0.18834 0.04297,-0.31055c0.02822,-0.13178 0.08526,-0.2543 0.16992,-0.36719c0.08466,-0.1222 0.19678,-0.21958 0.33789,-0.29492c0.15051,-0.08466 0.33868,-0.12695 0.56445,-0.12695zM87.52539,169.00977c0.25398,0 0.46969,0.08893 0.64844,0.26758c0.17875,0.17872 0.26953,0.39443 0.26953,0.64844c0,0.26348 -0.09078,0.48542 -0.26953,0.66406c-0.17874,0.17864 -0.39444,0.26758 -0.64844,0.26758h-4.93945v2.41211h4.14844c0.26339,0 0.48532,0.09498 0.66406,0.2832c0.17875,0.17872 0.26758,0.39445 0.26758,0.64844c0,0.25393 -0.08883,0.47584 -0.26758,0.66406c-0.17873,0.17865 -0.40066,0.26758 -0.66406,0.26758h-4.14844v3.16211h4.93945c0.25398,0 0.46969,0.08893 0.64844,0.26758c0.17875,0.17875 0.26953,0.39445 0.26953,0.64844c0,0.26348 -0.09078,0.48542 -0.26953,0.66406c-0.17874,0.17865 -0.39444,0.26758 -0.64844,0.26758h-5.98242c-0.1317,0 -0.26478,-0.0191 -0.39648,-0.05664c-0.1317,-0.04712 -0.25235,-0.1126 -0.36523,-0.19727c-0.10348,-0.09398 -0.18806,-0.21241 -0.25391,-0.35352c-0.06585,-0.14113 -0.09961,-0.31027 -0.09961,-0.50781v-8.91797c0,-0.08466 0.01475,-0.18834 0.04297,-0.31055c0.02822,-0.13178 0.0833,-0.2543 0.16797,-0.36719c0.08466,-0.1222 0.19874,-0.21958 0.33984,-0.29492c0.15051,-0.08466 0.33868,-0.12695 0.56445,-0.12695zM96.48242,169.00977c0.25398,0 0.46969,0.08893 0.64844,0.26758c0.17875,0.17872 0.26953,0.39443 0.26953,0.64844c0,0.26348 -0.09078,0.48542 -0.26953,0.66406c-0.17873,0.17864 -0.39445,0.26758 -0.64844,0.26758h-4.93945v2.41211h4.14844c0.26341,0 0.48534,0.09498 0.66406,0.2832c0.17875,0.17872 0.26758,0.39445 0.26758,0.64844c0,0.25393 -0.08883,0.47584 -0.26758,0.66406c-0.17873,0.17865 -0.40066,0.26758 -0.66406,0.26758h-4.14844v3.16211h4.93945c0.25398,0 0.46969,0.08893 0.64844,0.26758c0.17875,0.17875 0.26953,0.39445 0.26953,0.64844c0,0.26348 -0.09078,0.48542 -0.26953,0.66406c-0.17873,0.17865 -0.39445,0.26758 -0.64844,0.26758h-5.98242c-0.1317,0 -0.26478,-0.0191 -0.39648,-0.05664c-0.1317,-0.04712 -0.25235,-0.1126 -0.36523,-0.19727c-0.10348,-0.09398 -0.18807,-0.21241 -0.25391,-0.35352c-0.06584,-0.14113 -0.09961,-0.31027 -0.09961,-0.50781v-8.91797c0,-0.08466 0.01475,-0.18834 0.04297,-0.31055c0.02822,-0.13178 0.08331,-0.2543 0.16797,-0.36719c0.08466,-0.1222 0.19874,-0.21958 0.33984,-0.29492c0.15052,-0.08466 0.33869,-0.12695 0.56445,-0.12695zM100.40234,169.26367c0.24458,0.1599 0.45602,0.39038 0.63477,0.69141l4.17578,6.99805v-6.92773c0,-0.2822 0.09933,-0.52316 0.29687,-0.7207c0.20696,-0.19754 0.4479,-0.29492 0.7207,-0.29492c0.28222,0 0.52121,0.09738 0.71875,0.29492c0.20697,0.19754 0.31055,0.4385 0.31055,0.7207v8.9043c0,0.16942 -0.03377,0.32809 -0.09961,0.47851c-0.06586,0.1411 -0.1547,0.26798 -0.26758,0.38086c-0.10349,0.11288 -0.23036,0.20181 -0.38086,0.26758c-0.14111,0.05644 -0.29552,0.08594 -0.46484,0.08594c-0.32925,0 -0.61674,-0.08458 -0.86133,-0.25391c-0.23517,-0.16935 -0.44235,-0.3998 -0.62109,-0.69141l-4.17578,-7v6.92969c0,0.27291 -0.10358,0.51188 -0.31055,0.71875c-0.19755,0.19754 -0.43849,0.29687 -0.7207,0.29687c-0.2728,0 -0.51178,-0.09933 -0.71875,-0.29687c-0.19754,-0.20697 -0.29687,-0.44594 -0.29687,-0.71875v-8.91797c0,-0.32935 0.11833,-0.61257 0.35352,-0.84766c0.23518,-0.23509 0.52072,-0.35156 0.85937,-0.35156c0.32924,0 0.61247,0.08458 0.84766,0.25391zM72.94141,173.94727h2.76562c0.20696,0 0.40365,-0.03794 0.5918,-0.11328c0.18814,-0.08466 0.35303,-0.19679 0.49414,-0.33789c0.1411,-0.14103 0.24896,-0.30592 0.32422,-0.49414c0.08466,-0.18807 0.12695,-0.38903 0.12695,-0.60547c0,-0.20687 -0.04229,-0.40553 -0.12695,-0.59375c-0.07526,-0.18814 -0.18311,-0.35304 -0.32422,-0.49414c-0.14111,-0.1411 -0.306,-0.24888 -0.49414,-0.32422c-0.18814,-0.08466 -0.38484,-0.12695 -0.5918,-0.12695h-2.76562z" data-paper-data="{&quot;origPos&quot;:null}" id="path5530" fill="#1eff00" stroke="none" stroke-width="1" stroke-miterlimit="10" stroke-dashoffset="0"/><path d="M69.10321,187.56442c1.27594,0 2.33407,4.30813 3.36633,5.0581c1.03226,0.74997 5.45651,0.42505 5.8508,1.63854c0.39429,1.21349 -3.37601,3.55109 -3.77029,4.76459c-0.39429,1.21349 1.28192,5.32082 0.24966,6.07079c-1.03226,0.74997 -4.42056,-2.11344 -5.6965,-2.11344c-1.27594,0 -4.66424,2.86341 -5.6965,2.11344c-1.03226,-0.74997 0.64395,-4.8573 0.24966,-6.07079c-0.39429,-1.21349 -4.16458,-3.55109 -3.77029,-4.76459c0.39429,-1.21349 4.81854,-0.88857 5.8508,-1.63854c1.03226,-0.74997 2.09039,-5.0581 3.36633,-5.0581z" data-paper-data="{&quot;origPos&quot;:null}" id="path1428-5-1" fill="#1eff00" stroke="none" stroke-width="0.88188" stroke-miterlimit="4" stroke-dashoffset="17.35"/><path d="M92.0402,192.50842c0.56141,0 1.02699,1.89555 1.48118,2.22554c0.45419,0.32995 2.40087,0.18709 2.57435,0.72098c0.17348,0.53393 -1.48545,1.56249 -1.65893,2.09643c-0.17348,0.53393 0.56405,2.34115 0.10987,2.67114c-0.45419,0.32995 -1.94505,-0.92991 -2.50646,-0.92991c-0.56141,0 -2.05226,1.25991 -2.50646,0.92991c-0.45419,-0.32995 0.28335,-2.13721 0.10987,-2.67114c-0.17348,-0.53393 -1.83242,-1.56249 -1.65893,-2.09643c0.17348,-0.53393 2.12016,-0.39099 2.57435,-0.72098c0.45419,-0.32995 0.91977,-2.22554 1.48119,-2.22554z" data-paper-data="{&quot;origPos&quot;:null}" id="path1428-0-2-2" fill="#1eff00" stroke="none" stroke-width="0.38803" stroke-miterlimit="4" stroke-dashoffset="17.35"/></g></g></svg>