<svg version="1.1" xmlns="http://www.w3.org/2000/svg" xmlns:xlink="http://www.w3.org/1999/xlink" width="135.1211" height="26.33984"><g transform="translate(-172.43945,-166.83008)"><g data-paper-data="{&quot;isPaintingLayer&quot;:true}" fill="#fff300" fill-rule="nonzero" stroke="none" stroke-width="1" stroke-linecap="butt" stroke-linejoin="miter" stroke-miterlimit="10" stroke-dasharray="" stroke-dashoffset="0" style="mix-blend-mode: normal"><path d="M190.04297,166.83008c0.48534,0 0.8937,0.16519 1.22461,0.49609c0.33091,0.33092 0.49609,0.73928 0.49609,1.22461c0,0.48534 -0.16518,0.90484 -0.49609,1.25781c-0.33091,0.33091 -0.73927,0.4961 -1.22461,0.4961h-13.69922v7.17969h12.87305c0.48533,-0.00001 0.89369,0.17632 1.22461,0.52929c0.3309,0.33091 0.49609,0.73927 0.49609,1.22461c0,0.46327 -0.16519,0.87164 -0.49609,1.22461c-0.33092,0.33091 -0.73928,0.49609 -1.22461,0.49609h-12.87305v8.50586h13.96484c0.46328,0 0.8605,0.17633 1.19141,0.5293c0.35297,0.33091 0.5293,0.73928 0.5293,1.22461c0,0.48534 -0.17633,0.89175 -0.5293,1.22266c-0.33091,0.33091 -0.72813,0.49804 -1.19141,0.49804h-15.25586c-0.33091,0 -0.65013,-0.05571 -0.95898,-0.16601c-0.30885,-0.13237 -0.58351,-0.30869 -0.82617,-0.5293c-0.24267,-0.22061 -0.44128,-0.49721 -0.5957,-0.82812c-0.15443,-0.33092 -0.23243,-0.69471 -0.23243,-1.0918v-20.91406c0,-0.70594 0.25432,-1.31096 0.76172,-1.81836c0.5074,-0.5074 1.12356,-0.76172 1.85156,-0.76172zM251.42383,167.32617c0.33091,0.33092 0.49609,0.73928 0.49609,1.22461v22.63477c0,0.48534 -0.16518,0.90289 -0.49609,1.25586c-0.33092,0.33091 -0.73928,0.49804 -1.22461,0.49804c-0.48533,0 -0.90484,-0.16713 -1.25781,-0.49804c-0.33092,-0.35297 -0.4961,-0.77052 -0.4961,-1.25586v-22.63477c0,-0.48533 0.16518,-0.89369 0.4961,-1.22461c0.35297,-0.3309 0.77248,-0.49609 1.25781,-0.49609c0.48533,0 0.89369,0.16519 1.22461,0.49609zM257.95117,167.32617c0.33092,0.33092 0.4961,0.73928 0.4961,1.22461v22.63477c0,0.48534 -0.16518,0.90289 -0.4961,1.25586c-0.3309,0.33091 -0.73927,0.49804 -1.22461,0.49804c-0.48533,0 -0.90484,-0.16713 -1.25781,-0.49804c-0.33091,-0.35297 -0.49609,-0.77052 -0.49609,-1.25586v-22.63477c0,-0.48533 0.16518,-0.89369 0.49609,-1.22461c0.35297,-0.3309 0.77248,-0.49609 1.25781,-0.49609c0.48534,0 0.89371,0.16519 1.22461,0.49609zM303.68945,168.84766c0.35298,0.33091 0.5293,0.73927 0.5293,1.22461v4.13671h1.82031c0.41916,0 0.77181,0.15404 1.0586,0.4629c0.30885,0.28678 0.46289,0.63944 0.46289,1.05859c0,0.44121 -0.15404,0.80696 -0.46289,1.09375c-0.28679,0.28679 -0.63944,0.42969 -1.0586,0.42969h-1.82031v13.93164c0,0.48534 -0.17632,0.90289 -0.5293,1.25586c-0.33091,0.33091 -0.73927,0.49804 -1.22461,0.49804c-0.48534,0 -0.8937,-0.16713 -1.22461,-0.49804c-0.33091,-0.35297 -0.49609,-0.77052 -0.49609,-1.25586v-13.93164h-1.22461c-0.41915,0 -0.78294,-0.1429 -1.0918,-0.42969c-0.28678,-0.28679 -0.42968,-0.65254 -0.42968,-1.09375c0,-0.41915 0.1429,-0.77181 0.42968,-1.05859c0.30886,-0.30886 0.67265,-0.4629 1.0918,-0.4629h1.22461v-4.13671c0,-0.48534 0.16518,-0.8937 0.49609,-1.22461c0.33091,-0.33091 0.73927,-0.4961 1.22461,-0.4961c0.48534,0 0.8937,0.16519 1.22461,0.4961zM222.67383,174.14258c0.97067,0.37503 1.76511,0.82797 2.38281,1.35742c0.63976,0.52946 1.11302,1.08072 1.42188,1.6543c0.30884,0.57358 0.46484,1.05798 0.46484,1.45508c0,0.50739 -0.17828,0.90461 -0.53125,1.1914c-0.35297,0.26473 -0.74824,0.39844 -1.18945,0.39844c-0.30886,0 -0.59661,-0.078 -0.86133,-0.23242c-0.26474,-0.15443 -0.4522,-0.4199 -0.5625,-0.79492c-0.11031,-0.35298 -0.29778,-0.69448 -0.5625,-1.0254c-0.24267,-0.3309 -0.56189,-0.62784 -0.95899,-0.89257c-0.37503,-0.26473 -0.82796,-0.47448 -1.35742,-0.62891c-0.50739,-0.15443 -1.0698,-0.23242 -1.6875,-0.23242c-0.68388,0 -1.36885,0.1337 -2.05273,0.39844c-0.66182,0.24266 -1.26684,0.63988 -1.81836,1.1914c-0.52946,0.55152 -0.96011,1.2791 -1.29102,2.1836c-0.33091,0.88242 -0.49609,1.95152 -0.49609,3.20898c0,1.25747 0.16518,2.32851 0.49609,3.21094c0.33091,0.88242 0.76156,1.59887 1.29102,2.15039c0.55152,0.55152 1.15654,0.95988 1.81836,1.22461c0.68388,0.24266 1.36885,0.36328 2.05273,0.36328c0.6177,0 1.18011,-0.07605 1.6875,-0.23047c0.52946,-0.15443 0.98239,-0.36418 1.35742,-0.62891c0.3971,-0.26473 0.71632,-0.56362 0.95899,-0.89453c0.26472,-0.33091 0.45219,-0.67241 0.5625,-1.02539c0.1103,-0.37503 0.29776,-0.6405 0.5625,-0.79492c0.26472,-0.15443 0.55247,-0.23047 0.86133,-0.23047c0.44121,0 0.83648,0.1429 1.18945,0.42969c0.37503,0.26473 0.5625,0.63967 0.5625,1.125c0,0.24267 -0.10947,0.65103 -0.33008,1.22461c-0.22061,0.55152 -0.61783,1.11392 -1.19141,1.6875c-0.57358,0.57358 -1.36801,1.08027 -2.38281,1.52148c-0.99272,0.44122 -2.27157,0.66211 -3.83789,0.66211c-1.30158,0 -2.51553,-0.23204 -3.64062,-0.69531c-1.10304,-0.48534 -2.06266,-1.15721 -2.87891,-2.01758c-0.81625,-0.86037 -1.45469,-1.88684 -1.91797,-3.07812c-0.46327,-1.21334 -0.69531,-2.5479 -0.69531,-4.00391c0,-1.47807 0.23204,-2.81263 0.69531,-4.00391c0.46328,-1.21334 1.10172,-2.25096 1.91797,-3.11132c0.81625,-0.86037 1.77587,-1.5211 2.87891,-1.98438c1.12509,-0.48533 2.33904,-0.72851 3.64062,-0.72851c1.32364,-0.00001 2.47073,0.1986 3.44141,0.5957zM240.80078,174.10938c1.10304,0.37503 2.05152,0.92629 2.8457,1.65429c0.81626,0.70595 1.45665,1.57838 1.91993,2.61524c0.46327,1.03685 0.69336,2.21737 0.69336,3.54101c0,0.81625 -0.19861,1.43241 -0.59571,1.85156c-0.39709,0.41916 -0.85922,0.62891 -1.38867,0.62891h-12.11133c0,0.04412 0.01114,0.23159 0.03321,0.5625c0.04412,0.30885 0.12016,0.68379 0.23046,1.125c0.13237,0.44122 0.30869,0.91644 0.5293,1.42383c0.24267,0.48534 0.56385,0.93827 0.96094,1.35742c0.39709,0.41915 0.8815,0.77181 1.45508,1.05859c0.59564,0.26473 1.31208,0.39649 2.15039,0.39649c0.68388,0 1.26857,-0.05572 1.7539,-0.16602c0.48534,-0.1103 0.91599,-0.27548 1.29102,-0.49609c0.37503,-0.22061 0.71654,-0.49527 1.02539,-0.82617c0.30885,-0.35298 0.61888,-0.76133 0.92773,-1.22461c0.17649,-0.26473 0.3751,-0.4522 0.59571,-0.5625c0.2206,-0.11031 0.45264,-0.16602 0.69531,-0.16602c0.39709,0 0.76088,0.1429 1.0918,0.42969c0.3309,0.28679 0.49609,0.65058 0.49609,1.0918c0,0.26472 -0.1429,0.66194 -0.42969,1.1914c-0.28679,0.52946 -0.75086,1.06039 -1.39062,1.58985c-0.6177,0.52946 -1.42328,0.99158 -2.41602,1.38867c-0.99273,0.39709 -2.20668,0.5957 -3.64062,0.5957c-1.45601,0 -2.75714,-0.26351 -3.9043,-0.79297c-1.14715,-0.52945 -2.11792,-1.2367 -2.91211,-2.11914c-0.77213,-0.90448 -1.36795,-1.9513 -1.78711,-3.14258c-0.39709,-1.19128 -0.5957,-2.43864 -0.5957,-3.74023c0,-1.3457 0.20975,-2.61341 0.6289,-3.80469c0.41916,-1.21334 1.01499,-2.2621 1.78711,-3.14453c0.79419,-0.88243 1.74267,-1.57659 2.84571,-2.08398c1.10304,-0.52946 2.33927,-0.79492 3.70703,-0.79492c1.25747,-0.00001 2.42684,0.18746 3.50781,0.5625zM273.11523,174.10938c1.10304,0.37503 2.05152,0.92629 2.84571,1.65429c0.81624,0.70595 1.45664,1.57838 1.91992,2.61524c0.46327,1.03685 0.69531,2.21737 0.69531,3.54101c0,0.81625 -0.19861,1.43241 -0.5957,1.85156c-0.39709,0.41916 -0.86117,0.62891 -1.39063,0.62891h-12.11132c0,0.04412 0.01113,0.23159 0.0332,0.5625c0.04413,0.30885 0.12212,0.68379 0.23242,1.125c0.13237,0.44122 0.30869,0.91644 0.5293,1.42383c0.24266,0.48534 0.56189,0.93827 0.95898,1.35742c0.3971,0.41915 0.88345,0.77181 1.45703,1.05859c0.59564,0.26473 1.31209,0.39649 2.15039,0.39649c0.68388,0 1.26857,-0.05572 1.75391,-0.16602c0.48533,-0.1103 0.91598,-0.27548 1.29102,-0.49609c0.37503,-0.22061 0.71653,-0.49527 1.02539,-0.82617c0.30884,-0.35298 0.61692,-0.76133 0.92578,-1.22461c0.17648,-0.26473 0.37509,-0.4522 0.5957,-0.5625c0.22061,-0.11031 0.45265,-0.16602 0.69531,-0.16602c0.3971,0 0.76089,0.1429 1.0918,0.42969c0.33091,0.28679 0.49609,0.65058 0.49609,1.0918c0,0.26472 -0.1429,0.66194 -0.42968,1.1914c-0.2868,0.52946 -0.74892,1.06039 -1.38868,1.58985c-0.6177,0.52946 -1.42328,0.99158 -2.41601,1.38867c-0.99273,0.39709 -2.20668,0.5957 -3.64063,0.5957c-1.456,0 -2.75713,-0.26351 -3.90429,-0.79297c-1.14716,-0.52945 -2.11793,-1.2367 -2.91211,-2.11914c-0.77213,-0.90448 -1.36796,-1.9513 -1.78711,-3.14258c-0.3971,-1.19128 -0.59571,-2.43864 -0.59571,-3.74023c0,-1.3457 0.20976,-2.61341 0.62891,-3.80469c0.41915,-1.21334 1.01498,-2.2621 1.78711,-3.14453c0.79419,-0.88243 1.74267,-1.57659 2.8457,-2.08398c1.10304,-0.52946 2.33732,-0.79492 3.70508,-0.79492c1.25747,-0.00001 2.42684,0.18746 3.50781,0.5625zM196.86719,174.60547l4.20312,6.05664l4.16992,-6.05664c0.37504,-0.55151 0.87059,-0.82617 1.48829,-0.82617c0.52945,0 0.93781,0.18746 1.2246,0.5625c0.28679,0.35296 0.42969,0.73905 0.42969,1.1582c0,0.39709 -0.12061,0.74974 -0.36328,1.05859l-5.0957,6.45313l5.45898,7.04883c0.24267,0.30884 0.36328,0.67264 0.36328,1.09179c0,0.5074 -0.17633,0.9361 -0.52929,1.28907c-0.35298,0.33091 -0.79281,0.49804 -1.32227,0.49804c-0.26473,0 -0.51905,-0.04457 -0.76172,-0.13281c-0.2206,-0.08825 -0.40807,-0.25343 -0.5625,-0.49609l-4.5,-6.98243l-4.5332,6.98243c-0.15443,0.24266 -0.35304,0.40784 -0.5957,0.49609c-0.22061,0.08824 -0.45265,0.13281 -0.69532,0.13281c-0.19854,0 -0.4083,-0.02227 -0.6289,-0.0664c-0.22061,-0.06618 -0.43036,-0.16646 -0.62891,-0.29883c-0.17649,-0.15443 -0.33052,-0.34189 -0.46289,-0.5625c-0.11031,-0.24267 -0.16601,-0.52846 -0.16601,-0.85938c0,-0.41915 0.12256,-0.78295 0.36523,-1.09179l5.45898,-7.04883l-5.0957,-6.45313c-0.24267,-0.30885 -0.36328,-0.6615 -0.36328,-1.05859c0,-0.41915 0.1429,-0.80524 0.42969,-1.1582c0.28678,-0.37504 0.69515,-0.5625 1.22461,-0.5625c0.6177,0 1.11324,0.27466 1.48828,0.82617zM283.50781,174.30859c0.33092,0.33092 0.4961,0.73927 0.4961,1.22461v0.59571c0.2206,-0.19855 0.48606,-0.43058 0.79492,-0.69532c0.3309,-0.28678 0.72812,-0.55225 1.1914,-0.79492c0.46328,-0.24267 0.99225,-0.44128 1.58789,-0.5957c0.6177,-0.17649 1.32301,-0.26367 2.11719,-0.26367c0.81625,0 1.59955,0.12061 2.34961,0.36328c0.77212,0.2206 1.4571,0.56212 2.05274,1.02539c0.59564,0.46328 1.0689,1.03682 1.42187,1.7207c0.35297,0.68388 0.5293,1.47832 0.5293,2.38281v11.91407c0,0.48534 -0.17633,0.90289 -0.5293,1.25586c-0.33091,0.33091 -0.73927,0.49804 -1.22461,0.49804c-0.48533,0 -0.89369,-0.16713 -1.22461,-0.49804c-0.33091,-0.35297 -0.49609,-0.77052 -0.49609,-1.25586v-11.51563c0,-0.48533 -0.12062,-0.91598 -0.36328,-1.29101c-0.22061,-0.3971 -0.5195,-0.71827 -0.89453,-0.96094c-0.35298,-0.26473 -0.76134,-0.46139 -1.22461,-0.59375c-0.44122,-0.13237 -0.88106,-0.19922 -1.32227,-0.19922c-0.72801,0 -1.39069,0.13176 -1.98633,0.39648c-0.59564,0.24268 -1.10233,0.58418 -1.52148,1.0254c-0.39709,0.44121 -0.70713,0.97214 -0.92774,1.58984c-0.2206,0.59564 -0.33007,1.24522 -0.33007,1.95117v9.59766c0,0.48534 -0.16518,0.90289 -0.4961,1.25586c-0.3309,0.33091 -0.73927,0.49804 -1.22461,0.49804c-0.48533,0 -0.90484,-0.16713 -1.25781,-0.49804c-0.33091,-0.35297 -0.49609,-0.77052 -0.49609,-1.25586v-15.65235c0,-0.48534 0.16518,-0.89369 0.49609,-1.22461c0.35297,-0.35296 0.77248,-0.52929 1.25781,-0.52929c0.48534,0 0.89371,0.17633 1.22461,0.52929zM235.27344,176.75781c-0.57358,0.24267 -1.05799,0.55075 -1.45508,0.92578c-0.37503,0.35297 -0.67393,0.75019 -0.89453,1.19141c-0.22061,0.44121 -0.38579,0.84958 -0.4961,1.22461c-0.11029,0.37503 -0.17519,0.7054 -0.19726,0.99219c-0.02207,0.26471 -0.0332,0.41875 -0.0332,0.46289h10.7207c0,-0.68388 -0.10947,-1.33347 -0.33008,-1.95117c-0.22061,-0.6177 -0.56407,-1.15782 -1.02734,-1.6211c-0.44122,-0.48534 -1.01477,-0.87141 -1.72071,-1.1582c-0.70594,-0.28679 -1.53186,-0.43164 -2.48046,-0.43164c-0.81625,0 -1.51236,0.12256 -2.08594,0.36523zM267.58984,176.75781c-0.57358,0.24267 -1.05993,0.55075 -1.45703,0.92578c-0.37503,0.35297 -0.67197,0.75019 -0.89258,1.19141c-0.2206,0.44121 -0.38578,0.84958 -0.49609,1.22461c-0.11029,0.37503 -0.17715,0.7054 -0.19922,0.99219c-0.02206,0.26471 -0.0332,0.41875 -0.0332,0.46289h10.72266c0,-0.68388 -0.11143,-1.33347 -0.33204,-1.95117c-0.2206,-0.6177 -0.56211,-1.15782 -1.02539,-1.6211c-0.44121,-0.48534 -1.01476,-0.87141 -1.7207,-1.1582c-0.70595,-0.28679 -1.53382,-0.43164 -2.48242,-0.43164c-0.81626,0 -1.51041,0.12256 -2.08399,0.36523z" data-paper-data="{&quot;origPos&quot;:null}" id="path4882"/></g></g></svg>