<svg version="1.1" xmlns="http://www.w3.org/2000/svg" xmlns:xlink="http://www.w3.org/1999/xlink" width="372.21484" height="68.64453"><g transform="translate(-53.89258,-145.67774)"><g data-paper-data="{&quot;isPaintingLayer&quot;:true}" fill-rule="nonzero" stroke-linecap="butt" stroke-linejoin="miter" stroke-dasharray="" style="mix-blend-mode: normal"><path d="M425.00976,146.42774c0.19313,0 0.34766,0.15647 0.34766,0.34961v66.44531c0,0.19314 -0.15453,0.34961 -0.34766,0.34961h-370.01757c-0.19313,0 -0.34961,-0.15647 -0.34961,-0.34961v-66.44531c0,-0.19314 0.15647,-0.34961 0.34961,-0.34961z" data-paper-data="{&quot;origPos&quot;:null}" id="rect815-0-3" fill="#1e1e1e" stroke="#1eff00" stroke-width="1.5" stroke-miterlimit="4" stroke-dashoffset="17.35"/><path d="M71.6786,163.43937c-0.07466,0.24542 -0.20799,0.43742 -0.39999,0.576c-0.192,0.13858 -0.42133,0.20787 -0.68799,0.20787c-0.256,0 -0.48,-0.064 -0.672,-0.192c-0.192,-0.13858 -0.32,-0.33058 -0.384,-0.576l-2.51203,-9.76002l-2.51199,9.76002c-0.064,0.24542 -0.192,0.43742 -0.384,0.576c-0.19193,0.128 -0.4106,0.192 -0.65601,0.192c-0.26673,0 -0.50139,-0.06929 -0.70397,-0.20787c-0.1921,-0.13858 -0.32544,-0.33058 -0.40003,-0.576l-3.024,-10.62399c-0.02016,-0.10658 -0.03024,-0.19187 -0.03024,-0.25587c0,-0.07483 0.01008,-0.16554 0.03024,-0.27213c0.032,-0.10658 0.08,-0.20787 0.144,-0.30387c0.07458,-0.10658 0.17058,-0.19187 0.288,-0.25587c0.128,-0.07458 0.288,-0.11187 0.48,-0.11187c0.21342,0 0.40542,0.05871 0.576,0.17613c0.17058,0.11724 0.28258,0.28257 0.336,0.49599l2.352,8.976l2.16,-8.51199c0.08542,-0.33058 0.24542,-0.58658 0.48,-0.768c0.24534,-0.192 0.53334,-0.288 0.864,-0.288c0.34142,0 0.62942,0.096 0.864,0.288c0.23458,0.18132 0.39458,0.43732 0.48,0.768l2.17603,8.51199l2.352,-8.976c0.05342,-0.21324 0.16013,-0.37857 0.32013,-0.49599c0.17058,-0.11742 0.36258,-0.17613 0.576,-0.17613c0.29868,0 0.52803,0.10129 0.68803,0.30387c0.17058,0.192 0.25587,0.4 0.25587,0.624c0,0.05342 0,0.10142 0,0.144c0,0.032 -0.01008,0.07471 -0.03024,0.12813l-3.024,10.62399z" data-paper-data="{&quot;origPos&quot;:null}" id="path1899" fill="#1eff00" stroke="none" stroke-width="0.26458" stroke-miterlimit="10" stroke-dashoffset="0"/><path d="M77.10268,164.01564c-0.53334,-0.21332 -0.99734,-0.51732 -1.392,-0.912c-0.39466,-0.40532 -0.70399,-0.90132 -0.92799,-1.488c-0.224,-0.58666 -0.336,-1.25866 -0.336,-2.016c0,-0.75732 0.112,-1.42932 0.336,-2.016c0.224,-0.58666 0.53333,-1.08266 0.92799,-1.488c0.39466,-0.40524 0.85866,-0.71457 1.392,-0.92799c0.544,-0.21342 1.13067,-0.32013 1.76001,-0.32013c0.62932,0 1.21065,0.10671 1.74399,0.32013c0.544,0.21334 1.01333,0.52267 1.40799,0.92799c0.39468,0.40534 0.70403,0.90134 0.92803,1.488c0.224,0.58668 0.336,1.25868 0.336,2.016c0,0.75734 -0.112,1.42934 -0.336,2.016c-0.224,0.58668 -0.53334,1.08268 -0.92803,1.488c-0.39466,0.39458 -0.86399,0.69858 -1.40799,0.912c-0.53334,0.21342 -1.11467,0.32013 -1.74399,0.32013c-0.62934,0 -1.21601,-0.10671 -1.76001,-0.32013zM81.39082,158.07978c-0.13858,-0.42668 -0.33058,-0.77335 -0.576,-1.04001c-0.23466,-0.27734 -0.52266,-0.48001 -0.864,-0.60801c-0.33066,-0.13858 -0.69332,-0.20787 -1.08797,-0.20787c-0.39468,0 -0.76268,0.06929 -1.104,0.20787c-0.33058,0.128 -0.61858,0.33067 -0.864,0.60801c-0.23476,0.26666 -0.42143,0.61333 -0.56001,1.04001c-0.13858,0.42666 -0.20787,0.93332 -0.20787,1.51997c0,0.58668 0.06929,1.09335 0.20787,1.52001c0.13876,0.416 0.32543,0.76267 0.56001,1.04001c0.24532,0.26673 0.53332,0.46939 0.864,0.60797c0.34132,0.128 0.70932,0.192 1.104,0.192c0.39466,0 0.75732,-0.064 1.08797,-0.192c0.34142,-0.13866 0.62942,-0.34132 0.864,-0.60797c0.24542,-0.27734 0.43742,-0.62401 0.576,-1.04001c0.13858,-0.42666 0.20787,-0.93333 0.20787,-1.52001c0,-0.58666 -0.06929,-1.09332 -0.20787,-1.51997z" data-paper-data="{&quot;origPos&quot;:null}" id="path1901" fill="#1eff00" stroke="none" stroke-width="0.26458" stroke-miterlimit="10" stroke-dashoffset="0"/><path d="M93.95895,163.29586c-0.08524,0.27742 -0.23457,0.50142 -0.44799,0.672c-0.20268,0.17058 -0.44803,0.25587 -0.73603,0.25587c-0.28808,0 -0.5334,-0.08529 -0.73599,-0.25587c-0.19192,-0.17066 -0.3306,-0.39466 -0.41601,-0.672l-1.55199,-5.64797l-1.55199,5.64797c-0.08542,0.27742 -0.22942,0.50142 -0.432,0.672c-0.192,0.17058 -0.42667,0.25587 -0.70401,0.25587c-0.29876,0 -0.54943,-0.08529 -0.75201,-0.25587c-0.20258,-0.17066 -0.34658,-0.39466 -0.432,-0.672l-2.352,-7.23197c-0.032,-0.07483 -0.048,-0.16554 -0.048,-0.27213c0,-0.064 0.01008,-0.13871 0.03024,-0.22413c0.02117,-0.096 0.05846,-0.18671 0.11187,-0.27213c0.064,-0.096 0.14929,-0.176 0.25587,-0.24c0.10658,-0.064 0.25058,-0.096 0.432,-0.096c0.18124,0 0.34657,0.05329 0.49599,0.15987c0.16,0.09592 0.26671,0.2346 0.32013,0.41601l1.95197,6.51197l1.60003,-6c0.07483,-0.2559 0.19754,-0.47456 0.36813,-0.65597c0.18134,-0.192 0.41601,-0.288 0.70401,-0.288c0.28808,0 0.5174,0.09071 0.68799,0.27213c0.18142,0.18134 0.30942,0.40534 0.384,0.672l1.60003,6l1.968,-6.51197c0.05317,-0.18134 0.15446,-0.32001 0.30387,-0.41601c0.14924,-0.10658 0.31457,-0.15987 0.49599,-0.15987c0.07458,0 0.15987,0.016 0.25587,0.048c0.096,0.02142 0.18671,0.06413 0.27213,0.12813c0.096,0.064 0.17071,0.14929 0.22413,0.25587c0.064,0.10666 0.096,0.23999 0.096,0.39999c0,0.10683 -0.016,0.19754 -0.048,0.27213l-2.352,7.23197z" data-paper-data="{&quot;origPos&quot;:null}" id="path1903" fill="#1eff00" stroke="none" stroke-width="0.26458" stroke-miterlimit="10" stroke-dashoffset="0"/><path d="M97.34205,151.87175c0.192,-0.18142 0.42133,-0.27213 0.68799,-0.27213c0.25592,0 0.4746,0.09071 0.65601,0.27213c0.192,0.18134 0.288,0.40534 0.288,0.672c0,0.256 -0.096,0.48 -0.288,0.672c-0.18134,0.18142 -0.40001,0.27213 -0.65601,0.27213c-0.26666,0 -0.49599,-0.09071 -0.68799,-0.27213c-0.18142,-0.192 -0.27213,-0.416 -0.27213,-0.672c0,-0.26658 0.09071,-0.49058 0.27213,-0.672zM98.86191,163.37576c0,0.23476 -0.08,0.43743 -0.24,0.60801c-0.16008,0.16 -0.3574,0.24 -0.59199,0.24c-0.23476,0 -0.43743,-0.08 -0.60801,-0.24c-0.16,-0.17076 -0.24,-0.37343 -0.24,-0.60801v-7.56801c0,-0.23466 0.08,-0.43199 0.24,-0.59199c0.17076,-0.17058 0.37343,-0.25587 0.60801,-0.25587c0.23466,0 0.43199,0.08529 0.59199,0.25587c0.16,0.16008 0.24,0.3574 0.24,0.59199z" data-paper-data="{&quot;origPos&quot;:null}" id="path1905" fill="#1eff00" stroke="none" stroke-width="0.26458" stroke-miterlimit="10" stroke-dashoffset="0"/><path d="M101.67259,160.09619c0,0.02142 0.00504,0.11213 0.01512,0.27213c0.02117,0.14927 0.05846,0.33061 0.11187,0.54403c0.064,0.21324 0.14929,0.44257 0.25587,0.68799c0.11734,0.23476 0.27201,0.45343 0.46401,0.65601c0.192,0.20273 0.42666,0.37339 0.70397,0.51197c0.288,0.128 0.63467,0.192 1.04001,0.192c0.33076,0 0.61343,-0.02671 0.84801,-0.08013c0.23458,-0.05342 0.44258,-0.13342 0.624,-0.24c0.18124,-0.10668 0.34657,-0.24003 0.49599,-0.40003c0.14924,-0.17066 0.29857,-0.36799 0.44799,-0.59199c0.08542,-0.128 0.18142,-0.21871 0.288,-0.27213c0.10658,-0.05342 0.21858,-0.08013 0.336,-0.08013c0.192,0 0.368,0.06929 0.528,0.20787c0.16,0.13858 0.24,0.31458 0.24,0.528c0,0.128 -0.06929,0.32 -0.20787,0.576c-0.13866,0.256 -0.36266,0.512 -0.672,0.768c-0.29866,0.256 -0.68799,0.48 -1.16799,0.672c-0.48,0.192 -1.06667,0.288 -1.76001,0.288c-0.704,0 -1.33333,-0.128 -1.88799,-0.384c-0.55468,-0.256 -1.02403,-0.59733 -1.40803,-1.02399c-0.37342,-0.43734 -0.66142,-0.94401 -0.864,-1.52001c-0.192,-0.576 -0.288,-1.17867 -0.288,-1.80801c0,-0.65066 0.10129,-1.26399 0.30387,-1.83999c0.20266,-0.58666 0.49066,-1.09333 0.864,-1.52001c0.384,-0.42658 0.84266,-0.76258 1.37597,-1.008c0.53334,-0.256 1.13068,-0.384 1.79203,-0.384c0.608,0 1.17333,0.09071 1.69599,0.27213c0.53334,0.18134 0.99201,0.44801 1.37601,0.80001c0.39466,0.34132 0.70399,0.76265 0.92799,1.26399c0.224,0.50134 0.336,1.07201 0.336,1.71201c0,0.39473 -0.096,0.69339 -0.288,0.89597c-0.192,0.20258 -0.416,0.30387 -0.672,0.30387zM104.18239,156.22342c-0.39466,0 -0.73066,0.05871 -1.008,0.17613c-0.27732,0.11724 -0.51197,0.26657 -0.70397,0.44799c-0.18142,0.17058 -0.32542,0.36258 -0.432,0.576c-0.10658,0.21324 -0.18658,0.41057 -0.24,0.59199c-0.05392,0.18142 -0.08592,0.34142 -0.096,0.48c-0.01008,0.12926 -0.01512,0.20397 -0.01512,0.22413h5.184c0,-0.33066 -0.05329,-0.64533 -0.15987,-0.94401c-0.10666,-0.29866 -0.27199,-0.55999 -0.49599,-0.78399c-0.21334,-0.23476 -0.49068,-0.42143 -0.83203,-0.56001c-0.34132,-0.13858 -0.74132,-0.20787 -1.2,-0.20787z" data-paper-data="{&quot;origPos&quot;:null}" id="path1907" fill="#1eff00" stroke="none" stroke-width="0.26458" stroke-miterlimit="10" stroke-dashoffset="0"/><path d="M116.13121,162.54415h7.104c0.23466,0 0.43199,0.08529 0.59199,0.25587c0.17058,0.16008 0.25587,0.3574 0.25587,0.59199c0,0.23468 -0.08529,0.43203 -0.25587,0.59203c-0.16008,0.16 -0.3574,0.24 -0.59199,0.24h-8.304c-0.3201,0 -0.59744,-0.112 -0.83203,-0.336c-0.224,-0.23468 -0.336,-0.50668 -0.336,-0.816c0,-0.17058 0.02129,-0.31458 0.06387,-0.432c0.05342,-0.11742 0.13342,-0.24013 0.24,-0.36813l6.96,-8.99199h-6.12801c-0.23466,0 -0.43199,-0.08 -0.59199,-0.24c-0.16,-0.17076 -0.24,-0.37343 -0.24,-0.60801c0,-0.23466 0.08,-0.43199 0.24,-0.59199c0.16008,-0.16 0.3574,-0.24 0.59199,-0.24h7.42401c0.30932,0 0.57597,0.112 0.79997,0.336c0.23458,0.224 0.35187,0.496 0.35187,0.816c0,0.1599 -0.02671,0.29856 -0.08013,0.41597c-0.05342,0.11717 -0.12813,0.23446 -0.22413,0.35187z" data-paper-data="{&quot;origPos&quot;:null}" id="path1909" fill="#1eff00" stroke="none" stroke-width="0.26458" stroke-miterlimit="10" stroke-dashoffset="0"/><path d="M127.1152,164.01564c-0.53334,-0.21332 -0.99734,-0.51732 -1.392,-0.912c-0.39468,-0.40532 -0.70403,-0.90132 -0.92803,-1.488c-0.224,-0.58666 -0.336,-1.25866 -0.336,-2.016c0,-0.75732 0.112,-1.42932 0.336,-2.016c0.224,-0.58666 0.53334,-1.08266 0.92803,-1.488c0.39466,-0.40524 0.85866,-0.71457 1.392,-0.92799c0.544,-0.21342 1.13066,-0.32013 1.75997,-0.32013c0.62934,0 1.21068,0.10671 1.74403,0.32013c0.544,0.21334 1.01333,0.52267 1.40799,0.92799c0.39466,0.40534 0.70399,0.90134 0.92799,1.488c0.224,0.58668 0.336,1.25868 0.336,2.016c0,0.75734 -0.112,1.42934 -0.336,2.016c-0.224,0.58668 -0.53333,1.08268 -0.92799,1.488c-0.39466,0.39458 -0.86399,0.69858 -1.40799,0.912c-0.53334,0.21342 -1.11468,0.32013 -1.74403,0.32013c-0.62932,0 -1.21597,-0.10671 -1.75997,-0.32013zM131.4033,158.07978c-0.13858,-0.42668 -0.33058,-0.77335 -0.576,-1.04001c-0.23466,-0.27734 -0.52266,-0.48001 -0.864,-0.60801c-0.33066,-0.13858 -0.69333,-0.20787 -1.08801,-0.20787c-0.39466,0 -0.76266,0.06929 -1.104,0.20787c-0.33058,0.128 -0.61858,0.33067 -0.864,0.60801c-0.23473,0.26666 -0.42139,0.61333 -0.55997,1.04001c-0.13858,0.42666 -0.20787,0.93332 -0.20787,1.51997c0,0.58668 0.06929,1.09335 0.20787,1.52001c0.13873,0.416 0.32539,0.76267 0.55997,1.04001c0.24534,0.26673 0.53334,0.46939 0.864,0.60797c0.34134,0.128 0.70934,0.192 1.104,0.192c0.39468,0 0.75735,-0.064 1.08801,-0.192c0.34142,-0.13866 0.62942,-0.34132 0.864,-0.60797c0.24542,-0.27734 0.43742,-0.62401 0.576,-1.04001c0.13858,-0.42666 0.20787,-0.93333 0.20787,-1.52001c0,-0.58666 -0.06929,-1.09332 -0.20787,-1.51997z" data-paper-data="{&quot;origPos&quot;:null}" id="path1911" fill="#1eff00" stroke="none" stroke-width="0.26458" stroke-miterlimit="10" stroke-dashoffset="0"/><path d="M143.99015,163.29586c-0.08524,0.27742 -0.23457,0.50142 -0.44799,0.672c-0.20266,0.17058 -0.44799,0.25587 -0.73599,0.25587c-0.2881,0 -0.53344,-0.08529 -0.73603,-0.25587c-0.1919,-0.17066 -0.33056,-0.39466 -0.41597,-0.672l-1.55203,-5.64797l-1.55199,5.64797c-0.08542,0.27742 -0.22942,0.50142 -0.432,0.672c-0.192,0.17058 -0.42667,0.25587 -0.70401,0.25587c-0.29873,0 -0.54939,-0.08529 -0.75197,-0.25587c-0.20258,-0.17066 -0.34658,-0.39466 -0.432,-0.672l-2.352,-7.23197c-0.032,-0.07483 -0.048,-0.16554 -0.048,-0.27213c0,-0.064 0.01008,-0.13871 0.03024,-0.22413c0.02117,-0.096 0.05846,-0.18671 0.11187,-0.27213c0.064,-0.096 0.14929,-0.176 0.25587,-0.24c0.10658,-0.064 0.25058,-0.096 0.432,-0.096c0.18124,0 0.34657,0.05329 0.49599,0.15987c0.16,0.09592 0.26671,0.2346 0.32013,0.41601l1.95201,6.51197l1.59999,-6c0.07483,-0.2559 0.19754,-0.47456 0.36813,-0.65597c0.18132,-0.192 0.41597,-0.288 0.70397,-0.288c0.2881,0 0.51744,0.09071 0.68803,0.27213c0.18142,0.18134 0.30942,0.40534 0.384,0.672l1.59999,6l1.968,-6.51197c0.05317,-0.18134 0.15446,-0.32001 0.30387,-0.41601c0.14927,-0.10658 0.31461,-0.15987 0.49603,-0.15987c0.07458,0 0.15987,0.016 0.25587,0.048c0.096,0.02142 0.18671,0.06413 0.27213,0.12813c0.096,0.064 0.17071,0.14929 0.22413,0.25587c0.064,0.10666 0.096,0.23999 0.096,0.39999c0,0.10683 -0.016,0.19754 -0.048,0.27213l-2.352,7.23197z" data-paper-data="{&quot;origPos&quot;:null}" id="path1913" fill="#1eff00" stroke="none" stroke-width="0.26458" stroke-miterlimit="10" stroke-dashoffset="0"/><path d="M147.37332,151.87175c0.192,-0.18142 0.42134,-0.27213 0.68803,-0.27213c0.2559,0 0.47456,0.09071 0.65597,0.27213c0.192,0.18134 0.288,0.40534 0.288,0.672c0,0.256 -0.096,0.48 -0.288,0.672c-0.18132,0.18142 -0.39997,0.27213 -0.65597,0.27213c-0.26668,0 -0.49603,-0.09071 -0.68803,-0.27213c-0.18142,-0.192 -0.27213,-0.416 -0.27213,-0.672c0,-0.26658 0.09071,-0.49058 0.27213,-0.672zM148.89318,163.37576c0,0.23476 -0.08,0.43743 -0.24,0.60801c-0.16008,0.16 -0.3574,0.24 -0.59199,0.24c-0.23476,0 -0.43743,-0.08 -0.60801,-0.24c-0.16,-0.17076 -0.24,-0.37343 -0.24,-0.60801v-7.56801c0,-0.23466 0.08,-0.43199 0.24,-0.59199c0.17076,-0.17058 0.37343,-0.25587 0.60801,-0.25587c0.23466,0 0.43199,0.08529 0.59199,0.25587c0.16,0.16008 0.24,0.3574 0.24,0.59199z" data-paper-data="{&quot;origPos&quot;:null}" id="path1915" fill="#1eff00" stroke="none" stroke-width="0.26458" stroke-miterlimit="10" stroke-dashoffset="0"/><path d="M151.70382,160.09619c0,0.02142 0.00504,0.11213 0.01512,0.27213c0.02117,0.14927 0.05846,0.33061 0.11187,0.54403c0.064,0.21324 0.14929,0.44257 0.25587,0.68799c0.11732,0.23476 0.27197,0.45343 0.46397,0.65601c0.192,0.20273 0.42667,0.37339 0.70401,0.51197c0.288,0.128 0.63467,0.192 1.04001,0.192c0.33073,0 0.61339,-0.02671 0.84797,-0.08013c0.23458,-0.05342 0.44258,-0.13342 0.624,-0.24c0.18127,-0.10668 0.34661,-0.24003 0.49603,-0.40003c0.14924,-0.17066 0.29857,-0.36799 0.44799,-0.59199c0.08542,-0.128 0.18142,-0.21871 0.288,-0.27213c0.10658,-0.05342 0.21858,-0.08013 0.336,-0.08013c0.192,0 0.368,0.06929 0.528,0.20787c0.16,0.13858 0.24,0.31458 0.24,0.528c0,0.128 -0.06929,0.32 -0.20787,0.576c-0.13868,0.256 -0.36268,0.512 -0.672,0.768c-0.29868,0.256 -0.68803,0.48 -1.16803,0.672c-0.48,0.192 -1.06666,0.288 -1.75997,0.288c-0.704,0 -1.33334,-0.128 -1.88803,-0.384c-0.55466,-0.256 -1.02399,-0.59733 -1.40799,-1.02399c-0.37342,-0.43734 -0.66142,-0.94401 -0.864,-1.52001c-0.192,-0.576 -0.288,-1.17867 -0.288,-1.80801c0,-0.65066 0.10129,-1.26399 0.30387,-1.83999c0.20268,-0.58666 0.49068,-1.09333 0.864,-1.52001c0.384,-0.42658 0.84267,-0.76258 1.37601,-1.008c0.53334,-0.256 1.13067,-0.384 1.79199,-0.384c0.608,0 1.17334,0.09071 1.69603,0.27213c0.53332,0.18134 0.99197,0.44801 1.37597,0.80001c0.39468,0.34132 0.70403,0.76265 0.92803,1.26399c0.224,0.50134 0.336,1.07201 0.336,1.71201c0,0.39473 -0.096,0.69339 -0.288,0.89597c-0.192,0.20258 -0.416,0.30387 -0.672,0.30387zM154.21369,156.22342c-0.39466,0 -0.73066,0.05871 -1.008,0.17613c-0.27734,0.11724 -0.51201,0.26657 -0.70401,0.44799c-0.18142,0.17058 -0.32542,0.36258 -0.432,0.576c-0.10658,0.21324 -0.18658,0.41057 -0.24,0.59199c-0.05392,0.18142 -0.08592,0.34142 -0.096,0.48c-0.01008,0.12926 -0.01512,0.20397 -0.01512,0.22413h5.184c0,-0.33066 -0.05329,-0.64533 -0.15987,-0.94401c-0.10668,-0.29866 -0.27203,-0.55999 -0.49603,-0.78399c-0.21332,-0.23476 -0.49065,-0.42143 -0.83199,-0.56001c-0.34134,-0.13858 -0.74134,-0.20787 -1.2,-0.20787z" data-paper-data="{&quot;origPos&quot;:null}" id="path1917" fill="#1eff00" stroke="none" stroke-width="0.26458" stroke-miterlimit="10" stroke-dashoffset="0"/><path d="M159.91118,162.25578c0.23466,-0.23458 0.50666,-0.35187 0.816,-0.35187c0.32,0 0.592,0.11729 0.816,0.35187c0.23458,0.224 0.35187,0.496 0.35187,0.816c0,0.30942 -0.11729,0.58142 -0.35187,0.816c-0.224,0.224 -0.496,0.336 -0.816,0.336c-0.30942,0 -0.58142,-0.112 -0.816,-0.336c-0.224,-0.23468 -0.336,-0.50668 -0.336,-0.816c0,-0.32 0.112,-0.592 0.336,-0.816zM161.67119,160.22375c0,0.26658 -0.09071,0.49058 -0.27213,0.672c-0.18134,0.18142 -0.40534,0.27213 -0.672,0.27213c-0.256,0 -0.48,-0.09071 -0.672,-0.27213c-0.18142,-0.18132 -0.27213,-0.40532 -0.27213,-0.672v-7.68c0,-0.26658 0.09071,-0.49058 0.27213,-0.672c0.192,-0.18142 0.416,-0.27213 0.672,-0.27213c0.26658,0 0.49058,0.09071 0.672,0.27213c0.18142,0.18134 0.27213,0.40534 0.27213,0.672z" data-paper-data="{&quot;origPos&quot;:null}" id="path1919" fill="#1eff00" stroke="none" stroke-width="0.26458" stroke-miterlimit="10" stroke-dashoffset="0"/><path d="M63.24254,175.0624h2.30003l-1.14297,-3.89458zM66.03611,176.71375h-3.27368l-0.80432,2.69514c-0.07526,0.22569 -0.21167,0.40442 -0.40921,0.5362c-0.18814,0.13178 -0.3951,0.19767 -0.62086,0.19767c-0.32925,0 -0.59264,-0.10822 -0.79019,-0.32466c-0.18822,-0.22576 -0.28233,-0.47976 -0.28233,-0.76199c0,-0.12228 0.02356,-0.25397 0.07068,-0.39507l2.93499,-8.43821c0.06602,-0.18814 0.14602,-0.36688 0.24,-0.5362c0.09424,-0.17882 0.20246,-0.32934 0.32466,-0.45154c0.12223,-0.13153 0.26335,-0.23496 0.42335,-0.3103c0.16,-0.07534 0.34343,-0.11301 0.5503,-0.11301c0.19747,0 0.3762,0.03767 0.5362,0.11301c0.16003,0.07509 0.30114,0.17852 0.42334,0.3103c0.13178,0.12238 0.24466,0.27289 0.33865,0.45154c0.09424,0.16925 0.17424,0.34798 0.24,0.5362l2.92089,8.43821c0.04712,0.14118 0.07068,0.27287 0.07068,0.39507c0,0.11288 -0.02356,0.23521 -0.07068,0.36699c-0.03754,0.13153 -0.09865,0.24907 -0.18331,0.35263c-0.08466,0.10331 -0.19288,0.19263 -0.32466,0.26797c-0.13163,0.06576 -0.29155,0.09865 -0.47977,0.09865c-0.22579,0 -0.43746,-0.06589 -0.635,-0.19767c-0.18804,-0.1317 -0.31974,-0.31044 -0.39507,-0.5362z" data-paper-data="{&quot;origPos&quot;:null}" id="path1922" fill="#1eff00" stroke="none" stroke-width="0.23334" stroke-miterlimit="10" stroke-dashoffset="0"/><path d="M71.92015,170.85741v7.4222h1.98962c0.55501,0 1.01596,-0.10343 1.38285,-0.3103c0.37629,-0.21637 0.67732,-0.49858 0.90308,-0.84665c0.22586,-0.34807 0.38579,-0.74317 0.47977,-1.1853c0.09398,-0.45155 0.14098,-0.9078 0.14098,-1.36876c0,-0.46093 -0.04699,-0.91247 -0.14098,-1.35462c-0.09409,-0.44213 -0.25401,-0.83723 -0.47977,-1.1853c-0.22576,-0.34797 -0.52679,-0.63017 -0.90308,-0.84661c-0.36689,-0.21644 -0.82784,-0.32466 -1.38285,-0.32466zM70.87598,180.14205c-0.13163,0 -0.26333,-0.01877 -0.39511,-0.05631c-0.13178,-0.04712 -0.25411,-0.11301 -0.36699,-0.19767c-0.10356,-0.09398 -0.18822,-0.21153 -0.25398,-0.35263c-0.06576,-0.1411 -0.09865,-0.31043 -0.09865,-0.50797v-8.91798c0,-0.08466 0.01411,-0.18809 0.04233,-0.3103c0.02822,-0.13178 0.08466,-0.25411 0.16932,-0.36699c0.08466,-0.1222 0.19754,-0.22098 0.33865,-0.29631c0.15053,-0.08466 0.33867,-0.12699 0.56443,-0.12699h3.83811c0.67732,0 1.27937,0.16464 1.80616,0.49391c0.53621,0.31982 0.98306,0.74314 1.34052,1.26996c0.36679,0.51739 0.6443,1.11003 0.83252,1.77793c0.18822,0.66792 0.28233,1.34052 0.28233,2.01781c0,0.68674 -0.09411,1.36406 -0.28233,2.03195c-0.18814,0.65849 -0.46565,1.25115 -0.83252,1.77797c-0.35747,0.52679 -0.79961,0.95481 -1.32643,1.28406c-0.52679,0.31985 -1.13354,0.47977 -1.82026,0.47977z" data-paper-data="{&quot;origPos&quot;:null}" id="path1924" fill="#1eff00" stroke="none" stroke-width="0.23334" stroke-miterlimit="10" stroke-dashoffset="0"/><path d="M83.42772,180.14186c-0.25393,0 -0.47501,-0.07055 -0.66323,-0.21165c-0.18814,-0.14105 -0.32455,-0.33391 -0.40921,-0.57857l-3.21721,-8.98847c-0.03754,-0.08466 -0.05631,-0.18343 -0.05631,-0.29631c0,-0.11288 0.02356,-0.23043 0.07068,-0.35263c0.04712,-0.13153 0.11767,-0.24907 0.21165,-0.35263c0.09398,-0.10356 0.21153,-0.18822 0.35263,-0.25398c0.1411,-0.06576 0.31043,-0.09865 0.50797,-0.09865c0.21637,0 0.40921,0.05178 0.57853,0.15534c0.1789,0.10358 0.30123,0.25881 0.36699,0.46568l2.25774,7.35163l2.2718,-7.35163c0.06576,-0.20689 0.18331,-0.36212 0.35263,-0.46568c0.17865,-0.10356 0.37619,-0.15534 0.59263,-0.15534c0.16935,0 0.32457,0.03288 0.46568,0.09865c0.1411,0.06576 0.25865,0.15043 0.35263,0.25398c0.10356,0.09398 0.18356,0.20687 0.24,0.33865c0.05644,0.12246 0.08466,0.24479 0.08466,0.36699c0,0.11288 -0.01877,0.21165 -0.05631,0.29631l-3.23134,8.98847c-0.08459,0.24461 -0.22099,0.43747 -0.40921,0.57857c-0.17875,0.1411 -0.39981,0.21165 -0.66319,0.21165z" data-paper-data="{&quot;origPos&quot;:null}" id="path1926" fill="#1eff00" stroke="none" stroke-width="0.23334" stroke-miterlimit="10" stroke-dashoffset="0"/><path d="M90.09696,175.0624h2.30003l-1.14297,-3.89458zM92.89056,176.71375h-3.27368l-0.80432,2.69514c-0.07526,0.22569 -0.21167,0.40442 -0.40921,0.5362c-0.18814,0.13178 -0.3951,0.19767 -0.62086,0.19767c-0.32925,0 -0.59264,-0.10822 -0.79019,-0.32466c-0.18822,-0.22576 -0.28233,-0.47976 -0.28233,-0.76199c0,-0.12228 0.02356,-0.25397 0.07068,-0.39507l2.93499,-8.43821c0.06602,-0.18814 0.14602,-0.36688 0.24,-0.5362c0.09424,-0.17882 0.20246,-0.32934 0.32466,-0.45154c0.12223,-0.13153 0.26334,-0.23496 0.42334,-0.3103c0.16,-0.07534 0.34343,-0.11301 0.5503,-0.11301c0.19747,0 0.3762,0.03767 0.5362,0.11301c0.16,0.07509 0.3011,0.17852 0.42331,0.3103c0.13178,0.12238 0.24466,0.27289 0.33865,0.45154c0.09424,0.16925 0.17424,0.34798 0.24,0.5362l2.92089,8.43821c0.04712,0.14118 0.07068,0.27287 0.07068,0.39507c0,0.11288 -0.02356,0.23521 -0.07068,0.36699c-0.03754,0.13153 -0.09865,0.24907 -0.18331,0.35263c-0.08466,0.10331 -0.19288,0.19263 -0.32466,0.26797c-0.13163,0.06576 -0.29155,0.09865 -0.47977,0.09865c-0.22579,0 -0.43746,-0.06589 -0.635,-0.19767c-0.18804,-0.1317 -0.31974,-0.31044 -0.39507,-0.5362z" data-paper-data="{&quot;origPos&quot;:null}" id="path1928" fill="#1eff00" stroke="none" stroke-width="0.23334" stroke-miterlimit="10" stroke-dashoffset="0"/><path d="M98.65052,172.19794v6.92837c0,0.27291 -0.10343,0.51279 -0.3103,0.71966c-0.19754,0.19754 -0.43743,0.29631 -0.71966,0.29631c-0.27288,0 -0.51276,-0.09877 -0.71962,-0.29631c-0.19754,-0.20697 -0.29631,-0.44685 -0.29631,-0.71966v-8.91795c0,-0.32935 0.11754,-0.61157 0.35263,-0.84665c0.23519,-0.23509 0.5221,-0.35263 0.86075,-0.35263c0.32935,0 0.61157,0.08466 0.84665,0.25398c0.24469,0.15992 0.45635,0.3904 0.635,0.69143l4.17676,6.99889v-6.92837c0,-0.2822 0.09877,-0.52208 0.29631,-0.71962c0.20697,-0.19754 0.44685,-0.29631 0.71966,-0.29631c0.2822,0 0.52208,0.09877 0.71962,0.29631c0.20687,0.19754 0.3103,0.43742 0.3103,0.71962v8.90385c0,0.16942 -0.03288,0.32935 -0.09865,0.47977c-0.06576,0.1411 -0.15509,0.26809 -0.26797,0.38098c-0.10358,0.11288 -0.23059,0.2022 -0.38101,0.26797c-0.1411,0.05644 -0.29631,0.08466 -0.46564,0.08466c-0.32917,0 -0.61609,-0.08466 -0.86075,-0.25398c-0.23526,-0.16935 -0.44222,-0.39982 -0.62086,-0.69143z" data-paper-data="{&quot;origPos&quot;:null}" id="path1930" fill="#1eff00" stroke="none" stroke-width="0.23334" stroke-miterlimit="10" stroke-dashoffset="0"/><path d="M111.52813,168.81137c0.70554,0 1.3217,0.11754 1.84849,0.35263c0.52682,0.22579 0.96896,0.4939 1.32643,0.80432c0.35754,0.31043 0.62564,0.63026 0.80428,0.95951c0.17865,0.32927 0.26797,0.59268 0.26797,0.79022c0,0.15043 -0.03767,0.29153 -0.11301,0.42331c-0.06576,0.13178 -0.15509,0.24466 -0.26797,0.33865c-0.11291,0.09398 -0.23991,0.1692 -0.38101,0.22564c-0.1316,0.05644 -0.26329,0.08466 -0.39507,0.08466c-0.14113,0 -0.26813,-0.03288 -0.38101,-0.09865c-0.11288,-0.06576 -0.2022,-0.16454 -0.26797,-0.29631c-0.07534,-0.1505 -0.16945,-0.32452 -0.28233,-0.52207c-0.10341,-0.20697 -0.24922,-0.39511 -0.43744,-0.56443c-0.17872,-0.17882 -0.4092,-0.32934 -0.69143,-0.45154c-0.27281,-0.1222 -0.61616,-0.18331 -1.03007,-0.18331c-0.47035,0 -0.88897,0.11754 -1.25586,0.35263c-0.35747,0.22576 -0.66319,0.52209 -0.91718,0.88898c-0.24451,0.36687 -0.43266,0.78547 -0.56443,1.25582c-0.1222,0.46095 -0.18331,0.9266 -0.18331,1.39695c0,0.47977 0.0611,0.95483 0.18331,1.42518c0.13163,0.46095 0.31977,0.87487 0.56443,1.24176c0.25398,0.36697 0.55971,0.66799 0.91718,0.90308c0.36689,0.22576 0.78551,0.33865 1.25586,0.33865c0.41391,0 0.75727,-0.0611 1.03007,-0.18331c0.28231,-0.12238 0.51278,-0.27289 0.69143,-0.45154c0.18807,-0.17875 0.33388,-0.36689 0.43744,-0.56443c0.11288,-0.19747 0.20699,-0.3762 0.28233,-0.5362c0.06576,-0.13178 0.15509,-0.23055 0.26797,-0.29631c0.11288,-0.06576 0.23521,-0.09865 0.36699,-0.09865c0.13163,0 0.26333,0.02822 0.39511,0.08466c0.1411,0.05644 0.26809,0.13165 0.38098,0.22564c0.11288,0.09398 0.2022,0.20687 0.26797,0.33865c0.07534,0.13178 0.11301,0.27288 0.11301,0.42331c0,0.20697 -0.08932,0.47507 -0.26797,0.80432c-0.17875,0.32925 -0.44685,0.64908 -0.80432,0.95951c-0.34804,0.31045 -0.78547,0.57856 -1.31229,0.80432c-0.52679,0.22576 -1.14295,0.33865 -1.84849,0.33865c-0.84664,0 -1.58981,-0.15991 -2.22951,-0.47974c-0.63027,-0.31985 -1.15706,-0.74317 -1.58037,-1.26996c-0.41383,-0.53621 -0.72897,-1.14768 -0.94541,-1.83439c-0.20687,-0.69614 -0.3103,-1.4205 -0.3103,-2.17308c0,-0.74316 0.10343,-1.46279 0.3103,-2.1589c0.21637,-0.69614 0.5315,-1.3076 0.94541,-1.83439c0.42331,-0.53621 0.9501,-0.96425 1.58037,-1.28409c0.6397,-0.31982 1.38287,-0.47974 2.22951,-0.47974z" data-paper-data="{&quot;origPos&quot;:null}" id="path1932" fill="#1eff00" stroke="none" stroke-width="0.23334" stroke-miterlimit="10" stroke-dashoffset="0"/><path d="M118.96499,175.13331v3.16082h4.93871c0.25409,0 0.47045,0.08932 0.6491,0.26797c0.17865,0.17875 0.26797,0.39511 0.26797,0.6491c0,0.26348 -0.08932,0.48455 -0.26797,0.66319c-0.17872,0.17865 -0.39509,0.26797 -0.6491,0.26797h-5.98292c-0.13163,0 -0.26333,-0.01877 -0.39511,-0.05631c-0.13178,-0.04712 -0.25411,-0.11301 -0.36699,-0.19767c-0.10356,-0.09398 -0.18822,-0.21153 -0.25398,-0.35263c-0.06576,-0.1411 -0.09865,-0.31043 -0.09865,-0.50797v-8.91798c0,-0.08466 0.01411,-0.18809 0.04233,-0.3103c0.02822,-0.13178 0.08466,-0.25411 0.16932,-0.36699c0.08466,-0.1222 0.19754,-0.22098 0.33865,-0.29631c0.15053,-0.08466 0.33867,-0.12699 0.56443,-0.12699h5.98292c0.25409,0 0.47045,0.08932 0.6491,0.26797c0.17865,0.17875 0.26797,0.39511 0.26797,0.6491c0,0.26348 -0.08932,0.48455 -0.26797,0.66319c-0.17872,0.17865 -0.39509,0.26797 -0.6491,0.26797h-4.93871v2.41293h4.14852c0.26348,0 0.48455,0.09411 0.66319,0.28233c0.17865,0.17872 0.26797,0.39507 0.26797,0.64906c0,0.25393 -0.08932,0.47501 -0.26797,0.66323c-0.17872,0.17865 -0.39979,0.26797 -0.66319,0.26797z" data-paper-data="{&quot;origPos&quot;:null}" id="path1934" fill="#1eff00" stroke="none" stroke-width="0.23334" stroke-miterlimit="10" stroke-dashoffset="0"/><path d="M127.92194,170.85741v7.4222h1.98962c0.55501,0 1.01596,-0.10343 1.38285,-0.3103c0.37629,-0.21637 0.67732,-0.49858 0.90308,-0.84665c0.22586,-0.34807 0.38579,-0.74317 0.47977,-1.1853c0.09398,-0.45155 0.14098,-0.9078 0.14098,-1.36876c0,-0.46093 -0.04699,-0.91247 -0.14098,-1.35462c-0.09409,-0.44213 -0.25401,-0.83723 -0.47977,-1.1853c-0.22576,-0.34797 -0.52679,-0.63017 -0.90308,-0.84661c-0.36689,-0.21644 -0.82784,-0.32466 -1.38285,-0.32466zM126.87777,180.14205c-0.13163,0 -0.26333,-0.01877 -0.39511,-0.05631c-0.13178,-0.04712 -0.25411,-0.11301 -0.36699,-0.19767c-0.10356,-0.09398 -0.18822,-0.21153 -0.25398,-0.35263c-0.06576,-0.1411 -0.09865,-0.31043 -0.09865,-0.50797v-8.91798c0,-0.08466 0.01411,-0.18809 0.04233,-0.3103c0.02822,-0.13178 0.08466,-0.25411 0.16932,-0.36699c0.08466,-0.1222 0.19754,-0.22098 0.33865,-0.29631c0.15053,-0.08466 0.33867,-0.12699 0.56443,-0.12699h3.83811c0.67729,0 1.27934,0.16464 1.80616,0.49391c0.53619,0.31982 0.98303,0.74314 1.34052,1.26996c0.36679,0.51739 0.6443,1.11003 0.83252,1.77793c0.18822,0.66792 0.28233,1.34052 0.28233,2.01781c0,0.68674 -0.09411,1.36406 -0.28233,2.03195c-0.18814,0.65849 -0.46565,1.25115 -0.83252,1.77797c-0.35749,0.52679 -0.79963,0.95481 -1.32643,1.28406c-0.52679,0.31985 -1.13354,0.47977 -1.82026,0.47977z" data-paper-data="{&quot;origPos&quot;:null}" id="path1936" fill="#1eff00" stroke="none" stroke-width="0.23334" stroke-miterlimit="10" stroke-dashoffset="0"/><path d="M69.10236,187.56447c1.27593,0 2.33405,4.30813 3.36631,5.0581c1.03226,0.74997 5.4565,0.42505 5.85082,1.63854c0.39428,1.21349 -3.37603,3.55109 -3.77031,4.76459c-0.39428,1.21349 1.2819,5.32082 0.24983,6.07079c-1.03226,0.74997 -4.42057,-2.11344 -5.6965,-2.11344c-1.27593,0 -4.66424,2.86341 -5.69651,2.11344c-1.03226,-0.74997 0.64396,-4.8573 0.24983,-6.07079c-0.39428,-1.21349 -4.16459,-3.55109 -3.77031,-4.76459c0.39428,-1.21349 4.81856,-0.88857 5.85079,-1.63854c1.03226,-0.74997 2.09042,-5.0581 3.36635,-5.0581z" data-paper-data="{&quot;origPos&quot;:null}" id="path1428-5-38" fill="#1eff00" stroke="none" stroke-width="0.88188" stroke-miterlimit="4" stroke-dashoffset="17.35"/><path d="M92.03937,187.56447c1.27597,0 2.33409,4.30813 3.36635,5.0581c1.03226,0.74997 5.4565,0.42505 5.85078,1.63854c0.39428,1.21349 -3.37599,3.55109 -3.77027,4.76459c-0.39432,1.21349 1.2819,5.32082 0.24945,6.07079c-1.03226,0.74997 -4.42054,-2.11344 -5.6965,-2.11344c-1.27593,0 -4.66424,2.86341 -5.69647,2.11344c-1.03226,-0.74997 0.64396,-4.8573 0.24945,-6.07079c-0.39428,-1.21349 -4.16455,-3.55109 -3.77027,-4.76459c0.39428,-1.21349 4.81852,-0.88857 5.85078,-1.63854c1.03226,-0.74997 2.09038,-5.0581 3.36631,-5.0581z" data-paper-data="{&quot;origPos&quot;:null}" id="path1428-0-2-1" fill="#1eff00" stroke="none" stroke-width="0.88188" stroke-miterlimit="4" stroke-dashoffset="17.35"/><path d="M114.9763,188.62388c1.12282,0 2.05398,3.79113 2.96236,4.45111c0.90841,0.65998 4.80174,0.37417 5.1487,1.44193c0.34696,1.06787 -2.97086,3.12499 -3.31786,4.19286c-0.34696,1.06787 1.12811,4.68231 0.21959,5.34229c-0.90837,0.65998 -3.89008,-1.85983 -5.0129,-1.85983c-1.12282,0 -4.10453,2.51981 -5.0129,1.85983c-0.90841,-0.65998 0.56666,-4.27442 0.21959,-5.34229c-0.34696,-1.06787 -3.66486,-3.12499 -3.31786,-4.19286c0.34696,-1.06787 4.24029,-0.78195 5.1487,-1.44193c0.90837,-0.65998 1.83953,-4.45111 2.96236,-4.45111z" data-paper-data="{&quot;origPos&quot;:null}" id="path1428-0-6-3-6" fill="#1eff00" stroke="none" stroke-width="0.77606" stroke-miterlimit="4" stroke-dashoffset="17.35"/></g></g></svg>