<svg version="1.1" xmlns="http://www.w3.org/2000/svg" xmlns:xlink="http://www.w3.org/1999/xlink" width="372.21483" height="68.64257"><g transform="translate(-53.89258,-145.67871)"><g data-paper-data="{&quot;isPaintingLayer&quot;:true}" fill-rule="nonzero" stroke-linecap="butt" stroke-linejoin="miter" stroke-dasharray="" style="mix-blend-mode: normal"><path d="M425.00977,146.42871c0.19313,0 0.34765,0.15452 0.34765,0.34766v66.44531c0,0.19314 -0.15452,0.34961 -0.34765,0.34961h-370.01758c-0.19328,0 -0.34961,-0.15647 -0.34961,-0.34961v-66.44531c0,-0.19313 0.15637,-0.34766 0.34961,-0.34766z" data-paper-data="{&quot;origPos&quot;:null}" id="rect815-0-0" fill="#1e1e1e" stroke="#1eff00" stroke-width="1.5" stroke-miterlimit="4" stroke-dashoffset="17.35"/><path d="M67.2168,151.792c0.62933,0.27731 1.16723,0.61313 1.61523,1.00781c0.45867,0.384 0.81131,0.7951 1.05664,1.23242c0.256,0.43734 0.38477,0.81477 0.38477,1.13477c0,0.28807 -0.10698,0.51691 -0.32031,0.6875c-0.21333,0.16 -0.44217,0.24023 -0.6875,0.24023c-0.18133,0 -0.35367,-0.04153 -0.51367,-0.12695c-0.16,-0.09593 -0.27194,-0.25143 -0.33594,-0.46485c-0.096,-0.29865 -0.22777,-0.5909 -0.39844,-0.8789c-0.17067,-0.2881 -0.38958,-0.55058 -0.65625,-0.78516c-0.26667,-0.23473 -0.58265,-0.42001 -0.94531,-0.55859c-0.352,-0.14942 -0.76113,-0.22461 -1.23047,-0.22461c-0.53333,0 -1.03457,0.11698 -1.50391,0.35156c-0.46933,0.224 -0.88042,0.54988 -1.23242,0.97656c-0.34133,0.416 -0.61374,0.92222 -0.81641,1.51954c-0.20267,0.59734 -0.30469,1.264 -0.30469,2c0,0.736 0.10202,1.40265 0.30469,2c0.20267,0.59731 0.47507,1.10847 0.81641,1.53515c0.352,0.42674 0.76309,0.75761 1.23242,0.99219c0.46933,0.224 0.97057,0.33594 1.50391,0.33594c0.46933,0 0.87847,-0.06845 1.23047,-0.20704c0.36267,-0.14941 0.67865,-0.34158 0.94531,-0.57617c0.26667,-0.23466 0.48558,-0.4952 0.65625,-0.7832c0.17067,-0.29868 0.30244,-0.59783 0.39844,-0.89648c0.064,-0.21325 0.17594,-0.36185 0.33594,-0.44727c0.16,-0.096 0.33234,-0.14453 0.51367,-0.14453c0.24533,0 0.47416,0.08023 0.6875,0.24023c0.21333,0.16 0.32031,0.38388 0.32031,0.67188c0,0.23466 -0.09706,0.56553 -0.28906,0.99219c-0.192,0.42668 -0.4892,0.85263 -0.89453,1.27929c-0.40533,0.416 -0.93332,0.77855 -1.58398,1.08789c-0.64,0.30932 -1.41365,0.46485 -2.32031,0.46485c-0.96,0 -1.80396,-0.18227 -2.5293,-0.54492c-0.71467,-0.36266 -1.31102,-0.84708 -1.79102,-1.45508c-0.46933,-0.608 -0.82693,-1.3014 -1.07227,-2.08008c-0.23467,-0.78932 -0.35156,-1.6115 -0.35156,-2.46484c0,-0.84266 0.1169,-1.65793 0.35156,-2.44727c0.24533,-0.78934 0.60293,-1.48276 1.07227,-2.08008c0.48,-0.608 1.07635,-1.09435 1.79102,-1.45703c0.72533,-0.36266 1.5693,-0.54297 2.5293,-0.54297c0.736,0 1.41258,0.13868 2.03125,0.41602zM72.8418,151.87207c0.192,0.18135 0.28906,0.40522 0.28906,0.67188c0,0.256 -0.09706,0.47987 -0.28906,0.67188c-0.18133,0.18141 -0.3983,0.27148 -0.6543,0.27148c-0.26667,0 -0.49745,-0.09007 -0.68945,-0.27148c-0.18133,-0.19201 -0.27148,-0.41588 -0.27148,-0.67188c0,-0.26658 0.09015,-0.49046 0.27148,-0.67188c0.192,-0.18141 0.42279,-0.27343 0.68945,-0.27343c0.256,0 0.47296,0.09202 0.6543,0.27343zM108.05664,151.59864c0.58667,0 1.10473,0.08527 1.55273,0.25586c0.45867,0.17066 0.84301,0.40639 1.15234,0.70507c0.30933,0.288 0.54312,0.63375 0.70312,1.03907c0.16,0.39468 0.24023,0.82259 0.24023,1.28125c0,0.40534 -0.05844,0.75603 -0.17578,1.05468c-0.10666,0.29866 -0.2503,0.56116 -0.43164,0.78516c-0.17067,0.21342 -0.3678,0.38876 -0.5918,0.52734c-0.21333,0.128 -0.43225,0.22507 -0.65625,0.28907c0.448,0.14941 0.82047,0.34159 1.11914,0.57617c0.29866,0.224 0.53936,0.47461 0.7207,0.75195c0.18134,0.27734 0.31011,0.57453 0.38476,0.89453c0.07466,0.32 0.11133,0.64094 0.11133,0.96094c0,0.52266 -0.10697,0.99717 -0.32031,1.42383c-0.21333,0.42668 -0.50557,0.7942 -0.87891,1.10351c-0.36267,0.30942 -0.79554,0.55013 -1.29687,0.72071c-0.49067,0.17058 -1.01865,0.25586 -1.58398,0.25586h-4.67187c-0.15999,0 -0.3155,-0.02666 -0.46484,-0.08008c-0.14932,-0.064 -0.28109,-0.14928 -0.39844,-0.25586c-0.11734,-0.10668 -0.2144,-0.24039 -0.28906,-0.40039c-0.07466,-0.16 -0.11133,-0.33534 -0.11133,-0.52734v-10.11329c0,-0.34126 0.12185,-0.63348 0.36719,-0.8789c0.24533,-0.24542 0.54448,-0.36914 0.89648,-0.36914zM137.79688,151.83887c0.16,0.16008 0.24023,0.35722 0.24023,0.5918v6.11328l3.91992,-3.4082c0.14932,-0.11742 0.31475,-0.17578 0.49609,-0.17578c0.17066,0 0.33609,0.0634 0.49609,0.1914c0.16,0.12808 0.24023,0.30839 0.24023,0.54297c0,0.21324 -0.0852,0.39551 -0.25586,0.54492l-2.44922,2.11133l3.23242,4.57617c0.096,0.14942 0.14453,0.30989 0.14453,0.48047c0,0.14942 -0.02674,0.27818 -0.08008,0.38477c-0.05332,0.096 -0.12364,0.17428 -0.20898,0.23828c-0.08534,0.064 -0.17548,0.11253 -0.27148,0.14453c-0.096,0.032 -0.18614,0.04883 -0.27148,0.04883c-0.13866,0 -0.26742,-0.02666 -0.38476,-0.08008c-0.11732,-0.05317 -0.21739,-0.13844 -0.30273,-0.25586l-3.07226,-4.44922l-1.23242,1.05664v2.88086c0,0.23476 -0.08023,0.43684 -0.24023,0.60742c-0.16001,0.16 -0.35714,0.24024 -0.5918,0.24024c-0.23468,0 -0.43676,-0.08024 -0.60742,-0.24024c-0.16,-0.17076 -0.24023,-0.37284 -0.24023,-0.60742v-10.94531c0,-0.23466 0.08023,-0.4318 0.24023,-0.5918c0.17068,-0.16 0.37276,-0.24023 0.60742,-0.24023c0.23466,0 0.4318,0.08023 0.5918,0.24023zM104.05664,156.84668h3.75977c0.26667,0 0.52916,-0.04153 0.78516,-0.12695c0.256,-0.08516 0.47987,-0.20214 0.67187,-0.35156c0.19199,-0.15993 0.3475,-0.34713 0.46484,-0.56055c0.11734,-0.224 0.17578,-0.46967 0.17578,-0.73633c0,-0.52265 -0.16542,-0.94861 -0.49609,-1.27929c-0.33067,-0.34132 -0.81207,-0.51367 -1.44141,-0.51367h-3.91992zM94.22657,155.167c0.544,0.21334 1.01354,0.52241 1.4082,0.92773c0.39467,0.40534 0.70373,0.90162 0.92773,1.48828c0.224,0.58669 0.33594,1.25831 0.33594,2.01563c0,0.75734 -0.11194,1.42896 -0.33594,2.01562c-0.224,0.58669 -0.53307,1.08297 -0.92773,1.48828c-0.39467,0.39459 -0.8642,0.6987 -1.4082,0.91211c-0.53333,0.21342 -1.11481,0.32032 -1.74414,0.32032c-0.62933,0 -1.21576,-0.1069 -1.75976,-0.32032c-0.53333,-0.21331 -0.99791,-0.51742 -1.39258,-0.91211c-0.39467,-0.40531 -0.70373,-0.90159 -0.92773,-1.48828c-0.224,-0.58666 -0.33594,-1.25828 -0.33594,-2.01562c0,-0.75732 0.11194,-1.42894 0.33594,-2.01563c0.224,-0.58666 0.53307,-1.08294 0.92773,-1.48828c0.39467,-0.40524 0.85924,-0.71432 1.39258,-0.92773c0.544,-0.21342 1.13043,-0.32032 1.75976,-0.32032c0.62933,0 1.21081,0.1069 1.74414,0.32032zM123.92969,155.12012c0.53333,0.18134 0.991,0.44683 1.375,0.79883c0.39467,0.34132 0.70373,0.76233 0.92773,1.26367c0.224,0.50134 0.33594,1.07289 0.33594,1.71289c0,0.39474 -0.09511,0.6939 -0.28711,0.89649c-0.192,0.20258 -0.41587,0.30273 -0.67187,0.30273h-5.85547c0,0.02142 0.00504,0.11344 0.01562,0.27344c0.02132,0.14926 0.05799,0.32955 0.11133,0.54297c0.064,0.21324 0.1492,0.44403 0.25586,0.68945c0.11733,0.23476 0.27284,0.45171 0.46484,0.6543c0.192,0.20273 0.42579,0.37509 0.70312,0.51367c0.288,0.128 0.63568,0.19141 1.04102,0.19141c0.33068,0 0.613,-0.02667 0.84766,-0.08008c0.23466,-0.05342 0.4417,-0.13365 0.62305,-0.24024c0.18132,-0.10668 0.34675,-0.24039 0.49609,-0.40039c0.14932,-0.17066 0.29988,-0.36779 0.44922,-0.59179c0.08534,-0.128 0.18045,-0.21807 0.28711,-0.27149c0.10666,-0.05342 0.21859,-0.08008 0.33594,-0.08008c0.192,0 0.3693,0.06845 0.5293,0.20703c0.16,0.13859 0.23828,0.31393 0.23828,0.52735c0,0.128 -0.06837,0.32017 -0.20703,0.57617c-0.13867,0.256 -0.36254,0.51353 -0.67187,0.76953c-0.29867,0.256 -0.68797,0.47988 -1.16797,0.67188c-0.48,0.192 -1.06643,0.28711 -1.75976,0.28711c-0.704,0 -1.33401,-0.12682 -1.88867,-0.38282c-0.55467,-0.256 -1.0242,-0.59873 -1.4082,-1.02539c-0.37334,-0.43734 -0.66062,-0.94353 -0.86328,-1.51953c-0.192,-0.576 -0.28906,-1.17925 -0.28906,-1.80859c0,-0.65066 0.10203,-1.26385 0.30469,-1.83985c0.20267,-0.58665 0.48995,-1.09284 0.86328,-1.51953c0.384,-0.42658 0.84362,-0.76239 1.37695,-1.00781c0.53333,-0.256 1.12968,-0.38477 1.79101,-0.38477c0.608,0 1.1746,0.09202 1.69727,0.27344zM134.02149,155.50293c0.65067,0.42666 0.97656,1.06162 0.97656,1.9043v5.96875c0,0.23476 -0.08023,0.43684 -0.24023,0.60742c-0.16001,0.16 -0.35714,0.24024 -0.5918,0.24024c-0.23468,0 -0.43676,-0.08024 -0.60742,-0.24024c-0.16,-0.17076 -0.24023,-0.37284 -0.24023,-0.60742v-0.25586c-0.40533,0.43724 -0.86991,0.72949 -1.39258,0.87891c-0.512,0.14942 -1.05486,0.22461 -1.63086,0.22461c-0.36266,0 -0.73213,-0.04853 -1.10547,-0.14453c-0.36267,-0.10659 -0.69352,-0.26706 -0.99219,-0.48047c-0.28799,-0.21334 -0.52178,-0.47883 -0.70312,-0.79883c-0.18134,-0.32 -0.27148,-0.70434 -0.27148,-1.15234c0,-0.512 0.10008,-0.93796 0.30273,-1.2793c0.20267,-0.352 0.47507,-0.64124 0.81641,-0.86524c0.34133,-0.22389 0.73063,-0.3943 1.16797,-0.51171c0.448,-0.11717 0.91754,-0.20245 1.4082,-0.25586c0.56533,-0.064 1.00812,-0.13245 1.32812,-0.20703c0.32,-0.08542 0.5607,-0.18248 0.7207,-0.28907c0.16,-0.10683 0.25511,-0.2286 0.28711,-0.36719c0.04266,-0.13873 0.06445,-0.29426 0.06445,-0.46484c0,-0.20258 -0.05844,-0.37793 -0.17578,-0.52734c-0.11732,-0.14942 -0.26788,-0.27314 -0.44922,-0.36914c-0.18133,-0.096 -0.38342,-0.16445 -0.60742,-0.20703c-0.22399,-0.05342 -0.44291,-0.08008 -0.65625,-0.08008c-0.38401,0 -0.69308,0.0317 -0.92773,0.0957c-0.23466,0.064 -0.42683,0.14928 -0.57617,0.25586c-0.14934,0.10658 -0.27119,0.23535 -0.36719,0.38477c-0.08534,0.14934 -0.16558,0.30289 -0.24023,0.46289c-0.064,0.128 -0.15414,0.22311 -0.27148,0.28711c-0.10666,0.05341 -0.2186,0.08007 -0.33594,0.08007c-0.21332,0 -0.41045,-0.06844 -0.5918,-0.20703c-0.18134,-0.13858 -0.27344,-0.33075 -0.27344,-0.57617c0,-0.096 0.02674,-0.21298 0.08008,-0.35156c0.096,-0.22393 0.22476,-0.44283 0.38476,-0.65625c0.16,-0.22408 0.37201,-0.42122 0.63867,-0.5918c0.27733,-0.17066 0.6151,-0.30439 1.00977,-0.40039c0.40533,-0.10658 0.8947,-0.16016 1.4707,-0.16016c1.088,0 1.9518,0.21891 2.5918,0.65625zM72.7793,155.21583c0.16,0.16007 0.24023,0.35721 0.24023,0.59179v7.56836c0,0.23476 -0.08023,0.43684 -0.24023,0.60742c-0.16,0.16 -0.35713,0.24024 -0.5918,0.24024c-0.23467,0 -0.43871,-0.08024 -0.60937,-0.24024c-0.16,-0.17076 -0.24023,-0.37284 -0.24023,-0.60742v-7.56836c0,-0.23466 0.08023,-0.43179 0.24023,-0.59179c0.17067,-0.17059 0.37471,-0.25586 0.60937,-0.25586c0.23467,0 0.4318,0.08527 0.5918,0.25586zM75.7168,155.21583c0.16,0.16007 0.24023,0.35721 0.24023,0.59179v0.30274c0.04267,-0.04259 0.12095,-0.12786 0.23828,-0.25586c0.11733,-0.128 0.26293,-0.25482 0.43359,-0.38282c0.18133,-0.13858 0.37846,-0.25556 0.5918,-0.35156c0.224,-0.10658 0.45779,-0.16015 0.70312,-0.16015c0.23467,0 0.4318,0.08527 0.5918,0.25586c0.17066,0.16007 0.25586,0.35721 0.25586,0.59179c0,0.2241 -0.08519,0.42122 -0.25586,0.5918c-0.16,0.16 -0.35713,0.24023 -0.5918,0.24023c-0.40533,0 -0.73619,0.09511 -0.99219,0.28711c-0.256,0.18132 -0.45809,0.40025 -0.60742,0.65625c-0.13867,0.256 -0.23377,0.52344 -0.28711,0.80078c-0.05333,0.27724 -0.08008,0.50609 -0.08008,0.6875v4.30469c0,0.23476 -0.08023,0.43684 -0.24023,0.60742c-0.16,0.16 -0.35713,0.24024 -0.5918,0.24024c-0.23467,0 -0.43871,-0.08024 -0.60937,-0.24024c-0.16,-0.17076 -0.24023,-0.37284 -0.24023,-0.60742v-7.56836c0,-0.23466 0.08023,-0.43179 0.24023,-0.59179c0.17067,-0.17059 0.37471,-0.25586 0.60937,-0.25586c0.23467,0 0.4318,0.08527 0.5918,0.25586zM81.06055,155.21583c0.16,0.16007 0.24023,0.35721 0.24023,0.59179v0.28711c0.10667,-0.096 0.23348,-0.20794 0.38281,-0.33594c0.16,-0.13858 0.35217,-0.26539 0.57617,-0.38281c0.224,-0.11742 0.47958,-0.21448 0.76758,-0.28906c0.29867,-0.08542 0.64139,-0.12695 1.02539,-0.12695c0.39467,0 0.7721,0.05836 1.13476,0.17578c0.37333,0.10668 0.70419,0.27209 0.99219,0.49609c0.288,0.224 0.51683,0.50137 0.6875,0.83203c0.17067,0.33066 0.25586,0.715 0.25586,1.15235v5.75976c0,0.23476 -0.08519,0.43684 -0.25586,0.60742c-0.16,0.16 -0.35713,0.24024 -0.5918,0.24024c-0.23467,0 -0.4318,-0.08024 -0.5918,-0.24024c-0.16,-0.17076 -0.24023,-0.37284 -0.24023,-0.60742v-5.56836c0,-0.23458 -0.05845,-0.44358 -0.17578,-0.625c-0.10667,-0.19192 -0.25031,-0.34547 -0.43164,-0.46289c-0.17067,-0.128 -0.3678,-0.22506 -0.5918,-0.28906c-0.21333,-0.064 -0.42729,-0.0957 -0.64062,-0.0957c-0.352,0 -0.67098,0.0634 -0.95898,0.1914c-0.288,0.11727 -0.53366,0.28268 -0.73633,0.4961c-0.192,0.21331 -0.34255,0.47084 -0.44922,0.76953c-0.10667,0.288 -0.1582,0.60204 -0.1582,0.94336v4.64062c0,0.23476 -0.08023,0.43684 -0.24023,0.60742c-0.16,0.16 -0.35713,0.24024 -0.5918,0.24024c-0.23467,0 -0.43871,-0.08024 -0.60937,-0.24024c-0.16,-0.17076 -0.24023,-0.37284 -0.24023,-0.60742v-7.56836c0,-0.23466 0.08023,-0.43179 0.24023,-0.59179c0.17067,-0.17059 0.37471,-0.25586 0.60937,-0.25586c0.23467,0 0.4318,0.08527 0.5918,0.25586zM114.68555,155.21583c0.16,0.16007 0.24023,0.35721 0.24023,0.59179v0.30274c0.04266,-0.04259 0.12094,-0.12786 0.23828,-0.25586c0.11734,-0.128 0.26293,-0.25482 0.43359,-0.38282c0.18132,-0.13858 0.37845,-0.25556 0.5918,-0.35156c0.22399,-0.10658 0.45778,-0.16015 0.70312,-0.16015c0.23466,0 0.4318,0.08527 0.5918,0.25586c0.17066,0.16007 0.25586,0.35721 0.25586,0.59179c0,0.2241 -0.0852,0.42122 -0.25586,0.5918c-0.16001,0.16 -0.35714,0.24023 -0.5918,0.24023c-0.40533,0 -0.73619,0.09511 -0.99219,0.28711c-0.25599,0.18132 -0.45808,0.40025 -0.60742,0.65625c-0.13866,0.256 -0.23377,0.52344 -0.28711,0.80078c-0.05334,0.27724 -0.08008,0.50609 -0.08008,0.6875v4.30469c0,0.23476 -0.08023,0.43684 -0.24023,0.60742c-0.16001,0.16 -0.35714,0.24024 -0.5918,0.24024c-0.23467,0 -0.43872,-0.08024 -0.60937,-0.24024c-0.16,-0.17076 -0.24023,-0.37284 -0.24023,-0.60742v-7.56836c0,-0.23466 0.08023,-0.43179 0.24023,-0.59179c0.17067,-0.17059 0.37472,-0.25586 0.60937,-0.25586c0.23467,0 0.4318,0.08527 0.5918,0.25586zM91.37696,156.43067c-0.33066,0.128 -0.61794,0.33203 -0.86328,0.60937c-0.23467,0.26666 -0.42188,0.61238 -0.56055,1.03907c-0.13867,0.42665 -0.20703,0.93287 -0.20703,1.51953c0,0.58668 0.06837,1.09482 0.20703,1.52148c0.13867,0.416 0.32588,0.76172 0.56055,1.03906c0.24533,0.26674 0.53262,0.46884 0.86328,0.60743c0.34133,0.128 0.7108,0.19336 1.10547,0.19336c0.39467,0 0.75722,-0.06536 1.08789,-0.19336c0.34134,-0.13866 0.62862,-0.34077 0.86328,-0.60743c0.24534,-0.27734 0.43751,-0.62306 0.57617,-1.03906c0.13866,-0.42666 0.20898,-0.9348 0.20898,-1.52148c0,-0.58666 -0.07033,-1.09288 -0.20898,-1.51953c-0.13866,-0.42669 -0.33083,-0.77241 -0.57617,-1.03907c-0.23467,-0.27734 -0.52195,-0.48137 -0.86328,-0.60937c-0.33067,-0.13858 -0.69322,-0.20703 -1.08789,-0.20703c-0.39466,0 -0.76413,0.06845 -1.10547,0.20703zM121.25782,156.39942c-0.27733,0.11724 -0.51308,0.26585 -0.70508,0.44726c-0.18134,0.17059 -0.32498,0.36276 -0.43164,0.57618c-0.10666,0.21324 -0.18689,0.41038 -0.24023,0.59179c-0.05342,0.18142 -0.08512,0.34189 -0.0957,0.48047c-0.01058,0.12926 -0.01562,0.20445 -0.01562,0.22461h5.18359c0,-0.33066 -0.0535,-0.64663 -0.16016,-0.94531c-0.10667,-0.29866 -0.27209,-0.5592 -0.49609,-0.7832c-0.21333,-0.23476 -0.4907,-0.42197 -0.83203,-0.56055c-0.34133,-0.13858 -0.74055,-0.20703 -1.19922,-0.20703c-0.39467,0 -0.73048,0.05836 -1.00781,0.17578zM104.05664,162.54395h3.9043c0.864,0 1.4623,-0.17233 1.79297,-0.51367c0.34133,-0.352 0.51172,-0.82649 0.51172,-1.42383c0,-0.69332 -0.23574,-1.22627 -0.70508,-1.59961c-0.45866,-0.384 -1.07184,-0.57617 -1.83984,-0.57617h-3.66406zM132.91797,159.74317c-0.20267,0.064 -0.44337,0.11253 -0.7207,0.14453c-0.26667,0.032 -0.54899,0.06875 -0.84766,0.11133c-0.288,0.04258 -0.57032,0.09615 -0.84766,0.16015c-0.27733,0.064 -0.52795,0.15911 -0.75195,0.28711c-0.22401,0.11735 -0.40431,0.27285 -0.54297,0.46485c-0.128,0.192 -0.19336,0.43767 -0.19336,0.73633c0,0.23465 0.04853,0.43179 0.14453,0.59179c0.10667,0.14942 0.24039,0.27119 0.40039,0.36719c0.16001,0.08542 0.34031,0.15078 0.54297,0.19336c0.20268,0.032 0.40672,0.04687 0.60937,0.04687c0.30933,0 0.6184,-0.0317 0.92773,-0.0957c0.30932,-0.07458 0.58669,-0.19156 0.83203,-0.35156c0.25599,-0.16 0.45808,-0.37394 0.60742,-0.64063c0.16,-0.26665 0.24023,-0.59753 0.24023,-0.99218v-1.13477zM77.4336,169.29004c0.63028,0.31985 1.15676,0.74895 1.58008,1.28516c0.42332,0.53621 0.74262,1.15154 0.95898,1.84766c0.21636,0.68671 0.32422,1.40135 0.32422,2.14453c0,0.75255 -0.10786,1.47769 -0.32422,2.17383c-0.21636,0.68671 -0.53566,1.29777 -0.95898,1.83398c-0.42332,0.53619 -0.9498,0.96531 -1.58008,1.28516c-0.63028,0.31985 -1.35967,0.47851 -2.1875,0.47851c-0.83723,0 -1.57089,-0.15866 -2.20117,-0.47851c-0.63028,-0.31985 -1.15676,-0.74897 -1.58008,-1.28516c-0.42332,-0.53621 -0.74457,-1.14727 -0.96094,-1.83398c-0.20696,-0.69614 -0.31055,-1.42128 -0.31055,-2.17383c0,-0.74318 0.10359,-1.45782 0.31055,-2.14453c0.21636,-0.69612 0.53762,-1.31145 0.96094,-1.84766c0.42332,-0.53621 0.9498,-0.96531 1.58008,-1.28516c0.63028,-0.31982 1.36394,-0.47851 2.20117,-0.47851c0.82783,0 1.55722,0.15869 2.1875,0.47851zM99.92774,169.16309c0.5268,0.22579 0.9687,0.49426 1.32617,0.80469c0.35746,0.31042 0.62594,0.62974 0.80469,0.95898c0.17875,0.32927 0.26758,0.59347 0.26758,0.79102c0,0.15042 -0.03606,0.29205 -0.11133,0.42383c-0.06586,0.13178 -0.15665,0.2439 -0.26953,0.33789c-0.11289,0.09398 -0.23976,0.16817 -0.38086,0.22461c-0.1317,0.05644 -0.26283,0.08593 -0.39453,0.08593c-0.14111,0 -0.26798,-0.03384 -0.38086,-0.09961c-0.11291,-0.06576 -0.20174,-0.16314 -0.26758,-0.29492c-0.07526,-0.1505 -0.17032,-0.32589 -0.2832,-0.52344c-0.10348,-0.20696 -0.24935,-0.39513 -0.4375,-0.56445c-0.17874,-0.17882 -0.40919,-0.32897 -0.69141,-0.45117c-0.27281,-0.1222 -0.61538,-0.18359 -1.0293,-0.18359c-0.47036,0 -0.88898,0.11843 -1.25586,0.35351c-0.35747,0.22577 -0.66398,0.52178 -0.91797,0.88867c-0.24458,0.36687 -0.43275,0.78551 -0.56445,1.25586c-0.12228,0.46095 -0.18359,0.92611 -0.18359,1.39649c0,0.47975 0.06131,0.95543 0.18359,1.42578c0.1317,0.46095 0.31987,0.87529 0.56445,1.24219c0.25399,0.36696 0.5605,0.66725 0.91797,0.90234c0.36688,0.22576 0.7855,0.33789 1.25586,0.33789c0.41391,0 0.75649,-0.05944 1.0293,-0.18164c0.2822,-0.12238 0.51266,-0.27448 0.69141,-0.45312c0.18814,-0.17875 0.33402,-0.36691 0.4375,-0.56446c0.11288,-0.19747 0.20794,-0.37515 0.2832,-0.53515c0.06586,-0.13178 0.1547,-0.23112 0.26758,-0.29688c0.11288,-0.06576 0.23548,-0.09766 0.36719,-0.09766c0.1317,0 0.26283,0.02755 0.39453,0.08399c0.14111,0.05644 0.26798,0.13258 0.38086,0.22656c0.11291,0.09399 0.20174,0.20611 0.26758,0.33789c0.07526,0.13178 0.11328,0.2734 0.11328,0.42383c0,0.20697 -0.08883,0.47349 -0.26758,0.80273c-0.17874,0.32925 -0.44722,0.65052 -0.80469,0.96094c-0.34806,0.31045 -0.7857,0.57893 -1.3125,0.80469c-0.5268,0.22576 -1.14212,0.33789 -1.84766,0.33789c-0.84664,0 -1.59078,-0.16065 -2.23047,-0.48047c-0.63028,-0.31985 -1.15676,-0.74274 -1.58008,-1.26953c-0.41391,-0.53621 -0.72895,-1.14727 -0.94531,-1.83398c-0.20697,-0.69614 -0.31055,-1.42128 -0.31055,-2.17383c0,-0.74318 0.10358,-1.46209 0.31055,-2.15821c0.21637,-0.69613 0.5314,-1.30719 0.94531,-1.83398c0.42332,-0.53621 0.9498,-0.96531 1.58008,-1.28516c0.63968,-0.31982 1.38383,-0.47851 2.23047,-0.47851c0.70553,0 1.32086,0.11647 1.84766,0.35156zM62.39649,169.2627c0.24458,0.15992 0.45603,0.39038 0.63477,0.69141l4.17773,6.99804v-6.92773c0,-0.28221 0.09737,-0.52121 0.29492,-0.71875c0.20696,-0.19754 0.4479,-0.29688 0.7207,-0.29688c0.28221,0 0.5212,0.09934 0.71875,0.29688c0.20696,0.19754 0.31055,0.43654 0.31055,0.71875v8.9043c0,0.16942 -0.03181,0.32809 -0.09766,0.47851c-0.06585,0.1411 -0.15664,0.26798 -0.26953,0.38086c-0.10348,0.11288 -0.23035,0.20377 -0.38086,0.26953c-0.14111,0.05644 -0.29552,0.08399 -0.46484,0.08399c-0.32925,0 -0.61674,-0.08459 -0.86133,-0.25391c-0.23518,-0.16932 -0.44236,-0.39978 -0.62109,-0.69141l-4.17578,-6.99804v6.92773c0,0.27291 -0.10359,0.51189 -0.31055,0.71875c-0.19755,0.19754 -0.43849,0.29688 -0.7207,0.29688c-0.27281,0 -0.51179,-0.09934 -0.71875,-0.29688c-0.19755,-0.20697 -0.29687,-0.44594 -0.29687,-0.71875v-8.91797c0,-0.32935 0.11834,-0.61257 0.35352,-0.84765c0.23518,-0.23509 0.52072,-0.35157 0.85937,-0.35157c0.32925,0 0.61248,0.08459 0.84766,0.25391zM82.12696,169.16309c0.17874,0.10358 0.30134,0.25993 0.36719,0.4668l2.25781,7.35156l2.27148,-7.35156c0.06585,-0.20689 0.18223,-0.36324 0.35156,-0.4668c0.17874,-0.10356 0.37739,-0.1543 0.59375,-0.1543c0.16933,0 0.32374,0.0319 0.46484,0.09766c0.1411,0.06576 0.25944,0.15035 0.35352,0.25391c0.10348,0.09398 0.18379,0.20806 0.24023,0.33984c0.05644,0.12246 0.08398,0.24498 0.08398,0.36719c0,0.11288 -0.01901,0.21026 -0.05664,0.29492l-3.23047,8.98828c-0.08466,0.24459 -0.22201,0.43898 -0.41016,0.58008c-0.17873,0.1411 -0.39871,0.21094 -0.66211,0.21094c-0.25399,0 -0.47592,-0.07179 -0.66406,-0.21289c-0.18814,-0.14103 -0.32354,-0.33347 -0.4082,-0.57813l-3.21875,-8.98828c-0.03763,-0.08466 -0.05664,-0.18399 -0.05664,-0.29688c0,-0.11288 0.02523,-0.22935 0.07227,-0.35156c0.04703,-0.13153 0.11686,-0.24995 0.21094,-0.35351c0.09407,-0.10356 0.21241,-0.18815 0.35352,-0.25391c0.14111,-0.06576 0.31026,-0.09766 0.50781,-0.09766c0.21636,0 0.4088,0.05074 0.57812,0.1543zM91.76954,169.31934c0.21636,0.20697 0.32422,0.46069 0.32422,0.76172v8.98828c0,0.3011 -0.10785,0.55485 -0.32422,0.76172c-0.20696,0.20687 -0.46069,0.31055 -0.76172,0.31055c-0.30103,0 -0.55476,-0.10368 -0.76172,-0.31055c-0.20696,-0.20694 -0.31055,-0.46069 -0.31055,-0.76172v-8.98828c0,-0.30113 0.10359,-0.55485 0.31055,-0.76172c0.20696,-0.20687 0.46069,-0.31055 0.76172,-0.31055c0.30102,0 0.55475,0.10368 0.76172,0.31055zM110.45508,169.00879c0.25398,0 0.46969,0.08894 0.64844,0.26758c0.17875,0.17875 0.26953,0.39446 0.26953,0.64844c0,0.26348 -0.09078,0.48542 -0.26953,0.66406c-0.17874,0.17865 -0.39445,0.26758 -0.64844,0.26758h-4.93945v2.41406h4.14844c0.26339,0 0.48532,0.09303 0.66406,0.28125c0.17875,0.17872 0.26758,0.39638 0.26758,0.65039c0,0.25391 -0.08883,0.47389 -0.26758,0.66211c-0.17873,0.17865 -0.40066,0.26758 -0.66406,0.26758h-4.14844v3.16211h4.93945c0.25398,0 0.46969,0.08893 0.64844,0.26758c0.17875,0.17874 0.26953,0.39445 0.26953,0.64844c0,0.26348 -0.09078,0.48541 -0.26953,0.66406c-0.17874,0.17864 -0.39445,0.26758 -0.64844,0.26758h-5.98242c-0.13169,0 -0.26478,-0.0191 -0.39648,-0.05664c-0.1317,-0.04712 -0.25235,-0.11261 -0.36523,-0.19727c-0.10348,-0.09398 -0.18807,-0.21046 -0.25391,-0.35156c-0.06584,-0.1411 -0.09961,-0.31222 -0.09961,-0.50977v-8.91797c0,-0.08466 0.01475,-0.18639 0.04297,-0.30859c0.02822,-0.13178 0.08331,-0.25431 0.16797,-0.36719c0.08466,-0.1222 0.19874,-0.22153 0.33984,-0.29687c0.15052,-0.08466 0.33869,-0.12696 0.56445,-0.12696zM73.86329,171.0127c-0.37628,0.22576 -0.68705,0.52181 -0.93164,0.88867c-0.24458,0.36689 -0.42422,0.78551 -0.53711,1.25586c-0.11288,0.46095 -0.16797,0.93038 -0.16797,1.41016c0,0.47975 0.05508,0.95543 0.16797,1.42578c0.11288,0.46095 0.29252,0.87957 0.53711,1.25586c0.24458,0.36689 0.55536,0.66291 0.93164,0.88867c0.38569,0.22576 0.84661,0.33984 1.38281,0.33984c0.53621,0 0.99286,-0.11408 1.36914,-0.33984c0.37628,-0.22576 0.6851,-0.52178 0.92969,-0.88867c0.24459,-0.37629 0.42422,-0.79491 0.53711,-1.25586c0.11288,-0.47035 0.16992,-0.94603 0.16992,-1.42578c0,-0.47978 -0.05704,-0.94921 -0.16992,-1.41016c-0.11288,-0.47035 -0.29252,-0.88897 -0.53711,-1.25586c-0.24458,-0.36686 -0.5534,-0.66291 -0.92969,-0.88867c-0.37628,-0.22576 -0.83293,-0.33984 -1.36914,-0.33984c-0.53621,0 -0.99712,0.11408 -1.38281,0.33984z" data-paper-data="{&quot;origPos&quot;:null}" id="path1472" fill="#1eff00" stroke="none" stroke-width="1" stroke-miterlimit="10" stroke-dashoffset="0"/><path d="M69.10286,187.56398c1.27594,0 2.33407,4.30813 3.36633,5.0581c1.03226,0.74997 5.45651,0.42501 5.8508,1.6385c0.39429,1.21349 -3.37601,3.55113 -3.77029,4.76462c-0.39429,1.21349 1.28192,5.32078 0.24966,6.07075c-1.03226,0.75001 -4.42056,-2.1134 -5.6965,-2.1134c-1.27594,0 -4.66424,2.86341 -5.6965,2.1134c-1.03226,-0.74997 0.64395,-4.85726 0.24966,-6.07075c-0.39429,-1.21349 -4.16458,-3.55113 -3.77029,-4.76462c0.39429,-1.21349 4.81854,-0.88853 5.8508,-1.6385c1.03226,-0.74997 2.09039,-5.0581 3.36633,-5.0581z" data-paper-data="{&quot;origPos&quot;:null}" id="path1428-5-20" fill="#1eff00" stroke="none" stroke-width="0.88188" stroke-miterlimit="4" stroke-dashoffset="17.35"/><path d="M92.03985,187.56398c1.27594,0 2.33407,4.30813 3.36633,5.0581c1.03226,0.74997 5.45651,0.42501 5.8508,1.6385c0.39429,1.21349 -3.376,3.55113 -3.77029,4.76462c-0.39429,1.21349 1.28192,5.32078 0.24968,6.07075c-1.03226,0.75001 -4.42056,-2.1134 -5.6965,-2.1134c-1.27594,0 -4.66424,2.86341 -5.69649,2.1134c-1.03226,-0.74997 0.64395,-4.85726 0.24966,-6.07075c-0.39429,-1.21349 -4.16458,-3.55113 -3.77029,-4.76462c0.39429,-1.21349 4.81854,-0.88853 5.8508,-1.6385c1.03226,-0.74997 2.09039,-5.0581 3.36633,-5.0581z" data-paper-data="{&quot;origPos&quot;:null}" id="path1428-0-2-0" fill="#1eff00" stroke="none" stroke-width="0.88188" stroke-miterlimit="4" stroke-dashoffset="17.35"/><path d="M114.97681,195.50976c0.1276,0 0.23342,0.43079 0.33664,0.50578c0.10322,0.07483 0.54565,0.04233 0.58508,0.16403c0.03942,0.12132 -0.33759,0.35528 -0.37705,0.47645c-0.03942,0.12132 0.1282,0.53208 0.02494,0.60707c-0.10322,0.07483 -0.44206,-0.21128 -0.56965,-0.21128c-0.1276,0 -0.46642,0.28649 -0.56965,0.21128c-0.10322,-0.07483 0.0644,-0.48571 0.02494,-0.60707c-0.03942,-0.12132 -0.41646,-0.35528 -0.37705,-0.47645c0.03942,-0.12132 0.48185,-0.08882 0.58508,-0.16403c0.10322,-0.07483 0.20905,-0.50578 0.33664,-0.50578z" data-paper-data="{&quot;origPos&quot;:null}" id="path1428-0-6-3-0" fill="#1eff00" stroke="none" stroke-width="0.08819" stroke-miterlimit="4" stroke-dashoffset="17.35"/></g></g></svg>