<svg version="1.1" xmlns="http://www.w3.org/2000/svg" xmlns:xlink="http://www.w3.org/1999/xlink" width="372.21489" height="68.64262" viewBox="0,0,372.21489,68.64262"><g transform="translate(-53.89255,-145.67869)"><g data-paper-data="{&quot;isPaintingLayer&quot;:true}" fill-rule="nonzero" stroke-linecap="butt" stroke-linejoin="miter" stroke-dasharray="" style="mix-blend-mode: normal"><path d="M425.00973,146.42869c0.19313,0 0.34772,0.15458 0.34772,0.34772v66.4453c0,0.19313 -0.15458,0.34961 -0.34772,0.34961h-370.01757c-0.19313,0 -0.34961,-0.15647 -0.34961,-0.34961v-66.4453c0,-0.19313 0.15647,-0.34772 0.34961,-0.34772z" fill="#1e1e1e" stroke="#1eff00" stroke-width="1.5" stroke-miterlimit="4" stroke-dashoffset="17.35"/><path d="M65.91797,152.71484c0.63596,0 1.27224,0.10658 1.9082,0.32227c0.63596,0.21556 1.20823,0.57735 1.71484,1.08398c0.50662,0.49583 0.91592,1.15343 1.22851,1.97266c0.31259,0.80842 0.46875,1.80455 0.46875,2.99023c0,1.1965 -0.15616,2.2062 -0.46875,3.0254c-0.31259,0.80844 -0.7219,1.46409 -1.22851,1.9707c-0.50662,0.49572 -1.07888,0.85267 -1.71484,1.06836c-0.63597,0.21568 -1.27224,0.32226 -1.9082,0.32226h-3.83203c-0.16169,0 -0.31785,-0.02615 -0.46875,-0.08008c-0.1509,-0.0645 -0.28572,-0.15192 -0.4043,-0.25976c-0.11858,-0.10769 -0.21558,-0.24058 -0.29102,-0.40234c-0.07546,-0.16172 -0.11328,-0.34114 -0.11328,-0.53516v-10.21875c0,-0.34492 0.12513,-0.64074 0.37305,-0.88867c0.24792,-0.24794 0.54859,-0.3711 0.9043,-0.3711zM83.16992,152.95703c0.16169,0.16171 0.24219,0.36251 0.24219,0.59961v3.83203c0.0539,-0.06475 0.14119,-0.1685 0.25977,-0.30859c0.12935,-0.14017 0.30004,-0.27983 0.51562,-0.41992c0.21558,-0.15086 0.48522,-0.28083 0.80859,-0.38868c0.32337,-0.10784 0.70649,-0.16015 1.14844,-0.16015c0.58207,0 1.10971,0.11162 1.58398,0.33789c0.47428,0.22637 0.87874,0.55032 1.21289,0.9707c0.34492,0.4096 0.60971,0.90621 0.79297,1.48828c0.18323,0.57129 0.27539,1.20076 0.27539,1.89063c0,0.68984 -0.10379,1.32126 -0.30859,1.89258c-0.2048,0.57128 -0.48413,1.06594 -0.83984,1.48632c-0.34493,0.40968 -0.75423,0.72881 -1.22852,0.95508c-0.4635,0.22627 -0.96011,0.33985 -1.48828,0.33985c-0.32338,0 -0.60951,-0.01658 -0.85742,-0.04883c-0.24792,-0.03251 -0.47293,-0.08677 -0.67773,-0.16211c-0.20481,-0.08643 -0.40559,-0.19496 -0.59961,-0.32422c-0.18324,-0.12941 -0.38207,-0.28557 -0.59766,-0.46875v0.14648c0,0.23726 -0.0805,0.44289 -0.24219,0.61524c-0.1617,0.16176 -0.36053,0.24219 -0.59766,0.24219c-0.23713,0 -0.44276,-0.08043 -0.61523,-0.24219c-0.16169,-0.1725 -0.24219,-0.37813 -0.24219,-0.61524v-11.05859c0,-0.23705 0.0805,-0.43784 0.24219,-0.59961c0.17245,-0.16176 0.37808,-0.24219 0.61523,-0.24219c0.23714,0 0.43597,0.08043 0.59766,0.24219zM118.75,152.71484c0.63597,0 1.27224,0.10658 1.9082,0.32227c0.63597,0.21556 1.20823,0.57735 1.71485,1.08398c0.50661,0.49583 0.91592,1.15343 1.22851,1.97266c0.31259,0.80842 0.46875,1.80455 0.46875,2.99023c0,1.1965 -0.15616,2.2062 -0.46875,3.0254c-0.31259,0.80844 -0.7219,1.46409 -1.22851,1.9707c-0.50662,0.49572 -1.07888,0.85267 -1.71485,1.06836c-0.63596,0.21568 -1.27223,0.32226 -1.9082,0.32226h-3.83203c-0.16169,0 -0.31785,-0.02615 -0.46875,-0.08008c-0.1509,-0.0645 -0.28572,-0.15192 -0.4043,-0.25976c-0.11855,-0.10769 -0.21555,-0.24058 -0.29101,-0.40234c-0.07547,-0.16172 -0.11329,-0.34114 -0.11329,-0.53516v-10.21875c0,-0.34492 0.12514,-0.64074 0.37305,-0.88867c0.24792,-0.24794 0.54859,-0.3711 0.9043,-0.3711zM62.7168,163.77344h2.83008c0.63597,0 1.18978,-0.10658 1.66406,-0.32227c0.47428,-0.22637 0.86905,-0.54064 1.18164,-0.93945c0.31259,-0.4096 0.54441,-0.89942 0.69531,-1.4707c0.1509,-0.58208 0.22656,-1.23482 0.22656,-1.95704c0,-0.7114 -0.07566,-1.35254 -0.22656,-1.92382c-0.15091,-0.58208 -0.38272,-1.07189 -0.69531,-1.47071c-0.31259,-0.4095 -0.70736,-0.72181 -1.18164,-0.9375c-0.47428,-0.22626 -1.0281,-0.33984 -1.66406,-0.33984h-2.83008zM115.54883,163.77344h2.83008c0.63596,0 1.19173,-0.10658 1.66601,-0.32227c0.47428,-0.22637 0.8671,-0.54064 1.17969,-0.93945c0.31259,-0.4096 0.54441,-0.89942 0.69531,-1.4707c0.15091,-0.58208 0.22656,-1.23482 0.22656,-1.95704c0,-0.7114 -0.07565,-1.35254 -0.22656,-1.92382c-0.1509,-0.58208 -0.38272,-1.07189 -0.69531,-1.47071c-0.31259,-0.4095 -0.70541,-0.72181 -1.17969,-0.9375c-0.47428,-0.22626 -1.03005,-0.33984 -1.66601,-0.33984h-2.83008zM77.97852,156.27148c0.53895,0.18326 1.00258,0.45289 1.39062,0.8086c0.39882,0.34492 0.71113,0.77071 0.9375,1.27734c0.22637,0.50661 0.33984,1.08372 0.33984,1.73047c0,0.39877 -0.097,0.69945 -0.29101,0.9043c-0.19402,0.20485 -0.41904,0.30859 -0.67773,0.30859h-5.91797c0,0.02142 0.00479,0.11363 0.01562,0.27539c0.02157,0.15081 0.05938,0.33314 0.11328,0.54883c0.06468,0.21556 0.15002,0.44738 0.25781,0.69531c0.11858,0.23708 0.27473,0.45726 0.46875,0.66211c0.19402,0.20485 0.43264,0.37749 0.71289,0.51758c0.29104,0.12926 0.64118,0.19531 1.05078,0.19531c0.33416,0 0.61834,-0.02811 0.85547,-0.08203c0.23713,-0.05392 0.4476,-0.13434 0.63086,-0.24219c0.18325,-0.10771 0.35105,-0.24253 0.50195,-0.40429c0.15091,-0.17258 0.30222,-0.37139 0.45312,-0.59766c0.08622,-0.12926 0.18322,-0.22147 0.29102,-0.27539c0.10779,-0.05392 0.22127,-0.08008 0.33984,-0.08008c0.19402,0 0.37151,0.06889 0.5332,0.20899c0.16169,0.14002 0.24219,0.31751 0.24219,0.5332c0,0.12936 -0.07082,0.32333 -0.21094,0.58203c-0.14013,0.2587 -0.36514,0.51865 -0.67773,0.77734c-0.30182,0.2587 -0.69658,0.48372 -1.18164,0.67774c-0.48506,0.19401 -1.0767,0.29101 -1.77734,0.29101c-0.71142,0 -1.34769,-0.12802 -1.9082,-0.38671c-0.56051,-0.2587 -1.03578,-0.60399 -1.42383,-1.03516c-0.37727,-0.44195 -0.66825,-0.95504 -0.87305,-1.53711c-0.19402,-0.58207 -0.29102,-1.19023 -0.29102,-1.82617c0,-0.65754 0.10379,-1.2773 0.30859,-1.85938c0.2048,-0.59283 0.49578,-1.10398 0.87305,-1.53515c0.38805,-0.43115 0.85167,-0.7716 1.39062,-1.01953c0.53895,-0.2587 1.14225,-0.38868 1.81055,-0.38868c0.61441,0 1.18472,0.09221 1.71289,0.27539zM131.58789,156.66016c0.65752,0.43116 0.98633,1.07227 0.98633,1.92382v6.03125c0,0.23726 -0.0805,0.44094 -0.24219,0.61329c-0.1617,0.16176 -0.36248,0.24414 -0.59961,0.24414c-0.23713,0 -0.44081,-0.08238 -0.61328,-0.24414c-0.16169,-0.1725 -0.24414,-0.37618 -0.24414,-0.61329v-0.25976c-0.4096,0.44193 -0.87808,0.73969 -1.40625,0.89062c-0.51739,0.15093 -1.06637,0.22461 -1.64844,0.22461c-0.36649,0 -0.73796,-0.04752 -1.11523,-0.14453c-0.36649,-0.10769 -0.7021,-0.26869 -1.00391,-0.48437c-0.29105,-0.21559 -0.5277,-0.48522 -0.71094,-0.8086c-0.18325,-0.32335 -0.27539,-0.71132 -0.27539,-1.16406c0,-0.51739 0.1038,-0.95 0.3086,-1.29492c0.2048,-0.35581 0.47929,-0.64678 0.82422,-0.87305c0.34493,-0.22627 0.73774,-0.3989 1.17968,-0.51758c0.45272,-0.11842 0.928,-0.20389 1.42383,-0.25781c0.57129,-0.06475 1.01843,-0.1356 1.3418,-0.21094c0.32337,-0.08617 0.56487,-0.18317 0.72656,-0.29101c0.16169,-0.10784 0.25869,-0.231 0.29102,-0.3711c0.04311,-0.13999 0.06445,-0.29615 0.06445,-0.46875c0,-0.20477 -0.05916,-0.38227 -0.17773,-0.5332c-0.11859,-0.15093 -0.26794,-0.27604 -0.45118,-0.37305c-0.18323,-0.097 -0.38886,-0.16589 -0.61523,-0.20898c-0.22636,-0.05392 -0.44653,-0.08203 -0.66211,-0.08203c-0.38803,0 -0.7023,0.0329 -0.93945,0.09766c-0.23715,0.0645 -0.43113,0.14996 -0.58203,0.25781c-0.15091,0.10776 -0.27409,0.23774 -0.3711,0.38867c-0.08622,0.15083 -0.16672,0.30699 -0.24219,0.46875c-0.06465,0.12926 -0.15681,0.22626 -0.27539,0.29101c-0.10779,0.05393 -0.22126,0.08204 -0.33984,0.08204c-0.21559,0 -0.41442,-0.07085 -0.59766,-0.21094c-0.18325,-0.14012 -0.27539,-0.3341 -0.27539,-0.58203c0,-0.09701 0.02814,-0.21538 0.08203,-0.35547c0.09701,-0.22627 0.22503,-0.44838 0.38672,-0.66406c0.16169,-0.22647 0.37896,-0.42531 0.64844,-0.59766c0.28026,-0.17247 0.61875,-0.30729 1.01758,-0.4043c0.4096,-0.10784 0.90621,-0.16211 1.48828,-0.16211c1.09946,0 1.9724,0.22214 2.61914,0.66407zM148.51172,156.28711c0.47428,0.18326 0.86225,0.40537 1.16406,0.66406c0.3126,0.2587 0.54441,0.52836 0.69531,0.8086c0.15091,0.28026 0.22657,0.51692 0.22657,0.71093c0,0.24797 -0.08534,0.44194 -0.25782,0.58203c-0.17246,0.12926 -0.36644,0.19336 -0.58203,0.19336c-0.15089,0 -0.29056,-0.03794 -0.41992,-0.11328c-0.12933,-0.07551 -0.22149,-0.20354 -0.27539,-0.38672c-0.0539,-0.17239 -0.14603,-0.34019 -0.27539,-0.50195c-0.11858,-0.16176 -0.27473,-0.30824 -0.46875,-0.4375c-0.18324,-0.12951 -0.40341,-0.2313 -0.66211,-0.30664c-0.24792,-0.07534 -0.52436,-0.11328 -0.82617,-0.11328c-0.33415,0 -0.6678,0.06605 -1.00196,0.19531c-0.32337,0.11855 -0.61919,0.31255 -0.88867,0.58203c-0.25869,0.26948 -0.46917,0.62446 -0.63086,1.06641c-0.16168,0.43114 -0.24218,0.95393 -0.24218,1.56836c0,0.6144 0.0805,1.13719 0.24218,1.56836c0.16169,0.43114 0.37216,0.7813 0.63086,1.05078c0.26948,0.26958 0.5653,0.4684 0.88867,0.59765c0.33416,0.11868 0.66781,0.17774 1.00196,0.17774c0.30182,0 0.57826,-0.03599 0.82617,-0.11133c0.25871,-0.07559 0.47888,-0.17933 0.66211,-0.30859c0.19402,-0.12929 0.35017,-0.27379 0.46875,-0.43555c0.12936,-0.16179 0.22149,-0.32961 0.27539,-0.50195c0.05387,-0.18336 0.14603,-0.31334 0.27539,-0.38867c0.12935,-0.07559 0.26902,-0.11329 0.41992,-0.11329c0.21558,0 0.40956,0.07085 0.58203,0.21094c0.18324,0.12939 0.27539,0.31173 0.27539,0.54883c0,0.11858 -0.05431,0.31934 -0.16211,0.59961c-0.10778,0.26948 -0.30177,0.54398 -0.58203,0.82422c-0.28025,0.28016 -0.66822,0.52845 -1.16406,0.74414c-0.48506,0.21568 -1.11164,0.32226 -1.87695,0.32226c-0.63597,0 -1.22761,-0.11357 -1.77735,-0.33984c-0.53895,-0.23713 -1.00742,-0.56399 -1.40625,-0.98437c-0.39881,-0.42039 -0.71113,-0.92184 -0.9375,-1.50391c-0.22636,-0.59286 -0.33984,-1.24562 -0.33984,-1.95703c0,-0.72222 0.11348,-1.37499 0.33984,-1.95703c0.22637,-0.59286 0.53868,-1.09915 0.9375,-1.51953c0.39883,-0.42049 0.8673,-0.74444 1.40625,-0.97071c0.54974,-0.2371 1.14138,-0.35547 1.77735,-0.35547c0.64674,0 1.20736,0.097 1.68164,0.29102zM157.36914,156.27148c0.53895,0.18326 1.00258,0.45289 1.39063,0.8086c0.39881,0.34492 0.71113,0.77071 0.9375,1.27734c0.22636,0.50661 0.33984,1.08372 0.33984,1.73047c0,0.39877 -0.097,0.69945 -0.29102,0.9043c-0.19402,0.20485 -0.42099,0.30859 -0.67968,0.30859h-5.91797c0,0.02142 0.00674,0.11363 0.01758,0.27539c0.02156,0.15081 0.05938,0.33314 0.11328,0.54883c0.06468,0.21556 0.15002,0.44738 0.25781,0.69531c0.11858,0.23708 0.27473,0.45726 0.46875,0.66211c0.19402,0.20485 0.43068,0.37749 0.71094,0.51758c0.29103,0.12926 0.64313,0.19531 1.05273,0.19531c0.33414,0 0.61832,-0.02811 0.85547,-0.08203c0.23713,-0.05392 0.4476,-0.13434 0.63086,-0.24219c0.18325,-0.10771 0.35105,-0.24253 0.50195,-0.40429c0.15091,-0.17258 0.30222,-0.37139 0.45313,-0.59766c0.08622,-0.12926 0.18322,-0.22147 0.29101,-0.27539c0.1078,-0.05392 0.21932,-0.08008 0.33789,-0.08008c0.19402,0 0.37347,0.06889 0.53516,0.20899c0.16169,0.14002 0.24219,0.31751 0.24219,0.5332c0,0.12936 -0.07082,0.32333 -0.21094,0.58203c-0.14013,0.2587 -0.36709,0.51865 -0.67969,0.77734c-0.30181,0.2587 -0.69463,0.48372 -1.17968,0.67774c-0.48506,0.19401 -1.07671,0.29101 -1.77735,0.29101c-0.71142,0 -1.34769,-0.12802 -1.9082,-0.38671c-0.56051,-0.2587 -1.03578,-0.60399 -1.42383,-1.03516c-0.37727,-0.44195 -0.66825,-0.95504 -0.87305,-1.53711c-0.19401,-0.58207 -0.29101,-1.19023 -0.29101,-1.82617c0,-0.65754 0.10184,-1.2773 0.30664,-1.85938c0.2048,-0.59283 0.49773,-1.10398 0.875,-1.53515c0.38804,-0.43115 0.84972,-0.7716 1.38867,-1.01953c0.53895,-0.2587 1.1442,-0.38868 1.8125,-0.38868c0.61441,0 1.18472,0.09221 1.71289,0.27539zM98.27344,156.36914c0.17247,0.16171 0.25781,0.36055 0.25781,0.59766v7.64843c0,0.23726 -0.08534,0.44094 -0.25781,0.61329c-0.16167,0.16176 -0.3605,0.24414 -0.59766,0.24414c-0.23713,0 -0.43792,-0.08238 -0.59961,-0.24414c-0.16169,-0.1725 -0.24219,-0.37618 -0.24219,-0.61329v-0.29101c-0.10779,0.09701 -0.24261,0.21537 -0.4043,0.35547c-0.1509,0.12926 -0.34004,0.25241 -0.56641,0.37109c-0.22636,0.11868 -0.4892,0.22242 -0.79101,0.3086c-0.29103,0.07533 -0.63148,0.11132 -1.01953,0.11132v0.00196c-0.39882,0 -0.78679,-0.05427 -1.16406,-0.16211c-0.36649,-0.11866 -0.69529,-0.29131 -0.98633,-0.51758c-0.29103,-0.22637 -0.52284,-0.50764 -0.69531,-0.8418c-0.17247,-0.33413 -0.25781,-0.72211 -0.25781,-1.16406v-5.82031c0,-0.23706 0.0805,-0.4359 0.24219,-0.59766c0.17247,-0.17235 0.37811,-0.25781 0.61523,-0.25781c0.23714,0 0.43597,0.08546 0.59766,0.25781c0.16169,0.16171 0.24219,0.36055 0.24219,0.59766v5.62695c0,0.24799 0.05432,0.4633 0.16211,0.64648c0.11856,0.18334 0.26307,0.33949 0.43555,0.46875c0.18324,0.11843 0.38402,0.21064 0.59961,0.2754c0.22636,0.06475 0.44652,0.09765 0.66211,0.09765c0.35571,0 0.67967,-0.05906 0.9707,-0.17773c0.29104,-0.12924 0.53255,-0.3019 0.72656,-0.51758c0.2048,-0.21559 0.36096,-0.46872 0.46875,-0.75977c0.10779,-0.3018 0.16211,-0.62578 0.16211,-0.9707v-4.68945c0,-0.23706 0.0805,-0.4359 0.24219,-0.59766c0.1617,-0.17235 0.36248,-0.25976 0.59961,-0.25976c0.23714,0 0.43597,0.08741 0.59766,0.25976zM105.12695,156.41797c0.4635,0.20482 0.85147,0.43662 1.16407,0.69531v-0.14648c0,-0.23706 0.08049,-0.4359 0.24218,-0.59766c0.1617,-0.17235 0.36053,-0.25781 0.59766,-0.25781c0.23713,0 0.43792,0.08546 0.59961,0.25781c0.17247,0.16171 0.25781,0.36055 0.25781,0.59766v8.29492c0,0.53893 -0.11347,1.02875 -0.33984,1.4707c-0.21558,0.44195 -0.51141,0.82022 -0.88867,1.13281c-0.37727,0.32323 -0.81956,0.57155 -1.32618,0.74415c-0.50661,0.18318 -1.05074,0.27343 -1.63281,0.27343c-0.63596,0 -1.18009,-0.08042 -1.63281,-0.24219c-0.45272,-0.1508 -0.831,-0.33314 -1.13281,-0.54882c-0.30182,-0.2049 -0.52199,-0.42022 -0.66211,-0.64649c-0.14012,-0.21566 -0.21094,-0.38832 -0.21094,-0.51758c0,-0.2155 0.07082,-0.40464 0.21094,-0.5664c0.14013,-0.16177 0.30793,-0.24219 0.50195,-0.24219c0.19403,0 0.38802,0.10179 0.58203,0.30664c0.14014,0.16159 0.2798,0.30125 0.41992,0.41992c0.14012,0.12926 0.29628,0.23805 0.46875,0.32422c0.18324,0.08618 0.38887,0.15027 0.61524,0.19336c0.23714,0.04309 0.51647,0.06445 0.83984,0.06445c0.34493,0 0.66889,-0.04273 0.9707,-0.1289c0.30181,-0.07552 0.56465,-0.20549 0.79102,-0.38867c0.22637,-0.17248 0.40582,-0.39747 0.53516,-0.67774c0.12936,-0.26945 0.19336,-0.59343 0.19336,-0.9707v-1.06836c-0.10779,0.11855 -0.24261,0.25337 -0.4043,0.4043c-0.16168,0.14022 -0.35566,0.27503 -0.58203,0.40429c-0.22636,0.12926 -0.49116,0.24284 -0.79297,0.33985c-0.30181,0.08617 -0.65196,0.1289 -1.05078,0.1289c-0.58207,0 -1.12135,-0.09025 -1.61719,-0.27343c-0.48506,-0.18326 -0.90406,-0.46453 -1.25977,-0.8418c-0.34493,-0.37725 -0.61457,-0.86222 -0.80859,-1.45508c-0.19402,-0.59286 -0.29102,-1.29315 -0.29102,-2.10156c0,-0.81923 0.10668,-1.51949 0.32227,-2.10156c0.21558,-0.59284 0.50171,-1.07781 0.85742,-1.45508c0.36649,-0.38811 0.78744,-0.67424 1.26172,-0.85742c0.48506,-0.18319 0.9962,-0.27539 1.53516,-0.27539c0.65752,0 1.21329,0.10374 1.66601,0.30859zM135.28906,156.36914c0.16169,0.16171 0.24219,0.36055 0.24219,0.59766v0.29101c0.10779,-0.09701 0.23777,-0.21058 0.38867,-0.33984c0.16168,-0.14002 0.35566,-0.26804 0.58203,-0.38672c0.22636,-0.11868 0.48436,-0.21568 0.77539,-0.29102c0.30182,-0.08617 0.64711,-0.13085 1.03516,-0.13085c0.39883,0 0.78195,0.05905 1.14844,0.17773c0.37726,0.10789 0.71092,0.27568 1.00195,0.50195c0.29103,0.22635 0.52284,0.50764 0.69531,0.8418c0.17248,0.33416 0.25782,0.72213 0.25782,1.16406v5.82031c0,0.23726 -0.08534,0.44094 -0.25782,0.61329c-0.16169,0.16176 -0.36053,0.24414 -0.59765,0.24414c-0.23714,0 -0.43792,-0.08238 -0.59961,-0.24414c-0.16169,-0.1725 -0.24219,-0.37618 -0.24219,-0.61329v-5.62695c0,-0.2372 -0.05916,-0.44768 -0.17773,-0.63086c-0.10778,-0.19391 -0.25425,-0.35007 -0.4375,-0.46875c-0.17246,-0.12926 -0.37129,-0.22626 -0.59766,-0.29101c-0.21558,-0.06476 -0.4309,-0.09766 -0.64648,-0.09766c-0.35571,0 -0.67967,0.0641 -0.97071,0.19336c-0.29103,0.11847 -0.53739,0.28627 -0.74219,0.50195c-0.19402,0.21559 -0.34533,0.47359 -0.45312,0.77539c-0.10779,0.29103 -0.16211,0.61014 -0.16211,0.95508v4.68945c0,0.23726 -0.0805,0.44094 -0.24219,0.61329c-0.1617,0.16176 -0.36248,0.24218 -0.59961,0.24218c-0.23713,0 -0.44081,-0.08042 -0.61328,-0.24218c-0.16169,-0.1725 -0.24219,-0.37618 -0.24219,-0.61329v-7.64843c0,-0.23706 0.0805,-0.4359 0.24219,-0.59766c0.17248,-0.17235 0.37616,-0.25976 0.61328,-0.25976c0.23714,0 0.43792,0.08741 0.59961,0.25976zM75.2793,157.56445c-0.28026,0.11863 -0.51692,0.26995 -0.71094,0.45313c-0.18324,0.17237 -0.32971,0.36634 -0.4375,0.58203c-0.10779,0.21563 -0.18829,0.41447 -0.24219,0.59766c-0.05385,0.18328 -0.08682,0.34623 -0.09766,0.48632c-0.01083,0.12826 -0.01562,0.20389 -0.01562,0.22657h5.23828c0,-0.33416 -0.05432,-0.65327 -0.16211,-0.95508c-0.10778,-0.30191 -0.27363,-0.56475 -0.5,-0.79102c-0.21558,-0.23718 -0.49687,-0.42631 -0.8418,-0.5664c-0.34493,-0.1401 -0.74939,-0.21094 -1.21289,-0.21094c-0.39883,0 -0.73732,0.05906 -1.01758,0.17773zM154.66992,157.56445c-0.28026,0.11863 -0.51887,0.26995 -0.71289,0.45313c-0.18324,0.17237 -0.32775,0.36634 -0.43555,0.58203c-0.10779,0.21563 -0.18829,0.41447 -0.24218,0.59766c-0.05385,0.18328 -0.08682,0.34623 -0.09766,0.48632c-0.01083,0.12826 -0.01562,0.20389 -0.01562,0.22657h5.23828c0,-0.33416 -0.05432,-0.65327 -0.16211,-0.95508c-0.10778,-0.30191 -0.27363,-0.56475 -0.5,-0.79102c-0.21558,-0.23718 -0.49687,-0.42631 -0.8418,-0.5664c-0.34493,-0.1401 -0.74939,-0.21094 -1.21289,-0.21094c-0.39883,0 -0.73732,0.05906 -1.01758,0.17773zM84.76953,157.77539c-0.31259,0.18326 -0.57543,0.43155 -0.79101,0.74414c-0.21557,0.30181 -0.38338,0.65197 -0.50195,1.05078c-0.10779,0.38806 -0.16211,0.79735 -0.16211,1.22852c0,0.42038 0.05432,0.8297 0.16211,1.22851c0.11857,0.39882 0.28637,0.74895 0.50195,1.05078c0.21558,0.30186 0.47842,0.54534 0.79101,0.72852c0.32337,0.18318 0.69,0.27344 1.09961,0.27344c0.39882,0 0.75577,-0.09026 1.06836,-0.27344c0.32337,-0.18323 0.59301,-0.42671 0.80859,-0.72852c0.22636,-0.30183 0.39221,-0.65196 0.5,-1.05078c0.11858,-0.39881 0.17773,-0.80813 0.17773,-1.22851c0,-0.43117 -0.05916,-0.84046 -0.17773,-1.22852c-0.10778,-0.39881 -0.27363,-0.74897 -0.5,-1.05078c-0.21558,-0.31267 -0.48522,-0.56096 -0.80859,-0.74414c-0.31259,-0.18318 -0.66953,-0.27539 -1.06836,-0.27539c-0.4096,0 -0.77624,0.09221 -1.09961,0.27539zM101.7793,158.3418c-0.47428,0.5605 -0.71094,1.37911 -0.71094,2.45703c0,1.07789 0.23666,1.89653 0.71094,2.45703c0.47427,0.54974 1.12704,0.82617 1.95703,0.82617c0.82999,0 1.47595,-0.27643 1.93945,-0.82617c0.47428,-0.5605 0.71289,-1.37914 0.71289,-2.45703c0,-1.07792 -0.23861,-1.89653 -0.71289,-2.45703c-0.4635,-0.56051 -1.10946,-0.8418 -1.93945,-0.8418c-0.82999,0 -1.48276,0.28129 -1.95703,0.8418zM130.4707,160.94531c-0.2048,0.06476 -0.4463,0.11228 -0.72656,0.14453c-0.26948,0.03226 -0.55561,0.0702 -0.85742,0.11328c-0.29104,0.04309 -0.57717,0.09736 -0.85742,0.16211c-0.28025,0.06476 -0.5334,0.16176 -0.75977,0.29102c-0.22637,0.11858 -0.40871,0.27473 -0.54883,0.46875c-0.12933,0.19402 -0.19336,0.44233 -0.19336,0.74414c0,0.23708 0.04753,0.43589 0.14454,0.59766c0.10778,0.15093 0.2426,0.27604 0.40429,0.37304c0.16169,0.08618 0.34598,0.15028 0.55078,0.19336c0.20481,0.03226 0.40848,0.04883 0.61328,0.04883c0.3126,0 0.62491,-0.0329 0.9375,-0.09765c0.3126,-0.07534 0.59389,-0.19371 0.8418,-0.35547c0.2587,-0.16169 0.46238,-0.37701 0.61328,-0.64649c0.16169,-0.26948 0.24219,-0.60509 0.24219,-1.0039v-1.14649zM67.03321,167.38477c0.4635,0 0.90579,0.08042 1.32617,0.24218c0.43116,0.15091 0.80944,0.36622 1.13281,0.64649c0.32338,0.26948 0.58137,0.59345 0.77539,0.9707c0.19402,0.37727 0.29102,0.78172 0.29102,1.21289c0,0.45271 -0.064,0.83585 -0.19336,1.14844c-0.11858,0.31254 -0.27473,0.57054 -0.46875,0.77539c-0.19403,0.2049 -0.41615,0.37074 -0.66406,0.5c-0.24793,0.11868 -0.49623,0.22721 -0.74414,0.32422c0.19402,0.06475 0.42583,0.17329 0.69531,0.32422c0.28025,0.14012 0.54989,0.33896 0.80859,0.59765c0.25868,0.2587 0.4808,0.59236 0.66406,1.00196c0.18323,0.39884 0.27344,0.89058 0.27344,1.47265c0,0.52815 -0.10668,1.00633 -0.32227,1.4375c-0.21558,0.43117 -0.50171,0.8046 -0.85742,1.11719c-0.35571,0.31247 -0.76986,0.55396 -1.24414,0.72656c-0.4635,0.17235 -0.95526,0.25977 -1.47266,0.25977l-4.94726,-0.00196c-0.15091,0 -0.30222,-0.02136 -0.45313,-0.06445c-0.1509,-0.05392 -0.29056,-0.12955 -0.41992,-0.22656c-0.11858,-0.10772 -0.21558,-0.24253 -0.29102,-0.4043c-0.07546,-0.16176 -0.11328,-0.35576 -0.11328,-0.58203v-10.21875c0,-0.09701 0.0165,-0.21537 0.04883,-0.35547c0.03235,-0.15098 0.09151,-0.29066 0.17773,-0.41992c0.09701,-0.14009 0.22698,-0.25367 0.38867,-0.33984c0.17246,-0.09701 0.38779,-0.14453 0.64648,-0.14453zM86.60938,167.72461c0.23715,0.22634 0.35547,0.50084 0.35547,0.82422v10.42773c0,0.32348 -0.11832,0.59991 -0.35547,0.82617c-0.22636,0.22627 -0.5028,0.33789 -0.82617,0.33789c-0.32336,0 -0.59785,-0.11162 -0.82422,-0.33789c-0.22637,-0.23715 -0.33984,-0.51358 -0.33984,-0.82617v-10.42773c0,-0.32345 0.11347,-0.59795 0.33984,-0.82422c0.23714,-0.22627 0.51162,-0.33984 0.82422,-0.33984c0.32336,0 0.5998,0.11357 0.82617,0.33984zM108.99219,167.72461c0.23713,0.22634 0.35742,0.50084 0.35742,0.82422c0,0.32348 -0.12029,0.59795 -0.35742,0.82422c-0.22636,0.22626 -0.50085,0.33984 -0.82422,0.33984c-0.31258,0 -0.58707,-0.11358 -0.82422,-0.33984c-0.22637,-0.22637 -0.33984,-0.50085 -0.33984,-0.82422c0,-0.32345 0.11347,-0.59795 0.33984,-0.82422c0.23714,-0.22627 0.51163,-0.33984 0.82422,-0.33984c0.32336,0 0.59785,0.11357 0.82422,0.33984zM63.28321,172.47852h3.31445c0.20479,0 0.39877,-0.03795 0.58203,-0.11329c0.18323,-0.07559 0.33939,-0.17933 0.46875,-0.30859c0.14012,-0.14017 0.24875,-0.30119 0.32422,-0.48437c0.07546,-0.18321 0.11133,-0.37719 0.11133,-0.58204c0,-0.20487 -0.03586,-0.39885 -0.11133,-0.58203c-0.07546,-0.18333 -0.1841,-0.33949 -0.32422,-0.46875c-0.12936,-0.14009 -0.28552,-0.24888 -0.46875,-0.32422c-0.18325,-0.07559 -0.37723,-0.11328 -0.58203,-0.11328h-3.31445zM78.99805,171.10352c0.2587,0.21555 0.38867,0.50655 0.38867,0.87304c0,0.10785 -0.0165,0.20964 -0.04883,0.30664l-2.97461,9.28125c-0.1509,0.45274 -0.34004,0.80771 -0.56641,1.06641c-0.21558,0.25872 -0.45224,0.45951 -0.71094,0.59961c-0.2587,0.14035 -0.53319,0.22556 -0.82422,0.25781c-0.28026,0.04309 -0.5499,0.06445 -0.80859,0.06445h-0.8418c-0.2048,0 -0.38714,-0.03769 -0.54883,-0.11328c-0.1509,-0.07534 -0.28572,-0.17234 -0.4043,-0.29101c-0.10779,-0.11855 -0.19313,-0.25337 -0.25781,-0.4043c-0.0539,-0.14009 -0.08203,-0.28462 -0.08203,-0.43555c0,-0.21556 0.06402,-0.39985 0.19336,-0.55078c0.14013,-0.15093 0.3574,-0.22656 0.64844,-0.22656c0.28026,0 0.5431,-0.00555 0.79102,-0.01563c0.2587,-0.01083 0.48567,-0.04852 0.67969,-0.11328c0.19402,-0.06475 0.34533,-0.16654 0.45312,-0.30664c0.11858,-0.12933 0.17773,-0.31847 0.17773,-0.5664c0,-0.15096 -0.02134,-0.31878 -0.06445,-0.50196c-0.04311,-0.18323 -0.11393,-0.39854 -0.21094,-0.64648l-2.69922,-6.85547c-0.06468,-0.16174 -0.09766,-0.3344 -0.09766,-0.51758c0,-0.12938 0.02134,-0.2642 0.06445,-0.40429c0.04314,-0.14002 0.10714,-0.26805 0.19336,-0.38672c0.09701,-0.11868 0.22214,-0.21568 0.37305,-0.29102c0.16168,-0.08617 0.35566,-0.1289 0.58203,-0.1289c0.23714,-0.00001 0.45731,0.06409 0.66211,0.19335c0.20479,0.11861 0.34446,0.29611 0.41992,0.53321l1.99023,6.14453l1.55078,-6.12891c0.06468,-0.24801 0.1995,-0.43519 0.4043,-0.56445c0.21559,-0.12926 0.4474,-0.19531 0.69531,-0.19531c0.32337,0 0.61435,0.10853 0.87305,0.32422zM93.90625,170.92578c0.4635,0.09696 0.86116,0.24632 1.19531,0.45117c0.34494,0.2048 0.60974,0.46475 0.79297,0.77735c0.19402,0.3018 0.29102,0.66844 0.29102,1.09961v5.77148c0,0.31249 -0.10863,0.57728 -0.32422,0.79297c-0.21558,0.21568 -0.47842,0.32226 -0.79102,0.32226c-0.29103,0 -0.54418,-0.09025 -0.75976,-0.27343c-0.2048,-0.19402 -0.32314,-0.43747 -0.35547,-0.72852c-0.4096,0.38808 -0.8422,0.65288 -1.29492,0.79297c-0.45272,0.1401 -0.96386,0.20898 -1.53516,0.20898c-0.36649,0 -0.73797,-0.05231 -1.11523,-0.16015c-0.36649,-0.10769 -0.70209,-0.27064 -1.00391,-0.48633c-0.29102,-0.22637 -0.52768,-0.50084 -0.71094,-0.82422c-0.18323,-0.32337 -0.27344,-0.70167 -0.27344,-1.13281c0,-0.66832 0.14451,-1.19111 0.43555,-1.56836c0.30181,-0.37727 0.67329,-0.66145 1.11523,-0.85547c0.44194,-0.19409 0.91721,-0.3357 1.42383,-0.42187c0.51739,-0.08618 0.99556,-0.17164 1.4375,-0.25782c0.44194,-0.08617 0.80857,-0.20454 1.09961,-0.35547c0.30182,-0.16168 0.45312,-0.41482 0.45312,-0.75976c0,-0.16156 -0.04752,-0.30125 -0.14453,-0.41992c-0.08622,-0.12951 -0.21136,-0.23326 -0.37305,-0.3086c-0.16168,-0.08617 -0.34887,-0.15027 -0.56445,-0.19336c-0.21559,-0.04308 -0.44256,-0.06445 -0.67969,-0.06445c-0.31258,0 -0.55604,0.04273 -0.72851,0.12891c-0.17246,0.08642 -0.31213,0.19496 -0.41992,0.32422c-0.09701,0.12928 -0.17751,0.27378 -0.24219,0.43554c-0.06468,0.15098 -0.14518,0.29262 -0.24219,0.42188c-0.08622,0.12951 -0.20456,0.23609 -0.35547,0.32226c-0.15091,0.08618 -0.36623,0.12891 -0.64648,0.12891h-0.00195c-0.25871,0 -0.48372,-0.0641 -0.67773,-0.19336c-0.18323,-0.14012 -0.27539,-0.38841 -0.27539,-0.74414c0,-0.34492 0.08729,-0.66405 0.25976,-0.95508c0.17247,-0.291 0.41882,-0.53734 0.74219,-0.74219c0.32337,-0.21548 0.71814,-0.38327 1.18164,-0.50195c0.4635,-0.11842 0.98629,-0.17773 1.56836,-0.17773c0.54973,0 1.05603,0.04947 1.51953,0.14648zM99.55664,171.13477c0.23715,0.22636 0.35547,0.496 0.35547,0.80859c0.09701,-0.12939 0.21048,-0.2642 0.33984,-0.4043c0.14013,-0.14009 0.31278,-0.26325 0.51758,-0.37109c0.21558,-0.11843 0.46873,-0.21064 0.75977,-0.27539c0.30181,-0.07534 0.66164,-0.11328 1.08203,-0.11328v0.00195c0.52817,0 1.00829,0.11162 1.43945,0.33789c0.44194,0.22637 0.82022,0.55032 1.13281,0.9707c0.3126,0.4096 0.54925,0.90621 0.71094,1.48828c0.17247,0.57129 0.25781,1.20077 0.25781,1.89063c0,0.68986 -0.08534,1.32129 -0.25781,1.89258c-0.16168,0.57129 -0.39834,1.06594 -0.71094,1.48633c-0.31259,0.4097 -0.69087,0.72881 -1.13281,0.95507c-0.43116,0.22627 -0.91128,0.33985 -1.43945,0.33985c-0.39883,0 -0.74897,-0.06101 -1.05078,-0.17969c-0.30181,-0.1186 -0.55981,-0.24662 -0.77539,-0.38672c-0.20479,-0.1508 -0.3726,-0.28562 -0.50196,-0.40429c-0.12933,-0.11868 -0.22633,-0.17774 -0.29101,-0.17774c-0.0539,0 -0.08008,0.06889 -0.08008,0.20898v3.16993c0,0.32347 -0.11832,0.59795 -0.35547,0.82422c-0.22636,0.2371 -0.50085,0.35546 -0.82422,0.35546c-0.3126,0 -0.58904,-0.11836 -0.82617,-0.35546c-0.22637,-0.22637 -0.33984,-0.50085 -0.33984,-0.82422v-10.42969c0,-0.31269 0.11347,-0.58233 0.33984,-0.80859c0.23714,-0.23711 0.51358,-0.35547 0.82617,-0.35547c0.32336,0 0.59785,0.11836 0.82422,0.35547zM112,170.87695c0.12936,0.05392 0.23604,0.14613 0.32227,0.27539l1.66601,2.60352l1.64844,-2.60352c0.08622,-0.12926 0.19002,-0.22147 0.30859,-0.27539c0.12935,-0.06475 0.26902,-0.0957 0.41992,-0.0957c0.26949,0 0.5013,0.09026 0.69532,0.27344c0.2048,0.18325 0.30664,0.4102 0.30664,0.67969c0,0.17249 -0.04753,0.32865 -0.14453,0.46874l-2.21485,3.0879l2.61914,3.31445c0.05377,0.06475 0.09162,0.1356 0.11328,0.21094c0.02167,0.07559 0.03125,0.15601 0.03125,0.24218c0,0.09701 -0.02134,0.21059 -0.06445,0.33985c-0.04311,0.11867 -0.11198,0.23704 -0.20898,0.35547c-0.08623,0.10759 -0.20652,0.1998 -0.35743,0.27539c-0.1509,0.07534 -0.33324,0.11328 -0.54882,0.11328c-0.1509,0 -0.28572,-0.02811 -0.4043,-0.08203c-0.11858,-0.05392 -0.22042,-0.14418 -0.30664,-0.27344l-1.89258,-2.94336l-1.9082,2.94336c-0.08623,0.12926 -0.18807,0.21952 -0.30664,0.27344c-0.11857,0.05392 -0.2534,0.08203 -0.4043,0.08203c-0.12936,0 -0.26418,-0.02137 -0.4043,-0.06446c-0.12933,-0.05392 -0.25251,-0.12476 -0.37109,-0.21093c-0.11858,-0.08643 -0.21558,-0.19496 -0.29102,-0.32422c-0.07546,-0.1402 -0.11328,-0.3012 -0.11328,-0.48438c0,-0.08617 0.00958,-0.16659 0.03125,-0.24218c0.02157,-0.07534 0.05939,-0.14619 0.11328,-0.21094l2.61914,-3.31445l-2.21484,-3.0879c-0.09701,-0.14024 -0.14453,-0.2964 -0.14453,-0.46874c0,-0.26956 0.097,-0.49651 0.29102,-0.67969c0.2048,-0.18318 0.44146,-0.27344 0.71093,-0.27344c0.1509,0 0.28572,0.03095 0.4043,0.0957zM108.99219,171.3457c0.23713,0.22635 0.35742,0.50085 0.35742,0.82422v6.80664c0,0.32348 -0.12029,0.59991 -0.35742,0.82617c-0.22636,0.22627 -0.50085,0.33789 -0.82422,0.33789c-0.32337,0 -0.59785,-0.11162 -0.82422,-0.33789c-0.22637,-0.23715 -0.33984,-0.51358 -0.33984,-0.82617v-6.80664c0,-0.32345 0.11347,-0.59795 0.33984,-0.82422c0.23714,-0.2371 0.51163,-0.35547 0.82422,-0.35547c0.32336,0 0.59785,0.11837 0.82422,0.35547zM100.26758,173.43164c-0.37727,0.49582 -0.56641,1.17477 -0.56641,2.03711c0,0.85155 0.18914,1.52566 0.56641,2.02148c0.37727,0.49585 0.9049,0.74415 1.58398,0.74415c0.68986,-0.00001 1.2243,-0.2483 1.60156,-0.74415c0.37727,-0.49582 0.56641,-1.16993 0.56641,-2.02148c0,-0.86234 -0.18914,-1.54129 -0.56641,-2.03711c-0.37726,-0.49585 -0.9117,-0.74414 -1.60156,-0.74414c-0.67908,0 -1.20671,0.24829 -1.58398,0.74414zM63.28321,178.00781h3.37891c0.24792,0 0.47973,-0.04947 0.69531,-0.14648c0.22636,-0.09693 0.42034,-0.22496 0.58203,-0.38672c0.16169,-0.16156 0.29166,-0.35072 0.38867,-0.56641c0.09701,-0.21556 0.14453,-0.44737 0.14453,-0.69531c0,-0.24784 -0.04752,-0.47963 -0.14453,-0.69531c-0.09701,-0.22627 -0.22698,-0.42027 -0.38867,-0.58203c-0.16167,-0.16169 -0.35566,-0.29167 -0.58203,-0.38867c-0.21559,-0.09701 -0.4474,-0.14454 -0.69531,-0.14454h-3.37891zM93.03321,175.87305c-0.37727,0.11867 -0.89037,0.23704 -1.53711,0.35547c-0.78687,0.14014 -1.17969,0.51161 -1.17969,1.11523c0,0.15095 0.02134,0.29741 0.06445,0.4375c0.0539,0.14002 0.14119,0.26999 0.25977,0.38867c0.11858,0.10759 0.27473,0.19306 0.46875,0.25781c0.2048,0.06476 0.45115,0.09766 0.74219,0.09766c0.24793,0 0.49623,-0.02811 0.74414,-0.08203c0.2587,-0.0645 0.48567,-0.14997 0.67969,-0.25781c0.20479,-0.11848 0.3658,-0.25816 0.48437,-0.41993c0.12936,-0.17237 0.19531,-0.36634 0.19531,-0.58203v-1.56836c-0.22636,0.05367 -0.53383,0.13914 -0.92187,0.25782z" fill="#1eff00" stroke="none" stroke-width="1.01053" stroke-miterlimit="10" stroke-dashoffset="0"/></g></g></svg>