<svg version="1.1" xmlns="http://www.w3.org/2000/svg" xmlns:xlink="http://www.w3.org/1999/xlink" width="53.854" height="73.715" viewBox="0,0,53.854,73.715"><g transform="translate(-213.14,-143.035)"><g data-paper-data="{&quot;isPaintingLayer&quot;:true}" fill="#ffffff" fill-rule="nonzero" stroke="none" stroke-width="0" stroke-linecap="butt" stroke-linejoin="miter" stroke-miterlimit="10" stroke-dasharray="" stroke-dashoffset="0" style="mix-blend-mode: normal"><path d="M252.132,144.959c2.767,1.219 5.05,2.664 6.852,4.332c1.802,1.668 3.121,3.367 3.957,5.099c0.836,1.668 1.254,2.92 1.254,3.754c0,1.347 -0.514,2.438 -1.543,3.272c-1.03,0.77 -2.156,1.154 -3.379,1.154c-0.708,0 -1.415,-0.16 -2.123,-0.481c-0.643,-0.32 -1.19,-0.835 -1.641,-1.541c-1.672,-2.566 -3.57,-4.683 -5.693,-6.351c-2.059,-1.668 -4.795,-2.502 -8.205,-2.502c-2.574,0 -4.792,0.449 -6.658,1.348c-1.866,0.898 -3.475,2.085 -4.826,3.56c-1.287,1.412 -2.348,3.016 -3.184,4.813c-0.836,1.796 -1.513,3.623 -2.027,5.484c-0.451,1.796 -0.772,3.561 -0.965,5.293c-0.129,1.668 -0.194,3.113 -0.194,4.332c0.515,-0.834 1.319,-1.701 2.413,-2.6c1.158,-0.962 2.51,-1.827 4.054,-2.597c1.609,-0.834 3.41,-1.509 5.405,-2.022c1.994,-0.513 4.148,-0.769 6.464,-0.769c2.831,0 5.728,0.546 8.688,1.636c2.96,1.091 5.629,2.662 8.01,4.715c2.445,2.053 4.406,4.523 5.886,7.41c1.545,2.887 2.317,6.16 2.317,9.817c0,4.042 -0.674,7.602 -2.026,10.681c-1.351,3.016 -3.185,5.583 -5.502,7.7c-2.316,2.053 -5.019,3.624 -8.107,4.715c-3.088,1.026 -6.369,1.539 -9.844,1.539c-3.989,0 -7.721,-0.738 -11.195,-2.213c-3.474,-1.476 -6.499,-3.721 -9.072,-6.737c-2.51,-3.079 -4.505,-6.896 -5.985,-11.451c-1.415,-4.555 -2.123,-9.913 -2.123,-16.072c0,-5.133 0.612,-9.945 1.834,-14.436c1.287,-4.555 3.153,-8.499 5.598,-11.836c2.509,-3.4 5.567,-6.063 9.17,-7.988c3.603,-1.989 7.752,-2.982 12.449,-2.982c3.86,0 7.175,0.64 9.941,1.924zM234.759,178.064c-1.866,0.77 -3.506,1.829 -4.921,3.176c-1.416,1.347 -2.543,2.983 -3.379,4.908c-0.837,1.861 -1.254,3.881 -1.254,6.063c0,2.309 0.417,4.458 1.254,6.447c0.9,1.925 2.092,3.626 3.572,5.101c1.48,1.412 3.185,2.534 5.115,3.368c1.995,0.834 4.117,1.252 6.369,1.252c2.188,0 4.248,-0.387 6.178,-1.157c1.995,-0.834 3.731,-1.955 5.211,-3.367c1.48,-1.411 2.638,-3.048 3.475,-4.908c0.9,-1.925 1.351,-3.977 1.351,-6.158c0,-2.182 -0.451,-4.236 -1.351,-6.16c-0.837,-1.989 -2.029,-3.689 -3.573,-5.1c-1.48,-1.412 -3.247,-2.535 -5.306,-3.369c-2.059,-0.834 -4.247,-1.25 -6.563,-1.25c-2.187,0 -4.247,0.384 -6.178,1.154z"/></g></g></svg>