<svg version="1.1" xmlns="http://www.w3.org/2000/svg" xmlns:xlink="http://www.w3.org/1999/xlink" width="372.21489" height="68.64262" viewBox="0,0,372.21489,68.64262"><g transform="translate(-53.89255,-145.67869)"><g data-paper-data="{&quot;isPaintingLayer&quot;:true}" fill-rule="nonzero" stroke-linecap="butt" stroke-linejoin="miter" stroke-dasharray="" style="mix-blend-mode: normal"><path d="M425.00973,146.42869c0.19313,0 0.34772,0.15458 0.34772,0.34772v66.4453c0,0.19313 -0.15458,0.34961 -0.34772,0.34961h-370.01757c-0.19313,0 -0.34961,-0.15647 -0.34961,-0.34961v-66.4453c0,-0.19313 0.15647,-0.34772 0.34961,-0.34772z" fill="#1e1e1e" stroke="#1eff00" stroke-width="1.5" stroke-miterlimit="4" stroke-dashoffset="17.35"/><path d="M68.2461,152.9082c0.63597,0.28027 1.18009,0.62072 1.63281,1.01953c0.46351,0.38806 0.82045,0.80222 1.06836,1.24415c0.2587,0.44195 0.38672,0.82506 0.38672,1.14843c0,0.29115 -0.10668,0.52297 -0.32226,0.69531c-0.21559,0.16177 -0.4474,0.24219 -0.69531,0.24219c-0.18324,0 -0.35589,-0.04273 -0.51758,-0.1289c-0.16169,-0.09691 -0.27516,-0.25307 -0.33984,-0.46875c-0.097,-0.30181 -0.23182,-0.59765 -0.4043,-0.88868c-0.17246,-0.29107 -0.39263,-0.55586 -0.66211,-0.79296c-0.26948,-0.23718 -0.58859,-0.42632 -0.95508,-0.56641c-0.35571,-0.15093 -0.76986,-0.22656 -1.24414,-0.22656c-0.53895,0 -1.04525,0.11836 -1.51953,0.35547c-0.47428,0.22636 -0.89038,0.55516 -1.24609,0.98632c-0.34493,0.42039 -0.61942,0.9335 -0.82422,1.53711c-0.2048,0.60364 -0.30664,1.2758 -0.30664,2.01953c0,0.74377 0.10184,1.41785 0.30664,2.02149c0.2048,0.60361 0.47929,1.12156 0.82422,1.55273c0.35571,0.4312 0.77181,0.76485 1.24609,1.00196c0.47428,0.22626 0.98058,0.33984 1.51953,0.33984c0.47428,0 0.88843,-0.07084 1.24414,-0.21094c0.36649,-0.15095 0.6856,-0.34493 0.95508,-0.58203c0.26947,-0.23715 0.48964,-0.49999 0.66211,-0.79101c0.17247,-0.30181 0.30729,-0.60445 0.4043,-0.90625c0.06468,-0.21566 0.17816,-0.36696 0.33984,-0.45313c0.1617,-0.09701 0.33435,-0.14453 0.51758,-0.14453c0.24791,0 0.47973,0.08042 0.69531,0.24219c0.21558,0.16169 0.32226,0.38866 0.32226,0.67968c0,0.23716 -0.097,0.57079 -0.29101,1.00196c-0.19402,0.43114 -0.49469,0.8618 -0.9043,1.29297c-0.4096,0.42038 -0.94404,0.78701 -1.60156,1.09961c-0.64674,0.31259 -1.42753,0.46875 -2.34375,0.46875c-0.97012,0 -1.82171,-0.18234 -2.55469,-0.54883c-0.7222,-0.36649 -1.32549,-0.85826 -1.81055,-1.47266c-0.47428,-0.6144 -0.83607,-1.31469 -1.08398,-2.10156c-0.23713,-0.79766 -0.35547,-1.6279 -0.35547,-2.49024c0,-0.85152 0.11834,-1.675 0.35547,-2.47265c0.24792,-0.79766 0.60971,-1.49795 1.08398,-2.10156c0.48506,-0.6144 1.08835,-1.10617 1.81055,-1.47266c0.73298,-0.36649 1.58457,-0.54883 2.55469,-0.54883c0.74376,0 1.42755,0.13968 2.05273,0.41992zM73.93164,152.99023c0.19401,0.18326 0.29101,0.40826 0.29101,0.67774c0,0.25869 -0.097,0.48567 -0.29101,0.67969c-0.18324,0.18318 -0.40341,0.27539 -0.66211,0.27539c-0.26948,0 -0.5013,-0.09221 -0.69531,-0.27539c-0.18323,-0.19402 -0.27539,-0.421 -0.27539,-0.67969c0,-0.26956 0.09216,-0.49455 0.27539,-0.67774c0.19402,-0.18318 0.42583,-0.27539 0.69531,-0.27539c0.25871,0 0.47888,0.09221 0.66211,0.27539zM77.85352,153.70117c0.17247,0.16172 0.25976,0.36056 0.25976,0.59766v2.02148h0.88867c0.20481,0 0.37746,0.07564 0.51758,0.22657c0.1509,0.14006 0.22656,0.31272 0.22656,0.51757c0,0.21561 -0.07566,0.39311 -0.22656,0.53321c-0.14013,0.14009 -0.31278,0.21093 -0.51758,0.21093h-0.88867v6.80664c0,0.23726 -0.08729,0.44094 -0.25976,0.61329c-0.16167,0.16176 -0.3605,0.24414 -0.59766,0.24414c-0.23714,0 -0.43597,-0.08238 -0.59766,-0.24414c-0.16169,-0.1725 -0.24414,-0.37618 -0.24414,-0.61329v-6.80664h-0.59766c-0.2048,0 -0.3823,-0.07084 -0.5332,-0.21093c-0.14012,-0.14002 -0.21094,-0.31752 -0.21094,-0.53321c0,-0.20482 0.07082,-0.37748 0.21094,-0.51757c0.15091,-0.15093 0.3284,-0.22657 0.5332,-0.22657h0.59766v-2.02148c0,-0.23705 0.08245,-0.43589 0.24414,-0.59766c0.1617,-0.16176 0.36053,-0.24219 0.59766,-0.24219c0.23714,0 0.43597,0.08043 0.59766,0.24219zM99.93946,156.19141c0.42039,0.12931 0.76568,0.29515 1.03516,0.5c0.10779,0.08642 0.22127,0.19496 0.33984,0.32421c0.11858,0.11856 0.23205,0.25337 0.33985,0.4043c0.10779,0.14015 0.19313,0.27983 0.25781,0.41992c0.07546,0.1401 0.11328,0.26325 0.11328,0.3711c0,0.24788 -0.097,0.44868 -0.29101,0.59961c-0.19402,0.14009 -0.4045,0.20898 -0.63086,0.20898c-0.14013,0 -0.26815,-0.03095 -0.38672,-0.0957c-0.11855,-0.07534 -0.21071,-0.18892 -0.27539,-0.33985c-0.08623,-0.20477 -0.17839,-0.38227 -0.27539,-0.5332c-0.09701,-0.15093 -0.22503,-0.27604 -0.38672,-0.37305c-0.1509,-0.097 -0.34004,-0.16589 -0.56641,-0.20898c-0.21558,-0.05392 -0.49007,-0.08203 -0.82422,-0.08203c-0.65752,0 -1.13764,0.10853 -1.43945,0.32422c-0.29103,0.2048 -0.4375,0.4628 -0.4375,0.77539c0,0.23713 0.08729,0.4311 0.25976,0.58203c0.17246,0.14009 0.39748,0.2652 0.67773,0.37305c0.29104,0.097 0.61984,0.18222 0.98633,0.25781c0.36649,0.06475 0.73992,0.14518 1.11719,0.24219c0.37727,0.08617 0.74875,0.19496 1.11524,0.32421c0.36649,0.11848 0.69044,0.28432 0.9707,0.5c0.29103,0.20481 0.52284,0.45992 0.69531,0.76172c0.17248,0.30184 0.25782,0.67815 0.25782,1.13086c0,0.53896 -0.10864,0.99776 -0.32422,1.375c-0.21558,0.36654 -0.49976,0.6672 -0.85547,0.9043c-0.35571,0.22632 -0.77181,0.39411 -1.24609,0.50195c-0.47428,0.09701 -0.96894,0.14649 -1.48633,0.14649c-0.73298,0 -1.35276,-0.10854 -1.85938,-0.32422c-0.49584,-0.22637 -0.90709,-0.48437 -1.23047,-0.77539c-0.3126,-0.30183 -0.53761,-0.5996 -0.67773,-0.89063c-0.14012,-0.29102 -0.21094,-0.51118 -0.21094,-0.66211c0,-0.24788 0.08729,-0.44868 0.25977,-0.59961c0.18325,-0.16176 0.37723,-0.24218 0.58203,-0.24218c0.12933,0 0.25252,0.03794 0.37109,0.11328c0.11855,0.07534 0.21071,0.1937 0.27539,0.35547c0.18324,0.46349 0.47422,0.85147 0.87305,1.16406c0.4096,0.31259 0.99156,0.46875 1.74609,0.46875c0.34494,0 0.64076,-0.03794 0.88867,-0.11328c0.24792,-0.08643 0.44675,-0.19301 0.59765,-0.32227c0.16166,-0.14004 0.28001,-0.29136 0.35547,-0.45312c0.07547,-0.17253 0.11328,-0.35002 0.11328,-0.53321c0,-0.36656 -0.14451,-0.64103 -0.43555,-0.82421c-0.29103,-0.18319 -0.65282,-0.32966 -1.08398,-0.4375c-0.43116,-0.10785 -0.90448,-0.20485 -1.42187,-0.29102c-0.50662,-0.09688 -0.97509,-0.2317 -1.40625,-0.4043c-0.43116,-0.18323 -0.79295,-0.43639 -1.08398,-0.75976c-0.29103,-0.33414 -0.4375,-0.79293 -0.4375,-1.375c0,-0.84077 0.30747,-1.49838 0.92187,-1.97266c0.6144,-0.47428 1.4728,-0.71094 2.57227,-0.71094c0.61441,0 1.1304,0.06606 1.55078,0.19532zM73.86719,156.36914c0.16169,0.16171 0.24219,0.36055 0.24219,0.59766v7.64843c0,0.23726 -0.0805,0.44094 -0.24219,0.61329c-0.1617,0.16176 -0.36053,0.24414 -0.59766,0.24414c-0.23713,0 -0.44276,-0.08238 -0.61523,-0.24414c-0.16169,-0.1725 -0.24219,-0.37618 -0.24219,-0.61329v-7.64843c0,-0.23706 0.0805,-0.4359 0.24219,-0.59766c0.17248,-0.17235 0.37811,-0.25976 0.61523,-0.25976c0.23713,0 0.43597,0.08741 0.59766,0.25976zM84.97071,156.36914c0.17247,0.16171 0.25781,0.36055 0.25781,0.59766c0,0.22624 -0.08534,0.42505 -0.25781,0.59765c-0.16167,0.16177 -0.36246,0.24414 -0.59961,0.24414c-0.4096,0 -0.74325,0.097 -1.00195,0.29102c-0.2587,0.18326 -0.46238,0.40341 -0.61328,0.66211c-0.14012,0.25869 -0.23712,0.52835 -0.29101,0.80859c-0.0539,0.28032 -0.08203,0.51213 -0.08203,0.69531v4.34961c0,0.23726 -0.0805,0.44094 -0.24219,0.61329c-0.1617,0.16176 -0.36053,0.24414 -0.59766,0.24414c-0.23713,0 -0.44276,-0.08238 -0.61523,-0.24414c-0.16169,-0.1725 -0.24219,-0.37618 -0.24219,-0.61329v-7.64843c0,-0.23706 0.0805,-0.4359 0.24219,-0.59766c0.17248,-0.17235 0.37811,-0.25781 0.61523,-0.25781c0.23714,0 0.43597,0.08546 0.59766,0.25781c0.16169,0.16171 0.24219,0.36055 0.24219,0.59766v0.30859c0.04311,-0.04334 0.12361,-0.13051 0.24219,-0.25977c0.11856,-0.12943 0.26503,-0.25941 0.4375,-0.38867c0.18324,-0.14009 0.38207,-0.25846 0.59766,-0.35547c0.22637,-0.10784 0.46303,-0.1621 0.71094,-0.1621c0.23714,0 0.43792,0.08741 0.59961,0.25976zM93.41016,156.36914c0.17247,0.16171 0.25781,0.36055 0.25781,0.59766v7.64843c0,0.23726 -0.08534,0.44094 -0.25781,0.61329c-0.1617,0.16176 -0.36053,0.24414 -0.59766,0.24414c-0.23714,0 -0.43792,-0.08238 -0.59961,-0.24414c-0.16169,-0.1725 -0.24219,-0.37618 -0.24219,-0.61329v-0.29101c-0.10779,0.09701 -0.24261,0.21537 -0.4043,0.35547c-0.1509,0.12926 -0.34004,0.25241 -0.56641,0.37109c-0.22636,0.11868 -0.4892,0.22242 -0.79102,0.3086c-0.29103,0.07533 -0.63148,0.11132 -1.01953,0.11132v0.00196c-0.39883,0 -0.7868,-0.05427 -1.16406,-0.16211c-0.36649,-0.11866 -0.69529,-0.29131 -0.98633,-0.51758c-0.29103,-0.22637 -0.52284,-0.50764 -0.69531,-0.8418c-0.17247,-0.33413 -0.25781,-0.72211 -0.25781,-1.16406v-5.82031c0,-0.23706 0.0805,-0.4359 0.24219,-0.59766c0.17245,-0.17235 0.37808,-0.25781 0.61523,-0.25781c0.23713,0 0.43597,0.08546 0.59766,0.25781c0.16169,0.16171 0.24219,0.36055 0.24219,0.59766v5.62695c0,0.24799 0.05432,0.4633 0.16211,0.64648c0.11856,0.18334 0.26307,0.33949 0.43555,0.46875c0.18324,0.11843 0.38402,0.21064 0.59961,0.2754c0.22636,0.06475 0.44652,0.09765 0.66211,0.09765c0.35571,0 0.67967,-0.05906 0.9707,-0.17773c0.29104,-0.12924 0.53255,-0.3019 0.72656,-0.51758c0.2048,-0.21559 0.36096,-0.46872 0.46875,-0.75977c0.10779,-0.3018 0.16211,-0.62578 0.16211,-0.9707v-4.68945c0,-0.23706 0.0805,-0.4359 0.24219,-0.59766c0.16167,-0.17235 0.36246,-0.25976 0.59961,-0.25976c0.23714,0 0.43597,0.08741 0.59766,0.25976zM67.03321,167.38477c0.4635,0 0.90579,0.08042 1.32617,0.24218c0.43116,0.15091 0.80944,0.36622 1.13281,0.64649c0.32338,0.26948 0.58137,0.59345 0.77539,0.9707c0.19402,0.37727 0.29102,0.78172 0.29102,1.21289c0,0.45271 -0.064,0.83585 -0.19336,1.14844c-0.11858,0.31254 -0.27473,0.57054 -0.46875,0.77539c-0.19403,0.2049 -0.41615,0.37074 -0.66406,0.5c-0.24793,0.11868 -0.49623,0.22721 -0.74414,0.32422c0.19402,0.06475 0.42583,0.17329 0.69531,0.32422c0.28025,0.14012 0.54989,0.33896 0.80859,0.59765c0.25868,0.2587 0.4808,0.59236 0.66406,1.00196c0.18323,0.39884 0.27344,0.89058 0.27344,1.47265c0,0.52815 -0.10668,1.00633 -0.32227,1.4375c-0.21558,0.43117 -0.50171,0.8046 -0.85742,1.11719c-0.35571,0.31247 -0.76986,0.55396 -1.24414,0.72656c-0.4635,0.17235 -0.95526,0.25977 -1.47266,0.25977l-4.94726,-0.00196c-0.15091,0 -0.30222,-0.02136 -0.45313,-0.06445c-0.1509,-0.05392 -0.29056,-0.12955 -0.41992,-0.22656c-0.11858,-0.10772 -0.21558,-0.24253 -0.29102,-0.4043c-0.07546,-0.16176 -0.11328,-0.35576 -0.11328,-0.58203v-10.21875c0,-0.09701 0.0165,-0.21537 0.04883,-0.35547c0.03235,-0.15098 0.09151,-0.29066 0.17773,-0.41992c0.09701,-0.14009 0.22698,-0.25367 0.38867,-0.33984c0.17246,-0.09701 0.38779,-0.14453 0.64648,-0.14453zM86.60938,167.72461c0.23715,0.22634 0.35547,0.50084 0.35547,0.82422v6.14453l3.26562,-3.58984c0.19402,-0.21569 0.42584,-0.32227 0.69531,-0.32227c0.09701,0 0.20369,0.02137 0.32227,0.06445c0.11858,0.04309 0.22721,0.10719 0.32422,0.19336c0.09701,0.08643 0.17751,0.19496 0.24219,0.32422c0.06468,0.1185 0.09766,0.25816 0.09766,0.41992c0,0.12939 -0.02813,0.26421 -0.08203,0.4043c-0.0539,0.12926 -0.13439,0.24088 -0.24219,0.33789l-1.89062,1.87695l2.65039,3.94532c0.11858,0.1832 0.17773,0.37718 0.17773,0.58203c0,0.1186 -0.02618,0.24662 -0.08008,0.38672c-0.04311,0.14002 -0.11877,0.26999 -0.22656,0.38867c-0.09701,0.11868 -0.22698,0.22047 -0.38867,0.30664c-0.16168,0.08617 -0.35566,0.13086 -0.58203,0.13086c-0.15091,0 -0.29543,-0.02811 -0.43555,-0.08203c-0.14014,-0.06476 -0.25362,-0.16655 -0.33984,-0.30664l-2.36133,-3.76758l-1.14648,1.14844v1.84375c0,0.31264 -0.11832,0.58711 -0.35547,0.82421c-0.22636,0.22627 -0.5028,0.33985 -0.82617,0.33985c-0.3126,0 -0.58709,-0.11358 -0.82422,-0.33985c-0.22637,-0.23715 -0.33984,-0.51162 -0.33984,-0.82421v-10.42969c0,-0.32345 0.11347,-0.59795 0.33984,-0.82422c0.23714,-0.22627 0.51162,-0.33984 0.82422,-0.33984c0.32336,0 0.5998,0.11357 0.82617,0.33984zM63.28321,172.47852h3.31445c0.20479,0 0.39877,-0.03795 0.58203,-0.11329c0.18323,-0.07559 0.33939,-0.17933 0.46875,-0.30859c0.14012,-0.14017 0.24875,-0.30119 0.32422,-0.48437c0.07546,-0.18321 0.11133,-0.37719 0.11133,-0.58204c0,-0.20487 -0.03586,-0.39885 -0.11133,-0.58203c-0.07546,-0.18333 -0.1841,-0.33949 -0.32422,-0.46875c-0.12936,-0.14009 -0.28552,-0.24888 -0.46875,-0.32422c-0.18325,-0.07559 -0.37723,-0.11328 -0.58203,-0.11328h-3.31445zM78.99805,171.10352c0.2587,0.21555 0.38867,0.50655 0.38867,0.87304c0,0.10785 -0.0165,0.20964 -0.04883,0.30664l-2.97461,9.28125c-0.1509,0.45274 -0.34004,0.80771 -0.56641,1.06641c-0.21558,0.25872 -0.45224,0.45951 -0.71094,0.59961c-0.2587,0.14035 -0.53319,0.22556 -0.82422,0.25781c-0.28026,0.04309 -0.5499,0.06445 -0.80859,0.06445h-0.8418c-0.2048,0 -0.38714,-0.03769 -0.54883,-0.11328c-0.1509,-0.07534 -0.28572,-0.17234 -0.4043,-0.29101c-0.10779,-0.11855 -0.19313,-0.25337 -0.25781,-0.4043c-0.0539,-0.14009 -0.08203,-0.28462 -0.08203,-0.43555c0,-0.21556 0.06402,-0.39985 0.19336,-0.55078c0.14013,-0.15093 0.3574,-0.22656 0.64844,-0.22656c0.28026,0 0.5431,-0.00555 0.79102,-0.01563c0.2587,-0.01083 0.48567,-0.04852 0.67969,-0.11328c0.19402,-0.06475 0.34533,-0.16654 0.45312,-0.30664c0.11858,-0.12933 0.17773,-0.31847 0.17773,-0.5664c0,-0.15096 -0.02134,-0.31878 -0.06445,-0.50196c-0.04311,-0.18323 -0.11393,-0.39854 -0.21094,-0.64648l-2.69922,-6.85547c-0.06468,-0.16174 -0.09766,-0.3344 -0.09766,-0.51758c0,-0.12938 0.02134,-0.2642 0.06445,-0.40429c0.04314,-0.14002 0.10714,-0.26805 0.19336,-0.38672c0.09701,-0.11868 0.22214,-0.21568 0.37305,-0.29102c0.16168,-0.08617 0.35566,-0.1289 0.58203,-0.1289c0.23714,-0.00001 0.45731,0.06409 0.66211,0.19335c0.20479,0.11861 0.34446,0.29611 0.41992,0.53321l1.99023,6.14453l1.55078,-6.12891c0.06468,-0.24801 0.1995,-0.43519 0.4043,-0.56445c0.21559,-0.12926 0.4474,-0.19531 0.69531,-0.19531c0.32337,0 0.61435,0.10853 0.87305,0.32422zM99.05274,170.92578c0.4635,0.09696 0.86311,0.24632 1.19727,0.45117c0.34492,0.2048 0.60971,0.46475 0.79297,0.77735c0.19401,0.3018 0.29101,0.66844 0.29101,1.09961v5.77148c0,0.31249 -0.10863,0.57728 -0.32421,0.79297c-0.21559,0.21568 -0.48038,0.32226 -0.79297,0.32226c-0.29103,0 -0.54418,-0.09025 -0.75977,-0.27343c-0.2048,-0.19402 -0.32314,-0.43747 -0.35547,-0.72852c-0.4096,0.38808 -0.84025,0.65288 -1.29297,0.79297c-0.45272,0.1401 -0.96582,0.20898 -1.53711,0.20898c-0.36649,0 -0.73797,-0.05231 -1.11523,-0.16015c-0.36649,-0.10769 -0.70014,-0.27064 -1.00195,-0.48633c-0.29102,-0.22637 -0.52768,-0.50084 -0.71094,-0.82422c-0.18323,-0.32337 -0.27539,-0.70167 -0.27539,-1.13281c0,-0.66832 0.14451,-1.19111 0.43555,-1.56836c0.30181,-0.37727 0.67525,-0.66145 1.11719,-0.85547c0.44194,-0.19409 0.91526,-0.3357 1.42187,-0.42187c0.51739,-0.08618 0.99751,-0.17164 1.43945,-0.25782c0.44194,-0.08617 0.80858,-0.20454 1.09961,-0.35547c0.30181,-0.16168 0.45312,-0.41482 0.45312,-0.75976c0,-0.16156 -0.04948,-0.30125 -0.14648,-0.41992c-0.08622,-0.12951 -0.2094,-0.23326 -0.37109,-0.3086c-0.16168,-0.08617 -0.35082,-0.15027 -0.56641,-0.19336c-0.21559,-0.04308 -0.44256,-0.06445 -0.67969,-0.06445c-0.31258,0 -0.55409,0.04273 -0.72656,0.12891c-0.17246,0.08642 -0.31213,0.19496 -0.41992,0.32422c-0.09701,0.12928 -0.17946,0.27378 -0.24414,0.43554c-0.06468,0.15098 -0.14518,0.29262 -0.24219,0.42188c-0.08622,0.12951 -0.20456,0.23609 -0.35547,0.32226c-0.15091,0.08618 -0.36623,0.12891 -0.64648,0.12891c-0.2587,0 -0.48567,-0.0641 -0.67969,-0.19336c-0.18326,-0.14012 -0.27344,-0.38841 -0.27344,-0.74414c0,-0.34492 0.08534,-0.66405 0.25781,-0.95508c0.17246,-0.291 0.42077,-0.53734 0.74414,-0.74219c0.32337,-0.21548 0.71619,-0.38327 1.17969,-0.50195c0.4635,-0.11842 0.98629,-0.17773 1.56836,-0.17773c0.54973,0 1.05603,0.04947 1.51953,0.14648zM104.60742,171.13672c0.22637,0.22637 0.33789,0.49405 0.33789,0.80664c0.09701,-0.10784 0.22215,-0.22621 0.37305,-0.35547c0.1509,-0.14002 0.33324,-0.26804 0.54883,-0.38672c0.21558,-0.11868 0.46388,-0.21568 0.74414,-0.29101c0.29103,-0.08618 0.61499,-0.13086 0.9707,-0.13086c0.42039,0 0.77053,0.04468 1.05078,0.13086c0.29104,0.08617 0.53934,0.19779 0.74414,0.33789c0.20481,0.12921 0.37746,0.28052 0.51758,0.45312c0.14012,0.16156 0.26814,0.32936 0.38672,0.50195c0.09701,-0.15082 0.22214,-0.30698 0.37305,-0.46874c0.15091,-0.1725 0.3449,-0.32866 0.58203,-0.46876c0.24792,-0.14009 0.54374,-0.25367 0.88867,-0.33984c0.34493,-0.09701 0.76588,-0.14648 1.26172,-0.14648c0.24792,0 0.52725,0.04468 0.83984,0.13086c0.32337,0.07551 0.6192,0.20353 0.88867,0.38672c0.28027,0.18325 0.51209,0.4267 0.69532,0.72851c0.19401,0.29102 0.29101,0.65086 0.29101,1.08203v5.86914c0,0.31265 -0.11834,0.58907 -0.35547,0.82617c-0.22636,0.22627 -0.50084,0.33789 -0.82421,0.33789c-0.32337,0 -0.59786,-0.11162 -0.82422,-0.33789c-0.22637,-0.23715 -0.33985,-0.51358 -0.33985,-0.82617v-4.63867c0,-0.45271 -0.15616,-0.83584 -0.46875,-1.14844c-0.31259,-0.31259 -0.69572,-0.46875 -1.14844,-0.46875c-0.45271,0 -0.83584,0.15616 -1.14843,0.46875c-0.31259,0.3126 -0.46875,0.69573 -0.46875,1.14844v4.63867c0,0.31265 -0.11834,0.58907 -0.35547,0.82617c-0.22636,0.22627 -0.496,0.33789 -0.80859,0.33789c-0.32336,0 -0.6027,-0.11162 -0.83985,-0.33789c-0.22637,-0.23715 -0.33984,-0.51358 -0.33984,-0.82617v-4.63867c0,-0.45271 -0.15616,-0.83584 -0.46875,-1.14844c-0.3126,-0.31259 -0.69572,-0.46875 -1.14844,-0.46875c-0.45272,0 -0.83585,0.15616 -1.14844,0.46875c-0.31259,0.3126 -0.46875,0.69573 -0.46875,1.14844v4.63867c0,0.31265 -0.11152,0.58907 -0.33789,0.82617c-0.22636,0.22627 -0.5028,0.33789 -0.82617,0.33789c-0.32338,0 -0.60272,-0.11162 -0.83984,-0.33789c-0.22637,-0.23715 -0.33985,-0.51358 -0.33985,-0.82617v-7.0332c0,-0.31269 0.11348,-0.58037 0.33985,-0.80664c0.23714,-0.2371 0.51647,-0.35742 0.83984,-0.35742c0.32336,0 0.5998,0.12032 0.82617,0.35742zM123.55859,171.13672c0.57129,0.22637 1.06595,0.54836 1.48633,0.96875c0.4204,0.42038 0.7492,0.9267 0.98633,1.51953c0.24791,0.58207 0.37305,1.22997 0.37305,1.94141c0,0.7114 -0.12514,1.36417 -0.37305,1.95703c-0.23714,0.58207 -0.56595,1.08157 -0.98633,1.50195c-0.42038,0.42041 -0.91504,0.74923 -1.48633,0.98633c-0.57128,0.22627 -1.18622,0.33984 -1.84375,0.33984c-0.64674,0 -1.25683,-0.11357 -1.82812,-0.33984c-0.57129,-0.23713 -1.06595,-0.56595 -1.48633,-0.98633c-0.42039,-0.42038 -0.75404,-0.91988 -1.00195,-1.50195c-0.23713,-0.59286 -0.35742,-1.24563 -0.35742,-1.95703c0,-0.71144 0.12029,-1.35934 0.35742,-1.94141c0.24792,-0.59283 0.58157,-1.09915 1.00195,-1.51953c0.42038,-0.42049 0.91504,-0.74248 1.48633,-0.96875c0.57129,-0.2371 1.18138,-0.35742 1.82812,-0.35742c0.65753,0 1.27247,0.12032 1.84375,0.35742zM129.36523,171.13672c0.22637,0.22637 0.33985,0.49405 0.33985,0.80664c0.09701,-0.10784 0.22019,-0.22621 0.37109,-0.35547c0.15091,-0.14002 0.33325,-0.26804 0.54883,-0.38672c0.21558,-0.11868 0.46388,-0.21568 0.74414,-0.29101c0.29103,-0.08618 0.61499,-0.13086 0.9707,-0.13086c0.42039,0 0.77053,0.04468 1.05078,0.13086c0.29104,0.08617 0.53935,0.19779 0.74415,0.33789c0.20481,0.12921 0.37745,0.28052 0.51757,0.45312c0.14012,0.16156 0.26815,0.32936 0.38672,0.50195c0.09701,-0.15082 0.22215,-0.30698 0.37305,-0.46874c0.15089,-0.1725 0.34488,-0.32866 0.58203,-0.46876c0.24792,-0.14009 0.54374,-0.25367 0.88867,-0.33984c0.34493,-0.09701 0.76588,-0.14648 1.26172,-0.14648c0.24792,0 0.52725,0.04468 0.83985,0.13086c0.32337,0.07551 0.62114,0.20353 0.89062,0.38672c0.28027,0.18325 0.51208,0.4267 0.69531,0.72851c0.19402,0.29102 0.29102,0.65086 0.29102,1.08203v5.86914c0,0.31265 -0.12027,0.58907 -0.35742,0.82617c-0.22636,0.22627 -0.50085,0.33789 -0.82422,0.33789c-0.32337,0 -0.59785,-0.11162 -0.82422,-0.33789c-0.22637,-0.23715 -0.33985,-0.51358 -0.33985,-0.82617v-4.63867c0,-0.45271 -0.15615,-0.83584 -0.46874,-1.14844c-0.3126,-0.31259 -0.69572,-0.46875 -1.14844,-0.46875c-0.45272,0 -0.83389,0.15616 -1.14649,0.46875c-0.31259,0.3126 -0.46875,0.69573 -0.46875,1.14844v4.63867c0,0.31265 -0.12029,0.58907 -0.35742,0.82617c-0.22636,0.22627 -0.49405,0.33789 -0.80664,0.33789c-0.32336,0 -0.60464,-0.11162 -0.8418,-0.33789c-0.22636,-0.23715 -0.33984,-0.51358 -0.33984,-0.82617v-4.63867c0,-0.45271 -0.15616,-0.83584 -0.46875,-1.14844c-0.31259,-0.31259 -0.69572,-0.46875 -1.14844,-0.46875c-0.45272,0 -0.83389,0.15616 -1.14648,0.46875c-0.31259,0.3126 -0.46875,0.69573 -0.46875,1.14844v4.63867c0,0.31265 -0.11348,0.58907 -0.33985,0.82617c-0.22635,0.22627 -0.50084,0.33789 -0.82421,0.33789c-0.32339,0 -0.60467,-0.11162 -0.8418,-0.33789c-0.22637,-0.23715 -0.33984,-0.51358 -0.33984,-0.82617v-7.0332c-0.00001,-0.31269 0.11347,-0.58037 0.33984,-0.80664c0.23714,-0.2371 0.51842,-0.35742 0.8418,-0.35742c0.32336,0 0.59785,0.12032 0.82421,0.35742zM148.05664,171.20117c0.52817,0.26948 0.96077,0.60798 1.29492,1.01758c0.34493,0.40963 0.59808,0.85192 0.75977,1.32617c0.16169,0.47428 0.24219,0.91171 0.24219,1.31055c0,0.37725 -0.07082,0.68956 -0.21094,0.9375c-0.14013,0.24794 -0.34381,0.37109 -0.61328,0.37109h-5.17383c-0.11855,0 -0.21071,0.04274 -0.27539,0.12891c-0.0539,0.07559 -0.08203,0.17933 -0.08203,0.30859c0,0.16156 0.04947,0.34877 0.14648,0.56446c0.09702,0.20482 0.24153,0.40559 0.43555,0.5996c0.19402,0.19412 0.43263,0.35512 0.71289,0.48438c0.29103,0.12926 0.62468,0.19336 1.00195,0.19336c0.22636,0 0.42519,-0.02137 0.59766,-0.06445c0.17247,-0.05393 0.33542,-0.12956 0.48633,-0.22657c0.15091,-0.097 0.29542,-0.22016 0.43554,-0.37109c0.15092,-0.16159 0.31872,-0.35072 0.50196,-0.56641c0.16168,-0.19401 0.34402,-0.29101 0.54882,-0.29101c0.12934,0 0.25932,0.0329 0.38868,0.09765c0.12936,0.06476 0.24283,0.14997 0.33984,0.25782c0.09701,0.10784 0.17751,0.23295 0.24219,0.37304c0.06468,0.12939 0.09765,0.26421 0.09765,0.4043c0,0.14012 -0.07565,0.33896 -0.22656,0.59766c-0.14013,0.24793 -0.36225,0.50107 -0.66406,0.75976c-0.30181,0.24791 -0.67814,0.4681 -1.13086,0.66211c-0.45272,0.18318 -0.992,0.27539 -1.61719,0.27539c-0.71142,0 -1.34769,-0.12997 -1.9082,-0.38867c-0.56051,-0.2587 -1.03383,-0.60203 -1.42188,-1.0332c-0.37727,-0.44196 -0.66824,-0.9502 -0.87304,-1.52149c-0.19402,-0.58207 -0.29102,-1.19507 -0.29102,-1.84179c0,-0.64676 0.08534,-1.25684 0.25781,-1.82813c0.18325,-0.58207 0.45773,-1.08836 0.82422,-1.51953c0.36649,-0.44193 0.82527,-0.79209 1.375,-1.05078c0.54973,-0.2587 1.1957,-0.38867 1.93946,-0.38867c0.72219,0 1.34197,0.14163 1.85937,0.42187zM160.62109,171.02148c0.45273,0.15098 0.83585,0.34014 1.14844,0.56641c0.32337,0.22637 0.56972,0.47466 0.74219,0.74414c0.18323,0.2588 0.27539,0.50225 0.27539,0.72852c0,0.14002 -0.03298,0.26804 -0.09766,0.38672c-0.06468,0.11867 -0.15002,0.22242 -0.25781,0.30859c-0.09701,0.07534 -0.21048,0.13944 -0.33984,0.19336c-0.11855,0.04309 -0.2369,0.06445 -0.35547,0.06445c-0.12934,0 -0.25252,-0.02615 -0.3711,-0.08008c-0.11857,-0.06475 -0.20587,-0.17329 -0.25976,-0.32421c-0.08625,-0.20486 -0.20457,-0.37749 -0.35547,-0.51758c-0.14014,-0.1401 -0.30114,-0.25367 -0.48438,-0.33985c-0.17246,-0.097 -0.3616,-0.16589 -0.5664,-0.20898c-0.19403,-0.04309 -0.38802,-0.06641 -0.58203,-0.06641c-0.42039,0 -0.77053,0.07564 -1.05078,0.22656c-0.28026,0.14015 -0.41993,0.3671 -0.41993,0.67969c0,0.25872 0.13483,0.45756 0.4043,0.59766c0.28026,0.14009 0.6236,0.2652 1.0332,0.37305c0.40961,0.097 0.8519,0.20358 1.32618,0.32226c0.47428,0.10779 0.91657,0.25911 1.32617,0.45313c0.4096,0.18325 0.75005,0.43154 1.01953,0.74414c0.28026,0.3018 0.41992,0.70628 0.41992,1.21289c0,0.53896 -0.10184,1.01227 -0.30664,1.42187c-0.19402,0.39884 -0.46366,0.73929 -0.80859,1.01953c-0.33415,0.26951 -0.73377,0.47319 -1.19727,0.61328c-0.45272,0.1401 -0.93768,0.21094 -1.45508,0.21094c-0.65752,0 -1.23947,-0.09221 -1.74609,-0.27539c-0.50662,-0.19401 -0.93241,-0.43067 -1.27734,-0.71094c-0.34492,-0.28023 -0.60972,-0.58771 -0.79297,-0.92187c-0.17248,-0.34492 -0.25782,-0.66208 -0.25782,-0.95313c0,-0.24788 0.11348,-0.44868 0.33985,-0.59961c0.23714,-0.15092 0.49029,-0.22656 0.75976,-0.22656c0.18325,0 0.3491,0.03795 0.5,0.11328c0.15091,0.07534 0.25954,0.19371 0.32422,0.35547c0.18325,0.45271 0.44804,0.81935 0.79297,1.09961c0.34493,0.28024 0.79691,0.42188 1.35742,0.42188c0.18326,0 0.3656,-0.02137 0.54883,-0.06446c0.18325,-0.05392 0.34621,-0.12476 0.48633,-0.21093c0.15093,-0.09701 0.26924,-0.21059 0.35547,-0.33985c0.09701,-0.14019 0.14453,-0.30119 0.14453,-0.48437c0,-0.29095 -0.13482,-0.51793 -0.4043,-0.67969c-0.26948,-0.16164 -0.60312,-0.29645 -1.00195,-0.4043c-0.39882,-0.11842 -0.83431,-0.232 -1.30859,-0.33984c-0.47428,-0.11858 -0.91173,-0.27473 -1.31055,-0.46875c-0.39883,-0.19404 -0.73248,-0.44717 -1.00195,-0.75977c-0.26948,-0.31259 -0.4043,-0.73354 -0.4043,-1.26172c0,-0.42038 0.08534,-0.80835 0.25781,-1.16406c0.17247,-0.35568 0.41592,-0.65636 0.72852,-0.90429c0.32337,-0.24797 0.70649,-0.44194 1.14843,-0.58204c0.44194,-0.14009 0.93175,-0.21093 1.47071,-0.21093c0.54973,0 1.05118,0.08042 1.5039,0.24218zM169.79102,170.92578c0.4635,0.09696 0.86311,0.24632 1.19726,0.45117c0.34492,0.2048 0.60776,0.46475 0.79102,0.77735c0.19401,0.3018 0.29101,0.66844 0.29101,1.09961v5.77148c0,0.31249 -0.10668,0.57728 -0.32226,0.79297c-0.21558,0.21568 -0.48038,0.32226 -0.79297,0.32226c-0.29103,0 -0.54418,-0.09025 -0.75977,-0.27343c-0.20482,-0.19402 -0.32314,-0.43747 -0.35547,-0.72852c-0.4096,0.38808 -0.8422,0.65288 -1.29492,0.79297c-0.45272,0.1401 -0.96387,0.20898 -1.53515,0.20898c-0.36649,0 -0.73797,-0.05231 -1.11524,-0.16015c-0.36649,-0.10769 -0.70014,-0.27064 -1.00195,-0.48633c-0.29105,-0.22637 -0.52966,-0.50084 -0.71289,-0.82422c-0.18323,-0.32337 -0.27344,-0.70167 -0.27344,-1.13281c0,-0.66832 0.14451,-1.19111 0.43555,-1.56836c0.30181,-0.37727 0.67329,-0.66145 1.11523,-0.85547c0.44194,-0.19409 0.91721,-0.3357 1.42383,-0.42187c0.51739,-0.08618 0.99751,-0.17164 1.43945,-0.25782c0.44194,-0.08617 0.80858,-0.20454 1.09961,-0.35547c0.30181,-0.16168 0.45117,-0.41482 0.45117,-0.75976c0,-0.16156 -0.04752,-0.30125 -0.14453,-0.41992c-0.08622,-0.12951 -0.21136,-0.23326 -0.37304,-0.3086c-0.16169,-0.08617 -0.34887,-0.15027 -0.56446,-0.19336c-0.21559,-0.04308 -0.44256,-0.06445 -0.67968,-0.06445c-0.31259,0 -0.55605,0.04273 -0.72852,0.12891c-0.17246,0.08642 -0.31213,0.19496 -0.41992,0.32422c-0.09701,0.12928 -0.17751,0.27378 -0.24219,0.43554c-0.06468,0.15098 -0.14518,0.29262 -0.24219,0.42188c-0.08622,0.12951 -0.20456,0.23609 -0.35547,0.32226c-0.1509,0.08618 -0.36622,0.12891 -0.64648,0.12891c-0.2587,0 -0.48567,-0.0641 -0.67969,-0.19336c-0.18325,-0.14012 -0.27539,-0.38841 -0.27539,-0.74414c0,-0.34492 0.08729,-0.66405 0.25977,-0.95508c0.17246,-0.291 0.41881,-0.53734 0.74218,-0.74219c0.32338,-0.21548 0.71814,-0.38327 1.18164,-0.50195c0.4635,-0.11842 0.98629,-0.17773 1.56836,-0.17773c0.54974,0 1.05604,0.04947 1.51954,0.14648zM175.34375,171.13672c0.22637,0.22637 0.33984,0.49405 0.33984,0.80664c0.09701,-0.10784 0.22699,-0.231 0.38868,-0.37109c0.16167,-0.1401 0.35566,-0.26326 0.58203,-0.3711c0.22636,-0.11868 0.48435,-0.21568 0.77539,-0.29101c0.29103,-0.08618 0.61984,-0.13086 0.98633,-0.13086c0.4096,0 0.79757,0.07084 1.16406,0.21093c0.36648,0.14012 0.6856,0.3341 0.95508,0.58204c0.28026,0.24791 0.49558,0.55054 0.64648,0.90625c0.16169,0.34494 0.24219,0.73291 0.24219,1.16406v5.33398c0,0.31265 -0.11348,0.58907 -0.33985,0.82617c-0.22636,0.22627 -0.50084,0.33789 -0.82421,0.33789c-0.32336,0 -0.60465,-0.11162 -0.8418,-0.33789c-0.22637,-0.23715 -0.33985,-0.51358 -0.33985,-0.82617v-4.55859c0.00001,-0.23708 -0.04752,-0.45726 -0.14453,-0.66211c-0.08625,-0.20478 -0.20456,-0.38423 -0.35547,-0.53516c-0.1509,-0.15093 -0.3284,-0.26929 -0.5332,-0.35547c-0.20481,-0.097 -0.42693,-0.14453 -0.66406,-0.14453c-0.22636,0 -0.44653,0.04753 -0.66211,0.14453c-0.20481,0.08618 -0.3823,0.20454 -0.5332,0.35547c-0.15091,0.15086 -0.27604,0.33031 -0.37305,0.53516c-0.08622,0.20482 -0.12891,0.42501 -0.12891,0.66211v4.55859c0,0.31265 -0.11347,0.58907 -0.33984,0.82617c-0.22636,0.22627 -0.50084,0.33789 -0.82422,0.33789c-0.32338,0 -0.60467,-0.11162 -0.8418,-0.33789c-0.22636,-0.23715 -0.33789,-0.51358 -0.33789,-0.82617v-7.0332c0,-0.31269 0.11153,-0.58037 0.33789,-0.80664c0.23714,-0.2371 0.51843,-0.35742 0.8418,-0.35742c0.32337,0 0.59785,0.12032 0.82422,0.35742zM188.89453,171.13672c0.57129,0.22637 1.0679,0.54836 1.48828,0.96875c0.4204,0.42038 0.7492,0.9267 0.98633,1.51953c0.24791,0.58207 0.37109,1.22997 0.37109,1.94141c0,0.7114 -0.12318,1.36417 -0.37109,1.95703c-0.23714,0.58207 -0.56595,1.08157 -0.98633,1.50195c-0.42038,0.42041 -0.91699,0.74923 -1.48828,0.98633c-0.57129,0.22627 -1.18427,0.33984 -1.8418,0.33984c-0.64674,0 -1.25683,-0.11357 -1.82812,-0.33984c-0.57129,-0.23713 -1.06594,-0.56595 -1.48633,-0.98633c-0.42039,-0.42038 -0.75599,-0.91988 -1.0039,-1.50195c-0.23713,-0.59286 -0.35547,-1.24563 -0.35547,-1.95703c0,-0.71144 0.11834,-1.35934 0.35547,-1.94141c0.24791,-0.59283 0.58352,-1.09915 1.0039,-1.51953c0.42039,-0.42049 0.91504,-0.74248 1.48633,-0.96875c0.57129,-0.2371 1.18138,-0.35742 1.82812,-0.35742c0.65753,0 1.27051,0.12032 1.8418,0.35742zM120.64844,172.73633c-0.31259,0.16169 -0.58223,0.38866 -0.8086,0.67969c-0.21557,0.28026 -0.38337,0.60905 -0.50195,0.98632c-0.11858,0.36649 -0.17773,0.75447 -0.17773,1.16407c0,0.4096 0.05915,0.80241 0.17773,1.17968c0.11857,0.37725 0.28637,0.70607 0.50195,0.98633c0.22636,0.28037 0.49601,0.50734 0.8086,0.67969c0.31259,0.16176 0.66758,0.24219 1.0664,0.24219c0.39883,0 0.75382,-0.08043 1.06641,-0.24219c0.32337,-0.17245 0.59301,-0.39942 0.80859,-0.67969c0.21558,-0.28026 0.38338,-0.60908 0.50196,-0.98633c0.11857,-0.37727 0.17773,-0.77008 0.17773,-1.17968c0,-0.4096 -0.05916,-0.79758 -0.17773,-1.16407c-0.11857,-0.37727 -0.28637,-0.70606 -0.50196,-0.98632c-0.21558,-0.29095 -0.48522,-0.51793 -0.80859,-0.67969c-0.31259,-0.1726 -0.66758,-0.25781 -1.06641,-0.25781c-0.39882,0 -0.75381,0.08521 -1.0664,0.25781zM185.98438,172.73633c-0.31259,0.16169 -0.58223,0.38866 -0.8086,0.67969c-0.21557,0.28026 -0.38142,0.60905 -0.5,0.98632c-0.11858,0.36649 -0.17773,0.75447 -0.17773,1.16407c0,0.4096 0.05915,0.80241 0.17773,1.17968c0.11857,0.37725 0.28442,0.70607 0.5,0.98633c0.22636,0.28037 0.496,0.50734 0.8086,0.67969c0.31259,0.16176 0.66953,0.24219 1.06835,0.24219c0.39883,0 0.75382,-0.08043 1.06641,-0.24219c0.32337,-0.17245 0.59301,-0.39942 0.80859,-0.67969c0.21558,-0.28026 0.38338,-0.60908 0.50196,-0.98633c0.11857,-0.37727 0.17773,-0.77008 0.17773,-1.17968c0,-0.4096 -0.05916,-0.79758 -0.17773,-1.16407c-0.11857,-0.37727 -0.28637,-0.70606 -0.50196,-0.98632c-0.21558,-0.29095 -0.48522,-0.51793 -0.80859,-0.67969c-0.31259,-0.1726 -0.66758,-0.25781 -1.06641,-0.25781c-0.39882,0 -0.75576,0.08521 -1.06835,0.25781zM145.25977,172.86523c-0.2587,0.10767 -0.47402,0.24928 -0.64649,0.42188c-0.16169,0.16174 -0.28487,0.33244 -0.37109,0.51562c-0.08623,0.18329 -0.13086,0.34624 -0.13086,0.48633c0,0.21569 0.08245,0.32227 0.24414,0.32227h3.68555c0.14012,0 0.21093,-0.10179 0.21093,-0.30664c0,-0.1402 -0.04463,-0.3012 -0.13086,-0.48438c-0.07544,-0.18315 -0.19862,-0.35581 -0.37109,-0.51758c-0.16169,-0.17237 -0.37216,-0.31882 -0.63086,-0.4375c-0.2587,-0.11867 -0.56617,-0.17773 -0.92187,-0.17773c-0.35571,0 -0.66803,0.05906 -0.9375,0.17773zM63.28321,178.00781h3.37891c0.24792,0 0.47973,-0.04947 0.69531,-0.14648c0.22636,-0.09693 0.42034,-0.22496 0.58203,-0.38672c0.16169,-0.16156 0.29166,-0.35072 0.38867,-0.56641c0.09701,-0.21556 0.14453,-0.44737 0.14453,-0.69531c0,-0.24784 -0.04752,-0.47963 -0.14453,-0.69531c-0.09701,-0.22627 -0.22698,-0.42027 -0.38867,-0.58203c-0.16167,-0.16169 -0.35566,-0.29167 -0.58203,-0.38867c-0.21559,-0.09701 -0.4474,-0.14454 -0.69531,-0.14454h-3.37891zM98.17969,175.87305c-0.37727,0.11867 -0.88841,0.23704 -1.53516,0.35547c-0.78687,0.14014 -1.17969,0.51161 -1.17969,1.11523c0,0.15095 0.02134,0.29741 0.06445,0.4375c0.0539,0.14002 0.13924,0.26999 0.25781,0.38867c0.11858,0.10759 0.27473,0.19306 0.46875,0.25781c0.2048,0.06476 0.4531,0.09766 0.74414,0.09766c0.24792,0 0.49623,-0.02811 0.74414,-0.08203c0.2587,-0.0645 0.48372,-0.14997 0.67773,-0.25781c0.2048,-0.11848 0.36775,-0.25816 0.48633,-0.41993c0.12936,-0.17237 0.19336,-0.36634 0.19336,-0.58203v-1.56836c-0.22636,0.05367 -0.53383,0.13914 -0.92187,0.25782zM168.91797,175.87305c-0.37727,0.11867 -0.89037,0.23704 -1.53711,0.35547c-0.78687,0.14014 -1.17969,0.51161 -1.17969,1.11523c0,0.15095 0.02134,0.29741 0.06445,0.4375c0.0539,0.14002 0.14119,0.26999 0.25977,0.38867c0.11858,0.10759 0.27473,0.19306 0.46875,0.25781c0.2048,0.06476 0.45311,0.09766 0.74414,0.09766c0.24793,0 0.49428,-0.02811 0.74219,-0.08203c0.2587,-0.0645 0.48567,-0.14997 0.67969,-0.25781c0.20479,-0.11848 0.36579,-0.25816 0.48437,-0.41993c0.12936,-0.17237 0.19531,-0.36634 0.19531,-0.58203v-1.56836c-0.22636,0.05367 -0.53383,0.13914 -0.92187,0.25782z" fill="#1eff00" stroke="none" stroke-width="1.01053" stroke-miterlimit="10" stroke-dashoffset="0"/></g></g></svg>