<svg version="1.1" xmlns="http://www.w3.org/2000/svg" xmlns:xlink="http://www.w3.org/1999/xlink" width="372.21493" height="68.64271" viewBox="0,0,372.21493,68.64271"><g transform="translate(-53.89253,-145.67865)"><g data-paper-data="{&quot;isPaintingLayer&quot;:true}" fill-rule="nonzero" stroke-linecap="butt" stroke-linejoin="miter" stroke-dasharray="" style="mix-blend-mode: normal"><path d="M425.00975,146.42865c0.19313,0 0.34772,0.15458 0.34772,0.34772v66.44538c0,0.19313 -0.15458,0.34961 -0.34772,0.34961h-370.0176c-0.19313,0 -0.34961,-0.15647 -0.34961,-0.34961v-66.4453c0,-0.19313 0.15647,-0.34772 0.34961,-0.34772z" fill="#1e1e1e" stroke="#1eff00" stroke-width="1.5" stroke-miterlimit="4" stroke-dashoffset="17.35"/><path d="M69.10183,187.56561c1.27601,0 2.33412,4.30809 3.36643,5.0581c1.03219,0.7499 5.4565,0.42501 5.85078,1.6385c0.3942,1.21349 -3.3761,3.55109 -3.77031,4.76459c-0.39428,1.21353 1.2819,5.32082 0.24983,6.07083c-1.0323,0.7499 -4.42057,-2.11351 -5.6965,-2.11351c-1.27589,0 -4.66416,2.86341 -5.69647,2.11351c-1.0323,-0.75001 0.64399,-4.8573 0.24983,-6.07083c-0.39432,-1.21349 -4.16462,-3.55109 -3.77031,-4.76459c0.39428,-1.21349 4.8186,-0.8886 5.85078,-1.6385c1.0323,-0.75001 2.09042,-5.0581 3.36631,-5.0581z" fill="#1eff00" stroke="none" stroke-width="0.23333" stroke-miterlimit="4" stroke-dashoffset="17.35"/><path d="M92.03895,187.56561c1.27589,0 2.33401,4.30809 3.36631,5.0581c1.0323,0.7499 5.45647,0.42501 5.85078,1.6385c0.39432,1.21349 -3.37599,3.55109 -3.77031,4.76459c-0.39428,1.21353 1.2819,5.32082 0.24945,6.07083c-1.0323,0.7499 -4.42061,-2.11351 -5.6965,-2.11351c-1.27601,0 -4.66428,2.86341 -5.6965,2.11351c-1.0323,-0.75001 0.64399,-4.8573 0.24945,-6.07083c-0.3942,-1.21349 -4.16447,-3.55109 -3.77019,-4.76459c0.3942,-1.21349 4.81852,-0.8886 5.85071,-1.6385c1.0323,-0.75001 2.09038,-5.0581 3.36639,-5.0581z" fill="#1eff00" stroke="none" stroke-width="0.23333" stroke-miterlimit="4" stroke-dashoffset="17.35"/><path d="M114.97605,187.56561c1.27593,0 2.33401,4.30809 3.36631,5.0581c1.0323,0.7499 5.4565,0.42501 5.85082,1.6385c0.39428,1.21349 -3.37603,3.55109 -3.77031,4.76459c-0.39432,1.21353 1.2819,5.32082 0.24945,6.07083c-1.0323,0.7499 -4.42061,-2.11351 -5.6965,-2.11351c-1.27601,0 -4.66431,2.86341 -5.6965,2.11351c-1.0323,-0.75001 0.64399,-4.8573 0.24945,-6.07083c-0.3942,-1.21349 -4.16451,-3.55109 -3.77019,-4.76459c0.39417,-1.21349 4.81848,-0.8886 5.85067,-1.6385c1.0323,-0.75001 2.09042,-5.0581 3.36643,-5.0581z" fill="#1eff00" stroke="none" stroke-width="0.23333" stroke-miterlimit="4" stroke-dashoffset="17.35"/><path d="M137.91316,187.56561c1.27589,0 2.33397,4.30809 3.36627,5.0581c1.0323,0.7499 5.4565,0.42501 5.85082,1.6385c0.39428,1.21349 -3.37603,3.55109 -3.77031,4.76459c-0.39432,1.21353 1.2819,5.32082 0.24945,6.07083c-1.0323,0.7499 -4.42061,-2.11351 -5.6965,-2.11351c-1.27601,0 -4.66431,2.86341 -5.6965,2.11351c-1.0323,-0.75001 0.64399,-4.8573 0.24945,-6.07083c-0.3942,-1.21349 -4.16451,-3.55109 -3.77019,-4.76459c0.3942,-1.21349 4.81848,-0.8886 5.85067,-1.6385c1.0323,-0.75001 2.09042,-5.0581 3.36643,-5.0581z" fill="#1eff00" stroke="none" stroke-width="0.23333" stroke-miterlimit="4" stroke-dashoffset="17.35"/><path d="M160.85028,187.56561c1.27589,0 2.33397,4.30809 3.36627,5.0581c1.03234,0.7499 5.45654,0.42501 5.85086,1.6385c0.39428,1.21349 -3.37606,3.55109 -3.77034,4.76459c-0.39432,1.21353 1.2819,5.32082 0.24945,6.07083c-1.03226,0.7499 -4.42061,-2.11351 -5.6965,-2.11351c-1.27601,0 -4.66431,2.86341 -5.6965,2.11351c-1.0323,-0.75001 0.64399,-4.8573 0.24945,-6.07083c-0.3942,-1.21349 -4.16451,-3.55109 -3.77019,-4.76459c0.3942,-1.21349 4.81848,-0.8886 5.85075,-1.6385c1.03226,-0.75001 2.09038,-5.0581 3.36635,-5.0581z" fill="#1eff00" stroke="none" stroke-width="0.23333" stroke-miterlimit="4" stroke-dashoffset="17.35"/><path d="M183.78736,187.8305c1.23764,0 2.26397,4.17883 3.26532,4.90636c1.00135,0.72741 5.29281,0.41223 5.67526,1.58933c0.38253,1.1771 -3.27473,3.44459 -3.65722,4.62164c-0.38245,1.17713 1.2435,5.16121 0.24189,5.88873c-1.00131,0.72737 -4.28795,-2.05013 -5.52552,-2.05013c-1.23776,0 -4.52443,2.7775 -5.52563,2.05013c-1.00135,-0.72752 0.62468,-4.7116 0.24189,-5.88873c-0.38237,-1.17706 -4.0396,-3.44455 -3.65715,-4.62164c0.38237,-1.1771 4.67399,-0.86192 5.67519,-1.58933c1.00135,-0.72752 2.02772,-4.90636 3.26544,-4.90636z" fill="#1eff00" stroke="none" stroke-width="0.22633" stroke-miterlimit="4" stroke-dashoffset="17.35"/><path d="M105.54454,153.16521c0.54972,0.16169 1.01819,0.377 1.40625,0.64648c0.39872,0.26948 0.70619,0.57212 0.92188,0.90625c0.21568,0.33416 0.32421,0.66782 0.32421,1.00195c0,0.28039 -0.097,0.50735 -0.29101,0.67969c-0.18333,0.16177 -0.38897,0.24219 -0.61524,0.24219c-0.16173,0 -0.31303,-0.04273 -0.45312,-0.12891c-0.1401,-0.09695 -0.25367,-0.24827 -0.33984,-0.45312c-0.12926,-0.32338 -0.29994,-0.58138 -0.51563,-0.77539c-0.2048,-0.20475 -0.43662,-0.36091 -0.69531,-0.46875c-0.24791,-0.11868 -0.51271,-0.19431 -0.79297,-0.22656c-0.28024,-0.04309 -0.5499,-0.06446 -0.80859,-0.06446c-0.38806,0 -0.74983,0.04273 -1.08399,0.12891c-0.32335,0.07534 -0.60753,0.18696 -0.85547,0.33789c-0.23715,0.14002 -0.42631,0.31947 -0.5664,0.53516c-0.12926,0.2048 -0.19336,0.44145 -0.19336,0.71093c0,0.36652 0.10658,0.6672 0.32226,0.9043c0.22637,0.23708 0.52414,0.43784 0.89063,0.59961c0.36649,0.16156 0.78064,0.30124 1.24414,0.41992c0.46349,0.11868 0.93681,0.24183 1.42187,0.37109c0.49583,0.12942 0.97596,0.28557 1.43946,0.46875c0.46349,0.17245 0.8796,0.39943 1.24609,0.67969c0.36639,0.28027 0.65736,0.62556 0.87305,1.03516c0.22626,0.4096 0.33789,0.91105 0.33789,1.5039c0,0.65752 -0.12803,1.22783 -0.38672,1.71289c-0.24791,0.48507 -0.5932,0.88954 -1.03516,1.2129c-0.44193,0.3233 -0.95988,0.56675 -1.55273,0.72851c-0.59286,0.16177 -1.22233,0.24219 -1.89063,0.24219c-0.95934,0 -1.7799,-0.13482 -2.45898,-0.4043c-0.6683,-0.28026 -1.21243,-0.61392 -1.63281,-1.00195c-0.42039,-0.39882 -0.72786,-0.81493 -0.92188,-1.24609c-0.19401,-0.44196 -0.29101,-0.82507 -0.29101,-1.14844c0,-0.38796 0.097,-0.66246 0.29101,-0.82422c0.2047,-0.16177 0.41518,-0.24219 0.63086,-0.24219c0.18321,0 0.35102,0.05906 0.50195,0.17774c0.15093,0.10776 0.24119,0.28526 0.27344,0.5332c0.06458,0.4096 0.20619,0.77139 0.42188,1.08398c0.22634,0.31249 0.50084,0.57729 0.82421,0.79297c0.32338,0.20475 0.68517,0.36091 1.08399,0.46875c0.39884,0.10784 0.80813,0.16016 1.22851,0.16016c0.33414,0 0.67946,-0.03599 1.03516,-0.11133c0.36649,-0.08617 0.69528,-0.21128 0.98633,-0.37305c0.30188,-0.17247 0.54338,-0.39265 0.72656,-0.66211c0.19402,-0.26948 0.29102,-0.59343 0.29102,-0.9707c0,-0.4096 -0.11358,-0.7481 -0.33985,-1.01758c-0.21558,-0.26953 -0.50655,-0.4965 -0.87304,-0.67968c-0.35571,-0.18316 -0.76502,-0.33445 -1.22852,-0.45313c-0.46349,-0.12944 -0.93681,-0.25941 -1.42187,-0.38867c-0.48507,-0.12926 -0.96034,-0.27378 -1.42383,-0.43555c-0.4635,-0.17247 -0.87765,-0.38779 -1.24414,-0.64648c-0.35581,-0.26948 -0.64678,-0.59343 -0.87305,-0.97071c-0.21568,-0.38803 -0.32422,-0.86816 -0.32422,-1.43945c0,-0.53896 0.11358,-1.01907 0.33985,-1.43945c0.23712,-0.42039 0.55912,-0.77539 0.96875,-1.06641c0.4096,-0.29102 0.89652,-0.51118 1.45703,-0.66211c0.5605,-0.15093 1.17347,-0.22656 1.84179,-0.22656c0.64673,0 1.24034,0.08042 1.7793,0.24219zM65.35508,153.14959c0.63597,0 1.27223,0.10658 1.9082,0.32227c0.63597,0.21558 1.20628,0.57737 1.71289,1.08398c0.50663,0.49585 0.91592,1.15346 1.22852,1.97266c0.31259,0.80844 0.46875,1.80454 0.46875,2.99023c0,1.19647 -0.15616,2.20424 -0.46875,3.02344c-0.3126,0.80844 -0.72189,1.46605 -1.22852,1.97266c-0.50661,0.49574 -1.07692,0.85267 -1.71289,1.06836c-0.63597,0.21568 -1.27223,0.32226 -1.9082,0.32226h-3.83203c-0.16167,0 -0.31782,-0.02616 -0.46875,-0.08008c-0.15081,-0.06475 -0.28562,-0.15192 -0.4043,-0.25976c-0.11868,-0.10772 -0.21568,-0.24254 -0.29102,-0.4043c-0.07533,-0.16169 -0.11328,-0.33919 -0.11328,-0.5332v-10.21875c0,-0.34492 0.12316,-0.64074 0.3711,-0.88867c0.24791,-0.24794 0.55054,-0.3711 0.90625,-0.3711zM87.40587,153.39178c0.16176,0.16171 0.24219,0.36055 0.24219,0.59766v6.17773l3.96093,-3.44336c0.15098,-0.11868 0.31878,-0.17969 0.50196,-0.17969c0.17237,0 0.34019,0.06606 0.50195,0.19532c0.16176,0.12938 0.24219,0.31172 0.24219,0.54882c0,0.21556 -0.08547,0.39986 -0.25782,0.55079l-2.4746,2.13281l3.26562,4.625c0.09701,0.15103 0.14649,0.31203 0.14648,0.48437c0.00001,0.15086 -0.0281,0.28083 -0.08203,0.38867c-0.05392,0.09701 -0.12281,0.17744 -0.20898,0.24219c-0.08617,0.06476 -0.17838,0.11423 -0.27539,0.14649c-0.09701,0.03225 -0.18922,0.04687 -0.27539,0.04687c-0.14002,0 -0.26804,-0.02616 -0.38672,-0.08008c-0.11868,-0.05392 -0.22242,-0.14109 -0.30859,-0.25976l-3.10352,-4.49414l-1.24609,1.0664v2.91211c0,0.237 -0.08043,0.44069 -0.24219,0.61328c-0.16174,0.16177 -0.36056,0.24219 -0.59766,0.24219c-0.23725,0 -0.44289,-0.08042 -0.61523,-0.24219c-0.16177,-0.17249 -0.24219,-0.37618 -0.24219,-0.61328v-11.06054c0,-0.23706 0.08042,-0.4359 0.24219,-0.59766c0.1725,-0.16176 0.37813,-0.24219 0.61523,-0.24219c0.23708,0 0.43589,0.08043 0.59766,0.24219zM111.40587,153.39178c0.16176,0.16171 0.24414,0.36055 0.24414,0.59766v3.80078c0.34494,-0.39872 0.71642,-0.70619 1.11523,-0.92188c0.39882,-0.21568 0.87893,-0.32422 1.43946,-0.32422c0.49582,0 0.95266,0.07564 1.37304,0.22657c0.42039,0.1509 0.78218,0.36622 1.08399,0.64648c0.30173,0.26948 0.53355,0.60509 0.69531,1.00391c0.17235,0.38805 0.25781,0.82355 0.25781,1.30859v5.32031c0,0.237 -0.08546,0.44069 -0.25781,0.61328c-0.16171,0.16177 -0.36055,0.24219 -0.59766,0.24219c-0.23705,0 -0.43784,-0.08042 -0.59961,-0.24219c-0.16176,-0.17249 -0.24218,-0.37618 -0.24218,-0.61328v-5.32031c0,-0.24781 -0.05427,-0.47963 -0.16211,-0.69531c-0.09714,-0.22627 -0.23195,-0.42027 -0.4043,-0.58203c-0.17255,-0.16177 -0.37139,-0.28492 -0.59765,-0.3711c-0.22635,-0.09701 -0.46301,-0.14648 -0.71094,-0.14648c-0.32338,0 -0.63083,0.0641 -0.92188,0.19336c-0.29112,0.11845 -0.54912,0.28627 -0.77539,0.50195c-0.21566,0.2048 -0.38832,0.44825 -0.51758,0.72852c-0.11867,0.28026 -0.17773,0.58092 -0.17773,0.90429v4.78711c0,0.237 -0.08238,0.44069 -0.24414,0.61328c-0.16171,0.16177 -0.36056,0.24414 -0.59766,0.24414c-0.23725,0 -0.44093,-0.08237 -0.61328,-0.24414c-0.16176,-0.17249 -0.24414,-0.37618 -0.24414,-0.61328v-11.06054c0,-0.23706 0.08238,-0.4359 0.24414,-0.59766c0.1725,-0.16176 0.37618,-0.24219 0.61328,-0.24219c0.23705,0 0.43589,0.08043 0.59766,0.24219zM62.15392,164.20818h2.82812c0.63597,0 1.19174,-0.10854 1.66602,-0.32422c0.47428,-0.22635 0.86709,-0.53866 1.17968,-0.9375c0.31257,-0.4096 0.54439,-0.89942 0.69532,-1.47071c0.15093,-0.58207 0.22656,-1.23484 0.22656,-1.95703c0,-0.71141 -0.07563,-1.35254 -0.22656,-1.92383c-0.15091,-0.58207 -0.38272,-1.07186 -0.69532,-1.4707c-0.31259,-0.4095 -0.7054,-0.72181 -1.17968,-0.9375c-0.47428,-0.22627 -1.03005,-0.33984 -1.66602,-0.33984h-2.82812zM78.19298,157.09489c0.65754,0.43117 0.98633,1.0723 0.98633,1.92383v6.03125c0,0.237 -0.08238,0.44069 -0.24414,0.61328c-0.16174,0.16177 -0.36056,0.24219 -0.59766,0.24219c-0.23725,0 -0.44289,-0.08042 -0.61524,-0.24219c-0.16176,-0.17249 -0.24218,-0.37618 -0.24218,-0.61328v-0.25976c-0.4096,0.44192 -0.87808,0.73969 -1.40625,0.89062c-0.51739,0.15093 -1.06637,0.22461 -1.64844,0.22461c-0.36649,0 -0.73992,-0.04752 -1.11719,-0.14453c-0.36649,-0.10769 -0.70014,-0.26869 -1.00195,-0.48437c-0.2911,-0.21559 -0.52776,-0.48522 -0.71094,-0.8086c-0.18318,-0.32338 -0.27539,-0.71135 -0.27539,-1.16406c0,-0.51739 0.10374,-0.94998 0.3086,-1.29492c0.20479,-0.35581 0.47929,-0.64678 0.82421,-0.87305c0.34495,-0.22624 0.73776,-0.3989 1.17969,-0.51758c0.45274,-0.11868 0.92801,-0.20389 1.42383,-0.25781c0.57129,-0.0645 1.01842,-0.13535 1.3418,-0.21094c0.3233,-0.08617 0.56479,-0.18317 0.72656,-0.29101c0.16176,-0.10785 0.25876,-0.231 0.29101,-0.3711c0.04309,-0.14024 0.06446,-0.2964 0.06446,-0.46875c0,-0.20477 -0.05906,-0.38227 -0.17774,-0.5332c-0.11862,-0.15093 -0.26994,-0.27604 -0.45312,-0.37305c-0.18333,-0.09701 -0.38702,-0.1659 -0.61328,-0.20898c-0.22625,-0.05392 -0.44838,-0.08203 -0.66407,-0.08203c-0.3881,0 -0.70039,0.0329 -0.9375,0.09765c-0.2371,0.06451 -0.4311,0.14997 -0.58203,0.25782c-0.15093,0.10776 -0.27408,0.23774 -0.37109,0.38867c-0.08643,0.15083 -0.16685,0.30698 -0.24219,0.46875c-0.0645,0.12926 -0.15671,0.22626 -0.27539,0.29101c-0.10784,0.05392 -0.22142,0.08008 -0.33984,0.08008c-0.21566,0 -0.41448,-0.06889 -0.59766,-0.20898c-0.18318,-0.1401 -0.27539,-0.3341 -0.27539,-0.58203c0,-0.09701 0.02811,-0.21538 0.08203,-0.35547c0.09693,-0.22625 0.22496,-0.44838 0.38672,-0.66407c0.16169,-0.22649 0.37703,-0.42531 0.64649,-0.59765c0.28026,-0.17247 0.62071,-0.30729 1.01953,-0.4043c0.40962,-0.10784 0.90621,-0.16211 1.48828,-0.16211c1.09944,0 1.97239,0.22211 2.61914,0.66406zM124.65782,156.70622c0.53894,0.18323 1.00257,0.45287 1.39063,0.8086c0.39891,0.34492 0.71123,0.77073 0.9375,1.27734c0.22626,0.50663 0.33984,1.08374 0.33984,1.73047c0,0.39879 -0.097,0.69945 -0.29102,0.9043c-0.19401,0.20485 -0.42099,0.30859 -0.67968,0.30859h-5.91602c0,0.02142 0.00555,0.11167 0.01563,0.27344c0.02167,0.1508 0.05936,0.33509 0.11328,0.55078c0.0645,0.21556 0.14997,0.44737 0.25781,0.69531c0.11858,0.2371 0.27473,0.45726 0.46875,0.66211c0.19404,0.20483 0.43265,0.37748 0.71289,0.51758c0.29105,0.12926 0.64118,0.19336 1.05078,0.19336c0.33419,0 0.61837,-0.02616 0.85547,-0.08008c0.2372,-0.05392 0.44768,-0.13435 0.63086,-0.24219c0.18323,-0.10771 0.35102,-0.24253 0.50195,-0.40429c0.15088,-0.17255 0.3022,-0.37139 0.45313,-0.59766c0.08617,-0.12926 0.18317,-0.22147 0.29101,-0.27539c0.10759,-0.05392 0.21922,-0.08203 0.3379,-0.08203c0.19394,0 0.37339,0.07084 0.53515,0.21093c0.16177,0.14002 0.24219,0.31752 0.24219,0.53321c0,0.12933 -0.07084,0.32333 -0.21094,0.58203c-0.14014,0.25872 -0.36514,0.51865 -0.67773,0.77734c-0.30181,0.2587 -0.69658,0.48372 -1.18164,0.67774c-0.48504,0.19401 -1.0767,0.29101 -1.77735,0.29101c-0.71141,0 -1.34767,-0.12802 -1.9082,-0.38672c-0.5605,-0.25869 -1.03577,-0.60398 -1.42383,-1.03515c-0.37722,-0.44193 -0.6682,-0.95504 -0.87305,-1.53711c-0.19401,-0.58207 -0.29101,-1.19021 -0.29101,-1.82617c0,-0.65752 0.10374,-1.27731 0.30859,-1.85938c0.2048,-0.59286 0.49578,-1.10594 0.87305,-1.53711c0.38806,-0.43114 0.85169,-0.76964 1.39062,-1.01758c0.53897,-0.25869 1.14226,-0.38867 1.81055,-0.38867c0.61443,0 1.18472,0.09221 1.71289,0.27539zM134.06993,156.70622c0.53896,0.18323 1.00064,0.45287 1.38867,0.8086c0.39892,0.34492 0.71319,0.77073 0.93946,1.27734c0.22626,0.50663 0.33789,1.08374 0.33789,1.73047c0,0.39879 -0.097,0.69945 -0.29102,0.9043c-0.19404,0.20485 -0.41904,0.30859 -0.67773,0.30859h-5.91797c0,0.02142 0.00554,0.11167 0.01562,0.27344c0.02142,0.1508 0.05936,0.33509 0.11328,0.55078c0.06476,0.21556 0.15193,0.44737 0.25977,0.69531c0.11858,0.2371 0.27473,0.45726 0.46875,0.66211c0.19402,0.20483 0.43067,0.37748 0.71094,0.51758c0.29102,0.12926 0.64118,0.19336 1.05078,0.19336c0.33418,0 0.62032,-0.02616 0.85742,-0.08008c0.2372,-0.05392 0.44768,-0.13435 0.63086,-0.24219c0.18323,-0.10771 0.34907,-0.24253 0.5,-0.40429c0.15088,-0.17255 0.3022,-0.37139 0.45312,-0.59766c0.08618,-0.12926 0.18318,-0.22147 0.29102,-0.27539c0.10784,-0.05392 0.22142,-0.08203 0.33984,-0.08203c0.19394,0 0.37144,0.07084 0.53321,0.21093c0.16176,0.14002 0.24219,0.31752 0.24219,0.53321c0,0.12933 -0.06889,0.32333 -0.20899,0.58203c-0.14012,0.25872 -0.36709,0.51865 -0.67969,0.77734c-0.30183,0.2587 -0.69465,0.48372 -1.17968,0.67774c-0.48507,0.19401 -1.07865,0.29101 -1.7793,0.29101c-0.71141,0 -1.3477,-0.12802 -1.9082,-0.38672c-0.56053,-0.25869 -1.03385,-0.60398 -1.42188,-1.03515c-0.37722,-0.44193 -0.6682,-0.95504 -0.87305,-1.53711c-0.19401,-0.58207 -0.29101,-1.19021 -0.29101,-1.82617c0,-0.65752 0.10179,-1.27731 0.30664,-1.85938c0.2048,-0.59286 0.49577,-1.10594 0.87305,-1.53711c0.38803,-0.43114 0.85166,-0.76964 1.39062,-1.01758c0.53896,-0.25869 1.14225,-0.38867 1.81055,-0.38867c0.6144,0 1.18666,0.09221 1.71484,0.27539zM81.8922,156.80193c0.16176,0.16171 0.24414,0.3625 0.24414,0.59961v0.30664c0.04334,-0.04309 0.12376,-0.12856 0.24219,-0.25782c0.1187,-0.12943 0.2632,-0.25941 0.43554,-0.38867c0.18313,-0.14009 0.38393,-0.25846 0.59961,-0.35547c0.22634,-0.10784 0.463,-0.16211 0.71094,-0.16211c0.23705,0 0.43589,0.08717 0.59765,0.25977c0.17235,0.16171 0.25977,0.36055 0.25977,0.59766c0,0.22646 -0.08742,0.4253 -0.25977,0.59765c-0.16171,0.16177 -0.36055,0.24219 -0.59765,0.24219c-0.4096,0 -0.74326,0.097 -1.00195,0.29101c-0.25868,0.18324 -0.46431,0.40537 -0.61524,0.66407c-0.14009,0.25869 -0.23709,0.52833 -0.29101,0.80859c-0.05393,0.28032 -0.08008,0.51213 -0.08008,0.69531v4.34766c0,0.237 -0.08238,0.44264 -0.24414,0.61523c-0.16174,0.16177 -0.36056,0.24219 -0.59766,0.24219c-0.23725,0 -0.44289,-0.08042 -0.61523,-0.24219c-0.16177,-0.17249 -0.24219,-0.37813 -0.24219,-0.61523v-7.64648c0,-0.23706 0.08042,-0.43785 0.24219,-0.59961c0.17249,-0.1726 0.37813,-0.25782 0.61523,-0.25782c0.23708,0 0.43589,0.08522 0.59766,0.25782zM139.25939,156.80388c0.16177,0.16171 0.24219,0.36055 0.24219,0.59766v0.14648c0.21566,-0.18333 0.41448,-0.33949 0.59766,-0.46875c0.19396,-0.12951 0.39476,-0.23326 0.59961,-0.30859c0.20477,-0.08643 0.42979,-0.14549 0.67773,-0.17774c0.24794,-0.03225 0.53407,-0.04883 0.85742,-0.04883c0.52818,0 1.02479,0.11358 1.48828,0.33985c0.47429,0.22634 0.88358,0.55032 1.22852,0.9707c0.35565,0.4096 0.63499,0.90621 0.83984,1.48828c0.20485,0.57129 0.3086,1.20076 0.3086,1.89063c0,0.68986 -0.09221,1.32129 -0.27539,1.89257c-0.18326,0.57129 -0.44805,1.06595 -0.79297,1.48633c-0.33416,0.4097 -0.73666,0.72881 -1.21094,0.95508c-0.47428,0.22627 -1.00386,0.33789 -1.58594,0.33789c-0.38803,0 -0.72653,-0.03769 -1.01757,-0.11328c-0.28014,-0.08617 -0.52846,-0.18796 -0.74415,-0.30664c-0.20472,-0.1186 -0.38901,-0.24858 -0.55078,-0.38867l-0.41992,-0.41992v3.7832c0,0.23705 -0.08042,0.43784 -0.24219,0.59961c-0.16171,0.17234 -0.36055,0.25781 -0.59765,0.25781c-0.23726,0 -0.44289,-0.08547 -0.61524,-0.25781c-0.16176,-0.16172 -0.24218,-0.36251 -0.24218,-0.59961v-11.05859c0,-0.23706 0.08042,-0.4359 0.24218,-0.59766c0.1725,-0.1726 0.37814,-0.25977 0.61524,-0.25977c0.23705,0 0.43589,0.08717 0.59765,0.25977zM121.95665,157.99919c-0.28026,0.11865 -0.51692,0.26995 -0.71094,0.45313c-0.18318,0.17234 -0.3277,0.36634 -0.43554,0.58203c-0.10785,0.21566 -0.19022,0.41447 -0.24414,0.59765c-0.05468,0.18326 -0.08563,0.34624 -0.09571,0.48633c-0.01008,0.12825 -0.01562,0.20389 -0.01562,0.22656h5.23828c0,-0.33416 -0.05427,-0.65327 -0.16211,-0.95507c-0.10787,-0.30191 -0.27373,-0.56475 -0.5,-0.79102c-0.21559,-0.23718 -0.49685,-0.42631 -0.8418,-0.56641c-0.34492,-0.14009 -0.74939,-0.21093 -1.21289,-0.21093c-0.39881,0 -0.73927,0.05905 -1.01953,0.17773zM131.36877,157.99919c-0.28027,0.11865 -0.51888,0.26995 -0.71289,0.45313c-0.18318,0.17234 -0.32771,0.36634 -0.43555,0.58203c-0.10784,0.21566 -0.18826,0.41447 -0.24219,0.59765c-0.05467,0.18326 -0.08757,0.34624 -0.09765,0.48633c-0.01008,0.12825 -0.01563,0.20389 -0.01563,0.22656h5.23828c0,-0.33416 -0.05426,-0.65327 -0.1621,-0.95507c-0.1079,-0.30191 -0.27374,-0.56475 -0.5,-0.79102c-0.21559,-0.23718 -0.49688,-0.42631 -0.8418,-0.56641c-0.34492,-0.14009 -0.74742,-0.21093 -1.21094,-0.21093h-0.00195c-0.39882,0 -0.73732,0.05905 -1.01758,0.17773zM140.86095,158.21013c-0.31249,0.18323 -0.57729,0.43155 -0.79297,0.74414c-0.21549,0.30181 -0.38328,0.65194 -0.50195,1.05078c-0.10785,0.38803 -0.16016,0.79735 -0.16016,1.22852c0,0.42038 0.05231,0.82967 0.16016,1.22851c0.11847,0.39882 0.28626,0.74898 0.50195,1.05078c0.21558,0.30189 0.48037,0.54534 0.79297,0.72852c0.32337,0.18318 0.69001,0.27344 1.09961,0.27344c0.39881,0 0.75381,-0.09026 1.0664,-0.27344c0.32328,-0.18326 0.59291,-0.42671 0.8086,-0.72852c0.22631,-0.3018 0.39215,-0.65196 0.5,-1.05078c0.11842,-0.39884 0.17773,-0.80813 0.17773,-1.22851c0,-0.43117 -0.05931,-0.84049 -0.17773,-1.22852c-0.1079,-0.39884 -0.27374,-0.74897 -0.5,-1.05078c-0.21559,-0.31264 -0.48522,-0.56096 -0.8086,-0.74414c-0.31259,-0.18318 -0.66759,-0.27539 -1.0664,-0.27539c-0.4096,0 -0.77624,0.09221 -1.09961,0.27539zM77.07579,161.38006c-0.2048,0.06476 -0.44632,0.11228 -0.72656,0.14453c-0.26948,0.03225 -0.55562,0.0702 -0.85742,0.11328c-0.29105,0.04309 -0.57716,0.09736 -0.85743,0.16211c-0.28034,0.06476 -0.53349,0.16176 -0.75976,0.29102c-0.22639,0.11857 -0.41069,0.27473 -0.55078,0.46875c-0.12926,0.19404 -0.19336,0.44233 -0.19336,0.74414c0,0.23705 0.04947,0.43589 0.14648,0.59766c0.10772,0.15092 0.24254,0.27408 0.4043,0.37109c0.16164,0.08617 0.34398,0.15222 0.54883,0.19531c0.20475,0.03225 0.41038,0.04688 0.61523,0.04688c0.31259,0 0.62491,-0.03095 0.9375,-0.09571c0.31257,-0.07534 0.59191,-0.1937 0.83985,-0.35547c0.25867,-0.16168 0.4643,-0.37895 0.61523,-0.64843c0.16176,-0.26946 0.24219,-0.60312 0.24219,-1.00196v-1.14843zM65.92149,167.81951c0.77609,0 1.46472,0.18916 2.06836,0.56641c0.6144,0.36649 1.12751,0.85144 1.53711,1.45508c0.42029,0.59283 0.73744,1.27178 0.95313,2.03711c0.21568,0.7653 0.32422,1.53446 0.32422,2.31054c0,0.78688 -0.10854,1.56475 -0.32422,2.33008c-0.21559,0.75452 -0.53274,1.43347 -0.95313,2.03711c-0.4096,0.60362 -0.91591,1.09343 -1.51953,1.47071c-0.60364,0.36648 -1.29906,0.54882 -2.08594,0.54882h-4.39843c-0.15088,0 -0.3022,-0.02136 -0.45313,-0.06445c-0.151,-0.05392 -0.29066,-0.12955 -0.41992,-0.22656c-0.11868,-0.10772 -0.21568,-0.24254 -0.29102,-0.4043c-0.07533,-0.16179 -0.11328,-0.35576 -0.11328,-0.58203v-10.21875c0,-0.09701 0.01658,-0.21537 0.04883,-0.35547c0.03225,-0.151 0.09635,-0.29066 0.19336,-0.41992c0.09696,-0.1401 0.22691,-0.25367 0.38867,-0.33984c0.17245,-0.09701 0.38779,-0.14454 0.64649,-0.14454zM73.62853,168.15936c0.2371,0.22637 0.35546,0.50084 0.35546,0.82422c0,0.32345 -0.11836,0.59795 -0.35546,0.82421c-0.22637,0.22627 -0.50087,0.33985 -0.82422,0.33985c-0.31265,0 -0.58712,-0.11358 -0.82422,-0.33985c-0.22627,-0.22634 -0.33985,-0.50084 -0.33985,-0.82421c0,-0.32348 0.11358,-0.59795 0.33985,-0.82422c0.23715,-0.22627 0.51162,-0.33985 0.82422,-0.33985c0.32345,0 0.59795,0.11358 0.82422,0.33985zM62.72031,178.44256h2.2793c0.63597,0 1.1636,-0.11837 1.58398,-0.35547c0.43117,-0.24794 0.77646,-0.57189 1.03516,-0.9707c0.25865,-0.39882 0.44098,-0.85274 0.54883,-1.35938c0.10784,-0.51739 0.16211,-1.04018 0.16211,-1.56836c0,-0.52817 -0.05427,-1.04417 -0.16211,-1.55078c-0.10779,-0.5066 -0.29013,-0.96053 -0.54883,-1.35937c-0.2587,-0.39879 -0.60399,-0.72081 -1.03516,-0.96875c-0.42038,-0.24794 -0.94801,-0.37305 -1.58398,-0.37305h-2.2793zM80.19298,171.45623c0.45271,0.15101 0.83584,0.34014 1.14844,0.56641c0.3235,0.22637 0.57179,0.47468 0.74414,0.74414c0.18318,0.2588 0.27343,0.50029 0.27343,0.72656c0,0.14002 -0.03094,0.27 -0.0957,0.38867c-0.0645,0.11868 -0.15192,0.22047 -0.25976,0.30664c-0.09701,0.07534 -0.21059,0.1414 -0.33985,0.19532c-0.11868,0.04308 -0.23704,0.06445 -0.35547,0.06445c-0.12926,0 -0.25241,-0.02811 -0.37109,-0.08203c-0.11843,-0.06476 -0.20389,-0.17134 -0.25781,-0.32227c-0.08618,-0.20482 -0.2065,-0.37748 -0.35743,-0.51757c-0.14019,-0.1401 -0.30119,-0.25368 -0.48437,-0.33985c-0.17242,-0.09701 -0.36156,-0.16785 -0.56641,-0.21094c-0.19401,-0.04308 -0.38801,-0.06445 -0.58203,-0.06445c-0.42038,0 -0.77051,0.07563 -1.05078,0.22656c-0.28024,0.14012 -0.41992,0.3671 -0.41992,0.67969c0,0.25872 0.13484,0.45756 0.4043,0.59766c0.28026,0.14009 0.62555,0.2652 1.03515,0.37304c0.4096,0.09701 0.85189,0.20359 1.32617,0.32227c0.47428,0.10779 0.9146,0.25911 1.32422,0.45312c0.4096,0.18324 0.75005,0.43155 1.01953,0.74414c0.28024,0.30184 0.41993,0.70629 0.41993,1.2129c0,0.53896 -0.10179,1.01227 -0.30664,1.42187c-0.19402,0.39882 -0.46365,0.73927 -0.8086,1.01953c-0.33413,0.26951 -0.73377,0.47319 -1.19726,0.61328c-0.45274,0.1401 -0.93769,0.21094 -1.45508,0.21094c-0.65751,0 -1.23946,-0.09221 -1.7461,-0.27539c-0.5066,-0.19402 -0.93242,-0.43067 -1.27734,-0.71094c-0.345,-0.28026 -0.60979,-0.58774 -0.79297,-0.92187c-0.17235,-0.34495 -0.25781,-0.6621 -0.25781,-0.95313c0,-0.24791 0.11357,-0.44868 0.33984,-0.59961c0.23713,-0.15093 0.49029,-0.22656 0.75977,-0.22656c0.18323,0 0.34907,0.03794 0.5,0.11328c0.15093,0.07534 0.25946,0.19371 0.32422,0.35547c0.18323,0.45274 0.44805,0.81937 0.79297,1.09961c0.34494,0.28026 0.79691,0.41992 1.35742,0.41992c0.1833,0 0.3676,-0.02136 0.55078,-0.06445c0.18328,-0.05392 0.34428,-0.12281 0.48437,-0.20899c0.15093,-0.097 0.2693,-0.21058 0.35547,-0.33984c0.09701,-0.14019 0.14453,-0.30119 0.14453,-0.48437c0,-0.29095 -0.13286,-0.51793 -0.40234,-0.67969c-0.26948,-0.16164 -0.60509,-0.29646 -1.00391,-0.4043c-0.39884,-0.11842 -0.83431,-0.232 -1.30859,-0.33984c-0.47428,-0.11858 -0.91173,-0.27474 -1.31055,-0.46875c-0.39881,-0.19402 -0.73247,-0.44718 -1.00195,-0.75977c-0.26948,-0.31259 -0.4043,-0.73354 -0.4043,-1.26172c0,-0.42038 0.08717,-0.80836 0.25977,-1.16406c0.17245,-0.3557 0.41397,-0.65636 0.72656,-0.9043c0.32338,-0.24793 0.70649,-0.44193 1.14844,-0.58203c0.44193,-0.14009 0.93174,-0.21093 1.4707,-0.21093c0.54972,0 1.05117,0.08042 1.50391,0.24218zM88.84727,171.45623c0.45274,0.15101 0.8339,0.34014 1.14649,0.56641c0.32348,0.22637 0.57179,0.47468 0.74414,0.74414c0.18318,0.2588 0.27539,0.50029 0.27539,0.72656c0,0.14002 -0.0329,0.27 -0.09766,0.38867c-0.06475,0.11868 -0.14997,0.22047 -0.25781,0.30664c-0.09701,0.07534 -0.21058,0.1414 -0.33984,0.19532c-0.11843,0.04308 -0.23679,0.06445 -0.35547,0.06445c-0.12926,0 -0.25437,-0.02811 -0.37305,-0.08203c-0.11867,-0.06476 -0.20389,-0.17134 -0.25781,-0.32227c-0.08617,-0.20482 -0.20454,-0.37748 -0.35547,-0.51757c-0.14019,-0.1401 -0.30315,-0.25368 -0.48633,-0.33985c-0.17242,-0.09701 -0.3596,-0.16785 -0.56445,-0.21094c-0.19402,-0.04308 -0.38802,-0.06445 -0.58203,-0.06445c-0.42039,0 -0.77247,0.07563 -1.05274,0.22656c-0.28026,0.14012 -0.41992,0.3671 -0.41992,0.67969c0,0.25872 0.13482,0.45756 0.4043,0.59766c0.28026,0.14009 0.62556,0.2652 1.03516,0.37304c0.4096,0.09701 0.85189,0.20359 1.32617,0.32227c0.47428,0.10779 0.91657,0.25911 1.32617,0.45312c0.4096,0.18324 0.7481,0.43155 1.01758,0.74414c0.28026,0.30184 0.41992,0.70629 0.41992,1.2129h0.00195c0,0.53896 -0.10374,1.01227 -0.30859,1.42187c-0.19404,0.39882 -0.46368,0.73927 -0.8086,1.01953c-0.33416,0.26951 -0.73181,0.47319 -1.19531,0.61328c-0.45271,0.1401 -0.93768,0.21094 -1.45508,0.21094c-0.65753,0 -1.23948,-0.09221 -1.74609,-0.27539c-0.50661,-0.19402 -0.9324,-0.43067 -1.27734,-0.71094c-0.345,-0.28026 -0.60979,-0.58774 -0.79297,-0.92187c-0.17235,-0.34495 -0.25781,-0.6621 -0.25781,-0.95313c0,-0.24791 0.11162,-0.44868 0.33789,-0.59961c0.23715,-0.15093 0.49223,-0.22656 0.76171,-0.22656c0.18321,0 0.34908,0.03794 0.5,0.11328c0.15093,0.07534 0.25947,0.19371 0.32422,0.35547c0.18326,0.45274 0.4461,0.81937 0.79102,1.09961c0.34494,0.28026 0.79887,0.41992 1.35937,0.41992c0.18331,0 0.36565,-0.02136 0.54883,-0.06445c0.18328,-0.05392 0.34624,-0.12281 0.48633,-0.20899c0.15093,-0.097 0.2693,-0.21058 0.35547,-0.33984c0.09701,-0.14019 0.14453,-0.30119 0.14453,-0.48437c0,-0.29095 -0.13482,-0.51793 -0.4043,-0.67969c-0.26945,-0.16164 -0.60311,-0.29646 -1.00195,-0.4043c-0.39882,-0.11842 -0.83431,-0.232 -1.30859,-0.33984c-0.47428,-0.11858 -0.91173,-0.27474 -1.31055,-0.46875c-0.39884,-0.19402 -0.73247,-0.44718 -1.00195,-0.75977c-0.26948,-0.31259 -0.4043,-0.73354 -0.4043,-1.26172c0,-0.42038 0.08547,-0.80836 0.25781,-1.16406c0.17247,-0.3557 0.41593,-0.65636 0.72852,-0.9043c0.32337,-0.24793 0.70455,-0.44193 1.14648,-0.58203c0.44196,-0.14009 0.9337,-0.21093 1.47266,-0.21093c0.54972,0 1.05119,0.08042 1.5039,0.24218zM98.6461,171.56951c0.57129,0.22635 1.0679,0.55032 1.48828,0.97071c0.42044,0.42038 0.74923,0.92667 0.98633,1.51953c0.24794,0.58207 0.3711,1.23 0.3711,1.9414c0,0.71144 -0.12316,1.36225 -0.3711,1.95508c-0.23715,0.58207 -0.56594,1.08352 -0.98633,1.50391c-0.42038,0.42043 -0.91699,0.74922 -1.48828,0.98633c-0.57129,0.22626 -1.18428,0.33984 -1.84179,0.33984c-0.64676,0 -1.25684,-0.11358 -1.82813,-0.33984c-0.57129,-0.23716 -1.06594,-0.56595 -1.48633,-0.98633c-0.42036,-0.42039 -0.75597,-0.92184 -1.0039,-1.50391c-0.23711,-0.59283 -0.35547,-1.24364 -0.35547,-1.95508c0,-0.7114 0.11836,-1.35933 0.35547,-1.9414c0.24791,-0.59286 0.58352,-1.09915 1.0039,-1.51953c0.42039,-0.42046 0.91504,-0.74444 1.48633,-0.97071c0.57129,-0.2371 1.18137,-0.35546 1.82813,-0.35546c0.65751,-0.00001 1.2705,0.11836 1.84179,0.35546zM104.45274,171.56951c0.22627,0.22635 0.33985,0.49601 0.33985,0.8086c0.09693,-0.10785 0.22691,-0.231 0.38867,-0.3711c0.16179,-0.14009 0.35576,-0.2652 0.58203,-0.37304c0.22637,-0.11868 0.48437,-0.21568 0.77539,-0.29102c0.29102,-0.08617 0.61984,-0.1289 0.98633,-0.1289c0.40962,-0.00001 0.79757,0.07084 1.16406,0.21093c0.36649,0.1401 0.68562,0.3341 0.95508,0.58203c0.28024,0.24792 0.49556,0.54857 0.64648,0.9043c0.16177,0.34492 0.24219,0.73289 0.24219,1.16406v5.33594c0,0.31262 -0.11357,0.58907 -0.33984,0.82617c-0.22635,0.22627 -0.50084,0.33789 -0.82422,0.33789c-0.3234,0 -0.6047,-0.11162 -0.8418,-0.33789c-0.22627,-0.23713 -0.33789,-0.51358 -0.33789,-0.82617v-4.55859c0,-0.23711 -0.04947,-0.45922 -0.14648,-0.66407c-0.08618,-0.20477 -0.20454,-0.38227 -0.35547,-0.5332c-0.15085,-0.15093 -0.32835,-0.26929 -0.5332,-0.35547c-0.20483,-0.09701 -0.42696,-0.14453 -0.66407,-0.14453c-0.22626,0 -0.44642,0.04752 -0.66211,0.14453c-0.20477,0.08618 -0.38227,0.20454 -0.5332,0.35547c-0.15093,0.15085 -0.27604,0.32835 -0.37305,0.5332c-0.08617,0.20485 -0.1289,0.42696 -0.1289,0.66407v4.55859c0,0.31262 -0.11358,0.58907 -0.33985,0.82617c-0.22636,0.22627 -0.50084,0.33789 -0.82421,0.33789c-0.32341,0 -0.60275,-0.11162 -0.83985,-0.33789c-0.22627,-0.23713 -0.33984,-0.51358 -0.33984,-0.82617v-7.0332c0,-0.31267 0.11357,-0.58233 0.33984,-0.8086c0.23713,-0.2371 0.51647,-0.35546 0.83985,-0.35546c0.32347,-0.00001 0.59795,0.11836 0.82421,0.35546zM117.37462,171.35858c0.46352,0.09698 0.86313,0.24827 1.19726,0.45312c0.345,0.2048 0.60784,0.46475 0.79102,0.77735c0.19402,0.3018 0.29102,0.66844 0.29102,1.0996v5.77149c0,0.31249 -0.10658,0.57533 -0.32227,0.79101c-0.21556,0.21569 -0.48038,0.32422 -0.79297,0.32422c-0.29095,0 -0.54408,-0.09221 -0.75976,-0.27539c-0.20485,-0.19401 -0.32322,-0.43554 -0.35547,-0.72656c-0.4096,0.38808 -0.84219,0.65287 -1.29492,0.79297c-0.45272,0.14009 -0.96387,0.20898 -1.53516,0.20898c-0.36649,0 -0.73796,-0.05426 -1.11524,-0.16211c-0.36648,-0.10769 -0.70014,-0.26869 -1.00195,-0.48437c-0.2911,-0.22634 -0.52971,-0.50084 -0.71289,-0.82422c-0.18318,-0.32338 -0.27344,-0.70164 -0.27344,-1.13281c0,-0.6683 0.1445,-1.19109 0.43555,-1.56836c0.30181,-0.37727 0.67328,-0.66145 1.11523,-0.85547c0.44193,-0.19409 0.91722,-0.3357 1.42383,-0.42188c0.51742,-0.08617 0.99753,-0.17163 1.43946,-0.25781c0.44195,-0.08617 0.80858,-0.20454 1.09961,-0.35547c0.3018,-0.16169 0.45117,-0.41484 0.45117,-0.75976c0,-0.16159 -0.04753,-0.30125 -0.14453,-0.41992c-0.08618,-0.12952 -0.21129,-0.23326 -0.37305,-0.3086c-0.16159,-0.08617 -0.34877,-0.15027 -0.56445,-0.19336c-0.21561,-0.04308 -0.44259,-0.06445 -0.67969,-0.06445c-0.31272,0 -0.55617,0.04273 -0.72852,0.12891c-0.17242,0.08642 -0.31208,0.19495 -0.41992,0.32421c-0.09701,0.12926 -0.17743,0.27379 -0.24219,0.43555c-0.06475,0.15101 -0.14518,0.29066 -0.24218,0.41992c-0.08618,0.12951 -0.20454,0.23805 -0.35547,0.32422c-0.15091,0.08618 -0.36622,0.12891 -0.64649,0.12891c-0.25869,0 -0.48567,-0.0641 -0.67968,-0.19336c-0.18319,-0.14012 -0.2754,-0.38844 -0.2754,-0.74414c0,-0.34492 0.08742,-0.66403 0.25977,-0.95508c0.17247,-0.29097 0.41881,-0.53734 0.74219,-0.74219c0.32337,-0.21548 0.71814,-0.38327 1.18164,-0.50195c0.46349,-0.11868 0.98629,-0.17773 1.56836,-0.17773c0.54972,0 1.05603,0.04752 1.51953,0.14453zM122.92735,171.56951c0.22627,0.22635 0.33985,0.49601 0.33985,0.8086c0.09693,-0.10785 0.2269,-0.231 0.38867,-0.3711c0.16179,-0.14009 0.35576,-0.2652 0.58203,-0.37304c0.22637,-0.11868 0.48437,-0.21568 0.77539,-0.29102c0.29102,-0.08617 0.61984,-0.1289 0.98633,-0.1289c0.40962,-0.00001 0.79757,0.07084 1.16406,0.21093c0.36649,0.1401 0.68367,0.3341 0.95313,0.58203c0.28024,0.24792 0.49555,0.54857 0.64648,0.9043c0.16176,0.34492 0.24414,0.73289 0.24414,1.16406l-0.00195,5.33594c0,0.31262 -0.11162,0.58907 -0.33789,0.82617c-0.22635,0.22627 -0.5028,0.33789 -0.82617,0.33789c-0.32341,0 -0.60275,-0.11162 -0.83985,-0.33789c-0.22627,-0.23713 -0.33984,-0.51358 -0.33984,-0.82617v-4.55859c0,-0.23711 -0.04753,-0.45922 -0.14453,-0.66407c-0.08618,-0.20477 -0.20454,-0.38227 -0.35547,-0.5332c-0.15086,-0.15093 -0.33031,-0.26929 -0.53516,-0.35547c-0.20482,-0.09701 -0.42501,-0.14453 -0.66211,-0.14453c-0.22627,0 -0.44642,0.04752 -0.66211,0.14453c-0.20477,0.08618 -0.38422,0.20454 -0.53515,0.35547c-0.15093,0.15085 -0.27409,0.32835 -0.3711,0.5332c-0.08617,0.20485 -0.1289,0.42696 -0.1289,0.66407v4.55859c0,0.31262 -0.11358,0.58907 -0.33985,0.82617c-0.22637,0.22627 -0.50084,0.33789 -0.82422,0.33789c-0.3234,0 -0.60469,-0.11162 -0.84179,-0.33789c-0.22627,-0.23713 -0.33789,-0.51358 -0.33789,-0.82617v-7.0332c0,-0.31267 0.11162,-0.58233 0.33789,-0.8086c0.23713,-0.2371 0.51842,-0.35546 0.84179,-0.35546c0.32348,-0.00001 0.59796,0.11836 0.82422,0.35546zM136.2047,171.56951c0.49582,0.23713 0.90027,0.51163 1.21289,0.82422c0.3234,0.31259 0.55522,0.62007 0.69531,0.92188c0.15093,0.29095 0.22656,0.49655 0.22656,0.61523c0,0.16166 -0.04468,0.31782 -0.13086,0.46875c-0.07559,0.1401 -0.17738,0.26325 -0.30664,0.3711c-0.12926,0.10759 -0.27573,0.19501 -0.4375,0.25976c-0.15088,0.06476 -0.30024,0.09766 -0.45117,0.09766c-0.151,0 -0.29261,-0.03795 -0.42187,-0.11328c-0.11868,-0.08625 -0.2039,-0.22786 -0.25782,-0.42188c-0.03225,-0.14004 -0.09156,-0.28941 -0.17773,-0.45117c-0.08617,-0.17245 -0.20933,-0.3354 -0.3711,-0.48633c-0.15097,-0.15093 -0.34013,-0.27408 -0.5664,-0.37109c-0.22637,-0.10785 -0.49116,-0.16211 -0.79297,-0.16211c-0.66832,0 -1.19111,0.23181 -1.56836,0.69531c-0.37727,0.4635 -0.56641,1.19192 -0.56641,2.18359c0,0.99168 0.18914,1.71815 0.56641,2.18164c0.37725,0.46353 0.90004,0.69532 1.56836,0.69532c0.30191,0 0.5667,-0.04753 0.79297,-0.14453c0.2371,-0.10777 0.4311,-0.23775 0.58203,-0.38868c0.15093,-0.15082 0.2693,-0.30698 0.35547,-0.46875c0.08617,-0.17249 0.14548,-0.32865 0.17773,-0.46875c0.04334,-0.19411 0.12856,-0.32895 0.25782,-0.40429c0.12933,-0.08618 0.27094,-0.12891 0.42187,-0.12891c0.1401,0 0.28462,0.03095 0.43555,0.0957c0.16179,0.06451 0.30824,0.15193 0.4375,0.25977c0.12926,0.10777 0.23609,0.23579 0.32226,0.38672c0.08618,0.14004 0.12891,0.29136 0.12891,0.45312c0,0.11858 -0.06889,0.32906 -0.20898,0.63086c-0.12934,0.29103 -0.35148,0.59366 -0.66407,0.90625c-0.30181,0.31265 -0.69946,0.58712 -1.19531,0.82422c-0.49582,0.2371 -1.11077,0.35547 -1.84375,0.35547c-0.63597,0 -1.2276,-0.11358 -1.77734,-0.33984c-0.53894,-0.22637 -1.00937,-0.55032 -1.40821,-0.97071c-0.39891,-0.42038 -0.71123,-0.92183 -0.9375,-1.5039c-0.22626,-0.59286 -0.33984,-1.24851 -0.33984,-1.97071c0,-0.72219 0.11358,-1.37495 0.33984,-1.95703c0.22637,-0.59283 0.53869,-1.09914 0.9375,-1.51953c0.39884,-0.42048 0.86927,-0.74443 1.40821,-0.9707c0.54974,-0.22627 1.14137,-0.33984 1.77734,-0.33984c0.68984,0 1.28345,0.11836 1.7793,0.35546zM145.25157,171.63397c0.52818,0.26948 0.95884,0.60993 1.29297,1.01953c0.34487,0.4096 0.598,0.85189 0.75977,1.32617c0.16176,0.47428 0.24414,0.90978 0.24414,1.30859c0,0.37725 -0.07085,0.69152 -0.21094,0.93946c-0.14012,0.24793 -0.34575,0.37109 -0.61524,0.37109h-5.17382c-0.11843,0 -0.20868,0.04273 -0.27344,0.12891c-0.05392,0.07559 -0.08203,0.17933 -0.08203,0.30859c0,0.16159 0.04947,0.34877 0.14648,0.56445c0.09701,0.2048 0.24153,0.4056 0.43555,0.59961c0.19402,0.19412 0.43067,0.35512 0.71094,0.48438c0.29102,0.12926 0.62663,0.19336 1.0039,0.19336c0.22625,0 0.42506,-0.02137 0.59766,-0.06446c0.17242,-0.05392 0.33345,-0.12955 0.48437,-0.22656c0.15096,-0.09701 0.29741,-0.22016 0.4375,-0.37109c0.15096,-0.16159 0.31682,-0.35072 0.5,-0.56641c0.16164,-0.19401 0.34594,-0.29101 0.55079,-0.29101c0.12943,0 0.25941,0.0329 0.38867,0.09765c0.12926,0.06451 0.24088,0.14997 0.33789,0.25782c0.09701,0.10784 0.17938,0.23295 0.24414,0.37304c0.06475,0.12939 0.0957,0.2642 0.0957,0.4043c0,0.14012 -0.07563,0.33896 -0.22656,0.59766c-0.14015,0.24791 -0.3603,0.50106 -0.66211,0.75976c-0.30181,0.24794 -0.67815,0.46809 -1.13086,0.66211c-0.45274,0.18318 -0.992,0.27539 -1.61719,0.27539c-0.7114,0 -1.34767,-0.12998 -1.9082,-0.38867c-0.5605,-0.2587 -1.0358,-0.60399 -1.42383,-1.03516c-0.37722,-0.44193 -0.66819,-0.94824 -0.87305,-1.51953c-0.19401,-0.58207 -0.29101,-1.19504 -0.29101,-1.8418c0,-0.64672 0.08742,-1.25683 0.25977,-1.82812c0.18325,-0.58207 0.45773,-1.08836 0.82421,-1.51953c0.36649,-0.44195 0.82528,-0.79209 1.375,-1.05078c0.54975,-0.2587 1.19572,-0.38867 1.93946,-0.38867c0.72221,0 1.34198,0.13965 1.85937,0.41992zM73.62853,171.78045c0.2371,0.22637 0.35546,0.50084 0.35546,0.82422v6.80664c0,0.32345 -0.11836,0.5999 -0.35546,0.82617c-0.22637,0.22627 -0.50087,0.33789 -0.82422,0.33789c-0.32348,0 -0.59795,-0.11162 -0.82422,-0.33789c-0.22627,-0.23713 -0.33985,-0.51358 -0.33985,-0.82617v-6.80664c0,-0.32348 0.11358,-0.59795 0.33985,-0.82422c0.23715,-0.2371 0.51162,-0.35547 0.82422,-0.35547c0.32345,0 0.59795,0.11837 0.82422,0.35547zM95.73595,173.17108c-0.31267,0.16168 -0.58233,0.38863 -0.8086,0.67968c-0.21548,0.28024 -0.38132,0.60906 -0.5,0.98633c-0.11867,0.36649 -0.17968,0.75446 -0.17968,1.16406c0,0.4096 0.06101,0.80242 0.17968,1.17969c0.11848,0.37727 0.28432,0.70607 0.5,0.98633c0.22635,0.28037 0.496,0.50734 0.8086,0.67969c0.31259,0.16176 0.66952,0.24219 1.06836,0.24219c0.39881,0 0.75381,-0.08043 1.0664,-0.24219c0.32328,-0.17247 0.59291,-0.39945 0.8086,-0.67969c0.21548,-0.28026 0.38132,-0.60906 0.5,-0.98633c0.11867,-0.37727 0.17968,-0.77009 0.17968,-1.17969c0,-0.4096 -0.06101,-0.79757 -0.17968,-1.16406c-0.11848,-0.37727 -0.28432,-0.70609 -0.5,-0.98633c-0.21559,-0.29097 -0.48522,-0.51792 -0.8086,-0.67968c-0.31259,-0.17235 -0.66759,-0.25782 -1.0664,-0.25782c-0.39884,0 -0.75577,0.08547 -1.06836,0.25782zM142.4547,173.29998c-0.2588,0.1079 -0.47414,0.24758 -0.64649,0.41992c-0.16176,0.16177 -0.28687,0.3344 -0.37304,0.51758c-0.08618,0.18328 -0.12891,0.34624 -0.12891,0.48633c0,0.21569 0.08042,0.32227 0.24219,0.32227h3.6875c0.14009,0 0.20898,-0.10179 0.20898,-0.30664c0,-0.14017 -0.04273,-0.3012 -0.1289,-0.48438c-0.0756,-0.18318 -0.19875,-0.35581 -0.3711,-0.51758c-0.16169,-0.17234 -0.37216,-0.31882 -0.63086,-0.4375c-0.25869,-0.11867 -0.56614,-0.17773 -0.92187,-0.17773c-0.35571,0 -0.66802,0.05906 -0.9375,0.17773zM116.50157,176.30779c-0.37725,0.11843 -0.8884,0.2368 -1.53515,0.35547c-0.78688,0.14012 -1.18165,0.5116 -1.18165,1.11524c0.00001,0.15093 0.02137,0.2974 0.06446,0.4375c0.05367,0.14002 0.14109,0.26804 0.25976,0.38672c0.11858,0.10759 0.27474,0.19501 0.46875,0.25976c0.2048,0.06476 0.4531,0.09571 0.74414,0.09571c0.24789,0 0.49425,-0.02616 0.74219,-0.08008c0.2587,-0.06451 0.48567,-0.14997 0.67969,-0.25782c0.2047,-0.1185 0.3657,-0.26011 0.48437,-0.42187c0.12926,-0.17235 0.19532,-0.36635 0.19532,-0.58203v-1.56641c-0.22637,0.05367 -0.53382,0.13914 -0.92188,0.25781z" fill="#1eff00" stroke="none" stroke-width="1.01053" stroke-miterlimit="10" stroke-dashoffset="0"/></g></g></svg>