<svg version="1.1" xmlns="http://www.w3.org/2000/svg" xmlns:xlink="http://www.w3.org/1999/xlink" width="372.21484" height="68.64258"><g transform="translate(-53.89258,-145.67871)"><g data-paper-data="{&quot;isPaintingLayer&quot;:true}" fill-rule="nonzero" stroke-linecap="butt" stroke-linejoin="miter" stroke-dasharray="" style="mix-blend-mode: normal"><path d="M425.00977,146.42871c0.19313,0 0.34765,0.15453 0.34765,0.34766v66.44531c0,0.19314 -0.15452,0.34961 -0.34765,0.34961h-370.01758c-0.19313,0 -0.34961,-0.15647 -0.34961,-0.34961v-66.44531c0,-0.19313 0.15648,-0.34766 0.34961,-0.34766z" data-paper-data="{&quot;origPos&quot;:null}" id="rect815-0-82" fill="#1e1e1e" stroke="#1eff00" stroke-width="1.5" stroke-miterlimit="4" stroke-dashoffset="17.35"/><path d="M66.46485,151.59864c0.50132,0 0.97086,0.09706 1.4082,0.28906c0.448,0.192 0.83039,0.45254 1.15039,0.7832c0.33066,0.32 0.59316,0.70434 0.78516,1.15235c0.192,0.43734 0.28711,0.90191 0.28711,1.39257c0,0.288 -0.05357,0.58023 -0.16016,0.87891c-0.09608,0.29866 -0.24468,0.581 -0.44727,0.84766c-0.20268,0.256 -0.45826,0.48182 -0.76758,0.67382c-0.29868,0.1921 -0.65627,0.32386 -1.07227,0.39844c0.26676,0.064 0.50054,0.16611 0.70312,0.30469c0.20276,0.13876 0.37509,0.29231 0.51367,0.46289c0.14942,0.17066 0.26135,0.35292 0.33594,0.54492c0.08642,0.18134 0.13804,0.35172 0.1582,0.51172l0.35351,3.35938c0.02117,0.25589 -0.05403,0.49166 -0.22461,0.70507c-0.17068,0.21342 -0.40642,0.32032 -0.70508,0.32032c-0.26658,0 -0.49046,-0.08024 -0.67187,-0.24024c-0.18242,-0.16 -0.28258,-0.369 -0.30273,-0.625l-0.24023,-2.73437c-0.032,-0.33066 -0.11728,-0.60804 -0.25586,-0.83204c-0.1279,-0.23475 -0.2983,-0.42196 -0.51172,-0.56054c-0.20268,-0.13858 -0.43345,-0.24069 -0.68945,-0.30469c-0.256,-0.064 -0.52151,-0.0957 -0.79883,-0.0957h-3.56836v4.44922c0,0.256 -0.09007,0.47987 -0.27148,0.67187c-0.18134,0.18142 -0.40522,0.27149 -0.67187,0.27149c-0.256,0 -0.47987,-0.09007 -0.67187,-0.27149c-0.18142,-0.192 -0.27344,-0.41587 -0.27344,-0.67187v-10.4336c0,-0.34124 0.12372,-0.63349 0.36914,-0.8789c0.24532,-0.24542 0.54253,-0.36914 0.89453,-0.36914zM90.98438,151.83887c0.16,0.16008 0.24023,0.35721 0.24023,0.5918v6.11328l3.91992,-3.4082c0.14927,-0.11742 0.31273,-0.17579 0.49414,-0.17579c0.17066,0 0.3361,0.06341 0.4961,0.19141c0.16,0.12808 0.24023,0.30839 0.24023,0.54297c0,0.21326 -0.08527,0.3955 -0.25586,0.54492l-2.44726,2.11133l3.23242,4.57617c0.096,0.14942 0.14258,0.30989 0.14258,0.48047c0,0.14942 -0.02666,0.27818 -0.08008,0.38476c-0.05317,0.09601 -0.12162,0.17624 -0.20703,0.24024c-0.08542,0.064 -0.17549,0.11058 -0.27149,0.14258c-0.096,0.032 -0.18802,0.04883 -0.27343,0.04883c-0.13859,0 -0.2654,-0.02667 -0.38282,-0.08008c-0.11716,-0.05317 -0.21927,-0.13844 -0.30468,-0.25586l-3.07227,-4.44922l-1.23047,1.05664v2.88086c0,0.23476 -0.08023,0.43684 -0.24023,0.60742c-0.1601,0.16 -0.35721,0.24024 -0.5918,0.24024c-0.23473,0 -0.43879,-0.08024 -0.60937,-0.24024c-0.16,-0.17076 -0.24023,-0.37284 -0.24023,-0.60742v-10.94531c0,-0.23466 0.08023,-0.4318 0.24023,-0.5918c0.17073,-0.16 0.37479,-0.24023 0.60937,-0.24023c0.23468,0 0.4318,0.08023 0.5918,0.24023zM103.94141,151.87207c0.18142,0.18132 0.27148,0.40519 0.27148,0.67188v10.73437c0,0.256 -0.09006,0.48183 -0.27148,0.67383c-0.18134,0.18142 -0.40522,0.27149 -0.67188,0.27149c-0.256,0 -0.47987,-0.09007 -0.67187,-0.27149c-0.18142,-0.192 -0.27344,-0.41783 -0.27344,-0.67383v-10.73437c0,-0.26658 0.09202,-0.49046 0.27344,-0.67188c0.192,-0.18141 0.41587,-0.27343 0.67187,-0.27343c0.26659,0 0.49046,0.09202 0.67188,0.27343zM108.03516,152.5752c0.17058,0.1601 0.25586,0.35721 0.25586,0.59179v2h0.88086c0.20273,0 0.37313,0.0752 0.51172,0.22461c0.14941,0.13876 0.22461,0.30914 0.2246,0.51172c0,0.21342 -0.07519,0.38876 -0.2246,0.52735c-0.13874,0.13858 -0.30914,0.20898 -0.51172,0.20898h-0.88086v6.73633c0,0.23476 -0.08528,0.43684 -0.25586,0.60742c-0.16008,0.16 -0.35722,0.24024 -0.5918,0.24024c-0.23468,0 -0.4318,-0.08024 -0.5918,-0.24024c-0.16,-0.17076 -0.24023,-0.37284 -0.24023,-0.60742v-6.73633h-0.5918c-0.20258,0 -0.37792,-0.0704 -0.52734,-0.20898c-0.13858,-0.13859 -0.20899,-0.31393 -0.20899,-0.52735c0,-0.20276 0.07041,-0.37313 0.20899,-0.51172c0.14942,-0.14941 0.32476,-0.22461 0.52734,-0.22461h0.5918v-2c0,-0.23468 0.08023,-0.43179 0.24023,-0.59179c0.16011,-0.16 0.35722,-0.24024 0.5918,-0.24024c0.23466,0 0.4318,0.08024 0.5918,0.24024zM61.74414,157.15137h4.51172c0.26676,0 0.51737,-0.04853 0.75195,-0.14453c0.23476,-0.10676 0.43684,-0.24543 0.60742,-0.41602c0.18132,-0.18141 0.32002,-0.38846 0.41602,-0.62304c0.10658,-0.23466 0.16016,-0.48527 0.16016,-0.75196c0,-0.26673 -0.05357,-0.51737 -0.16016,-0.75195c-0.0959,-0.23476 -0.2346,-0.43879 -0.41602,-0.60938c-0.17076,-0.18134 -0.37284,-0.32001 -0.60742,-0.41601c-0.23466,-0.10658 -0.48527,-0.16016 -0.75195,-0.16016h-4.51172zM77.00586,155.16699c0.544,0.21335 1.01354,0.5224 1.4082,0.92774c0.39468,0.40532 0.70373,0.9016 0.92773,1.48828c0.224,0.58666 0.33594,1.25828 0.33594,2.01563c0,0.75731 -0.11194,1.42894 -0.33594,2.01562c-0.224,0.58666 -0.53305,1.08294 -0.92773,1.48828c-0.39466,0.39458 -0.8642,0.69869 -1.4082,0.91211c-0.53334,0.21342 -1.11482,0.32031 -1.74414,0.32031c-0.62934,0 -1.21577,-0.10689 -1.75977,-0.32031c-0.53334,-0.21334 -0.99597,-0.51745 -1.39062,-0.91211c-0.39466,-0.40534 -0.70569,-0.90162 -0.92969,-1.48828c-0.224,-0.58668 -0.33594,-1.25831 -0.33594,-2.01562c0,-0.75735 0.11194,-1.42897 0.33594,-2.01563c0.224,-0.58668 0.53503,-1.08296 0.92969,-1.48828c0.39466,-0.40527 0.85728,-0.71432 1.39062,-0.92774c0.544,-0.21341 1.13042,-0.32031 1.75977,-0.32031c0.62932,0 1.2108,0.1069 1.74414,0.32031zM86.39453,155.13379c0.46932,0.18132 0.85366,0.40025 1.15234,0.65625c0.30924,0.256 0.53808,0.52344 0.6875,0.80078c0.14942,0.27734 0.22461,0.51113 0.22461,0.70313c0,0.24542 -0.08528,0.43759 -0.25586,0.57617c-0.17058,0.128 -0.36275,0.19141 -0.57617,0.19141c-0.14932,0 -0.28802,-0.03675 -0.41602,-0.11133c-0.128,-0.07458 -0.21807,-0.2014 -0.27148,-0.38281c-0.05342,-0.17066 -0.14544,-0.3361 -0.27344,-0.4961c-0.11732,-0.16 -0.27089,-0.30559 -0.46289,-0.43359c-0.18134,-0.128 -0.40025,-0.22815 -0.65625,-0.30274c-0.24534,-0.07458 -0.51775,-0.11132 -0.81641,-0.11132c-0.33066,0 -0.6615,0.0634 -0.99219,0.1914c-0.32,0.11734 -0.61225,0.30952 -0.87891,0.57617c-0.256,0.26669 -0.465,0.61737 -0.625,1.05469c-0.16,0.42668 -0.24023,0.94474 -0.24023,1.55274c0,0.608 0.08023,1.12607 0.24023,1.55273c0.16,0.42666 0.369,0.77238 0.625,1.03906c0.26666,0.26666 0.55891,0.4638 0.87891,0.5918c0.33068,0.11742 0.66153,0.17578 0.99219,0.17578c0.29858,0 0.57099,-0.03674 0.81641,-0.11133c0.25592,-0.07458 0.47483,-0.17473 0.65625,-0.30273c0.1919,-0.128 0.34547,-0.2736 0.46289,-0.4336c0.128,-0.16007 0.22002,-0.32551 0.27344,-0.49609c0.05342,-0.18142 0.14348,-0.30823 0.27148,-0.38281c0.1279,-0.07458 0.2666,-0.11133 0.41602,-0.11133c0.21342,0 0.40559,0.06845 0.57617,0.20703c0.18142,0.12808 0.27148,0.31034 0.27148,0.54492c0,0.11734 -0.05357,0.31448 -0.16016,0.5918c-0.10668,0.26668 -0.29885,0.53714 -0.57617,0.81445c-0.27734,0.27727 -0.65973,0.52291 -1.15039,0.73633c-0.48,0.21342 -1.10008,0.32031 -1.85742,0.32031c-0.62934,0 -1.21577,-0.11193 -1.75977,-0.33593c-0.53332,-0.23466 -0.99789,-0.56057 -1.39258,-0.97657c-0.39466,-0.416 -0.70373,-0.91228 -0.92773,-1.48828c-0.224,-0.58666 -0.33594,-1.23154 -0.33594,-1.93554c0,-0.71469 0.11194,-1.35955 0.33594,-1.93555c0.224,-0.58666 0.53308,-1.08791 0.92773,-1.50391c0.39468,-0.416 0.85926,-0.73693 1.39258,-0.96093c0.544,-0.23459 1.13042,-0.35157 1.75977,-0.35157c0.64,0 1.19472,0.09511 1.66406,0.28711zM74.15821,156.43067c-0.33058,0.128 -0.61786,0.33206 -0.86328,0.60937c-0.23476,0.26669 -0.42196,0.61241 -0.56055,1.03906c-0.13858,0.42666 -0.20703,0.93285 -0.20703,1.51954c0,0.58665 0.06845,1.09482 0.20703,1.52148c0.13876,0.416 0.32596,0.76172 0.56055,1.03906c0.24532,0.26676 0.5326,0.46884 0.86328,0.60742c0.34132,0.128 0.70883,0.19336 1.10352,0.19336c0.39466,0 0.75723,-0.06536 1.08789,-0.19336c0.34142,-0.13868 0.63065,-0.34076 0.86523,-0.60742c0.24542,-0.27734 0.43759,-0.62306 0.57617,-1.03906c0.13858,-0.42666 0.20703,-0.93483 0.20703,-1.52148c0,-0.58669 -0.06845,-1.09288 -0.20703,-1.51954c-0.13858,-0.42665 -0.33075,-0.77237 -0.57617,-1.03906c-0.23466,-0.27731 -0.52389,-0.48137 -0.86523,-0.60937c-0.33066,-0.13859 -0.69323,-0.20703 -1.08789,-0.20703c-0.39468,0 -0.7622,0.06844 -1.10352,0.20703zM62.16993,169.31934c0.21644,0.20697 0.32422,0.46069 0.32422,0.76172v3.30078h4.59961v-3.30078c0,-0.30113 0.10368,-0.55486 0.31055,-0.76172c0.20697,-0.20687 0.46069,-0.31055 0.76172,-0.31055c0.3011,0 0.5568,0.10368 0.76367,0.31055c0.21644,0.20697 0.32422,0.46069 0.32422,0.76172v8.98828c0,0.30113 -0.10778,0.55485 -0.32422,0.76172c-0.20694,0.20686 -0.46264,0.31054 -0.76367,0.31054c-0.30113,0 -0.55485,-0.10368 -0.76172,-0.31054c-0.20687,-0.20697 -0.31055,-0.46069 -0.31055,-0.76172v-3.82422h-4.59961v3.82422c0,0.30113 -0.10778,0.55485 -0.32422,0.76172c-0.20694,0.20686 -0.46067,0.31054 -0.76172,0.31054c-0.3011,0 -0.55485,-0.10368 -0.76172,-0.31054c-0.20687,-0.20697 -0.31055,-0.46069 -0.31055,-0.76172v-8.98828c0,-0.30113 0.10368,-0.55486 0.31055,-0.76172c0.20694,-0.20687 0.46069,-0.31055 0.76172,-0.31055c0.30113,0 0.55485,0.10368 0.76172,0.31055zM91.61133,172.33887c0.46095,0.23519 0.83728,0.5312 1.12891,0.88867c0.30102,0.35747 0.52296,0.74234 0.66406,1.15625c0.1411,0.41394 0.21094,0.79649 0.21094,1.14453c0,0.32917 -0.06139,0.60192 -0.1836,0.81836c-0.12238,0.21644 -0.30202,0.32422 -0.53711,0.32422h-4.51367c-0.10356,0 -0.18379,0.03794 -0.24023,0.11328c-0.04712,0.06577 -0.07031,0.1547 -0.07031,0.26758c0,0.14103 0.04229,0.30592 0.12695,0.49414c0.08466,0.17872 0.21154,0.35216 0.38086,0.52149c0.16925,0.16934 0.37643,0.31094 0.62109,0.42382c0.25401,0.11289 0.54575,0.16797 0.875,0.16797c0.19762,0 0.37106,-0.01714 0.52148,-0.05469c0.15045,-0.04711 0.29205,-0.11455 0.42383,-0.19921c0.13178,-0.08467 0.25865,-0.19244 0.38086,-0.32422c0.13163,-0.14103 0.2775,-0.30592 0.4375,-0.49414c0.1412,-0.16933 0.29987,-0.25391 0.47852,-0.25391c0.11288,0 0.22696,0.0295 0.33984,0.08594c0.11288,0.05644 0.21026,0.13062 0.29492,0.22461c0.08467,0.09423 0.15645,0.20201 0.21289,0.32422c0.05645,0.11288 0.08399,0.23131 0.08399,0.35351c0,0.12228 -0.06549,0.29572 -0.19727,0.52149c-0.1223,0.21639 -0.31471,0.43829 -0.57812,0.66406c-0.26338,0.21636 -0.59317,0.4088 -0.98828,0.57812c-0.39509,0.16 -0.86454,0.24024 -1.41016,0.24024c-0.62088,0 -1.17684,-0.11408 -1.66602,-0.33985c-0.48917,-0.22576 -0.90354,-0.52605 -1.24219,-0.90234c-0.32935,-0.38569 -0.58307,-0.8276 -0.76172,-1.32617c-0.16932,-0.50799 -0.25391,-1.04497 -0.25391,-1.60938c0,-0.56443 0.07614,-1.09518 0.22656,-1.59375c0.15992,-0.50799 0.3989,-0.94988 0.71875,-1.32617c0.31985,-0.38569 0.71947,-0.6922 1.19922,-0.91797c0.47977,-0.22576 1.04426,-0.33789 1.69336,-0.33789c0.63027,0 1.17152,0.12253 1.62305,0.36719zM96.18946,172.28223c0.19754,0.19754 0.29492,0.43227 0.29492,0.70508c0.08466,-0.09424 0.18834,-0.20202 0.31054,-0.32422c0.13181,-0.12246 0.27341,-0.23024 0.42383,-0.32422c0.15993,-0.10356 0.32482,-0.18814 0.49414,-0.25391c0.16933,-0.07533 0.33849,-0.11328 0.50781,-0.11328c0.37622,0 0.62994,0.09933 0.76172,0.29688c0.14111,0.19754 0.21094,0.42802 0.21094,0.6914c0,0.21639 -0.05074,0.38126 -0.1543,0.49414c-0.09423,0.10356 -0.21676,0.18184 -0.36718,0.23829c-0.14111,0.05644 -0.29552,0.10503 -0.46485,0.14257c-0.16942,0.02822 -0.33004,0.07052 -0.48047,0.12696c-0.2728,0.10348 -0.49278,0.23888 -0.6621,0.4082c-0.16,0.15985 -0.28253,0.33522 -0.36719,0.52344c-0.08466,0.17864 -0.1417,0.36061 -0.16992,0.54883c-0.02822,0.18806 -0.04297,0.36343 -0.04297,0.52343v3.16016c0,0.28223 -0.10368,0.52316 -0.31055,0.7207c-0.19754,0.19755 -0.43652,0.29492 -0.71875,0.29492c-0.27288,0 -0.51384,-0.09737 -0.7207,-0.29492c-0.19755,-0.20696 -0.29492,-0.44789 -0.29492,-0.7207v-6.13867c0,-0.27281 0.09737,-0.50754 0.29492,-0.70508c0.20694,-0.20687 0.45214,-0.31055 0.73437,-0.31055c0.28221,0 0.52316,0.10368 0.72071,0.31055zM89.16993,173.79199c-0.22586,0.09424 -0.41403,0.21677 -0.56445,0.36719c-0.1411,0.14103 -0.24888,0.29117 -0.32422,0.45117c-0.07534,0.16 -0.11328,0.30163 -0.11328,0.42383c0,0.18822 0.07179,0.28125 0.21289,0.28125h3.2168c0.1222,0 0.18359,-0.08893 0.18359,-0.26758c0,-0.12223 -0.03794,-0.26382 -0.11328,-0.42382c-0.06602,-0.15993 -0.17379,-0.31007 -0.32422,-0.45118c-0.14113,-0.15042 -0.32502,-0.2773 -0.55078,-0.38086c-0.22526,-0.10332 -0.49319,-0.15601 -0.80273,-0.15624h-0.00195c-0.30967,0.00022 -0.58379,0.05292 -0.81836,0.15624z" data-paper-data="{&quot;origPos&quot;:null}" id="path1775" fill="#1eff00" stroke="none" stroke-width="1" stroke-miterlimit="10" stroke-dashoffset="0"/><path d="M70.94077,181.3561c0.24451,0 0.47499,-0.00504 0.69143,-0.01512c0.22576,-0.00932 0.42331,-0.0422 0.59263,-0.09865c0.16942,-0.05644 0.30113,-0.14576 0.39511,-0.26797c0.10356,-0.11281 0.15534,-0.27743 0.15534,-0.49387c0,-0.13163 -0.01877,-0.27744 -0.05631,-0.43744c-0.03754,-0.15985 -0.09865,-0.34799 -0.18331,-0.56443l-2.3565,-5.98292c-0.05644,-0.14103 -0.08466,-0.29154 -0.08466,-0.45154c0,-0.11288 0.01877,-0.23043 0.05631,-0.35263c0.03754,-0.1222 0.09398,-0.23509 0.16932,-0.33865c0.08466,-0.10356 0.19288,-0.18822 0.32466,-0.25398c0.1411,-0.07534 0.31043,-0.11301 0.50797,-0.11301c0.20704,0 0.39989,0.05644 0.57853,0.16932c0.1789,0.10356 0.30123,0.25877 0.36699,0.46564l1.73563,5.36205l1.35462,-5.34792c0.05644,-0.21639 0.17398,-0.38103 0.35263,-0.49391c0.18804,-0.11288 0.39029,-0.16932 0.60673,-0.16932c0.28223,0 0.53623,0.09411 0.76199,0.28233c0.22576,0.18814 0.33865,0.44214 0.33865,0.76199c0,0.09398 -0.01411,0.18331 -0.04233,0.26797l-2.59635,8.09957c-0.1317,0.39509 -0.29633,0.70551 -0.49387,0.93128c-0.18814,0.22586 -0.3951,0.3999 -0.62086,0.5221c-0.22579,0.1222 -0.46568,0.19742 -0.71966,0.22564c-0.24459,0.03754 -0.47976,0.05631 -0.70552,0.05631h-0.73376c-0.17875,0 -0.33867,-0.03288 -0.47977,-0.09865c-0.13153,-0.06576 -0.24907,-0.15043 -0.35263,-0.25398c-0.09398,-0.10331 -0.1692,-0.22085 -0.22564,-0.35263c-0.04712,-0.12223 -0.07068,-0.24923 -0.07068,-0.38101c0,-0.18804 0.05644,-0.34796 0.16932,-0.47974c0.12231,-0.13178 0.31045,-0.19767 0.56443,-0.19767z" data-paper-data="{&quot;origPos&quot;:null}" id="path1790" fill="#1eff00" stroke="none" stroke-width="0.23334" stroke-miterlimit="10" stroke-dashoffset="0"/><path d="M82.48673,171.97188c0.46095,0 0.87957,0.09877 1.25586,0.29631c0.38569,0.19754 0.71494,0.47975 0.98774,0.84661c0.27281,0.35747 0.47976,0.7902 0.62086,1.29819c0.15043,0.49857 0.22564,1.04888 0.22564,1.65094c0,0.60208 -0.07521,1.1524 -0.22564,1.65097c-0.1411,0.49857 -0.34806,0.9313 -0.62086,1.29819c-0.27281,0.35747 -0.60205,0.63497 -0.98774,0.83252c-0.37629,0.19754 -0.79491,0.29631 -1.25586,0.29631c-0.34807,0 -0.6538,-0.05178 -0.91718,-0.15534c-0.26333,-0.10356 -0.48911,-0.21644 -0.67733,-0.33865c-0.17872,-0.13153 -0.32452,-0.24907 -0.4374,-0.35263c-0.11288,-0.10356 -0.19754,-0.15534 -0.25398,-0.15534c-0.04712,0 -0.07068,0.0611 -0.07068,0.18331v2.76571c0,0.2822 -0.10343,0.52208 -0.3103,0.71962c-0.19754,0.20687 -0.43743,0.3103 -0.71966,0.3103c-0.27288,0 -0.51276,-0.10343 -0.71962,-0.3103c-0.19754,-0.19754 -0.29631,-0.43742 -0.29631,-0.71962v-9.1014c0,-0.27281 0.09877,-0.50798 0.29631,-0.70552c0.20694,-0.20687 0.44682,-0.3103 0.71962,-0.3103c0.28223,0 0.52212,0.10343 0.71966,0.3103c0.20687,0.19754 0.3103,0.43272 0.3103,0.70552c0.08466,-0.11288 0.18343,-0.23043 0.29631,-0.35263c0.12238,-0.12246 0.27289,-0.23068 0.45154,-0.32466c0.18814,-0.10356 0.40921,-0.18356 0.66319,-0.24c0.26341,-0.06576 0.57854,-0.09865 0.94541,-0.09865zM83.22038,174.28582c-0.32925,-0.43273 -0.7949,-0.6491 -1.39695,-0.6491c-0.59266,0 -1.05361,0.21637 -1.38285,0.6491c-0.32925,0.43273 -0.49387,1.02537 -0.49387,1.77793c0,0.74318 0.16462,1.33114 0.49387,1.76387c0.32925,0.43271 0.7902,0.64906 1.38285,0.64906c0.60205,0 1.0677,-0.21635 1.39695,-0.64906c0.32925,-0.43273 0.49387,-1.02069 0.49387,-1.76387c0,-0.75255 -0.16462,-1.3452 -0.49387,-1.77793z" data-paper-data="{&quot;origPos&quot;:null}" id="path1792" fill="#1eff00" stroke="none" stroke-width="0.23334" stroke-miterlimit="10" stroke-dashoffset="0"/><path d="M69.1021,187.56405c1.27593,0 2.33405,4.30813 3.36631,5.0581c1.03226,0.74997 5.4565,0.42505 5.85078,1.63854c0.39432,1.21349 -3.37599,3.55109 -3.77027,4.76459c-0.39428,1.21349 1.2819,5.32082 0.24983,6.07079c-1.03226,0.74997 -4.42057,-2.11344 -5.6965,-2.11344c-1.27597,0 -4.66424,2.86341 -5.6965,2.11344c-1.03226,-0.74997 0.64396,-4.8573 0.24983,-6.07079c-0.39432,-1.21349 -4.16459,-3.55109 -3.77031,-4.76459c0.39428,-1.21349 4.81856,-0.88857 5.85078,-1.63854c1.03226,-0.74997 2.09042,-5.0581 3.36635,-5.0581z" data-paper-data="{&quot;origPos&quot;:null}" id="path1428-5-52" fill="#1eff00" stroke="none" stroke-width="0.88188" stroke-miterlimit="4" stroke-dashoffset="17.35"/><path d="M92.03911,187.56405c1.27593,0 2.33405,4.30813 3.36631,5.0581c1.03226,0.74997 5.4565,0.42505 5.85078,1.63854c0.39428,1.21349 -3.37599,3.55109 -3.77027,4.76459c-0.39432,1.21349 1.2819,5.32082 0.24983,6.07079c-1.03223,0.74997 -4.42054,-2.11344 -5.69647,-2.11344c-1.27597,0 -4.66424,2.86341 -5.6965,2.11344c-1.03226,-0.74997 0.64396,-4.8573 0.24983,-6.07079c-0.39432,-1.21349 -4.16459,-3.55109 -3.77031,-4.76459c0.39428,-1.21349 4.81852,-0.88857 5.85078,-1.63854c1.03226,-0.74997 2.09038,-5.0581 3.36635,-5.0581z" data-paper-data="{&quot;origPos&quot;:null}" id="path1428-0-2-50" fill="#1eff00" stroke="none" stroke-width="0.88188" stroke-miterlimit="4" stroke-dashoffset="17.35"/><path d="M114.97608,188.2703c1.17385,0 2.14734,3.96348 3.09702,4.65343c0.94968,0.68999 5.01997,0.39103 5.38273,1.50746c0.36283,1.1164 -3.10594,3.26702 -3.46866,4.38342c-0.36283,1.11643 1.17936,4.89513 0.2298,5.58512c-0.94968,0.68999 -4.06692,-1.94434 -5.24077,-1.94434c-1.17388,0 -4.29112,2.63433 -5.24081,1.94434c-0.94964,-0.68999 0.59244,-4.46869 0.2298,-5.58512c-0.36283,-1.1164 -3.83142,-3.26702 -3.46866,-4.38342c0.36283,-1.11643 4.43305,-0.81747 5.38273,-1.50746c0.94968,-0.68995 1.92314,-4.65343 3.09702,-4.65343z" data-paper-data="{&quot;origPos&quot;:null}" id="path1428-0-6-3-14" fill="#1eff00" stroke="none" stroke-width="0.81133" stroke-miterlimit="4" stroke-dashoffset="17.35"/></g></g></svg>