<svg version="1.1" xmlns="http://www.w3.org/2000/svg" xmlns:xlink="http://www.w3.org/1999/xlink" width="43.70312" height="17.63476"><g transform="translate(-218.14844,-171.18262)"><g data-paper-data="{&quot;isPaintingLayer&quot;:true}" fill="#ffab00" fill-rule="nonzero" stroke="none" stroke-width="1.22747" stroke-linecap="butt" stroke-linejoin="miter" stroke-miterlimit="10" stroke-dasharray="" stroke-dashoffset="0" style="mix-blend-mode: normal"><path d="M222.9414,171.29981c0.15712,0.06547 0.29428,0.15756 0.41211,0.27539c0.11785,0.11784 0.20989,0.255 0.27539,0.41211c0.07858,0.14403 0.11719,0.29406 0.11719,0.45117c0,0.23567 -0.09209,0.44559 -0.27539,0.6289c-0.90342,0.87723 -1.62979,1.88435 -2.17969,3.02344c-0.54991,1.126 -0.82421,2.42869 -0.82421,3.9082c0,1.47952 0.2743,2.78865 0.82421,3.92774c0.5499,1.13909 1.27627,2.14172 2.17969,3.00586c0.18329,0.18331 0.27539,0.39322 0.27539,0.6289c0,0.31424 -0.13072,0.60143 -0.39258,0.86329c-0.24876,0.26186 -0.53595,0.39257 -0.86328,0.39257c-0.27495,0 -0.52546,-0.11784 -0.74804,-0.35351c-0.5761,-0.61537 -1.08609,-1.23033 -1.53125,-1.8457c-0.44516,-0.62847 -0.818,-1.28206 -1.11914,-1.96289c-0.30114,-0.68084 -0.53683,-1.40272 -0.70704,-2.16211c-0.15713,-0.7594 -0.23632,-1.59073 -0.23632,-2.49415c0,-0.89032 0.0792,-1.71521 0.23632,-2.4746c0.15712,-0.77249 0.38636,-1.49885 0.6875,-2.17969c0.31423,-0.68083 0.69352,-1.32799 1.13868,-1.94336c0.44516,-0.62847 0.95515,-1.24988 1.53125,-1.86524c0.22258,-0.23568 0.47309,-0.35351 0.74804,-0.35351c0.15712,0 0.30715,0.03859 0.45117,0.11719zM258.25781,171.53613c0.5761,0.61536 1.08609,1.23677 1.53125,1.86524c0.44517,0.61537 0.818,1.26253 1.11914,1.94336c0.31423,0.68084 0.54991,1.4072 0.70703,2.17969c0.15713,0.75939 0.23633,1.58428 0.23633,2.4746c0,0.90342 -0.08565,1.73475 -0.25586,2.49415c-0.15712,0.75939 -0.38636,1.48127 -0.6875,2.16211c-0.30114,0.68083 -0.68041,1.33442 -1.13867,1.96289c-0.44516,0.61537 -0.94872,1.23033 -1.51172,1.8457c-0.22258,0.23567 -0.47114,0.35351 -0.74609,0.35351c-0.15712,0 -0.31554,-0.03858 -0.47266,-0.11718c-0.14402,-0.06547 -0.27474,-0.15756 -0.39258,-0.27539c-0.11783,-0.11784 -0.20989,-0.24856 -0.27539,-0.39258c-0.0654,-0.14403 -0.09765,-0.29406 -0.09765,-0.45117c0,-0.24877 0.09209,-0.46513 0.27539,-0.64844c0.89032,-0.86414 1.61025,-1.86677 2.16015,-3.00586c0.54991,-1.13909 0.82422,-2.44822 0.82422,-3.92774c0,-1.47951 -0.27431,-2.78864 -0.82422,-3.92773c-0.53681,-1.13909 -1.25673,-2.13977 -2.16015,-3.00391c-0.18329,-0.18331 -0.27539,-0.39966 -0.27539,-0.64843c0,-0.15711 0.03215,-0.30716 0.09765,-0.45117c0.06546,-0.14402 0.15755,-0.27474 0.27539,-0.39258c0.11784,-0.11783 0.24856,-0.20989 0.39258,-0.27539c0.15712,-0.07859 0.31554,-0.11719 0.47266,-0.11719c0.26186,0 0.51042,0.11783 0.74609,0.35351zM226.64062,172.55567c0.19643,0.19639 0.29492,0.43851 0.29492,0.72656v13.43359c0,0.28805 -0.09852,0.53661 -0.29492,0.7461c-0.19639,0.19642 -0.43851,0.29492 -0.72656,0.29492c-0.28804,0 -0.53661,-0.09853 -0.74609,-0.29492c-0.19642,-0.20949 -0.29493,-0.45805 -0.29493,-0.7461v-13.43359c0,-0.28805 0.09853,-0.53017 0.29493,-0.72656c0.20948,-0.19637 0.45805,-0.29297 0.74609,-0.29297c0.28805,0 0.53017,0.09657 0.72656,0.29297zM242.3164,173.45996c0.20948,0.1964 0.31446,0.43852 0.31446,0.72656v2.45508h1.08008c0.24876,0 0.45869,0.09208 0.6289,0.27539c0.18329,0.1702 0.27539,0.37819 0.27539,0.62696c0,0.26186 -0.09209,0.47822 -0.27539,0.64843c-0.17021,0.17026 -0.38014,0.25586 -0.6289,0.25586h-1.08008v8.26758c0,0.28805 -0.10498,0.53661 -0.31446,0.7461c-0.1964,0.19642 -0.43851,0.29492 -0.72656,0.29492c-0.28804,0 -0.53017,-0.09853 -0.72656,-0.29492c-0.19637,-0.20949 -0.29297,-0.45805 -0.29297,-0.7461v-8.26758h-0.72851c-0.24878,0 -0.46318,-0.08565 -0.64649,-0.25586c-0.17016,-0.17021 -0.25586,-0.38657 -0.25586,-0.64843c0,-0.24877 0.08566,-0.45676 0.25586,-0.62696c0.18331,-0.18329 0.39771,-0.27539 0.64649,-0.27539h0.72851v-2.45508c0,-0.28804 0.09658,-0.53016 0.29297,-0.72656c0.19639,-0.19642 0.43852,-0.29492 0.72656,-0.29492c0.28805,0 0.53016,0.09853 0.72656,0.29492zM236.58398,177.05371c0.79868,0.52372 1.19727,1.30353 1.19727,2.33789v7.32422c0,0.28805 -0.09658,0.53661 -0.29297,0.7461c-0.19639,0.19642 -0.43852,0.29492 -0.72656,0.29492c-0.28805,0 -0.53856,-0.09853 -0.74805,-0.29492c-0.19637,-0.20949 -0.29297,-0.45805 -0.29297,-0.7461v-0.31445c-0.49753,0.53681 -1.06742,0.89873 -1.70898,1.08203c-0.62847,0.18334 -1.29689,0.27344 -2.00391,0.27344c-0.44516,0 -0.89721,-0.05795 -1.35547,-0.17578c-0.44516,-0.13093 -0.8502,-0.32799 -1.2168,-0.58985c-0.35351,-0.26186 -0.64264,-0.58963 -0.86523,-0.98242c-0.22258,-0.39279 -0.33398,-0.86415 -0.33398,-1.41406c0,-0.62847 0.12623,-1.15134 0.375,-1.57031c0.24876,-0.43208 0.58102,-0.7856 1,-1.06055c0.41897,-0.27495 0.89678,-0.48488 1.43359,-0.62891c0.54991,-0.14401 1.12624,-0.24895 1.72852,-0.31445c0.69393,-0.07856 1.23807,-0.16231 1.63086,-0.25391c0.39278,-0.10474 0.68642,-0.22258 0.88281,-0.35351c0.19641,-0.13093 0.31421,-0.28291 0.35351,-0.45313c0.0524,-0.1702 0.08008,-0.35888 0.08008,-0.56836c0,-0.24878 -0.07278,-0.46513 -0.2168,-0.64843c-0.14403,-0.1833 -0.3282,-0.33334 -0.55078,-0.45118c-0.22258,-0.11781 -0.47114,-0.20346 -0.74609,-0.25586c-0.27495,-0.0655 -0.54283,-0.09765 -0.80469,-0.09765c-0.47135,0 -0.85062,0.03859 -1.13867,0.11719c-0.28805,0.07855 -0.52373,0.18352 -0.70703,0.31445c-0.1833,0.13093 -0.33333,0.2874 -0.45117,0.4707c-0.10474,0.1833 -0.20323,0.37391 -0.29493,0.57031c-0.07856,0.15711 -0.18996,0.27492 -0.33398,0.35352c-0.13093,0.0655 -0.26809,0.09766 -0.41211,0.09766c-0.26186,0 -0.50397,-0.08565 -0.72656,-0.25586c-0.22258,-0.17021 -0.33399,-0.40589 -0.33399,-0.70703c0,-0.11784 0.03216,-0.26144 0.09766,-0.43164c0.11784,-0.27497 0.2743,-0.54283 0.4707,-0.80469c0.19639,-0.27495 0.45783,-0.51708 0.78516,-0.72657c0.34042,-0.20949 0.75384,-0.37435 1.23828,-0.49218c0.49754,-0.13091 1.09962,-0.19532 1.80664,-0.19532c1.33549,0 2.39606,0.26787 3.18164,0.80469zM252.41015,176.58301c0.65465,0.22259 1.21615,0.55036 1.6875,0.98242c0.48444,0.41898 0.86568,0.9354 1.14063,1.55078c0.27495,0.61537 0.41211,1.31599 0.41211,2.10157c0,0.48443 -0.11784,0.85082 -0.35352,1.0996c-0.23567,0.24876 -0.51193,0.37305 -0.82617,0.37305h-7.1875c0,0.02619 0.00643,0.13759 0.01953,0.33399c0.02619,0.1833 0.07317,0.4061 0.13867,0.66796c0.07856,0.26186 0.18157,0.54261 0.3125,0.84375c0.14402,0.28804 0.33464,0.55593 0.57032,0.80469c0.23567,0.24877 0.52286,0.4587 0.86328,0.62891c0.35351,0.15713 0.7798,0.23633 1.27734,0.23633c0.40588,0 0.75297,-0.03216 1.04102,-0.09766c0.28805,-0.06546 0.54304,-0.16399 0.76562,-0.29492c0.22259,-0.13093 0.42608,-0.29579 0.60938,-0.49219c0.1833,-0.20948 0.36552,-0.45161 0.54883,-0.72656c0.10474,-0.15711 0.22258,-0.26849 0.35351,-0.33399c0.13093,-0.0655 0.27003,-0.09765 0.41406,-0.09765c0.23567,0 0.4501,0.08565 0.64649,0.25586c0.19642,0.17021 0.29492,0.38657 0.29492,0.64843c0,0.15711 -0.08371,0.3928 -0.25391,0.70704c-0.17021,0.31423 -0.44647,0.62717 -0.82617,0.9414c-0.3666,0.31424 -0.8444,0.59049 -1.43359,0.82617c-0.58918,0.23567 -1.30911,0.35352 -2.16016,0.35352c-0.86414,0 -1.63556,-0.15843 -2.3164,-0.47266c-0.68084,-0.31424 -1.25717,-0.73214 -1.72852,-1.25586c-0.45825,-0.53682 -0.81178,-1.15821 -1.06055,-1.86523c-0.23567,-0.70702 -0.35351,-1.44821 -0.35351,-2.2207c0,-0.79867 0.12427,-1.5508 0.37304,-2.25782c0.24876,-0.72012 0.6023,-1.34151 1.06055,-1.86523c0.47136,-0.52372 1.03286,-0.93714 1.6875,-1.23828c0.65466,-0.31423 1.38941,-0.47071 2.20117,-0.47071c0.7463,0 1.44047,0.11141 2.08203,0.33399zM249.1289,178.15332c-0.34042,0.14402 -0.6276,0.3282 -0.86328,0.55078c-0.22258,0.20948 -0.40031,0.44516 -0.53125,0.70703c-0.13092,0.26186 -0.22747,0.50399 -0.29297,0.72657c-0.06554,0.22258 -0.10604,0.41768 -0.11914,0.58789c-0.0135,0.15711 -0.01953,0.24919 -0.01953,0.27539h6.36328c0,-0.40589 -0.06437,-0.79161 -0.19531,-1.1582c-0.13092,-0.36661 -0.33442,-0.68795 -0.60937,-0.9629c-0.26186,-0.28805 -0.60251,-0.51729 -1.02149,-0.6875c-0.41897,-0.17021 -0.90965,-0.2539 -1.47265,-0.2539c-0.48444,0 -0.89787,0.07082 -1.23829,0.21484zM235.22851,182.25879c-0.24876,0.07858 -0.54239,0.13648 -0.88281,0.17578c-0.32732,0.03928 -0.67441,0.08627 -1.04101,0.13867c-0.35352,0.05237 -0.7006,0.11682 -1.04102,0.19532c-0.34041,0.07856 -0.64887,0.19639 -0.92383,0.35351c-0.27495,0.14402 -0.49775,0.33463 -0.66797,0.57031c-0.15707,0.23567 -0.23437,0.53574 -0.23437,0.90235c0,0.28805 0.05795,0.53017 0.17578,0.72656c0.13093,0.18331 0.29579,0.33529 0.49219,0.45313c0.19639,0.10472 0.41724,0.18197 0.66601,0.23437c0.24877,0.0393 0.49928,0.06055 0.74805,0.06055c0.37969,0 0.75897,-0.04054 1.13867,-0.11914c0.3797,-0.09165 0.72035,-0.23525 1.02149,-0.43164c0.31422,-0.1964 0.56278,-0.45784 0.74609,-0.78516c0.19642,-0.32732 0.29492,-0.73431 0.29492,-1.21875v-1.39453z" data-paper-data="{&quot;origPos&quot;:null}" id="path826"/></g></g></svg>