<svg version="1.1" xmlns="http://www.w3.org/2000/svg" xmlns:xlink="http://www.w3.org/1999/xlink" width="52.887" height="72.369" viewBox="0,0,52.887,72.369"><g transform="translate(-213.577,-143.803)"><g data-paper-data="{&quot;isPaintingLayer&quot;:true}" fill="#ffffff" fill-rule="nonzero" stroke="none" stroke-width="0" stroke-linecap="butt" stroke-linejoin="miter" stroke-miterlimit="10" stroke-dasharray="" stroke-dashoffset="0" style="mix-blend-mode: normal"><path d="M253.05,143.803c1.287,0 2.412,0.481 3.377,1.443c0.965,0.898 1.449,2.022 1.449,3.369c0,1.283 -0.484,2.405 -1.449,3.367c-0.965,0.963 -2.09,1.444 -3.377,1.444h-22.102l-3.859,16.842c0.45,-0.257 1.06,-0.61 1.832,-1.059c0.837,-0.449 1.834,-0.899 2.992,-1.348c1.223,-0.513 2.638,-0.929 4.246,-1.25c1.609,-0.385 3.412,-0.578 5.407,-0.578c3.86,0 7.302,0.674 10.326,2.022c3.088,1.347 5.693,3.174 7.816,5.484c2.188,2.246 3.862,4.909 5.02,7.988c1.158,3.016 1.736,6.223 1.736,9.623c0,3.914 -0.707,7.411 -2.123,10.491c-1.415,3.079 -3.346,5.709 -5.791,7.89c-2.381,2.117 -5.179,3.754 -8.396,4.908c-3.153,1.155 -6.499,1.733 -10.038,1.733c-4.632,0 -8.621,-0.737 -11.966,-2.213c-3.346,-1.54 -6.112,-3.304 -8.299,-5.293c-2.123,-2.053 -3.701,-4.139 -4.731,-6.256c-1.029,-2.117 -1.543,-3.753 -1.543,-4.908c0,-1.411 0.514,-2.533 1.543,-3.367c1.03,-0.898 2.157,-1.348 3.379,-1.348c0.837,0 1.609,0.225 2.317,0.674c0.772,0.449 1.383,1.186 1.834,2.213c1.479,3.336 3.537,5.999 6.175,7.988c2.638,1.989 6.274,2.983 10.907,2.983c2.187,0 4.279,-0.353 6.273,-1.059c2.059,-0.706 3.827,-1.699 5.307,-2.982c1.544,-1.348 2.767,-2.984 3.668,-4.909c0.9,-1.924 1.351,-4.107 1.351,-6.545c0,-2.566 -0.451,-4.811 -1.351,-6.736c-0.901,-1.925 -2.124,-3.529 -3.668,-4.812c-1.48,-1.348 -3.248,-2.341 -5.307,-2.983c-1.994,-0.706 -4.086,-1.058 -6.273,-1.058c-2.317,0 -4.312,0.256 -5.985,0.769c-1.673,0.513 -3.121,1.122 -4.343,1.828c-1.223,0.706 -2.252,1.445 -3.088,2.215c-0.837,0.706 -1.576,1.283 -2.219,1.732c-0.579,0.45 -1.159,0.769 -1.738,0.961c-0.515,0.129 -1.029,0.194 -1.543,0.194c-1.352,0 -2.445,-0.515 -3.282,-1.541c-0.836,-1.091 -1.255,-2.372 -1.255,-3.848c0,-0.321 0.064,-0.804 0.193,-1.445l5.693,-25.789c0.193,-0.963 0.419,-1.862 0.676,-2.696c0.257,-0.834 0.643,-1.539 1.158,-2.117c0.515,-0.641 1.256,-1.122 2.221,-1.443c0.965,-0.385 2.251,-0.578 3.859,-0.578z"/></g></g></svg>