<svg version="1.1" xmlns="http://www.w3.org/2000/svg" xmlns:xlink="http://www.w3.org/1999/xlink" width="372.21484" height="68.64257"><g transform="translate(-53.89258,-145.67872)"><g data-paper-data="{&quot;isPaintingLayer&quot;:true}" fill-rule="nonzero" stroke-linecap="butt" stroke-linejoin="miter" stroke-dasharray="" style="mix-blend-mode: normal"><path d="M425.00976,146.42872c0.19313,0 0.34766,0.15452 0.34766,0.34765v66.44531c0,0.19314 -0.15453,0.34961 -0.34766,0.34961h-370.01757c-0.19328,0 -0.34961,-0.15647 -0.34961,-0.34961v-66.44531c0,-0.19313 0.15637,-0.34765 0.34961,-0.34765z" data-paper-data="{&quot;origPos&quot;:null}" id="rect815-0-6" fill="#1e1e1e" stroke="#1eff00" stroke-width="1.5" stroke-miterlimit="4" stroke-dashoffset="17.35"/><path d="M68.04688,151.60059c0.23467,0 0.43375,0.08024 0.59375,0.24024c0.17067,0.1601 0.25586,0.35721 0.25586,0.59179c0,0.23474 -0.08519,0.43684 -0.25586,0.60742c-0.16,0.16 -0.35908,0.24024 -0.59375,0.24024h-2.99023v10c0,0.256 -0.09706,0.47987 -0.28906,0.67187c-0.18133,0.18142 -0.40025,0.27149 -0.65625,0.27149c-0.26667,0 -0.49054,-0.09007 -0.67187,-0.27149c-0.18133,-0.192 -0.27148,-0.41587 -0.27148,-0.67187v-10h-2.99219c-0.23467,0 -0.43676,-0.08024 -0.60742,-0.24024c-0.16,-0.17073 -0.24023,-0.37283 -0.24023,-0.60742c0,-0.23468 0.08023,-0.43179 0.24023,-0.59179c0.17067,-0.16 0.37276,-0.24024 0.60742,-0.24024zM88.8418,151.87208c0.192,0.18134 0.28711,0.40521 0.28711,0.67187c0,0.256 -0.09511,0.47988 -0.28711,0.67188c-0.18133,0.18141 -0.40025,0.27343 -0.65625,0.27343c-0.26667,0 -0.4955,-0.09202 -0.6875,-0.27343c-0.18134,-0.192 -0.27148,-0.41588 -0.27148,-0.67188c0,-0.26658 0.09014,-0.49046 0.27148,-0.67187c0.192,-0.18142 0.42083,-0.27149 0.6875,-0.27149c0.25599,0 0.47491,0.09007 0.65625,0.27149zM92.21094,151.87208c0.18134,0.18134 0.27148,0.40521 0.27148,0.67187v7.67969c0,0.26658 -0.09014,0.49046 -0.27148,0.67187c-0.18133,0.18142 -0.40521,0.27344 -0.67187,0.27344c-0.256,0 -0.47987,-0.09202 -0.67187,-0.27344c-0.18134,-0.18134 -0.27148,-0.40521 -0.27148,-0.67187v-7.67969c0,-0.26658 0.09014,-0.49046 0.27148,-0.67187c0.192,-0.18142 0.41587,-0.27149 0.67187,-0.27149c0.26666,0 0.49053,0.09007 0.67187,0.27149zM79.28516,152.57715c0.17066,0.16008 0.25586,0.35722 0.25586,0.5918v2h0.88086c0.20267,0 0.37306,0.07519 0.51172,0.22461c0.14934,0.13876 0.22461,0.30914 0.22461,0.51172c0,0.21342 -0.07527,0.38876 -0.22461,0.52734c-0.13867,0.13859 -0.30906,0.20703 -0.51172,0.20703h-0.88086v6.73633c0,0.23474 -0.0852,0.43879 -0.25586,0.60938c-0.16001,0.16 -0.35714,0.23828 -0.5918,0.23828c-0.23467,0 -0.4318,-0.07828 -0.5918,-0.23828c-0.16,-0.17074 -0.24023,-0.3748 -0.24023,-0.60938v-6.73633h-0.5918c-0.20267,0 -0.37801,-0.06844 -0.52734,-0.20703c-0.13867,-0.13858 -0.20898,-0.31392 -0.20898,-0.52734c0,-0.20276 0.07032,-0.37314 0.20898,-0.51172c0.14933,-0.14942 0.32468,-0.22461 0.52734,-0.22461h0.5918v-2c0,-0.23466 0.08023,-0.4318 0.24023,-0.5918c0.16001,-0.16 0.35714,-0.24023 0.5918,-0.24023c0.23467,0 0.4318,0.08023 0.5918,0.24023zM84.53516,152.57715c0.17066,0.16008 0.25586,0.35722 0.25586,0.5918v2h0.88086c0.20268,0 0.37306,0.07519 0.51172,0.22461c0.14934,0.13876 0.22461,0.30914 0.22461,0.51172c0,0.21342 -0.07527,0.38876 -0.22461,0.52734c-0.13868,0.13859 -0.30906,0.20703 -0.51172,0.20703h-0.88086v6.73633c0,0.23474 -0.0852,0.43879 -0.25586,0.60938c-0.16001,0.16 -0.35714,0.23828 -0.5918,0.23828c-0.23467,0 -0.4318,-0.07828 -0.5918,-0.23828c-0.16,-0.17074 -0.24023,-0.3748 -0.24023,-0.60938v-6.73633h-0.5918c-0.20266,0 -0.378,-0.06844 -0.52734,-0.20703c-0.13866,-0.13858 -0.20898,-0.31392 -0.20898,-0.52734c0,-0.20276 0.07033,-0.37314 0.20898,-0.51172c0.14934,-0.14942 0.32469,-0.22461 0.52734,-0.22461h0.5918v-2c0,-0.23466 0.08023,-0.4318 0.24023,-0.5918c0.16001,-0.16 0.35714,-0.24023 0.5918,-0.24023c0.23467,0 0.4318,0.08023 0.5918,0.24023zM69.54102,155.21583c0.16,0.16007 0.23828,0.35916 0.23828,0.59375v5.5664c0,0.24524 0.05349,0.45921 0.16016,0.64063c0.11733,0.18134 0.26293,0.33684 0.43359,0.46484c0.18133,0.11742 0.37846,0.20749 0.5918,0.27149c0.224,0.06399 0.44096,0.0957 0.6543,0.0957c0.352,0 0.67294,-0.05837 0.96094,-0.17578c0.288,-0.12793 0.5287,-0.2983 0.7207,-0.51172c0.20267,-0.21332 0.35622,-0.46395 0.46289,-0.75196c0.10666,-0.29868 0.16016,-0.61962 0.16016,-0.96093v-4.63867c0,-0.23466 0.08023,-0.43375 0.24023,-0.59375c0.16,-0.17059 0.35713,-0.25586 0.5918,-0.25586c0.23467,0 0.4318,0.08527 0.5918,0.25586c0.17067,0.16007 0.25586,0.35916 0.25586,0.59375v7.5664c0,0.23474 -0.08519,0.43879 -0.25586,0.60938c-0.16,0.16 -0.35713,0.24023 -0.5918,0.24023c-0.23467,0 -0.4318,-0.08023 -0.5918,-0.24023c-0.16,-0.17074 -0.24023,-0.3748 -0.24023,-0.60938v-0.28711c-0.10667,0.096 -0.24039,0.21298 -0.40039,0.35157c-0.14933,0.12799 -0.33459,0.25172 -0.55859,0.36914c-0.224,0.11716 -0.48649,0.21731 -0.78516,0.30273c-0.288,0.07458 -0.62381,0.11133 -1.00781,0.11133c-0.39467,0 -0.77901,-0.05162 -1.15234,-0.1582c-0.36267,-0.11735 -0.68661,-0.28968 -0.97461,-0.51368c-0.288,-0.224 -0.51879,-0.50137 -0.68945,-0.83203c-0.17066,-0.33066 -0.25586,-0.71305 -0.25586,-1.15039v-5.75976c0,-0.23466 0.08023,-0.43375 0.24023,-0.59375c0.17067,-0.17059 0.37276,-0.25586 0.60742,-0.25586c0.23467,0 0.43375,0.08527 0.59375,0.25586zM88.77734,155.21583c0.16,0.16007 0.24023,0.35721 0.24023,0.59179v7.56836c0,0.23474 -0.08023,0.43879 -0.24023,0.60938c-0.16001,0.16 -0.35714,0.23828 -0.5918,0.23828c-0.23467,0 -0.43676,-0.07828 -0.60742,-0.23828c-0.16,-0.17074 -0.24023,-0.3748 -0.24023,-0.60938v-7.56836c0,-0.23466 0.08023,-0.43179 0.24023,-0.59179c0.17067,-0.17059 0.37276,-0.25586 0.60742,-0.25586c0.23467,0 0.4318,0.08527 0.5918,0.25586zM92.35547,162.25684c0.23466,0.224 0.35156,0.49641 0.35156,0.81641c0,0.30941 -0.1169,0.57987 -0.35156,0.81445c-0.224,0.224 -0.49641,0.33594 -0.81641,0.33594c-0.30934,0 -0.58175,-0.11194 -0.81641,-0.33594c-0.224,-0.23466 -0.33594,-0.50511 -0.33594,-0.81445c0,-0.32 0.11194,-0.59241 0.33594,-0.81641c0.23467,-0.23458 0.50707,-0.35156 0.81641,-0.35156c0.32,0 0.59241,0.11698 0.81641,0.35156zM62.16992,169.31934c0.21636,0.20694 0.32422,0.46069 0.32422,0.76172v3.30273h4.59961v-3.30273c0,-0.3011 0.10359,-0.55485 0.31055,-0.76172c0.20696,-0.20686 0.46069,-0.31055 0.76172,-0.31055c0.30103,0 0.55476,0.10369 0.76172,0.31055c0.21636,0.20694 0.32617,0.46069 0.32617,0.76172v8.99023c0,0.30113 -0.10981,0.55486 -0.32617,0.76172c-0.20696,0.20687 -0.46069,0.31055 -0.76172,0.31055c-0.30103,0 -0.55476,-0.10368 -0.76172,-0.31055c-0.20696,-0.20696 -0.31055,-0.46069 -0.31055,-0.76172v-3.82421h-4.59961v3.82421c0,0.30113 -0.10786,0.55486 -0.32422,0.76172c-0.20696,0.20687 -0.46069,0.31055 -0.76172,0.31055c-0.30103,0 -0.55476,-0.10368 -0.76172,-0.31055c-0.20696,-0.20696 -0.31055,-0.46069 -0.31055,-0.76172v-8.99023c0,-0.3011 0.10359,-0.55485 0.31055,-0.76172c0.20696,-0.20686 0.46069,-0.31055 0.76172,-0.31055c0.30103,0 0.55476,0.10369 0.76172,0.31055zM90.48242,169.30567c0.20697,0.19754 0.31055,0.43847 0.31055,0.7207v9.10157c0,0.27288 -0.10358,0.51188 -0.31055,0.71874c-0.19755,0.19755 -0.43654,0.29688 -0.71875,0.29688c-0.28222,0 -0.52316,-0.09933 -0.7207,-0.29688c-0.19754,-0.20694 -0.29492,-0.44594 -0.29492,-0.71874c-0.08444,0.094 -0.18007,0.20243 -0.2832,0.32421c-0.10347,0.11289 -0.24508,0.22066 -0.42383,0.32422c-0.16933,0.10331 -0.3893,0.19224 -0.66211,0.26758c-0.2634,0.06576 -0.59745,0.09961 -1.00195,0.09961c-0.47036,0 -0.89325,-0.09933 -1.26953,-0.29688c-0.37628,-0.19754 -0.7018,-0.47456 -0.97461,-0.83203c-0.26341,-0.36689 -0.47059,-0.80025 -0.62109,-1.29882c-0.1411,-0.49857 -0.21094,-1.04834 -0.21094,-1.65039c0,-0.60206 0.06983,-1.15375 0.21094,-1.65235c0.15051,-0.50797 0.35769,-0.93938 0.62109,-1.29687c0.27281,-0.36687 0.59832,-0.65012 0.97461,-0.84766c0.37628,-0.19754 0.79917,-0.29688 1.26953,-0.29688c0.34806,0 0.65262,0.0527 0.91601,0.15626c0.2634,0.1033 0.48959,0.22173 0.67773,0.35351c0.18814,0.12221 0.33829,0.23433 0.45117,0.33789c0.11288,0.10356 0.19746,0.1543 0.25391,0.1543c0.04704,0 0.07227,-0.05944 0.07227,-0.18164v-2.76563c0,-0.28223 0.09738,-0.52316 0.29492,-0.7207c0.19755,-0.19754 0.43849,-0.29688 0.7207,-0.29688c0.28222,0 0.52121,0.09934 0.71875,0.29688zM75.33008,172.09864c0.40451,0.08474 0.75135,0.21588 1.04297,0.39453c0.30103,0.17875 0.53148,0.40493 0.69141,0.67773c0.16933,0.26339 0.25391,0.5827 0.25391,0.95899v5.03906c0,0.27271 -0.09311,0.50319 -0.28125,0.69141c-0.18814,0.18822 -0.4186,0.28125 -0.69141,0.28125c-0.25399,0 -0.47592,-0.08024 -0.66406,-0.24024c-0.17874,-0.16935 -0.28233,-0.38078 -0.31055,-0.63476c-0.35747,0.33874 -0.73381,0.5692 -1.12891,0.6914c-0.3951,0.12221 -0.84127,0.1836 -1.33984,0.1836c-0.31984,0 -0.64536,-0.04664 -0.97461,-0.14063c-0.31984,-0.09398 -0.60965,-0.23561 -0.87305,-0.42383c-0.25399,-0.19756 -0.46117,-0.43654 -0.62109,-0.71875c-0.15992,-0.2822 -0.24023,-0.61199 -0.24023,-0.98828c0,-0.58325 0.12687,-1.03989 0.38086,-1.36914c0.2634,-0.32925 0.58696,-0.57872 0.97266,-0.74804c0.38569,-0.16933 0.80005,-0.29185 1.24219,-0.36719c0.45154,-0.07509 0.87017,-0.14927 1.25586,-0.22461c0.38569,-0.07509 0.70499,-0.17877 0.95898,-0.31055c0.2634,-0.1411 0.39648,-0.36303 0.39648,-0.66406c0,-0.1411 -0.04229,-0.26168 -0.12695,-0.36524c-0.07525,-0.11288 -0.18311,-0.20376 -0.32422,-0.26953c-0.14111,-0.07534 -0.306,-0.13042 -0.49414,-0.16797c-0.18814,-0.03754 -0.38679,-0.05664 -0.59375,-0.05664c-0.27281,0 -0.48425,0.03795 -0.63477,0.11329c-0.15051,0.07533 -0.27311,0.16836 -0.36719,0.28124c-0.08466,0.11291 -0.15449,0.23976 -0.21094,0.38086c-0.05644,0.13178 -0.12627,0.25431 -0.21094,0.36719c-0.07526,0.11288 -0.17885,0.20787 -0.31055,0.28321c-0.1317,0.07533 -0.31987,0.11328 -0.56445,0.11328v-0.00196c-0.22577,0 -0.42442,-0.05508 -0.59375,-0.16797c-0.15992,-0.12228 -0.24023,-0.33994 -0.24023,-0.65039c0,-0.30102 0.07605,-0.57804 0.22656,-0.83203c0.15051,-0.25408 0.36622,-0.46979 0.64844,-0.64843c0.28221,-0.18807 0.62674,-0.33395 1.03125,-0.4375c0.40451,-0.10356 0.8592,-0.15626 1.36719,-0.15626c0.47976,0 0.92362,0.0423 1.32812,0.12696zM80.17578,172.28418c0.19754,0.19755 0.29687,0.43228 0.29687,0.70508c0.08469,-0.09423 0.18827,-0.20201 0.31055,-0.32422c0.13169,-0.12245 0.27135,-0.23023 0.42187,-0.32421c0.15993,-0.10356 0.32482,-0.1901 0.49414,-0.25586c0.16934,-0.07534 0.33849,-0.11133 0.50781,-0.11133c0.37628,0 0.63001,0.09738 0.76172,0.29492c0.1411,0.19754 0.21289,0.428 0.21289,0.69141c0,0.21636 -0.05277,0.38125 -0.15625,0.49414c-0.09408,0.10356 -0.21669,0.18379 -0.36719,0.24023c-0.14111,0.05644 -0.29552,0.10308 -0.46484,0.14063c-0.16934,0.02822 -0.32997,0.07051 -0.48047,0.12695c-0.27281,0.10348 -0.49279,0.24083 -0.66211,0.41016c-0.15992,0.15984 -0.28253,0.33326 -0.36719,0.52148c-0.08466,0.17865 -0.1417,0.36256 -0.16992,0.55078c-0.02822,0.18807 -0.04102,0.36149 -0.04102,0.52149v3.16211c0,0.2822 -0.10358,0.5212 -0.31055,0.71874c-0.19755,0.19755 -0.43849,0.29688 -0.7207,0.29688c-0.2728,0 -0.51178,-0.09933 -0.71875,-0.29688c-0.19754,-0.20694 -0.29687,-0.44594 -0.29687,-0.71874v-6.13868c0,-0.2728 0.09933,-0.50753 0.29687,-0.70508c0.20696,-0.20686 0.45021,-0.31054 0.73242,-0.31054c0.28222,0 0.52316,0.10368 0.7207,0.31054zM85.64258,174.28614c-0.32925,0.43273 -0.49414,1.02672 -0.49414,1.7793c0,0.74315 0.16489,1.33094 0.49414,1.76367c0.33866,0.43273 0.80384,0.64843 1.39648,0.64843c0.59265,0 1.05357,-0.2157 1.38281,-0.64843c0.33866,-0.43273 0.50976,-1.02052 0.50976,-1.76367c0,-0.75258 -0.17111,-1.34657 -0.50976,-1.7793c-0.32925,-0.43273 -0.79016,-0.64844 -1.38281,-0.64844c-0.59265,0 -1.05783,0.21571 -1.39648,0.64844zM74.56641,176.41895c-0.32925,0.10331 -0.77542,0.20504 -1.33984,0.30859c-0.68672,0.12228 -1.0293,0.4478 -1.0293,0.97461c0,0.13178 0.01901,0.25866 0.05664,0.38086c0.04703,0.12221 0.12113,0.23433 0.22461,0.33789c0.10348,0.09399 0.24083,0.17013 0.41016,0.22657c0.17873,0.05644 0.39444,0.08398 0.64844,0.08398c0.21636,0 0.43207,-0.02319 0.64844,-0.07031c0.22577,-0.05644 0.42442,-0.13063 0.59375,-0.22461c0.17873,-0.10356 0.32035,-0.22609 0.42383,-0.36719c0.11288,-0.15045 0.16797,-0.31959 0.16797,-0.50781v-1.36914c-0.19755,0.04686 -0.46603,0.123 -0.80469,0.22656z" data-paper-data="{&quot;origPos&quot;:null}" id="path1627" fill="#1eff00" stroke="none" stroke-width="1" stroke-miterlimit="10" stroke-dashoffset="0"/><path d="M69.10182,187.56519c1.27594,0 2.33407,4.30809 3.36633,5.0581c1.03226,0.74997 5.45651,0.42501 5.8508,1.6385c0.39429,1.21349 -3.37601,3.55113 -3.77029,4.76462c-0.39429,1.21349 1.28192,5.32078 0.24966,6.07075c-1.03226,0.75001 -4.42056,-2.1134 -5.6965,-2.1134c-1.27594,0 -4.66424,2.86341 -5.6965,2.1134c-1.03226,-0.74997 0.64395,-4.85726 0.24966,-6.07075c-0.39429,-1.21349 -4.16458,-3.55113 -3.77029,-4.76462c0.39429,-1.21349 4.81854,-0.88853 5.8508,-1.6385c1.03226,-0.75001 2.09039,-5.0581 3.36633,-5.0581z" data-paper-data="{&quot;origPos&quot;:null}" id="path1428-5-3" fill="#1eff00" stroke="none" stroke-width="0.88188" stroke-miterlimit="4" stroke-dashoffset="17.35"/><path d="M92.0388,187.56519c1.27594,0 2.33407,4.30809 3.36633,5.0581c1.03226,0.74997 5.45651,0.42501 5.8508,1.6385c0.39429,1.21349 -3.376,3.55113 -3.77029,4.76462c-0.39429,1.21349 1.28192,5.32078 0.24968,6.07075c-1.03226,0.75001 -4.42056,-2.1134 -5.6965,-2.1134c-1.27594,0 -4.66424,2.86341 -5.6965,2.1134c-1.03226,-0.74997 0.64395,-4.85726 0.24968,-6.07075c-0.39428,-1.21349 -4.16458,-3.55113 -3.77029,-4.76462c0.39429,-1.21349 4.81854,-0.88853 5.8508,-1.6385c1.03226,-0.75001 2.09039,-5.0581 3.36633,-5.0581z" data-paper-data="{&quot;origPos&quot;:null}" id="path1428-0-2-78" fill="#1eff00" stroke="none" stroke-width="0.88188" stroke-miterlimit="4" stroke-dashoffset="17.35"/><path d="M114.97577,189.41916c1.00799,0 1.84391,3.40343 2.6594,3.99591c0.81549,0.59248 4.31065,0.336 4.62213,1.29445c0.31147,0.95864 -2.66705,2.80539 -2.97853,3.76403c-0.31147,0.95868 1.01272,4.20344 0.19725,4.79592c-0.81548,0.59248 -3.49224,-1.66961 -4.50023,-1.66961c-1.00799,0 -3.68475,2.26208 -4.50023,1.66961c-0.81548,-0.59248 0.50872,-3.83724 0.19722,-4.79592c-0.31147,-0.95864 -3.29002,-2.80539 -2.97853,-3.76403c0.31147,-0.95864 3.80665,-0.70197 4.62213,-1.29445c0.81548,-0.59248 1.6514,-3.99591 2.6594,-3.99591z" data-paper-data="{&quot;origPos&quot;:null}" id="path1428-0-6-3-32" fill="#1eff00" stroke="none" stroke-width="0.69669" stroke-miterlimit="4" stroke-dashoffset="17.35"/></g></g></svg>