<svg version="1.1" xmlns="http://www.w3.org/2000/svg" xmlns:xlink="http://www.w3.org/1999/xlink" width="372.21489" height="68.64262" viewBox="0,0,372.21489,68.64262"><g transform="translate(-53.89255,-145.67869)"><g data-paper-data="{&quot;isPaintingLayer&quot;:true}" fill-rule="nonzero" stroke-linecap="butt" stroke-linejoin="miter" stroke-dasharray="" style="mix-blend-mode: normal"><path d="M425.00973,146.42869c0.19313,0 0.34772,0.15458 0.34772,0.34772v66.4453c0,0.19313 -0.15458,0.34961 -0.34772,0.34961h-370.01757c-0.19313,0 -0.34961,-0.15647 -0.34961,-0.34961v-66.4453c0,-0.19313 0.15647,-0.34772 0.34961,-0.34772z" fill="#1e1e1e" stroke="#1eff00" stroke-width="1.5" stroke-miterlimit="4" stroke-dashoffset="17.35"/><path d="M66.30664,152.48828c0.50662,0 0.98189,0.097 1.42383,0.29102c0.44194,0.18325 0.82991,0.44125 1.16406,0.77539c0.33416,0.33416 0.59216,0.72213 0.77539,1.16406c0.19402,0.44195 0.29102,0.91722 0.29102,1.42383c0,0.50663 -0.097,0.97995 -0.29102,1.42187c-0.18324,0.44196 -0.44124,0.82993 -0.77539,1.16407c-0.33415,0.33416 -0.72212,0.59895 -1.16406,0.79296c-0.44194,0.18319 -0.91721,0.2754 -1.42383,0.2754h-4.00977v4.49414c0,0.25872 -0.09216,0.48567 -0.27539,0.67968c-0.18324,0.18318 -0.40826,0.27344 -0.67773,0.27344c-0.25871,0 -0.48567,-0.09026 -0.67969,-0.27344c-0.18326,-0.19401 -0.27539,-0.42096 -0.27539,-0.67968v-10.54102c0,-0.34492 0.12513,-0.64269 0.37305,-0.89062c0.24792,-0.24794 0.54859,-0.3711 0.9043,-0.3711zM86.31836,152.73047c0.16169,0.16171 0.24219,0.36055 0.24219,0.59765v11.06055c0,0.23726 -0.0805,0.44094 -0.24219,0.61328c-0.1617,0.16177 -0.36053,0.24219 -0.59766,0.24219c-0.23713,0 -0.44276,-0.08042 -0.61523,-0.24219c-0.16169,-0.17249 -0.24219,-0.37618 -0.24219,-0.61328v-11.06055c0,-0.23705 0.0805,-0.43589 0.24219,-0.59765c0.17247,-0.16177 0.37811,-0.24219 0.61523,-0.24219c0.23714,0 0.43597,0.08042 0.59766,0.24219zM104.50977,152.73047c0.17247,0.16171 0.25976,0.36055 0.25976,0.59765v11.06055c0,0.23726 -0.08729,0.44094 -0.25976,0.61328c-0.1617,0.16177 -0.36053,0.24219 -0.59766,0.24219c-0.23714,0 -0.43597,-0.08042 -0.59766,-0.24219c-0.16169,-0.17249 -0.24414,-0.37618 -0.24414,-0.61328v-0.14648c-0.21558,0.18333 -0.41926,0.33949 -0.61328,0.46875c-0.18325,0.12951 -0.37723,0.23804 -0.58203,0.32422c-0.20481,0.07559 -0.43178,0.1279 -0.67969,0.16015c-0.24791,0.03225 -0.53405,0.04883 -0.85742,0.04883c-0.52817,0 -1.02963,-0.11358 -1.50391,-0.33984c-0.4635,-0.22637 -0.87281,-0.54353 -1.22851,-0.95313c-0.34493,-0.42038 -0.61942,-0.91699 -0.82422,-1.48828c-0.2048,-0.57129 -0.30664,-1.20076 -0.30664,-1.89062c0,-0.68987 0.09213,-1.32129 0.27539,-1.89258c0.18324,-0.58207 0.44124,-1.07673 0.77539,-1.48633c0.34493,-0.42049 0.75424,-0.74444 1.22851,-0.9707c0.47428,-0.22627 1.00192,-0.33985 1.58398,-0.33985c0.44194,0 0.82507,0.05427 1.14844,0.16211c0.32337,0.10777 0.59301,0.23774 0.80859,0.38867c0.21558,0.14015 0.38338,0.27983 0.50196,0.41993c0.12933,0.14009 0.21954,0.24188 0.27343,0.30664v-3.83204c0,-0.23705 0.08245,-0.43589 0.24414,-0.59765c0.1617,-0.16177 0.36053,-0.24219 0.59766,-0.24219c0.23714,0 0.43597,0.08042 0.59766,0.24219zM107.64844,152.76172c0.19401,0.18326 0.29101,0.41021 0.29101,0.67969c0,0.25869 -0.097,0.48567 -0.29101,0.67968c-0.18325,0.18318 -0.40341,0.27539 -0.66211,0.27539c-0.26948,0 -0.5013,-0.09221 -0.69531,-0.27539c-0.18324,-0.19401 -0.27539,-0.42099 -0.2754,-0.67968c0,-0.26956 0.09216,-0.49651 0.2754,-0.67969c0.19402,-0.18318 0.42583,-0.27344 0.69531,-0.27344c0.25871,0 0.47888,0.09026 0.66211,0.27344zM62.29688,158.09766h3.79883c0.26949,0 0.52459,-0.04753 0.76172,-0.14454c0.23713,-0.10789 0.44081,-0.24757 0.61328,-0.41992c0.18325,-0.18328 0.32291,-0.39375 0.41992,-0.63086c0.10779,-0.23715 0.16211,-0.49028 0.16211,-0.75976c0,-0.26951 -0.05432,-0.52267 -0.16211,-0.75977c-0.09702,-0.23725 -0.23669,-0.44289 -0.41992,-0.61523c-0.17248,-0.18326 -0.37615,-0.32292 -0.61328,-0.41992c-0.23714,-0.10785 -0.49224,-0.16211 -0.76172,-0.16211h-3.79883zM82.49024,156.43164c0.65752,0.43114 0.98633,1.07423 0.98633,1.92578v6.0293c0,0.23725 -0.0805,0.44289 -0.24219,0.61523c-0.16167,0.16177 -0.3605,0.24219 -0.59766,0.24219c-0.23713,0 -0.44276,-0.08042 -0.61523,-0.24219c-0.16169,-0.17249 -0.24219,-0.37813 -0.24219,-0.61523v-0.25781c-0.4096,0.4419 -0.87807,0.73774 -1.40625,0.88867c-0.51739,0.15093 -1.06637,0.22656 -1.64844,0.22656c-0.36649,0 -0.73992,-0.04752 -1.11719,-0.14453c-0.36649,-0.10769 -0.70014,-0.27064 -1.00195,-0.48633c-0.29102,-0.21558 -0.52768,-0.48524 -0.71094,-0.80859c-0.18323,-0.32338 -0.27539,-0.71133 -0.27539,-1.16407c0,-0.51739 0.10184,-0.94804 0.30664,-1.29296c0.2048,-0.35581 0.48124,-0.64678 0.82617,-0.87305c0.34493,-0.2265 0.73774,-0.39915 1.17969,-0.51758c0.45272,-0.11868 0.92604,-0.20389 1.42187,-0.25781c0.57129,-0.06476 1.01842,-0.1356 1.3418,-0.21094c0.32337,-0.08617 0.56683,-0.18317 0.72852,-0.29101c0.16169,-0.10785 0.25869,-0.231 0.29102,-0.3711c0.04311,-0.14024 0.06445,-0.2964 0.06445,-0.46875c0,-0.20477 -0.05916,-0.38423 -0.17773,-0.53515c-0.11856,-0.15093 -0.26987,-0.27409 -0.45312,-0.3711c-0.18324,-0.09701 -0.38691,-0.16785 -0.61328,-0.21094c-0.22636,-0.05392 -0.44848,-0.08007 -0.66406,-0.08007c-0.38803,0 -0.70035,0.0329 -0.9375,0.09765c-0.23714,0.06476 -0.43113,0.14997 -0.58203,0.25781c-0.1509,0.10777 -0.27408,0.23775 -0.37109,0.38868c-0.08622,0.15083 -0.16672,0.30698 -0.24219,0.46875c-0.06468,0.12926 -0.15681,0.22626 -0.27539,0.29101c-0.10779,0.05392 -0.22127,0.08008 -0.33984,0.08008c-0.21557,0 -0.4144,-0.06889 -0.59766,-0.20898c-0.18323,-0.14012 -0.27539,-0.3341 -0.27539,-0.58204c0,-0.097 0.02618,-0.21537 0.08008,-0.35546c0.09701,-0.22627 0.22698,-0.44838 0.38867,-0.66407c0.16169,-0.22647 0.37701,-0.42531 0.64648,-0.59765c0.28025,-0.17247 0.62071,-0.30729 1.01953,-0.4043c0.4096,-0.10784 0.90426,-0.16211 1.48633,-0.16211c1.09946,0 1.97239,0.22016 2.61914,0.66211zM72.37305,156.14258c0.16169,0.16174 0.24219,0.36055 0.24219,0.59765v0.30665c0.04311,-0.04309 0.12361,-0.12856 0.24219,-0.25782c0.11856,-0.12943 0.26503,-0.25941 0.4375,-0.38867c0.18324,-0.14009 0.38207,-0.25846 0.59766,-0.35547c0.22637,-0.10784 0.46303,-0.16211 0.71094,-0.16211c0.23713,0 0.43792,0.08742 0.59961,0.25977c0.17247,0.16174 0.25781,0.36055 0.25781,0.59765c0,0.22647 -0.08534,0.42531 -0.25781,0.59766c-0.1617,0.16176 -0.36248,0.24219 -0.59961,0.24219c-0.4096,0 -0.74325,0.097 -1.00195,0.29101c-0.2587,0.18326 -0.46238,0.40537 -0.61328,0.66407c-0.14012,0.25869 -0.23712,0.52833 -0.29101,0.80859c-0.0539,0.28031 -0.08203,0.51213 -0.08203,0.69531v4.34766c0,0.23725 -0.0805,0.44289 -0.24219,0.61523c-0.16167,0.16177 -0.3605,0.24219 -0.59766,0.24219c-0.23713,0 -0.44276,-0.08042 -0.61523,-0.24219c-0.16169,-0.17249 -0.24219,-0.37813 -0.24219,-0.61523v-7.64649c0,-0.23707 0.0805,-0.43589 0.24219,-0.59765c0.17248,-0.17235 0.37811,-0.25977 0.61523,-0.25977c0.23714,0 0.43597,0.08742 0.59766,0.25977zM89.39453,156.14258c0.16169,0.16174 0.24219,0.36055 0.24219,0.59765v5.62696c0,0.24798 0.05432,0.4633 0.16211,0.64648c0.11856,0.18333 0.26307,0.33949 0.43555,0.46875c0.18324,0.11843 0.38402,0.21064 0.59961,0.27539c0.22636,0.06476 0.44652,0.09766 0.66211,0.09766c0.35571,0 0.67967,-0.06101 0.9707,-0.17969c0.29104,-0.12923 0.53255,-0.30189 0.72656,-0.51758c0.2048,-0.21558 0.36096,-0.46874 0.46875,-0.75976c0.10779,-0.30184 0.16211,-0.62383 0.16211,-0.96875v-4.68946c0,-0.23707 0.0805,-0.43589 0.24219,-0.59765c0.16167,-0.17235 0.36246,-0.25977 0.59961,-0.25977c0.23713,0 0.43597,0.08742 0.59766,0.25977c0.17247,0.16174 0.25781,0.36055 0.25781,0.59765v7.64844c0,0.23726 -0.08534,0.44094 -0.25781,0.61328c-0.1617,0.16177 -0.36053,0.24219 -0.59766,0.24219c-0.23714,0 -0.43792,-0.08042 -0.59961,-0.24219c-0.16169,-0.17249 -0.24219,-0.37618 -0.24219,-0.61328v-0.29101c-0.10779,0.097 -0.24261,0.21537 -0.4043,0.35546c-0.1509,0.12926 -0.33808,0.25242 -0.56445,0.3711c-0.22636,0.11868 -0.49115,0.22047 -0.79297,0.30664c-0.29103,0.07534 -0.63148,0.11328 -1.01953,0.11328c-0.39883,0 -0.78679,-0.05231 -1.16406,-0.16016c-0.36649,-0.11865 -0.69529,-0.29131 -0.98633,-0.51757c-0.29103,-0.22637 -0.52284,-0.50767 -0.69531,-0.8418c-0.17247,-0.33416 -0.25781,-0.72214 -0.25781,-1.16406v-5.82032c0,-0.23707 0.0805,-0.43589 0.24219,-0.59765c0.17247,-0.17235 0.37811,-0.25977 0.61523,-0.25977c0.23714,0 0.43597,0.08742 0.59766,0.25977zM107.58398,156.14258c0.16169,0.16174 0.24219,0.36055 0.24219,0.59765v7.64844c0,0.23726 -0.0805,0.44094 -0.24219,0.61328c-0.16167,0.16177 -0.3605,0.24219 -0.59765,0.24219c-0.23713,0 -0.44276,-0.08042 -0.61524,-0.24219c-0.16168,-0.17249 -0.24218,-0.37618 -0.24218,-0.61328v-7.64844c0,-0.23707 0.0805,-0.43589 0.24218,-0.59765c0.17248,-0.17235 0.37811,-0.25977 0.61524,-0.25977c0.23714,0 0.43597,0.08742 0.59765,0.25977zM110.55273,156.14258c0.16169,0.16174 0.24219,0.36055 0.24219,0.59765v5.62696c0,0.24798 0.05432,0.4633 0.16211,0.64648c0.11856,0.18333 0.26308,0.33949 0.43555,0.46875c0.18324,0.11843 0.38402,0.21064 0.59961,0.27539c0.22635,0.06476 0.44652,0.09766 0.66211,0.09766c0.35571,0 0.67966,-0.06101 0.9707,-0.17969c0.29104,-0.12923 0.53255,-0.30189 0.72656,-0.51758c0.2048,-0.21558 0.36096,-0.46874 0.46875,-0.75976c0.10779,-0.30184 0.16211,-0.62383 0.16211,-0.96875v-4.68946c0,-0.23707 0.0805,-0.43589 0.24219,-0.59765c0.1617,-0.17235 0.36248,-0.25977 0.59961,-0.25977c0.23714,0 0.43597,0.08742 0.59766,0.25977c0.17247,0.16174 0.25781,0.36055 0.25781,0.59765v7.64844c0,0.23726 -0.08534,0.44094 -0.25781,0.61328c-0.16168,0.16177 -0.36051,0.24219 -0.59766,0.24219c-0.23714,0 -0.43792,-0.08042 -0.59961,-0.24219c-0.16169,-0.17249 -0.24219,-0.37618 -0.24219,-0.61328v-0.29101c-0.10779,0.097 -0.24261,0.21537 -0.4043,0.35546c-0.15089,0.12926 -0.34003,0.25242 -0.5664,0.3711c-0.22636,0.11868 -0.4892,0.22047 -0.79102,0.30664c-0.29103,0.07534 -0.63148,0.11328 -1.01953,0.11328c-0.39882,0 -0.78679,-0.05231 -1.16406,-0.16016c-0.36649,-0.11865 -0.6953,-0.29131 -0.98633,-0.51757c-0.29102,-0.22637 -0.52284,-0.50767 -0.69531,-0.8418c-0.17247,-0.33416 -0.25781,-0.72214 -0.25781,-1.16406v-5.82032c0,-0.23707 0.0805,-0.43589 0.24218,-0.59765c0.17248,-0.17235 0.37811,-0.25977 0.61524,-0.25977c0.23714,0 0.43597,0.08742 0.59765,0.25977zM119.39453,156.14258c0.16169,0.16174 0.24219,0.36055 0.24219,0.59765v0.35547c0.06465,-0.07559 0.15681,-0.18412 0.27539,-0.32422c0.12935,-0.14022 0.29715,-0.27503 0.50195,-0.40429c0.20481,-0.12926 0.44631,-0.24089 0.72656,-0.33789c0.29104,-0.09701 0.63149,-0.14649 1.01954,-0.14649c0.53895,0 1.00257,0.14648 1.39062,0.4375c0.38805,0.28027 0.68871,0.6304 0.9043,1.05078c0.29103,-0.52827 0.65766,-0.90654 1.09961,-1.13281c0.45272,-0.2371 0.98035,-0.35547 1.58398,-0.35547c0.38805,0 0.74499,0.05906 1.06836,0.17774c0.33414,0.10789 0.62027,0.27568 0.85742,0.50195c0.24793,0.22637 0.44191,0.50571 0.58203,0.83984c0.14012,0.33416 0.20899,0.72214 0.20899,1.16407v5.82226c0,0.23726 -0.0805,0.44094 -0.24219,0.61328c-0.1617,0.16177 -0.36053,0.24219 -0.59766,0.24219c-0.23713,0 -0.44276,-0.08042 -0.61523,-0.24219c-0.16169,-0.17249 -0.24219,-0.37618 -0.24219,-0.61328v-5.74023c0,-0.37725 -0.12318,-0.70123 -0.37109,-0.97071c-0.24792,-0.26948 -0.57672,-0.40429 -0.98633,-0.40429c-0.35571,0 -0.66318,0.07084 -0.92187,0.21094c-0.25869,0.12943 -0.47402,0.30693 -0.64649,0.5332c-0.16169,0.22637 -0.28682,0.48434 -0.37304,0.77539c-0.07544,0.29102 -0.11329,0.59366 -0.11329,0.90625v4.68945c0,0.23726 -0.0805,0.44094 -0.24218,0.61328c-0.16168,0.16177 -0.36051,0.24219 -0.59766,0.24219c-0.23713,0 -0.44276,-0.08042 -0.61523,-0.24219c-0.16169,-0.17249 -0.24219,-0.37618 -0.24219,-0.61328v-5.74023c0,-0.37725 -0.11832,-0.70123 -0.35547,-0.97071c-0.23714,-0.26948 -0.57079,-0.40429 -1.00195,-0.40429c-0.35571,0 -0.66318,0.07084 -0.92188,0.21094c-0.25869,0.12943 -0.47401,0.30693 -0.64648,0.5332c-0.16169,0.22637 -0.28683,0.48434 -0.37305,0.77539c-0.07546,0.29102 -0.11328,0.59366 -0.11328,0.90625v4.68945c0,0.23726 -0.0805,0.44094 -0.24219,0.61328c-0.16167,0.16177 -0.3605,0.24219 -0.59765,0.24219c-0.23714,0 -0.44277,-0.08042 -0.61524,-0.24219c-0.16169,-0.17249 -0.24219,-0.37618 -0.24219,-0.61328v-7.64844c0,-0.23707 0.0805,-0.43589 0.24219,-0.59765c0.17248,-0.17235 0.37811,-0.25977 0.61524,-0.25977c0.23713,0 0.43596,0.08742 0.59765,0.25977zM99.5293,157.54883c-0.31258,0.18325 -0.58027,0.43155 -0.80664,0.74414c-0.21557,0.30181 -0.38338,0.65194 -0.50195,1.05078c-0.10779,0.38803 -0.16211,0.79735 -0.16211,1.22852c0,0.42038 0.05432,0.8297 0.16211,1.22851c0.11857,0.39884 0.28637,0.74897 0.50195,1.05078c0.22636,0.30189 0.49405,0.54534 0.80664,0.72852c0.31259,0.18318 0.67438,0.27344 1.08398,0.27344c0.40961,0 0.77139,-0.09026 1.08399,-0.27344c0.32336,-0.18326 0.59301,-0.42671 0.80859,-0.72852c0.21558,-0.30181 0.37658,-0.65194 0.48437,-1.05078c0.11858,-0.39881 0.17774,-0.80813 0.17774,-1.22851c0,-0.43117 -0.05916,-0.84049 -0.17774,-1.22852c-0.10779,-0.39884 -0.26879,-0.74897 -0.48437,-1.05078c-0.21558,-0.31267 -0.48522,-0.56096 -0.80859,-0.74414c-0.3126,-0.18318 -0.67438,-0.27539 -1.08399,-0.27539c-0.4096,0 -0.77139,0.09221 -1.08398,0.27539zM81.375,160.7168c-0.2048,0.06475 -0.4463,0.11423 -0.72656,0.14648c-0.26948,0.03251 -0.55561,0.0702 -0.85742,0.11328c-0.29104,0.04309 -0.57717,0.09736 -0.85742,0.16211c-0.28025,0.06476 -0.5334,0.16176 -0.75977,0.29102c-0.22637,0.11857 -0.40871,0.27473 -0.54883,0.46875c-0.12936,0.19401 -0.19531,0.44233 -0.19531,0.74414c0,0.23708 0.04948,0.43589 0.14648,0.59765c0.10779,0.15093 0.24261,0.27409 0.4043,0.3711c0.16169,0.08617 0.34403,0.15222 0.54883,0.19531c0.2048,0.03225 0.41043,0.04688 0.61523,0.04688c0.31259,0 0.62491,-0.03095 0.9375,-0.09571c0.3126,-0.07534 0.59193,-0.1937 0.83984,-0.35547c0.2587,-0.16168 0.46433,-0.37895 0.61523,-0.64843c0.16169,-0.26948 0.24219,-0.60314 0.24219,-1.00196v-1.14843zM66.61328,167.15625c0.4635,0 0.90579,0.08238 1.32617,0.24414c0.43116,0.1509 0.80944,0.36622 1.13281,0.64649c0.32338,0.26948 0.58137,0.59345 0.77539,0.9707c0.19402,0.37727 0.29102,0.77977 0.29102,1.21094c0,0.45271 -0.06402,0.83584 -0.19336,1.14843c-0.11858,0.31257 -0.27473,0.5725 -0.46875,0.77735c-0.19403,0.20487 -0.41615,0.37074 -0.66406,0.5c-0.24792,0.11867 -0.49623,0.22721 -0.74414,0.32422c0.19402,0.06475 0.42584,0.17133 0.69531,0.32226c0.28026,0.14012 0.5499,0.34091 0.80859,0.59961c0.25871,0.2587 0.48083,0.59235 0.66406,1.00195c0.18326,0.39884 0.27344,0.88863 0.27344,1.47071c0,0.52817 -0.10668,1.00831 -0.32227,1.43945c-0.21558,0.43117 -0.50171,0.80264 -0.85742,1.11523c-0.35571,0.31272 -0.76986,0.55617 -1.24414,0.72852c-0.4635,0.1726 -0.95526,0.25781 -1.47266,0.25781h-4.94726c-0.15091,0 -0.30222,-0.02136 -0.45312,-0.06445c-0.15089,-0.05392 -0.29056,-0.12956 -0.41992,-0.22656c-0.11855,-0.10772 -0.21555,-0.24254 -0.29102,-0.4043c-0.07546,-0.16176 -0.11328,-0.35576 -0.11328,-0.58203v-10.21875c0,-0.09701 0.0165,-0.21538 0.04883,-0.35547c0.03235,-0.151 0.09151,-0.29066 0.17773,-0.41992c0.09701,-0.1401 0.22698,-0.25367 0.38867,-0.33985c0.17246,-0.097 0.38779,-0.14648 0.64648,-0.14648zM85.54102,167.32031c0.19403,0.09691 0.34049,0.25307 0.4375,0.46875l2.45703,5.36719l2.45898,-5.36719c0.09702,-0.21558 0.24153,-0.37174 0.43555,-0.46875c0.19401,-0.10784 0.40449,-0.16211 0.63086,-0.16211c0.09701,0 0.21535,0.02137 0.35547,0.06446c0.15089,0.03225 0.29056,0.09635 0.41992,0.19336c0.12936,0.09693 0.24284,0.2269 0.33984,0.38867c0.09701,0.15095 0.14648,0.34493 0.14648,0.58203c0,0.08617 -0.01153,0.17164 -0.0332,0.25781c-0.01078,0.07559 -0.04376,0.15797 -0.09766,0.24414l-3.41016,6.0293v3.78515c0,0.14018 -0.02814,0.27983 -0.08203,0.41993c-0.04311,0.14002 -0.11877,0.26804 -0.22656,0.38672c-0.09701,0.11867 -0.22503,0.21567 -0.38672,0.29101c-0.1509,0.07559 -0.3352,0.11524 -0.55078,0.11524c-0.20481,0 -0.3823,-0.03965 -0.5332,-0.11524c-0.1509,-0.08617 -0.28088,-0.18796 -0.38867,-0.30664c-0.09701,-0.12939 -0.17267,-0.2642 -0.22656,-0.4043c-0.0539,-0.14002 -0.08008,-0.26999 -0.08008,-0.38867v-3.7832l-3.42773,-6.0293c-0.05379,-0.08642 -0.09161,-0.1688 -0.11328,-0.24414c-0.01083,-0.08617 -0.01562,-0.17164 -0.01562,-0.25781c0,-0.09701 0.0165,-0.21538 0.04883,-0.35547c0.04311,-0.14022 0.10714,-0.27504 0.19336,-0.4043c0.09701,-0.12951 0.22698,-0.23804 0.38867,-0.32422c0.17246,-0.097 0.38779,-0.14453 0.64648,-0.14453c0.21559,0 0.41927,0.05427 0.61328,0.16211zM104.47266,167.49805c0.23712,0.22637 0.35546,0.50086 0.35546,0.82422v6.14453l3.26563,-3.58985c0.19402,-0.21568 0.42583,-0.32422 0.69531,-0.32422c0.09701,0 0.20564,0.02137 0.32422,0.06446c0.11858,0.04308 0.22721,0.10914 0.32422,0.19531c0.09701,0.08643 0.17751,0.19301 0.24219,0.32227c0.06468,0.11847 0.0957,0.26011 0.0957,0.42187c0,0.12939 -0.02618,0.2642 -0.08008,0.4043c-0.05389,0.12926 -0.13439,0.24088 -0.24219,0.33789l-1.89257,1.87695l2.65234,3.94531c0.11858,0.18318 0.17773,0.37718 0.17773,0.58203c0,0.11861 -0.02618,0.24663 -0.08007,0.38672c-0.04311,0.14002 -0.11877,0.27 -0.22657,0.38868c-0.09701,0.11867 -0.22698,0.22046 -0.38867,0.30664c-0.16167,0.08617 -0.35566,0.1289 -0.58203,0.1289c-0.15092,0 -0.29543,-0.02615 -0.43555,-0.08008c-0.14014,-0.06475 -0.25362,-0.16654 -0.33984,-0.30664l-2.36133,-3.76757l-1.14844,1.14843v1.84375c0,0.31265 -0.11834,0.58712 -0.35546,0.82422c-0.22636,0.22627 -0.50085,0.33985 -0.82422,0.33985c-0.31261,0 -0.58709,-0.11358 -0.82422,-0.33985c-0.22637,-0.23715 -0.33984,-0.51162 -0.33984,-0.82422v-10.42968c0,-0.32346 0.11347,-0.59796 0.33984,-0.82422c0.23714,-0.22627 0.51163,-0.33985 0.82422,-0.33985c0.32336,0 0.59785,0.11358 0.82422,0.33985zM134.1543,167.1582c0.29104,0 0.53934,0.10179 0.74414,0.30664c0.21558,0.2048 0.32422,0.4531 0.32422,0.74414c0,0.30176 -0.10864,0.55492 -0.32422,0.75977c-0.20481,0.20485 -0.45311,0.30664 -0.74414,0.30664h-2.8125v9.41016c0,0.34497 -0.11832,0.63594 -0.35547,0.87304c-0.23714,0.23711 -0.52812,0.35547 -0.87305,0.35547c-0.34494,0 -0.63592,-0.11836 -0.87305,-0.35547c-0.23712,-0.23712 -0.35546,-0.5281 -0.35546,-0.87304v-9.41016h-2.81446c-0.29103,0 -0.54418,-0.10179 -0.75976,-0.30664c-0.2048,-0.2048 -0.30664,-0.45796 -0.30664,-0.75977c0,-0.29099 0.10184,-0.53929 0.30664,-0.74414c0.21558,-0.20485 0.46873,-0.30664 0.75976,-0.30664zM145.46289,167.49805c0.23715,0.22637 0.35547,0.50086 0.35547,0.82422v6.14453l3.26562,-3.58985c0.19403,-0.21568 0.42584,-0.32422 0.69532,-0.32422c0.097,0 0.20564,0.02137 0.32422,0.06446c0.11857,0.04308 0.22525,0.10914 0.32226,0.19531c0.09701,0.08643 0.17946,0.19301 0.24414,0.32227c0.06468,0.11847 0.0957,0.26011 0.0957,0.42187c0,0.12939 -0.02618,0.2642 -0.08007,0.4043c-0.0539,0.12926 -0.1344,0.24088 -0.24219,0.33789l-1.89258,1.87695l2.65234,3.94531c0.11858,0.18318 0.17774,0.37718 0.17774,0.58203c0,0.11861 -0.02814,0.24663 -0.08203,0.38672c-0.04311,0.14002 -0.11682,0.27 -0.22461,0.38868c-0.09701,0.11867 -0.22698,0.22046 -0.38867,0.30664c-0.16168,0.08617 -0.35567,0.1289 -0.58203,0.1289c-0.15092,0 -0.29738,-0.02615 -0.4375,-0.08008c-0.14015,-0.06475 -0.25362,-0.16654 -0.33985,-0.30664l-2.35937,-3.76757l-1.14844,1.14843v1.84375c0,0.31265 -0.11832,0.58712 -0.35547,0.82422c-0.22636,0.22627 -0.50084,0.33985 -0.82422,0.33985c-0.31258,0 -0.58706,-0.11358 -0.82422,-0.33985c-0.22637,-0.23715 -0.33984,-0.51162 -0.33984,-0.82422v-10.42968c0,-0.32346 0.11347,-0.59796 0.33984,-0.82422c0.23714,-0.22627 0.51163,-0.33985 0.82422,-0.33985c0.32337,0 0.59785,0.11358 0.82422,0.33985zM163.55859,167.49805c0.23713,0.22637 0.35547,0.50086 0.35547,0.82422v3.20117c0,0.06475 0.02134,0.09765 0.06446,0.09765c0.06468,0 0.16652,-0.05426 0.30664,-0.16211c0.14013,-0.11867 0.31277,-0.24378 0.51757,-0.37304c0.21559,-0.12926 0.46389,-0.24763 0.74415,-0.35547c0.28025,-0.11868 0.59257,-0.17774 0.9375,-0.17774c0.46349,0 0.87765,0.07564 1.24414,0.22657c0.37727,0.1509 0.69154,0.35654 0.93945,0.61523c0.24791,0.2587 0.43509,0.56617 0.56445,0.92188c0.14012,0.34494 0.21094,0.71641 0.21094,1.11523v5.31836c0,0.31264 -0.11832,0.58907 -0.35547,0.82617c-0.22636,0.22627 -0.496,0.33789 -0.80859,0.33789c-0.32338,0 -0.60467,-0.11162 -0.8418,-0.33789c-0.22637,-0.23715 -0.33789,-0.51358 -0.33789,-0.82617v-4.52734c0,-0.44193 -0.15811,-0.81341 -0.4707,-1.11524c-0.30182,-0.31259 -0.67814,-0.46875 -1.13086,-0.46875c-0.44195,0 -0.81827,0.15616 -1.13086,0.46875c-0.30182,0.30183 -0.45313,0.6801 -0.45313,1.13281v4.50977c0,0.31264 -0.11834,0.58907 -0.35547,0.82617c-0.22636,0.22627 -0.5028,0.33789 -0.82617,0.33789c-0.31258,0 -0.58706,-0.11162 -0.82422,-0.33789c-0.22637,-0.23715 -0.33984,-0.51358 -0.33984,-0.82617v-10.42773c0,-0.32346 0.11347,-0.59796 0.33984,-0.82422c0.23714,-0.22627 0.51163,-0.33985 0.82422,-0.33985c0.32337,0 0.59981,0.11358 0.82617,0.33985zM190.58984,167.49805c0.23713,0.22637 0.35547,0.50086 0.35547,0.82422v3.20117c0,0.06475 0.02134,0.09765 0.06446,0.09765c0.06468,0 0.16652,-0.05426 0.30664,-0.16211c0.14013,-0.11867 0.31277,-0.24378 0.51757,-0.37304c0.21559,-0.12926 0.46389,-0.24763 0.74414,-0.35547c0.28026,-0.11868 0.59258,-0.17774 0.9375,-0.17774c0.4635,0 0.87961,0.07564 1.2461,0.22657c0.37727,0.1509 0.68959,0.35654 0.9375,0.61523c0.24791,0.2587 0.43704,0.56617 0.5664,0.92188c0.14012,0.34494 0.20899,0.71641 0.20899,1.11523v5.31836c0,0.31264 -0.11832,0.58907 -0.35547,0.82617c-0.22636,0.22627 -0.496,0.33789 -0.80859,0.33789c-0.32339,0 -0.60272,-0.11162 -0.83985,-0.33789c-0.22637,-0.23715 -0.33984,-0.51358 -0.33984,-0.82617v-4.52734c0,-0.44193 -0.15616,-0.81341 -0.46875,-1.11524c-0.30181,-0.31259 -0.68009,-0.46875 -1.13281,-0.46875c-0.44194,0 -0.81827,0.15616 -1.13086,0.46875c-0.30182,0.30183 -0.45313,0.6801 -0.45313,1.13281v4.50977c0,0.31264 -0.11834,0.58907 -0.35547,0.82617c-0.22636,0.22627 -0.50084,0.33789 -0.82422,0.33789c-0.31257,0 -0.58706,-0.11162 -0.82421,-0.33789c-0.22637,-0.23715 -0.33985,-0.51358 -0.33985,-0.82617v-10.42773c0,-0.32346 0.11348,-0.59796 0.33985,-0.82422c0.23714,-0.22627 0.51162,-0.33985 0.82421,-0.33985c0.32337,0 0.59786,0.11358 0.82422,0.33985zM199.61523,167.49805c0.23713,0.22637 0.35743,0.50086 0.35743,0.82422c0,0.32347 -0.1203,0.59795 -0.35743,0.82421c-0.22636,0.22627 -0.50084,0.33985 -0.82421,0.33985c-0.31258,0 -0.58707,-0.11358 -0.82422,-0.33985c-0.22637,-0.22636 -0.33985,-0.50084 -0.33985,-0.82421c0,-0.32346 0.11348,-0.59796 0.33985,-0.82422c0.23714,-0.22627 0.51162,-0.33985 0.82422,-0.33985c0.32336,0 0.59785,0.11358 0.82421,0.33985zM62.86328,172.25h3.31445c0.20481,0 0.3988,-0.03599 0.58203,-0.11133c0.18326,-0.07559 0.33941,-0.17933 0.46875,-0.30859c0.14012,-0.1402 0.2468,-0.3012 0.32226,-0.48438c0.07546,-0.1832 0.11328,-0.37718 0.11328,-0.58203c0,-0.20485 -0.03782,-0.39885 -0.11328,-0.58203c-0.07546,-0.18333 -0.18215,-0.33949 -0.32226,-0.46875c-0.12934,-0.14035 -0.28549,-0.24888 -0.46875,-0.32422c-0.18325,-0.07534 -0.37723,-0.11328 -0.58203,-0.11328h-3.31445zM78.57813,170.87695c0.2587,0.21559 0.38867,0.50656 0.38867,0.87305c0,0.10784 -0.0165,0.20963 -0.04883,0.30664l-2.97461,9.28125c-0.1509,0.45271 -0.34004,0.80771 -0.56641,1.06641c-0.21558,0.25872 -0.45224,0.45951 -0.71094,0.59961c-0.2587,0.14009 -0.53318,0.22556 -0.82422,0.25781c-0.28025,0.04309 -0.54989,0.06445 -0.80859,0.06445h-0.8418c-0.2048,0 -0.38714,-0.03794 -0.54883,-0.11328c-0.1509,-0.07534 -0.28572,-0.17234 -0.4043,-0.29101c-0.10779,-0.11856 -0.19508,-0.25337 -0.25976,-0.4043c-0.0539,-0.1401 -0.08008,-0.28462 -0.08008,-0.43555c0,-0.21556 0.06402,-0.39985 0.19336,-0.55078c0.14013,-0.15093 0.3574,-0.22656 0.64844,-0.22656c0.28026,0 0.5431,-0.00555 0.79102,-0.01563c0.2587,-0.01058 0.48567,-0.04852 0.67969,-0.11328c0.19402,-0.06475 0.34533,-0.16654 0.45312,-0.30664c0.11858,-0.12931 0.17773,-0.31847 0.17773,-0.56641c0,-0.15098 -0.02134,-0.31877 -0.06445,-0.50195c-0.04311,-0.18323 -0.11393,-0.39855 -0.21094,-0.64648l-2.69922,-6.85547c-0.06468,-0.16177 -0.09766,-0.3344 -0.09766,-0.51758c0,-0.12939 0.02134,-0.2642 0.06445,-0.4043c0.04314,-0.14002 0.10714,-0.26804 0.19336,-0.38672c0.09701,-0.11842 0.22214,-0.21542 0.37305,-0.29101c0.16168,-0.08617 0.35566,-0.13086 0.58203,-0.13086c0.23714,0 0.45731,0.06605 0.66211,0.19531c0.20479,0.1186 0.34446,0.2961 0.41992,0.53321l1.99023,6.14453l1.55078,-6.12891c0.06467,-0.24801 0.1995,-0.43715 0.4043,-0.56641c0.21559,-0.12926 0.4474,-0.19336 0.69531,-0.19336c0.32337,0 0.61435,0.10854 0.87305,0.32422zM95.03321,170.9082c0.22637,0.22637 0.33984,0.496 0.33984,0.8086v4.56054c0,0.23711 0.04268,0.45726 0.12891,0.66211c0.09701,0.20473 0.22019,0.38707 0.37109,0.54883c0.15091,0.15093 0.3284,0.27125 0.5332,0.35742c0.21557,0.08618 0.43769,0.12891 0.66406,0.12891c0.23714,0 0.45731,-0.04273 0.66211,-0.12891c0.2048,-0.08617 0.3823,-0.20649 0.5332,-0.35742c0.1509,-0.16164 0.26924,-0.34398 0.35547,-0.54883c0.09701,-0.20485 0.14648,-0.425 0.14648,-0.66211v-4.56054c0,-0.3127 0.11347,-0.58233 0.33984,-0.8086c0.23714,-0.2371 0.51647,-0.35547 0.83984,-0.35547c0.32336,0 0.59785,0.11837 0.82421,0.35547c0.22637,0.22637 0.33985,0.496 0.33985,0.8086v7.0332c0,0.31264 -0.11348,0.58712 -0.33985,0.82422c-0.22635,0.22627 -0.50084,0.33984 -0.82421,0.33984c-0.32336,0 -0.59785,-0.11357 -0.82422,-0.33984c-0.22637,-0.23715 -0.33984,-0.51163 -0.33984,-0.82422c-0.09701,0.11863 -0.22503,0.24858 -0.38672,0.38867c-0.16168,0.12926 -0.35566,0.25242 -0.58203,0.3711c-0.22636,0.10784 -0.48631,0.20484 -0.77734,0.29101c-0.29103,0.07559 -0.61984,0.11328 -0.98633,0.11328c-0.4096,0 -0.79757,-0.0641 -1.16406,-0.19336c-0.36649,-0.14009 -0.69045,-0.33409 -0.9707,-0.58203c-0.26948,-0.25872 -0.4848,-0.56133 -0.64648,-0.90625c-0.16169,-0.3557 -0.24219,-0.74852 -0.24219,-1.17969v-5.33593c0,-0.3127 0.11347,-0.58233 0.33984,-0.8086c0.23714,-0.2371 0.51647,-0.35547 0.83984,-0.35547c0.32336,0 0.5998,0.11837 0.82617,0.35547zM117.35742,170.9082c0.57129,0.22637 1.06595,0.55032 1.48633,0.97071c0.42037,0.42038 0.74918,0.92667 0.98633,1.51953c0.24791,0.58207 0.37304,1.23 0.37304,1.9414c0,0.71141 -0.12513,1.36223 -0.37304,1.95508c-0.23714,0.58207 -0.56595,1.08352 -0.98633,1.50391c-0.42038,0.42041 -0.91504,0.74922 -1.48633,0.98633c-0.57129,0.22626 -1.18623,0.33984 -1.84375,0.33984c-0.64674,0 -1.25683,-0.11358 -1.82812,-0.33984c-0.57129,-0.23713 -1.06595,-0.56595 -1.48633,-0.98633c-0.42039,-0.42039 -0.756,-0.92184 -1.00391,-1.50391c-0.23713,-0.59285 -0.35547,-1.24367 -0.35547,-1.95508c0,-0.7114 0.11834,-1.35933 0.35547,-1.9414c0.24792,-0.59286 0.58353,-1.09915 1.00391,-1.51953c0.42038,-0.42049 0.91504,-0.74444 1.48633,-0.97071c0.57129,-0.2371 1.18138,-0.35547 1.82812,-0.35547c0.65752,0 1.27246,0.11837 1.84375,0.35547zM139.82227,170.69922c0.4635,0.09696 0.86311,0.24632 1.19726,0.45117c0.34492,0.2048 0.60971,0.46475 0.79297,0.77734c0.19402,0.30184 0.29102,0.66847 0.29102,1.09961v5.77149c0,0.31249 -0.10864,0.57728 -0.32422,0.79297c-0.21558,0.21568 -0.48038,0.32226 -0.79297,0.32226c-0.29103,0 -0.54418,-0.09025 -0.75977,-0.27344c-0.20482,-0.19401 -0.32314,-0.43746 -0.35547,-0.72851c-0.4096,0.38808 -0.84024,0.65287 -1.29297,0.79297c-0.45271,0.14009 -0.96386,0.20898 -1.53515,0.20898c-0.36649,0 -0.73992,-0.05231 -1.11719,-0.16015c-0.36649,-0.1077 -0.70014,-0.27065 -1.00195,-0.48633c-0.29105,-0.22637 -0.52771,-0.50084 -0.71094,-0.82422c-0.18323,-0.32335 -0.27539,-0.69969 -0.27539,-1.13086c0,-0.6683 0.14646,-1.19109 0.4375,-1.56836c0.30181,-0.37727 0.67329,-0.66341 1.11523,-0.85742c0.44194,-0.19409 0.91526,-0.33375 1.42188,-0.41992c0.51739,-0.08643 0.99751,-0.1736 1.43945,-0.25977c0.44194,-0.08617 0.80858,-0.20454 1.09961,-0.35547c0.30181,-0.16169 0.45313,-0.41484 0.45313,-0.75976c0,-0.16159 -0.04948,-0.30125 -0.14649,-0.41992c-0.08622,-0.12952 -0.2094,-0.23326 -0.37109,-0.3086c-0.16168,-0.08617 -0.35082,-0.15027 -0.56641,-0.19336c-0.21559,-0.04308 -0.44256,-0.06445 -0.67969,-0.06445c-0.31258,0 -0.55409,0.04273 -0.72656,0.12891c-0.17246,0.08642 -0.31213,0.19495 -0.41992,0.32421c-0.09701,0.12929 -0.17751,0.27379 -0.24219,0.43555c-0.06468,0.15098 -0.14713,0.29066 -0.24414,0.41992c-0.08625,0.12951 -0.20456,0.23805 -0.35547,0.32422c-0.1509,0.08617 -0.36622,0.12891 -0.64648,0.12891c-0.2587,0 -0.48567,-0.0641 -0.67969,-0.19336c-0.18325,-0.14012 -0.27344,-0.38844 -0.27344,-0.74414c0,-0.34495 0.08534,-0.6621 0.25782,-0.95313c0.17246,-0.291 0.42077,-0.53929 0.74414,-0.74414c0.32337,-0.21571 0.71619,-0.38353 1.17969,-0.50195c0.46349,-0.11868 0.98628,-0.17774 1.56835,-0.17774c0.54974,0 1.05604,0.04948 1.51954,0.14649zM157.9082,170.69922c0.4635,0.09696 0.86117,0.24632 1.19532,0.45117c0.34494,0.2048 0.60973,0.46475 0.79296,0.77734c0.19402,0.30184 0.29102,0.66847 0.29102,1.09961v5.77149c0,0.31249 -0.10863,0.57728 -0.32422,0.79297c-0.21558,0.21568 -0.47842,0.32226 -0.79101,0.32226c-0.29104,0 -0.54419,-0.09025 -0.75977,-0.27344c-0.2048,-0.19401 -0.32314,-0.43746 -0.35547,-0.72851c-0.4096,0.38808 -0.8422,0.65287 -1.29492,0.79297c-0.45272,0.14009 -0.96387,0.20898 -1.53516,0.20898c-0.36649,0 -0.73796,-0.05231 -1.11523,-0.16015c-0.36649,-0.1077 -0.70209,-0.27065 -1.00391,-0.48633c-0.29102,-0.22637 -0.52768,-0.50084 -0.71093,-0.82422c-0.18324,-0.32335 -0.2754,-0.69969 -0.2754,-1.13086c0,-0.6683 0.14647,-1.19109 0.4375,-1.56836c0.30182,-0.37727 0.6733,-0.66341 1.11524,-0.85742c0.44194,-0.19409 0.91721,-0.33375 1.42383,-0.41992c0.51739,-0.08643 0.99555,-0.1736 1.4375,-0.25977c0.44194,-0.08617 0.80857,-0.20454 1.09961,-0.35547c0.30181,-0.16169 0.45312,-0.41484 0.45312,-0.75976c0,-0.16159 -0.04752,-0.30125 -0.14453,-0.41992c-0.08622,-0.12952 -0.21136,-0.23326 -0.37305,-0.3086c-0.16168,-0.08617 -0.35082,-0.15027 -0.5664,-0.19336c-0.21559,-0.04308 -0.44061,-0.06445 -0.67774,-0.06445c-0.31258,0 -0.55604,0.04273 -0.72851,0.12891c-0.17247,0.08642 -0.31213,0.19495 -0.41993,0.32421c-0.097,0.12929 -0.1775,0.27379 -0.24218,0.43555c-0.06468,0.15098 -0.14518,0.29066 -0.24219,0.41992c-0.08625,0.12951 -0.20456,0.23805 -0.35547,0.32422c-0.15091,0.08617 -0.36818,0.12891 -0.64844,0.12891c-0.2587,0 -0.48371,-0.0641 -0.67773,-0.19336c-0.18323,-0.14012 -0.27539,-0.38844 -0.27539,-0.74414c0,-0.34495 0.08534,-0.6621 0.25781,-0.95313c0.17247,-0.291 0.42077,-0.53929 0.74414,-0.74414c0.32337,-0.21571 0.71814,-0.38353 1.18164,-0.50195c0.4635,-0.11868 0.98629,-0.17774 1.56836,-0.17774c0.54973,0 1.05603,0.04948 1.51953,0.14649zM176.28711,170.69922c0.4635,0.09696 0.86116,0.24632 1.19531,0.45117c0.34494,0.2048 0.60974,0.46475 0.79297,0.77734c0.19402,0.30184 0.29102,0.66847 0.29102,1.09961v5.77149c0,0.31249 -0.10864,0.57728 -0.32422,0.79297c-0.21558,0.21568 -0.47843,0.32226 -0.79102,0.32226c-0.29103,0 -0.54418,-0.09025 -0.75976,-0.27344c-0.2048,-0.19401 -0.32314,-0.43746 -0.35547,-0.72851c-0.40961,0.38808 -0.84221,0.65287 -1.29492,0.79297c-0.45273,0.14009 -0.96387,0.20898 -1.53516,0.20898c-0.36649,0 -0.73797,-0.05231 -1.11524,-0.16015c-0.36648,-0.1077 -0.70209,-0.27065 -1.0039,-0.48633c-0.29102,-0.22637 -0.52768,-0.50084 -0.71094,-0.82422c-0.18323,-0.32335 -0.27344,-0.69969 -0.27344,-1.13086c0,-0.6683 0.14451,-1.19109 0.43555,-1.56836c0.30181,-0.37727 0.67329,-0.66341 1.11523,-0.85742c0.44195,-0.19409 0.91722,-0.33375 1.42383,-0.41992c0.5174,-0.08643 0.99556,-0.1736 1.4375,-0.25977c0.44194,-0.08617 0.80858,-0.20454 1.09961,-0.35547c0.30182,-0.16169 0.45313,-0.41484 0.45313,-0.75976c0,-0.16159 -0.04753,-0.30125 -0.14453,-0.41992c-0.08623,-0.12952 -0.21136,-0.23326 -0.37305,-0.3086c-0.16168,-0.08617 -0.34887,-0.15027 -0.56445,-0.19336c-0.2156,-0.04308 -0.44256,-0.06445 -0.67969,-0.06445c-0.31259,0 -0.55604,0.04273 -0.72852,0.12891c-0.17246,0.08642 -0.31213,0.19495 -0.41992,0.32421c-0.09701,0.12929 -0.17751,0.27379 -0.24219,0.43555c-0.06468,0.15098 -0.14518,0.29066 -0.24218,0.41992c-0.08625,0.12951 -0.20457,0.23805 -0.35547,0.32422c-0.15091,0.08617 -0.36623,0.12891 -0.64649,0.12891h-0.00195c-0.2587,0 -0.48372,-0.0641 -0.67773,-0.19336c-0.18324,-0.14012 -0.2754,-0.38844 -0.2754,-0.74414c0,-0.34495 0.0873,-0.6621 0.25977,-0.95313c0.17247,-0.291 0.41882,-0.53929 0.74219,-0.74414c0.32337,-0.21571 0.71814,-0.38353 1.18164,-0.50195c0.4635,-0.11868 0.98629,-0.17774 1.56836,-0.17774c0.54973,0 1.05603,0.04948 1.51953,0.14649zM184.89648,170.79492c0.45272,0.15101 0.83389,0.34014 1.14649,0.56641c0.32336,0.22634 0.57167,0.47466 0.74414,0.74414c0.18326,0.2588 0.27539,0.50029 0.27539,0.72656c0,0.14002 -0.03298,0.27 -0.09766,0.38867c-0.06468,0.11868 -0.15002,0.22047 -0.25781,0.30664c-0.09701,0.07534 -0.21048,0.14139 -0.33984,0.19532c-0.11855,0.04308 -0.23689,0.06445 -0.35547,0.06445c-0.12934,0 -0.25447,-0.02811 -0.37305,-0.08203c-0.11857,-0.06476 -0.20391,-0.17134 -0.25781,-0.32227c-0.08625,-0.20485 -0.20457,-0.37748 -0.35547,-0.51758c-0.14014,-0.14009 -0.30114,-0.25367 -0.48437,-0.33984c-0.17247,-0.09701 -0.36161,-0.16785 -0.56641,-0.21094c-0.19403,-0.04308 -0.38802,-0.06445 -0.58203,-0.06445c-0.42039,0 -0.77053,0.07563 -1.05078,0.22656c-0.28026,0.14015 -0.42188,0.3671 -0.42188,0.67969c0,0.25872 0.13482,0.45756 0.4043,0.59766c0.28026,0.14009 0.62555,0.2652 1.03516,0.37304c0.4096,0.09726 0.85189,0.20384 1.32617,0.32227c0.47427,0.10779 0.91656,0.25911 1.32617,0.45312c0.4096,0.18326 0.7481,0.43155 1.01758,0.74414c0.28025,0.30181 0.42187,0.70626 0.42187,1.2129c0,0.53893 -0.10379,1.01227 -0.30859,1.42187c-0.19403,0.39884 -0.46367,0.73929 -0.8086,1.01953c-0.33415,0.26953 -0.73181,0.47319 -1.19531,0.61328c-0.45272,0.1401 -0.93768,0.21094 -1.45508,0.21094c-0.65752,0 -1.23947,-0.09221 -1.74609,-0.27539c-0.50662,-0.19402 -0.93241,-0.4307 -1.27734,-0.71094c-0.34495,-0.28026 -0.60974,-0.58771 -0.79297,-0.92187c-0.17247,-0.34492 -0.25781,-0.66208 -0.25781,-0.95313c0,-0.24788 0.11152,-0.44868 0.33789,-0.59961c0.23714,-0.15093 0.49224,-0.22656 0.76171,-0.22656c0.18325,0 0.3491,0.03794 0.5,0.11328c0.15091,0.07534 0.25954,0.19371 0.32422,0.35547c0.18325,0.45271 0.44609,0.81934 0.79102,1.09961c0.34493,0.28026 0.79886,0.41992 1.35937,0.41992c0.18326,0 0.3656,-0.02137 0.54883,-0.06445c0.18326,-0.05392 0.34621,-0.12281 0.48633,-0.20899c0.1509,-0.097 0.26925,-0.21058 0.35547,-0.33984c0.09701,-0.14017 0.14453,-0.30119 0.14453,-0.48438c0,-0.29097 -0.13482,-0.51792 -0.4043,-0.67968c-0.26947,-0.16164 -0.60312,-0.29646 -1.00195,-0.4043c-0.39883,-0.11842 -0.83627,-0.232 -1.31055,-0.33984c-0.47428,-0.11858 -0.90977,-0.27474 -1.30859,-0.46875c-0.39883,-0.19404 -0.73248,-0.44718 -1.00195,-0.75977c-0.26948,-0.31259 -0.4043,-0.73354 -0.4043,-1.26172c0,-0.42038 0.08534,-0.80836 0.25781,-1.16406c0.17247,-0.35568 0.41593,-0.65636 0.72852,-0.9043c0.32337,-0.24796 0.70454,-0.44193 1.14648,-0.58203c0.44194,-0.14009 0.93371,-0.21094 1.47266,-0.21094c0.54973,0 1.05118,0.08043 1.5039,0.24219zM199.61523,171.11914c0.23713,0.22634 0.35743,0.50084 0.35743,0.82422v6.80664c0,0.32348 -0.1203,0.5999 -0.35743,0.82617c-0.22636,0.22627 -0.50084,0.33789 -0.82421,0.33789c-0.32337,0 -0.59785,-0.11162 -0.82422,-0.33789c-0.22637,-0.23715 -0.33985,-0.51358 -0.33985,-0.82617v-6.80664c0,-0.32345 0.11348,-0.59795 0.33985,-0.82422c0.23714,-0.2371 0.51162,-0.35547 0.82422,-0.35547c0.32336,0 0.59785,0.11837 0.82421,0.35547zM114.44531,172.50977c-0.31258,0.16168 -0.58027,0.38866 -0.80664,0.67968c-0.21557,0.28027 -0.38337,0.60906 -0.50195,0.98633c-0.11858,0.36649 -0.17774,0.75446 -0.17774,1.16406c0,0.4096 0.05916,0.80242 0.17774,1.17969c0.11857,0.37727 0.28637,0.70609 0.50195,0.98633c0.22636,0.28014 0.49405,0.50709 0.80664,0.67969c0.31259,0.16176 0.66954,0.24218 1.06836,0.24218c0.39883,0 0.75382,-0.08042 1.06641,-0.24218c0.32337,-0.17248 0.59301,-0.39943 0.80859,-0.67969c0.21558,-0.28024 0.38338,-0.60906 0.50195,-0.98633c0.11858,-0.37727 0.17774,-0.77009 0.17774,-1.17969c0,-0.4096 -0.05916,-0.79757 -0.17774,-1.16406c-0.11856,-0.37727 -0.28636,-0.70606 -0.50195,-0.98633c-0.21558,-0.29094 -0.48522,-0.51792 -0.80859,-0.67968c-0.31259,-0.17235 -0.66758,-0.25782 -1.06641,-0.25782c-0.39882,0 -0.75577,0.08547 -1.06836,0.25782zM62.86328,177.78125h3.37891c0.24791,0 0.47973,-0.04948 0.69531,-0.14648c0.22636,-0.09694 0.42034,-0.22691 0.58203,-0.38868c0.16169,-0.16158 0.29166,-0.34876 0.38867,-0.56445c0.09701,-0.21556 0.14453,-0.44737 0.14453,-0.69531c0,-0.24806 -0.04752,-0.47988 -0.14453,-0.69531c-0.09701,-0.2263 -0.22698,-0.42027 -0.38867,-0.58204c-0.16168,-0.16168 -0.35566,-0.29166 -0.58203,-0.38867c-0.21559,-0.09701 -0.4474,-0.14453 -0.69531,-0.14453h-3.37891zM138.94922,175.64648c-0.37727,0.11843 -0.88841,0.2368 -1.53516,0.35547c-0.78687,0.14015 -1.17968,0.51162 -1.17968,1.11524c0,0.15095 0.02134,0.2974 0.06445,0.4375c0.05389,0.14002 0.13923,0.26804 0.25781,0.38672c0.11858,0.10759 0.27473,0.19501 0.46875,0.25976c0.2048,0.06476 0.45311,0.09571 0.74414,0.09571c0.24793,0 0.49623,-0.02616 0.74414,-0.08008c0.25871,-0.06451 0.48567,-0.14997 0.67969,-0.25782c0.20479,-0.1185 0.3658,-0.26011 0.48437,-0.42187c0.12937,-0.17237 0.19336,-0.36635 0.19336,-0.58203v-1.56836c-0.22635,0.05392 -0.53382,0.14109 -0.92187,0.25976zM157.03516,175.64648c-0.37727,0.11843 -0.89037,0.2368 -1.53711,0.35547c-0.78687,0.14015 -1.17969,0.51162 -1.17969,1.11524c0,0.15095 0.02134,0.2974 0.06445,0.4375c0.0539,0.14002 0.13924,0.26804 0.25781,0.38672c0.11858,0.10759 0.27669,0.19501 0.47071,0.25976c0.2048,0.06476 0.45115,0.09571 0.74219,0.09571c0.24792,0 0.49622,-0.02616 0.74414,-0.08008c0.2587,-0.06451 0.48567,-0.14997 0.67968,-0.25782c0.2048,-0.1185 0.3658,-0.26011 0.48438,-0.42187c0.12936,-0.17237 0.19531,-0.36635 0.19531,-0.58203v-1.56836c-0.22636,0.05392 -0.53383,0.14109 -0.92187,0.25976zM175.41406,175.64648c-0.37726,0.11843 -0.89036,0.2368 -1.53711,0.35547c-0.78687,0.14015 -1.17968,0.51162 -1.17968,1.11524c0,0.15095 0.02134,0.2974 0.06445,0.4375c0.05389,0.14002 0.14119,0.26804 0.25976,0.38672c0.11858,0.10759 0.27474,0.19501 0.46875,0.25976c0.20481,0.06476 0.45116,0.09571 0.74219,0.09571c0.24793,0 0.49623,-0.02616 0.74414,-0.08008c0.25871,-0.06451 0.48567,-0.14997 0.67969,-0.25782c0.20479,-0.1185 0.3658,-0.26011 0.48437,-0.42187c0.12937,-0.17237 0.19532,-0.36635 0.19532,-0.58203v-1.56836c-0.22636,0.05392 -0.53383,0.14109 -0.92188,0.25976z" fill="#1eff00" stroke="none" stroke-width="1.01053" stroke-miterlimit="10" stroke-dashoffset="0"/></g></g></svg>