<svg version="1.1" xmlns="http://www.w3.org/2000/svg" xmlns:xlink="http://www.w3.org/1999/xlink" width="372.21484" height="68.64258"><g transform="translate(-53.89258,-145.67871)"><g data-paper-data="{&quot;isPaintingLayer&quot;:true}" fill-rule="nonzero" stroke-linecap="butt" stroke-linejoin="miter" stroke-dasharray="" style="mix-blend-mode: normal"><path d="M183.78812,187.56426c1.27594,0 2.33407,4.30813 3.36633,5.05814c1.03226,0.74997 5.45651,0.42501 5.8508,1.6385c0.39429,1.21349 -3.37601,3.55113 -3.77029,4.76462c-0.39429,1.21349 1.28192,5.32078 0.24968,6.07075c-1.03226,0.74997 -4.42056,-2.1134 -5.6965,-2.1134c-1.27594,0 -4.66424,2.86337 -5.6965,2.1134c-1.03226,-0.74997 0.64395,-4.85726 0.24968,-6.07075c-0.39429,-1.21349 -4.16458,-3.55113 -3.77029,-4.76462c0.39428,-1.21349 4.81854,-0.88853 5.8508,-1.6385c1.03226,-0.75001 2.09039,-5.05814 3.36633,-5.05814z" data-paper-data="{&quot;origPos&quot;:null}" id="path1428-0-7-9-64" fill="#1eff00" stroke="none" stroke-width="0.88188" stroke-miterlimit="4" stroke-dashoffset="17.35"/><path d="M425.00976,146.42871c0.19313,0 0.34766,0.15452 0.34766,0.34766v66.44531c0,0.19313 -0.15453,0.34961 -0.34766,0.34961h-370.01757c-0.19328,0 -0.34961,-0.15648 -0.34961,-0.34961v-66.44531c0,-0.19314 0.15637,-0.34766 0.34961,-0.34766z" data-paper-data="{&quot;origPos&quot;:null}" id="rect815-0-7" fill="#1e1e1e" stroke="#1eff00" stroke-width="1.5" stroke-miterlimit="4" stroke-dashoffset="17.35"/><path d="M64.91406,151.59863c0.62933,0 1.25738,0.1069 1.88672,0.32032c0.62933,0.21334 1.19593,0.57092 1.69726,1.07226c0.50133,0.49066 0.90551,1.14247 1.21484,1.95313c0.30933,0.8 0.46484,1.78564 0.46484,2.95898c0,1.184 -0.15551,2.18153 -0.46484,2.99219c-0.30933,0.8 -0.71351,1.44983 -1.21484,1.95117c-0.50133,0.49058 -1.06793,0.84322 -1.69726,1.05664c-0.62933,0.21342 -1.25739,0.32031 -1.88672,0.32031h-3.79297c-0.16,0 -0.31356,-0.02666 -0.46289,-0.08007c-0.14933,-0.064 -0.28306,-0.14928 -0.40039,-0.25586c-0.11733,-0.10669 -0.2144,-0.24039 -0.28906,-0.40039c-0.07466,-0.16 -0.11133,-0.33535 -0.11133,-0.52735v-10.11328c0,-0.34127 0.12185,-0.63349 0.36719,-0.87891c0.24533,-0.24541 0.54448,-0.36914 0.89648,-0.36914zM81.98437,151.83887c0.16,0.16007 0.24023,0.35721 0.24023,0.5918v3.79296c0.05332,-0.064 0.13852,-0.1661 0.25586,-0.30468c0.12799,-0.13876 0.29838,-0.27744 0.51172,-0.41602c0.21333,-0.14942 0.48078,-0.27623 0.80078,-0.38281c0.32,-0.10658 0.69939,-0.16016 1.13672,-0.16016c0.576,0 1.09707,0.11194 1.56641,0.33594c0.46933,0.224 0.87051,0.54298 1.20117,0.95898c0.34132,0.40532 0.60186,0.89666 0.7832,1.47266c0.18134,0.56534 0.27148,1.19039 0.27148,1.87305c0,0.68268 -0.10008,1.30577 -0.30273,1.87109c-0.20267,0.56534 -0.48003,1.05666 -0.83203,1.47266c-0.34133,0.40534 -0.74746,0.71936 -1.2168,0.94336c-0.45867,0.224 -0.94803,0.33593 -1.4707,0.33593c-0.31999,0 -0.60427,-0.01682 -0.84961,-0.04882c-0.24534,-0.032 -0.46922,-0.08362 -0.67187,-0.15821c-0.20267,-0.08541 -0.3998,-0.19231 -0.5918,-0.32031c-0.18132,-0.12792 -0.37846,-0.28343 -0.5918,-0.46484v0.14453c0,0.23476 -0.08023,0.43684 -0.24023,0.60742c-0.16001,0.16 -0.35714,0.24023 -0.5918,0.24023c-0.23467,0 -0.43676,-0.08023 -0.60742,-0.24023c-0.16,-0.17076 -0.24023,-0.37284 -0.24023,-0.60742v-10.94531c0,-0.23466 0.08023,-0.4318 0.24023,-0.5918c0.17068,-0.16 0.37276,-0.24024 0.60742,-0.24024c0.23467,0 0.4318,0.08024 0.5918,0.24024zM117.19531,151.59863c0.62933,0 1.25738,0.1069 1.88672,0.32032c0.62933,0.21334 1.19593,0.57092 1.69726,1.07226c0.50133,0.49066 0.90551,1.14247 1.21484,1.95313c0.30933,0.8 0.46484,1.78564 0.46484,2.95898c0,1.184 -0.15551,2.18153 -0.46484,2.99219c-0.30933,0.8 -0.71351,1.44983 -1.21484,1.95117c-0.50133,0.49058 -1.06793,0.84322 -1.69726,1.05664c-0.62933,0.21342 -1.25738,0.32031 -1.88672,0.32031h-3.79297c-0.15999,0 -0.3155,-0.02666 -0.46484,-0.08007c-0.14932,-0.064 -0.28109,-0.14928 -0.39844,-0.25586c-0.11734,-0.10669 -0.2144,-0.24039 -0.28906,-0.40039c-0.07466,-0.16 -0.11133,-0.33535 -0.11133,-0.52735v-10.11328c0,-0.34127 0.12185,-0.63349 0.36719,-0.87891c0.24533,-0.24541 0.54448,-0.36914 0.89648,-0.36914zM61.74609,162.54395h2.79883c0.62933,0 1.1791,-0.1069 1.64844,-0.32032c0.46933,-0.224 0.85863,-0.53307 1.16797,-0.92773c0.30933,-0.40534 0.53817,-0.89169 0.6875,-1.45703c0.14933,-0.576 0.22461,-1.22089 0.22461,-1.93555c0,-0.704 -0.07527,-1.33895 -0.22461,-1.9043c-0.14933,-0.576 -0.37817,-1.06042 -0.6875,-1.45507c-0.30933,-0.40524 -0.69863,-0.71432 -1.16797,-0.92774c-0.46933,-0.224 -1.0191,-0.33594 -1.64844,-0.33594h-2.79883zM114.02734,162.54395h2.79883c0.62933,0 1.1791,-0.1069 1.64844,-0.32032c0.46933,-0.224 0.85864,-0.53307 1.16797,-0.92773c0.30933,-0.40534 0.53816,-0.89169 0.6875,-1.45703c0.14934,-0.576 0.22461,-1.22089 0.22461,-1.93555c0,-0.704 -0.07527,-1.33895 -0.22461,-1.9043c-0.14933,-0.576 -0.37816,-1.06042 -0.6875,-1.45507c-0.30933,-0.40524 -0.69863,-0.71432 -1.16797,-0.92774c-0.46933,-0.224 -1.01911,-0.33594 -1.64844,-0.33594h-2.79883zM76.84766,155.12012c0.53333,0.18134 0.99295,0.44683 1.37695,0.79883c0.39467,0.34131 0.70373,0.76428 0.92773,1.26562c0.224,0.50134 0.33594,1.07094 0.33594,1.71094c0,0.39473 -0.09511,0.6939 -0.28711,0.89648c-0.192,0.20259 -0.41783,0.30274 -0.67383,0.30274l-5.85547,0.00195c0,0.02142 0.00504,0.11148 0.01562,0.27149c0.02132,0.14926 0.05994,0.3315 0.11328,0.54492c0.064,0.21324 0.1492,0.44208 0.25586,0.6875c0.11733,0.23476 0.27089,0.45366 0.46289,0.65625c0.192,0.20273 0.42775,0.37313 0.70508,0.51172c0.288,0.128 0.63373,0.1914 1.03906,0.1914c0.33068,0 0.613,-0.02666 0.84766,-0.08008c0.23466,-0.05341 0.44366,-0.13365 0.625,-0.24023c0.18132,-0.10668 0.34675,-0.24039 0.49609,-0.40039c0.14932,-0.17066 0.29792,-0.3678 0.44727,-0.5918c0.08534,-0.128 0.1824,-0.21807 0.28906,-0.27148c0.10666,-0.05342 0.2186,-0.08008 0.33594,-0.08008c0.192,0 0.36734,0.06845 0.52734,0.20703c0.16,0.13858 0.24023,0.31588 0.24023,0.5293c0,0.128 -0.07033,0.32017 -0.20898,0.57617c-0.13867,0.256 -0.36254,0.51158 -0.67187,0.76758c-0.29867,0.256 -0.68797,0.47987 -1.16797,0.67187c-0.48,0.192 -1.06643,0.28711 -1.75977,0.28711c-0.704,0 -1.33205,-0.12681 -1.88672,-0.38281c-0.55467,-0.256 -1.0242,-0.59873 -1.4082,-1.02539c-0.37333,-0.43734 -0.66257,-0.94353 -0.86523,-1.51953c-0.192,-0.576 -0.28711,-1.1773 -0.28711,-1.80664c0,-0.65066 0.10202,-1.2658 0.30469,-1.8418c0.20267,-0.58666 0.48995,-1.09285 0.86328,-1.51953c0.384,-0.42658 0.84167,-0.7624 1.375,-1.00781c0.53333,-0.256 1.13163,-0.38477 1.79297,-0.38477c0.608,0 1.17265,0.09202 1.69531,0.27344zM129.89844,155.50293c0.65067,0.42666 0.97461,1.06161 0.97461,1.9043v5.96875c0,0.23476 -0.08023,0.43684 -0.24023,0.60742c-0.16001,0.16 -0.35714,0.24023 -0.5918,0.24023c-0.23468,0 -0.43676,-0.08023 -0.60742,-0.24023c-0.16,-0.17076 -0.24023,-0.37284 -0.24023,-0.60742v-0.25586c-0.40533,0.43724 -0.86991,0.72949 -1.39258,0.8789c-0.512,0.14942 -1.05486,0.22461 -1.63086,0.22461c-0.36267,0 -0.73018,-0.04853 -1.10351,-0.14453c-0.36267,-0.10658 -0.69352,-0.2651 -0.99219,-0.47851c-0.28799,-0.21334 -0.52374,-0.48078 -0.70508,-0.80078c-0.18134,-0.32 -0.27148,-0.70435 -0.27148,-1.15235c0,-0.512 0.10203,-0.93795 0.30469,-1.27929c0.20267,-0.352 0.47312,-0.64124 0.81445,-0.86524c0.34133,-0.2239 0.73063,-0.3943 1.16797,-0.51172c0.448,-0.11716 0.91754,-0.20244 1.4082,-0.25586c0.56533,-0.064 1.00812,-0.13245 1.32812,-0.20703c0.32,-0.08542 0.5607,-0.18248 0.7207,-0.28906c0.16,-0.10684 0.25511,-0.22861 0.28711,-0.36719c0.04266,-0.13873 0.06445,-0.29426 0.06445,-0.46484c0,-0.20259 -0.05844,-0.37793 -0.17578,-0.52735c-0.11733,-0.14941 -0.26592,-0.27118 -0.44726,-0.36718c-0.18133,-0.096 -0.38537,-0.16641 -0.60937,-0.20899c-0.22399,-0.05342 -0.44291,-0.08008 -0.65625,-0.08008c-0.38401,0 -0.69308,0.03171 -0.92773,0.09571c-0.23466,0.064 -0.42683,0.14927 -0.57617,0.25586c-0.14934,0.10658 -0.27119,0.23534 -0.36719,0.38476c-0.08534,0.14934 -0.16558,0.30289 -0.24023,0.46289c-0.064,0.128 -0.15414,0.22506 -0.27148,0.28906c-0.10666,0.05342 -0.21859,0.08008 -0.33594,0.08008c-0.21332,0 -0.41045,-0.0704 -0.5918,-0.20898c-0.18134,-0.13858 -0.27344,-0.33076 -0.27344,-0.57617c0,-0.096 0.02674,-0.21298 0.08008,-0.35157c0.096,-0.22392 0.22476,-0.44283 0.38476,-0.65625c0.16,-0.22407 0.37396,-0.42121 0.64062,-0.59179c0.27733,-0.17066 0.61315,-0.30439 1.00781,-0.40039c0.40533,-0.10659 0.8947,-0.16016 1.4707,-0.16016c1.088,0 1.95375,0.21891 2.59375,0.65625zM146.64649,155.13379c0.46933,0.18134 0.85367,0.40025 1.15234,0.65625c0.30933,0.256 0.53816,0.52344 0.6875,0.80078c0.14934,0.27732 0.22461,0.51113 0.22461,0.70313c0,0.24541 -0.0852,0.43759 -0.25586,0.57617c-0.17066,0.128 -0.36283,0.19336 -0.57617,0.19336c-0.14933,0 -0.28802,-0.0387 -0.41602,-0.11328c-0.12799,-0.07459 -0.22009,-0.2014 -0.27343,-0.38282c-0.05334,-0.17065 -0.14349,-0.33609 -0.27149,-0.49609c-0.11733,-0.16 -0.27089,-0.30364 -0.46289,-0.43164c-0.18133,-0.128 -0.40025,-0.23011 -0.65625,-0.30469c-0.24533,-0.07458 -0.51774,-0.11133 -0.8164,-0.11133c-0.33067,0 -0.66152,0.06341 -0.99219,0.19141c-0.32,0.11734 -0.61419,0.30951 -0.88086,0.57617c-0.256,0.26666 -0.46305,0.6193 -0.62305,1.05664c-0.16,0.42666 -0.24023,0.94278 -0.24023,1.55078c0,0.608 0.08023,1.12605 0.24023,1.55274c0.16,0.42666 0.36705,0.7724 0.62305,1.03906c0.26667,0.26668 0.56086,0.4638 0.88086,0.5918c0.33067,0.11741 0.66152,0.17773 0.99219,0.17773c0.29865,0 0.57106,-0.0387 0.8164,-0.11328c0.25599,-0.07458 0.47491,-0.17473 0.65625,-0.30273c0.19199,-0.128 0.34555,-0.27164 0.46289,-0.43164c0.128,-0.16011 0.21815,-0.32552 0.27149,-0.4961c0.05334,-0.18142 0.14544,-0.31018 0.27343,-0.38476c0.12799,-0.07459 0.26668,-0.11133 0.41602,-0.11133c0.21334,0 0.40551,0.06845 0.57617,0.20703c0.18134,0.1281 0.27149,0.31034 0.27149,0.54492c0,0.11732 -0.0535,0.31446 -0.16016,0.5918c-0.10667,0.26666 -0.29884,0.53906 -0.57617,0.8164c-0.27734,0.27725 -0.66168,0.52096 -1.15235,0.73438c-0.48,0.21342 -1.09813,0.32031 -1.85546,0.32031c-0.62934,0 -1.21577,-0.11194 -1.75977,-0.33594c-0.53333,-0.23465 -0.99791,-0.56056 -1.39258,-0.97656c-0.39466,-0.416 -0.70373,-0.91228 -0.92773,-1.48828c-0.224,-0.58668 -0.33594,-1.23155 -0.33594,-1.93555c0,-0.71465 0.11194,-1.35954 0.33594,-1.93554c0.224,-0.58666 0.53307,-1.08791 0.92773,-1.50391c0.39467,-0.416 0.85925,-0.73694 1.39258,-0.96094c0.544,-0.23458 1.13043,-0.35156 1.75977,-0.35156c0.64,0 1.19472,0.09511 1.66406,0.28711zM155.41016,155.12012c0.53333,0.18134 0.99295,0.44683 1.37695,0.79883c0.39467,0.34131 0.70374,0.76428 0.92774,1.26562c0.224,0.50134 0.33594,1.07094 0.33594,1.71094c0,0.39473 -0.09511,0.6939 -0.28711,0.89648c-0.192,0.20259 -0.41783,0.30274 -0.67383,0.30274l-5.85547,0.00195c0,0.02142 0.00504,0.11148 0.01562,0.27149c0.02132,0.14926 0.05994,0.3315 0.11329,0.54492c0.064,0.21324 0.1492,0.44208 0.25586,0.6875c0.11733,0.23476 0.27089,0.45366 0.46289,0.65625c0.192,0.20273 0.42774,0.37313 0.70507,0.51172c0.288,0.128 0.63373,0.1914 1.03907,0.1914c0.33067,0 0.61299,-0.02666 0.84765,-0.08008c0.23466,-0.05341 0.44366,-0.13365 0.625,-0.24023c0.18133,-0.10668 0.34675,-0.24039 0.4961,-0.40039c0.14932,-0.17066 0.29792,-0.3678 0.44726,-0.5918c0.08534,-0.128 0.18241,-0.21807 0.28906,-0.27148c0.10666,-0.05342 0.2186,-0.08008 0.33594,-0.08008c0.192,0 0.36735,0.06845 0.52735,0.20703c0.16,0.13858 0.24023,0.31588 0.24023,0.5293c0,0.128 -0.07033,0.32017 -0.20898,0.57617c-0.13867,0.256 -0.36255,0.51158 -0.67188,0.76758c-0.29867,0.256 -0.68797,0.47987 -1.16797,0.67187c-0.48,0.192 -1.06643,0.28711 -1.75976,0.28711c-0.704,0 -1.33206,-0.12681 -1.88672,-0.38281c-0.55467,-0.256 -1.02421,-0.59873 -1.40821,-1.02539c-0.37334,-0.43734 -0.66257,-0.94353 -0.86523,-1.51953c-0.192,-0.576 -0.28711,-1.1773 -0.28711,-1.80664c0,-0.65066 0.10203,-1.2658 0.30469,-1.8418c0.20266,-0.58666 0.48995,-1.09285 0.86328,-1.51953c0.384,-0.42658 0.84167,-0.7624 1.375,-1.00781c0.53333,-0.256 1.13163,-0.38477 1.79297,-0.38477c0.608,0 1.17264,0.09202 1.69531,0.27344zM91.12305,155.21582c0.16,0.16008 0.24023,0.35722 0.24023,0.5918v5.56836c0,0.24526 0.0535,0.45921 0.16016,0.64062c0.11734,0.18132 0.26098,0.33489 0.43164,0.46289c0.18132,0.11742 0.37846,0.20944 0.5918,0.27344c0.22399,0.064 0.44291,0.0957 0.65625,0.0957c0.352,0 0.67098,-0.06031 0.95898,-0.17773c0.288,-0.1279 0.5287,-0.2983 0.7207,-0.51172c0.20268,-0.21334 0.35818,-0.46395 0.46484,-0.75195c0.10666,-0.29866 0.1582,-0.61765 0.1582,-0.95899v-4.64062c0,-0.23466 0.08023,-0.4318 0.24023,-0.5918c0.16001,-0.17058 0.35714,-0.25586 0.5918,-0.25586c0.23467,0 0.43375,0.08528 0.59375,0.25586c0.17066,0.16008 0.25586,0.35722 0.25586,0.5918v7.56836c0,0.23476 -0.0852,0.43684 -0.25586,0.60742c-0.16001,0.16 -0.35909,0.24023 -0.59375,0.24023c-0.23467,0 -0.4318,-0.08023 -0.5918,-0.24023c-0.16,-0.17076 -0.24023,-0.37284 -0.24023,-0.60742v-0.28907c-0.10667,0.09601 -0.23844,0.21494 -0.39844,0.35352c-0.14933,0.128 -0.33655,0.24977 -0.56055,0.36719c-0.224,0.11716 -0.48454,0.21927 -0.7832,0.30469c-0.288,0.07458 -0.62576,0.11132 -1.00976,0.11132c-0.39467,0 -0.77706,-0.05357 -1.15039,-0.16015c-0.36267,-0.11732 -0.68856,-0.28772 -0.97656,-0.51172c-0.28801,-0.224 -0.51684,-0.50135 -0.6875,-0.83203c-0.17066,-0.33066 -0.25586,-0.715 -0.25586,-1.15235v-5.75976c0,-0.23466 0.07828,-0.4318 0.23828,-0.5918c0.17067,-0.17058 0.37472,-0.25586 0.60937,-0.25586c0.23467,0 0.4318,0.08528 0.5918,0.25586zM103.71289,155.2627c0.45867,0.20265 0.84301,0.43345 1.15234,0.68945v-0.14453c0,-0.23466 0.08023,-0.4318 0.24023,-0.5918c0.16001,-0.17058 0.35714,-0.25586 0.5918,-0.25586c0.23467,0 0.4318,0.08528 0.5918,0.25586c0.17066,0.16008 0.25586,0.35722 0.25586,0.5918v8.20898c0,0.53334 -0.11194,1.01774 -0.33594,1.45508c-0.21333,0.43732 -0.50753,0.81175 -0.88086,1.12109c-0.37333,0.32008 -0.80921,0.5638 -1.31055,0.73438c-0.50133,0.18142 -1.04119,0.27344 -1.61719,0.27344c-0.62933,0 -1.16723,-0.08024 -1.61523,-0.24024c-0.448,-0.14924 -0.82243,-0.3315 -1.12109,-0.54492c-0.29868,-0.20268 -0.51759,-0.41467 -0.65625,-0.63867c-0.13866,-0.21332 -0.20703,-0.38372 -0.20703,-0.51172c0,-0.21334 0.06837,-0.40055 0.20703,-0.56055c0.13867,-0.16 0.30409,-0.24023 0.49609,-0.24023c0.192,0 0.38417,0.1021 0.57617,0.30469c0.13867,0.15992 0.27736,0.29859 0.41602,0.41601c0.13868,0.128 0.29419,0.23294 0.46484,0.31836c0.18133,0.08542 0.38342,0.15078 0.60742,0.19336c0.23467,0.04258 0.51203,0.0625 0.83203,0.0625c0.34133,0 0.66227,-0.04154 0.96094,-0.12695c0.29867,-0.07459 0.5592,-0.20335 0.7832,-0.38477c0.224,-0.17066 0.39934,-0.39453 0.52734,-0.67187c0.128,-0.26666 0.19336,-0.58565 0.19336,-0.95899v-1.05664c-0.10667,0.11727 -0.24039,0.25098 -0.40039,0.40039c-0.16,0.13866 -0.35217,0.27239 -0.57617,0.40039c-0.224,0.128 -0.48453,0.23994 -0.7832,0.33594c-0.29867,0.08542 -0.64635,0.12695 -1.04101,0.12695c-0.576,0 -1.10894,-0.09006 -1.59961,-0.27148c-0.48,-0.18134 -0.89605,-0.45872 -1.24805,-0.83203c-0.34133,-0.37334 -0.60878,-0.8528 -0.80078,-1.43945c-0.192,-0.58669 -0.28711,-1.28008 -0.28711,-2.08008c0,-0.81066 0.10697,-1.50408 0.32031,-2.08008c0.21333,-0.58666 0.49566,-1.06807 0.84766,-1.44141c0.36267,-0.38392 0.77872,-0.66624 1.24805,-0.84765c0.48,-0.18142 0.9862,-0.27149 1.51953,-0.27149c0.65066,0 1.20044,0.10015 1.64844,0.30274zM133.56055,155.21582c0.16,0.16008 0.24024,0.35722 0.24024,0.5918v0.28906c0.10665,-0.096 0.23347,-0.20989 0.38281,-0.33789c0.16,-0.13858 0.35217,-0.2654 0.57617,-0.38281c0.224,-0.11742 0.47958,-0.21448 0.76758,-0.28907c0.29866,-0.08541 0.64139,-0.12695 1.02539,-0.12695c0.39467,0 0.7721,0.05837 1.13476,0.17578c0.37334,0.10669 0.70419,0.2721 0.99219,0.4961c0.28801,0.224 0.5188,0.50137 0.68946,0.83203c0.17065,0.33066 0.25585,0.715 0.25585,1.15234v5.75977c0,0.23476 -0.0852,0.43684 -0.25585,0.60742c-0.16001,0.16 -0.3591,0.24023 -0.59376,0.24023c-0.23466,0 -0.43179,-0.08023 -0.59179,-0.24023c-0.16,-0.17076 -0.24024,-0.37284 -0.24024,-0.60742v-5.56836c0,-0.23458 -0.05844,-0.44163 -0.17578,-0.62305c-0.10666,-0.19192 -0.2503,-0.34743 -0.43164,-0.46484c-0.17067,-0.128 -0.36779,-0.22311 -0.59179,-0.28711c-0.21333,-0.064 -0.42729,-0.09766 -0.64063,-0.09766c-0.352,0 -0.67098,0.06536 -0.95898,0.19336c-0.28801,0.11727 -0.53367,0.28268 -0.73633,0.49609c-0.19201,0.21332 -0.34061,0.4689 -0.44727,0.76758c-0.10666,0.288 -0.16015,0.60205 -0.16015,0.94336v4.64063c0,0.23476 -0.08024,0.43684 -0.24024,0.60742c-0.16001,0.16 -0.35714,0.24023 -0.5918,0.24023c-0.23468,0 -0.43872,-0.08023 -0.60937,-0.24023c-0.16,-0.17076 -0.23828,-0.37284 -0.23828,-0.60742v-7.56836c0,-0.23466 0.07828,-0.4318 0.23828,-0.5918c0.17068,-0.17058 0.37472,-0.25586 0.60937,-0.25586c0.23467,0 0.4318,0.08528 0.5918,0.25586zM74.17578,156.39941c-0.27733,0.11725 -0.51112,0.26585 -0.70312,0.44727c-0.18134,0.17058 -0.32498,0.36276 -0.43164,0.57617c-0.10666,0.21324 -0.18689,0.41038 -0.24023,0.5918c-0.05342,0.18142 -0.08707,0.34189 -0.09766,0.48047c-0.01058,0.12926 -0.01562,0.20445 -0.01562,0.22461h5.18555c0,-0.33066 -0.0535,-0.64468 -0.16016,-0.94336c-0.10667,-0.29866 -0.27209,-0.56116 -0.49609,-0.78516c-0.21333,-0.23476 -0.4907,-0.42196 -0.83203,-0.56054c-0.34133,-0.13859 -0.7425,-0.20704 -1.20117,-0.20704c-0.39467,0 -0.73048,0.05837 -1.00781,0.17578zM152.73829,156.39941c-0.27734,0.11725 -0.51113,0.26585 -0.70313,0.44727c-0.18134,0.17058 -0.32498,0.36276 -0.43164,0.57617c-0.10666,0.21324 -0.18689,0.41038 -0.24023,0.5918c-0.05342,0.18142 -0.08708,0.34189 -0.09766,0.48047c-0.01058,0.12926 -0.01563,0.20445 -0.01563,0.22461h5.18555c0,-0.33066 -0.0535,-0.64468 -0.16016,-0.94336c-0.10666,-0.29866 -0.27209,-0.56116 -0.49609,-0.78516c-0.21333,-0.23476 -0.4907,-0.42196 -0.83203,-0.56054c-0.34133,-0.13859 -0.7425,-0.20704 -1.20117,-0.20704c-0.39467,0 -0.73048,0.05837 -1.00781,0.17578zM83.56836,156.6084c-0.30932,0.18134 -0.56986,0.42506 -0.7832,0.73437c-0.21332,0.29869 -0.37875,0.64636 -0.49609,1.04102c-0.10666,0.384 -0.16016,0.79014 -0.16016,1.2168c0,0.416 0.0535,0.82016 0.16016,1.21484c0.11732,0.39466 0.28275,0.74236 0.49609,1.04102c0.21333,0.29858 0.47387,0.53733 0.7832,0.71875c0.32,0.18141 0.68256,0.27343 1.08789,0.27343c0.39467,0 0.74731,-0.09202 1.05664,-0.27343c0.31999,-0.18132 0.58744,-0.42007 0.80078,-0.71875c0.22401,-0.29866 0.38748,-0.64636 0.49414,-1.04102c0.11734,-0.39468 0.17773,-0.79884 0.17773,-1.21484c0,-0.42666 -0.06039,-0.8328 -0.17773,-1.2168c-0.10667,-0.39466 -0.27014,-0.74233 -0.49414,-1.04102c-0.21333,-0.30924 -0.48078,-0.55295 -0.80078,-0.73437c-0.30933,-0.18142 -0.66197,-0.27344 -1.05664,-0.27344c-0.40533,0 -0.76789,0.09202 -1.08789,0.27344zM100.40039,157.16699c-0.46933,0.55466 -0.70312,1.36694 -0.70312,2.4336c0,1.06668 0.23379,1.87698 0.70312,2.43164c0.46933,0.544 1.11421,0.81445 1.93555,0.81445c0.82133,0 1.46126,-0.27045 1.91992,-0.81445c0.46933,-0.55466 0.70508,-1.36496 0.70508,-2.43164c0,-1.06666 -0.23574,-1.87894 -0.70508,-2.4336c-0.45867,-0.55468 -1.09859,-0.83203 -1.91992,-0.83203c-0.82133,0 -1.46621,0.27735 -1.93555,0.83203zM128.79297,159.74317c-0.20267,0.06399 -0.44142,0.11253 -0.71875,0.14453c-0.26667,0.032 -0.55094,0.06874 -0.84961,0.11132c-0.288,0.04259 -0.57032,0.09616 -0.84766,0.16016c-0.27733,0.064 -0.52795,0.16106 -0.75195,0.28906c-0.22401,0.11734 -0.40431,0.27089 -0.54297,0.46289c-0.128,0.192 -0.19336,0.43767 -0.19336,0.73633c0,0.23466 0.04853,0.4318 0.14453,0.5918c0.10666,0.14942 0.24039,0.27314 0.40039,0.36914c0.16001,0.08542 0.34031,0.14882 0.54297,0.19141c0.20268,0.032 0.40672,0.04687 0.60937,0.04687c0.30933,0 0.6184,-0.0317 0.92773,-0.0957c0.30933,-0.07459 0.58669,-0.19156 0.83203,-0.35157c0.25599,-0.15999 0.45808,-0.37394 0.60742,-0.64062c0.16,-0.26666 0.24023,-0.59558 0.24023,-0.99023v-1.13672zM122.32812,169.29004c0.63028,0.31985 1.15676,0.74894 1.58008,1.28516c0.42332,0.53619 0.74457,1.15151 0.96094,1.84765c0.21636,0.68672 0.32422,1.40138 0.32422,2.14453c0,0.75258 -0.10785,1.47769 -0.32422,2.17383c-0.21636,0.68672 -0.53762,1.29777 -0.96094,1.83399c-0.42332,0.53619 -0.9498,0.9653 -1.58008,1.28515c-0.63028,0.31985 -1.35967,0.47852 -2.1875,0.47852c-0.83723,0 -1.57089,-0.15867 -2.20117,-0.47852c-0.63028,-0.31985 -1.15676,-0.74896 -1.58008,-1.28515c-0.42332,-0.53622 -0.74262,-1.14727 -0.95898,-1.83399c-0.20697,-0.69614 -0.31055,-1.42125 -0.31055,-2.17383c0,-0.74315 0.10358,-1.45781 0.31055,-2.14453c0.21636,-0.69614 0.53566,-1.31146 0.95898,-1.84765c0.42332,-0.53622 0.9498,-0.96531 1.58008,-1.28516c0.63028,-0.31982 1.36394,-0.47852 2.20117,-0.47852c0.82783,0 1.55722,0.1587 2.1875,0.47852zM61.57813,169.16504c0.17874,0.10358 0.30134,0.25798 0.36719,0.46484l2.25781,7.35157l2.27148,-7.35157c0.06585,-0.20689 0.18419,-0.36128 0.35351,-0.46484c0.17874,-0.10356 0.37543,-0.15625 0.5918,-0.15625c0.16933,0 0.32569,0.03385 0.4668,0.09961c0.1411,0.06576 0.25749,0.15035 0.35156,0.25391c0.10348,0.09398 0.18379,0.20611 0.24023,0.33789c0.05644,0.12245 0.08398,0.24498 0.08398,0.36718c0,0.11289 -0.01901,0.21222 -0.05664,0.29688l-3.23047,8.98828c-0.08466,0.24459 -0.22201,0.43702 -0.41016,0.57813c-0.17874,0.1411 -0.39871,0.21093 -0.66211,0.21093c-0.25399,0 -0.47592,-0.06983 -0.66406,-0.21093c-0.18814,-0.14103 -0.32354,-0.33542 -0.4082,-0.58008l-3.2168,-8.98828c-0.03763,-0.08467 -0.05664,-0.18204 -0.05664,-0.29493c0,-0.11288 0.02328,-0.23131 0.07031,-0.35351c0.04703,-0.13153 0.11686,-0.24801 0.21094,-0.35156c0.09407,-0.10356 0.21241,-0.18815 0.35352,-0.25391c0.14111,-0.06576 0.31026,-0.09961 0.50781,-0.09961c0.21636,0 0.4088,0.05269 0.57812,0.15625zM76.47461,169.00879c0.25398,0 0.46969,0.08893 0.64844,0.26758c0.17875,0.17874 0.26758,0.3964 0.26758,0.65039c0,0.26348 -0.08883,0.48346 -0.26758,0.66211c-0.17874,0.17864 -0.39444,0.26758 -0.64844,0.26758h-4.93945v2.41406h4.14844c0.26339,0 0.48532,0.09303 0.66406,0.28125c0.17875,0.17872 0.26758,0.39641 0.26758,0.65039c0,0.25393 -0.08883,0.47389 -0.26758,0.66211c-0.17873,0.17864 -0.40066,0.26758 -0.66406,0.26758l-4.14844,0.00195v3.16016h4.93945c0.25398,0 0.46969,0.08893 0.64844,0.26757c0.17875,0.17875 0.26758,0.39641 0.26758,0.65039c0,0.26349 -0.08883,0.48347 -0.26758,0.66211c-0.17874,0.17865 -0.39444,0.26758 -0.64844,0.26758h-5.98437c-0.1317,0 -0.26283,-0.01909 -0.39453,-0.05664c-0.1317,-0.04712 -0.2543,-0.1126 -0.36719,-0.19726c-0.10348,-0.09399 -0.18806,-0.21046 -0.25391,-0.35157c-0.06585,-0.1411 -0.09766,-0.31027 -0.09766,-0.50781v-8.91797c0,-0.08466 0.01279,-0.18834 0.04101,-0.31054c0.02822,-0.13178 0.08526,-0.25431 0.16992,-0.36719c0.08466,-0.12221 0.19678,-0.22154 0.33789,-0.29688c0.15051,-0.08466 0.33868,-0.12695 0.56445,-0.12695zM84.0332,169.00879c0.3951,0 0.77143,0.07614 1.12891,0.22656c0.35747,0.1505 0.66824,0.35574 0.93164,0.61914c0.26341,0.26341 0.47059,0.57418 0.62109,0.93164c0.15992,0.34807 0.24023,0.7244 0.24023,1.12891c0,0.63967 -0.16063,1.19567 -0.48047,1.66602c-0.31044,0.47045 -0.77561,0.80875 -1.39648,1.01562c-0.10348,0.0378 -0.1543,0.07574 -0.1543,0.11328c0,0.05644 0.05509,0.09873 0.16797,0.12695c0.16933,0.02823 0.33422,0.07896 0.49414,0.1543c0.16932,0.07534 0.31947,0.17467 0.45117,0.29688c0.13168,0.1128 0.24576,0.2482 0.33984,0.4082c0.09398,0.15045 0.14907,0.32155 0.16797,0.50977l0.32617,2.94921c0.0188,0.16 -0.00643,0.29967 -0.07227,0.42188c-0.05644,0.1222 -0.14102,0.22588 -0.25391,0.31055c-0.10348,0.08466 -0.22413,0.15014 -0.36523,0.19726c-0.13169,0.03755 -0.26478,0.05664 -0.39648,0.05664c-0.27281,0 -0.50753,-0.08023 -0.70508,-0.24023c-0.19754,-0.15993 -0.30967,-0.37136 -0.33789,-0.63477l-0.31055,-2.5957c-0.0188,-0.11288 -0.06731,-0.23131 -0.14258,-0.35352c-0.06586,-0.1222 -0.17372,-0.23433 -0.32422,-0.33789c-0.1505,-0.11288 -0.34294,-0.20181 -0.57812,-0.26758c-0.23518,-0.06576 -0.52267,-0.0996 -0.86133,-0.0996h-2.03125v3.45703c0,0.3011 -0.10785,0.55485 -0.32422,0.76172c-0.20695,0.20686 -0.46069,0.31054 -0.76172,0.31054c-0.30102,0 -0.55475,-0.10368 -0.76172,-0.31054c-0.20697,-0.20695 -0.31055,-0.4607 -0.31055,-0.76172v-8.95899c0,-0.08466 0.01279,-0.18834 0.04101,-0.31054c0.02822,-0.13178 0.08526,-0.25431 0.16992,-0.36719c0.08466,-0.12221 0.19679,-0.22154 0.33789,-0.29688c0.15052,-0.08466 0.33869,-0.12695 0.56445,-0.12695zM90.77344,169.34668c0.30103,0.22576 0.50821,0.53653 0.62109,0.93164l2.00391,7.11133l2.00391,-7.11133c0.11288,-0.39511 0.31385,-0.70588 0.60547,-0.93164c0.30103,-0.22576 0.66262,-0.33789 1.08594,-0.33789c0.22576,0 0.44342,0.03794 0.65039,0.11328c0.20695,0.06577 0.39086,0.16314 0.55078,0.29492c0.15993,0.13181 0.2868,0.28815 0.38086,0.4668c0.09406,0.17875 0.14062,0.38166 0.14062,0.60742v8.63477c0,0.2729 -0.09933,0.51383 -0.29687,0.7207c-0.19755,0.19754 -0.43654,0.29492 -0.71875,0.29492c-0.28222,0 -0.52316,-0.09738 -0.7207,-0.29492c-0.19754,-0.20697 -0.29492,-0.4479 -0.29492,-0.7207v-7.33789l-2.04687,7.33789c-0.08466,0.31035 -0.24955,0.55982 -0.49414,0.74804c-0.23518,0.17865 -0.51645,0.26758 -0.8457,0.26758c-0.32924,0 -0.61247,-0.08893 -0.84766,-0.26758c-0.23518,-0.18814 -0.39581,-0.43762 -0.48047,-0.74804l-2.04492,-7.33789v7.33789c0,0.2729 -0.10358,0.51383 -0.31055,0.7207c-0.19755,0.19754 -0.43653,0.29492 -0.71875,0.29492c-0.2728,0 -0.51374,-0.09738 -0.7207,-0.29492c-0.19754,-0.20697 -0.29687,-0.4479 -0.29687,-0.7207v-8.63477c0,-0.22586 0.04852,-0.42877 0.14258,-0.60742c0.10348,-0.17867 0.23461,-0.33502 0.39453,-0.4668c0.15991,-0.13178 0.34381,-0.22915 0.55078,-0.29492c0.20695,-0.07534 0.4184,-0.11328 0.63476,-0.11328c0.42332,0 0.78064,0.11213 1.07227,0.33789zM101.93945,169.31934c0.21636,0.20696 0.32422,0.46069 0.32422,0.76172v8.98828c0,0.3011 -0.10785,0.55485 -0.32422,0.76172c-0.20696,0.20686 -0.46069,0.31054 -0.76172,0.31054c-0.30102,0 -0.55475,-0.10368 -0.76172,-0.31054c-0.20697,-0.20695 -0.31055,-0.4607 -0.31055,-0.76172v-8.98828c0,-0.30113 0.10358,-0.55486 0.31055,-0.76172c0.20696,-0.20687 0.46069,-0.31055 0.76172,-0.31055c0.30102,0 0.55475,0.10368 0.76172,0.31055zM105.38477,169.31934c0.21636,0.20696 0.32422,0.46069 0.32422,0.76172v8.21289h4.55859c0.26339,0 0.48336,0.08893 0.66211,0.26757c0.17875,0.17875 0.26953,0.39446 0.26953,0.64844c0,0.26349 -0.09078,0.48542 -0.26953,0.66406c-0.17874,0.17865 -0.39871,0.26758 -0.66211,0.26758h-5.60156c-0.1317,0 -0.26478,-0.01909 -0.39648,-0.05664c-0.1317,-0.04712 -0.25431,-0.1126 -0.36719,-0.19726c-0.10346,-0.09399 -0.18804,-0.21046 -0.25391,-0.35157c-0.06584,-0.1411 -0.09766,-0.31027 -0.09766,-0.50781v-8.94726c0,-0.30113 0.10358,-0.55486 0.31055,-0.76172c0.20696,-0.20687 0.46069,-0.31055 0.76172,-0.31055c0.30102,0 0.55475,0.10368 0.76172,0.31055zM113.8457,169.31934c0.21636,0.20696 0.32422,0.46069 0.32422,0.76172v8.98828c0,0.3011 -0.10785,0.55485 -0.32422,0.76172c-0.20696,0.20686 -0.46069,0.31054 -0.76172,0.31054c-0.30102,0 -0.55475,-0.10368 -0.76172,-0.31054c-0.20697,-0.20695 -0.31055,-0.4607 -0.31055,-0.76172v-8.98828c0,-0.30113 0.10358,-0.55486 0.31055,-0.76172c0.20696,-0.20687 0.46069,-0.31055 0.76172,-0.31055c0.30102,0 0.55475,0.10368 0.76172,0.31055zM128.18164,169.2627c0.24458,0.15992 0.45602,0.39038 0.63477,0.6914l4.17773,7v-6.92969c0,-0.2822 0.09933,-0.5212 0.29687,-0.71874c0.20696,-0.19755 0.44594,-0.29688 0.71875,-0.29688c0.28222,0 0.52316,0.09933 0.7207,0.29688c0.20697,0.19754 0.31055,0.43654 0.31055,0.71874v8.9043c0,0.16943 -0.03377,0.33005 -0.09961,0.48047c-0.06586,0.1411 -0.1547,0.26798 -0.26758,0.38086c-0.10346,0.11288 -0.23033,0.20181 -0.38086,0.26758c-0.14111,0.05644 -0.29747,0.08398 -0.46679,0.08398c-0.32925,0 -0.61675,-0.08458 -0.86133,-0.2539c-0.23519,-0.16935 -0.44042,-0.39981 -0.61914,-0.69141l-4.17773,-6.99805v6.92774c0,0.2729 -0.10358,0.51383 -0.31055,0.7207c-0.19755,0.19754 -0.43654,0.29492 -0.71875,0.29492c-0.2728,0 -0.51374,-0.09738 -0.7207,-0.29492c-0.19754,-0.20697 -0.29492,-0.4479 -0.29492,-0.7207v-8.91797c0,-0.32935 0.11637,-0.61062 0.35156,-0.8457c0.23518,-0.23509 0.52267,-0.35352 0.86133,-0.35352c0.32924,0 0.61052,0.08458 0.8457,0.25391zM118.75781,171.0127c-0.37628,0.22579 -0.68705,0.5218 -0.93164,0.88867c-0.24459,0.36689 -0.42227,0.78551 -0.53516,1.25586c-0.11288,0.46095 -0.16992,0.93041 -0.16992,1.41015c0,0.47978 0.05704,0.95544 0.16992,1.42579c0.11288,0.46095 0.29057,0.87956 0.53516,1.25585c0.24459,0.3669 0.55536,0.66291 0.93164,0.88868c0.38569,0.22576 0.84661,0.33984 1.38281,0.33984c0.53621,0 0.99286,-0.11408 1.36914,-0.33984c0.37628,-0.22577 0.68705,-0.52178 0.93164,-0.88868c0.24459,-0.37629 0.42227,-0.7949 0.53516,-1.25585c0.11288,-0.47035 0.16992,-0.94601 0.16992,-1.42579c0,-0.47974 -0.05704,-0.9492 -0.16992,-1.41015c-0.11288,-0.47035 -0.29057,-0.88897 -0.53516,-1.25586c-0.24459,-0.36689 -0.55536,-0.66291 -0.93164,-0.88867c-0.37628,-0.22577 -0.83293,-0.33985 -1.36914,-0.33985c-0.53621,0 -0.99712,0.11408 -1.38281,0.33985zM80.49219,170.8584v3.08984h2.76562c0.20695,0 0.40365,-0.03794 0.5918,-0.11328c0.18814,-0.08466 0.35304,-0.19874 0.49414,-0.33984c0.1411,-0.14103 0.24896,-0.30397 0.32422,-0.49219c0.08466,-0.18807 0.12891,-0.39098 0.12891,-0.60742c0,-0.20687 -0.04424,-0.40358 -0.12891,-0.5918c-0.07526,-0.18814 -0.18312,-0.35304 -0.32422,-0.49414c-0.1411,-0.1411 -0.30599,-0.25083 -0.49414,-0.32617c-0.18813,-0.08466 -0.38483,-0.12695 -0.5918,-0.12695z" data-paper-data="{&quot;origPos&quot;:null}" id="path5682" fill="#1eff00" stroke="none" stroke-width="1" stroke-miterlimit="10" stroke-dashoffset="0"/><path d="M69.10322,187.56426c1.27594,0 2.33407,4.30813 3.36633,5.05814c1.03226,0.74997 5.45651,0.42501 5.8508,1.6385c0.39429,1.21349 -3.376,3.55113 -3.77029,4.76462c-0.39429,1.21349 1.28192,5.32078 0.24968,6.07075c-1.03226,0.74997 -4.42056,-2.1134 -5.6965,-2.1134c-1.27594,0 -4.66424,2.86337 -5.6965,2.1134c-1.03226,-0.74997 0.64395,-4.85726 0.24966,-6.07075c-0.39429,-1.21349 -4.16458,-3.55113 -3.77029,-4.76462c0.39429,-1.21349 4.81854,-0.88853 5.8508,-1.6385c1.03226,-0.75001 2.09039,-5.05814 3.36633,-5.05814z" data-paper-data="{&quot;origPos&quot;:null}" id="path1428-5-4" fill="#1eff00" stroke="none" stroke-width="0.88188" stroke-miterlimit="4" stroke-dashoffset="17.35"/><path d="M92.0402,187.56426c1.27594,0 2.33407,4.30813 3.36633,5.05814c1.03226,0.74997 5.45651,0.42501 5.8508,1.6385c0.39429,1.21349 -3.37601,3.55113 -3.77029,4.76462c-0.39428,1.21349 1.28192,5.32078 0.24968,6.07075c-1.03225,0.74997 -4.42055,-2.1134 -5.69649,-2.1134c-1.27594,0 -4.66424,2.86337 -5.6965,2.1134c-1.03226,-0.74997 0.64395,-4.85726 0.24968,-6.07075c-0.39429,-1.21349 -4.16458,-3.55113 -3.77029,-4.76462c0.39428,-1.21349 4.81854,-0.88853 5.8508,-1.6385c1.03226,-0.75001 2.09038,-5.05814 3.36633,-5.05814z" data-paper-data="{&quot;origPos&quot;:null}" id="path1428-0-2-05" fill="#1eff00" stroke="none" stroke-width="0.88188" stroke-miterlimit="4" stroke-dashoffset="17.35"/><path d="M114.97716,187.56426c1.27594,0 2.33407,4.30813 3.36633,5.05814c1.03226,0.74997 5.45651,0.42501 5.8508,1.6385c0.39429,1.21349 -3.37601,3.55113 -3.77029,4.76462c-0.39428,1.21349 1.28192,5.32078 0.24968,6.07075c-1.03225,0.74997 -4.42055,-2.1134 -5.69649,-2.1134c-1.27594,0 -4.66424,2.86337 -5.6965,2.1134c-1.03226,-0.74997 0.64395,-4.85726 0.24968,-6.07075c-0.39429,-1.21349 -4.16458,-3.55113 -3.77029,-4.76462c0.39428,-1.21349 4.81854,-0.88853 5.8508,-1.6385c1.03226,-0.75001 2.09039,-5.05814 3.36633,-5.05814z" data-paper-data="{&quot;origPos&quot;:null}" id="path1428-0-6-3-70" fill="#1eff00" stroke="none" stroke-width="0.88188" stroke-miterlimit="4" stroke-dashoffset="17.35"/><path d="M137.91417,187.56426c1.27594,0 2.33407,4.30813 3.36633,5.05814c1.03226,0.74997 5.45651,0.42501 5.8508,1.6385c0.39429,1.21349 -3.376,3.55113 -3.77029,4.76462c-0.39429,1.21349 1.28192,5.32078 0.24968,6.07075c-1.03226,0.74997 -4.42056,-2.1134 -5.6965,-2.1134c-1.27594,0 -4.66424,2.86337 -5.6965,2.1134c-1.03226,-0.74997 0.64395,-4.85726 0.24968,-6.07075c-0.39428,-1.21349 -4.16458,-3.55113 -3.77029,-4.76462c0.39429,-1.21349 4.81854,-0.88853 5.8508,-1.6385c1.03226,-0.75001 2.09039,-5.05814 3.36633,-5.05814z" data-paper-data="{&quot;origPos&quot;:null}" id="path1428-0-0-2-62" fill="#1eff00" stroke="none" stroke-width="0.88188" stroke-miterlimit="4" stroke-dashoffset="17.35"/><path d="M160.85114,194.53885c0.26793,0 0.49016,0.90471 0.70693,1.0622c0.21676,0.15761 1.14587,0.0892 1.22866,0.34394c0.08281,0.25474 -0.70896,0.74574 -0.79176,1.00059c-0.08281,0.25474 0.26922,1.11734 0.05242,1.27483c-0.21679,0.15761 -0.92832,-0.44379 -1.19627,-0.44379c-0.26793,0 -0.97949,0.60132 -1.19627,0.44379c-0.21676,-0.15761 0.13523,-1.02002 0.05242,-1.27483c-0.08281,-0.25474 -0.87456,-0.74574 -0.79176,-1.00059c0.08281,-0.25474 1.01189,-0.18671 1.22866,-0.34394c0.21679,-0.15761 0.43898,-1.0622 0.70693,-1.0622z" data-paper-data="{&quot;origPos&quot;:null}" id="path1428-0-8-5-8" fill="#1eff00" stroke="none" stroke-width="0.1852" stroke-miterlimit="4" stroke-dashoffset="17.35"/></g></g></svg>