<svg version="1.1" xmlns="http://www.w3.org/2000/svg" xmlns:xlink="http://www.w3.org/1999/xlink" width="372.21484" height="68.64258"><g transform="translate(-53.89258,-145.67871)"><g data-paper-data="{&quot;isPaintingLayer&quot;:true}" fill-rule="nonzero" stroke-linecap="butt" stroke-linejoin="miter" stroke-dasharray="" style="mix-blend-mode: normal"><path d="M425.00976,146.42871c0.19313,0 0.34766,0.15452 0.34766,0.34766v66.44531c0,0.19313 -0.15453,0.34961 -0.34766,0.34961h-370.01757c-0.19328,0 -0.34961,-0.15648 -0.34961,-0.34961v-66.44531c0,-0.19314 0.15637,-0.34766 0.34961,-0.34766z" data-paper-data="{&quot;origPos&quot;:null}" id="rect815-0-0-4" fill="#1e1e1e" stroke="#1eff00" stroke-width="1.5" stroke-miterlimit="4" stroke-dashoffset="17.35"/><path d="M67.21484,151.79199c0.62933,0.27732 1.16919,0.61313 1.61719,1.00781c0.45867,0.384 0.81131,0.79511 1.05664,1.23243c0.256,0.43734 0.38281,0.81671 0.38281,1.13671c0,0.28808 -0.10698,0.51692 -0.32031,0.6875c-0.21333,0.16 -0.44217,0.24024 -0.6875,0.24024c-0.18133,0 -0.35172,-0.04349 -0.51172,-0.12891c-0.16,-0.09592 -0.27194,-0.24947 -0.33594,-0.46289c-0.096,-0.29866 -0.22972,-0.59286 -0.40039,-0.88086c-0.17067,-0.2881 -0.38958,-0.54862 -0.65625,-0.7832c-0.26667,-0.23473 -0.58069,-0.42196 -0.94336,-0.56055c-0.352,-0.14941 -0.76309,-0.22461 -1.23242,-0.22461c-0.53333,0 -1.03457,0.11894 -1.50391,0.35352c-0.46933,0.224 -0.88042,0.54793 -1.23242,0.97461c-0.34133,0.416 -0.61374,0.92221 -0.81641,1.51953c-0.20267,0.59734 -0.30273,1.264 -0.30273,2c0,0.736 0.10007,1.40266 0.30273,2c0.20267,0.59732 0.47507,1.11043 0.81641,1.53711c0.352,0.42673 0.76309,0.7576 1.23242,0.99219c0.46933,0.224 0.97057,0.33593 1.50391,0.33593c0.46933,0 0.88042,-0.0704 1.23242,-0.20898c0.36267,-0.14942 0.67669,-0.34159 0.94336,-0.57617c0.26667,-0.23466 0.48558,-0.49521 0.65625,-0.7832c0.17067,-0.29869 0.30439,-0.59783 0.40039,-0.89649c0.064,-0.21324 0.17594,-0.36185 0.33594,-0.44727c0.16,-0.096 0.33038,-0.14453 0.51172,-0.14453c0.24533,0 0.47417,0.08024 0.6875,0.24024c0.21333,0.16 0.32031,0.38387 0.32031,0.67187c0,0.23466 -0.09511,0.56553 -0.28711,0.99219c-0.192,0.42668 -0.49115,0.85264 -0.89648,1.2793c-0.40533,0.416 -0.93332,0.77855 -1.58398,1.08789c-0.64,0.30931 -1.41365,0.46484 -2.32031,0.46484c-0.96,0 -1.80201,-0.18031 -2.52734,-0.54297c-0.71467,-0.36266 -1.31297,-0.84903 -1.79297,-1.45703c-0.46933,-0.608 -0.82693,-1.30139 -1.07227,-2.08008c-0.23467,-0.78931 -0.35156,-1.60955 -0.35156,-2.46289c0,-0.84266 0.1169,-1.65987 0.35156,-2.44922c0.24533,-0.78934 0.60293,-1.48276 1.07227,-2.08007c0.48,-0.608 1.0783,-1.0924 1.79297,-1.45508c0.72533,-0.36266 1.56734,-0.54492 2.52734,-0.54492c0.736,0 1.41258,0.13867 2.03125,0.41601zM72.8418,151.87207c0.192,0.18134 0.28711,0.40522 0.28711,0.67187c0,0.256 -0.09511,0.47988 -0.28711,0.67188c-0.18133,0.18142 -0.40025,0.27148 -0.65625,0.27148c-0.26667,0 -0.4955,-0.09006 -0.6875,-0.27148c-0.18133,-0.192 -0.27344,-0.41588 -0.27344,-0.67188c0,-0.26658 0.0921,-0.49045 0.27344,-0.67187c0.192,-0.18142 0.42083,-0.27148 0.6875,-0.27148c0.256,0 0.47492,0.09006 0.65625,0.27148zM108.05664,151.60059c0.58667,0 1.10278,0.08527 1.55078,0.25585c0.45867,0.17066 0.84301,0.40445 1.15234,0.70313c0.30933,0.288 0.54508,0.6357 0.70508,1.04102c0.16,0.39468 0.24023,0.82063 0.24023,1.27929c0,0.40534 -0.06039,0.75798 -0.17773,1.05664c-0.10666,0.29866 -0.2503,0.55921 -0.43164,0.78321c-0.17067,0.21341 -0.3678,0.39071 -0.5918,0.52929c-0.21333,0.128 -0.43225,0.22311 -0.65625,0.28711c0.448,0.14942 0.82242,0.34159 1.12109,0.57617c0.29866,0.224 0.53741,0.47462 0.71875,0.75196c0.18134,0.27734 0.31011,0.57648 0.38476,0.89648c0.07466,0.32 0.11133,0.63899 0.11133,0.95899c0,0.52265 -0.10502,0.99717 -0.31836,1.42382c-0.21333,0.42669 -0.50752,0.79616 -0.88086,1.10547c-0.36267,0.30942 -0.79554,0.54817 -1.29687,0.71875c-0.49067,0.17059 -1.01865,0.25586 -1.58398,0.25586h-4.67187c-0.15999,0 -0.31355,-0.02666 -0.46289,-0.08008c-0.14932,-0.064 -0.28305,-0.14927 -0.40039,-0.25585c-0.11734,-0.10669 -0.2144,-0.23844 -0.28906,-0.39844c-0.07466,-0.16 -0.11133,-0.3373 -0.11133,-0.5293v-10.11133c0,-0.34126 0.1238,-0.63544 0.36914,-0.88086c0.24533,-0.24541 0.54253,-0.36718 0.89453,-0.36718zM137.79492,151.84082c0.16,0.16008 0.24023,0.35721 0.24023,0.5918v6.11132l3.91992,-3.4082c0.14932,-0.11742 0.31475,-0.17578 0.49609,-0.17578c0.17066,0 0.33609,0.06341 0.49609,0.19141c0.16,0.12807 0.24023,0.31034 0.24023,0.54492c0,0.21324 -0.0852,0.39355 -0.25586,0.54297l-2.44726,2.11328l3.23047,4.57617c0.096,0.14942 0.14453,0.30793 0.14453,0.47852c0,0.14941 -0.02674,0.27818 -0.08008,0.38476c-0.05332,0.096 -0.12169,0.17624 -0.20703,0.24024c-0.08534,0.064 -0.17744,0.11253 -0.27344,0.14453c-0.096,0.032 -0.18614,0.04687 -0.27148,0.04687c-0.13866,0 -0.26547,-0.02666 -0.38281,-0.08008c-0.11732,-0.05316 -0.21935,-0.13844 -0.30469,-0.25585l-3.07227,-4.44727l-1.23242,1.05469v2.88086c0,0.23476 -0.08023,0.43684 -0.24023,0.60742c-0.16001,0.16 -0.35714,0.24023 -0.5918,0.24023c-0.23468,0 -0.43676,-0.08023 -0.60742,-0.24023c-0.16,-0.17076 -0.24023,-0.37284 -0.24023,-0.60742v-10.94336c0,-0.23466 0.08023,-0.4318 0.24023,-0.5918c0.17068,-0.16 0.37276,-0.24023 0.60742,-0.24023c0.23467,0 0.4318,0.08023 0.5918,0.24023zM104.05664,156.84863h3.75977c0.26667,0 0.5272,-0.04349 0.7832,-0.1289c0.256,-0.08517 0.47987,-0.20215 0.67187,-0.35157c0.19199,-0.15992 0.3475,-0.34713 0.46484,-0.56054c0.11734,-0.224 0.17578,-0.46967 0.17578,-0.73633c0,-0.52266 -0.16542,-0.94861 -0.49609,-1.2793c-0.33066,-0.34131 -0.81012,-0.51172 -1.43945,-0.51172h-3.91992zM94.22461,155.16894c0.544,0.21335 1.01354,0.52242 1.4082,0.92774c0.39467,0.40534 0.70373,0.89967 0.92773,1.48633c0.224,0.58668 0.33594,1.26026 0.33594,2.01758c0,0.75734 -0.11194,1.42896 -0.33594,2.01562c-0.224,0.58668 -0.53307,1.08297 -0.92773,1.48828c-0.39467,0.39458 -0.8642,0.69869 -1.4082,0.91211c-0.53333,0.21342 -1.11481,0.32031 -1.74414,0.32031c-0.62933,0 -1.21576,-0.10689 -1.75976,-0.32031c-0.53333,-0.21332 -0.99791,-0.51742 -1.39258,-0.91211c-0.39467,-0.40531 -0.70373,-0.9016 -0.92773,-1.48828c-0.224,-0.58666 -0.33594,-1.25828 -0.33594,-2.01562c0,-0.75732 0.11194,-1.4309 0.33594,-2.01758c0.224,-0.58666 0.53307,-1.08099 0.92773,-1.48633c0.39467,-0.40524 0.85924,-0.71432 1.39258,-0.92774c0.544,-0.21341 1.13043,-0.32031 1.75976,-0.32031c0.62933,0 1.21081,0.1069 1.74414,0.32031zM123.92773,155.12012c0.53333,0.18134 0.99295,0.44878 1.37695,0.80078c0.39467,0.34131 0.70373,0.76233 0.92773,1.26367c0.224,0.50134 0.33594,1.07094 0.33594,1.71094c0,0.39473 -0.09706,0.6939 -0.28906,0.89648c-0.192,0.20258 -0.41587,0.30469 -0.67187,0.30469h-5.85547c0,0.02142 0.00504,0.11148 0.01562,0.27148c0.02132,0.14927 0.05994,0.33151 0.11328,0.54493c0.064,0.21324 0.1492,0.44208 0.25586,0.6875c0.11733,0.23475 0.27089,0.45366 0.46289,0.65625c0.192,0.20273 0.42775,0.37313 0.70508,0.51171c0.288,0.128 0.63373,0.19141 1.03906,0.19141c0.33068,0 0.613,-0.02666 0.84766,-0.08008c0.23466,-0.05341 0.44366,-0.13365 0.625,-0.24023c0.18132,-0.10669 0.34675,-0.23844 0.49609,-0.39844c0.14932,-0.17066 0.29792,-0.3678 0.44726,-0.5918c0.08534,-0.128 0.1824,-0.22002 0.28906,-0.27343c0.10666,-0.05342 0.2186,-0.08008 0.33594,-0.08008c0.192,0 0.36734,0.0704 0.52734,0.20898c0.16,0.13859 0.24023,0.31393 0.24023,0.52735c0,0.128 -0.07033,0.32017 -0.20898,0.57617c-0.13867,0.256 -0.36254,0.51158 -0.67187,0.76758c-0.29867,0.256 -0.68797,0.47987 -1.16797,0.67187c-0.48,0.192 -1.06643,0.28906 -1.75976,0.28906c-0.704,0 -1.33401,-0.12876 -1.88867,-0.38476c-0.55467,-0.256 -1.02225,-0.59678 -1.40625,-1.02344c-0.37334,-0.43734 -0.66258,-0.94548 -0.86523,-1.52148c-0.192,-0.576 -0.28711,-1.1773 -0.28711,-1.80664c0,-0.65066 0.10008,-1.26385 0.30273,-1.83985c0.20267,-0.58666 0.4919,-1.0948 0.86523,-1.52148c0.384,-0.42659 0.84167,-0.7624 1.375,-1.00782c0.53333,-0.256 1.13163,-0.38281 1.79297,-0.38281c0.608,0 1.17265,0.09007 1.69531,0.27149zM134.02148,155.50488c0.65067,0.42666 0.97461,1.05966 0.97461,1.90235v5.96875c0,0.23476 -0.07828,0.43684 -0.23828,0.60742c-0.16001,0.16 -0.35714,0.24023 -0.5918,0.24023c-0.23468,0 -0.43872,-0.08023 -0.60937,-0.24023c-0.16,-0.17076 -0.24023,-0.37284 -0.24023,-0.60742v-0.25586c-0.40533,0.43724 -0.86796,0.73144 -1.39062,0.88086c-0.512,0.14941 -1.05681,0.22265 -1.63281,0.22265c-0.36266,0 -0.73018,-0.04658 -1.10351,-0.14258c-0.36267,-0.10658 -0.69352,-0.26705 -0.99219,-0.48046c-0.28799,-0.21335 -0.52374,-0.48079 -0.70508,-0.80079c-0.18134,-0.32 -0.27148,-0.70434 -0.27148,-1.15234c0,-0.512 0.10203,-0.93795 0.30469,-1.2793c0.20267,-0.352 0.47507,-0.63928 0.81641,-0.86328c0.34133,-0.2239 0.73063,-0.39625 1.16797,-0.51367c0.448,-0.11716 0.91754,-0.20244 1.4082,-0.25586c0.56533,-0.064 1.00617,-0.13245 1.32617,-0.20703c0.32,-0.08542 0.5607,-0.18053 0.7207,-0.28711c0.16,-0.10683 0.25706,-0.23056 0.28906,-0.36914c0.04266,-0.13873 0.0625,-0.29231 0.0625,-0.46289c0,-0.20258 -0.05844,-0.37988 -0.17578,-0.5293c-0.11732,-0.14941 -0.26592,-0.27118 -0.44727,-0.36718c-0.18133,-0.09601 -0.38342,-0.16641 -0.60742,-0.20899c-0.22399,-0.05342 -0.44291,-0.08008 -0.65625,-0.08008c-0.38401,0 -0.69308,0.03171 -0.92773,0.09571c-0.23466,0.064 -0.42683,0.14927 -0.57617,0.25586c-0.14934,0.10658 -0.27314,0.23534 -0.36914,0.38476c-0.08506,0.14885 -0.16579,0.30346 -0.24023,0.46289v0.00195c-0.06396,0.12725 -0.15461,0.22337 -0.27148,0.28711c-0.10666,0.05342 -0.2186,0.08008 -0.33594,0.08008c-0.21332,0 -0.41045,-0.0704 -0.5918,-0.20898c-0.18134,-0.13859 -0.27148,-0.33076 -0.27148,-0.57617c0,-0.096 0.02674,-0.21298 0.08008,-0.35157c0.096,-0.22392 0.22281,-0.44283 0.38281,-0.65625c0.16,-0.22407 0.37396,-0.42121 0.64062,-0.59179c0.27733,-0.17066 0.61315,-0.30439 1.00781,-0.40039c0.40533,-0.10659 0.89666,-0.15821 1.47266,-0.15821c1.088,0 1.9518,0.21891 2.5918,0.65625zM72.77734,155.21582c0.16,0.16008 0.24023,0.35721 0.24023,0.5918v7.56836c0,0.23476 -0.08023,0.43684 -0.24023,0.60742c-0.16,0.16 -0.35713,0.24023 -0.5918,0.24023c-0.23467,0 -0.43676,-0.08023 -0.60742,-0.24023c-0.16,-0.17076 -0.24023,-0.37284 -0.24023,-0.60742v-7.56836c0,-0.23466 0.08023,-0.4318 0.24023,-0.5918c0.17067,-0.17058 0.37276,-0.25586 0.60742,-0.25586c0.23467,0 0.4318,0.08528 0.5918,0.25586zM75.71484,155.21582c0.16,0.16008 0.24023,0.35721 0.24023,0.5918v0.30468c0.04267,-0.04258 0.1229,-0.12785 0.24023,-0.25586c0.11733,-0.12799 0.26097,-0.25676 0.43164,-0.38476c0.18133,-0.13858 0.37846,-0.25556 0.5918,-0.35156c0.224,-0.10659 0.45974,-0.16016 0.70508,-0.16016c0.23467,0 0.4318,0.08528 0.5918,0.25586c0.17067,0.16008 0.25586,0.35721 0.25586,0.5918c0,0.2241 -0.08519,0.42121 -0.25586,0.59179c-0.16,0.16 -0.35713,0.24024 -0.5918,0.24024c-0.40533,0 -0.73619,0.09706 -0.99219,0.28906c-0.256,0.18132 -0.46004,0.40025 -0.60937,0.65625c-0.13866,0.256 -0.23377,0.52149 -0.28711,0.79883c-0.05333,0.27724 -0.08008,0.50608 -0.08008,0.6875v4.30469c0,0.23476 -0.08023,0.43684 -0.24023,0.60742c-0.16,0.16 -0.35713,0.24023 -0.5918,0.24023c-0.23467,0 -0.43676,-0.08023 -0.60742,-0.24023c-0.16,-0.17076 -0.24023,-0.37284 -0.24023,-0.60742v-7.56836c0,-0.23466 0.08023,-0.4318 0.24023,-0.5918c0.17067,-0.17058 0.37276,-0.25586 0.60742,-0.25586c0.23467,0 0.4318,0.08528 0.5918,0.25586zM81.05859,155.21582c0.16,0.16008 0.24023,0.35721 0.24023,0.5918v0.28906c0.10667,-0.096 0.23543,-0.20794 0.38477,-0.33594c0.16,-0.13858 0.35022,-0.26735 0.57422,-0.38476c0.224,-0.11742 0.48153,-0.21253 0.76953,-0.28711c0.29867,-0.08542 0.63944,-0.12891 1.02344,-0.12891c0.39467,0 0.77405,0.05836 1.13672,0.17578c0.37333,0.10669 0.70419,0.2721 0.99219,0.4961c0.288,0.224 0.51683,0.50137 0.6875,0.83203c0.17067,0.33066 0.25586,0.715 0.25586,1.15234v5.75977c0,0.23476 -0.08519,0.43684 -0.25586,0.60742c-0.16,0.16 -0.35713,0.24023 -0.5918,0.24023c-0.23467,0 -0.4318,-0.08023 -0.5918,-0.24023c-0.16,-0.17076 -0.24023,-0.37284 -0.24023,-0.60742v-5.56836c0,-0.23459 -0.05845,-0.44163 -0.17578,-0.62305c-0.10667,-0.19192 -0.25226,-0.34743 -0.43359,-0.46484c-0.17067,-0.128 -0.3678,-0.22311 -0.5918,-0.28711c-0.21333,-0.064 -0.42534,-0.09571 -0.63867,-0.09571c-0.352,0 -0.67294,0.06341 -0.96094,0.19141c-0.288,0.11727 -0.53366,0.28268 -0.73633,0.49609c-0.192,0.21332 -0.3406,0.4689 -0.44727,0.76758c-0.10667,0.288 -0.16016,0.60204 -0.16016,0.94336v4.64063c0,0.23476 -0.08023,0.43684 -0.24023,0.60742c-0.16,0.16 -0.35713,0.24023 -0.5918,0.24023c-0.23467,0 -0.43676,-0.08023 -0.60742,-0.24023c-0.16,-0.17076 -0.24023,-0.37284 -0.24023,-0.60742v-7.56836c0,-0.23466 0.08023,-0.4318 0.24023,-0.5918c0.17067,-0.17058 0.37276,-0.25586 0.60742,-0.25586c0.23467,0 0.4318,0.08528 0.5918,0.25586zM114.68359,155.21582c0.16,0.16008 0.24023,0.35721 0.24023,0.5918v0.30468c0.04266,-0.04258 0.12289,-0.12785 0.24023,-0.25586c0.11734,-0.12799 0.26098,-0.25676 0.43164,-0.38476c0.18132,-0.13858 0.37845,-0.25556 0.5918,-0.35156c0.22399,-0.10659 0.45974,-0.16016 0.70508,-0.16016c0.23467,0 0.4318,0.08528 0.5918,0.25586c0.17066,0.16008 0.25586,0.35721 0.25586,0.5918c0,0.2241 -0.0852,0.42121 -0.25586,0.59179c-0.16001,0.16 -0.35714,0.24024 -0.5918,0.24024c-0.40533,0 -0.73619,0.09706 -0.99219,0.28906c-0.25599,0.18132 -0.46003,0.40025 -0.60937,0.65625c-0.13866,0.256 -0.23377,0.52149 -0.28711,0.79883c-0.05334,0.27724 -0.08008,0.50608 -0.08008,0.6875v4.30469c0,0.23476 -0.08023,0.43684 -0.24023,0.60742c-0.16001,0.16 -0.35714,0.24023 -0.5918,0.24023c-0.23467,0 -0.43676,-0.08023 -0.60742,-0.24023c-0.16,-0.17076 -0.24023,-0.37284 -0.24023,-0.60742v-7.56836c0,-0.23466 0.08023,-0.4318 0.24023,-0.5918c0.17067,-0.17058 0.37276,-0.25586 0.60742,-0.25586c0.23467,0 0.4318,0.08528 0.5918,0.25586zM91.37695,156.43262c-0.33067,0.128 -0.61795,0.33008 -0.86328,0.60742c-0.23467,0.26666 -0.42188,0.61433 -0.56055,1.04101c-0.13867,0.42666 -0.20898,0.93288 -0.20898,1.51954c0,0.58668 0.07032,1.09287 0.20898,1.51953c0.13867,0.416 0.32588,0.76172 0.56055,1.03906c0.24533,0.26673 0.53261,0.47079 0.86328,0.60937c0.34133,0.128 0.70885,0.19141 1.10351,0.19141c0.39467,0 0.75722,-0.06341 1.08789,-0.19141c0.34133,-0.13865 0.63057,-0.34271 0.86523,-0.60937c0.24533,-0.27734 0.43555,-0.62306 0.57422,-1.03906c0.13867,-0.42666 0.20898,-0.93285 0.20898,-1.51953c0,-0.58666 -0.07032,-1.09288 -0.20898,-1.51954c-0.13867,-0.42668 -0.32888,-0.77435 -0.57422,-1.04101c-0.23467,-0.27734 -0.5239,-0.47942 -0.86523,-0.60742c-0.33067,-0.13859 -0.69322,-0.20899 -1.08789,-0.20899c-0.39467,0 -0.76218,0.0704 -1.10351,0.20899zM121.25586,156.39941c-0.27733,0.11724 -0.51112,0.26781 -0.70312,0.44922c-0.18134,0.17059 -0.32693,0.36276 -0.43359,0.57617c-0.10666,0.21325 -0.18689,0.41038 -0.24023,0.5918c-0.05342,0.18142 -0.08512,0.33993 -0.0957,0.47852c-0.01058,0.12926 -0.01562,0.20445 -0.01562,0.22461h5.18359c0,-0.33066 -0.05154,-0.64468 -0.1582,-0.94336c-0.10666,-0.29866 -0.27209,-0.56116 -0.49609,-0.78516c-0.21333,-0.23476 -0.4907,-0.42001 -0.83203,-0.55859c-0.34133,-0.13859 -0.7425,-0.20899 -1.20117,-0.20899c-0.39467,0 -0.73048,0.05837 -1.00781,0.17578zM104.05664,162.54394h3.9043c0.864,0.00001 1.46035,-0.17037 1.79102,-0.51171c0.34133,-0.352 0.51172,-0.82649 0.51172,-1.42383c0,-0.69332 -0.23379,-1.22627 -0.70312,-1.59961c-0.45867,-0.384 -1.07184,-0.57617 -1.83984,-0.57617h-3.66406zM132.91797,159.74316c-0.20267,0.064 -0.44337,0.11253 -0.7207,0.14454c-0.26667,0.03199 -0.54899,0.06874 -0.84766,0.11132c-0.288,0.04259 -0.57032,0.09616 -0.84766,0.16016c-0.27733,0.064 -0.52991,0.16106 -0.75391,0.28906c-0.22401,0.11734 -0.40431,0.27089 -0.54297,0.46289c-0.128,0.192 -0.19141,0.43767 -0.19141,0.73633c0,0.23466 0.04658,0.4318 0.14258,0.5918c0.10667,0.14941 0.24039,0.27314 0.40039,0.36914c0.16001,0.08542 0.34226,0.14882 0.54492,0.1914c0.20268,0.032 0.40476,0.04883 0.60742,0.04883c0.30933,0 0.6184,-0.0317 0.92773,-0.0957c0.30932,-0.07458 0.58669,-0.19352 0.83203,-0.35352c0.25599,-0.16 0.45808,-0.37198 0.60742,-0.63867c0.16,-0.26666 0.24023,-0.59753 0.24023,-0.99219v-1.13671zM64.93555,168.9248c0.15992,0.07509 0.30154,0.17877 0.42383,0.31055c0.1317,0.12238 0.24382,0.27253 0.33789,0.45117c0.09407,0.16925 0.17438,0.34889 0.24023,0.53711l2.91992,8.4375c0.04703,0.14118 0.07031,0.27233 0.07031,0.39453c0,0.11289 -0.02328,0.23541 -0.07031,0.36719c-0.03763,0.13153 -0.09893,0.24996 -0.18359,0.35352c-0.08466,0.1033 -0.19252,0.19224 -0.32422,0.26757c-0.1317,0.06577 -0.29037,0.09961 -0.47852,0.09961c-0.22577,0 -0.43917,-0.06743 -0.63672,-0.19921c-0.18814,-0.13171 -0.31927,-0.3094 -0.39453,-0.53516l-0.80469,-2.69531h-3.27344l-0.80469,2.69531c-0.07526,0.22569 -0.21065,0.40533 -0.4082,0.53711c-0.18814,0.13178 -0.39532,0.19726 -0.62109,0.19726c-0.32925,0 -0.59347,-0.10777 -0.79102,-0.32421c-0.18814,-0.22577 -0.28125,-0.48145 -0.28125,-0.76368c0,-0.12228 0.02328,-0.25343 0.07031,-0.39453l2.93555,-8.4375c0.06585,-0.18814 0.14616,-0.36778 0.24023,-0.53711c0.09407,-0.17882 0.20193,-0.32896 0.32422,-0.45117c0.12229,-0.13153 0.26391,-0.23521 0.42383,-0.31055c0.15992,-0.07533 0.34187,-0.11328 0.54883,-0.11328c0.19755,0 0.37719,0.03795 0.53711,0.11328zM91.78906,168.9248c0.15992,0.07509 0.30153,0.17877 0.42383,0.31055c0.1317,0.12238 0.24382,0.27253 0.33789,0.45117c0.09407,0.16925 0.17438,0.34889 0.24023,0.53711l2.92187,8.4375c0.04703,0.14118 0.07031,0.27233 0.07031,0.39453c0,0.11289 -0.02328,0.23541 -0.07031,0.36719c-0.03763,0.13153 -0.09893,0.24996 -0.18359,0.35352c-0.08466,0.1033 -0.19252,0.19224 -0.32422,0.26757c-0.1317,0.06577 -0.29233,0.09961 -0.48047,0.09961c-0.22577,0 -0.43722,-0.06743 -0.63476,-0.19921c-0.18814,-0.13171 -0.31927,-0.3094 -0.39453,-0.53516l-0.80469,-2.69531h-3.27344l-0.80469,2.69531c-0.07526,0.22569 -0.21261,0.40338 -0.41016,0.53516c-0.18814,0.13178 -0.39532,0.19921 -0.62109,0.19921c-0.32925,0 -0.59151,-0.10973 -0.78906,-0.32617c-0.18814,-0.22576 -0.2832,-0.47949 -0.2832,-0.76172c0,-0.12228 0.02523,-0.25343 0.07227,-0.39453l2.93359,-8.4375c0.06585,-0.18814 0.14616,-0.36778 0.24023,-0.53711c0.09407,-0.17882 0.20193,-0.32896 0.32422,-0.45117c0.12229,-0.13153 0.26391,-0.23521 0.42383,-0.31055c0.15992,-0.07533 0.34382,-0.11328 0.55078,-0.11328c0.19755,0 0.37523,0.03795 0.53516,0.11328zM113.37695,169.16504c0.5268,0.22576 0.9687,0.49228 1.32617,0.80273c0.35746,0.31043 0.62399,0.63169 0.80273,0.96094c0.17875,0.32927 0.26953,0.59152 0.26953,0.78906c0,0.15043 -0.03802,0.29205 -0.11328,0.42383c-0.06586,0.13178 -0.1547,0.24391 -0.26758,0.33789c-0.11289,0.09399 -0.23976,0.17012 -0.38086,0.22656c-0.13169,0.05645 -0.26478,0.08399 -0.39648,0.08399c-0.14111,0 -0.26798,-0.03189 -0.38086,-0.09766c-0.11291,-0.06576 -0.20174,-0.16509 -0.26758,-0.29687c-0.07526,-0.15053 -0.17032,-0.32394 -0.2832,-0.52149c-0.10348,-0.20694 -0.2474,-0.39513 -0.43555,-0.56445c-0.17874,-0.17882 -0.41115,-0.32897 -0.69336,-0.45117c-0.27281,-0.12221 -0.61538,-0.1836 -1.0293,-0.1836c-0.47036,0 -0.88898,0.11648 -1.25586,0.35157c-0.35747,0.22576 -0.66398,0.5218 -0.91797,0.88867c-0.24458,0.36689 -0.4308,0.78551 -0.5625,1.25586c-0.12228,0.46095 -0.18359,0.92809 -0.18359,1.39844c0,0.47977 0.06131,0.95347 0.18359,1.42382c0.1317,0.46095 0.31791,0.8753 0.5625,1.24219c0.25399,0.36697 0.5605,0.66921 0.91797,0.9043c0.36688,0.22576 0.7855,0.33789 1.25586,0.33789c0.41391,0 0.75649,-0.06139 1.0293,-0.1836c0.2822,-0.1224 0.51461,-0.27252 0.69336,-0.45117c0.18814,-0.17872 0.33206,-0.36691 0.43555,-0.56445c0.11288,-0.19747 0.20794,-0.37711 0.2832,-0.53711c0.06586,-0.13178 0.1547,-0.22916 0.26758,-0.29492c0.11288,-0.06577 0.23548,-0.09961 0.36719,-0.09961c0.1317,0 0.26283,0.02754 0.39453,0.08398c0.14111,0.05644 0.26798,0.13258 0.38086,0.22657c0.11291,0.09398 0.20369,0.20611 0.26953,0.33789c0.07526,0.13178 0.11328,0.2734 0.11328,0.42382c0,0.20697 -0.09078,0.47545 -0.26953,0.80469c-0.17874,0.32925 -0.44722,0.64856 -0.80469,0.95899c-0.34806,0.31045 -0.78375,0.57892 -1.31055,0.80468c-0.5268,0.22577 -1.14407,0.3379 -1.84961,0.3379c-0.84664,0 -1.58883,-0.1587 -2.22852,-0.47852c-0.63028,-0.31985 -1.15871,-0.74272 -1.58203,-1.26953c-0.41391,-0.53619 -0.72895,-1.14922 -0.94531,-1.83594c-0.20697,-0.69614 -0.31055,-1.41929 -0.31055,-2.17187c0,-0.74316 0.10358,-1.46405 0.31055,-2.16016c0.21636,-0.69614 0.5314,-1.30719 0.94531,-1.83398c0.42332,-0.53622 0.95175,-0.96336 1.58203,-1.28321c0.63968,-0.31982 1.38187,-0.48047 2.22852,-0.48047c0.70553,0 1.32281,0.11843 1.84961,0.35352zM74.71289,169.00879c0.67731,0 1.27984,0.16489 1.80664,0.49414c0.53621,0.31985 0.98237,0.74271 1.33984,1.26953c0.36688,0.51737 0.64584,1.11138 0.83398,1.7793c0.18814,0.66792 0.28125,1.34028 0.28125,2.01758c0,0.68674 -0.09311,1.36335 -0.28125,2.03125c-0.18814,0.65849 -0.46711,1.25052 -0.83398,1.77734c-0.35747,0.52679 -0.79937,0.95591 -1.32617,1.28516c-0.5268,0.31984 -1.13359,0.47851 -1.82031,0.47851h-3.83789c-0.1317,0 -0.26283,-0.01714 -0.39453,-0.05469c-0.1317,-0.04711 -0.2543,-0.11455 -0.36719,-0.19921c-0.10348,-0.09399 -0.18806,-0.21047 -0.25391,-0.35157c-0.06585,-0.14113 -0.09961,-0.31027 -0.09961,-0.50781v-8.91797c0,-0.08466 0.01475,-0.18834 0.04297,-0.31055c0.02822,-0.13178 0.08526,-0.2543 0.16992,-0.36718c0.08466,-0.12221 0.19678,-0.22154 0.33789,-0.29688c0.15051,-0.08466 0.33868,-0.12695 0.56445,-0.12695zM80.80273,169.16504c0.17874,0.10358 0.30134,0.25798 0.36719,0.46484l2.25781,7.35156l2.27148,-7.35156c0.06585,-0.20689 0.18419,-0.36128 0.35352,-0.46484c0.17874,-0.10356 0.37543,-0.15625 0.5918,-0.15625c0.16933,0 0.32374,0.03384 0.46484,0.09961c0.1411,0.06576 0.25944,0.15035 0.35351,0.2539c0.10348,0.09399 0.18379,0.20612 0.24023,0.3379c0.05644,0.12245 0.08398,0.24498 0.08398,0.36718c0,0.11288 -0.01901,0.21222 -0.05664,0.29688l-3.23047,8.98828c-0.08466,0.24461 -0.22201,0.43702 -0.41016,0.57812c-0.17874,0.14111 -0.39871,0.21094 -0.66211,0.21094c-0.25399,0 -0.47592,-0.06983 -0.66406,-0.21094c-0.18814,-0.14105 -0.32354,-0.33346 -0.4082,-0.57812l-3.21875,-8.98828c-0.03763,-0.08466 -0.05469,-0.184 -0.05469,-0.29688c0,-0.11288 0.02328,-0.23131 0.07031,-0.35351c0.04703,-0.13153 0.11686,-0.24801 0.21094,-0.35157c0.09407,-0.10355 0.21241,-0.18814 0.35352,-0.2539c0.14111,-0.06577 0.31026,-0.09961 0.50781,-0.09961c0.21636,0 0.4088,0.05269 0.57812,0.15625zM98.66406,169.2627c0.24458,0.15989 0.45603,0.39037 0.63477,0.6914l4.17773,7v-6.92969c0,-0.2822 0.09738,-0.5212 0.29492,-0.71875c0.20696,-0.19754 0.4479,-0.29687 0.7207,-0.29687c0.28222,0 0.52121,0.09933 0.71875,0.29687c0.20697,0.19755 0.31055,0.43655 0.31055,0.71875v8.9043c0,0.16942 -0.03182,0.33004 -0.09766,0.48047c-0.06586,0.1411 -0.15665,0.26798 -0.26953,0.38086c-0.10347,0.11288 -0.23033,0.20181 -0.38086,0.26758c-0.14111,0.05644 -0.29552,0.08398 -0.46484,0.08398c-0.32925,0 -0.61674,-0.08458 -0.86133,-0.2539c-0.23517,-0.16935 -0.44235,-0.39981 -0.62109,-0.69141l-4.17578,-6.99805v6.92774c0,0.2729 -0.10359,0.51383 -0.31055,0.7207c-0.19755,0.19754 -0.43849,0.29687 -0.7207,0.29687c-0.27281,0 -0.51179,-0.09933 -0.71875,-0.29687c-0.19755,-0.20697 -0.29687,-0.4479 -0.29687,-0.7207v-8.91797c0,-0.32935 0.11834,-0.61062 0.35352,-0.84571c0.23518,-0.23508 0.52267,-0.35351 0.86133,-0.35351c0.32925,0 0.61053,0.08458 0.8457,0.25391zM123.90234,169.00879c0.25398,0 0.47164,0.09088 0.65039,0.26953c0.17875,0.17872 0.26758,0.39443 0.26758,0.64844c0,0.26348 -0.08883,0.48346 -0.26758,0.66211c-0.17874,0.17864 -0.3964,0.26953 -0.65039,0.26953h-4.9375v2.41211h4.14844c0.26339,0 0.48336,0.09498 0.66211,0.2832c0.17875,0.17872 0.26953,0.39445 0.26953,0.64844c0,0.25393 -0.09078,0.47584 -0.26953,0.66406c-0.17874,0.17865 -0.39871,0.26758 -0.66211,0.26758h-4.14844v3.16015h4.9375c0.25398,0.00001 0.47164,0.08894 0.65039,0.26758c0.17875,0.17875 0.26758,0.39641 0.26758,0.65039c0,0.26349 -0.08883,0.48347 -0.26758,0.66211c-0.17874,0.17865 -0.3964,0.26953 -0.65039,0.26953h-5.98242c-0.13169,0 -0.26283,-0.01909 -0.39453,-0.05664c-0.1317,-0.04711 -0.2543,-0.1126 -0.36719,-0.19726c-0.10348,-0.09399 -0.18807,-0.21242 -0.25391,-0.35352c-0.06586,-0.14113 -0.09961,-0.31027 -0.09961,-0.50781v-8.91797c0,-0.08466 0.01475,-0.18834 0.04297,-0.31055c0.02822,-0.13178 0.08526,-0.2543 0.16992,-0.36718c0.08466,-0.12221 0.19679,-0.22154 0.33789,-0.29688c0.15052,-0.08466 0.33869,-0.12695 0.56445,-0.12695zM130.71484,169.00879c0.67731,0 1.27984,0.16489 1.80664,0.49414c0.5362,0.31985 0.98237,0.74271 1.33984,1.26953c0.36687,0.51737 0.64584,1.11138 0.83398,1.7793c0.18814,0.66792 0.28125,1.34028 0.28125,2.01758c0,0.68674 -0.0931,1.36335 -0.28125,2.03125c-0.18814,0.65849 -0.46711,1.25052 -0.83398,1.77734c-0.35747,0.52679 -0.79937,0.95591 -1.32617,1.28516c-0.5268,0.31984 -1.13359,0.47851 -1.82031,0.47851h-3.83789c-0.1317,0 -0.26283,-0.01714 -0.39453,-0.05469c-0.1317,-0.04711 -0.25431,-0.11455 -0.36719,-0.19921c-0.10348,-0.09399 -0.18807,-0.21047 -0.25391,-0.35157c-0.06584,-0.14113 -0.09961,-0.31027 -0.09961,-0.50781v-8.91797c0,-0.08466 0.01475,-0.18834 0.04297,-0.31055c0.02822,-0.13178 0.08526,-0.2543 0.16992,-0.36718c0.08466,-0.12221 0.19679,-0.22154 0.33789,-0.29688c0.15052,-0.08466 0.33869,-0.12695 0.56445,-0.12695zM71.91992,178.28027h1.98828c0.55502,0 1.01593,-0.10368 1.38281,-0.31054c0.37628,-0.21637 0.67853,-0.49959 0.9043,-0.84766c0.22577,-0.34807 0.3864,-0.74146 0.48047,-1.18359c0.09407,-0.45156 0.14062,-0.90819 0.14062,-1.36914c0,-0.46096 -0.04655,-0.91334 -0.14062,-1.35547c-0.09407,-0.44213 -0.2547,-0.83748 -0.48047,-1.18555c-0.22577,-0.34797 -0.52801,-0.62926 -0.9043,-0.8457c-0.36688,-0.21644 -0.82779,-0.32422 -1.38281,-0.32422h-1.98828zM127.92187,178.28027h1.98828c0.55502,0 1.01594,-0.10368 1.38281,-0.31054c0.37629,-0.21637 0.67853,-0.49959 0.9043,-0.84766c0.22578,-0.34807 0.38446,-0.74146 0.47852,-1.18359c0.09406,-0.45156 0.14258,-0.90819 0.14258,-1.36914c0,-0.46096 -0.04852,-0.91334 -0.14258,-1.35547c-0.09408,-0.44213 -0.25275,-0.83748 -0.47852,-1.18555c-0.22577,-0.34797 -0.52801,-0.62926 -0.9043,-0.8457c-0.36688,-0.21644 -0.82779,-0.32422 -1.38281,-0.32422h-1.98828zM63.24219,175.06348h2.29883l-1.14258,-3.89454zM90.0957,175.06348h2.30078l-1.14258,-3.89454z" data-paper-data="{&quot;origPos&quot;:null}" id="path5286" fill="#1eff00" stroke="none" stroke-width="1" stroke-miterlimit="10" stroke-dashoffset="0"/><path d="M69.10173,187.56484c1.27594,0 2.33407,4.30813 3.36633,5.05814c1.03226,0.74997 5.45651,0.42501 5.8508,1.6385c0.39429,1.21349 -3.37601,3.55113 -3.77029,4.76462c-0.39429,1.21349 1.28192,5.32078 0.24966,6.07075c-1.03226,0.74997 -4.42056,-2.1134 -5.6965,-2.1134c-1.27594,0 -4.66424,2.86337 -5.6965,2.1134c-1.03226,-0.74997 0.64395,-4.85726 0.24966,-6.07075c-0.39429,-1.21349 -4.16458,-3.55113 -3.77029,-4.76462c0.39429,-1.21349 4.81854,-0.88853 5.8508,-1.6385c1.03226,-0.75001 2.09039,-5.05814 3.36633,-5.05814z" data-paper-data="{&quot;origPos&quot;:null}" id="path1428-5-20-2" fill="#1eff00" stroke="none" stroke-width="0.88188" stroke-miterlimit="4" stroke-dashoffset="17.35"/><path d="M92.03872,187.56484c1.27594,0 2.33407,4.30813 3.36633,5.05814c1.03226,0.74997 5.45651,0.42501 5.8508,1.6385c0.39429,1.21349 -3.376,3.55113 -3.77029,4.76462c-0.39429,1.21349 1.28192,5.32078 0.24966,6.07075c-1.03226,0.74997 -4.42056,-2.1134 -5.6965,-2.1134c-1.27594,0 -4.66424,2.86337 -5.6965,2.1134c-1.03226,-0.74997 0.64395,-4.85726 0.24966,-6.07075c-0.39429,-1.21349 -4.16458,-3.55113 -3.77029,-4.76462c0.39429,-1.21349 4.81854,-0.88853 5.8508,-1.6385c1.03226,-0.75001 2.09039,-5.05814 3.36633,-5.05814z" data-paper-data="{&quot;origPos&quot;:null}" id="path1428-0-2-0-3" fill="#1eff00" stroke="none" stroke-width="0.88188" stroke-miterlimit="4" stroke-dashoffset="17.35"/><path d="M114.97567,187.56484c1.27594,0 2.33407,4.30813 3.36633,5.05814c1.03225,0.74997 5.45651,0.42501 5.8508,1.6385c0.39429,1.21349 -3.37601,3.55113 -3.77029,4.76462c-0.39429,1.21349 1.28192,5.32078 0.24968,6.07075c-1.03226,0.74997 -4.42055,-2.1134 -5.6965,-2.1134c-1.27594,0 -4.66424,2.86337 -5.69649,2.1134c-1.03226,-0.74997 0.64395,-4.85726 0.24968,-6.07075c-0.39429,-1.21349 -4.16458,-3.55113 -3.77029,-4.76462c0.39429,-1.21349 4.81854,-0.88853 5.8508,-1.6385c1.03226,-0.75001 2.09038,-5.05814 3.36633,-5.05814z" data-paper-data="{&quot;origPos&quot;:null}" id="path1428-0-6-3-0-0" fill="#1eff00" stroke="none" stroke-width="0.88188" stroke-miterlimit="4" stroke-dashoffset="17.35"/><path d="M137.91268,195.15753c0.17862,0 0.32678,0.60314 0.47128,0.70813c0.14453,0.10507 0.76391,0.05934 0.81911,0.22942c0.05518,0.17008 -0.47264,0.49716 -0.52784,0.66705c-0.05518,0.17008 0.17945,0.74491 0.03477,0.8499c-0.14453,0.10507 -0.61888,-0.29594 -0.79751,-0.29594c-0.17862,0 -0.65299,0.40086 -0.79751,0.29594c-0.14453,-0.10507 0.09014,-0.68001 0.03477,-0.8499c-0.05518,-0.1697 -0.58304,-0.49716 -0.52784,-0.66705c0.05518,-0.1697 0.6746,-0.12435 0.81911,-0.22942c0.14453,-0.10507 0.29265,-0.70813 0.47128,-0.70813z" data-paper-data="{&quot;origPos&quot;:null}" id="path1428-0-0-2-2-2" fill="#1eff00" stroke="none" stroke-width="0.12346" stroke-miterlimit="4" stroke-dashoffset="17.35"/></g></g></svg>