<svg version="1.1" xmlns="http://www.w3.org/2000/svg" xmlns:xlink="http://www.w3.org/1999/xlink" width="22.584" height="71.119" viewBox="0,0,22.584,71.119"><g transform="translate(-228.751,-144.364)"><g data-paper-data="{&quot;isPaintingLayer&quot;:true}" fill="#ffffff" fill-rule="nonzero" stroke="none" stroke-width="0" stroke-linecap="butt" stroke-linejoin="miter" stroke-miterlimit="10" stroke-dasharray="" stroke-dashoffset="0" style="mix-blend-mode: normal"><path d="M249.79,145.809c1.029,0.962 1.545,2.149 1.545,3.561v61.011c0,1.412 -0.482,2.632 -1.447,3.658c-0.966,0.963 -2.157,1.444 -3.573,1.444c-1.415,0 -2.638,-0.481 -3.668,-1.444c-0.965,-1.026 -1.447,-2.246 -1.447,-3.658v-46.095h-8.59c-1.094,0 -2.027,-0.353 -2.799,-1.059c-0.707,-0.706 -1.06,-1.605 -1.06,-2.695c0,-1.091 0.29,-1.893 0.869,-2.407c0.643,-0.577 1.382,-1.058 2.219,-1.443c0.9,-0.449 1.833,-0.865 2.799,-1.25c1.029,-0.449 1.931,-1.058 2.703,-1.828c1.029,-0.962 1.833,-1.99 2.412,-3.08c0.579,-1.091 1.157,-2.086 1.736,-2.985c0.579,-0.962 1.224,-1.731 1.932,-2.308c0.707,-0.578 1.672,-0.867 2.894,-0.867c1.351,0 2.51,0.483 3.475,1.445z" data-paper-data="{&quot;origPos&quot;:null}"/></g></g></svg>