<svg version="1.1" xmlns="http://www.w3.org/2000/svg" xmlns:xlink="http://www.w3.org/1999/xlink" width="372.21484" height="68.64258"><g transform="translate(-53.89258,-145.67871)"><g data-paper-data="{&quot;isPaintingLayer&quot;:true}" fill-rule="nonzero" stroke-linecap="butt" stroke-linejoin="miter" stroke-dasharray="" style="mix-blend-mode: normal"><path d="M425.00977,146.42871c0.19313,0 0.34765,0.15452 0.34765,0.34766v66.44531c0,0.19313 -0.15452,0.34961 -0.34765,0.34961h-370.01758c-0.19328,0 -0.34961,-0.15648 -0.34961,-0.34961v-66.44531c0,-0.19314 0.15637,-0.34766 0.34961,-0.34766z" data-paper-data="{&quot;origPos&quot;:null}" id="rect815-0-4" fill="#1e1e1e" stroke="#1eff00" stroke-width="1.5" stroke-miterlimit="4" stroke-dashoffset="17.35"/><path d="M64.91211,151.59863c0.62933,0 1.25934,0.1069 1.88867,0.32031c0.62933,0.21335 1.19398,0.57095 1.69531,1.07227c0.50133,0.49068 0.90746,1.14247 1.2168,1.95312c0.30933,0.80001 0.46289,1.78565 0.46289,2.95899c0,1.184 -0.15356,2.18153 -0.46289,2.99219c-0.30933,0.8 -0.71546,1.45178 -1.2168,1.95312c-0.50133,0.49058 -1.06598,0.84127 -1.69531,1.05469c-0.62933,0.21342 -1.25934,0.32031 -1.88867,0.32031h-3.79101c-0.16,0 -0.31551,-0.02666 -0.46484,-0.08008c-0.14933,-0.064 -0.28306,-0.14927 -0.40039,-0.25586c-0.11733,-0.10665 -0.21244,-0.24039 -0.28711,-0.40039c-0.07467,-0.16 -0.11328,-0.33534 -0.11328,-0.52734v-10.11133c0,-0.34124 0.12381,-0.63544 0.36914,-0.88086c0.24533,-0.24541 0.54448,-0.36914 0.89648,-0.36914zM81.98438,151.83887c0.16,0.1601 0.24023,0.35721 0.24023,0.59179v3.79297c0.05332,-0.064 0.13852,-0.1661 0.25586,-0.30469c0.12799,-0.13873 0.29838,-0.27743 0.51172,-0.41601c0.21333,-0.14942 0.47883,-0.27623 0.79883,-0.38281c0.32,-0.10659 0.69938,-0.16016 1.13672,-0.16016c0.576,0 1.09903,0.11194 1.56836,0.33594c0.46933,0.224 0.86855,0.54493 1.19922,0.96093c0.34132,0.40535 0.60381,0.89471 0.78516,1.47071c0.18134,0.56534 0.27148,1.19039 0.27148,1.87305c0,0.68265 -0.10203,1.30575 -0.30469,1.87109c-0.20267,0.56534 -0.48003,1.05665 -0.83203,1.47265c-0.34133,0.40532 -0.74551,0.71936 -1.21484,0.94336c-0.45867,0.224 -0.94999,0.33594 -1.47266,0.33594c-0.31999,0 -0.60231,-0.01487 -0.84766,-0.04687c-0.24534,-0.032 -0.46922,-0.08558 -0.67187,-0.16016c-0.20267,-0.08542 -0.3998,-0.19231 -0.5918,-0.32031c-0.18133,-0.1279 -0.37845,-0.28343 -0.5918,-0.46485v0.14454c0,0.23473 -0.08023,0.43683 -0.24023,0.60742c-0.16001,0.16 -0.35714,0.24023 -0.5918,0.24023c-0.23468,0 -0.43872,-0.08023 -0.60937,-0.24023c-0.16,-0.17074 -0.24023,-0.37284 -0.24023,-0.60742v-10.94532c0,-0.23468 0.08023,-0.43179 0.24023,-0.59179c0.17068,-0.16 0.37472,-0.24024 0.60937,-0.24024c0.23467,0 0.4318,0.08024 0.5918,0.24024zM117.19336,151.59863c0.62933,0 1.25934,0.1069 1.88867,0.32031c0.62933,0.21335 1.19398,0.57095 1.69531,1.07227c0.50133,0.49068 0.90746,1.14247 1.2168,1.95312c0.30933,0.80001 0.46289,1.78565 0.46289,2.95899c0,1.184 -0.15356,2.18153 -0.46289,2.99219c-0.30933,0.8 -0.71546,1.45178 -1.2168,1.95312c-0.50133,0.49058 -1.06598,0.84127 -1.69531,1.05469c-0.62933,0.21342 -1.25934,0.32031 -1.88867,0.32031h-3.79101c-0.15999,0 -0.3155,-0.02666 -0.46484,-0.08008c-0.14932,-0.064 -0.28305,-0.14927 -0.40039,-0.25586c-0.11734,-0.10665 -0.21245,-0.24039 -0.28711,-0.40039c-0.07466,-0.16 -0.11328,-0.33534 -0.11328,-0.52734v-10.11133c0,-0.34124 0.1238,-0.63544 0.36914,-0.88086c0.24533,-0.24541 0.54448,-0.36914 0.89648,-0.36914zM61.74414,162.54394h2.80078c0.62933,0 1.1791,-0.10689 1.64844,-0.32031c0.46933,-0.224 0.85864,-0.53305 1.16797,-0.92773c0.30933,-0.40532 0.53817,-0.88974 0.6875,-1.45508c0.14933,-0.576 0.22266,-1.22284 0.22266,-1.9375c0,-0.704 -0.07332,-1.33896 -0.22266,-1.9043c-0.14933,-0.576 -0.37817,-1.06042 -0.6875,-1.45508c-0.30933,-0.40526 -0.69863,-0.71431 -1.16797,-0.92773c-0.46933,-0.224 -1.0191,-0.33594 -1.64844,-0.33594h-2.80078zM114.02539,162.54394h2.80078c0.62933,0 1.17911,-0.10689 1.64844,-0.32031c0.46933,-0.224 0.85863,-0.53305 1.16797,-0.92773c0.30932,-0.40532 0.53816,-0.88974 0.6875,-1.45508c0.14934,-0.576 0.22266,-1.22284 0.22266,-1.9375c0,-0.704 -0.07331,-1.33896 -0.22266,-1.9043c-0.14933,-0.576 -0.37817,-1.06042 -0.6875,-1.45508c-0.30933,-0.40526 -0.69863,-0.71431 -1.16797,-0.92773c-0.46933,-0.224 -1.0191,-0.33594 -1.64844,-0.33594h-2.80078zM146.64453,155.13574c0.46933,0.18134 0.85368,0.40025 1.15235,0.65625c0.30932,0.256 0.53815,0.52151 0.6875,0.79883c0.14934,0.27734 0.2246,0.51308 0.2246,0.70508c0,0.24541 -0.0852,0.43563 -0.25586,0.57422c-0.17065,0.128 -0.36283,0.19336 -0.57617,0.19336c-0.14933,0 -0.28801,-0.03675 -0.41601,-0.11133c-0.128,-0.07459 -0.21815,-0.20335 -0.27149,-0.38477c-0.05334,-0.17068 -0.14348,-0.33609 -0.27148,-0.49609c-0.11734,-0.16 -0.27284,-0.30364 -0.46485,-0.43164c-0.18133,-0.128 -0.40024,-0.23011 -0.65624,-0.30469c-0.24534,-0.07458 -0.51774,-0.11133 -0.81641,-0.11133c-0.33067,0 -0.65957,0.06341 -0.99024,0.19141c-0.32,0.11731 -0.61419,0.30949 -0.88085,0.57617c-0.25601,0.26666 -0.46501,0.6193 -0.625,1.05664c-0.16001,0.42666 -0.23829,0.94278 -0.23829,1.55078c0,0.608 0.07829,1.12608 0.23829,1.55274c0.15999,0.42668 0.36899,0.7724 0.625,1.03906c0.26666,0.26666 0.56085,0.46575 0.88085,0.59375c0.33067,0.11742 0.65957,0.17578 0.99024,0.17578c0.29866,0 0.57106,-0.0387 0.81641,-0.11328c0.25599,-0.07458 0.4749,-0.17474 0.65624,-0.30274c0.192,-0.128 0.34751,-0.27164 0.46485,-0.43164c0.128,-0.16007 0.21814,-0.32551 0.27148,-0.49609c0.05334,-0.18142 0.14349,-0.31018 0.27149,-0.38477c0.12799,-0.07458 0.26667,-0.11132 0.41601,-0.11132c0.21334,0 0.40552,0.06844 0.57617,0.20703c0.18135,0.12807 0.27149,0.31034 0.27149,0.54492c0,0.11734 -0.0535,0.31445 -0.16016,0.5918c-0.10667,0.26665 -0.29688,0.53906 -0.57422,0.8164c-0.27733,0.27724 -0.66167,0.52291 -1.15234,0.73633c-0.48,0.21342 -1.10009,0.31836 -1.85742,0.31836c-0.62933,0 -1.21577,-0.11194 -1.75977,-0.33594c-0.53333,-0.23468 -0.99596,-0.56056 -1.39062,-0.97656c-0.39467,-0.416 -0.70569,-0.91228 -0.92969,-1.48828c-0.224,-0.58666 -0.33594,-1.23155 -0.33594,-1.93555c0,-0.71466 0.11194,-1.35954 0.33594,-1.93554c0.224,-0.58669 0.53502,-1.08791 0.92969,-1.50391c0.39466,-0.416 0.85729,-0.73694 1.39062,-0.96094c0.544,-0.23458 1.13044,-0.35156 1.75977,-0.35156c0.64,0 1.19473,0.09706 1.66406,0.28906zM76.84766,155.12012c0.53333,0.18131 0.991,0.44878 1.375,0.80078c0.39467,0.34134 0.70569,0.76233 0.92969,1.26367c0.224,0.50132 0.33594,1.07094 0.33594,1.71094c0,0.39476 -0.09706,0.6939 -0.28906,0.89648c-0.192,0.20258 -0.41587,0.30469 -0.67187,0.30469h-5.85547c0,0.02142 0.00497,0.11148 0.01562,0.27148c0.02133,0.14924 0.05799,0.33151 0.11133,0.54493c0.064,0.21326 0.14919,0.44208 0.25586,0.6875c0.11733,0.23473 0.27284,0.45366 0.46484,0.65624c0.192,0.20276 0.42579,0.37314 0.70312,0.51172c0.288,0.128 0.63568,0.19141 1.04102,0.19141c0.33067,0 0.61299,-0.02666 0.84766,-0.08008c0.23467,-0.05342 0.44367,-0.13365 0.625,-0.24023c0.18133,-0.10666 0.34481,-0.23844 0.49414,-0.39844c0.14933,-0.17066 0.29988,-0.36975 0.44922,-0.59375c0.08534,-0.128 0.18045,-0.21807 0.28711,-0.27148c0.10666,-0.05342 0.2186,-0.08008 0.33594,-0.08008c0.192,0 0.3693,0.06845 0.5293,0.20703c0.16,0.13858 0.24023,0.31588 0.24023,0.5293c0,0.128 -0.07033,0.32017 -0.20898,0.57617c-0.13867,0.256 -0.36254,0.51158 -0.67187,0.76758c-0.29867,0.256 -0.68797,0.47987 -1.16797,0.67187c-0.48,0.192 -1.06643,0.28711 -1.75977,0.28711c-0.704,0 -1.334,-0.12681 -1.88867,-0.38281c-0.55467,-0.256 -1.0242,-0.59676 -1.4082,-1.02344c-0.37333,-0.43732 -0.66062,-0.94548 -0.86328,-1.52148c-0.192,-0.576 -0.28906,-1.1773 -0.28906,-1.80664c0,-0.65066 0.10202,-1.26385 0.30469,-1.83985c0.20267,-0.58668 0.4919,-1.09482 0.86523,-1.52148c0.384,-0.42659 0.84167,-0.7624 1.375,-1.00782c0.53333,-0.256 1.13163,-0.38281 1.79297,-0.38281c0.608,0 1.17265,0.09007 1.69531,0.27149zM129.89649,155.50293c0.65067,0.42666 0.97656,1.06164 0.97656,1.9043v5.96875c0,0.23473 -0.08023,0.43683 -0.24023,0.60742c-0.16001,0.16 -0.35714,0.24023 -0.5918,0.24023c-0.23468,0 -0.43676,-0.08023 -0.60742,-0.24023c-0.16,-0.17074 -0.24023,-0.37284 -0.24023,-0.60742v-0.25586c-0.40533,0.43726 -0.86991,0.72949 -1.39258,0.8789c-0.512,0.14942 -1.05681,0.22461 -1.63281,0.22461c-0.36267,0 -0.73018,-0.04853 -1.10352,-0.14453c-0.36267,-0.10658 -0.69352,-0.2651 -0.99219,-0.47851c-0.28799,-0.21332 -0.52178,-0.48079 -0.70312,-0.80079c-0.18134,-0.32 -0.27148,-0.70434 -0.27148,-1.15234c0,-0.512 0.10008,-0.93796 0.30273,-1.2793c0.20266,-0.352 0.47507,-0.63928 0.81641,-0.86328c0.34133,-0.22392 0.73064,-0.39625 1.16797,-0.51367c0.448,-0.11717 0.91754,-0.20244 1.4082,-0.25586c0.56533,-0.064 1.00812,-0.13245 1.32812,-0.20703c0.32,-0.08542 0.55875,-0.18053 0.71875,-0.28711c0.16,-0.10683 0.25706,-0.23056 0.28906,-0.36914c0.04266,-0.13876 0.06445,-0.29426 0.06445,-0.46484c0,-0.20259 -0.05844,-0.37793 -0.17578,-0.52735c-0.11733,-0.14942 -0.26788,-0.27119 -0.44922,-0.36719c-0.18133,-0.096 -0.38342,-0.1664 -0.60742,-0.20898c-0.22399,-0.05342 -0.44291,-0.08008 -0.65625,-0.08008c-0.38401,0 -0.69308,0.03171 -0.92773,0.0957c-0.23466,0.06401 -0.42683,0.14928 -0.57617,0.25586c-0.14934,0.10659 -0.27119,0.23535 -0.36719,0.38477c-0.08506,0.14885 -0.16579,0.30346 -0.24023,0.46289v0.00195c-0.06396,0.12725 -0.15655,0.22336 -0.27344,0.28711c-0.10666,0.05342 -0.2186,0.08008 -0.33594,0.08008c-0.21333,0 -0.41045,-0.0704 -0.5918,-0.20898c-0.18134,-0.13859 -0.27148,-0.33076 -0.27148,-0.57618c0,-0.09599 0.02674,-0.21297 0.08008,-0.35156c0.096,-0.22392 0.22477,-0.44283 0.38477,-0.65625c0.16,-0.22407 0.372,-0.42121 0.63867,-0.59179c0.27733,-0.17069 0.61314,-0.30439 1.00781,-0.4004c0.40533,-0.10658 0.89666,-0.1582 1.47266,-0.1582c1.088,0 1.9518,0.21696 2.5918,0.6543zM155.41016,155.12012c0.53333,0.18131 0.991,0.44878 1.375,0.80078c0.39466,0.34134 0.70568,0.76233 0.92968,1.26367c0.224,0.50132 0.33594,1.07094 0.33594,1.71094c0,0.39476 -0.09706,0.6939 -0.28906,0.89648c-0.192,0.20258 -0.41588,0.30469 -0.67188,0.30469h-5.85546c-0.00001,0.02142 0.00504,0.11148 0.01562,0.27148c0.02132,0.14924 0.05799,0.33151 0.11133,0.54493c0.064,0.21326 0.1492,0.44208 0.25586,0.6875c0.11733,0.23473 0.27284,0.45366 0.46484,0.65624c0.192,0.20276 0.42579,0.37314 0.70313,0.51172c0.288,0.128 0.63568,0.19141 1.04101,0.19141c0.33068,0 0.613,-0.02666 0.84766,-0.08008c0.23466,-0.05342 0.44366,-0.13365 0.625,-0.24023c0.18132,-0.10666 0.3448,-0.23844 0.49414,-0.39844c0.14932,-0.17066 0.29988,-0.36975 0.44922,-0.59375c0.08534,-0.128 0.18045,-0.21807 0.28711,-0.27148c0.10666,-0.05342 0.21859,-0.08008 0.33593,-0.08008c0.192,0 0.3693,0.06845 0.5293,0.20703c0.16,0.13858 0.24024,0.31588 0.24024,0.5293c0,0.128 -0.07033,0.32017 -0.20899,0.57617c-0.13866,0.256 -0.36254,0.51158 -0.67187,0.76758c-0.29867,0.256 -0.68797,0.47987 -1.16797,0.67187c-0.48,0.192 -1.06643,0.28711 -1.75977,0.28711c-0.704,0 -1.334,-0.12681 -1.88867,-0.38281c-0.55467,-0.256 -1.0242,-0.59676 -1.4082,-1.02344c-0.37334,-0.43732 -0.66063,-0.94548 -0.86328,-1.52148c-0.192,-0.576 -0.28907,-1.1773 -0.28907,-1.80664c0,-0.65066 0.10203,-1.26385 0.30469,-1.83985c0.20267,-0.58668 0.4919,-1.09482 0.86524,-1.52148c0.384,-0.42659 0.84166,-0.7624 1.375,-1.00782c0.53333,-0.256 1.13163,-0.38281 1.79296,-0.38281c0.608,0 1.17265,0.09007 1.69532,0.27149zM91.1211,155.21582c0.16,0.16007 0.24023,0.35721 0.24023,0.5918v5.56836c0,0.24524 0.0535,0.4592 0.16016,0.64062c0.11734,0.18134 0.26098,0.33489 0.43164,0.46289c0.18132,0.11742 0.38041,0.20944 0.59375,0.27344c0.22399,0.064 0.44095,0.0957 0.6543,0.0957c0.352,0 0.67294,-0.05836 0.96094,-0.17578c0.288,-0.12792 0.5287,-0.30025 0.7207,-0.51367c0.20268,-0.21332 0.35623,-0.46395 0.46289,-0.75195c0.10666,-0.29869 0.16016,-0.61767 0.16016,-0.95899v-4.64062c0,-0.23466 0.08023,-0.4318 0.24023,-0.5918c0.16001,-0.17058 0.35714,-0.25586 0.5918,-0.25586c0.23467,0 0.4318,0.08528 0.5918,0.25586c0.17066,0.16007 0.25586,0.35721 0.25586,0.5918v7.56836c0,0.23473 -0.0852,0.43683 -0.25586,0.60742c-0.16001,0.16 -0.35714,0.24023 -0.5918,0.24023c-0.23467,0 -0.4318,-0.08023 -0.5918,-0.24023c-0.16,-0.17074 -0.24023,-0.37284 -0.24023,-0.60742v-0.28711c-0.10666,0.096 -0.24039,0.21298 -0.40039,0.35156c-0.14933,0.128 -0.33459,0.24977 -0.55859,0.36719c-0.224,0.11716 -0.48649,0.21927 -0.78516,0.30468c-0.288,0.07459 -0.62381,0.11133 -1.00781,0.11133c-0.39467,0 -0.77901,-0.05357 -1.15234,-0.16015c-0.36267,-0.11735 -0.68856,-0.28772 -0.97656,-0.51172c-0.28801,-0.224 -0.51684,-0.50138 -0.6875,-0.83203c-0.17066,-0.33066 -0.25586,-0.71501 -0.25586,-1.15235v-5.75976c0,-0.23466 0.08023,-0.4318 0.24023,-0.5918c0.17067,-0.17058 0.37276,-0.25586 0.60742,-0.25586c0.23467,0 0.4318,0.08528 0.5918,0.25586zM103.71094,155.26465c0.45867,0.20266 0.84301,0.4315 1.15234,0.6875v-0.14453c0,-0.23466 0.08023,-0.4318 0.24023,-0.5918c0.16001,-0.17058 0.35714,-0.25586 0.5918,-0.25586c0.23467,0 0.4318,0.08528 0.5918,0.25586c0.17066,0.16007 0.25586,0.35721 0.25586,0.5918v8.20898c0,0.53334 -0.11194,1.01776 -0.33594,1.45508c-0.21333,0.43734 -0.50557,0.81175 -0.87891,1.12109c-0.37333,0.32008 -0.81117,0.56575 -1.3125,0.73633c-0.50133,0.18142 -1.03923,0.27149 -1.61523,0.27149c-0.62933,-0.00001 -1.16919,-0.08024 -1.61719,-0.24024c-0.448,-0.14927 -0.82047,-0.3315 -1.11914,-0.54492c-0.29867,-0.20266 -0.51759,-0.41467 -0.65625,-0.63867c-0.13866,-0.21334 -0.20703,-0.38372 -0.20703,-0.51172c0,-0.21332 0.06837,-0.40055 0.20703,-0.56055c0.13867,-0.16 0.30409,-0.24023 0.49609,-0.24023c0.192,0 0.38417,0.1021 0.57617,0.30468c0.13867,0.15993 0.27736,0.2986 0.41602,0.41602c0.13868,0.128 0.29223,0.2349 0.46289,0.32031c0.18133,0.08542 0.38537,0.14883 0.60937,0.19141c0.23467,0.04258 0.51203,0.06445 0.83203,0.06445c0.34133,0 0.66032,-0.04349 0.95898,-0.1289c0.29867,-0.07459 0.56116,-0.20335 0.78516,-0.38477c0.224,-0.17066 0.39934,-0.39453 0.52734,-0.67187c0.128,-0.26666 0.19141,-0.58565 0.19141,-0.95899v-1.05664c-0.10667,0.11724 -0.23844,0.25097 -0.39844,0.40039c-0.16,0.13868 -0.35217,0.27239 -0.57617,0.40039c-0.224,0.128 -0.48649,0.23994 -0.78516,0.33594c-0.29867,0.08542 -0.6444,0.12695 -1.03906,0.12695c-0.576,0 -1.10894,-0.09007 -1.59961,-0.27148c-0.48,-0.18134 -0.89605,-0.45869 -1.24805,-0.83203c-0.34133,-0.37332 -0.60878,-0.85277 -0.80078,-1.43946c-0.192,-0.58666 -0.28906,-1.28007 -0.28906,-2.08007c0,-0.81066 0.10697,-1.50408 0.32031,-2.08008c0.21333,-0.58669 0.49566,-1.06614 0.84766,-1.43946c0.36267,-0.38392 0.77871,-0.66819 1.24805,-0.84961c0.48,-0.18141 0.98815,-0.27148 1.52148,-0.27148c0.65067,0 1.19848,0.1021 1.64648,0.30469zM133.5586,155.21582c0.16,0.16007 0.24023,0.35721 0.24023,0.5918v0.28906c0.10666,-0.096 0.23542,-0.20794 0.38477,-0.33594c0.16,-0.13858 0.35217,-0.26735 0.57617,-0.38476c0.224,-0.11742 0.47958,-0.21253 0.76758,-0.28711c0.29867,-0.08542 0.63944,-0.12891 1.02344,-0.12891c0.39467,0 0.77405,0.05836 1.13672,0.17578c0.37333,0.10666 0.70419,0.27209 0.99219,0.49609c0.28801,0.224 0.51684,0.50135 0.6875,0.83204c0.17066,0.33065 0.25586,0.715 0.25586,1.15234v5.75977c0,0.23473 -0.0852,0.43683 -0.25586,0.60742c-0.16001,0.16 -0.35714,0.24023 -0.5918,0.24023c-0.23467,0 -0.4318,-0.08023 -0.5918,-0.24023c-0.16,-0.17074 -0.24023,-0.37284 -0.24023,-0.60742v-5.56836c0,-0.23459 -0.05844,-0.44163 -0.17578,-0.62305c-0.10666,-0.19193 -0.2503,-0.34743 -0.43164,-0.46484c-0.17067,-0.128 -0.3678,-0.22311 -0.5918,-0.28711c-0.21332,-0.064 -0.42728,-0.09571 -0.64062,-0.09571c-0.352,0 -0.67294,0.06341 -0.96094,0.19141c-0.28801,0.11724 -0.53172,0.28268 -0.73437,0.49609c-0.19201,0.21334 -0.34256,0.46892 -0.44922,0.76758c-0.10666,0.288 -0.16016,0.60202 -0.16016,0.94336v4.64063c0,0.23473 -0.08023,0.43683 -0.24023,0.60742c-0.16001,0.16 -0.35714,0.24023 -0.5918,0.24023c-0.23468,0 -0.43676,-0.08023 -0.60742,-0.24023c-0.16,-0.17074 -0.24023,-0.37284 -0.24023,-0.60742v-7.56836c0,-0.23466 0.08023,-0.4318 0.24023,-0.5918c0.17068,-0.17058 0.37276,-0.25586 0.60742,-0.25586c0.23467,0 0.4318,0.08528 0.5918,0.25586zM74.17578,156.39941c-0.27733,0.11727 -0.51308,0.2678 -0.70508,0.44922c-0.18133,0.17058 -0.32497,0.3608 -0.43164,0.57422c-0.10666,0.21324 -0.1869,0.41233 -0.24023,0.59375c-0.05334,0.18142 -0.08504,0.33993 -0.0957,0.47852c-0.01066,0.12926 -0.01562,0.20445 -0.01562,0.22461h5.18359c0,-0.33069 -0.05349,-0.64471 -0.16016,-0.94336c-0.10667,-0.29866 -0.27209,-0.56116 -0.49609,-0.78516c-0.21333,-0.23476 -0.4907,-0.42001 -0.83203,-0.55859c-0.34133,-0.13859 -0.74055,-0.20899 -1.19922,-0.20899c-0.39467,0 -0.73048,0.05837 -1.00781,0.17578zM152.73828,156.39941c-0.27733,0.11727 -0.51308,0.2678 -0.70508,0.44922c-0.18134,0.17058 -0.32498,0.3608 -0.43164,0.57422c-0.10666,0.21324 -0.18689,0.41233 -0.24023,0.59375c-0.05342,0.18142 -0.08512,0.33993 -0.09571,0.47852c-0.01058,0.12926 -0.01562,0.20445 -0.01562,0.22461h5.18359c0,-0.33069 -0.05349,-0.64471 -0.16015,-0.94336c-0.10667,-0.29866 -0.2721,-0.56116 -0.4961,-0.78516c-0.21333,-0.23476 -0.49069,-0.42001 -0.83203,-0.55859c-0.34133,-0.13859 -0.74055,-0.20899 -1.19922,-0.20899c-0.39466,0 -0.73047,0.05837 -1.00781,0.17578zM83.56836,156.6084c-0.30932,0.18131 -0.57181,0.42698 -0.78516,0.73633c-0.21332,0.29865 -0.37875,0.64437 -0.49609,1.03906c-0.10666,0.384 -0.16016,0.79014 -0.16016,1.2168c0,0.416 0.0535,0.82018 0.16016,1.21484c0.11732,0.39468 0.28275,0.74236 0.49609,1.04101c0.21333,0.29859 0.47582,0.53734 0.78516,0.71875c0.32,0.18142 0.68256,0.27344 1.08789,0.27344c0.39467,0 0.74535,-0.09202 1.05469,-0.27344c0.31999,-0.18134 0.58744,-0.42009 0.80078,-0.71875c0.22401,-0.29865 0.38943,-0.64633 0.49609,-1.04101c0.11734,-0.39466 0.17578,-0.79884 0.17578,-1.21484c0,-0.42666 -0.05844,-0.8328 -0.17578,-1.2168c-0.10666,-0.39469 -0.27209,-0.74041 -0.49609,-1.03906c-0.21333,-0.30925 -0.48078,-0.55492 -0.80078,-0.73633c-0.30933,-0.18142 -0.66002,-0.27344 -1.05469,-0.27344c-0.40533,0 -0.76789,0.09202 -1.08789,0.27344zM100.40039,157.16699c-0.46933,0.55468 -0.70508,1.36694 -0.70508,2.4336c0,1.06665 0.23575,1.87695 0.70508,2.43164c0.46933,0.544 1.11421,0.8164 1.93555,0.8164c0.82133,0 1.46125,-0.2724 1.91992,-0.8164c0.46933,-0.55469 0.70312,-1.36499 0.70312,-2.43164c0,-1.06666 -0.23379,-1.87892 -0.70312,-2.4336c-0.45867,-0.55466 -1.09859,-0.83203 -1.91992,-0.83203c-0.82133,0 -1.46621,0.27737 -1.93555,0.83203zM128.79297,159.74316c-0.20267,0.064 -0.44337,0.11253 -0.7207,0.14453c-0.26667,0.032 -0.54899,0.06875 -0.84766,0.11133c-0.288,0.04259 -0.57032,0.09616 -0.84766,0.16016c-0.27733,0.064 -0.52795,0.16106 -0.75195,0.28906c-0.22401,0.11732 -0.40626,0.27089 -0.54492,0.46289c-0.128,0.192 -0.19141,0.43765 -0.19141,0.73633c0,0.23466 0.04853,0.4318 0.14453,0.5918c0.10667,0.14941 0.24039,0.27314 0.40039,0.36914c0.16001,0.08541 0.34031,0.14882 0.54297,0.1914c0.20267,0.032 0.40476,0.04883 0.60742,0.04883c0.30933,0 0.6184,-0.03365 0.92773,-0.09765c0.30933,-0.07459 0.58669,-0.19157 0.83203,-0.35157c0.25599,-0.16 0.46003,-0.37201 0.60937,-0.63867c0.16,-0.26666 0.24023,-0.5975 0.24023,-0.99219v-1.13672zM67.20703,169.29199c0.63028,0.31985 1.15676,0.74702 1.58008,1.2832c0.42332,0.53622 0.74457,1.15152 0.96094,1.84766c0.21636,0.68672 0.32422,1.40333 0.32422,2.14648c0,0.75258 -0.10786,1.47577 -0.32422,2.17188c-0.21636,0.68674 -0.53762,1.2978 -0.96094,1.83398c-0.42332,0.53622 -0.9498,0.96531 -1.58008,1.28516c-0.63028,0.31982 -1.35967,0.48047 -2.1875,0.48047c-0.83723,0 -1.57089,-0.16065 -2.20117,-0.48047c-0.63028,-0.31985 -1.15676,-0.74894 -1.58008,-1.28516c-0.42332,-0.53618 -0.74262,-1.14724 -0.95898,-1.83398c-0.20696,-0.69611 -0.31055,-1.4193 -0.31055,-2.17188c0,-0.74315 0.10359,-1.45976 0.31055,-2.14648c0.21636,-0.69614 0.53566,-1.31144 0.95898,-1.84766c0.42332,-0.53618 0.9498,-0.96335 1.58008,-1.2832c0.63028,-0.31985 1.36394,-0.48047 2.20117,-0.48047c0.82783,0 1.55722,0.16062 2.1875,0.48047zM85.08008,168.9248c0.15993,0.07509 0.30155,0.17877 0.42383,0.31055c0.1317,0.12238 0.24383,0.27253 0.33789,0.45117c0.09408,0.16925 0.17439,0.34889 0.24023,0.53711l2.91992,8.4375c0.04704,0.14121 0.07227,0.27233 0.07227,0.39453c0,0.11289 -0.02522,0.23541 -0.07227,0.36719c-0.03762,0.13153 -0.09698,0.24996 -0.18164,0.35352c-0.08466,0.1033 -0.19447,0.19224 -0.32617,0.26757c-0.1317,0.06577 -0.29037,0.09766 -0.47852,0.09766c-0.22578,0 -0.43722,-0.06549 -0.63477,-0.19727c-0.18814,-0.1317 -0.32122,-0.30939 -0.39648,-0.53515l-0.80273,-2.69531h-3.27539l-0.80273,2.69531c-0.07527,0.22569 -0.21261,0.40338 -0.41016,0.53515c-0.18815,0.13178 -0.39533,0.19922 -0.62109,0.19922c-0.32925,0 -0.59152,-0.10973 -0.78906,-0.32617c-0.18814,-0.22579 -0.2832,-0.47951 -0.2832,-0.76172c0,-0.1223 0.02327,-0.25343 0.07031,-0.39453l2.93555,-8.4375c0.06586,-0.18814 0.14617,-0.36778 0.24023,-0.53711c0.09408,-0.17882 0.20194,-0.32896 0.32422,-0.45117c0.12229,-0.13153 0.2639,-0.23521 0.42383,-0.31055c0.15991,-0.07533 0.34381,-0.11328 0.55078,-0.11328c0.19755,0 0.37523,0.03795 0.53516,0.11328zM106.67969,169.14941c0.5268,0.22577 0.9687,0.49851 1.32617,0.81836c0.35746,0.31043 0.62594,0.63169 0.80469,0.96094c0.17872,0.32925 0.26758,0.59152 0.26758,0.78906c0,0.15045 -0.03802,0.29205 -0.11328,0.42383c-0.06586,0.13178 -0.1547,0.24391 -0.26758,0.33789c-0.11289,0.09399 -0.23976,0.17012 -0.38086,0.22656c-0.1317,0.05644 -0.26283,0.08399 -0.39453,0.08399c-0.14111,0 -0.26798,-0.03189 -0.38086,-0.09766c-0.11291,-0.06576 -0.20369,-0.16509 -0.26953,-0.29687c-0.07526,-0.15053 -0.16837,-0.32394 -0.28125,-0.52149c-0.10348,-0.20696 -0.24935,-0.39513 -0.4375,-0.56445c-0.17873,-0.17882 -0.40919,-0.33092 -0.69141,-0.45313c-0.27281,-0.1222 -0.61538,-0.18164 -1.0293,-0.18164c-0.47035,0 -0.88898,0.11648 -1.25586,0.35157c-0.35747,0.22576 -0.66398,0.5218 -0.91797,0.88867c-0.24458,0.36689 -0.43275,0.78551 -0.56445,1.25586c-0.12228,0.46095 -0.18359,0.92809 -0.18359,1.39843c0,0.47978 0.06131,0.95348 0.18359,1.42383c0.1317,0.46095 0.31987,0.87532 0.56445,1.24219c0.25399,0.36699 0.5605,0.66726 0.91797,0.90234c0.36688,0.22577 0.7855,0.33985 1.25586,0.33985c0.55502,0 1.01593,-0.08893 1.38281,-0.26758c0.36688,-0.18807 0.65863,-0.40573 0.875,-0.65039c0.21636,-0.24466 0.36651,-0.48366 0.45117,-0.71875c0.08466,-0.24459 0.12695,-0.42423 0.12695,-0.53711c0,-0.16932 -0.06129,-0.2667 -0.18359,-0.29492c-0.12231,-0.02822 -0.25965,-0.04297 -0.41016,-0.04297h-1.29687c-0.24458,0 -0.45602,-0.08458 -0.63477,-0.25391c-0.16932,-0.17864 -0.25391,-0.3901 -0.25391,-0.63476c0,-0.24461 0.08458,-0.45177 0.25391,-0.6211c0.17874,-0.17864 0.39018,-0.26953 0.63477,-0.26953h2.93359c0.32926,0 0.5702,0.12253 0.7207,0.36719c0.1505,0.23516 0.22461,0.54593 0.22461,0.93164c0,0.26338 -0.04229,0.5699 -0.12695,0.91797c-0.07526,0.33867 -0.19591,0.6855 -0.36523,1.04297c-0.16933,0.35747 -0.38699,0.71052 -0.65039,1.05859c-0.25399,0.33865 -0.55855,0.64516 -0.91602,0.91797c-0.35747,0.27281 -0.76757,0.49279 -1.22851,0.66211c-0.46095,0.16 -0.97268,0.24023 -1.53711,0.24023c-0.84664,0 -1.59078,-0.15866 -2.23047,-0.47851c-0.63028,-0.31982 -1.15676,-0.74467 -1.58008,-1.27149c-0.41391,-0.53618 -0.72895,-1.14724 -0.94531,-1.83398c-0.20697,-0.69611 -0.31055,-1.4193 -0.31055,-2.17188c0,-0.74315 0.10358,-1.46401 0.31055,-2.16015c0.21636,-0.69611 0.5314,-1.30717 0.94531,-1.83399c0.42332,-0.53618 0.9498,-0.96335 1.58008,-1.2832c0.63969,-0.31985 1.38383,-0.48047 2.23047,-0.48047c0.70553,0 1.32086,0.11213 1.84766,0.33789zM76.70118,169.00879c0.3951,0 0.77143,0.07614 1.12891,0.22656c0.35747,0.1505 0.66824,0.35769 0.93164,0.62109c0.26339,0.26341 0.47057,0.57222 0.62109,0.92969c0.15992,0.34805 0.24023,0.7244 0.24023,1.12891c0,0.6397 -0.16063,1.19566 -0.48047,1.66601c-0.31043,0.47045 -0.77561,0.80876 -1.39648,1.01563c-0.10348,0.03779 -0.1543,0.07574 -0.1543,0.11328c0,0.05644 0.05508,0.09873 0.16797,0.12695c0.16933,0.02822 0.33422,0.07896 0.49414,0.1543c0.16932,0.07534 0.31947,0.17467 0.45117,0.29688c0.1317,0.1128 0.24578,0.25015 0.33984,0.41015c0.09398,0.15043 0.14907,0.31959 0.16797,0.50781l0.32617,2.94922c0.01882,0.16003 -0.00445,0.29967 -0.07031,0.42188c-0.05644,0.1222 -0.14298,0.22588 -0.25586,0.31054c-0.10348,0.08467 -0.22413,0.15015 -0.36523,0.19727c-0.1317,0.03754 -0.26478,0.05664 -0.39648,0.05664c-0.27281,0 -0.50753,-0.08023 -0.70508,-0.24023c-0.19755,-0.15993 -0.30967,-0.37136 -0.33789,-0.63477l-0.31055,-2.5957c-0.01881,-0.11288 -0.06537,-0.23131 -0.14062,-0.35352c-0.06585,-0.1222 -0.17566,-0.23433 -0.32617,-0.33789c-0.15051,-0.11288 -0.34295,-0.20181 -0.57812,-0.26758c-0.23518,-0.06576 -0.52267,-0.09961 -0.86133,-0.09961h-2.03125v3.45703c0,0.30113 -0.10786,0.55681 -0.32422,0.76368c-0.20696,0.20686 -0.46069,0.30859 -0.76172,0.30859c-0.30103,0 -0.55476,-0.10173 -0.76172,-0.30859c-0.20696,-0.20697 -0.31055,-0.46265 -0.31055,-0.76368v-8.95898c0,-0.08466 0.01279,-0.18834 0.04102,-0.31055c0.02822,-0.13178 0.08526,-0.2543 0.16992,-0.36718c0.08466,-0.12221 0.19678,-0.22154 0.33789,-0.29688c0.15051,-0.08466 0.33868,-0.12695 0.56445,-0.12695zM91.9668,169.26269c0.24457,0.15993 0.45797,0.39038 0.63672,0.69141l4.17578,7v-6.92969c0,-0.28223 0.09933,-0.5212 0.29687,-0.71875c0.20696,-0.19754 0.44594,-0.29687 0.71875,-0.29687c0.28222,0 0.52316,0.09933 0.7207,0.29687c0.20697,0.19757 0.31055,0.43655 0.31055,0.71875v8.9043c0,0.16942 -0.03377,0.33004 -0.09961,0.48047c-0.06586,0.1411 -0.1547,0.26798 -0.26758,0.38086c-0.10349,0.11288 -0.23036,0.20181 -0.38086,0.26758c-0.14111,0.05644 -0.29747,0.08398 -0.4668,0.08398c-0.32925,0 -0.61479,-0.08458 -0.85937,-0.25391c-0.23516,-0.16932 -0.44235,-0.39977 -0.62109,-0.6914l-4.17773,-6.99805v6.92774c0,0.27288 -0.10358,0.51383 -0.31055,0.7207c-0.19755,0.19754 -0.43654,0.29492 -0.71875,0.29492c-0.2728,0 -0.51374,-0.09738 -0.7207,-0.29492c-0.19754,-0.20694 -0.29492,-0.4479 -0.29492,-0.7207v-8.91797c0,-0.32935 0.11637,-0.61062 0.35156,-0.84571c0.23518,-0.23508 0.52267,-0.35351 0.86133,-0.35351c0.32924,0 0.61051,0.08458 0.8457,0.2539zM117.67578,169.00879c0.25398,0 0.46969,0.08893 0.64844,0.26758c0.17875,0.17872 0.26758,0.39638 0.26758,0.65039c0,0.26348 -0.08883,0.48346 -0.26758,0.66211c-0.17874,0.17864 -0.39445,0.26953 -0.64844,0.26953h-4.93945v2.41211h4.14844c0.26339,0 0.48532,0.09498 0.66406,0.2832c0.17875,0.17875 0.26758,0.39445 0.26758,0.64844c0,0.25391 -0.08883,0.47389 -0.26758,0.66211c-0.17874,0.17864 -0.40066,0.26953 -0.66406,0.26953h-4.14844v3.16015h4.93945c0.25398,0 0.46969,0.08894 0.64844,0.26758c0.17875,0.17872 0.26758,0.39638 0.26758,0.65039c0,0.26349 -0.08883,0.48347 -0.26758,0.66211c-0.17874,0.17865 -0.39445,0.26758 -0.64844,0.26758h-5.98437c-0.13169,0 -0.26283,-0.01714 -0.39453,-0.05469c-0.1317,-0.04711 -0.25431,-0.11455 -0.36719,-0.19922c-0.10348,-0.09398 -0.18807,-0.21046 -0.25391,-0.35156c-0.06586,-0.14113 -0.09766,-0.31027 -0.09766,-0.50781v-8.91797c0,-0.08466 0.01279,-0.18834 0.04102,-0.31055c0.02822,-0.13178 0.08526,-0.2543 0.16992,-0.36718c0.08466,-0.12221 0.19679,-0.22154 0.33789,-0.29688c0.15052,-0.08466 0.33869,-0.12695 0.56445,-0.12695zM63.63672,171.01269c-0.37628,0.22577 -0.6851,0.52178 -0.92969,0.88868c-0.24458,0.36686 -0.42422,0.78548 -0.53711,1.25586c-0.11288,0.46095 -0.16992,0.93236 -0.16992,1.4121c0,0.47978 0.05704,0.95348 0.16992,1.42383c0.11288,0.46095 0.29252,0.87957 0.53711,1.25586c0.24459,0.36689 0.5534,0.66291 0.92969,0.88867c0.38569,0.22577 0.84661,0.33985 1.38281,0.33985c0.53621,0 0.99286,-0.11408 1.36914,-0.33985c0.37628,-0.22578 0.68705,-0.5218 0.93164,-0.88867c0.24459,-0.37629 0.42422,-0.79491 0.53711,-1.25586c0.11288,-0.47035 0.16797,-0.94405 0.16797,-1.42383c0,-0.47974 -0.05508,-0.95115 -0.16797,-1.4121c-0.11288,-0.47038 -0.29252,-0.889 -0.53711,-1.25586c-0.24458,-0.3669 -0.55535,-0.66291 -0.93164,-0.88868c-0.37628,-0.22576 -0.83293,-0.33789 -1.36914,-0.33789c-0.53621,0 -0.99712,0.11213 -1.38281,0.33789zM73.16016,173.94824h2.76562c0.20696,0 0.40561,-0.03794 0.59375,-0.11328c0.18814,-0.08466 0.35108,-0.19679 0.49219,-0.33789c0.1411,-0.14103 0.25091,-0.30592 0.32617,-0.49414c0.08466,-0.18807 0.12695,-0.39098 0.12695,-0.60742c0,-0.20687 -0.04229,-0.40358 -0.12695,-0.5918c-0.07526,-0.18817 -0.18506,-0.35304 -0.32617,-0.49414c-0.14111,-0.1411 -0.30404,-0.24888 -0.49219,-0.32422c-0.18814,-0.08466 -0.38679,-0.12695 -0.59375,-0.12695h-2.76562zM83.38672,175.06152h2.30078l-1.14258,-3.89453z" data-paper-data="{&quot;origPos&quot;:null}" id="path5625" fill="#1eff00" stroke="none" stroke-width="1" stroke-miterlimit="10" stroke-dashoffset="0"/><path d="M69.10238,187.56461c1.27594,0 2.33407,4.30813 3.36633,5.0581c1.03226,0.74997 5.45651,0.42505 5.8508,1.6385c0.39429,1.21349 -3.37601,3.55113 -3.77029,4.76462c-0.39429,1.21349 1.28192,5.32078 0.24966,6.07079c-1.03226,0.74997 -4.42056,-2.11344 -5.6965,-2.11344c-1.27594,0 -4.66424,2.86341 -5.6965,2.11344c-1.03226,-0.75001 0.64395,-4.8573 0.24966,-6.07079c-0.39429,-1.21349 -4.16458,-3.55113 -3.77029,-4.76462c0.39429,-1.21346 4.81854,-0.88853 5.8508,-1.6385c1.03226,-0.74997 2.09039,-5.0581 3.36633,-5.0581z" data-paper-data="{&quot;origPos&quot;:null}" id="path1428-5-14" fill="#1eff00" stroke="none" stroke-width="0.88188" stroke-miterlimit="4" stroke-dashoffset="17.35"/><path d="M92.03937,187.56461c1.27594,0 2.33407,4.30813 3.36633,5.0581c1.03226,0.74997 5.45651,0.42505 5.8508,1.6385c0.39428,1.21349 -3.37601,3.55113 -3.77029,4.76462c-0.39429,1.21349 1.28192,5.32078 0.24968,6.07079c-1.03226,0.74997 -4.42055,-2.11344 -5.6965,-2.11344c-1.27594,0 -4.66424,2.86341 -5.6965,2.11344c-1.03225,-0.75001 0.64395,-4.8573 0.24968,-6.07079c-0.39429,-1.21349 -4.16458,-3.55113 -3.77029,-4.76462c0.39429,-1.21346 4.81854,-0.88853 5.8508,-1.6385c1.03226,-0.74997 2.09039,-5.0581 3.36633,-5.0581z" data-paper-data="{&quot;origPos&quot;:null}" id="path1428-0-2-3" fill="#1eff00" stroke="none" stroke-width="0.88188" stroke-miterlimit="4" stroke-dashoffset="17.35"/><path d="M114.97632,188.44747c1.14835,0 2.10067,3.8773 3.0297,4.55229c0.92903,0.67499 4.91086,0.38253 5.26572,1.4747c0.35486,1.09213 -3.0384,3.19601 -3.39326,4.28814c-0.35486,1.09213 1.15373,4.7887 0.22469,5.46368c-0.92903,0.67499 -3.9785,-1.90208 -5.12685,-1.90208c-1.14835,0 -4.19782,2.57707 -5.12685,1.90208c-0.92903,-0.67499 0.57956,-4.37155 0.22469,-5.46368c-0.35486,-1.09213 -3.74812,-3.19601 -3.39326,-4.28814c0.35486,-1.09217 4.33669,-0.79971 5.26572,-1.4747c0.92903,-0.67499 1.88135,-4.55229 3.02969,-4.55229z" data-paper-data="{&quot;origPos&quot;:null}" id="path1428-0-6-3-0" fill="#1eff00" stroke="none" stroke-width="0.79369" stroke-miterlimit="4" stroke-dashoffset="17.35"/></g></g></svg>