<svg version="1.1" xmlns="http://www.w3.org/2000/svg" xmlns:xlink="http://www.w3.org/1999/xlink" width="38.89568" height="48.42767"><g transform="translate(-220.50029,-165.4059)"><g data-paper-data="{&quot;isPaintingLayer&quot;:true}" fill="#ffffff" fill-rule="nonzero" stroke="none" stroke-width="1" stroke-linecap="butt" stroke-linejoin="miter" stroke-miterlimit="10" stroke-dasharray="" stroke-dashoffset="0" font-family="none" font-weight="none" font-size="none" text-anchor="none" style="mix-blend-mode: normal"><path d="M229.36659,167.49689l10.62238,15.3067l10.54072,-15.3067c0.94791,-1.39402 2.20006,-2.09099 3.76134,-2.09099c1.33823,0 2.37076,0.47737 3.09565,1.4253c0.72486,0.89214 1.08633,1.86464 1.08633,2.92412c0,1.00368 -0.30554,1.89847 -0.91891,2.67908l-12.88081,16.30728l13.79972,17.81833c0.61335,0.78065 0.92296,1.69726 0.92296,2.75668c0,1.28249 -0.44737,2.37095 -1.33953,3.26309c-0.89216,0.8364 -2.00654,1.25378 -3.34477,1.25378c-0.66912,0 -1.31019,-0.10794 -1.92354,-0.33082c-0.55763,-0.22303 -1.03092,-0.64448 -1.42123,-1.25786l-11.37793,-17.64681l-11.45551,17.64681c-0.39033,0.61354 -0.89363,1.035 -1.50698,1.25786c-0.5576,0.22288 -1.14277,0.33082 -1.75612,0.33082c-0.50184,0 -1.03107,-0.05575 -1.58865,-0.16745c-0.5576,-0.16703 -1.08683,-0.4169 -1.58867,-0.75146c-0.44607,-0.39035 -0.83755,-0.86364 -1.1721,-1.4212c-0.27881,-0.61339 -0.42064,-1.34037 -0.42064,-2.17676c0,-1.05942 0.30963,-1.97603 0.92298,-2.75668l13.79972,-17.81833l-12.88083,-16.30728c-0.61335,-0.78061 -0.91889,-1.67541 -0.91889,-2.67908c0,-1.05948 0.36145,-2.03198 1.08633,-2.92412c0.72486,-0.94793 1.75741,-1.4253 3.09565,-1.4253c1.56126,0 2.81341,0.69697 3.76134,2.09099z" data-paper-data="{&quot;origPos&quot;:null}" id="path862"/></g></g></svg>