<svg version="1.1" xmlns="http://www.w3.org/2000/svg" xmlns:xlink="http://www.w3.org/1999/xlink" width="372.21483" height="68.64257" viewBox="0,0,372.21483,68.64257"><g transform="translate(-53.89258,-145.67872)"><g data-paper-data="{&quot;isPaintingLayer&quot;:true}" fill-rule="nonzero" stroke-linecap="butt" stroke-linejoin="miter" stroke-dasharray="" style="mix-blend-mode: normal"><path d="M425.00977,146.42872c0.19313,0 0.34765,0.15452 0.34765,0.34765v66.44531c0,0.19314 -0.15452,0.34961 -0.34765,0.34961h-370.01757c-0.19314,0 -0.34961,-0.15647 -0.34961,-0.34961v-66.44531c0,-0.19313 0.15648,-0.34765 0.34961,-0.34765z" fill="#1e1e1e" stroke="#1eff00" stroke-width="1.5" stroke-miterlimit="4" stroke-dashoffset="17.35"/><path d="M69.10254,187.5649c1.27593,0 2.33408,4.30817 3.36631,5.05811c1.03226,0.74997 5.45654,0.42504 5.85082,1.63854c0.39428,1.21349 -3.37603,3.55109 -3.77031,4.76462c-0.39428,1.2135 1.28194,5.32075 0.24983,6.07076c-1.03226,0.74997 -4.42058,-2.11344 -5.69651,-2.11344c-1.27593,0 -4.66424,2.86341 -5.69651,2.11344c-1.03226,-0.75001 0.64396,-4.85726 0.24982,-6.07076c-0.39428,-1.21353 -4.16458,-3.55113 -3.77031,-4.76462c0.39428,-1.21349 4.81856,-0.88857 5.85082,-1.63854c1.03223,-0.74994 2.09038,-5.05811 3.36631,-5.05811z" fill="#1eff00" stroke="none" stroke-width="0.88188" stroke-miterlimit="4" stroke-dashoffset="17.35"/><path d="M92.0396,187.5649c1.27593,0 2.33404,4.30817 3.36631,5.05811c1.03226,0.74997 5.45651,0.42504 5.85078,1.63854c0.39428,1.21349 -3.37599,3.55109 -3.77027,4.76462c-0.39432,1.2135 1.28191,5.32075 0.24945,6.07076c-1.03223,0.74997 -4.42054,-2.11344 -5.69647,-2.11344c-1.27597,0 -4.66424,2.86341 -5.69651,2.11344c-1.03226,-0.75001 0.64396,-4.85726 0.24945,-6.07076c-0.39428,-1.21353 -4.16455,-3.55113 -3.77027,-4.76462c0.39428,-1.21349 4.81852,-0.88857 5.85079,-1.63854c1.03226,-0.74994 2.09038,-5.05811 3.36635,-5.05811z" fill="#1eff00" stroke="none" stroke-width="0.88188" stroke-miterlimit="4" stroke-dashoffset="17.35"/><path d="M114.97649,187.5649c1.27593,0 2.33409,4.30817 3.36635,5.05811c1.03223,0.74997 5.4565,0.42504 5.85078,1.63854c0.39428,1.21349 -3.37602,3.55109 -3.7703,4.76462c-0.39428,1.2135 1.28195,5.32075 0.24983,6.07076c-1.03227,0.74997 -4.42058,-2.11344 -5.6965,-2.11344c-1.27593,0 -4.66424,2.86341 -5.69651,2.11344c-1.03222,-0.75001 0.64395,-4.85726 0.24982,-6.07076c-0.39428,-1.21353 -4.16459,-3.55113 -3.77031,-4.76462c0.39432,-1.21349 4.81856,-0.88857 5.85083,-1.63854c1.03226,-0.74994 2.09038,-5.05811 3.36631,-5.05811z" fill="#1eff00" stroke="none" stroke-width="0.88188" stroke-miterlimit="4" stroke-dashoffset="17.35"/><path d="M137.91353,187.5649c1.27593,0 2.33404,4.30817 3.36631,5.05811c1.03226,0.74997 5.4565,0.42504 5.85078,1.63854c0.39432,1.21349 -3.37599,3.55109 -3.77027,4.76462c-0.39428,1.2135 1.2819,5.32075 0.24983,6.07076c-1.03227,0.74997 -4.42058,-2.11344 -5.69651,-2.11344c-1.27593,0 -4.66424,2.86341 -5.69651,2.11344c-1.03226,-0.75001 0.64396,-4.85726 0.24983,-6.07076c-0.39432,-1.21353 -4.16459,-3.55113 -3.77031,-4.76462c0.39428,-1.21349 4.81856,-0.88857 5.85079,-1.63854c1.03226,-0.74994 2.09042,-5.05811 3.36635,-5.05811z" fill="#1eff00" stroke="none" stroke-width="0.88188" stroke-miterlimit="4" stroke-dashoffset="17.35"/><path d="M207.30661,151.59855c0.12934,0 0.25252,0.0329 0.37109,0.0977c0.12937,0.05393 0.24285,0.12957 0.33985,0.22657c0.09701,0.097 0.17266,0.21058 0.22656,0.33984c0.0647,0.11868 0.0977,0.24183 0.0977,0.37109c0,0.19399 -0.07566,0.36665 -0.22657,0.51758c-0.74375,0.72222 -1.3422,1.55246 -1.79492,2.49024c-0.45272,0.92699 -0.67969,1.99875 -0.67969,3.21679c0,1.21802 0.22697,2.29658 0.67969,3.23438c0.45252,0.93734 1.05165,1.76147 1.79492,2.47265v0.002c0.15007,0.15061 0.22657,0.32213 0.22657,0.51562c0,0.2586 -0.10864,0.49721 -0.32422,0.71289c-0.2048,0.21569 -0.44146,0.32227 -0.71094,0.32227c-0.22637,0 -0.432,-0.097 -0.61523,-0.29102c-0.47428,-0.5066 -0.89523,-1.0129 -1.26172,-1.51953c-0.3665,-0.51739 -0.67201,-1.05668 -0.91992,-1.61719c-0.24793,-0.5605 -0.44192,-1.15216 -0.58204,-1.77734c-0.12931,-0.62518 -0.19531,-1.31093 -0.19531,-2.05469c0,-0.73297 0.06595,-1.41192 0.19531,-2.03711c0.12936,-0.63596 0.31655,-1.23441 0.56446,-1.79492c0.25869,-0.56053 0.57101,-1.093 0.9375,-1.59961c0.36649,-0.51739 0.78744,-1.0305 1.26172,-1.53711c0.18323,-0.19401 0.38886,-0.29101 0.61523,-0.29101zM254.99023,151.59869c0.21559,0 0.42122,0.097 0.61524,0.29101c0.47428,0.50661 0.89523,1.01972 1.26172,1.53711c0.36649,0.50661 0.67396,1.03908 0.92187,1.59961c0.25871,0.56051 0.4527,1.15896 0.58203,1.79492c0.12936,0.62519 0.19336,1.30414 0.19336,2.03711c0,0.74376 -0.07081,1.42951 -0.21093,2.05469c-0.12936,0.62518 -0.31655,1.21684 -0.56446,1.77734c-0.24791,0.56051 -0.56218,1.0998 -0.93945,1.61719c-0.36649,0.50663 -0.78064,1.01293 -1.24414,1.51953c-0.18324,0.19402 -0.38887,0.29102 -0.61524,0.29102c-0.12936,0 -0.25738,-0.0309 -0.38671,-0.0957c-0.11858,-0.05393 -0.22722,-0.12957 -0.32422,-0.22657c-0.09701,-0.097 -0.17267,-0.20554 -0.22657,-0.32422c-0.0539,-0.11867 -0.0801,-0.24183 -0.0801,-0.37109c0,-0.20477 0.07565,-0.38227 0.22656,-0.5332c0.73297,-0.71141 1.32462,-1.53684 1.77734,-2.47461c0.45272,-0.9378 0.67969,-2.01441 0.67969,-3.23242c0,-1.21804 -0.22697,-2.2966 -0.67969,-3.23438c-0.44194,-0.93778 -1.03359,-1.76318 -1.77734,-2.47461c-0.15096,-0.15085 -0.22656,-0.32835 -0.22656,-0.5332c0,-0.12926 0.0262,-0.25242 0.0801,-0.3711c0.0539,-0.11867 0.12957,-0.22721 0.22657,-0.32421c0.097,-0.09701 0.20564,-0.17267 0.32422,-0.22657c0.12933,-0.0648 0.25735,-0.0977 0.38671,-0.0977zM68.52539,152.48926c0.23714,0 0.43597,0.08043 0.59766,0.24219c0.17247,0.16171 0.25781,0.36055 0.25781,0.59766c0,0.23725 -0.08534,0.44288 -0.25781,0.61523c-0.16167,0.16179 -0.36051,0.24219 -0.59766,0.24219h-3.02344v10.10547c0,0.25869 -0.097,0.48372 -0.29102,0.67773c-0.18324,0.18319 -0.40537,0.27539 -0.66406,0.27539c-0.26949,0 -0.4945,-0.09221 -0.67773,-0.27539c-0.18326,-0.19401 -0.27539,-0.41904 -0.27539,-0.67773v-10.10547h-3.02344c-0.23713,0 -0.44276,-0.08043 -0.61523,-0.24219c-0.16169,-0.1725 -0.24219,-0.37813 -0.24219,-0.61523c0,-0.23706 0.0805,-0.4359 0.24219,-0.59766c0.17247,-0.16179 0.37811,-0.24219 0.61523,-0.24219zM144.07031,152.48926c0.50662,0 0.97994,0.097 1.42188,0.29102c0.44194,0.18325 0.82991,0.44125 1.16406,0.77539c0.33416,0.33416 0.59411,0.72213 0.77734,1.16406c0.19402,0.44195 0.29102,0.91722 0.29102,1.42383c0,0.50663 -0.097,0.97995 -0.29102,1.42187c-0.18324,0.44196 -0.44319,0.82993 -0.77734,1.16407c-0.33415,0.33416 -0.72212,0.59895 -1.16406,0.79297c-0.44194,0.18323 -0.91526,0.27343 -1.42188,0.27343h-4.00976v4.4961c0,0.25869 -0.09216,0.48567 -0.27539,0.67968c-0.18325,0.18324 -0.40826,0.27344 -0.67774,0.27344c-0.2587,0 -0.48567,-0.09025 -0.67969,-0.27344c-0.18319,-0.19401 -0.27539,-0.42099 -0.27539,-0.67968v-10.54297c0,-0.34492 0.12514,-0.64074 0.37305,-0.88867c0.24792,-0.24794 0.54859,-0.3711 0.9043,-0.3711zM166.54102,152.48931c0.23713,0 0.43596,0.08043 0.59765,0.24219c0.17247,0.16171 0.25977,0.36055 0.25977,0.59766c0,0.23725 -0.0873,0.44288 -0.25977,0.61523c-0.1617,0.16179 -0.36053,0.24219 -0.59765,0.24219h-0.29102c-0.06468,0 -0.15002,0.0213 -0.25781,0.0644c-0.09699,0.04309 -0.14649,0.15666 -0.14649,0.33985v1.5039h0.8086c0.20481,0 0.37746,0.07563 0.51758,0.22656c0.15086,0.14007 0.22656,0.31078 0.22656,0.51563c0,0.21563 -0.07566,0.39506 -0.22656,0.53515c-0.14013,0.14009 -0.31278,0.20899 -0.51758,0.20899h-0.8086v6.80664c0,0.23725 -0.08534,0.44289 -0.25781,0.61523c-0.1617,0.16179 -0.36248,0.24219 -0.59961,0.24219c-0.23714,0 -0.43597,-0.08042 -0.59766,-0.24219c-0.16168,-0.17249 -0.24218,-0.37813 -0.24218,-0.61523v-6.80664h-0.59766c-0.2048,0 -0.38425,-0.06889 -0.53516,-0.20899c-0.14008,-0.14004 -0.20898,-0.31947 -0.20898,-0.53515c0,-0.20483 0.06887,-0.37553 0.20898,-0.51563c0.15091,-0.15096 0.33036,-0.22656 0.53516,-0.22656h0.59766v-1.5039c0,-0.24789 0.0427,-0.49621 0.1289,-0.74415c0.09701,-0.24788 0.23183,-0.47483 0.4043,-0.67968c0.18324,-0.2047 0.40341,-0.3657 0.66211,-0.48438c0.2587,-0.12926 0.56132,-0.19336 0.90625,-0.19336zM215.94728,152.4893c0.50661,0 0.97993,0.097 1.42187,0.29102c0.45272,0.19401 0.84069,0.45685 1.16406,0.79101c0.33416,0.32338 0.59896,0.71135 0.79297,1.16407c0.19402,0.44195 0.29102,0.91238 0.29102,1.4082c0,0.29105 -0.05432,0.58686 -0.16211,0.88867c-0.09701,0.30181 -0.24833,0.58794 -0.45313,0.85742c-0.2048,0.2587 -0.4628,0.48372 -0.77539,0.67774c-0.30181,0.19414 -0.6636,0.32899 -1.08398,0.40429c0.26948,0.06476 0.50809,0.1685 0.71289,0.3086c0.20481,0.14024 0.3755,0.2964 0.51562,0.46875c0.15093,0.17247 0.26445,0.35481 0.33985,0.54883c0.08611,0.18318 0.14041,0.35581 0.16211,0.51757l0.35547,3.39649c0.02156,0.25857 -0.05409,0.49525 -0.22657,0.71094c-0.17246,0.21568 -0.40912,0.32226 -0.71093,0.32226c-0.26949,0 -0.49646,-0.08042 -0.67969,-0.24219c-0.18313,-0.16166 -0.28494,-0.37213 -0.30664,-0.63086l-0.24219,-2.76367c-0.03235,-0.33426 -0.11965,-0.61553 -0.25977,-0.84179c-0.12934,-0.23716 -0.30004,-0.42632 -0.51562,-0.56641c-0.2048,-0.14009 -0.43662,-0.24184 -0.69531,-0.30664c-0.2587,-0.0648 -0.52834,-0.0977 -0.8086,-0.0977h-3.60547v4.4961c0,0.25869 -0.09213,0.48372 -0.27539,0.67773c-0.18324,0.18319 -0.41021,0.27539 -0.67968,0.27539c-0.25871,0 -0.48372,-0.09221 -0.67774,-0.27539c-0.18319,-0.19401 -0.27539,-0.41904 -0.27539,-0.67773v-10.54297c0,-0.34492 0.12318,-0.64074 0.37109,-0.88867c0.24792,-0.24794 0.55055,-0.3711 0.90626,-0.3711zM244.78126,152.7627c0.19402,0.18326 0.29102,0.41021 0.29102,0.67969c0,0.25869 -0.097,0.48567 -0.29102,0.67968c-0.18324,0.18324 -0.40341,0.27344 -0.66211,0.27344c-0.26948,0 -0.5013,-0.09025 -0.69531,-0.27344c-0.18319,-0.19401 -0.27539,-0.42099 -0.27539,-0.67968c0,-0.26956 0.09216,-0.49651 0.27539,-0.67969c0.19402,-0.18314 0.42584,-0.27344 0.69531,-0.27344c0.25871,0 0.47888,0.09026 0.66211,0.27344zM140.06055,158.09864h3.79883c0.26948,0 0.52263,-0.04753 0.75976,-0.14453c0.23713,-0.1079 0.44276,-0.24953 0.61524,-0.42188c0.18324,-0.18328 0.32292,-0.3918 0.41992,-0.6289c0.10781,-0.23716 0.16211,-0.49029 0.16211,-0.75977c0,-0.26951 -0.05432,-0.52462 -0.16211,-0.76172c-0.09703,-0.23725 -0.23669,-0.44093 -0.41992,-0.61328c-0.17246,-0.18326 -0.37809,-0.32292 -0.61524,-0.41992c-0.23714,-0.10781 -0.49029,-0.16211 -0.75976,-0.16211h-3.79883zM211.17774,158.09864h4.5586c0.26949,0 0.52264,-0.04753 0.75976,-0.14453c0.23714,-0.1079 0.44277,-0.24953 0.61524,-0.42188c0.18325,-0.18328 0.32292,-0.3918 0.41992,-0.6289c0.10781,-0.23716 0.16211,-0.49029 0.16211,-0.75977c0,-0.26951 -0.05432,-0.52462 -0.16211,-0.76172c-0.09703,-0.23725 -0.23669,-0.44093 -0.41992,-0.61328c-0.17245,-0.18326 -0.37808,-0.32292 -0.61524,-0.41992c-0.23713,-0.10781 -0.49028,-0.16211 -0.75976,-0.16211h-4.5586zM74.30273,156.09473c0.54973,0.21559 1.025,0.5279 1.42383,0.9375c0.39882,0.4096 0.71113,0.91105 0.9375,1.50391c0.22637,0.59285 0.33984,1.2718 0.33984,2.03711c0,0.7653 -0.11347,1.44425 -0.33984,2.03711c-0.22636,0.59285 -0.53868,1.0943 -0.9375,1.5039c-0.39882,0.39872 -0.8741,0.70619 -1.42383,0.92188c-0.53895,0.21568 -1.12576,0.32226 -1.76172,0.32226c-0.63596,0 -1.22957,-0.10658 -1.77929,-0.32226c-0.53895,-0.21559 -1.00743,-0.52306 -1.40625,-0.92188c-0.39882,-0.4096 -0.71113,-0.91105 -0.9375,-1.5039c-0.22637,-0.59286 -0.33985,-1.27181 -0.33985,-2.03711c0,-0.76531 0.11347,-1.44426 0.33985,-2.03711c0.22636,-0.59286 0.53868,-1.09431 0.9375,-1.50391c0.39882,-0.4095 0.8673,-0.72181 1.40625,-0.9375c0.54973,-0.21568 1.14333,-0.32422 1.77929,-0.32422c0.63596,0 1.22277,0.10854 1.76172,0.32422zM97.02931,156.09473c0.54973,0.21559 1.025,0.5279 1.42382,0.9375c0.39882,0.4096 0.71114,0.91105 0.9375,1.50391c0.22637,0.59285 0.33985,1.2718 0.33985,2.03711c0,0.7653 -0.11348,1.44425 -0.33985,2.03711c-0.22636,0.59285 -0.53867,1.0943 -0.9375,1.5039c-0.39882,0.39872 -0.87409,0.70619 -1.42382,0.92188c-0.53896,0.21568 -1.12576,0.32226 -1.76172,0.32226c-0.63597,0 -1.22761,-0.10658 -1.77735,-0.32226c-0.53895,-0.21559 -1.00937,-0.52306 -1.4082,-0.92188c-0.39881,-0.4096 -0.71113,-0.91105 -0.9375,-1.5039c-0.22637,-0.59286 -0.33984,-1.27181 -0.33984,-2.03711c0,-0.76531 0.11347,-1.44426 0.33984,-2.03711c0.22636,-0.59286 0.53868,-1.09431 0.9375,-1.50391c0.39883,-0.4095 0.86925,-0.72181 1.4082,-0.9375c0.54974,-0.21568 1.14138,-0.32422 1.77735,-0.32422c0.63596,0 1.22276,0.10854 1.76172,0.32422zM117.00782,156.09473c0.54973,0.21559 1.02305,0.5279 1.42188,0.9375c0.39881,0.4096 0.71113,0.91105 0.9375,1.50391c0.22637,0.59285 0.33984,1.2718 0.33984,2.03711c0,0.7653 -0.11347,1.44425 -0.33984,2.03711c-0.22636,0.59285 -0.53868,1.0943 -0.9375,1.5039c-0.39883,0.39872 -0.87215,0.70619 -1.42188,0.92188c-0.53895,0.21568 -1.12771,0.32226 -1.76367,0.32226c-0.63597,0 -1.22761,-0.10658 -1.77734,-0.32226c-0.53896,-0.21559 -1.00743,-0.52306 -1.40625,-0.92188c-0.39882,-0.4096 -0.71309,-0.91105 -0.93946,-1.5039c-0.22636,-0.59286 -0.33789,-1.27181 -0.33789,-2.03711c0,-0.76531 0.11153,-1.44426 0.33789,-2.03711c0.22636,-0.59286 0.54063,-1.09431 0.93946,-1.50391c0.39882,-0.4095 0.86729,-0.72181 1.40625,-0.9375c0.54973,-0.21568 1.14137,-0.32422 1.77734,-0.32422c0.63596,0 1.22472,0.10854 1.76367,0.32422zM152.36521,155.77045c0.61441,0 1.18472,0.09221 1.71289,0.27539c0.53896,0.18323 1.00258,0.45289 1.39063,0.8086c0.39882,0.34494 0.71113,0.77073 0.9375,1.27734c0.22637,0.50661 0.33984,1.08372 0.33984,1.73047c0,0.39876 -0.097,0.69945 -0.29101,0.9043c-0.19402,0.20485 -0.42099,0.30664 -0.67969,0.30664l-5.91797,0.002c0,0.02142 0.0068,0.11167 0.0176,0.27344c0.02158,0.1508 0.05938,0.33509 0.11328,0.55078c0.06468,0.21556 0.15002,0.44737 0.25781,0.69531c0.11858,0.2371 0.27474,0.45726 0.46875,0.66211c0.19403,0.20483 0.43069,0.37748 0.71094,0.51758c0.29104,0.12926 0.64313,0.19336 1.05274,0.19336c0.33413,0 0.61831,-0.0262 0.85546,-0.0801c0.23716,-0.05392 0.44763,-0.13434 0.63086,-0.24219c0.18325,-0.10771 0.35105,-0.24253 0.50196,-0.40429c0.15091,-0.17255 0.30222,-0.37335 0.45312,-0.59961c0.08623,-0.12926 0.18323,-0.21954 0.29102,-0.27344c0.10779,-0.0539 0.21931,-0.082 0.33789,-0.082c0.19402,0 0.37347,0.07084 0.53515,0.21093c0.16169,0.14005 0.24219,0.31752 0.24219,0.53321c0,0.12933 -0.07082,0.32333 -0.21094,0.58203c-0.14013,0.2587 -0.36709,0.51669 -0.67968,0.77539c-0.30182,0.25872 -0.69463,0.48567 -1.17969,0.67969c-0.48506,0.19401 -1.07671,0.29101 -1.77734,0.29101c-0.71142,0 -1.3477,-0.12802 -1.90821,-0.38672c-0.56051,-0.25869 -1.03578,-0.60398 -1.42383,-1.03515c-0.37727,-0.44195 -0.66824,-0.95506 -0.87304,-1.53711c-0.19402,-0.58207 -0.29102,-1.1902 -0.29102,-1.82617c0,-0.65754 0.10184,-1.27733 0.30664,-1.85938c0.20481,-0.59285 0.49578,-1.10594 0.87305,-1.53711c0.38804,-0.43114 0.85167,-0.76964 1.39062,-1.01758c0.53896,-0.25869 1.1442,-0.38867 1.8125,-0.38867zM194.44139,155.77045c0.6144,0 1.18471,0.09221 1.71289,0.27539c0.53895,0.18323 1.00258,0.45289 1.39062,0.8086c0.39882,0.34494 0.71113,0.77073 0.9375,1.27734c0.22637,0.50661 0.33985,1.08372 0.33985,1.73047c0,0.39876 -0.097,0.69945 -0.29102,0.9043c-0.19402,0.20485 -0.42099,0.30664 -0.67969,0.30664l-5.91797,0.002c0,0.02142 0.0068,0.11167 0.0176,0.27344c0.02158,0.1508 0.05938,0.33509 0.11328,0.55078c0.06468,0.21556 0.15002,0.44737 0.25782,0.69531c0.11857,0.2371 0.27473,0.45726 0.46875,0.66211c0.19402,0.20483 0.43068,0.37748 0.71093,0.51758c0.29104,0.12926 0.64313,0.19336 1.05274,0.19336c0.33416,0 0.61834,-0.0262 0.85547,-0.0801c0.23712,-0.05392 0.4476,-0.13434 0.63086,-0.24219c0.18324,-0.10771 0.35104,-0.24253 0.50195,-0.40429c0.15091,-0.17255 0.30222,-0.37335 0.45312,-0.59961c0.08623,-0.12926 0.18323,-0.21954 0.29102,-0.27344c0.10779,-0.0539 0.21931,-0.082 0.33789,-0.082c0.19402,0 0.37347,0.07084 0.53516,0.21093c0.16168,0.14005 0.24218,0.31752 0.24218,0.53321c0,0.12933 -0.07081,0.32333 -0.21093,0.58203c-0.14013,0.2587 -0.36515,0.51669 -0.67774,0.77539c-0.30181,0.25872 -0.69658,0.48567 -1.18164,0.67969c-0.48506,0.19401 -1.0767,0.29101 -1.77734,0.29101c-0.71142,0 -1.34769,-0.12802 -1.90821,-0.38672c-0.56051,-0.25869 -1.03578,-0.60398 -1.42382,-1.03515c-0.37727,-0.44195 -0.66825,-0.95506 -0.87305,-1.53711c-0.19402,-0.58207 -0.29102,-1.1902 -0.29102,-1.82617c0,-0.65754 0.10184,-1.27733 0.30664,-1.85938c0.20481,-0.59285 0.49774,-1.10594 0.875,-1.53711c0.38805,-0.43114 0.84972,-0.76964 1.38868,-1.01758c0.53895,-0.25869 1.1442,-0.38867 1.8125,-0.38867zM224.75584,155.77045c0.61441,0 1.18667,0.09221 1.71484,0.27539c0.53896,0.18323 1.00258,0.45289 1.39063,0.8086c0.39881,0.34494 0.71113,0.77073 0.9375,1.27734c0.22637,0.50661 0.33984,1.08372 0.33984,1.73047c0,0.39876 -0.097,0.69945 -0.29101,0.9043c-0.19403,0.20485 -0.421,0.30664 -0.67969,0.30664l-5.91797,0.002c0,0.02142 0.0068,0.11167 0.0176,0.27344c0.02158,0.1508 0.05938,0.33509 0.11328,0.55078c0.06468,0.21556 0.15002,0.44737 0.25781,0.69531c0.11858,0.2371 0.27474,0.45726 0.46875,0.66211c0.19403,0.20483 0.43068,0.37748 0.71094,0.51758c0.29103,0.12926 0.64118,0.19336 1.05078,0.19336c0.33414,0 0.62027,-0.0262 0.85742,-0.0801c0.23715,-0.05392 0.44763,-0.13434 0.63086,-0.24219c0.18325,-0.10771 0.35105,-0.24253 0.50196,-0.40429c0.15091,-0.17255 0.30026,-0.37335 0.45117,-0.59961c0.08622,-0.12926 0.18322,-0.21954 0.29101,-0.27344c0.10779,-0.0539 0.22127,-0.082 0.33985,-0.082c0.19402,0 0.37151,0.07084 0.5332,0.21093c0.16174,0.14005 0.24414,0.31752 0.24414,0.53321c0,0.12933 -0.07082,0.32333 -0.21094,0.58203c-0.14012,0.2587 -0.36709,0.51669 -0.67969,0.77539c-0.30181,0.25872 -0.69462,0.48567 -1.17968,0.67969c-0.48506,0.19401 -1.07866,0.29101 -1.7793,0.29101c-0.71142,0 -1.34574,-0.12802 -1.90625,-0.38672c-0.56051,-0.25869 -1.03578,-0.60398 -1.42383,-1.03515c-0.37726,-0.44195 -0.66824,-0.95506 -0.87304,-1.53711c-0.19402,-0.58207 -0.29102,-1.1902 -0.29102,-1.82617c0,-0.65754 0.10184,-1.27733 0.30664,-1.85938c0.2048,-0.59285 0.49578,-1.10594 0.87305,-1.53711c0.38804,-0.43114 0.85167,-0.76964 1.39062,-1.01758c0.53896,-0.25869 1.14225,-0.38867 1.81055,-0.38867zM79.39844,156.14356c0.16169,0.16174 0.24414,0.36055 0.24414,0.59766v0.35546c0.06468,-0.07559 0.15486,-0.18412 0.27344,-0.32421c0.12935,-0.14022 0.29715,-0.27504 0.50196,-0.4043c0.2048,-0.12926 0.4463,-0.24089 0.72656,-0.33789c0.29104,-0.09699 0.63149,-0.14649 1.01954,-0.14649c0.53895,0 1.00258,0.14648 1.39063,0.4375c0.38805,0.28027 0.68871,0.6304 0.9043,1.05078c0.29103,-0.52827 0.65766,-0.90654 1.09961,-1.13281c0.45272,-0.2371 0.9823,-0.35547 1.58593,-0.35547c0.38805,0 0.74304,0.05906 1.06641,0.17774c0.33414,0.10789 0.62027,0.27568 0.85742,0.50195c0.24793,0.22637 0.44191,0.50571 0.58203,0.83985c0.14011,0.33416 0.20898,0.72213 0.20898,1.16406v5.82226c0,0.23726 -0.08049,0.44094 -0.24219,0.61328c-0.16168,0.16179 -0.3605,0.24219 -0.59766,0.24219c-0.23713,0 -0.44276,-0.08042 -0.61523,-0.24219c-0.16169,-0.17249 -0.24218,-0.37617 -0.24218,-0.61328v-5.74023c0,-0.37725 -0.12319,-0.70122 -0.3711,-0.9707c-0.24791,-0.26948 -0.57672,-0.4043 -0.98633,-0.4043c-0.35571,0 -0.66318,0.07084 -0.92188,0.21094c-0.25869,0.12943 -0.47401,0.30693 -0.64648,0.5332c-0.16169,0.22637 -0.28683,0.48434 -0.37305,0.77539c-0.07546,0.29102 -0.11328,0.59366 -0.11328,0.90625v4.6875c0,0.23725 -0.0805,0.44289 -0.24219,0.61523c-0.1617,0.16179 -0.36052,0.24219 -0.59766,0.24219c-0.23713,0 -0.44276,-0.08042 -0.61523,-0.24219c-0.16169,-0.17249 -0.24218,-0.37813 -0.24218,-0.61523v-5.73828c0,-0.37725 -0.11835,-0.70122 -0.35547,-0.9707c-0.23714,-0.26948 -0.57079,-0.4043 -1.00195,-0.4043c-0.35571,0 -0.66318,0.07084 -0.92187,0.21094c-0.25869,0.12943 -0.47401,0.30693 -0.64648,0.5332c-0.16169,0.22637 -0.28683,0.48434 -0.37305,0.77539c-0.07547,0.29102 -0.11132,0.59366 -0.11132,0.90625v4.6875c0,0.23725 -0.08245,0.44289 -0.24414,0.61523c-0.1617,0.16179 -0.36053,0.24219 -0.59766,0.24219c-0.23713,0 -0.44276,-0.08042 -0.61523,-0.24219c-0.16169,-0.17249 -0.24219,-0.37813 -0.24219,-0.61523v-7.64648c0,-0.23708 0.0805,-0.4359 0.24219,-0.59766c0.17245,-0.17237 0.37808,-0.25977 0.61523,-0.25977c0.23714,0 0.43597,0.08742 0.59766,0.25977zM101.53713,155.88379c0.23714,0 0.43792,0.08547 0.59961,0.25782c0.16169,0.16173 0.24219,0.3625 0.24219,0.59961v0.30664c0.04311,-0.04309 0.12361,-0.12856 0.24218,-0.25782c0.11857,-0.12943 0.26503,-0.25941 0.4375,-0.38867c0.18325,-0.14009 0.38208,-0.25847 0.59766,-0.35547c0.22637,-0.10781 0.46303,-0.16211 0.71094,-0.16211c0.23714,0 0.43597,0.08547 0.59765,0.25782c0.17247,0.16173 0.25977,0.3625 0.25977,0.59961c0,0.22646 -0.08729,0.42531 -0.25977,0.59765c-0.16167,0.16179 -0.3605,0.24219 -0.59765,0.24219c-0.40961,0 -0.74326,0.097 -1.00196,0.29101c-0.2587,0.18326 -0.46433,0.40537 -0.61523,0.66407c-0.14012,0.25869 -0.23712,0.52833 -0.29102,0.80859c-0.0539,0.28032 -0.0801,0.51213 -0.0801,0.69531v4.34766c0,0.23725 -0.0805,0.44289 -0.24219,0.61523c-0.1617,0.16179 -0.36248,0.24219 -0.59961,0.24219c-0.23713,0 -0.44081,-0.08042 -0.61328,-0.24219c-0.16169,-0.17249 -0.24219,-0.37813 -0.24219,-0.61523v-7.64648c0,-0.23708 0.0805,-0.43785 0.24219,-0.59961c0.17247,-0.17232 0.37615,-0.25782 0.61328,-0.25782zM106.93753,155.88379c0.23714,0 0.43792,0.08547 0.59961,0.25782c0.16169,0.16173 0.24219,0.3625 0.24219,0.59961v0.30664c0.04311,-0.04309 0.12361,-0.12856 0.24218,-0.25782c0.11857,-0.12943 0.26308,-0.25941 0.43555,-0.38867c0.18324,-0.14009 0.38403,-0.25847 0.59961,-0.35547c0.22637,-0.10781 0.46303,-0.16211 0.71094,-0.16211c0.23714,0 0.43597,0.08547 0.59765,0.25782c0.17247,0.16173 0.25977,0.3625 0.25977,0.59961c0,0.22646 -0.08729,0.42531 -0.25977,0.59765c-0.16169,0.16179 -0.36052,0.24219 -0.59765,0.24219c-0.40961,0 -0.74326,0.097 -1.00196,0.29101c-0.2587,0.18326 -0.46433,0.40537 -0.61523,0.66407c-0.14012,0.25869 -0.23711,0.52833 -0.29101,0.80859c-0.0539,0.28032 -0.0801,0.51213 -0.0801,0.69531v4.34766c0,0.23725 -0.0805,0.44289 -0.24219,0.61523c-0.1617,0.16179 -0.36248,0.24219 -0.59961,0.24219c-0.23713,0 -0.44081,-0.08042 -0.61328,-0.24219c-0.16169,-0.17249 -0.24219,-0.37813 -0.24219,-0.61523v-7.64648c0,-0.23708 0.0805,-0.43785 0.24219,-0.59961c0.17248,-0.17232 0.37615,-0.25782 0.61328,-0.25782zM121.0917,155.88386c0.18324,0 0.34909,0.05427 0.5,0.16211c0.16169,0.09706 0.27032,0.23674 0.32422,0.41993l1.97265,6.58203l1.61719,-6.06446c0.07544,-0.25877 0.19862,-0.47893 0.37109,-0.66211c0.18325,-0.19401 0.41991,-0.29101 0.71094,-0.29101c0.29103,0 0.52284,0.09221 0.69531,0.27539c0.18326,0.18326 0.31328,0.40825 0.38868,0.67773l1.61718,6.06446l1.98828,-6.58203c0.0539,-0.18324 0.15574,-0.32293 0.30664,-0.41993c0.15092,-0.10781 0.31873,-0.16211 0.50196,-0.16211c0.07546,0 0.16081,0.0166 0.25781,0.0488c0.09703,0.02142 0.18919,0.06411 0.27539,0.12891c0.09701,0.0645 0.17266,0.15192 0.22656,0.25976c0.0647,0.10772 0.0977,0.24254 0.0977,0.4043c0,0.10784 -0.0165,0.19814 -0.0488,0.27344l-2.37695,7.30859c-0.08623,0.28039 -0.23754,0.50734 -0.45313,0.67969c-0.2048,0.17231 -0.4531,0.25781 -0.74414,0.25781c-0.29103,0 -0.53934,-0.08546 -0.74414,-0.25781c-0.19403,-0.17247 -0.33372,-0.39942 -0.41992,-0.67969l-1.56836,-5.70703l-1.56836,5.70703c-0.08623,0.28039 -0.23075,0.50734 -0.43555,0.67969c-0.19402,0.17231 -0.43263,0.25781 -0.71289,0.25781c-0.30181,0 -0.55496,-0.08546 -0.75976,-0.25781c-0.20481,-0.17247 -0.34935,-0.39942 -0.43555,-0.67969l-2.37695,-7.30664c-0.0323,-0.07534 -0.0488,-0.16755 -0.0488,-0.27539c0,-0.06476 0.0115,-0.14036 0.0332,-0.22656c0.02158,-0.09701 0.05938,-0.18919 0.11328,-0.27539c0.06468,-0.09701 0.15002,-0.17739 0.25782,-0.24219c0.1078,-0.0648 0.25427,-0.0977 0.4375,-0.0977zM158.57028,155.88379c0.23714,0 0.43597,0.08547 0.59766,0.25782c0.16169,0.16173 0.24219,0.3625 0.24219,0.59961v0.30664c0.04311,-0.04309 0.12556,-0.12856 0.24414,-0.25782c0.11856,-0.12943 0.26307,-0.25941 0.43554,-0.38867c0.18325,-0.14009 0.38208,-0.25847 0.59766,-0.35547c0.22637,-0.10781 0.46498,-0.16211 0.71289,-0.16211c0.23714,0 0.43597,0.08547 0.59766,0.25782c0.17251,0.16173 0.25781,0.3625 0.25781,0.59961c0,0.22646 -0.08534,0.42531 -0.25781,0.59765c-0.16168,0.16179 -0.36051,0.24219 -0.59766,0.24219c-0.4096,0 -0.74521,0.097 -1.00391,0.29101c-0.25869,0.18326 -0.46237,0.40537 -0.61328,0.66407c-0.14012,0.25869 -0.23711,0.52833 -0.29101,0.80859c-0.0539,0.28032 -0.082,0.51213 -0.082,0.69531v4.34766c0,0.23725 -0.0805,0.44289 -0.24219,0.61523c-0.16167,0.16179 -0.3605,0.24219 -0.59766,0.24219c-0.23713,0 -0.44276,-0.08042 -0.61523,-0.24219c-0.16169,-0.17249 -0.24219,-0.37813 -0.24219,-0.61523v-7.64648c0,-0.23708 0.0805,-0.43785 0.24219,-0.59961c0.17248,-0.17232 0.3781,-0.25782 0.61523,-0.25782zM169.21289,155.8838c0.23714,0 0.43597,0.08742 0.59766,0.25977c0.16168,0.16174 0.24218,0.36055 0.24218,0.59766v5.62695c0,0.24799 0.05432,0.4633 0.16211,0.64648c0.11857,0.18334 0.26503,0.33949 0.4375,0.46875c0.18324,0.11843 0.38208,0.21059 0.59766,0.27539c0.22636,0.0647 0.44653,0.0957 0.66211,0.0957c0.35571,0 0.67967,-0.05906 0.9707,-0.17774c0.29105,-0.12923 0.53255,-0.30189 0.72657,-0.51758c0.20479,-0.21558 0.36291,-0.46874 0.4707,-0.75976c0.10775,-0.30183 0.16015,-0.62383 0.16015,-0.96875v-4.68945c0,-0.23708 0.0805,-0.4359 0.24219,-0.59766c0.16167,-0.17237 0.36246,-0.25977 0.59961,-0.25977c0.23714,0 0.43597,0.08742 0.59766,0.25977c0.17246,0.16174 0.25976,0.36055 0.25976,0.59766v7.64843c0,0.23726 -0.08729,0.44094 -0.25976,0.61328c-0.1617,0.16179 -0.36053,0.24219 -0.59766,0.24219c-0.23714,0 -0.43792,-0.08042 -0.59961,-0.24219c-0.16169,-0.17249 -0.24219,-0.37617 -0.24219,-0.61328v-0.29101c-0.10778,0.09701 -0.2426,0.21537 -0.40429,0.35547c-0.1509,0.12926 -0.33809,0.25241 -0.56446,0.37109c-0.22636,0.11868 -0.49115,0.22044 -0.79296,0.30664c-0.29104,0.07538 -0.63149,0.11328 -1.01954,0.11328c-0.39882,0 -0.78679,-0.05231 -1.16406,-0.16015c-0.36649,-0.11866 -0.69529,-0.29131 -0.98633,-0.51758c-0.29102,-0.22637 -0.52284,-0.50766 -0.69531,-0.8418c-0.17251,-0.33416 -0.25781,-0.72213 -0.25781,-1.16406v-5.82031c0,-0.23708 0.0805,-0.4359 0.24219,-0.59766c0.17245,-0.17237 0.37808,-0.25977 0.61523,-0.25977zM178.65234,156.14356c0.16169,0.16174 0.24219,0.36055 0.24219,0.59766v0.35546c0.06466,-0.07559 0.15682,-0.18412 0.27539,-0.32421c0.12935,-0.14022 0.29716,-0.27504 0.50196,-0.4043c0.2048,-0.12926 0.4463,-0.24089 0.72656,-0.33789c0.29103,-0.09699 0.63148,-0.14649 1.01953,-0.14649c0.53895,0 1.00258,0.14648 1.39062,0.4375c0.38805,0.28027 0.68872,0.6304 0.9043,1.05078c0.29104,-0.52827 0.65767,-0.90654 1.09961,-1.13281c0.45272,-0.2371 0.98231,-0.35547 1.58594,-0.35547c0.38804,0 0.74303,0.05906 1.0664,0.17774c0.33416,0.10789 0.6203,0.27568 0.85743,0.50195c0.24792,0.22637 0.44191,0.50571 0.58203,0.83985c0.14008,0.33416 0.20898,0.72213 0.20898,1.16406v5.82226c0,0.23726 -0.0805,0.44094 -0.24219,0.61328c-0.16169,0.16179 -0.36052,0.24219 -0.59765,0.24219c-0.23714,0 -0.44276,-0.08042 -0.61524,-0.24219c-0.16168,-0.17249 -0.24218,-0.37617 -0.24218,-0.61328v-5.74023c0,-0.37725 -0.12319,-0.70122 -0.3711,-0.9707c-0.24792,-0.26948 -0.57672,-0.4043 -0.98633,-0.4043c-0.35571,0 -0.66317,0.07084 -0.92187,0.21094c-0.25869,0.12943 -0.47401,0.30693 -0.64649,0.5332c-0.16168,0.22637 -0.28684,0.48434 -0.37304,0.77539c-0.07548,0.29102 -0.11328,0.59366 -0.11328,0.90625v4.6875c0,0.23725 -0.0805,0.44289 -0.24219,0.61523c-0.1617,0.16179 -0.36053,0.24219 -0.59766,0.24219c-0.23713,0 -0.44276,-0.08042 -0.61523,-0.24219c-0.16169,-0.17249 -0.24219,-0.37813 -0.24219,-0.61523v-5.73828c0,-0.37725 -0.11834,-0.70122 -0.35547,-0.9707c-0.23714,-0.26948 -0.57079,-0.4043 -1.00195,-0.4043c-0.35571,0 -0.66318,0.07084 -0.92188,0.21094c-0.25868,0.12943 -0.47401,0.30693 -0.64648,0.5332c-0.16169,0.22637 -0.28685,0.48434 -0.37305,0.77539c-0.07548,0.29102 -0.11328,0.59366 -0.11328,0.90625v4.6875c0,0.23725 -0.0805,0.44289 -0.24219,0.61523c-0.16169,0.16179 -0.36052,0.24219 -0.59765,0.24219c-0.23714,0 -0.44276,-0.08042 -0.61524,-0.24219c-0.16168,-0.17249 -0.24218,-0.37813 -0.24218,-0.61523v-7.64648c0,-0.23708 0.08049,-0.4359 0.24218,-0.59766c0.17248,-0.17237 0.37811,-0.25977 0.61524,-0.25977c0.23713,0 0.43597,0.08742 0.59765,0.25977zM231.54883,156.14356c0.16169,0.16174 0.24219,0.36055 0.24219,0.59766v0.35546c0.06465,-0.07559 0.15681,-0.18412 0.27539,-0.32421c0.12935,-0.14022 0.2952,-0.27504 0.5,-0.4043c0.2048,-0.12926 0.44826,-0.24089 0.72851,-0.33789c0.29104,-0.09699 0.62953,-0.14649 1.01758,-0.14649c0.53895,0 1.00258,0.14648 1.39062,0.4375c0.38805,0.28027 0.69067,0.6304 0.90626,1.05078c0.29103,-0.52827 0.65766,-0.90654 1.0996,-1.13281c0.45272,-0.2371 0.98036,-0.35547 1.58399,-0.35547c0.38805,0 0.74303,0.05906 1.06641,0.17774c0.33416,0.10789 0.62029,0.27568 0.85742,0.50195c0.24792,0.22637 0.44191,0.50571 0.58203,0.83985c0.14014,0.33416 0.21094,0.72213 0.21094,1.16406v5.82226c0,0.23726 -0.0805,0.44094 -0.24219,0.61328c-0.16167,0.16179 -0.36246,0.24219 -0.59961,0.24219c-0.23713,0 -0.44081,-0.08042 -0.61328,-0.24219c-0.16169,-0.17249 -0.24219,-0.37617 -0.24219,-0.61328v-5.74023c0,-0.37725 -0.12514,-0.70122 -0.37305,-0.9707c-0.24792,-0.26948 -0.57672,-0.4043 -0.98633,-0.4043c-0.3557,0 -0.66317,0.07084 -0.92187,0.21094c-0.25869,0.12943 -0.47401,0.30693 -0.64648,0.5332c-0.16169,0.22637 -0.2849,0.48434 -0.3711,0.77539c-0.07548,0.29102 -0.11328,0.59366 -0.11328,0.90625v4.6875c0,0.23725 -0.0805,0.44289 -0.24219,0.61523c-0.16167,0.16179 -0.36245,0.24219 -0.59961,0.24219c-0.23713,0 -0.44081,-0.08042 -0.61328,-0.24219c-0.16169,-0.17249 -0.24219,-0.37813 -0.24219,-0.61523v-5.73828c0,-0.37725 -0.12029,-0.70122 -0.35742,-0.9707c-0.23714,-0.26948 -0.57079,-0.4043 -1.00195,-0.4043c-0.35571,0 -0.66318,0.07084 -0.92187,0.21094c-0.2587,0.12943 -0.47402,0.30693 -0.64649,0.5332c-0.16169,0.22637 -0.28489,0.48434 -0.37109,0.77539c-0.07548,0.29102 -0.11328,0.59366 -0.11328,0.90625v4.6875c0,0.23725 -0.0805,0.44289 -0.24219,0.61523c-0.16167,0.16179 -0.36246,0.24219 -0.59961,0.24219c-0.23713,0 -0.44081,-0.08042 -0.61328,-0.24219c-0.16169,-0.17249 -0.24219,-0.37813 -0.24219,-0.61523v-7.64648c0,-0.23708 0.0805,-0.4359 0.24219,-0.59766c0.17245,-0.17237 0.37613,-0.25977 0.61328,-0.25977c0.23714,0 0.43792,0.08742 0.59961,0.25977zM244.7168,156.14356c0.16168,0.16174 0.24218,0.36055 0.24218,0.59766v7.64648c0,0.23725 -0.08049,0.44289 -0.24218,0.61523c-0.1617,0.16179 -0.36053,0.24219 -0.59766,0.24219c-0.23713,0 -0.44276,-0.08042 -0.61523,-0.24219c-0.16169,-0.17249 -0.24219,-0.37813 -0.24219,-0.61523v-7.64648c0,-0.23708 0.0805,-0.4359 0.24219,-0.59766c0.17247,-0.17237 0.3781,-0.25977 0.61523,-0.25977c0.23714,0 0.43597,0.08742 0.59766,0.25977zM246.90817,155.88579c0.30183,0 0.54529,0.13484 0.72852,0.40429l2.05273,2.95899l2.03711,-2.95899c0.18325,-0.26945 0.4267,-0.40429 0.72852,-0.40429c0.2587,0 0.45753,0.09221 0.59765,0.27539c0.14014,0.17242 0.21094,0.3596 0.21094,0.56445c0,0.19399 -0.05916,0.36665 -0.17773,0.51758l-2.49024,3.15234l2.66797,3.44532c0.11854,0.15085 0.17774,0.32835 0.17774,0.5332c0,0.24804 -0.0873,0.45851 -0.25977,0.63086c-0.17246,0.16178 -0.38779,0.24218 -0.64648,0.24218c-0.12934,0 -0.25252,-0.0214 -0.3711,-0.0645c-0.10779,-0.04308 -0.19999,-0.12351 -0.27539,-0.24219l-2.19922,-3.4121l-2.21484,3.4121c-0.07544,0.11868 -0.17244,0.19909 -0.29102,0.24219c-0.10779,0.0431 -0.22126,0.0645 -0.33984,0.0645c-0.09701,0 -0.19885,-0.0105 -0.30664,-0.0332c-0.10779,-0.03225 -0.20964,-0.08168 -0.30664,-0.14648c-0.08622,-0.07534 -0.16186,-0.16755 -0.22656,-0.27539c-0.0539,-0.1185 -0.08201,-0.25816 -0.082,-0.41993c0,-0.20477 0.06111,-0.38227 0.17968,-0.5332l2.66602,-3.44336l-2.48828,-3.15234c-0.11854,-0.15091 -0.17774,-0.32356 -0.17774,-0.51758c0,-0.20493 0.06887,-0.39211 0.20899,-0.56445c0.14012,-0.18319 0.33896,-0.27539 0.59765,-0.27539zM71.42578,157.37211c-0.33416,0.12934 -0.62514,0.33302 -0.87304,0.61329c-0.23715,0.26948 -0.42629,0.61963 -0.56641,1.05078c-0.14012,0.43117 -0.21094,0.94425 -0.21094,1.53711c0,0.59285 0.07082,1.10401 0.21094,1.53515c0.14014,0.42039 0.32928,0.77052 0.56641,1.05078c0.24792,0.26951 0.53889,0.47514 0.87304,0.61524c0.34493,0.12926 0.71641,0.19336 1.11524,0.19336c0.39882,0 0.76546,-0.0641 1.09961,-0.19336c0.34491,-0.14012 0.6359,-0.34576 0.87305,-0.61524c0.24793,-0.28026 0.44191,-0.63039 0.58203,-1.05078c0.14012,-0.43114 0.21094,-0.9423 0.21094,-1.53515c0,-0.59286 -0.07081,-1.10594 -0.21094,-1.53711c-0.14013,-0.43115 -0.33412,-0.7813 -0.58203,-1.05078c-0.23714,-0.28034 -0.52812,-0.48403 -0.87305,-0.61329c-0.33415,-0.14013 -0.70078,-0.21093 -1.09961,-0.21093c-0.39882,0 -0.77031,0.07084 -1.11524,0.21093zM94.15235,157.37211c-0.33415,0.12934 -0.62513,0.33302 -0.87304,0.61329c-0.23715,0.26948 -0.42629,0.61963 -0.56641,1.05078c-0.14008,0.43117 -0.20898,0.94425 -0.20898,1.53711c0,0.59285 0.06886,1.10401 0.20898,1.53515c0.14014,0.42039 0.32928,0.77052 0.56641,1.05078c0.24792,0.26951 0.53889,0.47514 0.87304,0.61524c0.34493,0.12926 0.71641,0.19336 1.11524,0.19336c0.39882,0 0.76546,-0.0641 1.09961,-0.19336c0.34494,-0.14012 0.63592,-0.34576 0.87304,-0.61524c0.24793,-0.28026 0.44192,-0.63039 0.58204,-1.05078c0.14013,-0.43114 0.21093,-0.9423 0.21093,-1.53515c0,-0.59286 -0.07081,-1.10594 -0.21093,-1.53711c-0.14014,-0.43115 -0.33412,-0.7813 -0.58204,-1.05078c-0.23713,-0.28034 -0.52811,-0.48403 -0.87304,-0.61329c-0.33415,-0.14013 -0.70079,-0.21093 -1.09961,-0.21093c-0.39883,0 -0.77031,0.07084 -1.11524,0.21093zM114.12891,157.37211c-0.33416,0.12934 -0.62514,0.33302 -0.87305,0.61329c-0.23715,0.26948 -0.42629,0.61963 -0.56641,1.05078c-0.14008,0.43117 -0.20898,0.94425 -0.20898,1.53711c0,0.59285 0.06886,1.10401 0.20898,1.53515c0.14014,0.42039 0.32928,0.77052 0.56641,1.05078c0.24792,0.26951 0.5389,0.47514 0.87305,0.61524c0.34493,0.12926 0.7164,0.19336 1.11523,0.19336c0.39882,0 0.76546,-0.0641 1.09961,-0.19336c0.34494,-0.14012 0.63592,-0.34576 0.87305,-0.61524c0.24792,-0.28026 0.44191,-0.63039 0.58203,-1.05078c0.14014,-0.43114 0.21094,-0.9423 0.21094,-1.53515c0,-0.59286 -0.07082,-1.10594 -0.21094,-1.53711c-0.14014,-0.43115 -0.33412,-0.7813 -0.58203,-1.05078c-0.23714,-0.28034 -0.52812,-0.48403 -0.87305,-0.61329c-0.33415,-0.14013 -0.70079,-0.21093 -1.09961,-0.21093c-0.39883,0 -0.7703,0.07084 -1.11523,0.21093zM152.3965,157.16118c-0.39882,0 -0.73732,0.05905 -1.01757,0.17773c-0.28027,0.11863 -0.51888,0.26995 -0.71289,0.45313c-0.18325,0.17237 -0.32776,0.36634 -0.43555,0.58203c-0.10779,0.21563 -0.18829,0.41447 -0.24219,0.59765c-0.0539,0.18329 -0.0869,0.34624 -0.0977,0.48633c-0.0106,0.12821 -0.0156,0.20191 -0.0156,0.22461h5.23828c0,-0.33413 -0.05432,-0.65129 -0.16211,-0.95312c-0.10778,-0.30191 -0.27363,-0.5667 -0.5,-0.79297c-0.21558,-0.23715 -0.49687,-0.42436 -0.84179,-0.56446c-0.34493,-0.14013 -0.7494,-0.21093 -1.2129,-0.21093zM194.47258,157.16118c-0.39883,0 -0.73733,0.05905 -1.01758,0.17773c-0.28027,0.11863 -0.51888,0.26995 -0.71289,0.45313c-0.18324,0.17237 -0.32776,0.36634 -0.43555,0.58203c-0.10779,0.21563 -0.18829,0.41447 -0.24219,0.59765c-0.0538,0.18329 -0.0868,0.34624 -0.0976,0.48633c-0.0106,0.12821 -0.0156,0.20191 -0.0156,0.22461h5.23828c0,-0.33413 -0.05431,-0.65129 -0.16211,-0.95312c-0.10778,-0.30191 -0.27363,-0.5667 -0.5,-0.79297c-0.21558,-0.23715 -0.49686,-0.42436 -0.84179,-0.56446c-0.34493,-0.14013 -0.7494,-0.21093 -1.21289,-0.21093zM224.78907,157.16118c-0.39882,0 -0.73732,0.05905 -1.01758,0.17773c-0.28026,0.11863 -0.51887,0.26995 -0.71289,0.45313c-0.18324,0.17237 -0.32775,0.36634 -0.43554,0.58203c-0.1078,0.21563 -0.18829,0.41447 -0.24219,0.59765c-0.0539,0.18329 -0.0869,0.34624 -0.0977,0.48633c-0.0106,0.12821 -0.0156,0.20191 -0.0156,0.22461h5.23828c0,-0.33413 -0.05432,-0.65129 -0.16211,-0.95312c-0.10778,-0.30191 -0.27558,-0.5667 -0.50195,-0.79297c-0.21558,-0.23715 -0.49492,-0.42436 -0.83985,-0.56446c-0.34493,-0.14013 -0.74939,-0.21093 -1.21289,-0.21093zM96.95506,166.93266c0.22637,0 0.432,0.04271 0.61523,0.12891c0.18326,0.08617 0.34426,0.20454 0.48438,0.35547c0.1509,0.14007 0.28088,0.31272 0.38867,0.51757c0.10779,0.19395 0.19989,0.3976 0.27539,0.61329l3.3457,9.66992c0.0539,0.16174 0.082,0.31303 0.082,0.45312c0,0.12931 -0.0281,0.269 -0.082,0.41993c-0.04311,0.1508 -0.11198,0.28561 -0.20898,0.40429c-0.09701,0.11868 -0.22214,0.22044 -0.37305,0.30664c-0.1509,0.07558 -0.33324,0.11328 -0.54883,0.11328c-0.25868,0 -0.50214,-0.07563 -0.72851,-0.22656c-0.21559,-0.15093 -0.36497,-0.35458 -0.45117,-0.61328l-0.92188,-3.08984h-3.75195l-0.92188,3.08984c-0.08622,0.2587 -0.24238,0.46235 -0.46875,0.61328c-0.21558,0.15096 -0.45224,0.22656 -0.71093,0.22656c-0.37726,0 -0.67989,-0.12315 -0.90625,-0.37109c-0.21559,-0.2587 -0.32227,-0.5497 -0.32227,-0.87305c0,-0.14007 0.0262,-0.29136 0.0801,-0.45312l3.36328,-9.66992c0.07546,-0.21561 0.1676,-0.41927 0.27539,-0.61329c0.10779,-0.20482 0.23097,-0.37748 0.37109,-0.51757c0.14012,-0.15093 0.30308,-0.26927 0.48633,-0.35547c0.18326,-0.08621 0.39178,-0.12891 0.62891,-0.12891zM118.17193,166.93276c0.80843,0 1.49706,0.11358 2.06835,0.33985c0.5713,0.21558 1.03977,0.47842 1.40625,0.79101c0.36649,0.31259 0.63128,0.64141 0.79297,0.98633c0.17247,0.34497 0.25977,0.63594 0.25977,0.87305c0,0.17249 -0.03778,0.32865 -0.11328,0.46875c-0.06466,0.12926 -0.15682,0.24284 -0.27539,0.33984c-0.1078,0.08617 -0.23098,0.15704 -0.3711,0.21094c-0.14013,0.043 -0.28175,0.0644 -0.42187,0.0644c-0.18325,0 -0.3491,-0.04271 -0.5,-0.12891c-0.15091,-0.08624 -0.25952,-0.22785 -0.32422,-0.42187c-0.08623,-0.24799 -0.2162,-0.4633 -0.38867,-0.64649c-0.17248,-0.18313 -0.37616,-0.33249 -0.61328,-0.45117c-0.22636,-0.12926 -0.47467,-0.22149 -0.74414,-0.27539c-0.26948,-0.0648 -0.53427,-0.0977 -0.79297,-0.0977c-0.77609,0 -1.34156,0.13481 -1.69727,0.40429c-0.35571,0.26948 -0.5332,0.63128 -0.5332,1.08399c0,0.33411 0.10184,0.60374 0.30664,0.80859c0.21558,0.19404 0.49686,0.35991 0.8418,0.5c0.34493,0.12926 0.7329,0.24284 1.16406,0.33984c0.44194,0.08618 0.88908,0.18797 1.34179,0.30665c0.46351,0.10771 0.91064,0.24253 1.3418,0.40429c0.44194,0.16169 0.83476,0.38383 1.17969,0.66406c0.34493,0.26949 0.61942,0.61478 0.82422,1.03516c0.21558,0.4096 0.32422,0.92073 0.32422,1.53516c0,0.70062 -0.14451,1.31073 -0.43555,1.82812c-0.28025,0.50664 -0.65853,0.92563 -1.13281,1.25977c-0.47428,0.3233 -1.02325,0.56675 -1.64844,0.72851c-0.61441,0.16179 -1.25553,0.24219 -1.92383,0.24219c-0.82999,0 -1.53707,-0.10853 -2.11914,-0.32422c-0.58207,-0.21558 -1.06218,-0.49008 -1.43945,-0.82422c-0.36648,-0.33416 -0.63612,-0.69592 -0.8086,-1.08398c-0.16168,-0.38803 -0.24218,-0.75953 -0.24218,-1.11523c0,-0.19397 0.0329,-0.37144 0.0976,-0.53321c0.07547,-0.16161 0.1676,-0.29645 0.27539,-0.40429c0.11858,-0.11843 0.2466,-0.2106 0.38672,-0.2754c0.15092,-0.0648 0.29738,-0.0957 0.4375,-0.0957c0.18325,0 0.3491,0.05427 0.5,0.16211c0.15091,0.09711 0.2547,0.25811 0.3086,0.48438c0.14013,0.57128 0.39812,1.03005 0.77539,1.375c0.38804,0.34492 0.99813,0.51562 1.82812,0.51562c0.80843,0 1.44955,-0.13966 1.92383,-0.41992c0.47428,-0.28024 0.71094,-0.68472 0.71094,-1.21289c0,-0.35581 -0.10184,-0.64678 -0.30664,-0.87305c-0.20481,-0.23705 -0.48125,-0.43589 -0.82617,-0.59765c-0.33416,-0.16164 -0.71533,-0.29646 -1.14649,-0.4043c-0.43116,-0.11843 -0.87345,-0.23679 -1.32617,-0.35547c-0.44194,-0.12926 -0.87938,-0.27378 -1.31055,-0.43555c-0.43116,-0.16166 -0.81913,-0.36729 -1.16406,-0.61523c-0.33415,-0.2587 -0.60379,-0.57101 -0.80859,-0.9375c-0.2048,-0.37727 -0.30665,-0.84088 -0.30664,-1.39063c0.01075,-0.6144 0.1291,-1.15853 0.35546,-1.63281c0.23714,-0.47428 0.5611,-0.87389 0.97071,-1.19727c0.4096,-0.32322 0.89456,-0.57154 1.45507,-0.74414c0.56052,-0.17231 1.17545,-0.25781 1.84376,-0.25781zM174.20696,166.93262c0.68986,0 1.30964,0.097 1.85938,0.29102c0.56051,0.19404 1.03383,0.45883 1.42187,0.79297c0.39882,0.33416 0.70629,0.71531 0.92188,1.14648c0.21558,0.43114 0.32422,0.88994 0.32422,1.375c-0.00001,0.4096 -0.0805,0.76457 -0.24219,1.06641c-0.16169,0.30175 -0.35082,0.55491 -0.56641,0.75976c-0.2048,0.19397 -0.41043,0.34528 -0.61523,0.45313c-0.19402,0.10661 -0.32202,0.17261 -0.38672,0.19531c-0.07548,0.03223 -0.11328,0.06823 -0.11328,0.11133c0,0.05268 0.0262,0.09058 0.0801,0.11328c0.2048,0.08642 0.43662,0.19496 0.69532,0.32422c0.25869,0.12938 0.50214,0.31172 0.72851,0.54883c0.22637,0.23712 0.41355,0.53492 0.56446,0.89062c0.16168,0.35573 0.24218,0.80286 0.24218,1.3418c0,0.6144 -0.14451,1.15853 -0.43554,1.63281c-0.29104,0.46352 -0.67416,0.85634 -1.14844,1.17969c-0.47428,0.3233 -1.00676,0.56675 -1.59961,0.72851c-0.59285,0.16179 -1.19809,0.24219 -1.8125,0.24219c-0.88388,0 -1.62199,-0.13482 -2.21484,-0.4043c-0.59285,-0.26948 -1.07102,-0.58663 -1.4375,-0.95312c-0.35571,-0.37725 -0.61566,-0.75554 -0.77735,-1.13281c-0.15086,-0.38816 -0.22656,-0.69561 -0.22656,-0.92188c0,-0.18325 0.033,-0.34428 0.0977,-0.48437c0.07544,-0.15093 0.16759,-0.27605 0.27539,-0.37305c0.11857,-0.09701 0.2466,-0.17071 0.38672,-0.22461c0.15091,-0.0539 0.29738,-0.082 0.4375,-0.082c0.19402,0 0.37151,0.04948 0.5332,0.14648c0.16169,0.08615 0.28007,0.23549 0.35547,0.45118c0.05389,0.16181 0.14119,0.35097 0.25976,0.5664c0.12936,0.20483 0.2952,0.40364 0.5,0.59766c0.2048,0.19404 0.45311,0.36186 0.74414,0.50195c0.30182,0.12926 0.6568,0.19336 1.06641,0.19336c0.29103,0 0.58201,-0.03798 0.87305,-0.11328c0.29102,-0.08617 0.55097,-0.20454 0.77734,-0.35547c0.22637,-0.16179 0.40871,-0.35576 0.54883,-0.58203c0.14014,-0.23713 0.21094,-0.50679 0.21094,-0.80859c0,-0.44196 -0.0873,-0.79693 -0.25977,-1.06641c-0.17246,-0.28021 -0.38779,-0.49556 -0.64648,-0.64649c-0.2587,-0.15092 -0.54288,-0.25274 -0.85547,-0.30664c-0.31259,-0.0539 -0.61037,-0.082 -0.89063,-0.082c-0.2048,0 -0.36096,-0.09025 -0.46875,-0.27343c-0.10781,-0.18321 -0.16211,-0.37719 -0.16211,-0.58204c0,-0.20477 0.04949,-0.38422 0.14649,-0.53515c0.10778,-0.16179 0.26879,-0.24219 0.48437,-0.24219c0.20481,0 0.44342,-0.0262 0.71289,-0.0801c0.28027,-0.05392 0.54311,-0.14613 0.79102,-0.27539c0.24791,-0.12926 0.45839,-0.30189 0.63086,-0.51758c0.18329,-0.22634 0.27539,-0.51247 0.27539,-0.85742c-0.01078,-0.51739 -0.19992,-0.91507 -0.56641,-1.19531c-0.36649,-0.28027 -0.87279,-0.41992 -1.51953,-0.41992c-0.32338,0 -0.60951,0.05231 -0.85742,0.16015c-0.24791,0.09694 -0.45839,0.22691 -0.63086,0.38868c-0.17246,0.15085 -0.31213,0.32835 -0.41992,0.5332c-0.09701,0.19404 -0.16784,0.38801 -0.21094,0.58203c-0.0539,0.28014 -0.16542,0.48093 -0.33789,0.59961c-0.17246,0.11863 -0.36645,0.17773 -0.58203,0.17773c-0.28026,0 -0.54506,-0.10374 -0.79297,-0.30859c-0.24791,-0.21558 -0.37305,-0.53274 -0.37305,-0.95313c0,-0.19401 0.07082,-0.47335 0.21094,-0.83984c0.14013,-0.37727 0.37194,-0.7439 0.69531,-1.09961c0.33415,-0.36649 0.7648,-0.6856 1.29297,-0.95508c0.53895,-0.28026 1.20821,-0.41992 2.00586,-0.41992zM68.3789,167.15732c0.29104,0 0.53934,0.10374 0.74414,0.3086c0.2048,0.2048 0.30664,0.45309 0.30664,0.74414c0,0.30175 -0.10184,0.55491 -0.30664,0.75976c-0.2048,0.20485 -0.4531,0.30664 -0.74414,0.30664h-5.6582v2.76563h4.75391c0.30181,0 0.55496,0.10658 0.75976,0.32226c0.2048,0.2048 0.30664,0.45312 0.30664,0.74414c0,0.29095 -0.10184,0.54408 -0.30664,0.75977c-0.20481,0.20485 -0.45795,0.30664 -0.75976,0.30664h-4.75391v3.62109h5.6582c0.29104,0 0.53934,0.10375 0.74414,0.3086c0.2048,0.2048 0.30664,0.45311 0.30664,0.74414c0,0.30178 -0.10184,0.55491 -0.30664,0.75976c-0.2048,0.20485 -0.4531,0.30664 -0.74414,0.30664h-6.85547c-0.15091,0 -0.30222,-0.0214 -0.45312,-0.0645c-0.15089,-0.05392 -0.29056,-0.12956 -0.41992,-0.22656c-0.11855,-0.10769 -0.21556,-0.24253 -0.29102,-0.4043c-0.07546,-0.16179 -0.11328,-0.35576 -0.11328,-0.58203v-10.21875c0,-0.09701 0.0165,-0.21537 0.04883,-0.35547c0.03236,-0.151 0.09635,-0.29066 0.19335,-0.41992c0.09701,-0.1401 0.22699,-0.25364 0.38868,-0.33984c0.17246,-0.09699 0.38779,-0.14649 0.64648,-0.14649zM71.62499,167.15925c0.19401,0 0.37831,0.04271 0.55078,0.12891c0.17246,0.07552 0.31214,0.20549 0.41993,0.38867l2.21484,3.81446l2.19922,-3.81446c0.10778,-0.18335 0.24745,-0.31337 0.41993,-0.38867c0.17247,-0.08621 0.35676,-0.12891 0.55078,-0.12891c0.25869,0 0.46722,0.04271 0.6289,0.12891c0.16169,0.08617 0.29166,0.19301 0.38867,0.32227c0.09701,0.12938 0.16103,0.2642 0.19336,0.40429c0.04312,0.1401 0.06641,0.26521 0.06641,0.37305c0,0.23708 -0.07082,0.45726 -0.21094,0.66211l-2.94336,4.30078l3.21875,4.68945c0.12934,0.19412 0.19336,0.4046 0.19336,0.63086c0,0.22627 -0.04269,0.42027 -0.1289,0.58203c-0.08623,0.15093 -0.19486,0.2741 -0.32422,0.3711c-0.12935,0.09701 -0.26902,0.17266 -0.41992,0.22656c-0.14012,0.0431 -0.27494,0.0645 -0.4043,0.0645c-0.19403,0 -0.38317,-0.0427 -0.5664,-0.1289c-0.17246,-0.0863 -0.31214,-0.22112 -0.41992,-0.4043l-2.44141,-4.25195l-2.45703,4.25195c-0.10778,0.18331 -0.25425,0.3181 -0.4375,0.4043c-0.17248,0.0862 -0.35481,0.1289 -0.54883,0.1289c-0.16169,0 -0.31785,-0.0262 -0.46875,-0.0801c-0.1509,-0.06476 -0.28572,-0.15193 -0.40429,-0.25977c-0.11855,-0.10777 -0.21556,-0.23579 -0.29102,-0.38672c-0.07546,-0.1509 -0.11328,-0.32356 -0.11328,-0.51758c0,-0.22637 0.06399,-0.43684 0.19335,-0.63086l3.23438,-4.68945l-2.95898,-4.30078c-0.12937,-0.19399 -0.19532,-0.41417 -0.19532,-0.66211c0,-0.10784 0.0165,-0.23295 0.04883,-0.37305c0.04311,-0.1508 0.11393,-0.28562 0.21094,-0.40429c0.09701,-0.12926 0.22698,-0.23607 0.38867,-0.32227c0.1617,-0.08621 0.36537,-0.12891 0.61328,-0.12891zM82.68554,167.51474c0.24791,0.23713 0.3711,0.52811 0.3711,0.87305v3.7832h5.27148v-3.7832c0,-0.34497 0.11831,-0.63594 0.35547,-0.87305c0.23713,-0.2371 0.52811,-0.35547 0.87304,-0.35547c0.34491,0 0.63589,0.11837 0.87305,0.35547c0.24791,0.23713 0.37304,0.52811 0.37304,0.87305v10.29883c0,0.34497 -0.12513,0.63594 -0.37304,0.87304c-0.23714,0.23711 -0.52812,0.35547 -0.87305,0.35547c-0.34494,0 -0.63592,-0.11836 -0.87304,-0.35547c-0.23716,-0.23712 -0.35547,-0.5281 -0.35547,-0.87304v-4.38086h-5.27148v4.38086c0,0.34497 -0.12318,0.63594 -0.3711,0.87304c-0.23714,0.23711 -0.52811,0.35547 -0.87304,0.35547c-0.34491,0 -0.63589,-0.11836 -0.87304,-0.35547c-0.23712,-0.23712 -0.35547,-0.5281 -0.35547,-0.87304v-10.29883c0,-0.34497 0.11834,-0.63594 0.35547,-0.87305c0.23714,-0.2371 0.52811,-0.35547 0.87304,-0.35547c0.34494,0 0.63592,0.11837 0.87304,0.35547zM104.69727,167.51474c0.24791,0.23713 0.37304,0.52811 0.37304,0.87305v7.69531c0,0.30184 0.064,0.57149 0.19336,0.8086c0.14013,0.23725 0.31762,0.44288 0.53321,0.61523c0.22635,0.16176 0.48146,0.28489 0.76171,0.37109c0.29104,0.08621 0.58686,0.12891 0.88868,0.12891c0.30181,0 0.59279,-0.04271 0.87304,-0.12891c0.29103,-0.08617 0.54418,-0.20933 0.75977,-0.37109c0.22637,-0.1725 0.40387,-0.37813 0.5332,-0.61523c0.14014,-0.23713 0.21094,-0.50679 0.21094,-0.8086v-7.69531c0,-0.34497 0.11834,-0.63594 0.35547,-0.87305c0.24792,-0.2371 0.54374,-0.35547 0.88867,-0.35547c0.34494,0 0.63592,0.11837 0.87305,0.35547c0.23712,0.23713 0.35547,0.52811 0.35547,0.87305v7.69531c-0.00001,0.79763 -0.13967,1.46206 -0.41993,1.99024c-0.26947,0.51739 -0.63126,0.93155 -1.08398,1.24414c-0.45272,0.30196 -0.96872,0.51243 -1.55078,0.63086c-0.58207,0.11863 -1.18052,0.17773 -1.79492,0.17773c-0.61441,0 -1.21286,-0.05906 -1.79493,-0.17773c-0.58207,-0.11855 -1.10001,-0.32903 -1.55273,-0.63086c-0.45272,-0.31259 -0.81936,-0.72675 -1.09961,-1.24414c-0.26948,-0.52818 -0.4043,-1.19261 -0.4043,-1.99024v-7.69531c0,-0.34497 0.11834,-0.63594 0.35547,-0.87305c0.23714,-0.2371 0.52812,-0.35547 0.87305,-0.35547c0.34494,0 0.63592,0.11837 0.87305,0.35547zM132.41016,167.15927c0.29103,0 0.53934,0.10179 0.74414,0.30665c0.21558,0.2048 0.32422,0.45309 0.32422,0.74414c0,0.30175 -0.10864,0.55491 -0.32422,0.75976c-0.20481,0.20485 -0.45311,0.30664 -0.74414,0.30664h-2.8125v9.41016c0,0.34497 -0.11832,0.63594 -0.35547,0.87304c-0.23714,0.23711 -0.52812,0.35547 -0.87305,0.35547c-0.34494,0 -0.63592,-0.11836 -0.87305,-0.35547c-0.23715,-0.23712 -0.35742,-0.5281 -0.35742,-0.87304v-9.41016h-2.8125c-0.29103,0 -0.54418,-0.10179 -0.75976,-0.30664c-0.2048,-0.2048 -0.30664,-0.45796 -0.30664,-0.75976c0,-0.291 0.10184,-0.53929 0.30664,-0.74414c0.21558,-0.20486 0.46873,-0.30665 0.75976,-0.30665zM139.91797,167.15932c0.34492,0 0.63589,0.11837 0.87305,0.35547c0.24791,0.23713 0.37304,0.52811 0.37304,0.87305v9.41016h5.22071c0.30181,0 0.55691,0.10179 0.76171,0.30664c0.2048,0.2048 0.30664,0.45311 0.30664,0.74414c0,0.30178 -0.10184,0.55491 -0.30664,0.75976c-0.2048,0.20485 -0.4599,0.30664 -0.76171,0.30664h-6.41797c-0.15091,0 -0.30222,-0.0214 -0.45313,-0.0645c-0.15089,-0.05392 -0.29056,-0.12956 -0.41992,-0.22656c-0.11855,-0.10769 -0.21552,-0.24253 -0.29102,-0.4043c-0.07538,-0.16179 -0.11328,-0.35576 -0.11328,-0.58203v-10.25c0,-0.34497 0.11834,-0.63594 0.35547,-0.87305c0.23714,-0.2371 0.52812,-0.35547 0.87305,-0.35547zM167.1524,167.15935c0.14014,0 0.27981,0.0262 0.41993,0.0801c0.1509,0.05392 0.28572,0.13435 0.40429,0.24219c0.11855,0.09693 0.21552,0.22691 0.29102,0.38867c0.08626,0.15093 0.13086,0.32356 0.13086,0.51758v10.29883c0,0.34497 -0.12514,0.63594 -0.37305,0.87304c-0.23714,0.23711 -0.52812,0.35547 -0.87305,0.35547c-0.34491,0 -0.63589,-0.11836 -0.87304,-0.35547c-0.23716,-0.23712 -0.35547,-0.5281 -0.35547,-0.87304v-6.80664c0,-0.20473 -0.033,-0.3395 -0.0977,-0.4043c-0.05389,-0.07538 -0.13439,-0.11328 -0.24219,-0.11328c-0.10779,0 -0.23581,0.0165 -0.38671,0.0488c-0.15092,0.0322 -0.34686,0.0488 -0.58399,0.0488c-0.16169,0 -0.31105,-0.0329 -0.45117,-0.0977c-0.12936,-0.07534 -0.24768,-0.16755 -0.35547,-0.27539c-0.09701,-0.11868 -0.17944,-0.24184 -0.24414,-0.37109c-0.0539,-0.14018 -0.0801,-0.27983 -0.0801,-0.41993c0,-0.23717 0.07566,-0.42631 0.22656,-0.5664c0.15091,-0.1401 0.32841,-0.26325 0.53321,-0.3711c0.21558,-0.10784 0.4309,-0.21159 0.64648,-0.30859c0.21559,-0.10772 0.39309,-0.24253 0.53321,-0.4043c0.16168,-0.18335 0.30329,-0.36085 0.42187,-0.5332c0.12934,-0.18328 0.25252,-0.34428 0.37109,-0.48438c0.12936,-0.14009 0.26418,-0.25364 0.4043,-0.33984c0.15091,-0.08621 0.3284,-0.12891 0.5332,-0.12891zM95.63086,174.09482h2.63476l-1.31054,-4.46289zM149.01561,170.55384c0.21558,0 0.40956,0.05426 0.58204,0.16211c0.18323,0.0969 0.30639,0.25306 0.37109,0.46874l1.7793,5.9668l1.79492,-5.9668c0.06465,-0.21558 0.183,-0.37174 0.35547,-0.46874c0.18324,-0.10781 0.38207,-0.16211 0.59765,-0.16211c0.12934,0 0.25931,0.0281 0.38868,0.082c0.14012,0.04308 0.2633,0.10716 0.37109,0.19336c0.11855,0.08617 0.21552,0.19975 0.29102,0.33984c0.07548,0.12946 0.11328,0.27883 0.11328,0.45117c0,0.09701 -0.0165,0.19402 -0.0488,0.29102l-2.42578,6.95312c-0.11858,0.32338 -0.30092,0.58138 -0.54883,0.77539c-0.24792,0.18319 -0.54374,0.27539 -0.88867,0.27539c-0.34494,0 -0.64272,-0.09221 -0.89063,-0.27539c-0.24791,-0.19401 -0.43025,-0.45201 -0.54883,-0.77539l-2.41015,-6.95312c-0.0324,-0.09701 -0.0469,-0.19402 -0.0469,-0.29102c0,-0.34499 0.12318,-0.60783 0.3711,-0.79101c0.24792,-0.18319 0.51271,-0.27539 0.79296,-0.27539zM158.30859,177.81357c0.24792,0.23715 0.3711,0.52813 0.3711,0.87305c0,0.34497 -0.12318,0.63594 -0.3711,0.87304c-0.23714,0.23711 -0.52811,0.35547 -0.87304,0.35547c-0.34492,0 -0.6359,-0.11836 -0.87305,-0.35547c-0.23715,-0.23712 -0.35742,-0.5281 -0.35742,-0.87304c0,-0.34497 0.12027,-0.63595 0.35742,-0.87305c0.23714,-0.24794 0.52812,-0.37109 0.87305,-0.37109c0.34491,0 0.63589,0.12315 0.87304,0.37109z" fill="#1eff00" stroke="none" stroke-width="1.01053" stroke-miterlimit="10" stroke-dashoffset="0"/><path d="M160.85115,194.53958c0.26797,0 0.49013,0.90471 0.70693,1.0622c0.21695,0.1576 1.14588,0.0892 1.22865,0.34394c0.08277,0.25474 -0.70897,0.74574 -0.79174,1.00055c-0.08277,0.25474 0.2691,1.11738 0.05254,1.27487c-0.21695,0.1576 -0.92833,-0.44383 -1.19626,-0.44383c-0.26797,0 -0.9795,0.60133 -1.19629,0.44383c-0.21657,-0.1576 0.1353,-1.02001 0.05253,-1.27487c-0.08277,-0.25474 -0.87458,-0.74574 -0.79177,-1.00055c0.08277,-0.25474 1.0119,-0.18671 1.22865,-0.34394c0.21695,-0.1576 0.43899,-1.0622 0.70692,-1.0622z" fill="#1eff00" stroke="none" stroke-width="0.1852" stroke-miterlimit="4" stroke-dashoffset="17.35"/></g></g></svg>