<svg version="1.1" xmlns="http://www.w3.org/2000/svg" xmlns:xlink="http://www.w3.org/1999/xlink" width="372.21497" height="68.64271" viewBox="0,0,372.21497,68.64271"><g transform="translate(-53.89252,-145.67864)"><g data-paper-data="{&quot;isPaintingLayer&quot;:true}" fill-rule="nonzero" stroke-linecap="butt" stroke-linejoin="miter" stroke-dasharray="" style="mix-blend-mode: normal"><path d="M425.00976,146.42864c0.19313,0 0.34772,0.15458 0.34772,0.34772v66.44538c0,0.19313 -0.15458,0.34961 -0.34772,0.34961h-370.01764c-0.19313,0 -0.34961,-0.15647 -0.34961,-0.34961v-66.4453c0,-0.19313 0.15647,-0.34772 0.34961,-0.34772z" fill="#1e1e1e" stroke="#1eff00" stroke-width="1.5" stroke-miterlimit="4" stroke-dashoffset="17.35"/><path d="M69.10182,187.56562c1.27601,0 2.33412,4.30809 3.36643,5.0581c1.03219,0.7499 5.4565,0.42501 5.85078,1.6385c0.3942,1.21349 -3.3761,3.55109 -3.77031,4.76459c-0.39428,1.21353 1.2819,5.32082 0.24983,6.07083c-1.0323,0.7499 -4.42057,-2.11351 -5.6965,-2.11351c-1.27589,0 -4.66416,2.86341 -5.69647,2.11351c-1.0323,-0.75001 0.64399,-4.8573 0.24983,-6.07083c-0.39432,-1.21349 -4.16462,-3.55109 -3.77031,-4.76459c0.39428,-1.21349 4.8186,-0.8886 5.85078,-1.6385c1.0323,-0.75001 2.09042,-5.0581 3.36631,-5.0581z" fill="#1eff00" stroke="none" stroke-width="0.23333" stroke-miterlimit="4" stroke-dashoffset="17.35"/><path d="M92.03894,187.56562c1.2759,0 2.33401,4.30809 3.36632,5.0581c1.0323,0.7499 5.45646,0.42501 5.85078,1.6385c0.39432,1.21349 -3.37599,3.55109 -3.77031,4.76459c-0.39428,1.21353 1.2819,5.32082 0.24945,6.07083c-1.0323,0.7499 -4.42061,-2.11351 -5.6965,-2.11351c-1.27601,0 -4.66428,2.86341 -5.69651,2.11351c-1.0323,-0.75001 0.64399,-4.8573 0.24945,-6.07083c-0.3942,-1.21349 -4.16447,-3.55109 -3.77019,-4.76459c0.3942,-1.21349 4.81852,-0.8886 5.85071,-1.6385c1.0323,-0.75001 2.09038,-5.0581 3.36639,-5.0581z" fill="#1eff00" stroke="none" stroke-width="0.23333" stroke-miterlimit="4" stroke-dashoffset="17.35"/><path d="M114.97603,187.56562c1.27593,0 2.33401,4.30809 3.36631,5.0581c1.0323,0.7499 5.4565,0.42501 5.85082,1.6385c0.39428,1.21349 -3.37603,3.55109 -3.77031,4.76459c-0.39432,1.21353 1.2819,5.32082 0.24945,6.07083c-1.0323,0.7499 -4.42061,-2.11351 -5.6965,-2.11351c-1.27601,0 -4.66431,2.86341 -5.6965,2.11351c-1.0323,-0.75001 0.64399,-4.8573 0.24945,-6.07083c-0.3942,-1.21349 -4.16451,-3.55109 -3.77019,-4.76459c0.39417,-1.21349 4.81848,-0.8886 5.85067,-1.6385c1.0323,-0.75001 2.09042,-5.0581 3.36643,-5.0581z" fill="#1eff00" stroke="none" stroke-width="0.23333" stroke-miterlimit="4" stroke-dashoffset="17.35"/><path d="M137.91297,194.62851c0.25519,0 0.46679,0.86162 0.67325,1.01163c0.20648,0.15005 1.0913,0.08504 1.17016,0.32769c0.07884,0.24265 -0.67521,0.71021 -0.75406,0.95289c-0.07888,0.24265 0.25637,1.06416 0.04989,1.21417c-0.20648,0.15005 -0.88412,-0.4227 -1.1393,-0.4227c-0.25519,0 -0.93286,0.57267 -1.1393,0.4227c-0.20648,-0.15005 0.12881,-0.97145 0.04989,-1.21417c-0.07884,-0.24265 -0.8329,-0.71021 -0.75404,-0.95289c0.07884,-0.24265 0.9637,-0.17764 1.17013,-0.32769c0.20648,-0.15005 0.41808,-1.01163 0.67329,-1.01163z" fill="#1eff00" stroke="none" stroke-width="0.04667" stroke-miterlimit="4" stroke-dashoffset="17.35"/><path d="M105.54412,153.1661c0.54974,0.16169 1.02016,0.377 1.40821,0.64648c0.39882,0.26948 0.70433,0.57016 0.91992,0.9043c0.21558,0.33416 0.32422,0.66782 0.32422,1.00195c0,0.28014 -0.097,0.50709 -0.29102,0.67969c-0.18324,0.16176 -0.38886,0.24219 -0.61523,0.24219c-0.1617,0 -0.31106,-0.04274 -0.45117,-0.12891c-0.14015,-0.09696 -0.25363,-0.24827 -0.33985,-0.45312c-0.12934,-0.32338 -0.30199,-0.58138 -0.51758,-0.7754c-0.2048,-0.20474 -0.43661,-0.3609 -0.69531,-0.46874c-0.24792,-0.11868 -0.51271,-0.19432 -0.79297,-0.22657c-0.28025,-0.04308 -0.54989,-0.06445 -0.80859,-0.06445c-0.38805,0 -0.74788,0.04273 -1.08203,0.12891c-0.32338,0.07533 -0.60951,0.18891 -0.85742,0.33984c-0.23714,0.14002 -0.42629,0.31752 -0.56641,0.5332c-0.12936,0.2048 -0.19336,0.44146 -0.19336,0.71094c0,0.36651 0.10668,0.66915 0.32227,0.90625c0.22636,0.23708 0.52414,0.43589 0.89062,0.59766c0.36649,0.16156 0.78064,0.30319 1.24414,0.42187c0.4635,0.11868 0.93877,0.24184 1.42383,0.37109c0.49584,0.12944 0.974,0.28557 1.4375,0.46876c0.4635,0.17244 0.8796,0.39942 1.24609,0.67968c0.36649,0.28027 0.65747,0.62556 0.87305,1.03516c0.22637,0.4096 0.33984,0.9091 0.33984,1.50195c0,0.65751 -0.12997,1.22978 -0.38867,1.71485c-0.24792,0.48503 -0.59321,0.88951 -1.03515,1.21289c-0.44195,0.3233 -0.95989,0.56479 -1.55274,0.72656c-0.59285,0.16176 -1.22232,0.24219 -1.89062,0.24219c-0.95933,0 -1.77795,-0.13287 -2.45703,-0.40235c-0.6683,-0.28026 -1.21243,-0.61587 -1.63281,-1.0039c-0.42039,-0.39884 -0.72786,-0.813 -0.92187,-1.24414c-0.19402,-0.44196 -0.29102,-0.82507 -0.29102,-1.14844c0,-0.38796 0.097,-0.66246 0.29102,-0.82422c0.2048,-0.16176 0.41332,-0.24219 0.62891,-0.24219c0.18325,0 0.35105,0.05906 0.50195,0.17774c0.1509,0.10776 0.24306,0.28526 0.27539,0.5332c0.06467,0.4096 0.20434,0.77139 0.41992,1.08398c0.22636,0.3125 0.50085,0.57533 0.82422,0.79102c0.32337,0.20475 0.68516,0.36091 1.08398,0.46875c0.39883,0.10784 0.80813,0.16211 1.22852,0.16211c0.33415,0 0.67945,-0.03769 1.03516,-0.11328c0.36649,-0.08618 0.6953,-0.20933 0.98633,-0.3711c0.3018,-0.17247 0.54331,-0.3946 0.72656,-0.66406c0.19402,-0.26948 0.29102,-0.59148 0.29102,-0.96875c0,-0.4096 -0.11152,-0.75005 -0.33789,-1.01953c-0.21558,-0.26953 -0.50656,-0.49651 -0.87305,-0.67969c-0.35571,-0.18315 -0.76696,-0.33249 -1.23047,-0.45117c-0.4635,-0.12944 -0.93682,-0.25941 -1.42187,-0.38867c-0.48506,-0.12926 -0.96033,-0.27574 -1.42383,-0.4375c-0.4635,-0.17247 -0.87765,-0.38779 -1.24414,-0.64649c-0.3557,-0.26948 -0.64668,-0.59147 -0.87305,-0.96875c-0.21558,-0.38803 -0.32422,-0.86816 -0.32422,-1.43945c0,-0.53896 0.11348,-1.01907 0.33984,-1.43945c0.23714,-0.42039 0.5611,-0.77538 0.9707,-1.06641c0.4096,-0.29102 0.89457,-0.51313 1.45508,-0.66406c0.56051,-0.15093 1.17545,-0.22656 1.84375,-0.22656c0.64674,0 1.23839,0.08237 1.77734,0.24414zM65.35467,153.14852c0.63596,0 1.27224,0.10853 1.9082,0.32422c0.63597,0.21558 1.20627,0.57542 1.71289,1.08203c0.50661,0.49585 0.91787,1.15346 1.23047,1.97266c0.31259,0.80844 0.46875,1.80649 0.46875,2.99218c0,1.19648 -0.15616,2.20424 -0.46875,3.02344c-0.31259,0.80844 -0.72385,1.46605 -1.23047,1.97266c-0.50662,0.49574 -1.07692,0.85072 -1.71289,1.0664c-0.63596,0.21569 -1.27224,0.32422 -1.9082,0.32422h-3.83203c-0.16169,0 -0.31785,-0.02811 -0.46875,-0.08203c-0.1509,-0.06476 -0.28572,-0.14997 -0.4043,-0.25781c-0.11855,-0.10772 -0.21555,-0.24253 -0.29102,-0.4043c-0.07546,-0.16169 -0.11328,-0.33919 -0.11328,-0.5332v-10.21875c0,-0.34492 0.12513,-0.64074 0.37305,-0.88867c0.24792,-0.24794 0.54859,-0.37305 0.9043,-0.37305zM87.40546,153.39071c0.16169,0.16171 0.24414,0.3625 0.24414,0.59961v6.17578l3.96094,-3.44336c0.15089,-0.11868 0.31674,-0.17774 0.5,-0.17774c0.17246,0 0.34026,0.0641 0.50195,0.19336c0.16169,0.12939 0.24219,0.31368 0.24219,0.55078c0,0.21556 -0.08534,0.3979 -0.25781,0.54883l-2.47461,2.13477l3.26562,4.62304c0.09701,0.15103 0.14648,0.31399 0.14648,0.48633c0,0.15086 -0.02618,0.27888 -0.08008,0.38672c-0.0539,0.09701 -0.12471,0.17939 -0.21094,0.24414c-0.08625,0.06476 -0.17838,0.11228 -0.27539,0.14453c-0.09701,0.03226 -0.18917,0.04883 -0.27539,0.04883c-0.14012,0 -0.26814,-0.02615 -0.38672,-0.08008c-0.11858,-0.05392 -0.22237,-0.14108 -0.30859,-0.25976l-3.10352,-4.49414l-1.24414,1.0664v2.91016c0,0.23728 -0.08245,0.44289 -0.24414,0.61523c-0.1617,0.16177 -0.36053,0.24219 -0.59766,0.24219c-0.23713,0 -0.44081,-0.08042 -0.61328,-0.24219c-0.16169,-0.17252 -0.24414,-0.37813 -0.24414,-0.61523v-11.05859c0,-0.23706 0.08245,-0.43785 0.24414,-0.59961c0.17245,-0.16177 0.37613,-0.24219 0.61328,-0.24219c0.23714,0 0.43597,0.08042 0.59766,0.24219zM111.4074,153.39267c0.16169,0.16171 0.24219,0.36055 0.24219,0.59766v3.79882c0.34493,-0.39871 0.71641,-0.70619 1.11524,-0.92187c0.39882,-0.21569 0.87894,-0.32227 1.43945,-0.32227c0.49584,0 0.95266,0.07564 1.37305,0.22657c0.42038,0.1509 0.78217,0.36622 1.08398,0.64648c0.30181,0.26948 0.53362,0.60314 0.69531,1.00195c0.17248,0.38806 0.25782,0.82551 0.25782,1.31055v5.31836c0,0.23728 -0.08534,0.44289 -0.25782,0.61523c-0.16169,0.16177 -0.36053,0.24219 -0.59765,0.24219c-0.23714,0 -0.43792,-0.08042 -0.59961,-0.24219c-0.16169,-0.17252 -0.24219,-0.37813 -0.24219,-0.61523v-5.31836c0,-0.24781 -0.05432,-0.47963 -0.16211,-0.69531c-0.097,-0.22627 -0.23182,-0.42027 -0.4043,-0.58203c-0.17245,-0.16177 -0.37128,-0.28688 -0.59765,-0.37305c-0.22637,-0.09701 -0.46303,-0.14453 -0.71094,-0.14453c-0.32337,0 -0.63084,0.0641 -0.92188,0.19336c-0.29102,0.11845 -0.54902,0.28627 -0.77539,0.50195c-0.21559,0.2048 -0.38824,0.4463 -0.51757,0.72656c-0.11858,0.28027 -0.17774,0.5829 -0.17774,0.90625v4.78516c0,0.23728 -0.0805,0.44289 -0.24219,0.61523c-0.16169,0.16177 -0.36248,0.24219 -0.59961,0.24219c-0.23713,0 -0.4408,-0.08042 -0.61328,-0.24219c-0.16168,-0.17252 -0.24218,-0.37813 -0.24218,-0.61523v-11.05859c0,-0.23706 0.0805,-0.4359 0.24218,-0.59766c0.17246,-0.16176 0.37613,-0.24414 0.61328,-0.24414c0.23714,0 0.43793,0.08238 0.59961,0.24414zM62.1535,164.20908h2.83008c0.63596,0 1.18978,-0.10854 1.66406,-0.32422c0.47428,-0.22635 0.86905,-0.53866 1.18164,-0.9375c0.3126,-0.4096 0.54441,-0.89942 0.69531,-1.47071c0.1509,-0.58207 0.22656,-1.23483 0.22656,-1.95703c0,-0.7114 -0.07566,-1.35251 -0.22656,-1.92383c-0.15091,-0.58204 -0.38272,-1.07381 -0.69531,-1.47265c-0.31259,-0.4095 -0.70736,-0.72182 -1.18164,-0.9375c-0.47428,-0.22627 -1.0281,-0.33985 -1.66406,-0.33985h-2.83008zM78.19257,157.09383c0.65752,0.43117 0.98633,1.0723 0.98633,1.92383v6.03125c0,0.23728 -0.08245,0.44289 -0.24414,0.61523c-0.1617,0.16177 -0.36053,0.24219 -0.59766,0.24219c-0.23713,0 -0.44081,-0.08042 -0.61328,-0.24219c-0.16169,-0.17252 -0.24414,-0.37813 -0.24414,-0.61523v-0.25781c-0.4096,0.4419 -0.87808,0.73774 -1.40625,0.88867c-0.51739,0.15093 -1.06637,0.22656 -1.64844,0.22656c-0.36649,0 -0.73797,-0.04947 -1.11523,-0.14648c-0.36649,-0.10767 -0.70209,-0.26869 -1.00391,-0.48438c-0.29105,-0.21558 -0.52771,-0.48521 -0.71094,-0.80859c-0.18326,-0.32338 -0.27539,-0.71135 -0.27539,-1.16406c0,-0.5174 0.10379,-0.94803 0.30859,-1.29297c0.2048,-0.35581 0.47929,-0.64678 0.82422,-0.87305c0.34493,-0.22624 0.73775,-0.3989 1.17969,-0.51758c0.45272,-0.11867 0.92799,-0.20584 1.42383,-0.25976c0.57129,-0.06476 1.01842,-0.13365 1.3418,-0.20899c0.32337,-0.08617 0.56487,-0.18317 0.72656,-0.29101c0.16169,-0.10785 0.25869,-0.23296 0.29102,-0.37305c0.04311,-0.13999 0.06445,-0.29615 0.06445,-0.46875c0,-0.20477 -0.05916,-0.38227 -0.17773,-0.5332c-0.11856,-0.15093 -0.26987,-0.27409 -0.45312,-0.3711c-0.18323,-0.097 -0.38691,-0.16785 -0.61328,-0.21093c-0.22636,-0.05393 -0.44848,-0.08008 -0.66406,-0.08008c-0.38806,0 -0.70037,0.03094 -0.9375,0.0957c-0.23714,0.06476 -0.43113,0.15192 -0.58203,0.25977c-0.1509,0.10776 -0.27409,0.23579 -0.37109,0.38672c-0.08594,0.15033 -0.16693,0.30755 -0.24219,0.46874v0.00196c-0.06461,0.1285 -0.15728,0.22456 -0.27539,0.28906c-0.10779,0.05392 -0.22127,0.08203 -0.33984,0.08203c-0.21559,0 -0.41442,-0.07084 -0.59766,-0.21094c-0.18326,-0.14012 -0.27539,-0.33409 -0.27539,-0.58203c0,-0.097 0.02813,-0.21537 0.08203,-0.35547c0.09701,-0.22626 0.22503,-0.44642 0.38672,-0.66211c0.16169,-0.22621 0.37701,-0.42701 0.64648,-0.5996c0.28026,-0.17248 0.6207,-0.30729 1.01953,-0.4043c0.4096,-0.10784 0.90621,-0.16016 1.48828,-0.16016c1.09946,0 1.9724,0.22016 2.61914,0.66211zM124.6574,156.70517c0.53896,0.18323 1.00258,0.45289 1.39063,0.80859c0.39882,0.34495 0.71113,0.77074 0.9375,1.27735c0.22637,0.50663 0.33984,1.08374 0.33984,1.73047c0,0.39879 -0.097,0.7014 -0.29101,0.90625c-0.19403,0.20485 -0.41904,0.30664 -0.67774,0.30664h-5.91797c0,0.02141 0.00479,0.11362 0.01563,0.27539c0.02157,0.1508 0.05938,0.33314 0.11328,0.54883c0.06468,0.21555 0.15002,0.44737 0.25781,0.69531c0.11858,0.2371 0.27669,0.45921 0.47071,0.66406c0.19402,0.20483 0.43068,0.37748 0.71093,0.51758c0.29104,0.12926 0.64118,0.19336 1.05078,0.19336c0.33417,0 0.6203,-0.02616 0.85743,-0.08008c0.23712,-0.05392 0.44565,-0.1363 0.6289,-0.24414c0.18325,-0.10772 0.35105,-0.24253 0.50196,-0.4043c0.15091,-0.17255 0.30222,-0.37139 0.45312,-0.59765c0.08622,-0.12926 0.18322,-0.22147 0.29102,-0.27539c0.10779,-0.05393 0.22126,-0.08008 0.33984,-0.08008c0.19402,0 0.37152,0.07084 0.5332,0.21093c0.16169,0.14002 0.24219,0.31752 0.24219,0.53321c0,0.12933 -0.07082,0.32333 -0.21094,0.58203c-0.14013,0.2587 -0.36514,0.51669 -0.67773,0.77539c-0.30181,0.25872 -0.69658,0.48567 -1.18164,0.67969c-0.48506,0.19401 -1.07671,0.29101 -1.77735,0.29101c-0.71141,0 -1.34769,-0.12997 -1.9082,-0.38867c-0.56051,-0.25869 -1.03383,-0.60399 -1.42187,-1.03516c-0.37727,-0.44192 -0.6702,-0.95308 -0.875,-1.53515c-0.19402,-0.58207 -0.29102,-1.19216 -0.29102,-1.82813c0,-0.65751 0.10379,-1.2773 0.30859,-1.85937c0.20481,-0.59286 0.49579,-1.10399 0.87305,-1.53516c0.38805,-0.43114 0.85167,-0.77159 1.39063,-1.01953c0.53895,-0.25869 1.14224,-0.38672 1.81054,-0.38672c0.61441,0 1.18472,0.09026 1.71289,0.27344zM134.06951,156.70517c0.53896,0.18323 1.00258,0.45289 1.39063,0.80859c0.39881,0.34495 0.71113,0.77074 0.9375,1.27735c0.22637,0.50663 0.33984,1.08374 0.33984,1.73047c0,0.39879 -0.097,0.7014 -0.29101,0.90625c-0.19403,0.20485 -0.42099,0.30664 -0.67969,0.30664h-5.91797c0,0.02141 0.00479,0.11362 0.01563,0.27539c0.02154,0.1508 0.05938,0.33314 0.11328,0.54883c0.06468,0.21555 0.15197,0.44737 0.25976,0.69531c0.11858,0.2371 0.27474,0.45921 0.46875,0.66406c0.19402,0.20483 0.43068,0.37748 0.71094,0.51758c0.29103,0.12926 0.64118,0.19336 1.05078,0.19336c0.33414,0 0.62027,-0.02616 0.85742,-0.08008c0.23715,-0.05392 0.44763,-0.1363 0.63086,-0.24414c0.18325,-0.10772 0.3491,-0.24253 0.5,-0.4043c0.15091,-0.17255 0.30222,-0.37139 0.45313,-0.59765c0.08622,-0.12926 0.18322,-0.22147 0.29101,-0.27539c0.1078,-0.05393 0.22127,-0.08008 0.33985,-0.08008c0.19402,0 0.37151,0.07084 0.5332,0.21093c0.16169,0.14002 0.24219,0.31752 0.24219,0.53321c0,0.12933 -0.06887,0.32333 -0.20899,0.58203c-0.14012,0.2587 -0.36709,0.51669 -0.67968,0.77539c-0.30182,0.25872 -0.69463,0.48567 -1.17969,0.67969c-0.48506,0.19401 -1.07866,0.29101 -1.7793,0.29101c-0.71142,0 -1.34769,-0.12997 -1.9082,-0.38867c-0.56051,-0.25869 -1.03383,-0.60399 -1.42188,-1.03516c-0.37726,-0.44192 -0.66824,-0.95308 -0.87304,-1.53515c-0.19402,-0.58207 -0.29102,-1.19216 -0.29102,-1.82813c0,-0.65751 0.10184,-1.2773 0.30664,-1.85937c0.2048,-0.59286 0.49578,-1.10399 0.87305,-1.53516c0.38804,-0.43114 0.85167,-0.77159 1.39062,-1.01953c0.53896,-0.25869 1.14225,-0.38672 1.81055,-0.38672c0.61441,0 1.18667,0.09026 1.71484,0.27344zM81.89374,156.80283c0.16169,0.16171 0.24219,0.36055 0.24219,0.59765v0.3086c0.04311,-0.04309 0.12361,-0.13051 0.24219,-0.25977c0.11856,-0.12944 0.26503,-0.25941 0.4375,-0.38867c0.18324,-0.1401 0.38207,-0.25846 0.59766,-0.35547c0.22637,-0.10784 0.46302,-0.16016 0.71094,-0.16016c0.23714,0 0.43597,0.08522 0.59766,0.25782c0.17247,0.16171 0.25976,0.36055 0.25976,0.59765c0,0.22647 -0.08729,0.42727 -0.25976,0.59961c-0.16167,0.16177 -0.3605,0.24219 -0.59766,0.24219c-0.4096,0 -0.74326,0.097 -1.00195,0.29101c-0.2587,0.18326 -0.46433,0.40342 -0.61523,0.66211c-0.14012,0.2587 -0.23712,0.52833 -0.29102,0.8086c-0.0539,0.28031 -0.08008,0.51213 -0.08008,0.69531v4.34961c0,0.23728 -0.0805,0.44093 -0.24219,0.61328c-0.1617,0.16177 -0.36248,0.24414 -0.59961,0.24414c-0.23713,0 -0.44081,-0.08237 -0.61328,-0.24414c-0.16169,-0.17252 -0.24219,-0.37618 -0.24219,-0.61328v-7.64844c0,-0.23705 0.0805,-0.43589 0.24219,-0.59765c0.17245,-0.1726 0.37613,-0.25977 0.61328,-0.25977c0.23714,0 0.43792,0.08717 0.59961,0.25977zM139.25897,156.80283c0.16169,0.16171 0.24218,0.36055 0.24218,0.59765v0.14649c0.2156,-0.18334 0.41638,-0.33949 0.59961,-0.46875c0.19403,-0.12926 0.39286,-0.23105 0.59766,-0.30664c0.20481,-0.08643 0.43178,-0.14549 0.67969,-0.17774c0.24791,-0.03225 0.53209,-0.04883 0.85547,-0.04883c0.52817,0 1.02478,0.11358 1.48828,0.33985c0.47428,0.22634 0.88358,0.54836 1.22851,0.96875c0.35571,0.4096 0.637,0.90621 0.8418,1.48828c0.2048,0.57129 0.30664,1.20271 0.30664,1.89258c0,0.68986 -0.09216,1.31933 -0.27539,1.89062c-0.18324,0.57129 -0.44609,1.0679 -0.79102,1.48828c-0.33415,0.4097 -0.73861,0.72686 -1.21289,0.95313c-0.47428,0.22627 -1.00387,0.33984 -1.58593,0.33984c-0.38805,0 -0.72655,-0.03769 -1.01758,-0.11328c-0.28025,-0.08617 -0.52856,-0.18796 -0.74414,-0.30664c-0.2048,-0.1186 -0.38714,-0.24858 -0.54883,-0.38867c-0.15089,-0.15101 -0.29251,-0.29066 -0.42188,-0.41992v3.7832c0,0.23705 -0.08049,0.43589 -0.24218,0.59766c-0.16168,0.17259 -0.36051,0.25976 -0.59766,0.25976c-0.23713,0 -0.44276,-0.08717 -0.61523,-0.25976c-0.16169,-0.16172 -0.24219,-0.36056 -0.24219,-0.59766v-11.06055c0,-0.23705 0.0805,-0.43589 0.24219,-0.59765c0.17245,-0.1726 0.37808,-0.25782 0.61523,-0.25782c0.23714,0 0.43597,0.08522 0.59766,0.25782zM121.95819,158.00008c-0.28027,0.11865 -0.51693,0.26995 -0.71094,0.45313c-0.18325,0.17234 -0.32971,0.36634 -0.4375,0.58203c-0.10779,0.21563 -0.18829,0.41447 -0.24219,0.59765c-0.05385,0.18329 -0.08682,0.34428 -0.09766,0.48438c-0.01083,0.12825 -0.01562,0.20388 -0.01562,0.22656h5.23828c0,-0.33413 -0.05432,-0.65132 -0.16211,-0.95312c-0.10778,-0.30191 -0.27363,-0.5667 -0.5,-0.79297c-0.21558,-0.23718 -0.49687,-0.42631 -0.8418,-0.56641c-0.34441,-0.13988 -0.7483,-0.20877 -1.21093,-0.20898h-0.00196c-0.39791,0.0002 -0.73781,0.05951 -1.01757,0.17773zM131.36834,158.00008c-0.28026,0.11865 -0.51692,0.26995 -0.71094,0.45313c-0.18324,0.17234 -0.3297,0.36634 -0.4375,0.58203c-0.10779,0.21563 -0.18829,0.41447 -0.24218,0.59765c-0.05385,0.18329 -0.08487,0.34428 -0.09571,0.48438c-0.01083,0.12825 -0.01757,0.20388 -0.01757,0.22656h5.23828c0,-0.33413 -0.05237,-0.65132 -0.16016,-0.95312c-0.10778,-0.30191 -0.27558,-0.5667 -0.50195,-0.79297c-0.21558,-0.23718 -0.49492,-0.42631 -0.83985,-0.56641c-0.34493,-0.14009 -0.74939,-0.20898 -1.21289,-0.20898c-0.39882,0 -0.73927,0.05931 -1.01953,0.17773zM140.86053,158.20908c-0.31259,0.18323 -0.57739,0.43154 -0.79297,0.74414c-0.21558,0.3018 -0.38142,0.65194 -0.5,1.05078c-0.10779,0.38803 -0.16211,0.79735 -0.16211,1.22851c0,0.42039 0.05432,0.83166 0.16211,1.23047c0.11857,0.39884 0.28442,0.74898 0.5,1.05078c0.21558,0.30189 0.48037,0.54339 0.79297,0.72657c0.32337,0.18318 0.69,0.27539 1.09961,0.27539c0.39882,0 0.75381,-0.09221 1.06641,-0.27539c0.32336,-0.18326 0.593,-0.42476 0.80859,-0.72657c0.22636,-0.3018 0.39416,-0.65194 0.50195,-1.05078c0.11858,-0.39881 0.17774,-0.81008 0.17774,-1.23047c0,-0.43116 -0.05916,-0.84048 -0.17774,-1.22851c-0.10778,-0.39884 -0.27558,-0.74898 -0.50195,-1.05078c-0.21558,-0.31265 -0.48522,-0.56096 -0.80859,-0.74414c-0.3126,-0.18318 -0.66759,-0.27344 -1.06641,-0.27344c-0.40961,0 -0.77624,0.09026 -1.09961,0.27344zM77.07538,161.379c-0.2048,0.06475 -0.4463,0.11228 -0.72656,0.14453c-0.26948,0.0325 -0.55561,0.07019 -0.85742,0.11328c-0.29103,0.04309 -0.57717,0.09735 -0.85742,0.16211c-0.28025,0.06476 -0.5334,0.16176 -0.75977,0.29102c-0.22637,0.11857 -0.40871,0.27473 -0.54883,0.46875c-0.12936,0.19401 -0.19531,0.4423 -0.19531,0.74414c0,0.23705 0.04948,0.43589 0.14648,0.59765c0.10779,0.15093 0.24261,0.27604 0.4043,0.37305c0.16169,0.08617 0.34403,0.15027 0.54883,0.19336c0.2048,0.03225 0.41043,0.04883 0.61523,0.04883c0.31259,0 0.62491,-0.0329 0.9375,-0.09766c0.3126,-0.07534 0.59388,-0.1937 0.8418,-0.35547c0.2587,-0.16169 0.46238,-0.377 0.61328,-0.64648c0.16169,-0.26948 0.24219,-0.60314 0.24219,-1.00196v-1.14843zM62.34686,168.17392c0.24791,0.23713 0.37305,0.5281 0.37305,0.87305v3.78515h5.26953v-3.78515c0,-0.34497 0.12029,-0.63595 0.35742,-0.87305c0.23714,-0.2371 0.52812,-0.35547 0.87305,-0.35547c0.34494,0 0.63592,0.11837 0.87305,0.35547c0.24791,0.23713 0.37109,0.5281 0.37109,0.87305v10.30078c0,0.34494 -0.12318,0.63594 -0.37109,0.87304c-0.23714,0.23711 -0.52812,0.35547 -0.87305,0.35547c-0.34494,0 -0.63592,-0.11836 -0.87305,-0.35547c-0.23713,-0.23712 -0.35742,-0.52812 -0.35742,-0.87304v-4.38281h-5.26953v4.38281c0,0.34494 -0.12513,0.63594 -0.37305,0.87304c-0.23714,0.23711 -0.52812,0.35547 -0.87305,0.35547c-0.34494,0 -0.63592,-0.11836 -0.87305,-0.35547c-0.23713,-0.23712 -0.35547,-0.52812 -0.35547,-0.87304v-10.30078c0,-0.34497 0.11834,-0.63595 0.35547,-0.87305c0.23714,-0.2371 0.52812,-0.35547 0.87305,-0.35547c0.34494,0 0.63592,0.11837 0.87305,0.35547zM77.63592,167.81844c0.77609,0 1.46669,0.18914 2.07031,0.56641c0.61441,0.36649 1.12555,0.85143 1.53516,1.45508c0.42038,0.59283 0.73949,1.27178 0.95508,2.03711c0.21558,0.7653 0.32226,1.53641 0.32226,2.3125c0,0.78687 -0.10668,1.56279 -0.32226,2.32812c-0.21558,0.75452 -0.53469,1.43347 -0.95508,2.03711c-0.4096,0.60362 -0.9159,1.09343 -1.51953,1.4707c-0.60363,0.36649 -1.29907,0.55078 -2.08594,0.55078h-4.39648c-0.15091,0 -0.30222,-0.02136 -0.45312,-0.06445c-0.15089,-0.05392 -0.29056,-0.12955 -0.41992,-0.22656c-0.11858,-0.10772 -0.21558,-0.24253 -0.29102,-0.4043c-0.07546,-0.16179 -0.11328,-0.35576 -0.11328,-0.58203v-10.21875c0,-0.09701 0.0165,-0.21537 0.04883,-0.35547c0.03235,-0.151 0.09635,-0.29066 0.19336,-0.41992c0.09701,-0.1401 0.22698,-0.25367 0.38867,-0.33984c0.17246,-0.09701 0.38779,-0.14649 0.64648,-0.14649zM74.43475,178.4415h2.28125c0.63597,0 1.1636,-0.11837 1.58398,-0.35547c0.43116,-0.24794 0.77646,-0.57189 1.03516,-0.9707c0.2587,-0.39882 0.44104,-0.85079 0.54883,-1.35743c0.10779,-0.51739 0.16211,-1.04018 0.16211,-1.56835c0,-0.52818 -0.05432,-1.04613 -0.16211,-1.55274c-0.10779,-0.50661 -0.29013,-0.95858 -0.54883,-1.35742c-0.2587,-0.39879 -0.60399,-0.72277 -1.03516,-0.9707c-0.42038,-0.24794 -0.94802,-0.3711 -1.58398,-0.3711h-2.28125z" fill="#1eff00" stroke="none" stroke-width="1.01053" stroke-miterlimit="10" stroke-dashoffset="0"/></g></g></svg>