<svg version="1.1" xmlns="http://www.w3.org/2000/svg" xmlns:xlink="http://www.w3.org/1999/xlink" width="81.6914" height="27.03516"><g transform="translate(-199.1543,-166.48242)"><g data-paper-data="{&quot;isPaintingLayer&quot;:true}" fill="#00ff18" fill-rule="nonzero" stroke="none" stroke-width="1" stroke-linecap="butt" stroke-linejoin="miter" stroke-miterlimit="10" stroke-dasharray="" stroke-dashoffset="0" style="mix-blend-mode: normal"><path d="M215.93164,167.31055c1.32364,0.55152 2.3816,1.2011 3.17578,1.95117c0.81625,0.728 1.40093,1.46673 1.75391,2.2168c0.35297,0.75006 0.52929,1.32361 0.52929,1.7207c0,0.52946 -0.18746,0.94896 -0.5625,1.25781c-0.37503,0.28679 -0.81487,0.42969 -1.32226,0.42969c-0.37503,0 -0.74997,-0.08719 -1.125,-0.26367c-0.37503,-0.19855 -0.68507,-0.49744 -0.92774,-0.89453c-0.30885,-0.52946 -0.63922,-1.01387 -0.99218,-1.45508c-0.33092,-0.46328 -0.73928,-0.8605 -1.22461,-1.19141c-0.48534,-0.35297 -1.07003,-0.62958 -1.75391,-0.82812c-0.66182,-0.19855 -1.47855,-0.29688 -2.44922,-0.29688c-1.10304,0 -2.1387,0.24318 -3.10937,0.72852c-0.97067,0.46327 -1.82082,1.13515 -2.54883,2.01757c-0.70595,0.86038 -1.26835,1.90914 -1.6875,3.14454c-0.41915,1.2354 -0.62891,2.61453 -0.62891,4.13672c0,1.52219 0.20976,2.89936 0.62891,4.13476c0.41915,1.2354 0.98155,2.2953 1.6875,3.17774c0.72801,0.88242 1.57816,1.56544 2.54883,2.05078c0.97067,0.46328 2.00633,0.69531 3.10937,0.69531c1.1251,0 2.15157,-0.20975 3.07813,-0.62891c0.92654,-0.44122 1.72098,-1.0259 2.38281,-1.7539c0.66182,-0.72801 1.16851,-1.56506 1.52148,-2.51368c0.37504,-0.97066 0.5625,-1.97485 0.5625,-3.01171h-4.63281c-0.48533,0 -0.89369,-0.16519 -1.22461,-0.4961c-0.3309,-0.35297 -0.49609,-0.77248 -0.49609,-1.25781c0,-0.48534 0.16519,-0.8937 0.49609,-1.22461c0.33092,-0.35297 0.73928,-0.5293 1.22461,-0.5293h6.18946c0.55151,0 0.9802,0.12062 1.28906,0.36328c0.30885,0.24267 0.52975,0.53042 0.66211,0.86133c0.15442,0.33092 0.24356,0.68357 0.26562,1.0586c0.02207,0.37503 0.03321,0.69425 0.03321,0.95898c0,1.41189 -0.2989,2.81331 -0.89454,4.20313c-0.57358,1.38982 -1.37916,2.63719 -2.41601,3.74023c-1.01479,1.10303 -2.21564,1.9958 -3.60547,2.67969c-1.36777,0.68388 -2.84718,1.02539 -4.43555,1.02539c-1.98546,0 -3.72838,-0.37494 -5.22851,-1.125c-1.47807,-0.75006 -2.71235,-1.75425 -3.70508,-3.01172c-0.97067,-1.25746 -1.7094,-2.69035 -2.2168,-4.30078c-0.48534,-1.6325 -0.72851,-3.33084 -0.72851,-5.0957c0,-1.7428 0.24317,-3.43196 0.72851,-5.06446c0.5074,-1.6325 1.24613,-3.06538 2.2168,-4.30078c0.99273,-1.25746 2.22701,-2.26165 3.70508,-3.01172c1.50013,-0.75006 3.24305,-1.125 5.22851,-1.125c1.94134,0 3.57479,0.27661 4.89844,0.82813zM276.97461,168.96484c0.35297,0.33092 0.5293,0.73928 0.5293,1.22461v4.13477h1.82031c0.41915,0 0.7718,0.156 1.05859,0.46484c0.30885,0.2868 0.46289,0.63944 0.46289,1.0586c0,0.44121 -0.15404,0.80501 -0.46289,1.09179c-0.28679,0.2868 -0.63944,0.42969 -1.05859,0.42969h-1.82031v13.93164c0,0.48533 -0.17633,0.90484 -0.5293,1.25781c-0.33091,0.33092 -0.73927,0.4961 -1.22461,0.4961c-0.48533,0 -0.8937,-0.16518 -1.22461,-0.4961c-0.33091,-0.35297 -0.49609,-0.77248 -0.49609,-1.25781v-13.93164h-1.22461c-0.41916,0 -0.78295,-0.14289 -1.0918,-0.42969c-0.28679,-0.28678 -0.42969,-0.65058 -0.42969,-1.09179c0,-0.41916 0.1429,-0.7718 0.42969,-1.0586c0.30885,-0.30884 0.67264,-0.46484 1.0918,-0.46484h1.22461v-4.13477c0,-0.48533 0.16518,-0.89369 0.49609,-1.22461c0.33091,-0.33091 0.73928,-0.49609 1.22461,-0.49609c0.48534,0 0.8937,0.16518 1.22461,0.49609zM246.43359,174.22656c1.10304,0.37504 2.05152,0.92629 2.84571,1.6543c0.81624,0.70594 1.45665,1.57643 1.91992,2.61328c0.46327,1.03686 0.69336,2.21738 0.69336,3.54102c0,0.81624 -0.19861,1.43436 -0.5957,1.85351c-0.3971,0.41916 -0.85922,0.62891 -1.38868,0.62891h-12.11132c0,0.04412 0.01113,0.23159 0.0332,0.5625c0.04412,0.30885 0.12016,0.68378 0.23047,1.125c0.13236,0.44121 0.30869,0.91447 0.52929,1.42187c0.24268,0.48534 0.56385,0.93827 0.96094,1.35743c0.39709,0.41915 0.88151,0.7718 1.45508,1.05859c0.59564,0.26473 1.31403,0.39648 2.15234,0.39648c0.68388,0 1.26858,-0.05375 1.75391,-0.16406c0.48534,-0.1103 0.91403,-0.27549 1.28906,-0.49609c0.37503,-0.22061 0.71849,-0.49721 1.02735,-0.82813c0.30885,-0.35297 0.61693,-0.76133 0.92578,-1.22461c0.17648,-0.26472 0.37509,-0.45219 0.5957,-0.5625c0.22061,-0.1103 0.45265,-0.16601 0.69531,-0.16601c0.3971,0 0.76089,0.14485 1.0918,0.43164c0.33091,0.28678 0.49609,0.65057 0.49609,1.09179c0,0.26473 -0.14289,0.66195 -0.42968,1.19141c-0.28679,0.52945 -0.75087,1.05843 -1.39063,1.58789c-0.61771,0.52945 -1.42329,0.99353 -2.41601,1.39063c-0.99274,0.39709 -2.20473,0.59375 -3.63868,0.59375c-1.45601,0 -2.75909,-0.26352 -3.90625,-0.79297c-1.14716,-0.52946 -2.11792,-1.23476 -2.91211,-2.11719c-0.77212,-0.90449 -1.36795,-1.95325 -1.78711,-3.14453c-0.39709,-1.19128 -0.59375,-2.43866 -0.59375,-3.74024c0,-1.3457 0.2078,-2.6134 0.62696,-3.80468c0.41915,-1.21334 1.01498,-2.26015 1.78711,-3.14258c0.79418,-0.88243 1.74267,-1.57854 2.8457,-2.08594c1.10304,-0.52946 2.33926,-0.79492 3.70703,-0.79492c1.25746,0 2.42684,0.18942 3.50781,0.56445zM267.31445,175.01953c1.34571,0.88243 2.01758,2.1947 2.01758,3.9375v12.34375c0,0.48533 -0.16518,0.90484 -0.49609,1.25781c-0.33091,0.33092 -0.73927,0.4961 -1.22461,0.4961c-0.48534,0 -0.90484,-0.16518 -1.25781,-0.4961c-0.33092,-0.35297 -0.4961,-0.77248 -0.4961,-1.25781v-0.5293c-0.8383,0.9045 -1.79793,1.51147 -2.8789,1.82032c-1.05892,0.30885 -2.18372,0.46289 -3.375,0.46289c-0.75007,0 -1.51108,-0.10028 -2.28321,-0.29883c-0.75006,-0.22061 -1.43308,-0.55097 -2.05078,-0.99219c-0.59564,-0.44121 -1.082,-0.99248 -1.45703,-1.65429c-0.37503,-0.66183 -0.5625,-1.45626 -0.5625,-2.38282c0,-1.05891 0.20975,-1.94054 0.62891,-2.64648c0.41915,-0.728 0.98156,-1.32383 1.6875,-1.78711c0.70594,-0.46327 1.51153,-0.81593 2.41601,-1.05859c0.92656,-0.24267 1.89732,-0.419 2.91211,-0.5293c1.16922,-0.13237 2.08427,-0.27722 2.74609,-0.43164c0.66182,-0.17649 1.15933,-0.3751 1.49024,-0.59571c0.33089,-0.2206 0.5295,-0.47297 0.5957,-0.75976c0.08824,-0.28679 0.13086,-0.60797 0.13086,-0.96094c0,-0.41915 -0.12061,-0.78294 -0.36328,-1.0918c-0.24267,-0.30884 -0.55075,-0.56121 -0.92578,-0.75976c-0.37503,-0.19855 -0.79454,-0.3434 -1.25781,-0.43164c-0.46328,-0.1103 -0.91621,-0.16406 -1.35743,-0.16406c-0.79417,0 -1.43458,0.06489 -1.91992,0.19726c-0.48533,0.13236 -0.8806,0.30869 -1.18945,0.5293c-0.30885,0.2206 -0.56317,0.48607 -0.76172,0.79492c-0.17649,0.30885 -0.34167,0.62807 -0.49609,0.95898c-0.13237,0.26473 -0.31984,0.46334 -0.5625,0.59571c-0.22061,0.1103 -0.45265,0.16601 -0.69532,0.16601c-0.44121,0 -0.84957,-0.14289 -1.2246,-0.42968c-0.37504,-0.28679 -0.5625,-0.68401 -0.5625,-1.19141c0,-0.19855 0.05571,-0.44173 0.16601,-0.72852c0.19855,-0.46327 0.46206,-0.9162 0.79297,-1.35742c0.33091,-0.46327 0.7727,-0.87163 1.32422,-1.22461c0.57357,-0.35296 1.26774,-0.62762 2.08398,-0.82617c0.83832,-0.22061 1.85365,-0.33203 3.04492,-0.33203c2.25021,0 4.03769,0.45293 5.36133,1.35742zM227.32031,174.42383c0.33092,0.33091 0.4961,0.73927 0.4961,1.22461v0.6289c0.08824,-0.08824 0.25538,-0.26456 0.49804,-0.52929c0.24267,-0.26473 0.53961,-0.5302 0.89258,-0.79493c0.37503,-0.28679 0.7834,-0.52801 1.22461,-0.72656c0.46328,-0.2206 0.94769,-0.33203 1.45508,-0.33203c0.48533,0 0.89369,0.17632 1.22461,0.5293c0.35297,0.33091 0.52929,0.73927 0.52929,1.22461c0,0.46327 -0.17632,0.87163 -0.52929,1.22461c-0.33092,0.33091 -0.73928,0.49609 -1.22461,0.49609c-0.83831,0 -1.52132,0.19861 -2.05078,0.5957c-0.52946,0.37504 -0.94896,0.82797 -1.25782,1.35743c-0.28678,0.52946 -0.48539,1.08071 -0.5957,1.65429c-0.1103,0.57358 -0.16601,1.04684 -0.16601,1.42188v8.90234c0,0.48533 -0.16518,0.90484 -0.4961,1.25781c-0.33091,0.33092 -0.73927,0.4961 -1.22461,0.4961c-0.48533,0 -0.90288,-0.16518 -1.25586,-0.4961c-0.33091,-0.35297 -0.49804,-0.77248 -0.49804,-1.25781v-15.65234c0,-0.48534 0.16713,-0.8937 0.49804,-1.22461c0.35298,-0.35298 0.77053,-0.5293 1.25586,-0.5293c0.48534,0 0.8937,0.17632 1.22461,0.5293zM240.90625,176.87305c-0.57358,0.24266 -1.05798,0.55074 -1.45508,0.92578c-0.37503,0.35297 -0.67197,0.75019 -0.89258,1.1914c-0.2206,0.44122 -0.38774,0.84958 -0.49804,1.22461c-0.1103,0.37504 -0.1752,0.7054 -0.19727,0.99219c-0.02207,0.26472 -0.0332,0.42071 -0.0332,0.46485h10.7207c0,-0.68388 -0.10947,-1.33542 -0.33008,-1.95313c-0.2206,-0.6177 -0.56211,-1.15782 -1.02539,-1.62109c-0.44121,-0.48534 -1.01475,-0.87141 -1.7207,-1.15821c-0.70594,-0.28678 -1.53381,-0.42968 -2.48242,-0.42968c-0.81625,0 -1.51236,0.12061 -2.08594,0.36328zM265.03125,183.78906c-0.41915,0.13235 -0.91665,0.23068 -1.49023,0.29688c-0.55152,0.06618 -1.13621,0.14417 -1.75391,0.23242c-0.59564,0.08824 -1.18033,0.19771 -1.75391,0.33008c-0.57358,0.13236 -1.09141,0.33097 -1.55468,0.5957c-0.46328,0.24267 -0.83821,0.56384 -1.125,0.96094c-0.26473,0.39709 -0.39649,0.90378 -0.39649,1.52148c0,0.48534 0.09833,0.8937 0.29688,1.22461c0.2206,0.30886 0.49721,0.56317 0.82812,0.76172c0.33091,0.17648 0.70585,0.30824 1.125,0.39649c0.41915,0.06619 0.83865,0.0996 1.25781,0.0996c0.63976,0 1.27821,-0.06685 1.91797,-0.19921c0.63976,-0.15443 1.21331,-0.39761 1.72071,-0.72852c0.52945,-0.33091 0.94895,-0.77075 1.25781,-1.32227c0.3309,-0.55152 0.49609,-1.23648 0.49609,-2.05273v-2.34961z" data-paper-data="{&quot;origPos&quot;:null}" id="path4911"/></g></g></svg>