<svg version="1.1" xmlns="http://www.w3.org/2000/svg" xmlns:xlink="http://www.w3.org/1999/xlink" width="372.21493" height="68.64271" viewBox="0,0,372.21493,68.64271"><g transform="translate(-53.89253,-145.67865)"><g data-paper-data="{&quot;isPaintingLayer&quot;:true}" fill-rule="nonzero" stroke-linecap="butt" stroke-linejoin="miter" stroke-dasharray="" style="mix-blend-mode: normal"><path d="M425.00975,146.42865c0.19313,0 0.34772,0.15458 0.34772,0.34772v66.44538c0,0.19313 -0.15458,0.34961 -0.34772,0.34961h-370.0176c-0.19313,0 -0.34961,-0.15647 -0.34961,-0.34961v-66.4453c0,-0.19313 0.15647,-0.34772 0.34961,-0.34772z" fill="#1e1e1e" stroke="#1eff00" stroke-width="1.5" stroke-miterlimit="4" stroke-dashoffset="17.35"/><path d="M69.10183,187.56564c1.27601,0 2.33412,4.30809 3.36643,5.0581c1.03219,0.7499 5.4565,0.42501 5.85078,1.6385c0.3942,1.21349 -3.3761,3.55109 -3.77031,4.76459c-0.39428,1.21353 1.2819,5.32082 0.24983,6.07083c-1.0323,0.7499 -4.42057,-2.11351 -5.6965,-2.11351c-1.27589,0 -4.66416,2.86341 -5.69647,2.11351c-1.0323,-0.75001 0.64399,-4.8573 0.24983,-6.07083c-0.39432,-1.21349 -4.16462,-3.55109 -3.77031,-4.76459c0.39428,-1.21349 4.8186,-0.8886 5.85078,-1.6385c1.0323,-0.75001 2.09042,-5.0581 3.36631,-5.0581z" fill="#1eff00" stroke="none" stroke-width="0.23333" stroke-miterlimit="4" stroke-dashoffset="17.35"/><path d="M92.03896,187.56564c1.27589,0 2.33401,4.30809 3.36631,5.0581c1.0323,0.7499 5.45647,0.42501 5.85078,1.6385c0.39432,1.21349 -3.37599,3.55109 -3.77031,4.76459c-0.39428,1.21353 1.2819,5.32082 0.24945,6.07083c-1.0323,0.7499 -4.42061,-2.11351 -5.6965,-2.11351c-1.27601,0 -4.66428,2.86341 -5.6965,2.11351c-1.0323,-0.75001 0.64399,-4.8573 0.24945,-6.07083c-0.3942,-1.21349 -4.16447,-3.55109 -3.77019,-4.76459c0.3942,-1.21349 4.81852,-0.8886 5.85071,-1.6385c1.0323,-0.75001 2.09038,-5.0581 3.36639,-5.0581z" fill="#1eff00" stroke="none" stroke-width="0.23333" stroke-miterlimit="4" stroke-dashoffset="17.35"/><path d="M114.97604,187.56564c1.27593,0 2.33401,4.30809 3.36631,5.0581c1.0323,0.7499 5.4565,0.42501 5.85082,1.6385c0.39428,1.21349 -3.37603,3.55109 -3.77031,4.76459c-0.39432,1.21353 1.2819,5.32082 0.24945,6.07083c-1.0323,0.7499 -4.42061,-2.11351 -5.6965,-2.11351c-1.27601,0 -4.66431,2.86341 -5.6965,2.11351c-1.0323,-0.75001 0.64399,-4.8573 0.24945,-6.07083c-0.3942,-1.21349 -4.16451,-3.55109 -3.77019,-4.76459c0.39417,-1.21349 4.81848,-0.8886 5.85067,-1.6385c1.0323,-0.75001 2.09042,-5.0581 3.36643,-5.0581z" fill="#1eff00" stroke="none" stroke-width="0.23333" stroke-miterlimit="4" stroke-dashoffset="17.35"/><path d="M137.91317,187.56564c1.27589,0 2.33397,4.30809 3.36627,5.0581c1.0323,0.7499 5.4565,0.42501 5.85082,1.6385c0.39428,1.21349 -3.37603,3.55109 -3.77031,4.76459c-0.39432,1.21353 1.2819,5.32082 0.24945,6.07083c-1.0323,0.7499 -4.42061,-2.11351 -5.6965,-2.11351c-1.27601,0 -4.66431,2.86341 -5.6965,2.11351c-1.0323,-0.75001 0.64399,-4.8573 0.24945,-6.07083c-0.3942,-1.21349 -4.16451,-3.55109 -3.77019,-4.76459c0.3942,-1.21349 4.81848,-0.8886 5.85067,-1.6385c1.0323,-0.75001 2.09042,-5.0581 3.36643,-5.0581z" fill="#1eff00" stroke="none" stroke-width="0.23333" stroke-miterlimit="4" stroke-dashoffset="17.35"/><path d="M160.85017,191.62681c0.68901,0 1.26036,2.32637 1.8178,2.73135c0.55744,0.40494 2.94652,0.22942 3.15946,0.88479c0.21279,0.65529 -1.82306,1.91762 -2.03599,2.57288c-0.21279,0.65533 0.69226,2.87327 0.13455,3.27825c-0.55744,0.40494 -2.38711,-1.14127 -3.07608,-1.14127c-0.68905,0 -2.51875,1.5462 -3.07612,1.14127c-0.55744,-0.40498 0.34772,-2.62292 0.13455,-3.27825c-0.21279,-0.65526 -2.24886,-1.91758 -2.03592,-2.57288c0.21279,-0.65526 2.60198,-0.47985 3.15938,-0.88479c0.55744,-0.40498 1.12883,-2.73135 1.81784,-2.73135z" fill="#1eff00" stroke="none" stroke-width="0.126" stroke-miterlimit="4" stroke-dashoffset="17.35"/><path d="M105.54372,153.16591c0.54975,0.16169 1.02017,0.377 1.40821,0.64648c0.39874,0.26948 0.70618,0.57014 0.92187,0.9043c0.21543,0.33413 0.32227,0.66974 0.32227,1.00391c0,0.28011 -0.097,0.50514 -0.29102,0.67773c-0.18333,0.16176 -0.38897,0.24414 -0.61523,0.24414c-0.16172,0 -0.31108,-0.04469 -0.45118,-0.13086c-0.14009,-0.09698 -0.25367,-0.24632 -0.33984,-0.45117c-0.12923,-0.32338 -0.30189,-0.58333 -0.51758,-0.77734c-0.2048,-0.20475 -0.43661,-0.36091 -0.69531,-0.46875c-0.24794,-0.11868 -0.51273,-0.19431 -0.79297,-0.22656c-0.28026,-0.04309 -0.5499,-0.06445 -0.80859,-0.06445c-0.38806,0 -0.7479,0.04273 -1.08203,0.12891c-0.32336,0.07534 -0.60949,0.18891 -0.85743,0.33984c-0.23717,0.14002 -0.42631,0.31752 -0.5664,0.5332c-0.12926,0.2048 -0.19336,0.44341 -0.19336,0.71289c0,0.36654 0.10853,0.66719 0.32422,0.9043c0.22637,0.23705 0.52218,0.43589 0.88867,0.59766c0.36649,0.16159 0.78064,0.3032 1.24414,0.42187c0.4635,0.11868 0.93876,0.24183 1.42383,0.37109c0.49582,0.12941 0.97593,0.28557 1.43945,0.46875c0.4635,0.17247 0.87765,0.39945 1.24414,0.67969c0.36639,0.28026 0.65736,0.62556 0.87305,1.03516c0.226,0.40912 0.33958,0.91001 0.33984,1.50195v0.00195c-0.00026,0.65666 -0.13024,1.22832 -0.38867,1.71289c-0.24791,0.48506 -0.5932,0.88951 -1.03516,1.21289c-0.44192,0.32328 -0.95792,0.5648 -1.55078,0.72656c-0.59285,0.16176 -1.22428,0.24219 -1.89258,0.24219c-0.95932,0 -1.77795,-0.13482 -2.45703,-0.4043c-0.66832,-0.28024 -1.21243,-0.6139 -1.63281,-1.00195c-0.42038,-0.39882 -0.72786,-0.81297 -0.92187,-1.24414c-0.19402,-0.44193 -0.29102,-0.82506 -0.29102,-1.14844c0,-0.38798 0.097,-0.66245 0.29102,-0.82422c0.20469,-0.16176 0.41517,-0.24219 0.63086,-0.24219c0.18323,0 0.34907,0.05906 0.5,0.17773c0.15092,0.10777 0.24313,0.28527 0.27539,0.5332c0.06458,0.4096 0.20423,0.77139 0.41992,1.08398c0.22634,0.31249 0.50084,0.57533 0.82422,0.79102c0.32337,0.20475 0.68514,0.36091 1.08398,0.46875c0.39882,0.10784 0.80813,0.16211 1.22852,0.16211c0.33413,0 0.67942,-0.03794 1.03515,-0.11328c0.36649,-0.08617 0.69531,-0.20933 0.98633,-0.37109c0.30188,-0.17247 0.54534,-0.39458 0.72852,-0.66406c0.19401,-0.26948 0.29101,-0.59148 0.29101,-0.96875c0,-0.4096 -0.11357,-0.75005 -0.33984,-1.01953c-0.21556,-0.26953 -0.50656,-0.49651 -0.87305,-0.67969c-0.35573,-0.18338 -0.76502,-0.33275 -1.22851,-0.45117c-0.4635,-0.12944 -0.93877,-0.25941 -1.42383,-0.38867c-0.48504,-0.12929 -0.95836,-0.27574 -1.42188,-0.4375c-0.46349,-0.17245 -0.8796,-0.38776 -1.24609,-0.64648c-0.35581,-0.26945 -0.64678,-0.59148 -0.87305,-0.96875c-0.21568,-0.38806 -0.32226,-0.86816 -0.32226,-1.43945c0,-0.53896 0.11162,-1.01909 0.33789,-1.43945c0.23715,-0.42038 0.5611,-0.77536 0.9707,-1.06641c0.4096,-0.291 0.89457,-0.51313 1.45508,-0.66406c0.56053,-0.15093 1.17545,-0.22656 1.84375,-0.22656c0.64675,0 1.23841,0.08238 1.77734,0.24414zM65.35427,153.14833c0.63597,0 1.27226,0.10879 1.9082,0.32422c0.63597,0.21558 1.20821,0.57735 1.71485,1.08398c0.5066,0.49582 0.91592,1.1515 1.22851,1.9707c0.31259,0.80844 0.46875,1.8065 0.46875,2.99219c0,1.1965 -0.15616,2.20424 -0.46875,3.02344c-0.31259,0.80842 -0.72191,1.46602 -1.22851,1.97266c-0.50664,0.49572 -1.07888,0.85072 -1.71485,1.06641c-0.63594,0.21568 -1.27223,0.32422 -1.9082,0.32422h-3.83203c-0.16167,0 -0.31782,-0.02616 -0.46875,-0.08008c-0.15106,-0.0645 -0.28587,-0.15192 -0.4043,-0.25976c-0.11868,-0.10772 -0.21568,-0.24253 -0.29102,-0.4043c-0.07533,-0.16169 -0.11328,-0.33919 -0.11328,-0.5332v-10.21875c0,-0.34489 0.12511,-0.64073 0.37305,-0.88867c0.24791,-0.24794 0.54857,-0.37305 0.9043,-0.37305zM87.407,153.39247c0.16177,0.16174 0.24219,0.36055 0.24219,0.59766v6.17578l3.96094,-3.44336c0.15098,-0.11868 0.31682,-0.17773 0.5,-0.17773c0.17239,0 0.34019,0.0641 0.50195,0.19336c0.16177,0.12939 0.24219,0.31368 0.24219,0.55078c0,0.21556 -0.08547,0.3979 -0.25781,0.54883l-2.47461,2.13477l3.26758,4.62305c0.097,0.15103 0.14453,0.31398 0.14453,0.48633c0,0.15085 -0.02616,0.27888 -0.08008,0.38672c-0.05392,0.09701 -0.12477,0.17938 -0.21094,0.24414c-0.08617,0.06476 -0.17838,0.11228 -0.27539,0.14453c-0.09701,0.03225 -0.18726,0.04883 -0.27344,0.04883c-0.14004,0 -0.26999,-0.02811 -0.38867,-0.08203c-0.11868,-0.05367 -0.22047,-0.13913 -0.30664,-0.25781l-3.10547,-4.49414l-1.24414,1.06641v2.91016c0,0.23725 -0.08042,0.44289 -0.24219,0.61523c-0.16171,0.16176 -0.3625,0.24219 -0.59961,0.24219c-0.23727,0 -0.44093,-0.08042 -0.61328,-0.24219c-0.16176,-0.1725 -0.24414,-0.37813 -0.24414,-0.61523v-11.05859c0,-0.23708 0.08238,-0.43589 0.24414,-0.59766c0.17253,-0.16176 0.37618,-0.24414 0.61328,-0.24414c0.23706,0 0.43785,0.08238 0.59961,0.24414zM111.407,153.39247c0.16177,0.16174 0.24219,0.36055 0.24219,0.59766v3.79883c0.34495,-0.39871 0.71642,-0.70424 1.11524,-0.91992c0.39884,-0.21568 0.87894,-0.32422 1.43945,-0.32422c0.49582,0 0.95461,0.07563 1.375,0.22656c0.42038,0.15093 0.7802,0.36624 1.08203,0.64648c0.30173,0.26948 0.53355,0.60314 0.69531,1.00195c0.17235,0.38806 0.25977,0.82548 0.25977,1.31055v5.31836c0,0.23725 -0.08742,0.44289 -0.25977,0.61523c-0.16174,0.16176 -0.36055,0.24219 -0.59765,0.24219c-0.23706,0 -0.4359,-0.08042 -0.59766,-0.24219c-0.16176,-0.1725 -0.24219,-0.37813 -0.24219,-0.61523v-5.31836c0,-0.24781 -0.05426,-0.47963 -0.16211,-0.69531c-0.09688,-0.22629 -0.2317,-0.42027 -0.40429,-0.58203c-0.17255,-0.16176 -0.37335,-0.28687 -0.59961,-0.37305c-0.22635,-0.09701 -0.463,-0.14453 -0.71094,-0.14453c-0.32338,0 -0.63085,0.0641 -0.92188,0.19336c-0.29112,0.11847 -0.54912,0.28627 -0.77539,0.50195c-0.21568,0.2048 -0.38832,0.44632 -0.51757,0.72656c-0.11868,0.28026 -0.17774,0.58287 -0.17774,0.90625v4.78516c0,0.23725 -0.08042,0.44289 -0.24219,0.61523c-0.16174,0.16176 -0.36055,0.24219 -0.59765,0.24219c-0.23726,0 -0.44289,-0.08042 -0.61524,-0.24219c-0.16176,-0.1725 -0.24219,-0.37813 -0.24218,-0.61523v-11.05859c-0.00001,-0.23708 0.08042,-0.43589 0.24218,-0.59766c0.1725,-0.16176 0.37813,-0.24414 0.61524,-0.24414c0.23707,0 0.43589,0.08238 0.59765,0.24414zM62.1531,164.20888h2.83007c0.63597,0 1.19174,-0.10853 1.66602,-0.32422c0.47428,-0.22637 0.8671,-0.53868 1.17969,-0.9375c0.31257,-0.4096 0.54438,-0.89939 0.69531,-1.4707c0.15093,-0.58205 0.22656,-1.23481 0.22656,-1.95703c0,-0.71141 -0.07563,-1.35254 -0.22656,-1.92383c-0.1509,-0.58207 -0.38272,-1.07189 -0.69531,-1.4707c-0.31259,-0.4095 -0.70541,-0.72377 -1.17969,-0.93945c-0.47428,-0.22627 -1.03005,-0.33789 -1.66602,-0.33789h-2.83007zM78.19216,157.09364c0.65754,0.43117 0.98633,1.07227 0.98633,1.92383v6.03125c0,0.23725 -0.08043,0.44289 -0.24219,0.61523c-0.16171,0.16176 -0.36251,0.24219 -0.59961,0.24219c-0.23728,0 -0.44093,-0.08042 -0.61328,-0.24219c-0.16176,-0.1725 -0.24414,-0.37813 -0.24414,-0.61523v-0.25781c-0.4096,0.44193 -0.87807,0.73774 -1.40625,0.88867c-0.51739,0.15093 -1.06637,0.22656 -1.64844,0.22656c-0.36649,0 -0.73799,-0.04948 -1.11523,-0.14648c-0.36649,-0.10769 -0.70208,-0.26869 -1.00391,-0.48437c-0.2911,-0.21558 -0.52776,-0.48522 -0.71094,-0.80859c-0.18318,-0.32335 -0.27539,-0.71133 -0.27539,-1.16406c0,-0.51739 0.10375,-0.94805 0.3086,-1.29297c0.2048,-0.3558 0.47927,-0.64678 0.82422,-0.87305c0.34491,-0.22627 0.73773,-0.3989 1.17968,-0.51758c0.45271,-0.11842 0.92801,-0.20389 1.42383,-0.25781c0.57129,-0.06476 1.01842,-0.1356 1.3418,-0.21094c0.3233,-0.08617 0.5648,-0.18317 0.72656,-0.29101c0.16176,-0.10784 0.25876,-0.23295 0.29102,-0.37305c0.04308,-0.14025 0.0664,-0.2964 0.0664,-0.46875c0,-0.20477 -0.05931,-0.38227 -0.17773,-0.5332c-0.11863,-0.15093 -0.26995,-0.27409 -0.45313,-0.37109c-0.18335,-0.09701 -0.38896,-0.16785 -0.61523,-0.21094c-0.22624,-0.05392 -0.44643,-0.08008 -0.66211,-0.08008c-0.38808,0 -0.7004,0.0329 -0.9375,0.09766c-0.23713,0.0645 -0.4311,0.14997 -0.58203,0.25781c-0.15093,0.10779 -0.27604,0.23774 -0.37305,0.38867c-0.08642,0.15083 -0.16685,0.30699 -0.24219,0.46875c-0.0645,0.12926 -0.15671,0.22626 -0.27539,0.29101c-0.10759,0.05392 -0.22116,0.08008 -0.33984,0.08008c-0.21566,0 -0.41448,-0.07084 -0.59766,-0.21094c-0.18318,-0.14009 -0.27539,-0.33409 -0.27539,-0.58203c0,-0.09701 0.02811,-0.21537 0.08203,-0.35547c0.09694,-0.22624 0.22496,-0.44642 0.38672,-0.66211c0.16169,-0.22647 0.37896,-0.42531 0.64844,-0.59766c0.28024,-0.17247 0.61874,-0.30729 1.01758,-0.4043c0.4096,-0.10784 0.90621,-0.16211 1.48828,-0.16211c1.09946,0 1.97241,0.22018 2.61914,0.66211zM124.65896,156.70692c0.53896,0.18326 1.00259,0.45094 1.39062,0.80664c0.39892,0.34492 0.71123,0.77071 0.9375,1.27734c0.22627,0.50661 0.33985,1.08372 0.33985,1.73047c0,0.39876 -0.097,0.7014 -0.29102,0.90625c-0.19404,0.20485 -0.42099,0.30664 -0.67969,0.30664h-5.91601c0,0.02142 0.00359,0.11363 0.01367,0.27539c0.02167,0.1508 0.05936,0.3351 0.11328,0.55078c0.0645,0.21556 0.15192,0.44542 0.25977,0.69336c0.11857,0.23708 0.27473,0.45921 0.46874,0.66406c0.19402,0.20485 0.43068,0.37748 0.71094,0.51758c0.29103,0.12926 0.64118,0.19336 1.05078,0.19336c0.33419,0 0.62032,-0.02616 0.85743,-0.08008c0.2372,-0.05392 0.44767,-0.1363 0.63085,-0.24414c0.18324,-0.10769 0.34908,-0.24253 0.5,-0.4043c0.15088,-0.17257 0.3022,-0.37139 0.45313,-0.59766c0.08617,-0.12926 0.18317,-0.22147 0.29102,-0.27539c0.10759,-0.05392 0.22116,-0.08008 0.33984,-0.08008c0.19394,0 0.37144,0.07084 0.5332,0.21094c0.16177,0.14002 0.24219,0.31752 0.24219,0.5332c0,0.12936 -0.06889,0.32333 -0.20898,0.58203c-0.14012,0.2587 -0.3671,0.51669 -0.67969,0.77539c-0.30183,0.2587 -0.69465,0.48567 -1.17969,0.67969c-0.48506,0.19402 -1.07865,0.29102 -1.7793,0.29102c-0.7114,0 -1.3477,-0.12998 -1.9082,-0.38867c-0.56053,-0.25872 -1.03384,-0.60401 -1.42187,-1.03516c-0.37723,-0.44195 -0.6682,-0.95308 -0.87305,-1.53516c-0.19402,-0.58207 -0.29102,-1.19023 -0.29102,-1.82617c0,-0.65754 0.10179,-1.2773 0.30664,-1.85937c0.2048,-0.59283 0.4958,-1.10594 0.87305,-1.53711c0.38806,-0.43114 0.85166,-0.76964 1.39063,-1.01758c0.53893,-0.2587 1.14222,-0.38867 1.81054,-0.38867c0.6144,0 1.18667,0.09221 1.71485,0.27539zM134.06911,156.70692c0.53896,0.18326 1.00257,0.45094 1.39063,0.80664c0.39891,0.34492 0.71123,0.77071 0.9375,1.27734c0.22627,0.50661 0.33984,1.08372 0.33984,1.73047c0,0.39876 -0.097,0.7014 -0.29101,0.90625c-0.19402,0.20485 -0.421,0.30664 -0.67969,0.30664h-5.91602c0,0.02142 0.00555,0.11363 0.01563,0.27539c0.02141,0.1508 0.05936,0.3351 0.11328,0.55078c0.0645,0.21556 0.14997,0.44542 0.25781,0.69336c0.11858,0.23708 0.27474,0.45921 0.46875,0.66406c0.19402,0.20485 0.43067,0.37748 0.71094,0.51758c0.29105,0.12926 0.64118,0.19336 1.05078,0.19336c0.33419,0 0.62032,-0.02616 0.85742,-0.08008c0.23721,-0.05392 0.44768,-0.1363 0.63086,-0.24414c0.18321,-0.10769 0.35103,-0.24253 0.50195,-0.4043c0.15091,-0.17257 0.30025,-0.37139 0.45118,-0.59766c0.08617,-0.12926 0.18317,-0.22147 0.29101,-0.27539c0.10759,-0.05392 0.22117,-0.08008 0.33985,-0.08008c0.19394,0 0.37143,0.07084 0.5332,0.21094c0.16176,0.14002 0.24414,0.31752 0.24414,0.5332c0,0.12936 -0.07084,0.32333 -0.21094,0.58203c-0.14012,0.2587 -0.36709,0.51669 -0.67969,0.77539c-0.3018,0.2587 -0.69462,0.48567 -1.17968,0.67969c-0.48507,0.19402 -1.07868,0.29102 -1.7793,0.29102c-0.71143,0 -1.34575,-0.12998 -1.90625,-0.38867c-0.5605,-0.25872 -1.03577,-0.60401 -1.42383,-1.03516c-0.37722,-0.44195 -0.66819,-0.95308 -0.87304,-1.53516c-0.19402,-0.58207 -0.29102,-1.19023 -0.29102,-1.82617c0,-0.65754 0.10179,-1.2773 0.30664,-1.85937c0.2048,-0.59283 0.49577,-1.10594 0.87305,-1.53711c0.38805,-0.43114 0.85169,-0.76964 1.39062,-1.01758c0.53896,-0.2587 1.14225,-0.38867 1.81055,-0.38867c0.6144,0 1.18667,0.09221 1.71484,0.27539zM81.89333,156.80263c0.16177,0.16171 0.24219,0.36055 0.24219,0.59766v0.30859c0.04309,-0.04309 0.12351,-0.13051 0.24219,-0.25977c0.11867,-0.12944 0.26515,-0.25746 0.4375,-0.38672c0.18338,-0.14009 0.38222,-0.26041 0.59765,-0.35742c0.22635,-0.10784 0.463,-0.16016 0.71094,-0.16016c0.23708,0 0.43785,0.08521 0.59961,0.25781c0.17235,0.16171 0.25781,0.36251 0.25781,0.59961c0,0.22649 -0.08546,0.42531 -0.25781,0.59766c-0.16174,0.16176 -0.36251,0.24219 -0.59961,0.24219c-0.4096,0 -0.74326,0.097 -1.00195,0.29102c-0.25867,0.18323 -0.46431,0.40341 -0.61524,0.66211c-0.14009,0.25872 -0.23709,0.52835 -0.29101,0.80859c-0.05392,0.28031 -0.08008,0.51213 -0.08008,0.69531v4.34961c0,0.23725 -0.08042,0.44289 -0.24219,0.61523c-0.16174,0.16176 -0.36251,0.24219 -0.59961,0.24219c-0.23725,0 -0.44093,-0.08042 -0.61328,-0.24219c-0.16176,-0.1725 -0.24219,-0.37813 -0.24219,-0.61523v-7.64844c0,-0.23705 0.08043,-0.43589 0.24219,-0.59766c0.1725,-0.1726 0.37618,-0.25977 0.61328,-0.25977c0.23708,0 0.43785,0.08717 0.59961,0.25977zM139.25857,156.80263c0.16176,0.16171 0.24414,0.36251 0.24414,0.59961v0.14453c0.21566,-0.18336 0.41447,-0.33949 0.59765,-0.46875c0.19397,-0.12926 0.39281,-0.23105 0.59766,-0.30664c0.2048,-0.08617 0.43175,-0.14548 0.67969,-0.17773c0.24791,-0.03225 0.53404,-0.04883 0.85742,-0.04883c0.52817,0 1.02283,0.11358 1.48633,0.33984c0.47428,0.22637 0.88359,0.55032 1.22851,0.9707c0.35566,0.4096 0.63695,0.90426 0.8418,1.48633c0.20485,0.57129 0.30664,1.20271 0.30664,1.89258c0,0.68984 -0.09221,1.31934 -0.27539,1.89062c-0.18326,0.57131 -0.4461,1.06792 -0.79102,1.48828c-0.33416,0.4097 -0.73861,0.72686 -1.21289,0.95312c-0.47425,0.22627 -1.00191,0.33984 -1.58398,0.33984c-0.38806,0 -0.72851,-0.03769 -1.01953,-0.11328c-0.28017,-0.08617 -0.52846,-0.18796 -0.74414,-0.30664c-0.20473,-0.1186 -0.38707,-0.24858 -0.54883,-0.38867c-0.15101,-0.15098 -0.29066,-0.29066 -0.41992,-0.41992v3.7832c0,0.23708 -0.08238,0.43589 -0.24414,0.59766c-0.16174,0.1726 -0.36056,0.25977 -0.59766,0.25977c-0.237,0 -0.44068,-0.08717 -0.61328,-0.25977c-0.16177,-0.16174 -0.24414,-0.36055 -0.24414,-0.59766v-11.05859c0,-0.23705 0.08237,-0.43784 0.24414,-0.59961c0.1725,-0.1726 0.37618,-0.25781 0.61328,-0.25781c0.23708,0 0.43589,0.08521 0.59766,0.25781zM121.95778,157.99989c-0.28026,0.11863 -0.51692,0.26994 -0.71093,0.45312c-0.18318,0.17237 -0.32966,0.36635 -0.4375,0.58203c-0.10785,0.21563 -0.18827,0.41447 -0.24219,0.59766c-0.05468,0.18328 -0.08758,0.34428 -0.09766,0.48437c-0.01008,0.12825 -0.01562,0.20388 -0.01562,0.22656h5.24023c0,-0.33416 -0.05426,-0.65132 -0.16211,-0.95312c-0.10789,-0.30191 -0.27568,-0.5667 -0.50195,-0.79297c-0.21558,-0.23718 -0.49492,-0.42631 -0.83984,-0.56641c-0.34495,-0.14009 -0.7494,-0.20898 -1.21289,-0.20898h-0.00196c-0.39881,0 -0.73731,0.05906 -1.01758,0.17773zM131.36794,157.99989c-0.28026,0.11863 -0.51692,0.26994 -0.71094,0.45312c-0.1832,0.17237 -0.32965,0.36635 -0.4375,0.58203c-0.10784,0.21563 -0.18826,0.41447 -0.24218,0.59766c-0.05468,0.18328 -0.08758,0.34428 -0.09766,0.48437c-0.01008,0.12825 -0.01367,0.20388 -0.01367,0.22656h5.23828c0,-0.33416 -0.05427,-0.65132 -0.16211,-0.95312c-0.10787,-0.30191 -0.27569,-0.5667 -0.50195,-0.79297c-0.21559,-0.23718 -0.4949,-0.42631 -0.83985,-0.56641c-0.34492,-0.14009 -0.74939,-0.20898 -1.21289,-0.20898c-0.39884,0 -0.73929,0.05906 -1.01953,0.17773zM140.86013,158.21083c-0.31249,0.18326 -0.57729,0.42959 -0.79297,0.74219c-0.21546,0.30181 -0.38132,0.65196 -0.5,1.05078c-0.10784,0.38806 -0.16211,0.7993 -0.16211,1.23047c0,0.42038 0.05427,0.8297 0.16211,1.22851c0.11845,0.39882 0.28431,0.74897 0.5,1.05078c0.21558,0.30188 0.48038,0.54338 0.79297,0.72656c0.32337,0.18318 0.69001,0.27539 1.09961,0.27539c0.39884,0 0.75381,-0.09221 1.0664,-0.27539c0.32325,-0.18323 0.59291,-0.42473 0.8086,-0.72656c0.22632,-0.30181 0.39411,-0.65196 0.50195,-1.05078c0.11868,-0.39881 0.17774,-0.80813 0.17774,-1.22851c-0.00001,-0.43117 -0.05906,-0.84241 -0.17774,-1.23047c-0.10789,-0.39882 -0.27568,-0.74897 -0.50195,-1.05078c-0.21559,-0.31267 -0.48525,-0.55901 -0.8086,-0.74219c-0.31259,-0.18318 -0.66756,-0.27539 -1.0664,-0.27539c-0.4096,0 -0.77624,0.09221 -1.09961,0.27539zM77.07497,161.3788c-0.2048,0.06476 -0.4463,0.11423 -0.72656,0.14648c-0.26948,0.03225 -0.55561,0.07019 -0.85742,0.11328c-0.29105,0.04309 -0.57719,0.0954 -0.85742,0.16016c-0.28037,0.06476 -0.5335,0.16176 -0.75977,0.29101c-0.22639,0.11858 -0.40873,0.27473 -0.54883,0.46875c-0.12926,0.19402 -0.19336,0.44233 -0.19336,0.74414c0,0.23708 0.04753,0.43785 0.14453,0.59961c0.10772,0.15093 0.24254,0.27409 0.4043,0.37109c0.16164,0.08617 0.34593,0.15027 0.55078,0.19336c0.20475,0.03225 0.40843,0.04883 0.61328,0.04883c0.3126,0 0.62491,-0.0329 0.9375,-0.09766c0.31257,-0.07534 0.59386,-0.1937 0.8418,-0.35547c0.2587,-0.16166 0.46235,-0.377 0.61328,-0.64648c0.16177,-0.26948 0.24414,-0.60314 0.24414,-1.00195v-1.14844zM78.38943,167.99598c0.60361,0.2587 1.11188,0.56617 1.52148,0.92187c0.40955,0.3557 0.71507,0.72234 0.91992,1.09961c0.20485,0.37735 0.30859,0.67998 0.3086,0.90625c0,0.17245 -0.04274,0.33345 -0.12891,0.48437c-0.07559,0.15085 -0.17934,0.28083 -0.30859,0.38867c-0.12926,0.10784 -0.27379,0.19306 -0.43555,0.25781c-0.15091,0.06476 -0.3022,0.09766 -0.45313,0.09766c-0.16176,0 -0.30824,-0.03769 -0.4375,-0.11328c-0.12951,-0.07534 -0.2313,-0.18891 -0.30664,-0.33984c-0.08642,-0.17255 -0.19496,-0.37139 -0.32422,-0.59766c-0.11847,-0.23715 -0.28431,-0.45247 -0.5,-0.64648c-0.2048,-0.20482 -0.46961,-0.37748 -0.79296,-0.51758c-0.3126,-0.14009 -0.70541,-0.21094 -1.17969,-0.21094c-0.53896,0 -1.01907,0.13484 -1.43946,0.4043c-0.4096,0.2587 -0.75973,0.59915 -1.05078,1.01953c-0.28021,0.42038 -0.49555,0.89854 -0.64648,1.4375c-0.1401,0.52818 -0.21094,1.0626 -0.21094,1.60156c0,0.54972 0.07084,1.09385 0.21094,1.63281c0.1509,0.52818 0.36624,1.00344 0.64648,1.42383c0.29105,0.42038 0.64118,0.76372 1.05078,1.0332c0.42039,0.2587 0.9005,0.38867 1.43946,0.38867c0.47428,0 0.86709,-0.07084 1.17969,-0.21094c0.3233,-0.14007 0.58811,-0.31077 0.79296,-0.51562c0.21549,-0.2049 0.38133,-0.42217 0.5,-0.64844c0.12952,-0.22642 0.23805,-0.4301 0.32422,-0.61328c0.07559,-0.15068 0.17738,-0.26425 0.30664,-0.33984c0.12934,-0.07534 0.27095,-0.11328 0.42188,-0.11328c0.15088,0 0.30024,0.0329 0.45117,0.09766c0.16176,0.0645 0.30824,0.14997 0.4375,0.25781c0.12951,0.10777 0.2313,0.23774 0.30664,0.38867c0.08617,0.15103 0.12891,0.31203 0.12891,0.48437c0,0.23715 -0.10179,0.54463 -0.30664,0.92187c-0.2048,0.37727 -0.51225,0.7439 -0.92188,1.09961c-0.39881,0.35573 -0.90029,0.66318 -1.5039,0.92187c-0.60365,0.2587 -1.30878,0.38867 -2.11719,0.38867c-0.97013,0 -1.82171,-0.18429 -2.55469,-0.55078c-0.72219,-0.36649 -1.32548,-0.85144 -1.81055,-1.45508c-0.47425,-0.6144 -0.83604,-1.31469 -1.08398,-2.10156c-0.2371,-0.79766 -0.35547,-1.62792 -0.35547,-2.49023c0,-0.85155 0.11837,-1.67695 0.35547,-2.47461c0.24791,-0.79766 0.6097,-1.49795 1.08398,-2.10156c0.48507,-0.6144 1.08836,-1.10421 1.81055,-1.4707c0.73298,-0.36649 1.58456,-0.54883 2.55469,-0.54883v-0.00195c0.80841,0 1.51354,0.13482 2.11719,0.4043zM66.71364,167.93153c0.57132,0.21558 1.03977,0.48038 1.40625,0.79297c0.36639,0.31259 0.63121,0.64138 0.79297,0.98633c0.17235,0.34497 0.25781,0.63594 0.25781,0.87305c0,0.1725 -0.03794,0.32866 -0.11328,0.46875c-0.0645,0.12926 -0.15671,0.24284 -0.27539,0.33984c-0.10784,0.08617 -0.231,0.15702 -0.37109,0.21094c-0.14017,0.04309 -0.27983,0.06445 -0.41992,0.06445c-0.18321,0 -0.35103,-0.04469 -0.50196,-0.13086c-0.15092,-0.08622 -0.25946,-0.22591 -0.32421,-0.41992c-0.08635,-0.24799 -0.21438,-0.4633 -0.38672,-0.64648c-0.17253,-0.18313 -0.37814,-0.33445 -0.61524,-0.45312c-0.22634,-0.12926 -0.47466,-0.21952 -0.74414,-0.27344c-0.26948,-0.06476 -0.53232,-0.09766 -0.79101,-0.09766c-0.77609,0 -1.34352,0.13484 -1.69922,0.4043c-0.35573,0.26948 -0.53321,0.63125 -0.53321,1.08398c0,0.33408 0.10375,0.60179 0.3086,0.80664c0.21556,0.19407 0.4949,0.36186 0.83984,0.50195c0.34492,0.12926 0.7329,0.24284 1.16406,0.33984c0.44196,0.08617 0.88909,0.18796 1.3418,0.30664c0.4635,0.10772 0.91063,0.24253 1.3418,0.4043c0.44193,0.16166 0.83669,0.3838 1.18164,0.66406c0.34487,0.26948 0.61937,0.61282 0.82422,1.0332c0.21568,0.4096 0.32226,0.92271 0.32226,1.53711h0.00196c0,0.70065 -0.14648,1.30878 -0.4375,1.82617c-0.28027,0.50661 -0.65658,0.92756 -1.13086,1.26172c-0.47428,0.3233 -1.02521,0.56675 -1.65039,0.72851c-0.6144,0.16176 -1.25554,0.24219 -1.92383,0.24219c-0.82999,0 -1.53512,-0.10853 -2.11719,-0.32422c-0.58207,-0.21558 -1.06218,-0.49006 -1.43945,-0.82422c-0.36662,-0.33413 -0.63625,-0.69593 -0.8086,-1.08398c-0.16176,-0.38806 -0.24218,-0.75953 -0.24218,-1.11523c0,-0.19394 0.03094,-0.37144 0.0957,-0.5332c0.07534,-0.16164 0.16755,-0.29645 0.27539,-0.4043c0.1186,-0.11842 0.24858,-0.21063 0.38867,-0.27539c0.15093,-0.06476 0.29545,-0.0957 0.43555,-0.0957c0.18323,0 0.35102,0.05231 0.50195,0.16016c0.15093,0.09711 0.25272,0.26006 0.30664,0.48633c0.14012,0.57129 0.40007,1.02813 0.77735,1.37305c0.38805,0.34494 0.99618,0.51758 1.82617,0.51758c0.80841,0 1.44955,-0.13966 1.92383,-0.41992c0.47428,-0.28026 0.71093,-0.68471 0.71093,-1.21289c0,-0.35578 -0.10179,-0.64678 -0.30664,-0.87305c-0.2048,-0.23708 -0.47927,-0.43589 -0.82422,-0.59766c-0.33413,-0.16164 -0.71726,-0.29645 -1.14843,-0.4043c-0.43117,-0.11842 -0.87346,-0.23679 -1.32618,-0.35547c-0.44195,-0.12928 -0.87745,-0.27574 -1.30859,-0.4375c-0.43117,-0.16166 -0.81914,-0.36534 -1.16406,-0.61328c-0.33411,-0.2587 -0.60374,-0.57101 -0.80859,-0.9375c-0.20486,-0.37727 -0.3086,-0.8409 -0.3086,-1.39062c0.01084,-0.6144 0.13116,-1.16048 0.35742,-1.63477c0.23716,-0.47428 0.55915,-0.87194 0.96875,-1.19531c0.4096,-0.32325 0.89458,-0.57154 1.45508,-0.74414c0.56053,-0.17235 1.17546,-0.25781 1.84375,-0.25781c0.80842,0 1.49903,0.11162 2.07031,0.33789z" fill="#1eff00" stroke="none" stroke-width="1.01053" stroke-miterlimit="10" stroke-dashoffset="0"/></g></g></svg>