<svg version="1.1" xmlns="http://www.w3.org/2000/svg" xmlns:xlink="http://www.w3.org/1999/xlink" width="372.21497" height="68.64271" viewBox="0,0,372.21497,68.64271"><g transform="translate(-53.89251,-145.67864)"><g data-paper-data="{&quot;isPaintingLayer&quot;:true}" fill-rule="nonzero" stroke-linecap="butt" stroke-linejoin="miter" stroke-dasharray="" style="mix-blend-mode: normal"><path d="M425.00977,146.42864c0.19313,0 0.34772,0.15458 0.34772,0.34772v66.44538c0,0.19313 -0.15458,0.34961 -0.34772,0.34961h-370.01764c-0.19313,0 -0.34961,-0.15647 -0.34961,-0.34961v-66.4453c0,-0.19313 0.15647,-0.34772 0.34961,-0.34772z" fill="#1e1e1e" stroke="#1eff00" stroke-width="1.5" stroke-miterlimit="4" stroke-dashoffset="17.35"/><path d="M69.10183,187.56562c1.27601,0 2.33412,4.30809 3.36643,5.0581c1.03219,0.7499 5.4565,0.42501 5.85078,1.6385c0.3942,1.21349 -3.3761,3.55109 -3.77031,4.76459c-0.39428,1.21353 1.2819,5.32082 0.24983,6.07083c-1.0323,0.7499 -4.42057,-2.11351 -5.6965,-2.11351c-1.27589,0 -4.66416,2.86341 -5.69647,2.11351c-1.0323,-0.75001 0.64399,-4.8573 0.24983,-6.07083c-0.39432,-1.21349 -4.16462,-3.55109 -3.77031,-4.76459c0.39428,-1.21349 4.8186,-0.8886 5.85078,-1.6385c1.0323,-0.75001 2.09042,-5.0581 3.36632,-5.0581z" fill="#1eff00" stroke="none" stroke-width="0.23333" stroke-miterlimit="4" stroke-dashoffset="17.35"/><path d="M92.03895,187.56562c1.27589,0 2.33401,4.30809 3.36631,5.0581c1.0323,0.7499 5.45647,0.42501 5.85078,1.6385c0.39432,1.21349 -3.37599,3.55109 -3.77031,4.76459c-0.39428,1.21353 1.2819,5.32082 0.24945,6.07083c-1.0323,0.7499 -4.42061,-2.11351 -5.6965,-2.11351c-1.27601,0 -4.66428,2.86341 -5.69651,2.11351c-1.0323,-0.75001 0.64399,-4.8573 0.24945,-6.07083c-0.3942,-1.21349 -4.16447,-3.55109 -3.77019,-4.76459c0.3942,-1.21349 4.81852,-0.8886 5.85071,-1.6385c1.0323,-0.75001 2.09038,-5.0581 3.36639,-5.0581z" fill="#1eff00" stroke="none" stroke-width="0.23333" stroke-miterlimit="4" stroke-dashoffset="17.35"/><path d="M114.97604,187.56562c1.27593,0 2.33401,4.30809 3.36631,5.0581c1.0323,0.7499 5.4565,0.42501 5.85082,1.6385c0.39428,1.21349 -3.37603,3.55109 -3.77031,4.76459c-0.39432,1.21353 1.2819,5.32082 0.24945,6.07083c-1.0323,0.7499 -4.42061,-2.11351 -5.6965,-2.11351c-1.27601,0 -4.66431,2.86341 -5.6965,2.11351c-1.0323,-0.75001 0.64399,-4.8573 0.24945,-6.07083c-0.3942,-1.21349 -4.16451,-3.55109 -3.77019,-4.76459c0.39417,-1.21349 4.81848,-0.8886 5.85067,-1.6385c1.0323,-0.75001 2.09042,-5.0581 3.36643,-5.0581z" fill="#1eff00" stroke="none" stroke-width="0.23333" stroke-miterlimit="4" stroke-dashoffset="17.35"/><path d="M137.91311,189.41964c1.00796,0 1.84384,3.40339 2.65936,3.99591c0.81552,0.5924 4.31064,0.33562 4.62215,1.29441c0.31147,0.95868 -2.66706,2.80535 -2.97854,3.76403c-0.31151,0.95868 1.0127,4.20344 0.19706,4.79596c-0.81552,0.5924 -3.49228,-1.66968 -4.50024,-1.66968c-1.00805,0 -3.68481,2.26208 -4.50024,1.66968c-0.81552,-0.59252 0.50875,-3.83728 0.19706,-4.79596c-0.31143,-0.95868 -3.28996,-2.80535 -2.97845,-3.76403c0.31143,-0.95868 3.8066,-0.70201 4.62203,-1.29441c0.81552,-0.59252 1.65143,-3.99591 2.65948,-3.99591z" fill="#1eff00" stroke="none" stroke-width="0.18433" stroke-miterlimit="4" stroke-dashoffset="17.35"/><path d="M68.26585,153.81115c0.23713,0 0.43597,0.08043 0.59766,0.24219c0.17247,0.16174 0.25781,0.36251 0.25781,0.59961c0,0.23725 -0.08534,0.44093 -0.25781,0.61328c-0.1617,0.16176 -0.36053,0.24219 -0.59766,0.24219h-5.57812v3.50976h5.07617c0.23713,0 0.43597,0.08522 0.59766,0.25782c0.16169,0.16171 0.24414,0.3625 0.24414,0.5996c0,0.2265 -0.08245,0.42531 -0.24414,0.59766c-0.16169,0.16177 -0.36053,0.24219 -0.59766,0.24219h-5.07617v4.89844c0,0.25869 -0.09215,0.48567 -0.27539,0.67968c-0.18324,0.18318 -0.41021,0.27539 -0.67969,0.27539c-0.2587,0 -0.48371,-0.09221 -0.67773,-0.27539c-0.18324,-0.19401 -0.27539,-0.42099 -0.27539,-0.67968v-10.54102c0,-0.34489 0.12317,-0.64073 0.37109,-0.88867c0.24792,-0.24794 0.55054,-0.37305 0.90625,-0.37305zM101.64671,154.05529c0.17247,0.16174 0.25976,0.36056 0.25976,0.59766v11.05859c0,0.23726 -0.08729,0.44289 -0.25976,0.61524c-0.1617,0.16176 -0.36053,0.24218 -0.59766,0.24218c-0.23714,0 -0.43597,-0.08042 -0.59766,-0.24218c-0.16169,-0.1725 -0.24219,-0.37814 -0.24219,-0.61524v-0.14453v-0.00195c-0.21559,0.18333 -0.42122,0.34144 -0.61523,0.4707c-0.18325,0.12951 -0.37723,0.23609 -0.58203,0.32227c-0.20481,0.07559 -0.43178,0.12985 -0.67969,0.16211c-0.24792,0.03225 -0.5321,0.04882 -0.85547,0.04882c-0.52817,0 -1.02963,-0.11357 -1.50391,-0.33984c-0.4635,-0.22634 -0.87281,-0.5435 -1.22852,-0.95312c-0.34493,-0.42039 -0.62137,-0.917 -0.82617,-1.48829c-0.2048,-0.57128 -0.30664,-1.20271 -0.30664,-1.89257c0,-0.68984 0.09213,-1.31934 0.27539,-1.89063c0.18324,-0.58207 0.44124,-1.07868 0.77539,-1.48828c0.34493,-0.42049 0.75424,-0.74248 1.22851,-0.96875c0.47428,-0.22627 1.00387,-0.33984 1.58594,-0.33984c0.44194,0 0.82311,0.05426 1.14648,0.16211c0.32337,0.10776 0.59301,0.23579 0.80859,0.38671c0.21557,0.14017 0.38338,0.28178 0.50195,0.42188c0.12934,0.14009 0.22149,0.24188 0.27539,0.30664v-3.83203c0,-0.23708 0.0805,-0.43589 0.24219,-0.59766c0.16167,-0.16176 0.3605,-0.24414 0.59766,-0.24414c0.23714,0 0.43597,0.08238 0.59766,0.24414zM135.48851,153.81115c0.63596,0 1.27223,0.10854 1.9082,0.32422c0.63596,0.21558 1.20822,0.57735 1.71484,1.08399c0.50662,0.49582 0.91593,1.15345 1.22852,1.97265c0.31259,0.80844 0.46875,1.80455 0.46875,2.99024c0,1.19647 -0.15616,2.20421 -0.46875,3.02343c-0.31259,0.80842 -0.7219,1.46603 -1.22852,1.97266c-0.50662,0.49572 -1.07888,0.85072 -1.71484,1.06641c-0.63597,0.21568 -1.27224,0.32421 -1.9082,0.32421h-3.83204c-0.16168,0 -0.31784,-0.02811 -0.46875,-0.08203c-0.15089,-0.0645 -0.28572,-0.14997 -0.40429,-0.25781c-0.11858,-0.10772 -0.21558,-0.24253 -0.29102,-0.4043c-0.07546,-0.16168 -0.11328,-0.33918 -0.11328,-0.5332v-10.21875c0,-0.34489 0.12514,-0.64073 0.37305,-0.88867c0.24791,-0.24794 0.54859,-0.37305 0.90429,-0.37305zM143.28147,154.08654c0.19402,0.18323 0.29102,0.41021 0.29102,0.67969c0,0.25872 -0.097,0.48567 -0.29102,0.67969c-0.18324,0.18318 -0.40341,0.27344 -0.66211,0.27344c-0.26948,-0.00001 -0.50129,-0.09026 -0.69531,-0.27344c-0.18325,-0.19404 -0.27539,-0.42099 -0.27539,-0.67969c0,-0.26953 0.09214,-0.49651 0.27539,-0.67969c0.19403,-0.18318 0.42584,-0.27539 0.69531,-0.27539c0.25869,0 0.47886,0.09221 0.66211,0.27539zM132.28733,164.87169h2.83008c0.63597,0 1.19174,-0.10853 1.66602,-0.32422c0.47428,-0.22637 0.86709,-0.53868 1.17969,-0.9375c0.31259,-0.40963 0.5444,-0.89941 0.69531,-1.4707c0.1509,-0.58205 0.22656,-1.23482 0.22656,-1.95703c0,-0.71141 -0.07566,-1.35254 -0.22656,-1.92383c-0.15091,-0.58207 -0.38272,-1.07189 -0.69531,-1.47071c-0.3126,-0.40949 -0.70541,-0.72376 -1.17969,-0.93945c-0.47428,-0.22627 -1.03005,-0.33789 -1.66602,-0.33789h-2.83008zM80.87327,157.36975c0.53895,0.18325 1.00258,0.45289 1.39062,0.80859c0.39882,0.34492 0.71113,0.77071 0.9375,1.27734c0.22637,0.50661 0.33984,1.08177 0.33984,1.72852c0,0.39876 -0.097,0.7014 -0.29102,0.90625c-0.19402,0.20485 -0.42099,0.30664 -0.67969,0.30664h-5.91797c0,0.02142 0.00674,0.11363 0.01758,0.27539c0.02154,0.1508 0.05938,0.3351 0.11328,0.55078c0.06468,0.21556 0.15002,0.44738 0.25781,0.69531c0.11858,0.23708 0.27473,0.45726 0.46875,0.66211c0.19402,0.20485 0.43068,0.37749 0.71094,0.51758c0.29104,0.12926 0.64313,0.19336 1.05273,0.19336c0.33416,0 0.61834,-0.02616 0.85547,-0.08008c0.23713,-0.05392 0.4476,-0.1363 0.63086,-0.24414c0.18325,-0.10769 0.35105,-0.24058 0.50195,-0.40234c0.15091,-0.17258 0.30222,-0.37334 0.45312,-0.59961c0.08622,-0.12926 0.18322,-0.21952 0.29102,-0.27344c0.10779,-0.05392 0.21931,-0.08203 0.33789,-0.08203c0.19402,0 0.37347,0.07084 0.53516,0.21094c0.16169,0.14002 0.24219,0.31752 0.24219,0.5332c0,0.12936 -0.07082,0.32334 -0.21094,0.58203c-0.14013,0.2587 -0.3671,0.5167 -0.67969,0.77539c-0.30181,0.2587 -0.69463,0.48567 -1.17969,0.67969c-0.48506,0.19402 -1.0767,0.29102 -1.77734,0.29102c-0.71142,0 -1.34769,-0.12995 -1.9082,-0.38868c-0.56051,-0.25869 -1.03578,-0.60401 -1.42383,-1.03515c-0.37727,-0.44196 -0.66825,-0.95309 -0.87305,-1.53516c-0.19402,-0.58207 -0.29102,-1.1902 -0.29102,-1.82617c0,-0.65751 0.10184,-1.2773 0.30664,-1.85938c0.2048,-0.59283 0.49773,-1.10594 0.875,-1.53711c0.38804,-0.43114 0.84972,-0.76964 1.38867,-1.01757c0.53895,-0.2587 1.1442,-0.38867 1.8125,-0.38867c0.6144,0 1.18472,0.0922 1.71289,0.27539zM90.2971,157.36975c0.53895,0.18325 1.00258,0.45289 1.39062,0.80859c0.39882,0.34492 0.71113,0.77071 0.9375,1.27734c0.22637,0.50661 0.33984,1.08177 0.33984,1.72852c0,0.39876 -0.097,0.7014 -0.29102,0.90625c-0.19402,0.20485 -0.42099,0.30664 -0.67969,0.30664h-5.91797c0,0.02142 0.00479,0.11363 0.01562,0.27539c0.02157,0.1508 0.05938,0.3351 0.11328,0.55078c0.06468,0.21556 0.15197,0.44738 0.25977,0.69531c0.11858,0.23708 0.27473,0.45726 0.46875,0.66211c0.19402,0.20485 0.43068,0.37749 0.71094,0.51758c0.29104,0.12926 0.64118,0.19336 1.05078,0.19336c0.33414,0 0.62027,-0.02616 0.85742,-0.08008c0.23715,-0.05392 0.44763,-0.1363 0.63086,-0.24414c0.18325,-0.10769 0.35105,-0.24058 0.50195,-0.40234c0.15091,-0.17258 0.30027,-0.37334 0.45117,-0.59961c0.08622,-0.12926 0.18322,-0.21952 0.29102,-0.27344c0.10779,-0.05392 0.22127,-0.08203 0.33984,-0.08203c0.19402,0 0.37151,0.07084 0.5332,0.21094c0.16169,0.14002 0.24414,0.31752 0.24414,0.5332c0,0.12936 -0.07082,0.32334 -0.21094,0.58203c-0.14013,0.2587 -0.36709,0.5167 -0.67969,0.77539c-0.30181,0.2587 -0.69463,0.48567 -1.17969,0.67969c-0.48506,0.19402 -1.07866,0.29102 -1.7793,0.29102c-0.71142,0 -1.34769,-0.12995 -1.9082,-0.38868c-0.56051,-0.25869 -1.03383,-0.60401 -1.42187,-1.03515c-0.37727,-0.44196 -0.66825,-0.95309 -0.87305,-1.53516c-0.19402,-0.58207 -0.29102,-1.1902 -0.29102,-1.82617c0,-0.65751 0.10184,-1.2773 0.30664,-1.85938c0.2048,-0.59283 0.49578,-1.10594 0.87305,-1.53711c0.38805,-0.43114 0.85167,-0.76964 1.39062,-1.01757c0.53895,-0.2587 1.14224,-0.38867 1.81055,-0.38867c0.6144,0 1.18667,0.0922 1.71484,0.27539zM109.18382,157.41662c0.54973,0.21556 1.025,0.52983 1.42383,0.93945c0.39882,0.4096 0.71113,0.90913 0.9375,1.50196c0.22637,0.59285 0.33984,1.2718 0.33984,2.03711c0,0.76533 -0.11347,1.4462 -0.33984,2.03906c-0.22636,0.59283 -0.53868,1.09235 -0.9375,1.50195c-0.39883,0.39874 -0.8741,0.70619 -1.42383,0.92188c-0.53895,0.21568 -1.12575,0.32422 -1.76172,0.32422c-0.63596,0 -1.22956,-0.10854 -1.7793,-0.32422c-0.53895,-0.21559 -1.00742,-0.52304 -1.40625,-0.92188c-0.39881,-0.4096 -0.71113,-0.90912 -0.9375,-1.50195c-0.22637,-0.59286 -0.33984,-1.27373 -0.33984,-2.03906c0,-0.76531 0.11347,-1.44426 0.33984,-2.03711c0.22636,-0.59283 0.53868,-1.09236 0.9375,-1.50196c0.39883,-0.4095 0.8673,-0.72376 1.40625,-0.93945c0.54973,-0.21568 1.14333,-0.32226 1.7793,-0.32226c0.63597,0 1.22277,0.10658 1.76172,0.32226zM158.59983,157.36975c0.53896,0.18325 1.00258,0.45289 1.39063,0.80859c0.39882,0.34492 0.71113,0.77071 0.9375,1.27734c0.22637,0.50661 0.33984,1.08177 0.33984,1.72852c0,0.39876 -0.097,0.7014 -0.29101,0.90625c-0.19402,0.20485 -0.41904,0.30664 -0.67774,0.30664h-5.91797c0,0.02142 0.00479,0.11363 0.01563,0.27539c0.02157,0.1508 0.05938,0.3351 0.11328,0.55078c0.06468,0.21556 0.15002,0.44738 0.25781,0.69531c0.11858,0.23708 0.27474,0.45726 0.46875,0.66211c0.19403,0.20485 0.43264,0.37749 0.71289,0.51758c0.29104,0.12926 0.64118,0.19336 1.05078,0.19336c0.33414,0 0.62027,-0.02616 0.85743,-0.08008c0.23712,-0.05392 0.44565,-0.1363 0.6289,-0.24414c0.18325,-0.10769 0.35105,-0.24058 0.50196,-0.40234c0.1509,-0.17258 0.30222,-0.37334 0.45312,-0.59961c0.08622,-0.12926 0.18322,-0.21952 0.29102,-0.27344c0.10779,-0.05392 0.22126,-0.08203 0.33984,-0.08203c0.19402,0 0.37151,0.07084 0.5332,0.21094c0.16169,0.14002 0.24219,0.31752 0.24219,0.5332c0,0.12936 -0.07082,0.32334 -0.21094,0.58203c-0.14012,0.2587 -0.36514,0.5167 -0.67773,0.77539c-0.30181,0.2587 -0.69658,0.48567 -1.18164,0.67969c-0.48506,0.19402 -1.07671,0.29102 -1.77735,0.29102c-0.71141,0 -1.34769,-0.12995 -1.9082,-0.38868c-0.56051,-0.25869 -1.03578,-0.60401 -1.42383,-1.03515c-0.37727,-0.44196 -0.66824,-0.95309 -0.87304,-1.53516c-0.19402,-0.58207 -0.29102,-1.1902 -0.29102,-1.82617c0,-0.65751 0.10379,-1.2773 0.30859,-1.85938c0.20481,-0.59283 0.49578,-1.10594 0.87305,-1.53711c0.38805,-0.43114 0.85167,-0.76964 1.39063,-1.01757c0.53895,-0.2587 1.14224,-0.38867 1.81054,-0.38867c0.61441,0 1.18472,0.0922 1.71289,0.27539zM71.53148,157.46546c0.16169,0.16171 0.24219,0.36055 0.24219,0.59765v0.3086c0.04311,-0.04309 0.12556,-0.13051 0.24414,-0.25977c0.11856,-0.12943 0.26307,-0.25746 0.43555,-0.38672c0.18324,-0.14009 0.38207,-0.25846 0.59766,-0.35546c0.22637,-0.10785 0.46498,-0.16211 0.71289,-0.16211c0.23714,0 0.43597,0.08521 0.59766,0.25781c0.17247,0.16171 0.25781,0.36251 0.25781,0.59961c0,0.22649 -0.08534,0.42531 -0.25781,0.59765c-0.16167,0.16177 -0.3605,0.24219 -0.59766,0.24219c-0.4096,0 -0.74521,0.097 -1.00391,0.29102c-0.2587,0.18323 -0.46238,0.40536 -0.61328,0.66406c-0.14012,0.25872 -0.23712,0.5264 -0.29102,0.80664c-0.0539,0.28032 -0.08203,0.51213 -0.08203,0.69531v4.34961c0,0.23726 -0.0805,0.44289 -0.24219,0.61524c-0.16167,0.16176 -0.3605,0.24218 -0.59766,0.24218c-0.23713,0 -0.44276,-0.08042 -0.61523,-0.24218c-0.16169,-0.1725 -0.24219,-0.37814 -0.24219,-0.61524v-7.64844c0,-0.23705 0.0805,-0.43589 0.24219,-0.59765c0.17247,-0.1726 0.37811,-0.25977 0.61523,-0.25977c0.23714,0 0.43597,0.08717 0.59766,0.25977zM114.28929,157.46546c0.16169,0.16171 0.24414,0.36251 0.24414,0.59961v0.35547c0.06465,-0.07559 0.15486,-0.18413 0.27344,-0.32422c0.12935,-0.14022 0.29715,-0.27504 0.50195,-0.4043c0.2048,-0.12926 0.44826,-0.24283 0.72852,-0.33984c0.29103,-0.09701 0.62953,-0.14453 1.01758,-0.14453c0.53895,0 1.00258,0.14449 1.39062,0.43554c0.38804,0.28024 0.69067,0.6304 0.90625,1.05078c0.29104,-0.52825 0.65767,-0.90459 1.09961,-1.13086c0.45272,-0.2371 0.98036,-0.35546 1.58398,-0.35546c0.38805,0 0.74303,0.05905 1.06641,0.17773c0.33416,0.10789 0.62029,0.27569 0.85742,0.50195c0.24793,0.22635 0.44191,0.50569 0.58203,0.83985c0.14012,0.33413 0.21094,0.72211 0.21094,1.16406v5.82031c0,0.23726 -0.08245,0.44289 -0.24414,0.61524c-0.1617,0.16176 -0.36053,0.24218 -0.59766,0.24218c-0.23713,0 -0.44081,-0.08042 -0.61328,-0.24218c-0.16169,-0.1725 -0.24414,-0.37814 -0.24414,-0.61524v-5.74023c0,-0.37727 -0.12318,-0.69927 -0.37109,-0.96875c-0.24792,-0.26946 -0.57672,-0.4043 -0.98633,-0.4043c-0.35571,0 -0.66318,0.06889 -0.92187,0.20899c-0.25869,0.12943 -0.47401,0.30888 -0.64648,0.53515c-0.16169,0.22637 -0.28487,0.48437 -0.37109,0.77539c-0.07546,0.29105 -0.11328,0.59366 -0.11328,0.90625v4.6875c0,0.23726 -0.08245,0.44289 -0.24414,0.61524c-0.16167,0.16176 -0.3605,0.24218 -0.59766,0.24218c-0.23713,0 -0.44081,-0.08042 -0.61328,-0.24218c-0.16169,-0.1725 -0.24414,-0.37814 -0.24414,-0.61524v-5.74023c0,-0.37727 -0.11834,-0.69927 -0.35547,-0.96875c-0.23714,-0.26946 -0.57079,-0.4043 -1.00195,-0.4043c-0.35571,0 -0.66318,0.06889 -0.92187,0.20899c-0.25869,0.12943 -0.47401,0.30888 -0.64648,0.53515c-0.16169,0.22637 -0.28487,0.48437 -0.37109,0.77539c-0.07546,0.29105 -0.11328,0.59366 -0.11328,0.90625v4.6875c0,0.23726 -0.08245,0.44289 -0.24414,0.61524c-0.1617,0.16176 -0.36053,0.24218 -0.59766,0.24218c-0.23713,0 -0.44081,-0.08042 -0.61328,-0.24218c-0.16169,-0.1725 -0.24414,-0.37814 -0.24414,-0.61524v-7.64648c0,-0.23705 0.08245,-0.43785 0.24414,-0.59961c0.17247,-0.1726 0.37615,-0.25781 0.61328,-0.25781c0.23714,0 0.43597,0.08521 0.59766,0.25781zM143.21702,157.46546c0.16169,0.16171 0.24219,0.36251 0.24219,0.59961v7.64648c0,0.23726 -0.0805,0.44289 -0.24219,0.61524c-0.1617,0.16176 -0.36053,0.24218 -0.59766,0.24218c-0.23713,0 -0.44276,-0.08042 -0.61523,-0.24218c-0.16169,-0.1725 -0.24219,-0.37814 -0.24219,-0.61524v-7.64648c0,-0.23705 0.0805,-0.43785 0.24219,-0.59961c0.17248,-0.1726 0.37811,-0.25781 0.61523,-0.25781c0.23714,0 0.43597,0.08521 0.59766,0.25781zM145.65257,157.36975c0.1509,0.09713 0.25274,0.23195 0.30664,0.40429l2.2793,6.85547l2.26367,-6.85547c0.05389,-0.17247 0.15573,-0.30729 0.30664,-0.40429c0.15092,-0.10785 0.31872,-0.16211 0.50195,-0.16211c0.06468,0 0.14518,0.01657 0.24219,0.04882c0.10779,0.02142 0.20479,0.06415 0.29101,0.12891c0.08623,0.0645 0.16189,0.15671 0.22657,0.27539c0.06468,0.10772 0.09765,0.24253 0.09765,0.4043c0,0.08617 -0.0165,0.17643 -0.04883,0.27344l-2.61914,7.29296c-0.10778,0.28037 -0.27074,0.50539 -0.48632,0.67774c-0.21559,0.1726 -0.47358,0.25976 -0.77539,0.25976c-0.31259,0 -0.57739,-0.08521 -0.79297,-0.25781c-0.21558,-0.17245 -0.37659,-0.39942 -0.48438,-0.67969l-2.60351,-7.29296c-0.03233,-0.09701 -0.04883,-0.18727 -0.04883,-0.27344c0,-0.07534 0.0165,-0.16276 0.04883,-0.25977c0.03232,-0.09701 0.0818,-0.18726 0.14648,-0.27343c0.06468,-0.09701 0.15002,-0.17265 0.25781,-0.22657c0.1078,-0.06475 0.23777,-0.09765 0.38868,-0.09765c0.18324,0 0.35104,0.05426 0.50195,0.16211zM78.17405,158.66271c-0.28026,0.11863 -0.51887,0.26995 -0.71289,0.45313c-0.18324,0.17237 -0.32775,0.36635 -0.43555,0.58203c-0.10779,0.21564 -0.18829,0.41448 -0.24219,0.59766c-0.05385,0.18328 -0.08682,0.34428 -0.09766,0.48437c-0.01083,0.12825 -0.01562,0.20389 -0.01562,0.22656h5.23828c0,-0.33416 -0.05432,-0.65131 -0.16211,-0.95312c-0.10778,-0.30191 -0.27363,-0.5667 -0.5,-0.79297c-0.21558,-0.23718 -0.49687,-0.42631 -0.8418,-0.56641c-0.34493,-0.14009 -0.74939,-0.20898 -1.21289,-0.20898c-0.39883,0 -0.73732,0.05906 -1.01758,0.17773zM87.59593,158.66271c-0.28026,0.11863 -0.51692,0.26995 -0.71094,0.45313c-0.18324,0.17237 -0.32775,0.36635 -0.43555,0.58203c-0.10779,0.21564 -0.19024,0.41448 -0.24414,0.59766c-0.05384,0.18328 -0.08487,0.34428 -0.0957,0.48437c-0.01083,0.12825 -0.01758,0.20389 -0.01758,0.22656h5.24023c0,-0.33416 -0.05432,-0.65131 -0.16211,-0.95312c-0.10778,-0.30191 -0.27558,-0.5667 -0.50195,-0.79297c-0.21558,-0.23718 -0.49491,-0.42631 -0.83984,-0.56641c-0.34493,-0.14009 -0.74939,-0.20898 -1.21289,-0.20898c-0.39883,0 -0.73927,0.05906 -1.01953,0.17773zM106.30687,158.69396c-0.33416,0.12937 -0.62513,0.335 -0.87305,0.61524c-0.23715,0.26948 -0.42629,0.61961 -0.56641,1.05078c-0.14012,0.43117 -0.21094,0.94428 -0.21094,1.53711c0,0.59286 0.07082,1.10399 0.21094,1.53516c0.14014,0.42038 0.32928,0.77051 0.56641,1.05078c0.24792,0.2695 0.53889,0.47514 0.87305,0.61523c0.34493,0.12926 0.71641,0.19336 1.11523,0.19336c0.39883,0 0.76546,-0.0641 1.09961,-0.19336c0.34494,-0.14014 0.63592,-0.34578 0.87305,-0.61523c0.24793,-0.28027 0.44191,-0.6304 0.58203,-1.05078c0.14012,-0.43117 0.20898,-0.9423 0.20898,-1.53516c0,-0.59283 -0.06886,-1.10594 -0.20898,-1.53711c-0.14013,-0.43117 -0.33412,-0.7813 -0.58203,-1.05078c-0.23714,-0.28034 -0.52812,-0.48598 -0.87305,-0.61524c-0.33415,-0.14009 -0.70078,-0.20898 -1.09961,-0.20898c-0.39882,0 -0.7703,0.06889 -1.11523,0.20898zM155.90062,158.66271c-0.28027,0.11863 -0.51693,0.26995 -0.71094,0.45313c-0.18324,0.17237 -0.32971,0.36635 -0.4375,0.58203c-0.10779,0.21564 -0.18829,0.41448 -0.24219,0.59766c-0.05385,0.18328 -0.08682,0.34428 -0.09766,0.48437c-0.01083,0.12825 -0.01562,0.20389 -0.01562,0.22656h5.23828c0,-0.33416 -0.05432,-0.65131 -0.16211,-0.95312c-0.10778,-0.30191 -0.27363,-0.5667 -0.5,-0.79297c-0.21558,-0.23718 -0.49687,-0.42631 -0.8418,-0.56641c-0.34493,-0.14009 -0.74939,-0.20898 -1.21289,-0.20898c-0.39882,0 -0.73732,0.05906 -1.01757,0.17773zM96.66819,158.87365c-0.31258,0.18326 -0.58222,0.4296 -0.80859,0.74219c-0.21557,0.30181 -0.38338,0.65196 -0.50195,1.05078c-0.10779,0.38806 -0.16211,0.79933 -0.16211,1.23047c0,0.42038 0.05432,0.82967 0.16211,1.22851c0.11857,0.39882 0.28637,0.74898 0.50195,1.05079c0.22636,0.30188 0.496,0.54338 0.80859,0.72656c0.31259,0.18318 0.67243,0.27539 1.08203,0.27539c0.4096,0 0.77139,-0.09221 1.08398,-0.27539c0.32337,-0.18323 0.59301,-0.42473 0.80859,-0.72656c0.21558,-0.30181 0.37658,-0.65197 0.48438,-1.05079c0.11858,-0.39884 0.17773,-0.80813 0.17773,-1.22851c0,-0.43114 -0.05916,-0.84241 -0.17773,-1.23047c-0.10779,-0.39882 -0.26879,-0.74897 -0.48438,-1.05078c-0.21558,-0.31267 -0.48522,-0.55901 -0.80859,-0.74219c-0.31259,-0.18318 -0.67438,-0.27539 -1.08398,-0.27539c-0.4096,0 -0.76944,0.09221 -1.08203,0.27539zM91.81859,168.38537c0.18325,0.08617 0.34621,0.20454 0.48633,0.35547c0.1509,0.14007 0.27893,0.31273 0.38672,0.51758c0.10779,0.19391 0.19993,0.39759 0.27539,0.61328l3.34766,9.66992c0.0539,0.16171 0.08008,0.31303 0.08008,0.45313c0,0.12933 -0.02618,0.26899 -0.08008,0.41992c-0.04311,0.1508 -0.11393,0.28562 -0.21094,0.40429c-0.09701,0.11868 -0.22019,0.22047 -0.37109,0.30664c-0.1509,0.07534 -0.3352,0.11329 -0.55078,0.11329c-0.25869,0 -0.50019,-0.07564 -0.72656,-0.22657c-0.21559,-0.1509 -0.3669,-0.35458 -0.45312,-0.61328l-0.92188,-3.08984h-3.75195l-0.92187,3.08984c-0.08622,0.25867 -0.24238,0.46235 -0.46875,0.61328c-0.21558,0.15093 -0.45224,0.22657 -0.71094,0.22657c-0.37726,0 -0.67793,-0.12316 -0.9043,-0.3711c-0.21558,-0.25869 -0.32422,-0.54967 -0.32422,-0.87304c0,-0.14005 0.02618,-0.29137 0.08008,-0.45313l3.36328,-9.66992c0.07546,-0.21559 0.1676,-0.41927 0.27539,-0.61328c0.10779,-0.20483 0.23097,-0.37749 0.37109,-0.51758c0.14014,-0.15093 0.3031,-0.2693 0.48633,-0.35547c0.18326,-0.08617 0.39373,-0.12891 0.63086,-0.12891c0.22637,0 0.43005,0.04274 0.61328,0.12891zM67.69944,168.62756c0.21558,0.08635 0.39792,0.21632 0.54883,0.38867c0.16169,0.16179 0.28682,0.35576 0.37305,0.58203c0.09701,0.22634 0.14453,0.46787 0.14453,0.72656v5.85352h0.87305c0.29104,0 0.53934,0.10179 0.74414,0.30664c0.21558,0.2048 0.32422,0.45796 0.32422,0.75977c0,0.29099 -0.10863,0.53929 -0.32422,0.74414c-0.2048,0.20485 -0.45311,0.30664 -0.74414,0.30664h-0.87305v1.71484c0,0.34497 -0.12318,0.63595 -0.37109,0.87305c-0.23714,0.2371 -0.52812,0.35547 -0.87305,0.35547c-0.34494,0 -0.63592,-0.11837 -0.87305,-0.35547c-0.23713,-0.23716 -0.35547,-0.52813 -0.35547,-0.87305v-1.71484h-4.00976c-0.31259,0 -0.59388,-0.04753 -0.8418,-0.14453c-0.24792,-0.10792 -0.46324,-0.24758 -0.64648,-0.41993c-0.17247,-0.17254 -0.30729,-0.37334 -0.4043,-0.59961c-0.09701,-0.23715 -0.14453,-0.48349 -0.14453,-0.74218c0,-0.54972 0.21048,-1.06767 0.63086,-1.55274l4.52539,-5.33594c0.23715,-0.28026 0.4806,-0.51692 0.72852,-0.71093c0.2587,-0.20485 0.55452,-0.3086 0.88867,-0.3086c0.23714,0 0.4641,0.04948 0.67969,0.14649zM73.77562,168.8385c0.24791,0.23715 0.37305,0.52812 0.37305,0.87304v3.91211l4.34766,-4.68945c0.2048,-0.21569 0.4599,-0.32227 0.76172,-0.32227c0.3018,0 0.56949,0.10658 0.80664,0.32227c0.23713,0.21558 0.35742,0.49688 0.35742,0.8418c0,0.26935 -0.08729,0.48951 -0.25976,0.6621l-3.12109,3.18555l4.07617,5.70703c0.16169,0.22635 0.24219,0.47466 0.24219,0.74414c0,0.11861 -0.02813,0.24858 -0.08203,0.38868c-0.04311,0.14001 -0.11198,0.26804 -0.20898,0.38671c-0.09701,0.10759 -0.22214,0.1998 -0.37305,0.27539c-0.15091,0.07534 -0.3284,0.11329 -0.5332,0.11329c-0.18324,0 -0.35589,-0.03795 -0.51758,-0.11329c-0.16168,-0.07533 -0.2965,-0.18891 -0.4043,-0.33984l-3.75,-5.59375l-1.3418,1.35742v3.46094c0,0.34497 -0.12513,0.63595 -0.37305,0.87305c-0.23714,0.2371 -0.52812,0.35547 -0.87305,0.35547c-0.34492,0 -0.63589,-0.11837 -0.87305,-0.35547c-0.23713,-0.23716 -0.35547,-0.52813 -0.35547,-0.87305v-10.29883c0,-0.34497 0.11834,-0.63594 0.35547,-0.87304c0.23714,-0.23711 0.52812,-0.35743 0.87305,-0.35743c0.34492,0 0.63589,0.12032 0.87305,0.35743zM124.82054,168.82092c0.23715,0.22634 0.35742,0.50084 0.35742,0.82422v3.20117c0,0.06475 0.02134,0.09765 0.06445,0.09765c0.06468,0 0.16652,-0.05426 0.30664,-0.1621c0.14013,-0.11868 0.31278,-0.24184 0.51758,-0.3711c0.21558,-0.12926 0.46389,-0.24762 0.74414,-0.35547c0.28026,-0.11842 0.59257,-0.17773 0.9375,-0.17773c0.4635,0 0.87765,0.07563 1.24414,0.22656c0.37727,0.1509 0.68959,0.35459 0.9375,0.61328c0.24791,0.2587 0.43705,0.56617 0.56641,0.92188c0.14012,0.34494 0.21094,0.71642 0.21094,1.11523v5.32031c0,0.31265 -0.11835,0.58712 -0.35547,0.82422c-0.22636,0.22627 -0.496,0.33985 -0.8086,0.33985c-0.32338,0 -0.60467,-0.11358 -0.84179,-0.33985c-0.22637,-0.23715 -0.33985,-0.51162 -0.33985,-0.82422v-4.52734c0,-0.44195 -0.15616,-0.81343 -0.46875,-1.11523c-0.30181,-0.3126 -0.67813,-0.46875 -1.13086,-0.46875c-0.44194,0 -0.82022,0.15615 -1.13281,0.46875c-0.30181,0.3018 -0.45117,0.67812 -0.45117,1.13085v4.51172c0,0.31265 -0.12027,0.58712 -0.35742,0.82422c-0.22636,0.22627 -0.50085,0.33985 -0.82422,0.33985c-0.3126,0 -0.58709,-0.11358 -0.82422,-0.33985c-0.22637,-0.23715 -0.33984,-0.51162 -0.33984,-0.82422v-10.42968c0,-0.32346 0.11347,-0.59795 0.33984,-0.82422c0.23714,-0.22627 0.51162,-0.33985 0.82422,-0.33985c0.32336,0 0.59785,0.11358 0.82422,0.33985zM119.50608,169.24279c0.23715,0.22637 0.35547,0.50084 0.35547,0.82422v1.81055v0.21094h1.14844c0.20481,0 0.37746,0.07368 0.51758,0.2246c0.1509,0.14007 0.22461,0.31273 0.22461,0.51758c0,0.21564 -0.07371,0.39506 -0.22461,0.53516c-0.14013,0.14009 -0.31278,0.20898 -0.51758,0.20898h-1.14844v6.5c0,0.31265 -0.11831,0.58712 -0.35547,0.82422c-0.22636,0.22627 -0.496,0.33985 -0.80859,0.33985c-0.32338,0 -0.60467,-0.11358 -0.8418,-0.33985c-0.22637,-0.23715 -0.33789,-0.51162 -0.33789,-0.82422v-6.5h-0.67969c-0.2048,0 -0.3823,-0.06889 -0.5332,-0.20898c-0.14012,-0.14004 -0.21094,-0.31947 -0.21094,-0.53516c0,-0.20482 0.07082,-0.37748 0.21094,-0.51758c0.15091,-0.15092 0.3284,-0.2246 0.5332,-0.2246h0.67969v-0.21094v-1.81055c0,-0.32348 0.11152,-0.59795 0.33789,-0.82422c0.23714,-0.22627 0.51843,-0.33984 0.8418,-0.33984c0.31258,0 0.58222,0.11357 0.80859,0.33984zM89.87913,175.41856h2.63476l-1.30859,-4.46289zM62.39671,176.17833h3.89648v-4.65625zM99.24046,172.23302c0.22637,0.22637 0.33984,0.496 0.33984,0.80859c0.09701,-0.10784 0.22503,-0.231 0.38672,-0.37109c0.16168,-0.1401 0.35566,-0.26521 0.58203,-0.37305c0.22636,-0.11868 0.48631,-0.21568 0.77734,-0.29102c0.29103,-0.08617 0.61984,-0.1289 0.98633,-0.1289c0.4096,0 0.79757,0.07084 1.16406,0.21094c0.36649,0.14009 0.68365,0.33409 0.95312,0.58203c0.28026,0.24793 0.49558,0.54859 0.64648,0.90429c0.16169,0.34492 0.24219,0.7329 0.24219,1.16407v5.33593c0,0.31265 -0.11347,0.58712 -0.33984,0.82422c-0.22636,0.22627 -0.50085,0.33985 -0.82422,0.33985c-0.32338,0 -0.60272,-0.11358 -0.83984,-0.33985c-0.22637,-0.23715 -0.33984,-0.51162 -0.33984,-0.82422v-4.55859c0,-0.23708 -0.04948,-0.45921 -0.14648,-0.66406c-0.08622,-0.2048 -0.20456,-0.38228 -0.35547,-0.53321c-0.15091,-0.15092 -0.3284,-0.26929 -0.5332,-0.35546c-0.20481,-0.09701 -0.42498,-0.14649 -0.66211,-0.14649c-0.22636,0 -0.44848,0.04948 -0.66406,0.14649c-0.2048,0.08617 -0.3823,0.20454 -0.5332,0.35546c-0.1509,0.15088 -0.27408,0.32836 -0.37109,0.53321c-0.08622,0.20482 -0.12891,0.42696 -0.12891,0.66406v4.55859c0,0.31265 -0.11347,0.58712 -0.33984,0.82422c-0.22636,0.22627 -0.5028,0.33985 -0.82617,0.33985c-0.32338,0 -0.60272,-0.11358 -0.83984,-0.33985c-0.22637,-0.23715 -0.33984,-0.51162 -0.33984,-0.82422v-7.0332c0,-0.31269 0.11348,-0.58233 0.33984,-0.80859c0.23714,-0.23711 0.51647,-0.35547 0.83984,-0.35547c0.32336,0 0.5998,0.11836 0.82617,0.35547zM112.79124,172.23302c0.57129,0.22637 1.0679,0.55032 1.48828,0.9707c0.42039,0.42038 0.7492,0.9267 0.98633,1.51953c0.24791,0.58207 0.37109,1.22802 0.37109,1.93945c0,0.71141 -0.12318,1.36418 -0.37109,1.95704c-0.23714,0.58207 -0.56594,1.08354 -0.98633,1.5039c-0.42038,0.42044 -0.91699,0.74923 -1.48828,0.98633c-0.57129,0.22627 -1.18623,0.33984 -1.84375,0.33984c-0.64674,0 -1.25488,-0.11357 -1.82617,-0.33984c-0.57129,-0.23715 -1.0679,-0.56594 -1.48828,-0.98633c-0.42039,-0.42036 -0.75404,-0.92183 -1.00195,-1.5039c-0.23713,-0.59286 -0.35547,-1.24563 -0.35547,-1.95704c0,-0.71143 0.11834,-1.35738 0.35547,-1.93945c0.24792,-0.59283 0.58157,-1.09915 1.00195,-1.51953c0.42038,-0.42049 0.91699,-0.74444 1.48828,-0.9707c0.57129,-0.23711 1.17943,-0.35547 1.82617,-0.35547c0.65752,0 1.27246,0.11836 1.84375,0.35547zM137.9221,172.29748c0.52817,0.26948 0.95882,0.60993 1.29297,1.01953c0.34493,0.4096 0.59808,0.84994 0.75976,1.32422c0.16169,0.47428 0.24414,0.91171 0.24414,1.31055c0,0.37724 -0.07081,0.68956 -0.21093,0.9375c-0.14013,0.24793 -0.34576,0.37304 -0.61524,0.37304h-5.17383c-0.11857,0 -0.20875,0.04274 -0.27343,0.12891c-0.0539,0.07559 -0.08203,0.17738 -0.08203,0.30664c0,0.16159 0.04947,0.35072 0.14648,0.56641c0.09702,0.20482 0.24153,0.40364 0.43555,0.59765c0.19402,0.19409 0.43068,0.35707 0.71093,0.48633c0.29104,0.12926 0.62664,0.19336 1.00391,0.19336c0.22635,0 0.42518,-0.02137 0.59766,-0.06445c0.17246,-0.05392 0.33347,-0.12956 0.48437,-0.22657c0.15092,-0.097 0.29738,-0.22211 0.4375,-0.37304c0.1509,-0.16156 0.31675,-0.34877 0.5,-0.56446c0.16169,-0.19401 0.34598,-0.29101 0.55078,-0.29101c0.12937,0 0.25934,0.03095 0.38867,0.0957c0.12937,0.06451 0.24089,0.15193 0.3379,0.25977c0.097,0.10784 0.17946,0.231 0.24414,0.37109c0.06468,0.12939 0.0957,0.2642 0.0957,0.4043c0,0.14012 -0.07566,0.33896 -0.22656,0.59765c-0.14013,0.24792 -0.3603,0.503 -0.66211,0.76172c-0.30182,0.24792 -0.67814,0.4681 -1.13086,0.66211c-0.45272,0.18318 -0.99201,0.27539 -1.61719,0.27539c-0.71142,0 -1.34769,-0.12997 -1.9082,-0.38867c-0.56051,-0.25872 -1.03578,-0.60401 -1.42383,-1.03515c-0.37727,-0.44196 -0.66825,-0.94825 -0.87305,-1.51954c-0.19401,-0.58207 -0.29101,-1.19702 -0.29101,-1.84375c0,-0.64675 0.08729,-1.25488 0.25976,-1.82617c0.18325,-0.58207 0.45773,-1.08836 0.82422,-1.51953c0.36649,-0.44193 0.82527,-0.79208 1.375,-1.05078c0.54973,-0.2587 1.1957,-0.38867 1.93945,-0.38867c0.7222,0 1.34198,0.13968 1.85938,0.41992zM143.16624,172.23302c0.22637,0.22637 0.33984,0.496 0.33984,0.80859c0.09701,-0.10784 0.21535,-0.231 0.35547,-0.37109c0.1509,-0.1401 0.31386,-0.26521 0.48633,-0.37305c0.18325,-0.11868 0.37044,-0.21568 0.56445,-0.29102c0.19403,-0.08617 0.38802,-0.1289 0.58203,-0.1289c0.43117,0 0.72215,0.11357 0.87305,0.33984c0.16169,0.22637 0.24219,0.48921 0.24219,0.79102c0,0.24801 -0.05916,0.43714 -0.17774,0.5664c-0.10778,0.11843 -0.24744,0.21064 -0.41992,0.27539c-0.16169,0.06476 -0.33918,0.11903 -0.5332,0.16211c-0.19402,0.03226 -0.37636,0.07978 -0.54883,0.14454h-0.00195c-0.3126,0.11857 -0.56575,0.27473 -0.75977,0.46874c-0.18324,0.18314 -0.32291,0.38393 -0.41992,0.59961c-0.09701,0.2047 -0.16103,0.41323 -0.19336,0.62891c-0.03233,0.21564 -0.04883,0.41643 -0.04883,0.59961v3.62109c0,0.32348 -0.11834,0.59795 -0.35546,0.82422c-0.22637,0.22627 -0.50085,0.33985 -0.82422,0.33985c-0.31258,0 -0.58707,-0.11358 -0.82422,-0.33985c-0.22637,-0.23715 -0.33985,-0.51162 -0.33985,-0.82422v-7.0332c0,-0.31269 0.11348,-0.58233 0.33985,-0.80859c0.23714,-0.23711 0.51647,-0.35547 0.83984,-0.35547c0.32337,0 0.59785,0.11836 0.82422,0.35547zM109.88109,173.83458c-0.31258,0.16169 -0.58222,0.38671 -0.80859,0.67773c-0.21557,0.28027 -0.38338,0.60908 -0.50195,0.98633c-0.11858,0.36649 -0.17773,0.75444 -0.17773,1.16406c0,0.4096 0.05916,0.80437 0.17773,1.18165c0.11857,0.37724 0.28637,0.70606 0.50195,0.98632c0.22636,0.28037 0.496,0.50539 0.80859,0.67774c0.31259,0.16176 0.66758,0.24414 1.06641,0.24414c0.39883,0 0.75577,-0.08238 1.06836,-0.24414c0.32337,-0.17245 0.59106,-0.39747 0.80664,-0.67774c0.21558,-0.28026 0.38338,-0.60908 0.50195,-0.98632c0.11858,-0.37728 0.17773,-0.77205 0.17773,-1.18165c0,-0.40962 -0.05916,-0.79757 -0.17773,-1.16406c-0.11857,-0.37725 -0.28637,-0.70606 -0.50195,-0.98633c-0.21558,-0.29094 -0.48327,-0.51597 -0.80664,-0.67773c-0.31259,-0.1726 -0.66953,-0.25977 -1.06836,-0.25977c-0.39882,0 -0.75381,0.08717 -1.06641,0.25977zM135.12522,173.9635c-0.25869,0.10791 -0.47401,0.24757 -0.64648,0.41992c-0.16169,0.16174 -0.28682,0.33439 -0.37305,0.51758c-0.08622,0.18328 -0.1289,0.34428 -0.1289,0.48437c0,0.21569 0.0805,0.32422 0.24218,0.32422h3.6875c0.14012,0 0.20899,-0.10179 0.20899,-0.30664c0,-0.1402 -0.04268,-0.30315 -0.12891,-0.48633c-0.07544,-0.18318 -0.19862,-0.35581 -0.37109,-0.51758c-0.16169,-0.17234 -0.37216,-0.31687 -0.63086,-0.43554c-0.2587,-0.11868 -0.56617,-0.17774 -0.92188,-0.17774c-0.3557,0 -0.66802,0.05906 -0.9375,0.17774z" fill="#1eff00" stroke="none" stroke-width="1.01053" stroke-miterlimit="10" stroke-dashoffset="0"/></g></g></svg>