<svg version="1.1" xmlns="http://www.w3.org/2000/svg" xmlns:xlink="http://www.w3.org/1999/xlink" width="129.87424" height="27.77099" viewBox="0,0,129.87424,27.77099"><g transform="translate(-323.17369,-253.44709)"><g data-paper-data="{&quot;isPaintingLayer&quot;:true}" fill-rule="nonzero" stroke-linecap="butt" stroke-linejoin="miter" stroke-dasharray="" style="mix-blend-mode: normal"><path d="M323.97399,254.19709h128.27344c0.0278,0 0.0505,0.086 0.0505,0.19286v25.88527c0,0.10684 -0.0224,0.19286 -0.0505,0.19286h-128.27344c-0.0279,0 -0.0503,-0.086 -0.0503,-0.19286v-25.88527c0,-0.10684 0.0224,-0.19286 0.0503,-0.19286z" fill="#272727" stroke="#1eff00" stroke-width="1.5" stroke-miterlimit="4" stroke-dashoffset="17.35"/><path d="M347.03756,259.63432c0.62956,0.27743 1.16903,0.613 1.61719,1.00781c0.45883,0.38414 0.81121,0.79493 1.05664,1.23242c0.25609,0.4375 0.38281,0.81661 0.38281,1.13672c0,0.28811 -0.1069,0.51677 -0.32031,0.6875c-0.21341,0.16004 -0.44208,0.24024 -0.6875,0.24024c-0.1814,0 -0.35166,-0.04156 -0.51172,-0.12696c-0.16008,-0.09603 -0.27194,-0.25143 -0.33594,-0.46484c-0.09603,-0.29877 -0.22966,-0.59275 -0.40039,-0.88086c-0.17073,-0.2881 -0.38949,-0.54845 -0.65625,-0.7832c-0.26676,-0.23476 -0.58252,-0.42183 -0.94531,-0.56055c-0.35213,-0.14941 -0.76291,-0.22461 -1.23242,-0.22461c-0.53353,0 -1.03441,0.11681 -1.50391,0.35156c-0.4695,0.22408 -0.88029,0.54974 -1.23242,0.97657c-0.34146,0.41615 -0.61366,0.92393 -0.8164,1.52148c-0.20275,0.59755 -0.30469,1.26373 -0.30469,2c0,0.73627 0.10194,1.4044 0.30469,2.00195c0.20273,0.59755 0.47494,1.10834 0.8164,1.53516c0.35213,0.42682 0.76292,0.75743 1.23242,0.99219c0.4695,0.22408 0.97038,0.33789 1.50391,0.33789c0.46951,0 0.88029,-0.07027 1.23242,-0.20899c0.36279,-0.14938 0.67855,-0.34142 0.94531,-0.57617c0.26676,-0.23475 0.48552,-0.49706 0.65625,-0.78516c0.17073,-0.29878 0.30439,-0.59575 0.40039,-0.89453c0.06403,-0.21341 0.17589,-0.36382 0.33594,-0.44922c0.16006,-0.09603 0.33032,-0.14453 0.51172,-0.14453c0.24542,0 0.47409,0.08018 0.6875,0.24024c0.21341,0.16006 0.32031,0.38377 0.32031,0.67187c0,0.23475 -0.09503,0.56536 -0.28711,0.99219c-0.19206,0.42682 -0.491,0.85443 -0.89648,1.28125c-0.40548,0.41615 -0.93503,0.77845 -1.58594,1.08789c-0.64023,0.30945 -1.41332,0.46484 -2.32031,0.46484c-0.96035,0 -1.8037,-0.18212 -2.5293,-0.54492c-0.71492,-0.3628 -1.31083,-0.84686 -1.79101,-1.45508c-0.4695,-0.60822 -0.82685,-1.30307 -1.07227,-2.08203c-0.23475,-0.78961 -0.35351,-1.6112 -0.35351,-2.46484c0,-0.84297 0.11876,-1.6596 0.35351,-2.44922c0.24542,-0.78962 0.60277,-1.48253 1.07227,-2.08008c0.48018,-0.60822 1.07609,-1.09423 1.79101,-1.45703c0.7256,-0.3628 1.56895,-0.54297 2.5293,-0.54297c0.73627,0 1.41431,0.13858 2.0332,0.41602zM352.71335,259.68119c0.16003,0.16006 0.24023,0.359 0.24023,0.59375v3.75977c0.34146,-0.39481 0.70871,-0.6987 1.10351,-0.91211c0.39482,-0.21341 0.87092,-0.32031 1.42578,-0.32031c0.49084,0 0.94323,0.07522 1.35938,0.22461c0.41615,0.14939 0.77349,0.36319 1.07227,0.64062c0.29877,0.26676 0.52939,0.59738 0.68945,0.99219c0.17076,0.38414 0.25586,0.8167 0.25586,1.29687v5.26563c0,0.23475 -0.08513,0.43669 -0.25586,0.60742c-0.16006,0.16003 -0.35704,0.24023 -0.5918,0.24023c-0.23474,0 -0.43369,-0.08017 -0.59375,-0.24023c-0.16003,-0.17073 -0.24023,-0.37267 -0.24023,-0.60742v-5.26563c0,-0.24542 -0.05345,-0.47604 -0.16016,-0.68945c-0.09603,-0.22408 -0.22771,-0.41611 -0.39844,-0.57617c-0.17072,-0.16006 -0.36966,-0.28179 -0.59375,-0.36719c-0.22408,-0.09603 -0.4577,-0.14453 -0.70312,-0.14453c-0.32011,0 -0.624,0.06336 -0.91211,0.19141c-0.2881,0.11738 -0.54544,0.28464 -0.76953,0.49804c-0.21342,0.20274 -0.38368,0.44132 -0.51172,0.71875c-0.11738,0.27743 -0.17578,0.57638 -0.17578,0.89649v4.73828c0,0.23475 -0.08018,0.43669 -0.24024,0.60742c-0.16005,0.16003 -0.35704,0.24023 -0.59179,0.24023c-0.23476,0 -0.43865,-0.08017 -0.60938,-0.24023c-0.16003,-0.17073 -0.24023,-0.37267 -0.24023,-0.60742v-10.94727c0,-0.23475 0.08017,-0.43369 0.24023,-0.59375c0.17073,-0.16003 0.37462,-0.24023 0.60938,-0.24023c0.23476,0 0.43175,0.08018 0.5918,0.24023zM410.08057,259.44096c0.23475,0 0.43174,0.08018 0.5918,0.24023c0.16003,0.16006 0.24023,0.359 0.24023,0.59375v6.11328l3.91992,-3.4082c0.14939,-0.11733 0.3147,-0.17773 0.4961,-0.17773c0.17071,0 0.33603,0.06531 0.49609,0.19336c0.16003,0.12804 0.24023,0.30821 0.24023,0.54297c0,0.21342 -0.08513,0.39553 -0.25586,0.54492l-2.44922,2.11328l3.23437,4.57617c0.09603,0.1494 0.14453,0.30974 0.14453,0.48047c0,0.14939 -0.0268,0.27806 -0.0801,0.38476c-0.05336,0.09606 -0.12359,0.17624 -0.20899,0.24024c-0.08536,0.06403 -0.17548,0.11253 -0.27148,0.14453c-0.09604,0.032 -0.18804,0.0469 -0.27344,0.0469c-0.13872,0 -0.26544,-0.0268 -0.38281,-0.0801c-0.11738,-0.05336 -0.21929,-0.13849 -0.30469,-0.25586l-3.07227,-4.44922l-1.23242,1.05664v2.88086c0,0.23475 -0.08017,0.43669 -0.24023,0.60742c-0.16006,0.16003 -0.35705,0.24023 -0.5918,0.24023c-0.23475,0 -0.43864,-0.08017 -0.60937,-0.24023c-0.16004,-0.17073 -0.24024,-0.37267 -0.24024,-0.60742v-10.94727c0,-0.23475 0.08018,-0.43369 0.24024,-0.59375c0.17073,-0.16003 0.37462,-0.24023 0.60937,-0.24023zM419.18991,259.7144c0.19211,0.1814 0.28711,0.4051 0.28711,0.67187c0,0.25609 -0.09505,0.47981 -0.28711,0.67188c-0.1814,0.18138 -0.40016,0.27148 -0.65625,0.27148c-0.26677,0 -0.49739,-0.09008 -0.68946,-0.27148c-0.18138,-0.19207 -0.27148,-0.41579 -0.27148,-0.67188c0,-0.26677 0.09008,-0.49047 0.27148,-0.67187c0.19207,-0.18144 0.42269,-0.27344 0.68946,-0.27344c0.25609,0 0.47485,0.09204 0.65625,0.27344zM364.00629,262.69097c1.0884,0 1.95352,0.21876 2.59375,0.65625c0.6509,0.42682 0.97657,1.06132 0.97657,1.9043v5.9707c-0.00001,0.23475 -0.08018,0.43669 -0.24024,0.60742c-0.16005,0.16003 -0.35704,0.24023 -0.5918,0.24023c-0.23475,0 -0.43864,-0.08017 -0.60937,-0.24023c-0.16004,-0.17073 -0.24024,-0.37267 -0.24024,-0.60742v-0.25586c-0.40548,0.43749 -0.86972,0.73147 -1.39257,0.88086c-0.51219,0.14935 -1.0566,0.22265 -1.63282,0.22265c-0.36279,0 -0.73004,-0.04657 -1.10351,-0.14257c-0.3628,-0.10671 -0.69341,-0.26707 -0.99219,-0.48047c-0.2881,-0.21342 -0.52368,-0.48067 -0.70508,-0.80078c-0.18138,-0.32012 -0.27148,-0.70419 -0.27148,-1.15235c0,-0.51218 0.10195,-0.93979 0.30469,-1.28125c0.20274,-0.35212 0.47494,-0.6392 0.8164,-0.86328c0.34146,-0.22408 0.73048,-0.39434 1.16797,-0.51172c0.44816,-0.1174 0.91736,-0.20451 1.4082,-0.25781c0.56554,-0.06402 1.00802,-0.13233 1.32813,-0.20703c0.32012,-0.08537 0.56065,-0.18236 0.7207,-0.28906c0.16008,-0.10671 0.25706,-0.22848 0.28906,-0.36719c0.0427,-0.13872 0.0625,-0.29412 0.0625,-0.46484c0,-0.20274 -0.0584,-0.37796 -0.17578,-0.52735c-0.11738,-0.14938 -0.26586,-0.27314 -0.44726,-0.36914c-0.1814,-0.09605 -0.38529,-0.16433 -0.60938,-0.20703c-0.22408,-0.0534 -0.44284,-0.0801 -0.65625,-0.0801c-0.38414,0 -0.69298,0.0317 -0.92773,0.0957c-0.23476,0.06401 -0.42679,0.14915 -0.57617,0.25585c-0.14939,0.10671 -0.27314,0.23538 -0.36914,0.38477c-0.08537,0.14939 -0.16359,0.30283 -0.23829,0.46289c-0.06402,0.12807 -0.15605,0.22506 -0.27343,0.28906c-0.10671,0.0534 -0.21857,0.0801 -0.33594,0.0801c-0.21341,0 -0.4104,-0.07026 -0.5918,-0.20898c-0.18138,-0.13872 -0.27148,-0.33075 -0.27148,-0.57617c0,-0.09603 0.0268,-0.21285 0.0801,-0.35157c0.09603,-0.22408 0.22275,-0.44283 0.38281,-0.65625c0.16005,-0.22408 0.37386,-0.42107 0.64062,-0.59179c0.27744,-0.17074 0.61301,-0.30439 1.00782,-0.40039c0.40548,-0.10676 0.89644,-0.16016 1.47265,-0.16016zM390.98875,262.69101c0.60822,0 1.17442,0.09008 1.69727,0.27148c0.53353,0.1814 0.99086,0.44866 1.375,0.80078c0.39481,0.34146 0.70561,0.76216 0.92969,1.26368c0.22408,0.50151 0.33594,1.07265 0.33594,1.71289c-0.00001,0.39481 -0.09699,0.69374 -0.28907,0.89648c-0.19206,0.20274 -0.41578,0.30469 -0.67187,0.30469h-5.85742c0,0.02134 0.0049,0.11143 0.0156,0.27148c0.02134,0.1494 0.05804,0.33151 0.11134,0.54492c0.06403,0.21342 0.14915,0.44208 0.25585,0.6875c0.11738,0.23476 0.27278,0.45351 0.46484,0.65626c0.19209,0.20276 0.42765,0.373 0.70508,0.51171c0.2881,0.12806 0.63358,0.19336 1.03906,0.19336c0.33079,0 0.61486,-0.0268 0.84961,-0.0801c0.23476,-0.05334 0.44165,-0.13353 0.62305,-0.24024c0.1814,-0.10671 0.34671,-0.24033 0.49609,-0.40039c0.14939,-0.17073 0.29983,-0.36772 0.44922,-0.5918c0.08537,-0.12806 0.1804,-0.21818 0.28711,-0.27148c0.1067,-0.0533 0.21856,-0.0801 0.33594,-0.0801c0.19206,0 0.36924,0.06831 0.52929,0.20703c0.16004,0.13872 0.24024,0.31589 0.24024,0.5293c0,0.12805 -0.07027,0.32008 -0.20898,0.57617c-0.13872,0.25609 -0.36244,0.51149 -0.67188,0.76758c-0.29878,0.25609 -0.6878,0.4798 -1.16797,0.67187c-0.48017,0.19207 -1.06813,0.28907 -1.76172,0.28907c-0.70425,0 -1.3338,-0.12868 -1.88867,-0.38477c-0.55487,-0.25609 -1.02406,-0.59857 -1.4082,-1.02539c-0.37347,-0.43749 -0.66054,-0.94332 -0.86328,-1.51953c-0.19207,-0.57621 -0.28907,-1.17903 -0.28907,-1.8086c0,-0.6509 0.10195,-1.26363 0.30469,-1.83984c0.20274,-0.58688 0.48981,-1.09466 0.86328,-1.52148c0.38414,-0.42682 0.84343,-0.76239 1.37696,-1.00782c0.53352,-0.25609 1.13139,-0.38476 1.79296,-0.38476zM403.91648,262.69097c0.60822,0 1.12095,0.06336 1.53711,0.1914c0.41614,0.12805 0.75667,0.29336 1.02344,0.4961c0.1067,0.08537 0.21856,0.19226 0.33593,0.32031c0.11738,0.11737 0.22923,0.25101 0.33594,0.40039c0.10673,0.13872 0.19186,0.2773 0.25586,0.41602c0.07468,0.13872 0.11328,0.26243 0.11328,0.36914c0,0.24542 -0.09699,0.44241 -0.28906,0.5918c-0.19207,0.13873 -0.39896,0.20703 -0.62305,0.20703c-0.13871,0 -0.26738,-0.0317 -0.38476,-0.0957c-0.1174,-0.07469 -0.20749,-0.18655 -0.27149,-0.33593c-0.08536,-0.20274 -0.17744,-0.37796 -0.27344,-0.52735c-0.09603,-0.14938 -0.22275,-0.27314 -0.38281,-0.36914c-0.14938,-0.09605 -0.33646,-0.16433 -0.56055,-0.20703c-0.21341,-0.0534 -0.48561,-0.0801 -0.8164,-0.0801c-0.6509,0 -1.12505,0.1069 -1.42383,0.32031c-0.2881,0.20274 -0.43359,0.45814 -0.43359,0.76758c0,0.23475 0.08513,0.42678 0.25586,0.57617c0.17072,0.13872 0.39639,0.26245 0.67382,0.36915c0.28811,0.09604 0.61377,0.18115 0.97657,0.25585c0.36279,0.06402 0.73004,0.14424 1.10351,0.24024c0.37347,0.08535 0.74072,0.19031 1.10352,0.31836c0.36279,0.11738 0.6835,0.28465 0.96094,0.49805c0.2881,0.20273 0.51872,0.45316 0.68945,0.75195c0.17076,0.29876 0.25586,0.67098 0.25586,1.11914c0,0.53353 -0.1069,0.98785 -0.32031,1.36133c-0.21341,0.36279 -0.49748,0.66173 -0.84961,0.89648c-0.35213,0.22407 -0.76293,0.3894 -1.23243,0.4961c-0.4695,0.09603 -0.96047,0.14453 -1.47265,0.14453c-0.7256,0 -1.33833,-0.10691 -1.83985,-0.32032c-0.49084,-0.22408 -0.89668,-0.48143 -1.21679,-0.76953c-0.30945,-0.29877 -0.53316,-0.5908 -0.67188,-0.8789c-0.13868,-0.28811 -0.20898,-0.50687 -0.20898,-0.65625c0,-0.24542 0.08708,-0.44437 0.25781,-0.59375c0.1814,-0.16004 0.37343,-0.24024 0.57617,-0.24024c0.12805,0 0.24982,0.03858 0.36719,0.11328c0.1174,0.0747 0.20748,0.19152 0.27148,0.35157c0.1814,0.45883 0.47042,0.84289 0.86524,1.15234c0.40546,0.30944 0.98156,0.46484 1.7285,0.46484c0.34146,0 0.63544,-0.03858 0.88086,-0.11328c0.24542,-0.08535 0.44241,-0.19032 0.5918,-0.31836c0.16006,-0.13873 0.27686,-0.28916 0.35156,-0.44922c0.07468,-0.17071 0.11328,-0.34594 0.11328,-0.52734c0,-0.36279 -0.14549,-0.63501 -0.43359,-0.81641c-0.28811,-0.1814 -0.64544,-0.32687 -1.07226,-0.43359c-0.42683,-0.1067 -0.89603,-0.20171 -1.40821,-0.28711c-0.50152,-0.09605 -0.96576,-0.22966 -1.39258,-0.40039c-0.42682,-0.1814 -0.78416,-0.43184 -1.07226,-0.75195c-0.2881,-0.33079 -0.43164,-0.78512 -0.43164,-1.36133c0,-0.83231 0.30389,-1.48167 0.91211,-1.95117c0.60822,-0.46951 1.45653,-0.70508 2.54492,-0.70508zM432.80123,262.69097c0.60822,0 1.12097,0.06336 1.53711,0.1914c0.41616,0.12805 0.75863,0.29336 1.02539,0.4961c0.1067,0.08537 0.21856,0.19226 0.33594,0.32031c0.11738,0.11737 0.22923,0.25101 0.33594,0.40039c0.10673,0.13872 0.19186,0.2773 0.25586,0.41602c0.07473,0.13872 0.11133,0.26243 0.11133,0.36914c0,0.24542 -0.09505,0.44241 -0.28711,0.5918c-0.19208,0.13873 -0.40092,0.20703 -0.625,0.20703c-0.13872,0 -0.26739,-0.0317 -0.38477,-0.0957c-0.1174,-0.07469 -0.20748,-0.18655 -0.27148,-0.33593c-0.08536,-0.20274 -0.17549,-0.37796 -0.27149,-0.52735c-0.09604,-0.14938 -0.22471,-0.27314 -0.38476,-0.36914c-0.1494,-0.09605 -0.33647,-0.16433 -0.56055,-0.20703c-0.21341,-0.0534 -0.48562,-0.0801 -0.81641,-0.0801c-0.6509,0 -1.12505,0.1069 -1.42382,0.32031c-0.28811,0.20274 -0.43164,0.45814 -0.43164,0.76758c0,0.23475 0.08511,0.42678 0.25586,0.57617c0.17072,0.13872 0.39444,0.26245 0.67187,0.36915c0.28811,0.09604 0.61377,0.18115 0.97656,0.25585c0.3628,0.06402 0.73005,0.14424 1.10352,0.24024c0.37347,0.08535 0.74267,0.19031 1.10547,0.31836c0.3628,0.11738 0.68155,0.28465 0.95898,0.49805c0.28811,0.20273 0.51873,0.45316 0.68945,0.75195c0.17076,0.29876 0.25586,0.67098 0.25586,1.11914c0,0.53353 -0.1069,0.98785 -0.32031,1.36133c-0.21341,0.36279 -0.49553,0.66173 -0.84766,0.89648c-0.35211,0.22407 -0.76292,0.3894 -1.23242,0.4961c-0.4695,0.09603 -0.96047,0.14453 -1.47265,0.14453c-0.7256,0 -1.34027,-0.10691 -1.8418,-0.32032c-0.49084,-0.22408 -0.89472,-0.48143 -1.21484,-0.76953c-0.30943,-0.29877 -0.53511,-0.5908 -0.67383,-0.8789c-0.13872,-0.28811 -0.20702,-0.50687 -0.20702,-0.65625c0,-0.24542 0.08511,-0.44437 0.25585,-0.59375c0.1814,-0.16004 0.37343,-0.24024 0.57617,-0.24024c0.12804,0 0.24981,0.03858 0.36719,0.11328c0.11741,0.0747 0.20944,0.19152 0.27344,0.35157c0.18139,0.45883 0.46848,0.84289 0.86327,1.15234c0.40548,0.30944 0.98158,0.46484 1.72852,0.46484c0.34145,0 0.63543,-0.03858 0.88086,-0.11328c0.24542,-0.08535 0.44241,-0.19032 0.5918,-0.31836c0.16006,-0.13873 0.27881,-0.28916 0.35351,-0.44922c0.07473,-0.17071 0.11133,-0.34594 0.11133,-0.52734c0,-0.36279 -0.14353,-0.63501 -0.43164,-0.81641c-0.2881,-0.1814 -0.64544,-0.32687 -1.07227,-0.43359c-0.42682,-0.1067 -0.89797,-0.20171 -1.41015,-0.28711c-0.50151,-0.09605 -0.9638,-0.22966 -1.39063,-0.40039c-0.42682,-0.1814 -0.78611,-0.43184 -1.07422,-0.75195c-0.2881,-0.33079 -0.43164,-0.78512 -0.43164,-1.36133c0,-0.83231 0.30389,-1.48167 0.91211,-1.95117c0.60823,-0.46951 1.45653,-0.70508 2.54492,-0.70508zM370.26413,263.0601c0.16003,0.16005 0.24023,0.35704 0.24023,0.5918v0.28711c0.10671,-0.09604 0.23343,-0.2079 0.38281,-0.33594c0.16006,-0.13872 0.35405,-0.26739 0.57813,-0.38477c0.22408,-0.11737 0.47948,-0.21241 0.76757,-0.28711c0.29879,-0.0854 0.6393,-0.1289 1.02344,-0.1289c0.39481,0 0.77392,0.06035 1.13672,0.17773c0.37347,0.10671 0.70408,0.27201 0.99219,0.4961c0.28811,0.22408 0.51873,0.50124 0.68945,0.83203c0.17076,0.33078 0.25586,0.71485 0.25586,1.15234v5.76172c0,0.23475 -0.08513,0.43669 -0.25586,0.60742c-0.16006,0.16003 -0.35899,0.24023 -0.59375,0.24023c-0.23474,0 -0.43174,-0.08017 -0.59179,-0.24023c-0.16004,-0.17073 -0.24024,-0.37267 -0.24024,-0.60742v-5.57031c0,-0.23476 -0.05841,-0.4436 -0.17578,-0.625c-0.10671,-0.19207 -0.25024,-0.34551 -0.43164,-0.46289c-0.17073,-0.12807 -0.36772,-0.22507 -0.5918,-0.28907c-0.21341,-0.064 -0.42722,-0.0957 -0.64062,-0.0957c-0.35214,0 -0.67284,0.06336 -0.96094,0.19141c-0.28811,0.11738 -0.53359,0.28464 -0.73633,0.49804c-0.19207,0.21342 -0.34056,0.46881 -0.44726,0.76758c-0.10676,0.28811 -0.16016,0.60191 -0.16016,0.94336v4.64258c0,0.23475 -0.08018,0.43669 -0.24023,0.60742c-0.16006,0.16003 -0.35705,0.24023 -0.5918,0.24023c-0.23476,0 -0.43865,-0.08017 -0.60938,-0.24023c-0.16003,-0.17073 -0.24023,-0.37267 -0.24023,-0.60742v-7.57031c0,-0.23476 0.08017,-0.43175 0.24023,-0.5918c0.17073,-0.17071 0.37462,-0.25781 0.60938,-0.25781c0.23475,0 0.43174,0.08708 0.5918,0.25781zM381.20944,262.80234c0.6509,0 1.20028,0.10194 1.64843,0.30468c0.45885,0.20274 0.8429,0.43141 1.15235,0.6875v-0.14257c0,-0.23476 0.08018,-0.43175 0.24023,-0.5918c0.16006,-0.17071 0.35705,-0.25781 0.5918,-0.25781c0.23475,0 0.43369,0.08708 0.59375,0.25781c0.17076,0.16005 0.25586,0.35704 0.25586,0.5918v8.21093c0,0.53353 -0.11186,1.0176 -0.33594,1.45508c-0.2134,0.4375 -0.50738,0.81165 -0.88086,1.1211c-0.37346,0.32011 -0.81098,0.56559 -1.3125,0.73632c-0.50151,0.18139 -1.04097,0.27149 -1.61719,0.27149c-0.62955,0 -1.16707,-0.08018 -1.61523,-0.24024c-0.44817,-0.14938 -0.82232,-0.32955 -1.12109,-0.54296c-0.29878,-0.20274 -0.51753,-0.41655 -0.65625,-0.64063c-0.13869,-0.21341 -0.20899,-0.38367 -0.20899,-0.51172c0,-0.21341 0.07027,-0.40049 0.20899,-0.56055c0.13872,-0.16003 0.30402,-0.24023 0.49609,-0.24023c0.19207,0 0.38411,0.10195 0.57617,0.30469c0.13872,0.16006 0.2773,0.29863 0.41602,0.41601c0.13872,0.12804 0.29412,0.23492 0.46484,0.32032c0.1814,0.08538 0.38334,0.1487 0.60742,0.1914c0.23476,0.0427 0.51193,0.0644 0.83203,0.0644c0.34148,-0.00001 0.66217,-0.0435 0.96094,-0.1289c0.29878,-0.0747 0.56108,-0.20141 0.78516,-0.38281c0.22409,-0.17073 0.3993,-0.39639 0.52734,-0.67383c0.12801,-0.26676 0.19141,-0.58552 0.19141,-0.95899v-1.05664c-0.10671,0.11738 -0.24033,0.25101 -0.40039,0.40039c-0.16006,0.13872 -0.35209,0.27235 -0.57617,0.40039c-0.22408,0.12805 -0.48443,0.23994 -0.78321,0.33594c-0.29878,0.08535 -0.64621,0.12695 -1.04101,0.12695c-0.57621,0 -1.10877,-0.09008 -1.59961,-0.27148c-0.48018,-0.1814 -0.89592,-0.45856 -1.24805,-0.83203c-0.34146,-0.37347 -0.60871,-0.85453 -0.80078,-1.44141c-0.19206,-0.58688 -0.28906,-1.2798 -0.28906,-2.08008c0,-0.81096 0.1069,-1.50387 0.32031,-2.08007c0.21341,-0.58688 0.49553,-1.06794 0.84766,-1.44141c0.36279,-0.38414 0.78049,-0.66626 1.25,-0.84766c0.48017,-0.18143 0.986,-0.27343 1.51953,-0.27343zM419.12546,263.0601c0.16003,0.16005 0.24023,0.35704 0.24023,0.5918v7.57031c0,0.23475 -0.08018,0.43669 -0.24024,0.60742c-0.16005,0.16003 -0.35704,0.24023 -0.59179,0.24023c-0.23476,0 -0.43865,-0.08017 -0.60938,-0.24023c-0.16003,-0.17073 -0.24023,-0.37267 -0.24023,-0.60742v-7.57031c0,-0.23476 0.08017,-0.43175 0.24023,-0.5918c0.17073,-0.17071 0.37462,-0.25781 0.60938,-0.25781c0.23476,0 0.43174,0.08708 0.5918,0.25781zM422.06295,263.0601c0.16004,0.16005 0.24024,0.35704 0.24024,0.5918v0.28711c0.1067,-0.09604 0.23538,-0.2079 0.38476,-0.33594c0.16006,-0.13872 0.35209,-0.26739 0.57618,-0.38477c0.22406,-0.11737 0.47947,-0.21241 0.76757,-0.28711c0.29878,-0.0854 0.64125,-0.1289 1.02539,-0.1289c0.39481,0 0.77392,0.06035 1.13672,0.17773c0.37347,0.10671 0.70408,0.27201 0.99219,0.4961c0.28811,0.22408 0.51677,0.50124 0.6875,0.83203c0.17076,0.33078 0.25586,0.71485 0.25586,1.15234v5.76172c0,0.23475 -0.08513,0.43669 -0.25586,0.60742c-0.16006,0.16003 -0.35704,0.24023 -0.5918,0.24023c-0.23474,0 -0.43173,-0.08017 -0.59179,-0.24023c-0.16004,-0.17073 -0.24024,-0.37267 -0.24024,-0.60742v-5.57031c0,-0.23476 -0.05841,-0.4436 -0.17578,-0.625c-0.10671,-0.19207 -0.25024,-0.34551 -0.43164,-0.46289c-0.17073,-0.12807 -0.36967,-0.22507 -0.59375,-0.28907c-0.21341,-0.064 -0.42527,-0.0957 -0.63867,-0.0957c-0.35214,0 -0.67284,0.06336 -0.96094,0.19141c-0.28811,0.11738 -0.53359,0.28464 -0.73633,0.49804c-0.19206,0.21342 -0.34251,0.46881 -0.44922,0.76758c-0.10675,0.28811 -0.16015,0.60191 -0.16015,0.94336v4.64258c0,0.23475 -0.08018,0.43669 -0.24024,0.60742c-0.16005,0.16003 -0.35704,0.24023 -0.59179,0.24023c-0.23476,0 -0.4367,-0.08017 -0.60743,-0.24023c-0.16003,-0.17073 -0.24023,-0.37267 -0.24023,-0.60742v-7.57031c0,-0.23476 0.08017,-0.43175 0.24023,-0.5918c0.17073,-0.17071 0.37267,-0.25781 0.60743,-0.25781c0.23475,0 0.43174,0.08708 0.59179,0.25781zM391.01995,264.06791c-0.39481,0 -0.73036,0.0584 -1.00781,0.17578c-0.27742,0.11738 -0.51301,0.26587 -0.70508,0.44727c-0.1814,0.17073 -0.32493,0.36276 -0.43164,0.57617c-0.10672,0.21341 -0.18693,0.41235 -0.24023,0.59375c-0.0533,0.1814 -0.085,0.3398 -0.0957,0.47852c-0.0106,0.12801 -0.0156,0.20331 -0.0156,0.22461h5.18555c0,-0.33079 -0.05345,-0.64458 -0.16016,-0.94336c-0.10671,-0.29878 -0.27201,-0.56108 -0.49609,-0.78516c-0.21341,-0.23475 -0.49057,-0.42183 -0.83203,-0.56055c-0.34146,-0.13873 -0.74234,-0.20703 -1.20118,-0.20703zM379.54537,265.01127c-0.46949,0.55487 -0.70507,1.36653 -0.70507,2.43359c0,1.06705 0.23558,1.87873 0.70507,2.4336c0.4695,0.54419 1.11587,0.81445 1.9375,0.81445c0.82165,0 1.4611,-0.27026 1.91993,-0.81445c0.4695,-0.55487 0.70507,-1.36655 0.70507,-2.4336c0.00001,-1.06705 -0.23557,-1.87872 -0.70507,-2.43359c-0.45883,-0.55487 -1.09828,-0.83203 -1.91993,-0.83203c-0.82162,0 -1.468,0.27716 -1.9375,0.83203zM365.4946,267.58937c-0.20274,0.06407 -0.44131,0.11057 -0.71875,0.14257c-0.26676,0.03199 -0.55083,0.07059 -0.84961,0.11329c-0.2881,0.0427 -0.57022,0.09615 -0.84765,0.16015c-0.27744,0.06402 -0.52789,0.15906 -0.75195,0.28711c-0.22408,0.11738 -0.40622,0.27277 -0.54493,0.46484c-0.128,0.19207 -0.1914,0.43756 -0.1914,0.73633c0,0.23476 0.04852,0.43175 0.14452,0.5918c0.1067,0.14939 0.23838,0.27314 0.39844,0.36914c0.16005,0.08538 0.34217,0.14871 0.54492,0.19141c0.20274,0.032 0.40663,0.0469 0.60937,0.0469c0.30944,0 0.61829,-0.0317 0.92774,-0.0957c0.30944,-0.0747 0.58661,-0.1915 0.83203,-0.35156c0.25609,-0.16006 0.45803,-0.37387 0.60742,-0.64063c0.16003,-0.26677 0.24023,-0.59738 0.24023,-0.99219v-1.13671z" fill="#1eff00" stroke="none" stroke-width="1.00036" stroke-miterlimit="10" stroke-dashoffset="0"/></g></g></svg>