<svg version="1.1" xmlns="http://www.w3.org/2000/svg" xmlns:xlink="http://www.w3.org/1999/xlink" width="372.21484" height="68.64453"><g transform="translate(-53.89258,-145.67774)"><g data-paper-data="{&quot;isPaintingLayer&quot;:true}" fill-rule="nonzero" stroke-linecap="butt" stroke-linejoin="miter" stroke-dasharray="" style="mix-blend-mode: normal"><path d="M425.00977,146.42774c0.19313,0 0.34765,0.15648 0.34765,0.34961v66.44531c0,0.19313 -0.15452,0.34961 -0.34765,0.34961h-370.01758c-0.19313,0 -0.34961,-0.15648 -0.34961,-0.34961v-66.44531c0,-0.19313 0.15648,-0.34961 0.34961,-0.34961z" data-paper-data="{&quot;origPos&quot;:null}" id="rect815-0-2" fill="#1e1e1e" stroke="#1eff00" stroke-width="1.5" stroke-miterlimit="4" stroke-dashoffset="17.35"/><path d="M66.46485,151.59961c0.50134,0 0.97089,0.09706 1.4082,0.28906c0.448,0.192 0.83039,0.45254 1.15039,0.7832c0.33068,0.32 0.59316,0.70434 0.78516,1.15234c0.192,0.43734 0.28711,0.89997 0.28711,1.39062c0,0.288 -0.05357,0.5822 -0.16016,0.88086c-0.09608,0.29868 -0.24468,0.581 -0.44727,0.84766c-0.20266,0.256 -0.45824,0.47987 -0.76758,0.67187c-0.29866,0.19208 -0.65627,0.32581 -1.07227,0.40039c0.26673,0.064 0.50054,0.1661 0.70312,0.30469c0.20276,0.13873 0.37509,0.29231 0.51367,0.46289c0.14942,0.17068 0.26135,0.35292 0.33594,0.54492c0.08642,0.18132 0.13804,0.35172 0.1582,0.51172l0.35351,3.35937c0.02117,0.25592 -0.05403,0.49166 -0.22461,0.70508c-0.17066,0.21342 -0.40639,0.32031 -0.70508,0.32031c-0.26658,0 -0.49046,-0.08023 -0.67187,-0.24023c-0.18242,-0.16 -0.28258,-0.369 -0.30273,-0.625l-0.24023,-2.73633c-0.032,-0.33068 -0.11728,-0.60803 -0.25586,-0.83203c-0.12792,-0.23473 -0.2983,-0.42001 -0.51172,-0.55859c-0.20266,-0.13858 -0.43345,-0.24069 -0.68945,-0.30469c-0.256,-0.064 -0.52149,-0.0957 -0.79883,-0.0957h-3.56836v4.44727c0,0.256 -0.09007,0.47987 -0.27148,0.67187c-0.18134,0.18142 -0.40522,0.27344 -0.67187,0.27344c-0.256,0 -0.47987,-0.09202 -0.67187,-0.27344c-0.18142,-0.192 -0.27344,-0.41587 -0.27344,-0.67187v-10.43164c0,-0.34127 0.12372,-0.63349 0.36914,-0.87891c0.24534,-0.24542 0.54448,-0.36914 0.89648,-0.36914zM90.98438,151.83985c0.16,0.16007 0.23828,0.35721 0.23828,0.5918v6.11133l3.92187,-3.40625c0.14924,-0.11742 0.31272,-0.17773 0.49414,-0.17773c0.17068,0 0.33609,0.06536 0.49609,0.19336c0.16,0.12807 0.24023,0.30839 0.24023,0.54297c0,0.21324 -0.08528,0.3955 -0.25586,0.54492l-2.44726,2.11133l3.23242,4.57617c0.096,0.14942 0.14258,0.30989 0.14258,0.48047c0,0.14942 -0.02666,0.27623 -0.08008,0.38281c-0.05317,0.096 -0.12161,0.17623 -0.20703,0.24023c-0.08542,0.064 -0.17548,0.11253 -0.27148,0.14453c-0.096,0.032 -0.18802,0.04883 -0.27344,0.04883c-0.13858,0 -0.2654,-0.02666 -0.38281,-0.08008c-0.11716,-0.05316 -0.21927,-0.13844 -0.30469,-0.25586l-3.07227,-4.44922l-1.23242,1.05664v2.87891c0,0.23476 -0.07828,0.43879 -0.23828,0.60937c-0.16008,0.16 -0.35721,0.24023 -0.5918,0.24023c-0.23476,0 -0.43879,-0.08023 -0.60937,-0.24023c-0.16,-0.17076 -0.24023,-0.37479 -0.24023,-0.60937v-10.94336c0,-0.23466 0.08023,-0.4318 0.24023,-0.5918c0.17076,-0.16 0.37479,-0.24023 0.60937,-0.24023c0.23466,0 0.4318,0.08023 0.5918,0.24023zM103.94141,151.8711c0.18142,0.18134 0.27148,0.40522 0.27148,0.67187v10.73633c0,0.256 -0.09007,0.47987 -0.27148,0.67187c-0.18132,0.18142 -0.40519,0.27344 -0.67187,0.27344c-0.256,0 -0.47987,-0.09202 -0.67187,-0.27344c-0.18142,-0.192 -0.27344,-0.41587 -0.27344,-0.67187v-10.73633c0,-0.26658 0.09202,-0.49046 0.27344,-0.67187c0.192,-0.18142 0.41587,-0.27148 0.67187,-0.27148c0.26658,0 0.49046,0.09007 0.67187,0.27148zM108.03516,152.57617c0.17058,0.16007 0.25586,0.35721 0.25586,0.5918v2h0.88086c0.20276,0 0.37314,0.07519 0.51172,0.22461c0.14942,0.13873 0.22461,0.30914 0.22461,0.51172c0,0.21342 -0.07519,0.38876 -0.22461,0.52734c-0.13876,0.13858 -0.30914,0.20898 -0.51172,0.20898h-0.88086v6.73437c0,0.23476 -0.08528,0.43879 -0.25586,0.60937c-0.16007,0.16 -0.35721,0.24023 -0.5918,0.24023c-0.23466,0 -0.4318,-0.08023 -0.5918,-0.24023c-0.16,-0.17076 -0.24023,-0.37479 -0.24023,-0.60937v-6.73437h-0.5918c-0.20258,0 -0.37793,-0.0704 -0.52734,-0.20898c-0.13858,-0.13858 -0.20898,-0.31393 -0.20898,-0.52734c0,-0.20273 0.0704,-0.37314 0.20898,-0.51172c0.14942,-0.14942 0.32476,-0.22461 0.52734,-0.22461h0.5918v-2c0,-0.23466 0.08023,-0.4318 0.24023,-0.5918c0.16008,-0.16 0.35721,-0.24023 0.5918,-0.24023c0.23466,0 0.4318,0.08023 0.5918,0.24023zM61.74414,157.15235h4.51172c0.26673,0 0.51737,-0.04853 0.75195,-0.14453c0.23476,-0.10673 0.43684,-0.24543 0.60742,-0.41601c0.18134,-0.18142 0.32002,-0.39042 0.41602,-0.625c0.10658,-0.23468 0.16016,-0.48529 0.16016,-0.75195c0,-0.26676 -0.05357,-0.51737 -0.16016,-0.75195c-0.09592,-0.23473 -0.2346,-0.43684 -0.41602,-0.60742c-0.17076,-0.18134 -0.37284,-0.32002 -0.60742,-0.41602c-0.23466,-0.10658 -0.48529,-0.16016 -0.75195,-0.16016h-4.51172zM77.00586,155.16797c0.544,0.21334 1.01354,0.52242 1.4082,0.92773c0.39466,0.40534 0.70373,0.90162 0.92773,1.48828c0.224,0.58668 0.33594,1.25831 0.33594,2.01562c0,0.75734 -0.11194,1.42897 -0.33594,2.01562c-0.224,0.58668 -0.53308,1.08296 -0.92773,1.48828c-0.39466,0.39458 -0.8642,0.69869 -1.4082,0.91211c-0.53334,0.21342 -1.1148,0.32031 -1.74414,0.32031c-0.62932,0 -1.21577,-0.1069 -1.75977,-0.32031c-0.53334,-0.21332 -0.99597,-0.51743 -1.39062,-0.91211c-0.39468,-0.40532 -0.70569,-0.9016 -0.92969,-1.48828c-0.224,-0.58666 -0.33594,-1.25828 -0.33594,-2.01562c0,-0.75732 0.11194,-1.42894 0.33594,-2.01562c0.224,-0.58666 0.535,-1.08294 0.92969,-1.48828c0.39466,-0.40524 0.85728,-0.71432 1.39062,-0.92773c0.544,-0.21342 1.13045,-0.32031 1.75977,-0.32031c0.62934,0 1.2108,0.10689 1.74414,0.32031zM86.39453,155.13477c0.46934,0.18134 0.85369,0.40025 1.15234,0.65625c0.30927,0.256 0.53808,0.52344 0.6875,0.80078c0.14942,0.27732 0.22461,0.51112 0.22461,0.70312c0,0.24542 -0.08528,0.43759 -0.25586,0.57617c-0.17058,0.128 -0.36275,0.19141 -0.57617,0.19141c-0.14934,0 -0.28802,-0.03674 -0.41602,-0.11133c-0.128,-0.07458 -0.21807,-0.20335 -0.27148,-0.38477c-0.05342,-0.17066 -0.14544,-0.33609 -0.27344,-0.49609c-0.11734,-0.16 -0.27089,-0.30364 -0.46289,-0.43164c-0.18132,-0.128 -0.40025,-0.22815 -0.65625,-0.30273c-0.24534,-0.07458 -0.51775,-0.11328 -0.81641,-0.11328c-0.33068,0 -0.66153,0.06536 -0.99219,0.19336c-0.32,0.11734 -0.61225,0.30951 -0.87891,0.57617c-0.256,0.26666 -0.465,0.61734 -0.625,1.05469c-0.16,0.42666 -0.24023,0.94473 -0.24023,1.55273c0,0.608 0.08023,1.1241 0.24023,1.55078c0.16,0.42666 0.369,0.77436 0.625,1.04101c0.26666,0.26668 0.55891,0.4638 0.87891,0.5918c0.33066,0.11742 0.6615,0.17578 0.99219,0.17578c0.29858,0 0.57099,-0.03674 0.81641,-0.11133c0.2559,-0.07458 0.47483,-0.17669 0.65625,-0.30469c0.19192,-0.128 0.34547,-0.27164 0.46289,-0.43164c0.128,-0.1601 0.22002,-0.32551 0.27344,-0.49609c0.05342,-0.18142 0.14348,-0.30823 0.27148,-0.38281c0.12792,-0.07458 0.2666,-0.11328 0.41602,-0.11328c0.21342,0 0.40559,0.0704 0.57617,0.20898c0.18142,0.1281 0.27148,0.30839 0.27148,0.54297c0,0.11732 -0.05357,0.31445 -0.16016,0.5918c-0.10666,0.26666 -0.29883,0.53906 -0.57617,0.81641c-0.27732,0.27724 -0.65971,0.52291 -1.15039,0.73633c-0.48,0.21342 -1.1001,0.32031 -1.85742,0.32031v-0.00195c-0.62934,0 -1.21577,-0.11194 -1.75977,-0.33594c-0.53334,-0.23466 -0.99792,-0.55861 -1.39258,-0.97461c-0.39466,-0.416 -0.70373,-0.91228 -0.92773,-1.48828c-0.224,-0.58668 -0.33594,-1.23155 -0.33594,-1.93555c0,-0.71466 0.11194,-1.3615 0.33594,-1.9375c0.224,-0.58666 0.53308,-1.08791 0.92773,-1.50391c0.39466,-0.416 0.85924,-0.73498 1.39258,-0.95898c0.544,-0.23458 1.13042,-0.35156 1.75977,-0.35156c0.64,0 1.19475,0.09511 1.66406,0.28711zM74.15821,156.43164c-0.33058,0.128 -0.61786,0.33008 -0.86328,0.60742c-0.23473,0.26666 -0.42196,0.61433 -0.56055,1.04102c-0.13858,0.42666 -0.20703,0.93287 -0.20703,1.51953c0,0.58668 0.06845,1.09287 0.20703,1.51953c0.13873,0.416 0.32596,0.76367 0.56055,1.04101c0.24534,0.26673 0.53262,0.46884 0.86328,0.60742c0.34134,0.128 0.70886,0.19141 1.10352,0.19141c0.39468,0 0.75723,-0.06341 1.08789,-0.19141c0.34142,-0.13866 0.63065,-0.34076 0.86523,-0.60742c0.24542,-0.27734 0.43759,-0.62501 0.57617,-1.04101c0.13858,-0.42666 0.20703,-0.93285 0.20703,-1.51953c0,-0.58666 -0.06845,-1.09287 -0.20703,-1.51953c-0.13858,-0.42668 -0.33075,-0.77436 -0.57617,-1.04102c-0.23466,-0.27734 -0.52389,-0.47942 -0.86523,-0.60742c-0.33066,-0.13858 -0.69321,-0.20703 -1.08789,-0.20703c-0.39466,0 -0.76217,0.06845 -1.10352,0.20703zM65.76758,169.00977c0.40451,0 0.79134,0.06983 1.1582,0.21094c0.37629,0.1316 0.70412,0.31979 0.98633,0.56445c0.28223,0.23519 0.50841,0.51646 0.67773,0.8457c0.16932,0.32925 0.25391,0.6823 0.25391,1.05859c0,0.39509 -0.05509,0.72915 -0.16797,1.00195c-0.10348,0.27291 -0.24083,0.49909 -0.41016,0.67773c-0.16925,0.17875 -0.36168,0.32462 -0.57812,0.4375c-0.21629,0.10356 -0.43395,0.19659 -0.65039,0.28125c0.16942,0.05644 0.37234,0.15142 0.60742,0.2832c0.24459,0.12228 0.47931,0.29572 0.70508,0.52148c0.22569,0.22579 0.42008,0.51753 0.58008,0.875c0.16,0.34807 0.23828,0.77719 0.23828,1.28516c0,0.46095 -0.09303,0.87957 -0.28125,1.25586c-0.18814,0.37629 -0.43762,0.69985 -0.74805,0.97266c-0.31045,0.27288 -0.67203,0.48434 -1.08594,0.63477c-0.40451,0.15042 -0.83363,0.22656 -1.28516,0.22656h-4.31836c-0.13163,0 -0.26275,-0.0191 -0.39453,-0.05664c-0.13178,-0.04712 -0.2543,-0.1126 -0.36719,-0.19727c-0.10356,-0.09398 -0.18814,-0.21241 -0.25391,-0.35352c-0.06576,-0.14113 -0.09766,-0.31027 -0.09766,-0.50781v-8.91797c0,-0.08466 0.0128,-0.18834 0.04102,-0.31055c0.02822,-0.13178 0.08091,-0.2543 0.15625,-0.36719c0.08466,-0.1222 0.19679,-0.21958 0.33789,-0.29492c0.15053,-0.08466 0.33869,-0.12695 0.56445,-0.12695zM88.41407,169.30469c0.20687,0.19754 0.31055,0.4385 0.31055,0.7207c0,0.28223 -0.10368,0.52121 -0.31055,0.71875c-0.19754,0.19754 -0.4385,0.29687 -0.7207,0.29687c-0.27291,0 -0.51188,-0.09933 -0.71875,-0.29687c-0.19754,-0.19754 -0.29687,-0.43652 -0.29687,-0.71875c0,-0.2822 0.09933,-0.52316 0.29687,-0.7207c0.20697,-0.19754 0.44594,-0.29492 0.71875,-0.29492c0.2822,0 0.52316,0.09738 0.7207,0.29492zM62.49414,173.45313h2.89258c0.17867,0 0.34781,-0.03189 0.50781,-0.09766c0.15992,-0.06576 0.29727,-0.15665 0.41016,-0.26953c0.12246,-0.1222 0.21549,-0.26187 0.28125,-0.42188c0.06576,-0.16002 0.09961,-0.32917 0.09961,-0.50781c0,-0.17865 -0.03385,-0.34781 -0.09961,-0.50781c-0.06601,-0.15992 -0.15904,-0.29727 -0.28125,-0.41016c-0.11281,-0.12246 -0.25016,-0.21744 -0.41016,-0.2832c-0.16002,-0.06576 -0.32917,-0.09766 -0.50781,-0.09766h-2.89258zM75.29493,172.33985c0.46093,0.23516 0.83728,0.53118 1.12891,0.88867c0.30103,0.35747 0.52296,0.74234 0.66406,1.15625c0.1411,0.41391 0.21094,0.79451 0.21094,1.14258c0,0.32917 -0.06139,0.60192 -0.18359,0.81836c-0.12238,0.21644 -0.30007,0.32617 -0.53516,0.32617l-4.51562,-0.00195c-0.10356,0 -0.18379,0.03794 -0.24023,0.11328c-0.04712,0.06576 -0.07031,0.15665 -0.07031,0.26953c0,0.14103 0.04229,0.30397 0.12695,0.49219c0.08466,0.17875 0.21154,0.35411 0.38086,0.52344c0.16925,0.16932 0.37643,0.30899 0.62109,0.42187c0.25401,0.11288 0.54575,0.16992 0.875,0.16992c0.19764,0 0.37106,-0.0191 0.52148,-0.05664c0.15042,-0.04712 0.29205,-0.1126 0.42383,-0.19727c0.13178,-0.08466 0.25865,-0.19244 0.38086,-0.32422c0.13163,-0.14103 0.2775,-0.30592 0.4375,-0.49414c0.1412,-0.16932 0.30182,-0.25391 0.48047,-0.25391c0.11288,0 0.22501,0.02754 0.33789,0.08398c0.11288,0.05644 0.21221,0.13258 0.29687,0.22656c0.08466,0.09424 0.1545,0.20201 0.21094,0.32422c0.05644,0.11288 0.08594,0.23131 0.08594,0.35352c0,0.1223 -0.06744,0.29572 -0.19922,0.52148c-0.12231,0.21636 -0.31474,0.4383 -0.57812,0.66406c-0.26341,0.21637 -0.59317,0.4088 -0.98828,0.57813c-0.39509,0.16 -0.86454,0.24023 -1.41016,0.24023c-0.62087,0 -1.17684,-0.11408 -1.66601,-0.33984c-0.48917,-0.22576 -0.90159,-0.52605 -1.24023,-0.90234c-0.32935,-0.38569 -0.58307,-0.82758 -0.76172,-1.32617c-0.16932,-0.50797 -0.25391,-1.04494 -0.25391,-1.60937c0,-0.56443 0.07418,-1.09518 0.22461,-1.59375c0.15992,-0.50799 0.40085,-0.94991 0.7207,-1.32617c0.31985,-0.38571 0.71947,-0.6922 1.19922,-0.91797c0.47977,-0.22576 1.04426,-0.33789 1.69336,-0.33789c0.63027,0 1.16954,0.12253 1.62109,0.36719zM82.49805,172.11328c0.25398,0.08466 0.46544,0.18399 0.63476,0.29687c0.17875,0.11288 0.32462,0.22501 0.4375,0.33789l0.24023,0.24023c0,-0.30113 0.08893,-0.52731 0.26758,-0.67773c0.18814,-0.16 0.4081,-0.24023 0.66211,-0.24023c0.25408,0 0.47174,0.08893 0.65039,0.26758c0.18822,0.17872 0.28125,0.39638 0.28125,0.65039v7.15234c0,0.48917 -0.11213,0.91829 -0.33789,1.28516c-0.21636,0.37621 -0.50386,0.68698 -0.86133,0.93164c-0.34807,0.25408 -0.74769,0.44225 -1.19922,0.56445c-0.45155,0.13178 -0.90819,0.19727 -1.36914,0.19727c-0.32925,0 -0.64001,-0.0191 -0.93164,-0.05664c-0.2916,-0.03754 -0.56862,-0.10738 -0.83203,-0.21094c-0.25398,-0.09416 -0.49299,-0.23151 -0.71875,-0.41016c-0.21629,-0.17875 -0.4192,-0.4092 -0.60742,-0.69141c-0.1222,-0.18814 -0.18359,-0.38058 -0.18359,-0.57812c0,-0.25408 0.08458,-0.46979 0.25391,-0.64844c0.17885,-0.16932 0.38601,-0.25391 0.62109,-0.25391c0.21637,0 0.38126,0.06139 0.49414,0.18359c0.12228,0.12231 0.25343,0.25343 0.39453,0.39453c0.14103,0.1506 0.32067,0.286 0.53711,0.4082c0.22579,0.1222 0.54935,0.18359 0.97266,0.18359c0.42333,0 0.76359,-0.06139 1.01758,-0.18359c0.25391,-0.11288 0.44634,-0.2673 0.57812,-0.46484c0.13178,-0.18814 0.21636,-0.41005 0.25391,-0.66406c0.03754,-0.25398 0.05664,-0.52053 0.05664,-0.80273v-0.49414c-0.07534,0.10356 -0.17032,0.21134 -0.2832,0.32422c-0.10348,0.10356 -0.23888,0.20289 -0.4082,0.29687c-0.16925,0.09424 -0.37643,0.17447 -0.62109,0.24023c-0.24459,0.05644 -0.53633,0.08398 -0.875,0.08398c-0.55501,0 -1.06871,-0.10368 -1.53906,-0.31055c-0.46095,-0.20694 -0.8563,-0.49016 -1.18555,-0.84766c-0.32917,-0.35747 -0.58717,-0.76988 -0.77539,-1.24023c-0.17865,-0.47977 -0.26758,-0.98297 -0.26758,-1.50976c0,-0.52679 0.08893,-1.02574 0.26758,-1.49609c0.18814,-0.47037 0.44614,-0.88472 0.77539,-1.24219c0.32925,-0.35757 0.7246,-0.63884 1.18555,-0.8457c0.47035,-0.20687 0.98405,-0.31055 1.53906,-0.31055c0.32925,0 0.62099,0.04664 0.875,0.14062zM91.47461,172.2832c0.19754,0.19757 0.29687,0.43227 0.29687,0.70508c0.08466,-0.09424 0.19874,-0.20201 0.33984,-0.32422c0.1411,-0.12246 0.31027,-0.23023 0.50781,-0.32422c0.19757,-0.10356 0.4218,-0.18814 0.67578,-0.25391c0.25398,-0.07534 0.54148,-0.11328 0.86133,-0.11328c0.35747,0 0.69578,0.06139 1.01562,0.18359c0.31992,0.12223 0.5989,0.29137 0.83398,0.50781c0.24451,0.21637 0.43267,0.47864 0.56445,0.78906c0.1411,0.30103 0.21094,0.63933 0.21094,1.01562v4.6582c0,0.27291 -0.09933,0.51188 -0.29687,0.71875c-0.19754,0.19754 -0.43652,0.29687 -0.71875,0.29687c-0.28228,0 -0.52751,-0.09933 -0.73437,-0.29687c-0.19754,-0.20697 -0.29687,-0.44594 -0.29687,-0.71875v-3.97851c0,-0.20707 -0.04229,-0.40143 -0.12695,-0.58008c-0.07509,-0.17864 -0.17681,-0.33306 -0.30859,-0.46484c-0.1318,-0.13153 -0.28815,-0.23521 -0.4668,-0.31055c-0.17882,-0.08466 -0.37126,-0.12695 -0.57812,-0.12695c-0.19747,0 -0.3899,0.04229 -0.57812,0.12695c-0.17867,0.07509 -0.33502,0.17877 -0.4668,0.31055c-0.13178,0.13178 -0.23956,0.2862 -0.32422,0.46484c-0.07534,0.17885 -0.11328,0.37321 -0.11328,0.58008v3.97851c0,0.27291 -0.09933,0.51188 -0.29687,0.71875c-0.19757,0.19754 -0.43654,0.29687 -0.71875,0.29687c-0.2823,0 -0.52751,-0.09933 -0.73437,-0.29687c-0.19754,-0.20697 -0.29492,-0.44594 -0.29492,-0.71875v-6.13867c0,-0.27283 0.09738,-0.50753 0.29492,-0.70508c0.20697,-0.20687 0.45217,-0.31055 0.73437,-0.31055c0.28223,0 0.52121,0.10368 0.71875,0.31055zM99.63282,172.2832c0.19754,0.19757 0.29687,0.43227 0.29687,0.70508c0.08466,-0.09424 0.19679,-0.20201 0.33789,-0.32422c0.14113,-0.12246 0.31027,-0.23023 0.50781,-0.32422c0.19754,-0.10356 0.42375,-0.18814 0.67773,-0.25391c0.25401,-0.07534 0.5415,-0.11328 0.86133,-0.11328c0.35747,0 0.69578,0.06139 1.01562,0.18359c0.31995,0.12223 0.59694,0.29137 0.83203,0.50781c0.24448,0.21637 0.43267,0.47864 0.56445,0.78906c0.1411,0.30103 0.21289,0.63933 0.21289,1.01562v4.6582c0,0.27291 -0.09933,0.51188 -0.29687,0.71875c-0.19754,0.19754 -0.43654,0.29687 -0.71875,0.29687c-0.28231,0 -0.52751,-0.09933 -0.73437,-0.29687c-0.19754,-0.20697 -0.29687,-0.44594 -0.29687,-0.71875v-3.97851c0,-0.20707 -0.04229,-0.40143 -0.12695,-0.58008c-0.07509,-0.17864 -0.17877,-0.33306 -0.31055,-0.46484c-0.1318,-0.13153 -0.2862,-0.23521 -0.46484,-0.31055c-0.17882,-0.08466 -0.37126,-0.12695 -0.57812,-0.12695c-0.19747,0 -0.39186,0.04229 -0.58008,0.12695c-0.17865,0.07509 -0.33306,0.17877 -0.46484,0.31055c-0.13178,0.13178 -0.23956,0.2862 -0.32422,0.46484c-0.07534,0.17885 -0.11328,0.37321 -0.11328,0.58008v3.97851c0,0.27291 -0.09933,0.51188 -0.29687,0.71875c-0.19757,0.19754 -0.43654,0.29687 -0.71875,0.29687c-0.2823,0 -0.52751,-0.09933 -0.73437,-0.29687c-0.19754,-0.20697 -0.29687,-0.44594 -0.29687,-0.71875v-6.13867c0,-0.27283 0.09933,-0.50753 0.29687,-0.70508c0.20697,-0.20687 0.45217,-0.31055 0.73437,-0.31055c0.28223,0 0.52121,0.10368 0.71875,0.31055zM111.23438,172.33985c0.46095,0.23516 0.83728,0.53118 1.12891,0.88867c0.30103,0.35747 0.52101,0.74234 0.66211,1.15625c0.1411,0.41391 0.21289,0.79451 0.21289,1.14258c0,0.32917 -0.06139,0.60192 -0.18359,0.81836c-0.12238,0.21644 -0.30202,0.32617 -0.53711,0.32617l-4.51367,-0.00195c-0.10356,0 -0.18379,0.03794 -0.24023,0.11328c-0.04712,0.06576 -0.07031,0.15665 -0.07031,0.26953c0,0.14103 0.04229,0.30397 0.12695,0.49219c0.08466,0.17875 0.21154,0.35411 0.38086,0.52344c0.16925,0.16932 0.37448,0.30899 0.61914,0.42187c0.25398,0.11288 0.54573,0.16992 0.875,0.16992c0.19762,0 0.37301,-0.0191 0.52344,-0.05664c0.15045,-0.04712 0.29009,-0.1126 0.42187,-0.19727c0.13178,-0.08466 0.26061,-0.19244 0.38281,-0.32422c0.13163,-0.14103 0.27555,-0.30592 0.43555,-0.49414c0.14118,-0.16932 0.30182,-0.25391 0.48047,-0.25391c0.11288,0 0.22696,0.02754 0.33984,0.08398c0.11288,0.05644 0.21026,0.13258 0.29492,0.22656c0.08466,0.09424 0.15645,0.20201 0.21289,0.32422c0.05644,0.11288 0.08398,0.23131 0.08398,0.35352c0,0.1223 -0.06549,0.29572 -0.19727,0.52148c-0.12228,0.21636 -0.31472,0.4383 -0.57812,0.66406c-0.26338,0.21637 -0.59317,0.4088 -0.98828,0.57813c-0.39509,0.16 -0.8665,0.24023 -1.41211,0.24023c-0.62087,0 -1.17489,-0.11408 -1.66406,-0.33984c-0.48917,-0.22576 -0.90352,-0.52605 -1.24219,-0.90234c-0.32932,-0.38569 -0.58307,-0.82758 -0.76172,-1.32617c-0.16932,-0.50797 -0.25391,-1.04494 -0.25391,-1.60937c0,-0.56443 0.07418,-1.09518 0.22461,-1.59375c0.15992,-0.50799 0.40085,-0.94991 0.7207,-1.32617c0.31982,-0.38571 0.71944,-0.6922 1.19922,-0.91797c0.47977,-0.22576 1.04429,-0.33789 1.69336,-0.33789c0.6303,0 1.17152,0.12253 1.62305,0.36719zM115.81055,172.2832c0.19754,0.19757 0.29687,0.43227 0.29687,0.70508c0.08466,-0.09424 0.18834,-0.20201 0.31055,-0.32422c0.13178,-0.12246 0.2734,-0.23023 0.42383,-0.32422c0.15995,-0.10356 0.32482,-0.18814 0.49414,-0.25391c0.16932,-0.07534 0.33849,-0.11328 0.50781,-0.11328c0.37622,0 0.62994,0.09738 0.76172,0.29492c0.1411,0.19754 0.21094,0.428 0.21094,0.69141c0,0.21637 -0.05074,0.38126 -0.1543,0.49414c-0.09423,0.10356 -0.21676,0.18379 -0.36719,0.24023c-0.1411,0.05644 -0.29747,0.10308 -0.46679,0.14062c-0.16943,0.02822 -0.32809,0.07051 -0.47852,0.12695v0.00195c-0.2728,0.10348 -0.49474,0.23888 -0.66406,0.4082c-0.16,0.15982 -0.28253,0.33326 -0.36719,0.52148c-0.08466,0.17867 -0.13975,0.36256 -0.16797,0.55078c-0.02822,0.18807 -0.04297,0.36344 -0.04297,0.52344v3.16016c0,0.28223 -0.10368,0.52121 -0.31055,0.71875c-0.19754,0.19754 -0.43652,0.29687 -0.71875,0.29687c-0.27288,0 -0.51384,-0.09933 -0.7207,-0.29687c-0.19754,-0.20697 -0.29492,-0.44594 -0.29492,-0.71875v-6.13867c0,-0.27283 0.09738,-0.50753 0.29492,-0.70508c0.20694,-0.20687 0.45214,-0.31055 0.73437,-0.31055c0.2822,0 0.52121,0.10368 0.71875,0.31055zM88.41407,172.4668c0.20687,0.19754 0.31055,0.43652 0.31055,0.71875v5.94141c0,0.28223 -0.10368,0.52121 -0.31055,0.71875c-0.19754,0.19754 -0.4385,0.29687 -0.7207,0.29687c-0.28223,0 -0.52121,-0.09933 -0.71875,-0.29687c-0.19754,-0.20697 -0.29687,-0.44594 -0.29687,-0.71875v-5.94141c0,-0.28223 0.09933,-0.52121 0.29687,-0.71875c0.20697,-0.20687 0.44594,-0.31055 0.71875,-0.31055c0.2822,0 0.52316,0.10368 0.7207,0.31055zM72.85547,173.79297c-0.22586,0.09424 -0.41403,0.21481 -0.56445,0.36523c-0.1411,0.14103 -0.24888,0.29312 -0.32422,0.45312c-0.07534,0.16002 -0.11328,0.29967 -0.11328,0.42187c0,0.18822 0.06983,0.2832 0.21094,0.2832h3.2168c0.1222,0 0.18359,-0.08893 0.18359,-0.26758c0,-0.1222 -0.03794,-0.26383 -0.11328,-0.42383c-0.06601,-0.15992 -0.17379,-0.31007 -0.32422,-0.45117c-0.1411,-0.15045 -0.32502,-0.2773 -0.55078,-0.38086c-0.22579,-0.10356 -0.49231,-0.15625 -0.80273,-0.15625c-0.31053,0 -0.58327,0.05269 -0.81836,0.15625zM80.94532,173.79297c-0.25391,0.10348 -0.47584,0.25363 -0.66406,0.45117c-0.18814,0.18814 -0.33829,0.42285 -0.45117,0.70508c-0.10356,0.27281 -0.1543,0.57932 -0.1543,0.91797c0,0.33867 0.05074,0.64748 0.1543,0.92969c0.11281,0.27281 0.26295,0.50949 0.45117,0.70703c0.18812,0.18807 0.41005,0.33394 0.66406,0.4375c0.26338,0.10356 0.54465,0.1543 0.8457,0.1543c0.30103,0 0.58,-0.05509 0.83398,-0.16797c0.26331,-0.1223 0.48756,-0.28292 0.67578,-0.48047c0.18807,-0.20697 0.33394,-0.4417 0.4375,-0.70508c0.11288,-0.27281 0.16992,-0.56455 0.16992,-0.875c0,-0.2822 -0.05074,-0.55495 -0.1543,-0.81836c-0.10341,-0.27288 -0.24928,-0.51384 -0.4375,-0.7207c-0.18814,-0.20707 -0.41433,-0.37194 -0.67773,-0.49414c-0.25398,-0.13178 -0.53723,-0.19726 -0.84766,-0.19726c-0.30105,0 -0.58232,0.05269 -0.8457,0.15625zM108.79297,173.79297c-0.22584,0.09424 -0.41403,0.21481 -0.56445,0.36523c-0.1411,0.14103 -0.24888,0.29312 -0.32422,0.45312c-0.07534,0.16002 -0.11328,0.29967 -0.11328,0.42187c0,0.18822 0.07179,0.2832 0.21289,0.2832h3.2168c0.1222,0 0.18359,-0.08893 0.18359,-0.26758c0,-0.1222 -0.03794,-0.26383 -0.11328,-0.42383c-0.06602,-0.15992 -0.17379,-0.31007 -0.32422,-0.45117c-0.14113,-0.15045 -0.32502,-0.2773 -0.55078,-0.38086c-0.22576,-0.10356 -0.49424,-0.15625 -0.80469,-0.15625c-0.31053,0 -0.58327,0.05269 -0.81836,0.15625zM62.49414,178.2793h2.94922c0.21629,0 0.4192,-0.04229 0.60742,-0.12695c0.19754,-0.08466 0.36671,-0.19679 0.50781,-0.33789c0.1411,-0.14103 0.25323,-0.30592 0.33789,-0.49414c0.08466,-0.18807 0.12695,-0.39098 0.12695,-0.60742c0,-0.21629 -0.04229,-0.41725 -0.12695,-0.60547c-0.08466,-0.19754 -0.19679,-0.36866 -0.33789,-0.50977c-0.1411,-0.1411 -0.31027,-0.25323 -0.50781,-0.33789c-0.18807,-0.08466 -0.39098,-0.12695 -0.60742,-0.12695h-2.94922z" data-paper-data="{&quot;origPos&quot;:null}" id="path1714" fill="#1eff00" stroke="none" stroke-width="1" stroke-miterlimit="10" stroke-dashoffset="0"/><path d="M69.10211,187.56443c1.27593,0 2.33409,4.30813 3.36631,5.0581c1.03226,0.74997 5.4565,0.42505 5.85082,1.63854c0.39428,1.21349 -3.37603,3.55109 -3.77031,4.76459c-0.39428,1.21349 1.2819,5.32082 0.24983,6.07079c-1.03226,0.74997 -4.42057,-2.11344 -5.6965,-2.11344c-1.27593,0 -4.66424,2.86341 -5.6965,2.11344c-1.03226,-0.74997 0.64396,-4.8573 0.24983,-6.07079c-0.39428,-1.21349 -4.16459,-3.55109 -3.77031,-4.76459c0.39428,-1.21349 4.81856,-0.88857 5.85082,-1.63854c1.03223,-0.74997 2.09038,-5.0581 3.36631,-5.0581z" data-paper-data="{&quot;origPos&quot;:null}" id="path1428-5-4" fill="#1eff00" stroke="none" stroke-width="0.88188" stroke-miterlimit="4" stroke-dashoffset="17.35"/><path d="M92.03908,194.00932c0.34431,0 0.6302,1.16319 0.9089,1.36569c0.27855,0.20258 1.47326,0.1149 1.57973,0.44239c0.10658,0.32769 -0.91155,0.95879 -1.01798,1.28644c-0.10658,0.32769 0.3462,1.4366 0.06728,1.63911c-0.27855,0.20258 -1.19354,-0.57063 -1.53804,-0.57063c-0.34431,0 -1.25934,0.77314 -1.53804,0.57063c-0.27893,-0.20258 0.17386,-1.31146 0.06728,-1.63911c-0.10658,-0.32769 -1.12445,-0.95879 -1.01798,-1.28644c0.10658,-0.32769 1.30103,-0.24 1.57973,-0.44239c0.27855,-0.20258 0.5644,-1.36569 0.9089,-1.36569z" data-paper-data="{&quot;origPos&quot;:null}" id="path1428-0-2-5" fill="#1eff00" stroke="none" stroke-width="0.23811" stroke-miterlimit="4" stroke-dashoffset="17.35"/></g></g></svg>