<svg version="1.1" xmlns="http://www.w3.org/2000/svg" xmlns:xlink="http://www.w3.org/1999/xlink" width="52.115" height="72.465" viewBox="0,0,52.115,72.465"><g transform="translate(-213.963,-143.77)"><g data-paper-data="{&quot;isPaintingLayer&quot;:true}" fill="#ffffff" fill-rule="nonzero" stroke="none" stroke-width="0" stroke-linecap="butt" stroke-linejoin="miter" stroke-miterlimit="10" stroke-dasharray="" stroke-dashoffset="0" style="mix-blend-mode: normal"><path d="M250.925,145.502c3.089,1.091 5.76,2.631 8.012,4.619c2.252,1.989 3.989,4.396 5.211,7.219c1.287,2.759 1.93,5.805 1.93,9.141c0,3.849 -0.772,7.059 -2.317,9.625c-1.544,2.502 -3.633,4.747 -6.271,6.736c-2.638,1.925 -5.727,3.817 -9.266,5.678c-3.539,1.86 -7.304,4.041 -11.293,6.543c-1.608,1.026 -3.055,2.117 -4.342,3.271c-1.222,1.091 -2.284,2.183 -3.185,3.274c-0.901,1.026 -1.608,1.988 -2.123,2.887c-0.451,0.898 -0.676,1.603 -0.676,2.117c0,0.513 0.225,0.769 0.676,0.769h31.849c1.223,0 2.252,0.45 3.088,1.348c0.901,0.834 1.352,1.861 1.352,3.08c0,1.219 -0.451,2.278 -1.352,3.176c-0.836,0.834 -1.865,1.25 -3.088,1.25h-38.798c-1.802,0 -3.313,-0.609 -4.536,-1.828c-1.222,-1.283 -1.833,-2.792 -1.833,-4.524c0,-1.668 0.546,-3.464 1.64,-5.388c1.158,-1.989 2.607,-3.947 4.344,-5.872c1.737,-1.988 3.634,-3.849 5.693,-5.582c2.123,-1.796 4.15,-3.336 6.08,-4.619c3.089,-1.989 6.082,-3.816 8.977,-5.484c2.895,-1.668 5.469,-3.369 7.721,-5.102c2.252,-1.732 4.053,-3.528 5.404,-5.388c1.351,-1.925 2.027,-4.139 2.027,-6.641c0,-2.374 -0.419,-4.394 -1.256,-6.062c-0.836,-1.669 -1.961,-3.015 -3.377,-4.041c-1.351,-1.091 -2.929,-1.862 -4.73,-2.311c-1.802,-0.513 -3.667,-0.77 -5.598,-0.77c-1.93,0 -3.796,0.29 -5.597,0.868c-1.802,0.513 -3.409,1.282 -4.825,2.308c-1.415,1.027 -2.573,2.31 -3.474,3.85c-0.837,1.54 -1.256,3.272 -1.256,5.197c0,2.053 -0.547,3.593 -1.641,4.619c-1.029,1.027 -2.187,1.539 -3.474,1.539c-1.287,0 -2.443,-0.481 -3.473,-1.443c-1.029,-1.027 -1.545,-2.566 -1.545,-4.619c0,-3.144 0.739,-6.03 2.219,-8.66c1.48,-2.631 3.41,-4.845 5.791,-6.641c2.445,-1.861 5.179,-3.306 8.203,-4.332c3.024,-1.027 6.048,-1.539 9.072,-1.539c3.603,0 6.949,0.578 10.037,1.732z"/></g></g></svg>